ISO-10303-21;
HEADER;
FILE_DESCRIPTION (( 'STEP AP214' ),
    '1' );
FILE_NAME ('buck converter.STEP',
    '2026-05-05T17:38:35',
    ( '' ),
    ( '' ),
    'SwSTEP 2.0',
    'SolidWorks 2025',
    '' );
FILE_SCHEMA (( 'AUTOMOTIVE_DESIGN' ));
ENDSEC;

DATA;
#1 = EDGE_LOOP ( 'NONE', ( #65, #491 ) ) ;
#2 = CARTESIAN_POINT ( 'NONE',  ( 5.450000000000000178, 17.42500000000000071, -7.650000000000002132 ) ) ;
#3 = EDGE_LOOP ( 'NONE', ( #238, #113, #300, #367 ) ) ;
#4 = DIRECTION ( 'NONE',  ( 1.000000000000000000, 0.000000000000000000, 0.000000000000000000 ) ) ;
#5 = UNCERTAINTY_MEASURE_WITH_UNIT (LENGTH_MEASURE( 1.000000000000000082E-05 ), #331, 'distance_accuracy_value', 'NONE');
#6 = VERTEX_POINT ( 'NONE', #93 ) ;
#7 =( LENGTH_UNIT ( ) NAMED_UNIT ( * ) SI_UNIT ( .MILLI., .METRE. ) );
#8 = FACE_BOUND ( 'NONE', #1, .T. ) ;
#9 = EDGE_CURVE ( 'NONE', #334, #411, #58, .T. ) ;
#10 = AXIS2_PLACEMENT_3D ( 'NONE', #340, #316, #469 ) ;
#11 = DIRECTION ( 'NONE',  ( 1.000000000000000000, 0.000000000000000000, 0.000000000000000000 ) ) ;
#12 = LINE ( 'NONE', #210, #178 ) ;
#13 = DIRECTION ( 'NONE',  ( 0.000000000000000000, 0.000000000000000000, 1.000000000000000000 ) ) ;
#14 = DIRECTION ( 'NONE',  ( 0.000000000000000000, 0.000000000000000000, 1.000000000000000000 ) ) ;
#15 = PRODUCT ( 'buck converter', 'buck converter', '', ( #144 ) ) ;
#16 = DIRECTION ( 'NONE',  ( 0.000000000000000000, 0.000000000000000000, -1.000000000000000000 ) ) ;
#17 = DIRECTION ( 'NONE',  ( 1.000000000000000000, 0.000000000000000000, 0.000000000000000000 ) ) ;
#18 = CIRCLE ( 'NONE', #148, 1.000000000000000000 ) ;
#19 = DIRECTION ( 'NONE',  ( 0.000000000000000000, 0.000000000000000000, -1.000000000000000000 ) ) ;
#20 = DIRECTION ( 'NONE',  ( 0.000000000000000000, 0.000000000000000000, -1.000000000000000000 ) ) ;
#21 = ADVANCED_FACE ( 'NONE', ( #165 ), #244, .F. ) ;
#22 = LINE ( 'NONE', #292, #280 ) ;
#23 = VECTOR ( 'NONE', #223, 1000.000000000000000 ) ;
#24 = CYLINDRICAL_SURFACE ( 'NONE', #408, 1.000000000000000888 ) ;
#25 = ORIENTED_EDGE ( 'NONE', *, *, #66, .T. ) ;
#26 = DIRECTION ( 'NONE',  ( -1.000000000000000000, -0.000000000000000000, -0.000000000000000000 ) ) ;
#27 = SHAPE_DEFINITION_REPRESENTATION ( #392, #109 ) ;
#28 = CARTESIAN_POINT ( 'NONE',  ( 0.000000000000000000, 0.000000000000000000, -31.00000000000000000 ) ) ;
#29 = ORIENTED_EDGE ( 'NONE', *, *, #368, .T. ) ;
#30 = AXIS2_PLACEMENT_3D ( 'NONE', #351, #213, #137 ) ;
#31 = CARTESIAN_POINT ( 'NONE',  ( 5.450000000000000178, 2.924999999999998934, -23.34999999999999787 ) ) ;
#32 = DIRECTION ( 'NONE',  ( 1.000000000000000000, 0.000000000000000000, 0.000000000000000000 ) ) ;
#33 = ORIENTED_EDGE ( 'NONE', *, *, #55, .T. ) ;
#34 = ADVANCED_FACE ( 'NONE', ( #356 ), #403, .F. ) ;
#35 = VECTOR ( 'NONE', #497, 1000.000000000000000 ) ;
#36 = CARTESIAN_POINT ( 'NONE',  ( 5.450000000000000178, 17.42500000000000071, -5.650000000000002132 ) ) ;
#37 = VERTEX_POINT ( 'NONE', #358 ) ;
#38 = ADVANCED_FACE ( 'NONE', ( #402, #60, #216, #89, #396 ), #361, .T. ) ;
#39 = CARTESIAN_POINT ( 'NONE',  ( 0.000000000000000000, 0.000000000000000000, -31.00000000000000000 ) ) ;
#40 = EDGE_LOOP ( 'NONE', ( #224, #108, #457, #173 ) ) ;
#41 = DIRECTION ( 'NONE',  ( 0.000000000000000000, 0.000000000000000000, -1.000000000000000000 ) ) ;
#42 = UNCERTAINTY_MEASURE_WITH_UNIT (LENGTH_MEASURE( 1.000000000000000082E-05 ), #326, 'distance_accuracy_value', 'NONE');
#43 = ORIENTED_EDGE ( 'NONE', *, *, #278, .F. ) ;
#44 = DIRECTION ( 'NONE',  ( -1.000000000000000000, -0.000000000000000000, -0.000000000000000000 ) ) ;
#45 = ORIENTED_EDGE ( 'NONE', *, *, #278, .T. ) ;
#46 = CIRCLE ( 'NONE', #241, 1.000000000000000888 ) ;
#47 = PRODUCT_DEFINITION_CONTEXT ( 'detailed design', #151, 'design' ) ;
#48 = ORIENTED_EDGE ( 'NONE', *, *, #452, .T. ) ;
#49 = EDGE_CURVE ( 'NONE', #423, #193, #135, .T. ) ;
#50 = FILL_AREA_STYLE_COLOUR ( '', #197 ) ;
#51 = CARTESIAN_POINT ( 'NONE',  ( 5.450000000000000178, 0.000000000000000000, 0.000000000000000000 ) ) ;
#52 = AXIS2_PLACEMENT_3D ( 'NONE', #275, #160, #234 ) ;
#53 = DIRECTION ( 'NONE',  ( -1.000000000000000000, -0.000000000000000000, -0.000000000000000000 ) ) ;
#54 = ORIENTED_EDGE ( 'NONE', *, *, #481, .T. ) ;
#55 = EDGE_CURVE ( 'NONE', #104, #119, #486, .T. ) ;
#56 = CLOSED_SHELL ( 'NONE', ( #180, #354, #115, #21, #78, #38, #34, #406, #123, #293, #342, #474, #145, #167 ) ) ;
#57 = DIRECTION ( 'NONE',  ( -0.000000000000000000, 1.000000000000000000, 0.000000000000000000 ) ) ;
#58 = LINE ( 'NONE', #286, #247 ) ;
#59 = DIRECTION ( 'NONE',  ( 1.000000000000000000, 0.000000000000000000, 0.000000000000000000 ) ) ;
#60 = FACE_BOUND ( 'NONE', #70, .T. ) ;
#61 = VECTOR ( 'NONE', #19, 1000.000000000000000 ) ;
#62 = VECTOR ( 'NONE', #237, 1000.000000000000000 ) ;
#63 = FACE_BOUND ( 'NONE', #443, .T. ) ;
#64 = DIRECTION ( 'NONE',  ( -0.000000000000000000, -0.000000000000000000, 1.000000000000000000 ) ) ;
#65 = ORIENTED_EDGE ( 'NONE', *, *, #386, .F. ) ;
#66 = EDGE_CURVE ( 'NONE', #6, #37, #391, .T. ) ;
#67 = LINE ( 'NONE', #444, #23 ) ;
#68 = ORIENTED_EDGE ( 'NONE', *, *, #386, .T. ) ;
#69 = FACE_OUTER_BOUND ( 'NONE', #163, .T. ) ;
#70 = EDGE_LOOP ( 'NONE', ( #156, #146 ) ) ;
#71 = EDGE_CURVE ( 'NONE', #284, #407, #203, .T. ) ;
#72 = CARTESIAN_POINT ( 'NONE',  ( 0.000000000000000000, 17.42500000000000071, -23.34999999999999787 ) ) ;
#73 = LINE ( 'NONE', #495, #194 ) ;
#74 = ORIENTED_EDGE ( 'NONE', *, *, #378, .T. ) ;
#75 = CARTESIAN_POINT ( 'NONE',  ( 5.450000000000000178, 17.42500000000000071, -6.650000000000002132 ) ) ;
#76 = ORIENTED_EDGE ( 'NONE', *, *, #138, .T. ) ;
#77 = CIRCLE ( 'NONE', #230, 1.000000000000000888 ) ;
#78 = ADVANCED_FACE ( 'NONE', ( #242, #439, #63, #8, #313 ), #394, .F. ) ;
#79 = CARTESIAN_POINT ( 'NONE',  ( 0.000000000000000000, 20.35000000000000142, 0.000000000000000000 ) ) ;
#80 = ORIENTED_EDGE ( 'NONE', *, *, #485, .T. ) ;
#81 = CARTESIAN_POINT ( 'NONE',  ( 5.450000000000000178, 17.42500000000000071, -7.650000000000002132 ) ) ;
#82 = ORIENTED_EDGE ( 'NONE', *, *, #456, .F. ) ;
#83 = VECTOR ( 'NONE', #214, 1000.000000000000000 ) ;
#84 = CARTESIAN_POINT ( 'NONE',  ( 5.450000000000000178, 17.42500000000000071, -23.34999999999999787 ) ) ;
#85 = ORIENTED_EDGE ( 'NONE', *, *, #368, .F. ) ;
#86 = DIRECTION ( 'NONE',  ( 0.000000000000000000, 1.000000000000000000, 0.000000000000000000 ) ) ;
#87 = ORIENTED_EDGE ( 'NONE', *, *, #363, .T. ) ;
#88 = PRESENTATION_LAYER_ASSIGNMENT (  '', '', ( #450 ) ) ;
#89 = FACE_BOUND ( 'NONE', #186, .T. ) ;
#90 = CARTESIAN_POINT ( 'NONE',  ( 5.450000000000000178, 0.000000000000000000, -31.00000000000000000 ) ) ;
#91 = CARTESIAN_POINT ( 'NONE',  ( 0.000000000000000000, 17.42500000000000071, -6.650000000000002132 ) ) ;
#92 = EDGE_CURVE ( 'NONE', #423, #262, #12, .T. ) ;
#93 = CARTESIAN_POINT ( 'NONE',  ( 0.000000000000000000, 17.42500000000000071, -5.650000000000002132 ) ) ;
#94 = EDGE_CURVE ( 'NONE', #153, #235, #451, .T. ) ;
#95 = CARTESIAN_POINT ( 'NONE',  ( 5.450000000000000178, 17.42500000000000071, -24.35000000000000142 ) ) ;
#96 = DIRECTION ( 'NONE',  ( -1.000000000000000000, -0.000000000000000000, -0.000000000000000000 ) ) ;
#97 = DIRECTION ( 'NONE',  ( -1.000000000000000000, -0.000000000000000000, -0.000000000000000000 ) ) ;
#98 = DIRECTION ( 'NONE',  ( 0.000000000000000000, 0.000000000000000000, 1.000000000000000000 ) ) ;
#99 = CIRCLE ( 'NONE', #277, 1.000000000000000000 ) ;
#100 = ORIENTED_EDGE ( 'NONE', *, *, #9, .F. ) ;
#101 = SURFACE_STYLE_FILL_AREA ( #168 ) ;
#102 = VERTEX_POINT ( 'NONE', #433 ) ;
#103 = DIRECTION ( 'NONE',  ( 1.000000000000000000, 0.000000000000000000, -0.000000000000000000 ) ) ;
#104 = VERTEX_POINT ( 'NONE', #171 ) ;
#105 = AXIS2_PLACEMENT_3D ( 'NONE', #393, #472, #467 ) ;
#106 =( NAMED_UNIT ( * ) SI_UNIT ( $, .STERADIAN. ) SOLID_ANGLE_UNIT ( ) );
#107 = DIRECTION ( 'NONE',  ( 0.000000000000000000, 0.000000000000000000, 1.000000000000000000 ) ) ;
#108 = ORIENTED_EDGE ( 'NONE', *, *, #248, .F. ) ;
#109 = ADVANCED_BREP_SHAPE_REPRESENTATION ( 'buck converter', ( #117, #424 ), #383 ) ;
#110 =( GEOMETRIC_REPRESENTATION_CONTEXT ( 3 ) GLOBAL_UNCERTAINTY_ASSIGNED_CONTEXT ( ( #5 ) ) GLOBAL_UNIT_ASSIGNED_CONTEXT ( ( #331, #256, #106 ) ) REPRESENTATION_CONTEXT ( 'NONE', 'WORKASPACE' ) );
#111 = AXIS2_PLACEMENT_3D ( 'NONE', #51, #207, #353 ) ;
#112 = CARTESIAN_POINT ( 'NONE',  ( 5.450000000000000178, 17.42500000000000071, -24.35000000000000142 ) ) ;
#113 = ORIENTED_EDGE ( 'NONE', *, *, #498, .F. ) ;
#114 = CARTESIAN_POINT ( 'NONE',  ( 5.450000000000000178, 2.924999999999998934, -25.35000000000000142 ) ) ;
#115 = ADVANCED_FACE ( 'NONE', ( #319 ), #325, .F. ) ;
#116 = ORIENTED_EDGE ( 'NONE', *, *, #219, .T. ) ;
#117 = MANIFOLD_SOLID_BREP ( 'Boss-Extrude1', #56 ) ;
#118 = DIRECTION ( 'NONE',  ( -0.000000000000000000, -0.000000000000000000, 1.000000000000000000 ) ) ;
#119 = VERTEX_POINT ( 'NONE', #179 ) ;
#120 = AXIS2_PLACEMENT_3D ( 'NONE', #127, #97, #249 ) ;
#121 = CYLINDRICAL_SURFACE ( 'NONE', #126, 1.000000000000000000 ) ;
#122 = EDGE_LOOP ( 'NONE', ( #308, #29, #175, #479 ) ) ;
#123 = ADVANCED_FACE ( 'NONE', ( #69 ), #413, .F. ) ;
#124 = DIRECTION ( 'NONE',  ( -1.000000000000000000, -0.000000000000000000, -0.000000000000000000 ) ) ;
#125 = ORIENTED_EDGE ( 'NONE', *, *, #381, .F. ) ;
#126 = AXIS2_PLACEMENT_3D ( 'NONE', #271, #426, #263 ) ;
#127 = CARTESIAN_POINT ( 'NONE',  ( 5.450000000000000178, 2.924999999999995381, -6.650000000000003020 ) ) ;
#128 = AXIS2_PLACEMENT_3D ( 'NONE', #149, #336, #107 ) ;
#129 = CARTESIAN_POINT ( 'NONE',  ( 0.000000000000000000, 17.42500000000000071, -24.35000000000000142 ) ) ;
#130 = DIRECTION ( 'NONE',  ( -1.000000000000000000, 0.000000000000000000, 0.000000000000000000 ) ) ;
#131 = CARTESIAN_POINT ( 'NONE',  ( 5.450000000000000178, 20.35000000000000142, 0.000000000000000000 ) ) ;
#132 = VECTOR ( 'NONE', #436, 1000.000000000000000 ) ;
#133 = CARTESIAN_POINT ( 'NONE',  ( 0.000000000000000000, 0.000000000000000000, 0.000000000000000000 ) ) ;
#134 = LINE ( 'NONE', #285, #61 ) ;
#135 = LINE ( 'NONE', #435, #400 ) ;
#136 = DIRECTION ( 'NONE',  ( 0.000000000000000000, 0.000000000000000000, -1.000000000000000000 ) ) ;
#137 = DIRECTION ( 'NONE',  ( -1.000000000000000000, 0.000000000000000000, -0.000000000000000000 ) ) ;
#138 = EDGE_CURVE ( 'NONE', #389, #102, #329, .T. ) ;
#139 = SURFACE_STYLE_USAGE ( .BOTH. , #487 ) ;
#140 = CARTESIAN_POINT ( 'NONE',  ( 0.000000000000000000, 2.924999999999998934, -24.35000000000000142 ) ) ;
#141 = AXIS2_PLACEMENT_3D ( 'NONE', #189, #4, #201 ) ;
#142 = CARTESIAN_POINT ( 'NONE',  ( 5.450000000000000178, 0.000000000000000000, -31.00000000000000000 ) ) ;
#143 = ORIENTED_EDGE ( 'NONE', *, *, #49, .T. ) ;
#144 = PRODUCT_CONTEXT ( 'NONE', #211, 'mechanical' ) ;
#145 = ADVANCED_FACE ( 'NONE', ( #225 ), #440, .F. ) ;
#146 = ORIENTED_EDGE ( 'NONE', *, *, #494, .T. ) ;
#147 = FILL_AREA_STYLE_COLOUR ( '', #480 ) ;
#148 = AXIS2_PLACEMENT_3D ( 'NONE', #357, #59, #360 ) ;
#149 = CARTESIAN_POINT ( 'NONE',  ( 5.450000000000000178, 17.42500000000000071, -6.650000000000002132 ) ) ;
#150 = EDGE_LOOP ( 'NONE', ( #33, #428 ) ) ;
#151 = APPLICATION_CONTEXT ( 'automotive_design' ) ;
#152 = CARTESIAN_POINT ( 'NONE',  ( 0.000000000000000000, 17.42500000000000071, -6.650000000000002132 ) ) ;
#153 = VERTEX_POINT ( 'NONE', #72 ) ;
#154 = AXIS2_PLACEMENT_3D ( 'NONE', #287, #431, #468 ) ;
#155 = PLANE ( 'NONE',  #52 ) ;
#156 = ORIENTED_EDGE ( 'NONE', *, *, #397, .T. ) ;
#157 = CARTESIAN_POINT ( 'NONE',  ( 5.450000000000000178, 17.42500000000000071, -25.35000000000000142 ) ) ;
#158 = EDGE_CURVE ( 'NONE', #119, #104, #46, .T. ) ;
#159 = EDGE_LOOP ( 'NONE', ( #87, #415, #418, #246 ) ) ;
#160 = DIRECTION ( 'NONE',  ( 0.000000000000000000, -1.000000000000000000, 0.000000000000000000 ) ) ;
#161 = VERTEX_POINT ( 'NONE', #414 ) ;
#162 = CARTESIAN_POINT ( 'NONE',  ( 0.000000000000000000, 20.35000000000000142, -31.00000000000000000 ) ) ;
#163 = EDGE_LOOP ( 'NONE', ( #310, #441, #454, #465 ) ) ;
#164 =( NAMED_UNIT ( * ) SI_UNIT ( $, .STERADIAN. ) SOLID_ANGLE_UNIT ( ) );
#165 = FACE_OUTER_BOUND ( 'NONE', #477, .T. ) ;
#166 = AXIS2_PLACEMENT_3D ( 'NONE', #112, #44, #417 ) ;
#167 = ADVANCED_FACE ( 'NONE', ( #410 ), #24, .F. ) ;
#168 = FILL_AREA_STYLE ('',( #50 ) ) ;
#169 = DIRECTION ( 'NONE',  ( -1.000000000000000000, -0.000000000000000000, -0.000000000000000000 ) ) ;
#170 = CARTESIAN_POINT ( 'NONE',  ( 5.450000000000000178, 17.42500000000000071, -5.650000000000002132 ) ) ;
#171 = CARTESIAN_POINT ( 'NONE',  ( 0.000000000000000000, 2.924999999999998934, -23.34999999999999787 ) ) ;
#172 = PRESENTATION_LAYER_ASSIGNMENT (  '', '', ( #476 ) ) ;
#173 = ORIENTED_EDGE ( 'NONE', *, *, #438, .F. ) ;
#174 = LINE ( 'NONE', #131, #489 ) ;
#175 = ORIENTED_EDGE ( 'NONE', *, *, #199, .T. ) ;
#176 = EDGE_CURVE ( 'NONE', #389, #233, #67, .T. ) ;
#177 = AXIS2_PLACEMENT_3D ( 'NONE', #221, #26, #289 ) ;
#178 = VECTOR ( 'NONE', #169, 1000.000000000000000 ) ;
#179 = CARTESIAN_POINT ( 'NONE',  ( 0.000000000000000000, 2.924999999999998934, -25.35000000000000142 ) ) ;
#180 = ADVANCED_FACE ( 'NONE', ( #448 ), #181, .F. ) ;
#181 = CYLINDRICAL_SURFACE ( 'NONE', #177, 1.000000000000000888 ) ;
#182 = VERTEX_POINT ( 'NONE', #362 ) ;
#183 = PRESENTATION_STYLE_ASSIGNMENT (( #139 ) ) ;
#184 = CARTESIAN_POINT ( 'NONE',  ( 5.450000000000000178, 2.924999999999998934, -24.35000000000000142 ) ) ;
#185 = DIRECTION ( 'NONE',  ( -1.000000000000000000, -0.000000000000000000, -0.000000000000000000 ) ) ;
#186 = EDGE_LOOP ( 'NONE', ( #25, #380 ) ) ;
#187 = DIRECTION ( 'NONE',  ( -1.000000000000000000, -0.000000000000000000, -0.000000000000000000 ) ) ;
#188 = ORIENTED_EDGE ( 'NONE', *, *, #92, .T. ) ;
#189 = CARTESIAN_POINT ( 'NONE',  ( 5.450000000000000178, 2.924999999999995381, -6.650000000000003020 ) ) ;
#190 = CIRCLE ( 'NONE', #10, 1.000000000000000888 ) ;
#191 = EDGE_LOOP ( 'NONE', ( #421, #80, #45, #493 ) ) ;
#192 = DIRECTION ( 'NONE',  ( -1.000000000000000000, -0.000000000000000000, -0.000000000000000000 ) ) ;
#193 = VERTEX_POINT ( 'NONE', #369 ) ;
#194 = VECTOR ( 'NONE', #306, 1000.000000000000000 ) ;
#195 = FACE_OUTER_BOUND ( 'NONE', #3, .T. ) ;
#196 = VERTEX_POINT ( 'NONE', #28 ) ;
#197 = COLOUR_RGB ( '',0.5490196078431373028, 0.000000000000000000, 0.6862745098039215730 ) ;
#198 = LINE ( 'NONE', #379, #471 ) ;
#199 = EDGE_CURVE ( 'NONE', #182, #104, #447, .T. ) ;
#200 = ORIENTED_EDGE ( 'NONE', *, *, #55, .F. ) ;
#201 = DIRECTION ( 'NONE',  ( 0.000000000000000000, 0.000000000000000000, -1.000000000000000000 ) ) ;
#202 = ORIENTED_EDGE ( 'NONE', *, *, #456, .T. ) ;
#203 = CIRCLE ( 'NONE', #154, 1.000000000000000000 ) ;
#204 = CARTESIAN_POINT ( 'NONE',  ( 0.000000000000000000, 2.924999999999995381, -5.650000000000003020 ) ) ;
#205 = VERTEX_POINT ( 'NONE', #364 ) ;
#206 = LINE ( 'NONE', #90, #83 ) ;
#207 = DIRECTION ( 'NONE',  ( -1.000000000000000000, 0.000000000000000000, 0.000000000000000000 ) ) ;
#208 = CIRCLE ( 'NONE', #404, 1.000000000000000000 ) ;
#209 = CYLINDRICAL_SURFACE ( 'NONE', #236, 1.000000000000000000 ) ;
#210 = CARTESIAN_POINT ( 'NONE',  ( 5.450000000000000178, 0.000000000000000000, 0.000000000000000000 ) ) ;
#211 = APPLICATION_CONTEXT ( 'automotive_design' ) ;
#212 = CARTESIAN_POINT ( 'NONE',  ( 5.450000000000000178, 0.000000000000000000, 0.000000000000000000 ) ) ;
#213 = DIRECTION ( 'NONE',  ( 0.000000000000000000, 0.000000000000000000, -1.000000000000000000 ) ) ;
#214 = DIRECTION ( 'NONE',  ( -1.000000000000000000, -0.000000000000000000, -0.000000000000000000 ) ) ;
#215 = AXIS2_PLACEMENT_3D ( 'NONE', #212, #57, #352 ) ;
#216 = FACE_OUTER_BOUND ( 'NONE', #40, .T. ) ;
#217 = EDGE_CURVE ( 'NONE', #348, #262, #22, .T. ) ;
#218 = DIRECTION ( 'NONE',  ( 0.000000000000000000, 0.000000000000000000, 1.000000000000000000 ) ) ;
#219 = EDGE_CURVE ( 'NONE', #337, #235, #73, .T. ) ;
#220 = VECTOR ( 'NONE', #187, 1000.000000000000000 ) ;
#221 = CARTESIAN_POINT ( 'NONE',  ( 5.450000000000000178, 2.924999999999998934, -24.35000000000000142 ) ) ;
#222 = EDGE_CURVE ( 'NONE', #254, #161, #198, .T. ) ;
#223 = DIRECTION ( 'NONE',  ( -1.000000000000000000, -0.000000000000000000, -0.000000000000000000 ) ) ;
#224 = ORIENTED_EDGE ( 'NONE', *, *, #217, .F. ) ;
#225 = FACE_OUTER_BOUND ( 'NONE', #191, .T. ) ;
#226 = EDGE_LOOP ( 'NONE', ( #259, #437, #200, #346 ) ) ;
#227 = DIRECTION ( 'NONE',  ( 0.000000000000000000, 1.000000000000000000, 0.000000000000000000 ) ) ;
#228 = EDGE_CURVE ( 'NONE', #334, #254, #419, .T. ) ;
#229 = DIRECTION ( 'NONE',  ( 0.000000000000000000, 0.000000000000000000, -1.000000000000000000 ) ) ;
#230 = AXIS2_PLACEMENT_3D ( 'NONE', #376, #339, #265 ) ;
#231 = VERTEX_POINT ( 'NONE', #232 ) ;
#232 = CARTESIAN_POINT ( 'NONE',  ( 5.450000000000000178, 2.924999999999998934, -25.35000000000000142 ) ) ;
#233 = VERTEX_POINT ( 'NONE', #162 ) ;
#234 = DIRECTION ( 'NONE',  ( 0.000000000000000000, -0.000000000000000000, -1.000000000000000000 ) ) ;
#235 = VERTEX_POINT ( 'NONE', #304 ) ;
#236 = AXIS2_PLACEMENT_3D ( 'NONE', #243, #53, #13 ) ;
#237 = DIRECTION ( 'NONE',  ( -1.000000000000000000, -0.000000000000000000, -0.000000000000000000 ) ) ;
#238 = ORIENTED_EDGE ( 'NONE', *, *, #248, .T. ) ;
#239 = DIRECTION ( 'NONE',  ( 1.000000000000000000, 0.000000000000000000, 0.000000000000000000 ) ) ;
#240 = ORIENTED_EDGE ( 'NONE', *, *, #222, .T. ) ;
#241 = AXIS2_PLACEMENT_3D ( 'NONE', #140, #366, #405 ) ;
#242 = FACE_OUTER_BOUND ( 'NONE', #475, .T. ) ;
#243 = CARTESIAN_POINT ( 'NONE',  ( 5.450000000000000178, 17.42500000000000071, -6.650000000000002132 ) ) ;
#244 = CYLINDRICAL_SURFACE ( 'NONE', #120, 1.000000000000000000 ) ;
#245 = CARTESIAN_POINT ( 'NONE',  ( 5.450000000000000178, 20.35000000000000142, -31.00000000000000000 ) ) ;
#246 = ORIENTED_EDGE ( 'NONE', *, *, #378, .F. ) ;
#247 = VECTOR ( 'NONE', #96, 1000.000000000000000 ) ;
#248 = EDGE_CURVE ( 'NONE', #233, #348, #268, .T. ) ;
#249 = DIRECTION ( 'NONE',  ( 0.000000000000000000, 0.000000000000000000, 1.000000000000000000 ) ) ;
#250 = EDGE_CURVE ( 'NONE', #196, #233, #422, .T. ) ;
#251 = DIRECTION ( 'NONE',  ( 1.000000000000000000, 0.000000000000000000, 0.000000000000000000 ) ) ;
#252 = AXIS2_PLACEMENT_3D ( 'NONE', #478, #429, #283 ) ;
#253 = SURFACE_STYLE_USAGE ( .BOTH. , #442 ) ;
#254 = VERTEX_POINT ( 'NONE', #345 ) ;
#255 = APPLICATION_PROTOCOL_DEFINITION ( 'draft international standard', 'automotive_design', 1998, #211 ) ;
#256 =( NAMED_UNIT ( * ) PLANE_ANGLE_UNIT ( ) SI_UNIT ( $, .RADIAN. ) );
#257 = EDGE_LOOP ( 'NONE', ( #303, #85 ) ) ;
#258 = FILL_AREA_STYLE ('',( #147 ) ) ;
#259 = ORIENTED_EDGE ( 'NONE', *, *, #307, .T. ) ;
#260 = CARTESIAN_POINT ( 'NONE',  ( 5.450000000000000178, 17.42500000000000071, -24.35000000000000142 ) ) ;
#261 = AXIS2_PLACEMENT_3D ( 'NONE', #142, #295, #103 ) ;
#262 = VERTEX_POINT ( 'NONE', #311 ) ;
#263 = DIRECTION ( 'NONE',  ( 0.000000000000000000, 0.000000000000000000, 1.000000000000000000 ) ) ;
#264 = ORIENTED_EDGE ( 'NONE', *, *, #228, .F. ) ;
#265 = DIRECTION ( 'NONE',  ( 0.000000000000000000, 0.000000000000000000, -1.000000000000000000 ) ) ;
#266 = VECTOR ( 'NONE', #227, 1000.000000000000000 ) ;
#267 = EDGE_LOOP ( 'NONE', ( #305, #312 ) ) ;
#268 = LINE ( 'NONE', #79, #483 ) ;
#269 = AXIS2_PLACEMENT_3D ( 'NONE', #279, #251, #322 ) ;
#270 = ORIENTED_EDGE ( 'NONE', *, *, #71, .T. ) ;
#271 = CARTESIAN_POINT ( 'NONE',  ( 5.450000000000000178, 2.924999999999995381, -6.650000000000003020 ) ) ;
#272 = ORIENTED_EDGE ( 'NONE', *, *, #460, .F. ) ;
#273 = VECTOR ( 'NONE', #86, 1000.000000000000000 ) ;
#274 = CIRCLE ( 'NONE', #105, 1.000000000000000000 ) ;
#275 = CARTESIAN_POINT ( 'NONE',  ( 5.450000000000000178, 20.35000000000000142, 0.000000000000000000 ) ) ;
#276 = ORIENTED_EDGE ( 'NONE', *, *, #92, .F. ) ;
#277 = AXIS2_PLACEMENT_3D ( 'NONE', #152, #420, #301 ) ;
#278 = EDGE_CURVE ( 'NONE', #205, #153, #453, .T. ) ;
#279 = CARTESIAN_POINT ( 'NONE',  ( 0.000000000000000000, 2.924999999999998934, -24.35000000000000142 ) ) ;
#280 = VECTOR ( 'NONE', #327, 1000.000000000000000 ) ;
#281 = LINE ( 'NONE', #350, #273 ) ;
#282 = DIRECTION ( 'NONE',  ( 0.000000000000000000, 0.000000000000000000, -1.000000000000000000 ) ) ;
#283 = DIRECTION ( 'NONE',  ( 0.000000000000000000, 0.000000000000000000, -1.000000000000000000 ) ) ;
#284 = VERTEX_POINT ( 'NONE', #81 ) ;
#285 = CARTESIAN_POINT ( 'NONE',  ( 0.000000000000000000, 0.000000000000000000, 0.000000000000000000 ) ) ;
#286 = CARTESIAN_POINT ( 'NONE',  ( 5.450000000000000178, 2.924999999999995381, -5.650000000000003020 ) ) ;
#287 = CARTESIAN_POINT ( 'NONE',  ( 5.450000000000000178, 17.42500000000000071, -6.650000000000002132 ) ) ;
#288 = CARTESIAN_POINT ( 'NONE',  ( 0.000000000000000000, 0.000000000000000000, 0.000000000000000000 ) ) ;
#289 = DIRECTION ( 'NONE',  ( 0.000000000000000000, 0.000000000000000000, 1.000000000000000000 ) ) ;
#290 = ORIENTED_EDGE ( 'NONE', *, *, #481, .F. ) ;
#291 = VECTOR ( 'NONE', #192, 1000.000000000000000 ) ;
#292 = CARTESIAN_POINT ( 'NONE',  ( 0.000000000000000000, 0.000000000000000000, 0.000000000000000000 ) ) ;
#293 = ADVANCED_FACE ( 'NONE', ( #195 ), #155, .F. ) ;
#294 = ORIENTED_EDGE ( 'NONE', *, *, #71, .F. ) ;
#295 = DIRECTION ( 'NONE',  ( 0.000000000000000000, 0.000000000000000000, 1.000000000000000000 ) ) ;
#296 = EDGE_LOOP ( 'NONE', ( #341, #272, #462, #188 ) ) ;
#297 = DIRECTION ( 'NONE',  ( 0.000000000000000000, 0.000000000000000000, 1.000000000000000000 ) ) ;
#298 = EDGE_LOOP ( 'NONE', ( #68, #116, #344, #43 ) ) ;
#299 = SURFACE_STYLE_FILL_AREA ( #258 ) ;
#300 = ORIENTED_EDGE ( 'NONE', *, *, #138, .F. ) ;
#301 = DIRECTION ( 'NONE',  ( 0.000000000000000000, 0.000000000000000000, -1.000000000000000000 ) ) ;
#302 = VECTOR ( 'NONE', #64, 1000.000000000000000 ) ;
#303 = ORIENTED_EDGE ( 'NONE', *, *, #307, .F. ) ;
#304 = CARTESIAN_POINT ( 'NONE',  ( 0.000000000000000000, 17.42500000000000071, -25.35000000000000142 ) ) ;
#305 = ORIENTED_EDGE ( 'NONE', *, *, #94, .T. ) ;
#306 = DIRECTION ( 'NONE',  ( -1.000000000000000000, -0.000000000000000000, -0.000000000000000000 ) ) ;
#307 = EDGE_CURVE ( 'NONE', #182, #231, #314, .T. ) ;
#308 = ORIENTED_EDGE ( 'NONE', *, *, #333, .F. ) ;
#309 = CARTESIAN_POINT ( 'NONE',  ( 5.450000000000000178, 2.924999999999995381, -5.650000000000003020 ) ) ;
#310 = ORIENTED_EDGE ( 'NONE', *, *, #250, .T. ) ;
#311 = CARTESIAN_POINT ( 'NONE',  ( 0.000000000000000000, 0.000000000000000000, 0.000000000000000000 ) ) ;
#312 = ORIENTED_EDGE ( 'NONE', *, *, #425, .T. ) ;
#313 = FACE_BOUND ( 'NONE', #257, .T. ) ;
#314 = CIRCLE ( 'NONE', #375, 1.000000000000000888 ) ;
#315 = EDGE_CURVE ( 'NONE', #284, #37, #464, .T. ) ;
#316 = DIRECTION ( 'NONE',  ( 1.000000000000000000, 0.000000000000000000, 0.000000000000000000 ) ) ;
#317 = CARTESIAN_POINT ( 'NONE',  ( 0.000000000000000000, 17.42500000000000071, -24.35000000000000142 ) ) ;
#318 = LINE ( 'NONE', #432, #132 ) ;
#319 = FACE_OUTER_BOUND ( 'NONE', #159, .T. ) ;
#320 = CIRCLE ( 'NONE', #359, 1.000000000000000888 ) ;
#321 = DIRECTION ( 'NONE',  ( 0.000000000000000000, 0.000000000000000000, -1.000000000000000000 ) ) ;
#322 = DIRECTION ( 'NONE',  ( 0.000000000000000000, 0.000000000000000000, -1.000000000000000000 ) ) ;
#323 = MECHANICAL_DESIGN_GEOMETRIC_PRESENTATION_REPRESENTATION (  '', ( #450 ), #110 ) ;
#324 = APPLICATION_PROTOCOL_DEFINITION ( 'draft international standard', 'automotive_design', 1998, #151 ) ;
#325 = CYLINDRICAL_SURFACE ( 'NONE', #128, 1.000000000000000000 ) ;
#326 =( LENGTH_UNIT ( ) NAMED_UNIT ( * ) SI_UNIT ( .MILLI., .METRE. ) );
#327 = DIRECTION ( 'NONE',  ( -0.000000000000000000, -1.000000000000000000, -0.000000000000000000 ) ) ;
#328 = PRODUCT_DEFINITION ( 'General', '', #488, #47 ) ;
#329 = LINE ( 'NONE', #371, #302 ) ;
#330 = AXIS2_PLACEMENT_3D ( 'NONE', #133, #130, #14 ) ;
#331 =( LENGTH_UNIT ( ) NAMED_UNIT ( * ) SI_UNIT ( .MILLI., .METRE. ) );
#332 =( GEOMETRIC_REPRESENTATION_CONTEXT ( 3 ) GLOBAL_UNCERTAINTY_ASSIGNED_CONTEXT ( ( #42 ) ) GLOBAL_UNIT_ASSIGNED_CONTEXT ( ( #326, #490, #409 ) ) REPRESENTATION_CONTEXT ( 'NONE', 'WORKASPACE' ) );
#333 = EDGE_CURVE ( 'NONE', #231, #119, #343, .T. ) ;
#334 = VERTEX_POINT ( 'NONE', #309 ) ;
#335 = DIRECTION ( 'NONE',  ( 1.000000000000000000, 0.000000000000000000, 0.000000000000000000 ) ) ;
#336 = DIRECTION ( 'NONE',  ( -1.000000000000000000, -0.000000000000000000, -0.000000000000000000 ) ) ;
#337 = VERTEX_POINT ( 'NONE', #157 ) ;
#338 = VECTOR ( 'NONE', #124, 1000.000000000000000 ) ;
#339 = DIRECTION ( 'NONE',  ( 1.000000000000000000, 0.000000000000000000, 0.000000000000000000 ) ) ;
#340 = CARTESIAN_POINT ( 'NONE',  ( 5.450000000000000178, 17.42500000000000071, -24.35000000000000142 ) ) ;
#341 = ORIENTED_EDGE ( 'NONE', *, *, #438, .T. ) ;
#342 = ADVANCED_FACE ( 'NONE', ( #461 ), #121, .F. ) ;
#343 = LINE ( 'NONE', #114, #35 ) ;
#344 = ORIENTED_EDGE ( 'NONE', *, *, #94, .F. ) ;
#345 = CARTESIAN_POINT ( 'NONE',  ( 5.450000000000000178, 2.924999999999995381, -7.650000000000003020 ) ) ;
#346 = ORIENTED_EDGE ( 'NONE', *, *, #199, .F. ) ;
#347 = CYLINDRICAL_SURFACE ( 'NONE', #166, 1.000000000000000888 ) ;
#348 = VERTEX_POINT ( 'NONE', #373 ) ;
#349 = AXIS2_PLACEMENT_3D ( 'NONE', #91, #17, #321 ) ;
#350 = CARTESIAN_POINT ( 'NONE',  ( 5.450000000000000178, 0.000000000000000000, -31.00000000000000000 ) ) ;
#351 = CARTESIAN_POINT ( 'NONE',  ( 5.450000000000000178, 0.000000000000000000, 0.000000000000000000 ) ) ;
#352 = DIRECTION ( 'NONE',  ( 0.000000000000000000, -0.000000000000000000, 1.000000000000000000 ) ) ;
#353 = DIRECTION ( 'NONE',  ( 0.000000000000000000, 0.000000000000000000, 1.000000000000000000 ) ) ;
#354 = ADVANCED_FACE ( 'NONE', ( #385 ), #347, .F. ) ;
#355 = CARTESIAN_POINT ( 'NONE',  ( 5.450000000000000178, 0.000000000000000000, 0.000000000000000000 ) ) ;
#356 = FACE_OUTER_BOUND ( 'NONE', #365, .T. ) ;
#357 = CARTESIAN_POINT ( 'NONE',  ( 5.450000000000000178, 2.924999999999995381, -6.650000000000003020 ) ) ;
#358 = CARTESIAN_POINT ( 'NONE',  ( 0.000000000000000000, 17.42500000000000071, -7.650000000000002132 ) ) ;
#359 = AXIS2_PLACEMENT_3D ( 'NONE', #129, #11, #136 ) ;
#360 = DIRECTION ( 'NONE',  ( 0.000000000000000000, 0.000000000000000000, -1.000000000000000000 ) ) ;
#361 = PLANE ( 'NONE',  #330 ) ;
#362 = CARTESIAN_POINT ( 'NONE',  ( 5.450000000000000178, 2.924999999999998934, -23.34999999999999787 ) ) ;
#363 = EDGE_CURVE ( 'NONE', #407, #284, #208, .T. ) ;
#364 = CARTESIAN_POINT ( 'NONE',  ( 5.450000000000000178, 17.42500000000000071, -23.34999999999999787 ) ) ;
#365 = EDGE_LOOP ( 'NONE', ( #374, #276, #82, #377 ) ) ;
#366 = DIRECTION ( 'NONE',  ( 1.000000000000000000, 0.000000000000000000, 0.000000000000000000 ) ) ;
#367 = ORIENTED_EDGE ( 'NONE', *, *, #176, .T. ) ;
#368 = EDGE_CURVE ( 'NONE', #231, #182, #77, .T. ) ;
#369 = CARTESIAN_POINT ( 'NONE',  ( 5.450000000000000178, 0.000000000000000000, -31.00000000000000000 ) ) ;
#370 = AXIS2_PLACEMENT_3D ( 'NONE', #317, #470, #282 ) ;
#371 = CARTESIAN_POINT ( 'NONE',  ( 5.450000000000000178, 20.35000000000000142, 0.000000000000000000 ) ) ;
#372 = ORIENTED_EDGE ( 'NONE', *, *, #494, .F. ) ;
#373 = CARTESIAN_POINT ( 'NONE',  ( 0.000000000000000000, 20.35000000000000142, 0.000000000000000000 ) ) ;
#374 = ORIENTED_EDGE ( 'NONE', *, *, #217, .T. ) ;
#375 = AXIS2_PLACEMENT_3D ( 'NONE', #382, #455, #41 ) ;
#376 = CARTESIAN_POINT ( 'NONE',  ( 5.450000000000000178, 2.924999999999998934, -24.35000000000000142 ) ) ;
#377 = ORIENTED_EDGE ( 'NONE', *, *, #498, .T. ) ;
#378 = EDGE_CURVE ( 'NONE', #407, #6, #492, .T. ) ;
#379 = CARTESIAN_POINT ( 'NONE',  ( 5.450000000000000178, 2.924999999999995381, -7.650000000000003020 ) ) ;
#380 = ORIENTED_EDGE ( 'NONE', *, *, #381, .T. ) ;
#381 = EDGE_CURVE ( 'NONE', #37, #6, #99, .T. ) ;
#382 = CARTESIAN_POINT ( 'NONE',  ( 5.450000000000000178, 2.924999999999998934, -24.35000000000000142 ) ) ;
#383 =( GEOMETRIC_REPRESENTATION_CONTEXT ( 3 ) GLOBAL_UNCERTAINTY_ASSIGNED_CONTEXT ( ( #473 ) ) GLOBAL_UNIT_ASSIGNED_CONTEXT ( ( #7, #401, #164 ) ) REPRESENTATION_CONTEXT ( 'NONE', 'WORKASPACE' ) );
#384 = ORIENTED_EDGE ( 'NONE', *, *, #363, .F. ) ;
#385 = FACE_OUTER_BOUND ( 'NONE', #298, .T. ) ;
#386 = EDGE_CURVE ( 'NONE', #205, #337, #190, .T. ) ;
#387 = EDGE_LOOP ( 'NONE', ( #496, #54, #449, #372 ) ) ;
#388 = PLANE ( 'NONE',  #215 ) ;
#389 = VERTEX_POINT ( 'NONE', #245 ) ;
#390 = AXIS2_PLACEMENT_3D ( 'NONE', #260, #482, #297 ) ;
#391 = CIRCLE ( 'NONE', #349, 1.000000000000000000 ) ;
#392 = PRODUCT_DEFINITION_SHAPE ( 'NONE', 'NONE',  #328 ) ;
#393 = CARTESIAN_POINT ( 'NONE',  ( 0.000000000000000000, 2.924999999999995381, -6.650000000000003020 ) ) ;
#394 = PLANE ( 'NONE',  #111 ) ;
#395 = FACE_OUTER_BOUND ( 'NONE', #459, .T. ) ;
#396 = FACE_BOUND ( 'NONE', #150, .T. ) ;
#397 = EDGE_CURVE ( 'NONE', #411, #161, #466, .T. ) ;
#398 = FACE_OUTER_BOUND ( 'NONE', #296, .T. ) ;
#399 = ORIENTED_EDGE ( 'NONE', *, *, #397, .F. ) ;
#400 = VECTOR ( 'NONE', #20, 1000.000000000000000 ) ;
#401 =( NAMED_UNIT ( * ) PLANE_ANGLE_UNIT ( ) SI_UNIT ( $, .RADIAN. ) );
#402 = FACE_BOUND ( 'NONE', #267, .T. ) ;
#403 = PLANE ( 'NONE',  #30 ) ;
#404 = AXIS2_PLACEMENT_3D ( 'NONE', #75, #32, #229 ) ;
#405 = DIRECTION ( 'NONE',  ( 0.000000000000000000, 0.000000000000000000, -1.000000000000000000 ) ) ;
#406 = ADVANCED_FACE ( 'NONE', ( #398 ), #388, .F. ) ;
#407 = VERTEX_POINT ( 'NONE', #170 ) ;
#408 = AXIS2_PLACEMENT_3D ( 'NONE', #184, #185, #218 ) ;
#409 =( NAMED_UNIT ( * ) SI_UNIT ( $, .STERADIAN. ) SOLID_ANGLE_UNIT ( ) );
#410 = FACE_OUTER_BOUND ( 'NONE', #122, .T. ) ;
#411 = VERTEX_POINT ( 'NONE', #204 ) ;
#412 = CIRCLE ( 'NONE', #427, 1.000000000000000888 ) ;
#413 = PLANE ( 'NONE',  #261 ) ;
#414 = CARTESIAN_POINT ( 'NONE',  ( 0.000000000000000000, 2.924999999999995381, -7.650000000000003020 ) ) ;
#415 = ORIENTED_EDGE ( 'NONE', *, *, #315, .T. ) ;
#416 = ORIENTED_EDGE ( 'NONE', *, *, #228, .T. ) ;
#417 = DIRECTION ( 'NONE',  ( 0.000000000000000000, 0.000000000000000000, 1.000000000000000000 ) ) ;
#418 = ORIENTED_EDGE ( 'NONE', *, *, #66, .F. ) ;
#419 = CIRCLE ( 'NONE', #141, 1.000000000000000000 ) ;
#420 = DIRECTION ( 'NONE',  ( 1.000000000000000000, 0.000000000000000000, 0.000000000000000000 ) ) ;
#421 = ORIENTED_EDGE ( 'NONE', *, *, #219, .F. ) ;
#422 = LINE ( 'NONE', #39, #266 ) ;
#423 = VERTEX_POINT ( 'NONE', #355 ) ;
#424 = AXIS2_PLACEMENT_3D ( 'NONE', #288, #98, #335 ) ;
#425 = EDGE_CURVE ( 'NONE', #235, #153, #320, .T. ) ;
#426 = DIRECTION ( 'NONE',  ( -1.000000000000000000, -0.000000000000000000, -0.000000000000000000 ) ) ;
#427 = AXIS2_PLACEMENT_3D ( 'NONE', #95, #239, #16 ) ;
#428 = ORIENTED_EDGE ( 'NONE', *, *, #158, .T. ) ;
#429 = DIRECTION ( 'NONE',  ( 1.000000000000000000, 0.000000000000000000, 0.000000000000000000 ) ) ;
#430 = ORIENTED_EDGE ( 'NONE', *, *, #315, .F. ) ;
#431 = DIRECTION ( 'NONE',  ( 1.000000000000000000, 0.000000000000000000, 0.000000000000000000 ) ) ;
#432 = CARTESIAN_POINT ( 'NONE',  ( 5.450000000000000178, 0.000000000000000000, 0.000000000000000000 ) ) ;
#433 = CARTESIAN_POINT ( 'NONE',  ( 5.450000000000000178, 20.35000000000000142, 0.000000000000000000 ) ) ;
#434 = DIRECTION ( 'NONE',  ( -1.000000000000000000, -0.000000000000000000, -0.000000000000000000 ) ) ;
#435 = CARTESIAN_POINT ( 'NONE',  ( 5.450000000000000178, 0.000000000000000000, 0.000000000000000000 ) ) ;
#436 = DIRECTION ( 'NONE',  ( -0.000000000000000000, -1.000000000000000000, -0.000000000000000000 ) ) ;
#437 = ORIENTED_EDGE ( 'NONE', *, *, #333, .T. ) ;
#438 = EDGE_CURVE ( 'NONE', #262, #196, #134, .T. ) ;
#439 = FACE_BOUND ( 'NONE', #445, .T. ) ;
#440 = CYLINDRICAL_SURFACE ( 'NONE', #390, 1.000000000000000888 ) ;
#441 = ORIENTED_EDGE ( 'NONE', *, *, #176, .F. ) ;
#442 = SURFACE_SIDE_STYLE ('',( #299 ) ) ;
#443 = EDGE_LOOP ( 'NONE', ( #384, #294 ) ) ;
#444 = CARTESIAN_POINT ( 'NONE',  ( 5.450000000000000178, 20.35000000000000142, -31.00000000000000000 ) ) ;
#445 = EDGE_LOOP ( 'NONE', ( #264, #290 ) ) ;
#446 = MECHANICAL_DESIGN_GEOMETRIC_PRESENTATION_REPRESENTATION (  '', ( #476 ), #332 ) ;
#447 = LINE ( 'NONE', #31, #220 ) ;
#448 = FACE_OUTER_BOUND ( 'NONE', #226, .T. ) ;
#449 = ORIENTED_EDGE ( 'NONE', *, *, #9, .T. ) ;
#450 = STYLED_ITEM ( 'NONE', ( #484 ), #117 ) ;
#451 = CIRCLE ( 'NONE', #370, 1.000000000000000888 ) ;
#452 = EDGE_CURVE ( 'NONE', #193, #389, #281, .T. ) ;
#453 = LINE ( 'NONE', #84, #62 ) ;
#454 = ORIENTED_EDGE ( 'NONE', *, *, #452, .F. ) ;
#455 = DIRECTION ( 'NONE',  ( 1.000000000000000000, 0.000000000000000000, 0.000000000000000000 ) ) ;
#456 = EDGE_CURVE ( 'NONE', #102, #423, #318, .T. ) ;
#457 = ORIENTED_EDGE ( 'NONE', *, *, #250, .F. ) ;
#458 = DIRECTION ( 'NONE',  ( -1.000000000000000000, -0.000000000000000000, -0.000000000000000000 ) ) ;
#459 = EDGE_LOOP ( 'NONE', ( #430, #270, #74, #125 ) ) ;
#460 = EDGE_CURVE ( 'NONE', #193, #196, #206, .T. ) ;
#461 = FACE_OUTER_BOUND ( 'NONE', #387, .T. ) ;
#462 = ORIENTED_EDGE ( 'NONE', *, *, #49, .F. ) ;
#463 = PRODUCT_RELATED_PRODUCT_CATEGORY ( 'part', '', ( #15 ) ) ;
#464 = LINE ( 'NONE', #2, #338 ) ;
#465 = ORIENTED_EDGE ( 'NONE', *, *, #460, .T. ) ;
#466 = CIRCLE ( 'NONE', #252, 1.000000000000000000 ) ;
#467 = DIRECTION ( 'NONE',  ( 0.000000000000000000, 0.000000000000000000, -1.000000000000000000 ) ) ;
#468 = DIRECTION ( 'NONE',  ( 0.000000000000000000, 0.000000000000000000, -1.000000000000000000 ) ) ;
#469 = DIRECTION ( 'NONE',  ( 0.000000000000000000, 0.000000000000000000, -1.000000000000000000 ) ) ;
#470 = DIRECTION ( 'NONE',  ( 1.000000000000000000, 0.000000000000000000, 0.000000000000000000 ) ) ;
#471 = VECTOR ( 'NONE', #458, 1000.000000000000000 ) ;
#472 = DIRECTION ( 'NONE',  ( 1.000000000000000000, 0.000000000000000000, 0.000000000000000000 ) ) ;
#473 = UNCERTAINTY_MEASURE_WITH_UNIT (LENGTH_MEASURE( 1.000000000000000082E-05 ), #7, 'distance_accuracy_value', 'NONE');
#474 = ADVANCED_FACE ( 'NONE', ( #395 ), #209, .F. ) ;
#475 = EDGE_LOOP ( 'NONE', ( #202, #143, #48, #76 ) ) ;
#476 = STYLED_ITEM ( 'NONE', ( #183 ), #109 ) ;
#477 = EDGE_LOOP ( 'NONE', ( #416, #240, #399, #100 ) ) ;
#478 = CARTESIAN_POINT ( 'NONE',  ( 0.000000000000000000, 2.924999999999995381, -6.650000000000003020 ) ) ;
#479 = ORIENTED_EDGE ( 'NONE', *, *, #158, .F. ) ;
#480 = COLOUR_RGB ( '',0.5490196078431373028, 0.000000000000000000, 0.6862745098039215730 ) ;
#481 = EDGE_CURVE ( 'NONE', #254, #334, #18, .T. ) ;
#482 = DIRECTION ( 'NONE',  ( -1.000000000000000000, -0.000000000000000000, -0.000000000000000000 ) ) ;
#483 = VECTOR ( 'NONE', #118, 1000.000000000000000 ) ;
#484 = PRESENTATION_STYLE_ASSIGNMENT (( #253 ) ) ;
#485 = EDGE_CURVE ( 'NONE', #337, #205, #412, .T. ) ;
#486 = CIRCLE ( 'NONE', #269, 1.000000000000000888 ) ;
#487 = SURFACE_SIDE_STYLE ('',( #101 ) ) ;
#488 = PRODUCT_DEFINITION_FORMATION_WITH_SPECIFIED_SOURCE ( 'Symmetric', '', #15, .NOT_KNOWN. ) ;
#489 = VECTOR ( 'NONE', #434, 1000.000000000000000 ) ;
#490 =( NAMED_UNIT ( * ) PLANE_ANGLE_UNIT ( ) SI_UNIT ( $, .RADIAN. ) );
#491 = ORIENTED_EDGE ( 'NONE', *, *, #485, .F. ) ;
#492 = LINE ( 'NONE', #36, #291 ) ;
#493 = ORIENTED_EDGE ( 'NONE', *, *, #425, .F. ) ;
#494 = EDGE_CURVE ( 'NONE', #161, #411, #274, .T. ) ;
#495 = CARTESIAN_POINT ( 'NONE',  ( 5.450000000000000178, 17.42500000000000071, -25.35000000000000142 ) ) ;
#496 = ORIENTED_EDGE ( 'NONE', *, *, #222, .F. ) ;
#497 = DIRECTION ( 'NONE',  ( -1.000000000000000000, -0.000000000000000000, -0.000000000000000000 ) ) ;
#498 = EDGE_CURVE ( 'NONE', #102, #348, #174, .T. ) ;
ENDSEC;
END-ISO-10303-21;
