ISO-10303-21;
HEADER;
FILE_DESCRIPTION (( 'STEP AP214' ),
    '1' );
FILE_NAME ('gasket_heatsink_external.STEP',
    '2026-08-16T17:44:14',
    ( '' ),
    ( '' ),
    'SwSTEP 2.0',
    'SolidWorks 2025',
    '' );
FILE_SCHEMA (( 'AUTOMOTIVE_DESIGN' ));
ENDSEC;

DATA;
#1 = DIRECTION ( 'NONE',  ( 0.000000000000000000, 0.000000000000000000, 1.000000000000000000 ) ) ;
#2 = ORIENTED_EDGE ( 'NONE', *, *, #345, .F. ) ;
#3 = LINE ( 'NONE', #377, #90 ) ;
#4 = ORIENTED_EDGE ( 'NONE', *, *, #151, .T. ) ;
#5 = FACE_OUTER_BOUND ( 'NONE', #147, .T. ) ;
#6 = VERTEX_POINT ( 'NONE', #405 ) ;
#7 = DIRECTION ( 'NONE',  ( 1.000000000000000000, 0.000000000000000000, 0.000000000000000000 ) ) ;
#8 = ORIENTED_EDGE ( 'NONE', *, *, #595, .F. ) ;
#9 = AXIS2_PLACEMENT_3D ( 'NONE', #613, #183, #178 ) ;
#10 = CARTESIAN_POINT ( 'NONE',  ( 23.07499999999999929, 25.00000000000001776, 0.000000000000000000 ) ) ;
#11 = VECTOR ( 'NONE', #88, 1000.000000000000000 ) ;
#12 = SURFACE_SIDE_STYLE ('',( #115 ) ) ;
#13 = ORIENTED_EDGE ( 'NONE', *, *, #248, .T. ) ;
#14 = CARTESIAN_POINT ( 'NONE',  ( 60.07500000000000284, 25.00000000000001776, 0.000000000000000000 ) ) ;
#15 = LINE ( 'NONE', #104, #155 ) ;
#16 = ADVANCED_FACE ( 'NONE', ( #75 ), #186, .T. ) ;
#17 = ORIENTED_EDGE ( 'NONE', *, *, #365, .F. ) ;
#18 = CARTESIAN_POINT ( 'NONE',  ( 23.07499999999999574, 9.718918330595235133, 2.000000000000000000 ) ) ;
#19 = DIRECTION ( 'NONE',  ( 1.000000000000000000, 0.000000000000000000, 0.000000000000000000 ) ) ;
#20 = VERTEX_POINT ( 'NONE', #179 ) ;
#21 = EDGE_CURVE ( 'NONE', #6, #618, #370, .T. ) ;
#22 =( NAMED_UNIT ( * ) PLANE_ANGLE_UNIT ( ) SI_UNIT ( $, .RADIAN. ) );
#23 = VECTOR ( 'NONE', #382, 999.9999999999998863 ) ;
#24 = LINE ( 'NONE', #398, #385 ) ;
#25 = EDGE_LOOP ( 'NONE', ( #491, #504, #479, #85 ) ) ;
#26 = PRESENTATION_STYLE_ASSIGNMENT (( #585 ) ) ;
#27 = ORIENTED_EDGE ( 'NONE', *, *, #496, .F. ) ;
#28 = PLANE ( 'NONE',  #56 ) ;
#29 = LINE ( 'NONE', #313, #367 ) ;
#30 = CARTESIAN_POINT ( 'NONE',  ( 43.07500000000000284, 25.00000000000001776, 0.000000000000000000 ) ) ;
#31 = PRODUCT_DEFINITION_CONTEXT ( 'detailed design', #453, 'design' ) ;
#32 = CARTESIAN_POINT ( 'NONE',  ( 43.07500000000000284, 62.00000000000002132, 0.000000000000000000 ) ) ;
#33 = DIRECTION ( 'NONE',  ( 0.9902680687415703620, 0.000000000000000000, 0.1391731009600657432 ) ) ;
#34 = ORIENTED_EDGE ( 'NONE', *, *, #127, .T. ) ;
#35 = DIRECTION ( 'NONE',  ( 1.000000000000000000, 0.000000000000000000, 0.000000000000000000 ) ) ;
#36 = EDGE_CURVE ( 'NONE', #235, #92, #314, .T. ) ;
#37 = CARTESIAN_POINT ( 'NONE',  ( 6.074999999999997513, 45.00000000000002132, 0.000000000000000000 ) ) ;
#38 = EDGE_CURVE ( 'NONE', #184, #580, #364, .T. ) ;
#39 = DIRECTION ( 'NONE',  ( 1.000000000000000000, 0.000000000000000000, 0.000000000000000000 ) ) ;
#40 = ORIENTED_EDGE ( 'NONE', *, *, #171, .T. ) ;
#41 = EDGE_CURVE ( 'NONE', #410, #257, #558, .T. ) ;
#42 = ORIENTED_EDGE ( 'NONE', *, *, #434, .T. ) ;
#43 = DIRECTION ( 'NONE',  ( 1.000000000000000000, 0.000000000000000000, 0.000000000000000000 ) ) ;
#44 = DIRECTION ( 'NONE',  ( -2.840315828940191736E-17, 0.1391731009600657709, -0.9902680687415703620 ) ) ;
#45 = VERTEX_POINT ( 'NONE', #37 ) ;
#46 = AXIS2_PLACEMENT_3D ( 'NONE', #371, #33, #369 ) ;
#47 = DIRECTION ( 'NONE',  ( 0.000000000000000000, 0.000000000000000000, 1.000000000000000000 ) ) ;
#48 = VECTOR ( 'NONE', #361, 999.9999999999998863 ) ;
#49 = DIRECTION ( 'NONE',  ( -0.1391731009600657709, -0.000000000000000000, -0.9902680687415703620 ) ) ;
#50 = ADVANCED_FACE ( 'NONE', ( #561, #72 ), #564, .F. ) ;
#51 = DIRECTION ( 'NONE',  ( -0.000000000000000000, 1.000000000000000000, -0.000000000000000000 ) ) ;
#52 = VERTEX_POINT ( 'NONE', #133 ) ;
#53 = FACE_OUTER_BOUND ( 'NONE', #494, .T. ) ;
#54 = CARTESIAN_POINT ( 'NONE',  ( 23.07499999999999929, 60.00000000000001421, 3.851859888774471706E-31 ) ) ;
#55 = ORIENTED_EDGE ( 'NONE', *, *, #573, .F. ) ;
#56 = AXIS2_PLACEMENT_3D ( 'NONE', #221, #407, #514 ) ;
#57 = CARTESIAN_POINT ( 'NONE',  ( 23.07499999999999929, 60.28108166940479862, 2.000000000000000000 ) ) ;
#58 = AXIS2_PLACEMENT_3D ( 'NONE', #546, #548, #446 ) ;
#59 = ADVANCED_FACE ( 'NONE', ( #513 ), #396, .F. ) ;
#60 = LINE ( 'NONE', #69, #262 ) ;
#61 = ORIENTED_EDGE ( 'NONE', *, *, #496, .T. ) ;
#62 = DIRECTION ( 'NONE',  ( 0.000000000000000000, 0.000000000000000000, 1.000000000000000000 ) ) ;
#63 = CARTESIAN_POINT ( 'NONE',  ( 43.07500000000000284, 62.00000000000002132, 0.000000000000000000 ) ) ;
#64 = ORIENTED_EDGE ( 'NONE', *, *, #343, .T. ) ;
#65 = EDGE_LOOP ( 'NONE', ( #8, #298, #34, #498 ) ) ;
#66 = CIRCLE ( 'NONE', #335, 15.00000000000000000 ) ;
#67 = DIRECTION ( 'NONE',  ( 1.000000000000000000, 0.000000000000000000, 0.000000000000000000 ) ) ;
#68 = CIRCLE ( 'NONE', #144, 16.71891833059521559 ) ;
#69 = CARTESIAN_POINT ( 'NONE',  ( 8.074999999999999289, 25.00000000000002132, 0.000000000000000000 ) ) ;
#70 = ORIENTED_EDGE ( 'NONE', *, *, #256, .T. ) ;
#71 = PRODUCT_DEFINITION ( 'General', '', #485, #31 ) ;
#72 = FACE_BOUND ( 'NONE', #137, .T. ) ;
#73 =( LENGTH_UNIT ( ) NAMED_UNIT ( * ) SI_UNIT ( .MILLI., .METRE. ) );
#74 = DIRECTION ( 'NONE',  ( 1.000000000000000000, 0.000000000000000000, 0.000000000000000000 ) ) ;
#75 = FACE_OUTER_BOUND ( 'NONE', #124, .T. ) ;
#76 = CIRCLE ( 'NONE', #224, 15.28108166940478085 ) ;
#77 = CARTESIAN_POINT ( 'NONE',  ( 23.07499999999999929, 60.00000000000001421, 0.000000000000000000 ) ) ;
#78 = ADVANCED_FACE ( 'NONE', ( #372, #129 ), #461, .T. ) ;
#79 = AXIS2_PLACEMENT_3D ( 'NONE', #517, #189, #409 ) ;
#80 = ORIENTED_EDGE ( 'NONE', *, *, #248, .F. ) ;
#81 = DIRECTION ( 'NONE',  ( -0.1391731009600657709, -2.840315828940192352E-17, -0.9902680687415703620 ) ) ;
#82 = ORIENTED_EDGE ( 'NONE', *, *, #130, .F. ) ;
#83 = CARTESIAN_POINT ( 'NONE',  ( 0.000000000000000000, 0.000000000000000000, 0.000000000000000000 ) ) ;
#84 = CARTESIAN_POINT ( 'NONE',  ( 43.07500000000000284, 60.28108166940481283, 2.000000000000000000 ) ) ;
#85 = ORIENTED_EDGE ( 'NONE', *, *, #21, .T. ) ;
#86 = VECTOR ( 'NONE', #258, 1000.000000000000000 ) ;
#87 = DIRECTION ( 'NONE',  ( 0.000000000000000000, -1.000000000000000000, 0.000000000000000000 ) ) ;
#88 = DIRECTION ( 'NONE',  ( 1.000000000000000000, 0.000000000000000000, 0.000000000000000000 ) ) ;
#89 = PRODUCT ( 'gasket_heatsink_external', 'gasket_heatsink_external', '', ( #609 ) ) ;
#90 = VECTOR ( 'NONE', #49, 999.9999999999998863 ) ;
#91 = CARTESIAN_POINT ( 'NONE',  ( 23.07500000000000284, 45.00000000000001421, 0.000000000000000000 ) ) ;
#92 = VERTEX_POINT ( 'NONE', #605 ) ;
#93 = DIRECTION ( 'NONE',  ( -0.000000000000000000, -0.000000000000000000, -1.000000000000000000 ) ) ;
#94 = EDGE_LOOP ( 'NONE', ( #82, #416, #61, #145 ) ) ;
#95 = EDGE_CURVE ( 'NONE', #440, #108, #167, .T. ) ;
#96 = AXIS2_PLACEMENT_3D ( 'NONE', #516, #466, #415 ) ;
#97 = LINE ( 'NONE', #288, #521 ) ;
#98 = EDGE_CURVE ( 'NONE', #6, #555, #285, .T. ) ;
#99 = ORIENTED_EDGE ( 'NONE', *, *, #21, .F. ) ;
#100 = VECTOR ( 'NONE', #602, 999.9999999999998863 ) ;
#101 = DIRECTION ( 'NONE',  ( -0.000000000000000000, -0.1391731009600657432, -0.9902680687415703620 ) ) ;
#102 = ORIENTED_EDGE ( 'NONE', *, *, #343, .F. ) ;
#103 = FILL_AREA_STYLE ('',( #355 ) ) ;
#104 = CARTESIAN_POINT ( 'NONE',  ( 43.07500000000000284, 60.00000000000002842, 0.000000000000000000 ) ) ;
#105 = ORIENTED_EDGE ( 'NONE', *, *, #95, .F. ) ;
#106 = LINE ( 'NONE', #303, #120 ) ;
#107 = LINE ( 'NONE', #54, #194 ) ;
#108 = VERTEX_POINT ( 'NONE', #379 ) ;
#109 = CARTESIAN_POINT ( 'NONE',  ( 23.07500000000000284, 45.00000000000001421, 2.000000000000000000 ) ) ;
#110 = AXIS2_PLACEMENT_3D ( 'NONE', #91, #576, #7 ) ;
#111 = ADVANCED_FACE ( 'NONE', ( #474 ), #131, .F. ) ;
#112 = LINE ( 'NONE', #173, #459 ) ;
#113 = ORIENTED_EDGE ( 'NONE', *, *, #151, .F. ) ;
#114 = CARTESIAN_POINT ( 'NONE',  ( 6.356081669404780143, 25.00000000000001421, 2.000000000000000000 ) ) ;
#115 = SURFACE_STYLE_FILL_AREA ( #596 ) ;
#116 = ORIENTED_EDGE ( 'NONE', *, *, #148, .F. ) ;
#117 =( NAMED_UNIT ( * ) SI_UNIT ( $, .STERADIAN. ) SOLID_ANGLE_UNIT ( ) );
#118 = CARTESIAN_POINT ( 'NONE',  ( 23.07500000000000639, 62.00000000000002132, 0.000000000000000000 ) ) ;
#119 = ORIENTED_EDGE ( 'NONE', *, *, #256, .F. ) ;
#120 = VECTOR ( 'NONE', #218, 999.9999999999998863 ) ;
#121 = AXIS2_PLACEMENT_3D ( 'NONE', #331, #1, #480 ) ;
#122 = ORIENTED_EDGE ( 'NONE', *, *, #587, .F. ) ;
#123 = DIRECTION ( 'NONE',  ( 0.000000000000000000, -0.1391731009600657432, 0.9902680687415703620 ) ) ;
#124 = EDGE_LOOP ( 'NONE', ( #40, #191, #267, #174 ) ) ;
#125 = APPLICATION_PROTOCOL_DEFINITION ( 'draft international standard', 'automotive_design', 1998, #565 ) ;
#126 = EDGE_CURVE ( 'NONE', #577, #200, #477, .T. ) ;
#127 = EDGE_CURVE ( 'NONE', #165, #526, #447, .T. ) ;
#128 = DIRECTION ( 'NONE',  ( 1.000000000000000000, 0.000000000000000000, 0.000000000000000000 ) ) ;
#129 = FACE_BOUND ( 'NONE', #239, .T. ) ;
#130 = EDGE_CURVE ( 'NONE', #257, #243, #528, .T. ) ;
#131 = CONICAL_SURFACE ( 'NONE', #368, 15.00000000000000000, 0.1396263401595466691 ) ;
#132 = DIRECTION ( 'NONE',  ( -1.000000000000000000, -6.938893903907229364E-16, 0.000000000000000000 ) ) ;
#133 = CARTESIAN_POINT ( 'NONE',  ( 23.07499999999999574, 8.281081669404802170, 2.000000000000000000 ) ) ;
#134 = ADVANCED_BREP_SHAPE_REPRESENTATION ( 'gasket_heatsink_external', ( #311, #286 ), #445 ) ;
#135 = CARTESIAN_POINT ( 'NONE',  ( 58.35608166940478725, 25.00000000000001776, 2.000000000000000000 ) ) ;
#136 = DIRECTION ( 'NONE',  ( 1.000000000000000000, 0.000000000000000000, 0.000000000000000000 ) ) ;
#137 = EDGE_LOOP ( 'NONE', ( #42, #529, #223, #399, #169, #484, #436, #597 ) ) ;
#138 = CARTESIAN_POINT ( 'NONE',  ( 23.07499999999999929, 10.00000000000001954, 0.000000000000000000 ) ) ;
#139 = ORIENTED_EDGE ( 'NONE', *, *, #524, .F. ) ;
#140 = EDGE_CURVE ( 'NONE', #526, #380, #430, .T. ) ;
#141 = VECTOR ( 'NONE', #614, 1000.000000000000000 ) ;
#142 = CIRCLE ( 'NONE', #356, 15.00000000000000000 ) ;
#143 = CARTESIAN_POINT ( 'NONE',  ( 43.07500000000000284, 61.71891833059523691, 2.000000000000000000 ) ) ;
#144 = AXIS2_PLACEMENT_3D ( 'NONE', #438, #533, #216 ) ;
#145 = ORIENTED_EDGE ( 'NONE', *, *, #268, .T. ) ;
#146 = CARTESIAN_POINT ( 'NONE',  ( 58.07500000000000284, 25.00000000000001776, 0.000000000000000000 ) ) ;
#147 = EDGE_LOOP ( 'NONE', ( #378, #251, #383, #278 ) ) ;
#148 = EDGE_CURVE ( 'NONE', #392, #235, #3, .T. ) ;
#149 = LINE ( 'NONE', #531, #376 ) ;
#150 = ORIENTED_EDGE ( 'NONE', *, *, #126, .T. ) ;
#151 = EDGE_CURVE ( 'NONE', #52, #200, #149, .T. ) ;
#152 = VECTOR ( 'NONE', #222, 999.9999999999998863 ) ;
#153 = CARTESIAN_POINT ( 'NONE',  ( 43.07500000000000284, 45.00000000000002132, 2.000000000000000000 ) ) ;
#154 = EDGE_LOOP ( 'NONE', ( #358, #611, #347, #431, #511, #13, #390, #593 ) ) ;
#155 = VECTOR ( 'NONE', #395, 1000.000000000000000 ) ;
#156 = CARTESIAN_POINT ( 'NONE',  ( 23.07499999999999574, 8.000000000000017764, 0.000000000000000000 ) ) ;
#157 = ADVANCED_FACE ( 'NONE', ( #418 ), #282, .T. ) ;
#158 = EDGE_LOOP ( 'NONE', ( #352, #334, #475, #421 ) ) ;
#159 = FACE_OUTER_BOUND ( 'NONE', #608, .T. ) ;
#160 = CARTESIAN_POINT ( 'NONE',  ( 43.07500000000000284, 60.00000000000002842, 0.000000000000000000 ) ) ;
#161 = ORIENTED_EDGE ( 'NONE', *, *, #172, .F. ) ;
#162 = CARTESIAN_POINT ( 'NONE',  ( 23.07500000000000284, 45.00000000000001421, 2.000000000000000000 ) ) ;
#163 = FILL_AREA_STYLE_COLOUR ( '', #225 ) ;
#164 = CIRCLE ( 'NONE', #201, 15.00000000000000000 ) ;
#165 = VERTEX_POINT ( 'NONE', #244 ) ;
#166 = CARTESIAN_POINT ( 'NONE',  ( 60.07500000000000284, 25.00000000000001776, 0.000000000000000000 ) ) ;
#167 = CIRCLE ( 'NONE', #469, 15.28108166940478441 ) ;
#168 = CARTESIAN_POINT ( 'NONE',  ( 23.07500000000000284, 45.00000000000001421, 0.000000000000000000 ) ) ;
#169 = ORIENTED_EDGE ( 'NONE', *, *, #417, .T. ) ;
#170 = CARTESIAN_POINT ( 'NONE',  ( 43.07500000000000284, 45.00000000000002132, 0.000000000000000000 ) ) ;
#171 = EDGE_CURVE ( 'NONE', #306, #302, #333, .T. ) ;
#172 = EDGE_CURVE ( 'NONE', #254, #306, #568, .T. ) ;
#173 = CARTESIAN_POINT ( 'NONE',  ( 23.07499999999999574, 8.281081669404802170, 2.000000000000000000 ) ) ;
#174 = ORIENTED_EDGE ( 'NONE', *, *, #172, .T. ) ;
#175 = LINE ( 'NONE', #180, #404 ) ;
#176 = EDGE_LOOP ( 'NONE', ( #70, #532, #80, #4 ) ) ;
#177 = MECHANICAL_DESIGN_GEOMETRIC_PRESENTATION_REPRESENTATION (  '', ( #271 ), #559 ) ;
#178 = DIRECTION ( 'NONE',  ( 1.000000000000000000, 0.000000000000000000, 0.000000000000000000 ) ) ;
#179 = CARTESIAN_POINT ( 'NONE',  ( 43.07500000000000284, 10.00000000000001599, 0.000000000000000000 ) ) ;
#180 = CARTESIAN_POINT ( 'NONE',  ( 6.074999999999997513, 25.00000000000001421, 0.000000000000000000 ) ) ;
#181 = CARTESIAN_POINT ( 'NONE',  ( 43.07500000000000284, 25.00000000000001776, 0.000000000000000000 ) ) ;
#182 = DIRECTION ( 'NONE',  ( 0.000000000000000000, -0.1391731009600657432, 0.9902680687415703620 ) ) ;
#183 = DIRECTION ( 'NONE',  ( 0.000000000000000000, 0.000000000000000000, 1.000000000000000000 ) ) ;
#184 = VERTEX_POINT ( 'NONE', #520 ) ;
#185 = DIRECTION ( 'NONE',  ( -8.673617379884041635E-17, -1.000000000000000000, 0.000000000000000000 ) ) ;
#186 = PLANE ( 'NONE',  #414 ) ;
#187 = SHAPE_DEFINITION_REPRESENTATION ( #615, #134 ) ;
#188 = EDGE_CURVE ( 'NONE', #254, #448, #238, .T. ) ;
#189 = DIRECTION ( 'NONE',  ( 0.000000000000000000, 0.000000000000000000, 1.000000000000000000 ) ) ;
#190 = DIRECTION ( 'NONE',  ( 0.000000000000000000, 0.000000000000000000, 1.000000000000000000 ) ) ;
#191 = ORIENTED_EDGE ( 'NONE', *, *, #227, .F. ) ;
#192 = VECTOR ( 'NONE', #132, 1000.000000000000000 ) ;
#193 = LINE ( 'NONE', #283, #423 ) ;
#194 = VECTOR ( 'NONE', #250, 999.9999999999998863 ) ;
#195 = ADVANCED_FACE ( 'NONE', ( #5 ), #512, .F. ) ;
#196 = ORIENTED_EDGE ( 'NONE', *, *, #140, .T. ) ;
#197 = DIRECTION ( 'NONE',  ( 0.000000000000000000, -0.9902680687415702510, 0.1391731009600657432 ) ) ;
#198 = EDGE_CURVE ( 'NONE', #555, #217, #97, .T. ) ;
#199 = DIRECTION ( 'NONE',  ( 1.000000000000000000, 0.000000000000000000, 0.000000000000000000 ) ) ;
#200 = VERTEX_POINT ( 'NONE', #522 ) ;
#201 = AXIS2_PLACEMENT_3D ( 'NONE', #170, #437, #300 ) ;
#202 = DIRECTION ( 'NONE',  ( 1.000000000000000000, 0.000000000000000000, 0.000000000000000000 ) ) ;
#203 = ORIENTED_EDGE ( 'NONE', *, *, #140, .F. ) ;
#204 = DIRECTION ( 'NONE',  ( 1.000000000000000000, 0.000000000000000000, 0.000000000000000000 ) ) ;
#205 = ORIENTED_EDGE ( 'NONE', *, *, #425, .T. ) ;
#206 = DIRECTION ( 'NONE',  ( 1.000000000000000000, 0.000000000000000000, 0.000000000000000000 ) ) ;
#207 = DIRECTION ( 'NONE',  ( 1.000000000000000000, 0.000000000000000000, 0.000000000000000000 ) ) ;
#208 = ORIENTED_EDGE ( 'NONE', *, *, #126, .F. ) ;
#209 = DIRECTION ( 'NONE',  ( 0.000000000000000000, 0.000000000000000000, 1.000000000000000000 ) ) ;
#210 = CARTESIAN_POINT ( 'NONE',  ( 58.35608166940478725, 25.00000000000001776, 2.000000000000000000 ) ) ;
#211 = PRESENTATION_LAYER_ASSIGNMENT (  '', '', ( #271 ) ) ;
#212 = ORIENTED_EDGE ( 'NONE', *, *, #616, .F. ) ;
#213 = EDGE_CURVE ( 'NONE', #217, #306, #530, .T. ) ;
#214 = VECTOR ( 'NONE', #323, 999.9999999999998863 ) ;
#215 = CARTESIAN_POINT ( 'NONE',  ( 23.07499999999999929, 10.00000000000001954, 0.000000000000000000 ) ) ;
#216 = DIRECTION ( 'NONE',  ( 1.000000000000000000, 0.000000000000000000, 0.000000000000000000 ) ) ;
#217 = VERTEX_POINT ( 'NONE', #478 ) ;
#218 = DIRECTION ( 'NONE',  ( 3.219024606132218780E-17, 0.1391731009600657709, -0.9902680687415703620 ) ) ;
#219 =( NAMED_UNIT ( * ) PLANE_ANGLE_UNIT ( ) SI_UNIT ( $, .RADIAN. ) );
#220 = ORIENTED_EDGE ( 'NONE', *, *, #425, .F. ) ;
#221 = CARTESIAN_POINT ( 'NONE',  ( 8.075000000000001066, 45.00000000000001421, 0.000000000000000000 ) ) ;
#222 = DIRECTION ( 'NONE',  ( -0.000000000000000000, -0.1391731009600657709, -0.9902680687415703620 ) ) ;
#223 = ORIENTED_EDGE ( 'NONE', *, *, #590, .T. ) ;
#224 = AXIS2_PLACEMENT_3D ( 'NONE', #109, #432, #67 ) ;
#225 = COLOUR_RGB ( '',0.7960784313725489669, 0.8235294117647058432, 0.9372549019607843146 ) ;
#226 = CARTESIAN_POINT ( 'NONE',  ( 23.07499999999999929, 10.00000000000001954, 0.000000000000000000 ) ) ;
#227 = EDGE_CURVE ( 'NONE', #448, #302, #193, .T. ) ;
#228 = DIRECTION ( 'NONE',  ( 0.000000000000000000, 0.000000000000000000, 1.000000000000000000 ) ) ;
#229 = APPLICATION_PROTOCOL_DEFINITION ( 'draft international standard', 'automotive_design', 1998, #453 ) ;
#230 = EDGE_LOOP ( 'NONE', ( #354, #116, #312, #294 ) ) ;
#231 = ORIENTED_EDGE ( 'NONE', *, *, #556, .F. ) ;
#232 = DIRECTION ( 'NONE',  ( 1.000000000000000000, 0.000000000000000000, 0.000000000000000000 ) ) ;
#233 = AXIS2_PLACEMENT_3D ( 'NONE', #138, #554, #123 ) ;
#234 = PRESENTATION_LAYER_ASSIGNMENT (  '', '', ( #501 ) ) ;
#235 = VERTEX_POINT ( 'NONE', #146 ) ;
#236 = DIRECTION ( 'NONE',  ( 0.000000000000000000, -0.1391731009600657432, -0.9902680687415702510 ) ) ;
#237 = ADVANCED_FACE ( 'NONE', ( #525 ), #612, .T. ) ;
#238 = LINE ( 'NONE', #143, #403 ) ;
#239 = EDGE_LOOP ( 'NONE', ( #549, #291, #203, #263, #27, #284, #419, #105 ) ) ;
#240 = VECTOR ( 'NONE', #391, 999.9999999999998863 ) ;
#241 = DIRECTION ( 'NONE',  ( 0.000000000000000000, 0.000000000000000000, 1.000000000000000000 ) ) ;
#242 = AXIS2_PLACEMENT_3D ( 'NONE', #386, #241, #43 ) ;
#243 = VERTEX_POINT ( 'NONE', #339 ) ;
#244 = CARTESIAN_POINT ( 'NONE',  ( 7.793918330595215771, 25.00000000000002132, 2.000000000000000000 ) ) ;
#245 = CARTESIAN_POINT ( 'NONE',  ( 43.07500000000000284, 62.00000000000002132, 0.000000000000000000 ) ) ;
#246 = VERTEX_POINT ( 'NONE', #160 ) ;
#247 = CARTESIAN_POINT ( 'NONE',  ( 59.79391833059521844, 45.00000000000002132, 2.000000000000000000 ) ) ;
#248 = EDGE_CURVE ( 'NONE', #52, #184, #112, .T. ) ;
#249 = AXIS2_PLACEMENT_3D ( 'NONE', #539, #543, #344 ) ;
#250 = DIRECTION ( 'NONE',  ( 9.657073818396652642E-17, -0.1391731009600657709, -0.9902680687415703620 ) ) ;
#251 = ORIENTED_EDGE ( 'NONE', *, *, #305, .F. ) ;
#252 = CARTESIAN_POINT ( 'NONE',  ( 23.07499999999999929, 25.00000000000001776, 2.000000000000000000 ) ) ;
#253 = DIRECTION ( 'NONE',  ( 0.000000000000000000, 0.000000000000000000, 1.000000000000000000 ) ) ;
#254 = VERTEX_POINT ( 'NONE', #483 ) ;
#255 = LINE ( 'NONE', #535, #240 ) ;
#256 = EDGE_CURVE ( 'NONE', #200, #580, #259, .T. ) ;
#257 = VERTEX_POINT ( 'NONE', #353 ) ;
#258 = DIRECTION ( 'NONE',  ( 0.000000000000000000, 1.000000000000000000, 0.000000000000000000 ) ) ;
#259 = LINE ( 'NONE', #350, #327 ) ;
#260 = ORIENTED_EDGE ( 'NONE', *, *, #357, .T. ) ;
#261 = EDGE_CURVE ( 'NONE', #380, #392, #540, .T. ) ;
#262 = VECTOR ( 'NONE', #536, 999.9999999999998863 ) ;
#263 = ORIENTED_EDGE ( 'NONE', *, *, #127, .F. ) ;
#264 =( NAMED_UNIT ( * ) PLANE_ANGLE_UNIT ( ) SI_UNIT ( $, .RADIAN. ) );
#265 = ADVANCED_FACE ( 'NONE', ( #297 ), #490, .T. ) ;
#266 = UNCERTAINTY_MEASURE_WITH_UNIT (LENGTH_MEASURE( 1.000000000000000082E-05 ), #73, 'distance_accuracy_value', 'NONE');
#267 = ORIENTED_EDGE ( 'NONE', *, *, #188, .F. ) ;
#268 = EDGE_CURVE ( 'NONE', #165, #243, #60, .T. ) ;
#269 = DIRECTION ( 'NONE',  ( -0.000000000000000000, 0.1391731009600657709, -0.9902680687415703620 ) ) ;
#270 = DIRECTION ( 'NONE',  ( 0.000000000000000000, 0.9902680687415703620, 0.1391731009600657432 ) ) ;
#271 = STYLED_ITEM ( 'NONE', ( #505 ), #134 ) ;
#272 = MECHANICAL_DESIGN_GEOMETRIC_PRESENTATION_REPRESENTATION (  '', ( #501 ), #310 ) ;
#273 = LINE ( 'NONE', #84, #192 ) ;
#274 = UNCERTAINTY_MEASURE_WITH_UNIT (LENGTH_MEASURE( 1.000000000000000082E-05 ), #582, 'distance_accuracy_value', 'NONE');
#275 = CARTESIAN_POINT ( 'NONE',  ( 8.075000000000002842, 45.00000000000001421, 2.390772959959609291E-16 ) ) ;
#276 = CARTESIAN_POINT ( 'NONE',  ( 43.07500000000000284, 9.718918330595235133, 2.000000000000000000 ) ) ;
#277 = EDGE_CURVE ( 'NONE', #302, #45, #570, .T. ) ;
#278 = ORIENTED_EDGE ( 'NONE', *, *, #41, .T. ) ;
#279 = EDGE_CURVE ( 'NONE', #184, #6, #68, .T. ) ;
#280 = CARTESIAN_POINT ( 'NONE',  ( 43.07500000000000284, 8.000000000000017764, 0.000000000000000000 ) ) ;
#281 = AXIS2_PLACEMENT_3D ( 'NONE', #162, #441, #204 ) ;
#282 = PLANE ( 'NONE',  #591 ) ;
#283 = CARTESIAN_POINT ( 'NONE',  ( 23.07499999999999929, 62.00000000000002132, 0.000000000000000000 ) ) ;
#284 = ORIENTED_EDGE ( 'NONE', *, *, #552, .F. ) ;
#285 = LINE ( 'NONE', #337, #299 ) ;
#286 = AXIS2_PLACEMENT_3D ( 'NONE', #83, #503, #232 ) ;
#287 = VECTOR ( 'NONE', #617, 1000.000000000000000 ) ;
#288 = CARTESIAN_POINT ( 'NONE',  ( 60.07500000000000284, 45.00000000000002132, 0.000000000000000000 ) ) ;
#289 = ORIENTED_EDGE ( 'NONE', *, *, #95, .T. ) ;
#290 = DIRECTION ( 'NONE',  ( 0.1391731009600657709, -0.000000000000000000, -0.9902680687415703620 ) ) ;
#291 = ORIENTED_EDGE ( 'NONE', *, *, #261, .F. ) ;
#292 = SURFACE_STYLE_FILL_AREA ( #103 ) ;
#293 = DIRECTION ( 'NONE',  ( 1.000000000000000000, 0.000000000000000000, 0.000000000000000000 ) ) ;
#294 = ORIENTED_EDGE ( 'NONE', *, *, #545, .T. ) ;
#295 = DIRECTION ( 'NONE',  ( 1.000000000000000000, 0.000000000000000000, 0.000000000000000000 ) ) ;
#296 = CIRCLE ( 'NONE', #9, 14.99999999999999645 ) ;
#297 = FACE_OUTER_BOUND ( 'NONE', #553, .T. ) ;
#298 = ORIENTED_EDGE ( 'NONE', *, *, #268, .F. ) ;
#299 = VECTOR ( 'NONE', #51, 1000.000000000000000 ) ;
#300 = DIRECTION ( 'NONE',  ( 1.000000000000000000, 0.000000000000000000, 0.000000000000000000 ) ) ;
#301 = EDGE_CURVE ( 'NONE', #246, #465, #15, .T. ) ;
#302 = VERTEX_POINT ( 'NONE', #118 ) ;
#303 = CARTESIAN_POINT ( 'NONE',  ( 23.07499999999999574, 10.00000000000001954, 0.000000000000000000 ) ) ;
#304 = PLANE ( 'NONE',  #348 ) ;
#305 = EDGE_CURVE ( 'NONE', #583, #465, #107, .T. ) ;
#306 = VERTEX_POINT ( 'NONE', #63 ) ;
#307 = DIRECTION ( 'NONE',  ( 0.000000000000000000, 1.000000000000000000, -0.000000000000000000 ) ) ;
#308 = VECTOR ( 'NONE', #87, 1000.000000000000000 ) ;
#309 = ORIENTED_EDGE ( 'NONE', *, *, #524, .T. ) ;
#310 =( GEOMETRIC_REPRESENTATION_CONTEXT ( 3 ) GLOBAL_UNCERTAINTY_ASSIGNED_CONTEXT ( ( #274 ) ) GLOBAL_UNIT_ASSIGNED_CONTEXT ( ( #582, #219, #541 ) ) REPRESENTATION_CONTEXT ( 'NONE', 'WORKASPACE' ) );
#311 = MANIFOLD_SOLID_BREP ( 'Boss-Extrude1', #489 ) ;
#312 = ORIENTED_EDGE ( 'NONE', *, *, #326, .T. ) ;
#313 = CARTESIAN_POINT ( 'NONE',  ( 6.356081669404780143, 45.00000000000002132, 2.000000000000000000 ) ) ;
#314 = LINE ( 'NONE', #366, #141 ) ;
#315 = DIRECTION ( 'NONE',  ( -0.1391731009600657709, -0.000000000000000000, -0.9902680687415703620 ) ) ;
#316 = CARTESIAN_POINT ( 'NONE',  ( 7.793918330595217547, 45.00000000000001421, 2.000000000000000000 ) ) ;
#317 = CARTESIAN_POINT ( 'NONE',  ( 60.07500000000000284, 25.00000000000001776, 0.000000000000000000 ) ) ;
#318 = CIRCLE ( 'NONE', #394, 17.00000000000000000 ) ;
#319 = AXIS2_PLACEMENT_3D ( 'NONE', #346, #493, #341 ) ;
#320 = CARTESIAN_POINT ( 'NONE',  ( 6.356081669404780143, 45.00000000000002132, 2.000000000000000000 ) ) ;
#321 = DIRECTION ( 'NONE',  ( 1.000000000000000000, 0.000000000000000000, -0.000000000000000000 ) ) ;
#322 = FACE_OUTER_BOUND ( 'NONE', #450, .T. ) ;
#323 = DIRECTION ( 'NONE',  ( -0.000000000000000000, -0.1391731009600657709, -0.9902680687415703620 ) ) ;
#324 = LINE ( 'NONE', #360, #152 ) ;
#325 = DIRECTION ( 'NONE',  ( 0.000000000000000000, 0.000000000000000000, 1.000000000000000000 ) ) ;
#326 = EDGE_CURVE ( 'NONE', #392, #440, #442, .T. ) ;
#327 = VECTOR ( 'NONE', #207, 1000.000000000000000 ) ;
#328 = CARTESIAN_POINT ( 'NONE',  ( 23.07499999999999929, 9.718918330595235133, 2.000000000000000000 ) ) ;
#329 = ORIENTED_EDGE ( 'NONE', *, *, #171, .F. ) ;
#330 = ADVANCED_FACE ( 'NONE', ( #592 ), #304, .T. ) ;
#331 = CARTESIAN_POINT ( 'NONE',  ( 43.07500000000000284, 45.00000000000002132, 0.000000000000000000 ) ) ;
#332 = ORIENTED_EDGE ( 'NONE', *, *, #198, .T. ) ;
#333 = LINE ( 'NONE', #245, #406 ) ;
#334 = ORIENTED_EDGE ( 'NONE', *, *, #357, .F. ) ;
#335 = AXIS2_PLACEMENT_3D ( 'NONE', #363, #557, #136 ) ;
#336 = AXIS2_PLACEMENT_3D ( 'NONE', #168, #253, #19 ) ;
#337 = CARTESIAN_POINT ( 'NONE',  ( 59.79391833059521844, 25.00000000000001776, 2.000000000000000000 ) ) ;
#338 = EDGE_LOOP ( 'NONE', ( #397, #161, #575, #332 ) ) ;
#339 = CARTESIAN_POINT ( 'NONE',  ( 8.074999999999999289, 25.00000000000002132, 0.000000000000000000 ) ) ;
#340 = DIRECTION ( 'NONE',  ( 0.000000000000000000, 0.000000000000000000, 1.000000000000000000 ) ) ;
#341 = DIRECTION ( 'NONE',  ( 1.000000000000000000, 0.000000000000000000, 0.000000000000000000 ) ) ;
#342 = ORIENTED_EDGE ( 'NONE', *, *, #38, .T. ) ;
#343 = EDGE_CURVE ( 'NONE', #412, #45, #24, .T. ) ;
#344 = DIRECTION ( 'NONE',  ( 0.1391731009600657432, 0.000000000000000000, 0.9902680687415703620 ) ) ;
#345 = EDGE_CURVE ( 'NONE', #537, #577, #175, .T. ) ;
#346 = CARTESIAN_POINT ( 'NONE',  ( 43.07500000000000284, 25.00000000000001776, 2.000000000000000000 ) ) ;
#347 = ORIENTED_EDGE ( 'NONE', *, *, #587, .T. ) ;
#348 = AXIS2_PLACEMENT_3D ( 'NONE', #400, #598, #389 ) ;
#349 = EDGE_CURVE ( 'NONE', #412, #537, #29, .T. ) ;
#350 = CARTESIAN_POINT ( 'NONE',  ( 23.07499999999999574, 8.000000000000017764, 0.000000000000000000 ) ) ;
#351 = UNCERTAINTY_MEASURE_WITH_UNIT (LENGTH_MEASURE( 1.000000000000000082E-05 ), #495, 'distance_accuracy_value', 'NONE');
#352 = ORIENTED_EDGE ( 'NONE', *, *, #434, .F. ) ;
#353 = CARTESIAN_POINT ( 'NONE',  ( 8.075000000000001066, 45.00000000000001421, 0.000000000000000000 ) ) ;
#354 = ORIENTED_EDGE ( 'NONE', *, *, #36, .F. ) ;
#355 = FILL_AREA_STYLE_COLOUR ( '', #433 ) ;
#356 = AXIS2_PLACEMENT_3D ( 'NONE', #10, #209, #589 ) ;
#357 = EDGE_CURVE ( 'NONE', #380, #20, #509, .T. ) ;
#358 = ORIENTED_EDGE ( 'NONE', *, *, #381, .T. ) ;
#359 = AXIS2_PLACEMENT_3D ( 'NONE', #458, #228, #467 ) ;
#360 = CARTESIAN_POINT ( 'NONE',  ( 43.07500000000000284, 60.00000000000002842, 4.781545919919218582E-16 ) ) ;
#361 = DIRECTION ( 'NONE',  ( 0.1391731009600657709, -0.000000000000000000, -0.9902680687415703620 ) ) ;
#362 = SURFACE_STYLE_USAGE ( .BOTH. , #482 ) ;
#363 = CARTESIAN_POINT ( 'NONE',  ( 43.07500000000000284, 25.00000000000001776, 0.000000000000000000 ) ) ;
#364 = LINE ( 'NONE', #280, #214 ) ;
#365 = EDGE_CURVE ( 'NONE', #523, #20, #455, .T. ) ;
#366 = CARTESIAN_POINT ( 'NONE',  ( 58.07500000000000284, 25.00000000000001776, 0.000000000000000000 ) ) ;
#367 = VECTOR ( 'NONE', #402, 1000.000000000000000 ) ;
#368 = AXIS2_PLACEMENT_3D ( 'NONE', #373, #47, #199 ) ;
#369 = DIRECTION ( 'NONE',  ( 0.1391731009600657432, 0.000000000000000000, -0.9902680687415703620 ) ) ;
#370 = LINE ( 'NONE', #317, #100 ) ;
#371 = CARTESIAN_POINT ( 'NONE',  ( 60.07500000000000284, 25.00000000000001776, 0.000000000000000000 ) ) ;
#372 = FACE_OUTER_BOUND ( 'NONE', #154, .T. ) ;
#373 = CARTESIAN_POINT ( 'NONE',  ( 43.07500000000000284, 45.00000000000002132, 0.000000000000000000 ) ) ;
#374 = ORIENTED_EDGE ( 'NONE', *, *, #506, .T. ) ;
#375 = AXIS2_PLACEMENT_3D ( 'NONE', #603, #463, #39 ) ;
#376 = VECTOR ( 'NONE', #101, 999.9999999999998863 ) ;
#377 = CARTESIAN_POINT ( 'NONE',  ( 58.07500000000000284, 25.00000000000001776, 0.000000000000000000 ) ) ;
#378 = ORIENTED_EDGE ( 'NONE', *, *, #417, .F. ) ;
#379 = CARTESIAN_POINT ( 'NONE',  ( 43.07500000000000284, 60.28108166940481283, 2.000000000000000000 ) ) ;
#380 = VERTEX_POINT ( 'NONE', #276 ) ;
#381 = EDGE_CURVE ( 'NONE', #555, #254, #550, .T. ) ;
#382 = DIRECTION ( 'NONE',  ( -0.000000000000000000, 0.1391731009600657709, -0.9902680687415703620 ) ) ;
#383 = ORIENTED_EDGE ( 'NONE', *, *, #552, .T. ) ;
#384 = VECTOR ( 'NONE', #35, 1000.000000000000000 ) ;
#385 = VECTOR ( 'NONE', #315, 999.9999999999998863 ) ;
#386 = CARTESIAN_POINT ( 'NONE',  ( 23.07499999999999929, 25.00000000000001776, 0.000000000000000000 ) ) ;
#387 = ORIENTED_EDGE ( 'NONE', *, *, #213, .F. ) ;
#388 = LINE ( 'NONE', #14, #86 ) ;
#389 = DIRECTION ( 'NONE',  ( 0.1391731009600657432, 0.000000000000000000, 0.9902680687415703620 ) ) ;
#390 = ORIENTED_EDGE ( 'NONE', *, *, #279, .T. ) ;
#391 = DIRECTION ( 'NONE',  ( -0.1391731009600657709, -0.000000000000000000, -0.9902680687415703620 ) ) ;
#392 = VERTEX_POINT ( 'NONE', #135 ) ;
#393 = DIRECTION ( 'NONE',  ( 1.000000000000000000, 0.000000000000000000, 0.000000000000000000 ) ) ;
#394 = AXIS2_PLACEMENT_3D ( 'NONE', #594, #62, #393 ) ;
#395 = DIRECTION ( 'NONE',  ( -1.000000000000000000, -6.938893903907227392E-16, 0.000000000000000000 ) ) ;
#396 = CONICAL_SURFACE ( 'NONE', #79, 15.00000000000000000, 0.1396263401595466691 ) ;
#397 = ORIENTED_EDGE ( 'NONE', *, *, #213, .T. ) ;
#398 = CARTESIAN_POINT ( 'NONE',  ( 6.074999999999997513, 45.00000000000002132, 0.000000000000000000 ) ) ;
#399 = ORIENTED_EDGE ( 'NONE', *, *, #301, .T. ) ;
#400 = CARTESIAN_POINT ( 'NONE',  ( 58.07500000000000284, 25.00000000000001776, 0.000000000000000000 ) ) ;
#401 = ORIENTED_EDGE ( 'NONE', *, *, #345, .T. ) ;
#402 = DIRECTION ( 'NONE',  ( -0.000000000000000000, -1.000000000000000000, 0.000000000000000000 ) ) ;
#403 = VECTOR ( 'NONE', #471, 1000.000000000000000 ) ;
#404 = VECTOR ( 'NONE', #81, 999.9999999999998863 ) ;
#405 = CARTESIAN_POINT ( 'NONE',  ( 59.79391833059521844, 25.00000000000001776, 2.000000000000000000 ) ) ;
#406 = VECTOR ( 'NONE', #472, 1000.000000000000000 ) ;
#407 = DIRECTION ( 'NONE',  ( 0.9902680687415703620, -8.589206331781085531E-17, 0.1391731009600657432 ) ) ;
#408 = CARTESIAN_POINT ( 'NONE',  ( 58.35608166940478725, 45.00000000000002132, 2.000000000000000000 ) ) ;
#409 = DIRECTION ( 'NONE',  ( 1.000000000000000000, 0.000000000000000000, 0.000000000000000000 ) ) ;
#410 = VERTEX_POINT ( 'NONE', #515 ) ;
#411 = CARTESIAN_POINT ( 'NONE',  ( 23.07499999999999929, 61.71891833059523691, 2.000000000000000000 ) ) ;
#412 = VERTEX_POINT ( 'NONE', #320 ) ;
#413 = CONICAL_SURFACE ( 'NONE', #538, 17.00000000000001066, 0.1396263401595466691 ) ;
#414 = AXIS2_PLACEMENT_3D ( 'NONE', #32, #270, #182 ) ;
#415 = DIRECTION ( 'NONE',  ( 1.000000000000000000, 0.000000000000000000, 0.000000000000000000 ) ) ;
#416 = ORIENTED_EDGE ( 'NONE', *, *, #41, .F. ) ;
#417 = EDGE_CURVE ( 'NONE', #465, #257, #296, .T. ) ;
#418 = FACE_OUTER_BOUND ( 'NONE', #176, .T. ) ;
#419 = ORIENTED_EDGE ( 'NONE', *, *, #470, .F. ) ;
#420 = CARTESIAN_POINT ( 'NONE',  ( 43.07500000000000284, 45.00000000000002132, 0.000000000000000000 ) ) ;
#421 = ORIENTED_EDGE ( 'NONE', *, *, #148, .T. ) ;
#422 = CIRCLE ( 'NONE', #476, 16.71891833059521559 ) ;
#423 = VECTOR ( 'NONE', #44, 999.9999999999998863 ) ;
#424 = DIRECTION ( 'NONE',  ( 0.000000000000000000, 0.000000000000000000, 1.000000000000000000 ) ) ;
#425 = EDGE_CURVE ( 'NONE', #108, #246, #324, .T. ) ;
#426 = EDGE_LOOP ( 'NONE', ( #387, #212, #139, #119, #208, #481, #542, #329 ) ) ;
#427 = ADVANCED_FACE ( 'NONE', ( #464 ), #460, .T. ) ;
#428 = DIRECTION ( 'NONE',  ( 1.000000000000000000, 0.000000000000000000, 0.000000000000000000 ) ) ;
#429 = ORIENTED_EDGE ( 'NONE', *, *, #545, .F. ) ;
#430 = LINE ( 'NONE', #328, #11 ) ;
#431 = ORIENTED_EDGE ( 'NONE', *, *, #349, .T. ) ;
#432 = DIRECTION ( 'NONE',  ( 0.000000000000000000, 0.000000000000000000, 1.000000000000000000 ) ) ;
#433 = COLOUR_RGB ( '',0.7960784313725489669, 0.8235294117647058432, 0.9372549019607843146 ) ;
#434 = EDGE_CURVE ( 'NONE', #20, #235, #66, .T. ) ;
#435 = AXIS2_PLACEMENT_3D ( 'NONE', #574, #424, #428 ) ;
#436 = ORIENTED_EDGE ( 'NONE', *, *, #595, .T. ) ;
#437 = DIRECTION ( 'NONE',  ( 0.000000000000000000, 0.000000000000000000, 1.000000000000000000 ) ) ;
#438 = CARTESIAN_POINT ( 'NONE',  ( 43.07500000000000284, 25.00000000000001776, 2.000000000000000000 ) ) ;
#439 = ADVANCED_FACE ( 'NONE', ( #322 ), #499, .T. ) ;
#440 = VERTEX_POINT ( 'NONE', #408 ) ;
#441 = DIRECTION ( 'NONE',  ( 0.000000000000000000, 0.000000000000000000, 1.000000000000000000 ) ) ;
#442 = LINE ( 'NONE', #210, #551 ) ;
#443 = ORIENTED_EDGE ( 'NONE', *, *, #590, .F. ) ;
#444 = PLANE ( 'NONE',  #249 ) ;
#445 =( GEOMETRIC_REPRESENTATION_CONTEXT ( 3 ) GLOBAL_UNCERTAINTY_ASSIGNED_CONTEXT ( ( #351 ) ) GLOBAL_UNIT_ASSIGNED_CONTEXT ( ( #495, #22, #117 ) ) REPRESENTATION_CONTEXT ( 'NONE', 'WORKASPACE' ) );
#446 = DIRECTION ( 'NONE',  ( 0.000000000000000000, -0.1391731009600657432, -0.9902680687415703620 ) ) ;
#447 = CIRCLE ( 'NONE', #435, 15.28108166940478441 ) ;
#448 = VERTEX_POINT ( 'NONE', #411 ) ;
#449 = ADVANCED_FACE ( 'NONE', ( #607 ), #560, .T. ) ;
#450 = EDGE_LOOP ( 'NONE', ( #309, #99, #452, #342 ) ) ;
#451 = FACE_OUTER_BOUND ( 'NONE', #94, .T. ) ;
#452 = ORIENTED_EDGE ( 'NONE', *, *, #279, .F. ) ;
#453 = APPLICATION_CONTEXT ( 'automotive_design' ) ;
#454 = ADVANCED_FACE ( 'NONE', ( #507 ), #578, .F. ) ;
#455 = LINE ( 'NONE', #226, #384 ) ;
#456 = CONICAL_SURFACE ( 'NONE', #96, 17.00000000000000000, 0.1396263401595466691 ) ;
#457 = DIRECTION ( 'NONE',  ( -0.000000000000000000, -0.000000000000000000, -1.000000000000000000 ) ) ;
#458 = CARTESIAN_POINT ( 'NONE',  ( 43.07500000000000284, 45.00000000000002132, 0.000000000000000000 ) ) ;
#459 = VECTOR ( 'NONE', #500, 1000.000000000000000 ) ;
#460 = PLANE ( 'NONE',  #46 ) ;
#461 = PLANE ( 'NONE',  #562 ) ;
#462 =( NAMED_UNIT ( * ) SI_UNIT ( $, .STERADIAN. ) SOLID_ANGLE_UNIT ( ) );
#463 = DIRECTION ( 'NONE',  ( 0.000000000000000000, 0.000000000000000000, 1.000000000000000000 ) ) ;
#464 = FACE_OUTER_BOUND ( 'NONE', #25, .T. ) ;
#465 = VERTEX_POINT ( 'NONE', #77 ) ;
#466 = DIRECTION ( 'NONE',  ( -0.000000000000000000, -0.000000000000000000, -1.000000000000000000 ) ) ;
#467 = DIRECTION ( 'NONE',  ( 1.000000000000000000, 0.000000000000000000, -0.000000000000000000 ) ) ;
#468 = CIRCLE ( 'NONE', #281, 16.71891833059521915 ) ;
#469 = AXIS2_PLACEMENT_3D ( 'NONE', #153, #190, #202 ) ;
#470 = EDGE_CURVE ( 'NONE', #108, #583, #273, .T. ) ;
#471 = DIRECTION ( 'NONE',  ( -1.000000000000000000, -0.000000000000000000, -0.000000000000000000 ) ) ;
#472 = DIRECTION ( 'NONE',  ( -1.000000000000000000, 0.000000000000000000, 0.000000000000000000 ) ) ;
#473 = EDGE_LOOP ( 'NONE', ( #17, #231, #196, #260 ) ) ;
#474 = FACE_OUTER_BOUND ( 'NONE', #572, .T. ) ;
#475 = ORIENTED_EDGE ( 'NONE', *, *, #261, .T. ) ;
#476 = AXIS2_PLACEMENT_3D ( 'NONE', #252, #340, #295 ) ;
#477 = CIRCLE ( 'NONE', #242, 17.00000000000000000 ) ;
#478 = CARTESIAN_POINT ( 'NONE',  ( 60.07500000000000284, 45.00000000000002132, 0.000000000000000000 ) ) ;
#479 = ORIENTED_EDGE ( 'NONE', *, *, #98, .F. ) ;
#480 = DIRECTION ( 'NONE',  ( 1.000000000000000000, 0.000000000000000000, 0.000000000000000000 ) ) ;
#481 = ORIENTED_EDGE ( 'NONE', *, *, #506, .F. ) ;
#482 = SURFACE_SIDE_STYLE ('',( #292 ) ) ;
#483 = CARTESIAN_POINT ( 'NONE',  ( 43.07500000000000284, 61.71891833059523691, 2.000000000000000000 ) ) ;
#484 = ORIENTED_EDGE ( 'NONE', *, *, #130, .T. ) ;
#485 = PRODUCT_DEFINITION_FORMATION_WITH_SPECIFIED_SOURCE ( 'Symmetric', '', #89, .NOT_KNOWN. ) ;
#486 = CARTESIAN_POINT ( 'NONE',  ( 43.07500000000000284, 8.000000000000017764, 0.000000000000000000 ) ) ;
#487 = VECTOR ( 'NONE', #185, 1000.000000000000000 ) ;
#488 = PRODUCT_RELATED_PRODUCT_CATEGORY ( 'part', '', ( #89 ) ) ;
#489 = CLOSED_SHELL ( 'NONE', ( #78, #50, #237, #16, #544, #527, #497, #157, #439, #427, #454, #330, #111, #265, #195, #518, #59, #449 ) ) ;
#490 = PLANE ( 'NONE',  #58 ) ;
#491 = ORIENTED_EDGE ( 'NONE', *, *, #616, .T. ) ;
#492 = DIRECTION ( 'NONE',  ( -0.000000000000000000, -0.000000000000000000, -1.000000000000000000 ) ) ;
#493 = DIRECTION ( 'NONE',  ( 0.000000000000000000, 0.000000000000000000, 1.000000000000000000 ) ) ;
#494 = EDGE_LOOP ( 'NONE', ( #374, #2, #569, #64 ) ) ;
#495 =( LENGTH_UNIT ( ) NAMED_UNIT ( * ) SI_UNIT ( .MILLI., .METRE. ) );
#496 = EDGE_CURVE ( 'NONE', #410, #165, #604, .T. ) ;
#497 = ADVANCED_FACE ( 'NONE', ( #563 ), #456, .T. ) ;
#498 = ORIENTED_EDGE ( 'NONE', *, *, #556, .T. ) ;
#499 = CONICAL_SURFACE ( 'NONE', #510, 17.00000000000000000, 0.1396263401595466691 ) ;
#500 = DIRECTION ( 'NONE',  ( 1.000000000000000000, -0.000000000000000000, -0.000000000000000000 ) ) ;
#501 = STYLED_ITEM ( 'NONE', ( #26 ), #311 ) ;
#502 = ORIENTED_EDGE ( 'NONE', *, *, #301, .F. ) ;
#503 = DIRECTION ( 'NONE',  ( 0.000000000000000000, 0.000000000000000000, 1.000000000000000000 ) ) ;
#504 = ORIENTED_EDGE ( 'NONE', *, *, #198, .F. ) ;
#505 = PRESENTATION_STYLE_ASSIGNMENT (( #362 ) ) ;
#506 = EDGE_CURVE ( 'NONE', #45, #577, #566, .T. ) ;
#507 = FACE_OUTER_BOUND ( 'NONE', #158, .T. ) ;
#508 = EDGE_LOOP ( 'NONE', ( #150, #113, #55, #401 ) ) ;
#509 = LINE ( 'NONE', #606, #588 ) ;
#510 = AXIS2_PLACEMENT_3D ( 'NONE', #30, #457, #128 ) ;
#511 = ORIENTED_EDGE ( 'NONE', *, *, #573, .T. ) ;
#512 = CONICAL_SURFACE ( 'NONE', #110, 14.99999999999999645, 0.1396263401595466691 ) ;
#513 = FACE_OUTER_BOUND ( 'NONE', #65, .T. ) ;
#514 = DIRECTION ( 'NONE',  ( 0.1391731009600657432, 0.000000000000000000, -0.9902680687415703620 ) ) ;
#515 = CARTESIAN_POINT ( 'NONE',  ( 7.793918330595219324, 45.00000000000001421, 2.000000000000000000 ) ) ;
#516 = CARTESIAN_POINT ( 'NONE',  ( 23.07499999999999929, 25.00000000000001776, 0.000000000000000000 ) ) ;
#517 = CARTESIAN_POINT ( 'NONE',  ( 23.07499999999999929, 25.00000000000001776, 0.000000000000000000 ) ) ;
#518 = ADVANCED_FACE ( 'NONE', ( #451 ), #28, .T. ) ;
#519 = CARTESIAN_POINT ( 'NONE',  ( 6.074999999999997513, 45.00000000000002132, 0.000000000000000000 ) ) ;
#520 = CARTESIAN_POINT ( 'NONE',  ( 43.07500000000000284, 8.281081669404802170, 2.000000000000000000 ) ) ;
#521 = VECTOR ( 'NONE', #290, 999.9999999999998863 ) ;
#522 = CARTESIAN_POINT ( 'NONE',  ( 23.07499999999999574, 8.000000000000017764, 0.000000000000000000 ) ) ;
#523 = VERTEX_POINT ( 'NONE', #215 ) ;
#524 = EDGE_CURVE ( 'NONE', #580, #618, #318, .T. ) ;
#525 = FACE_OUTER_BOUND ( 'NONE', #338, .T. ) ;
#526 = VERTEX_POINT ( 'NONE', #18 ) ;
#527 = ADVANCED_FACE ( 'NONE', ( #53 ), #444, .T. ) ;
#528 = LINE ( 'NONE', #579, #287 ) ;
#529 = ORIENTED_EDGE ( 'NONE', *, *, #36, .T. ) ;
#530 = CIRCLE ( 'NONE', #121, 17.00000000000000000 ) ;
#531 = CARTESIAN_POINT ( 'NONE',  ( 23.07499999999999574, 8.000000000000017764, 0.000000000000000000 ) ) ;
#532 = ORIENTED_EDGE ( 'NONE', *, *, #38, .F. ) ;
#533 = DIRECTION ( 'NONE',  ( 0.000000000000000000, 0.000000000000000000, 1.000000000000000000 ) ) ;
#534 = ORIENTED_EDGE ( 'NONE', *, *, #470, .T. ) ;
#535 = CARTESIAN_POINT ( 'NONE',  ( 58.07500000000000284, 45.00000000000002132, 0.000000000000000000 ) ) ;
#536 = DIRECTION ( 'NONE',  ( 0.1391731009600657709, -1.207134227299582505E-17, -0.9902680687415703620 ) ) ;
#537 = VERTEX_POINT ( 'NONE', #114 ) ;
#538 = AXIS2_PLACEMENT_3D ( 'NONE', #581, #492, #206 ) ;
#539 = CARTESIAN_POINT ( 'NONE',  ( 6.074999999999997513, 45.00000000000002132, 0.000000000000000000 ) ) ;
#540 = CIRCLE ( 'NONE', #319, 15.28108166940478441 ) ;
#541 =( NAMED_UNIT ( * ) SI_UNIT ( $, .STERADIAN. ) SOLID_ANGLE_UNIT ( ) );
#542 = ORIENTED_EDGE ( 'NONE', *, *, #277, .F. ) ;
#543 = DIRECTION ( 'NONE',  ( -0.9902680687415703620, 0.000000000000000000, 0.1391731009600657432 ) ) ;
#544 = ADVANCED_FACE ( 'NONE', ( #159 ), #413, .T. ) ;
#545 = EDGE_CURVE ( 'NONE', #440, #92, #255, .T. ) ;
#546 = CARTESIAN_POINT ( 'NONE',  ( 43.07500000000000284, 60.00000000000002842, 0.000000000000000000 ) ) ;
#547 = ORIENTED_EDGE ( 'NONE', *, *, #277, .T. ) ;
#548 = DIRECTION ( 'NONE',  ( 6.871365065424865467E-16, -0.9902680687415703620, 0.1391731009600657432 ) ) ;
#549 = ORIENTED_EDGE ( 'NONE', *, *, #326, .F. ) ;
#550 = CIRCLE ( 'NONE', #375, 16.71891833059521559 ) ;
#551 = VECTOR ( 'NONE', #307, 1000.000000000000000 ) ;
#552 = EDGE_CURVE ( 'NONE', #583, #410, #76, .T. ) ;
#553 = EDGE_LOOP ( 'NONE', ( #502, #220, #534, #599 ) ) ;
#554 = DIRECTION ( 'NONE',  ( 0.000000000000000000, 0.9902680687415703620, 0.1391731009600657432 ) ) ;
#555 = VERTEX_POINT ( 'NONE', #247 ) ;
#556 = EDGE_CURVE ( 'NONE', #526, #523, #106, .T. ) ;
#557 = DIRECTION ( 'NONE',  ( 0.000000000000000000, 0.000000000000000000, 1.000000000000000000 ) ) ;
#558 = LINE ( 'NONE', #275, #48 ) ;
#559 =( GEOMETRIC_REPRESENTATION_CONTEXT ( 3 ) GLOBAL_UNCERTAINTY_ASSIGNED_CONTEXT ( ( #266 ) ) GLOBAL_UNIT_ASSIGNED_CONTEXT ( ( #73, #264, #462 ) ) REPRESENTATION_CONTEXT ( 'NONE', 'WORKASPACE' ) );
#560 = PLANE ( 'NONE',  #233 ) ;
#561 = FACE_OUTER_BOUND ( 'NONE', #426, .T. ) ;
#562 = AXIS2_PLACEMENT_3D ( 'NONE', #567, #325, #321 ) ;
#563 = FACE_OUTER_BOUND ( 'NONE', #508, .T. ) ;
#564 = PLANE ( 'NONE',  #359 ) ;
#565 = APPLICATION_CONTEXT ( 'automotive_design' ) ;
#566 = LINE ( 'NONE', #519, #308 ) ;
#567 = CARTESIAN_POINT ( 'NONE',  ( 43.07500000000000284, 45.00000000000002132, 2.000000000000000000 ) ) ;
#568 = LINE ( 'NONE', #571, #23 ) ;
#569 = ORIENTED_EDGE ( 'NONE', *, *, #349, .F. ) ;
#570 = CIRCLE ( 'NONE', #336, 17.00000000000001066 ) ;
#571 = CARTESIAN_POINT ( 'NONE',  ( 43.07500000000000284, 62.00000000000002132, 0.000000000000000000 ) ) ;
#572 = EDGE_LOOP ( 'NONE', ( #443, #429, #289, #205 ) ) ;
#573 = EDGE_CURVE ( 'NONE', #537, #52, #422, .T. ) ;
#574 = CARTESIAN_POINT ( 'NONE',  ( 23.07499999999999929, 25.00000000000001776, 2.000000000000000000 ) ) ;
#575 = ORIENTED_EDGE ( 'NONE', *, *, #381, .F. ) ;
#576 = DIRECTION ( 'NONE',  ( 0.000000000000000000, 0.000000000000000000, 1.000000000000000000 ) ) ;
#577 = VERTEX_POINT ( 'NONE', #584 ) ;
#578 = CONICAL_SURFACE ( 'NONE', #600, 15.00000000000000000, 0.1396263401595466691 ) ;
#579 = CARTESIAN_POINT ( 'NONE',  ( 8.075000000000001066, 45.00000000000001421, 0.000000000000000000 ) ) ;
#580 = VERTEX_POINT ( 'NONE', #486 ) ;
#581 = CARTESIAN_POINT ( 'NONE',  ( 23.07500000000000284, 45.00000000000001421, 0.000000000000000000 ) ) ;
#582 =( LENGTH_UNIT ( ) NAMED_UNIT ( * ) SI_UNIT ( .MILLI., .METRE. ) );
#583 = VERTEX_POINT ( 'NONE', #57 ) ;
#584 = CARTESIAN_POINT ( 'NONE',  ( 6.074999999999997513, 25.00000000000002132, 0.000000000000000000 ) ) ;
#585 = SURFACE_STYLE_USAGE ( .BOTH. , #12 ) ;
#586 = ORIENTED_EDGE ( 'NONE', *, *, #227, .T. ) ;
#587 = EDGE_CURVE ( 'NONE', #448, #412, #468, .T. ) ;
#588 = VECTOR ( 'NONE', #269, 999.9999999999998863 ) ;
#589 = DIRECTION ( 'NONE',  ( 1.000000000000000000, 0.000000000000000000, 0.000000000000000000 ) ) ;
#590 = EDGE_CURVE ( 'NONE', #92, #246, #164, .T. ) ;
#591 = AXIS2_PLACEMENT_3D ( 'NONE', #156, #197, #236 ) ;
#592 = FACE_OUTER_BOUND ( 'NONE', #230, .T. ) ;
#593 = ORIENTED_EDGE ( 'NONE', *, *, #98, .T. ) ;
#594 = CARTESIAN_POINT ( 'NONE',  ( 43.07500000000000284, 25.00000000000001776, 0.000000000000000000 ) ) ;
#595 = EDGE_CURVE ( 'NONE', #243, #523, #142, .T. ) ;
#596 = FILL_AREA_STYLE ('',( #163 ) ) ;
#597 = ORIENTED_EDGE ( 'NONE', *, *, #365, .T. ) ;
#598 = DIRECTION ( 'NONE',  ( -0.9902680687415703620, 0.000000000000000000, 0.1391731009600657432 ) ) ;
#599 = ORIENTED_EDGE ( 'NONE', *, *, #305, .T. ) ;
#600 = AXIS2_PLACEMENT_3D ( 'NONE', #181, #610, #74 ) ;
#601 = AXIS2_PLACEMENT_3D ( 'NONE', #420, #93, #293 ) ;
#602 = DIRECTION ( 'NONE',  ( 0.1391731009600657709, -0.000000000000000000, -0.9902680687415703620 ) ) ;
#603 = CARTESIAN_POINT ( 'NONE',  ( 43.07500000000000284, 45.00000000000002132, 2.000000000000000000 ) ) ;
#604 = LINE ( 'NONE', #316, #487 ) ;
#605 = CARTESIAN_POINT ( 'NONE',  ( 58.07500000000000284, 45.00000000000002132, 0.000000000000000000 ) ) ;
#606 = CARTESIAN_POINT ( 'NONE',  ( 43.07500000000000284, 10.00000000000001954, 4.688931430053857495E-16 ) ) ;
#607 = FACE_OUTER_BOUND ( 'NONE', #473, .T. ) ;
#608 = EDGE_LOOP ( 'NONE', ( #547, #102, #122, #586 ) ) ;
#609 = PRODUCT_CONTEXT ( 'NONE', #565, 'mechanical' ) ;
#610 = DIRECTION ( 'NONE',  ( 0.000000000000000000, 0.000000000000000000, 1.000000000000000000 ) ) ;
#611 = ORIENTED_EDGE ( 'NONE', *, *, #188, .T. ) ;
#612 = CONICAL_SURFACE ( 'NONE', #601, 17.00000000000000000, 0.1396263401595466691 ) ;
#613 = CARTESIAN_POINT ( 'NONE',  ( 23.07500000000000284, 45.00000000000001421, 0.000000000000000000 ) ) ;
#614 = DIRECTION ( 'NONE',  ( 0.000000000000000000, 1.000000000000000000, 0.000000000000000000 ) ) ;
#615 = PRODUCT_DEFINITION_SHAPE ( 'NONE', 'NONE',  #71 ) ;
#616 = EDGE_CURVE ( 'NONE', #618, #217, #388, .T. ) ;
#617 = DIRECTION ( 'NONE',  ( -8.673617379884040402E-17, -1.000000000000000000, 0.000000000000000000 ) ) ;
#618 = VERTEX_POINT ( 'NONE', #166 ) ;
ENDSEC;
END-ISO-10303-21;
