ISO-10303-21;
HEADER;
FILE_DESCRIPTION (( 'STEP AP214' ),
    '1' );
FILE_NAME ('gasket_top_cover.STEP',
    '2026-08-16T17:44:14',
    ( '' ),
    ( '' ),
    'SwSTEP 2.0',
    'SolidWorks 2025',
    '' );
FILE_SCHEMA (( 'AUTOMOTIVE_DESIGN' ));
ENDSEC;

DATA;
#1 = DIRECTION ( 'NONE',  ( -0.2909312820662345866, -0.9567439517003997196, 0.000000000000000000 ) ) ;
#2 = EDGE_CURVE ( 'NONE', #229, #81, #40, .T. ) ;
#3 = EDGE_LOOP ( 'NONE', ( #226, #188, #481, #574 ) ) ;
#4 = VECTOR ( 'NONE', #35, 1000.000000000000114 ) ;
#5 = DIRECTION ( 'NONE',  ( 0.4334888646037082238, -0.9011589228679856012, 0.000000000000000000 ) ) ;
#6 = CARTESIAN_POINT ( 'NONE',  ( 14.37351511209227617, 34.80836400657798890, 2.500000000000000000 ) ) ;
#7 = EDGE_LOOP ( 'NONE', ( #555, #547, #492, #441 ) ) ;
#8 =( NAMED_UNIT ( * ) SI_UNIT ( $, .STERADIAN. ) SOLID_ANGLE_UNIT ( ) );
#9 = FACE_OUTER_BOUND ( 'NONE', #123, .T. ) ;
#10 = ORIENTED_EDGE ( 'NONE', *, *, #104, .F. ) ;
#11 = PLANE ( 'NONE',  #244 ) ;
#12 = LINE ( 'NONE', #55, #327 ) ;
#13 = ORIENTED_EDGE ( 'NONE', *, *, #531, .T. ) ;
#14 = DIRECTION ( 'NONE',  ( -0.4334888646037085569, -0.9011589228679853791, 0.000000000000000000 ) ) ;
#15 = VECTOR ( 'NONE', #528, 1000.000000000000114 ) ;
#16 = DIRECTION ( 'NONE',  ( 0.1045740182106055655, 0.000000000000000000, -0.9945171062959591302 ) ) ;
#17 = ORIENTED_EDGE ( 'NONE', *, *, #143, .F. ) ;
#18 = CARTESIAN_POINT ( 'NONE',  ( 14.86971232810076948, 66.73092729468208972, 0.000000000000000000 ) ) ;
#19 = CARTESIAN_POINT ( 'NONE',  ( 15.75906465691169167, 3.807444626000810128, 2.500000000000000000 ) ) ;
#20 = EDGE_CURVE ( 'NONE', #561, #177, #154, .T. ) ;
#21 = ORIENTED_EDGE ( 'NONE', *, *, #134, .T. ) ;
#22 = CARTESIAN_POINT ( 'NONE',  ( 15.56432570607539567, 3.807444626000810128, 2.500000000000000000 ) ) ;
#23 = FACE_OUTER_BOUND ( 'NONE', #501, .T. ) ;
#24 = VERTEX_POINT ( 'NONE', #347 ) ;
#25 = VECTOR ( 'NONE', #482, 1000.000000000000000 ) ;
#26 = CARTESIAN_POINT ( 'NONE',  ( 0.000000000000000000, 0.000000000000000000, 0.000000000000000000 ) ) ;
#27 = AXIS2_PLACEMENT_3D ( 'NONE', #564, #410, #102 ) ;
#28 = DIRECTION ( 'NONE',  ( -0.1039620511844979306, -0.1039620511844979306, -0.9891328443778538704 ) ) ;
#29 = ORIENTED_EDGE ( 'NONE', *, *, #562, .T. ) ;
#30 = DIRECTION ( 'NONE',  ( 0.07723743956571987868, -0.1042162082183836630, -0.9915509870268468529 ) ) ;
#31 = DIRECTION ( 'NONE',  ( 0.1037978024193864923, 0.02529334180794678977, -0.9942767537628003360 ) ) ;
#32 = VERTEX_POINT ( 'NONE', #613 ) ;
#33 = SURFACE_STYLE_FILL_AREA ( #92 ) ;
#34 = CARTESIAN_POINT ( 'NONE',  ( 14.19342164625596858, 28.74243347503460555, 2.500000000000000000 ) ) ;
#35 = DIRECTION ( 'NONE',  ( -0.1117716624847546747, -0.008576281472045544849, -0.9936969069396897059 ) ) ;
#36 = UNCERTAINTY_MEASURE_WITH_UNIT (LENGTH_MEASURE( 1.000000000000000082E-05 ), #355, 'distance_accuracy_value', 'NONE');
#37 = LINE ( 'NONE', #522, #39 ) ;
#38 = PLANE ( 'NONE',  #521 ) ;
#39 = VECTOR ( 'NONE', #315, 1000.000000000000000 ) ;
#40 = LINE ( 'NONE', #405, #488 ) ;
#41 = SURFACE_STYLE_FILL_AREA ( #606 ) ;
#42 = PLANE ( 'NONE',  #159 ) ;
#43 = EDGE_CURVE ( 'NONE', #338, #95, #296, .T. ) ;
#44 = ORIENTED_EDGE ( 'NONE', *, *, #414, .T. ) ;
#45 = EDGE_CURVE ( 'NONE', #100, #48, #37, .T. ) ;
#46 = DIRECTION ( 'NONE',  ( 0.000000000000000000, 0.000000000000000000, 1.000000000000000000 ) ) ;
#47 = PLANE ( 'NONE',  #252 ) ;
#48 = VERTEX_POINT ( 'NONE', #254 ) ;
#49 = EDGE_CURVE ( 'NONE', #311, #205, #519, .T. ) ;
#50 =( GEOMETRIC_REPRESENTATION_CONTEXT ( 3 ) GLOBAL_UNCERTAINTY_ASSIGNED_CONTEXT ( ( #151 ) ) GLOBAL_UNIT_ASSIGNED_CONTEXT ( ( #98, #392, #145 ) ) REPRESENTATION_CONTEXT ( 'NONE', 'WORKASPACE' ) );
#51 = ORIENTED_EDGE ( 'NONE', *, *, #155, .T. ) ;
#52 = VECTOR ( 'NONE', #262, 1000.000000000000227 ) ;
#53 = LINE ( 'NONE', #310, #314 ) ;
#54 = APPLICATION_CONTEXT ( 'automotive_design' ) ;
#55 = CARTESIAN_POINT ( 'NONE',  ( 46.14907805431299437, 66.73092729468210393, 0.000000000000000000 ) ) ;
#56 = VERTEX_POINT ( 'NONE', #469 ) ;
#57 = VECTOR ( 'NONE', #450, 1000.000000000000000 ) ;
#58 = CARTESIAN_POINT ( 'NONE',  ( 13.52349234186383597, 40.69545134948594978, 2.500000000000000000 ) ) ;
#59 = ORIENTED_EDGE ( 'NONE', *, *, #199, .F. ) ;
#60 =( GEOMETRIC_REPRESENTATION_CONTEXT ( 3 ) GLOBAL_UNCERTAINTY_ASSIGNED_CONTEXT ( ( #36 ) ) GLOBAL_UNIT_ASSIGNED_CONTEXT ( ( #355, #308, #8 ) ) REPRESENTATION_CONTEXT ( 'NONE', 'WORKASPACE' ) );
#61 = DIRECTION ( 'NONE',  ( -0.9515028082272134480, -0.2893375300624336233, 0.1045284632676537068 ) ) ;
#62 = DIRECTION ( 'NONE',  ( 0.02967626236838656964, -0.9995595627334283861, 0.000000000000000000 ) ) ;
#63 = EDGE_CURVE ( 'NONE', #261, #369, #362, .T. ) ;
#64 = DIRECTION ( 'NONE',  ( 0.1045284632676537068, 0.000000000000000000, -0.9945218953682734009 ) ) ;
#65 = CARTESIAN_POINT ( 'NONE',  ( 10.66893267680490531, 20.80939170087368595, 0.000000000000000000 ) ) ;
#66 = ORIENTED_EDGE ( 'NONE', *, *, #126, .T. ) ;
#67 = LINE ( 'NONE', #384, #25 ) ;
#68 = CARTESIAN_POINT ( 'NONE',  ( 46.14907805431299437, 2.870205214165002072, 0.000000000000000000 ) ) ;
#69 = ORIENTED_EDGE ( 'NONE', *, *, #2, .T. ) ;
#70 = FACE_OUTER_BOUND ( 'NONE', #97, .T. ) ;
#71 = VECTOR ( 'NONE', #303, 1000.000000000000000 ) ;
#72 = EDGE_CURVE ( 'NONE', #273, #526, #463, .T. ) ;
#73 = DIRECTION ( 'NONE',  ( -0.000000000000000000, 0.000000000000000000, 1.000000000000000000 ) ) ;
#74 = ORIENTED_EDGE ( 'NONE', *, *, #164, .F. ) ;
#75 = DIRECTION ( 'NONE',  ( 0.1039620511844979306, -0.1039620511844979167, -0.9891328443778538704 ) ) ;
#76 = DIRECTION ( 'NONE',  ( -0.1117716624847546469, 0.008576281472045596890, -0.9936969069396897059 ) ) ;
#77 = PRODUCT_RELATED_PRODUCT_CATEGORY ( 'part', '', ( #255 ) ) ;
#78 = VERTEX_POINT ( 'NONE', #621 ) ;
#79 = LINE ( 'NONE', #434, #625 ) ;
#80 = DIRECTION ( 'NONE',  ( -0.1037978024193864784, -0.02529334180794680365, -0.9942767537628003360 ) ) ;
#81 = VERTEX_POINT ( 'NONE', #58 ) ;
#82 = CARTESIAN_POINT ( 'NONE',  ( 13.26250413604848255, 40.63185401174214206, 0.000000000000000000 ) ) ;
#83 = VECTOR ( 'NONE', #1, 1000.000000000000227 ) ;
#84 = DIRECTION ( 'NONE',  ( -0.4334888646037085569, -0.9011589228679853791, 0.000000000000000000 ) ) ;
#85 = ORIENTED_EDGE ( 'NONE', *, *, #591, .F. ) ;
#86 = SHAPE_DEFINITION_REPRESENTATION ( #307, #165 ) ;
#87 = ORIENTED_EDGE ( 'NONE', *, *, #49, .F. ) ;
#88 = CARTESIAN_POINT ( 'NONE',  ( 44.94907805431299153, 4.070205214165001806, 0.000000000000000000 ) ) ;
#89 = EDGE_LOOP ( 'NONE', ( #10, #571, #611, #458 ) ) ;
#90 =( GEOMETRIC_REPRESENTATION_CONTEXT ( 3 ) GLOBAL_UNCERTAINTY_ASSIGNED_CONTEXT ( ( #295 ) ) GLOBAL_UNIT_ASSIGNED_CONTEXT ( ( #289, #344, #495 ) ) REPRESENTATION_CONTEXT ( 'NONE', 'WORKASPACE' ) );
#91 = EDGE_CURVE ( 'NONE', #48, #311, #422, .T. ) ;
#92 = FILL_AREA_STYLE ('',( #346 ) ) ;
#93 = ADVANCED_FACE ( 'NONE', ( #9 ), #570, .T. ) ;
#94 = VECTOR ( 'NONE', #76, 1000.000000000000000 ) ;
#95 = VERTEX_POINT ( 'NONE', #357 ) ;
#96 = DIRECTION ( 'NONE',  ( 0.9940838708631317688, -0.02951369269805393866, 0.1045284632676537068 ) ) ;
#97 = EDGE_LOOP ( 'NONE', ( #529, #128, #394, #583, #445, #167, #144, #403, #281 ) ) ;
#98 =( LENGTH_UNIT ( ) NAMED_UNIT ( * ) SI_UNIT ( .MILLI., .METRE. ) );
#99 = PLANE ( 'NONE',  #293 ) ;
#100 = VERTEX_POINT ( 'NONE', #264 ) ;
#101 = CARTESIAN_POINT ( 'NONE',  ( 9.384714531282769556, 48.69320226928962825, 0.000000000000000000 ) ) ;
#102 = DIRECTION ( 'NONE',  ( 0.4334888646037086124, 0.9011589228679853791, 0.000000000000000000 ) ) ;
#103 = VECTOR ( 'NONE', #31, 1000.000000000000227 ) ;
#104 = EDGE_CURVE ( 'NONE', #453, #631, #208, .T. ) ;
#105 = CARTESIAN_POINT ( 'NONE',  ( 46.14907805431299437, 2.870205214165002072, 0.000000000000000000 ) ) ;
#106 = DIRECTION ( 'NONE',  ( 0.9515028082272134480, 0.2893375300624335122, 0.1045284632676537206 ) ) ;
#107 = ORIENTED_EDGE ( 'NONE', *, *, #657, .T. ) ;
#108 = CARTESIAN_POINT ( 'NONE',  ( 45.21183864247718986, 4.070205214165001806, 2.500000000000000000 ) ) ;
#109 = EDGE_CURVE ( 'NONE', #663, #338, #259, .T. ) ;
#110 = AXIS2_PLACEMENT_3D ( 'NONE', #82, #490, #185 ) ;
#111 = LINE ( 'NONE', #573, #356 ) ;
#112 = EDGE_LOOP ( 'NONE', ( #467, #237, #506, #593 ) ) ;
#113 = VECTOR ( 'NONE', #536, 1000.000000000000000 ) ;
#114 = DIRECTION ( 'NONE',  ( 0.2909312820662348087, -0.9567439517003998306, 0.000000000000000000 ) ) ;
#115 = DIRECTION ( 'NONE',  ( 0.2909312820662346422, -0.9567439517003997196, 0.000000000000000000 ) ) ;
#116 = EDGE_LOOP ( 'NONE', ( #588, #299, #253, #349 ) ) ;
#117 = CARTESIAN_POINT ( 'NONE',  ( 45.21183864247718986, 3.807444626000810128, 2.500000000000000000 ) ) ;
#118 = DIRECTION ( 'NONE',  ( 0.1117716624847546331, 0.008576281472045607299, -0.9936969069396897059 ) ) ;
#119 = EDGE_LOOP ( 'NONE', ( #51, #66, #353, #13, #181, #470, #389, #131, #107 ) ) ;
#120 = DIRECTION ( 'NONE',  ( -0.8962222799987006328, -0.4311141672467207475, 0.1045284632676537206 ) ) ;
#121 = PLANE ( 'NONE',  #212 ) ;
#122 = VECTOR ( 'NONE', #75, 1000.000000000000114 ) ;
#123 = EDGE_LOOP ( 'NONE', ( #174, #418, #557, #361 ) ) ;
#124 = CARTESIAN_POINT ( 'NONE',  ( 14.45440985207132201, 28.67883613729080139, 0.000000000000000000 ) ) ;
#125 = VECTOR ( 'NONE', #517, 1000.000000000000000 ) ;
#126 = EDGE_CURVE ( 'NONE', #568, #425, #318, .T. ) ;
#127 = CARTESIAN_POINT ( 'NONE',  ( 14.43428556902132343, 40.91739250694685381, 0.1927700428753862105 ) ) ;
#128 = ORIENTED_EDGE ( 'NONE', *, *, #468, .F. ) ;
#129 = DIRECTION ( 'NONE',  ( 0.2909312820662346977, -0.9567439517003997196, 0.000000000000000000 ) ) ;
#130 = CARTESIAN_POINT ( 'NONE',  ( 14.45440985207132201, 40.92229637155631394, 0.000000000000000000 ) ) ;
#131 = ORIENTED_EDGE ( 'NONE', *, *, #514, .T. ) ;
#132 = LINE ( 'NONE', #645, #280 ) ;
#133 = DIRECTION ( 'NONE',  ( -0.8962222799987005217, 0.4311141672467210806, 0.1045284632676537206 ) ) ;
#134 = EDGE_CURVE ( 'NONE', #338, #561, #170, .T. ) ;
#135 = ORIENTED_EDGE ( 'NONE', *, *, #388, .F. ) ;
#136 = STYLED_ITEM ( 'NONE', ( #503 ), #165 ) ;
#137 = VECTOR ( 'NONE', #118, 1000.000000000000114 ) ;
#138 = ORIENTED_EDGE ( 'NONE', *, *, #429, .T. ) ;
#139 = DIRECTION ( 'NONE',  ( 0.000000000000000000, -0.9945218953682734009, 0.1045284632676537068 ) ) ;
#140 = EDGE_LOOP ( 'NONE', ( #198, #249, #605, #323, #484, #477, #135, #326, #17 ) ) ;
#141 = DIRECTION ( 'NONE',  ( 1.000000000000000000, 0.000000000000000000, 0.000000000000000000 ) ) ;
#142 = ADVANCED_FACE ( 'NONE', ( #627 ), #360, .T. ) ;
#143 = EDGE_CURVE ( 'NONE', #616, #32, #576, .T. ) ;
#144 = ORIENTED_EDGE ( 'NONE', *, *, #580, .F. ) ;
#145 =( NAMED_UNIT ( * ) SI_UNIT ( $, .STERADIAN. ) SOLID_ANGLE_UNIT ( ) );
#146 = AXIS2_PLACEMENT_3D ( 'NONE', #587, #382, #643 ) ;
#147 = FACE_OUTER_BOUND ( 'NONE', #116, .T. ) ;
#148 = VERTEX_POINT ( 'NONE', #472 ) ;
#149 = DIRECTION ( 'NONE',  ( 0.000000000000000000, -0.1045284632676537068, 0.9945218953682734009 ) ) ;
#150 = LINE ( 'NONE', #448, #245 ) ;
#151 = UNCERTAINTY_MEASURE_WITH_UNIT (LENGTH_MEASURE( 1.000000000000000082E-05 ), #98, 'distance_accuracy_value', 'NONE');
#152 = EDGE_LOOP ( 'NONE', ( #335, #545, #219, #579 ) ) ;
#153 = CARTESIAN_POINT ( 'NONE',  ( 44.94907805431299153, 4.070205214165001806, 0.000000000000000000 ) ) ;
#154 = LINE ( 'NONE', #351, #270 ) ;
#155 = EDGE_CURVE ( 'NONE', #177, #568, #111, .T. ) ;
#156 = LINE ( 'NONE', #575, #313 ) ;
#157 = MECHANICAL_DESIGN_GEOMETRIC_PRESENTATION_REPRESENTATION (  '', ( #302 ), #60 ) ;
#158 = CARTESIAN_POINT ( 'NONE',  ( 15.56432570607539745, 65.79368788284628522, 2.500000000000000000 ) ) ;
#159 = AXIS2_PLACEMENT_3D ( 'NONE', #653, #96, #342 ) ;
#160 = ORIENTED_EDGE ( 'NONE', *, *, #474, .F. ) ;
#161 = CARTESIAN_POINT ( 'NONE',  ( 15.75906465691169167, 65.53092729468210109, 0.000000000000000000 ) ) ;
#162 = VERTEX_POINT ( 'NONE', #158 ) ;
#163 = DIRECTION ( 'NONE',  ( -0.1037978024193864784, 0.02529334180794681405, -0.9942767537628003360 ) ) ;
#164 = EDGE_CURVE ( 'NONE', #48, #319, #12, .T. ) ;
#165 = ADVANCED_BREP_SHAPE_REPRESENTATION ( 'gasket_top_cover', ( #435, #512 ), #90 ) ;
#166 = CARTESIAN_POINT ( 'NONE',  ( 15.75906465691169167, 4.070205214165001806, 0.000000000000000000 ) ) ;
#167 = ORIENTED_EDGE ( 'NONE', *, *, #540, .F. ) ;
#168 = ADVANCED_FACE ( 'NONE', ( #220 ), #172, .T. ) ;
#169 = PRODUCT_DEFINITION_FORMATION_WITH_SPECIFIED_SOURCE ( 'Symmetric', '', #255, .NOT_KNOWN. ) ;
#170 = LINE ( 'NONE', #305, #409 ) ;
#171 = VECTOR ( 'NONE', #615, 1000.000000000000000 ) ;
#172 = PLANE ( 'NONE',  #27 ) ;
#173 = EDGE_CURVE ( 'NONE', #374, #411, #257, .T. ) ;
#174 = ORIENTED_EDGE ( 'NONE', *, *, #155, .F. ) ;
#175 = LINE ( 'NONE', #235, #122 ) ;
#176 = CARTESIAN_POINT ( 'NONE',  ( 14.63615997070125552, 34.80056625442355767, 0.000000000000000000 ) ) ;
#177 = VERTEX_POINT ( 'NONE', #618 ) ;
#178 = DIRECTION ( 'NONE',  ( -1.000000000000000000, 0.000000000000000000, 0.000000000000000000 ) ) ;
#179 = DIRECTION ( 'NONE',  ( 0.02967626236838652801, -0.9995595627334283861, 0.000000000000000000 ) ) ;
#180 = VECTOR ( 'NONE', #178, 1000.000000000000000 ) ;
#181 = ORIENTED_EDGE ( 'NONE', *, *, #104, .T. ) ;
#182 = LINE ( 'NONE', #336, #486 ) ;
#183 = CARTESIAN_POINT ( 'NONE',  ( 15.06445127893706193, 66.46816670651790560, 2.500000000000000000 ) ) ;
#184 = EDGE_LOOP ( 'NONE', ( #292, #87, #624, #433 ) ) ;
#185 = DIRECTION ( 'NONE',  ( 0.1045740182106055516, 0.000000000000000000, 0.9945171062959590191 ) ) ;
#186 = EDGE_CURVE ( 'NONE', #631, #608, #53, .T. ) ;
#187 = CARTESIAN_POINT ( 'NONE',  ( 10.43214362820270580, 48.67783701894752824, 2.500000000000000000 ) ) ;
#188 = ORIENTED_EDGE ( 'NONE', *, *, #330, .F. ) ;
#189 = DIRECTION ( 'NONE',  ( 0.2909312820662347532, -0.9567439517003997196, 0.000000000000000000 ) ) ;
#190 = CARTESIAN_POINT ( 'NONE',  ( 14.63417240133345310, 34.80056625442355767, 0.01890213047228259807 ) ) ;
#191 = ORIENTED_EDGE ( 'NONE', *, *, #298, .F. ) ;
#192 = VECTOR ( 'NONE', #328, 1000.000000000000000 ) ;
#193 = COLOUR_RGB ( '',0.7960784313725489669, 0.8235294117647058432, 0.9372549019607843146 ) ;
#194 = CARTESIAN_POINT ( 'NONE',  ( 44.94907805431299153, 4.070205214165001806, 0.000000000000000000 ) ) ;
#195 = EDGE_LOOP ( 'NONE', ( #462, #449, #21, #206 ) ) ;
#196 = CARTESIAN_POINT ( 'NONE',  ( 14.19342164625596858, 40.85869903381250623, 2.500000000000000000 ) ) ;
#197 = CARTESIAN_POINT ( 'NONE',  ( 15.12110693157209873, 66.65448201989100596, 2.500000000000000000 ) ) ;
#198 = ORIENTED_EDGE ( 'NONE', *, *, #215, .F. ) ;
#199 = EDGE_CURVE ( 'NONE', #148, #374, #228, .T. ) ;
#200 = CARTESIAN_POINT ( 'NONE',  ( 15.75906465691169167, 4.070205214165001806, -6.981248632200775634E-17 ) ) ;
#201 = VERTEX_POINT ( 'NONE', #176 ) ;
#202 = COLOUR_RGB ( '',0.7960784313725489669, 0.8235294117647058432, 0.9372549019607843146 ) ;
#203 = VECTOR ( 'NONE', #285, 1000.000000000000227 ) ;
#204 = DIRECTION ( 'NONE',  ( 0.2909312820662346422, -0.9567439517003997196, 0.000000000000000000 ) ) ;
#205 = VERTEX_POINT ( 'NONE', #427 ) ;
#206 = ORIENTED_EDGE ( 'NONE', *, *, #20, .T. ) ;
#207 = DIRECTION ( 'NONE',  ( -0.9940838708631317688, 0.02951369269805395948, 0.1045284632676537068 ) ) ;
#208 = LINE ( 'NONE', #161, #83 ) ;
#209 = ORIENTED_EDGE ( 'NONE', *, *, #377, .T. ) ;
#210 = AXIS2_PLACEMENT_3D ( 'NONE', #372, #120, #324 ) ;
#211 = CARTESIAN_POINT ( 'NONE',  ( 13.49929318465068384, 28.85537470807906857, 2.500000000000000000 ) ) ;
#212 = AXIS2_PLACEMENT_3D ( 'NONE', #334, #73, #436 ) ;
#213 = EDGE_CURVE ( 'NONE', #81, #273, #592, .T. ) ;
#214 = VERTEX_POINT ( 'NONE', #337 ) ;
#215 = EDGE_CURVE ( 'NONE', #534, #616, #582, .T. ) ;
#216 = CARTESIAN_POINT ( 'NONE',  ( 14.86971232810076948, 2.870205214164995411, 0.000000000000000000 ) ) ;
#217 = CARTESIAN_POINT ( 'NONE',  ( 15.75906465691169167, 65.53092729468210109, 0.000000000000000000 ) ) ;
#218 = DIRECTION ( 'NONE',  ( -0.2909312820662346422, 0.9567439517003997196, 0.000000000000000000 ) ) ;
#219 = ORIENTED_EDGE ( 'NONE', *, *, #368, .F. ) ;
#220 = FACE_OUTER_BOUND ( 'NONE', #195, .T. ) ;
#221 = VECTOR ( 'NONE', #204, 1000.000000000000114 ) ;
#222 = DIRECTION ( 'NONE',  ( -0.000000000000000000, 0.000000000000000000, 1.000000000000000000 ) ) ;
#223 = CARTESIAN_POINT ( 'NONE',  ( 9.384714531282766004, 20.90793023955747998, 0.000000000000000000 ) ) ;
#224 = EDGE_CURVE ( 'NONE', #369, #319, #440, .T. ) ;
#225 = PRODUCT_DEFINITION_CONTEXT ( 'detailed design', #54, 'design' ) ;
#226 = ORIENTED_EDGE ( 'NONE', *, *, #514, .F. ) ;
#227 = FACE_OUTER_BOUND ( 'NONE', #152, .T. ) ;
#228 = LINE ( 'NONE', #533, #203 ) ;
#229 = VERTEX_POINT ( 'NONE', #646 ) ;
#230 = CARTESIAN_POINT ( 'NONE',  ( 10.38773108076446761, 20.83096840452484599, 2.500000000000000000 ) ) ;
#231 = FACE_OUTER_BOUND ( 'NONE', #112, .T. ) ;
#232 = ORIENTED_EDGE ( 'NONE', *, *, #247, .F. ) ;
#233 = ADVANCED_FACE ( 'NONE', ( #231 ), #539, .T. ) ;
#234 = AXIS2_PLACEMENT_3D ( 'NONE', #419, #207, #359 ) ;
#235 = CARTESIAN_POINT ( 'NONE',  ( 46.14907805431299437, 2.870205214165002072, 7.965546744006437632E-32 ) ) ;
#236 = FACE_OUTER_BOUND ( 'NONE', #647, .T. ) ;
#237 = ORIENTED_EDGE ( 'NONE', *, *, #290, .F. ) ;
#238 = LINE ( 'NONE', #426, #251 ) ;
#239 = DIRECTION ( 'NONE',  ( 0.000000000000000000, 1.000000000000000000, 0.000000000000000000 ) ) ;
#240 = ORIENTED_EDGE ( 'NONE', *, *, #126, .F. ) ;
#241 = SURFACE_SIDE_STYLE ('',( #33 ) ) ;
#242 = DIRECTION ( 'NONE',  ( -0.9945218953682734009, 0.000000000000000000, 0.1045284632676537068 ) ) ;
#243 = ORIENTED_EDGE ( 'NONE', *, *, #199, .T. ) ;
#244 = AXIS2_PLACEMENT_3D ( 'NONE', #18, #629, #589 ) ;
#245 = VECTOR ( 'NONE', #508, 1000.000000000000114 ) ;
#246 = LINE ( 'NONE', #348, #532 ) ;
#247 = EDGE_CURVE ( 'NONE', #78, #631, #595, .T. ) ;
#248 = EDGE_LOOP ( 'NONE', ( #667, #509, #85, #649 ) ) ;
#249 = ORIENTED_EDGE ( 'NONE', *, *, #407, .F. ) ;
#250 = ORIENTED_EDGE ( 'NONE', *, *, #590, .T. ) ;
#251 = VECTOR ( 'NONE', #189, 1000.000000000000227 ) ;
#252 = AXIS2_PLACEMENT_3D ( 'NONE', #650, #291, #149 ) ;
#253 = ORIENTED_EDGE ( 'NONE', *, *, #143, .T. ) ;
#254 = CARTESIAN_POINT ( 'NONE',  ( 45.88631746614880313, 66.46816670651790560, 2.500000000000000000 ) ) ;
#255 = PRODUCT ( 'gasket_top_cover', 'gasket_top_cover', '', ( #598 ) ) ;
#256 = ADVANCED_FACE ( 'NONE', ( #23 ), #543, .T. ) ;
#257 = LINE ( 'NONE', #211, #446 ) ;
#258 = VERTEX_POINT ( 'NONE', #483 ) ;
#259 = LINE ( 'NONE', #6, #421 ) ;
#260 = VECTOR ( 'NONE', #179, 1000.000000000000227 ) ;
#261 = VERTEX_POINT ( 'NONE', #640 ) ;
#262 = DIRECTION ( 'NONE',  ( -0.07723743956571985092, 0.1042162082183836352, -0.9915509870268468529 ) ) ;
#263 = FACE_OUTER_BOUND ( 'NONE', #7, .T. ) ;
#264 = CARTESIAN_POINT ( 'NONE',  ( 45.88631746614880313, 3.132965802329193750, 2.500000000000000000 ) ) ;
#265 = LINE ( 'NONE', #278, #408 ) ;
#266 = EDGE_CURVE ( 'NONE', #78, #343, #431, .T. ) ;
#267 = PRESENTATION_LAYER_ASSIGNMENT (  '', '', ( #136 ) ) ;
#268 = CARTESIAN_POINT ( 'NONE',  ( 13.26250413604848255, 28.96927849710496616, 0.000000000000000000 ) ) ;
#269 = EDGE_LOOP ( 'NONE', ( #240, #383, #340, #301 ) ) ;
#270 = VECTOR ( 'NONE', #511, 1000.000000000000000 ) ;
#271 = DIRECTION ( 'NONE',  ( 0.02967626236838652801, -0.9995595627334283861, 0.000000000000000000 ) ) ;
#272 = CARTESIAN_POINT ( 'NONE',  ( 14.86971232810076948, 2.870205214164995411, 0.000000000000000000 ) ) ;
#273 = VERTEX_POINT ( 'NONE', #491 ) ;
#274 = FACE_OUTER_BOUND ( 'NONE', #358, .T. ) ;
#275 = CARTESIAN_POINT ( 'NONE',  ( 46.14907805431299437, 66.73092729468210393, 0.000000000000000000 ) ) ;
#276 = EDGE_CURVE ( 'NONE', #343, #608, #476, .T. ) ;
#277 = ORIENTED_EDGE ( 'NONE', *, *, #466, .T. ) ;
#278 = CARTESIAN_POINT ( 'NONE',  ( 14.63615997070125552, 34.80056625442355767, 0.000000000000000000 ) ) ;
#279 = CARTESIAN_POINT ( 'NONE',  ( 13.24188910338508940, 40.62683056177129970, -0.1974709220957866496 ) ) ;
#280 = VECTOR ( 'NONE', #129, 1000.000000000000114 ) ;
#281 = ORIENTED_EDGE ( 'NONE', *, *, #72, .F. ) ;
#282 = VECTOR ( 'NONE', #413, 1000.000000000000000 ) ;
#283 = DIRECTION ( 'NONE',  ( 1.000000000000000000, 2.079713857324681256E-16, -0.000000000000000000 ) ) ;
#284 = APPLICATION_CONTEXT ( 'automotive_design' ) ;
#285 = DIRECTION ( 'NONE',  ( -0.02967626236838654882, -0.9995595627334283861, -0.000000000000000000 ) ) ;
#286 = ORIENTED_EDGE ( 'NONE', *, *, #600, .F. ) ;
#287 = EDGE_CURVE ( 'NONE', #56, #261, #578, .T. ) ;
#288 = CARTESIAN_POINT ( 'NONE',  ( 14.44029607569631679, 28.68227536781142106, 0.1351955381557485569 ) ) ;
#289 =( LENGTH_UNIT ( ) NAMED_UNIT ( * ) SI_UNIT ( .MILLI., .METRE. ) );
#290 = EDGE_CURVE ( 'NONE', #411, #523, #373, .T. ) ;
#291 = DIRECTION ( 'NONE',  ( -4.412418063381771141E-16, 0.9945218953682734009, 0.1045284632676537068 ) ) ;
#292 = ORIENTED_EDGE ( 'NONE', *, *, #665, .T. ) ;
#293 = AXIS2_PLACEMENT_3D ( 'NONE', #493, #139, #550 ) ;
#294 = CARTESIAN_POINT ( 'NONE',  ( 10.66893267680490887, 48.79174080797342583, 0.000000000000000000 ) ) ;
#295 = UNCERTAINTY_MEASURE_WITH_UNIT (LENGTH_MEASURE( 1.000000000000000082E-05 ), #289, 'distance_accuracy_value', 'NONE');
#296 = LINE ( 'NONE', #288, #339 ) ;
#297 = DIRECTION ( 'NONE',  ( 0.1045740182106055655, 0.000000000000000000, -0.9945171062959590191 ) ) ;
#298 = EDGE_CURVE ( 'NONE', #608, #201, #385, .T. ) ;
#299 = ORIENTED_EDGE ( 'NONE', *, *, #354, .F. ) ;
#300 = EDGE_CURVE ( 'NONE', #32, #24, #630, .T. ) ;
#301 = ORIENTED_EDGE ( 'NONE', *, *, #354, .T. ) ;
#302 = STYLED_ITEM ( 'NONE', ( #447 ), #435 ) ;
#303 = DIRECTION ( 'NONE',  ( -1.000000000000000000, -4.436722895625987172E-16, -0.000000000000000000 ) ) ;
#304 = DIRECTION ( 'NONE',  ( 0.9945218953682734009, 0.000000000000000000, 0.1045284632676537068 ) ) ;
#305 = CARTESIAN_POINT ( 'NONE',  ( 14.21762080346911894, 28.79273992631670254, 2.500000000000000000 ) ) ;
#306 = ORIENTED_EDGE ( 'NONE', *, *, #290, .T. ) ;
#307 = PRODUCT_DEFINITION_SHAPE ( 'NONE', 'NONE',  #505 ) ;
#308 =( NAMED_UNIT ( * ) PLANE_ANGLE_UNIT ( ) SI_UNIT ( $, .RADIAN. ) );
#309 = ADVANCED_FACE ( 'NONE', ( #236, #370 ), #121, .T. ) ;
#310 = CARTESIAN_POINT ( 'NONE',  ( 10.66893267680490887, 48.79174080797342583, 0.000000000000000000 ) ) ;
#311 = VERTEX_POINT ( 'NONE', #183 ) ;
#312 = PLANE ( 'NONE',  #398 ) ;
#313 = VECTOR ( 'NONE', #163, 1000.000000000000227 ) ;
#314 = VECTOR ( 'NONE', #424, 1000.000000000000114 ) ;
#315 = DIRECTION ( 'NONE',  ( -0.000000000000000000, 1.000000000000000000, -0.000000000000000000 ) ) ;
#316 = ORIENTED_EDGE ( 'NONE', *, *, #368, .T. ) ;
#317 = FACE_OUTER_BOUND ( 'NONE', #652, .T. ) ;
#318 = LINE ( 'NONE', #166, #125 ) ;
#319 = VERTEX_POINT ( 'NONE', #275 ) ;
#320 = ADVANCED_FACE ( 'NONE', ( #325 ), #479, .T. ) ;
#321 = PLANE ( 'NONE',  #210 ) ;
#322 = CARTESIAN_POINT ( 'NONE',  ( 14.45440985207132201, 40.92229637155631394, 0.000000000000000000 ) ) ;
#323 = ORIENTED_EDGE ( 'NONE', *, *, #109, .F. ) ;
#324 = DIRECTION ( 'NONE',  ( 0.4334888646037082238, -0.9011589228679854902, 0.000000000000000000 ) ) ;
#325 = FACE_OUTER_BOUND ( 'NONE', #269, .T. ) ;
#326 = ORIENTED_EDGE ( 'NONE', *, *, #638, .F. ) ;
#327 = VECTOR ( 'NONE', #567, 1000.000000000000114 ) ;
#328 = DIRECTION ( 'NONE',  ( -0.4334888646037086124, -0.9011589228679853791, 0.000000000000000000 ) ) ;
#329 = ADVANCED_FACE ( 'NONE', ( #345 ), #42, .T. ) ;
#330 = EDGE_CURVE ( 'NONE', #663, #201, #554, .T. ) ;
#331 = DIRECTION ( 'NONE',  ( -0.07723743956571986480, -0.1042162082183836908, -0.9915509870268468529 ) ) ;
#332 = ORIENTED_EDGE ( 'NONE', *, *, #186, .F. ) ;
#333 = PLANE ( 'NONE',  #444 ) ;
#334 = CARTESIAN_POINT ( 'NONE',  ( 0.000000000000000000, 0.000000000000000000, 2.500000000000000000 ) ) ;
#335 = ORIENTED_EDGE ( 'NONE', *, *, #72, .T. ) ;
#336 = CARTESIAN_POINT ( 'NONE',  ( 13.26250413604848255, 28.96927849710496616, 0.000000000000000000 ) ) ;
#337 = CARTESIAN_POINT ( 'NONE',  ( 13.26250413604848255, 28.96927849710496616, 0.000000000000000000 ) ) ;
#338 = VERTEX_POINT ( 'NONE', #34 ) ;
#339 = VECTOR ( 'NONE', #494, 1000.000000000000227 ) ;
#340 = ORIENTED_EDGE ( 'NONE', *, *, #215, .T. ) ;
#341 = ADVANCED_FACE ( 'NONE', ( #507 ), #47, .T. ) ;
#342 = DIRECTION ( 'NONE',  ( 0.1045740182106055655, 0.000000000000000000, -0.9945171062959591302 ) ) ;
#343 = VERTEX_POINT ( 'NONE', #196 ) ;
#344 =( NAMED_UNIT ( * ) PLANE_ANGLE_UNIT ( ) SI_UNIT ( $, .RADIAN. ) );
#345 = FACE_OUTER_BOUND ( 'NONE', #3, .T. ) ;
#346 = FILL_AREA_STYLE_COLOUR ( '', #193 ) ;
#347 = CARTESIAN_POINT ( 'NONE',  ( 44.94907805431299153, 65.53092729468210109, 0.000000000000000000 ) ) ;
#348 = CARTESIAN_POINT ( 'NONE',  ( 13.52514899465746190, 40.63965176389657330, 2.500000000000000000 ) ) ;
#349 = ORIENTED_EDGE ( 'NONE', *, *, #300, .T. ) ;
#350 = DIRECTION ( 'NONE',  ( 0.1045284632676537068, 0.000000000000000000, 0.9945218953682734009 ) ) ;
#351 = CARTESIAN_POINT ( 'NONE',  ( 10.66893267680490531, 20.80939170087368595, 0.000000000000000000 ) ) ;
#352 = CARTESIAN_POINT ( 'NONE',  ( 10.41753807333357429, 20.73294642608259863, 2.500000000000000000 ) ) ;
#353 = ORIENTED_EDGE ( 'NONE', *, *, #395, .T. ) ;
#354 = EDGE_CURVE ( 'NONE', #616, #425, #559, .T. ) ;
#355 =( LENGTH_UNIT ( ) NAMED_UNIT ( * ) SI_UNIT ( .MILLI., .METRE. ) );
#356 = VECTOR ( 'NONE', #115, 1000.000000000000227 ) ;
#357 = CARTESIAN_POINT ( 'NONE',  ( 14.45440985207132201, 28.67883613729080139, 0.000000000000000000 ) ) ;
#358 = EDGE_LOOP ( 'NONE', ( #277, #551, #537, #209 ) ) ;
#359 = DIRECTION ( 'NONE',  ( 0.1045740182106055516, 0.000000000000000000, 0.9945171062959590191 ) ) ;
#360 = PLANE ( 'NONE',  #502 ) ;
#361 = ORIENTED_EDGE ( 'NONE', *, *, #375, .T. ) ;
#362 = LINE ( 'NONE', #216, #282 ) ;
#363 = ORIENTED_EDGE ( 'NONE', *, *, #45, .F. ) ;
#364 = DIRECTION ( 'NONE',  ( -0.2909312820662348642, -0.9567439517003997196, 0.000000000000000000 ) ) ;
#365 = VECTOR ( 'NONE', #271, 1000.000000000000114 ) ;
#366 = VECTOR ( 'NONE', #331, 1000.000000000000114 ) ;
#367 = DIRECTION ( 'NONE',  ( -0.4334888646037086124, -0.9011589228679853791, 0.000000000000000000 ) ) ;
#368 = EDGE_CURVE ( 'NONE', #81, #148, #246, .T. ) ;
#369 = VERTEX_POINT ( 'NONE', #654 ) ;
#370 = FACE_BOUND ( 'NONE', #140, .T. ) ;
#371 = ORIENTED_EDGE ( 'NONE', *, *, #45, .T. ) ;
#372 = CARTESIAN_POINT ( 'NONE',  ( 9.384714531282769556, 48.69320226928962825, 0.000000000000000000 ) ) ;
#373 = LINE ( 'NONE', #223, #94 ) ;
#374 = VERTEX_POINT ( 'NONE', #404 ) ;
#375 = EDGE_CURVE ( 'NONE', #534, #568, #457, .T. ) ;
#376 = CARTESIAN_POINT ( 'NONE',  ( 44.94907805431299153, 65.79368788284628522, 2.500000000000000000 ) ) ;
#377 = EDGE_CURVE ( 'NONE', #229, #258, #452, .T. ) ;
#378 = CARTESIAN_POINT ( 'NONE',  ( 44.94907805431299153, 65.53092729468210109, 0.000000000000000000 ) ) ;
#379 = ORIENTED_EDGE ( 'NONE', *, *, #276, .T. ) ;
#380 = VECTOR ( 'NONE', #80, 1000.000000000000114 ) ;
#381 = FACE_BOUND ( 'NONE', #119, .T. ) ;
#382 = DIRECTION ( 'NONE',  ( 0.000000000000000000, 0.9945218953682734009, 0.1045284632676537068 ) ) ;
#383 = ORIENTED_EDGE ( 'NONE', *, *, #375, .F. ) ;
#384 = CARTESIAN_POINT ( 'NONE',  ( 44.94907805431299153, 65.53092729468210109, 0.000000000000000000 ) ) ;
#385 = LINE ( 'NONE', #322, #260 ) ;
#386 = EDGE_LOOP ( 'NONE', ( #29, #160, #59, #138 ) ) ;
#387 = CARTESIAN_POINT ( 'NONE',  ( 14.45440985207132201, 40.92229637155631394, 0.000000000000000000 ) ) ;
#388 = EDGE_CURVE ( 'NONE', #162, #78, #150, .T. ) ;
#389 = ORIENTED_EDGE ( 'NONE', *, *, #298, .T. ) ;
#390 = FACE_OUTER_BOUND ( 'NONE', #601, .T. ) ;
#391 = ORIENTED_EDGE ( 'NONE', *, *, #276, .F. ) ;
#392 =( NAMED_UNIT ( * ) PLANE_ANGLE_UNIT ( ) SI_UNIT ( $, .RADIAN. ) );
#393 = CARTESIAN_POINT ( 'NONE',  ( 13.43373794294286938, 34.80056625442355767, -0.01800532854295216686 ) ) ;
#394 = ORIENTED_EDGE ( 'NONE', *, *, #665, .F. ) ;
#395 = EDGE_CURVE ( 'NONE', #425, #24, #499, .T. ) ;
#396 = ADVANCED_FACE ( 'NONE', ( #390 ), #38, .T. ) ;
#397 = DIRECTION ( 'NONE',  ( 0.4334888646037082238, -0.9011589228679856012, 0.000000000000000000 ) ) ;
#398 = AXIS2_PLACEMENT_3D ( 'NONE', #622, #61, #114 ) ;
#399 = SURFACE_STYLE_USAGE ( .BOTH. , #552 ) ;
#400 = VECTOR ( 'NONE', #28, 1000.000000000000114 ) ;
#401 = ADVANCED_FACE ( 'NONE', ( #147 ), #504, .T. ) ;
#402 = CARTESIAN_POINT ( 'NONE',  ( 9.665916127323203710, 20.88635353590631993, 2.500000000000000000 ) ) ;
#403 = ORIENTED_EDGE ( 'NONE', *, *, #562, .F. ) ;
#404 = CARTESIAN_POINT ( 'NONE',  ( 13.52349234186383597, 28.90568115936116200, 2.500000000000000000 ) ) ;
#405 = CARTESIAN_POINT ( 'NONE',  ( 9.621503579884970847, 48.80710605831552584, 2.500000000000000000 ) ) ;
#406 = DIRECTION ( 'NONE',  ( 0.2909312820662345866, 0.9567439517003997196, 0.000000000000000000 ) ) ;
#407 = EDGE_CURVE ( 'NONE', #561, #534, #658, .T. ) ;
#408 = VECTOR ( 'NONE', #535, 1000.000000000000227 ) ;
#409 = VECTOR ( 'NONE', #367, 1000.000000000000000 ) ;
#410 = DIRECTION ( 'NONE',  ( 0.8962222799987005217, -0.4311141672467211361, 0.1045284632676537068 ) ) ;
#411 = VERTEX_POINT ( 'NONE', #402 ) ;
#412 = DIRECTION ( 'NONE',  ( 0.000000000000000000, -0.1045284632676537068, -0.9945218953682734009 ) ) ;
#413 = DIRECTION ( 'NONE',  ( 1.000000000000000000, 2.079713857324681502E-16, 0.000000000000000000 ) ) ;
#414 = EDGE_CURVE ( 'NONE', #311, #229, #610, .T. ) ;
#415 = FACE_OUTER_BOUND ( 'NONE', #386, .T. ) ;
#416 = ADVANCED_FACE ( 'NONE', ( #612 ), #99, .T. ) ;
#417 = CARTESIAN_POINT ( 'NONE',  ( 13.26250413604848255, 40.63185401174214206, 0.000000000000000000 ) ) ;
#418 = ORIENTED_EDGE ( 'NONE', *, *, #20, .F. ) ;
#419 = CARTESIAN_POINT ( 'NONE',  ( 13.43563121309681385, 34.80056625442355767, 0.000000000000000000 ) ) ;
#420 = VECTOR ( 'NONE', #30, 1000.000000000000114 ) ;
#421 = VECTOR ( 'NONE', #623, 1000.000000000000114 ) ;
#422 = LINE ( 'NONE', #461, #71 ) ;
#423 = CARTESIAN_POINT ( 'NONE',  ( 14.19176499346234266, 40.91449861940187560, 2.500000000000000000 ) ) ;
#424 = DIRECTION ( 'NONE',  ( 0.4334888646037084459, -0.9011589228679854902, 0.000000000000000000 ) ) ;
#425 = VERTEX_POINT ( 'NONE', #88 ) ;
#426 = CARTESIAN_POINT ( 'NONE',  ( 9.636109134754097028, 20.98437551434856729, 2.500000000000000000 ) ) ;
#427 = CARTESIAN_POINT ( 'NONE',  ( 14.86971232810076948, 66.73092729468208972, 0.000000000000000000 ) ) ;
#428 = ORIENTED_EDGE ( 'NONE', *, *, #638, .T. ) ;
#429 = EDGE_CURVE ( 'NONE', #148, #526, #651, .T. ) ;
#430 = CARTESIAN_POINT ( 'NONE',  ( 14.37328360198778121, 34.80056625442355767, 2.500000000000000000 ) ) ;
#431 = LINE ( 'NONE', #187, #15 ) ;
#432 = AXIS2_PLACEMENT_3D ( 'NONE', #471, #572, #412 ) ;
#433 = ORIENTED_EDGE ( 'NONE', *, *, #164, .T. ) ;
#434 = CARTESIAN_POINT ( 'NONE',  ( 14.86971232810076948, 3.132965802329187088, 2.500000000000000000 ) ) ;
#435 = MANIFOLD_SOLID_BREP ( 'Boss-Extrude1', #443 ) ;
#436 = DIRECTION ( 'NONE',  ( 1.000000000000000000, 0.000000000000000000, 0.000000000000000000 ) ) ;
#437 = ORIENTED_EDGE ( 'NONE', *, *, #173, .T. ) ;
#438 = CARTESIAN_POINT ( 'NONE',  ( 13.43563121309681385, 34.80056625442355767, 0.000000000000000000 ) ) ;
#439 = ADVANCED_FACE ( 'NONE', ( #620 ), #614, .T. ) ;
#440 = LINE ( 'NONE', #68, #599 ) ;
#441 = ORIENTED_EDGE ( 'NONE', *, *, #49, .T. ) ;
#442 = CARTESIAN_POINT ( 'NONE',  ( 44.94907805431299153, 4.070205214165001806, 0.000000000000000000 ) ) ;
#443 = CLOSED_SHELL ( 'NONE', ( #309, #549, #635, #553, #460, #233, #480, #439, #496, #341, #500, #93, #320, #401, #416, #142, #396, #256, #329, #168 ) ) ;
#444 = AXIS2_PLACEMENT_3D ( 'NONE', #26, #222, #542 ) ;
#445 = ORIENTED_EDGE ( 'NONE', *, *, #63, .F. ) ;
#446 = VECTOR ( 'NONE', #516, 1000.000000000000227 ) ;
#447 = PRESENTATION_STYLE_ASSIGNMENT (( #558 ) ) ;
#448 = CARTESIAN_POINT ( 'NONE',  ( 15.50767005344036065, 65.60737256947318485, 2.500000000000000000 ) ) ;
#449 = ORIENTED_EDGE ( 'NONE', *, *, #43, .F. ) ;
#450 = DIRECTION ( 'NONE',  ( -1.000000000000000000, -4.436722895625987172E-16, 0.000000000000000000 ) ) ;
#451 = ORIENTED_EDGE ( 'NONE', *, *, #300, .F. ) ;
#452 = LINE ( 'NONE', #101, #4 ) ;
#453 = VERTEX_POINT ( 'NONE', #217 ) ;
#454 = VECTOR ( 'NONE', #364, 1000.000000000000227 ) ;
#455 = LINE ( 'NONE', #548, #57 ) ;
#456 = VECTOR ( 'NONE', #297, 1000.000000000000114 ) ;
#457 = LINE ( 'NONE', #200, #513 ) ;
#458 = ORIENTED_EDGE ( 'NONE', *, *, #247, .T. ) ;
#459 = PLANE ( 'NONE',  #234 ) ;
#460 = ADVANCED_FACE ( 'NONE', ( #415 ), #459, .T. ) ;
#461 = CARTESIAN_POINT ( 'NONE',  ( 46.14907805431299437, 66.46816670651791981, 2.500000000000000000 ) ) ;
#462 = ORIENTED_EDGE ( 'NONE', *, *, #657, .F. ) ;
#463 = LINE ( 'NONE', #417, #648 ) ;
#464 = VECTOR ( 'NONE', #607, 1000.000000000000000 ) ;
#465 = CARTESIAN_POINT ( 'NONE',  ( 14.86971232810076948, 66.73092729468208972, 0.000000000000000000 ) ) ;
#466 = EDGE_CURVE ( 'NONE', #258, #273, #515, .T. ) ;
#467 = ORIENTED_EDGE ( 'NONE', *, *, #580, .T. ) ;
#468 = EDGE_CURVE ( 'NONE', #205, #258, #668, .T. ) ;
#469 = CARTESIAN_POINT ( 'NONE',  ( 15.06445127893706371, 3.132965802329187088, 2.500000000000000000 ) ) ;
#470 = ORIENTED_EDGE ( 'NONE', *, *, #186, .T. ) ;
#471 = CARTESIAN_POINT ( 'NONE',  ( 14.86971232810076948, 2.870205214164995411, 0.000000000000000000 ) ) ;
#472 = CARTESIAN_POINT ( 'NONE',  ( 13.69850758181028816, 34.80056625442355767, 2.500000000000000000 ) ) ;
#473 = PLANE ( 'NONE',  #110 ) ;
#474 = EDGE_CURVE ( 'NONE', #374, #214, #156, .T. ) ;
#475 = VECTOR ( 'NONE', #497, 1000.000000000000114 ) ;
#476 = LINE ( 'NONE', #127, #103 ) ;
#477 = ORIENTED_EDGE ( 'NONE', *, *, #266, .F. ) ;
#478 = CARTESIAN_POINT ( 'NONE',  ( 15.75906465691169167, 65.53092729468210109, 0.000000000000000000 ) ) ;
#479 = PLANE ( 'NONE',  #146 ) ;
#480 = ADVANCED_FACE ( 'NONE', ( #566 ), #312, .T. ) ;
#481 = ORIENTED_EDGE ( 'NONE', *, *, #109, .T. ) ;
#482 = DIRECTION ( 'NONE',  ( -1.000000000000000000, 0.000000000000000000, 0.000000000000000000 ) ) ;
#483 = CARTESIAN_POINT ( 'NONE',  ( 9.384714531282769556, 48.69320226928962825, 0.000000000000000000 ) ) ;
#484 = ORIENTED_EDGE ( 'NONE', *, *, #569, .F. ) ;
#485 = CARTESIAN_POINT ( 'NONE',  ( 9.384714531282766004, 20.90793023955747998, 0.000000000000000000 ) ) ;
#486 = VECTOR ( 'NONE', #14, 1000.000000000000227 ) ;
#487 = CARTESIAN_POINT ( 'NONE',  ( 10.66893267680490887, 48.79174080797342583, 5.213730195234551330E-17 ) ) ;
#488 = VECTOR ( 'NONE', #397, 1000.000000000000114 ) ;
#489 = EDGE_LOOP ( 'NONE', ( #577, #520, #286, #306 ) ) ;
#490 = DIRECTION ( 'NONE',  ( -0.9940838708631317688, -0.02951369269805398030, 0.1045284632676537068 ) ) ;
#491 = CARTESIAN_POINT ( 'NONE',  ( 13.26250413604848255, 40.63185401174214206, 0.000000000000000000 ) ) ;
#492 = ORIENTED_EDGE ( 'NONE', *, *, #414, .F. ) ;
#493 = CARTESIAN_POINT ( 'NONE',  ( 44.94907805431299153, 65.53092729468210109, 0.000000000000000000 ) ) ;
#494 = DIRECTION ( 'NONE',  ( 0.1037978024193864923, -0.02529334180794677589, -0.9942767537628003360 ) ) ;
#495 =( NAMED_UNIT ( * ) SI_UNIT ( $, .STERADIAN. ) SOLID_ANGLE_UNIT ( ) );
#496 = ADVANCED_FACE ( 'NONE', ( #317 ), #524, .T. ) ;
#497 = DIRECTION ( 'NONE',  ( -0.1039620511844979306, 0.1039620511844979306, -0.9891328443778538704 ) ) ;
#498 = VECTOR ( 'NONE', #538, 1000.000000000000114 ) ;
#499 = LINE ( 'NONE', #194, #464 ) ;
#500 = ADVANCED_FACE ( 'NONE', ( #263 ), #11, .T. ) ;
#501 = EDGE_LOOP ( 'NONE', ( #191, #391, #628, #541 ) ) ;
#502 = AXIS2_PLACEMENT_3D ( 'NONE', #666, #525, #406 ) ;
#503 = PRESENTATION_STYLE_ASSIGNMENT (( #399 ) ) ;
#504 = PLANE ( 'NONE',  #617 ) ;
#505 = PRODUCT_DEFINITION ( 'General', '', #169, #225 ) ;
#506 = ORIENTED_EDGE ( 'NONE', *, *, #173, .F. ) ;
#507 = FACE_OUTER_BOUND ( 'NONE', #184, .T. ) ;
#508 = DIRECTION ( 'NONE',  ( -0.2909312820662345866, -0.9567439517003997196, 0.000000000000000000 ) ) ;
#509 = ORIENTED_EDGE ( 'NONE', *, *, #590, .F. ) ;
#510 = DIRECTION ( 'NONE',  ( 0.02967626236838656964, -0.9995595627334283861, 0.000000000000000000 ) ) ;
#511 = DIRECTION ( 'NONE',  ( 0.1117716624847546608, -0.008576281472045576074, -0.9936969069396897059 ) ) ;
#512 = AXIS2_PLACEMENT_3D ( 'NONE', #556, #46, #141 ) ;
#513 = VECTOR ( 'NONE', #560, 1000.000000000000114 ) ;
#514 = EDGE_CURVE ( 'NONE', #201, #95, #265, .T. ) ;
#515 = LINE ( 'NONE', #664, #609 ) ;
#516 = DIRECTION ( 'NONE',  ( -0.4334888646037085569, -0.9011589228679853791, -0.000000000000000000 ) ) ;
#517 = DIRECTION ( 'NONE',  ( 1.000000000000000000, 0.000000000000000000, 0.000000000000000000 ) ) ;
#518 = CARTESIAN_POINT ( 'NONE',  ( 14.86971232810076948, 66.73092729468208972, 0.000000000000000000 ) ) ;
#519 = LINE ( 'NONE', #465, #52 ) ;
#520 = ORIENTED_EDGE ( 'NONE', *, *, #287, .F. ) ;
#521 = AXIS2_PLACEMENT_3D ( 'NONE', #294, #602, #662 ) ;
#522 = CARTESIAN_POINT ( 'NONE',  ( 45.88631746614880313, 2.870205214165002072, 2.500000000000000000 ) ) ;
#523 = VERTEX_POINT ( 'NONE', #485 ) ;
#524 = PLANE ( 'NONE',  #636 ) ;
#525 = DIRECTION ( 'NONE',  ( 0.9515028082272134480, -0.2893375300624334567, 0.1045284632676536790 ) ) ;
#526 = VERTEX_POINT ( 'NONE', #438 ) ;
#527 = CARTESIAN_POINT ( 'NONE',  ( 13.43563121309681385, 34.80056625442355767, 0.000000000000000000 ) ) ;
#528 = DIRECTION ( 'NONE',  ( 0.4334888646037084459, -0.9011589228679854902, 0.000000000000000000 ) ) ;
#529 = ORIENTED_EDGE ( 'NONE', *, *, #466, .F. ) ;
#530 = LINE ( 'NONE', #376, #180 ) ;
#531 = EDGE_CURVE ( 'NONE', #24, #453, #67, .T. ) ;
#532 = VECTOR ( 'NONE', #510, 1000.000000000000227 ) ;
#533 = CARTESIAN_POINT ( 'NONE',  ( 13.69827607170579320, 34.79276850226912643, 2.500000000000000000 ) ) ;
#534 = VERTEX_POINT ( 'NONE', #22 ) ;
#535 = DIRECTION ( 'NONE',  ( -0.02967626236838652801, -0.9995595627334283861, 0.000000000000000000 ) ) ;
#536 = DIRECTION ( 'NONE',  ( 1.000000000000000000, -0.000000000000000000, 0.000000000000000000 ) ) ;
#537 = ORIENTED_EDGE ( 'NONE', *, *, #2, .F. ) ;
#538 = DIRECTION ( 'NONE',  ( -0.02967626236838654882, -0.9995595627334283861, 0.000000000000000000 ) ) ;
#539 = PLANE ( 'NONE',  #660 ) ;
#540 = EDGE_CURVE ( 'NONE', #523, #261, #132, .T. ) ;
#541 = ORIENTED_EDGE ( 'NONE', *, *, #330, .T. ) ;
#542 = DIRECTION ( 'NONE',  ( 1.000000000000000000, 0.000000000000000000, 0.000000000000000000 ) ) ;
#543 = PLANE ( 'NONE',  #544 ) ;
#544 = AXIS2_PLACEMENT_3D ( 'NONE', #130, #633, #16 ) ;
#545 = ORIENTED_EDGE ( 'NONE', *, *, #429, .F. ) ;
#546 = APPLICATION_PROTOCOL_DEFINITION ( 'draft international standard', 'automotive_design', 1998, #54 ) ;
#547 = ORIENTED_EDGE ( 'NONE', *, *, #377, .F. ) ;
#548 = CARTESIAN_POINT ( 'NONE',  ( 46.14907805431299437, 66.73092729468210393, 0.000000000000000000 ) ) ;
#549 = ADVANCED_FACE ( 'NONE', ( #70, #381 ), #333, .F. ) ;
#550 = DIRECTION ( 'NONE',  ( 0.000000000000000000, -0.1045284632676537068, -0.9945218953682734009 ) ) ;
#551 = ORIENTED_EDGE ( 'NONE', *, *, #213, .F. ) ;
#552 = SURFACE_SIDE_STYLE ('',( #41 ) ) ;
#553 = ADVANCED_FACE ( 'NONE', ( #227 ), #473, .T. ) ;
#554 = LINE ( 'NONE', #190, #456 ) ;
#555 = ORIENTED_EDGE ( 'NONE', *, *, #468, .T. ) ;
#556 = CARTESIAN_POINT ( 'NONE',  ( 0.000000000000000000, 0.000000000000000000, 0.000000000000000000 ) ) ;
#557 = ORIENTED_EDGE ( 'NONE', *, *, #407, .T. ) ;
#558 = SURFACE_STYLE_USAGE ( .BOTH. , #241 ) ;
#559 = LINE ( 'NONE', #442, #475 ) ;
#560 = DIRECTION ( 'NONE',  ( 0.07723743956571987868, 0.1042162082183836491, -0.9915509870268468529 ) ) ;
#561 = VERTEX_POINT ( 'NONE', #230 ) ;
#562 = EDGE_CURVE ( 'NONE', #526, #214, #632, .T. ) ;
#563 = DIRECTION ( 'NONE',  ( -0.2909312820662349197, -0.9567439517003997196, -0.000000000000000000 ) ) ;
#564 = CARTESIAN_POINT ( 'NONE',  ( 14.45440985207132201, 28.67883613729080139, 0.000000000000000000 ) ) ;
#565 = VECTOR ( 'NONE', #563, 1000.000000000000114 ) ;
#566 = FACE_OUTER_BOUND ( 'NONE', #489, .T. ) ;
#567 = DIRECTION ( 'NONE',  ( 0.1039620511844979306, 0.1039620511844979722, -0.9891328443778538704 ) ) ;
#568 = VERTEX_POINT ( 'NONE', #594 ) ;
#569 = EDGE_CURVE ( 'NONE', #343, #663, #637, .T. ) ;
#570 = PLANE ( 'NONE',  #626 ) ;
#571 = ORIENTED_EDGE ( 'NONE', *, *, #596, .F. ) ;
#572 = DIRECTION ( 'NONE',  ( 2.068320967210205068E-16, -0.9945218953682734009, 0.1045284632676537068 ) ) ;
#573 = CARTESIAN_POINT ( 'NONE',  ( 10.66893267680490531, 20.80939170087368595, 0.000000000000000000 ) ) ;
#574 = ORIENTED_EDGE ( 'NONE', *, *, #43, .T. ) ;
#575 = CARTESIAN_POINT ( 'NONE',  ( 13.24905998058747159, 28.97255455508951272, -0.1287812548752090003 ) ) ;
#576 = LINE ( 'NONE', #108, #171 ) ;
#577 = ORIENTED_EDGE ( 'NONE', *, *, #540, .T. ) ;
#578 = LINE ( 'NONE', #272, #366 ) ;
#579 = ORIENTED_EDGE ( 'NONE', *, *, #213, .T. ) ;
#580 = EDGE_CURVE ( 'NONE', #214, #523, #182, .T. ) ;
#581 = CARTESIAN_POINT ( 'NONE',  ( 10.66893267680490887, 48.79174080797342583, 0.000000000000000000 ) ) ;
#582 = LINE ( 'NONE', #19, #113 ) ;
#583 = ORIENTED_EDGE ( 'NONE', *, *, #224, .F. ) ;
#584 = MECHANICAL_DESIGN_GEOMETRIC_PRESENTATION_REPRESENTATION (  '', ( #136 ), #50 ) ;
#585 = LINE ( 'NONE', #124, #192 ) ;
#586 = PRESENTATION_LAYER_ASSIGNMENT (  '', '', ( #302 ) ) ;
#587 = CARTESIAN_POINT ( 'NONE',  ( 15.75906465691169167, 4.070205214165001806, 0.000000000000000000 ) ) ;
#588 = ORIENTED_EDGE ( 'NONE', *, *, #395, .F. ) ;
#589 = DIRECTION ( 'NONE',  ( -0.2909312820662349197, -0.9567439517003997196, 0.000000000000000000 ) ) ;
#590 = EDGE_CURVE ( 'NONE', #100, #369, #175, .T. ) ;
#591 = EDGE_CURVE ( 'NONE', #56, #100, #79, .T. ) ;
#592 = LINE ( 'NONE', #279, #380 ) ;
#593 = ORIENTED_EDGE ( 'NONE', *, *, #474, .T. ) ;
#594 = CARTESIAN_POINT ( 'NONE',  ( 15.75906465691169167, 4.070205214165001806, 0.000000000000000000 ) ) ;
#595 = LINE ( 'NONE', #487, #137 ) ;
#596 = EDGE_CURVE ( 'NONE', #162, #453, #642, .T. ) ;
#597 = ORIENTED_EDGE ( 'NONE', *, *, #91, .T. ) ;
#598 = PRODUCT_CONTEXT ( 'NONE', #284, 'mechanical' ) ;
#599 = VECTOR ( 'NONE', #239, 1000.000000000000000 ) ;
#600 = EDGE_CURVE ( 'NONE', #411, #56, #238, .T. ) ;
#601 = EDGE_LOOP ( 'NONE', ( #332, #232, #641, #379 ) ) ;
#602 = DIRECTION ( 'NONE',  ( 0.8962222799987005217, 0.4311141672467209696, 0.1045284632676537068 ) ) ;
#603 = ORIENTED_EDGE ( 'NONE', *, *, #596, .T. ) ;
#604 = DIRECTION ( 'NONE',  ( -0.1045740182106055655, 0.000000000000000000, -0.9945171062959591302 ) ) ;
#605 = ORIENTED_EDGE ( 'NONE', *, *, #134, .F. ) ;
#606 = FILL_AREA_STYLE ('',( #661 ) ) ;
#607 = DIRECTION ( 'NONE',  ( 0.000000000000000000, 1.000000000000000000, 0.000000000000000000 ) ) ;
#608 = VERTEX_POINT ( 'NONE', #387 ) ;
#609 = VECTOR ( 'NONE', #5, 1000.000000000000114 ) ;
#610 = LINE ( 'NONE', #197, #565 ) ;
#611 = ORIENTED_EDGE ( 'NONE', *, *, #388, .T. ) ;
#612 = FACE_OUTER_BOUND ( 'NONE', #644, .T. ) ;
#613 = CARTESIAN_POINT ( 'NONE',  ( 45.21183864247718986, 65.79368788284628522, 2.500000000000000000 ) ) ;
#614 = PLANE ( 'NONE',  #432 ) ;
#615 = DIRECTION ( 'NONE',  ( 0.000000000000000000, 1.000000000000000000, 0.000000000000000000 ) ) ;
#616 = VERTEX_POINT ( 'NONE', #117 ) ;
#617 = AXIS2_PLACEMENT_3D ( 'NONE', #153, #242, #350 ) ;
#618 = CARTESIAN_POINT ( 'NONE',  ( 10.66893267680490354, 20.80939170087368595, 0.000000000000000000 ) ) ;
#619 = ORIENTED_EDGE ( 'NONE', *, *, #224, .T. ) ;
#620 = FACE_OUTER_BOUND ( 'NONE', #248, .T. ) ;
#621 = CARTESIAN_POINT ( 'NONE',  ( 10.38773108076447116, 48.77016410432226223, 2.500000000000000000 ) ) ;
#622 = CARTESIAN_POINT ( 'NONE',  ( 9.384714531282766004, 20.90793023955747998, 0.000000000000000000 ) ) ;
#623 = DIRECTION ( 'NONE',  ( -0.02967626236838652801, -0.9995595627334283861, 0.000000000000000000 ) ) ;
#624 = ORIENTED_EDGE ( 'NONE', *, *, #91, .F. ) ;
#625 = VECTOR ( 'NONE', #283, 1000.000000000000000 ) ;
#626 = AXIS2_PLACEMENT_3D ( 'NONE', #65, #106, #218 ) ;
#627 = FACE_OUTER_BOUND ( 'NONE', #89, .T. ) ;
#628 = ORIENTED_EDGE ( 'NONE', *, *, #569, .T. ) ;
#629 = DIRECTION ( 'NONE',  ( -0.9515028082272133370, 0.2893375300624337343, 0.1045284632676537206 ) ) ;
#630 = LINE ( 'NONE', #378, #400 ) ;
#631 = VERTEX_POINT ( 'NONE', #581 ) ;
#632 = LINE ( 'NONE', #527, #498 ) ;
#633 = DIRECTION ( 'NONE',  ( 0.9940838708631317688, 0.02951369269805393866, 0.1045284632676537068 ) ) ;
#634 = ORIENTED_EDGE ( 'NONE', *, *, #600, .T. ) ;
#635 = ADVANCED_FACE ( 'NONE', ( #274 ), #321, .T. ) ;
#636 = AXIS2_PLACEMENT_3D ( 'NONE', #105, #304, #64 ) ;
#637 = LINE ( 'NONE', #423, #365 ) ;
#638 = EDGE_CURVE ( 'NONE', #32, #162, #530, .T. ) ;
#639 = VECTOR ( 'NONE', #604, 999.9999999999998863 ) ;
#640 = CARTESIAN_POINT ( 'NONE',  ( 14.86971232810076948, 2.870205214164995411, 0.000000000000000000 ) ) ;
#641 = ORIENTED_EDGE ( 'NONE', *, *, #266, .T. ) ;
#642 = LINE ( 'NONE', #478, #420 ) ;
#643 = DIRECTION ( 'NONE',  ( 0.000000000000000000, -0.1045284632676537068, 0.9945218953682734009 ) ) ;
#644 = EDGE_LOOP ( 'NONE', ( #659, #451, #428, #603 ) ) ;
#645 = CARTESIAN_POINT ( 'NONE',  ( 9.384714531282766004, 20.90793023955747998, 0.000000000000000000 ) ) ;
#646 = CARTESIAN_POINT ( 'NONE',  ( 9.665916127323207263, 48.71477897294079185, 2.500000000000000000 ) ) ;
#647 = EDGE_LOOP ( 'NONE', ( #69, #316, #243, #437, #634, #655, #371, #597, #44 ) ) ;
#648 = VECTOR ( 'NONE', #62, 1000.000000000000114 ) ;
#649 = ORIENTED_EDGE ( 'NONE', *, *, #287, .T. ) ;
#650 = CARTESIAN_POINT ( 'NONE',  ( 46.14907805431299437, 66.73092729468210393, 0.000000000000000000 ) ) ;
#651 = LINE ( 'NONE', #393, #639 ) ;
#652 = EDGE_LOOP ( 'NONE', ( #619, #74, #363, #250 ) ) ;
#653 = CARTESIAN_POINT ( 'NONE',  ( 14.63615997070125552, 34.80056625442355767, 0.000000000000000000 ) ) ;
#654 = CARTESIAN_POINT ( 'NONE',  ( 46.14907805431299437, 2.870205214165002072, 0.000000000000000000 ) ) ;
#655 = ORIENTED_EDGE ( 'NONE', *, *, #591, .T. ) ;
#656 = APPLICATION_PROTOCOL_DEFINITION ( 'draft international standard', 'automotive_design', 1998, #284 ) ;
#657 = EDGE_CURVE ( 'NONE', #95, #177, #585, .T. ) ;
#658 = LINE ( 'NONE', #352, #221 ) ;
#659 = ORIENTED_EDGE ( 'NONE', *, *, #531, .F. ) ;
#660 = AXIS2_PLACEMENT_3D ( 'NONE', #268, #133, #84 ) ;
#661 = FILL_AREA_STYLE_COLOUR ( '', #202 ) ;
#662 = DIRECTION ( 'NONE',  ( -0.4334888646037084459, 0.9011589228679853791, 0.000000000000000000 ) ) ;
#663 = VERTEX_POINT ( 'NONE', #430 ) ;
#664 = CARTESIAN_POINT ( 'NONE',  ( 9.384714531282769556, 48.69320226928962825, 0.000000000000000000 ) ) ;
#665 = EDGE_CURVE ( 'NONE', #319, #205, #455, .T. ) ;
#666 = CARTESIAN_POINT ( 'NONE',  ( 15.75906465691169167, 65.53092729468210109, 0.000000000000000000 ) ) ;
#667 = ORIENTED_EDGE ( 'NONE', *, *, #63, .T. ) ;
#668 = LINE ( 'NONE', #518, #454 ) ;
ENDSEC;
END-ISO-10303-21;
