ISO-10303-21;
HEADER;
FILE_DESCRIPTION (( 'STEP AP214' ),
    '1' );
FILE_NAME ('gasket_front_cover.STEP',
    '2026-08-16T17:44:14',
    ( '' ),
    ( '' ),
    'SwSTEP 2.0',
    'SolidWorks 2025',
    '' );
FILE_SCHEMA (( 'AUTOMOTIVE_DESIGN' ));
ENDSEC;

DATA;
#1 = CARTESIAN_POINT ( 'NONE',  ( -8.500000000000015987, -8.825022672948152902, 2.000000000000000000 ) ) ;
#2 = DIRECTION ( 'NONE',  ( -0.08682659386424779191, -0.08682659386424779191, -0.9924325091389669673 ) ) ;
#3 = LINE ( 'NONE', #108, #11 ) ;
#4 = VECTOR ( 'NONE', #25, 1000.000000000000114 ) ;
#5 = DIRECTION ( 'NONE',  ( 0.08715574274765836016, 0.000000000000000000, -0.9961946980917455452 ) ) ;
#6 = LINE ( 'NONE', #155, #50 ) ;
#7 = VERTEX_POINT ( 'NONE', #337 ) ;
#8 = AXIS2_PLACEMENT_3D ( 'NONE', #191, #335, #70 ) ;
#9 = ORIENTED_EDGE ( 'NONE', *, *, #87, .F. ) ;
#10 = VERTEX_POINT ( 'NONE', #26 ) ;
#11 = VECTOR ( 'NONE', #310, 1000.000000000000000 ) ;
#12 = EDGE_LOOP ( 'NONE', ( #97, #38, #300, #62 ) ) ;
#13 = PLANE ( 'NONE',  #117 ) ;
#14 = EDGE_CURVE ( 'NONE', #149, #175, #99, .T. ) ;
#15 = ORIENTED_EDGE ( 'NONE', *, *, #240, .T. ) ;
#16 = EDGE_CURVE ( 'NONE', #123, #7, #182, .T. ) ;
#17 = ORIENTED_EDGE ( 'NONE', *, *, #240, .F. ) ;
#18 = DIRECTION ( 'NONE',  ( -0.000000000000000000, 1.000000000000000000, -0.000000000000000000 ) ) ;
#19 = ORIENTED_EDGE ( 'NONE', *, *, #85, .T. ) ;
#20 = PLANE ( 'NONE',  #314 ) ;
#21 = FACE_OUTER_BOUND ( 'NONE', #33, .T. ) ;
#22 = DIRECTION ( 'NONE',  ( 0.000000000000000000, 0.000000000000000000, 1.000000000000000000 ) ) ;
#23 = CARTESIAN_POINT ( 'NONE',  ( -7.644572307876737582, -96.85542769212327130, 7.367495191942601274 ) ) ;
#24 = FACE_OUTER_BOUND ( 'NONE', #32, .T. ) ;
#25 = DIRECTION ( 'NONE',  ( -0.08682659386424779191, 0.08682659386424779191, -0.9924325091389669673 ) ) ;
#26 = CARTESIAN_POINT ( 'NONE',  ( -61.67497732705184887, -96.17497732705186309, 2.000000000000000000 ) ) ;
#27 = APPLICATION_PROTOCOL_DEFINITION ( 'draft international standard', 'automotive_design', 1998, #150 ) ;
#28 = VECTOR ( 'NONE', #130, 1000.000000000000114 ) ;
#29 = FACE_BOUND ( 'NONE', #252, .T. ) ;
#30 = VECTOR ( 'NONE', #136, 1000.000000000000000 ) ;
#31 =( GEOMETRIC_REPRESENTATION_CONTEXT ( 3 ) GLOBAL_UNCERTAINTY_ASSIGNED_CONTEXT ( ( #246 ) ) GLOBAL_UNIT_ASSIGNED_CONTEXT ( ( #153, #334, #125 ) ) REPRESENTATION_CONTEXT ( 'NONE', 'WORKASPACE' ) );
#32 = EDGE_LOOP ( 'NONE', ( #308, #248, #230, #173 ) ) ;
#33 = EDGE_LOOP ( 'NONE', ( #266, #326, #180, #143 ) ) ;
#34 = DIRECTION ( 'NONE',  ( 0.08715574274765836016, 0.000000000000000000, 0.9961946980917455452 ) ) ;
#35 = EDGE_CURVE ( 'NONE', #226, #123, #151, .T. ) ;
#36 = VECTOR ( 'NONE', #101, 1000.000000000000000 ) ;
#37 = EDGE_LOOP ( 'NONE', ( #89, #58, #107, #19 ) ) ;
#38 = ORIENTED_EDGE ( 'NONE', *, *, #16, .F. ) ;
#39 = CARTESIAN_POINT ( 'NONE',  ( -61.50000000000000000, -9.000000000000001776, 0.000000000000000000 ) ) ;
#40 = FACE_OUTER_BOUND ( 'NONE', #275, .T. ) ;
#41 = LINE ( 'NONE', #208, #176 ) ;
#42 =( LENGTH_UNIT ( ) NAMED_UNIT ( * ) SI_UNIT ( .MILLI., .METRE. ) );
#43 = CARTESIAN_POINT ( 'NONE',  ( -7.000000000000007105, -12.00000000000004796, 0.000000000000000000 ) ) ;
#44 = FACE_BOUND ( 'NONE', #152, .T. ) ;
#45 = LINE ( 'NONE', #126, #133 ) ;
#46 = CARTESIAN_POINT ( 'NONE',  ( -61.50000000000000000, -9.000000000000001776, 0.000000000000000000 ) ) ;
#47 = DIRECTION ( 'NONE',  ( -0.08682659386424779191, -0.08682659386424781967, -0.9924325091389669673 ) ) ;
#48 = CARTESIAN_POINT ( 'NONE',  ( -61.50000000000000000, -96.00000000000001421, 0.000000000000000000 ) ) ;
#49 = PRODUCT_DEFINITION ( 'General', '', #122, #323 ) ;
#50 = VECTOR ( 'NONE', #281, 1000.000000000000000 ) ;
#51 = SURFACE_STYLE_FILL_AREA ( #243 ) ;
#52 = CARTESIAN_POINT ( 'NONE',  ( -8.500000000000015987, -9.000000000000001776, 0.000000000000000000 ) ) ;
#53 = APPLICATION_PROTOCOL_DEFINITION ( 'draft international standard', 'automotive_design', 1998, #96 ) ;
#54 = DIRECTION ( 'NONE',  ( 2.468746184890540943E-16, -0.9961946980917455452, 0.08715574274765837404 ) ) ;
#55 = PRODUCT_CONTEXT ( 'NONE', #150, 'mechanical' ) ;
#56 = PRESENTATION_LAYER_ASSIGNMENT (  '', '', ( #103 ) ) ;
#57 = UNCERTAINTY_MEASURE_WITH_UNIT (LENGTH_MEASURE( 1.000000000000000082E-05 ), #217, 'distance_accuracy_value', 'NONE');
#58 = ORIENTED_EDGE ( 'NONE', *, *, #169, .F. ) ;
#59 = ORIENTED_EDGE ( 'NONE', *, *, #249, .F. ) ;
#60 = LINE ( 'NONE', #231, #207 ) ;
#61 = EDGE_CURVE ( 'NONE', #284, #226, #219, .T. ) ;
#62 = ORIENTED_EDGE ( 'NONE', *, *, #274, .T. ) ;
#63 = CARTESIAN_POINT ( 'NONE',  ( -63.00000000000000000, -97.32502267294816534, 2.000000000000000000 ) ) ;
#64 = VECTOR ( 'NONE', #318, 1000.000000000000114 ) ;
#65 = ORIENTED_EDGE ( 'NONE', *, *, #298, .T. ) ;
#66 =( NAMED_UNIT ( * ) PLANE_ANGLE_UNIT ( ) SI_UNIT ( $, .RADIAN. ) );
#67 = LINE ( 'NONE', #23, #238 ) ;
#68 = PRESENTATION_STYLE_ASSIGNMENT (( #92 ) ) ;
#69 = CARTESIAN_POINT ( 'NONE',  ( -61.50000000000000000, -96.00000000000001421, 0.000000000000000000 ) ) ;
#70 = DIRECTION ( 'NONE',  ( 0.08715574274765836016, 0.000000000000000000, 0.9961946980917455452 ) ) ;
#71 = CARTESIAN_POINT ( 'NONE',  ( -61.67497732705184887, -8.825022672948152902, 2.000000000000000000 ) ) ;
#72 = LINE ( 'NONE', #109, #64 ) ;
#73 = PRESENTATION_LAYER_ASSIGNMENT (  '', '', ( #75 ) ) ;
#74 = VERTEX_POINT ( 'NONE', #210 ) ;
#75 = STYLED_ITEM ( 'NONE', ( #137 ), #198 ) ;
#76 = LINE ( 'NONE', #261, #163 ) ;
#77 = DIRECTION ( 'NONE',  ( 0.9961946980917455452, 0.000000000000000000, 0.08715574274765836016 ) ) ;
#78 = DIRECTION ( 'NONE',  ( 1.000000000000000000, 2.478176394252582127E-16, 0.000000000000000000 ) ) ;
#79 = DIRECTION ( 'NONE',  ( 0.000000000000000000, 1.000000000000000000, 0.000000000000000000 ) ) ;
#80 = FACE_OUTER_BOUND ( 'NONE', #288, .T. ) ;
#81 = EDGE_CURVE ( 'NONE', #140, #10, #233, .T. ) ;
#82 = CARTESIAN_POINT ( 'NONE',  ( -8.500000000000015987, -96.00000000000001421, 0.000000000000000000 ) ) ;
#83 = PLANE ( 'NONE',  #8 ) ;
#84 = DIRECTION ( 'NONE',  ( -4.628899096669765193E-17, 0.9961946980917455452, 0.08715574274765837404 ) ) ;
#85 = EDGE_CURVE ( 'NONE', #302, #74, #67, .T. ) ;
#86 = VECTOR ( 'NONE', #186, 1000.000000000000000 ) ;
#87 = EDGE_CURVE ( 'NONE', #199, #121, #6, .T. ) ;
#88 = ORIENTED_EDGE ( 'NONE', *, *, #148, .F. ) ;
#89 = ORIENTED_EDGE ( 'NONE', *, *, #148, .T. ) ;
#90 = CARTESIAN_POINT ( 'NONE',  ( -61.50000000000000000, -96.00000000000001421, 0.000000000000000000 ) ) ;
#91 = ORIENTED_EDGE ( 'NONE', *, *, #61, .T. ) ;
#92 = SURFACE_STYLE_USAGE ( .BOTH. , #327 ) ;
#93 = ORIENTED_EDGE ( 'NONE', *, *, #14, .F. ) ;
#94 = CARTESIAN_POINT ( 'NONE',  ( 0.000000000000000000, 0.000000000000000000, 0.000000000000000000 ) ) ;
#95 = CARTESIAN_POINT ( 'NONE',  ( -61.50000000000000000, -9.000000000000001776, 0.000000000000000000 ) ) ;
#96 = APPLICATION_CONTEXT ( 'automotive_design' ) ;
#97 = ORIENTED_EDGE ( 'NONE', *, *, #203, .T. ) ;
#98 = FACE_OUTER_BOUND ( 'NONE', #12, .T. ) ;
#99 = LINE ( 'NONE', #69, #86 ) ;
#100 = CARTESIAN_POINT ( 'NONE',  ( -63.00000000000000000, -92.99999999999995737, 0.000000000000000000 ) ) ;
#101 = DIRECTION ( 'NONE',  ( 0.000000000000000000, -1.000000000000000000, 0.000000000000000000 ) ) ;
#102 = LINE ( 'NONE', #259, #258 ) ;
#103 = STYLED_ITEM ( 'NONE', ( #68 ), #256 ) ;
#104 = ADVANCED_FACE ( 'NONE', ( #40, #44 ), #239, .T. ) ;
#105 = EDGE_CURVE ( 'NONE', #121, #247, #41, .T. ) ;
#106 = CARTESIAN_POINT ( 'NONE',  ( -7.000000000000007105, -7.500000000000000888, 0.000000000000000000 ) ) ;
#107 = ORIENTED_EDGE ( 'NONE', *, *, #336, .F. ) ;
#108 = CARTESIAN_POINT ( 'NONE',  ( -8.500000000000015987, -96.00000000000001421, 0.000000000000000000 ) ) ;
#109 = CARTESIAN_POINT ( 'NONE',  ( -8.500000000000015987, -96.00000000000001421, 0.000000000000000000 ) ) ;
#110 = PLANE ( 'NONE',  #145 ) ;
#111 = AXIS2_PLACEMENT_3D ( 'NONE', #332, #283, #34 ) ;
#112 = PRODUCT ( 'gasket_front_cover', 'gasket_front_cover', '', ( #55 ) ) ;
#113 = EDGE_CURVE ( 'NONE', #7, #74, #102, .T. ) ;
#114 = VECTOR ( 'NONE', #270, 1000.000000000000000 ) ;
#115 = VERTEX_POINT ( 'NONE', #212 ) ;
#116 = ORIENTED_EDGE ( 'NONE', *, *, #183, .T. ) ;
#117 = AXIS2_PLACEMENT_3D ( 'NONE', #90, #280, #303 ) ;
#118 = ORIENTED_EDGE ( 'NONE', *, *, #113, .T. ) ;
#119 = CARTESIAN_POINT ( 'NONE',  ( -7.000000000000007105, -7.500000000000000888, 0.000000000000000000 ) ) ;
#120 = ORIENTED_EDGE ( 'NONE', *, *, #321, .F. ) ;
#121 = VERTEX_POINT ( 'NONE', #189 ) ;
#122 = PRODUCT_DEFINITION_FORMATION_WITH_SPECIFIED_SOURCE ( 'Symmetric', '', #112, .NOT_KNOWN. ) ;
#123 = VERTEX_POINT ( 'NONE', #293 ) ;
#124 = DIRECTION ( 'NONE',  ( 1.000000000000000000, 0.000000000000000000, -0.000000000000000000 ) ) ;
#125 =( NAMED_UNIT ( * ) SI_UNIT ( $, .STERADIAN. ) SOLID_ANGLE_UNIT ( ) );
#126 = CARTESIAN_POINT ( 'NONE',  ( -8.500000000000015987, -9.000000000000001776, 0.000000000000000000 ) ) ;
#127 = PLANE ( 'NONE',  #269 ) ;
#128 = EDGE_CURVE ( 'NONE', #140, #115, #161, .T. ) ;
#129 = DIRECTION ( 'NONE',  ( 0.08682659386424779191, -0.08682659386424776415, -0.9924325091389669673 ) ) ;
#130 = DIRECTION ( 'NONE',  ( 0.08682659386424779191, 0.08682659386424779191, -0.9924325091389669673 ) ) ;
#131 = CARTESIAN_POINT ( 'NONE',  ( -7.174977327051855092, -7.674977327051848874, 2.000000000000000000 ) ) ;
#132 = DIRECTION ( 'NONE',  ( 1.000000000000000000, 0.000000000000000000, -0.000000000000000000 ) ) ;
#133 = VECTOR ( 'NONE', #192, 1000.000000000000000 ) ;
#134 =( NAMED_UNIT ( * ) PLANE_ANGLE_UNIT ( ) SI_UNIT ( $, .RADIAN. ) );
#135 = CARTESIAN_POINT ( 'NONE',  ( -62.35542769212326419, -8.144572307876741135, 7.367495191942603050 ) ) ;
#136 = DIRECTION ( 'NONE',  ( -1.000000000000000000, 0.000000000000000000, 0.000000000000000000 ) ) ;
#137 = PRESENTATION_STYLE_ASSIGNMENT (( #236 ) ) ;
#138 = VECTOR ( 'NONE', #263, 1000.000000000000000 ) ;
#139 = EDGE_CURVE ( 'NONE', #175, #247, #3, .T. ) ;
#140 = VERTEX_POINT ( 'NONE', #71 ) ;
#141 = EDGE_CURVE ( 'NONE', #10, #199, #296, .T. ) ;
#142 = EDGE_LOOP ( 'NONE', ( #93, #279, #312, #177 ) ) ;
#143 = ORIENTED_EDGE ( 'NONE', *, *, #105, .T. ) ;
#144 = DIRECTION ( 'NONE',  ( 0.08715574274765836016, 0.000000000000000000, -0.9961946980917455452 ) ) ;
#145 = AXIS2_PLACEMENT_3D ( 'NONE', #313, #84, #190 ) ;
#146 = ORIENTED_EDGE ( 'NONE', *, *, #128, .T. ) ;
#147 = DIRECTION ( 'NONE',  ( 0.9961946980917455452, 0.000000000000000000, 0.08715574274765836016 ) ) ;
#148 = EDGE_CURVE ( 'NONE', #74, #201, #213, .T. ) ;
#149 = VERTEX_POINT ( 'NONE', #48 ) ;
#150 = APPLICATION_CONTEXT ( 'automotive_design' ) ;
#151 = LINE ( 'NONE', #234, #287 ) ;
#152 = EDGE_LOOP ( 'NONE', ( #17, #9, #307, #172 ) ) ;
#153 =( LENGTH_UNIT ( ) NAMED_UNIT ( * ) SI_UNIT ( .MILLI., .METRE. ) );
#154 = VECTOR ( 'NONE', #286, 1000.000000000000000 ) ;
#155 = CARTESIAN_POINT ( 'NONE',  ( -8.325022672948167113, -96.00000000000001421, 2.000000000000000000 ) ) ;
#156 = DIRECTION ( 'NONE',  ( 1.000000000000000000, 2.478176394252582127E-16, -0.000000000000000000 ) ) ;
#157 = CARTESIAN_POINT ( 'NONE',  ( 0.000000000000000000, 0.000000000000000000, 0.000000000000000000 ) ) ;
#158 = ORIENTED_EDGE ( 'NONE', *, *, #105, .F. ) ;
#159 = CARTESIAN_POINT ( 'NONE',  ( -63.00000000000000000, -97.50000000000001421, 0.000000000000000000 ) ) ;
#160 = FACE_OUTER_BOUND ( 'NONE', #37, .T. ) ;
#161 = LINE ( 'NONE', #95, #232 ) ;
#162 = FACE_OUTER_BOUND ( 'NONE', #328, .T. ) ;
#163 = VECTOR ( 'NONE', #165, 1000.000000000000114 ) ;
#164 = DIRECTION ( 'NONE',  ( 1.000000000000000000, 0.000000000000000000, 0.000000000000000000 ) ) ;
#165 = DIRECTION ( 'NONE',  ( 0.08682659386424779191, 0.08682659386424779191, -0.9924325091389669673 ) ) ;
#166 = LINE ( 'NONE', #46, #114 ) ;
#167 = VECTOR ( 'NONE', #229, 1000.000000000000000 ) ;
#168 = EDGE_CURVE ( 'NONE', #10, #149, #76, .T. ) ;
#169 = EDGE_CURVE ( 'NONE', #284, #201, #221, .T. ) ;
#170 = UNCERTAINTY_MEASURE_WITH_UNIT (LENGTH_MEASURE( 1.000000000000000082E-05 ), #42, 'distance_accuracy_value', 'NONE');
#171 = AXIS2_PLACEMENT_3D ( 'NONE', #94, #289, #164 ) ;
#172 = ORIENTED_EDGE ( 'NONE', *, *, #81, .F. ) ;
#173 = ORIENTED_EDGE ( 'NONE', *, *, #169, .T. ) ;
#174 =( NAMED_UNIT ( * ) SI_UNIT ( $, .STERADIAN. ) SOLID_ANGLE_UNIT ( ) );
#175 = VERTEX_POINT ( 'NONE', #82 ) ;
#176 = VECTOR ( 'NONE', #2, 1000.000000000000114 ) ;
#177 = ORIENTED_EDGE ( 'NONE', *, *, #241, .T. ) ;
#178 = FILL_AREA_STYLE ('',( #329 ) ) ;
#179 = CARTESIAN_POINT ( 'NONE',  ( -61.67497732705184887, -9.000000000000001776, 2.000000000000000000 ) ) ;
#180 = ORIENTED_EDGE ( 'NONE', *, *, #87, .T. ) ;
#181 = FACE_OUTER_BOUND ( 'NONE', #253, .T. ) ;
#182 = LINE ( 'NONE', #235, #200 ) ;
#183 = EDGE_CURVE ( 'NONE', #247, #115, #45, .T. ) ;
#184 = LINE ( 'NONE', #63, #305 ) ;
#185 =( GEOMETRIC_REPRESENTATION_CONTEXT ( 3 ) GLOBAL_UNCERTAINTY_ASSIGNED_CONTEXT ( ( #57 ) ) GLOBAL_UNIT_ASSIGNED_CONTEXT ( ( #217, #134, #319 ) ) REPRESENTATION_CONTEXT ( 'NONE', 'WORKASPACE' ) );
#186 = DIRECTION ( 'NONE',  ( 1.000000000000000000, 0.000000000000000000, 0.000000000000000000 ) ) ;
#187 = CARTESIAN_POINT ( 'NONE',  ( -7.000000000000007105, -7.500000000000000888, 0.000000000000000000 ) ) ;
#188 = CARTESIAN_POINT ( 'NONE',  ( -8.500000000000015987, -9.000000000000001776, 0.000000000000000000 ) ) ;
#189 = CARTESIAN_POINT ( 'NONE',  ( -8.325022672948167113, -8.825022672948152902, 2.000000000000000000 ) ) ;
#190 = DIRECTION ( 'NONE',  ( 0.000000000000000000, -0.08715574274765837404, 0.9961946980917455452 ) ) ;
#191 = CARTESIAN_POINT ( 'NONE',  ( -8.500000000000015987, -96.00000000000001421, 0.000000000000000000 ) ) ;
#192 = DIRECTION ( 'NONE',  ( -1.000000000000000000, 0.000000000000000000, 0.000000000000000000 ) ) ;
#193 = PLANE ( 'NONE',  #330 ) ;
#194 = ORIENTED_EDGE ( 'NONE', *, *, #139, .T. ) ;
#195 = ADVANCED_FACE ( 'NONE', ( #24 ), #110, .T. ) ;
#196 = ADVANCED_FACE ( 'NONE', ( #162 ), #290, .T. ) ;
#197 = COLOUR_RGB ( '',0.7960784313725489669, 0.8235294117647058432, 0.9372549019607843146 ) ;
#198 = MANIFOLD_SOLID_BREP ( 'Boss-Extrude1', #322 ) ;
#199 = VERTEX_POINT ( 'NONE', #311 ) ;
#200 = VECTOR ( 'NONE', #47, 1000.000000000000114 ) ;
#201 = VERTEX_POINT ( 'NONE', #106 ) ;
#202 = ORIENTED_EDGE ( 'NONE', *, *, #336, .T. ) ;
#203 = EDGE_CURVE ( 'NONE', #257, #7, #265, .T. ) ;
#204 = ADVANCED_FACE ( 'NONE', ( #294, #29 ), #295, .F. ) ;
#205 = EDGE_LOOP ( 'NONE', ( #277, #224, #120, #88 ) ) ;
#206 = LINE ( 'NONE', #119, #167 ) ;
#207 = VECTOR ( 'NONE', #18, 1000.000000000000000 ) ;
#208 = CARTESIAN_POINT ( 'NONE',  ( -8.500000000000015987, -9.000000000000001776, 0.000000000000000000 ) ) ;
#209 = ORIENTED_EDGE ( 'NONE', *, *, #16, .T. ) ;
#210 = CARTESIAN_POINT ( 'NONE',  ( -7.000000000000006217, -97.50000000000000000, 0.000000000000000000 ) ) ;
#211 = CARTESIAN_POINT ( 'NONE',  ( -63.00000000000000000, -7.500000000000003553, 0.000000000000000000 ) ) ;
#212 = CARTESIAN_POINT ( 'NONE',  ( -61.50000000000000000, -9.000000000000001776, 0.000000000000000000 ) ) ;
#213 = LINE ( 'NONE', #43, #278 ) ;
#214 = DIRECTION ( 'NONE',  ( 0.000000000000000000, 0.000000000000000000, 1.000000000000000000 ) ) ;
#215 =( GEOMETRIC_REPRESENTATION_CONTEXT ( 3 ) GLOBAL_UNCERTAINTY_ASSIGNED_CONTEXT ( ( #170 ) ) GLOBAL_UNIT_ASSIGNED_CONTEXT ( ( #42, #66, #174 ) ) REPRESENTATION_CONTEXT ( 'NONE', 'WORKASPACE' ) );
#216 = ORIENTED_EDGE ( 'NONE', *, *, #128, .F. ) ;
#217 =( LENGTH_UNIT ( ) NAMED_UNIT ( * ) SI_UNIT ( .MILLI., .METRE. ) );
#218 = DIRECTION ( 'NONE',  ( 0.000000000000000000, -0.9961946980917455452, 0.08715574274765836016 ) ) ;
#219 = LINE ( 'NONE', #316, #138 ) ;
#220 = ADVANCED_FACE ( 'NONE', ( #80 ), #127, .T. ) ;
#221 = LINE ( 'NONE', #187, #28 ) ;
#222 = SHAPE_DEFINITION_REPRESENTATION ( #301, #256 ) ;
#223 = AXIS2_PLACEMENT_3D ( 'NONE', #157, #214, #124 ) ;
#224 = ORIENTED_EDGE ( 'NONE', *, *, #203, .F. ) ;
#225 = COLOUR_RGB ( '',0.7960784313725489669, 0.8235294117647058432, 0.9372549019607843146 ) ;
#226 = VERTEX_POINT ( 'NONE', #315 ) ;
#227 = AXIS2_PLACEMENT_3D ( 'NONE', #159, #54, #264 ) ;
#228 = ORIENTED_EDGE ( 'NONE', *, *, #183, .F. ) ;
#229 = DIRECTION ( 'NONE',  ( -1.000000000000000000, -4.646580739223591488E-17, 0.000000000000000000 ) ) ;
#230 = ORIENTED_EDGE ( 'NONE', *, *, #61, .F. ) ;
#231 = CARTESIAN_POINT ( 'NONE',  ( -7.174977327051855092, -12.00000000000004796, 2.000000000000000000 ) ) ;
#232 = VECTOR ( 'NONE', #255, 1000.000000000000114 ) ;
#233 = LINE ( 'NONE', #179, #36 ) ;
#234 = CARTESIAN_POINT ( 'NONE',  ( -62.82502267294815113, -92.99999999999995737, 2.000000000000000000 ) ) ;
#235 = CARTESIAN_POINT ( 'NONE',  ( -63.00000000000000000, -97.50000000000001421, 0.000000000000000000 ) ) ;
#236 = SURFACE_STYLE_USAGE ( .BOTH. , #317 ) ;
#237 = LINE ( 'NONE', #1, #30 ) ;
#238 = VECTOR ( 'NONE', #129, 1000.000000000000114 ) ;
#239 = PLANE ( 'NONE',  #245 ) ;
#240 = EDGE_CURVE ( 'NONE', #121, #140, #237, .T. ) ;
#241 = EDGE_CURVE ( 'NONE', #199, #175, #72, .T. ) ;
#242 = DIRECTION ( 'NONE',  ( 0.000000000000000000, -1.000000000000000000, 0.000000000000000000 ) ) ;
#243 = FILL_AREA_STYLE ('',( #267 ) ) ;
#244 = ADVANCED_FACE ( 'NONE', ( #160 ), #193, .T. ) ;
#245 = AXIS2_PLACEMENT_3D ( 'NONE', #333, #22, #132 ) ;
#246 = UNCERTAINTY_MEASURE_WITH_UNIT (LENGTH_MEASURE( 1.000000000000000082E-05 ), #153, 'distance_accuracy_value', 'NONE');
#247 = VERTEX_POINT ( 'NONE', #188 ) ;
#248 = ORIENTED_EDGE ( 'NONE', *, *, #274, .F. ) ;
#249 = EDGE_CURVE ( 'NONE', #115, #149, #166, .T. ) ;
#250 = ORIENTED_EDGE ( 'NONE', *, *, #81, .T. ) ;
#251 = MECHANICAL_DESIGN_GEOMETRIC_PRESENTATION_REPRESENTATION (  '', ( #103 ), #31 ) ;
#252 = EDGE_LOOP ( 'NONE', ( #194, #116, #273, #306 ) ) ;
#253 = EDGE_LOOP ( 'NONE', ( #59, #216, #250, #324 ) ) ;
#254 = SURFACE_STYLE_FILL_AREA ( #178 ) ;
#255 = DIRECTION ( 'NONE',  ( 0.08682659386424779191, -0.08682659386424779191, -0.9924325091389669673 ) ) ;
#256 = ADVANCED_BREP_SHAPE_REPRESENTATION ( 'gasket_front_cover', ( #198, #171 ), #215 ) ;
#257 = VERTEX_POINT ( 'NONE', #211 ) ;
#258 = VECTOR ( 'NONE', #78, 1000.000000000000000 ) ;
#259 = CARTESIAN_POINT ( 'NONE',  ( -63.00000000000000000, -97.50000000000001421, 0.000000000000000000 ) ) ;
#260 = CARTESIAN_POINT ( 'NONE',  ( -7.174977327051855092, -97.32502267294815113, 2.000000000000000000 ) ) ;
#261 = CARTESIAN_POINT ( 'NONE',  ( -61.50000000000000000, -96.00000000000001421, 0.000000000000000000 ) ) ;
#262 = CARTESIAN_POINT ( 'NONE',  ( -7.000000000000007105, -12.00000000000004796, 0.000000000000000000 ) ) ;
#263 = DIRECTION ( 'NONE',  ( -1.000000000000000000, -4.646580739223591488E-17, 0.000000000000000000 ) ) ;
#264 = DIRECTION ( 'NONE',  ( 0.000000000000000000, -0.08715574274765837404, -0.9961946980917455452 ) ) ;
#265 = LINE ( 'NONE', #100, #271 ) ;
#266 = ORIENTED_EDGE ( 'NONE', *, *, #139, .F. ) ;
#267 = FILL_AREA_STYLE_COLOUR ( '', #225 ) ;
#268 = LINE ( 'NONE', #135, #4 ) ;
#269 = AXIS2_PLACEMENT_3D ( 'NONE', #52, #218, #292 ) ;
#270 = DIRECTION ( 'NONE',  ( 0.000000000000000000, -1.000000000000000000, 0.000000000000000000 ) ) ;
#271 = VECTOR ( 'NONE', #242, 1000.000000000000000 ) ;
#272 = PRODUCT_RELATED_PRODUCT_CATEGORY ( 'part', '', ( #112 ) ) ;
#273 = ORIENTED_EDGE ( 'NONE', *, *, #249, .T. ) ;
#274 = EDGE_CURVE ( 'NONE', #226, #257, #268, .T. ) ;
#275 = EDGE_LOOP ( 'NONE', ( #65, #202, #91, #282 ) ) ;
#276 = FACE_OUTER_BOUND ( 'NONE', #142, .T. ) ;
#277 = ORIENTED_EDGE ( 'NONE', *, *, #113, .F. ) ;
#278 = VECTOR ( 'NONE', #79, 1000.000000000000000 ) ;
#279 = ORIENTED_EDGE ( 'NONE', *, *, #168, .F. ) ;
#280 = DIRECTION ( 'NONE',  ( 0.000000000000000000, 0.9961946980917455452, 0.08715574274765836016 ) ) ;
#281 = DIRECTION ( 'NONE',  ( 0.000000000000000000, 1.000000000000000000, -0.000000000000000000 ) ) ;
#282 = ORIENTED_EDGE ( 'NONE', *, *, #35, .T. ) ;
#283 = DIRECTION ( 'NONE',  ( -0.9961946980917455452, 0.000000000000000000, 0.08715574274765836016 ) ) ;
#284 = VERTEX_POINT ( 'NONE', #131 ) ;
#285 = PLANE ( 'NONE',  #111 ) ;
#286 = DIRECTION ( 'NONE',  ( 1.000000000000000000, 0.000000000000000000, 0.000000000000000000 ) ) ;
#287 = VECTOR ( 'NONE', #309, 1000.000000000000000 ) ;
#288 = EDGE_LOOP ( 'NONE', ( #228, #158, #15, #146 ) ) ;
#289 = DIRECTION ( 'NONE',  ( 0.000000000000000000, 0.000000000000000000, 1.000000000000000000 ) ) ;
#290 = PLANE ( 'NONE',  #227 ) ;
#291 = ADVANCED_FACE ( 'NONE', ( #21 ), #83, .T. ) ;
#292 = DIRECTION ( 'NONE',  ( 0.000000000000000000, -0.08715574274765836016, -0.9961946980917455452 ) ) ;
#293 = CARTESIAN_POINT ( 'NONE',  ( -62.82502267294815113, -97.32502267294816534, 2.000000000000000000 ) ) ;
#294 = FACE_OUTER_BOUND ( 'NONE', #205, .T. ) ;
#295 = PLANE ( 'NONE',  #223 ) ;
#296 = LINE ( 'NONE', #338, #154 ) ;
#297 = ADVANCED_FACE ( 'NONE', ( #276 ), #13, .T. ) ;
#298 = EDGE_CURVE ( 'NONE', #123, #302, #184, .T. ) ;
#299 = ADVANCED_FACE ( 'NONE', ( #181 ), #20, .T. ) ;
#300 = ORIENTED_EDGE ( 'NONE', *, *, #35, .F. ) ;
#301 = PRODUCT_DEFINITION_SHAPE ( 'NONE', 'NONE',  #49 ) ;
#302 = VERTEX_POINT ( 'NONE', #260 ) ;
#303 = DIRECTION ( 'NONE',  ( 0.000000000000000000, -0.08715574274765836016, 0.9961946980917455452 ) ) ;
#304 = ORIENTED_EDGE ( 'NONE', *, *, #298, .F. ) ;
#305 = VECTOR ( 'NONE', #156, 1000.000000000000000 ) ;
#306 = ORIENTED_EDGE ( 'NONE', *, *, #14, .T. ) ;
#307 = ORIENTED_EDGE ( 'NONE', *, *, #141, .F. ) ;
#308 = ORIENTED_EDGE ( 'NONE', *, *, #321, .T. ) ;
#309 = DIRECTION ( 'NONE',  ( -0.000000000000000000, -1.000000000000000000, 0.000000000000000000 ) ) ;
#310 = DIRECTION ( 'NONE',  ( 0.000000000000000000, 1.000000000000000000, 0.000000000000000000 ) ) ;
#311 = CARTESIAN_POINT ( 'NONE',  ( -8.325022672948167113, -96.17497732705186309, 2.000000000000000000 ) ) ;
#312 = ORIENTED_EDGE ( 'NONE', *, *, #141, .T. ) ;
#313 = CARTESIAN_POINT ( 'NONE',  ( -7.000000000000007105, -7.500000000000000888, 0.000000000000000000 ) ) ;
#314 = AXIS2_PLACEMENT_3D ( 'NONE', #39, #147, #144 ) ;
#315 = CARTESIAN_POINT ( 'NONE',  ( -62.82502267294815113, -7.674977327051851539, 2.000000000000000000 ) ) ;
#316 = CARTESIAN_POINT ( 'NONE',  ( -7.000000000000007105, -7.674977327051848874, 2.000000000000000000 ) ) ;
#317 = SURFACE_SIDE_STYLE ('',( #51 ) ) ;
#318 = DIRECTION ( 'NONE',  ( -0.08682659386424779191, 0.08682659386424779191, -0.9924325091389669673 ) ) ;
#319 =( NAMED_UNIT ( * ) SI_UNIT ( $, .STERADIAN. ) SOLID_ANGLE_UNIT ( ) );
#320 = ADVANCED_FACE ( 'NONE', ( #98 ), #285, .T. ) ;
#321 = EDGE_CURVE ( 'NONE', #201, #257, #206, .T. ) ;
#322 = CLOSED_SHELL ( 'NONE', ( #104, #204, #196, #244, #195, #320, #291, #220, #299, #297 ) ) ;
#323 = PRODUCT_DEFINITION_CONTEXT ( 'detailed design', #96, 'design' ) ;
#324 = ORIENTED_EDGE ( 'NONE', *, *, #168, .T. ) ;
#325 = MECHANICAL_DESIGN_GEOMETRIC_PRESENTATION_REPRESENTATION (  '', ( #75 ), #185 ) ;
#326 = ORIENTED_EDGE ( 'NONE', *, *, #241, .F. ) ;
#327 = SURFACE_SIDE_STYLE ('',( #254 ) ) ;
#328 = EDGE_LOOP ( 'NONE', ( #118, #331, #304, #209 ) ) ;
#329 = FILL_AREA_STYLE_COLOUR ( '', #197 ) ;
#330 = AXIS2_PLACEMENT_3D ( 'NONE', #262, #77, #5 ) ;
#331 = ORIENTED_EDGE ( 'NONE', *, *, #85, .F. ) ;
#332 = CARTESIAN_POINT ( 'NONE',  ( -63.00000000000000000, -92.99999999999995737, 0.000000000000000000 ) ) ;
#333 = CARTESIAN_POINT ( 'NONE',  ( 0.000000000000000000, 0.000000000000000000, 2.000000000000000000 ) ) ;
#334 =( NAMED_UNIT ( * ) PLANE_ANGLE_UNIT ( ) SI_UNIT ( $, .RADIAN. ) );
#335 = DIRECTION ( 'NONE',  ( -0.9961946980917455452, 0.000000000000000000, 0.08715574274765836016 ) ) ;
#336 = EDGE_CURVE ( 'NONE', #302, #284, #60, .T. ) ;
#337 = CARTESIAN_POINT ( 'NONE',  ( -63.00000000000000000, -97.50000000000001421, 0.000000000000000000 ) ) ;
#338 = CARTESIAN_POINT ( 'NONE',  ( -61.50000000000000000, -96.17497732705186309, 2.000000000000000000 ) ) ;
ENDSEC;
END-ISO-10303-21;
