ISO-10303-21;
HEADER;
FILE_DESCRIPTION (( 'STEP AP214' ),
    '1' );
FILE_NAME ('Battery_pin_Contact.STEP',
    '2026-08-21T20:26:04',
    ( '' ),
    ( '' ),
    'SwSTEP 2.0',
    'SolidWorks 2025',
    '' );
FILE_SCHEMA (( 'AUTOMOTIVE_DESIGN' ));
ENDSEC;

DATA;
#1 = DIRECTION ( 'NONE',  ( 0.000000000000000000, 0.000000000000000000, -1.000000000000000000 ) ) ;
#2 = PLANE ( 'NONE',  #256 ) ;
#3 = EDGE_CURVE ( 'NONE', #304, #127, #535, .T. ) ;
#4 = PRODUCT_CONTEXT ( 'NONE', #104, 'mechanical' ) ;
#5 = DIRECTION ( 'NONE',  ( 0.000000000000000000, -0.000000000000000000, 1.000000000000000000 ) ) ;
#6 = ORIENTED_EDGE ( 'NONE', *, *, #532, .F. ) ;
#7 = MECHANICAL_DESIGN_GEOMETRIC_PRESENTATION_REPRESENTATION (  '', ( #314 ), #325 ) ;
#8 = VECTOR ( 'NONE', #79, 1000.000000000000000 ) ;
#9 = CIRCLE ( 'NONE', #391, 3.249999999999999112 ) ;
#10 =( NAMED_UNIT ( * ) SI_UNIT ( $, .STERADIAN. ) SOLID_ANGLE_UNIT ( ) );
#11 = FACE_OUTER_BOUND ( 'NONE', #39, .T. ) ;
#12 = EDGE_CURVE ( 'NONE', #319, #620, #213, .T. ) ;
#13 = LINE ( 'NONE', #218, #336 ) ;
#14 = VERTEX_POINT ( 'NONE', #161 ) ;
#15 = CARTESIAN_POINT ( 'NONE',  ( 0.000000000000000000, 2.000000000000000000, 0.000000000000000000 ) ) ;
#16 = ORIENTED_EDGE ( 'NONE', *, *, #382, .T. ) ;
#17 = AXIS2_PLACEMENT_3D ( 'NONE', #42, #411, #604 ) ;
#18 = FACE_OUTER_BOUND ( 'NONE', #609, .T. ) ;
#19 = ORIENTED_EDGE ( 'NONE', *, *, #348, .T. ) ;
#20 = EDGE_CURVE ( 'NONE', #467, #88, #522, .T. ) ;
#21 = CARTESIAN_POINT ( 'NONE',  ( 12.00000000000000000, 0.2999999999999999889, 0.000000000000000000 ) ) ;
#22 = CARTESIAN_POINT ( 'NONE',  ( 0.000000000000000000, 0.2999999999999999889, -10.50000000000000000 ) ) ;
#23 = ORIENTED_EDGE ( 'NONE', *, *, #582, .F. ) ;
#24 = CARTESIAN_POINT ( 'NONE',  ( 0.000000000000000000, 0.000000000000000000, -12.00000000000000000 ) ) ;
#25 = LINE ( 'NONE', #483, #632 ) ;
#26 = ORIENTED_EDGE ( 'NONE', *, *, #496, .T. ) ;
#27 = CARTESIAN_POINT ( 'NONE',  ( 0.000000000000000000, 0.2999999999999999889, 0.000000000000000000 ) ) ;
#28 = PLANE ( 'NONE',  #215 ) ;
#29 = VECTOR ( 'NONE', #383, 1000.000000000000000 ) ;
#30 = EDGE_LOOP ( 'NONE', ( #249, #236, #560, #401, #269, #557, #444, #272 ) ) ;
#31 = CARTESIAN_POINT ( 'NONE',  ( 0.000000000000000000, 0.2999999999999999889, -12.00000000000000000 ) ) ;
#32 = CARTESIAN_POINT ( 'NONE',  ( 12.00000000000000000, 0.2999999999999999889, 0.000000000000000000 ) ) ;
#33 = ORIENTED_EDGE ( 'NONE', *, *, #408, .F. ) ;
#34 = LINE ( 'NONE', #21, #534 ) ;
#35 = DIRECTION ( 'NONE',  ( 0.000000000000000000, 0.000000000000000000, -1.000000000000000000 ) ) ;
#36 = ORIENTED_EDGE ( 'NONE', *, *, #619, .F. ) ;
#37 = DIRECTION ( 'NONE',  ( 0.000000000000000000, 1.000000000000000000, -0.000000000000000000 ) ) ;
#38 = AXIS2_PLACEMENT_3D ( 'NONE', #641, #589, #109 ) ;
#39 = EDGE_LOOP ( 'NONE', ( #16, #240, #541, #227 ) ) ;
#40 = ADVANCED_FACE ( 'NONE', ( #586 ), #254, .T. ) ;
#41 = SURFACE_SIDE_STYLE ('',( #93 ) ) ;
#42 = CARTESIAN_POINT ( 'NONE',  ( 0.000000000000000000, 1.000000000000000000, -10.50000000000000000 ) ) ;
#43 = ORIENTED_EDGE ( 'NONE', *, *, #125, .T. ) ;
#44 = LINE ( 'NONE', #216, #128 ) ;
#45 = ORIENTED_EDGE ( 'NONE', *, *, #571, .T. ) ;
#46 = PLANE ( 'NONE',  #183 ) ;
#47 = CARTESIAN_POINT ( 'NONE',  ( 19.00000000000000000, 0.000000000000000000, -4.500000000000000888 ) ) ;
#48 = LINE ( 'NONE', #257, #206 ) ;
#49 = VECTOR ( 'NONE', #403, 1000.000000000000000 ) ;
#50 = CARTESIAN_POINT ( 'NONE',  ( 6.000000000000000000, 2.000000000000000000, -6.000000000000000000 ) ) ;
#51 = CYLINDRICAL_SURFACE ( 'NONE', #152, 3.249999999999999556 ) ;
#52 = EDGE_CURVE ( 'NONE', #14, #620, #474, .T. ) ;
#53 = EDGE_LOOP ( 'NONE', ( #363, #200, #43, #92 ) ) ;
#54 = CARTESIAN_POINT ( 'NONE',  ( 7.249999999999999112, 0.2999999999999999334, 0.000000000000000000 ) ) ;
#55 = DIRECTION ( 'NONE',  ( 0.000000000000000000, 0.000000000000000000, -1.000000000000000000 ) ) ;
#56 = FILL_AREA_STYLE_COLOUR ( '', #652 ) ;
#57 = DIRECTION ( 'NONE',  ( -0.000000000000000000, -1.000000000000000000, -0.000000000000000000 ) ) ;
#58 = ADVANCED_FACE ( 'NONE', ( #11 ), #2, .T. ) ;
#59 = VECTOR ( 'NONE', #333, 1000.000000000000000 ) ;
#60 = VECTOR ( 'NONE', #521, 1000.000000000000000 ) ;
#61 = CARTESIAN_POINT ( 'NONE',  ( 4.750000000000000000, 1.000000000000000000, -1.499999999999999556 ) ) ;
#62 = DIRECTION ( 'NONE',  ( 0.000000000000000000, 0.000000000000000000, -1.000000000000000000 ) ) ;
#63 = ORIENTED_EDGE ( 'NONE', *, *, #97, .T. ) ;
#64 = EDGE_CURVE ( 'NONE', #267, #178, #166, .T. ) ;
#65 = LINE ( 'NONE', #273, #291 ) ;
#66 = ORIENTED_EDGE ( 'NONE', *, *, #136, .F. ) ;
#67 = FACE_OUTER_BOUND ( 'NONE', #350, .T. ) ;
#68 = VECTOR ( 'NONE', #313, 1000.000000000000000 ) ;
#69 = PRESENTATION_LAYER_ASSIGNMENT (  '', '', ( #314 ) ) ;
#70 = VECTOR ( 'NONE', #526, 1000.000000000000000 ) ;
#71 = DIRECTION ( 'NONE',  ( 1.000000000000000000, -0.000000000000000000, 0.000000000000000000 ) ) ;
#72 = ADVANCED_FACE ( 'NONE', ( #420 ), #169, .T. ) ;
#73 = ORIENTED_EDGE ( 'NONE', *, *, #419, .F. ) ;
#74 = DIRECTION ( 'NONE',  ( 0.000000000000000000, 0.000000000000000000, -1.000000000000000000 ) ) ;
#75 = DIRECTION ( 'NONE',  ( 1.000000000000000000, -0.000000000000000000, 0.000000000000000000 ) ) ;
#76 = ORIENTED_EDGE ( 'NONE', *, *, #477, .T. ) ;
#77 = UNCERTAINTY_MEASURE_WITH_UNIT (LENGTH_MEASURE( 1.000000000000000082E-05 ), #258, 'distance_accuracy_value', 'NONE');
#78 = CARTESIAN_POINT ( 'NONE',  ( 19.00000000000000000, 0.2999999999999999889, -4.500000000000000888 ) ) ;
#79 = DIRECTION ( 'NONE',  ( 0.000000000000000000, 0.000000000000000000, -1.000000000000000000 ) ) ;
#80 = VERTEX_POINT ( 'NONE', #310 ) ;
#81 = CARTESIAN_POINT ( 'NONE',  ( 12.00000000000000000, 0.000000000000000000, -4.500000000000000888 ) ) ;
#82 = EDGE_CURVE ( 'NONE', #537, #316, #48, .T. ) ;
#83 = LINE ( 'NONE', #514, #576 ) ;
#84 = AXIS2_PLACEMENT_3D ( 'NONE', #15, #547, #131 ) ;
#85 = ORIENTED_EDGE ( 'NONE', *, *, #12, .T. ) ;
#86 = LINE ( 'NONE', #606, #204 ) ;
#87 = FACE_OUTER_BOUND ( 'NONE', #231, .T. ) ;
#88 = VERTEX_POINT ( 'NONE', #329 ) ;
#89 = DIRECTION ( 'NONE',  ( 0.000000000000000000, 1.000000000000000000, -0.000000000000000000 ) ) ;
#90 = FACE_OUTER_BOUND ( 'NONE', #190, .T. ) ;
#91 = ADVANCED_FACE ( 'NONE', ( #18 ), #230, .T. ) ;
#92 = ORIENTED_EDGE ( 'NONE', *, *, #506, .T. ) ;
#93 = SURFACE_STYLE_FILL_AREA ( #407 ) ;
#94 = LINE ( 'NONE', #242, #173 ) ;
#95 = CIRCLE ( 'NONE', #388, 3.249999999999999112 ) ;
#96 = ORIENTED_EDGE ( 'NONE', *, *, #447, .F. ) ;
#97 = EDGE_CURVE ( 'NONE', #548, #605, #651, .T. ) ;
#98 = CARTESIAN_POINT ( 'NONE',  ( 0.000000000000000000, 0.2999999999999999889, -12.00000000000000000 ) ) ;
#99 = PLANE ( 'NONE',  #479 ) ;
#100 = EDGE_LOOP ( 'NONE', ( #667, #659, #406, #570 ) ) ;
#101 = PRESENTATION_STYLE_ASSIGNMENT (( #155 ) ) ;
#102 = FACE_OUTER_BOUND ( 'NONE', #394, .T. ) ;
#103 = DIRECTION ( 'NONE',  ( 0.000000000000000000, 0.000000000000000000, 1.000000000000000000 ) ) ;
#104 = APPLICATION_CONTEXT ( 'automotive_design' ) ;
#105 = EDGE_CURVE ( 'NONE', #528, #566, #134, .T. ) ;
#106 = DIRECTION ( 'NONE',  ( -0.000000000000000000, -1.000000000000000000, -0.000000000000000000 ) ) ;
#107 = ORIENTED_EDGE ( 'NONE', *, *, #220, .F. ) ;
#108 = VECTOR ( 'NONE', #569, 1000.000000000000000 ) ;
#109 = DIRECTION ( 'NONE',  ( 1.000000000000000000, 0.000000000000000000, 0.000000000000000000 ) ) ;
#110 = AXIS2_PLACEMENT_3D ( 'NONE', #655, #189, #201 ) ;
#111 = CARTESIAN_POINT ( 'NONE',  ( 4.750000000000000888, 1.000000000000000000, 0.000000000000000000 ) ) ;
#112 = ORIENTED_EDGE ( 'NONE', *, *, #382, .F. ) ;
#113 = CARTESIAN_POINT ( 'NONE',  ( 0.000000000000000000, 0.2999999999999999889, -1.499999999999999556 ) ) ;
#114 = ORIENTED_EDGE ( 'NONE', *, *, #631, .T. ) ;
#115 = EDGE_CURVE ( 'NONE', #460, #653, #638, .T. ) ;
#116 = EDGE_LOOP ( 'NONE', ( #583, #85, #135, #36 ) ) ;
#117 = VECTOR ( 'NONE', #137, 1000.000000000000000 ) ;
#118 = VECTOR ( 'NONE', #342, 1000.000000000000000 ) ;
#119 = DIRECTION ( 'NONE',  ( -1.000000000000000000, 0.000000000000000000, 0.000000000000000000 ) ) ;
#120 = VERTEX_POINT ( 'NONE', #587 ) ;
#121 = EDGE_CURVE ( 'NONE', #593, #671, #493, .T. ) ;
#122 = LINE ( 'NONE', #481, #29 ) ;
#123 = VERTEX_POINT ( 'NONE', #170 ) ;
#124 = CARTESIAN_POINT ( 'NONE',  ( 19.00000000000000000, 0.2999999999999999889, -7.500000000000000000 ) ) ;
#125 = EDGE_CURVE ( 'NONE', #599, #605, #25, .T. ) ;
#126 = CARTESIAN_POINT ( 'NONE',  ( 7.250000000000000000, 1.000000000000000000, -1.499999999999999556 ) ) ;
#127 = VERTEX_POINT ( 'NONE', #219 ) ;
#128 = VECTOR ( 'NONE', #635, 1000.000000000000000 ) ;
#129 = FACE_OUTER_BOUND ( 'NONE', #30, .T. ) ;
#130 = VECTOR ( 'NONE', #646, 1000.000000000000000 ) ;
#131 = DIRECTION ( 'NONE',  ( 0.000000000000000000, 0.000000000000000000, 1.000000000000000000 ) ) ;
#132 = VERTEX_POINT ( 'NONE', #590 ) ;
#133 = LINE ( 'NONE', #341, #663 ) ;
#134 = LINE ( 'NONE', #338, #163 ) ;
#135 = ORIENTED_EDGE ( 'NONE', *, *, #52, .F. ) ;
#136 = EDGE_CURVE ( 'NONE', #626, #528, #377, .T. ) ;
#137 = DIRECTION ( 'NONE',  ( -0.000000000000000000, -1.000000000000000000, -0.000000000000000000 ) ) ;
#138 = DIRECTION ( 'NONE',  ( 0.000000000000000000, 0.000000000000000000, -1.000000000000000000 ) ) ;
#139 = ORIENTED_EDGE ( 'NONE', *, *, #3, .F. ) ;
#140 = DIRECTION ( 'NONE',  ( 0.000000000000000000, 0.000000000000000000, -1.000000000000000000 ) ) ;
#141 = VECTOR ( 'NONE', #512, 1000.000000000000000 ) ;
#142 = DIRECTION ( 'NONE',  ( 0.000000000000000000, 1.000000000000000000, -0.000000000000000000 ) ) ;
#143 = ORIENTED_EDGE ( 'NONE', *, *, #115, .T. ) ;
#144 = DIRECTION ( 'NONE',  ( 0.000000000000000000, 0.000000000000000000, -1.000000000000000000 ) ) ;
#145 = EDGE_CURVE ( 'NONE', #593, #175, #648, .T. ) ;
#146 = CARTESIAN_POINT ( 'NONE',  ( 12.00000000000000000, 0.2999999999999999889, 0.000000000000000000 ) ) ;
#147 = ORIENTED_EDGE ( 'NONE', *, *, #164, .T. ) ;
#148 = EDGE_CURVE ( 'NONE', #371, #537, #122, .T. ) ;
#149 = CARTESIAN_POINT ( 'NONE',  ( 12.00000000000000000, 0.2999999999999999889, 0.000000000000000000 ) ) ;
#150 = ORIENTED_EDGE ( 'NONE', *, *, #471, .T. ) ;
#151 = DIRECTION ( 'NONE',  ( -1.000000000000000000, 0.000000000000000000, 0.000000000000000000 ) ) ;
#152 = AXIS2_PLACEMENT_3D ( 'NONE', #527, #261, #1 ) ;
#153 = VECTOR ( 'NONE', #393, 1000.000000000000000 ) ;
#154 = ORIENTED_EDGE ( 'NONE', *, *, #125, .F. ) ;
#155 = SURFACE_STYLE_USAGE ( .BOTH. , #41 ) ;
#156 = CARTESIAN_POINT ( 'NONE',  ( 0.000000000000000000, 1.000000000000000000, 0.000000000000000000 ) ) ;
#157 = ORIENTED_EDGE ( 'NONE', *, *, #185, .T. ) ;
#158 = ORIENTED_EDGE ( 'NONE', *, *, #326, .T. ) ;
#159 = FACE_OUTER_BOUND ( 'NONE', #412, .T. ) ;
#160 = ORIENTED_EDGE ( 'NONE', *, *, #260, .F. ) ;
#161 = CARTESIAN_POINT ( 'NONE',  ( 7.250000000000000000, 1.000000000000000000, -10.50000000000000000 ) ) ;
#162 = AXIS2_PLACEMENT_3D ( 'NONE', #392, #337, #546 ) ;
#163 = VECTOR ( 'NONE', #387, 1000.000000000000000 ) ;
#164 = EDGE_CURVE ( 'NONE', #484, #593, #601, .T. ) ;
#165 = DIRECTION ( 'NONE',  ( 1.000000000000000000, 0.000000000000000000, -0.000000000000000000 ) ) ;
#166 = LINE ( 'NONE', #579, #390 ) ;
#167 = CARTESIAN_POINT ( 'NONE',  ( 12.00000000000000000, 0.2999999999999999889, -12.00000000000000000 ) ) ;
#168 = EDGE_CURVE ( 'NONE', #120, #80, #268, .T. ) ;
#169 = PLANE ( 'NONE',  #266 ) ;
#170 = CARTESIAN_POINT ( 'NONE',  ( 6.000000000000000000, 2.000000000000000000, -9.250000000000000000 ) ) ;
#171 = ORIENTED_EDGE ( 'NONE', *, *, #532, .T. ) ;
#172 = VECTOR ( 'NONE', #600, 1000.000000000000000 ) ;
#173 = VECTOR ( 'NONE', #138, 1000.000000000000000 ) ;
#174 = CARTESIAN_POINT ( 'NONE',  ( 6.000000000000000000, 0.2999999999999999889, -2.750000000000001332 ) ) ;
#175 = VERTEX_POINT ( 'NONE', #61 ) ;
#176 = EDGE_CURVE ( 'NONE', #127, #467, #226, .T. ) ;
#177 = CARTESIAN_POINT ( 'NONE',  ( 12.00000000000000000, 0.2999999999999999889, 0.000000000000000000 ) ) ;
#178 = VERTEX_POINT ( 'NONE', #174 ) ;
#179 = CARTESIAN_POINT ( 'NONE',  ( 7.249999999999999112, 1.000000000000000000, 0.000000000000000000 ) ) ;
#180 = DIRECTION ( 'NONE',  ( 5.782411586589357639E-16, 0.000000000000000000, -1.000000000000000000 ) ) ;
#181 = VERTEX_POINT ( 'NONE', #279 ) ;
#182 = DIRECTION ( 'NONE',  ( 0.000000000000000000, 0.000000000000000000, 1.000000000000000000 ) ) ;
#183 = AXIS2_PLACEMENT_3D ( 'NONE', #252, #311, #194 ) ;
#184 = VECTOR ( 'NONE', #380, 1000.000000000000000 ) ;
#185 = EDGE_CURVE ( 'NONE', #132, #575, #13, .T. ) ;
#186 = CARTESIAN_POINT ( 'NONE',  ( 7.249999999999999112, 1.000000000000000000, -12.00000000000000000 ) ) ;
#187 = ORIENTED_EDGE ( 'NONE', *, *, #205, .F. ) ;
#188 = FACE_OUTER_BOUND ( 'NONE', #564, .T. ) ;
#189 = DIRECTION ( 'NONE',  ( 0.000000000000000000, 1.000000000000000000, -0.000000000000000000 ) ) ;
#190 = EDGE_LOOP ( 'NONE', ( #515, #33, #209, #284 ) ) ;
#191 = CARTESIAN_POINT ( 'NONE',  ( 7.250000000000000000, 1.000000000000000000, -1.499999999999999556 ) ) ;
#192 = PLANE ( 'NONE',  #422 ) ;
#193 = ORIENTED_EDGE ( 'NONE', *, *, #52, .T. ) ;
#194 = DIRECTION ( 'NONE',  ( -5.782411586589357639E-16, 0.000000000000000000, 1.000000000000000000 ) ) ;
#195 = CARTESIAN_POINT ( 'NONE',  ( 6.000000000000000000, 2.000000000000000000, -2.750000000000001332 ) ) ;
#196 = ORIENTED_EDGE ( 'NONE', *, *, #97, .F. ) ;
#197 = FILL_AREA_STYLE_COLOUR ( '', #233 ) ;
#198 = ADVANCED_FACE ( 'NONE', ( #536 ), #435, .F. ) ;
#199 = DIRECTION ( 'NONE',  ( 0.000000000000000000, 0.000000000000000000, 1.000000000000000000 ) ) ;
#200 = ORIENTED_EDGE ( 'NONE', *, *, #631, .F. ) ;
#201 = DIRECTION ( 'NONE',  ( 0.000000000000000000, 0.000000000000000000, 1.000000000000000000 ) ) ;
#202 = EDGE_LOOP ( 'NONE', ( #507, #503, #147, #623 ) ) ;
#203 = SURFACE_STYLE_USAGE ( .BOTH. , #421 ) ;
#204 = VECTOR ( 'NONE', #294, 1000.000000000000000 ) ;
#205 = EDGE_CURVE ( 'NONE', #371, #599, #544, .T. ) ;
#206 = VECTOR ( 'NONE', #677, 1000.000000000000000 ) ;
#207 = CARTESIAN_POINT ( 'NONE',  ( 4.750000000000000888, 1.000000000000000000, -2.746645503629945224E-15 ) ) ;
#208 = PLANE ( 'NONE',  #555 ) ;
#209 = ORIENTED_EDGE ( 'NONE', *, *, #12, .F. ) ;
#210 = CARTESIAN_POINT ( 'NONE',  ( 0.000000000000000000, 0.000000000000000000, 0.000000000000000000 ) ) ;
#211 = DIRECTION ( 'NONE',  ( -0.000000000000000000, -1.000000000000000000, -0.000000000000000000 ) ) ;
#212 = EDGE_CURVE ( 'NONE', #304, #181, #65, .T. ) ;
#213 = LINE ( 'NONE', #634, #70 ) ;
#214 = VECTOR ( 'NONE', #509, 1000.000000000000000 ) ;
#215 = AXIS2_PLACEMENT_3D ( 'NONE', #149, #151, #451 ) ;
#216 = CARTESIAN_POINT ( 'NONE',  ( 4.750000000000000888, 1.000000000000000000, -12.00000000000000000 ) ) ;
#217 = CARTESIAN_POINT ( 'NONE',  ( 0.000000000000000000, 0.000000000000000000, -12.00000000000000000 ) ) ;
#218 = CARTESIAN_POINT ( 'NONE',  ( 4.750000000000000888, 0.2999999999999999889, -2.746645503629945224E-15 ) ) ;
#219 = CARTESIAN_POINT ( 'NONE',  ( 0.000000000000000000, 0.000000000000000000, 0.000000000000000000 ) ) ;
#220 = EDGE_CURVE ( 'NONE', #371, #566, #644, .T. ) ;
#221 = ORIENTED_EDGE ( 'NONE', *, *, #115, .F. ) ;
#222 = AXIS2_PLACEMENT_3D ( 'NONE', #287, #142, #199 ) ;
#223 = CARTESIAN_POINT ( 'NONE',  ( 0.000000000000000000, 0.2999999999999999889, 0.000000000000000000 ) ) ;
#224 = ORIENTED_EDGE ( 'NONE', *, *, #145, .F. ) ;
#225 = CARTESIAN_POINT ( 'NONE',  ( 12.00000000000000000, 0.2999999999999999889, -4.500000000000000888 ) ) ;
#226 = LINE ( 'NONE', #327, #184 ) ;
#227 = ORIENTED_EDGE ( 'NONE', *, *, #549, .T. ) ;
#228 = CARTESIAN_POINT ( 'NONE',  ( 6.000000000000000000, 0.2999999999999999889, -9.250000000000000000 ) ) ;
#229 = ADVANCED_FACE ( 'NONE', ( #439, #615 ), #502, .T. ) ;
#230 = PLANE ( 'NONE',  #84 ) ;
#231 = EDGE_LOOP ( 'NONE', ( #76, #335, #196, #545 ) ) ;
#232 = DIRECTION ( 'NONE',  ( 0.000000000000000000, 0.000000000000000000, 1.000000000000000000 ) ) ;
#233 = COLOUR_RGB ( '',0.7960784313725489669, 0.8235294117647058432, 0.9372549019607843146 ) ;
#234 = VECTOR ( 'NONE', #262, 1000.000000000000000 ) ;
#235 = CARTESIAN_POINT ( 'NONE',  ( 0.000000000000000000, 0.2999999999999999889, 0.000000000000000000 ) ) ;
#236 = ORIENTED_EDGE ( 'NONE', *, *, #20, .T. ) ;
#237 = LINE ( 'NONE', #450, #368 ) ;
#238 = PLANE ( 'NONE',  #17 ) ;
#239 = ADVANCED_FACE ( 'NONE', ( #90 ), #463, .F. ) ;
#240 = ORIENTED_EDGE ( 'NONE', *, *, #185, .F. ) ;
#241 = CARTESIAN_POINT ( 'NONE',  ( 7.249999999999999112, 1.000000000000000000, 0.000000000000000000 ) ) ;
#242 = CARTESIAN_POINT ( 'NONE',  ( 12.00000000000000000, 0.000000000000000000, 0.000000000000000000 ) ) ;
#243 = VERTEX_POINT ( 'NONE', #299 ) ;
#244 = ADVANCED_FACE ( 'NONE', ( #448 ), #192, .F. ) ;
#245 =( NAMED_UNIT ( * ) SI_UNIT ( $, .STERADIAN. ) SOLID_ANGLE_UNIT ( ) );
#246 = VECTOR ( 'NONE', #473, 1000.000000000000000 ) ;
#247 = DIRECTION ( 'NONE',  ( 0.000000000000000000, 0.000000000000000000, 1.000000000000000000 ) ) ;
#248 = VECTOR ( 'NONE', #75, 1000.000000000000000 ) ;
#249 = ORIENTED_EDGE ( 'NONE', *, *, #176, .T. ) ;
#250 = DIRECTION ( 'NONE',  ( -1.000000000000000000, 0.000000000000000000, 0.000000000000000000 ) ) ;
#251 = ORIENTED_EDGE ( 'NONE', *, *, #212, .T. ) ;
#252 = CARTESIAN_POINT ( 'NONE',  ( 7.249999999999999112, 1.000000000000000000, 4.192248400277284337E-15 ) ) ;
#253 = EDGE_CURVE ( 'NONE', #653, #243, #396, .T. ) ;
#254 = PLANE ( 'NONE',  #404 ) ;
#255 = FACE_OUTER_BOUND ( 'NONE', #353, .T. ) ;
#256 = AXIS2_PLACEMENT_3D ( 'NONE', #207, #362, #472 ) ;
#257 = CARTESIAN_POINT ( 'NONE',  ( 0.000000000000000000, 0.000000000000000000, -7.500000000000000000 ) ) ;
#258 =( LENGTH_UNIT ( ) NAMED_UNIT ( * ) SI_UNIT ( .MILLI., .METRE. ) );
#259 = CARTESIAN_POINT ( 'NONE',  ( 19.00000000000000000, 0.2999999999999999889, 0.000000000000000000 ) ) ;
#260 = EDGE_CURVE ( 'NONE', #178, #510, #469, .T. ) ;
#261 = DIRECTION ( 'NONE',  ( -0.000000000000000000, -1.000000000000000000, -0.000000000000000000 ) ) ;
#262 = DIRECTION ( 'NONE',  ( -1.000000000000000000, 0.000000000000000000, 0.000000000000000000 ) ) ;
#263 = ADVANCED_FACE ( 'NONE', ( #405 ), #238, .T. ) ;
#264 = FILL_AREA_STYLE ('',( #56 ) ) ;
#265 = ORIENTED_EDGE ( 'NONE', *, *, #168, .T. ) ;
#266 = AXIS2_PLACEMENT_3D ( 'NONE', #375, #573, #103 ) ;
#267 = VERTEX_POINT ( 'NONE', #195 ) ;
#268 = LINE ( 'NONE', #22, #118 ) ;
#269 = ORIENTED_EDGE ( 'NONE', *, *, #434, .T. ) ;
#270 = EDGE_CURVE ( 'NONE', #243, #464, #409, .T. ) ;
#271 = DIRECTION ( 'NONE',  ( -1.000000000000000000, 0.000000000000000000, -0.000000000000000000 ) ) ;
#272 = ORIENTED_EDGE ( 'NONE', *, *, #355, .F. ) ;
#273 = CARTESIAN_POINT ( 'NONE',  ( 0.000000000000000000, 0.2999999999999999889, 0.000000000000000000 ) ) ;
#274 = VECTOR ( 'NONE', #517, 1000.000000000000000 ) ;
#275 = EDGE_LOOP ( 'NONE', ( #389, #433, #107, #379 ) ) ;
#276 = AXIS2_PLACEMENT_3D ( 'NONE', #438, #74, #395 ) ;
#277 = PRODUCT ( 'Battery_pin_Contact', 'Battery_pin_Contact', '', ( #4 ) ) ;
#278 = LINE ( 'NONE', #501, #413 ) ;
#279 = CARTESIAN_POINT ( 'NONE',  ( 0.000000000000000000, 0.2999999999999999889, -12.00000000000000000 ) ) ;
#280 = ORIENTED_EDGE ( 'NONE', *, *, #105, .F. ) ;
#281 = ADVANCED_FACE ( 'NONE', ( #554 ), #28, .F. ) ;
#282 = LINE ( 'NONE', #385, #130 ) ;
#283 = CARTESIAN_POINT ( 'NONE',  ( 0.000000000000000000, 0.2999999999999999889, -4.500000000000000888 ) ) ;
#284 = ORIENTED_EDGE ( 'NONE', *, *, #398, .T. ) ;
#285 = ADVANCED_FACE ( 'NONE', ( #459 ), #662, .T. ) ;
#286 = DIRECTION ( 'NONE',  ( -0.000000000000000000, -1.000000000000000000, -0.000000000000000000 ) ) ;
#287 = CARTESIAN_POINT ( 'NONE',  ( 0.000000000000000000, 0.2999999999999999889, 0.000000000000000000 ) ) ;
#288 = EDGE_LOOP ( 'NONE', ( #415, #384, #96, #193 ) ) ;
#289 = VECTOR ( 'NONE', #414, 1000.000000000000000 ) ;
#290 = CARTESIAN_POINT ( 'NONE',  ( 12.00000000000000000, 0.000000000000000000, -7.500000000000000000 ) ) ;
#291 = VECTOR ( 'NONE', #485, 1000.000000000000000 ) ;
#292 = CARTESIAN_POINT ( 'NONE',  ( 0.000000000000000000, 1.000000000000000000, 0.000000000000000000 ) ) ;
#293 = ORIENTED_EDGE ( 'NONE', *, *, #121, .F. ) ;
#294 = DIRECTION ( 'NONE',  ( -5.782411586589357639E-16, 0.000000000000000000, -1.000000000000000000 ) ) ;
#295 = EDGE_CURVE ( 'NONE', #537, #88, #94, .T. ) ;
#296 = PLANE ( 'NONE',  #359 ) ;
#297 = ORIENTED_EDGE ( 'NONE', *, *, #312, .T. ) ;
#298 = LINE ( 'NONE', #621, #567 ) ;
#299 = CARTESIAN_POINT ( 'NONE',  ( 12.00000000000000000, 0.000000000000000000, 0.000000000000000000 ) ) ;
#300 = ORIENTED_EDGE ( 'NONE', *, *, #220, .T. ) ;
#301 = VECTOR ( 'NONE', #180, 1000.000000000000000 ) ;
#302 = ADVANCED_BREP_SHAPE_REPRESENTATION ( 'Battery_pin_Contact', ( #373, #38 ), #608 ) ;
#303 = DIRECTION ( 'NONE',  ( -0.000000000000000000, -1.000000000000000000, -0.000000000000000000 ) ) ;
#304 = VERTEX_POINT ( 'NONE', #235 ) ;
#305 = CARTESIAN_POINT ( 'NONE',  ( 7.249999999999999112, 1.000000000000000000, -12.00000000000000000 ) ) ;
#306 = DIRECTION ( 'NONE',  ( -5.782411586589358625E-16, 0.000000000000000000, -1.000000000000000000 ) ) ;
#307 = ORIENTED_EDGE ( 'NONE', *, *, #678, .F. ) ;
#308 = LINE ( 'NONE', #572, #49 ) ;
#309 =( LENGTH_UNIT ( ) NAMED_UNIT ( * ) SI_UNIT ( .MILLI., .METRE. ) );
#310 = CARTESIAN_POINT ( 'NONE',  ( 4.750000000000000000, 0.2999999999999999889, -10.50000000000000000 ) ) ;
#311 = DIRECTION ( 'NONE',  ( -1.000000000000000000, 0.000000000000000000, -5.782411586589357639E-16 ) ) ;
#312 = EDGE_CURVE ( 'NONE', #460, #671, #83, .T. ) ;
#313 = DIRECTION ( 'NONE',  ( -1.000000000000000000, 0.000000000000000000, 0.000000000000000000 ) ) ;
#314 = STYLED_ITEM ( 'NONE', ( #101 ), #302 ) ;
#315 = AXIS2_PLACEMENT_3D ( 'NONE', #490, #62, #271 ) ;
#316 = VERTEX_POINT ( 'NONE', #607 ) ;
#317 = LINE ( 'NONE', #113, #68 ) ;
#318 = EDGE_CURVE ( 'NONE', #425, #80, #345, .T. ) ;
#319 = VERTEX_POINT ( 'NONE', #559 ) ;
#320 = CARTESIAN_POINT ( 'NONE',  ( 4.750000000000000888, 0.2999999999999999889, -12.00000000000000000 ) ) ;
#321 = ORIENTED_EDGE ( 'NONE', *, *, #582, .T. ) ;
#322 = ORIENTED_EDGE ( 'NONE', *, *, #669, .T. ) ;
#323 = VECTOR ( 'NONE', #106, 1000.000000000000000 ) ;
#324 = ORIENTED_EDGE ( 'NONE', *, *, #669, .F. ) ;
#325 =( GEOMETRIC_REPRESENTATION_CONTEXT ( 3 ) GLOBAL_UNCERTAINTY_ASSIGNED_CONTEXT ( ( #482 ) ) GLOBAL_UNIT_ASSIGNED_CONTEXT ( ( #661, #668, #617 ) ) REPRESENTATION_CONTEXT ( 'NONE', 'WORKASPACE' ) );
#326 = EDGE_CURVE ( 'NONE', #319, #626, #563, .T. ) ;
#327 = CARTESIAN_POINT ( 'NONE',  ( 0.000000000000000000, 0.000000000000000000, 0.000000000000000000 ) ) ;
#328 = ORIENTED_EDGE ( 'NONE', *, *, #205, .T. ) ;
#329 = CARTESIAN_POINT ( 'NONE',  ( 12.00000000000000000, 0.000000000000000000, -12.00000000000000000 ) ) ;
#330 = EDGE_LOOP ( 'NONE', ( #613, #640, #518, #552, #158, #360, #410, #45 ) ) ;
#331 = DIRECTION ( 'NONE',  ( 0.000000000000000000, 0.000000000000000000, -1.000000000000000000 ) ) ;
#332 = ADVANCED_FACE ( 'NONE', ( #87 ), #296, .F. ) ;
#333 = DIRECTION ( 'NONE',  ( 1.000000000000000000, -0.000000000000000000, 0.000000000000000000 ) ) ;
#334 = PRESENTATION_LAYER_ASSIGNMENT (  '', '', ( #428 ) ) ;
#335 = ORIENTED_EDGE ( 'NONE', *, *, #506, .F. ) ;
#336 = VECTOR ( 'NONE', #426, 1000.000000000000000 ) ;
#337 = DIRECTION ( 'NONE',  ( 0.000000000000000000, 1.000000000000000000, -0.000000000000000000 ) ) ;
#338 = CARTESIAN_POINT ( 'NONE',  ( 0.000000000000000000, 0.2999999999999999889, -12.00000000000000000 ) ) ;
#339 = PRODUCT_RELATED_PRODUCT_CATEGORY ( 'part', '', ( #277 ) ) ;
#340 = ORIENTED_EDGE ( 'NONE', *, *, #348, .F. ) ;
#341 = CARTESIAN_POINT ( 'NONE',  ( 7.250000000000006217, 0.2999999999999999889, -4.192248400277289071E-15 ) ) ;
#342 = DIRECTION ( 'NONE',  ( -1.000000000000000000, 0.000000000000000000, 0.000000000000000000 ) ) ;
#343 = ORIENTED_EDGE ( 'NONE', *, *, #64, .T. ) ;
#344 = PLANE ( 'NONE',  #276 ) ;
#345 = LINE ( 'NONE', #658, #598 ) ;
#346 = ORIENTED_EDGE ( 'NONE', *, *, #355, .T. ) ;
#347 = CARTESIAN_POINT ( 'NONE',  ( 6.000000000000000000, 2.000000000000000000, -6.000000000000000000 ) ) ;
#348 = EDGE_CURVE ( 'NONE', #267, #123, #9, .T. ) ;
#349 = DIRECTION ( 'NONE',  ( -5.782411586589358625E-16, 0.000000000000000000, 1.000000000000000000 ) ) ;
#350 = EDGE_LOOP ( 'NONE', ( #584, #324, #397, #171 ) ) ;
#351 = CARTESIAN_POINT ( 'NONE',  ( 6.000000000000000000, 2.000000000000000000, -9.250000000000000000 ) ) ;
#352 = DIRECTION ( 'NONE',  ( 0.000000000000000000, 0.000000000000000000, 1.000000000000000000 ) ) ;
#353 = EDGE_LOOP ( 'NONE', ( #340, #343, #499, #674 ) ) ;
#354 = DIRECTION ( 'NONE',  ( 0.000000000000000000, 1.000000000000000000, -0.000000000000000000 ) ) ;
#355 = EDGE_CURVE ( 'NONE', #127, #243, #475, .T. ) ;
#356 = ORIENTED_EDGE ( 'NONE', *, *, #3, .T. ) ;
#357 = CARTESIAN_POINT ( 'NONE',  ( 4.750000000000000000, 1.000000000000000000, -10.50000000000000000 ) ) ;
#358 = LINE ( 'NONE', #470, #108 ) ;
#359 = AXIS2_PLACEMENT_3D ( 'NONE', #505, #35, #454 ) ;
#360 = ORIENTED_EDGE ( 'NONE', *, *, #136, .T. ) ;
#361 = CARTESIAN_POINT ( 'NONE',  ( 7.250000000000000000, 1.000000000000000000, -10.50000000000000000 ) ) ;
#362 = DIRECTION ( 'NONE',  ( -1.000000000000000000, 0.000000000000000000, 5.782411586589357639E-16 ) ) ;
#363 = ORIENTED_EDGE ( 'NONE', *, *, #434, .F. ) ;
#364 = ADVANCED_FACE ( 'NONE', ( #159 ), #99, .F. ) ;
#365 = LINE ( 'NONE', #574, #323 ) ;
#366 = ORIENTED_EDGE ( 'NONE', *, *, #496, .F. ) ;
#367 = CARTESIAN_POINT ( 'NONE',  ( 7.250000000000006217, 1.000000000000000000, -4.192248400277289071E-15 ) ) ;
#368 = VECTOR ( 'NONE', #508, 1000.000000000000000 ) ;
#369 = VECTOR ( 'NONE', #57, 1000.000000000000000 ) ;
#370 = ORIENTED_EDGE ( 'NONE', *, *, #529, .T. ) ;
#371 = VERTEX_POINT ( 'NONE', #417 ) ;
#372 = EDGE_LOOP ( 'NONE', ( #649, #139, #251, #370 ) ) ;
#373 = MANIFOLD_SOLID_BREP ( 'Boss-Extrude3', #500 ) ;
#374 = CARTESIAN_POINT ( 'NONE',  ( 4.750000000000000000, 0.2999999999999999334, -1.499999999999999556 ) ) ;
#375 = CARTESIAN_POINT ( 'NONE',  ( 0.000000000000000000, 1.000000000000000000, 0.000000000000000000 ) ) ;
#376 = ADVANCED_FACE ( 'NONE', ( #102 ), #208, .T. ) ;
#377 = LINE ( 'NONE', #186, #445 ) ;
#378 = VECTOR ( 'NONE', #592, 1000.000000000000000 ) ;
#379 = ORIENTED_EDGE ( 'NONE', *, *, #148, .T. ) ;
#380 = DIRECTION ( 'NONE',  ( 0.000000000000000000, 0.000000000000000000, -1.000000000000000000 ) ) ;
#381 = ORIENTED_EDGE ( 'NONE', *, *, #619, .T. ) ;
#382 = EDGE_CURVE ( 'NONE', #175, #575, #365, .T. ) ;
#383 = DIRECTION ( 'NONE',  ( -0.000000000000000000, -1.000000000000000000, -0.000000000000000000 ) ) ;
#384 = ORIENTED_EDGE ( 'NONE', *, *, #168, .F. ) ;
#385 = CARTESIAN_POINT ( 'NONE',  ( 0.000000000000000000, 0.2999999999999999889, -12.00000000000000000 ) ) ;
#386 = EDGE_CURVE ( 'NONE', #636, #132, #578, .T. ) ;
#387 = DIRECTION ( 'NONE',  ( 1.000000000000000000, -0.000000000000000000, 0.000000000000000000 ) ) ;
#388 = AXIS2_PLACEMENT_3D ( 'NONE', #650, #657, #182 ) ;
#389 = ORIENTED_EDGE ( 'NONE', *, *, #295, .T. ) ;
#390 = VECTOR ( 'NONE', #211, 1000.000000000000000 ) ;
#391 = AXIS2_PLACEMENT_3D ( 'NONE', #612, #37, #247 ) ;
#392 = CARTESIAN_POINT ( 'NONE',  ( 0.000000000000000000, 0.000000000000000000, 0.000000000000000000 ) ) ;
#393 = DIRECTION ( 'NONE',  ( -0.000000000000000000, -1.000000000000000000, -0.000000000000000000 ) ) ;
#394 = EDGE_LOOP ( 'NONE', ( #664, #23, #66, #381 ) ) ;
#395 = DIRECTION ( 'NONE',  ( -1.000000000000000000, 0.000000000000000000, -0.000000000000000000 ) ) ;
#396 = LINE ( 'NONE', #146, #513 ) ;
#397 = ORIENTED_EDGE ( 'NONE', *, *, #647, .T. ) ;
#398 = EDGE_CURVE ( 'NONE', #319, #425, #44, .T. ) ;
#399 = DIRECTION ( 'NONE',  ( 1.000000000000000000, -0.000000000000000000, 0.000000000000000000 ) ) ;
#400 = DIRECTION ( 'NONE',  ( 5.782411586589358625E-16, 0.000000000000000000, -1.000000000000000000 ) ) ;
#401 = ORIENTED_EDGE ( 'NONE', *, *, #82, .T. ) ;
#402 = MECHANICAL_DESIGN_GEOMETRIC_PRESENTATION_REPRESENTATION (  '', ( #428 ), #533 ) ;
#403 = DIRECTION ( 'NONE',  ( -0.000000000000000000, -1.000000000000000000, -0.000000000000000000 ) ) ;
#404 = AXIS2_PLACEMENT_3D ( 'NONE', #259, #423, #55 ) ;
#405 = FACE_OUTER_BOUND ( 'NONE', #288, .T. ) ;
#406 = ORIENTED_EDGE ( 'NONE', *, *, #471, .F. ) ;
#407 = FILL_AREA_STYLE ('',( #197 ) ) ;
#408 = EDGE_CURVE ( 'NONE', #620, #80, #358, .T. ) ;
#409 = LINE ( 'NONE', #618, #8 ) ;
#410 = ORIENTED_EDGE ( 'NONE', *, *, #105, .T. ) ;
#411 = DIRECTION ( 'NONE',  ( 0.000000000000000000, -0.000000000000000000, 1.000000000000000000 ) ) ;
#412 = EDGE_LOOP ( 'NONE', ( #494, #112, #224, #488 ) ) ;
#413 = VECTOR ( 'NONE', #558, 1000.000000000000000 ) ;
#414 = DIRECTION ( 'NONE',  ( 0.000000000000000000, 0.000000000000000000, 1.000000000000000000 ) ) ;
#415 = ORIENTED_EDGE ( 'NONE', *, *, #408, .T. ) ;
#416 =( NAMED_UNIT ( * ) PLANE_ANGLE_UNIT ( ) SI_UNIT ( $, .RADIAN. ) );
#417 = CARTESIAN_POINT ( 'NONE',  ( 12.00000000000000000, 0.2999999999999999889, -7.500000000000000000 ) ) ;
#418 = DIRECTION ( 'NONE',  ( 1.000000000000000000, -0.000000000000000000, 0.000000000000000000 ) ) ;
#419 = EDGE_CURVE ( 'NONE', #671, #575, #317, .T. ) ;
#420 = FACE_OUTER_BOUND ( 'NONE', #202, .T. ) ;
#421 = SURFACE_SIDE_STYLE ('',( #581 ) ) ;
#422 = AXIS2_PLACEMENT_3D ( 'NONE', #32, #250, #352 ) ;
#423 = DIRECTION ( 'NONE',  ( 1.000000000000000000, 0.000000000000000000, 0.000000000000000000 ) ) ;
#424 = DIRECTION ( 'NONE',  ( 1.000000000000000000, 0.000000000000000000, -5.782411586589358625E-16 ) ) ;
#425 = VERTEX_POINT ( 'NONE', #320 ) ;
#426 = DIRECTION ( 'NONE',  ( -5.782411586589357639E-16, 0.000000000000000000, -1.000000000000000000 ) ) ;
#427 = ORIENTED_EDGE ( 'NONE', *, *, #148, .F. ) ;
#428 = STYLED_ITEM ( 'NONE', ( #629 ), #373 ) ;
#429 = CARTESIAN_POINT ( 'NONE',  ( 7.249999999999999112, 1.000000000000000000, 4.192248400277284337E-15 ) ) ;
#430 = AXIS2_PLACEMENT_3D ( 'NONE', #98, #144, #461 ) ;
#431 = PRODUCT_DEFINITION_SHAPE ( 'NONE', 'NONE',  #462 ) ;
#432 = VECTOR ( 'NONE', #71, 1000.000000000000000 ) ;
#433 = ORIENTED_EDGE ( 'NONE', *, *, #571, .F. ) ;
#434 = EDGE_CURVE ( 'NONE', #316, #455, #466, .T. ) ;
#435 = PLANE ( 'NONE',  #315 ) ;
#436 = EDGE_LOOP ( 'NONE', ( #297, #293, #645, #26 ) ) ;
#437 = EDGE_CURVE ( 'NONE', #636, #484, #622, .T. ) ;
#438 = CARTESIAN_POINT ( 'NONE',  ( 0.000000000000000000, 0.2999999999999999889, -7.500000000000000000 ) ) ;
#439 = FACE_BOUND ( 'NONE', #602, .T. ) ;
#440 = ORIENTED_EDGE ( 'NONE', *, *, #212, .F. ) ;
#441 = CYLINDRICAL_SURFACE ( 'NONE', #595, 3.249999999999999556 ) ;
#442 = DIRECTION ( 'NONE',  ( 0.000000000000000000, 0.000000000000000000, 1.000000000000000000 ) ) ;
#443 = AXIS2_PLACEMENT_3D ( 'NONE', #50, #89, #516 ) ;
#444 = ORIENTED_EDGE ( 'NONE', *, *, #270, .F. ) ;
#445 = VECTOR ( 'NONE', #642, 1000.000000000000000 ) ;
#446 = PLANE ( 'NONE',  #486 ) ;
#447 = EDGE_CURVE ( 'NONE', #14, #120, #525, .T. ) ;
#448 = FACE_OUTER_BOUND ( 'NONE', #100, .T. ) ;
#449 = ORIENTED_EDGE ( 'NONE', *, *, #678, .T. ) ;
#450 = CARTESIAN_POINT ( 'NONE',  ( 7.250000000000006217, 1.000000000000000000, -4.192248400277289071E-15 ) ) ;
#451 = DIRECTION ( 'NONE',  ( 0.000000000000000000, 0.000000000000000000, 1.000000000000000000 ) ) ;
#452 = ORIENTED_EDGE ( 'NONE', *, *, #318, .F. ) ;
#453 = LINE ( 'NONE', #78, #498 ) ;
#454 = DIRECTION ( 'NONE',  ( -1.000000000000000000, 0.000000000000000000, -0.000000000000000000 ) ) ;
#455 = VERTEX_POINT ( 'NONE', #47 ) ;
#456 = ADVANCED_FACE ( 'NONE', ( #255 ), #51, .T. ) ;
#457 = LINE ( 'NONE', #675, #141 ) ;
#458 = VECTOR ( 'NONE', #523, 1000.000000000000000 ) ;
#459 = FACE_OUTER_BOUND ( 'NONE', #116, .T. ) ;
#460 = VERTEX_POINT ( 'NONE', #54 ) ;
#461 = DIRECTION ( 'NONE',  ( -1.000000000000000000, 0.000000000000000000, -0.000000000000000000 ) ) ;
#462 = PRODUCT_DEFINITION ( 'General', '', #511, #478 ) ;
#463 = PLANE ( 'NONE',  #568 ) ;
#464 = VERTEX_POINT ( 'NONE', #81 ) ;
#465 = PLANE ( 'NONE',  #430 ) ;
#466 = LINE ( 'NONE', #673, #289 ) ;
#467 = VERTEX_POINT ( 'NONE', #24 ) ;
#468 = DIRECTION ( 'NONE',  ( 1.000000000000000000, -0.000000000000000000, 0.000000000000000000 ) ) ;
#469 = CIRCLE ( 'NONE', #110, 3.249999999999999112 ) ;
#470 = CARTESIAN_POINT ( 'NONE',  ( 4.750000000000000000, 1.000000000000000000, -10.50000000000000000 ) ) ;
#471 = EDGE_CURVE ( 'NONE', #653, #548, #34, .T. ) ;
#472 = DIRECTION ( 'NONE',  ( 5.782411586589357639E-16, 0.000000000000000000, 1.000000000000000000 ) ) ;
#473 = DIRECTION ( 'NONE',  ( -0.000000000000000000, -1.000000000000000000, -0.000000000000000000 ) ) ;
#474 = LINE ( 'NONE', #480, #234 ) ;
#475 = LINE ( 'NONE', #210, #60 ) ;
#476 = ORIENTED_EDGE ( 'NONE', *, *, #611, .F. ) ;
#477 = EDGE_CURVE ( 'NONE', #464, #455, #278, .T. ) ;
#478 = PRODUCT_DEFINITION_CONTEXT ( 'detailed design', #633, 'design' ) ;
#479 = AXIS2_PLACEMENT_3D ( 'NONE', #625, #5, #165 ) ;
#480 = CARTESIAN_POINT ( 'NONE',  ( 0.000000000000000000, 1.000000000000000000, -10.50000000000000000 ) ) ;
#481 = CARTESIAN_POINT ( 'NONE',  ( 12.00000000000000000, 0.2999999999999999889, -7.500000000000000000 ) ) ;
#482 = UNCERTAINTY_MEASURE_WITH_UNIT (LENGTH_MEASURE( 1.000000000000000082E-05 ), #661, 'distance_accuracy_value', 'NONE');
#483 = CARTESIAN_POINT ( 'NONE',  ( 19.00000000000000000, 0.2999999999999999889, 0.000000000000000000 ) ) ;
#484 = VERTEX_POINT ( 'NONE', #241 ) ;
#485 = DIRECTION ( 'NONE',  ( 0.000000000000000000, 0.000000000000000000, -1.000000000000000000 ) ) ;
#486 = AXIS2_PLACEMENT_3D ( 'NONE', #27, #654, #232 ) ;
#487 = AXIS2_PLACEMENT_3D ( 'NONE', #292, #354, #565 ) ;
#488 = ORIENTED_EDGE ( 'NONE', *, *, #121, .T. ) ;
#489 = LINE ( 'NONE', #179, #117 ) ;
#490 = CARTESIAN_POINT ( 'NONE',  ( 0.000000000000000000, 0.2999999999999999889, 0.000000000000000000 ) ) ;
#491 = ORIENTED_EDGE ( 'NONE', *, *, #82, .F. ) ;
#492 = CARTESIAN_POINT ( 'NONE',  ( 7.249999999999999112, 0.2999999999999999889, -12.00000000000000000 ) ) ;
#493 = LINE ( 'NONE', #126, #153 ) ;
#494 = ORIENTED_EDGE ( 'NONE', *, *, #419, .T. ) ;
#495 = DIRECTION ( 'NONE',  ( -0.000000000000000000, -1.000000000000000000, -0.000000000000000000 ) ) ;
#496 = EDGE_CURVE ( 'NONE', #484, #460, #489, .T. ) ;
#497 = DIRECTION ( 'NONE',  ( 1.000000000000000000, -0.000000000000000000, 5.782411586589358625E-16 ) ) ;
#498 = VECTOR ( 'NONE', #286, 1000.000000000000000 ) ;
#499 = ORIENTED_EDGE ( 'NONE', *, *, #260, .T. ) ;
#500 = CLOSED_SHELL ( 'NONE', ( #456, #539, #198, #244, #332, #40, #562, #281, #639, #229, #577, #239, #263, #376, #285, #58, #628, #364, #72, #520, #91 ) ) ;
#501 = CARTESIAN_POINT ( 'NONE',  ( 0.000000000000000000, 0.000000000000000000, -4.500000000000000888 ) ) ;
#502 = PLANE ( 'NONE',  #222 ) ;
#503 = ORIENTED_EDGE ( 'NONE', *, *, #437, .T. ) ;
#504 = FACE_OUTER_BOUND ( 'NONE', #372, .T. ) ;
#505 = CARTESIAN_POINT ( 'NONE',  ( 0.000000000000000000, 0.2999999999999999889, -4.500000000000000888 ) ) ;
#506 = EDGE_CURVE ( 'NONE', #605, #455, #453, .T. ) ;
#507 = ORIENTED_EDGE ( 'NONE', *, *, #549, .F. ) ;
#508 = DIRECTION ( 'NONE',  ( 5.782411586589358625E-16, 0.000000000000000000, 1.000000000000000000 ) ) ;
#509 = DIRECTION ( 'NONE',  ( 1.000000000000000000, -0.000000000000000000, 0.000000000000000000 ) ) ;
#510 = VERTEX_POINT ( 'NONE', #228 ) ;
#511 = PRODUCT_DEFINITION_FORMATION_WITH_SPECIFIED_SOURCE ( 'Symmetric', '', #277, .NOT_KNOWN. ) ;
#512 = DIRECTION ( 'NONE',  ( -0.000000000000000000, -1.000000000000000000, -0.000000000000000000 ) ) ;
#513 = VECTOR ( 'NONE', #303, 1000.000000000000000 ) ;
#514 = CARTESIAN_POINT ( 'NONE',  ( 7.249999999999999112, 0.2999999999999999889, 4.192248400277284337E-15 ) ) ;
#515 = ORIENTED_EDGE ( 'NONE', *, *, #318, .T. ) ;
#516 = DIRECTION ( 'NONE',  ( 0.000000000000000000, 0.000000000000000000, 1.000000000000000000 ) ) ;
#517 = DIRECTION ( 'NONE',  ( -0.000000000000000000, -1.000000000000000000, -0.000000000000000000 ) ) ;
#518 = ORIENTED_EDGE ( 'NONE', *, *, #611, .T. ) ;
#519 = LINE ( 'NONE', #351, #458 ) ;
#520 = ADVANCED_FACE ( 'NONE', ( #67 ), #441, .T. ) ;
#521 = DIRECTION ( 'NONE',  ( 1.000000000000000000, -0.000000000000000000, 0.000000000000000000 ) ) ;
#522 = LINE ( 'NONE', #217, #665 ) ;
#523 = DIRECTION ( 'NONE',  ( -0.000000000000000000, -1.000000000000000000, -0.000000000000000000 ) ) ;
#524 = CIRCLE ( 'NONE', #443, 3.249999999999999112 ) ;
#525 = LINE ( 'NONE', #361, #246 ) ;
#526 = DIRECTION ( 'NONE',  ( -5.782411586589358625E-16, 0.000000000000000000, 1.000000000000000000 ) ) ;
#527 = CARTESIAN_POINT ( 'NONE',  ( 6.000000000000000000, 2.000000000000000000, -6.000000000000000000 ) ) ;
#528 = VERTEX_POINT ( 'NONE', #492 ) ;
#529 = EDGE_CURVE ( 'NONE', #181, #467, #282, .T. ) ;
#530 = DIRECTION ( 'NONE',  ( 1.000000000000000000, -0.000000000000000000, 0.000000000000000000 ) ) ;
#531 = CARTESIAN_POINT ( 'NONE',  ( 0.000000000000000000, 0.2999999999999999889, 0.000000000000000000 ) ) ;
#532 = EDGE_CURVE ( 'NONE', #510, #178, #95, .T. ) ;
#533 =( GEOMETRIC_REPRESENTATION_CONTEXT ( 3 ) GLOBAL_UNCERTAINTY_ASSIGNED_CONTEXT ( ( #580 ) ) GLOBAL_UNIT_ASSIGNED_CONTEXT ( ( #309, #676, #10 ) ) REPRESENTATION_CONTEXT ( 'NONE', 'WORKASPACE' ) );
#534 = VECTOR ( 'NONE', #331, 1000.000000000000000 ) ;
#535 = LINE ( 'NONE', #531, #369 ) ;
#536 = FACE_OUTER_BOUND ( 'NONE', #616, .T. ) ;
#537 = VERTEX_POINT ( 'NONE', #290 ) ;
#538 = SHAPE_DEFINITION_REPRESENTATION ( #431, #302 ) ;
#539 = ADVANCED_FACE ( 'NONE', ( #504 ), #446, .T. ) ;
#540 = CARTESIAN_POINT ( 'NONE',  ( 0.000000000000000000, 0.2999999999999999889, -7.500000000000000000 ) ) ;
#541 = ORIENTED_EDGE ( 'NONE', *, *, #386, .F. ) ;
#542 = LINE ( 'NONE', #594, #172 ) ;
#543 = VECTOR ( 'NONE', #530, 1000.000000000000000 ) ;
#544 = LINE ( 'NONE', #540, #432 ) ;
#545 = ORIENTED_EDGE ( 'NONE', *, *, #660, .T. ) ;
#546 = DIRECTION ( 'NONE',  ( 0.000000000000000000, 0.000000000000000000, 1.000000000000000000 ) ) ;
#547 = DIRECTION ( 'NONE',  ( 0.000000000000000000, 1.000000000000000000, -0.000000000000000000 ) ) ;
#548 = VERTEX_POINT ( 'NONE', #225 ) ;
#549 = EDGE_CURVE ( 'NONE', #636, #175, #86, .T. ) ;
#550 = CARTESIAN_POINT ( 'NONE',  ( 19.00000000000000000, 0.2999999999999999889, -4.500000000000000888 ) ) ;
#551 = DIRECTION ( 'NONE',  ( 5.782411586589357639E-16, 0.000000000000000000, -1.000000000000000000 ) ) ;
#552 = ORIENTED_EDGE ( 'NONE', *, *, #398, .F. ) ;
#553 = LINE ( 'NONE', #31, #556 ) ;
#554 = FACE_OUTER_BOUND ( 'NONE', #275, .T. ) ;
#555 = AXIS2_PLACEMENT_3D ( 'NONE', #367, #424, #306 ) ;
#556 = VECTOR ( 'NONE', #399, 1000.000000000000000 ) ;
#557 = ORIENTED_EDGE ( 'NONE', *, *, #477, .F. ) ;
#558 = DIRECTION ( 'NONE',  ( 1.000000000000000000, -0.000000000000000000, 0.000000000000000000 ) ) ;
#559 = CARTESIAN_POINT ( 'NONE',  ( 4.750000000000000888, 1.000000000000000000, -12.00000000000000000 ) ) ;
#560 = ORIENTED_EDGE ( 'NONE', *, *, #295, .F. ) ;
#561 = FACE_OUTER_BOUND ( 'NONE', #330, .T. ) ;
#562 = ADVANCED_FACE ( 'NONE', ( #188 ), #344, .T. ) ;
#563 = LINE ( 'NONE', #666, #214 ) ;
#564 = EDGE_LOOP ( 'NONE', ( #491, #427, #328, #114 ) ) ;
#565 = DIRECTION ( 'NONE',  ( 0.000000000000000000, 0.000000000000000000, 1.000000000000000000 ) ) ;
#566 = VERTEX_POINT ( 'NONE', #167 ) ;
#567 = VECTOR ( 'NONE', #468, 1000.000000000000000 ) ;
#568 = AXIS2_PLACEMENT_3D ( 'NONE', #670, #497, #400 ) ;
#569 = DIRECTION ( 'NONE',  ( -0.000000000000000000, -1.000000000000000000, -0.000000000000000000 ) ) ;
#570 = ORIENTED_EDGE ( 'NONE', *, *, #253, .T. ) ;
#571 = EDGE_CURVE ( 'NONE', #566, #88, #542, .T. ) ;
#572 = CARTESIAN_POINT ( 'NONE',  ( 19.00000000000000000, 0.2999999999999999889, -7.500000000000000000 ) ) ;
#573 = DIRECTION ( 'NONE',  ( 0.000000000000000000, 1.000000000000000000, -0.000000000000000000 ) ) ;
#574 = CARTESIAN_POINT ( 'NONE',  ( 4.750000000000000000, 1.000000000000000000, -1.499999999999999556 ) ) ;
#575 = VERTEX_POINT ( 'NONE', #374 ) ;
#576 = VECTOR ( 'NONE', #551, 1000.000000000000000 ) ;
#577 = ADVANCED_FACE ( 'NONE', ( #129 ), #585, .F. ) ;
#578 = LINE ( 'NONE', #111, #274 ) ;
#579 = CARTESIAN_POINT ( 'NONE',  ( 6.000000000000000000, 2.000000000000000000, -2.750000000000001332 ) ) ;
#580 = UNCERTAINTY_MEASURE_WITH_UNIT (LENGTH_MEASURE( 1.000000000000000082E-05 ), #309, 'distance_accuracy_value', 'NONE');
#581 = SURFACE_STYLE_FILL_AREA ( #264 ) ;
#582 = EDGE_CURVE ( 'NONE', #528, #120, #133, .T. ) ;
#583 = ORIENTED_EDGE ( 'NONE', *, *, #326, .F. ) ;
#584 = ORIENTED_EDGE ( 'NONE', *, *, #64, .F. ) ;
#585 = PLANE ( 'NONE',  #162 ) ;
#586 = FACE_OUTER_BOUND ( 'NONE', #53, .T. ) ;
#587 = CARTESIAN_POINT ( 'NONE',  ( 7.250000000000000000, 0.2999999999999999889, -10.50000000000000000 ) ) ;
#588 = ORIENTED_EDGE ( 'NONE', *, *, #386, .T. ) ;
#589 = DIRECTION ( 'NONE',  ( 0.000000000000000000, 0.000000000000000000, 1.000000000000000000 ) ) ;
#590 = CARTESIAN_POINT ( 'NONE',  ( 4.750000000000000888, 0.2999999999999999334, 0.000000000000000000 ) ) ;
#591 = ORIENTED_EDGE ( 'NONE', *, *, #312, .F. ) ;
#592 = DIRECTION ( 'NONE',  ( 0.000000000000000000, 0.000000000000000000, -1.000000000000000000 ) ) ;
#593 = VERTEX_POINT ( 'NONE', #191 ) ;
#594 = CARTESIAN_POINT ( 'NONE',  ( 12.00000000000000000, 0.2999999999999999889, -12.00000000000000000 ) ) ;
#595 = AXIS2_PLACEMENT_3D ( 'NONE', #347, #495, #140 ) ;
#596 = CARTESIAN_POINT ( 'NONE',  ( 0.000000000000000000, 1.000000000000000000, -1.499999999999999556 ) ) ;
#597 = VECTOR ( 'NONE', #119, 1000.000000000000000 ) ;
#598 = VECTOR ( 'NONE', #349, 1000.000000000000000 ) ;
#599 = VERTEX_POINT ( 'NONE', #124 ) ;
#600 = DIRECTION ( 'NONE',  ( -0.000000000000000000, -1.000000000000000000, -0.000000000000000000 ) ) ;
#601 = LINE ( 'NONE', #429, #301 ) ;
#602 = EDGE_LOOP ( 'NONE', ( #6, #160 ) ) ;
#603 = DIRECTION ( 'NONE',  ( 5.782411586589358625E-16, 0.000000000000000000, 1.000000000000000000 ) ) ;
#604 = DIRECTION ( 'NONE',  ( 1.000000000000000000, 0.000000000000000000, -0.000000000000000000 ) ) ;
#605 = VERTEX_POINT ( 'NONE', #550 ) ;
#606 = CARTESIAN_POINT ( 'NONE',  ( 4.750000000000000888, 1.000000000000000000, -2.746645503629945224E-15 ) ) ;
#607 = CARTESIAN_POINT ( 'NONE',  ( 19.00000000000000000, 0.000000000000000000, -7.500000000000000000 ) ) ;
#608 =( GEOMETRIC_REPRESENTATION_CONTEXT ( 3 ) GLOBAL_UNCERTAINTY_ASSIGNED_CONTEXT ( ( #77 ) ) GLOBAL_UNIT_ASSIGNED_CONTEXT ( ( #258, #416, #245 ) ) REPRESENTATION_CONTEXT ( 'NONE', 'WORKASPACE' ) );
#609 = EDGE_LOOP ( 'NONE', ( #322, #19 ) ) ;
#610 = CARTESIAN_POINT ( 'NONE',  ( 4.750000000000000888, 1.000000000000000000, 0.000000000000000000 ) ) ;
#611 = EDGE_CURVE ( 'NONE', #181, #425, #553, .T. ) ;
#612 = CARTESIAN_POINT ( 'NONE',  ( 6.000000000000000000, 2.000000000000000000, -6.000000000000000000 ) ) ;
#613 = ORIENTED_EDGE ( 'NONE', *, *, #20, .F. ) ;
#614 = CARTESIAN_POINT ( 'NONE',  ( 12.00000000000000000, 0.2999999999999999889, 0.000000000000000000 ) ) ;
#615 = FACE_OUTER_BOUND ( 'NONE', #643, .T. ) ;
#616 = EDGE_LOOP ( 'NONE', ( #346, #630, #221, #366, #656, #588, #307, #356 ) ) ;
#617 =( NAMED_UNIT ( * ) SI_UNIT ( $, .STERADIAN. ) SOLID_ANGLE_UNIT ( ) );
#618 = CARTESIAN_POINT ( 'NONE',  ( 12.00000000000000000, 0.000000000000000000, 0.000000000000000000 ) ) ;
#619 = EDGE_CURVE ( 'NONE', #626, #14, #237, .T. ) ;
#620 = VERTEX_POINT ( 'NONE', #357 ) ;
#621 = CARTESIAN_POINT ( 'NONE',  ( 0.000000000000000000, 0.2999999999999999889, 0.000000000000000000 ) ) ;
#622 = LINE ( 'NONE', #156, #543 ) ;
#623 = ORIENTED_EDGE ( 'NONE', *, *, #145, .T. ) ;
#624 = FACE_OUTER_BOUND ( 'NONE', #436, .T. ) ;
#625 = CARTESIAN_POINT ( 'NONE',  ( 0.000000000000000000, 1.000000000000000000, -1.499999999999999556 ) ) ;
#626 = VERTEX_POINT ( 'NONE', #305 ) ;
#627 = APPLICATION_PROTOCOL_DEFINITION ( 'draft international standard', 'automotive_design', 1998, #104 ) ;
#628 = ADVANCED_FACE ( 'NONE', ( #624 ), #46, .F. ) ;
#629 = PRESENTATION_STYLE_ASSIGNMENT (( #203 ) ) ;
#630 = ORIENTED_EDGE ( 'NONE', *, *, #253, .F. ) ;
#631 = EDGE_CURVE ( 'NONE', #599, #316, #308, .T. ) ;
#632 = VECTOR ( 'NONE', #442, 1000.000000000000000 ) ;
#633 = APPLICATION_CONTEXT ( 'automotive_design' ) ;
#634 = CARTESIAN_POINT ( 'NONE',  ( 4.749999999999993783, 1.000000000000000000, 2.746645503629941674E-15 ) ) ;
#635 = DIRECTION ( 'NONE',  ( -0.000000000000000000, -1.000000000000000000, -0.000000000000000000 ) ) ;
#636 = VERTEX_POINT ( 'NONE', #610 ) ;
#637 = APPLICATION_PROTOCOL_DEFINITION ( 'draft international standard', 'automotive_design', 1998, #633 ) ;
#638 = LINE ( 'NONE', #223, #248 ) ;
#639 = ADVANCED_FACE ( 'NONE', ( #561 ), #465, .T. ) ;
#640 = ORIENTED_EDGE ( 'NONE', *, *, #529, .F. ) ;
#641 = CARTESIAN_POINT ( 'NONE',  ( 0.000000000000000000, 0.000000000000000000, 0.000000000000000000 ) ) ;
#642 = DIRECTION ( 'NONE',  ( -0.000000000000000000, -1.000000000000000000, -0.000000000000000000 ) ) ;
#643 = EDGE_LOOP ( 'NONE', ( #452, #476, #440, #449, #157, #73, #591, #143, #150, #63, #154, #187, #300, #280, #321, #265 ) ) ;
#644 = LINE ( 'NONE', #177, #378 ) ;
#645 = ORIENTED_EDGE ( 'NONE', *, *, #164, .F. ) ;
#646 = DIRECTION ( 'NONE',  ( -0.000000000000000000, -1.000000000000000000, -0.000000000000000000 ) ) ;
#647 = EDGE_CURVE ( 'NONE', #123, #510, #519, .T. ) ;
#648 = LINE ( 'NONE', #596, #597 ) ;
#649 = ORIENTED_EDGE ( 'NONE', *, *, #176, .F. ) ;
#650 = CARTESIAN_POINT ( 'NONE',  ( 6.000000000000000000, 0.2999999999999999889, -6.000000000000000000 ) ) ;
#651 = LINE ( 'NONE', #283, #59 ) ;
#652 = COLOUR_RGB ( '',0.7960784313725489669, 0.8235294117647058432, 0.9372549019607843146 ) ;
#653 = VERTEX_POINT ( 'NONE', #614 ) ;
#654 = DIRECTION ( 'NONE',  ( -1.000000000000000000, 0.000000000000000000, 0.000000000000000000 ) ) ;
#655 = CARTESIAN_POINT ( 'NONE',  ( 6.000000000000000000, 0.2999999999999999889, -6.000000000000000000 ) ) ;
#656 = ORIENTED_EDGE ( 'NONE', *, *, #437, .F. ) ;
#657 = DIRECTION ( 'NONE',  ( 0.000000000000000000, 1.000000000000000000, -0.000000000000000000 ) ) ;
#658 = CARTESIAN_POINT ( 'NONE',  ( 4.749999999999993783, 0.2999999999999999889, 2.746645503629941674E-15 ) ) ;
#659 = ORIENTED_EDGE ( 'NONE', *, *, #660, .F. ) ;
#660 = EDGE_CURVE ( 'NONE', #548, #464, #457, .T. ) ;
#661 =( LENGTH_UNIT ( ) NAMED_UNIT ( * ) SI_UNIT ( .MILLI., .METRE. ) );
#662 = PLANE ( 'NONE',  #487 ) ;
#663 = VECTOR ( 'NONE', #603, 1000.000000000000000 ) ;
#664 = ORIENTED_EDGE ( 'NONE', *, *, #447, .T. ) ;
#665 = VECTOR ( 'NONE', #418, 1000.000000000000000 ) ;
#666 = CARTESIAN_POINT ( 'NONE',  ( 0.000000000000000000, 1.000000000000000000, -12.00000000000000000 ) ) ;
#667 = ORIENTED_EDGE ( 'NONE', *, *, #270, .T. ) ;
#668 =( NAMED_UNIT ( * ) PLANE_ANGLE_UNIT ( ) SI_UNIT ( $, .RADIAN. ) );
#669 = EDGE_CURVE ( 'NONE', #123, #267, #524, .T. ) ;
#670 = CARTESIAN_POINT ( 'NONE',  ( 4.749999999999993783, 1.000000000000000000, 2.746645503629941674E-15 ) ) ;
#671 = VERTEX_POINT ( 'NONE', #672 ) ;
#672 = CARTESIAN_POINT ( 'NONE',  ( 7.250000000000000000, 0.2999999999999999334, -1.499999999999999556 ) ) ;
#673 = CARTESIAN_POINT ( 'NONE',  ( 19.00000000000000000, 0.000000000000000000, -0.000000000000000000 ) ) ;
#674 = ORIENTED_EDGE ( 'NONE', *, *, #647, .F. ) ;
#675 = CARTESIAN_POINT ( 'NONE',  ( 12.00000000000000000, 0.2999999999999999889, -4.500000000000000888 ) ) ;
#676 =( NAMED_UNIT ( * ) PLANE_ANGLE_UNIT ( ) SI_UNIT ( $, .RADIAN. ) );
#677 = DIRECTION ( 'NONE',  ( 1.000000000000000000, -0.000000000000000000, 0.000000000000000000 ) ) ;
#678 = EDGE_CURVE ( 'NONE', #304, #132, #298, .T. ) ;
ENDSEC;
END-ISO-10303-21;
