ISO-10303-21;
HEADER;
FILE_DESCRIPTION (( 'STEP AP214' ),
    '1' );
FILE_NAME ('Battery_Twist_Lock_Pack.SLDASM.STEP',
    '2026-08-21T20:26:05',
    ( '' ),
    ( '' ),
    'SwSTEP 2.0',
    'SolidWorks 2025',
    '' );
FILE_SCHEMA (( 'AUTOMOTIVE_DESIGN' ));
ENDSEC;

DATA;
#1 = ITEM_DEFINED_TRANSFORMATION ( 'NONE', 'NONE', #232,  #577 ) ;
#2 = PROPERTY_DEFINITION ('external definition','', #425 ) ;
#3 = PRODUCT_RELATED_PRODUCT_CATEGORY ( 'part', '', ( #526 ) ) ;
#4 = APPLIED_EXTERNAL_IDENTIFICATION_ASSIGNMENT ( 'Twist_Lock_Wing.STEP' , #510, #400,( #523) ) ;
#5 = PROPERTY_DEFINITION_REPRESENTATION ( #2, #662 ) ;
#6 = APPLICATION_PROTOCOL_DEFINITION ( 'draft international standard', 'automotive_design', 1998, #629 ) ;
#7 = AXIS2_PLACEMENT_3D ( 'NONE', #348, #174, #32 ) ;
#8 = DIRECTION ( 'NONE',  ( 1.000000000000000000, 0.000000000000000000, 0.000000000000000000 ) ) ;
#9 = PROPERTY_DEFINITION ('external definition','', #768 ) ;
#10 = ROLE_ASSOCIATION ( #658, #75 ) ;
#11 = SHAPE_DEFINITION_REPRESENTATION ( #796, #662 ) ;
#12 = DOCUMENT_TYPE ( 'geometry' ) ;
#13 =( LENGTH_UNIT ( ) NAMED_UNIT ( * ) SI_UNIT ( .MILLI., .METRE. ) );
#14 = PRODUCT_DEFINITION ( 'General', '', #303, #92 ) ;
#15 = PROPERTY_DEFINITION ('document property','', #581 ) ;
#16 = ROLE_ASSOCIATION ( #574, #214 ) ;
#17 = EXTERNAL_SOURCE (IDENTIFIER('') ) ;
#18 = PRODUCT_CONTEXT ( 'NONE', #508, 'mechanical' ) ;
#19 = IDENTIFICATION_ROLE ( 'external document id and location', $) ;
#20 = CONTEXT_DEPENDENT_SHAPE_REPRESENTATION ( #654, #428 ) ;
#21 = SHAPE_DEFINITION_REPRESENTATION ( #202, #596 ) ;
#22 = SHAPE_REPRESENTATION ( 'Battery_Case_Bottom_Cover', ( #192 ), #96 ) ;
#23 =( LENGTH_UNIT ( ) NAMED_UNIT ( * ) SI_UNIT ( .MILLI., .METRE. ) );
#24 = APPLIED_DOCUMENT_REFERENCE ( #511,'',( #651) ) ;
#25 = SHAPE_DEFINITION_REPRESENTATION ( #503, #22 ) ;
#26 = DOCUMENT_TYPE ( 'geometry' ) ;
#27 = IDENTIFICATION_ROLE ( 'external document id and location', $) ;
#28 = PROPERTY_DEFINITION ('external definition','', #367 ) ;
#29 = PROPERTY_DEFINITION ('document property','', #716 ) ;
#30 = ITEM_DEFINED_TRANSFORMATION ( 'NONE', 'NONE', #555,  #741 ) ;
#31 = UNCERTAINTY_MEASURE_WITH_UNIT (LENGTH_MEASURE( 1.000000000000000082E-05 ), #393, 'distance_accuracy_value', 'NONE');
#32 = DIRECTION ( 'NONE',  ( 1.000000000000000000, 0.000000000000000000, 0.000000000000000000 ) ) ;
#33 = PRODUCT_RELATED_PRODUCT_CATEGORY ( 'part', '', ( #572 ) ) ;
#34 = DIRECTION ( 'NONE',  ( -0.005287830887529412251, 1.040834085586084257E-17, -0.9999860193245229123 ) ) ;
#35 = PRODUCT ( 'socket countersunk head screw_iso_ISO 10642 - M3 x 8 - 8N', 'socket countersunk head screw_iso_ISO 10642 - M3 x 8 - 8N', '', ( #220 ) ) ;
#36 = PROPERTY_DEFINITION_REPRESENTATION ( #312, #531 ) ;
#37 = IDENTIFICATION_ROLE ( 'external document id and location', $) ;
#38 = DIRECTION ( 'NONE',  ( 0.7132504491541726832, 2.775557561562895295E-16, -0.7009092642998600020 ) ) ;
#39 =( GEOMETRIC_REPRESENTATION_CONTEXT ( 3 ) GLOBAL_UNCERTAINTY_ASSIGNED_CONTEXT ( ( #146 ) ) GLOBAL_UNIT_ASSIGNED_CONTEXT ( ( #678, #256, #130 ) ) REPRESENTATION_CONTEXT ( 'NONE', 'WORKASPACE' ) );
#40 = ROLE_ASSOCIATION ( #151, #24 ) ;
#41 = ROLE_ASSOCIATION ( #265, #173 ) ;
#42 = PRODUCT_DEFINITION_SHAPE ( 'NONE', 'NONE',  #844 ) ;
#43 = IDENTIFICATION_ROLE ( 'external document id and location', $) ;
#44 = PROPERTY_DEFINITION_REPRESENTATION ( #233, #531 ) ;
#45 = PRODUCT_RELATED_PRODUCT_CATEGORY ( 'part', '', ( #738 ) ) ;
#46 = DOCUMENT_FILE ( 'socket countersunk head screw_iso_ISO 10642 - M3 x 8 - 8N.STEP' , '', '', #299, '' ,$ ) ;
#47 = CARTESIAN_POINT ( 'NONE',  ( 530.4540965161210124, -70.69345557634171939, 1349.170396691105680 ) ) ;
#48 = DOCUMENT_TYPE ( 'geometry' ) ;
#49 = APPLIED_EXTERNAL_IDENTIFICATION_ASSIGNMENT ( 'socket countersunk head screw_iso_ISO 10642 - M3 x 8 - 8N.STEP' , #171, #62,( #581) ) ;
#50 = CONTEXT_DEPENDENT_SHAPE_REPRESENTATION ( #114, #491 ) ;
#51 = CARTESIAN_POINT ( 'NONE',  ( 559.9652757251731146, -85.08000000000301100, 1350.501239607309799 ) ) ;
#52 = AXIS2_PLACEMENT_3D ( 'NONE', #604, #736, #147 ) ;
#53 = ITEM_DEFINED_TRANSFORMATION ( 'NONE', 'NONE', #162,  #382 ) ;
#54 = DIRECTION ( 'NONE',  ( 0.9999860193245226903, -1.356607968322487423E-17, -0.005287830887529296892 ) ) ;
#55 = PRODUCT_DEFINITION ( 'General', '', #792, #493 ) ;
#56 = CARTESIAN_POINT ( 'NONE',  ( 534.1857675462395036, -8.080000000000135074, 1335.939610656395189 ) ) ;
#57 = OBJECT_ROLE ('mandatory',$ ) ;
#58 = APPLIED_DOCUMENT_REFERENCE ( #201,'',( #55) ) ;
#59 = APPLIED_EXTERNAL_IDENTIFICATION_ASSIGNMENT ( 'Battery_Spring_Contact.STEP' , #453, #403,( #487) ) ;
#60 = DIRECTION ( 'NONE',  ( -0.9999999999999998890, 0.000000000000000000, 4.302114220422481594E-16 ) ) ;
#61 = OBJECT_ROLE ('mandatory',$ ) ;
#62 = EXTERNAL_SOURCE (IDENTIFIER('') ) ;
#63 = PRODUCT_DEFINITION_SHAPE ( 'NONE', 'NONE',  #850 ) ;
#64 = APPLIED_DOCUMENT_REFERENCE ( #674,'',( #566) ) ;
#65 = AXIS2_PLACEMENT_3D ( 'NONE', #66, #535, #334 ) ;
#66 = CARTESIAN_POINT ( 'NONE',  ( 534.1782521861078976, -85.07999999999984198, 1348.515568137163882 ) ) ;
#67 = PRODUCT_DEFINITION_SHAPE ( 'NONE', 'NONE',  #855 ) ;
#68 = PROPERTY_DEFINITION_REPRESENTATION ( #225, #596 ) ;
#69 = DIRECTION ( 'NONE',  ( 0.005287830887529863279, -1.387778780781445676E-17, 0.9999860193245229123 ) ) ;
#70 =( NAMED_UNIT ( * ) PLANE_ANGLE_UNIT ( ) SI_UNIT ( $, .RADIAN. ) );
#71 = PROPERTY_DEFINITION ('external definition','', #523 ) ;
#72 = APPLICATION_PROTOCOL_DEFINITION ( 'draft international standard', 'automotive_design', 1998, #446 ) ;
#73 = IDENTIFICATION_ROLE ( 'external document id and location', $) ;
#74 = APPLIED_EXTERNAL_IDENTIFICATION_ASSIGNMENT ( 'Cell_21700.STEP' , #474, #556,( #685) ) ;
#75 = APPLIED_DOCUMENT_REFERENCE ( #685,'',( #566) ) ;
#76 = APPLICATION_PROTOCOL_DEFINITION ( 'draft international standard', 'automotive_design', 1998, #751 ) ;
#77 = OBJECT_ROLE ('mandatory',$ ) ;
#78 = PRODUCT_DEFINITION ( 'General', '', #191, #582 ) ;
#79 = AXIS2_PLACEMENT_3D ( 'NONE', #285, #839, #447 ) ;
#80 = PROPERTY_DEFINITION ('document property','', #85 ) ;
#81 = APPLICATION_PROTOCOL_DEFINITION ( 'draft international standard', 'automotive_design', 1998, #765 ) ;
#82 =( NAMED_UNIT ( * ) SI_UNIT ( $, .STERADIAN. ) SOLID_ANGLE_UNIT ( ) );
#83 = EXTERNAL_SOURCE (IDENTIFIER('') ) ;
#84 = PROPERTY_DEFINITION ('document property','', #774 ) ;
#85 = DOCUMENT_FILE ( 'Battery_Spring_Contact.STEP' , '', '', #683, '' ,$ ) ;
#86 = APPLICATION_PROTOCOL_DEFINITION ( 'draft international standard', 'automotive_design', 1998, #371 ) ;
#87 = APPLIED_EXTERNAL_IDENTIFICATION_ASSIGNMENT ( 'socket countersunk head screw_iso_ISO 10642 - M3 x 8 - 8N.STEP' , #725, #398,( #774) ) ;
#88 =( REPRESENTATION_RELATIONSHIP ('NONE','NONE', #483, #351 ) REPRESENTATION_RELATIONSHIP_WITH_TRANSFORMATION ( #308 )SHAPE_REPRESENTATION_RELATIONSHIP( ) );
#89 = ITEM_DEFINED_TRANSFORMATION ( 'NONE', 'NONE', #257,  #741 ) ;
#90 =( REPRESENTATION_RELATIONSHIP ('NONE','NONE', #483, #531 ) REPRESENTATION_RELATIONSHIP_WITH_TRANSFORMATION ( #569 )SHAPE_REPRESENTATION_RELATIONSHIP( ) );
#91 = PROPERTY_DEFINITION_REPRESENTATION ( #449, #419 ) ;
#92 = PRODUCT_DEFINITION_CONTEXT ( 'detailed design', #629, 'design' ) ;
#93 = AXIS2_PLACEMENT_3D ( 'NONE', #186, #661, #376 ) ;
#94 = PROPERTY_DEFINITION ('document property','', #685 ) ;
#95 = APPLIED_DOCUMENT_REFERENCE ( #810,'',( #78) ) ;
#96 =( GEOMETRIC_REPRESENTATION_CONTEXT ( 3 ) GLOBAL_UNCERTAINTY_ASSIGNED_CONTEXT ( ( #369 ) ) GLOBAL_UNIT_ASSIGNED_CONTEXT ( ( #818, #262, #338 ) ) REPRESENTATION_CONTEXT ( 'NONE', 'WORKASPACE' ) );
#97 = PRODUCT_DEFINITION_SHAPE ( 'NONE', 'NONE',  #863 ) ;
#98 = PROPERTY_DEFINITION_REPRESENTATION ( #506, #531 ) ;
#99 = PRODUCT_RELATED_PRODUCT_CATEGORY ( 'part', '', ( #288 ) ) ;
#100 = DOCUMENT_FILE ( 'socket countersunk head screw_iso_ISO 10642 - M3 x 8 - 8N.STEP' , '', '', #540, '' ,$ ) ;
#101 = DIRECTION ( 'NONE',  ( -4.961159449499921265E-18, -1.000000000000000000, -6.936367501792757747E-17 ) ) ;
#102 = DOCUMENT_FILE ( 'Battery_Spring_Contact.STEP' , '', '', #197, '' ,$ ) ;
#103 = CONTEXT_DEPENDENT_SHAPE_REPRESENTATION ( #597, #472 ) ;
#104 = PRODUCT_DEFINITION_CONTEXT ( 'detailed design', #458, 'design' ) ;
#105 =( NAMED_UNIT ( * ) SI_UNIT ( $, .STERADIAN. ) SOLID_ANGLE_UNIT ( ) );
#106 = DOCUMENT_TYPE ( 'geometry' ) ;
#107 = APPLIED_EXTERNAL_IDENTIFICATION_ASSIGNMENT ( 'Battery_pin_Contact.STEP' , #701, #384,( #156) ) ;
#108 = CONTEXT_DEPENDENT_SHAPE_REPRESENTATION ( #833, #645 ) ;
#109 =( NAMED_UNIT ( * ) SI_UNIT ( $, .STERADIAN. ) SOLID_ANGLE_UNIT ( ) );
#110 = ROLE_ASSOCIATION ( #242, #389 ) ;
#111 = IDENTIFICATION_ROLE ( 'external document id and location', $) ;
#112 = PRODUCT_DEFINITION ( 'General', '', #476, #347 ) ;
#113 = AXIS2_PLACEMENT_3D ( 'NONE', #190, #778, #707 ) ;
#114 =( REPRESENTATION_RELATIONSHIP ('NONE','NONE', #483, #531 ) REPRESENTATION_RELATIONSHIP_WITH_TRANSFORMATION ( #445 )SHAPE_REPRESENTATION_RELATIONSHIP( ) );
#115 = CONTEXT_DEPENDENT_SHAPE_REPRESENTATION ( #90, #337 ) ;
#116 = DIRECTION ( 'NONE',  ( -0.6156614753256828276, 0.000000000000000000, -0.7880107536067028073 ) ) ;
#117 = SHAPE_REPRESENTATION ( 'Battery_Case_Main', ( #113 ), #206 ) ;
#118 = ROLE_ASSOCIATION ( #349, #841 ) ;
#119 = SHAPE_REPRESENTATION ( 'Battery_Spring_Contact', ( #7 ), #467 ) ;
#120 = APPLIED_EXTERNAL_IDENTIFICATION_ASSIGNMENT ( 'socket countersunk head screw_iso_ISO 10642 - M3 x 8 - 8N.STEP' , #139, #784,( #46) ) ;
#121 =( REPRESENTATION_RELATIONSHIP ('NONE','NONE', #483, #562 ) REPRESENTATION_RELATIONSHIP_WITH_TRANSFORMATION ( #142 )SHAPE_REPRESENTATION_RELATIONSHIP( ) );
#122 = DIRECTION ( 'NONE',  ( 1.000000000000000000, 0.000000000000000000, 0.000000000000000000 ) ) ;
#123 = OBJECT_ROLE ('mandatory',$ ) ;
#124 = PRODUCT_DEFINITION_FORMATION_WITH_SPECIFIED_SOURCE ( 'Symmetric', '', #594, .NOT_KNOWN. ) ;
#125 = CARTESIAN_POINT ( 'NONE',  ( 587.6166313847007814, -88.86500000000295074, 1335.625184800474017 ) ) ;
#126 = APPLICATION_CONTEXT ( 'automotive_design' ) ;
#127 = PRODUCT_DEFINITION_SHAPE ( 'NONE', 'NONE',  #566 ) ;
#128 = CONTEXT_DEPENDENT_SHAPE_REPRESENTATION ( #237, #436 ) ;
#129 = DIRECTION ( 'NONE',  ( 6.123233995736767268E-17, 1.000000000000000000, 6.936367501792757747E-17 ) ) ;
#130 =( NAMED_UNIT ( * ) SI_UNIT ( $, .STERADIAN. ) SOLID_ANGLE_UNIT ( ) );
#131 = CONTEXT_DEPENDENT_SHAPE_REPRESENTATION ( #324, #339 ) ;
#132 = OBJECT_ROLE ('mandatory',$ ) ;
#133 = OBJECT_ROLE ('mandatory',$ ) ;
#134 = DIRECTION ( 'NONE',  ( -0.7280067418303456384, 1.291563365147019872E-16, -0.6855699700610907721 ) ) ;
#135 = CARTESIAN_POINT ( 'NONE',  ( 0.000000000000000000, 0.000000000000000000, 0.000000000000000000 ) ) ;
#136 = AXIS2_PLACEMENT_3D ( 'NONE', #798, #431, #245 ) ;
#137 =( GEOMETRIC_REPRESENTATION_CONTEXT ( 3 ) GLOBAL_UNCERTAINTY_ASSIGNED_CONTEXT ( ( #571 ) ) GLOBAL_UNIT_ASSIGNED_CONTEXT ( ( #479, #250, #532 ) ) REPRESENTATION_CONTEXT ( 'NONE', 'WORKASPACE' ) );
#138 = DIRECTION ( 'NONE',  ( -0.7132504491541781233, 2.775557561562897268E-16, 0.7009092642998547840 ) ) ;
#139 = IDENTIFICATION_ROLE ( 'external document id and location', $) ;
#140 = PRODUCT_DEFINITION_SHAPE ( 'NONE', 'NONE',  #859 ) ;
#141 = DIRECTION ( 'NONE',  ( 0.000000000000000000, 0.000000000000000000, 1.000000000000000000 ) ) ;
#142 = ITEM_DEFINED_TRANSFORMATION ( 'NONE', 'NONE', #557,  #304 ) ;
#143 = SHAPE_DEFINITION_REPRESENTATION ( #840, #119 ) ;
#144 = PRODUCT_DEFINITION_SHAPE ( 'NONE', 'NONE',  #852 ) ;
#145 = APPLIED_DOCUMENT_REFERENCE ( #156,'',( #112) ) ;
#146 = UNCERTAINTY_MEASURE_WITH_UNIT (LENGTH_MEASURE( 1.000000000000000082E-05 ), #678, 'distance_accuracy_value', 'NONE');
#147 = DIRECTION ( 'NONE',  ( 0.9999860193245228013, -2.859583229930517945E-18, -0.005287830887528238710 ) ) ;
#148 = DOCUMENT_TYPE ( 'geometry' ) ;
#149 = DIRECTION ( 'NONE',  ( 1.000000000000000000, 0.000000000000000000, 0.000000000000000000 ) ) ;
#150 = AXIS2_PLACEMENT_3D ( 'NONE', #249, #322, #813 ) ;
#151 = OBJECT_ROLE ('mandatory',$ ) ;
#152 = PROPERTY_DEFINITION_REPRESENTATION ( #264, #596 ) ;
#153 = OBJECT_ROLE ('mandatory',$ ) ;
#154 = PRODUCT_CONTEXT ( 'NONE', #703, 'mechanical' ) ;
#155 = DIRECTION ( 'NONE',  ( 0.000000000000000000, 0.000000000000000000, 1.000000000000000000 ) ) ;
#156 = DOCUMENT_FILE ( 'Battery_pin_Contact.STEP' , '', '', #622, '' ,$ ) ;
#157 = DOCUMENT_FILE ( 'bms 2s.STEP' , '', '', #48, '' ,$ ) ;
#158 =( NAMED_UNIT ( * ) SI_UNIT ( $, .STERADIAN. ) SOLID_ANGLE_UNIT ( ) );
#159 = APPLIED_EXTERNAL_IDENTIFICATION_ASSIGNMENT ( 'Battery_pin_Contact.STEP' , #43, #788,( #340) ) ;
#160 = PROPERTY_DEFINITION_REPRESENTATION ( #275, #562 ) ;
#161 = PROPERTY_DEFINITION_REPRESENTATION ( #15, #531 ) ;
#162 = AXIS2_PLACEMENT_3D ( 'NONE', #325, #69, #463 ) ;
#163 = PROPERTY_DEFINITION ('document property','', #367 ) ;
#164 = OBJECT_ROLE ('mandatory',$ ) ;
#165 = PROPERTY_DEFINITION ('document property','', #102 ) ;
#166 = PRODUCT_DEFINITION_FORMATION_WITH_SPECIFIED_SOURCE ( 'Symmetric', '', #785, .NOT_KNOWN. ) ;
#167 = PROPERTY_DEFINITION ('document property','', #391 ) ;
#168 = IDENTIFICATION_ROLE ( 'external document id and location', $) ;
#169 = ROLE_ASSOCIATION ( #611, #435 ) ;
#170 =( NAMED_UNIT ( * ) PLANE_ANGLE_UNIT ( ) SI_UNIT ( $, .RADIAN. ) );
#171 = IDENTIFICATION_ROLE ( 'external document id and location', $) ;
#172 = DOCUMENT_FILE ( 'socket countersunk head screw_iso_ISO 10642 - M3 x 8 - 8N.STEP' , '', '', #759, '' ,$ ) ;
#173 = APPLIED_DOCUMENT_REFERENCE ( #781,'',( #651) ) ;
#174 = DIRECTION ( 'NONE',  ( 0.000000000000000000, 0.000000000000000000, 1.000000000000000000 ) ) ;
#175 = ROLE_ASSOCIATION ( #164, #580 ) ;
#176 = PRODUCT_DEFINITION_SHAPE ( 'NONE', 'NONE',  #187 ) ;
#177 = EXTERNAL_SOURCE (IDENTIFIER('') ) ;
#178 =( NAMED_UNIT ( * ) PLANE_ANGLE_UNIT ( ) SI_UNIT ( $, .RADIAN. ) );
#179 = AXIS2_PLACEMENT_3D ( 'NONE', #408, #199, #613 ) ;
#180 = DOCUMENT_FILE ( 'magnetic pogo pin connector.STEP' , '', '', #816, '' ,$ ) ;
#181 = DOCUMENT_FILE ( 'Battery_Case_Bottom_Cover.STEP' , '', '', #730, '' ,$ ) ;
#182 =( REPRESENTATION_RELATIONSHIP ('NONE','NONE', #483, #562 ) REPRESENTATION_RELATIONSHIP_WITH_TRANSFORMATION ( #568 )SHAPE_REPRESENTATION_RELATIONSHIP( ) );
#183 = DIRECTION ( 'NONE',  ( 1.303304392495492099E-16, -0.9999999999999997780, -1.036695124141882707E-16 ) ) ;
#184 = EXTERNAL_SOURCE (IDENTIFIER('') ) ;
#185 = ROLE_ASSOCIATION ( #552, #448 ) ;
#186 = CARTESIAN_POINT ( 'NONE',  ( 567.5570469317547122, -1.196308414801849240, 1367.836337961425897 ) ) ;
#187 = PRODUCT_DEFINITION ( 'General', '', #166, #782 ) ;
#188 = ROLE_ASSOCIATION ( #133, #752 ) ;
#189 = DIRECTION ( 'NONE',  ( 0.001536849757205957729, -6.945769800939494282E-17, 0.9999988190457146375 ) ) ;
#190 = CARTESIAN_POINT ( 'NONE',  ( 0.000000000000000000, 0.000000000000000000, 0.000000000000000000 ) ) ;
#191 = PRODUCT_DEFINITION_FORMATION_WITH_SPECIFIED_SOURCE ( 'Symmetric', '', #738, .NOT_KNOWN. ) ;
#192 = AXIS2_PLACEMENT_3D ( 'NONE', #329, #466, #541 ) ;
#193 = PROPERTY_DEFINITION_REPRESENTATION ( #294, #562 ) ;
#194 = DOCUMENT_TYPE ( 'geometry' ) ;
#195 = DIRECTION ( 'NONE',  ( -1.628655169550819251E-05, 2.862295065352777501E-16, -0.9999999998673740897 ) ) ;
#196 = PROPERTY_DEFINITION ('external definition','', #781 ) ;
#197 = DOCUMENT_TYPE ( 'geometry' ) ;
#198 = ITEM_DEFINED_TRANSFORMATION ( 'NONE', 'NONE', #317,  #304 ) ;
#199 = DIRECTION ( 'NONE',  ( 0.001648605978262149274, -6.946452875775608953E-17, 0.9999986410482409882 ) ) ;
#200 = DOCUMENT_TYPE ( 'geometry' ) ;
#201 = DOCUMENT_FILE ( 'Battery_Case_Main.STEP' , '', '', #12, '' ,$ ) ;
#202 = PRODUCT_DEFINITION_SHAPE ( 'NONE', 'NONE',  #112 ) ;
#203 = CARTESIAN_POINT ( 'NONE',  ( 566.3785223136168270, -81.48000000000294563, 1341.857764501389056 ) ) ;
#204 = PROPERTY_DEFINITION_REPRESENTATION ( #227, #596 ) ;
#205 = APPLIED_EXTERNAL_IDENTIFICATION_ASSIGNMENT ( 'bms 2s.STEP' , #305, #834,( #157) ) ;
#206 =( GEOMETRIC_REPRESENTATION_CONTEXT ( 3 ) GLOBAL_UNCERTAINTY_ASSIGNED_CONTEXT ( ( #231 ) ) GLOBAL_UNIT_ASSIGNED_CONTEXT ( ( #772, #279, #437 ) ) REPRESENTATION_CONTEXT ( 'NONE', 'WORKASPACE' ) );
#207 = PROPERTY_DEFINITION ('document property','', #674 ) ;
#208 = CARTESIAN_POINT ( 'NONE',  ( 0.000000000000000000, 0.000000000000000000, 0.000000000000000000 ) ) ;
#209 = OBJECT_ROLE ('mandatory',$ ) ;
#210 = OBJECT_ROLE ('mandatory',$ ) ;
#211 = APPLIED_DOCUMENT_REFERENCE ( #340,'',( #112) ) ;
#212 = PRODUCT_CONTEXT ( 'NONE', #371, 'mechanical' ) ;
#213 =( NAMED_UNIT ( * ) PLANE_ANGLE_UNIT ( ) SI_UNIT ( $, .RADIAN. ) );
#214 = APPLIED_DOCUMENT_REFERENCE ( #768,'',( #352) ) ;
#215 =( REPRESENTATION_RELATIONSHIP ('NONE','NONE', #483, #531 ) REPRESENTATION_RELATIONSHIP_WITH_TRANSFORMATION ( #30 )SHAPE_REPRESENTATION_RELATIONSHIP( ) );
#216 = PRODUCT_CONTEXT ( 'NONE', #794, 'mechanical' ) ;
#217 = APPLIED_EXTERNAL_IDENTIFICATION_ASSIGNMENT ( 'Battery_pin_Contact.STEP' , #344, #470,( #598) ) ;
#218 = UNCERTAINTY_MEASURE_WITH_UNIT (LENGTH_MEASURE( 1.000000000000000082E-05 ), #23, 'distance_accuracy_value', 'NONE');
#219 = ITEM_DEFINED_TRANSFORMATION ( 'NONE', 'NONE', #65,  #7 ) ;
#220 = PRODUCT_CONTEXT ( 'NONE', #545, 'mechanical' ) ;
#221 = AXIS2_PLACEMENT_3D ( 'NONE', #254, #34, #742 ) ;
#222 = DOCUMENT_TYPE ( 'geometry' ) ;
#223 = APPLICATION_CONTEXT ( 'automotive_design' ) ;
#224 = PRODUCT_DEFINITION_SHAPE ( 'NONE', 'NONE',  #870 ) ;
#225 = PROPERTY_DEFINITION ('external definition','', #739 ) ;
#226 = ROLE_ASSOCIATION ( #209, #835 ) ;
#227 = PROPERTY_DEFINITION ('document property','', #340 ) ;
#228 = PROPERTY_DEFINITION_REPRESENTATION ( #196, #531 ) ;
#229 = APPLIED_EXTERNAL_IDENTIFICATION_ASSIGNMENT ( 'Battery_Spring_Contact.STEP' , #296, #705,( #102) ) ;
#230 = APPLIED_DOCUMENT_REFERENCE ( #102,'',( #352) ) ;
#231 = UNCERTAINTY_MEASURE_WITH_UNIT (LENGTH_MEASURE( 1.000000000000000082E-05 ), #772, 'distance_accuracy_value', 'NONE');
#232 = AXIS2_PLACEMENT_3D ( 'NONE', #530, #800, #595 ) ;
#233 = PROPERTY_DEFINITION ('document property','', #172 ) ;
#234 =( GEOMETRIC_REPRESENTATION_CONTEXT ( 3 ) GLOBAL_UNCERTAINTY_ASSIGNED_CONTEXT ( ( #549 ) ) GLOBAL_UNIT_ASSIGNED_CONTEXT ( ( #669, #70, #109 ) ) REPRESENTATION_CONTEXT ( 'NONE', 'WORKASPACE' ) );
#235 = APPLIED_DOCUMENT_REFERENCE ( #774,'',( #651) ) ;
#236 = PRODUCT_DEFINITION_SHAPE ( 'NONE', 'NONE',  #78 ) ;
#237 =( REPRESENTATION_RELATIONSHIP ('NONE','NONE', #483, #562 ) REPRESENTATION_RELATIONSHIP_WITH_TRANSFORMATION ( #797 )SHAPE_REPRESENTATION_RELATIONSHIP( ) );
#238 = DIRECTION ( 'NONE',  ( 0.6225146366376284046, 0.000000000000000000, 0.7826081568524070331 ) ) ;
#239 = PROPERTY_DEFINITION_REPRESENTATION ( #165, #119 ) ;
#240 = OBJECT_ROLE ('mandatory',$ ) ;
#241 = APPLICATION_PROTOCOL_DEFINITION ( 'draft international standard', 'automotive_design', 1998, #126 ) ;
#242 = OBJECT_ROLE ('mandatory',$ ) ;
#243 = APPLIED_EXTERNAL_IDENTIFICATION_ASSIGNMENT ( 'socket countersunk head screw_iso_ISO 10642 - M3 x 8 - 8N.STEP' , #426, #608,( #172) ) ;
#244 = CONTEXT_DEPENDENT_SHAPE_REPRESENTATION ( #386, #63 ) ;
#245 = DIRECTION ( 'NONE',  ( 6.123233995736766036E-17, -1.000000000000000000, 6.938893903907229918E-18 ) ) ;
#246 = PRODUCT_RELATED_PRODUCT_CATEGORY ( 'part', '', ( #587 ) ) ;
#247 = ITEM_DEFINED_TRANSFORMATION ( 'NONE', 'NONE', #635,  #577 ) ;
#248 = DOCUMENT_TYPE ( 'geometry' ) ;
#249 = CARTESIAN_POINT ( 'NONE',  ( 559.0565905234446973, -85.07999999999994145, 1352.809971464715773 ) ) ;
#250 =( NAMED_UNIT ( * ) PLANE_ANGLE_UNIT ( ) SI_UNIT ( $, .RADIAN. ) );
#251 = DIRECTION ( 'NONE',  ( 0.001363695564130726345, -6.944711279165892509E-17, 0.9999990701667719195 ) ) ;
#252 = PROPERTY_DEFINITION_REPRESENTATION ( #680, #117 ) ;
#253 = PRODUCT ( 'Cell_21700', 'Cell_21700', '', ( #362 ) ) ;
#254 = CARTESIAN_POINT ( 'NONE',  ( 592.0058035972429025, 3.999999999997092548, 1341.060681235638640 ) ) ;
#255 = OBJECT_ROLE ('mandatory',$ ) ;
#256 =( NAMED_UNIT ( * ) PLANE_ANGLE_UNIT ( ) SI_UNIT ( $, .RADIAN. ) );
#257 = AXIS2_PLACEMENT_3D ( 'NONE', #682, #189, #129 ) ;
#258 = APPLIED_DOCUMENT_REFERENCE ( #181,'',( #14) ) ;
#259 = DOCUMENT_TYPE ( 'geometry' ) ;
#260 = PROPERTY_DEFINITION_REPRESENTATION ( #207, #562 ) ;
#261 = CARTESIAN_POINT ( 'NONE',  ( 559.9652757251736830, -9.080000000002913296, 1350.501239607308435 ) ) ;
#262 =( NAMED_UNIT ( * ) PLANE_ANGLE_UNIT ( ) SI_UNIT ( $, .RADIAN. ) );
#263 = IDENTIFICATION_ROLE ( 'external document id and location', $) ;
#264 = PROPERTY_DEFINITION ('external definition','', #598 ) ;
#265 = OBJECT_ROLE ('mandatory',$ ) ;
#266 = APPLIED_DOCUMENT_REFERENCE ( #425,'',( #838) ) ;
#267 = APPLIED_EXTERNAL_IDENTIFICATION_ASSIGNMENT ( 'socket countersunk head screw_iso_ISO 10642 - M3 x 8 - 8N.STEP' , #37, #501,( #100) ) ;
#268 = CARTESIAN_POINT ( 'NONE',  ( 0.000000000000000000, 0.000000000000000000, 0.000000000000000000 ) ) ;
#269 = PROPERTY_DEFINITION ('external definition','', #774 ) ;
#270 = ITEM_DEFINED_TRANSFORMATION ( 'NONE', 'NONE', #728,  #7 ) ;
#271 = APPLIED_DOCUMENT_REFERENCE ( #157,'',( #829) ) ;
#272 = ROLE_ASSOCIATION ( #355, #278 ) ;
#273 = APPLICATION_PROTOCOL_DEFINITION ( 'draft international standard', 'automotive_design', 1998, #508 ) ;
#274 =( REPRESENTATION_RELATIONSHIP ('NONE','NONE', #483, #392 ) REPRESENTATION_RELATIONSHIP_WITH_TRANSFORMATION ( #53 )SHAPE_REPRESENTATION_RELATIONSHIP( ) );
#275 = PROPERTY_DEFINITION ('external definition','', #685 ) ;
#276 = ROLE_ASSOCIATION ( #789, #543 ) ;
#277 = SHAPE_DEFINITION_REPRESENTATION ( #715, #117 ) ;
#278 = APPLIED_DOCUMENT_REFERENCE ( #598,'',( #112) ) ;
#279 =( NAMED_UNIT ( * ) PLANE_ANGLE_UNIT ( ) SI_UNIT ( $, .RADIAN. ) );
#280 = OBJECT_ROLE ('mandatory',$ ) ;
#281 = DOCUMENT_TYPE ( 'geometry' ) ;
#282 = PROPERTY_DEFINITION_REPRESENTATION ( #712, #119 ) ;
#283 = ITEM_DEFINED_TRANSFORMATION ( 'NONE', 'NONE', #605,  #607 ) ;
#284 = AXIS2_PLACEMENT_3D ( 'NONE', #396, #399, #675 ) ;
#285 = CARTESIAN_POINT ( 'NONE',  ( 0.000000000000000000, 0.000000000000000000, 0.000000000000000000 ) ) ;
#286 = PROPERTY_DEFINITION ('external definition','', #85 ) ;
#287 = DOCUMENT_FILE ( 'Cell_21700.STEP' , '', '', #457, '' ,$ ) ;
#288 = PRODUCT ( 'Battery_Case_Bottom_Cover', 'Battery_Case_Bottom_Cover', '', ( #830 ) ) ;
#289 = APPLICATION_PROTOCOL_DEFINITION ( 'draft international standard', 'automotive_design', 1998, #545 ) ;
#290 = UNCERTAINTY_MEASURE_WITH_UNIT (LENGTH_MEASURE( 1.000000000000000082E-05 ), #732, 'distance_accuracy_value', 'NONE');
#291 =( NAMED_UNIT ( * ) SI_UNIT ( $, .STERADIAN. ) SOLID_ANGLE_UNIT ( ) );
#292 = PRODUCT_DEFINITION_SHAPE ( 'NONE', 'NONE',  #872 ) ;
#293 = PRODUCT_DEFINITION_SHAPE ( 'NONE', 'NONE',  #866 ) ;
#294 = PROPERTY_DEFINITION ('external definition','', #391 ) ;
#295 = PROPERTY_DEFINITION_REPRESENTATION ( #497, #119 ) ;
#296 = IDENTIFICATION_ROLE ( 'external document id and location', $) ;
#297 = PROPERTY_DEFINITION_REPRESENTATION ( #269, #531 ) ;
#298 = IDENTIFICATION_ROLE ( 'external document id and location', $) ;
#299 = DOCUMENT_TYPE ( 'geometry' ) ;
#300 = CONTEXT_DEPENDENT_SHAPE_REPRESENTATION ( #666, #361 ) ;
#301 = PROPERTY_DEFINITION_REPRESENTATION ( #711, #419 ) ;
#302 = UNCERTAINTY_MEASURE_WITH_UNIT (LENGTH_MEASURE( 1.000000000000000082E-05 ), #513, 'distance_accuracy_value', 'NONE');
#303 = PRODUCT_DEFINITION_FORMATION_WITH_SPECIFIED_SOURCE ( 'Symmetric', '', #288, .NOT_KNOWN. ) ;
#304 = AXIS2_PLACEMENT_3D ( 'NONE', #268, #494, #8 ) ;
#305 = IDENTIFICATION_ROLE ( 'external document id and location', $) ;
#306 = PROPERTY_DEFINITION_REPRESENTATION ( #684, #531 ) ;
#307 = PROPERTY_DEFINITION ('document property','', #157 ) ;
#308 = ITEM_DEFINED_TRANSFORMATION ( 'NONE', 'NONE', #284,  #79 ) ;
#309 = EXTERNAL_SOURCE (IDENTIFIER('') ) ;
#310 = DIRECTION ( 'NONE',  ( 1.000000000000000000, 0.000000000000000000, 0.000000000000000000 ) ) ;
#311 = IDENTIFICATION_ROLE ( 'external document id and location', $) ;
#312 = PROPERTY_DEFINITION ('document property','', #648 ) ;
#313 = ITEM_DEFINED_TRANSFORMATION ( 'NONE', 'NONE', #93,  #741 ) ;
#314 =( REPRESENTATION_RELATIONSHIP ('NONE','NONE', #483, #419 ) REPRESENTATION_RELATIONSHIP_WITH_TRANSFORMATION ( #776 )SHAPE_REPRESENTATION_RELATIONSHIP( ) );
#315 = DIRECTION ( 'NONE',  ( 0.9999860193245228013, -4.594306705907325039E-18, -0.005287830887529296892 ) ) ;
#316 = AXIS2_PLACEMENT_3D ( 'NONE', #573, #38, #591 ) ;
#317 = AXIS2_PLACEMENT_3D ( 'NONE', #336, #599, #122 ) ;
#318 = APPLIED_DOCUMENT_REFERENCE ( #523,'',( #78) ) ;
#319 = DIRECTION ( 'NONE',  ( 1.000000000000000000, 0.000000000000000000, 0.000000000000000000 ) ) ;
#320 =( REPRESENTATION_RELATIONSHIP ('NONE','NONE', #483, #22 ) REPRESENTATION_RELATIONSHIP_WITH_TRANSFORMATION ( #692 )SHAPE_REPRESENTATION_RELATIONSHIP( ) );
#321 = CONTEXT_DEPENDENT_SHAPE_REPRESENTATION ( #585, #407 ) ;
#322 = DIRECTION ( 'NONE',  ( -9.771702489488887089E-05, -1.232645368389248441E-22, -0.9999999952256914959 ) ) ;
#323 = PRODUCT_RELATED_PRODUCT_CATEGORY ( 'part', '', ( #594 ) ) ;
#324 =( REPRESENTATION_RELATIONSHIP ('NONE','NONE', #483, #562 ) REPRESENTATION_RELATIONSHIP_WITH_TRANSFORMATION ( #198 )SHAPE_REPRESENTATION_RELATIONSHIP( ) );
#325 = CARTESIAN_POINT ( 'NONE',  ( 527.9247478531050319, 3.999999999997092548, 1359.941797978977775 ) ) ;
#326 = CONTEXT_DEPENDENT_SHAPE_REPRESENTATION ( #831, #676 ) ;
#327 = PROPERTY_DEFINITION ('document property','', #781 ) ;
#328 = DIRECTION ( 'NONE',  ( 6.123233995736767268E-17, 1.000000000000000000, 6.936367501792758980E-17 ) ) ;
#329 = CARTESIAN_POINT ( 'NONE',  ( 0.000000000000000000, 0.000000000000000000, 0.000000000000000000 ) ) ;
#330 = OBJECT_ROLE ('mandatory',$ ) ;
#331 = PROPERTY_DEFINITION_REPRESENTATION ( #372, #351 ) ;
#332 = APPLICATION_CONTEXT ( 'automotive_design' ) ;
#333 = ROLE_ASSOCIATION ( #735, #64 ) ;
#334 = DIRECTION ( 'NONE',  ( 1.000000000000000000, 0.000000000000000000, 0.000000000000000000 ) ) ;
#335 = PROPERTY_DEFINITION_REPRESENTATION ( #826, #596 ) ;
#336 = CARTESIAN_POINT ( 'NONE',  ( 540.3246193178214298, -81.48000000000294563, 1342.009658433574486 ) ) ;
#337 = PRODUCT_DEFINITION_SHAPE ( 'NONE', 'NONE',  #847 ) ;
#338 =( NAMED_UNIT ( * ) SI_UNIT ( $, .STERADIAN. ) SOLID_ANGLE_UNIT ( ) );
#339 = PRODUCT_DEFINITION_SHAPE ( 'NONE', 'NONE',  #856 ) ;
#340 = DOCUMENT_FILE ( 'Battery_pin_Contact.STEP' , '', '', #667, '' ,$ ) ;
#341 = APPLIED_EXTERNAL_IDENTIFICATION_ASSIGNMENT ( 'Cell_21700.STEP' , #820, #440,( #391) ) ;
#342 = PROPERTY_DEFINITION_REPRESENTATION ( #307, #419 ) ;
#343 =( NAMED_UNIT ( * ) PLANE_ANGLE_UNIT ( ) SI_UNIT ( $, .RADIAN. ) );
#344 = IDENTIFICATION_ROLE ( 'external document id and location', $) ;
#345 = PROPERTY_DEFINITION ('external definition','', #156 ) ;
#346 = PRODUCT_CONTEXT ( 'NONE', #690, 'mechanical' ) ;
#347 = PRODUCT_DEFINITION_CONTEXT ( 'detailed design', #446, 'design' ) ;
#348 = CARTESIAN_POINT ( 'NONE',  ( 0.000000000000000000, 0.000000000000000000, 0.000000000000000000 ) ) ;
#349 = OBJECT_ROLE ('mandatory',$ ) ;
#350 = PRODUCT_CONTEXT ( 'NONE', #475, 'mechanical' ) ;
#351 = SHAPE_REPRESENTATION ( 'magnetic pogo pin connector', ( #79 ), #464 ) ;
#352 = PRODUCT_DEFINITION ( 'General', '', #653, #771 ) ;
#353 = APPLIED_DOCUMENT_REFERENCE ( #487,'',( #352) ) ;
#354 = SHAPE_DEFINITION_REPRESENTATION ( #236, #392 ) ;
#355 = OBJECT_ROLE ('mandatory',$ ) ;
#356 = ROLE_ASSOCIATION ( #132, #318 ) ;
#357 = PRODUCT_DEFINITION_CONTEXT ( 'detailed design', #223, 'design' ) ;
#358 = APPLIED_DOCUMENT_REFERENCE ( #172,'',( #651) ) ;
#359 = AXIS2_PLACEMENT_3D ( 'NONE', #390, #724, #719 ) ;
#360 = DOCUMENT_TYPE ( 'geometry' ) ;
#361 = PRODUCT_DEFINITION_SHAPE ( 'NONE', 'NONE',  #867 ) ;
#362 = PRODUCT_CONTEXT ( 'NONE', #809, 'mechanical' ) ;
#363 = PRODUCT_DEFINITION_FORMATION_WITH_SPECIFIED_SOURCE ( 'Symmetric', '', #35, .NOT_KNOWN. ) ;
#364 = PROPERTY_DEFINITION ('external definition','', #181 ) ;
#365 = DOCUMENT_TYPE ( 'geometry' ) ;
#366 = PROPERTY_DEFINITION ('external definition','', #340 ) ;
#367 = DOCUMENT_FILE ( 'socket countersunk head screw_iso_ISO 10642 - M3 x 8 - 8N.STEP' , '', '', #360, '' ,$ ) ;
#368 = ITEM_DEFINED_TRANSFORMATION ( 'NONE', 'NONE', #519,  #741 ) ;
#369 = UNCERTAINTY_MEASURE_WITH_UNIT (LENGTH_MEASURE( 1.000000000000000082E-05 ), #818, 'distance_accuracy_value', 'NONE');
#370 = DIRECTION ( 'NONE',  ( -0.6460210602956782955, -4.352771407157048953E-17, -0.7633195855304956146 ) ) ;
#371 = APPLICATION_CONTEXT ( 'automotive_design' ) ;
#372 = PROPERTY_DEFINITION ('document property','', #180 ) ;
#373 = PROPERTY_DEFINITION ('document property','', #287 ) ;
#374 = PROPERTY_DEFINITION_REPRESENTATION ( #29, #531 ) ;
#375 = PROPERTY_DEFINITION_REPRESENTATION ( #327, #531 ) ;
#376 = DIRECTION ( 'NONE',  ( 6.123233995736769734E-17, -1.000000000000000000, 6.938893903907231459E-18 ) ) ;
#377 = APPLIED_EXTERNAL_IDENTIFICATION_ASSIGNMENT ( 'Battery_Spring_Contact.STEP' , #298, #777,( #768) ) ;
#378 = PROPERTY_DEFINITION_REPRESENTATION ( #565, #531 ) ;
#379 =( REPRESENTATION_RELATIONSHIP ('NONE','NONE', #483, #392 ) REPRESENTATION_RELATIONSHIP_WITH_TRANSFORMATION ( #533 )SHAPE_REPRESENTATION_RELATIONSHIP( ) );
#380 = PROPERTY_DEFINITION_REPRESENTATION ( #699, #531 ) ;
#381 = APPLIED_EXTERNAL_IDENTIFICATION_ASSIGNMENT ( 'socket countersunk head screw_iso_ISO 10642 - M3 x 8 - 8N.STEP' , #19, #184,( #781) ) ;
#382 = AXIS2_PLACEMENT_3D ( 'NONE', #673, #620, #695 ) ;
#383 = PROPERTY_DEFINITION_REPRESENTATION ( #709, #531 ) ;
#384 = EXTERNAL_SOURCE (IDENTIFIER('') ) ;
#385 = PROPERTY_DEFINITION_REPRESENTATION ( #812, #531 ) ;
#386 =( REPRESENTATION_RELATIONSHIP ('NONE','NONE', #483, #531 ) REPRESENTATION_RELATIONSHIP_WITH_TRANSFORMATION ( #313 )SHAPE_REPRESENTATION_RELATIONSHIP( ) );
#387 = PROPERTY_DEFINITION ('external definition','', #648 ) ;
#388 = CARTESIAN_POINT ( 'NONE',  ( 532.9656532033883423, 3.963109063851572689, 1350.644011041280692 ) ) ;
#389 = APPLIED_DOCUMENT_REFERENCE ( #581,'',( #651) ) ;
#390 = CARTESIAN_POINT ( 'NONE',  ( 552.3735045185458148, -1.148277602872646463, 1333.166141253211208 ) ) ;
#391 = DOCUMENT_FILE ( 'Cell_21700.STEP' , '', '', #259, '' ,$ ) ;
#392 = SHAPE_REPRESENTATION ( 'Twist_Lock_Wing', ( #382 ), #637 ) ;
#393 =( LENGTH_UNIT ( ) NAMED_UNIT ( * ) SI_UNIT ( .MILLI., .METRE. ) );
#394 = DOCUMENT_TYPE ( 'geometry' ) ;
#395 = CONTEXT_DEPENDENT_SHAPE_REPRESENTATION ( #379, #551 ) ;
#396 = CARTESIAN_POINT ( 'NONE',  ( 559.9652757251502635, -4.830000000002905303, 1350.501239607318212 ) ) ;
#397 = PRODUCT_DEFINITION ( 'General', '', #124, #357 ) ;
#398 = EXTERNAL_SOURCE (IDENTIFIER('') ) ;
#399 = DIRECTION ( 'NONE',  ( -0.7006940362095687158, 0.000000000000000000, 0.7134618893958835084 ) ) ;
#400 = EXTERNAL_SOURCE (IDENTIFIER('') ) ;
#401 = PROPERTY_DEFINITION_REPRESENTATION ( #167, #562 ) ;
#402 = CARTESIAN_POINT ( 'NONE',  ( 560.4722391475152108, -85.07999999999984198, 1347.981946046153325 ) ) ;
#403 = EXTERNAL_SOURCE (IDENTIFIER('') ) ;
#404 = PRODUCT_DEFINITION_FORMATION_WITH_SPECIFIED_SOURCE ( 'Symmetric', '', #253, .NOT_KNOWN. ) ;
#405 =( GEOMETRIC_REPRESENTATION_CONTEXT ( 3 ) GLOBAL_UNCERTAINTY_ASSIGNED_CONTEXT ( ( #756 ) ) GLOBAL_UNIT_ASSIGNED_CONTEXT ( ( #627, #343, #158 ) ) REPRESENTATION_CONTEXT ( 'NONE', 'WORKASPACE' ) );
#406 = PROPERTY_DEFINITION_REPRESENTATION ( #71, #392 ) ;
#407 = PRODUCT_DEFINITION_SHAPE ( 'NONE', 'NONE',  #858 ) ;
#408 = CARTESIAN_POINT ( 'NONE',  ( 552.3735045185460422, -88.86500000000295074, 1333.166141253211435 ) ) ;
#409 = IDENTIFICATION_ROLE ( 'external document id and location', $) ;
#410 =( REPRESENTATION_RELATIONSHIP ('NONE','NONE', #483, #419 ) REPRESENTATION_RELATIONSHIP_WITH_TRANSFORMATION ( #283 )SHAPE_REPRESENTATION_RELATIONSHIP( ) );
#411 = CONTEXT_DEPENDENT_SHAPE_REPRESENTATION ( #121, #550 ) ;
#412 = PRODUCT_RELATED_PRODUCT_CATEGORY ( 'part', '', ( #516 ) ) ;
#413 = APPLICATION_PROTOCOL_DEFINITION ( 'draft international standard', 'automotive_design', 1998, #809 ) ;
#414 = PRODUCT_DEFINITION_SHAPE ( 'NONE', 'NONE',  #851 ) ;
#415 = UNCERTAINTY_MEASURE_WITH_UNIT (LENGTH_MEASURE( 1.000000000000000082E-05 ), #13, 'distance_accuracy_value', 'NONE');
#416 = PROPERTY_DEFINITION ('external definition','', #810 ) ;
#417 = APPLICATION_CONTEXT ( 'automotive_design' ) ;
#418 = CONTEXT_DEPENDENT_SHAPE_REPRESENTATION ( #560, #42 ) ;
#419 = SHAPE_REPRESENTATION ( 'bms 2s', ( #607 ), #137 ) ;
#420 = AXIS2_PLACEMENT_3D ( 'NONE', #388, #795, #578 ) ;
#421 = AXIS2_PLACEMENT_3D ( 'NONE', #822, #698, #149 ) ;
#422 = APPLICATION_PROTOCOL_DEFINITION ( 'draft international standard', 'automotive_design', 1998, #223 ) ;
#423 =( REPRESENTATION_RELATIONSHIP ('NONE','NONE', #483, #119 ) REPRESENTATION_RELATIONSHIP_WITH_TRANSFORMATION ( #270 )SHAPE_REPRESENTATION_RELATIONSHIP( ) );
#424 = PRODUCT_RELATED_PRODUCT_CATEGORY ( 'part', '', ( #657 ) ) ;
#425 = DOCUMENT_FILE ( 'Twist lock battery part V3.STEP' , '', '', #248, '' ,$ ) ;
#426 = IDENTIFICATION_ROLE ( 'external document id and location', $) ;
#427 = SHAPE_DEFINITION_REPRESENTATION ( #761, #419 ) ;
#428 = PRODUCT_DEFINITION_SHAPE ( 'NONE', 'NONE',  #861 ) ;
#429 = PROPERTY_DEFINITION_REPRESENTATION ( #345, #596 ) ;
#430 = SHAPE_DEFINITION_REPRESENTATION ( #641, #351 ) ;
#431 = DIRECTION ( 'NONE',  ( -0.0005914030577979303982, 6.902679697354854164E-18, 0.9999998251211963396 ) ) ;
#432 = APPLIED_DOCUMENT_REFERENCE ( #287,'',( #566) ) ;
#433 = AXIS2_PLACEMENT_3D ( 'NONE', #522, #370, #671 ) ;
#434 = PROPERTY_DEFINITION ('external definition','', #287 ) ;
#435 = APPLIED_DOCUMENT_REFERENCE ( #46,'',( #651) ) ;
#436 = PRODUCT_DEFINITION_SHAPE ( 'NONE', 'NONE',  #853 ) ;
#437 =( NAMED_UNIT ( * ) SI_UNIT ( $, .STERADIAN. ) SOLID_ANGLE_UNIT ( ) );
#438 =( REPRESENTATION_RELATIONSHIP ('NONE','NONE', #483, #531 ) REPRESENTATION_RELATIONSHIP_WITH_TRANSFORMATION ( #787 )SHAPE_REPRESENTATION_RELATIONSHIP( ) );
#439 = CONTEXT_DEPENDENT_SHAPE_REPRESENTATION ( #438, #836 ) ;
#440 = EXTERNAL_SOURCE (IDENTIFIER('') ) ;
#441 = PROPERTY_DEFINITION_REPRESENTATION ( #498, #531 ) ;
#442 = PRODUCT_DEFINITION_CONTEXT ( 'detailed design', #751, 'design' ) ;
#443 = DIRECTION ( 'NONE',  ( -0.2934636640190477208, -1.133609084905020456E-17, 0.9559702285639000152 ) ) ;
#444 = ROLE_ASSOCIATION ( #750, #358 ) ;
#445 = ITEM_DEFINED_TRANSFORMATION ( 'NONE', 'NONE', #359,  #741 ) ;
#446 = APPLICATION_CONTEXT ( 'automotive_design' ) ;
#447 = DIRECTION ( 'NONE',  ( 1.000000000000000000, 0.000000000000000000, 0.000000000000000000 ) ) ;
#448 = APPLIED_DOCUMENT_REFERENCE ( #391,'',( #566) ) ;
#449 = PROPERTY_DEFINITION ('external definition','', #157 ) ;
#450 = PROPERTY_DEFINITION_REPRESENTATION ( #28, #531 ) ;
#451 = DOCUMENT_FILE ( 'bms 2s.STEP' , '', '', #365, '' ,$ ) ;
#452 = CARTESIAN_POINT ( 'NONE',  ( 589.4772366911013251, -70.84524359503808455, 1351.979700756643524 ) ) ;
#453 = IDENTIFICATION_ROLE ( 'external document id and location', $) ;
#454 = ROLE_ASSOCIATION ( #61, #563 ) ;
#455 = CONTEXT_DEPENDENT_SHAPE_REPRESENTATION ( #314, #542 ) ;
#456 = CARTESIAN_POINT ( 'NONE',  ( 587.6166313847004403, 4.021456887098256772, 1335.625184800474017 ) ) ;
#457 = DOCUMENT_TYPE ( 'geometry' ) ;
#458 = APPLICATION_CONTEXT ( 'automotive_design' ) ;
#459 = CONTEXT_DEPENDENT_SHAPE_REPRESENTATION ( #274, #67 ) ;
#460 =( NAMED_UNIT ( * ) PLANE_ANGLE_UNIT ( ) SI_UNIT ( $, .RADIAN. ) );
#461 = APPLIED_EXTERNAL_IDENTIFICATION_ASSIGNMENT ( 'Twist_Lock_Wing.STEP' , #534, #484,( #810) ) ;
#462 = IDENTIFICATION_ROLE ( 'external document id and location', $) ;
#463 = DIRECTION ( 'NONE',  ( -0.9999860193245228013, 1.557185370232305743E-17, 0.005287830887529845064 ) ) ;
#464 =( GEOMETRIC_REPRESENTATION_CONTEXT ( 3 ) GLOBAL_UNCERTAINTY_ASSIGNED_CONTEXT ( ( #290 ) ) GLOBAL_UNIT_ASSIGNED_CONTEXT ( ( #732, #178, #105 ) ) REPRESENTATION_CONTEXT ( 'NONE', 'WORKASPACE' ) );
#465 = PRODUCT_DEFINITION_FORMATION_WITH_SPECIFIED_SOURCE ( 'Symmetric', '', #657, .NOT_KNOWN. ) ;
#466 = DIRECTION ( 'NONE',  ( 0.000000000000000000, 0.000000000000000000, 1.000000000000000000 ) ) ;
#467 =( GEOMETRIC_REPRESENTATION_CONTEXT ( 3 ) GLOBAL_UNCERTAINTY_ASSIGNED_CONTEXT ( ( #302 ) ) GLOBAL_UNIT_ASSIGNED_CONTEXT ( ( #513, #170, #488 ) ) REPRESENTATION_CONTEXT ( 'NONE', 'WORKASPACE' ) );
#468 = ROLE_ASSOCIATION ( #642, #258 ) ;
#469 = DIRECTION ( 'NONE',  ( 0.9999999998673742008, -1.282548877769203508E-18, -1.628655169571128391E-05 ) ) ;
#470 = EXTERNAL_SOURCE (IDENTIFIER('') ) ;
#471 = DIRECTION ( 'NONE',  ( 1.000000000000000000, 0.000000000000000000, 0.000000000000000000 ) ) ;
#472 = PRODUCT_DEFINITION_SHAPE ( 'NONE', 'NONE',  #845 ) ;
#473 = DIRECTION ( 'NONE',  ( 0.6855699700610907721, 3.899544420812657608E-17, -0.7280067418303456384 ) ) ;
#474 = IDENTIFICATION_ROLE ( 'external document id and location', $) ;
#475 = APPLICATION_CONTEXT ( 'automotive_design' ) ;
#476 = PRODUCT_DEFINITION_FORMATION_WITH_SPECIFIED_SOURCE ( 'Symmetric', '', #516, .NOT_KNOWN. ) ;
#477 = ROLE_ASSOCIATION ( #210, #95 ) ;
#478 = DIRECTION ( 'NONE',  ( 0.9993494424764213235, 0.000000000000000000, -0.03606510532448314876 ) ) ;
#479 =( LENGTH_UNIT ( ) NAMED_UNIT ( * ) SI_UNIT ( .MILLI., .METRE. ) );
#480 = PROPERTY_DEFINITION ('document property','', #451 ) ;
#481 = ROLE_ASSOCIATION ( #330, #145 ) ;
#482 = SHAPE_DEFINITION_REPRESENTATION ( #176, #483 ) ;
#483 = SHAPE_REPRESENTATION ( 'Battery_Twist_Lock_Pack.SLDASM', ( #421, #605, #420, #519, #726, #136, #555, #359, #93, #708, #316, #433, #52, #162, #317, #221, #635, #817, #728, #150, #232, #65, #740, #557, #806, #664, #505, #179, #257, #677, #284 ), #710 ) ;
#484 = EXTERNAL_SOURCE (IDENTIFIER('') ) ;
#485 = PRODUCT_DEFINITION_SHAPE ( 'NONE', 'NONE',  #864 ) ;
#486 = PROPERTY_DEFINITION ('document property','', #425 ) ;
#487 = DOCUMENT_FILE ( 'Battery_Spring_Contact.STEP' , '', '', #495, '' ,$ ) ;
#488 =( NAMED_UNIT ( * ) SI_UNIT ( $, .STERADIAN. ) SOLID_ANGLE_UNIT ( ) );
#489 = SHAPE_DEFINITION_REPRESENTATION ( #127, #562 ) ;
#490 = DOCUMENT_TYPE ( 'geometry' ) ;
#491 = PRODUCT_DEFINITION_SHAPE ( 'NONE', 'NONE',  #849 ) ;
#492 = APPLICATION_PROTOCOL_DEFINITION ( 'draft international standard', 'automotive_design', 1998, #824 ) ;
#493 = PRODUCT_DEFINITION_CONTEXT ( 'detailed design', #417, 'design' ) ;
#494 = DIRECTION ( 'NONE',  ( 0.000000000000000000, 0.000000000000000000, 1.000000000000000000 ) ) ;
#495 = DOCUMENT_TYPE ( 'geometry' ) ;
#496 = CONTEXT_DEPENDENT_SHAPE_REPRESENTATION ( #410, #723 ) ;
#497 = PROPERTY_DEFINITION ('external definition','', #102 ) ;
#498 = PROPERTY_DEFINITION ('document property','', #46 ) ;
#499 = EXTERNAL_SOURCE (IDENTIFIER('') ) ;
#500 = CONTEXT_DEPENDENT_SHAPE_REPRESENTATION ( #717, #801 ) ;
#501 = EXTERNAL_SOURCE (IDENTIFIER('') ) ;
#502 = APPLIED_EXTERNAL_IDENTIFICATION_ASSIGNMENT ( 'Twist lock battery part V3.STEP' , #718, #592,( #425) ) ;
#503 = PRODUCT_DEFINITION_SHAPE ( 'NONE', 'NONE',  #14 ) ;
#504 = ROLE_ASSOCIATION ( #240, #432 ) ;
#505 = AXIS2_PLACEMENT_3D ( 'NONE', #753, #251, #610 ) ;
#506 = PROPERTY_DEFINITION ('external definition','', #511 ) ;
#507 = ROLE_ASSOCIATION ( #77, #509 ) ;
#508 = APPLICATION_CONTEXT ( 'automotive_design' ) ;
#509 = APPLIED_DOCUMENT_REFERENCE ( #100,'',( #651) ) ;
#510 = IDENTIFICATION_ROLE ( 'external document id and location', $) ;
#511 = DOCUMENT_FILE ( 'socket countersunk head screw_iso_ISO 10642 - M3 x 8 - 8N.STEP' , '', '', #589, '' ,$ ) ;
#512 = PROPERTY_DEFINITION_REPRESENTATION ( #387, #531 ) ;
#513 =( LENGTH_UNIT ( ) NAMED_UNIT ( * ) SI_UNIT ( .MILLI., .METRE. ) );
#514 = APPLIED_EXTERNAL_IDENTIFICATION_ASSIGNMENT ( 'bms 2s.STEP' , #743, #646,( #451) ) ;
#515 = DOCUMENT_TYPE ( 'geometry' ) ;
#516 = PRODUCT ( 'Battery_pin_Contact', 'Battery_pin_Contact', '', ( #346 ) ) ;
#517 = APPLICATION_CONTEXT ( 'automotive_design' ) ;
#518 = ITEM_DEFINED_TRANSFORMATION ( 'NONE', 'NONE', #677,  #741 ) ;
#519 = AXIS2_PLACEMENT_3D ( 'NONE', #659, #714, #655 ) ;
#520 = PRODUCT_CONTEXT ( 'NONE', #332, 'mechanical' ) ;
#521 = ITEM_DEFINED_TRANSFORMATION ( 'NONE', 'NONE', #316,  #577 ) ;
#522 = CARTESIAN_POINT ( 'NONE',  ( 553.4331807123693352, -81.48000000000293142, 1359.089878093085190 ) ) ;
#523 = DOCUMENT_FILE ( 'Twist_Lock_Wing.STEP' , '', '', #194, '' ,$ ) ;
#524 = DIRECTION ( 'NONE',  ( 0.03606510532448314876, 0.000000000000000000, 0.9993494424764213235 ) ) ;
#525 =( REPRESENTATION_RELATIONSHIP ('NONE','NONE', #483, #662 ) REPRESENTATION_RELATIONSHIP_WITH_TRANSFORMATION ( #704 )SHAPE_REPRESENTATION_RELATIONSHIP( ) );
#526 = PRODUCT ( 'Battery_Case_Main', 'Battery_Case_Main', '', ( #216 ) ) ;
#527 = PROPERTY_DEFINITION_REPRESENTATION ( #364, #22 ) ;
#528 = DIRECTION ( 'NONE',  ( 0.005287830887529293422, -6.938893903907228378E-18, 0.9999860193245228013 ) ) ;
#529 = APPLICATION_CONTEXT ( 'automotive_design' ) ;
#530 = CARTESIAN_POINT ( 'NONE',  ( 585.7005981415481983, -8.080000000002906191, 1364.901723283692490 ) ) ;
#531 = SHAPE_REPRESENTATION ( 'socket countersunk head screw_iso_ISO 10642 - M3 x 8 - 8N', ( #741 ), #234 ) ;
#532 =( NAMED_UNIT ( * ) SI_UNIT ( $, .STERADIAN. ) SOLID_ANGLE_UNIT ( ) );
#533 = ITEM_DEFINED_TRANSFORMATION ( 'NONE', 'NONE', #221,  #382 ) ;
#534 = IDENTIFICATION_ROLE ( 'external document id and location', $) ;
#535 = DIRECTION ( 'NONE',  ( 0.000000000000000000, 0.000000000000000000, 1.000000000000000000 ) ) ;
#536 = PROPERTY_DEFINITION_REPRESENTATION ( #634, #531 ) ;
#537 = EXTERNAL_SOURCE (IDENTIFIER('') ) ;
#538 = ROLE_ASSOCIATION ( #633, #266 ) ;
#539 = DIRECTION ( 'NONE',  ( -0.7009092642998547840, 0.000000000000000000, -0.7132504491541781233 ) ) ;
#540 = DOCUMENT_TYPE ( 'geometry' ) ;
#541 = DIRECTION ( 'NONE',  ( 1.000000000000000000, 0.000000000000000000, 0.000000000000000000 ) ) ;
#542 = PRODUCT_DEFINITION_SHAPE ( 'NONE', 'NONE',  #846 ) ;
#543 = APPLIED_DOCUMENT_REFERENCE ( #85,'',( #352) ) ;
#544 = PRODUCT_DEFINITION_SHAPE ( 'NONE', 'NONE',  #860 ) ;
#545 = APPLICATION_CONTEXT ( 'automotive_design' ) ;
#546 = CARTESIAN_POINT ( 'NONE',  ( 0.000000000000000000, 0.000000000000000000, 0.000000000000000000 ) ) ;
#547 = PROPERTY_DEFINITION_REPRESENTATION ( #687, #596 ) ;
#548 = APPLICATION_PROTOCOL_DEFINITION ( 'draft international standard', 'automotive_design', 1998, #417 ) ;
#549 = UNCERTAINTY_MEASURE_WITH_UNIT (LENGTH_MEASURE( 1.000000000000000082E-05 ), #669, 'distance_accuracy_value', 'NONE');
#550 = PRODUCT_DEFINITION_SHAPE ( 'NONE', 'NONE',  #865 ) ;
#551 = PRODUCT_DEFINITION_SHAPE ( 'NONE', 'NONE',  #857 ) ;
#552 = OBJECT_ROLE ('mandatory',$ ) ;
#553 = PROPERTY_DEFINITION_REPRESENTATION ( #366, #596 ) ;
#554 = APPLICATION_PROTOCOL_DEFINITION ( 'draft international standard', 'automotive_design', 1998, #529 ) ;
#555 = AXIS2_PLACEMENT_3D ( 'NONE', #456, #443, #644 ) ;
#556 = EXTERNAL_SOURCE (IDENTIFIER('') ) ;
#557 = AXIS2_PLACEMENT_3D ( 'NONE', #203, #473, #134 ) ;
#558 = PROPERTY_DEFINITION ('document property','', #181 ) ;
#559 = PROPERTY_DEFINITION_REPRESENTATION ( #623, #119 ) ;
#560 =( REPRESENTATION_RELATIONSHIP ('NONE','NONE', #483, #531 ) REPRESENTATION_RELATIONSHIP_WITH_TRANSFORMATION ( #618 )SHAPE_REPRESENTATION_RELATIONSHIP( ) );
#561 = APPLICATION_PROTOCOL_DEFINITION ( 'draft international standard', 'automotive_design', 1998, #660 ) ;
#562 = SHAPE_REPRESENTATION ( 'Cell_21700', ( #304 ), #405 ) ;
#563 = APPLIED_DOCUMENT_REFERENCE ( #180,'',( #397) ) ;
#564 = PRODUCT_CONTEXT ( 'NONE', #660, 'mechanical' ) ;
#565 = PROPERTY_DEFINITION ('external definition','', #172 ) ;
#566 = PRODUCT_DEFINITION ( 'General', '', #404, #442 ) ;
#567 = PRODUCT_DEFINITION_SHAPE ( 'NONE', 'NONE',  #848 ) ;
#568 = ITEM_DEFINED_TRANSFORMATION ( 'NONE', 'NONE', #806,  #304 ) ;
#569 = ITEM_DEFINED_TRANSFORMATION ( 'NONE', 'NONE', #136,  #741 ) ;
#570 = APPLIED_EXTERNAL_IDENTIFICATION_ASSIGNMENT ( 'socket countersunk head screw_iso_ISO 10642 - M3 x 8 - 8N.STEP' , #311, #640,( #367) ) ;
#571 = UNCERTAINTY_MEASURE_WITH_UNIT (LENGTH_MEASURE( 1.000000000000000082E-05 ), #479, 'distance_accuracy_value', 'NONE');
#572 = PRODUCT ( 'Battery_Spring_Contact', 'Battery_Spring_Contact', '', ( #564 ) ) ;
#573 = CARTESIAN_POINT ( 'NONE',  ( 566.3570205655262271, -8.080000000002915073, 1331.331549746158771 ) ) ;
#574 = OBJECT_ROLE ('mandatory',$ ) ;
#575 = APPLIED_EXTERNAL_IDENTIFICATION_ASSIGNMENT ( 'socket countersunk head screw_iso_ISO 10642 - M3 x 8 - 8N.STEP' , #462, #842,( #648) ) ;
#576 = PROPERTY_DEFINITION ('external definition','', #180 ) ;
#577 = AXIS2_PLACEMENT_3D ( 'NONE', #615, #744, #310 ) ;
#578 = DIRECTION ( 'NONE',  ( 6.123233995736768501E-17, -1.000000000000000000, -1.387778780781446908E-17 ) ) ;
#579 = APPLICATION_CONTEXT ( 'automotive_design' ) ;
#580 = APPLIED_DOCUMENT_REFERENCE ( #716,'',( #651) ) ;
#581 = DOCUMENT_FILE ( 'socket countersunk head screw_iso_ISO 10642 - M3 x 8 - 8N.STEP' , '', '', #200, '' ,$ ) ;
#582 = PRODUCT_DEFINITION_CONTEXT ( 'detailed design', #529, 'design' ) ;
#583 = ITEM_DEFINED_TRANSFORMATION ( 'NONE', 'NONE', #664,  #7 ) ;
#584 = ROLE_ASSOCIATION ( #153, #235 ) ;
#585 =( REPRESENTATION_RELATIONSHIP ('NONE','NONE', #483, #596 ) REPRESENTATION_RELATIONSHIP_WITH_TRANSFORMATION ( #247 )SHAPE_REPRESENTATION_RELATIONSHIP( ) );
#586 = APPLIED_EXTERNAL_IDENTIFICATION_ASSIGNMENT ( 'socket countersunk head screw_iso_ISO 10642 - M3 x 8 - 8N.STEP' , #722, #17,( #511) ) ;
#587 = PRODUCT ( 'bms 2s', 'bms 2s', '', ( #154 ) ) ;
#588 = PROPERTY_DEFINITION_REPRESENTATION ( #821, #392 ) ;
#589 = DOCUMENT_TYPE ( 'geometry' ) ;
#590 = PRODUCT_DEFINITION_FORMATION_WITH_SPECIFIED_SOURCE ( 'Symmetric', '', #587, .NOT_KNOWN. ) ;
#591 = DIRECTION ( 'NONE',  ( 0.7009092642998600020, 0.000000000000000000, 0.7132504491541726832 ) ) ;
#592 = EXTERNAL_SOURCE (IDENTIFIER('') ) ;
#593 = ROLE_ASSOCIATION ( #123, #58 ) ;
#594 = PRODUCT ( 'magnetic pogo pin connector', 'magnetic pogo pin connector', '', ( #18 ) ) ;
#595 = DIRECTION ( 'NONE',  ( -1.000000000000000222, 0.000000000000000000, 3.955169525227120175E-16 ) ) ;
#596 = SHAPE_REPRESENTATION ( 'Battery_pin_Contact', ( #577 ), #39 ) ;
#597 =( REPRESENTATION_RELATIONSHIP ('NONE','NONE', #483, #531 ) REPRESENTATION_RELATIONSHIP_WITH_TRANSFORMATION ( #368 )SHAPE_REPRESENTATION_RELATIONSHIP( ) );
#598 = DOCUMENT_FILE ( 'Battery_pin_Contact.STEP' , '', '', #222, '' ,$ ) ;
#599 = DIRECTION ( 'NONE',  ( 0.000000000000000000, 0.000000000000000000, 1.000000000000000000 ) ) ;
#600 = APPLIED_EXTERNAL_IDENTIFICATION_ASSIGNMENT ( 'Battery_Case_Main.STEP' , #27, #309,( #201) ) ;
#601 = APPLIED_EXTERNAL_IDENTIFICATION_ASSIGNMENT ( 'Battery_pin_Contact.STEP' , #73, #83,( #739) ) ;
#602 = PROPERTY_DEFINITION_REPRESENTATION ( #416, #392 ) ;
#603 = IDENTIFICATION_ROLE ( 'external document id and location', $) ;
#604 = CARTESIAN_POINT ( 'NONE',  ( 559.9652757251500361, -85.08000000000289731, 1350.501239607317757 ) ) ;
#605 = AXIS2_PLACEMENT_3D ( 'NONE', #452, #783, #116 ) ;
#606 = DIRECTION ( 'NONE',  ( 1.000000000000000000, 0.000000000000000000, 0.000000000000000000 ) ) ;
#607 = AXIS2_PLACEMENT_3D ( 'NONE', #208, #141, #471 ) ;
#608 = EXTERNAL_SOURCE (IDENTIFIER('') ) ;
#609 = PROPERTY_DEFINITION_REPRESENTATION ( #694, #562 ) ;
#610 = DIRECTION ( 'NONE',  ( 6.123233995736766036E-17, 1.000000000000000000, 6.936367501792757747E-17 ) ) ;
#611 = OBJECT_ROLE ('mandatory',$ ) ;
#612 = CONTEXT_DEPENDENT_SHAPE_REPRESENTATION ( #423, #544 ) ;
#613 = DIRECTION ( 'NONE',  ( 6.123233995736766036E-17, 1.000000000000000000, 6.936367501792757747E-17 ) ) ;
#614 = PROPERTY_DEFINITION ('document property','', #810 ) ;
#615 = CARTESIAN_POINT ( 'NONE',  ( 0.000000000000000000, 0.000000000000000000, 0.000000000000000000 ) ) ;
#616 = APPLIED_EXTERNAL_IDENTIFICATION_ASSIGNMENT ( 'Battery_Spring_Contact.STEP' , #696, #624,( #85) ) ;
#617 = CONTEXT_DEPENDENT_SHAPE_REPRESENTATION ( #679, #97 ) ;
#618 = ITEM_DEFINED_TRANSFORMATION ( 'NONE', 'NONE', #420,  #741 ) ;
#619 = PRODUCT_DEFINITION_CONTEXT ( 'detailed design', #824, 'design' ) ;
#620 = DIRECTION ( 'NONE',  ( 0.000000000000000000, 0.000000000000000000, 1.000000000000000000 ) ) ;
#621 = PROPERTY_DEFINITION ('document property','', #739 ) ;
#622 = DOCUMENT_TYPE ( 'geometry' ) ;
#623 = PROPERTY_DEFINITION ('document property','', #487 ) ;
#624 = EXTERNAL_SOURCE (IDENTIFIER('') ) ;
#625 = PROPERTY_DEFINITION_REPRESENTATION ( #80, #119 ) ;
#626 = SHAPE_DEFINITION_REPRESENTATION ( #650, #531 ) ;
#627 =( LENGTH_UNIT ( ) NAMED_UNIT ( * ) SI_UNIT ( .MILLI., .METRE. ) );
#628 = ROLE_ASSOCIATION ( #57, #211 ) ;
#629 = APPLICATION_CONTEXT ( 'automotive_design' ) ;
#630 = PROPERTY_DEFINITION_REPRESENTATION ( #286, #119 ) ;
#631 = APPLICATION_PROTOCOL_DEFINITION ( 'draft international standard', 'automotive_design', 1998, #332 ) ;
#632 = APPLICATION_PROTOCOL_DEFINITION ( 'draft international standard', 'automotive_design', 1998, #579 ) ;
#633 = OBJECT_ROLE ('mandatory',$ ) ;
#634 = PROPERTY_DEFINITION ('document property','', #511 ) ;
#635 = AXIS2_PLACEMENT_3D ( 'NONE', #665, #138, #539 ) ;
#636 = PROPERTY_DEFINITION_REPRESENTATION ( #373, #562 ) ;
#637 =( GEOMETRIC_REPRESENTATION_CONTEXT ( 3 ) GLOBAL_UNCERTAINTY_ASSIGNED_CONTEXT ( ( #218 ) ) GLOBAL_UNIT_ASSIGNED_CONTEXT ( ( #23, #700, #82 ) ) REPRESENTATION_CONTEXT ( 'NONE', 'WORKASPACE' ) );
#638 = PRODUCT_RELATED_PRODUCT_CATEGORY ( 'part', '', ( #785 ) ) ;
#639 = PRODUCT_DEFINITION_SHAPE ( 'NONE', 'NONE',  #862 ) ;
#640 = EXTERNAL_SOURCE (IDENTIFIER('') ) ;
#641 = PRODUCT_DEFINITION_SHAPE ( 'NONE', 'NONE',  #397 ) ;
#642 = OBJECT_ROLE ('mandatory',$ ) ;
#643 = PROPERTY_DEFINITION_REPRESENTATION ( #434, #562 ) ;
#644 = DIRECTION ( 'NONE',  ( 6.123233995736770966E-17, -1.000000000000000000, 6.938893903907254570E-18 ) ) ;
#645 = PRODUCT_DEFINITION_SHAPE ( 'NONE', 'NONE',  #869 ) ;
#646 = EXTERNAL_SOURCE (IDENTIFIER('') ) ;
#647 = ITEM_DEFINED_TRANSFORMATION ( 'NONE', 'NONE', #179,  #741 ) ;
#648 = DOCUMENT_FILE ( 'socket countersunk head screw_iso_ISO 10642 - M3 x 8 - 8N.STEP' , '', '', #672, '' ,$ ) ;
#649 = OBJECT_ROLE ('mandatory',$ ) ;
#650 = PRODUCT_DEFINITION_SHAPE ( 'NONE', 'NONE',  #651 ) ;
#651 = PRODUCT_DEFINITION ( 'General', '', #363, #619 ) ;
#652 = CONTEXT_DEPENDENT_SHAPE_REPRESENTATION ( #182, #293 ) ;
#653 = PRODUCT_DEFINITION_FORMATION_WITH_SPECIFIED_SOURCE ( 'Symmetric', '', #572, .NOT_KNOWN. ) ;
#654 =( REPRESENTATION_RELATIONSHIP ('NONE','NONE', #483, #119 ) REPRESENTATION_RELATIONSHIP_WITH_TRANSFORMATION ( #832 )SHAPE_REPRESENTATION_RELATIONSHIP( ) );
#655 = DIRECTION ( 'NONE',  ( 6.123233995736768501E-17, -1.000000000000000000, -2.428612866367530548E-17 ) ) ;
#656 = CONTEXT_DEPENDENT_SHAPE_REPRESENTATION ( #764, #224 ) ;
#657 = PRODUCT ( 'Twist lock battery part V3', 'Twist lock battery part V3', '', ( #212 ) ) ;
#658 = OBJECT_ROLE ('mandatory',$ ) ;
#659 = CARTESIAN_POINT ( 'NONE',  ( 586.9648982469125258, 3.946483069240536601, 1350.358468173355277 ) ) ;
#660 = APPLICATION_CONTEXT ( 'automotive_design' ) ;
#661 = DIRECTION ( 'NONE',  ( 0.001922618089195796869, 7.056607483668226612E-18, 0.9999981517681337806 ) ) ;
#662 = SHAPE_REPRESENTATION ( 'Twist lock battery part V3', ( #819 ), #780 ) ;
#663 = APPLIED_EXTERNAL_IDENTIFICATION_ASSIGNMENT ( 'Cell_21700.STEP' , #603, #177,( #674) ) ;
#664 = AXIS2_PLACEMENT_3D ( 'NONE', #749, #811, #60 ) ;
#665 = CARTESIAN_POINT ( 'NONE',  ( 551.9751198256574298, -8.080000000000135074, 1368.046033085917315 ) ) ;
#666 =( REPRESENTATION_RELATIONSHIP ('NONE','NONE', #483, #119 ) REPRESENTATION_RELATIONSHIP_WITH_TRANSFORMATION ( #583 )SHAPE_REPRESENTATION_RELATIONSHIP( ) );
#667 = DOCUMENT_TYPE ( 'geometry' ) ;
#668 = DIRECTION ( 'NONE',  ( 0.002089302498411979570, -6.949145650598445678E-17, 0.9999978174051533664 ) ) ;
#669 =( LENGTH_UNIT ( ) NAMED_UNIT ( * ) SI_UNIT ( .MILLI., .METRE. ) );
#670 = CONTEXT_DEPENDENT_SHAPE_REPRESENTATION ( #760, #144 ) ;
#671 = DIRECTION ( 'NONE',  ( -0.7633195855304957256, 3.989863994746658166E-17, 0.6460210602956784065 ) ) ;
#672 = DOCUMENT_TYPE ( 'geometry' ) ;
#673 = CARTESIAN_POINT ( 'NONE',  ( 0.000000000000000000, 0.000000000000000000, 0.000000000000000000 ) ) ;
#674 = DOCUMENT_FILE ( 'Cell_21700.STEP' , '', '', #148, '' ,$ ) ;
#675 = DIRECTION ( 'NONE',  ( 0.7134618893958835084, 0.000000000000000000, 0.7006940362095687158 ) ) ;
#676 = PRODUCT_DEFINITION_SHAPE ( 'NONE', 'NONE',  #854 ) ;
#677 = AXIS2_PLACEMENT_3D ( 'NONE', #125, #668, #328 ) ;
#678 =( LENGTH_UNIT ( ) NAMED_UNIT ( * ) SI_UNIT ( .MILLI., .METRE. ) );
#679 =( REPRESENTATION_RELATIONSHIP ('NONE','NONE', #483, #119 ) REPRESENTATION_RELATIONSHIP_WITH_TRANSFORMATION ( #219 )SHAPE_REPRESENTATION_RELATIONSHIP( ) );
#680 = PROPERTY_DEFINITION ('document property','', #201 ) ;
#681 = PROPERTY_DEFINITION_REPRESENTATION ( #621, #596 ) ;
#682 = CARTESIAN_POINT ( 'NONE',  ( 567.5570469317550533, -88.86500000000295074, 1367.836337961425897 ) ) ;
#683 = DOCUMENT_TYPE ( 'geometry' ) ;
#684 = PROPERTY_DEFINITION ('document property','', #100 ) ;
#685 = DOCUMENT_FILE ( 'Cell_21700.STEP' , '', '', #26, '' ,$ ) ;
#686 = APPLICATION_PROTOCOL_DEFINITION ( 'draft international standard', 'automotive_design', 1998, #690 ) ;
#687 = PROPERTY_DEFINITION ('document property','', #598 ) ;
#688 = APPLIED_EXTERNAL_IDENTIFICATION_ASSIGNMENT ( 'magnetic pogo pin connector.STEP' , #409, #775,( #180) ) ;
#689 = ROLE_ASSOCIATION ( #733, #353 ) ;
#690 = APPLICATION_CONTEXT ( 'automotive_design' ) ;
#691 = PRODUCT_DEFINITION_CONTEXT ( 'detailed design', #579, 'design' ) ;
#692 = ITEM_DEFINED_TRANSFORMATION ( 'NONE', 'NONE', #708,  #192 ) ;
#693 = PROPERTY_DEFINITION ('external definition','', #46 ) ;
#694 = PROPERTY_DEFINITION ('external definition','', #674 ) ;
#695 = DIRECTION ( 'NONE',  ( 1.000000000000000000, 0.000000000000000000, 0.000000000000000000 ) ) ;
#696 = IDENTIFICATION_ROLE ( 'external document id and location', $) ;
#697 = PROPERTY_DEFINITION_REPRESENTATION ( #702, #119 ) ;
#698 = DIRECTION ( 'NONE',  ( 0.000000000000000000, 0.000000000000000000, 1.000000000000000000 ) ) ;
#699 = PROPERTY_DEFINITION ('external definition','', #100 ) ;
#700 =( NAMED_UNIT ( * ) PLANE_ANGLE_UNIT ( ) SI_UNIT ( $, .RADIAN. ) );
#701 = IDENTIFICATION_ROLE ( 'external document id and location', $) ;
#702 = PROPERTY_DEFINITION ('document property','', #768 ) ;
#703 = APPLICATION_CONTEXT ( 'automotive_design' ) ;
#704 = ITEM_DEFINED_TRANSFORMATION ( 'NONE', 'NONE', #817,  #819 ) ;
#705 = EXTERNAL_SOURCE (IDENTIFIER('') ) ;
#706 = ROLE_ASSOCIATION ( #255, #271 ) ;
#707 = DIRECTION ( 'NONE',  ( 1.000000000000000000, 0.000000000000000000, 0.000000000000000000 ) ) ;
#708 = AXIS2_PLACEMENT_3D ( 'NONE', #51, #101, #315 ) ;
#709 = PROPERTY_DEFINITION ('external definition','', #716 ) ;
#710 =( GEOMETRIC_REPRESENTATION_CONTEXT ( 3 ) GLOBAL_UNCERTAINTY_ASSIGNED_CONTEXT ( ( #31 ) ) GLOBAL_UNIT_ASSIGNED_CONTEXT ( ( #393, #460, #827 ) ) REPRESENTATION_CONTEXT ( 'NONE', 'WORKASPACE' ) );
#711 = PROPERTY_DEFINITION ('external definition','', #451 ) ;
#712 = PROPERTY_DEFINITION ('external definition','', #487 ) ;
#713 = PROPERTY_DEFINITION_REPRESENTATION ( #693, #531 ) ;
#714 = DIRECTION ( 'NONE',  ( -0.3941342834575616294, -4.645400053440105313E-17, 0.9190528638785665505 ) ) ;
#715 = PRODUCT_DEFINITION_SHAPE ( 'NONE', 'NONE',  #55 ) ;
#716 = DOCUMENT_FILE ( 'socket countersunk head screw_iso_ISO 10642 - M3 x 8 - 8N.STEP' , '', '', #515, '' ,$ ) ;
#717 =( REPRESENTATION_RELATIONSHIP ('NONE','NONE', #483, #531 ) REPRESENTATION_RELATIONSHIP_WITH_TRANSFORMATION ( #518 )SHAPE_REPRESENTATION_RELATIONSHIP( ) );
#718 = IDENTIFICATION_ROLE ( 'external document id and location', $) ;
#719 = DIRECTION ( 'NONE',  ( 6.123233995736770966E-17, -1.000000000000000000, 6.938893903907234541E-18 ) ) ;
#720 = APPLIED_EXTERNAL_IDENTIFICATION_ASSIGNMENT ( 'Battery_Case_Bottom_Cover.STEP' , #168, #770,( #181) ) ;
#721 = PROPERTY_DEFINITION_REPRESENTATION ( #84, #531 ) ;
#722 = IDENTIFICATION_ROLE ( 'external document id and location', $) ;
#723 = PRODUCT_DEFINITION_SHAPE ( 'NONE', 'NONE',  #843 ) ;
#724 = DIRECTION ( 'NONE',  ( 0.001449443863483795662, 7.027639454383586066E-18, 0.9999989495556915742 ) ) ;
#725 = IDENTIFICATION_ROLE ( 'external document id and location', $) ;
#726 = AXIS2_PLACEMENT_3D ( 'NONE', #47, #183, #238 ) ;
#727 = PROPERTY_DEFINITION_REPRESENTATION ( #163, #531 ) ;
#728 = AXIS2_PLACEMENT_3D ( 'NONE', #402, #807, #319 ) ;
#729 = PROPERTY_DEFINITION_REPRESENTATION ( #480, #419 ) ;
#730 = DOCUMENT_TYPE ( 'geometry' ) ;
#731 = APPLIED_DOCUMENT_REFERENCE ( #648,'',( #651) ) ;
#732 =( LENGTH_UNIT ( ) NAMED_UNIT ( * ) SI_UNIT ( .MILLI., .METRE. ) );
#733 = OBJECT_ROLE ('mandatory',$ ) ;
#734 = ITEM_DEFINED_TRANSFORMATION ( 'NONE', 'NONE', #52,  #113 ) ;
#735 = OBJECT_ROLE ('mandatory',$ ) ;
#736 = DIRECTION ( 'NONE',  ( 0.005287830887528269935, -3.469446951953614189E-18, 0.9999860193245226903 ) ) ;
#737 = APPLIED_EXTERNAL_IDENTIFICATION_ASSIGNMENT ( 'socket countersunk head screw_iso_ISO 10642 - M3 x 8 - 8N.STEP' , #111, #499,( #716) ) ;
#738 = PRODUCT ( 'Twist_Lock_Wing', 'Twist_Lock_Wing', '', ( #350 ) ) ;
#739 = DOCUMENT_FILE ( 'Battery_pin_Contact.STEP' , '', '', #106, '' ,$ ) ;
#740 = AXIS2_PLACEMENT_3D ( 'NONE', #56, #195, #469 ) ;
#741 = AXIS2_PLACEMENT_3D ( 'NONE', #135, #802, #606 ) ;
#742 = DIRECTION ( 'NONE',  ( 0.9999860193245228013, 1.970537448492404309E-17, -0.005287830887529394036 ) ) ;
#743 = IDENTIFICATION_ROLE ( 'external document id and location', $) ;
#744 = DIRECTION ( 'NONE',  ( 0.000000000000000000, 0.000000000000000000, 1.000000000000000000 ) ) ;
#745 = PROPERTY_DEFINITION_REPRESENTATION ( #558, #22 ) ;
#746 = CARTESIAN_POINT ( 'NONE',  ( 579.7077186621689862, -81.48000000000294563, 1358.980884696547264 ) ) ;
#747 = PRODUCT_RELATED_PRODUCT_CATEGORY ( 'part', '', ( #35 ) ) ;
#748 =( REPRESENTATION_RELATIONSHIP ('NONE','NONE', #483, #596 ) REPRESENTATION_RELATIONSHIP_WITH_TRANSFORMATION ( #1 )SHAPE_REPRESENTATION_RELATIONSHIP( ) );
#749 = CARTESIAN_POINT ( 'NONE',  ( 585.2437186790323267, -85.07999999999979934, 1352.957248805636254 ) ) ;
#750 = OBJECT_ROLE ('mandatory',$ ) ;
#751 = APPLICATION_CONTEXT ( 'automotive_design' ) ;
#752 = APPLIED_DOCUMENT_REFERENCE ( #739,'',( #112) ) ;
#753 = CARTESIAN_POINT ( 'NONE',  ( 532.3139200656144112, -88.86500000000295074, 1365.377294414163771 ) ) ;
#754 = PROPERTY_DEFINITION ('external definition','', #201 ) ;
#755 = APPLICATION_PROTOCOL_DEFINITION ( 'draft international standard', 'automotive_design', 1998, #475 ) ;
#756 = UNCERTAINTY_MEASURE_WITH_UNIT (LENGTH_MEASURE( 1.000000000000000082E-05 ), #627, 'distance_accuracy_value', 'NONE');
#757 = CONTEXT_DEPENDENT_SHAPE_REPRESENTATION ( #808, #485 ) ;
#758 = APPLICATION_PROTOCOL_DEFINITION ( 'draft international standard', 'automotive_design', 1998, #794 ) ;
#759 = DOCUMENT_TYPE ( 'geometry' ) ;
#760 =( REPRESENTATION_RELATIONSHIP ('NONE','NONE', #483, #596 ) REPRESENTATION_RELATIONSHIP_WITH_TRANSFORMATION ( #521 )SHAPE_REPRESENTATION_RELATIONSHIP( ) );
#761 = PRODUCT_DEFINITION_SHAPE ( 'NONE', 'NONE',  #829 ) ;
#762 = CONTEXT_DEPENDENT_SHAPE_REPRESENTATION ( #748, #639 ) ;
#763 = APPLICATION_PROTOCOL_DEFINITION ( 'draft international standard', 'automotive_design', 1998, #517 ) ;
#764 =( REPRESENTATION_RELATIONSHIP ('NONE','NONE', #483, #531 ) REPRESENTATION_RELATIONSHIP_WITH_TRANSFORMATION ( #89 )SHAPE_REPRESENTATION_RELATIONSHIP( ) );
#765 = APPLICATION_CONTEXT ( 'automotive_design' ) ;
#766 = CONTEXT_DEPENDENT_SHAPE_REPRESENTATION ( #525, #140 ) ;
#767 = APPLICATION_PROTOCOL_DEFINITION ( 'draft international standard', 'automotive_design', 1998, #703 ) ;
#768 = DOCUMENT_FILE ( 'Battery_Spring_Contact.STEP' , '', '', #394, '' ,$ ) ;
#769 = APPLICATION_PROTOCOL_DEFINITION ( 'draft international standard', 'automotive_design', 1998, #458 ) ;
#770 = EXTERNAL_SOURCE (IDENTIFIER('') ) ;
#771 = PRODUCT_DEFINITION_CONTEXT ( 'detailed design', #765, 'design' ) ;
#772 =( LENGTH_UNIT ( ) NAMED_UNIT ( * ) SI_UNIT ( .MILLI., .METRE. ) );
#773 = PROPERTY_DEFINITION_REPRESENTATION ( #576, #351 ) ;
#774 = DOCUMENT_FILE ( 'socket countersunk head screw_iso_ISO 10642 - M3 x 8 - 8N.STEP' , '', '', #490, '' ,$ ) ;
#775 = EXTERNAL_SOURCE (IDENTIFIER('') ) ;
#776 = ITEM_DEFINED_TRANSFORMATION ( 'NONE', 'NONE', #726,  #607 ) ;
#777 = EXTERNAL_SOURCE (IDENTIFIER('') ) ;
#778 = DIRECTION ( 'NONE',  ( 0.000000000000000000, 0.000000000000000000, 1.000000000000000000 ) ) ;
#779 = PROPERTY_DEFINITION_REPRESENTATION ( #94, #562 ) ;
#780 =( GEOMETRIC_REPRESENTATION_CONTEXT ( 3 ) GLOBAL_UNCERTAINTY_ASSIGNED_CONTEXT ( ( #415 ) ) GLOBAL_UNIT_ASSIGNED_CONTEXT ( ( #13, #213, #291 ) ) REPRESENTATION_CONTEXT ( 'NONE', 'WORKASPACE' ) );
#781 = DOCUMENT_FILE ( 'socket countersunk head screw_iso_ISO 10642 - M3 x 8 - 8N.STEP' , '', '', #281, '' ,$ ) ;
#782 = PRODUCT_DEFINITION_CONTEXT ( 'detailed design', #126, 'design' ) ;
#783 = DIRECTION ( 'NONE',  ( -1.312301523459562336E-16, -0.9999999999999997780, 1.025282317921890029E-16 ) ) ;
#784 = EXTERNAL_SOURCE (IDENTIFIER('') ) ;
#785 = PRODUCT ( 'Battery_Twist_Lock_Pack.SLDASM', 'Battery_Twist_Lock_Pack.SLDASM', '', ( #520 ) ) ;
#786 = ROLE_ASSOCIATION ( #280, #230 ) ;
#787 = ITEM_DEFINED_TRANSFORMATION ( 'NONE', 'NONE', #505,  #741 ) ;
#788 = EXTERNAL_SOURCE (IDENTIFIER('') ) ;
#789 = OBJECT_ROLE ('mandatory',$ ) ;
#790 = ROLE_ASSOCIATION ( #649, #731 ) ;
#791 = CONTEXT_DEPENDENT_SHAPE_REPRESENTATION ( #88, #292 ) ;
#792 = PRODUCT_DEFINITION_FORMATION_WITH_SPECIFIED_SOURCE ( 'Symmetric', '', #526, .NOT_KNOWN. ) ;
#793 = CONTEXT_DEPENDENT_SHAPE_REPRESENTATION ( #320, #414 ) ;
#794 = APPLICATION_CONTEXT ( 'automotive_design' ) ;
#795 = DIRECTION ( 'NONE',  ( -0.1916179316653092990, -2.535384112953799709E-17, 0.9814695961996524609 ) ) ;
#796 = PRODUCT_DEFINITION_SHAPE ( 'NONE', 'NONE',  #838 ) ;
#797 = ITEM_DEFINED_TRANSFORMATION ( 'NONE', 'NONE', #433,  #304 ) ;
#798 = CARTESIAN_POINT ( 'NONE',  ( 532.3139200655992909, 3.960661735564909858, 1365.377294414163998 ) ) ;
#799 = PROPERTY_DEFINITION_REPRESENTATION ( #614, #392 ) ;
#800 = DIRECTION ( 'NONE',  ( 3.955169525227120175E-16, 2.775557561562897268E-16, 1.000000000000000222 ) ) ;
#801 = PRODUCT_DEFINITION_SHAPE ( 'NONE', 'NONE',  #871 ) ;
#802 = DIRECTION ( 'NONE',  ( 0.000000000000000000, 0.000000000000000000, 1.000000000000000000 ) ) ;
#803 = DOCUMENT_TYPE ( 'geometry' ) ;
#804 = PROPERTY_DEFINITION_REPRESENTATION ( #754, #117 ) ;
#805 = PRODUCT_RELATED_PRODUCT_CATEGORY ( 'part', '', ( #253 ) ) ;
#806 = AXIS2_PLACEMENT_3D ( 'NONE', #746, #524, #478 ) ;
#807 = DIRECTION ( 'NONE',  ( 0.000000000000000000, 0.000000000000000000, 1.000000000000000000 ) ) ;
#808 =( REPRESENTATION_RELATIONSHIP ('NONE','NONE', #483, #596 ) REPRESENTATION_RELATIONSHIP_WITH_TRANSFORMATION ( #828 )SHAPE_REPRESENTATION_RELATIONSHIP( ) );
#809 = APPLICATION_CONTEXT ( 'automotive_design' ) ;
#810 = DOCUMENT_FILE ( 'Twist_Lock_Wing.STEP' , '', '', #803, '' ,$ ) ;
#811 = DIRECTION ( 'NONE',  ( -4.302114220422481594E-16, 0.000000000000000000, -0.9999999999999998890 ) ) ;
#812 = PROPERTY_DEFINITION ('external definition','', #581 ) ;
#813 = DIRECTION ( 'NONE',  ( -0.9999999952256914959, 2.130287862344561982E-19, 9.771702489488887089E-05 ) ) ;
#814 = APPLIED_EXTERNAL_IDENTIFICATION_ASSIGNMENT ( 'Cell_21700.STEP' , #263, #537,( #287) ) ;
#815 = PROPERTY_DEFINITION_REPRESENTATION ( #9, #119 ) ;
#816 = DOCUMENT_TYPE ( 'geometry' ) ;
#817 = AXIS2_PLACEMENT_3D ( 'NONE', #261, #528, #54 ) ;
#818 =( LENGTH_UNIT ( ) NAMED_UNIT ( * ) SI_UNIT ( .MILLI., .METRE. ) );
#819 = AXIS2_PLACEMENT_3D ( 'NONE', #546, #155, #823 ) ;
#820 = IDENTIFICATION_ROLE ( 'external document id and location', $) ;
#821 = PROPERTY_DEFINITION ('document property','', #523 ) ;
#822 = CARTESIAN_POINT ( 'NONE',  ( 0.000000000000000000, 0.000000000000000000, 0.000000000000000000 ) ) ;
#823 = DIRECTION ( 'NONE',  ( 1.000000000000000000, 0.000000000000000000, 0.000000000000000000 ) ) ;
#824 = APPLICATION_CONTEXT ( 'automotive_design' ) ;
#825 = PROPERTY_DEFINITION_REPRESENTATION ( #486, #662 ) ;
#826 = PROPERTY_DEFINITION ('document property','', #156 ) ;
#827 =( NAMED_UNIT ( * ) SI_UNIT ( $, .STERADIAN. ) SOLID_ANGLE_UNIT ( ) );
#828 = ITEM_DEFINED_TRANSFORMATION ( 'NONE', 'NONE', #740,  #577 ) ;
#829 = PRODUCT_DEFINITION ( 'General', '', #590, #691 ) ;
#830 = PRODUCT_CONTEXT ( 'NONE', #517, 'mechanical' ) ;
#831 =( REPRESENTATION_RELATIONSHIP ('NONE','NONE', #483, #117 ) REPRESENTATION_RELATIONSHIP_WITH_TRANSFORMATION ( #734 )SHAPE_REPRESENTATION_RELATIONSHIP( ) );
#832 = ITEM_DEFINED_TRANSFORMATION ( 'NONE', 'NONE', #150,  #7 ) ;
#833 =( REPRESENTATION_RELATIONSHIP ('NONE','NONE', #483, #531 ) REPRESENTATION_RELATIONSHIP_WITH_TRANSFORMATION ( #647 )SHAPE_REPRESENTATION_RELATIONSHIP( ) );
#834 = EXTERNAL_SOURCE (IDENTIFIER('') ) ;
#835 = APPLIED_DOCUMENT_REFERENCE ( #367,'',( #651) ) ;
#836 = PRODUCT_DEFINITION_SHAPE ( 'NONE', 'NONE',  #868 ) ;
#837 = CONTEXT_DEPENDENT_SHAPE_REPRESENTATION ( #215, #567 ) ;
#838 = PRODUCT_DEFINITION ( 'General', '', #465, #104 ) ;
#839 = DIRECTION ( 'NONE',  ( 0.000000000000000000, 0.000000000000000000, 1.000000000000000000 ) ) ;
#840 = PRODUCT_DEFINITION_SHAPE ( 'NONE', 'NONE',  #352 ) ;
#841 = APPLIED_DOCUMENT_REFERENCE ( #451,'',( #829) ) ;
#842 = EXTERNAL_SOURCE (IDENTIFIER('') ) ;
#843 = NEXT_ASSEMBLY_USAGE_OCCURRENCE ( 'NAUO1', ' ', ' ', #187, #829, $ ) ;
#844 = NEXT_ASSEMBLY_USAGE_OCCURRENCE ( 'NAUO2', ' ', ' ', #187, #651, $ ) ;
#845 = NEXT_ASSEMBLY_USAGE_OCCURRENCE ( 'NAUO3', ' ', ' ', #187, #651, $ ) ;
#846 = NEXT_ASSEMBLY_USAGE_OCCURRENCE ( 'NAUO4', ' ', ' ', #187, #829, $ ) ;
#847 = NEXT_ASSEMBLY_USAGE_OCCURRENCE ( 'NAUO5', ' ', ' ', #187, #651, $ ) ;
#848 = NEXT_ASSEMBLY_USAGE_OCCURRENCE ( 'NAUO6', ' ', ' ', #187, #651, $ ) ;
#849 = NEXT_ASSEMBLY_USAGE_OCCURRENCE ( 'NAUO7', ' ', ' ', #187, #651, $ ) ;
#850 = NEXT_ASSEMBLY_USAGE_OCCURRENCE ( 'NAUO8', ' ', ' ', #187, #651, $ ) ;
#851 = NEXT_ASSEMBLY_USAGE_OCCURRENCE ( 'NAUO9', ' ', ' ', #187, #14, $ ) ;
#852 = NEXT_ASSEMBLY_USAGE_OCCURRENCE ( 'NAUO10', ' ', ' ', #187, #112, $ ) ;
#853 = NEXT_ASSEMBLY_USAGE_OCCURRENCE ( 'NAUO11', ' ', ' ', #187, #566, $ ) ;
#854 = NEXT_ASSEMBLY_USAGE_OCCURRENCE ( 'NAUO12', ' ', ' ', #187, #55, $ ) ;
#855 = NEXT_ASSEMBLY_USAGE_OCCURRENCE ( 'NAUO13', ' ', ' ', #187, #78, $ ) ;
#856 = NEXT_ASSEMBLY_USAGE_OCCURRENCE ( 'NAUO14', ' ', ' ', #187, #566, $ ) ;
#857 = NEXT_ASSEMBLY_USAGE_OCCURRENCE ( 'NAUO15', ' ', ' ', #187, #78, $ ) ;
#858 = NEXT_ASSEMBLY_USAGE_OCCURRENCE ( 'NAUO16', ' ', ' ', #187, #112, $ ) ;
#859 = NEXT_ASSEMBLY_USAGE_OCCURRENCE ( 'NAUO17', ' ', ' ', #187, #838, $ ) ;
#860 = NEXT_ASSEMBLY_USAGE_OCCURRENCE ( 'NAUO18', ' ', ' ', #187, #352, $ ) ;
#861 = NEXT_ASSEMBLY_USAGE_OCCURRENCE ( 'NAUO19', ' ', ' ', #187, #352, $ ) ;
#862 = NEXT_ASSEMBLY_USAGE_OCCURRENCE ( 'NAUO20', ' ', ' ', #187, #112, $ ) ;
#863 = NEXT_ASSEMBLY_USAGE_OCCURRENCE ( 'NAUO21', ' ', ' ', #187, #352, $ ) ;
#864 = NEXT_ASSEMBLY_USAGE_OCCURRENCE ( 'NAUO22', ' ', ' ', #187, #112, $ ) ;
#865 = NEXT_ASSEMBLY_USAGE_OCCURRENCE ( 'NAUO23', ' ', ' ', #187, #566, $ ) ;
#866 = NEXT_ASSEMBLY_USAGE_OCCURRENCE ( 'NAUO24', ' ', ' ', #187, #566, $ ) ;
#867 = NEXT_ASSEMBLY_USAGE_OCCURRENCE ( 'NAUO25', ' ', ' ', #187, #352, $ ) ;
#868 = NEXT_ASSEMBLY_USAGE_OCCURRENCE ( 'NAUO26', ' ', ' ', #187, #651, $ ) ;
#869 = NEXT_ASSEMBLY_USAGE_OCCURRENCE ( 'NAUO27', ' ', ' ', #187, #651, $ ) ;
#870 = NEXT_ASSEMBLY_USAGE_OCCURRENCE ( 'NAUO28', ' ', ' ', #187, #651, $ ) ;
#871 = NEXT_ASSEMBLY_USAGE_OCCURRENCE ( 'NAUO29', ' ', ' ', #187, #651, $ ) ;
#872 = NEXT_ASSEMBLY_USAGE_OCCURRENCE ( 'NAUO30', ' ', ' ', #187, #397, $ ) ;
ENDSEC;
END-ISO-10303-21;
