ISO-10303-21;
HEADER;
FILE_DESCRIPTION (( 'STEP AP214' ),
    '1' );
FILE_NAME ('Battery_Spring_Contact.STEP',
    '2026-08-21T20:26:05',
    ( '' ),
    ( '' ),
    'SwSTEP 2.0',
    'SolidWorks 2025',
    '' );
FILE_SCHEMA (( 'AUTOMOTIVE_DESIGN' ));
ENDSEC;

DATA;
#1 = CARTESIAN_POINT ( 'NONE',  ( 4.750000000000000888, 0.2999999999999999889, -2.746645503629945224E-15 ) ) ;
#2 = ADVANCED_FACE ( 'NONE', ( #5 ), #483, .T. ) ;
#3 = ORIENTED_EDGE ( 'NONE', *, *, #448, .T. ) ;
#4 = DIRECTION ( 'NONE',  ( 0.000000000000000000, 1.000000000000000000, -0.000000000000000000 ) ) ;
#5 = FACE_OUTER_BOUND ( 'NONE', #476, .T. ) ;
#6 = PRESENTATION_LAYER_ASSIGNMENT (  '', '', ( #512 ) ) ;
#7 = VECTOR ( 'NONE', #311, 1000.000000000000000 ) ;
#8 = VECTOR ( 'NONE', #15, 1000.000000000000000 ) ;
#9 = CARTESIAN_POINT ( 'NONE',  ( 0.000000000000000000, 1.000000000000000000, -10.50000000000000000 ) ) ;
#10 = DIRECTION ( 'NONE',  ( 1.000000000000000000, -0.000000000000000000, 0.000000000000000000 ) ) ;
#11 = EDGE_CURVE ( 'NONE', #239, #138, #123, .T. ) ;
#12 = DIRECTION ( 'NONE',  ( -0.000000000000000000, -1.000000000000000000, -0.000000000000000000 ) ) ;
#13 = CARTESIAN_POINT ( 'NONE',  ( 6.000000000000000000, 0.2999999999999999889, -6.000000000000000000 ) ) ;
#14 = ORIENTED_EDGE ( 'NONE', *, *, #84, .F. ) ;
#15 = DIRECTION ( 'NONE',  ( -0.000000000000000000, -1.000000000000000000, -0.000000000000000000 ) ) ;
#16 = ORIENTED_EDGE ( 'NONE', *, *, #644, .F. ) ;
#17 = VECTOR ( 'NONE', #76, 1000.000000000000000 ) ;
#18 = CARTESIAN_POINT ( 'NONE',  ( 19.00000000000000000, 0.2999999999999999889, 0.000000000000000000 ) ) ;
#19 = EDGE_CURVE ( 'NONE', #41, #583, #531, .T. ) ;
#20 = CARTESIAN_POINT ( 'NONE',  ( 0.000000000000000000, 0.000000000000000000, 0.000000000000000000 ) ) ;
#21 = ORIENTED_EDGE ( 'NONE', *, *, #479, .F. ) ;
#22 = DIRECTION ( 'NONE',  ( 0.000000000000000000, -0.000000000000000000, 1.000000000000000000 ) ) ;
#23 = VERTEX_POINT ( 'NONE', #65 ) ;
#24 = CARTESIAN_POINT ( 'NONE',  ( 7.250000000000006217, 0.2999999999999999889, -4.192248400277289071E-15 ) ) ;
#25 = CARTESIAN_POINT ( 'NONE',  ( 19.00000000000000000, 0.2999999999999999889, -7.500000000000000000 ) ) ;
#26 = ORIENTED_EDGE ( 'NONE', *, *, #235, .F. ) ;
#27 = AXIS2_PLACEMENT_3D ( 'NONE', #13, #277, #221 ) ;
#28 = CARTESIAN_POINT ( 'NONE',  ( 4.750000000000000888, 0.2999999999999999889, -12.00000000000000000 ) ) ;
#29 = CARTESIAN_POINT ( 'NONE',  ( 7.250000000000000000, 1.000000000000000000, -1.499999999999999556 ) ) ;
#30 = ORIENTED_EDGE ( 'NONE', *, *, #19, .F. ) ;
#31 = PLANE ( 'NONE',  #50 ) ;
#32 = DIRECTION ( 'NONE',  ( 0.000000000000000000, 0.000000000000000000, 1.000000000000000000 ) ) ;
#33 = ORIENTED_EDGE ( 'NONE', *, *, #350, .F. ) ;
#34 = CARTESIAN_POINT ( 'NONE',  ( 6.000000000000000000, 3.600000000000000089, -9.250000000000000000 ) ) ;
#35 = DIRECTION ( 'NONE',  ( -1.000000000000000000, 0.000000000000000000, 0.000000000000000000 ) ) ;
#36 = EDGE_LOOP ( 'NONE', ( #422, #474, #437, #90, #215, #553, #611, #607 ) ) ;
#37 = VECTOR ( 'NONE', #81, 1000.000000000000000 ) ;
#38 =( NAMED_UNIT ( * ) PLANE_ANGLE_UNIT ( ) SI_UNIT ( $, .RADIAN. ) );
#39 = CARTESIAN_POINT ( 'NONE',  ( 6.000000000000000000, 3.600000000000000089, -6.000000000000000000 ) ) ;
#40 = EDGE_CURVE ( 'NONE', #660, #517, #57, .T. ) ;
#41 = VERTEX_POINT ( 'NONE', #70 ) ;
#42 = DIRECTION ( 'NONE',  ( 1.000000000000000000, -0.000000000000000000, 0.000000000000000000 ) ) ;
#43 = CARTESIAN_POINT ( 'NONE',  ( 4.750000000000000000, 1.000000000000000000, -10.50000000000000000 ) ) ;
#44 = ORIENTED_EDGE ( 'NONE', *, *, #533, .F. ) ;
#45 = PLANE ( 'NONE',  #162 ) ;
#46 = DIRECTION ( 'NONE',  ( 0.000000000000000000, 0.000000000000000000, 1.000000000000000000 ) ) ;
#47 = ORIENTED_EDGE ( 'NONE', *, *, #124, .F. ) ;
#48 = SURFACE_STYLE_FILL_AREA ( #568 ) ;
#49 = DIRECTION ( 'NONE',  ( -1.000000000000000000, 0.000000000000000000, 0.000000000000000000 ) ) ;
#50 = AXIS2_PLACEMENT_3D ( 'NONE', #449, #136, #181 ) ;
#51 = EDGE_LOOP ( 'NONE', ( #271, #497 ) ) ;
#52 = DIRECTION ( 'NONE',  ( 1.000000000000000000, 0.000000000000000000, 0.000000000000000000 ) ) ;
#53 = EDGE_CURVE ( 'NONE', #412, #227, #328, .T. ) ;
#54 = LINE ( 'NONE', #209, #491 ) ;
#55 = ORIENTED_EDGE ( 'NONE', *, *, #658, .T. ) ;
#56 = LINE ( 'NONE', #582, #639 ) ;
#57 = LINE ( 'NONE', #334, #406 ) ;
#58 = EDGE_LOOP ( 'NONE', ( #16, #622, #557, #30, #55, #478, #624, #405 ) ) ;
#59 = LINE ( 'NONE', #636, #535 ) ;
#60 = ORIENTED_EDGE ( 'NONE', *, *, #472, .T. ) ;
#61 = EDGE_CURVE ( 'NONE', #454, #465, #430, .T. ) ;
#62 = VECTOR ( 'NONE', #386, 1000.000000000000000 ) ;
#63 = AXIS2_PLACEMENT_3D ( 'NONE', #305, #420, #613 ) ;
#64 = CARTESIAN_POINT ( 'NONE',  ( 0.000000000000000000, 0.000000000000000000, 0.000000000000000000 ) ) ;
#65 = CARTESIAN_POINT ( 'NONE',  ( 6.000000000000000000, 3.600000000000000089, -2.750000000000001332 ) ) ;
#66 = DIRECTION ( 'NONE',  ( -0.000000000000000000, -1.000000000000000000, -0.000000000000000000 ) ) ;
#67 = ORIENTED_EDGE ( 'NONE', *, *, #448, .F. ) ;
#68 = EDGE_CURVE ( 'NONE', #255, #284, #231, .T. ) ;
#69 = CARTESIAN_POINT ( 'NONE',  ( 19.00000000000000000, 0.2999999999999999889, -4.500000000000000888 ) ) ;
#70 = CARTESIAN_POINT ( 'NONE',  ( 4.750000000000000888, 1.000000000000000000, -12.00000000000000000 ) ) ;
#71 = VECTOR ( 'NONE', #141, 1000.000000000000000 ) ;
#72 = AXIS2_PLACEMENT_3D ( 'NONE', #145, #466, #302 ) ;
#73 = AXIS2_PLACEMENT_3D ( 'NONE', #596, #22, #287 ) ;
#74 = DIRECTION ( 'NONE',  ( 0.000000000000000000, 0.000000000000000000, 1.000000000000000000 ) ) ;
#75 = EDGE_CURVE ( 'NONE', #671, #195, #372, .T. ) ;
#76 = DIRECTION ( 'NONE',  ( -0.000000000000000000, -1.000000000000000000, -0.000000000000000000 ) ) ;
#77 = EDGE_LOOP ( 'NONE', ( #189, #192, #488, #513 ) ) ;
#78 = FACE_OUTER_BOUND ( 'NONE', #261, .T. ) ;
#79 = LINE ( 'NONE', #646, #107 ) ;
#80 = EDGE_LOOP ( 'NONE', ( #580, #459, #151, #358 ) ) ;
#81 = DIRECTION ( 'NONE',  ( -0.000000000000000000, -1.000000000000000000, -0.000000000000000000 ) ) ;
#82 = FACE_OUTER_BOUND ( 'NONE', #36, .T. ) ;
#83 = ORIENTED_EDGE ( 'NONE', *, *, #457, .F. ) ;
#84 = EDGE_CURVE ( 'NONE', #332, #138, #374, .T. ) ;
#85 = VECTOR ( 'NONE', #146, 1000.000000000000000 ) ;
#86 =( LENGTH_UNIT ( ) NAMED_UNIT ( * ) SI_UNIT ( .MILLI., .METRE. ) );
#87 = FACE_OUTER_BOUND ( 'NONE', #98, .T. ) ;
#88 = ORIENTED_EDGE ( 'NONE', *, *, #648, .F. ) ;
#89 = CARTESIAN_POINT ( 'NONE',  ( 7.249999999999999112, 0.2999999999999999889, -12.00000000000000000 ) ) ;
#90 = ORIENTED_EDGE ( 'NONE', *, *, #177, .F. ) ;
#91 = LINE ( 'NONE', #419, #458 ) ;
#92 = EDGE_CURVE ( 'NONE', #486, #365, #638, .T. ) ;
#93 = CARTESIAN_POINT ( 'NONE',  ( 0.000000000000000000, 0.2999999999999999889, -10.50000000000000000 ) ) ;
#94 = EDGE_LOOP ( 'NONE', ( #628, #510, #653, #306 ) ) ;
#95 = PRESENTATION_STYLE_ASSIGNMENT (( #455 ) ) ;
#96 = ADVANCED_FACE ( 'NONE', ( #540 ), #493, .T. ) ;
#97 = CARTESIAN_POINT ( 'NONE',  ( 0.000000000000000000, 0.2999999999999999889, 0.000000000000000000 ) ) ;
#98 = EDGE_LOOP ( 'NONE', ( #635, #440, #312, #116 ) ) ;
#99 = SURFACE_SIDE_STYLE ('',( #48 ) ) ;
#100 = LINE ( 'NONE', #257, #7 ) ;
#101 = ORIENTED_EDGE ( 'NONE', *, *, #286, .F. ) ;
#102 = DIRECTION ( 'NONE',  ( 1.000000000000000000, -0.000000000000000000, 0.000000000000000000 ) ) ;
#103 = ORIENTED_EDGE ( 'NONE', *, *, #479, .T. ) ;
#104 = EDGE_CURVE ( 'NONE', #575, #155, #180, .T. ) ;
#105 = VECTOR ( 'NONE', #232, 1000.000000000000000 ) ;
#106 = CARTESIAN_POINT ( 'NONE',  ( 19.00000000000000000, 0.2999999999999999889, -7.500000000000000000 ) ) ;
#107 = VECTOR ( 'NONE', #130, 1000.000000000000000 ) ;
#108 = ORIENTED_EDGE ( 'NONE', *, *, #668, .F. ) ;
#109 = PRODUCT_CONTEXT ( 'NONE', #584, 'mechanical' ) ;
#110 = PLANE ( 'NONE',  #481 ) ;
#111 = ORIENTED_EDGE ( 'NONE', *, *, #629, .F. ) ;
#112 = CARTESIAN_POINT ( 'NONE',  ( 7.250000000000000000, 1.000000000000000000, -10.50000000000000000 ) ) ;
#113 = EDGE_CURVE ( 'NONE', #503, #465, #182, .T. ) ;
#114 = ORIENTED_EDGE ( 'NONE', *, *, #53, .T. ) ;
#115 = CARTESIAN_POINT ( 'NONE',  ( 19.00000000000000000, 0.2999999999999999889, 0.000000000000000000 ) ) ;
#116 = ORIENTED_EDGE ( 'NONE', *, *, #235, .T. ) ;
#117 = VECTOR ( 'NONE', #196, 1000.000000000000000 ) ;
#118 = VECTOR ( 'NONE', #632, 1000.000000000000000 ) ;
#119 = FACE_OUTER_BOUND ( 'NONE', #264, .T. ) ;
#120 = DIRECTION ( 'NONE',  ( 1.000000000000000000, -0.000000000000000000, 0.000000000000000000 ) ) ;
#121 = EDGE_CURVE ( 'NONE', #155, #656, #351, .T. ) ;
#122 = LINE ( 'NONE', #382, #544 ) ;
#123 = LINE ( 'NONE', #485, #426 ) ;
#124 = EDGE_CURVE ( 'NONE', #160, #284, #299, .T. ) ;
#125 = SURFACE_STYLE_USAGE ( .BOTH. , #389 ) ;
#126 = DIRECTION ( 'NONE',  ( 0.000000000000000000, 0.000000000000000000, -1.000000000000000000 ) ) ;
#127 = VECTOR ( 'NONE', #373, 1000.000000000000000 ) ;
#128 =( GEOMETRIC_REPRESENTATION_CONTEXT ( 3 ) GLOBAL_UNCERTAINTY_ASSIGNED_CONTEXT ( ( #224 ) ) GLOBAL_UNIT_ASSIGNED_CONTEXT ( ( #463, #363, #353 ) ) REPRESENTATION_CONTEXT ( 'NONE', 'WORKASPACE' ) );
#129 =( NAMED_UNIT ( * ) SI_UNIT ( $, .STERADIAN. ) SOLID_ANGLE_UNIT ( ) );
#130 = DIRECTION ( 'NONE',  ( -0.000000000000000000, -1.000000000000000000, -0.000000000000000000 ) ) ;
#131 = ORIENTED_EDGE ( 'NONE', *, *, #388, .T. ) ;
#132 = CARTESIAN_POINT ( 'NONE',  ( 0.000000000000000000, 0.2999999999999999889, -7.500000000000000000 ) ) ;
#133 = EDGE_CURVE ( 'NONE', #23, #243, #370, .T. ) ;
#134 = DIRECTION ( 'NONE',  ( 0.000000000000000000, 1.000000000000000000, -0.000000000000000000 ) ) ;
#135 = VERTEX_POINT ( 'NONE', #599 ) ;
#136 = DIRECTION ( 'NONE',  ( 1.000000000000000000, -0.000000000000000000, 5.782411586589358625E-16 ) ) ;
#137 = FACE_OUTER_BOUND ( 'NONE', #641, .T. ) ;
#138 = VERTEX_POINT ( 'NONE', #501 ) ;
#139 = VECTOR ( 'NONE', #42, 1000.000000000000000 ) ;
#140 = AXIS2_PLACEMENT_3D ( 'NONE', #445, #142, #32 ) ;
#141 = DIRECTION ( 'NONE',  ( 0.000000000000000000, 0.000000000000000000, -1.000000000000000000 ) ) ;
#142 = DIRECTION ( 'NONE',  ( 0.000000000000000000, 1.000000000000000000, -0.000000000000000000 ) ) ;
#143 = ORIENTED_EDGE ( 'NONE', *, *, #637, .T. ) ;
#144 = ADVANCED_FACE ( 'NONE', ( #602 ), #450, .F. ) ;
#145 = CARTESIAN_POINT ( 'NONE',  ( 6.000000000000000000, 3.600000000000000089, -6.000000000000000000 ) ) ;
#146 = DIRECTION ( 'NONE',  ( -1.000000000000000000, 0.000000000000000000, 0.000000000000000000 ) ) ;
#147 = ORIENTED_EDGE ( 'NONE', *, *, #104, .T. ) ;
#148 = ADVANCED_FACE ( 'NONE', ( #82 ), #345, .F. ) ;
#149 = CARTESIAN_POINT ( 'NONE',  ( 7.249999999999999112, 1.000000000000000000, -12.00000000000000000 ) ) ;
#150 = DIRECTION ( 'NONE',  ( 0.000000000000000000, 1.000000000000000000, -0.000000000000000000 ) ) ;
#151 = ORIENTED_EDGE ( 'NONE', *, *, #68, .F. ) ;
#152 =( GEOMETRIC_REPRESENTATION_CONTEXT ( 3 ) GLOBAL_UNCERTAINTY_ASSIGNED_CONTEXT ( ( #178 ) ) GLOBAL_UNIT_ASSIGNED_CONTEXT ( ( #507, #38, #199 ) ) REPRESENTATION_CONTEXT ( 'NONE', 'WORKASPACE' ) );
#153 = VECTOR ( 'NONE', #565, 1000.000000000000000 ) ;
#154 = PLANE ( 'NONE',  #651 ) ;
#155 = VERTEX_POINT ( 'NONE', #29 ) ;
#156 = CARTESIAN_POINT ( 'NONE',  ( 6.000000000000000000, 3.600000000000000089, -9.250000000000000000 ) ) ;
#157 = ORIENTED_EDGE ( 'NONE', *, *, #226, .T. ) ;
#158 = FILL_AREA_STYLE_COLOUR ( '', #238 ) ;
#159 = LINE ( 'NONE', #610, #208 ) ;
#160 = VERTEX_POINT ( 'NONE', #89 ) ;
#161 = CARTESIAN_POINT ( 'NONE',  ( 0.000000000000000000, 0.2999999999999999889, 0.000000000000000000 ) ) ;
#162 = AXIS2_PLACEMENT_3D ( 'NONE', #413, #256, #615 ) ;
#163 = VECTOR ( 'NONE', #246, 1000.000000000000000 ) ;
#164 = CARTESIAN_POINT ( 'NONE',  ( 12.00000000000000000, 0.2999999999999999889, 0.000000000000000000 ) ) ;
#165 = ADVANCED_FACE ( 'NONE', ( #87 ), #303, .F. ) ;
#166 = DIRECTION ( 'NONE',  ( -1.000000000000000000, 0.000000000000000000, 0.000000000000000000 ) ) ;
#167 = ORIENTED_EDGE ( 'NONE', *, *, #658, .F. ) ;
#168 = ADVANCED_FACE ( 'NONE', ( #137 ), #606, .F. ) ;
#169 = CARTESIAN_POINT ( 'NONE',  ( 12.00000000000000000, 0.000000000000000000, 0.000000000000000000 ) ) ;
#170 = CARTESIAN_POINT ( 'NONE',  ( 7.250000000000006217, 1.000000000000000000, -4.192248400277289071E-15 ) ) ;
#171 = LINE ( 'NONE', #585, #337 ) ;
#172 = CARTESIAN_POINT ( 'NONE',  ( 0.000000000000000000, 0.000000000000000000, -4.500000000000000888 ) ) ;
#173 = AXIS2_PLACEMENT_3D ( 'NONE', #490, #385, #442 ) ;
#174 = AXIS2_PLACEMENT_3D ( 'NONE', #294, #126, #191 ) ;
#175 = DIRECTION ( 'NONE',  ( -5.782411586589358625E-16, 0.000000000000000000, 1.000000000000000000 ) ) ;
#176 = DIRECTION ( 'NONE',  ( -1.000000000000000000, 0.000000000000000000, -0.000000000000000000 ) ) ;
#177 = EDGE_CURVE ( 'NONE', #575, #296, #79, .T. ) ;
#178 = UNCERTAINTY_MEASURE_WITH_UNIT (LENGTH_MEASURE( 1.000000000000000082E-05 ), #507, 'distance_accuracy_value', 'NONE');
#179 = DIRECTION ( 'NONE',  ( -0.000000000000000000, -1.000000000000000000, -0.000000000000000000 ) ) ;
#180 = LINE ( 'NONE', #556, #502 ) ;
#181 = DIRECTION ( 'NONE',  ( 5.782411586589358625E-16, 0.000000000000000000, -1.000000000000000000 ) ) ;
#182 = LINE ( 'NONE', #558, #17 ) ;
#183 = VECTOR ( 'NONE', #74, 1000.000000000000000 ) ;
#184 = ORIENTED_EDGE ( 'NONE', *, *, #472, .F. ) ;
#185 = VECTOR ( 'NONE', #464, 1000.000000000000000 ) ;
#186 = EDGE_CURVE ( 'NONE', #284, #343, #342, .T. ) ;
#187 = CARTESIAN_POINT ( 'NONE',  ( 7.250000000000000000, 0.2999999999999999889, -10.50000000000000000 ) ) ;
#188 = LINE ( 'NONE', #396, #153 ) ;
#189 = ORIENTED_EDGE ( 'NONE', *, *, #629, .T. ) ;
#190 = CARTESIAN_POINT ( 'NONE',  ( 0.000000000000000000, 0.2999999999999999889, -12.00000000000000000 ) ) ;
#191 = DIRECTION ( 'NONE',  ( -1.000000000000000000, 0.000000000000000000, -0.000000000000000000 ) ) ;
#192 = ORIENTED_EDGE ( 'NONE', *, *, #421, .F. ) ;
#193 = DIRECTION ( 'NONE',  ( -1.000000000000000000, 0.000000000000000000, -0.000000000000000000 ) ) ;
#194 = DIRECTION ( 'NONE',  ( -0.000000000000000000, -1.000000000000000000, -0.000000000000000000 ) ) ;
#195 = VERTEX_POINT ( 'NONE', #659 ) ;
#196 = DIRECTION ( 'NONE',  ( -0.000000000000000000, -1.000000000000000000, -0.000000000000000000 ) ) ;
#197 = DIRECTION ( 'NONE',  ( 0.000000000000000000, 0.000000000000000000, -1.000000000000000000 ) ) ;
#198 = ORIENTED_EDGE ( 'NONE', *, *, #625, .F. ) ;
#199 =( NAMED_UNIT ( * ) SI_UNIT ( $, .STERADIAN. ) SOLID_ANGLE_UNIT ( ) );
#200 = DIRECTION ( 'NONE',  ( 1.000000000000000000, -0.000000000000000000, 0.000000000000000000 ) ) ;
#201 = ORIENTED_EDGE ( 'NONE', *, *, #133, .F. ) ;
#202 = CARTESIAN_POINT ( 'NONE',  ( 0.000000000000000000, 1.000000000000000000, -12.00000000000000000 ) ) ;
#203 = LINE ( 'NONE', #93, #85 ) ;
#204 = ORIENTED_EDGE ( 'NONE', *, *, #462, .F. ) ;
#205 = VECTOR ( 'NONE', #515, 1000.000000000000000 ) ;
#206 = CARTESIAN_POINT ( 'NONE',  ( 7.249999999999999112, 0.2999999999999999889, 4.192248400277284337E-15 ) ) ;
#207 = ADVANCED_FACE ( 'NONE', ( #233 ), #453, .F. ) ;
#208 = VECTOR ( 'NONE', #200, 1000.000000000000000 ) ;
#209 = CARTESIAN_POINT ( 'NONE',  ( 0.000000000000000000, 0.000000000000000000, 0.000000000000000000 ) ) ;
#210 = ORIENTED_EDGE ( 'NONE', *, *, #560, .F. ) ;
#211 = CARTESIAN_POINT ( 'NONE',  ( 0.000000000000000000, 0.2999999999999999889, -1.499999999999999556 ) ) ;
#212 = CARTESIAN_POINT ( 'NONE',  ( 0.000000000000000000, 3.600000000000000089, 0.000000000000000000 ) ) ;
#213 = ORIENTED_EDGE ( 'NONE', *, *, #113, .T. ) ;
#214 = PLANE ( 'NONE',  #404 ) ;
#215 = ORIENTED_EDGE ( 'NONE', *, *, #335, .F. ) ;
#216 = ADVANCED_FACE ( 'NONE', ( #249 ), #549, .T. ) ;
#217 = DIRECTION ( 'NONE',  ( 0.000000000000000000, 0.000000000000000000, 1.000000000000000000 ) ) ;
#218 = VECTOR ( 'NONE', #120, 1000.000000000000000 ) ;
#219 = VERTEX_POINT ( 'NONE', #25 ) ;
#220 = DIRECTION ( 'NONE',  ( 0.000000000000000000, 0.000000000000000000, 1.000000000000000000 ) ) ;
#221 = DIRECTION ( 'NONE',  ( 0.000000000000000000, 0.000000000000000000, 1.000000000000000000 ) ) ;
#222 = CARTESIAN_POINT ( 'NONE',  ( 6.000000000000000000, 3.600000000000000089, -2.750000000000001332 ) ) ;
#223 = VERTEX_POINT ( 'NONE', #237 ) ;
#224 = UNCERTAINTY_MEASURE_WITH_UNIT (LENGTH_MEASURE( 1.000000000000000082E-05 ), #463, 'distance_accuracy_value', 'NONE');
#225 = DIRECTION ( 'NONE',  ( 0.000000000000000000, 1.000000000000000000, -0.000000000000000000 ) ) ;
#226 = EDGE_CURVE ( 'NONE', #155, #597, #188, .T. ) ;
#227 = VERTEX_POINT ( 'NONE', #318 ) ;
#228 = STYLED_ITEM ( 'NONE', ( #336 ), #579 ) ;
#229 = AXIS2_PLACEMENT_3D ( 'NONE', #361, #150, #623 ) ;
#230 = LINE ( 'NONE', #604, #71 ) ;
#231 = LINE ( 'NONE', #164, #339 ) ;
#232 = DIRECTION ( 'NONE',  ( 1.000000000000000000, -0.000000000000000000, 0.000000000000000000 ) ) ;
#233 = FACE_OUTER_BOUND ( 'NONE', #80, .T. ) ;
#234 = ORIENTED_EDGE ( 'NONE', *, *, #384, .T. ) ;
#235 = EDGE_CURVE ( 'NONE', #660, #486, #100, .T. ) ;
#236 = CARTESIAN_POINT ( 'NONE',  ( 7.249999999999999112, 1.000000000000000000, 0.000000000000000000 ) ) ;
#237 = CARTESIAN_POINT ( 'NONE',  ( 0.000000000000000000, 0.000000000000000000, -12.00000000000000000 ) ) ;
#238 = COLOUR_RGB ( '',0.7960784313725489669, 0.8235294117647058432, 0.9372549019607843146 ) ;
#239 = VERTEX_POINT ( 'NONE', #97 ) ;
#240 = AXIS2_PLACEMENT_3D ( 'NONE', #39, #364, #197 ) ;
#241 = LINE ( 'NONE', #69, #605 ) ;
#242 = DIRECTION ( 'NONE',  ( 0.000000000000000000, 0.000000000000000000, 1.000000000000000000 ) ) ;
#243 = VERTEX_POINT ( 'NONE', #156 ) ;
#244 = DIRECTION ( 'NONE',  ( -0.000000000000000000, -1.000000000000000000, -0.000000000000000000 ) ) ;
#245 = EDGE_CURVE ( 'NONE', #349, #135, #308, .T. ) ;
#246 = DIRECTION ( 'NONE',  ( -0.000000000000000000, -1.000000000000000000, -0.000000000000000000 ) ) ;
#247 = ORIENTED_EDGE ( 'NONE', *, *, #410, .F. ) ;
#248 = EDGE_CURVE ( 'NONE', #571, #365, #676, .T. ) ;
#249 = FACE_OUTER_BOUND ( 'NONE', #285, .T. ) ;
#250 = ORIENTED_EDGE ( 'NONE', *, *, #548, .T. ) ;
#251 = VECTOR ( 'NONE', #66, 1000.000000000000000 ) ;
#252 = PRESENTATION_LAYER_ASSIGNMENT (  '', '', ( #228 ) ) ;
#253 = AXIS2_PLACEMENT_3D ( 'NONE', #655, #134, #552 ) ;
#254 = CARTESIAN_POINT ( 'NONE',  ( 4.750000000000000000, 1.000000000000000000, -10.50000000000000000 ) ) ;
#255 = VERTEX_POINT ( 'NONE', #673 ) ;
#256 = DIRECTION ( 'NONE',  ( -1.000000000000000000, 0.000000000000000000, -5.782411586589357639E-16 ) ) ;
#257 = CARTESIAN_POINT ( 'NONE',  ( 12.00000000000000000, 0.2999999999999999889, -4.500000000000000888 ) ) ;
#258 = ORIENTED_EDGE ( 'NONE', *, *, #291, .F. ) ;
#259 = ADVANCED_FACE ( 'NONE', ( #417 ), #621, .T. ) ;
#260 = LINE ( 'NONE', #467, #360 ) ;
#261 = EDGE_LOOP ( 'NONE', ( #60, #44, #33, #377 ) ) ;
#262 = AXIS2_PLACEMENT_3D ( 'NONE', #634, #428, #176 ) ;
#263 = PLANE ( 'NONE',  #63 ) ;
#264 = EDGE_LOOP ( 'NONE', ( #547, #603, #520, #573, #103, #111, #88, #131, #674, #381, #494, #278, #614, #47, #447, #346 ) ) ;
#265 = LINE ( 'NONE', #112, #251 ) ;
#266 = EDGE_CURVE ( 'NONE', #409, #583, #159, .T. ) ;
#267 = VERTEX_POINT ( 'NONE', #666 ) ;
#268 = DIRECTION ( 'NONE',  ( 1.000000000000000000, -0.000000000000000000, 0.000000000000000000 ) ) ;
#269 = EDGE_CURVE ( 'NONE', #267, #343, #519, .T. ) ;
#270 = ORIENTED_EDGE ( 'NONE', *, *, #61, .F. ) ;
#271 = ORIENTED_EDGE ( 'NONE', *, *, #376, .F. ) ;
#272 = CARTESIAN_POINT ( 'NONE',  ( 0.000000000000000000, 0.000000000000000000, 0.000000000000000000 ) ) ;
#273 = DIRECTION ( 'NONE',  ( 0.000000000000000000, 0.000000000000000000, -1.000000000000000000 ) ) ;
#274 = VECTOR ( 'NONE', #432, 1000.000000000000000 ) ;
#275 = ORIENTED_EDGE ( 'NONE', *, *, #436, .F. ) ;
#276 = DIRECTION ( 'NONE',  ( 0.000000000000000000, 1.000000000000000000, -0.000000000000000000 ) ) ;
#277 = DIRECTION ( 'NONE',  ( 0.000000000000000000, 1.000000000000000000, -0.000000000000000000 ) ) ;
#278 = ORIENTED_EDGE ( 'NONE', *, *, #521, .F. ) ;
#279 = ADVANCED_FACE ( 'NONE', ( #367 ), #670, .T. ) ;
#280 = DIRECTION ( 'NONE',  ( 1.000000000000000000, 0.000000000000000000, -0.000000000000000000 ) ) ;
#281 = EDGE_LOOP ( 'NONE', ( #401, #21, #14, #3 ) ) ;
#282 = LINE ( 'NONE', #132, #105 ) ;
#283 = AXIS2_PLACEMENT_3D ( 'NONE', #640, #276, #217 ) ;
#284 = VERTEX_POINT ( 'NONE', #574 ) ;
#285 = EDGE_LOOP ( 'NONE', ( #600, #543, #368, #647 ) ) ;
#286 = EDGE_CURVE ( 'NONE', #219, #571, #572, .T. ) ;
#287 = DIRECTION ( 'NONE',  ( 1.000000000000000000, 0.000000000000000000, -0.000000000000000000 ) ) ;
#288 = ORIENTED_EDGE ( 'NONE', *, *, #410, .T. ) ;
#289 = LINE ( 'NONE', #591, #326 ) ;
#290 = CARTESIAN_POINT ( 'NONE',  ( 0.000000000000000000, 0.2999999999999999889, 0.000000000000000000 ) ) ;
#291 = EDGE_CURVE ( 'NONE', #527, #135, #203, .T. ) ;
#292 = ORIENTED_EDGE ( 'NONE', *, *, #616, .T. ) ;
#293 = DIRECTION ( 'NONE',  ( 0.000000000000000000, 0.000000000000000000, -1.000000000000000000 ) ) ;
#294 = CARTESIAN_POINT ( 'NONE',  ( 0.000000000000000000, 0.2999999999999999889, 0.000000000000000000 ) ) ;
#295 = VECTOR ( 'NONE', #12, 1000.000000000000000 ) ;
#296 = VERTEX_POINT ( 'NONE', #411 ) ;
#297 = VECTOR ( 'NONE', #516, 1000.000000000000000 ) ;
#298 = CARTESIAN_POINT ( 'NONE',  ( 4.750000000000000000, 1.000000000000000000, -1.499999999999999556 ) ) ;
#299 = LINE ( 'NONE', #391, #446 ) ;
#300 = ORIENTED_EDGE ( 'NONE', *, *, #648, .T. ) ;
#301 = ADVANCED_FACE ( 'NONE', ( #414 ), #354, .T. ) ;
#302 = DIRECTION ( 'NONE',  ( 0.000000000000000000, 0.000000000000000000, 1.000000000000000000 ) ) ;
#303 = PLANE ( 'NONE',  #514 ) ;
#304 = ORIENTED_EDGE ( 'NONE', *, *, #521, .T. ) ;
#305 = CARTESIAN_POINT ( 'NONE',  ( 4.750000000000000888, 1.000000000000000000, -2.746645503629945224E-15 ) ) ;
#306 = ORIENTED_EDGE ( 'NONE', *, *, #376, .T. ) ;
#307 = AXIS2_PLACEMENT_3D ( 'NONE', #290, #496, #242 ) ;
#308 = LINE ( 'NONE', #43, #392 ) ;
#309 = ORIENTED_EDGE ( 'NONE', *, *, #248, .F. ) ;
#310 = LINE ( 'NONE', #34, #117 ) ;
#311 = DIRECTION ( 'NONE',  ( -0.000000000000000000, -1.000000000000000000, -0.000000000000000000 ) ) ;
#312 = ORIENTED_EDGE ( 'NONE', *, *, #40, .F. ) ;
#313 = FACE_OUTER_BOUND ( 'NONE', #281, .T. ) ;
#314 = EDGE_LOOP ( 'NONE', ( #352, #26, #275, #213 ) ) ;
#315 = EDGE_CURVE ( 'NONE', #454, #223, #54, .T. ) ;
#316 = VECTOR ( 'NONE', #669, 1000.000000000000000 ) ;
#317 = VECTOR ( 'NONE', #538, 1000.000000000000000 ) ;
#318 = CARTESIAN_POINT ( 'NONE',  ( 6.000000000000000000, 0.2999999999999999889, -9.250000000000000000 ) ) ;
#319 = ORIENTED_EDGE ( 'NONE', *, *, #92, .F. ) ;
#320 = PRODUCT_RELATED_PRODUCT_CATEGORY ( 'part', '', ( #378 ) ) ;
#321 = PLANE ( 'NONE',  #393 ) ;
#322 = EDGE_LOOP ( 'NONE', ( #167, #288, #83, #324 ) ) ;
#323 = PLANE ( 'NONE',  #359 ) ;
#324 = ORIENTED_EDGE ( 'NONE', *, *, #75, .F. ) ;
#325 = VECTOR ( 'NONE', #371, 1000.000000000000000 ) ;
#326 = VECTOR ( 'NONE', #179, 1000.000000000000000 ) ;
#327 = FACE_OUTER_BOUND ( 'NONE', #567, .T. ) ;
#328 = CIRCLE ( 'NONE', #27, 3.249999999999999112 ) ;
#329 = DIRECTION ( 'NONE',  ( 0.000000000000000000, 0.000000000000000000, -1.000000000000000000 ) ) ;
#330 = ADVANCED_FACE ( 'NONE', ( #456 ), #154, .F. ) ;
#331 = CARTESIAN_POINT ( 'NONE',  ( 4.750000000000000000, 0.2999999999999999334, -1.499999999999999556 ) ) ;
#332 = VERTEX_POINT ( 'NONE', #408 ) ;
#333 = LINE ( 'NONE', #587, #127 ) ;
#334 = CARTESIAN_POINT ( 'NONE',  ( 0.000000000000000000, 0.2999999999999999889, -4.500000000000000888 ) ) ;
#335 = EDGE_CURVE ( 'NONE', #332, #575, #260, .T. ) ;
#336 = PRESENTATION_STYLE_ASSIGNMENT (( #125 ) ) ;
#337 = VECTOR ( 'NONE', #166, 1000.000000000000000 ) ;
#338 = CARTESIAN_POINT ( 'NONE',  ( 0.000000000000000000, 0.2999999999999999889, -4.500000000000000888 ) ) ;
#339 = VECTOR ( 'NONE', #329, 1000.000000000000000 ) ;
#340 = EDGE_LOOP ( 'NONE', ( #143, #394 ) ) ;
#341 = ADVANCED_FACE ( 'NONE', ( #313 ), #263, .T. ) ;
#342 = LINE ( 'NONE', #546, #163 ) ;
#343 = VERTEX_POINT ( 'NONE', #511 ) ;
#344 = PLANE ( 'NONE',  #662 ) ;
#345 = PLANE ( 'NONE',  #174 ) ;
#346 = ORIENTED_EDGE ( 'NONE', *, *, #291, .T. ) ;
#347 = CARTESIAN_POINT ( 'NONE',  ( 0.000000000000000000, 0.2999999999999999889, 0.000000000000000000 ) ) ;
#348 = DIRECTION ( 'NONE',  ( -1.000000000000000000, 0.000000000000000000, -0.000000000000000000 ) ) ;
#349 = VERTEX_POINT ( 'NONE', #254 ) ;
#350 = EDGE_CURVE ( 'NONE', #671, #160, #460, .T. ) ;
#351 = LINE ( 'NONE', #643, #62 ) ;
#352 = ORIENTED_EDGE ( 'NONE', *, *, #668, .T. ) ;
#353 =( NAMED_UNIT ( * ) SI_UNIT ( $, .STERADIAN. ) SOLID_ANGLE_UNIT ( ) );
#354 = PLANE ( 'NONE',  #470 ) ;
#355 = ORIENTED_EDGE ( 'NONE', *, *, #248, .T. ) ;
#356 = ADVANCED_FACE ( 'NONE', ( #327 ), #321, .T. ) ;
#357 = CARTESIAN_POINT ( 'NONE',  ( 12.00000000000000000, 0.000000000000000000, 0.000000000000000000 ) ) ;
#358 = ORIENTED_EDGE ( 'NONE', *, *, #560, .T. ) ;
#359 = AXIS2_PLACEMENT_3D ( 'NONE', #115, #424, #273 ) ;
#360 = VECTOR ( 'NONE', #102, 1000.000000000000000 ) ;
#361 = CARTESIAN_POINT ( 'NONE',  ( 0.000000000000000000, 1.000000000000000000, 0.000000000000000000 ) ) ;
#362 = ORIENTED_EDGE ( 'NONE', *, *, #269, .F. ) ;
#363 =( NAMED_UNIT ( * ) PLANE_ANGLE_UNIT ( ) SI_UNIT ( $, .RADIAN. ) );
#364 = DIRECTION ( 'NONE',  ( -0.000000000000000000, -1.000000000000000000, -0.000000000000000000 ) ) ;
#365 = VERTEX_POINT ( 'NONE', #431 ) ;
#366 = ADVANCED_FACE ( 'NONE', ( #542, #119 ), #110, .T. ) ;
#367 = FACE_OUTER_BOUND ( 'NONE', #397, .T. ) ;
#368 = ORIENTED_EDGE ( 'NONE', *, *, #508, .T. ) ;
#369 = VECTOR ( 'NONE', #398, 1000.000000000000000 ) ;
#370 = CIRCLE ( 'NONE', #253, 3.249999999999999112 ) ;
#371 = DIRECTION ( 'NONE',  ( 0.000000000000000000, 0.000000000000000000, -1.000000000000000000 ) ) ;
#372 = LINE ( 'NONE', #170, #118 ) ;
#373 = DIRECTION ( 'NONE',  ( -0.000000000000000000, -1.000000000000000000, -0.000000000000000000 ) ) ;
#374 = LINE ( 'NONE', #586, #317 ) ;
#375 = CARTESIAN_POINT ( 'NONE',  ( 0.000000000000000000, 1.000000000000000000, 0.000000000000000000 ) ) ;
#376 = EDGE_CURVE ( 'NONE', #227, #412, #554, .T. ) ;
#377 = ORIENTED_EDGE ( 'NONE', *, *, #75, .T. ) ;
#378 = PRODUCT ( 'Battery_Spring_Contact', 'Battery_Spring_Contact', '', ( #109 ) ) ;
#379 = CARTESIAN_POINT ( 'NONE',  ( 7.249999999999999112, 1.000000000000000000, -12.00000000000000000 ) ) ;
#380 = VECTOR ( 'NONE', #663, 1000.000000000000000 ) ;
#381 = ORIENTED_EDGE ( 'NONE', *, *, #40, .T. ) ;
#382 = CARTESIAN_POINT ( 'NONE',  ( 0.000000000000000000, 0.2999999999999999889, 0.000000000000000000 ) ) ;
#383 = DIRECTION ( 'NONE',  ( 1.000000000000000000, -0.000000000000000000, 0.000000000000000000 ) ) ;
#384 = EDGE_CURVE ( 'NONE', #23, #412, #633, .T. ) ;
#385 = DIRECTION ( 'NONE',  ( 1.000000000000000000, 0.000000000000000000, -5.782411586589358625E-16 ) ) ;
#386 = DIRECTION ( 'NONE',  ( -0.000000000000000000, -1.000000000000000000, -0.000000000000000000 ) ) ;
#387 = PRODUCT_DEFINITION_CONTEXT ( 'detailed design', #489, 'design' ) ;
#388 = EDGE_CURVE ( 'NONE', #296, #503, #122, .T. ) ;
#389 = SURFACE_SIDE_STYLE ('',( #395 ) ) ;
#390 = MECHANICAL_DESIGN_GEOMETRIC_PRESENTATION_REPRESENTATION (  '', ( #512 ), #152 ) ;
#391 = CARTESIAN_POINT ( 'NONE',  ( 0.000000000000000000, 0.2999999999999999889, -12.00000000000000000 ) ) ;
#392 = VECTOR ( 'NONE', #526, 1000.000000000000000 ) ;
#393 = AXIS2_PLACEMENT_3D ( 'NONE', #375, #4, #539 ) ;
#394 = ORIENTED_EDGE ( 'NONE', *, *, #133, .T. ) ;
#395 = SURFACE_STYLE_FILL_AREA ( #654 ) ;
#396 = CARTESIAN_POINT ( 'NONE',  ( 0.000000000000000000, 1.000000000000000000, -1.499999999999999556 ) ) ;
#397 = EDGE_LOOP ( 'NONE', ( #201, #234, #114, #198 ) ) ;
#398 = DIRECTION ( 'NONE',  ( 5.782411586589358625E-16, 0.000000000000000000, 1.000000000000000000 ) ) ;
#399 = ADVANCED_FACE ( 'NONE', ( #435 ), #323, .T. ) ;
#400 = DIRECTION ( 'NONE',  ( 1.000000000000000000, -0.000000000000000000, 0.000000000000000000 ) ) ;
#401 = ORIENTED_EDGE ( 'NONE', *, *, #421, .T. ) ;
#402 = LINE ( 'NONE', #522, #205 ) ;
#403 = CARTESIAN_POINT ( 'NONE',  ( 12.00000000000000000, 0.2999999999999999889, 0.000000000000000000 ) ) ;
#404 = AXIS2_PLACEMENT_3D ( 'NONE', #9, #532, #280 ) ;
#405 = ORIENTED_EDGE ( 'NONE', *, *, #186, .T. ) ;
#406 = VECTOR ( 'NONE', #10, 1000.000000000000000 ) ;
#407 = LINE ( 'NONE', #561, #139 ) ;
#408 = CARTESIAN_POINT ( 'NONE',  ( 4.750000000000000888, 1.000000000000000000, 0.000000000000000000 ) ) ;
#409 = VERTEX_POINT ( 'NONE', #427 ) ;
#410 = EDGE_CURVE ( 'NONE', #41, #349, #59, .T. ) ;
#411 = CARTESIAN_POINT ( 'NONE',  ( 7.249999999999999112, 0.2999999999999999334, 0.000000000000000000 ) ) ;
#412 = VERTEX_POINT ( 'NONE', #589 ) ;
#413 = CARTESIAN_POINT ( 'NONE',  ( 7.249999999999999112, 1.000000000000000000, 4.192248400277284337E-15 ) ) ;
#414 = FACE_OUTER_BOUND ( 'NONE', #340, .T. ) ;
#415 = ORIENTED_EDGE ( 'NONE', *, *, #315, .T. ) ;
#416 = LINE ( 'NONE', #202, #593 ) ;
#417 = FACE_OUTER_BOUND ( 'NONE', #322, .T. ) ;
#418 = EDGE_LOOP ( 'NONE', ( #300, #563, #667, #678 ) ) ;
#419 = CARTESIAN_POINT ( 'NONE',  ( 12.00000000000000000, 0.000000000000000000, 0.000000000000000000 ) ) ;
#420 = DIRECTION ( 'NONE',  ( -1.000000000000000000, 0.000000000000000000, 5.782411586589357639E-16 ) ) ;
#421 = EDGE_CURVE ( 'NONE', #597, #468, #333, .T. ) ;
#422 = ORIENTED_EDGE ( 'NONE', *, *, #61, .T. ) ;
#423 = DIRECTION ( 'NONE',  ( 0.000000000000000000, 0.000000000000000000, 1.000000000000000000 ) ) ;
#424 = DIRECTION ( 'NONE',  ( 1.000000000000000000, 0.000000000000000000, 0.000000000000000000 ) ) ;
#425 = ORIENTED_EDGE ( 'NONE', *, *, #570, .T. ) ;
#426 = VECTOR ( 'NONE', #383, 1000.000000000000000 ) ;
#427 = CARTESIAN_POINT ( 'NONE',  ( 0.000000000000000000, 0.2999999999999999889, -12.00000000000000000 ) ) ;
#428 = DIRECTION ( 'NONE',  ( 0.000000000000000000, 0.000000000000000000, -1.000000000000000000 ) ) ;
#429 = DIRECTION ( 'NONE',  ( 1.000000000000000000, -0.000000000000000000, 0.000000000000000000 ) ) ;
#430 = LINE ( 'NONE', #20, #595 ) ;
#431 = CARTESIAN_POINT ( 'NONE',  ( 19.00000000000000000, 0.000000000000000000, -4.500000000000000888 ) ) ;
#432 = DIRECTION ( 'NONE',  ( -0.000000000000000000, -1.000000000000000000, -0.000000000000000000 ) ) ;
#433 = VECTOR ( 'NONE', #477, 1000.000000000000000 ) ;
#434 = CIRCLE ( 'NONE', #72, 3.249999999999999112 ) ;
#435 = FACE_OUTER_BOUND ( 'NONE', #451, .T. ) ;
#436 = EDGE_CURVE ( 'NONE', #503, #660, #482, .T. ) ;
#437 = ORIENTED_EDGE ( 'NONE', *, *, #388, .F. ) ;
#438 = UNCERTAINTY_MEASURE_WITH_UNIT (LENGTH_MEASURE( 1.000000000000000082E-05 ), #86, 'distance_accuracy_value', 'NONE');
#439 = CARTESIAN_POINT ( 'NONE',  ( 19.00000000000000000, 0.2999999999999999889, -4.500000000000000888 ) ) ;
#440 = ORIENTED_EDGE ( 'NONE', *, *, #548, .F. ) ;
#441 = PRODUCT_DEFINITION ( 'General', '', #500, #387 ) ;
#442 = DIRECTION ( 'NONE',  ( -5.782411586589358625E-16, 0.000000000000000000, -1.000000000000000000 ) ) ;
#443 = DIRECTION ( 'NONE',  ( 0.000000000000000000, 0.000000000000000000, -1.000000000000000000 ) ) ;
#444 = EDGE_LOOP ( 'NONE', ( #292, #524, #247, #506 ) ) ;
#445 = CARTESIAN_POINT ( 'NONE',  ( 0.000000000000000000, 0.000000000000000000, 0.000000000000000000 ) ) ;
#446 = VECTOR ( 'NONE', #400, 1000.000000000000000 ) ;
#447 = ORIENTED_EDGE ( 'NONE', *, *, #533, .T. ) ;
#448 = EDGE_CURVE ( 'NONE', #332, #597, #56, .T. ) ;
#449 = CARTESIAN_POINT ( 'NONE',  ( 4.749999999999993783, 1.000000000000000000, 2.746645503629941674E-15 ) ) ;
#450 = PLANE ( 'NONE',  #73 ) ;
#451 = EDGE_LOOP ( 'NONE', ( #309, #101, #425, #250 ) ) ;
#452 = PLANE ( 'NONE',  #173 ) ;
#453 = PLANE ( 'NONE',  #594 ) ;
#454 = VERTEX_POINT ( 'NONE', #64 ) ;
#455 = SURFACE_STYLE_USAGE ( .BOTH. , #99 ) ;
#456 = FACE_OUTER_BOUND ( 'NONE', #314, .T. ) ;
#457 = EDGE_CURVE ( 'NONE', #195, #349, #171, .T. ) ;
#458 = VECTOR ( 'NONE', #661, 1000.000000000000000 ) ;
#459 = ORIENTED_EDGE ( 'NONE', *, *, #186, .F. ) ;
#460 = LINE ( 'NONE', #379, #8 ) ;
#461 = ORIENTED_EDGE ( 'NONE', *, *, #457, .T. ) ;
#462 = EDGE_CURVE ( 'NONE', #267, #571, #627, .T. ) ;
#463 =( LENGTH_UNIT ( ) NAMED_UNIT ( * ) SI_UNIT ( .MILLI., .METRE. ) );
#464 = DIRECTION ( 'NONE',  ( 0.000000000000000000, 0.000000000000000000, -1.000000000000000000 ) ) ;
#465 = VERTEX_POINT ( 'NONE', #169 ) ;
#466 = DIRECTION ( 'NONE',  ( 0.000000000000000000, 1.000000000000000000, -0.000000000000000000 ) ) ;
#467 = CARTESIAN_POINT ( 'NONE',  ( 0.000000000000000000, 1.000000000000000000, 0.000000000000000000 ) ) ;
#468 = VERTEX_POINT ( 'NONE', #331 ) ;
#469 = VECTOR ( 'NONE', #268, 1000.000000000000000 ) ;
#470 = AXIS2_PLACEMENT_3D ( 'NONE', #212, #617, #569 ) ;
#471 = DIRECTION ( 'NONE',  ( -1.000000000000000000, 0.000000000000000000, 0.000000000000000000 ) ) ;
#472 = EDGE_CURVE ( 'NONE', #195, #527, #265, .T. ) ;
#473 = CARTESIAN_POINT ( 'NONE',  ( 12.00000000000000000, 0.2999999999999999889, 0.000000000000000000 ) ) ;
#474 = ORIENTED_EDGE ( 'NONE', *, *, #113, .F. ) ;
#475 = LINE ( 'NONE', #1, #433 ) ;
#476 = EDGE_LOOP ( 'NONE', ( #204, #210, #304, #534 ) ) ;
#477 = DIRECTION ( 'NONE',  ( -5.782411586589357639E-16, 0.000000000000000000, -1.000000000000000000 ) ) ;
#478 = ORIENTED_EDGE ( 'NONE', *, *, #350, .T. ) ;
#479 = EDGE_CURVE ( 'NONE', #138, #468, #475, .T. ) ;
#480 = SHAPE_DEFINITION_REPRESENTATION ( #528, #612 ) ;
#481 = AXIS2_PLACEMENT_3D ( 'NONE', #161, #225, #220 ) ;
#482 = LINE ( 'NONE', #529, #325 ) ;
#483 = PLANE ( 'NONE',  #262 ) ;
#484 = FACE_OUTER_BOUND ( 'NONE', #559, .T. ) ;
#485 = CARTESIAN_POINT ( 'NONE',  ( 0.000000000000000000, 0.2999999999999999889, 0.000000000000000000 ) ) ;
#486 = VERTEX_POINT ( 'NONE', #578 ) ;
#487 = CARTESIAN_POINT ( 'NONE',  ( 12.00000000000000000, 0.2999999999999999889, 0.000000000000000000 ) ) ;
#488 = ORIENTED_EDGE ( 'NONE', *, *, #226, .F. ) ;
#489 = APPLICATION_CONTEXT ( 'automotive_design' ) ;
#490 = CARTESIAN_POINT ( 'NONE',  ( 7.250000000000006217, 1.000000000000000000, -4.192248400277289071E-15 ) ) ;
#491 = VECTOR ( 'NONE', #523, 1000.000000000000000 ) ;
#492 = ORIENTED_EDGE ( 'NONE', *, *, #245, .T. ) ;
#493 = CYLINDRICAL_SURFACE ( 'NONE', #630, 3.249999999999999556 ) ;
#494 = ORIENTED_EDGE ( 'NONE', *, *, #570, .F. ) ;
#495 = LINE ( 'NONE', #18, #183 ) ;
#496 = DIRECTION ( 'NONE',  ( -1.000000000000000000, 0.000000000000000000, 0.000000000000000000 ) ) ;
#497 = ORIENTED_EDGE ( 'NONE', *, *, #53, .F. ) ;
#498 = ADVANCED_FACE ( 'NONE', ( #484 ), #214, .T. ) ;
#499 = FACE_OUTER_BOUND ( 'NONE', #444, .T. ) ;
#500 = PRODUCT_DEFINITION_FORMATION_WITH_SPECIFIED_SOURCE ( 'Symmetric', '', #378, .NOT_KNOWN. ) ;
#501 = CARTESIAN_POINT ( 'NONE',  ( 4.750000000000000888, 0.2999999999999999334, 0.000000000000000000 ) ) ;
#502 = VECTOR ( 'NONE', #592, 1000.000000000000000 ) ;
#503 = VERTEX_POINT ( 'NONE', #487 ) ;
#504 =( NAMED_UNIT ( * ) PLANE_ANGLE_UNIT ( ) SI_UNIT ( $, .RADIAN. ) );
#505 = CARTESIAN_POINT ( 'NONE',  ( 6.000000000000000000, 3.600000000000000089, -6.000000000000000000 ) ) ;
#506 = ORIENTED_EDGE ( 'NONE', *, *, #19, .T. ) ;
#507 =( LENGTH_UNIT ( ) NAMED_UNIT ( * ) SI_UNIT ( .MILLI., .METRE. ) );
#508 = EDGE_CURVE ( 'NONE', #239, #409, #230, .T. ) ;
#509 = DIRECTION ( 'NONE',  ( 0.000000000000000000, 0.000000000000000000, -1.000000000000000000 ) ) ;
#510 = ORIENTED_EDGE ( 'NONE', *, *, #637, .F. ) ;
#511 = CARTESIAN_POINT ( 'NONE',  ( 12.00000000000000000, 0.000000000000000000, -12.00000000000000000 ) ) ;
#512 = STYLED_ITEM ( 'NONE', ( #95 ), #612 ) ;
#513 = ORIENTED_EDGE ( 'NONE', *, *, #121, .T. ) ;
#514 = AXIS2_PLACEMENT_3D ( 'NONE', #338, #443, #348 ) ;
#515 = DIRECTION ( 'NONE',  ( -5.782411586589358625E-16, 0.000000000000000000, 1.000000000000000000 ) ) ;
#516 = DIRECTION ( 'NONE',  ( -0.000000000000000000, -1.000000000000000000, -0.000000000000000000 ) ) ;
#517 = VERTEX_POINT ( 'NONE', #439 ) ;
#518 = CARTESIAN_POINT ( 'NONE',  ( 12.00000000000000000, 0.2999999999999999889, -4.500000000000000888 ) ) ;
#519 = LINE ( 'NONE', #357, #185 ) ;
#520 = ORIENTED_EDGE ( 'NONE', *, *, #508, .F. ) ;
#521 = EDGE_CURVE ( 'NONE', #255, #219, #282, .T. ) ;
#522 = CARTESIAN_POINT ( 'NONE',  ( 4.749999999999993783, 0.2999999999999999889, 2.746645503629941674E-15 ) ) ;
#523 = DIRECTION ( 'NONE',  ( 0.000000000000000000, 0.000000000000000000, -1.000000000000000000 ) ) ;
#524 = ORIENTED_EDGE ( 'NONE', *, *, #245, .F. ) ;
#525 =( GEOMETRIC_REPRESENTATION_CONTEXT ( 3 ) GLOBAL_UNCERTAINTY_ASSIGNED_CONTEXT ( ( #438 ) ) GLOBAL_UNIT_ASSIGNED_CONTEXT ( ( #86, #504, #129 ) ) REPRESENTATION_CONTEXT ( 'NONE', 'WORKASPACE' ) );
#526 = DIRECTION ( 'NONE',  ( -0.000000000000000000, -1.000000000000000000, -0.000000000000000000 ) ) ;
#527 = VERTEX_POINT ( 'NONE', #187 ) ;
#528 = PRODUCT_DEFINITION_SHAPE ( 'NONE', 'NONE',  #441 ) ;
#529 = CARTESIAN_POINT ( 'NONE',  ( 12.00000000000000000, 0.2999999999999999889, 0.000000000000000000 ) ) ;
#530 = EDGE_CURVE ( 'NONE', #239, #454, #598, .T. ) ;
#531 = LINE ( 'NONE', #590, #274 ) ;
#532 = DIRECTION ( 'NONE',  ( 0.000000000000000000, -0.000000000000000000, 1.000000000000000000 ) ) ;
#533 = EDGE_CURVE ( 'NONE', #160, #527, #545, .T. ) ;
#534 = ORIENTED_EDGE ( 'NONE', *, *, #286, .T. ) ;
#535 = VECTOR ( 'NONE', #175, 1000.000000000000000 ) ;
#536 = VECTOR ( 'NONE', #471, 1000.000000000000000 ) ;
#537 = CARTESIAN_POINT ( 'NONE',  ( 0.000000000000000000, 0.000000000000000000, -7.500000000000000000 ) ) ;
#538 = DIRECTION ( 'NONE',  ( -0.000000000000000000, -1.000000000000000000, -0.000000000000000000 ) ) ;
#539 = DIRECTION ( 'NONE',  ( 0.000000000000000000, 0.000000000000000000, 1.000000000000000000 ) ) ;
#540 = FACE_OUTER_BOUND ( 'NONE', #94, .T. ) ;
#541 = ADVANCED_FACE ( 'NONE', ( #78 ), #452, .T. ) ;
#542 = FACE_BOUND ( 'NONE', #51, .T. ) ;
#543 = ORIENTED_EDGE ( 'NONE', *, *, #530, .F. ) ;
#544 = VECTOR ( 'NONE', #429, 1000.000000000000000 ) ;
#545 = LINE ( 'NONE', #24, #369 ) ;
#546 = CARTESIAN_POINT ( 'NONE',  ( 12.00000000000000000, 0.2999999999999999889, -12.00000000000000000 ) ) ;
#547 = ORIENTED_EDGE ( 'NONE', *, *, #616, .F. ) ;
#548 = EDGE_CURVE ( 'NONE', #517, #365, #241, .T. ) ;
#549 = PLANE ( 'NONE',  #307 ) ;
#550 = ORIENTED_EDGE ( 'NONE', *, *, #644, .T. ) ;
#551 = CARTESIAN_POINT ( 'NONE',  ( 0.000000000000000000, 0.2999999999999999889, -12.00000000000000000 ) ) ;
#552 = DIRECTION ( 'NONE',  ( 0.000000000000000000, 0.000000000000000000, 1.000000000000000000 ) ) ;
#553 = ORIENTED_EDGE ( 'NONE', *, *, #84, .T. ) ;
#554 = CIRCLE ( 'NONE', #283, 3.249999999999999112 ) ;
#555 = COLOUR_RGB ( '',0.7960784313725489669, 0.8235294117647058432, 0.9372549019607843146 ) ;
#556 = CARTESIAN_POINT ( 'NONE',  ( 7.249999999999999112, 1.000000000000000000, 4.192248400277284337E-15 ) ) ;
#557 = ORIENTED_EDGE ( 'NONE', *, *, #266, .T. ) ;
#558 = CARTESIAN_POINT ( 'NONE',  ( 12.00000000000000000, 0.2999999999999999889, 0.000000000000000000 ) ) ;
#559 = EDGE_LOOP ( 'NONE', ( #492, #258, #184, #461 ) ) ;
#560 = EDGE_CURVE ( 'NONE', #255, #267, #289, .T. ) ;
#561 = CARTESIAN_POINT ( 'NONE',  ( 0.000000000000000000, 0.000000000000000000, -12.00000000000000000 ) ) ;
#562 = CARTESIAN_POINT ( 'NONE',  ( 19.00000000000000000, 0.000000000000000000, -0.000000000000000000 ) ) ;
#563 = ORIENTED_EDGE ( 'NONE', *, *, #121, .F. ) ;
#564 = LINE ( 'NONE', #206, #316 ) ;
#565 = DIRECTION ( 'NONE',  ( -1.000000000000000000, 0.000000000000000000, 0.000000000000000000 ) ) ;
#566 = VECTOR ( 'NONE', #244, 1000.000000000000000 ) ;
#567 = EDGE_LOOP ( 'NONE', ( #67, #665, #147, #157 ) ) ;
#568 = FILL_AREA_STYLE ('',( #158 ) ) ;
#569 = DIRECTION ( 'NONE',  ( 0.000000000000000000, 0.000000000000000000, 1.000000000000000000 ) ) ;
#570 = EDGE_CURVE ( 'NONE', #219, #517, #495, .T. ) ;
#571 = VERTEX_POINT ( 'NONE', #601 ) ;
#572 = LINE ( 'NONE', #106, #297 ) ;
#573 = ORIENTED_EDGE ( 'NONE', *, *, #11, .T. ) ;
#574 = CARTESIAN_POINT ( 'NONE',  ( 12.00000000000000000, 0.2999999999999999889, -12.00000000000000000 ) ) ;
#575 = VERTEX_POINT ( 'NONE', #236 ) ;
#576 = ADVANCED_FACE ( 'NONE', ( #499 ), #31, .F. ) ;
#577 = APPLICATION_PROTOCOL_DEFINITION ( 'draft international standard', 'automotive_design', 1998, #584 ) ;
#578 = CARTESIAN_POINT ( 'NONE',  ( 12.00000000000000000, 0.000000000000000000, -4.500000000000000888 ) ) ;
#579 = MANIFOLD_SOLID_BREP ( 'Boss-Extrude3', #664 ) ;
#580 = ORIENTED_EDGE ( 'NONE', *, *, #269, .T. ) ;
#581 = ADVANCED_FACE ( 'NONE', ( #650 ), #344, .T. ) ;
#582 = CARTESIAN_POINT ( 'NONE',  ( 4.750000000000000888, 1.000000000000000000, -2.746645503629945224E-15 ) ) ;
#583 = VERTEX_POINT ( 'NONE', #28 ) ;
#584 = APPLICATION_CONTEXT ( 'automotive_design' ) ;
#585 = CARTESIAN_POINT ( 'NONE',  ( 0.000000000000000000, 1.000000000000000000, -10.50000000000000000 ) ) ;
#586 = CARTESIAN_POINT ( 'NONE',  ( 4.750000000000000888, 1.000000000000000000, 0.000000000000000000 ) ) ;
#587 = CARTESIAN_POINT ( 'NONE',  ( 4.750000000000000000, 1.000000000000000000, -1.499999999999999556 ) ) ;
#588 = DIRECTION ( 'NONE',  ( 1.000000000000000000, -0.000000000000000000, 0.000000000000000000 ) ) ;
#589 = CARTESIAN_POINT ( 'NONE',  ( 6.000000000000000000, 0.2999999999999999889, -2.750000000000001332 ) ) ;
#590 = CARTESIAN_POINT ( 'NONE',  ( 4.750000000000000888, 1.000000000000000000, -12.00000000000000000 ) ) ;
#591 = CARTESIAN_POINT ( 'NONE',  ( 12.00000000000000000, 0.2999999999999999889, -7.500000000000000000 ) ) ;
#592 = DIRECTION ( 'NONE',  ( 5.782411586589357639E-16, 0.000000000000000000, -1.000000000000000000 ) ) ;
#593 = VECTOR ( 'NONE', #609, 1000.000000000000000 ) ;
#594 = AXIS2_PLACEMENT_3D ( 'NONE', #403, #35, #652 ) ;
#595 = VECTOR ( 'NONE', #588, 1000.000000000000000 ) ;
#596 = CARTESIAN_POINT ( 'NONE',  ( 0.000000000000000000, 1.000000000000000000, -1.499999999999999556 ) ) ;
#597 = VERTEX_POINT ( 'NONE', #298 ) ;
#598 = LINE ( 'NONE', #347, #37 ) ;
#599 = CARTESIAN_POINT ( 'NONE',  ( 4.750000000000000000, 0.2999999999999999889, -10.50000000000000000 ) ) ;
#600 = ORIENTED_EDGE ( 'NONE', *, *, #315, .F. ) ;
#601 = CARTESIAN_POINT ( 'NONE',  ( 19.00000000000000000, 0.000000000000000000, -7.500000000000000000 ) ) ;
#602 = FACE_OUTER_BOUND ( 'NONE', #77, .T. ) ;
#603 = ORIENTED_EDGE ( 'NONE', *, *, #266, .F. ) ;
#604 = CARTESIAN_POINT ( 'NONE',  ( 0.000000000000000000, 0.2999999999999999889, 0.000000000000000000 ) ) ;
#605 = VECTOR ( 'NONE', #645, 1000.000000000000000 ) ;
#606 = PLANE ( 'NONE',  #140 ) ;
#607 = ORIENTED_EDGE ( 'NONE', *, *, #530, .T. ) ;
#608 = EDGE_CURVE ( 'NONE', #409, #223, #657, .T. ) ;
#609 = DIRECTION ( 'NONE',  ( 1.000000000000000000, -0.000000000000000000, 0.000000000000000000 ) ) ;
#610 = CARTESIAN_POINT ( 'NONE',  ( 0.000000000000000000, 0.2999999999999999889, -12.00000000000000000 ) ) ;
#611 = ORIENTED_EDGE ( 'NONE', *, *, #11, .F. ) ;
#612 = ADVANCED_BREP_SHAPE_REPRESENTATION ( 'Battery_Spring_Contact', ( #579, #618 ), #128 ) ;
#613 = DIRECTION ( 'NONE',  ( 5.782411586589357639E-16, 0.000000000000000000, 1.000000000000000000 ) ) ;
#614 = ORIENTED_EDGE ( 'NONE', *, *, #68, .T. ) ;
#615 = DIRECTION ( 'NONE',  ( -5.782411586589357639E-16, 0.000000000000000000, 1.000000000000000000 ) ) ;
#616 = EDGE_CURVE ( 'NONE', #583, #135, #402, .T. ) ;
#617 = DIRECTION ( 'NONE',  ( 0.000000000000000000, 1.000000000000000000, -0.000000000000000000 ) ) ;
#618 = AXIS2_PLACEMENT_3D ( 'NONE', #272, #423, #52 ) ;
#619 = ORIENTED_EDGE ( 'NONE', *, *, #462, .T. ) ;
#620 = FACE_OUTER_BOUND ( 'NONE', #418, .T. ) ;
#621 = PLANE ( 'NONE',  #229 ) ;
#622 = ORIENTED_EDGE ( 'NONE', *, *, #608, .F. ) ;
#623 = DIRECTION ( 'NONE',  ( 0.000000000000000000, 0.000000000000000000, 1.000000000000000000 ) ) ;
#624 = ORIENTED_EDGE ( 'NONE', *, *, #124, .T. ) ;
#625 = EDGE_CURVE ( 'NONE', #243, #227, #310, .T. ) ;
#626 = APPLICATION_PROTOCOL_DEFINITION ( 'draft international standard', 'automotive_design', 1998, #489 ) ;
#627 = LINE ( 'NONE', #537, #469 ) ;
#628 = ORIENTED_EDGE ( 'NONE', *, *, #384, .F. ) ;
#629 = EDGE_CURVE ( 'NONE', #656, #468, #672, .T. ) ;
#630 = AXIS2_PLACEMENT_3D ( 'NONE', #505, #194, #509 ) ;
#631 = DIRECTION ( 'NONE',  ( -5.782411586589357639E-16, 0.000000000000000000, -1.000000000000000000 ) ) ;
#632 = DIRECTION ( 'NONE',  ( 5.782411586589358625E-16, 0.000000000000000000, 1.000000000000000000 ) ) ;
#633 = LINE ( 'NONE', #222, #295 ) ;
#634 = CARTESIAN_POINT ( 'NONE',  ( 0.000000000000000000, 0.2999999999999999889, -7.500000000000000000 ) ) ;
#635 = ORIENTED_EDGE ( 'NONE', *, *, #92, .T. ) ;
#636 = CARTESIAN_POINT ( 'NONE',  ( 4.749999999999993783, 1.000000000000000000, 2.746645503629941674E-15 ) ) ;
#637 = EDGE_CURVE ( 'NONE', #243, #23, #434, .T. ) ;
#638 = LINE ( 'NONE', #172, #218 ) ;
#639 = VECTOR ( 'NONE', #631, 1000.000000000000000 ) ;
#640 = CARTESIAN_POINT ( 'NONE',  ( 6.000000000000000000, 0.2999999999999999889, -6.000000000000000000 ) ) ;
#641 = EDGE_LOOP ( 'NONE', ( #415, #550, #362, #619, #355, #319, #108, #270 ) ) ;
#642 = FILL_AREA_STYLE_COLOUR ( '', #555 ) ;
#643 = CARTESIAN_POINT ( 'NONE',  ( 7.250000000000000000, 1.000000000000000000, -1.499999999999999556 ) ) ;
#644 = EDGE_CURVE ( 'NONE', #223, #343, #407, .T. ) ;
#645 = DIRECTION ( 'NONE',  ( -0.000000000000000000, -1.000000000000000000, -0.000000000000000000 ) ) ;
#646 = CARTESIAN_POINT ( 'NONE',  ( 7.249999999999999112, 1.000000000000000000, 0.000000000000000000 ) ) ;
#647 = ORIENTED_EDGE ( 'NONE', *, *, #608, .T. ) ;
#648 = EDGE_CURVE ( 'NONE', #296, #656, #564, .T. ) ;
#649 = MECHANICAL_DESIGN_GEOMETRIC_PRESENTATION_REPRESENTATION (  '', ( #228 ), #525 ) ;
#650 = FACE_OUTER_BOUND ( 'NONE', #58, .T. ) ;
#651 = AXIS2_PLACEMENT_3D ( 'NONE', #473, #49, #46 ) ;
#652 = DIRECTION ( 'NONE',  ( 0.000000000000000000, 0.000000000000000000, 1.000000000000000000 ) ) ;
#653 = ORIENTED_EDGE ( 'NONE', *, *, #625, .T. ) ;
#654 = FILL_AREA_STYLE ('',( #642 ) ) ;
#655 = CARTESIAN_POINT ( 'NONE',  ( 6.000000000000000000, 3.600000000000000089, -6.000000000000000000 ) ) ;
#656 = VERTEX_POINT ( 'NONE', #675 ) ;
#657 = LINE ( 'NONE', #190, #566 ) ;
#658 = EDGE_CURVE ( 'NONE', #41, #671, #416, .T. ) ;
#659 = CARTESIAN_POINT ( 'NONE',  ( 7.250000000000000000, 1.000000000000000000, -10.50000000000000000 ) ) ;
#660 = VERTEX_POINT ( 'NONE', #518 ) ;
#661 = DIRECTION ( 'NONE',  ( 0.000000000000000000, 0.000000000000000000, -1.000000000000000000 ) ) ;
#662 = AXIS2_PLACEMENT_3D ( 'NONE', #551, #293, #193 ) ;
#663 = DIRECTION ( 'NONE',  ( 0.000000000000000000, 0.000000000000000000, 1.000000000000000000 ) ) ;
#664 = CLOSED_SHELL ( 'NONE', ( #279, #216, #148, #330, #165, #399, #2, #207, #581, #366, #168, #576, #498, #541, #259, #341, #677, #144, #356, #96, #301 ) ) ;
#665 = ORIENTED_EDGE ( 'NONE', *, *, #335, .T. ) ;
#666 = CARTESIAN_POINT ( 'NONE',  ( 12.00000000000000000, 0.000000000000000000, -7.500000000000000000 ) ) ;
#667 = ORIENTED_EDGE ( 'NONE', *, *, #104, .F. ) ;
#668 = EDGE_CURVE ( 'NONE', #465, #486, #91, .T. ) ;
#669 = DIRECTION ( 'NONE',  ( 5.782411586589357639E-16, 0.000000000000000000, -1.000000000000000000 ) ) ;
#670 = CYLINDRICAL_SURFACE ( 'NONE', #240, 3.249999999999999556 ) ;
#671 = VERTEX_POINT ( 'NONE', #149 ) ;
#672 = LINE ( 'NONE', #211, #536 ) ;
#673 = CARTESIAN_POINT ( 'NONE',  ( 12.00000000000000000, 0.2999999999999999889, -7.500000000000000000 ) ) ;
#674 = ORIENTED_EDGE ( 'NONE', *, *, #436, .T. ) ;
#675 = CARTESIAN_POINT ( 'NONE',  ( 7.250000000000000000, 0.2999999999999999334, -1.499999999999999556 ) ) ;
#676 = LINE ( 'NONE', #562, #380 ) ;
#677 = ADVANCED_FACE ( 'NONE', ( #620 ), #45, .F. ) ;
#678 = ORIENTED_EDGE ( 'NONE', *, *, #177, .T. ) ;
ENDSEC;
END-ISO-10303-21;
