ISO-10303-21;
HEADER;
FILE_DESCRIPTION (( 'STEP AP214' ),
    '1' );
FILE_NAME ('bms 2s.STEP',
    '2026-08-21T20:26:04',
    ( '' ),
    ( '' ),
    'SwSTEP 2.0',
    'SolidWorks 2025',
    '' );
FILE_SCHEMA (( 'AUTOMOTIVE_DESIGN' ));
ENDSEC;

DATA;
#1 = ORIENTED_EDGE ( 'NONE', *, *, #299, .F. ) ;
#2 = FACE_OUTER_BOUND ( 'NONE', #542, .T. ) ;
#3 = CARTESIAN_POINT ( 'NONE',  ( 0.000000000000000000, 3.950000000000000178, 0.000000000000000000 ) ) ;
#4 = EDGE_LOOP ( 'NONE', ( #605, #320, #286, #565 ) ) ;
#5 = CARTESIAN_POINT ( 'NONE',  ( 23.24464951528710444, 3.950000000000000178, -38.88019393008276126 ) ) ;
#6 = AXIS2_PLACEMENT_3D ( 'NONE', #522, #32, #229 ) ;
#7 = EDGE_CURVE ( 'NONE', #365, #121, #113, .T. ) ;
#8 = PLANE ( 'NONE',  #455 ) ;
#9 = ORIENTED_EDGE ( 'NONE', *, *, #218, .F. ) ;
#10 = FACE_OUTER_BOUND ( 'NONE', #4, .T. ) ;
#11 = VERTEX_POINT ( 'NONE', #411 ) ;
#12 = LINE ( 'NONE', #62, #190 ) ;
#13 = ORIENTED_EDGE ( 'NONE', *, *, #578, .F. ) ;
#14 = EDGE_CURVE ( 'NONE', #121, #447, #368, .T. ) ;
#15 = UNCERTAINTY_MEASURE_WITH_UNIT (LENGTH_MEASURE( 1.000000000000000082E-05 ), #240, 'distance_accuracy_value', 'NONE');
#16 = VECTOR ( 'NONE', #227, 1000.000000000000000 ) ;
#17 = LINE ( 'NONE', #515, #306 ) ;
#18 = ORIENTED_EDGE ( 'NONE', *, *, #68, .T. ) ;
#19 = VECTOR ( 'NONE', #243, 1000.000000000000000 ) ;
#20 = CARTESIAN_POINT ( 'NONE',  ( 6.738110158755833190, 1.600000000000000089, -7.099968778918812617 ) ) ;
#21 = LINE ( 'NONE', #623, #233 ) ;
#22 = ORIENTED_EDGE ( 'NONE', *, *, #172, .F. ) ;
#23 = PRODUCT_DEFINITION_CONTEXT ( 'detailed design', #265, 'design' ) ;
#24 = FACE_BOUND ( 'NONE', #593, .T. ) ;
#25 = VERTEX_POINT ( 'NONE', #419 ) ;
#26 = VERTEX_POINT ( 'NONE', #175 ) ;
#27 = DIRECTION ( 'NONE',  ( -0.000000000000000000, -0.000000000000000000, -1.000000000000000000 ) ) ;
#28 = ORIENTED_EDGE ( 'NONE', *, *, #624, .F. ) ;
#29 = PRODUCT_DEFINITION_FORMATION_WITH_SPECIFIED_SOURCE ( 'ANY', '', #46, .NOT_KNOWN. ) ;
#30 = ORIENTED_EDGE ( 'NONE', *, *, #97, .T. ) ;
#31 = CARTESIAN_POINT ( 'NONE',  ( 23.75000000000000000, 1.600000000000000089, -47.35000000000000142 ) ) ;
#32 = DIRECTION ( 'NONE',  ( 0.000000000000000000, -1.000000000000000000, 0.000000000000000000 ) ) ;
#33 = DIRECTION ( 'NONE',  ( -1.000000000000000000, 0.000000000000000000, 0.000000000000000000 ) ) ;
#34 = ORIENTED_EDGE ( 'NONE', *, *, #80, .F. ) ;
#35 = CARTESIAN_POINT ( 'NONE',  ( 23.75000000000000000, 0.000000000000000000, -47.35000000000000142 ) ) ;
#36 = CARTESIAN_POINT ( 'NONE',  ( 7.902471856104514636, 3.950000000000000178, -38.88019393008276126 ) ) ;
#37 = VECTOR ( 'NONE', #458, 1000.000000000000000 ) ;
#38 = VECTOR ( 'NONE', #626, 1000.000000000000000 ) ;
#39 = EDGE_LOOP ( 'NONE', ( #398, #502, #280, #363 ) ) ;
#40 = LINE ( 'NONE', #174, #278 ) ;
#41 = ADVANCED_FACE ( 'NONE', ( #357 ), #371, .F. ) ;
#42 = DIRECTION ( 'NONE',  ( 0.000000000000000000, 0.000000000000000000, -1.000000000000000000 ) ) ;
#43 = LINE ( 'NONE', #36, #383 ) ;
#44 = CARTESIAN_POINT ( 'NONE',  ( 0.000000000000000000, 0.000000000000000000, 0.000000000000000000 ) ) ;
#45 = CARTESIAN_POINT ( 'NONE',  ( 0.000000000000000000, 1.600000000000000089, 0.000000000000000000 ) ) ;
#46 = PRODUCT ( 'bms 2s', 'bms 2s', '', ( #300 ) ) ;
#47 = VECTOR ( 'NONE', #33, 1000.000000000000000 ) ;
#48 = LINE ( 'NONE', #154, #264 ) ;
#49 = ORIENTED_EDGE ( 'NONE', *, *, #319, .T. ) ;
#50 = EDGE_CURVE ( 'NONE', #365, #103, #61, .T. ) ;
#51 = CARTESIAN_POINT ( 'NONE',  ( 23.24464951528710444, 3.950000000000000178, -7.099968778918814394 ) ) ;
#52 = ORIENTED_EDGE ( 'NONE', *, *, #336, .T. ) ;
#53 = PLANE ( 'NONE',  #56 ) ;
#54 = CARTESIAN_POINT ( 'NONE',  ( 7.902471856104514636, 3.950000000000000178, -28.67490611214433471 ) ) ;
#55 = VERTEX_POINT ( 'NONE', #402 ) ;
#56 = AXIS2_PLACEMENT_3D ( 'NONE', #195, #101, #303 ) ;
#57 = LINE ( 'NONE', #350, #148 ) ;
#58 = ORIENTED_EDGE ( 'NONE', *, *, #375, .F. ) ;
#59 = LINE ( 'NONE', #600, #606 ) ;
#60 = EDGE_CURVE ( 'NONE', #231, #152, #360, .T. ) ;
#61 = LINE ( 'NONE', #260, #497 ) ;
#62 = CARTESIAN_POINT ( 'NONE',  ( 23.24464951528710444, 3.950000000000000178, -28.67490611214433471 ) ) ;
#63 = DIRECTION ( 'NONE',  ( 0.000000000000000000, 0.000000000000000000, -1.000000000000000000 ) ) ;
#64 = PRESENTATION_LAYER_ASSIGNMENT (  '', '', ( #315 ) ) ;
#65 = CARTESIAN_POINT ( 'NONE',  ( 0.6423342138127465795, 3.950000000000000178, -7.099968778918812617 ) ) ;
#66 = AXIS2_PLACEMENT_3D ( 'NONE', #3, #441, #583 ) ;
#67 = DIRECTION ( 'NONE',  ( 1.000000000000000000, -0.000000000000000000, -1.130689211474840280E-16 ) ) ;
#68 = EDGE_CURVE ( 'NONE', #275, #158, #269, .T. ) ;
#69 = EDGE_CURVE ( 'NONE', #100, #556, #21, .T. ) ;
#70 = CARTESIAN_POINT ( 'NONE',  ( 7.902471856104514636, 1.600000000000000089, -38.88019393008276126 ) ) ;
#71 = DIRECTION ( 'NONE',  ( -0.000000000000000000, -1.000000000000000000, -0.000000000000000000 ) ) ;
#72 = VERTEX_POINT ( 'NONE', #574 ) ;
#73 = LINE ( 'NONE', #65, #209 ) ;
#74 = VERTEX_POINT ( 'NONE', #373 ) ;
#75 = CARTESIAN_POINT ( 'NONE',  ( 23.24464951528710444, 3.950000000000000178, -7.099968778918814394 ) ) ;
#76 =( LENGTH_UNIT ( ) NAMED_UNIT ( * ) SI_UNIT ( .MILLI., .METRE. ) );
#77 = AXIS2_PLACEMENT_3D ( 'NONE', #525, #559, #428 ) ;
#78 = DIRECTION ( 'NONE',  ( -0.000000000000000000, -1.000000000000000000, -0.000000000000000000 ) ) ;
#79 = LINE ( 'NONE', #471, #519 ) ;
#80 = EDGE_CURVE ( 'NONE', #447, #72, #79, .T. ) ;
#81 = EDGE_LOOP ( 'NONE', ( #215, #173, #400, #416 ) ) ;
#82 = DIRECTION ( 'NONE',  ( -1.000000000000000000, -0.000000000000000000, -0.000000000000000000 ) ) ;
#83 = EDGE_CURVE ( 'NONE', #203, #329, #189, .T. ) ;
#84 = DIRECTION ( 'NONE',  ( 1.000000000000000000, -0.000000000000000000, 0.000000000000000000 ) ) ;
#85 = SURFACE_STYLE_FILL_AREA ( #563 ) ;
#86 = PRODUCT_DEFINITION ( 'UNKNOWN', '', #29, #23 ) ;
#87 = CARTESIAN_POINT ( 'NONE',  ( 6.738110158755833190, 3.950000000000000178, -7.099968778918812617 ) ) ;
#88 = LINE ( 'NONE', #474, #221 ) ;
#89 = SURFACE_STYLE_FILL_AREA ( #188 ) ;
#90 = CARTESIAN_POINT ( 'NONE',  ( 0.000000000000000000, 1.600000000000000089, 0.000000000000000000 ) ) ;
#91 = CARTESIAN_POINT ( 'NONE',  ( 0.6423342138127465795, 3.950000000000000178, -7.099968778918812617 ) ) ;
#92 = ORIENTED_EDGE ( 'NONE', *, *, #594, .F. ) ;
#93 = AXIS2_PLACEMENT_3D ( 'NONE', #123, #523, #526 ) ;
#94 = DIRECTION ( 'NONE',  ( 1.000000000000000000, 0.000000000000000000, 0.000000000000000000 ) ) ;
#95 = CARTESIAN_POINT ( 'NONE',  ( 7.902471856104514636, 1.600000000000000089, -7.099968778918812617 ) ) ;
#96 = ORIENTED_EDGE ( 'NONE', *, *, #393, .T. ) ;
#97 = EDGE_CURVE ( 'NONE', #463, #11, #467, .T. ) ;
#98 = APPLICATION_PROTOCOL_DEFINITION ( 'draft international standard', 'automotive_design', 1998, #390 ) ;
#99 = DIRECTION ( 'NONE',  ( -0.000000000000000000, -1.000000000000000000, -0.000000000000000000 ) ) ;
#100 = VERTEX_POINT ( 'NONE', #234 ) ;
#101 = DIRECTION ( 'NONE',  ( 1.000000000000000000, -0.000000000000000000, 0.000000000000000000 ) ) ;
#102 = DIRECTION ( 'NONE',  ( -1.000000000000000000, 0.000000000000000000, 0.000000000000000000 ) ) ;
#103 = VERTEX_POINT ( 'NONE', #616 ) ;
#104 = AXIS2_PLACEMENT_3D ( 'NONE', #293, #495, #257 ) ;
#105 = ADVANCED_FACE ( 'NONE', ( #181 ), #324, .T. ) ;
#106 = COLOUR_RGB ( '',0.7960784313725489669, 0.8235294117647058432, 0.9372549019607843146 ) ;
#107 = LINE ( 'NONE', #409, #395 ) ;
#108 = ORIENTED_EDGE ( 'NONE', *, *, #184, .T. ) ;
#109 = FACE_OUTER_BOUND ( 'NONE', #460, .T. ) ;
#110 = EDGE_LOOP ( 'NONE', ( #96, #535, #589, #18 ) ) ;
#111 = MANIFOLD_SOLID_BREP ( 'Boss-Extrude2', #276 ) ;
#112 = DIRECTION ( 'NONE',  ( -0.000000000000000000, -1.000000000000000000, -0.000000000000000000 ) ) ;
#113 = LINE ( 'NONE', #454, #403 ) ;
#114 = VECTOR ( 'NONE', #208, 1000.000000000000000 ) ;
#115 = DIRECTION ( 'NONE',  ( -0.000000000000000000, -1.000000000000000000, -0.000000000000000000 ) ) ;
#116 = VECTOR ( 'NONE', #501, 1000.000000000000000 ) ;
#117 = EDGE_LOOP ( 'NONE', ( #444, #1, #327, #245 ) ) ;
#118 = ORIENTED_EDGE ( 'NONE', *, *, #156, .F. ) ;
#119 = FACE_BOUND ( 'NONE', #420, .T. ) ;
#120 = CARTESIAN_POINT ( 'NONE',  ( 6.738110158755833190, 3.950000000000000178, -38.88019393008276126 ) ) ;
#121 = VERTEX_POINT ( 'NONE', #241 ) ;
#122 = FACE_OUTER_BOUND ( 'NONE', #508, .T. ) ;
#123 = CARTESIAN_POINT ( 'NONE',  ( 0.000000000000000000, 0.000000000000000000, 0.000000000000000000 ) ) ;
#124 = ORIENTED_EDGE ( 'NONE', *, *, #359, .T. ) ;
#125 = LINE ( 'NONE', #328, #210 ) ;
#126 = EDGE_CURVE ( 'NONE', #25, #158, #88, .T. ) ;
#127 = DIRECTION ( 'NONE',  ( -1.000000000000000000, -0.000000000000000000, -0.000000000000000000 ) ) ;
#128 = VECTOR ( 'NONE', #386, 1000.000000000000000 ) ;
#129 = AXIS2_PLACEMENT_3D ( 'NONE', #430, #84, #481 ) ;
#130 = ORIENTED_EDGE ( 'NONE', *, *, #180, .F. ) ;
#131 = PLANE ( 'NONE',  #77 ) ;
#132 = DIRECTION ( 'NONE',  ( 0.000000000000000000, 0.000000000000000000, -1.000000000000000000 ) ) ;
#133 = PLANE ( 'NONE',  #364 ) ;
#134 = PRODUCT_RELATED_PRODUCT_CATEGORY ( 'part', '', ( #46 ) ) ;
#135 = DIRECTION ( 'NONE',  ( 0.000000000000000000, 0.000000000000000000, 1.000000000000000000 ) ) ;
#136 = FILL_AREA_STYLE_COLOUR ( '', #263 ) ;
#137 = AXIS2_PLACEMENT_3D ( 'NONE', #163, #358, #548 ) ;
#138 = EDGE_CURVE ( 'NONE', #26, #496, #43, .T. ) ;
#139 =( NAMED_UNIT ( * ) PLANE_ANGLE_UNIT ( ) SI_UNIT ( $, .RADIAN. ) );
#140 = LINE ( 'NONE', #338, #487 ) ;
#141 = CARTESIAN_POINT ( 'NONE',  ( 23.24464951528710444, 3.950000000000000178, -7.099968778918814394 ) ) ;
#142 = EDGE_CURVE ( 'NONE', #551, #25, #379, .T. ) ;
#143 = DIRECTION ( 'NONE',  ( -1.000000000000000000, 0.000000000000000000, 0.000000000000000000 ) ) ;
#144 = ORIENTED_EDGE ( 'NONE', *, *, #607, .T. ) ;
#145 = EDGE_CURVE ( 'NONE', #11, #496, #331, .T. ) ;
#146 = FACE_OUTER_BOUND ( 'NONE', #597, .T. ) ;
#147 = ORIENTED_EDGE ( 'NONE', *, *, #493, .T. ) ;
#148 = VECTOR ( 'NONE', #339, 1000.000000000000000 ) ;
#149 = AXIS2_PLACEMENT_3D ( 'NONE', #87, #332, #135 ) ;
#150 = SURFACE_STYLE_USAGE ( .BOTH. , #585 ) ;
#151 = LINE ( 'NONE', #90, #38 ) ;
#152 = VERTEX_POINT ( 'NONE', #434 ) ;
#153 = DIRECTION ( 'NONE',  ( 0.000000000000000000, 0.000000000000000000, 1.000000000000000000 ) ) ;
#154 = CARTESIAN_POINT ( 'NONE',  ( 0.000000000000000000, 0.000000000000000000, -47.35000000000000142 ) ) ;
#155 = ORIENTED_EDGE ( 'NONE', *, *, #486, .F. ) ;
#156 = EDGE_CURVE ( 'NONE', #500, #203, #326, .T. ) ;
#157 = DIRECTION ( 'NONE',  ( 0.000000000000000000, 0.000000000000000000, -1.000000000000000000 ) ) ;
#158 = VERTEX_POINT ( 'NONE', #230 ) ;
#159 = VECTOR ( 'NONE', #491, 1000.000000000000000 ) ;
#160 = MECHANICAL_DESIGN_GEOMETRIC_PRESENTATION_REPRESENTATION (  '', ( #555 ), #553 ) ;
#161 = PLANE ( 'NONE',  #137 ) ;
#162 = ORIENTED_EDGE ( 'NONE', *, *, #375, .T. ) ;
#163 = CARTESIAN_POINT ( 'NONE',  ( 23.24464951528710444, 3.950000000000000178, -38.88019393008276126 ) ) ;
#164 = DIRECTION ( 'NONE',  ( 0.000000000000000000, -1.000000000000000000, 0.000000000000000000 ) ) ;
#165 = CARTESIAN_POINT ( 'NONE',  ( 6.738110158755833190, 1.600000000000000089, -38.88019393008276126 ) ) ;
#166 = ORIENTED_EDGE ( 'NONE', *, *, #7, .F. ) ;
#167 = ADVANCED_FACE ( 'NONE', ( #529 ), #133, .F. ) ;
#168 = EDGE_LOOP ( 'NONE', ( #369, #570, #492, #192 ) ) ;
#169 = VECTOR ( 'NONE', #587, 1000.000000000000000 ) ;
#170 = DIRECTION ( 'NONE',  ( -0.000000000000000000, -0.000000000000000000, 1.000000000000000000 ) ) ;
#171 = ORIENTED_EDGE ( 'NONE', *, *, #319, .F. ) ;
#172 = EDGE_CURVE ( 'NONE', #394, #103, #239, .T. ) ;
#173 = ORIENTED_EDGE ( 'NONE', *, *, #391, .F. ) ;
#174 = CARTESIAN_POINT ( 'NONE',  ( 0.6423342138127465795, 1.600000000000000089, -7.099968778918812617 ) ) ;
#175 = CARTESIAN_POINT ( 'NONE',  ( 7.902471856104514636, 3.950000000000000178, -38.88019393008276126 ) ) ;
#176 = VERTEX_POINT ( 'NONE', #196 ) ;
#177 = DIRECTION ( 'NONE',  ( -1.000000000000000000, 0.000000000000000000, 0.000000000000000000 ) ) ;
#178 = DIRECTION ( 'NONE',  ( -0.000000000000000000, -1.000000000000000000, -0.000000000000000000 ) ) ;
#179 = LINE ( 'NONE', #281, #366 ) ;
#180 = EDGE_CURVE ( 'NONE', #463, #26, #304, .T. ) ;
#181 = FACE_OUTER_BOUND ( 'NONE', #117, .T. ) ;
#182 = ORIENTED_EDGE ( 'NONE', *, *, #69, .T. ) ;
#183 = DIRECTION ( 'NONE',  ( -0.000000000000000000, -0.000000000000000000, 1.000000000000000000 ) ) ;
#184 = EDGE_CURVE ( 'NONE', #547, #394, #628, .T. ) ;
#185 = ADVANCED_FACE ( 'NONE', ( #388 ), #252, .F. ) ;
#186 = CARTESIAN_POINT ( 'NONE',  ( 0.000000000000000000, 1.600000000000000089, -47.35000000000000142 ) ) ;
#187 = CARTESIAN_POINT ( 'NONE',  ( 23.24464951528710444, 3.950000000000000178, -38.88019393008276126 ) ) ;
#188 = FILL_AREA_STYLE ('',( #248 ) ) ;
#189 = LINE ( 'NONE', #569, #595 ) ;
#190 = VECTOR ( 'NONE', #115, 1000.000000000000000 ) ;
#191 = CARTESIAN_POINT ( 'NONE',  ( 0.6423342138127465795, 3.950000000000000178, -38.88019393008276126 ) ) ;
#192 = ORIENTED_EDGE ( 'NONE', *, *, #588, .T. ) ;
#193 = PLANE ( 'NONE',  #66 ) ;
#194 = ORIENTED_EDGE ( 'NONE', *, *, #311, .T. ) ;
#195 = CARTESIAN_POINT ( 'NONE',  ( 0.6423342138127465795, 3.950000000000000178, -7.099968778918812617 ) ) ;
#196 = CARTESIAN_POINT ( 'NONE',  ( 23.75000000000000000, 0.000000000000000000, 0.000000000000000000 ) ) ;
#197 = ORIENTED_EDGE ( 'NONE', *, *, #311, .F. ) ;
#198 = AXIS2_PLACEMENT_3D ( 'NONE', #571, #478, #562 ) ;
#199 = AXIS2_PLACEMENT_3D ( 'NONE', #484, #153, #540 ) ;
#200 = LINE ( 'NONE', #141, #19 ) ;
#201 = DIRECTION ( 'NONE',  ( 0.000000000000000000, 0.000000000000000000, -1.000000000000000000 ) ) ;
#202 = EDGE_CURVE ( 'NONE', #599, #500, #580, .T. ) ;
#203 = VERTEX_POINT ( 'NONE', #443 ) ;
#204 = CARTESIAN_POINT ( 'NONE',  ( 7.902471856104514636, 3.950000000000000178, -7.099968778918812617 ) ) ;
#205 = VERTEX_POINT ( 'NONE', #498 ) ;
#206 = UNCERTAINTY_MEASURE_WITH_UNIT (LENGTH_MEASURE( 1.000000000000000082E-05 ), #76, 'distance_accuracy_value', 'NONE');
#207 = CARTESIAN_POINT ( 'NONE',  ( 0.000000000000000000, 0.000000000000000000, 0.000000000000000000 ) ) ;
#208 = DIRECTION ( 'NONE',  ( -0.000000000000000000, -1.000000000000000000, -0.000000000000000000 ) ) ;
#209 = VECTOR ( 'NONE', #457, 1000.000000000000000 ) ;
#210 = VECTOR ( 'NONE', #82, 1000.000000000000000 ) ;
#211 = LINE ( 'NONE', #214, #530 ) ;
#212 = ORIENTED_EDGE ( 'NONE', *, *, #336, .F. ) ;
#213 = ADVANCED_FACE ( 'NONE', ( #249 ), #193, .T. ) ;
#214 = CARTESIAN_POINT ( 'NONE',  ( 23.24464951528710444, 3.950000000000000178, -7.099968778918814394 ) ) ;
#215 = ORIENTED_EDGE ( 'NONE', *, *, #594, .T. ) ;
#216 = ORIENTED_EDGE ( 'NONE', *, *, #554, .T. ) ;
#217 = LINE ( 'NONE', #20, #564 ) ;
#218 = EDGE_CURVE ( 'NONE', #551, #275, #151, .T. ) ;
#219 = ORIENTED_EDGE ( 'NONE', *, *, #218, .T. ) ;
#220 = ORIENTED_EDGE ( 'NONE', *, *, #362, .T. ) ;
#221 = VECTOR ( 'NONE', #482, 1000.000000000000000 ) ;
#222 = FACE_OUTER_BOUND ( 'NONE', #340, .T. ) ;
#223 = ORIENTED_EDGE ( 'NONE', *, *, #83, .T. ) ;
#224 = ADVANCED_FACE ( 'NONE', ( #146 ), #342, .F. ) ;
#225 = EDGE_LOOP ( 'NONE', ( #49, #618, #28, #558 ) ) ;
#226 = DIRECTION ( 'NONE',  ( -1.000000000000000000, -0.000000000000000000, -0.000000000000000000 ) ) ;
#227 = DIRECTION ( 'NONE',  ( -0.000000000000000000, -1.000000000000000000, -0.000000000000000000 ) ) ;
#228 = EDGE_LOOP ( 'NONE', ( #351, #584, #118, #124 ) ) ;
#229 = DIRECTION ( 'NONE',  ( 0.000000000000000000, -0.000000000000000000, -1.000000000000000000 ) ) ;
#230 = CARTESIAN_POINT ( 'NONE',  ( 0.000000000000000000, 0.000000000000000000, 0.000000000000000000 ) ) ;
#231 = VERTEX_POINT ( 'NONE', #95 ) ;
#232 = FACE_OUTER_BOUND ( 'NONE', #39, .T. ) ;
#233 = VECTOR ( 'NONE', #621, 1000.000000000000000 ) ;
#234 = CARTESIAN_POINT ( 'NONE',  ( 23.75000000000000000, 1.600000000000000089, 0.000000000000000000 ) ) ;
#235 = VECTOR ( 'NONE', #99, 1000.000000000000000 ) ;
#236 = VECTOR ( 'NONE', #323, 1000.000000000000000 ) ;
#237 = PLANE ( 'NONE',  #129 ) ;
#238 = EDGE_CURVE ( 'NONE', #305, #205, #57, .T. ) ;
#239 = LINE ( 'NONE', #432, #344 ) ;
#240 =( LENGTH_UNIT ( ) NAMED_UNIT ( * ) SI_UNIT ( .MILLI., .METRE. ) );
#241 = CARTESIAN_POINT ( 'NONE',  ( 6.738110158755833190, 3.950000000000000178, -38.88019393008276126 ) ) ;
#242 = EDGE_CURVE ( 'NONE', #152, #608, #534, .T. ) ;
#243 = DIRECTION ( 'NONE',  ( -0.000000000000000000, -1.000000000000000000, -0.000000000000000000 ) ) ;
#244 = FACE_OUTER_BOUND ( 'NONE', #110, .T. ) ;
#245 = ORIENTED_EDGE ( 'NONE', *, *, #393, .F. ) ;
#246 = EDGE_CURVE ( 'NONE', #256, #231, #538, .T. ) ;
#247 = VECTOR ( 'NONE', #78, 1000.000000000000000 ) ;
#248 = FILL_AREA_STYLE_COLOUR ( '', #106 ) ;
#249 = FACE_OUTER_BOUND ( 'NONE', #627, .T. ) ;
#250 = ORIENTED_EDGE ( 'NONE', *, *, #145, .F. ) ;
#251 =( LENGTH_UNIT ( ) NAMED_UNIT ( * ) SI_UNIT ( .MILLI., .METRE. ) );
#252 = PLANE ( 'NONE',  #104 ) ;
#253 = ORIENTED_EDGE ( 'NONE', *, *, #202, .T. ) ;
#254 = EDGE_CURVE ( 'NONE', #305, #74, #301, .T. ) ;
#255 = DIRECTION ( 'NONE',  ( 1.000000000000000000, 0.000000000000000000, 0.000000000000000000 ) ) ;
#256 = VERTEX_POINT ( 'NONE', #448 ) ;
#257 = DIRECTION ( 'NONE',  ( 1.000000000000000000, 0.000000000000000000, -0.000000000000000000 ) ) ;
#258 = ORIENTED_EDGE ( 'NONE', *, *, #80, .T. ) ;
#259 = DIRECTION ( 'NONE',  ( -0.000000000000000000, -1.000000000000000000, -0.000000000000000000 ) ) ;
#260 = CARTESIAN_POINT ( 'NONE',  ( 6.738110158755833190, 3.950000000000000178, -7.099968778918812617 ) ) ;
#261 = CARTESIAN_POINT ( 'NONE',  ( 23.24464951528710444, 1.600000000000000089, -38.88019393008276126 ) ) ;
#262 = ORIENTED_EDGE ( 'NONE', *, *, #242, .T. ) ;
#263 = COLOUR_RGB ( '',0.7960784313725489669, 0.8235294117647058432, 0.9372549019607843146 ) ;
#264 = VECTOR ( 'NONE', #437, 1000.000000000000000 ) ;
#265 = APPLICATION_CONTEXT ( 'automotive_design' ) ;
#266 = FACE_OUTER_BOUND ( 'NONE', #81, .T. ) ;
#267 = CARTESIAN_POINT ( 'NONE',  ( 0.000000000000000000, 1.600000000000000089, 0.000000000000000000 ) ) ;
#268 = DIRECTION ( 'NONE',  ( -0.000000000000000000, -1.000000000000000000, -0.000000000000000000 ) ) ;
#269 = LINE ( 'NONE', #267, #37 ) ;
#270 = ORIENTED_EDGE ( 'NONE', *, *, #50, .T. ) ;
#271 = ADVANCED_FACE ( 'NONE', ( #10 ), #446, .F. ) ;
#272 = DIRECTION ( 'NONE',  ( 1.000000000000000000, 0.000000000000000000, 0.000000000000000000 ) ) ;
#273 = EDGE_CURVE ( 'NONE', #329, #231, #140, .T. ) ;
#274 = ORIENTED_EDGE ( 'NONE', *, *, #60, .T. ) ;
#275 = VERTEX_POINT ( 'NONE', #45 ) ;
#276 = CLOSED_SHELL ( 'NONE', ( #462, #167, #291, #271, #408, #105, #224, #185, #490, #468, #213, #622, #477, #567, #511, #41, #449, #352, #410, #601, #533 ) ) ;
#277 = CARTESIAN_POINT ( 'NONE',  ( 0.6423342138127465795, 3.950000000000000178, -7.099968778918812617 ) ) ;
#278 = VECTOR ( 'NONE', #183, 1000.000000000000000 ) ;
#279 = DIRECTION ( 'NONE',  ( -0.000000000000000000, -1.000000000000000000, -0.000000000000000000 ) ) ;
#280 = ORIENTED_EDGE ( 'NONE', *, *, #624, .T. ) ;
#281 = CARTESIAN_POINT ( 'NONE',  ( 0.6423342138127465795, 3.950000000000000178, -7.099968778918812617 ) ) ;
#282 = CARTESIAN_POINT ( 'NONE',  ( 23.24464951528710444, 3.950000000000000178, -26.96260949839627585 ) ) ;
#283 = ORIENTED_EDGE ( 'NONE', *, *, #68, .F. ) ;
#284 = CARTESIAN_POINT ( 'NONE',  ( 0.000000000000000000, 1.600000000000000089, 0.000000000000000000 ) ) ;
#285 =( NAMED_UNIT ( * ) PLANE_ANGLE_UNIT ( ) SI_UNIT ( $, .RADIAN. ) );
#286 = ORIENTED_EDGE ( 'NONE', *, *, #69, .F. ) ;
#287 = CARTESIAN_POINT ( 'NONE',  ( 7.902471856104514636, 1.600000000000000089, -38.88019393008276126 ) ) ;
#288 = CARTESIAN_POINT ( 'NONE',  ( 0.000000000000000000, 1.600000000000000089, 0.000000000000000000 ) ) ;
#289 = FACE_OUTER_BOUND ( 'NONE', #513, .T. ) ;
#290 = FACE_OUTER_BOUND ( 'NONE', #322, .T. ) ;
#291 = ADVANCED_FACE ( 'NONE', ( #244 ), #8, .F. ) ;
#292 = CARTESIAN_POINT ( 'NONE',  ( 23.75000000000000000, 1.600000000000000089, 0.000000000000000000 ) ) ;
#293 = CARTESIAN_POINT ( 'NONE',  ( 23.24464951528710444, 3.950000000000000178, -26.96260949839627585 ) ) ;
#294 = ORIENTED_EDGE ( 'NONE', *, *, #431, .T. ) ;
#295 = AXIS2_PLACEMENT_3D ( 'NONE', #557, #399, #313 ) ;
#296 = VECTOR ( 'NONE', #226, 1000.000000000000000 ) ;
#297 = CARTESIAN_POINT ( 'NONE',  ( 23.24464951528710444, 1.600000000000000089, -7.099968778918814394 ) ) ;
#298 = ORIENTED_EDGE ( 'NONE', *, *, #359, .F. ) ;
#299 = EDGE_CURVE ( 'NONE', #505, #25, #48, .T. ) ;
#300 = PRODUCT_CONTEXT ( 'NONE', #390, 'mechanical' ) ;
#301 = LINE ( 'NONE', #54, #586 ) ;
#302 = ORIENTED_EDGE ( 'NONE', *, *, #246, .T. ) ;
#303 = DIRECTION ( 'NONE',  ( 0.000000000000000000, 0.000000000000000000, -1.000000000000000000 ) ) ;
#304 = LINE ( 'NONE', #346, #169 ) ;
#305 = VERTEX_POINT ( 'NONE', #397 ) ;
#306 = VECTOR ( 'NONE', #170, 1000.000000000000000 ) ;
#307 = VECTOR ( 'NONE', #566, 1000.000000000000000 ) ;
#308 = CARTESIAN_POINT ( 'NONE',  ( 6.738110158755833190, 3.950000000000000178, -7.099968778918812617 ) ) ;
#309 = CARTESIAN_POINT ( 'NONE',  ( 0.000000000000000000, 3.950000000000000178, 0.000000000000000000 ) ) ;
#310 = FACE_OUTER_BOUND ( 'NONE', #527, .T. ) ;
#311 = EDGE_CURVE ( 'NONE', #389, #72, #541, .T. ) ;
#312 = DIRECTION ( 'NONE',  ( 0.000000000000000000, -0.000000000000000000, -1.000000000000000000 ) ) ;
#313 = DIRECTION ( 'NONE',  ( -1.000000000000000000, 0.000000000000000000, -0.000000000000000000 ) ) ;
#314 = CARTESIAN_POINT ( 'NONE',  ( 23.24464951528710444, 1.600000000000000089, -7.099968778918814394 ) ) ;
#315 = STYLED_ITEM ( 'NONE', ( #426 ), #111 ) ;
#316 = SHAPE_DEFINITION_REPRESENTATION ( #581, #503 ) ;
#317 = CARTESIAN_POINT ( 'NONE',  ( 0.000000000000000000, 1.600000000000000089, -47.35000000000000142 ) ) ;
#318 = ORIENTED_EDGE ( 'NONE', *, *, #145, .T. ) ;
#319 = EDGE_CURVE ( 'NONE', #55, #11, #413, .T. ) ;
#320 = ORIENTED_EDGE ( 'NONE', *, *, #588, .F. ) ;
#321 = PLANE ( 'NONE',  #6 ) ;
#322 = EDGE_LOOP ( 'NONE', ( #318, #439, #130, #30 ) ) ;
#323 = DIRECTION ( 'NONE',  ( 1.000000000000000000, 0.000000000000000000, 0.000000000000000000 ) ) ;
#324 = PLANE ( 'NONE',  #93 ) ;
#325 = LINE ( 'NONE', #612, #247 ) ;
#326 = LINE ( 'NONE', #282, #47 ) ;
#327 = ORIENTED_EDGE ( 'NONE', *, *, #483, .F. ) ;
#328 = CARTESIAN_POINT ( 'NONE',  ( 0.000000000000000000, 1.600000000000000089, -47.35000000000000142 ) ) ;
#329 = VERTEX_POINT ( 'NONE', #353 ) ;
#330 = CARTESIAN_POINT ( 'NONE',  ( 23.24464951528710444, 3.950000000000000178, -26.96260949839627585 ) ) ;
#331 = LINE ( 'NONE', #572, #617 ) ;
#332 = DIRECTION ( 'NONE',  ( -1.000000000000000000, 0.000000000000000000, 0.000000000000000000 ) ) ;
#333 = VECTOR ( 'NONE', #67, 1000.000000000000000 ) ;
#334 = AXIS2_PLACEMENT_3D ( 'NONE', #317, #401, #596 ) ;
#335 = SURFACE_SIDE_STYLE ('',( #85 ) ) ;
#336 = EDGE_CURVE ( 'NONE', #389, #547, #73, .T. ) ;
#337 =( NAMED_UNIT ( * ) SI_UNIT ( $, .STERADIAN. ) SOLID_ANGLE_UNIT ( ) );
#338 = CARTESIAN_POINT ( 'NONE',  ( 7.902471856104514636, 1.600000000000000089, -7.099968778918812617 ) ) ;
#339 = DIRECTION ( 'NONE',  ( -0.000000000000000000, -1.000000000000000000, -0.000000000000000000 ) ) ;
#340 = EDGE_LOOP ( 'NONE', ( #258, #197, #13, #412 ) ) ;
#341 = PLANE ( 'NONE',  #199 ) ;
#342 = PLANE ( 'NONE',  #510 ) ;
#343 = ORIENTED_EDGE ( 'NONE', *, *, #246, .F. ) ;
#344 = VECTOR ( 'NONE', #381, 1000.000000000000000 ) ;
#345 =( NAMED_UNIT ( * ) PLANE_ANGLE_UNIT ( ) SI_UNIT ( $, .RADIAN. ) );
#346 = CARTESIAN_POINT ( 'NONE',  ( 7.902471856104514636, 3.950000000000000178, -38.88019393008276126 ) ) ;
#347 = ORIENTED_EDGE ( 'NONE', *, *, #184, .F. ) ;
#348 = EDGE_CURVE ( 'NONE', #103, #447, #217, .T. ) ;
#349 = CARTESIAN_POINT ( 'NONE',  ( 7.902471856104514636, 1.600000000000000089, -28.67490611214433471 ) ) ;
#350 = CARTESIAN_POINT ( 'NONE',  ( 7.902471856104514636, 3.950000000000000178, -28.67490611214433471 ) ) ;
#351 = ORIENTED_EDGE ( 'NONE', *, *, #506, .T. ) ;
#352 = ADVANCED_FACE ( 'NONE', ( #266 ), #544, .F. ) ;
#353 = CARTESIAN_POINT ( 'NONE',  ( 7.902471856104514636, 1.600000000000000089, -26.96260949839627585 ) ) ;
#354 = ORIENTED_EDGE ( 'NONE', *, *, #362, .F. ) ;
#355 = VECTOR ( 'NONE', #177, 1000.000000000000000 ) ;
#356 = DIRECTION ( 'NONE',  ( 0.000000000000000000, 0.000000000000000000, 1.000000000000000000 ) ) ;
#357 = FACE_OUTER_BOUND ( 'NONE', #582, .T. ) ;
#358 = DIRECTION ( 'NONE',  ( -1.000000000000000000, 0.000000000000000000, 0.000000000000000000 ) ) ;
#359 = EDGE_CURVE ( 'NONE', #500, #608, #107, .T. ) ;
#360 = LINE ( 'NONE', #314, #333 ) ;
#361 = CARTESIAN_POINT ( 'NONE',  ( 7.902471856104514636, 3.950000000000000178, -38.88019393008276126 ) ) ;
#362 = EDGE_CURVE ( 'NONE', #256, #599, #211, .T. ) ;
#363 = ORIENTED_EDGE ( 'NONE', *, *, #180, .T. ) ;
#364 = AXIS2_PLACEMENT_3D ( 'NONE', #288, #480, #42 ) ;
#365 = VERTEX_POINT ( 'NONE', #308 ) ;
#366 = VECTOR ( 'NONE', #374, 1000.000000000000000 ) ;
#367 = PLANE ( 'NONE',  #479 ) ;
#368 = LINE ( 'NONE', #120, #114 ) ;
#369 = ORIENTED_EDGE ( 'NONE', *, *, #299, .T. ) ;
#370 = PLANE ( 'NONE',  #405 ) ;
#371 = PLANE ( 'NONE',  #436 ) ;
#372 = CARTESIAN_POINT ( 'NONE',  ( 0.000000000000000000, 1.600000000000000089, -47.35000000000000142 ) ) ;
#373 = CARTESIAN_POINT ( 'NONE',  ( 23.24464951528710444, 3.950000000000000178, -28.67490611214433471 ) ) ;
#374 = DIRECTION ( 'NONE',  ( 1.000000000000000000, 0.000000000000000000, 0.000000000000000000 ) ) ;
#375 = EDGE_CURVE ( 'NONE', #496, #205, #406, .T. ) ;
#376 = VECTOR ( 'NONE', #440, 1000.000000000000000 ) ;
#377 = ORIENTED_EDGE ( 'NONE', *, *, #431, .F. ) ;
#378 = PLANE ( 'NONE',  #198 ) ;
#379 = LINE ( 'NONE', #186, #552 ) ;
#380 = DIRECTION ( 'NONE',  ( -1.130689211474840280E-16, 0.000000000000000000, -1.000000000000000000 ) ) ;
#381 = DIRECTION ( 'NONE',  ( 1.000000000000000000, 0.000000000000000000, 0.000000000000000000 ) ) ;
#382 = EDGE_CURVE ( 'NONE', #100, #176, #59, .T. ) ;
#383 = VECTOR ( 'NONE', #613, 1000.000000000000000 ) ;
#384 = CARTESIAN_POINT ( 'NONE',  ( 23.24464951528710444, 3.950000000000000178, -38.88019393008276126 ) ) ;
#385 = DIRECTION ( 'NONE',  ( 1.000000000000000000, 0.000000000000000000, 0.000000000000000000 ) ) ;
#386 = DIRECTION ( 'NONE',  ( 0.000000000000000000, 0.000000000000000000, -1.000000000000000000 ) ) ;
#387 = ORIENTED_EDGE ( 'NONE', *, *, #423, .F. ) ;
#388 = FACE_OUTER_BOUND ( 'NONE', #228, .T. ) ;
#389 = VERTEX_POINT ( 'NONE', #451 ) ;
#390 = APPLICATION_CONTEXT ( 'automotive_design' ) ;
#391 = EDGE_CURVE ( 'NONE', #74, #55, #12, .T. ) ;
#392 = DIRECTION ( 'NONE',  ( 0.000000000000000000, 0.000000000000000000, -1.000000000000000000 ) ) ;
#393 = EDGE_CURVE ( 'NONE', #158, #176, #604, .T. ) ;
#394 = VERTEX_POINT ( 'NONE', #453 ) ;
#395 = VECTOR ( 'NONE', #268, 1000.000000000000000 ) ;
#396 = AXIS2_PLACEMENT_3D ( 'NONE', #277, #132, #531 ) ;
#397 = CARTESIAN_POINT ( 'NONE',  ( 7.902471856104514636, 3.950000000000000178, -28.67490611214433471 ) ) ;
#398 = ORIENTED_EDGE ( 'NONE', *, *, #423, .T. ) ;
#399 = DIRECTION ( 'NONE',  ( 0.000000000000000000, 0.000000000000000000, -1.000000000000000000 ) ) ;
#400 = ORIENTED_EDGE ( 'NONE', *, *, #254, .F. ) ;
#401 = DIRECTION ( 'NONE',  ( 0.000000000000000000, 0.000000000000000000, 1.000000000000000000 ) ) ;
#402 = CARTESIAN_POINT ( 'NONE',  ( 23.24464951528710444, 1.600000000000000089, -28.67490611214433471 ) ) ;
#403 = VECTOR ( 'NONE', #63, 1000.000000000000000 ) ;
#404 = VECTOR ( 'NONE', #392, 1000.000000000000000 ) ;
#405 = AXIS2_PLACEMENT_3D ( 'NONE', #75, #380, #619 ) ;
#406 = LINE ( 'NONE', #70, #116 ) ;
#407 = ORIENTED_EDGE ( 'NONE', *, *, #126, .T. ) ;
#408 = ADVANCED_FACE ( 'NONE', ( #592 ), #546, .F. ) ;
#409 = CARTESIAN_POINT ( 'NONE',  ( 23.24464951528710444, 3.950000000000000178, -26.96260949839627585 ) ) ;
#410 = ADVANCED_FACE ( 'NONE', ( #598 ), #161, .F. ) ;
#411 = CARTESIAN_POINT ( 'NONE',  ( 23.24464951528710444, 1.600000000000000089, -38.88019393008276126 ) ) ;
#412 = ORIENTED_EDGE ( 'NONE', *, *, #14, .T. ) ;
#413 = LINE ( 'NONE', #261, #464 ) ;
#414 = ORIENTED_EDGE ( 'NONE', *, *, #138, .T. ) ;
#415 = VECTOR ( 'NONE', #112, 1000.000000000000000 ) ;
#416 = ORIENTED_EDGE ( 'NONE', *, *, #238, .T. ) ;
#417 = PRESENTATION_LAYER_ASSIGNMENT (  '', '', ( #555 ) ) ;
#418 = LINE ( 'NONE', #284, #236 ) ;
#419 = CARTESIAN_POINT ( 'NONE',  ( 0.000000000000000000, 0.000000000000000000, -47.35000000000000142 ) ) ;
#420 = EDGE_LOOP ( 'NONE', ( #442, #537, #560, #472 ) ) ;
#421 = CARTESIAN_POINT ( 'NONE',  ( 23.24464951528710444, 1.600000000000000089, -26.96260949839627585 ) ) ;
#422 =( NAMED_UNIT ( * ) SI_UNIT ( $, .STERADIAN. ) SOLID_ANGLE_UNIT ( ) );
#423 = EDGE_CURVE ( 'NONE', #26, #305, #550, .T. ) ;
#424 = ORIENTED_EDGE ( 'NONE', *, *, #348, .F. ) ;
#425 = PLANE ( 'NONE',  #396 ) ;
#426 = PRESENTATION_STYLE_ASSIGNMENT (( #518 ) ) ;
#427 = ORIENTED_EDGE ( 'NONE', *, *, #14, .F. ) ;
#428 = DIRECTION ( 'NONE',  ( 1.000000000000000000, 0.000000000000000000, -0.000000000000000000 ) ) ;
#429 = DIRECTION ( 'NONE',  ( -1.000000000000000000, -0.000000000000000000, -0.000000000000000000 ) ) ;
#430 = CARTESIAN_POINT ( 'NONE',  ( 7.902471856104514636, 3.950000000000000178, -7.099968778918812617 ) ) ;
#431 = EDGE_CURVE ( 'NONE', #203, #256, #17, .T. ) ;
#432 = CARTESIAN_POINT ( 'NONE',  ( 0.6423342138127465795, 1.600000000000000089, -7.099968778918812617 ) ) ;
#433 = LINE ( 'NONE', #5, #376 ) ;
#434 = CARTESIAN_POINT ( 'NONE',  ( 23.24464951528710444, 1.600000000000000089, -7.099968778918814394 ) ) ;
#435 =( NAMED_UNIT ( * ) SI_UNIT ( $, .STERADIAN. ) SOLID_ANGLE_UNIT ( ) );
#436 = AXIS2_PLACEMENT_3D ( 'NONE', #309, #164, #312 ) ;
#437 = DIRECTION ( 'NONE',  ( -1.000000000000000000, -0.000000000000000000, -0.000000000000000000 ) ) ;
#438 = VECTOR ( 'NONE', #94, 1000.000000000000000 ) ;
#439 = ORIENTED_EDGE ( 'NONE', *, *, #138, .F. ) ;
#440 = DIRECTION ( 'NONE',  ( -0.000000000000000000, -0.000000000000000000, -1.000000000000000000 ) ) ;
#441 = DIRECTION ( 'NONE',  ( 0.000000000000000000, 1.000000000000000000, 0.000000000000000000 ) ) ;
#442 = ORIENTED_EDGE ( 'NONE', *, *, #242, .F. ) ;
#443 = CARTESIAN_POINT ( 'NONE',  ( 7.902471856104514636, 3.950000000000000178, -26.96260949839627585 ) ) ;
#444 = ORIENTED_EDGE ( 'NONE', *, *, #126, .F. ) ;
#445 = LINE ( 'NONE', #349, #438 ) ;
#446 = PLANE ( 'NONE',  #520 ) ;
#447 = VERTEX_POINT ( 'NONE', #165 ) ;
#448 = CARTESIAN_POINT ( 'NONE',  ( 7.902471856104514636, 3.950000000000000178, -7.099968778918812617 ) ) ;
#449 = ADVANCED_FACE ( 'NONE', ( #109 ), #367, .F. ) ;
#450 = ORIENTED_EDGE ( 'NONE', *, *, #142, .T. ) ;
#451 = CARTESIAN_POINT ( 'NONE',  ( 0.6423342138127465795, 3.950000000000000178, -38.88019393008276126 ) ) ;
#452 = ORIENTED_EDGE ( 'NONE', *, *, #50, .F. ) ;
#453 = CARTESIAN_POINT ( 'NONE',  ( 0.6423342138127465795, 1.600000000000000089, -7.099968778918812617 ) ) ;
#454 = CARTESIAN_POINT ( 'NONE',  ( 6.738110158755833190, 3.950000000000000178, -7.099968778918812617 ) ) ;
#455 = AXIS2_PLACEMENT_3D ( 'NONE', #590, #201, #488 ) ;
#456 = AXIS2_PLACEMENT_3D ( 'NONE', #44, #625, #385 ) ;
#457 = DIRECTION ( 'NONE',  ( -0.000000000000000000, -0.000000000000000000, 1.000000000000000000 ) ) ;
#458 = DIRECTION ( 'NONE',  ( -0.000000000000000000, -1.000000000000000000, -0.000000000000000000 ) ) ;
#459 = DIRECTION ( 'NONE',  ( 0.000000000000000000, 0.000000000000000000, -1.000000000000000000 ) ) ;
#460 = EDGE_LOOP ( 'NONE', ( #162, #545, #387, #414 ) ) ;
#461 = DIRECTION ( 'NONE',  ( 1.000000000000000000, -0.000000000000000000, -1.130689211474840280E-16 ) ) ;
#462 = ADVANCED_FACE ( 'NONE', ( #24, #310, #119, #504 ), #321, .F. ) ;
#463 = VERTEX_POINT ( 'NONE', #187 ) ;
#464 = VECTOR ( 'NONE', #27, 1000.000000000000000 ) ;
#465 =( GEOMETRIC_REPRESENTATION_CONTEXT ( 3 ) GLOBAL_UNCERTAINTY_ASSIGNED_CONTEXT ( ( #15 ) ) GLOBAL_UNIT_ASSIGNED_CONTEXT ( ( #240, #345, #435 ) ) REPRESENTATION_CONTEXT ( 'NONE', 'WORKASPACE' ) );
#466 = CARTESIAN_POINT ( 'NONE',  ( 0.6423342138127465795, 3.950000000000000178, -38.88019393008276126 ) ) ;
#467 = LINE ( 'NONE', #384, #16 ) ;
#468 = ADVANCED_FACE ( 'NONE', ( #528 ), #370, .F. ) ;
#469 = ORIENTED_EDGE ( 'NONE', *, *, #607, .F. ) ;
#470 = LINE ( 'NONE', #615, #307 ) ;
#471 = CARTESIAN_POINT ( 'NONE',  ( 0.6423342138127465795, 1.600000000000000089, -38.88019393008276126 ) ) ;
#472 = ORIENTED_EDGE ( 'NONE', *, *, #506, .F. ) ;
#473 = LINE ( 'NONE', #421, #355 ) ;
#474 = CARTESIAN_POINT ( 'NONE',  ( 0.000000000000000000, 0.000000000000000000, 0.000000000000000000 ) ) ;
#475 = EDGE_LOOP ( 'NONE', ( #58, #250, #171, #92 ) ) ;
#476 = VECTOR ( 'NONE', #272, 1000.000000000000000 ) ;
#477 = ADVANCED_FACE ( 'NONE', ( #609 ), #425, .F. ) ;
#478 = DIRECTION ( 'NONE',  ( 0.000000000000000000, 1.000000000000000000, 0.000000000000000000 ) ) ;
#479 = AXIS2_PLACEMENT_3D ( 'NONE', #361, #512, #459 ) ;
#480 = DIRECTION ( 'NONE',  ( 1.000000000000000000, -0.000000000000000000, 0.000000000000000000 ) ) ;
#481 = DIRECTION ( 'NONE',  ( 0.000000000000000000, 0.000000000000000000, -1.000000000000000000 ) ) ;
#482 = DIRECTION ( 'NONE',  ( -0.000000000000000000, -0.000000000000000000, 1.000000000000000000 ) ) ;
#483 = EDGE_CURVE ( 'NONE', #176, #505, #470, .T. ) ;
#484 = CARTESIAN_POINT ( 'NONE',  ( 7.902471856104514636, 3.950000000000000178, -38.88019393008276126 ) ) ;
#485 = CARTESIAN_POINT ( 'NONE',  ( 23.24464951528710444, 3.950000000000000178, -7.099968778918814394 ) ) ;
#486 = EDGE_CURVE ( 'NONE', #72, #394, #40, .T. ) ;
#487 = VECTOR ( 'NONE', #532, 1000.000000000000000 ) ;
#488 = DIRECTION ( 'NONE',  ( -1.000000000000000000, 0.000000000000000000, -0.000000000000000000 ) ) ;
#489 = ORIENTED_EDGE ( 'NONE', *, *, #568, .T. ) ;
#490 = ADVANCED_FACE ( 'NONE', ( #289 ), #237, .F. ) ;
#491 = DIRECTION ( 'NONE',  ( -0.000000000000000000, -1.000000000000000000, -0.000000000000000000 ) ) ;
#492 = ORIENTED_EDGE ( 'NONE', *, *, #554, .F. ) ;
#493 = EDGE_CURVE ( 'NONE', #547, #365, #179, .T. ) ;
#494 = CARTESIAN_POINT ( 'NONE',  ( 23.24464951528710444, 1.600000000000000089, -26.96260949839627585 ) ) ;
#495 = DIRECTION ( 'NONE',  ( 0.000000000000000000, -0.000000000000000000, 1.000000000000000000 ) ) ;
#496 = VERTEX_POINT ( 'NONE', #287 ) ;
#497 = VECTOR ( 'NONE', #71, 1000.000000000000000 ) ;
#498 = CARTESIAN_POINT ( 'NONE',  ( 7.902471856104514636, 1.600000000000000089, -28.67490611214433471 ) ) ;
#499 =( GEOMETRIC_REPRESENTATION_CONTEXT ( 3 ) GLOBAL_UNCERTAINTY_ASSIGNED_CONTEXT ( ( #206 ) ) GLOBAL_UNIT_ASSIGNED_CONTEXT ( ( #76, #285, #422 ) ) REPRESENTATION_CONTEXT ( 'NONE', 'WORKASPACE' ) );
#500 = VERTEX_POINT ( 'NONE', #330 ) ;
#501 = DIRECTION ( 'NONE',  ( 0.000000000000000000, 0.000000000000000000, 1.000000000000000000 ) ) ;
#502 = ORIENTED_EDGE ( 'NONE', *, *, #254, .T. ) ;
#503 = ADVANCED_BREP_SHAPE_REPRESENTATION ( 'bms 2s', ( #111, #456 ), #465 ) ;
#504 = FACE_BOUND ( 'NONE', #475, .T. ) ;
#505 = VERTEX_POINT ( 'NONE', #35 ) ;
#506 = EDGE_CURVE ( 'NONE', #608, #329, #473, .T. ) ;
#507 = CARTESIAN_POINT ( 'NONE',  ( 7.902471856104514636, 3.950000000000000178, -38.88019393008276126 ) ) ;
#508 = EDGE_LOOP ( 'NONE', ( #602, #427, #166, #270 ) ) ;
#509 = MECHANICAL_DESIGN_GEOMETRIC_PRESENTATION_REPRESENTATION (  '', ( #315 ), #499 ) ;
#510 = AXIS2_PLACEMENT_3D ( 'NONE', #485, #143, #536 ) ;
#511 = ADVANCED_FACE ( 'NONE', ( #222 ), #131, .F. ) ;
#512 = DIRECTION ( 'NONE',  ( 1.000000000000000000, 0.000000000000000000, 0.000000000000000000 ) ) ;
#513 = EDGE_LOOP ( 'NONE', ( #591, #343, #377, #223 ) ) ;
#514 = ORIENTED_EDGE ( 'NONE', *, *, #486, .T. ) ;
#515 = CARTESIAN_POINT ( 'NONE',  ( 7.902471856104514636, 3.950000000000000178, -7.099968778918812617 ) ) ;
#516 = ORIENTED_EDGE ( 'NONE', *, *, #172, .T. ) ;
#517 = LINE ( 'NONE', #466, #296 ) ;
#518 = SURFACE_STYLE_USAGE ( .BOTH. , #335 ) ;
#519 = VECTOR ( 'NONE', #429, 1000.000000000000000 ) ;
#520 = AXIS2_PLACEMENT_3D ( 'NONE', #292, #102, #577 ) ;
#521 = ORIENTED_EDGE ( 'NONE', *, *, #578, .T. ) ;
#522 = CARTESIAN_POINT ( 'NONE',  ( 0.000000000000000000, 1.600000000000000089, 0.000000000000000000 ) ) ;
#523 = DIRECTION ( 'NONE',  ( 0.000000000000000000, -1.000000000000000000, 0.000000000000000000 ) ) ;
#524 = EDGE_LOOP ( 'NONE', ( #516, #452, #614, #108 ) ) ;
#525 = CARTESIAN_POINT ( 'NONE',  ( 0.6423342138127465795, 3.950000000000000178, -38.88019393008276126 ) ) ;
#526 = DIRECTION ( 'NONE',  ( 0.000000000000000000, -0.000000000000000000, -1.000000000000000000 ) ) ;
#527 = EDGE_LOOP ( 'NONE', ( #219, #489, #182, #216 ) ) ;
#528 = FACE_OUTER_BOUND ( 'NONE', #603, .T. ) ;
#529 = FACE_OUTER_BOUND ( 'NONE', #549, .T. ) ;
#530 = VECTOR ( 'NONE', #461, 1000.000000000000000 ) ;
#531 = DIRECTION ( 'NONE',  ( -1.000000000000000000, 0.000000000000000000, -0.000000000000000000 ) ) ;
#532 = DIRECTION ( 'NONE',  ( -0.000000000000000000, -0.000000000000000000, 1.000000000000000000 ) ) ;
#533 = ADVANCED_FACE ( 'NONE', ( #232 ), #378, .T. ) ;
#534 = LINE ( 'NONE', #297, #404 ) ;
#535 = ORIENTED_EDGE ( 'NONE', *, *, #382, .F. ) ;
#536 = DIRECTION ( 'NONE',  ( 0.000000000000000000, 0.000000000000000000, 1.000000000000000000 ) ) ;
#537 = ORIENTED_EDGE ( 'NONE', *, *, #60, .F. ) ;
#538 = LINE ( 'NONE', #204, #235 ) ;
#539 = ORIENTED_EDGE ( 'NONE', *, *, #202, .F. ) ;
#540 = DIRECTION ( 'NONE',  ( 1.000000000000000000, 0.000000000000000000, -0.000000000000000000 ) ) ;
#541 = LINE ( 'NONE', #191, #415 ) ;
#542 = EDGE_LOOP ( 'NONE', ( #514, #347, #212, #194 ) ) ;
#543 = APPLICATION_PROTOCOL_DEFINITION ( 'draft international standard', 'automotive_design', 1998, #265 ) ;
#544 = PLANE ( 'NONE',  #295 ) ;
#545 = ORIENTED_EDGE ( 'NONE', *, *, #238, .F. ) ;
#546 = PLANE ( 'NONE',  #334 ) ;
#547 = VERTEX_POINT ( 'NONE', #620 ) ;
#548 = DIRECTION ( 'NONE',  ( 0.000000000000000000, 0.000000000000000000, 1.000000000000000000 ) ) ;
#549 = EDGE_LOOP ( 'NONE', ( #407, #283, #9, #450 ) ) ;
#550 = LINE ( 'NONE', #507, #575 ) ;
#551 = VERTEX_POINT ( 'NONE', #372 ) ;
#552 = VECTOR ( 'NONE', #178, 1000.000000000000000 ) ;
#553 =( GEOMETRIC_REPRESENTATION_CONTEXT ( 3 ) GLOBAL_UNCERTAINTY_ASSIGNED_CONTEXT ( ( #561 ) ) GLOBAL_UNIT_ASSIGNED_CONTEXT ( ( #251, #139, #337 ) ) REPRESENTATION_CONTEXT ( 'NONE', 'WORKASPACE' ) );
#554 = EDGE_CURVE ( 'NONE', #556, #551, #125, .T. ) ;
#555 = STYLED_ITEM ( 'NONE', ( #576 ), #503 ) ;
#556 = VERTEX_POINT ( 'NONE', #31 ) ;
#557 = CARTESIAN_POINT ( 'NONE',  ( 7.902471856104514636, 3.950000000000000178, -28.67490611214433471 ) ) ;
#558 = ORIENTED_EDGE ( 'NONE', *, *, #391, .T. ) ;
#559 = DIRECTION ( 'NONE',  ( 0.000000000000000000, 0.000000000000000000, 1.000000000000000000 ) ) ;
#560 = ORIENTED_EDGE ( 'NONE', *, *, #273, .F. ) ;
#561 = UNCERTAINTY_MEASURE_WITH_UNIT (LENGTH_MEASURE( 1.000000000000000082E-05 ), #251, 'distance_accuracy_value', 'NONE');
#562 = DIRECTION ( 'NONE',  ( 0.000000000000000000, -0.000000000000000000, 1.000000000000000000 ) ) ;
#563 = FILL_AREA_STYLE ('',( #136 ) ) ;
#564 = VECTOR ( 'NONE', #157, 1000.000000000000000 ) ;
#565 = ORIENTED_EDGE ( 'NONE', *, *, #382, .T. ) ;
#566 = DIRECTION ( 'NONE',  ( 0.000000000000000000, 0.000000000000000000, -1.000000000000000000 ) ) ;
#567 = ADVANCED_FACE ( 'NONE', ( #122 ), #573, .F. ) ;
#568 = EDGE_CURVE ( 'NONE', #275, #100, #418, .T. ) ;
#569 = CARTESIAN_POINT ( 'NONE',  ( 7.902471856104514636, 3.950000000000000178, -26.96260949839627585 ) ) ;
#570 = ORIENTED_EDGE ( 'NONE', *, *, #142, .F. ) ;
#571 = CARTESIAN_POINT ( 'NONE',  ( 0.000000000000000000, 3.950000000000000178, 0.000000000000000000 ) ) ;
#572 = CARTESIAN_POINT ( 'NONE',  ( 7.902471856104514636, 1.600000000000000089, -38.88019393008276126 ) ) ;
#573 = PLANE ( 'NONE',  #149 ) ;
#574 = CARTESIAN_POINT ( 'NONE',  ( 0.6423342138127465795, 1.600000000000000089, -38.88019393008276126 ) ) ;
#575 = VECTOR ( 'NONE', #356, 1000.000000000000000 ) ;
#576 = PRESENTATION_STYLE_ASSIGNMENT (( #150 ) ) ;
#577 = DIRECTION ( 'NONE',  ( 0.000000000000000000, 0.000000000000000000, 1.000000000000000000 ) ) ;
#578 = EDGE_CURVE ( 'NONE', #121, #389, #517, .T. ) ;
#579 = CARTESIAN_POINT ( 'NONE',  ( 23.24464951528710444, 3.950000000000000178, -7.099968778918814394 ) ) ;
#580 = LINE ( 'NONE', #51, #128 ) ;
#581 = PRODUCT_DEFINITION_SHAPE ( 'NONE', 'NONE',  #86 ) ;
#582 = EDGE_LOOP ( 'NONE', ( #52, #147, #611, #521 ) ) ;
#583 = DIRECTION ( 'NONE',  ( 0.000000000000000000, -0.000000000000000000, 1.000000000000000000 ) ) ;
#584 = ORIENTED_EDGE ( 'NONE', *, *, #83, .F. ) ;
#585 = SURFACE_SIDE_STYLE ('',( #89 ) ) ;
#586 = VECTOR ( 'NONE', #255, 1000.000000000000000 ) ;
#587 = DIRECTION ( 'NONE',  ( -1.000000000000000000, -0.000000000000000000, -0.000000000000000000 ) ) ;
#588 = EDGE_CURVE ( 'NONE', #556, #505, #325, .T. ) ;
#589 = ORIENTED_EDGE ( 'NONE', *, *, #568, .F. ) ;
#590 = CARTESIAN_POINT ( 'NONE',  ( 0.000000000000000000, 1.600000000000000089, 0.000000000000000000 ) ) ;
#591 = ORIENTED_EDGE ( 'NONE', *, *, #273, .T. ) ;
#592 = FACE_OUTER_BOUND ( 'NONE', #168, .T. ) ;
#593 = EDGE_LOOP ( 'NONE', ( #155, #34, #424, #22 ) ) ;
#594 = EDGE_CURVE ( 'NONE', #205, #55, #445, .T. ) ;
#595 = VECTOR ( 'NONE', #279, 1000.000000000000000 ) ;
#596 = DIRECTION ( 'NONE',  ( 1.000000000000000000, 0.000000000000000000, -0.000000000000000000 ) ) ;
#597 = EDGE_LOOP ( 'NONE', ( #262, #298, #539, #144 ) ) ;
#598 = FACE_OUTER_BOUND ( 'NONE', #225, .T. ) ;
#599 = VERTEX_POINT ( 'NONE', #579 ) ;
#600 = CARTESIAN_POINT ( 'NONE',  ( 23.75000000000000000, 1.600000000000000089, 0.000000000000000000 ) ) ;
#601 = ADVANCED_FACE ( 'NONE', ( #290 ), #341, .F. ) ;
#602 = ORIENTED_EDGE ( 'NONE', *, *, #348, .T. ) ;
#603 = EDGE_LOOP ( 'NONE', ( #274, #469, #354, #302 ) ) ;
#604 = LINE ( 'NONE', #207, #476 ) ;
#605 = ORIENTED_EDGE ( 'NONE', *, *, #483, .T. ) ;
#606 = VECTOR ( 'NONE', #259, 1000.000000000000000 ) ;
#607 = EDGE_CURVE ( 'NONE', #599, #152, #200, .T. ) ;
#608 = VERTEX_POINT ( 'NONE', #494 ) ;
#609 = FACE_OUTER_BOUND ( 'NONE', #524, .T. ) ;
#610 = ORIENTED_EDGE ( 'NONE', *, *, #156, .T. ) ;
#611 = ORIENTED_EDGE ( 'NONE', *, *, #7, .T. ) ;
#612 = CARTESIAN_POINT ( 'NONE',  ( 23.75000000000000000, 1.600000000000000089, -47.35000000000000142 ) ) ;
#613 = DIRECTION ( 'NONE',  ( -0.000000000000000000, -1.000000000000000000, -0.000000000000000000 ) ) ;
#614 = ORIENTED_EDGE ( 'NONE', *, *, #493, .F. ) ;
#615 = CARTESIAN_POINT ( 'NONE',  ( 23.75000000000000000, 0.000000000000000000, 0.000000000000000000 ) ) ;
#616 = CARTESIAN_POINT ( 'NONE',  ( 6.738110158755833190, 1.600000000000000089, -7.099968778918812617 ) ) ;
#617 = VECTOR ( 'NONE', #127, 1000.000000000000000 ) ;
#618 = ORIENTED_EDGE ( 'NONE', *, *, #97, .F. ) ;
#619 = DIRECTION ( 'NONE',  ( -1.000000000000000000, 0.000000000000000000, 1.130689211474840280E-16 ) ) ;
#620 = CARTESIAN_POINT ( 'NONE',  ( 0.6423342138127465795, 3.950000000000000178, -7.099968778918812617 ) ) ;
#621 = DIRECTION ( 'NONE',  ( 0.000000000000000000, 0.000000000000000000, -1.000000000000000000 ) ) ;
#622 = ADVANCED_FACE ( 'NONE', ( #2 ), #53, .F. ) ;
#623 = CARTESIAN_POINT ( 'NONE',  ( 23.75000000000000000, 1.600000000000000089, 0.000000000000000000 ) ) ;
#624 = EDGE_CURVE ( 'NONE', #74, #463, #433, .T. ) ;
#625 = DIRECTION ( 'NONE',  ( 0.000000000000000000, 0.000000000000000000, 1.000000000000000000 ) ) ;
#626 = DIRECTION ( 'NONE',  ( -0.000000000000000000, -0.000000000000000000, 1.000000000000000000 ) ) ;
#627 = EDGE_LOOP ( 'NONE', ( #253, #610, #294, #220 ) ) ;
#628 = LINE ( 'NONE', #91, #159 ) ;
ENDSEC;
END-ISO-10303-21;
