ISO-10303-21;
HEADER;
FILE_DESCRIPTION (( 'STEP AP214' ),
    '1' );
FILE_NAME ('Cell_21700.STEP',
    '2026-08-21T20:26:04',
    ( '' ),
    ( '' ),
    'SwSTEP 2.0',
    'SolidWorks 2025',
    '' );
FILE_SCHEMA (( 'AUTOMOTIVE_DESIGN' ));
ENDSEC;

DATA;
#1 = VERTEX_POINT ( 'NONE', #49 ) ;
#2 = COLOUR_RGB ( '',0.7960784313725489669, 0.8235294117647058432, 0.9372549019607843146 ) ;
#3 =( NAMED_UNIT ( * ) PLANE_ANGLE_UNIT ( ) SI_UNIT ( $, .RADIAN. ) );
#4 = ADVANCED_FACE ( 'NONE', ( #210 ), #21, .T. ) ;
#5 = ORIENTED_EDGE ( 'NONE', *, *, #231, .F. ) ;
#6 = COLOUR_RGB ( '',0.7960784313725489669, 0.8235294117647058432, 0.9372549019607843146 ) ;
#7 = CARTESIAN_POINT ( 'NONE',  ( 0.000000000000000000, 70.09999999999999432, 0.000000000000000000 ) ) ;
#8 = FACE_OUTER_BOUND ( 'NONE', #207, .T. ) ;
#9 = DIRECTION ( 'NONE',  ( 0.000000000000000000, 0.000000000000000000, 1.000000000000000000 ) ) ;
#10 = AXIS2_PLACEMENT_3D ( 'NONE', #110, #12, #94 ) ;
#11 = CARTESIAN_POINT ( 'NONE',  ( 0.000000000000000000, 70.09999999999999432, 10.14999999999999858 ) ) ;
#12 = DIRECTION ( 'NONE',  ( 0.000000000000000000, 1.000000000000000000, 0.000000000000000000 ) ) ;
#13 = PRODUCT_DEFINITION_CONTEXT ( 'detailed design', #139, 'design' ) ;
#14 =( LENGTH_UNIT ( ) NAMED_UNIT ( * ) SI_UNIT ( .MILLI., .METRE. ) );
#15 = FILL_AREA_STYLE ('',( #112 ) ) ;
#16 = CIRCLE ( 'NONE', #172, 10.14999999999999858 ) ;
#17 = ADVANCED_FACE ( 'NONE', ( #122 ), #118, .F. ) ;
#18 = ORIENTED_EDGE ( 'NONE', *, *, #156, .T. ) ;
#19 =( NAMED_UNIT ( * ) PLANE_ANGLE_UNIT ( ) SI_UNIT ( $, .RADIAN. ) );
#20 = APPLICATION_PROTOCOL_DEFINITION ( 'draft international standard', 'automotive_design', 1998, #139 ) ;
#21 = TOROIDAL_SURFACE ( 'NONE', #189, 10.14999999999999858, 0.5999999999999999778 ) ;
#22 = DIRECTION ( 'NONE',  ( 1.000000000000000000, -0.000000000000000000, 1.224646799147353207E-16 ) ) ;
#23 = SURFACE_STYLE_USAGE ( .BOTH. , #226 ) ;
#24 = CARTESIAN_POINT ( 'NONE',  ( 0.000000000000000000, 0.000000000000000000, 0.000000000000000000 ) ) ;
#25 = AXIS2_PLACEMENT_3D ( 'NONE', #180, #129, #124 ) ;
#26 = ORIENTED_EDGE ( 'NONE', *, *, #146, .T. ) ;
#27 = PRODUCT_RELATED_PRODUCT_CATEGORY ( 'part', '', ( #119 ) ) ;
#28 = CARTESIAN_POINT ( 'NONE',  ( 0.000000000000000000, 0.6000000000000033085, 10.14999999999999858 ) ) ;
#29 = CARTESIAN_POINT ( 'NONE',  ( 0.000000000000000000, 0.000000000000000000, 10.14999999999999858 ) ) ;
#30 = AXIS2_PLACEMENT_3D ( 'NONE', #181, #71, #56 ) ;
#31 = PRODUCT_DEFINITION_FORMATION_WITH_SPECIFIED_SOURCE ( 'Symmetric', '', #119, .NOT_KNOWN. ) ;
#32 = DIRECTION ( 'NONE',  ( 0.000000000000000000, 1.000000000000000000, 0.000000000000000000 ) ) ;
#33 = CARTESIAN_POINT ( 'NONE',  ( 0.000000000000000000, 70.09999999999999432, 0.000000000000000000 ) ) ;
#34 = DIRECTION ( 'NONE',  ( 0.000000000000000000, 1.000000000000000000, 0.000000000000000000 ) ) ;
#35 =( GEOMETRIC_REPRESENTATION_CONTEXT ( 3 ) GLOBAL_UNCERTAINTY_ASSIGNED_CONTEXT ( ( #106 ) ) GLOBAL_UNIT_ASSIGNED_CONTEXT ( ( #14, #96, #187 ) ) REPRESENTATION_CONTEXT ( 'NONE', 'WORKASPACE' ) );
#36 = AXIS2_PLACEMENT_3D ( 'NONE', #228, #213, #104 ) ;
#37 = PLANE ( 'NONE',  #10 ) ;
#38 = EDGE_CURVE ( 'NONE', #58, #141, #182, .T. ) ;
#39 = EDGE_LOOP ( 'NONE', ( #161, #133 ) ) ;
#40 = ORIENTED_EDGE ( 'NONE', *, *, #88, .F. ) ;
#41 = EDGE_CURVE ( 'NONE', #100, #206, #192, .T. ) ;
#42 = CIRCLE ( 'NONE', #57, 0.5999999999999998668 ) ;
#43 = DIRECTION ( 'NONE',  ( 0.000000000000000000, -0.000000000000000000, 1.000000000000000000 ) ) ;
#44 = EDGE_CURVE ( 'NONE', #173, #206, #125, .T. ) ;
#45 = ORIENTED_EDGE ( 'NONE', *, *, #231, .T. ) ;
#46 = ORIENTED_EDGE ( 'NONE', *, *, #235, .F. ) ;
#47 = FILL_AREA_STYLE_COLOUR ( '', #2 ) ;
#48 =( GEOMETRIC_REPRESENTATION_CONTEXT ( 3 ) GLOBAL_UNCERTAINTY_ASSIGNED_CONTEXT ( ( #128 ) ) GLOBAL_UNIT_ASSIGNED_CONTEXT ( ( #62, #3, #101 ) ) REPRESENTATION_CONTEXT ( 'NONE', 'WORKASPACE' ) );
#49 = CARTESIAN_POINT ( 'NONE',  ( 0.000000000000000000, 70.70000000000000284, 10.14999999999999858 ) ) ;
#50 = FACE_OUTER_BOUND ( 'NONE', #219, .T. ) ;
#51 = EDGE_CURVE ( 'NONE', #1, #141, #59, .T. ) ;
#52 = DIRECTION ( 'NONE',  ( -0.000000000000000000, -1.000000000000000000, -0.000000000000000000 ) ) ;
#53 = DIRECTION ( 'NONE',  ( 0.000000000000000000, 0.000000000000000000, 1.000000000000000000 ) ) ;
#54 = UNCERTAINTY_MEASURE_WITH_UNIT (LENGTH_MEASURE( 1.000000000000000082E-05 ), #234, 'distance_accuracy_value', 'NONE');
#55 = CARTESIAN_POINT ( 'NONE',  ( 0.000000000000000000, 70.70000000000000284, 0.000000000000000000 ) ) ;
#56 = DIRECTION ( 'NONE',  ( 0.000000000000000000, 0.000000000000000000, 1.000000000000000000 ) ) ;
#57 = AXIS2_PLACEMENT_3D ( 'NONE', #11, #144, #150 ) ;
#58 = VERTEX_POINT ( 'NONE', #68 ) ;
#59 = CIRCLE ( 'NONE', #202, 10.14999999999999858 ) ;
#60 = EDGE_LOOP ( 'NONE', ( #18, #243, #162, #46 ) ) ;
#61 = ORIENTED_EDGE ( 'NONE', *, *, #235, .T. ) ;
#62 =( LENGTH_UNIT ( ) NAMED_UNIT ( * ) SI_UNIT ( .MILLI., .METRE. ) );
#63 = DIRECTION ( 'NONE',  ( 0.000000000000000000, 1.000000000000000000, 0.000000000000000000 ) ) ;
#64 = AXIS2_PLACEMENT_3D ( 'NONE', #55, #108, #123 ) ;
#65 = DIRECTION ( 'NONE',  ( 0.000000000000000000, 1.000000000000000000, 0.000000000000000000 ) ) ;
#66 = MANIFOLD_SOLID_BREP ( 'Fillet1', #167 ) ;
#67 = CYLINDRICAL_SURFACE ( 'NONE', #76, 10.75000000000000000 ) ;
#68 = CARTESIAN_POINT ( 'NONE',  ( 0.000000000000000000, 70.09999999999999432, -10.75000000000000000 ) ) ;
#69 = TOROIDAL_SURFACE ( 'NONE', #79, 10.14999999999999858, 0.5999999999999999778 ) ;
#70 = CARTESIAN_POINT ( 'NONE',  ( 1.243016501134563489E-15, 0.6000000000000033085, -10.14999999999999858 ) ) ;
#71 = DIRECTION ( 'NONE',  ( -0.000000000000000000, -1.000000000000000000, -0.000000000000000000 ) ) ;
#72 = ADVANCED_FACE ( 'NONE', ( #175 ), #67, .T. ) ;
#73 = FACE_OUTER_BOUND ( 'NONE', #135, .T. ) ;
#74 = PRODUCT_DEFINITION ( 'General', '', #31, #13 ) ;
#75 = DIRECTION ( 'NONE',  ( 1.224646799147353207E-16, 0.000000000000000000, -1.000000000000000000 ) ) ;
#76 = AXIS2_PLACEMENT_3D ( 'NONE', #211, #165, #91 ) ;
#77 = SURFACE_STYLE_USAGE ( .BOTH. , #153 ) ;
#78 = PRESENTATION_STYLE_ASSIGNMENT (( #77 ) ) ;
#79 = AXIS2_PLACEMENT_3D ( 'NONE', #7, #179, #9 ) ;
#80 = ORIENTED_EDGE ( 'NONE', *, *, #95, .F. ) ;
#81 = CARTESIAN_POINT ( 'NONE',  ( 1.243016501134563489E-15, 70.09999999999999432, -10.14999999999999858 ) ) ;
#82 = DIRECTION ( 'NONE',  ( 1.224646799147353207E-16, 0.000000000000000000, -1.000000000000000000 ) ) ;
#83 = AXIS2_PLACEMENT_3D ( 'NONE', #81, #22, #82 ) ;
#84 = ORIENTED_EDGE ( 'NONE', *, *, #41, .T. ) ;
#85 = ORIENTED_EDGE ( 'NONE', *, *, #41, .F. ) ;
#86 = ORIENTED_EDGE ( 'NONE', *, *, #240, .F. ) ;
#87 = AXIS2_PLACEMENT_3D ( 'NONE', #24, #103, #43 ) ;
#88 = EDGE_CURVE ( 'NONE', #206, #100, #163, .T. ) ;
#89 = CARTESIAN_POINT ( 'NONE',  ( 1.316495309083404618E-15, 70.70000000000000284, 10.75000000000000000 ) ) ;
#90 = DIRECTION ( 'NONE',  ( 0.000000000000000000, 0.000000000000000000, 1.000000000000000000 ) ) ;
#91 = DIRECTION ( 'NONE',  ( 0.000000000000000000, 0.000000000000000000, -1.000000000000000000 ) ) ;
#92 = AXIS2_PLACEMENT_3D ( 'NONE', #195, #34, #199 ) ;
#93 = DIRECTION ( 'NONE',  ( -0.000000000000000000, -1.000000000000000000, -0.000000000000000000 ) ) ;
#94 = DIRECTION ( 'NONE',  ( 0.000000000000000000, -0.000000000000000000, 1.000000000000000000 ) ) ;
#95 = EDGE_CURVE ( 'NONE', #212, #1, #42, .T. ) ;
#96 =( NAMED_UNIT ( * ) PLANE_ANGLE_UNIT ( ) SI_UNIT ( $, .RADIAN. ) );
#97 = ADVANCED_BREP_SHAPE_REPRESENTATION ( 'Cell_21700', ( #66, #215 ), #35 ) ;
#98 = ADVANCED_FACE ( 'NONE', ( #109 ), #69, .T. ) ;
#99 = AXIS2_PLACEMENT_3D ( 'NONE', #209, #102, #194 ) ;
#100 = VERTEX_POINT ( 'NONE', #200 ) ;
#101 =( NAMED_UNIT ( * ) SI_UNIT ( $, .STERADIAN. ) SOLID_ANGLE_UNIT ( ) );
#102 = DIRECTION ( 'NONE',  ( 0.000000000000000000, 1.000000000000000000, 0.000000000000000000 ) ) ;
#103 = DIRECTION ( 'NONE',  ( 0.000000000000000000, 1.000000000000000000, 0.000000000000000000 ) ) ;
#104 = DIRECTION ( 'NONE',  ( 0.000000000000000000, 0.000000000000000000, 1.000000000000000000 ) ) ;
#105 = AXIS2_PLACEMENT_3D ( 'NONE', #168, #230, #166 ) ;
#106 = UNCERTAINTY_MEASURE_WITH_UNIT (LENGTH_MEASURE( 1.000000000000000082E-05 ), #14, 'distance_accuracy_value', 'NONE');
#107 = CARTESIAN_POINT ( 'NONE',  ( 1.279755905108984152E-15, 0.000000000000000000, -10.14999999999999858 ) ) ;
#108 = DIRECTION ( 'NONE',  ( -0.000000000000000000, -1.000000000000000000, -0.000000000000000000 ) ) ;
#109 = FACE_OUTER_BOUND ( 'NONE', #177, .T. ) ;
#110 = CARTESIAN_POINT ( 'NONE',  ( 0.000000000000000000, 70.70000000000000284, 0.000000000000000000 ) ) ;
#111 = EDGE_CURVE ( 'NONE', #212, #58, #208, .T. ) ;
#112 = FILL_AREA_STYLE_COLOUR ( '', #6 ) ;
#113 = VERTEX_POINT ( 'NONE', #107 ) ;
#114 = ORIENTED_EDGE ( 'NONE', *, *, #38, .T. ) ;
#115 = TOROIDAL_SURFACE ( 'NONE', #92, 10.14999999999999858, 0.5999999999999999778 ) ;
#116 = ORIENTED_EDGE ( 'NONE', *, *, #154, .T. ) ;
#117 = ORIENTED_EDGE ( 'NONE', *, *, #111, .F. ) ;
#118 = PLANE ( 'NONE',  #87 ) ;
#119 = PRODUCT ( 'Cell_21700', 'Cell_21700', '', ( #169 ) ) ;
#120 = DIRECTION ( 'NONE',  ( 0.000000000000000000, 0.000000000000000000, 1.000000000000000000 ) ) ;
#121 = AXIS2_PLACEMENT_3D ( 'NONE', #33, #149, #145 ) ;
#122 = FACE_OUTER_BOUND ( 'NONE', #137, .T. ) ;
#123 = DIRECTION ( 'NONE',  ( 0.000000000000000000, 0.000000000000000000, -1.000000000000000000 ) ) ;
#124 = DIRECTION ( 'NONE',  ( 0.000000000000000000, 0.000000000000000000, 1.000000000000000000 ) ) ;
#125 = CIRCLE ( 'NONE', #176, 0.5999999999999998668 ) ;
#126 = CARTESIAN_POINT ( 'NONE',  ( 0.000000000000000000, 0.6000000000000033085, 0.000000000000000000 ) ) ;
#127 = DIRECTION ( 'NONE',  ( 1.000000000000000000, -0.000000000000000000, 1.224646799147353207E-16 ) ) ;
#128 = UNCERTAINTY_MEASURE_WITH_UNIT (LENGTH_MEASURE( 1.000000000000000082E-05 ), #62, 'distance_accuracy_value', 'NONE');
#129 = DIRECTION ( 'NONE',  ( -0.000000000000000000, -1.000000000000000000, -0.000000000000000000 ) ) ;
#130 = STYLED_ITEM ( 'NONE', ( #78 ), #97 ) ;
#131 = ORIENTED_EDGE ( 'NONE', *, *, #154, .F. ) ;
#132 = EDGE_CURVE ( 'NONE', #212, #206, #164, .T. ) ;
#133 = ORIENTED_EDGE ( 'NONE', *, *, #240, .T. ) ;
#134 = APPLICATION_PROTOCOL_DEFINITION ( 'draft international standard', 'automotive_design', 1998, #159 ) ;
#135 = EDGE_LOOP ( 'NONE', ( #186, #178, #61, #84 ) ) ;
#136 = VECTOR ( 'NONE', #93, 1000.000000000000000 ) ;
#137 = EDGE_LOOP ( 'NONE', ( #45, #26 ) ) ;
#138 = ADVANCED_FACE ( 'NONE', ( #50 ), #115, .T. ) ;
#139 = APPLICATION_CONTEXT ( 'automotive_design' ) ;
#140 = ORIENTED_EDGE ( 'NONE', *, *, #51, .F. ) ;
#141 = VERTEX_POINT ( 'NONE', #233 ) ;
#142 = PRESENTATION_STYLE_ASSIGNMENT (( #23 ) ) ;
#143 = PRESENTATION_LAYER_ASSIGNMENT (  '', '', ( #148 ) ) ;
#144 = DIRECTION ( 'NONE',  ( -1.000000000000000000, 0.000000000000000000, 0.000000000000000000 ) ) ;
#145 = DIRECTION ( 'NONE',  ( 0.000000000000000000, 0.000000000000000000, 1.000000000000000000 ) ) ;
#146 = EDGE_CURVE ( 'NONE', #113, #173, #232, .T. ) ;
#147 = CARTESIAN_POINT ( 'NONE',  ( 1.316495309083404618E-15, 0.6000000000000033085, 10.75000000000000000 ) ) ;
#148 = STYLED_ITEM ( 'NONE', ( #142 ), #66 ) ;
#149 = DIRECTION ( 'NONE',  ( 0.000000000000000000, 1.000000000000000000, 0.000000000000000000 ) ) ;
#150 = DIRECTION ( 'NONE',  ( 0.000000000000000000, 0.000000000000000000, 1.000000000000000000 ) ) ;
#151 = DIRECTION ( 'NONE',  ( 0.000000000000000000, 0.000000000000000000, 1.000000000000000000 ) ) ;
#152 = CIRCLE ( 'NONE', #36, 10.14999999999999858 ) ;
#153 = SURFACE_SIDE_STYLE ('',( #238 ) ) ;
#154 = EDGE_CURVE ( 'NONE', #113, #100, #242, .T. ) ;
#155 = AXIS2_PLACEMENT_3D ( 'NONE', #70, #127, #75 ) ;
#156 = EDGE_CURVE ( 'NONE', #58, #212, #236, .T. ) ;
#157 = SURFACE_STYLE_FILL_AREA ( #193 ) ;
#158 = DIRECTION ( 'NONE',  ( 0.000000000000000000, 0.000000000000000000, 1.000000000000000000 ) ) ;
#159 = APPLICATION_CONTEXT ( 'automotive_design' ) ;
#160 = PRODUCT_DEFINITION_SHAPE ( 'NONE', 'NONE',  #74 ) ;
#161 = ORIENTED_EDGE ( 'NONE', *, *, #51, .T. ) ;
#162 = ORIENTED_EDGE ( 'NONE', *, *, #88, .T. ) ;
#163 = CIRCLE ( 'NONE', #218, 10.75000000000000000 ) ;
#164 = LINE ( 'NONE', #89, #136 ) ;
#165 = DIRECTION ( 'NONE',  ( -0.000000000000000000, -1.000000000000000000, -0.000000000000000000 ) ) ;
#166 = DIRECTION ( 'NONE',  ( 0.000000000000000000, 0.000000000000000000, 1.000000000000000000 ) ) ;
#167 = CLOSED_SHELL ( 'NONE', ( #98, #4, #72, #196, #223, #17, #138, #174 ) ) ;
#168 = CARTESIAN_POINT ( 'NONE',  ( 0.000000000000000000, 0.000000000000000000, 0.000000000000000000 ) ) ;
#169 = PRODUCT_CONTEXT ( 'NONE', #159, 'mechanical' ) ;
#170 = CARTESIAN_POINT ( 'NONE',  ( 0.000000000000000000, 0.000000000000000000, 0.000000000000000000 ) ) ;
#171 = PRESENTATION_LAYER_ASSIGNMENT (  '', '', ( #130 ) ) ;
#172 = AXIS2_PLACEMENT_3D ( 'NONE', #198, #32, #53 ) ;
#173 = VERTEX_POINT ( 'NONE', #29 ) ;
#174 = ADVANCED_FACE ( 'NONE', ( #8 ), #222, .T. ) ;
#175 = FACE_OUTER_BOUND ( 'NONE', #60, .T. ) ;
#176 = AXIS2_PLACEMENT_3D ( 'NONE', #28, #225, #120 ) ;
#177 = EDGE_LOOP ( 'NONE', ( #239, #114, #140, #80 ) ) ;
#178 = ORIENTED_EDGE ( 'NONE', *, *, #111, .T. ) ;
#179 = DIRECTION ( 'NONE',  ( 0.000000000000000000, 1.000000000000000000, 0.000000000000000000 ) ) ;
#180 = CARTESIAN_POINT ( 'NONE',  ( 0.000000000000000000, 70.09999999999999432, 0.000000000000000000 ) ) ;
#181 = CARTESIAN_POINT ( 'NONE',  ( 0.000000000000000000, 70.09999999999999432, 0.000000000000000000 ) ) ;
#182 = CIRCLE ( 'NONE', #83, 0.5999999999999998668 ) ;
#183 = FACE_OUTER_BOUND ( 'NONE', #39, .T. ) ;
#184 = ORIENTED_EDGE ( 'NONE', *, *, #44, .T. ) ;
#185 =( GEOMETRIC_REPRESENTATION_CONTEXT ( 3 ) GLOBAL_UNCERTAINTY_ASSIGNED_CONTEXT ( ( #54 ) ) GLOBAL_UNIT_ASSIGNED_CONTEXT ( ( #234, #19, #205 ) ) REPRESENTATION_CONTEXT ( 'NONE', 'WORKASPACE' ) );
#186 = ORIENTED_EDGE ( 'NONE', *, *, #132, .F. ) ;
#187 =( NAMED_UNIT ( * ) SI_UNIT ( $, .STERADIAN. ) SOLID_ANGLE_UNIT ( ) );
#188 = DIRECTION ( 'NONE',  ( 1.000000000000000000, 0.000000000000000000, 0.000000000000000000 ) ) ;
#189 = AXIS2_PLACEMENT_3D ( 'NONE', #191, #63, #158 ) ;
#190 = DIRECTION ( 'NONE',  ( 0.000000000000000000, 0.000000000000000000, 1.000000000000000000 ) ) ;
#191 = CARTESIAN_POINT ( 'NONE',  ( 0.000000000000000000, 0.6000000000000033085, 0.000000000000000000 ) ) ;
#192 = CIRCLE ( 'NONE', #99, 10.75000000000000000 ) ;
#193 = FILL_AREA_STYLE ('',( #47 ) ) ;
#194 = DIRECTION ( 'NONE',  ( 0.000000000000000000, 0.000000000000000000, 1.000000000000000000 ) ) ;
#195 = CARTESIAN_POINT ( 'NONE',  ( 0.000000000000000000, 0.6000000000000033085, 0.000000000000000000 ) ) ;
#196 = ADVANCED_FACE ( 'NONE', ( #73 ), #217, .T. ) ;
#197 = MECHANICAL_DESIGN_GEOMETRIC_PRESENTATION_REPRESENTATION (  '', ( #130 ), #185 ) ;
#198 = CARTESIAN_POINT ( 'NONE',  ( 0.000000000000000000, 70.70000000000000284, 0.000000000000000000 ) ) ;
#199 = DIRECTION ( 'NONE',  ( 0.000000000000000000, 0.000000000000000000, 1.000000000000000000 ) ) ;
#200 = CARTESIAN_POINT ( 'NONE',  ( 0.000000000000000000, 0.6000000000000033085, -10.75000000000000000 ) ) ;
#201 = CARTESIAN_POINT ( 'NONE',  ( 1.316495309083404618E-15, 70.09999999999999432, 10.75000000000000000 ) ) ;
#202 = AXIS2_PLACEMENT_3D ( 'NONE', #224, #65, #190 ) ;
#203 = ORIENTED_EDGE ( 'NONE', *, *, #44, .F. ) ;
#204 = VECTOR ( 'NONE', #52, 1000.000000000000000 ) ;
#205 =( NAMED_UNIT ( * ) SI_UNIT ( $, .STERADIAN. ) SOLID_ANGLE_UNIT ( ) );
#206 = VERTEX_POINT ( 'NONE', #147 ) ;
#207 = EDGE_LOOP ( 'NONE', ( #237, #117, #244, #86 ) ) ;
#208 = CIRCLE ( 'NONE', #30, 10.75000000000000000 ) ;
#209 = CARTESIAN_POINT ( 'NONE',  ( 0.000000000000000000, 0.6000000000000033085, 0.000000000000000000 ) ) ;
#210 = FACE_OUTER_BOUND ( 'NONE', #221, .T. ) ;
#211 = CARTESIAN_POINT ( 'NONE',  ( 0.000000000000000000, 70.70000000000000284, 0.000000000000000000 ) ) ;
#212 = VERTEX_POINT ( 'NONE', #201 ) ;
#213 = DIRECTION ( 'NONE',  ( -0.000000000000000000, -1.000000000000000000, -0.000000000000000000 ) ) ;
#214 = CARTESIAN_POINT ( 'NONE',  ( 0.000000000000000000, 70.70000000000000284, -10.75000000000000000 ) ) ;
#215 = AXIS2_PLACEMENT_3D ( 'NONE', #170, #151, #188 ) ;
#216 = LINE ( 'NONE', #214, #204 ) ;
#217 = CYLINDRICAL_SURFACE ( 'NONE', #64, 10.75000000000000000 ) ;
#218 = AXIS2_PLACEMENT_3D ( 'NONE', #126, #229, #90 ) ;
#219 = EDGE_LOOP ( 'NONE', ( #131, #5, #184, #85 ) ) ;
#220 = ORIENTED_EDGE ( 'NONE', *, *, #146, .F. ) ;
#221 = EDGE_LOOP ( 'NONE', ( #220, #116, #40, #203 ) ) ;
#222 = TOROIDAL_SURFACE ( 'NONE', #121, 10.14999999999999858, 0.5999999999999999778 ) ;
#223 = ADVANCED_FACE ( 'NONE', ( #183 ), #37, .T. ) ;
#224 = CARTESIAN_POINT ( 'NONE',  ( 0.000000000000000000, 70.70000000000000284, 0.000000000000000000 ) ) ;
#225 = DIRECTION ( 'NONE',  ( -1.000000000000000000, 0.000000000000000000, 0.000000000000000000 ) ) ;
#226 = SURFACE_SIDE_STYLE ('',( #157 ) ) ;
#227 = MECHANICAL_DESIGN_GEOMETRIC_PRESENTATION_REPRESENTATION (  '', ( #148 ), #48 ) ;
#228 = CARTESIAN_POINT ( 'NONE',  ( 0.000000000000000000, 0.000000000000000000, 0.000000000000000000 ) ) ;
#229 = DIRECTION ( 'NONE',  ( 0.000000000000000000, 1.000000000000000000, 0.000000000000000000 ) ) ;
#230 = DIRECTION ( 'NONE',  ( -0.000000000000000000, -1.000000000000000000, -0.000000000000000000 ) ) ;
#231 = EDGE_CURVE ( 'NONE', #173, #113, #152, .T. ) ;
#232 = CIRCLE ( 'NONE', #105, 10.14999999999999858 ) ;
#233 = CARTESIAN_POINT ( 'NONE',  ( 1.279755905108984152E-15, 70.70000000000000284, -10.14999999999999858 ) ) ;
#234 =( LENGTH_UNIT ( ) NAMED_UNIT ( * ) SI_UNIT ( .MILLI., .METRE. ) );
#235 = EDGE_CURVE ( 'NONE', #58, #100, #216, .T. ) ;
#236 = CIRCLE ( 'NONE', #25, 10.75000000000000000 ) ;
#237 = ORIENTED_EDGE ( 'NONE', *, *, #38, .F. ) ;
#238 = SURFACE_STYLE_FILL_AREA ( #15 ) ;
#239 = ORIENTED_EDGE ( 'NONE', *, *, #156, .F. ) ;
#240 = EDGE_CURVE ( 'NONE', #141, #1, #16, .T. ) ;
#241 = SHAPE_DEFINITION_REPRESENTATION ( #160, #97 ) ;
#242 = CIRCLE ( 'NONE', #155, 0.5999999999999998668 ) ;
#243 = ORIENTED_EDGE ( 'NONE', *, *, #132, .T. ) ;
#244 = ORIENTED_EDGE ( 'NONE', *, *, #95, .T. ) ;
ENDSEC;
END-ISO-10303-21;
