ISO-10303-21;
HEADER;
FILE_DESCRIPTION (( 'STEP AP214' ),
    '1' );
FILE_NAME ('magnetic pogo pin connector.STEP',
    '2026-08-21T20:26:05',
    ( '' ),
    ( '' ),
    'SwSTEP 2.0',
    'SolidWorks 2025',
    '' );
FILE_SCHEMA (( 'AUTOMOTIVE_DESIGN' ));
ENDSEC;

DATA;
#1 = CARTESIAN_POINT ( 'NONE',  ( -3.287360384319338191, -3.000000000000000000, 0.7988639213507405801 ) ) ;
#2 = DIRECTION ( 'NONE',  ( 0.000000000000000000, 0.000000000000000000, -1.000000000000000000 ) ) ;
#3 = EDGE_CURVE ( 'NONE', #443, #738, #47, .T. ) ;
#4 = ORIENTED_EDGE ( 'NONE', *, *, #756, .T. ) ;
#5 = DIRECTION ( 'NONE',  ( -0.000000000000000000, -1.000000000000000000, -0.000000000000000000 ) ) ;
#6 = AXIS2_PLACEMENT_3D ( 'NONE', #399, #805, #658 ) ;
#7 = DIRECTION ( 'NONE',  ( -1.000000000000000000, 0.000000000000000000, -0.000000000000000000 ) ) ;
#8 = DIRECTION ( 'NONE',  ( -0.000000000000000000, 1.000000000000000000, -0.000000000000000000 ) ) ;
#9 = ORIENTED_EDGE ( 'NONE', *, *, #53, .T. ) ;
#10 = PRESENTATION_LAYER_ASSIGNMENT (  '', '', ( #879 ) ) ;
#11 = AXIS2_PLACEMENT_3D ( 'NONE', #212, #281, #758 ) ;
#12 =( LENGTH_UNIT ( ) NAMED_UNIT ( * ) SI_UNIT ( .MILLI., .METRE. ) );
#13 = CARTESIAN_POINT ( 'NONE',  ( 0.000000000000000000, 3.039487399202079706E-16, -5.000000000000000000 ) ) ;
#14 = VERTEX_POINT ( 'NONE', #456 ) ;
#15 = CARTESIAN_POINT ( 'NONE',  ( 0.000000000000000000, 1.199999999999999956, 0.000000000000000000 ) ) ;
#16 = EDGE_CURVE ( 'NONE', #140, #672, #531, .T. ) ;
#17 = CARTESIAN_POINT ( 'NONE',  ( 0.000000000000000000, 0.000000000000000000, 0.000000000000000000 ) ) ;
#18 = ADVANCED_FACE ( 'NONE', ( #40 ), #395, .F. ) ;
#19 = CARTESIAN_POINT ( 'NONE',  ( 6.123233995736765296E-16, 5.150000000000000355, 4.999999999999999112 ) ) ;
#20 = ORIENTED_EDGE ( 'NONE', *, *, #53, .F. ) ;
#21 = CLOSED_SHELL ( 'NONE', ( #608, #585, #625, #688, #428, #359, #397, #580, #154, #728, #840, #742, #166, #123, #570, #190, #863, #773, #114, #636, #18, #274, #807, #661, #455, #169, #670, #474, #379 ) ) ;
#22 = AXIS2_PLACEMENT_3D ( 'NONE', #872, #727, #43 ) ;
#23 =( NAMED_UNIT ( * ) PLANE_ANGLE_UNIT ( ) SI_UNIT ( $, .RADIAN. ) );
#24 = ORIENTED_EDGE ( 'NONE', *, *, #302, .T. ) ;
#25 = DIRECTION ( 'NONE',  ( -0.000000000000000000, 1.000000000000000000, -0.000000000000000000 ) ) ;
#26 = COLOUR_RGB ( '',0.8980392156862745390, 0.9176470588235293713, 0.9294117647058823817 ) ;
#27 = LINE ( 'NONE', #175, #648 ) ;
#28 = EDGE_CURVE ( 'NONE', #148, #414, #31, .T. ) ;
#29 = ORIENTED_EDGE ( 'NONE', *, *, #16, .T. ) ;
#30 = CARTESIAN_POINT ( 'NONE',  ( 0.000000000000000000, 6.078974798404159411E-16, 0.000000000000000000 ) ) ;
#31 = LINE ( 'NONE', #870, #659 ) ;
#32 = VERTEX_POINT ( 'NONE', #332 ) ;
#33 = PRODUCT_RELATED_PRODUCT_CATEGORY ( 'part', '', ( #892 ) ) ;
#34 = FILL_AREA_STYLE ('',( #657 ) ) ;
#35 = MECHANICAL_DESIGN_GEOMETRIC_PRESENTATION_REPRESENTATION (  '', ( #861 ), #418 ) ;
#36 = CARTESIAN_POINT ( 'NONE',  ( 0.000000000000000000, 1.300000000000000044, 0.000000000000000000 ) ) ;
#37 = ORIENTED_EDGE ( 'NONE', *, *, #236, .F. ) ;
#38 = AXIS2_PLACEMENT_3D ( 'NONE', #352, #886, #482 ) ;
#39 = CARTESIAN_POINT ( 'NONE',  ( 3.287360384319338191, 0.000000000000000000, 0.7988639213507419123 ) ) ;
#40 = FACE_OUTER_BOUND ( 'NONE', #176, .T. ) ;
#41 = UNCERTAINTY_MEASURE_WITH_UNIT (LENGTH_MEASURE( 1.000000000000000082E-05 ), #772, 'distance_accuracy_value', 'NONE');
#42 = VERTEX_POINT ( 'NONE', #112 ) ;
#43 = DIRECTION ( 'NONE',  ( 0.000000000000000000, 0.000000000000000000, -1.000000000000000000 ) ) ;
#44 = DIRECTION ( 'NONE',  ( -0.000000000000000000, -0.000000000000000000, 1.000000000000000000 ) ) ;
#45 = EDGE_LOOP ( 'NONE', ( #740, #189, #898, #347 ) ) ;
#46 = CIRCLE ( 'NONE', #139, 5.000000000000000000 ) ;
#47 = LINE ( 'NONE', #788, #227 ) ;
#48 = ORIENTED_EDGE ( 'NONE', *, *, #218, .T. ) ;
#49 = FILL_AREA_STYLE ('',( #766 ) ) ;
#50 = PRESENTATION_LAYER_ASSIGNMENT (  '', '', ( #335 ) ) ;
#51 = DIRECTION ( 'NONE',  ( 0.000000000000000000, 0.000000000000000000, 1.000000000000000000 ) ) ;
#52 = DIRECTION ( 'NONE',  ( -0.000000000000000000, -0.000000000000000000, 1.000000000000000000 ) ) ;
#53 = EDGE_CURVE ( 'NONE', #885, #512, #874, .T. ) ;
#54 = ORIENTED_EDGE ( 'NONE', *, *, #245, .T. ) ;
#55 = EDGE_CURVE ( 'NONE', #298, #308, #284, .T. ) ;
#56 = DIRECTION ( 'NONE',  ( 0.000000000000000000, -0.000000000000000000, 1.000000000000000000 ) ) ;
#57 = SURFACE_STYLE_USAGE ( .BOTH. , #882 ) ;
#58 = PRODUCT_CONTEXT ( 'NONE', #603, 'mechanical' ) ;
#59 = LINE ( 'NONE', #550, #387 ) ;
#60 = ORIENTED_EDGE ( 'NONE', *, *, #260, .F. ) ;
#61 = CYLINDRICAL_SURFACE ( 'NONE', #664, 5.000000000000000000 ) ;
#62 = DIRECTION ( 'NONE',  ( 0.000000000000000000, 1.000000000000000000, 0.000000000000000000 ) ) ;
#63 = CIRCLE ( 'NONE', #800, 4.899999999999999467 ) ;
#64 = EDGE_LOOP ( 'NONE', ( #121, #235, #351, #54 ) ) ;
#65 = PRESENTATION_LAYER_ASSIGNMENT (  '', '', ( #448 ) ) ;
#66 = LINE ( 'NONE', #687, #390 ) ;
#67 = CARTESIAN_POINT ( 'NONE',  ( -3.287360384319338191, 0.000000000000000000, -0.7988639213507405801 ) ) ;
#68 = LINE ( 'NONE', #208, #124 ) ;
#69 = AXIS2_PLACEMENT_3D ( 'NONE', #165, #162, #91 ) ;
#70 = ORIENTED_EDGE ( 'NONE', *, *, #598, .T. ) ;
#71 = DIRECTION ( 'NONE',  ( -0.000000000000000000, 0.000000000000000000, 1.000000000000000000 ) ) ;
#72 = EDGE_CURVE ( 'NONE', #855, #400, #322, .T. ) ;
#73 = CARTESIAN_POINT ( 'NONE',  ( 0.000000000000000000, 1.199999999999999956, -4.899999999999999467 ) ) ;
#74 = ORIENTED_EDGE ( 'NONE', *, *, #355, .T. ) ;
#75 = FACE_OUTER_BOUND ( 'NONE', #131, .T. ) ;
#76 = DIRECTION ( 'NONE',  ( 0.000000000000000000, 0.000000000000000000, -1.000000000000000000 ) ) ;
#77 = DIRECTION ( 'NONE',  ( 0.000000000000000000, 0.000000000000000000, -1.000000000000000000 ) ) ;
#78 = EDGE_LOOP ( 'NONE', ( #542, #871, #29, #396 ) ) ;
#79 = CYLINDRICAL_SURFACE ( 'NONE', #69, 5.000000000000000000 ) ;
#80 = VECTOR ( 'NONE', #626, 1000.000000000000000 ) ;
#81 = DIRECTION ( 'NONE',  ( 0.000000000000000000, -1.000000000000000000, 0.000000000000000000 ) ) ;
#82 =( LENGTH_UNIT ( ) NAMED_UNIT ( * ) SI_UNIT ( .MILLI., .METRE. ) );
#83 = ORIENTED_EDGE ( 'NONE', *, *, #325, .F. ) ;
#84 = EDGE_CURVE ( 'NONE', #683, #803, #63, .T. ) ;
#85 = CARTESIAN_POINT ( 'NONE',  ( 0.000000000000000000, 0.000000000000000000, 0.000000000000000000 ) ) ;
#86 = STYLED_ITEM ( 'NONE', ( #674 ), #811 ) ;
#87 = FILL_AREA_STYLE_COLOUR ( '', #26 ) ;
#88 =( NAMED_UNIT ( * ) SI_UNIT ( $, .STERADIAN. ) SOLID_ANGLE_UNIT ( ) );
#89 = ORIENTED_EDGE ( 'NONE', *, *, #440, .T. ) ;
#90 = UNCERTAINTY_MEASURE_WITH_UNIT (LENGTH_MEASURE( 1.000000000000000082E-05 ), #521, 'distance_accuracy_value', 'NONE');
#91 = DIRECTION ( 'NONE',  ( 0.000000000000000000, 0.000000000000000000, -1.000000000000000000 ) ) ;
#92 = CARTESIAN_POINT ( 'NONE',  ( 0.000000000000000000, -3.000000000000000000, 0.000000000000000000 ) ) ;
#93 = VERTEX_POINT ( 'NONE', #180 ) ;
#94 = VECTOR ( 'NONE', #792, 1000.000000000000000 ) ;
#95 = CIRCLE ( 'NONE', #534, 1.000000000000000000 ) ;
#96 = EDGE_CURVE ( 'NONE', #177, #327, #459, .T. ) ;
#97 = FACE_OUTER_BOUND ( 'NONE', #538, .T. ) ;
#98 = ORIENTED_EDGE ( 'NONE', *, *, #220, .F. ) ;
#99 =( NAMED_UNIT ( * ) PLANE_ANGLE_UNIT ( ) SI_UNIT ( $, .RADIAN. ) );
#100 =( GEOMETRIC_REPRESENTATION_CONTEXT ( 3 ) GLOBAL_UNCERTAINTY_ASSIGNED_CONTEXT ( ( #309 ) ) GLOBAL_UNIT_ASSIGNED_CONTEXT ( ( #421, #891, #694 ) ) REPRESENTATION_CONTEXT ( 'NONE', 'WORKASPACE' ) );
#101 = CIRCLE ( 'NONE', #789, 0.8812353757577282565 ) ;
#102 = DIRECTION ( 'NONE',  ( -0.000000000000000000, -0.000000000000000000, 1.000000000000000000 ) ) ;
#103 = EDGE_CURVE ( 'NONE', #672, #738, #488, .T. ) ;
#104 = CARTESIAN_POINT ( 'NONE',  ( 0.000000000000000000, 0.000000000000000000, -1.000000000000000000 ) ) ;
#105 = VERTEX_POINT ( 'NONE', #801 ) ;
#106 = DIRECTION ( 'NONE',  ( -0.000000000000000000, -1.000000000000000000, -0.000000000000000000 ) ) ;
#107 = CARTESIAN_POINT ( 'NONE',  ( -3.287360384319338191, -3.000000000000000000, 0.7988639213507405801 ) ) ;
#108 = ORIENTED_EDGE ( 'NONE', *, *, #325, .T. ) ;
#109 = AXIS2_PLACEMENT_3D ( 'NONE', #92, #571, #297 ) ;
#110 = CARTESIAN_POINT ( 'NONE',  ( 0.000000000000000000, 1.300000000000000044, -5.000000000000000000 ) ) ;
#111 = CIRCLE ( 'NONE', #109, 0.8812353757577282565 ) ;
#112 = CARTESIAN_POINT ( 'NONE',  ( -2.353026634888288005, 0.000000000000000000, -0.7988639213507416903 ) ) ;
#113 = ORIENTED_EDGE ( 'NONE', *, *, #596, .T. ) ;
#114 = ADVANCED_FACE ( 'NONE', ( #737 ), #468, .F. ) ;
#115 = VECTOR ( 'NONE', #753, 1000.000000000000000 ) ;
#116 = DIRECTION ( 'NONE',  ( 0.000000000000000000, 0.000000000000000000, -1.000000000000000000 ) ) ;
#117 = DIRECTION ( 'NONE',  ( -0.000000000000000000, -1.000000000000000000, -0.000000000000000000 ) ) ;
#118 = ORIENTED_EDGE ( 'NONE', *, *, #517, .F. ) ;
#119 = FACE_OUTER_BOUND ( 'NONE', #721, .T. ) ;
#120 = DIRECTION ( 'NONE',  ( 0.000000000000000000, 0.000000000000000000, -1.000000000000000000 ) ) ;
#121 = ORIENTED_EDGE ( 'NONE', *, *, #331, .T. ) ;
#122 = DIRECTION ( 'NONE',  ( 0.000000000000000000, 0.000000000000000000, -1.000000000000000000 ) ) ;
#123 = ADVANCED_FACE ( 'NONE', ( #242, #602 ), #384, .T. ) ;
#124 = VECTOR ( 'NONE', #677, 1000.000000000000000 ) ;
#125 = CARTESIAN_POINT ( 'NONE',  ( 0.000000000000000000, 0.000000000000000000, 0.000000000000000000 ) ) ;
#126 = VERTEX_POINT ( 'NONE', #515 ) ;
#127 = CARTESIAN_POINT ( 'NONE',  ( 3.287360384319338191, 3.039487399202079706E-16, 0.7988639213507415793 ) ) ;
#128 = CARTESIAN_POINT ( 'NONE',  ( 0.000000000000000000, 6.078974798404159411E-16, 0.000000000000000000 ) ) ;
#129 = EDGE_CURVE ( 'NONE', #465, #222, #605, .T. ) ;
#130 = FACE_OUTER_BOUND ( 'NONE', #64, .T. ) ;
#131 = EDGE_LOOP ( 'NONE', ( #435, #430, #255, #118 ) ) ;
#132 = DIRECTION ( 'NONE',  ( -0.000000000000000000, -1.000000000000000000, -0.000000000000000000 ) ) ;
#133 =( NAMED_UNIT ( * ) SI_UNIT ( $, .STERADIAN. ) SOLID_ANGLE_UNIT ( ) );
#134 = CARTESIAN_POINT ( 'NONE',  ( 0.000000000000000000, 1.199999999999999956, 0.000000000000000000 ) ) ;
#135 = ORIENTED_EDGE ( 'NONE', *, *, #873, .F. ) ;
#136 = LINE ( 'NONE', #549, #477 ) ;
#137 = DIRECTION ( 'NONE',  ( 0.000000000000000000, 0.000000000000000000, -1.000000000000000000 ) ) ;
#138 = CARTESIAN_POINT ( 'NONE',  ( 0.000000000000000000, 5.650000000000000355, 0.000000000000000000 ) ) ;
#139 = AXIS2_PLACEMENT_3D ( 'NONE', #619, #820, #685 ) ;
#140 = VERTEX_POINT ( 'NONE', #188 ) ;
#141 = AXIS2_PLACEMENT_3D ( 'NONE', #13, #778, #514 ) ;
#142 = CARTESIAN_POINT ( 'NONE',  ( 2.353026634888288005, -3.000000000000000000, 0.7988639213507416903 ) ) ;
#143 = EDGE_CURVE ( 'NONE', #746, #714, #317, .T. ) ;
#144 = FACE_OUTER_BOUND ( 'NONE', #168, .T. ) ;
#145 = CIRCLE ( 'NONE', #576, 5.000000000000000000 ) ;
#146 = FACE_OUTER_BOUND ( 'NONE', #78, .T. ) ;
#147 = STYLED_ITEM ( 'NONE', ( #700 ), #728 ) ;
#148 = VERTEX_POINT ( 'NONE', #525 ) ;
#149 = LINE ( 'NONE', #444, #565 ) ;
#150 = PLANE ( 'NONE',  #652 ) ;
#151 = CARTESIAN_POINT ( 'NONE',  ( 0.000000000000000000, 0.000000000000000000, 0.000000000000000000 ) ) ;
#152 = ORIENTED_EDGE ( 'NONE', *, *, #143, .F. ) ;
#153 = DIRECTION ( 'NONE',  ( -0.000000000000000000, -1.000000000000000000, -0.000000000000000000 ) ) ;
#154 = ADVANCED_FACE ( 'NONE', ( #146 ), #204, .F. ) ;
#155 = EDGE_CURVE ( 'NONE', #177, #42, #68, .T. ) ;
#156 = ORIENTED_EDGE ( 'NONE', *, *, #544, .T. ) ;
#157 = PRESENTATION_LAYER_ASSIGNMENT (  '', '', ( #861 ) ) ;
#158 = DIRECTION ( 'NONE',  ( 0.000000000000000000, -1.000000000000000000, 0.000000000000000000 ) ) ;
#159 = DIRECTION ( 'NONE',  ( 0.000000000000000000, -1.000000000000000000, 0.000000000000000000 ) ) ;
#160 = ORIENTED_EDGE ( 'NONE', *, *, #245, .F. ) ;
#161 =( GEOMETRIC_REPRESENTATION_CONTEXT ( 3 ) GLOBAL_UNCERTAINTY_ASSIGNED_CONTEXT ( ( #41 ) ) GLOBAL_UNIT_ASSIGNED_CONTEXT ( ( #772, #295, #845 ) ) REPRESENTATION_CONTEXT ( 'NONE', 'WORKASPACE' ) );
#162 = DIRECTION ( 'NONE',  ( -0.000000000000000000, -1.000000000000000000, -0.000000000000000000 ) ) ;
#163 = FACE_BOUND ( 'NONE', #782, .T. ) ;
#164 = EDGE_LOOP ( 'NONE', ( #644, #631, #735, #757 ) ) ;
#165 = CARTESIAN_POINT ( 'NONE',  ( 0.000000000000000000, 0.000000000000000000, 0.000000000000000000 ) ) ;
#166 = ADVANCED_FACE ( 'NONE', ( #410 ), #346, .T. ) ;
#167 = FILL_AREA_STYLE_COLOUR ( '', #787 ) ;
#168 = EDGE_LOOP ( 'NONE', ( #711, #848, #270, #205 ) ) ;
#169 = ADVANCED_FACE ( 'NONE', ( #130 ), #484, .F. ) ;
#170 =( GEOMETRIC_REPRESENTATION_CONTEXT ( 3 ) GLOBAL_UNCERTAINTY_ASSIGNED_CONTEXT ( ( #844 ) ) GLOBAL_UNIT_ASSIGNED_CONTEXT ( ( #191, #754, #133 ) ) REPRESENTATION_CONTEXT ( 'NONE', 'WORKASPACE' ) );
#171 = CYLINDRICAL_SURFACE ( 'NONE', #286, 0.8812353757577282565 ) ;
#172 = DIRECTION ( 'NONE',  ( -0.000000000000000000, 1.000000000000000000, -0.000000000000000000 ) ) ;
#173 = SURFACE_STYLE_USAGE ( .BOTH. , #883 ) ;
#174 = MECHANICAL_DESIGN_GEOMETRIC_PRESENTATION_REPRESENTATION (  '', ( #879 ), #437 ) ;
#175 = CARTESIAN_POINT ( 'NONE',  ( 4.898587196589412829E-16, 0.000000000000000000, 4.000000000000000000 ) ) ;
#176 = EDGE_LOOP ( 'NONE', ( #794, #319, #564, #496 ) ) ;
#177 = VERTEX_POINT ( 'NONE', #541 ) ;
#178 = CARTESIAN_POINT ( 'NONE',  ( -3.287360384319338191, 0.000000000000000000, -0.7988639213507405801 ) ) ;
#179 = EDGE_CURVE ( 'NONE', #512, #885, #46, .T. ) ;
#180 = CARTESIAN_POINT ( 'NONE',  ( 0.000000000000000000, 6.078974798404159411E-16, -5.000000000000000000 ) ) ;
#181 = PRODUCT_DEFINITION_CONTEXT ( 'detailed design', #528, 'design' ) ;
#182 = ORIENTED_EDGE ( 'NONE', *, *, #195, .T. ) ;
#183 = VECTOR ( 'NONE', #593, 1000.000000000000000 ) ;
#184 = CARTESIAN_POINT ( 'NONE',  ( 2.353026634888288005, 0.000000000000000000, -0.7988639213507416903 ) ) ;
#185 = VECTOR ( 'NONE', #586, 1000.000000000000000 ) ;
#186 = CARTESIAN_POINT ( 'NONE',  ( 0.000000000000000000, 1.300000000000000044, -5.000000000000000000 ) ) ;
#187 = DIRECTION ( 'NONE',  ( 0.000000000000000000, 0.000000000000000000, 1.000000000000000000 ) ) ;
#188 = CARTESIAN_POINT ( 'NONE',  ( 0.000000000000000000, 5.649999999999999467, -1.000000000000000000 ) ) ;
#189 = ORIENTED_EDGE ( 'NONE', *, *, #830, .T. ) ;
#190 = ADVANCED_FACE ( 'NONE', ( #279, #682 ), #547, .T. ) ;
#191 =( LENGTH_UNIT ( ) NAMED_UNIT ( * ) SI_UNIT ( .MILLI., .METRE. ) );
#192 = LINE ( 'NONE', #479, #816 ) ;
#193 = ORIENTED_EDGE ( 'NONE', *, *, #819, .T. ) ;
#194 = LINE ( 'NONE', #899, #115 ) ;
#195 = EDGE_CURVE ( 'NONE', #202, #105, #618, .T. ) ;
#196 = CARTESIAN_POINT ( 'NONE',  ( 0.000000000000000000, 1.199999999999999956, -5.000000000000000000 ) ) ;
#197 = DIRECTION ( 'NONE',  ( -0.000000000000000000, -1.000000000000000000, -0.000000000000000000 ) ) ;
#198 = EDGE_LOOP ( 'NONE', ( #641, #510, #595, #730 ) ) ;
#199 = DIRECTION ( 'NONE',  ( -0.000000000000000000, -1.000000000000000000, -0.000000000000000000 ) ) ;
#200 = AXIS2_PLACEMENT_3D ( 'NONE', #472, #552, #56 ) ;
#201 = DIRECTION ( 'NONE',  ( 0.000000000000000000, 0.000000000000000000, -1.000000000000000000 ) ) ;
#202 = VERTEX_POINT ( 'NONE', #607 ) ;
#203 = CARTESIAN_POINT ( 'NONE',  ( 3.287360384319338191, -3.000000000000000000, 0.7988639213507419123 ) ) ;
#204 = CYLINDRICAL_SURFACE ( 'NONE', #402, 1.000000000000000000 ) ;
#205 = ORIENTED_EDGE ( 'NONE', *, *, #717, .T. ) ;
#206 = EDGE_CURVE ( 'NONE', #414, #714, #764, .T. ) ;
#207 = DIRECTION ( 'NONE',  ( 0.000000000000000000, 0.000000000000000000, -1.000000000000000000 ) ) ;
#208 = CARTESIAN_POINT ( 'NONE',  ( -2.353026634888288005, -3.000000000000000000, -0.7988639213507416903 ) ) ;
#209 = AXIS2_PLACEMENT_3D ( 'NONE', #797, #663, #120 ) ;
#210 = ORIENTED_EDGE ( 'NONE', *, *, #72, .T. ) ;
#211 = CIRCLE ( 'NONE', #330, 1.000000000000000000 ) ;
#212 = CARTESIAN_POINT ( 'NONE',  ( -3.287360384319338191, -3.000000000000000000, 0.7988639213507405801 ) ) ;
#213 = PLANE ( 'NONE',  #200 ) ;
#214 = CARTESIAN_POINT ( 'NONE',  ( 0.000000000000000000, 0.000000000000000000, -4.999999999999999112 ) ) ;
#215 = VECTOR ( 'NONE', #763, 1000.000000000000000 ) ;
#216 = ORIENTED_EDGE ( 'NONE', *, *, #315, .T. ) ;
#217 = CARTESIAN_POINT ( 'NONE',  ( 1.079202082217116953E-16, 0.000000000000000000, -0.8812353757577282565 ) ) ;
#218 = EDGE_CURVE ( 'NONE', #126, #609, #276, .T. ) ;
#219 = FACE_BOUND ( 'NONE', #361, .T. ) ;
#220 = EDGE_CURVE ( 'NONE', #202, #465, #424, .T. ) ;
#221 = DIRECTION ( 'NONE',  ( -0.000000000000000000, -1.000000000000000000, -0.000000000000000000 ) ) ;
#222 = VERTEX_POINT ( 'NONE', #269 ) ;
#223 = DIRECTION ( 'NONE',  ( -0.000000000000000000, -1.000000000000000000, -0.000000000000000000 ) ) ;
#224 = EDGE_CURVE ( 'NONE', #42, #627, #557, .T. ) ;
#225 = DIRECTION ( 'NONE',  ( -1.000000000000000000, -0.000000000000000000, -2.320802760567548305E-16 ) ) ;
#226 = ORIENTED_EDGE ( 'NONE', *, *, #155, .T. ) ;
#227 = VECTOR ( 'NONE', #733, 1000.000000000000000 ) ;
#228 = UNCERTAINTY_MEASURE_WITH_UNIT (LENGTH_MEASURE( 1.000000000000000082E-05 ), #878, 'distance_accuracy_value', 'NONE');
#229 = MECHANICAL_DESIGN_GEOMETRIC_PRESENTATION_REPRESENTATION (  '', ( #448 ), #170 ) ;
#230 = LINE ( 'NONE', #1, #215 ) ;
#231 = DIRECTION ( 'NONE',  ( -0.000000000000000000, -1.000000000000000000, -0.000000000000000000 ) ) ;
#232 = ORIENTED_EDGE ( 'NONE', *, *, #342, .F. ) ;
#233 = LINE ( 'NONE', #431, #537 ) ;
#234 = FACE_BOUND ( 'NONE', #584, .T. ) ;
#235 = ORIENTED_EDGE ( 'NONE', *, *, #28, .F. ) ;
#236 = EDGE_CURVE ( 'NONE', #148, #746, #59, .T. ) ;
#237 = SURFACE_SIDE_STYLE ('',( #506 ) ) ;
#238 = LINE ( 'NONE', #184, #802 ) ;
#239 = CARTESIAN_POINT ( 'NONE',  ( -3.287360384319338191, -3.000000000000000000, -0.7988639213507405801 ) ) ;
#240 = AXIS2_PLACEMENT_3D ( 'NONE', #884, #264, #475 ) ;
#241 = DIRECTION ( 'NONE',  ( -0.000000000000000000, -1.000000000000000000, -0.000000000000000000 ) ) ;
#242 = FACE_OUTER_BOUND ( 'NONE', #635, .T. ) ;
#243 = ORIENTED_EDGE ( 'NONE', *, *, #440, .F. ) ;
#244 = CIRCLE ( 'NONE', #453, 5.000000000000000000 ) ;
#245 = EDGE_CURVE ( 'NONE', #829, #765, #192, .T. ) ;
#246 = DIRECTION ( 'NONE',  ( 1.000000000000000000, 0.000000000000000000, -2.320802760567548305E-16 ) ) ;
#247 = DIRECTION ( 'NONE',  ( 0.000000000000000000, 0.000000000000000000, -1.000000000000000000 ) ) ;
#248 = ORIENTED_EDGE ( 'NONE', *, *, #96, .T. ) ;
#249 = FACE_OUTER_BOUND ( 'NONE', #894, .T. ) ;
#250 = CARTESIAN_POINT ( 'NONE',  ( -2.353026634888288005, -3.000000000000000000, 0.7988639213507416903 ) ) ;
#251 = EDGE_LOOP ( 'NONE', ( #877, #160, #60, #265 ) ) ;
#252 = VECTOR ( 'NONE', #824, 1000.000000000000000 ) ;
#253 = DIRECTION ( 'NONE',  ( -0.000000000000000000, -1.000000000000000000, -0.000000000000000000 ) ) ;
#254 = AXIS2_PLACEMENT_3D ( 'NONE', #383, #253, #535 ) ;
#255 = ORIENTED_EDGE ( 'NONE', *, *, #220, .T. ) ;
#256 = ORIENTED_EDGE ( 'NONE', *, *, #422, .T. ) ;
#257 = SURFACE_STYLE_FILL_AREA ( #823 ) ;
#258 = DIRECTION ( 'NONE',  ( 0.000000000000000000, 0.000000000000000000, -1.000000000000000000 ) ) ;
#259 = ORIENTED_EDGE ( 'NONE', *, *, #385, .F. ) ;
#260 = EDGE_CURVE ( 'NONE', #460, #829, #405, .T. ) ;
#261 = CARTESIAN_POINT ( 'NONE',  ( 0.000000000000000000, 1.199999999999999956, 0.000000000000000000 ) ) ;
#262 = DIRECTION ( 'NONE',  ( -0.000000000000000000, -1.000000000000000000, -0.000000000000000000 ) ) ;
#263 =( NAMED_UNIT ( * ) SI_UNIT ( $, .STERADIAN. ) SOLID_ANGLE_UNIT ( ) );
#264 = DIRECTION ( 'NONE',  ( 0.000000000000000000, -1.000000000000000000, 0.000000000000000000 ) ) ;
#265 = ORIENTED_EDGE ( 'NONE', *, *, #838, .T. ) ;
#266 = DIRECTION ( 'NONE',  ( -0.000000000000000000, -1.000000000000000000, -0.000000000000000000 ) ) ;
#267 = CARTESIAN_POINT ( 'NONE',  ( 0.000000000000000000, 5.549999999999998934, 0.000000000000000000 ) ) ;
#268 = AXIS2_PLACEMENT_3D ( 'NONE', #239, #862, #326 ) ;
#269 = CARTESIAN_POINT ( 'NONE',  ( 4.898587196589412829E-16, 5.150000000000000355, 4.000000000000000000 ) ) ;
#270 = ORIENTED_EDGE ( 'NONE', *, *, #260, .T. ) ;
#271 = DIRECTION ( 'NONE',  ( 0.000000000000000000, 0.000000000000000000, -1.000000000000000000 ) ) ;
#272 = MECHANICAL_DESIGN_GEOMETRIC_PRESENTATION_REPRESENTATION (  '', ( #335 ), #750 ) ;
#273 = DIRECTION ( 'NONE',  ( 0.000000000000000000, 0.000000000000000000, -1.000000000000000000 ) ) ;
#274 = ADVANCED_FACE ( 'NONE', ( #338 ), #611, .T. ) ;
#275 = AXIS2_PLACEMENT_3D ( 'NONE', #633, #696, #358 ) ;
#276 = LINE ( 'NONE', #745, #328 ) ;
#277 = ORIENTED_EDGE ( 'NONE', *, *, #744, .F. ) ;
#278 = FACE_OUTER_BOUND ( 'NONE', #469, .T. ) ;
#279 = FACE_BOUND ( 'NONE', #798, .T. ) ;
#280 = EDGE_LOOP ( 'NONE', ( #243, #771, #703, #476 ) ) ;
#281 = DIRECTION ( 'NONE',  ( 1.000000000000000000, 0.000000000000000000, 0.000000000000000000 ) ) ;
#282 = CARTESIAN_POINT ( 'NONE',  ( 0.000000000000000000, 1.300000000000000044, -4.899999999999999467 ) ) ;
#283 = CARTESIAN_POINT ( 'NONE',  ( 2.353026634888288005, 0.000000000000000000, 0.7988639213507416903 ) ) ;
#284 = CIRCLE ( 'NONE', #209, 4.999999999999999112 ) ;
#285 = ORIENTED_EDGE ( 'NONE', *, *, #702, .F. ) ;
#286 = AXIS2_PLACEMENT_3D ( 'NONE', #463, #394, #187 ) ;
#287 = EDGE_CURVE ( 'NONE', #627, #126, #893, .T. ) ;
#288 = DIRECTION ( 'NONE',  ( 0.000000000000000000, 0.000000000000000000, -1.000000000000000000 ) ) ;
#289 = CARTESIAN_POINT ( 'NONE',  ( -2.353026634888288005, 3.039487399202079706E-16, 0.7988639213507415793 ) ) ;
#290 = DIRECTION ( 'NONE',  ( -0.000000000000000000, -1.000000000000000000, -0.000000000000000000 ) ) ;
#291 = EDGE_LOOP ( 'NONE', ( #406, #774 ) ) ;
#292 = PLANE ( 'NONE',  #275 ) ;
#293 = LINE ( 'NONE', #214, #588 ) ;
#294 = ORIENTED_EDGE ( 'NONE', *, *, #851, .F. ) ;
#295 =( NAMED_UNIT ( * ) PLANE_ANGLE_UNIT ( ) SI_UNIT ( $, .RADIAN. ) );
#296 = CARTESIAN_POINT ( 'NONE',  ( 2.353026634888288005, 0.000000000000000000, -0.7988639213507416903 ) ) ;
#297 = DIRECTION ( 'NONE',  ( 0.000000000000000000, 0.000000000000000000, -1.000000000000000000 ) ) ;
#298 = VERTEX_POINT ( 'NONE', #755 ) ;
#299 = AXIS2_PLACEMENT_3D ( 'NONE', #729, #464, #867 ) ;
#300 = LINE ( 'NONE', #582, #621 ) ;
#301 = AXIS2_PLACEMENT_3D ( 'NONE', #731, #723, #857 ) ;
#302 = EDGE_CURVE ( 'NONE', #836, #14, #890, .T. ) ;
#303 = ORIENTED_EDGE ( 'NONE', *, *, #369, .F. ) ;
#304 = PRODUCT_DEFINITION_FORMATION_WITH_SPECIFIED_SOURCE ( 'Symmetric', '', #892, .NOT_KNOWN. ) ;
#305 = DIRECTION ( 'NONE',  ( -0.000000000000000000, -1.000000000000000000, -0.000000000000000000 ) ) ;
#306 = CIRCLE ( 'NONE', #881, 3.999999999999999112 ) ;
#307 = PLANE ( 'NONE',  #734 ) ;
#308 = VERTEX_POINT ( 'NONE', #19 ) ;
#309 = UNCERTAINTY_MEASURE_WITH_UNIT (LENGTH_MEASURE( 1.000000000000000082E-05 ), #421, 'distance_accuracy_value', 'NONE');
#310 = CARTESIAN_POINT ( 'NONE',  ( -3.287360384319338191, -3.000000000000000000, -0.7988639213507405801 ) ) ;
#311 = CARTESIAN_POINT ( 'NONE',  ( 0.000000000000000000, 5.549999999999998934, 0.000000000000000000 ) ) ;
#312 = ORIENTED_EDGE ( 'NONE', *, *, #422, .F. ) ;
#313 = EDGE_CURVE ( 'NONE', #843, #852, #849, .T. ) ;
#314 = VECTOR ( 'NONE', #247, 1000.000000000000000 ) ;
#315 = EDGE_CURVE ( 'NONE', #599, #93, #630, .T. ) ;
#316 = DIRECTION ( 'NONE',  ( -0.000000000000000000, -1.000000000000000000, -0.000000000000000000 ) ) ;
#317 = LINE ( 'NONE', #671, #183 ) ;
#318 = CARTESIAN_POINT ( 'NONE',  ( 0.000000000000000000, 0.000000000000000000, 0.000000000000000000 ) ) ;
#319 = ORIENTED_EDGE ( 'NONE', *, *, #716, .F. ) ;
#320 = VECTOR ( 'NONE', #841, 1000.000000000000000 ) ;
#321 = LINE ( 'NONE', #524, #404 ) ;
#322 = LINE ( 'NONE', #107, #314 ) ;
#323 = ORIENTED_EDGE ( 'NONE', *, *, #313, .T. ) ;
#324 = CYLINDRICAL_SURFACE ( 'NONE', #254, 4.899999999999999467 ) ;
#325 = EDGE_CURVE ( 'NONE', #400, #177, #770, .T. ) ;
#326 = DIRECTION ( 'NONE',  ( 1.000000000000000000, 0.000000000000000000, -1.160401380283774202E-15 ) ) ;
#327 = VERTEX_POINT ( 'NONE', #502 ) ;
#328 = VECTOR ( 'NONE', #814, 1000.000000000000000 ) ;
#329 = FILL_AREA_STYLE_COLOUR ( '', #408 ) ;
#330 = AXIS2_PLACEMENT_3D ( 'NONE', #796, #106, #116 ) ;
#331 = EDGE_CURVE ( 'NONE', #765, #414, #445, .T. ) ;
#332 = CARTESIAN_POINT ( 'NONE',  ( 0.000000000000000000, -3.000000000000000000, 0.8812353757577282565 ) ) ;
#333 = ORIENTED_EDGE ( 'NONE', *, *, #449, .F. ) ;
#334 = CARTESIAN_POINT ( 'NONE',  ( 1.224646799147353207E-16, 5.549999999999998934, 1.000000000000000000 ) ) ;
#335 = STYLED_ITEM ( 'NONE', ( #645 ), #863 ) ;
#336 = VECTOR ( 'NONE', #493, 1000.000000000000000 ) ;
#337 = SURFACE_STYLE_FILL_AREA ( #813 ) ;
#338 = FACE_OUTER_BOUND ( 'NONE', #656, .T. ) ;
#339 = EDGE_LOOP ( 'NONE', ( #376, #660, #761, #303 ) ) ;
#340 = DIRECTION ( 'NONE',  ( 0.000000000000000000, 0.000000000000000000, -1.000000000000000000 ) ) ;
#341 = EDGE_LOOP ( 'NONE', ( #113, #779 ) ) ;
#342 = EDGE_CURVE ( 'NONE', #665, #852, #854, .T. ) ;
#343 =( NAMED_UNIT ( * ) SI_UNIT ( $, .STERADIAN. ) SOLID_ANGLE_UNIT ( ) );
#344 = VECTOR ( 'NONE', #828, 1000.000000000000000 ) ;
#345 = CIRCLE ( 'NONE', #462, 4.000000000000000000 ) ;
#346 = CYLINDRICAL_SURFACE ( 'NONE', #647, 4.999999999999999112 ) ;
#347 = ORIENTED_EDGE ( 'NONE', *, *, #768, .F. ) ;
#348 = DIRECTION ( 'NONE',  ( -0.000000000000000000, -1.000000000000000000, -0.000000000000000000 ) ) ;
#349 = SURFACE_STYLE_USAGE ( .BOTH. , #681 ) ;
#350 = DIRECTION ( 'NONE',  ( 0.000000000000000000, 0.000000000000000000, -1.000000000000000000 ) ) ;
#351 = ORIENTED_EDGE ( 'NONE', *, *, #717, .F. ) ;
#352 = CARTESIAN_POINT ( 'NONE',  ( 0.000000000000000000, 5.150000000000000355, -4.000000000000000000 ) ) ;
#353 = DIRECTION ( 'NONE',  ( 0.000000000000000000, -0.000000000000000000, -1.000000000000000000 ) ) ;
#354 = DIRECTION ( 'NONE',  ( 1.000000000000000000, 0.000000000000000000, -1.160401380283774202E-15 ) ) ;
#355 = EDGE_CURVE ( 'NONE', #32, #843, #578, .T. ) ;
#356 = ORIENTED_EDGE ( 'NONE', *, *, #129, .F. ) ;
#357 = DIRECTION ( 'NONE',  ( -0.000000000000000000, 1.000000000000000000, -0.000000000000000000 ) ) ;
#358 = DIRECTION ( 'NONE',  ( 1.000000000000000000, 0.000000000000000000, -2.320802760567548305E-16 ) ) ;
#359 = ADVANCED_FACE ( 'NONE', ( #442 ), #370, .F. ) ;
#360 = AXIS2_PLACEMENT_3D ( 'NONE', #151, #290, #2 ) ;
#361 = EDGE_LOOP ( 'NONE', ( #156, #89 ) ) ;
#362 = CARTESIAN_POINT ( 'NONE',  ( -3.287360384319338191, -3.000000000000000000, 0.7988639213507405801 ) ) ;
#363 = FACE_OUTER_BOUND ( 'NONE', #339, .T. ) ;
#364 = MECHANICAL_DESIGN_GEOMETRIC_PRESENTATION_REPRESENTATION (  '', ( #147 ), #594 ) ;
#365 = ORIENTED_EDGE ( 'NONE', *, *, #466, .T. ) ;
#366 = FILL_AREA_STYLE ('',( #87 ) ) ;
#367 = ORIENTED_EDGE ( 'NONE', *, *, #744, .T. ) ;
#368 = LINE ( 'NONE', #704, #377 ) ;
#369 = EDGE_CURVE ( 'NONE', #298, #512, #293, .T. ) ;
#370 = CYLINDRICAL_SURFACE ( 'NONE', #360, 1.000000000000000000 ) ;
#371 = ORIENTED_EDGE ( 'NONE', *, *, #887, .T. ) ;
#372 =( NAMED_UNIT ( * ) SI_UNIT ( $, .STERADIAN. ) SOLID_ANGLE_UNIT ( ) );
#373 = CIRCLE ( 'NONE', #876, 1.000000000000000000 ) ;
#374 = LINE ( 'NONE', #178, #185 ) ;
#375 = COLOUR_RGB ( '',0.000000000000000000, 0.000000000000000000, 0.000000000000000000 ) ;
#376 = ORIENTED_EDGE ( 'NONE', *, *, #55, .T. ) ;
#377 = VECTOR ( 'NONE', #632, 1000.000000000000000 ) ;
#378 = FACE_OUTER_BOUND ( 'NONE', #164, .T. ) ;
#379 = ADVANCED_FACE ( 'NONE', ( #495 ), #498, .T. ) ;
#380 = EDGE_LOOP ( 'NONE', ( #365, #581, #135, #752 ) ) ;
#381 = UNCERTAINTY_MEASURE_WITH_UNIT (LENGTH_MEASURE( 1.000000000000000082E-05 ), #82, 'distance_accuracy_value', 'NONE');
#382 = VERTEX_POINT ( 'NONE', #784 ) ;
#383 = CARTESIAN_POINT ( 'NONE',  ( 0.000000000000000000, 0.000000000000000000, 0.000000000000000000 ) ) ;
#384 = PLANE ( 'NONE',  #777 ) ;
#385 = EDGE_CURVE ( 'NONE', #665, #32, #111, .T. ) ;
#386 = ORIENTED_EDGE ( 'NONE', *, *, #530, .T. ) ;
#387 = VECTOR ( 'NONE', #201, 1000.000000000000000 ) ;
#388 = CARTESIAN_POINT ( 'NONE',  ( 0.000000000000000000, 5.649999999999999467, 0.000000000000000000 ) ) ;
#389 = ORIENTED_EDGE ( 'NONE', *, *, #342, .T. ) ;
#390 = VECTOR ( 'NONE', #348, 1000.000000000000000 ) ;
#391 = UNCERTAINTY_MEASURE_WITH_UNIT (LENGTH_MEASURE( 1.000000000000000082E-05 ), #699, 'distance_accuracy_value', 'NONE');
#392 = EDGE_LOOP ( 'NONE', ( #491, #726 ) ) ;
#393 = CIRCLE ( 'NONE', #509, 4.999999999999999112 ) ;
#394 = DIRECTION ( 'NONE',  ( -0.000000000000000000, 1.000000000000000000, -0.000000000000000000 ) ) ;
#395 = PLANE ( 'NONE',  #299 ) ;
#396 = ORIENTED_EDGE ( 'NONE', *, *, #103, .T. ) ;
#397 = ADVANCED_FACE ( 'NONE', ( #234, #847, #163, #511 ), #640, .T. ) ;
#398 = PRESENTATION_STYLE_ASSIGNMENT (( #57 ) ) ;
#399 = CARTESIAN_POINT ( 'NONE',  ( 0.000000000000000000, 5.150000000000000355, 0.000000000000000000 ) ) ;
#400 = VERTEX_POINT ( 'NONE', #310 ) ;
#401 = SURFACE_STYLE_USAGE ( .BOTH. , #415 ) ;
#402 = AXIS2_PLACEMENT_3D ( 'NONE', #125, #197, #340 ) ;
#403 = CARTESIAN_POINT ( 'NONE',  ( 0.000000000000000000, 0.000000000000000000, 0.000000000000000000 ) ) ;
#404 = VECTOR ( 'NONE', #860, 1000.000000000000000 ) ;
#405 = LINE ( 'NONE', #413, #344 ) ;
#406 = ORIENTED_EDGE ( 'NONE', *, *, #195, .F. ) ;
#407 = DIRECTION ( 'NONE',  ( 1.000000000000000000, 0.000000000000000000, 0.000000000000000000 ) ) ;
#408 = COLOUR_RGB ( '',0.000000000000000000, 0.000000000000000000, 0.000000000000000000 ) ;
#409 = CYLINDRICAL_SURFACE ( 'NONE', #494, 4.899999999999999467 ) ;
#410 = FACE_OUTER_BOUND ( 'NONE', #457, .T. ) ;
#411 = ORIENTED_EDGE ( 'NONE', *, *, #129, .T. ) ;
#412 = FACE_OUTER_BOUND ( 'NONE', #532, .T. ) ;
#413 = CARTESIAN_POINT ( 'NONE',  ( 3.287360384319338191, -3.000000000000000000, 0.7988639213507419123 ) ) ;
#414 = VERTEX_POINT ( 'NONE', #786 ) ;
#415 = SURFACE_SIDE_STYLE ('',( #680 ) ) ;
#416 = DIRECTION ( 'NONE',  ( -0.000000000000000000, -1.000000000000000000, -0.000000000000000000 ) ) ;
#417 = AXIS2_PLACEMENT_3D ( 'NONE', #138, #808, #258 ) ;
#418 =( GEOMETRIC_REPRESENTATION_CONTEXT ( 3 ) GLOBAL_UNCERTAINTY_ASSIGNED_CONTEXT ( ( #381 ) ) GLOBAL_UNIT_ASSIGNED_CONTEXT ( ( #82, #23, #88 ) ) REPRESENTATION_CONTEXT ( 'NONE', 'WORKASPACE' ) );
#419 = DIRECTION ( 'NONE',  ( 0.000000000000000000, -0.000000000000000000, 1.000000000000000000 ) ) ;
#420 = ORIENTED_EDGE ( 'NONE', *, *, #313, .F. ) ;
#421 =( LENGTH_UNIT ( ) NAMED_UNIT ( * ) SI_UNIT ( .MILLI., .METRE. ) );
#422 = EDGE_CURVE ( 'NONE', #609, #42, #374, .T. ) ;
#423 = FACE_OUTER_BOUND ( 'NONE', #554, .T. ) ;
#424 = LINE ( 'NONE', #760, #80 ) ;
#425 = ORIENTED_EDGE ( 'NONE', *, *, #224, .F. ) ;
#426 = CARTESIAN_POINT ( 'NONE',  ( 0.000000000000000000, 1.199999999999999956, 0.000000000000000000 ) ) ;
#427 = LINE ( 'NONE', #638, #320 ) ;
#428 = ADVANCED_FACE ( 'NONE', ( #249 ), #467, .T. ) ;
#429 = CARTESIAN_POINT ( 'NONE',  ( 0.000000000000000000, -3.000000000000000000, 0.000000000000000000 ) ) ;
#430 = ORIENTED_EDGE ( 'NONE', *, *, #613, .T. ) ;
#431 = CARTESIAN_POINT ( 'NONE',  ( -2.353026634888288005, -3.000000000000000000, 0.7988639213507416903 ) ) ;
#432 =( NAMED_UNIT ( * ) PLANE_ANGLE_UNIT ( ) SI_UNIT ( $, .RADIAN. ) );
#433 = CARTESIAN_POINT ( 'NONE',  ( 0.000000000000000000, 0.000000000000000000, 0.000000000000000000 ) ) ;
#434 = AXIS2_PLACEMENT_3D ( 'NONE', #134, #231, #77 ) ;
#435 = ORIENTED_EDGE ( 'NONE', *, *, #530, .F. ) ;
#436 = SURFACE_SIDE_STYLE ('',( #501 ) ) ;
#437 =( GEOMETRIC_REPRESENTATION_CONTEXT ( 3 ) GLOBAL_UNCERTAINTY_ASSIGNED_CONTEXT ( ( #90 ) ) GLOBAL_UNIT_ASSIGNED_CONTEXT ( ( #521, #99, #263 ) ) REPRESENTATION_CONTEXT ( 'NONE', 'WORKASPACE' ) );
#438 = SURFACE_SIDE_STYLE ('',( #701 ) ) ;
#439 = ORIENTED_EDGE ( 'NONE', *, *, #206, .T. ) ;
#440 = EDGE_CURVE ( 'NONE', #443, #140, #373, .T. ) ;
#441 = FILL_AREA_STYLE_COLOUR ( '', #375 ) ;
#442 = FACE_OUTER_BOUND ( 'NONE', #280, .T. ) ;
#443 = VERTEX_POINT ( 'NONE', #666 ) ;
#444 = CARTESIAN_POINT ( 'NONE',  ( 6.123233995736766282E-16, 0.000000000000000000, 5.000000000000000000 ) ) ;
#445 = LINE ( 'NONE', #283, #689 ) ;
#446 = EDGE_LOOP ( 'NONE', ( #411, #655 ) ) ;
#447 = AXIS2_PLACEMENT_3D ( 'NONE', #858, #117, #667 ) ;
#448 = STYLED_ITEM ( 'NONE', ( #669 ), #580 ) ;
#449 = EDGE_CURVE ( 'NONE', #617, #93, #675, .T. ) ;
#450 = LINE ( 'NONE', #39, #690 ) ;
#451 = CIRCLE ( 'NONE', #710, 4.899999999999999467 ) ;
#452 = DIRECTION ( 'NONE',  ( -0.000000000000000000, -1.000000000000000000, -0.000000000000000000 ) ) ;
#453 = AXIS2_PLACEMENT_3D ( 'NONE', #128, #199, #122 ) ;
#454 = DIRECTION ( 'NONE',  ( 0.000000000000000000, 0.000000000000000000, -1.000000000000000000 ) ) ;
#455 = ADVANCED_FACE ( 'NONE', ( #651 ), #591, .F. ) ;
#456 = CARTESIAN_POINT ( 'NONE',  ( 6.000769315822030740E-16, 1.199999999999999956, 4.899999999999999467 ) ) ;
#457 = EDGE_LOOP ( 'NONE', ( #575, #367, #889, #20 ) ) ;
#458 = DIRECTION ( 'NONE',  ( -0.000000000000000000, -1.000000000000000000, -0.000000000000000000 ) ) ;
#459 = LINE ( 'NONE', #250, #732 ) ;
#460 = VERTEX_POINT ( 'NONE', #583 ) ;
#461 = AXIS2_PLACEMENT_3D ( 'NONE', #553, #697, #888 ) ;
#462 = AXIS2_PLACEMENT_3D ( 'NONE', #597, #241, #518 ) ;
#463 = CARTESIAN_POINT ( 'NONE',  ( 0.000000000000000000, -3.000000000000000000, 0.000000000000000000 ) ) ;
#464 = DIRECTION ( 'NONE',  ( 1.160401380283774202E-15, 0.000000000000000000, -1.000000000000000000 ) ) ;
#465 = VERTEX_POINT ( 'NONE', #799 ) ;
#466 = EDGE_CURVE ( 'NONE', #714, #822, #238, .T. ) ;
#467 = CYLINDRICAL_SURFACE ( 'NONE', #301, 4.000000000000000000 ) ;
#468 = PLANE ( 'NONE',  #268 ) ;
#469 = EDGE_LOOP ( 'NONE', ( #527, #277 ) ) ;
#470 = DIRECTION ( 'NONE',  ( -0.000000000000000000, 1.000000000000000000, -0.000000000000000000 ) ) ;
#471 = EDGE_LOOP ( 'NONE', ( #232, #551, #74, #323 ) ) ;
#472 = CARTESIAN_POINT ( 'NONE',  ( 0.000000000000000000, 5.650000000000000355, -1.000000000000000000 ) ) ;
#473 = DIRECTION ( 'NONE',  ( -0.000000000000000000, 1.000000000000000000, -0.000000000000000000 ) ) ;
#474 = ADVANCED_FACE ( 'NONE', ( #654 ), #171, .T. ) ;
#475 = DIRECTION ( 'NONE',  ( 0.000000000000000000, -0.000000000000000000, -1.000000000000000000 ) ) ;
#476 = ORIENTED_EDGE ( 'NONE', *, *, #16, .F. ) ;
#477 = VECTOR ( 'NONE', #132, 1000.000000000000000 ) ;
#478 = CARTESIAN_POINT ( 'NONE',  ( 0.000000000000000000, 0.000000000000000000, 0.000000000000000000 ) ) ;
#479 = CARTESIAN_POINT ( 'NONE',  ( 3.287360384319338191, -3.000000000000000000, 0.7988639213507419123 ) ) ;
#480 = ADVANCED_BREP_SHAPE_REPRESENTATION ( 'magnetic pogo pin connector', ( #811, #695 ), #161 ) ;
#481 = ORIENTED_EDGE ( 'NONE', *, *, #218, .F. ) ;
#482 = DIRECTION ( 'NONE',  ( 0.000000000000000000, -0.000000000000000000, 1.000000000000000000 ) ) ;
#483 = DIRECTION ( 'NONE',  ( -0.000000000000000000, -1.000000000000000000, -0.000000000000000000 ) ) ;
#484 = PLANE ( 'NONE',  #461 ) ;
#485 = ORIENTED_EDGE ( 'NONE', *, *, #84, .F. ) ;
#486 = EDGE_CURVE ( 'NONE', #822, #765, #450, .T. ) ;
#487 = CARTESIAN_POINT ( 'NONE',  ( 2.353026634888288005, -3.000000000000000000, 0.7988639213507416903 ) ) ;
#488 = CIRCLE ( 'NONE', #706, 1.000000000000000000 ) ;
#489 = AXIS2_PLACEMENT_3D ( 'NONE', #30, #458, #601 ) ;
#490 = CARTESIAN_POINT ( 'NONE',  ( 0.000000000000000000, 0.000000000000000000, 0.000000000000000000 ) ) ;
#491 = ORIENTED_EDGE ( 'NONE', *, *, #897, .F. ) ;
#492 = PLANE ( 'NONE',  #522 ) ;
#493 = DIRECTION ( 'NONE',  ( -1.000000000000000000, -0.000000000000000000, -2.320802760567548305E-16 ) ) ;
#494 = AXIS2_PLACEMENT_3D ( 'NONE', #478, #483, #137 ) ;
#495 = FACE_OUTER_BOUND ( 'NONE', #341, .T. ) ;
#496 = ORIENTED_EDGE ( 'NONE', *, *, #851, .T. ) ;
#497 = SURFACE_STYLE_USAGE ( .BOTH. , #436 ) ;
#498 = PLANE ( 'NONE',  #673 ) ;
#499 = ORIENTED_EDGE ( 'NONE', *, *, #96, .F. ) ;
#500 = FILL_AREA_STYLE ('',( #441 ) ) ;
#501 = SURFACE_STYLE_FILL_AREA ( #366 ) ;
#502 = CARTESIAN_POINT ( 'NONE',  ( -2.353026634888288005, -3.000000000000000000, 0.7988639213507416903 ) ) ;
#503 = EDGE_CURVE ( 'NONE', #803, #683, #606, .T. ) ;
#504 = AXIS2_PLACEMENT_3D ( 'NONE', #433, #159, #563 ) ;
#505 = ORIENTED_EDGE ( 'NONE', *, *, #224, .T. ) ;
#506 = SURFACE_STYLE_FILL_AREA ( #500 ) ;
#507 = CARTESIAN_POINT ( 'NONE',  ( 0.000000000000000000, 5.549999999999998934, -1.000000000000000000 ) ) ;
#508 = DIRECTION ( 'NONE',  ( 0.000000000000000000, -1.000000000000000000, 0.000000000000000000 ) ) ;
#509 = AXIS2_PLACEMENT_3D ( 'NONE', #762, #266, #748 ) ;
#510 = ORIENTED_EDGE ( 'NONE', *, *, #206, .F. ) ;
#511 = FACE_BOUND ( 'NONE', #198, .T. ) ;
#512 = VERTEX_POINT ( 'NONE', #110 ) ;
#513 = EDGE_CURVE ( 'NONE', #327, #855, #321, .T. ) ;
#514 = DIRECTION ( 'NONE',  ( 0.000000000000000000, 0.000000000000000000, -1.000000000000000000 ) ) ;
#515 = CARTESIAN_POINT ( 'NONE',  ( -3.287360384319338191, 0.000000000000000000, 0.7988639213507405801 ) ) ;
#516 = AXIS2_PLACEMENT_3D ( 'NONE', #73, #62, #419 ) ;
#517 = EDGE_CURVE ( 'NONE', #222, #465, #345, .T. ) ;
#518 = DIRECTION ( 'NONE',  ( 0.000000000000000000, 0.000000000000000000, -1.000000000000000000 ) ) ;
#519 = DIRECTION ( 'NONE',  ( 0.000000000000000000, 0.000000000000000000, -1.000000000000000000 ) ) ;
#520 = CIRCLE ( 'NONE', #679, 0.8812353757577282565 ) ;
#521 =( LENGTH_UNIT ( ) NAMED_UNIT ( * ) SI_UNIT ( .MILLI., .METRE. ) );
#522 = AXIS2_PLACEMENT_3D ( 'NONE', #142, #407, #207 ) ;
#523 = ORIENTED_EDGE ( 'NONE', *, *, #716, .T. ) ;
#524 = CARTESIAN_POINT ( 'NONE',  ( -3.287360384319338191, -3.000000000000000000, 0.7988639213507405801 ) ) ;
#525 = CARTESIAN_POINT ( 'NONE',  ( 2.353026634888288005, -3.000000000000000000, 0.7988639213507416903 ) ) ;
#526 = DIRECTION ( 'NONE',  ( 0.000000000000000000, 0.000000000000000000, 1.000000000000000000 ) ) ;
#527 = ORIENTED_EDGE ( 'NONE', *, *, #55, .F. ) ;
#528 = APPLICATION_CONTEXT ( 'automotive_design' ) ;
#529 = DIRECTION ( 'NONE',  ( -0.000000000000000000, -1.000000000000000000, -0.000000000000000000 ) ) ;
#530 = EDGE_CURVE ( 'NONE', #105, #222, #27, .T. ) ;
#531 = LINE ( 'NONE', #104, #94 ) ;
#532 = EDGE_LOOP ( 'NONE', ( #439, #152, #37, #686 ) ) ;
#533 = VECTOR ( 'NONE', #707, 1000.000000000000000 ) ;
#534 = AXIS2_PLACEMENT_3D ( 'NONE', #388, #316, #869 ) ;
#535 = DIRECTION ( 'NONE',  ( 0.000000000000000000, 0.000000000000000000, -1.000000000000000000 ) ) ;
#536 = DIRECTION ( 'NONE',  ( 0.000000000000000000, -1.000000000000000000, -0.000000000000000000 ) ) ;
#537 = VECTOR ( 'NONE', #357, 1000.000000000000000 ) ;
#538 = EDGE_LOOP ( 'NONE', ( #809, #612 ) ) ;
#539 =( GEOMETRIC_REPRESENTATION_CONTEXT ( 3 ) GLOBAL_UNCERTAINTY_ASSIGNED_CONTEXT ( ( #228 ) ) GLOBAL_UNIT_ASSIGNED_CONTEXT ( ( #878, #540, #343 ) ) REPRESENTATION_CONTEXT ( 'NONE', 'WORKASPACE' ) );
#540 =( NAMED_UNIT ( * ) PLANE_ANGLE_UNIT ( ) SI_UNIT ( $, .RADIAN. ) );
#541 = CARTESIAN_POINT ( 'NONE',  ( -2.353026634888288005, -3.000000000000000000, -0.7988639213507416903 ) ) ;
#542 = ORIENTED_EDGE ( 'NONE', *, *, #3, .F. ) ;
#543 = DIRECTION ( 'NONE',  ( -0.000000000000000000, -1.000000000000000000, -0.000000000000000000 ) ) ;
#544 = EDGE_CURVE ( 'NONE', #140, #443, #95, .T. ) ;
#545 = FACE_OUTER_BOUND ( 'NONE', #45, .T. ) ;
#546 = APPLICATION_PROTOCOL_DEFINITION ( 'draft international standard', 'automotive_design', 1998, #528 ) ;
#547 = PLANE ( 'NONE',  #516 ) ;
#548 = ORIENTED_EDGE ( 'NONE', *, *, #315, .F. ) ;
#549 = CARTESIAN_POINT ( 'NONE',  ( 0.000000000000000000, 0.000000000000000000, -4.899999999999999467 ) ) ;
#550 = CARTESIAN_POINT ( 'NONE',  ( 2.353026634888288005, -3.000000000000000000, 0.7988639213507416903 ) ) ;
#551 = ORIENTED_EDGE ( 'NONE', *, *, #596, .F. ) ;
#552 = DIRECTION ( 'NONE',  ( 0.000000000000000000, 1.000000000000000000, 0.000000000000000000 ) ) ;
#553 = CARTESIAN_POINT ( 'NONE',  ( 2.353026634888288005, -3.000000000000000000, 0.7988639213507416903 ) ) ;
#554 = EDGE_LOOP ( 'NONE', ( #505, #294, #499, #226 ) ) ;
#555 = CARTESIAN_POINT ( 'NONE',  ( 2.353026634888288005, -3.000000000000000000, -0.7988639213507416903 ) ) ;
#556 = CARTESIAN_POINT ( 'NONE',  ( 0.000000000000000000, 5.650000000000000355, 0.000000000000000000 ) ) ;
#557 = LINE ( 'NONE', #880, #634 ) ;
#558 = EDGE_CURVE ( 'NONE', #738, #672, #211, .T. ) ;
#559 = EDGE_LOOP ( 'NONE', ( #256, #600, #83, #4 ) ) ;
#560 = FACE_OUTER_BOUND ( 'NONE', #678, .T. ) ;
#561 = CARTESIAN_POINT ( 'NONE',  ( 0.000000000000000000, -3.000000000000000000, 0.000000000000000000 ) ) ;
#562 = VECTOR ( 'NONE', #153, 1000.000000000000000 ) ;
#563 = DIRECTION ( 'NONE',  ( 0.000000000000000000, 0.000000000000000000, -1.000000000000000000 ) ) ;
#564 = ORIENTED_EDGE ( 'NONE', *, *, #513, .F. ) ;
#565 = VECTOR ( 'NONE', #305, 1000.000000000000000 ) ;
#566 = CYLINDRICAL_SURFACE ( 'NONE', #623, 4.999999999999999112 ) ;
#567 = STYLED_ITEM ( 'NONE', ( #398 ), #585 ) ;
#568 = ORIENTED_EDGE ( 'NONE', *, *, #72, .F. ) ;
#569 = CARTESIAN_POINT ( 'NONE',  ( -2.353026634888288005, -3.000000000000000000, 0.7988639213507416903 ) ) ;
#570 = ADVANCED_FACE ( 'NONE', ( #378 ), #324, .T. ) ;
#571 = DIRECTION ( 'NONE',  ( 0.000000000000000000, -1.000000000000000000, 0.000000000000000000 ) ) ;
#572 = ORIENTED_EDGE ( 'NONE', *, *, #756, .F. ) ;
#573 = UNCERTAINTY_MEASURE_WITH_UNIT (LENGTH_MEASURE( 1.000000000000000082E-05 ), #12, 'distance_accuracy_value', 'NONE');
#574 = PRESENTATION_STYLE_ASSIGNMENT (( #713 ) ) ;
#575 = ORIENTED_EDGE ( 'NONE', *, *, #708, .F. ) ;
#576 = AXIS2_PLACEMENT_3D ( 'NONE', #15, #856, #637 ) ;
#577 = AXIS2_PLACEMENT_3D ( 'NONE', #426, #5, #288 ) ;
#578 = LINE ( 'NONE', #835, #832 ) ;
#579 = AXIS2_PLACEMENT_3D ( 'NONE', #684, #473, #51 ) ;
#580 = ADVANCED_FACE ( 'NONE', ( #97 ), #307, .T. ) ;
#581 = ORIENTED_EDGE ( 'NONE', *, *, #838, .F. ) ;
#582 = CARTESIAN_POINT ( 'NONE',  ( 3.287360384319338191, -3.000000000000000000, -0.7988639213507419123 ) ) ;
#583 = CARTESIAN_POINT ( 'NONE',  ( 3.287360384319338191, -3.000000000000000000, -0.7988639213507419123 ) ) ;
#584 = EDGE_LOOP ( 'NONE', ( #420, #285 ) ) ;
#585 = ADVANCED_FACE ( 'NONE', ( #119 ), #61, .T. ) ;
#586 = DIRECTION ( 'NONE',  ( 1.000000000000000000, 0.000000000000000000, -1.160401380283774202E-15 ) ) ;
#587 = DIRECTION ( 'NONE',  ( 0.000000000000000000, 0.000000000000000000, -1.000000000000000000 ) ) ;
#588 = VECTOR ( 'NONE', #221, 1000.000000000000000 ) ;
#589 = FILL_AREA_STYLE_COLOUR ( '', #864 ) ;
#590 = EDGE_LOOP ( 'NONE', ( #604, #806, #216, #333 ) ) ;
#591 = PLANE ( 'NONE',  #720 ) ;
#592 = CIRCLE ( 'NONE', #577, 5.000000000000000000 ) ;
#593 = DIRECTION ( 'NONE',  ( -0.000000000000000000, 1.000000000000000000, -0.000000000000000000 ) ) ;
#594 =( GEOMETRIC_REPRESENTATION_CONTEXT ( 3 ) GLOBAL_UNCERTAINTY_ASSIGNED_CONTEXT ( ( #573 ) ) GLOBAL_UNIT_ASSIGNED_CONTEXT ( ( #12, #432, #628 ) ) REPRESENTATION_CONTEXT ( 'NONE', 'WORKASPACE' ) );
#595 = ORIENTED_EDGE ( 'NONE', *, *, #331, .F. ) ;
#596 = EDGE_CURVE ( 'NONE', #32, #665, #520, .T. ) ;
#597 = CARTESIAN_POINT ( 'NONE',  ( 0.000000000000000000, 5.150000000000000355, 0.000000000000000000 ) ) ;
#598 = EDGE_CURVE ( 'NONE', #93, #617, #244, .T. ) ;
#599 = VERTEX_POINT ( 'NONE', #196 ) ;
#600 = ORIENTED_EDGE ( 'NONE', *, *, #155, .F. ) ;
#601 = DIRECTION ( 'NONE',  ( 0.000000000000000000, 0.000000000000000000, -1.000000000000000000 ) ) ;
#602 = FACE_BOUND ( 'NONE', #709, .T. ) ;
#603 = APPLICATION_CONTEXT ( 'automotive_design' ) ;
#604 = ORIENTED_EDGE ( 'NONE', *, *, #887, .F. ) ;
#605 = CIRCLE ( 'NONE', #6, 4.000000000000000000 ) ;
#606 = CIRCLE ( 'NONE', #22, 4.899999999999999467 ) ;
#607 = CARTESIAN_POINT ( 'NONE',  ( 0.000000000000000000, 5.650000000000000355, -3.999999999999999112 ) ) ;
#608 = ADVANCED_FACE ( 'NONE', ( #691 ), #624, .T. ) ;
#609 = VERTEX_POINT ( 'NONE', #67 ) ;
#610 = DIRECTION ( 'NONE',  ( 1.000000000000000000, 0.000000000000000000, 0.000000000000000000 ) ) ;
#611 = PLANE ( 'NONE',  #240 ) ;
#612 = ORIENTED_EDGE ( 'NONE', *, *, #558, .F. ) ;
#613 = EDGE_CURVE ( 'NONE', #105, #202, #306, .T. ) ;
#614 = PLANE ( 'NONE',  #38 ) ;
#615 = APPLICATION_PROTOCOL_DEFINITION ( 'draft international standard', 'automotive_design', 1998, #603 ) ;
#616 = DIRECTION ( 'NONE',  ( -0.000000000000000000, -1.000000000000000000, -0.000000000000000000 ) ) ;
#617 = VERTEX_POINT ( 'NONE', #827 ) ;
#618 = CIRCLE ( 'NONE', #417, 3.999999999999999112 ) ;
#619 = CARTESIAN_POINT ( 'NONE',  ( 0.000000000000000000, 1.300000000000000044, 0.000000000000000000 ) ) ;
#620 = ORIENTED_EDGE ( 'NONE', *, *, #355, .F. ) ;
#621 = VECTOR ( 'NONE', #25, 1000.000000000000000 ) ;
#622 = CARTESIAN_POINT ( 'NONE',  ( 0.000000000000000000, 1.199999999999999956, -4.899999999999999467 ) ) ;
#623 = AXIS2_PLACEMENT_3D ( 'NONE', #17, #223, #776 ) ;
#624 = CYLINDRICAL_SURFACE ( 'NONE', #579, 0.8812353757577282565 ) ;
#625 = ADVANCED_FACE ( 'NONE', ( #545 ), #409, .T. ) ;
#626 = DIRECTION ( 'NONE',  ( -0.000000000000000000, -1.000000000000000000, -0.000000000000000000 ) ) ;
#627 = VERTEX_POINT ( 'NONE', #289 ) ;
#628 =( NAMED_UNIT ( * ) SI_UNIT ( $, .STERADIAN. ) SOLID_ANGLE_UNIT ( ) );
#629 = CARTESIAN_POINT ( 'NONE',  ( 0.000000000000000000, 0.000000000000000000, 0.000000000000000000 ) ) ;
#630 = LINE ( 'NONE', #850, #562 ) ;
#631 = ORIENTED_EDGE ( 'NONE', *, *, #503, .T. ) ;
#632 = DIRECTION ( 'NONE',  ( 1.000000000000000000, 0.000000000000000000, -2.320802760567548305E-16 ) ) ;
#633 = CARTESIAN_POINT ( 'NONE',  ( 2.353026634888288005, -3.000000000000000000, -0.7988639213507416903 ) ) ;
#634 = VECTOR ( 'NONE', #52, 1000.000000000000000 ) ;
#635 = EDGE_LOOP ( 'NONE', ( #868, #9 ) ) ;
#636 = ADVANCED_FACE ( 'NONE', ( #423 ), #150, .F. ) ;
#637 = DIRECTION ( 'NONE',  ( 0.000000000000000000, 0.000000000000000000, -1.000000000000000000 ) ) ;
#638 = CARTESIAN_POINT ( 'NONE',  ( 6.123233995736765296E-16, 0.000000000000000000, 4.999999999999999112 ) ) ;
#639 = PRESENTATION_LAYER_ASSIGNMENT (  '', '', ( #86 ) ) ;
#640 = PLANE ( 'NONE',  #141 ) ;
#641 = ORIENTED_EDGE ( 'NONE', *, *, #466, .F. ) ;
#642 = CARTESIAN_POINT ( 'NONE',  ( 6.123233995736766282E-16, 1.300000000000000044, 5.000000000000000000 ) ) ;
#643 = FACE_OUTER_BOUND ( 'NONE', #380, .T. ) ;
#644 = ORIENTED_EDGE ( 'NONE', *, *, #830, .F. ) ;
#645 = PRESENTATION_STYLE_ASSIGNMENT (( #837 ) ) ;
#646 = FILL_AREA_STYLE ('',( #167 ) ) ;
#647 = AXIS2_PLACEMENT_3D ( 'NONE', #490, #616, #896 ) ;
#648 = VECTOR ( 'NONE', #736, 1000.000000000000000 ) ;
#649 = ORIENTED_EDGE ( 'NONE', *, *, #702, .T. ) ;
#650 = FACE_OUTER_BOUND ( 'NONE', #590, .T. ) ;
#651 = FACE_OUTER_BOUND ( 'NONE', #251, .T. ) ;
#652 = AXIS2_PLACEMENT_3D ( 'NONE', #569, #7, #71 ) ;
#653 = ORIENTED_EDGE ( 'NONE', *, *, #449, .T. ) ;
#654 = FACE_OUTER_BOUND ( 'NONE', #471, .T. ) ;
#655 = ORIENTED_EDGE ( 'NONE', *, *, #517, .T. ) ;
#656 = EDGE_LOOP ( 'NONE', ( #210, #108, #248, #815 ) ) ;
#657 = FILL_AREA_STYLE_COLOUR ( '', #833 ) ;
#658 = DIRECTION ( 'NONE',  ( 0.000000000000000000, 0.000000000000000000, -1.000000000000000000 ) ) ;
#659 = VECTOR ( 'NONE', #172, 1000.000000000000000 ) ;
#660 = ORIENTED_EDGE ( 'NONE', *, *, #708, .T. ) ;
#661 = ADVANCED_FACE ( 'NONE', ( #643 ), #292, .F. ) ;
#662 = DIRECTION ( 'NONE',  ( -1.000000000000000000, 0.000000000000000000, -0.000000000000000000 ) ) ;
#663 = DIRECTION ( 'NONE',  ( -0.000000000000000000, -1.000000000000000000, -0.000000000000000000 ) ) ;
#664 = AXIS2_PLACEMENT_3D ( 'NONE', #403, #416, #676 ) ;
#665 = VERTEX_POINT ( 'NONE', #846 ) ;
#666 = CARTESIAN_POINT ( 'NONE',  ( 1.224646799147353207E-16, 5.649999999999999467, 1.000000000000000000 ) ) ;
#667 = DIRECTION ( 'NONE',  ( 0.000000000000000000, 0.000000000000000000, -1.000000000000000000 ) ) ;
#668 = EDGE_LOOP ( 'NONE', ( #259, #389, #649, #620 ) ) ;
#669 = PRESENTATION_STYLE_ASSIGNMENT (( #349 ) ) ;
#670 = ADVANCED_FACE ( 'NONE', ( #144 ), #705, .T. ) ;
#671 = CARTESIAN_POINT ( 'NONE',  ( 2.353026634888288005, -3.000000000000000000, -0.7988639213507416903 ) ) ;
#672 = VERTEX_POINT ( 'NONE', #507 ) ;
#673 = AXIS2_PLACEMENT_3D ( 'NONE', #429, #508, #781 ) ;
#674 = PRESENTATION_STYLE_ASSIGNMENT (( #401 ) ) ;
#675 = CIRCLE ( 'NONE', #489, 5.000000000000000000 ) ;
#676 = DIRECTION ( 'NONE',  ( 0.000000000000000000, 0.000000000000000000, -1.000000000000000000 ) ) ;
#677 = DIRECTION ( 'NONE',  ( -0.000000000000000000, 1.000000000000000000, -0.000000000000000000 ) ) ;
#678 = EDGE_LOOP ( 'NONE', ( #48, #572, #568, #523 ) ) ;
#679 = AXIS2_PLACEMENT_3D ( 'NONE', #812, #818, #743 ) ;
#680 = SURFACE_STYLE_FILL_AREA ( #49 ) ;
#681 = SURFACE_SIDE_STYLE ('',( #759 ) ) ;
#682 = FACE_OUTER_BOUND ( 'NONE', #392, .T. ) ;
#683 = VERTEX_POINT ( 'NONE', #282 ) ;
#684 = CARTESIAN_POINT ( 'NONE',  ( 0.000000000000000000, -3.000000000000000000, 0.000000000000000000 ) ) ;
#685 = DIRECTION ( 'NONE',  ( 0.000000000000000000, 0.000000000000000000, -1.000000000000000000 ) ) ;
#686 = ORIENTED_EDGE ( 'NONE', *, *, #28, .T. ) ;
#687 = CARTESIAN_POINT ( 'NONE',  ( 6.000769315822030740E-16, 0.000000000000000000, 4.899999999999999467 ) ) ;
#688 = ADVANCED_FACE ( 'NONE', ( #363 ), #566, .T. ) ;
#689 = VECTOR ( 'NONE', #225, 1000.000000000000000 ) ;
#690 = VECTOR ( 'NONE', #102, 1000.000000000000000 ) ;
#691 = FACE_OUTER_BOUND ( 'NONE', #668, .T. ) ;
#692 = CARTESIAN_POINT ( 'NONE',  ( 2.353026634888288005, 0.000000000000000000, 0.7988639213507416903 ) ) ;
#693 = ORIENTED_EDGE ( 'NONE', *, *, #598, .F. ) ;
#694 =( NAMED_UNIT ( * ) SI_UNIT ( $, .STERADIAN. ) SOLID_ANGLE_UNIT ( ) );
#695 = AXIS2_PLACEMENT_3D ( 'NONE', #318, #526, #610 ) ;
#696 = DIRECTION ( 'NONE',  ( 2.320802760567548305E-16, 0.000000000000000000, 1.000000000000000000 ) ) ;
#697 = DIRECTION ( 'NONE',  ( 2.320802760567548305E-16, 0.000000000000000000, -1.000000000000000000 ) ) ;
#698 = EDGE_LOOP ( 'NONE', ( #70, #653 ) ) ;
#699 =( LENGTH_UNIT ( ) NAMED_UNIT ( * ) SI_UNIT ( .MILLI., .METRE. ) );
#700 = PRESENTATION_STYLE_ASSIGNMENT (( #497 ) ) ;
#701 = SURFACE_STYLE_FILL_AREA ( #646 ) ;
#702 = EDGE_CURVE ( 'NONE', #852, #843, #101, .T. ) ;
#703 = ORIENTED_EDGE ( 'NONE', *, *, #558, .T. ) ;
#704 = CARTESIAN_POINT ( 'NONE',  ( 2.353026634888288005, -3.000000000000000000, -0.7988639213507416903 ) ) ;
#705 = PLANE ( 'NONE',  #751 ) ;
#706 = AXIS2_PLACEMENT_3D ( 'NONE', #311, #724, #587 ) ;
#707 = DIRECTION ( 'NONE',  ( -0.000000000000000000, 1.000000000000000000, -0.000000000000000000 ) ) ;
#708 = EDGE_CURVE ( 'NONE', #308, #885, #427, .T. ) ;
#709 = EDGE_LOOP ( 'NONE', ( #485, #741 ) ) ;
#710 = AXIS2_PLACEMENT_3D ( 'NONE', #261, #543, #271 ) ;
#711 = ORIENTED_EDGE ( 'NONE', *, *, #236, .T. ) ;
#712 = DIRECTION ( 'NONE',  ( -0.000000000000000000, -1.000000000000000000, -0.000000000000000000 ) ) ;
#713 = SURFACE_STYLE_USAGE ( .BOTH. , #438 ) ;
#714 = VERTEX_POINT ( 'NONE', #296 ) ;
#715 = DIRECTION ( 'NONE',  ( 0.000000000000000000, 0.000000000000000000, -1.000000000000000000 ) ) ;
#716 = EDGE_CURVE ( 'NONE', #855, #126, #230, .T. ) ;
#717 = EDGE_CURVE ( 'NONE', #829, #148, #834, .T. ) ;
#718 = CARTESIAN_POINT ( 'NONE',  ( -3.287360384319338191, -3.000000000000000000, -0.7988639213507405801 ) ) ;
#719 = VECTOR ( 'NONE', #350, 1000.000000000000000 ) ;
#720 = AXIS2_PLACEMENT_3D ( 'NONE', #790, #662, #804 ) ;
#721 = EDGE_LOOP ( 'NONE', ( #825, #371, #693, #548 ) ) ;
#722 = AXIS2_PLACEMENT_3D ( 'NONE', #85, #712, #715 ) ;
#723 = DIRECTION ( 'NONE',  ( -0.000000000000000000, -1.000000000000000000, -0.000000000000000000 ) ) ;
#724 = DIRECTION ( 'NONE',  ( -0.000000000000000000, -1.000000000000000000, -0.000000000000000000 ) ) ;
#725 = SHAPE_DEFINITION_REPRESENTATION ( #795, #480 ) ;
#726 = ORIENTED_EDGE ( 'NONE', *, *, #859, .F. ) ;
#727 = DIRECTION ( 'NONE',  ( -0.000000000000000000, -1.000000000000000000, -0.000000000000000000 ) ) ;
#728 = ADVANCED_FACE ( 'NONE', ( #219, #769 ), #213, .T. ) ;
#729 = CARTESIAN_POINT ( 'NONE',  ( -3.287360384319338191, -3.000000000000000000, 0.7988639213507405801 ) ) ;
#730 = ORIENTED_EDGE ( 'NONE', *, *, #486, .F. ) ;
#731 = CARTESIAN_POINT ( 'NONE',  ( 0.000000000000000000, 0.000000000000000000, 0.000000000000000000 ) ) ;
#732 = VECTOR ( 'NONE', #44, 1000.000000000000000 ) ;
#733 = DIRECTION ( 'NONE',  ( -0.000000000000000000, -1.000000000000000000, -0.000000000000000000 ) ) ;
#734 = AXIS2_PLACEMENT_3D ( 'NONE', #267, #895, #739 ) ;
#735 = ORIENTED_EDGE ( 'NONE', *, *, #768, .T. ) ;
#736 = DIRECTION ( 'NONE',  ( -0.000000000000000000, -1.000000000000000000, -0.000000000000000000 ) ) ;
#737 = FACE_OUTER_BOUND ( 'NONE', #559, .T. ) ;
#738 = VERTEX_POINT ( 'NONE', #334 ) ;
#739 = DIRECTION ( 'NONE',  ( 0.000000000000000000, -0.000000000000000000, 1.000000000000000000 ) ) ;
#740 = ORIENTED_EDGE ( 'NONE', *, *, #84, .T. ) ;
#741 = ORIENTED_EDGE ( 'NONE', *, *, #503, .F. ) ;
#742 = ADVANCED_FACE ( 'NONE', ( #826, #278 ), #614, .T. ) ;
#743 = DIRECTION ( 'NONE',  ( 0.000000000000000000, 0.000000000000000000, -1.000000000000000000 ) ) ;
#744 = EDGE_CURVE ( 'NONE', #308, #298, #393, .T. ) ;
#745 = CARTESIAN_POINT ( 'NONE',  ( -3.287360384319338191, 0.000000000000000000, 0.7988639213507405801 ) ) ;
#746 = VERTEX_POINT ( 'NONE', #555 ) ;
#747 = VECTOR ( 'NONE', #354, 1000.000000000000000 ) ;
#748 = DIRECTION ( 'NONE',  ( 0.000000000000000000, 0.000000000000000000, -1.000000000000000000 ) ) ;
#749 = CARTESIAN_POINT ( 'NONE',  ( -3.287360384319338191, 0.000000000000000000, 0.7988639213507405801 ) ) ;
#750 =( GEOMETRIC_REPRESENTATION_CONTEXT ( 3 ) GLOBAL_UNCERTAINTY_ASSIGNED_CONTEXT ( ( #391 ) ) GLOBAL_UNIT_ASSIGNED_CONTEXT ( ( #699, #775, #372 ) ) REPRESENTATION_CONTEXT ( 'NONE', 'WORKASPACE' ) );
#751 = AXIS2_PLACEMENT_3D ( 'NONE', #561, #81, #353 ) ;
#752 = ORIENTED_EDGE ( 'NONE', *, *, #143, .T. ) ;
#753 = DIRECTION ( 'NONE',  ( -0.000000000000000000, 1.000000000000000000, -0.000000000000000000 ) ) ;
#754 =( NAMED_UNIT ( * ) PLANE_ANGLE_UNIT ( ) SI_UNIT ( $, .RADIAN. ) );
#755 = CARTESIAN_POINT ( 'NONE',  ( 0.000000000000000000, 5.150000000000000355, -4.999999999999999112 ) ) ;
#756 = EDGE_CURVE ( 'NONE', #400, #609, #194, .T. ) ;
#757 = ORIENTED_EDGE ( 'NONE', *, *, #819, .F. ) ;
#758 = DIRECTION ( 'NONE',  ( 0.000000000000000000, 0.000000000000000000, -1.000000000000000000 ) ) ;
#759 = SURFACE_STYLE_FILL_AREA ( #34 ) ;
#760 = CARTESIAN_POINT ( 'NONE',  ( 0.000000000000000000, 0.000000000000000000, -4.000000000000000000 ) ) ;
#761 = ORIENTED_EDGE ( 'NONE', *, *, #179, .F. ) ;
#762 = CARTESIAN_POINT ( 'NONE',  ( 0.000000000000000000, 5.150000000000000355, 0.000000000000000000 ) ) ;
#763 = DIRECTION ( 'NONE',  ( -0.000000000000000000, 1.000000000000000000, -0.000000000000000000 ) ) ;
#764 = LINE ( 'NONE', #692, #719 ) ;
#765 = VERTEX_POINT ( 'NONE', #127 ) ;
#766 = FILL_AREA_STYLE_COLOUR ( '', #866 ) ;
#767 = PRESENTATION_LAYER_ASSIGNMENT (  '', '', ( #567 ) ) ;
#768 = EDGE_CURVE ( 'NONE', #683, #836, #136, .T. ) ;
#769 = FACE_OUTER_BOUND ( 'NONE', #291, .T. ) ;
#770 = LINE ( 'NONE', #718, #747 ) ;
#771 = ORIENTED_EDGE ( 'NONE', *, *, #3, .T. ) ;
#772 =( LENGTH_UNIT ( ) NAMED_UNIT ( * ) SI_UNIT ( .MILLI., .METRE. ) );
#773 = ADVANCED_FACE ( 'NONE', ( #560 ), #831, .F. ) ;
#774 = ORIENTED_EDGE ( 'NONE', *, *, #613, .F. ) ;
#775 =( NAMED_UNIT ( * ) PLANE_ANGLE_UNIT ( ) SI_UNIT ( $, .RADIAN. ) );
#776 = DIRECTION ( 'NONE',  ( 0.000000000000000000, 0.000000000000000000, -1.000000000000000000 ) ) ;
#777 = AXIS2_PLACEMENT_3D ( 'NONE', #186, #536, #519 ) ;
#778 = DIRECTION ( 'NONE',  ( 0.000000000000000000, -1.000000000000000000, -0.000000000000000000 ) ) ;
#779 = ORIENTED_EDGE ( 'NONE', *, *, #385, .T. ) ;
#780 = CARTESIAN_POINT ( 'NONE',  ( 0.000000000000000000, 0.000000000000000000, 0.8812353757577282565 ) ) ;
#781 = DIRECTION ( 'NONE',  ( 0.000000000000000000, -0.000000000000000000, -1.000000000000000000 ) ) ;
#782 = EDGE_LOOP ( 'NONE', ( #312, #481, #785, #425 ) ) ;
#783 = CYLINDRICAL_SURFACE ( 'NONE', #722, 4.000000000000000000 ) ;
#784 = CARTESIAN_POINT ( 'NONE',  ( 6.123233995736766282E-16, 1.199999999999999956, 5.000000000000000000 ) ) ;
#785 = ORIENTED_EDGE ( 'NONE', *, *, #287, .F. ) ;
#786 = CARTESIAN_POINT ( 'NONE',  ( 2.353026634888288005, 0.000000000000000000, 0.7988639213507416903 ) ) ;
#787 = COLOUR_RGB ( '',0.000000000000000000, 0.000000000000000000, 0.000000000000000000 ) ;
#788 = CARTESIAN_POINT ( 'NONE',  ( 1.224646799147353207E-16, 0.000000000000000000, 1.000000000000000000 ) ) ;
#789 = AXIS2_PLACEMENT_3D ( 'NONE', #629, #158, #76 ) ;
#790 = CARTESIAN_POINT ( 'NONE',  ( 3.287360384319338191, -3.000000000000000000, 0.7988639213507419123 ) ) ;
#791 = MECHANICAL_DESIGN_GEOMETRIC_PRESENTATION_REPRESENTATION (  '', ( #567 ), #539 ) ;
#792 = DIRECTION ( 'NONE',  ( -0.000000000000000000, -1.000000000000000000, -0.000000000000000000 ) ) ;
#793 = PRESENTATION_STYLE_ASSIGNMENT (( #173 ) ) ;
#794 = ORIENTED_EDGE ( 'NONE', *, *, #287, .T. ) ;
#795 = PRODUCT_DEFINITION_SHAPE ( 'NONE', 'NONE',  #821 ) ;
#796 = CARTESIAN_POINT ( 'NONE',  ( 0.000000000000000000, 5.549999999999998934, 0.000000000000000000 ) ) ;
#797 = CARTESIAN_POINT ( 'NONE',  ( 0.000000000000000000, 5.150000000000000355, 0.000000000000000000 ) ) ;
#798 = EDGE_LOOP ( 'NONE', ( #24, #193 ) ) ;
#799 = CARTESIAN_POINT ( 'NONE',  ( 0.000000000000000000, 5.150000000000000355, -4.000000000000000000 ) ) ;
#800 = AXIS2_PLACEMENT_3D ( 'NONE', #36, #452, #875 ) ;
#801 = CARTESIAN_POINT ( 'NONE',  ( 4.898587196589411843E-16, 5.650000000000000355, 3.999999999999999112 ) ) ;
#802 = VECTOR ( 'NONE', #246, 1000.000000000000000 ) ;
#803 = VERTEX_POINT ( 'NONE', #817 ) ;
#804 = DIRECTION ( 'NONE',  ( -0.000000000000000000, 0.000000000000000000, 1.000000000000000000 ) ) ;
#805 = DIRECTION ( 'NONE',  ( -0.000000000000000000, -1.000000000000000000, -0.000000000000000000 ) ) ;
#806 = ORIENTED_EDGE ( 'NONE', *, *, #859, .T. ) ;
#807 = ADVANCED_FACE ( 'NONE', ( #412 ), #492, .F. ) ;
#808 = DIRECTION ( 'NONE',  ( -0.000000000000000000, -1.000000000000000000, -0.000000000000000000 ) ) ;
#809 = ORIENTED_EDGE ( 'NONE', *, *, #103, .F. ) ;
#810 = CARTESIAN_POINT ( 'NONE',  ( 3.287360384319338191, 0.000000000000000000, -0.7988639213507419123 ) ) ;
#811 = MANIFOLD_SOLID_BREP ( 'Boss-Extrude1', #21 ) ;
#812 = CARTESIAN_POINT ( 'NONE',  ( 0.000000000000000000, -3.000000000000000000, 0.000000000000000000 ) ) ;
#813 = FILL_AREA_STYLE ('',( #589 ) ) ;
#814 = DIRECTION ( 'NONE',  ( 0.000000000000000000, 0.000000000000000000, -1.000000000000000000 ) ) ;
#815 = ORIENTED_EDGE ( 'NONE', *, *, #513, .T. ) ;
#816 = VECTOR ( 'NONE', #470, 1000.000000000000000 ) ;
#817 = CARTESIAN_POINT ( 'NONE',  ( 6.000769315822030740E-16, 1.300000000000000044, 4.899999999999999467 ) ) ;
#818 = DIRECTION ( 'NONE',  ( 0.000000000000000000, -1.000000000000000000, 0.000000000000000000 ) ) ;
#819 = EDGE_CURVE ( 'NONE', #14, #836, #451, .T. ) ;
#820 = DIRECTION ( 'NONE',  ( -0.000000000000000000, -1.000000000000000000, -0.000000000000000000 ) ) ;
#821 = PRODUCT_DEFINITION ( 'General', '', #304, #181 ) ;
#822 = VERTEX_POINT ( 'NONE', #810 ) ;
#823 = FILL_AREA_STYLE ('',( #329 ) ) ;
#824 = DIRECTION ( 'NONE',  ( -1.000000000000000000, -0.000000000000000000, -1.160401380283774202E-15 ) ) ;
#825 = ORIENTED_EDGE ( 'NONE', *, *, #897, .T. ) ;
#826 = FACE_BOUND ( 'NONE', #446, .T. ) ;
#827 = CARTESIAN_POINT ( 'NONE',  ( 6.123233995736766282E-16, 6.078974798404159411E-16, 5.000000000000000000 ) ) ;
#828 = DIRECTION ( 'NONE',  ( -0.000000000000000000, -0.000000000000000000, 1.000000000000000000 ) ) ;
#829 = VERTEX_POINT ( 'NONE', #203 ) ;
#830 = EDGE_CURVE ( 'NONE', #803, #14, #66, .T. ) ;
#831 = PLANE ( 'NONE',  #11 ) ;
#832 = VECTOR ( 'NONE', #8, 1000.000000000000000 ) ;
#833 = COLOUR_RGB ( '',1.000000000000000000, 1.000000000000000000, 0.000000000000000000 ) ;
#834 = LINE ( 'NONE', #487, #336 ) ;
#835 = CARTESIAN_POINT ( 'NONE',  ( 0.000000000000000000, -3.000000000000000000, 0.8812353757577282565 ) ) ;
#836 = VERTEX_POINT ( 'NONE', #622 ) ;
#837 = SURFACE_STYLE_USAGE ( .BOTH. , #237 ) ;
#838 = EDGE_CURVE ( 'NONE', #460, #822, #300, .T. ) ;
#839 = PRESENTATION_LAYER_ASSIGNMENT (  '', '', ( #147 ) ) ;
#840 = ADVANCED_FACE ( 'NONE', ( #75 ), #783, .T. ) ;
#841 = DIRECTION ( 'NONE',  ( -0.000000000000000000, -1.000000000000000000, -0.000000000000000000 ) ) ;
#842 = CARTESIAN_POINT ( 'NONE',  ( 1.079202082217116953E-16, -3.000000000000000000, -0.8812353757577282565 ) ) ;
#843 = VERTEX_POINT ( 'NONE', #780 ) ;
#844 = UNCERTAINTY_MEASURE_WITH_UNIT (LENGTH_MEASURE( 1.000000000000000082E-05 ), #191, 'distance_accuracy_value', 'NONE');
#845 =( NAMED_UNIT ( * ) SI_UNIT ( $, .STERADIAN. ) SOLID_ANGLE_UNIT ( ) );
#846 = CARTESIAN_POINT ( 'NONE',  ( 1.079202082217116953E-16, -3.000000000000000000, -0.8812353757577282565 ) ) ;
#847 = FACE_OUTER_BOUND ( 'NONE', #698, .T. ) ;
#848 = ORIENTED_EDGE ( 'NONE', *, *, #873, .T. ) ;
#849 = CIRCLE ( 'NONE', #504, 0.8812353757577282565 ) ;
#850 = CARTESIAN_POINT ( 'NONE',  ( 0.000000000000000000, 0.000000000000000000, -5.000000000000000000 ) ) ;
#851 = EDGE_CURVE ( 'NONE', #327, #627, #233, .T. ) ;
#852 = VERTEX_POINT ( 'NONE', #217 ) ;
#853 = MECHANICAL_DESIGN_GEOMETRIC_PRESENTATION_REPRESENTATION (  '', ( #86 ), #100 ) ;
#854 = LINE ( 'NONE', #842, #533 ) ;
#855 = VERTEX_POINT ( 'NONE', #362 ) ;
#856 = DIRECTION ( 'NONE',  ( -0.000000000000000000, -1.000000000000000000, -0.000000000000000000 ) ) ;
#857 = DIRECTION ( 'NONE',  ( 0.000000000000000000, 0.000000000000000000, -1.000000000000000000 ) ) ;
#858 = CARTESIAN_POINT ( 'NONE',  ( 0.000000000000000000, 1.300000000000000044, 0.000000000000000000 ) ) ;
#859 = EDGE_CURVE ( 'NONE', #382, #599, #145, .T. ) ;
#860 = DIRECTION ( 'NONE',  ( -1.000000000000000000, -0.000000000000000000, -1.160401380283774202E-15 ) ) ;
#861 = STYLED_ITEM ( 'NONE', ( #574 ), #397 ) ;
#862 = DIRECTION ( 'NONE',  ( 1.160401380283774202E-15, 0.000000000000000000, 1.000000000000000000 ) ) ;
#863 = ADVANCED_FACE ( 'NONE', ( #650 ), #79, .T. ) ;
#864 = COLOUR_RGB ( '',0.8980392156862745390, 0.9176470588235293713, 0.9294117647058823817 ) ;
#865 = CARTESIAN_POINT ( 'NONE',  ( 0.000000000000000000, 5.649999999999999467, 0.000000000000000000 ) ) ;
#866 = COLOUR_RGB ( '',0.8980392156862745390, 0.9176470588235293713, 0.9294117647058823817 ) ;
#867 = DIRECTION ( 'NONE',  ( -1.000000000000000000, 0.000000000000000000, -1.160401380283774202E-15 ) ) ;
#868 = ORIENTED_EDGE ( 'NONE', *, *, #179, .T. ) ;
#869 = DIRECTION ( 'NONE',  ( 0.000000000000000000, 0.000000000000000000, -1.000000000000000000 ) ) ;
#870 = CARTESIAN_POINT ( 'NONE',  ( 2.353026634888288005, -3.000000000000000000, 0.7988639213507416903 ) ) ;
#871 = ORIENTED_EDGE ( 'NONE', *, *, #544, .F. ) ;
#872 = CARTESIAN_POINT ( 'NONE',  ( 0.000000000000000000, 1.300000000000000044, 0.000000000000000000 ) ) ;
#873 = EDGE_CURVE ( 'NONE', #746, #460, #368, .T. ) ;
#874 = CIRCLE ( 'NONE', #447, 5.000000000000000000 ) ;
#875 = DIRECTION ( 'NONE',  ( 0.000000000000000000, 0.000000000000000000, -1.000000000000000000 ) ) ;
#876 = AXIS2_PLACEMENT_3D ( 'NONE', #865, #529, #454 ) ;
#877 = ORIENTED_EDGE ( 'NONE', *, *, #486, .T. ) ;
#878 =( LENGTH_UNIT ( ) NAMED_UNIT ( * ) SI_UNIT ( .MILLI., .METRE. ) );
#879 = STYLED_ITEM ( 'NONE', ( #793 ), #480 ) ;
#880 = CARTESIAN_POINT ( 'NONE',  ( -2.353026634888288005, 0.000000000000000000, 0.7988639213507416903 ) ) ;
#881 = AXIS2_PLACEMENT_3D ( 'NONE', #556, #262, #273 ) ;
#882 = SURFACE_SIDE_STYLE ('',( #257 ) ) ;
#883 = SURFACE_SIDE_STYLE ('',( #337 ) ) ;
#884 = CARTESIAN_POINT ( 'NONE',  ( 0.000000000000000000, -3.000000000000000000, 0.000000000000000000 ) ) ;
#885 = VERTEX_POINT ( 'NONE', #642 ) ;
#886 = DIRECTION ( 'NONE',  ( 0.000000000000000000, 1.000000000000000000, 0.000000000000000000 ) ) ;
#887 = EDGE_CURVE ( 'NONE', #382, #617, #149, .T. ) ;
#888 = DIRECTION ( 'NONE',  ( -1.000000000000000000, 0.000000000000000000, -2.320802760567548305E-16 ) ) ;
#889 = ORIENTED_EDGE ( 'NONE', *, *, #369, .T. ) ;
#890 = CIRCLE ( 'NONE', #434, 4.899999999999999467 ) ;
#891 =( NAMED_UNIT ( * ) PLANE_ANGLE_UNIT ( ) SI_UNIT ( $, .RADIAN. ) );
#892 = PRODUCT ( 'magnetic pogo pin connector', 'magnetic pogo pin connector', '', ( #58 ) ) ;
#893 = LINE ( 'NONE', #749, #252 ) ;
#894 = EDGE_LOOP ( 'NONE', ( #182, #386, #356, #98 ) ) ;
#895 = DIRECTION ( 'NONE',  ( 0.000000000000000000, 1.000000000000000000, 0.000000000000000000 ) ) ;
#896 = DIRECTION ( 'NONE',  ( 0.000000000000000000, 0.000000000000000000, -1.000000000000000000 ) ) ;
#897 = EDGE_CURVE ( 'NONE', #599, #382, #592, .T. ) ;
#898 = ORIENTED_EDGE ( 'NONE', *, *, #302, .F. ) ;
#899 = CARTESIAN_POINT ( 'NONE',  ( -3.287360384319338191, -3.000000000000000000, -0.7988639213507405801 ) ) ;
ENDSEC;
END-ISO-10303-21;
