ISO-10303-21;
HEADER;
FILE_DESCRIPTION (( 'STEP AP214' ),
    '1' );
FILE_NAME ('socket countersunk head screw_iso.STEP',
    '2026-08-21T20:26:04',
    ( '' ),
    ( '' ),
    'SwSTEP 2.0',
    'SolidWorks 2025',
    '' );
FILE_SCHEMA (( 'AUTOMOTIVE_DESIGN' ));
ENDSEC;

DATA;
#1 = ORIENTED_EDGE ( 'NONE', *, *, #107, .F. ) ;
#2 = EDGE_CURVE ( 'NONE', #664, #78, #90, .T. ) ;
#3 = DIRECTION ( 'NONE',  ( 0.000000000000000000, -0.4999999999999991118, 0.8660254037844391517 ) ) ;
#4 = FILL_AREA_STYLE ('',( #441 ) ) ;
#5 = ORIENTED_EDGE ( 'NONE', *, *, #22, .F. ) ;
#6 = LINE ( 'NONE', #675, #680 ) ;
#7 = AXIS2_PLACEMENT_3D ( 'NONE', #96, #324, #549 ) ;
#8 = VECTOR ( 'NONE', #33, 1000.000000000000000 ) ;
#9 = LINE ( 'NONE', #294, #42 ) ;
#10 = VECTOR ( 'NONE', #665, 1000.000000000000000 ) ;
#11 = EDGE_LOOP ( 'NONE', ( #366, #43, #596, #509, #645 ) ) ;
#12 = SURFACE_STYLE_USAGE ( .BOTH. , #387 ) ;
#13 = EDGE_CURVE ( 'NONE', #367, #410, #303, .T. ) ;
#14 = EDGE_LOOP ( 'NONE', ( #68, #629 ) ) ;
#15 = DIRECTION ( 'NONE',  ( 0.000000000000000000, 0.000000000000000000, 1.000000000000000000 ) ) ;
#16 = DIRECTION ( 'NONE',  ( -0.7071067811864770736, 8.659560562355798140E-17, -0.7071067811866180719 ) ) ;
#17 = ORIENTED_EDGE ( 'NONE', *, *, #380, .F. ) ;
#18 = DIRECTION ( 'NONE',  ( 1.000000000000000000, 0.000000000000000000, 0.000000000000000000 ) ) ;
#19 = LINE ( 'NONE', #69, #350 ) ;
#20 = ORIENTED_EDGE ( 'NONE', *, *, #228, .T. ) ;
#21 = CIRCLE ( 'NONE', #183, 1.500000000000023537 ) ;
#22 = EDGE_CURVE ( 'NONE', #359, #203, #425, .T. ) ;
#23 =( NAMED_UNIT ( * ) PLANE_ANGLE_UNIT ( ) SI_UNIT ( $, .RADIAN. ) );
#24 = FACE_OUTER_BOUND ( 'NONE', #302, .T. ) ;
#25 = EDGE_LOOP ( 'NONE', ( #29, #193, #166, #70, #85, #541 ) ) ;
#26 = ORIENTED_EDGE ( 'NONE', *, *, #283, .F. ) ;
#27 = DIRECTION ( 'NONE',  ( 0.000000000000000000, 0.000000000000000000, 1.000000000000000000 ) ) ;
#28 = DIRECTION ( 'NONE',  ( -1.000000000000000000, -0.000000000000000000, -0.000000000000000000 ) ) ;
#29 = ORIENTED_EDGE ( 'NONE', *, *, #402, .T. ) ;
#30 = DIRECTION ( 'NONE',  ( 0.000000000000000000, 0.5000000000000001110, 0.8660254037844385966 ) ) ;
#31 = ORIENTED_EDGE ( 'NONE', *, *, #239, .F. ) ;
#32 = TOROIDAL_SURFACE ( 'NONE', #65, 1.600000000000012523, 0.1000000000000000056 ) ;
#33 = DIRECTION ( 'NONE',  ( 0.000000000000000000, 0.5000000000000001110, 0.8660254037844385966 ) ) ;
#34 = CARTESIAN_POINT ( 'NONE',  ( 1.901421356237302351, 1.836970198721044972E-16, -1.500000000000012434 ) ) ;
#35 = ORIENTED_EDGE ( 'NONE', *, *, #498, .F. ) ;
#36 = CARTESIAN_POINT ( 'NONE',  ( 1.100000000000000311, 0.000000000000000000, 0.000000000000000000 ) ) ;
#37 = DIRECTION ( 'NONE',  ( 0.000000000000000000, 0.000000000000000000, 1.000000000000000000 ) ) ;
#38 = ORIENTED_EDGE ( 'NONE', *, *, #341, .F. ) ;
#39 = PLANE ( 'NONE',  #230 ) ;
#40 = DIRECTION ( 'NONE',  ( 0.000000000000000000, 0.000000000000000000, 1.000000000000000000 ) ) ;
#41 = CIRCLE ( 'NONE', #557, 1.000000000000000000 ) ;
#42 = VECTOR ( 'NONE', #508, 1000.000000000000114 ) ;
#43 = ORIENTED_EDGE ( 'NONE', *, *, #540, .F. ) ;
#44 = ADVANCED_FACE ( 'NONE', ( #655 ), #428, .T. ) ;
#45 = PLANE ( 'NONE',  #242 ) ;
#46 = FACE_OUTER_BOUND ( 'NONE', #98, .T. ) ;
#47 = DIRECTION ( 'NONE',  ( 0.000000000000000000, 1.000000000000000000, 0.000000000000000000 ) ) ;
#48 = CARTESIAN_POINT ( 'NONE',  ( 7.999999999999992895, 0.000000000000000000, 0.000000000000000000 ) ) ;
#49 = PRESENTATION_LAYER_ASSIGNMENT (  '', '', ( #357 ) ) ;
#50 = FACE_OUTER_BOUND ( 'NONE', #545, .T. ) ;
#51 = CARTESIAN_POINT ( 'NONE',  ( 0.000000000000000000, 0.000000000000000000, 0.000000000000000000 ) ) ;
#52 = PRESENTATION_LAYER_ASSIGNMENT (  '', '', ( #650 ) ) ;
#53 = ADVANCED_FACE ( 'NONE', ( #703 ), #217, .T. ) ;
#54 = DIRECTION ( 'NONE',  ( 0.000000000000000000, -0.4999999999999987232, 0.8660254037844393737 ) ) ;
#55 = CARTESIAN_POINT ( 'NONE',  ( 1.100000000000000089, -0.8660254037844383745, -0.4999999999999980571 ) ) ;
#56 = ORIENTED_EDGE ( 'NONE', *, *, #80, .T. ) ;
#57 = EDGE_CURVE ( 'NONE', #422, #203, #146, .T. ) ;
#58 = DIRECTION ( 'NONE',  ( -0.7071067811864770736, 0.000000000000000000, 0.7071067811866180719 ) ) ;
#59 = ORIENTED_EDGE ( 'NONE', *, *, #260, .T. ) ;
#60 = DIRECTION ( 'NONE',  ( 0.000000000000000000, 0.8660254037844400399, -0.4999999999999976130 ) ) ;
#61 = DIRECTION ( 'NONE',  ( 1.000000000000000000, -0.000000000000000000, 0.000000000000000000 ) ) ;
#62 = VERTEX_POINT ( 'NONE', #275 ) ;
#63 = CARTESIAN_POINT ( 'NONE',  ( 0.5900000000000106271, 0.000000000000000000, 0.000000000000000000 ) ) ;
#64 = EDGE_CURVE ( 'NONE', #83, #404, #268, .T. ) ;
#65 = AXIS2_PLACEMENT_3D ( 'NONE', #297, #693, #641 ) ;
#66 = CARTESIAN_POINT ( 'NONE',  ( 0.000000000000000000, 0.000000000000000000, 0.000000000000000000 ) ) ;
#67 = AXIS2_PLACEMENT_3D ( 'NONE', #386, #437, #231 ) ;
#68 = ORIENTED_EDGE ( 'NONE', *, *, #364, .T. ) ;
#69 = CARTESIAN_POINT ( 'NONE',  ( 1.100000000000000089, -0.5773502691896253980, -1.000000000000000000 ) ) ;
#70 = ORIENTED_EDGE ( 'NONE', *, *, #265, .T. ) ;
#71 = SURFACE_STYLE_USAGE ( .BOTH. , #569 ) ;
#72 = LINE ( 'NONE', #589, #486 ) ;
#73 = EDGE_LOOP ( 'NONE', ( #419, #454, #456, #235, #622 ) ) ;
#74 = ADVANCED_FACE ( 'NONE', ( #601 ), #570, .T. ) ;
#75 = VECTOR ( 'NONE', #100, 1000.000000000000000 ) ;
#76 = DIRECTION ( 'NONE',  ( 0.000000000000000000, 0.000000000000000000, -1.000000000000000000 ) ) ;
#77 = CIRCLE ( 'NONE', #533, 1.219500000000000917 ) ;
#78 = VERTEX_POINT ( 'NONE', #259 ) ;
#79 = VECTOR ( 'NONE', #323, 1000.000000000000114 ) ;
#80 = EDGE_CURVE ( 'NONE', #229, #295, #41, .T. ) ;
#81 = FILL_AREA_STYLE ('',( #632 ) ) ;
#82 = FACE_OUTER_BOUND ( 'NONE', #340, .T. ) ;
#83 = VERTEX_POINT ( 'NONE', #433 ) ;
#84 = DIRECTION ( 'NONE',  ( 0.000000000000000000, -1.000000000000000000, 1.502314598737158637E-15 ) ) ;
#85 = ORIENTED_EDGE ( 'NONE', *, *, #321, .T. ) ;
#86 = MECHANICAL_DESIGN_GEOMETRIC_PRESENTATION_REPRESENTATION (  '', ( #357 ), #264 ) ;
#87 = VECTOR ( 'NONE', #172, 1000.000000000000114 ) ;
#88 = DIRECTION ( 'NONE',  ( -1.000000000000000000, -0.000000000000000000, -0.000000000000000000 ) ) ;
#89 = EDGE_CURVE ( 'NONE', #410, #367, #572, .T. ) ;
#90 = LINE ( 'NONE', #653, #683 ) ;
#91 = VECTOR ( 'NONE', #152, 1000.000000000000000 ) ;
#92 = CARTESIAN_POINT ( 'NONE',  ( 1.830710678118647516, 0.000000000000000000, 1.529289321881357910 ) ) ;
#93 = LINE ( 'NONE', #320, #584 ) ;
#94 = ORIENTED_EDGE ( 'NONE', *, *, #649, .T. ) ;
#95 = DIRECTION ( 'NONE',  ( 0.000000000000000000, 0.000000000000000000, -1.000000000000000000 ) ) ;
#96 = CARTESIAN_POINT ( 'NONE',  ( 1.830710678118647516, 0.000000000000000000, 0.000000000000000000 ) ) ;
#97 = ADVANCED_FACE ( 'NONE', ( #46 ), #709, .F. ) ;
#98 = EDGE_LOOP ( 'NONE', ( #31, #528, #200, #56, #207 ) ) ;
#99 = DIRECTION ( 'NONE',  ( 0.000000000000000000, 0.000000000000000000, 1.000000000000000000 ) ) ;
#100 = DIRECTION ( 'NONE',  ( -1.000000000000000000, -0.000000000000000000, -0.000000000000000000 ) ) ;
#101 = ADVANCED_FACE ( 'NONE', ( #160 ), #718, .F. ) ;
#102 = CARTESIAN_POINT ( 'NONE',  ( 1.100000000000000089, 0.5773502691896258421, -1.000000000000000000 ) ) ;
#103 = DIRECTION ( 'NONE',  ( -1.000000000000000000, -0.000000000000000000, -0.000000000000000000 ) ) ;
#104 = FACE_OUTER_BOUND ( 'NONE', #481, .T. ) ;
#105 = PLANE ( 'NONE',  #595 ) ;
#106 = DIRECTION ( 'NONE',  ( 0.000000000000000000, 1.000000000000000000, 0.000000000000000000 ) ) ;
#107 = EDGE_CURVE ( 'NONE', #247, #139, #373, .T. ) ;
#108 = CARTESIAN_POINT ( 'NONE',  ( 1.100000000000000311, 0.000000000000000000, 0.000000000000000000 ) ) ;
#109 = VERTEX_POINT ( 'NONE', #384 ) ;
#110 = AXIS2_PLACEMENT_3D ( 'NONE', #480, #539, #209 ) ;
#111 = AXIS2_PLACEMENT_3D ( 'NONE', #36, #326, #535 ) ;
#112 = DIRECTION ( 'NONE',  ( 0.000000000000000000, 0.000000000000000000, 1.000000000000000000 ) ) ;
#113 = DIRECTION ( 'NONE',  ( 0.000000000000000000, -0.4999999999999976130, -0.8660254037844400399 ) ) ;
#114 = ORIENTED_EDGE ( 'NONE', *, *, #80, .F. ) ;
#115 = FACE_OUTER_BOUND ( 'NONE', #698, .T. ) ;
#116 = CARTESIAN_POINT ( 'NONE',  ( 0.000000000000000000, 0.5773502691896258421, -1.000000000000000000 ) ) ;
#117 = VERTEX_POINT ( 'NONE', #713 ) ;
#118 = ADVANCED_FACE ( 'NONE', ( #609 ), #161, .T. ) ;
#119 = CARTESIAN_POINT ( 'NONE',  ( 1.100000000000000089, 0.5773502691896258421, 0.9999999999999991118 ) ) ;
#120 = DIRECTION ( 'NONE',  ( -1.000000000000000000, -0.000000000000000000, -0.000000000000000000 ) ) ;
#121 = ORIENTED_EDGE ( 'NONE', *, *, #507, .T. ) ;
#122 = CARTESIAN_POINT ( 'NONE',  ( 1.100000000000000311, 0.000000000000000000, 0.000000000000000000 ) ) ;
#123 = VECTOR ( 'NONE', #355, 1000.000000000000000 ) ;
#124 = VECTOR ( 'NONE', #362, 1000.000000000000114 ) ;
#125 = LINE ( 'NONE', #403, #256 ) ;
#126 = VERTEX_POINT ( 'NONE', #34 ) ;
#127 = APPLICATION_CONTEXT ( 'automotive_design' ) ;
#128 =( LENGTH_UNIT ( ) NAMED_UNIT ( * ) SI_UNIT ( .MILLI., .METRE. ) );
#129 = CARTESIAN_POINT ( 'NONE',  ( 1.100000000000000089, -0.5773502691896253980, -1.000000000000000000 ) ) ;
#130 = EDGE_CURVE ( 'NONE', #422, #189, #383, .T. ) ;
#131 = ORIENTED_EDGE ( 'NONE', *, *, #133, .F. ) ;
#132 = CARTESIAN_POINT ( 'NONE',  ( 0.000000000000000000, 0.5773502691896258421, 0.9999999999999991118 ) ) ;
#133 = EDGE_CURVE ( 'NONE', #109, #472, #93, .T. ) ;
#134 = VERTEX_POINT ( 'NONE', #116 ) ;
#135 =( NAMED_UNIT ( * ) SI_UNIT ( $, .STERADIAN. ) SOLID_ANGLE_UNIT ( ) );
#136 = AXIS2_PLACEMENT_3D ( 'NONE', #658, #378, #376 ) ;
#137 = LINE ( 'NONE', #461, #123 ) ;
#138 = AXIS2_PLACEMENT_3D ( 'NONE', #272, #544, #40 ) ;
#139 = VERTEX_POINT ( 'NONE', #571 ) ;
#140 = DIRECTION ( 'NONE',  ( -1.000000000000000000, -0.000000000000000000, -0.000000000000000000 ) ) ;
#141 = CARTESIAN_POINT ( 'NONE',  ( 0.000000000000000000, 0.5773502691896258421, -1.000000000000000000 ) ) ;
#142 = ORIENTED_EDGE ( 'NONE', *, *, #173, .T. ) ;
#143 = EDGE_CURVE ( 'NONE', #398, #363, #450, .T. ) ;
#144 = ORIENTED_EDGE ( 'NONE', *, *, #265, .F. ) ;
#145 = DIRECTION ( 'NONE',  ( -1.000000000000000000, -0.000000000000000000, -0.000000000000000000 ) ) ;
#146 = LINE ( 'NONE', #708, #75 ) ;
#147 = DIRECTION ( 'NONE',  ( -1.000000000000000000, -0.000000000000000000, -0.000000000000000000 ) ) ;
#148 = DIRECTION ( 'NONE',  ( -1.000000000000000000, -0.000000000000000000, -0.000000000000000000 ) ) ;
#149 = AXIS2_PLACEMENT_3D ( 'NONE', #48, #214, #648 ) ;
#150 = VECTOR ( 'NONE', #30, 1000.000000000000000 ) ;
#151 = ORIENTED_EDGE ( 'NONE', *, *, #531, .F. ) ;
#152 = DIRECTION ( 'NONE',  ( 0.000000000000000000, -0.4999999999999976130, -0.8660254037844400399 ) ) ;
#153 = EDGE_CURVE ( 'NONE', #117, #134, #168, .T. ) ;
#154 = ORIENTED_EDGE ( 'NONE', *, *, #579, .F. ) ;
#155 = ORIENTED_EDGE ( 'NONE', *, *, #57, .T. ) ;
#156 = CARTESIAN_POINT ( 'NONE',  ( 0.5900000000000106271, 0.000000000000000000, 2.770000000000000018 ) ) ;
#157 = DIRECTION ( 'NONE',  ( 0.000000000000000000, -1.000000000000000000, 1.502314598737158637E-15 ) ) ;
#158 = ADVANCED_FACE ( 'NONE', ( #625, #724 ), #105, .T. ) ;
#159 = CARTESIAN_POINT ( 'NONE',  ( 1.901421356237302351, 0.000000000000000000, 0.000000000000000000 ) ) ;
#160 = FACE_OUTER_BOUND ( 'NONE', #198, .T. ) ;
#161 = CONICAL_SURFACE ( 'NONE', #254, 1.219500000000000917, 0.7853981633975480880 ) ;
#162 = VECTOR ( 'NONE', #243, 1000.000000000000000 ) ;
#163 = CARTESIAN_POINT ( 'NONE',  ( 0.000000000000000000, 0.000000000000000000, 1.500000000000012434 ) ) ;
#164 = CARTESIAN_POINT ( 'NONE',  ( 1.100000000000000089, -1.154700538379249020, -1.447295875440451486E-16 ) ) ;
#165 = LINE ( 'NONE', #554, #696 ) ;
#166 = ORIENTED_EDGE ( 'NONE', *, *, #666, .T. ) ;
#167 = PLANE ( 'NONE',  #288 ) ;
#168 = LINE ( 'NONE', #617, #337 ) ;
#169 = ORIENTED_EDGE ( 'NONE', *, *, #260, .F. ) ;
#170 = CIRCLE ( 'NONE', #670, 1.500000000000012434 ) ;
#171 = AXIS2_PLACEMENT_3D ( 'NONE', #180, #28, #246 ) ;
#172 = DIRECTION ( 'NONE',  ( 0.000000000000000000, 0.4999999999999986677, -0.8660254037844393737 ) ) ;
#173 = EDGE_CURVE ( 'NONE', #410, #422, #9, .T. ) ;
#174 = ORIENTED_EDGE ( 'NONE', *, *, #251, .F. ) ;
#175 = CARTESIAN_POINT ( 'NONE',  ( 1.100000000000000089, -1.154700538379249020, -1.447295875440451486E-16 ) ) ;
#176 = SURFACE_STYLE_FILL_AREA ( #4 ) ;
#177 = MANIFOLD_SOLID_BREP ( 'Hex', #594 ) ;
#178 = ORIENTED_EDGE ( 'NONE', *, *, #341, .T. ) ;
#179 = ADVANCED_FACE ( 'NONE', ( #512 ), #232, .T. ) ;
#180 = CARTESIAN_POINT ( 'NONE',  ( 1.100000000000000311, 0.000000000000000000, 0.000000000000000000 ) ) ;
#181 = ORIENTED_EDGE ( 'NONE', *, *, #2, .T. ) ;
#182 = AXIS2_PLACEMENT_3D ( 'NONE', #483, #148, #598 ) ;
#183 = AXIS2_PLACEMENT_3D ( 'NONE', #368, #475, #213 ) ;
#184 = FACE_OUTER_BOUND ( 'NONE', #562, .T. ) ;
#185 = VERTEX_POINT ( 'NONE', #348 ) ;
#186 = PRODUCT_CONTEXT ( 'NONE', #567, 'mechanical' ) ;
#187 = EDGE_CURVE ( 'NONE', #78, #83, #195, .T. ) ;
#188 = DIRECTION ( 'NONE',  ( 0.000000000000000000, 0.000000000000000000, -1.000000000000000000 ) ) ;
#189 = VERTEX_POINT ( 'NONE', #663 ) ;
#190 = LINE ( 'NONE', #511, #706 ) ;
#191 = DIRECTION ( 'NONE',  ( 0.000000000000000000, -1.000000000000000000, 0.000000000000000000 ) ) ;
#192 = AXIS2_PLACEMENT_3D ( 'NONE', #393, #620, #112 ) ;
#193 = ORIENTED_EDGE ( 'NONE', *, *, #335, .T. ) ;
#194 = DIRECTION ( 'NONE',  ( 0.000000000000000000, -1.502314598737158440E-15, -1.000000000000000000 ) ) ;
#195 = CIRCLE ( 'NONE', #218, 1.000000000000000000 ) ;
#196 = DIRECTION ( 'NONE',  ( -0.5000000000000042188, 0.000000000000000000, 0.8660254037844361541 ) ) ;
#197 = CIRCLE ( 'NONE', #292, 1.500000000000012434 ) ;
#198 = EDGE_LOOP ( 'NONE', ( #513, #169, #575 ) ) ;
#199 = ADVANCED_FACE ( 'NONE', ( #332 ), #390, .F. ) ;
#200 = ORIENTED_EDGE ( 'NONE', *, *, #464, .T. ) ;
#201 = DIRECTION ( 'NONE',  ( -1.000000000000000000, -0.000000000000000000, -0.000000000000000000 ) ) ;
#202 = ORIENTED_EDGE ( 'NONE', *, *, #649, .F. ) ;
#203 = VERTEX_POINT ( 'NONE', #334 ) ;
#204 = CARTESIAN_POINT ( 'NONE',  ( 1.100000000000000089, -0.5773502691896261751, 1.000000000000000888 ) ) ;
#205 = CARTESIAN_POINT ( 'NONE',  ( 1.100000000000000311, 0.000000000000000000, 0.000000000000000000 ) ) ;
#206 =( GEOMETRIC_REPRESENTATION_CONTEXT ( 3 ) GLOBAL_UNCERTAINTY_ASSIGNED_CONTEXT ( ( #343 ) ) GLOBAL_UNIT_ASSIGNED_CONTEXT ( ( #128, #585, #249 ) ) REPRESENTATION_CONTEXT ( 'NONE', 'WORKASPACE' ) );
#207 = ORIENTED_EDGE ( 'NONE', *, *, #307, .T. ) ;
#208 = CARTESIAN_POINT ( 'NONE',  ( 1.100000000000000089, 1.154700538379250796, -1.767059508710385824E-15 ) ) ;
#209 = DIRECTION ( 'NONE',  ( 0.000000000000000000, 0.000000000000000000, 1.000000000000000000 ) ) ;
#210 = CARTESIAN_POINT ( 'NONE',  ( 1.100000000000000089, 0.8660254037844385966, -0.5000000000000001110 ) ) ;
#211 = EDGE_CURVE ( 'NONE', #295, #109, #165, .T. ) ;
#212 = CARTESIAN_POINT ( 'NONE',  ( 7.999999999999992895, 0.000000000000000000, 0.000000000000000000 ) ) ;
#213 = DIRECTION ( 'NONE',  ( 0.000000000000000000, 0.000000000000000000, 1.000000000000000000 ) ) ;
#214 = DIRECTION ( 'NONE',  ( -1.000000000000000000, -0.000000000000000000, -0.000000000000000000 ) ) ;
#215 = AXIS2_PLACEMENT_3D ( 'NONE', #63, #640, #15 ) ;
#216 = DIRECTION ( 'NONE',  ( -0.000000000000000000, 0.8660254037844393737, 0.4999999999999987232 ) ) ;
#217 = PLANE ( 'NONE',  #583 ) ;
#218 = AXIS2_PLACEMENT_3D ( 'NONE', #108, #621, #344 ) ;
#219 = ADVANCED_FACE ( 'NONE', ( #561 ), #558, .T. ) ;
#220 = AXIS2_PLACEMENT_3D ( 'NONE', #630, #319, #600 ) ;
#221 = CARTESIAN_POINT ( 'NONE',  ( 1.100000000000000089, -0.5773502691896253980, -1.000000000000000000 ) ) ;
#222 = DIRECTION ( 'NONE',  ( -1.000000000000000000, -0.000000000000000000, -0.000000000000000000 ) ) ;
#223 = ORIENTED_EDGE ( 'NONE', *, *, #430, .F. ) ;
#224 =( NAMED_UNIT ( * ) PLANE_ANGLE_UNIT ( ) SI_UNIT ( $, .RADIAN. ) );
#225 = ORIENTED_EDGE ( 'NONE', *, *, #2, .F. ) ;
#226 = PRODUCT_DEFINITION_FORMATION_WITH_SPECIFIED_SOURCE ( 'Symmetric', '', #370, .NOT_KNOWN. ) ;
#227 = LINE ( 'NONE', #669, #591 ) ;
#228 = EDGE_CURVE ( 'NONE', #529, #491, #77, .T. ) ;
#229 = VERTEX_POINT ( 'NONE', #55 ) ;
#230 = AXIS2_PLACEMENT_3D ( 'NONE', #267, #651, #95 ) ;
#231 = DIRECTION ( 'NONE',  ( 0.000000000000000000, -1.224646799147353207E-16, 1.000000000000000000 ) ) ;
#232 = CYLINDRICAL_SURFACE ( 'NONE', #447, 2.770000000000000906 ) ;
#233 = VERTEX_POINT ( 'NONE', #530 ) ;
#234 =( NAMED_UNIT ( * ) SI_UNIT ( $, .STERADIAN. ) SOLID_ANGLE_UNIT ( ) );
#235 = ORIENTED_EDGE ( 'NONE', *, *, #485, .T. ) ;
#236 = DIRECTION ( 'NONE',  ( 0.000000000000000000, 1.000000000000000000, -1.502314598737158440E-15 ) ) ;
#237 = DIRECTION ( 'NONE',  ( 0.000000000000000000, 0.000000000000000000, 1.000000000000000000 ) ) ;
#238 = ORIENTED_EDGE ( 'NONE', *, *, #211, .T. ) ;
#239 = EDGE_CURVE ( 'NONE', #247, #78, #72, .T. ) ;
#240 = APPLICATION_PROTOCOL_DEFINITION ( 'draft international standard', 'automotive_design', 1998, #567 ) ;
#241 = AXIS2_PLACEMENT_3D ( 'NONE', #269, #593, #536 ) ;
#242 = AXIS2_PLACEMENT_3D ( 'NONE', #538, #699, #489 ) ;
#243 = DIRECTION ( 'NONE',  ( 0.000000000000000000, 0.5000000000000001110, 0.8660254037844385966 ) ) ;
#244 = ORIENTED_EDGE ( 'NONE', *, *, #507, .F. ) ;
#245 = UNCERTAINTY_MEASURE_WITH_UNIT (LENGTH_MEASURE( 1.000000000000000082E-05 ), #304, 'distance_accuracy_value', 'NONE');
#246 = DIRECTION ( 'NONE',  ( 0.000000000000000000, 0.000000000000000000, 1.000000000000000000 ) ) ;
#247 = VERTEX_POINT ( 'NONE', #581 ) ;
#248 = ORIENTED_EDGE ( 'NONE', *, *, #13, .F. ) ;
#249 =( NAMED_UNIT ( * ) SI_UNIT ( $, .STERADIAN. ) SOLID_ANGLE_UNIT ( ) );
#250 = CARTESIAN_POINT ( 'NONE',  ( 1.901421356237302351, 0.000000000000000000, 1.600000000000012523 ) ) ;
#251 = EDGE_CURVE ( 'NONE', #126, #582, #170, .T. ) ;
#252 = ORIENTED_EDGE ( 'NONE', *, *, #13, .T. ) ;
#253 = VERTEX_POINT ( 'NONE', #129 ) ;
#254 = AXIS2_PLACEMENT_3D ( 'NONE', #212, #103, #263 ) ;
#255 = CARTESIAN_POINT ( 'NONE',  ( 1.100000000000000311, 0.000000000000000000, 0.000000000000000000 ) ) ;
#256 = VECTOR ( 'NONE', #574, 1000.000000000000114 ) ;
#257 = ORIENTED_EDGE ( 'NONE', *, *, #623, .F. ) ;
#258 = CARTESIAN_POINT ( 'NONE',  ( 1.901421356237302351, 0.000000000000000000, 0.000000000000000000 ) ) ;
#259 = CARTESIAN_POINT ( 'NONE',  ( 1.100000000000000089, 1.502314598737158637E-15, 1.000000000000000000 ) ) ;
#260 = EDGE_CURVE ( 'NONE', #78, #398, #137, .T. ) ;
#261 = ORIENTED_EDGE ( 'NONE', *, *, #402, .F. ) ;
#262 = CARTESIAN_POINT ( 'NONE',  ( 0.5900000000000106271, 0.000000000000000000, 0.000000000000000000 ) ) ;
#263 = DIRECTION ( 'NONE',  ( 0.000000000000000000, 0.000000000000000000, 1.000000000000000000 ) ) ;
#264 =( GEOMETRIC_REPRESENTATION_CONTEXT ( 3 ) GLOBAL_UNCERTAINTY_ASSIGNED_CONTEXT ( ( #245 ) ) GLOBAL_UNIT_ASSIGNED_CONTEXT ( ( #304, #23, #135 ) ) REPRESENTATION_CONTEXT ( 'NONE', 'WORKASPACE' ) );
#265 = EDGE_CURVE ( 'NONE', #134, #233, #688, .T. ) ;
#266 = ORIENTED_EDGE ( 'NONE', *, *, #187, .T. ) ;
#267 = CARTESIAN_POINT ( 'NONE',  ( 1.100000000000000089, -0.5773502691896255090, -1.000000000000000000 ) ) ;
#268 = CIRCLE ( 'NONE', #382, 1.000000000000000000 ) ;
#269 = CARTESIAN_POINT ( 'NONE',  ( 1.100000000000000089, -0.5773502691896255090, -1.000000000000000000 ) ) ;
#270 = AXIS2_PLACEMENT_3D ( 'NONE', #262, #145, #99 ) ;
#271 = DIRECTION ( 'NONE',  ( 0.000000000000000000, 0.000000000000000000, 1.000000000000000000 ) ) ;
#272 = CARTESIAN_POINT ( 'NONE',  ( 1.100000000000000311, 0.000000000000000000, 0.000000000000000000 ) ) ;
#273 = FACE_OUTER_BOUND ( 'NONE', #11, .T. ) ;
#274 = ADVANCED_FACE ( 'NONE', ( #82 ), #636, .F. ) ;
#275 = CARTESIAN_POINT ( 'NONE',  ( 1.100000000000000089, 1.154700538379250796, -1.767059508710385824E-15 ) ) ;
#276 = AXIS2_PLACEMENT_3D ( 'NONE', #660, #331, #552 ) ;
#277 = LINE ( 'NONE', #163, #10 ) ;
#278 = DIRECTION ( 'NONE',  ( 0.000000000000000000, 0.000000000000000000, 1.000000000000000000 ) ) ;
#279 = ORIENTED_EDGE ( 'NONE', *, *, #64, .F. ) ;
#280 = VECTOR ( 'NONE', #432, 1000.000000000000114 ) ;
#281 = CARTESIAN_POINT ( 'NONE',  ( 7.719500000000026674, 1.836970198721058530E-16, -1.500000000000023537 ) ) ;
#282 = ORIENTED_EDGE ( 'NONE', *, *, #409, .F. ) ;
#283 = EDGE_CURVE ( 'NONE', #253, #139, #19, .T. ) ;
#284 = LINE ( 'NONE', #221, #697 ) ;
#285 = DIRECTION ( 'NONE',  ( 0.000000000000000000, 0.000000000000000000, 1.000000000000000000 ) ) ;
#286 = ORIENTED_EDGE ( 'NONE', *, *, #130, .T. ) ;
#287 = EDGE_CURVE ( 'NONE', #410, #582, #317, .T. ) ;
#288 = AXIS2_PLACEMENT_3D ( 'NONE', #613, #444, #434 ) ;
#289 = DIRECTION ( 'NONE',  ( 0.000000000000000000, 0.4999999999999976130, 0.8660254037844400399 ) ) ;
#290 = DIRECTION ( 'NONE',  ( -1.000000000000000000, -0.000000000000000000, -0.000000000000000000 ) ) ;
#291 = ORIENTED_EDGE ( 'NONE', *, *, #153, .F. ) ;
#292 = AXIS2_PLACEMENT_3D ( 'NONE', #258, #702, #371 ) ;
#293 = SURFACE_STYLE_FILL_AREA ( #81 ) ;
#294 = CARTESIAN_POINT ( 'NONE',  ( 0.5900000000000106271, 0.000000000000000000, 2.770000000000000018 ) ) ;
#295 = VERTEX_POINT ( 'NONE', #365 ) ;
#296 = DIRECTION ( 'NONE',  ( -1.000000000000000000, -0.000000000000000000, -0.000000000000000000 ) ) ;
#297 = CARTESIAN_POINT ( 'NONE',  ( 1.901421356237302351, 0.000000000000000000, 0.000000000000000000 ) ) ;
#298 = ADVANCED_FACE ( 'NONE', ( #24 ), #633, .F. ) ;
#299 = EDGE_LOOP ( 'NONE', ( #1, #420, #266, #690, #462 ) ) ;
#300 = AXIS2_PLACEMENT_3D ( 'NONE', #122, #460, #468 ) ;
#301 = CARTESIAN_POINT ( 'NONE',  ( 1.100000000000000089, -0.5773502691896255090, -1.000000000000000000 ) ) ;
#302 = EDGE_LOOP ( 'NONE', ( #35, #439, #17 ) ) ;
#303 = CIRCLE ( 'NONE', #457, 1.529289321881357910 ) ;
#304 =( LENGTH_UNIT ( ) NAMED_UNIT ( * ) SI_UNIT ( .MILLI., .METRE. ) );
#305 = DIRECTION ( 'NONE',  ( 0.000000000000000000, 0.000000000000000000, -1.000000000000000000 ) ) ;
#306 = ORIENTED_EDGE ( 'NONE', *, *, #553, .T. ) ;
#307 = EDGE_CURVE ( 'NONE', #295, #78, #448, .T. ) ;
#308 = CARTESIAN_POINT ( 'NONE',  ( 0.000000000000000000, 3.392271633638170487E-16, -2.770000000000001350 ) ) ;
#309 = ORIENTED_EDGE ( 'NONE', *, *, #57, .F. ) ;
#310 = ORIENTED_EDGE ( 'NONE', *, *, #722, .F. ) ;
#311 = EDGE_CURVE ( 'NONE', #404, #62, #578, .T. ) ;
#312 = CARTESIAN_POINT ( 'NONE',  ( 0.000000000000000000, 0.000000000000000000, 0.000000000000000000 ) ) ;
#313 = AXIS2_PLACEMENT_3D ( 'NONE', #175, #216, #54 ) ;
#314 = ORIENTED_EDGE ( 'NONE', *, *, #694, .T. ) ;
#315 = PRODUCT_DEFINITION_CONTEXT ( 'detailed design', #127, 'design' ) ;
#316 = CARTESIAN_POINT ( 'NONE',  ( 0.000000000000000000, 1.836970198721044972E-16, -1.500000000000012434 ) ) ;
#317 = CIRCLE ( 'NONE', #328, 0.1000000000000000472 ) ;
#318 = DIRECTION ( 'NONE',  ( 1.000000000000000000, 0.000000000000000000, 0.000000000000000000 ) ) ;
#319 = DIRECTION ( 'NONE',  ( -1.000000000000000000, -0.000000000000000000, -0.000000000000000000 ) ) ;
#320 = CARTESIAN_POINT ( 'NONE',  ( 1.100000000000000089, -1.154700538379249020, -1.447295875440451486E-16 ) ) ;
#321 = EDGE_CURVE ( 'NONE', #233, #466, #679, .T. ) ;
#322 = ORIENTED_EDGE ( 'NONE', *, *, #715, .T. ) ;
#323 = DIRECTION ( 'NONE',  ( -0.7071067811865460184, 8.659560562354951347E-17, -0.7071067811865489050 ) ) ;
#324 = DIRECTION ( 'NONE',  ( -1.000000000000000000, -0.000000000000000000, -0.000000000000000000 ) ) ;
#325 = ORIENTED_EDGE ( 'NONE', *, *, #553, .F. ) ;
#326 = DIRECTION ( 'NONE',  ( -1.000000000000000000, -0.000000000000000000, -0.000000000000000000 ) ) ;
#327 = DIRECTION ( 'NONE',  ( 0.000000000000000000, 0.000000000000000000, 1.000000000000000000 ) ) ;
#328 = AXIS2_PLACEMENT_3D ( 'NONE', #250, #191, #188 ) ;
#329 = LINE ( 'NONE', #712, #91 ) ;
#330 = DIRECTION ( 'NONE',  ( 0.000000000000000000, 0.000000000000000000, 1.000000000000000000 ) ) ;
#331 = DIRECTION ( 'NONE',  ( 0.000000000000000000, 0.000000000000000000, 1.000000000000000000 ) ) ;
#332 = FACE_OUTER_BOUND ( 'NONE', #668, .T. ) ;
#333 = DIRECTION ( 'NONE',  ( -1.000000000000000000, -0.000000000000000000, -0.000000000000000000 ) ) ;
#334 = CARTESIAN_POINT ( 'NONE',  ( 0.000000000000000000, 0.000000000000000000, 2.770000000000001794 ) ) ;
#335 = EDGE_CURVE ( 'NONE', #472, #185, #125, .T. ) ;
#336 = EDGE_LOOP ( 'NONE', ( #414, #634, #687, #121 ) ) ;
#337 = VECTOR ( 'NONE', #290, 1000.000000000000000 ) ;
#338 = AXIS2_PLACEMENT_3D ( 'NONE', #312, #469, #237 ) ;
#339 = CARTESIAN_POINT ( 'NONE',  ( 1.901421356237302351, 0.000000000000000000, 1.500000000000012434 ) ) ;
#340 = EDGE_LOOP ( 'NONE', ( #26, #202, #442 ) ) ;
#341 = EDGE_CURVE ( 'NONE', #491, #615, #408, .T. ) ;
#342 = LINE ( 'NONE', #388, #417 ) ;
#343 = UNCERTAINTY_MEASURE_WITH_UNIT (LENGTH_MEASURE( 1.000000000000000082E-05 ), #128, 'distance_accuracy_value', 'NONE');
#344 = DIRECTION ( 'NONE',  ( 0.000000000000000000, 0.000000000000000000, 1.000000000000000000 ) ) ;
#345 = ORIENTED_EDGE ( 'NONE', *, *, #540, .T. ) ;
#346 = CIRCLE ( 'NONE', #392, 1.500000000000023537 ) ;
#347 = PLANE ( 'NONE',  #313 ) ;
#348 = CARTESIAN_POINT ( 'NONE',  ( 0.000000000000000000, -0.5773502691896253980, -1.000000000000000000 ) ) ;
#349 = ORIENTED_EDGE ( 'NONE', *, *, #364, .F. ) ;
#350 = VECTOR ( 'NONE', #453, 1000.000000000000000 ) ;
#351 = EDGE_CURVE ( 'NONE', #466, #363, #586, .T. ) ;
#352 = CARTESIAN_POINT ( 'NONE',  ( 7.999999999999992895, 1.493456771560198305E-16, -1.219500000000000917 ) ) ;
#353 = ORIENTED_EDGE ( 'NONE', *, *, #211, .F. ) ;
#354 = DIRECTION ( 'NONE',  ( 0.000000000000000000, -0.4999999999999976130, -0.8660254037844400399 ) ) ;
#355 = DIRECTION ( 'NONE',  ( 0.000000000000000000, -1.000000000000000000, 1.502314598737158637E-15 ) ) ;
#356 = ORIENTED_EDGE ( 'NONE', *, *, #89, .F. ) ;
#357 = STYLED_ITEM ( 'NONE', ( #524 ), #514 ) ;
#358 = FACE_OUTER_BOUND ( 'NONE', #532, .T. ) ;
#359 = VERTEX_POINT ( 'NONE', #308 ) ;
#360 = ADVANCED_FACE ( 'NONE', ( #358 ), #32, .F. ) ;
#361 = CIRCLE ( 'NONE', #338, 2.770000000000001794 ) ;
#362 = DIRECTION ( 'NONE',  ( 0.000000000000000000, -0.4999999999999991118, 0.8660254037844391517 ) ) ;
#363 = VERTEX_POINT ( 'NONE', #628 ) ;
#364 = EDGE_CURVE ( 'NONE', #203, #359, #361, .T. ) ;
#365 = CARTESIAN_POINT ( 'NONE',  ( 1.100000000000000089, -0.8660254037844393737, 0.4999999999999971689 ) ) ;
#366 = ORIENTED_EDGE ( 'NONE', *, *, #666, .F. ) ;
#367 = VERTEX_POINT ( 'NONE', #684 ) ;
#368 = CARTESIAN_POINT ( 'NONE',  ( 7.719500000000026674, 0.000000000000000000, 0.000000000000000000 ) ) ;
#369 = DIRECTION ( 'NONE',  ( -1.000000000000000000, -0.000000000000000000, -0.000000000000000000 ) ) ;
#370 = PRODUCT ( 'socket countersunk head screw_iso_ISO 10642 - M3 x 8 - 8N', 'socket countersunk head screw_iso_ISO 10642 - M3 x 8 - 8N', '', ( #186 ) ) ;
#371 = DIRECTION ( 'NONE',  ( 0.000000000000000000, 0.000000000000000000, 1.000000000000000000 ) ) ;
#372 = ADVANCED_FACE ( 'NONE', ( #184 ), #406, .T. ) ;
#373 = LINE ( 'NONE', #424, #546 ) ;
#374 = ORIENTED_EDGE ( 'NONE', *, *, #228, .F. ) ;
#375 = LINE ( 'NONE', #550, #523 ) ;
#376 = DIRECTION ( 'NONE',  ( 0.000000000000000000, -0.5000000000000001110, -0.8660254037844384856 ) ) ;
#377 = LINE ( 'NONE', #479, #79 ) ;
#378 = DIRECTION ( 'NONE',  ( 0.000000000000000000, -0.8660254037844385966, 0.5000000000000002220 ) ) ;
#379 = AXIS2_PLACEMENT_3D ( 'NONE', #463, #194, #236 ) ;
#380 = EDGE_CURVE ( 'NONE', #404, #139, #607, .T. ) ;
#381 = LINE ( 'NONE', #316, #711 ) ;
#382 = AXIS2_PLACEMENT_3D ( 'NONE', #205, #369, #37 ) ;
#383 = CIRCLE ( 'NONE', #182, 2.770000000000000018 ) ;
#384 = CARTESIAN_POINT ( 'NONE',  ( 1.100000000000000089, -1.154700538379249020, -1.447295875440451486E-16 ) ) ;
#385 = CIRCLE ( 'NONE', #67, 0.1000000000000000472 ) ;
#386 = CARTESIAN_POINT ( 'NONE',  ( 1.901421356237302351, 1.959434878635780268E-16, -1.600000000000012523 ) ) ;
#387 = SURFACE_SIDE_STYLE ('',( #176 ) ) ;
#388 = CARTESIAN_POINT ( 'NONE',  ( 7.999999999999992895, 0.000000000000000000, 1.219500000000000917 ) ) ;
#389 = ADVANCED_FACE ( 'NONE', ( #487 ), #39, .F. ) ;
#390 = PLANE ( 'NONE',  #606 ) ;
#391 = VERTEX_POINT ( 'NONE', #421 ) ;
#392 = AXIS2_PLACEMENT_3D ( 'NONE', #635, #140, #27 ) ;
#393 = CARTESIAN_POINT ( 'NONE',  ( 0.5900000000000106271, 0.000000000000000000, 0.000000000000000000 ) ) ;
#394 = ORIENTED_EDGE ( 'NONE', *, *, #568, .F. ) ;
#395 = AXIS2_PLACEMENT_3D ( 'NONE', #51, #503, #278 ) ;
#396 = CONICAL_SURFACE ( 'NONE', #270, 2.770000000000000018, 0.7853981633974503884 ) ;
#397 = LINE ( 'NONE', #717, #510 ) ;
#398 = VERTEX_POINT ( 'NONE', #204 ) ;
#399 = DIRECTION ( 'NONE',  ( 0.000000000000000000, 0.000000000000000000, 1.000000000000000000 ) ) ;
#400 = CARTESIAN_POINT ( 'NONE',  ( 1.100000000000000089, -0.5773502691896261751, 1.000000000000000888 ) ) ;
#401 = ORIENTED_EDGE ( 'NONE', *, *, #715, .F. ) ;
#402 = EDGE_CURVE ( 'NONE', #363, #472, #329, .T. ) ;
#403 = CARTESIAN_POINT ( 'NONE',  ( 0.000000000000000000, -1.154700538379249020, -1.447295875440451486E-16 ) ) ;
#404 = VERTEX_POINT ( 'NONE', #210 ) ;
#405 = AXIS2_PLACEMENT_3D ( 'NONE', #255, #147, #542 ) ;
#406 = CYLINDRICAL_SURFACE ( 'NONE', #220, 2.770000000000000906 ) ;
#407 = ORIENTED_EDGE ( 'NONE', *, *, #130, .F. ) ;
#408 = LINE ( 'NONE', #352, #548 ) ;
#409 = EDGE_CURVE ( 'NONE', #491, #529, #639, .T. ) ;
#410 = VERTEX_POINT ( 'NONE', #92 ) ;
#411 = FACE_OUTER_BOUND ( 'NONE', #299, .T. ) ;
#412 = CARTESIAN_POINT ( 'NONE',  ( 1.100000000000000089, -0.5773502691896255090, -1.000000000000000000 ) ) ;
#413 = ADVANCED_FACE ( 'NONE', ( #654 ), #45, .F. ) ;
#414 = ORIENTED_EDGE ( 'NONE', *, *, #440, .F. ) ;
#415 = MECHANICAL_DESIGN_GEOMETRIC_PRESENTATION_REPRESENTATION (  '', ( #650 ), #435 ) ;
#416 = AXIS2_PLACEMENT_3D ( 'NONE', #429, #714, #271 ) ;
#417 = VECTOR ( 'NONE', #58, 999.9999999999998863 ) ;
#418 = DIRECTION ( 'NONE',  ( 1.000000000000000000, -0.000000000000000000, 0.000000000000000000 ) ) ;
#419 = ORIENTED_EDGE ( 'NONE', *, *, #321, .F. ) ;
#420 = ORIENTED_EDGE ( 'NONE', *, *, #239, .T. ) ;
#421 = CARTESIAN_POINT ( 'NONE',  ( 7.719500000000026674, 0.000000000000000000, 1.500000000000023537 ) ) ;
#422 = VERTEX_POINT ( 'NONE', #156 ) ;
#423 = EDGE_CURVE ( 'NONE', #189, #359, #375, .T. ) ;
#424 = CARTESIAN_POINT ( 'NONE',  ( 1.100000000000000311, 1.224646799147353207E-16, -1.000000000000000000 ) ) ;
#425 = CIRCLE ( 'NONE', #110, 2.770000000000001794 ) ;
#426 = LINE ( 'NONE', #119, #473 ) ;
#427 = TOROIDAL_SURFACE ( 'NONE', #638, 1.600000000000012523, 0.1000000000000000056 ) ;
#428 = PLANE ( 'NONE',  #136 ) ;
#429 = CARTESIAN_POINT ( 'NONE',  ( 7.999999999999992895, 0.000000000000000000, 0.000000000000000000 ) ) ;
#430 = EDGE_CURVE ( 'NONE', #367, #189, #377, .T. ) ;
#431 = DIRECTION ( 'NONE',  ( -1.000000000000000000, -0.000000000000000000, -0.000000000000000000 ) ) ;
#432 = DIRECTION ( 'NONE',  ( 0.000000000000000000, -0.4999999999999991118, 0.8660254037844391517 ) ) ;
#433 = CARTESIAN_POINT ( 'NONE',  ( 1.100000000000000089, 0.8660254037844381525, 0.4999999999999985012 ) ) ;
#434 = DIRECTION ( 'NONE',  ( 0.000000000000000000, 0.4999999999999990563, -0.8660254037844391517 ) ) ;
#435 =( GEOMETRIC_REPRESENTATION_CONTEXT ( 3 ) GLOBAL_UNCERTAINTY_ASSIGNED_CONTEXT ( ( #577 ) ) GLOBAL_UNIT_ASSIGNED_CONTEXT ( ( #438, #224, #234 ) ) REPRESENTATION_CONTEXT ( 'NONE', 'WORKASPACE' ) );
#436 = DIRECTION ( 'NONE',  ( -1.000000000000000000, -0.000000000000000000, -0.000000000000000000 ) ) ;
#437 = DIRECTION ( 'NONE',  ( -0.000000000000000000, 1.000000000000000000, 1.224646799147353207E-16 ) ) ;
#438 =( LENGTH_UNIT ( ) NAMED_UNIT ( * ) SI_UNIT ( .MILLI., .METRE. ) );
#439 = ORIENTED_EDGE ( 'NONE', *, *, #563, .F. ) ;
#440 = EDGE_CURVE ( 'NONE', #615, #126, #381, .T. ) ;
#441 = FILL_AREA_STYLE_COLOUR ( '', #471 ) ;
#442 = ORIENTED_EDGE ( 'NONE', *, *, #464, .F. ) ;
#443 = AXIS2_PLACEMENT_3D ( 'NONE', #499, #333, #399 ) ;
#444 = DIRECTION ( 'NONE',  ( 0.000000000000000000, -0.8660254037844391517, -0.4999999999999990563 ) ) ;
#445 = DIRECTION ( 'NONE',  ( 0.000000000000000000, 0.000000000000000000, -1.000000000000000000 ) ) ;
#446 = ORIENTED_EDGE ( 'NONE', *, *, #423, .T. ) ;
#447 = AXIS2_PLACEMENT_3D ( 'NONE', #661, #120, #500 ) ;
#448 = CIRCLE ( 'NONE', #171, 1.000000000000000000 ) ;
#449 = CARTESIAN_POINT ( 'NONE',  ( 1.100000000000000089, -0.5773502691896261751, 1.000000000000000888 ) ) ;
#450 = LINE ( 'NONE', #400, #522 ) ;
#451 = ORIENTED_EDGE ( 'NONE', *, *, #689, .T. ) ;
#452 = APPLICATION_PROTOCOL_DEFINITION ( 'draft international standard', 'automotive_design', 1998, #127 ) ;
#453 = DIRECTION ( 'NONE',  ( 0.000000000000000000, 1.000000000000000000, 0.000000000000000000 ) ) ;
#454 = ORIENTED_EDGE ( 'NONE', *, *, #694, .F. ) ;
#455 = CARTESIAN_POINT ( 'NONE',  ( 0.000000000000000000, 1.154700538379250796, -1.767059508710385824E-15 ) ) ;
#456 = ORIENTED_EDGE ( 'NONE', *, *, #623, .T. ) ;
#457 = AXIS2_PLACEMENT_3D ( 'NONE', #716, #436, #330 ) ;
#458 = VECTOR ( 'NONE', #84, 1000.000000000000000 ) ;
#459 = ADVANCED_FACE ( 'NONE', ( #603 ), #396, .T. ) ;
#460 = DIRECTION ( 'NONE',  ( -1.000000000000000000, -0.000000000000000000, -0.000000000000000000 ) ) ;
#461 = CARTESIAN_POINT ( 'NONE',  ( 1.100000000000000089, 0.5773502691896258421, 0.9999999999999991118 ) ) ;
#462 = ORIENTED_EDGE ( 'NONE', *, *, #380, .T. ) ;
#463 = CARTESIAN_POINT ( 'NONE',  ( 1.100000000000000089, 0.5773502691896258421, 0.9999999999999991118 ) ) ;
#464 = EDGE_CURVE ( 'NONE', #139, #229, #496, .T. ) ;
#465 = CARTESIAN_POINT ( 'NONE',  ( 1.901421356237302351, 0.000000000000000000, 0.000000000000000000 ) ) ;
#466 = VERTEX_POINT ( 'NONE', #482 ) ;
#467 = EDGE_LOOP ( 'NONE', ( #484, #470, #407, #619 ) ) ;
#468 = DIRECTION ( 'NONE',  ( 0.000000000000000000, 0.000000000000000000, 1.000000000000000000 ) ) ;
#469 = DIRECTION ( 'NONE',  ( -1.000000000000000000, -0.000000000000000000, -0.000000000000000000 ) ) ;
#470 = ORIENTED_EDGE ( 'NONE', *, *, #430, .T. ) ;
#471 = COLOUR_RGB ( '',1.000000000000000000, 0.9490196078431372140, 0.9098039215686274384 ) ;
#472 = VERTEX_POINT ( 'NONE', #707 ) ;
#473 = VECTOR ( 'NONE', #624, 1000.000000000000000 ) ;
#474 = PRODUCT_DEFINITION ( 'General', '', #226, #315 ) ;
#475 = DIRECTION ( 'NONE',  ( -1.000000000000000000, -0.000000000000000000, -0.000000000000000000 ) ) ;
#476 = ORIENTED_EDGE ( 'NONE', *, *, #579, .T. ) ;
#477 = EDGE_CURVE ( 'NONE', #615, #391, #21, .T. ) ;
#478 = ORIENTED_EDGE ( 'NONE', *, *, #409, .T. ) ;
#479 = CARTESIAN_POINT ( 'NONE',  ( 0.5900000000000106271, 3.392271633638168021E-16, -2.770000000000000018 ) ) ;
#480 = CARTESIAN_POINT ( 'NONE',  ( 0.000000000000000000, 0.000000000000000000, 0.000000000000000000 ) ) ;
#481 = EDGE_LOOP ( 'NONE', ( #721, #131, #501, #94, #345 ) ) ;
#482 = CARTESIAN_POINT ( 'NONE',  ( 0.000000000000000000, 0.5773502691896258421, 0.9999999999999991118 ) ) ;
#483 = CARTESIAN_POINT ( 'NONE',  ( 0.5900000000000106271, 0.000000000000000000, 0.000000000000000000 ) ) ;
#484 = ORIENTED_EDGE ( 'NONE', *, *, #89, .T. ) ;
#485 = EDGE_CURVE ( 'NONE', #83, #664, #592, .T. ) ;
#486 = VECTOR ( 'NONE', #196, 1000.000000000000114 ) ;
#487 = FACE_OUTER_BOUND ( 'NONE', #705, .T. ) ;
#488 = DIRECTION ( 'NONE',  ( -0.5000000000000042188, 1.060575238724903710E-16, -0.8660254037844361541 ) ) ;
#489 = DIRECTION ( 'NONE',  ( 0.000000000000000000, 0.000000000000000000, -1.000000000000000000 ) ) ;
#490 = ADVANCED_FACE ( 'NONE', ( #547 ), #427, .F. ) ;
#491 = VERTEX_POINT ( 'NONE', #608 ) ;
#492 = PLANE ( 'NONE',  #276 ) ;
#493 = CARTESIAN_POINT ( 'NONE',  ( 1.100000000000000311, 0.000000000000000000, 0.000000000000000000 ) ) ;
#494 = CYLINDRICAL_SURFACE ( 'NONE', #443, 1.500000000000012434 ) ;
#495 = CARTESIAN_POINT ( 'NONE',  ( 1.100000000000000089, -0.5773502691896255090, -1.000000000000000000 ) ) ;
#496 = CIRCLE ( 'NONE', #111, 1.000000000000000000 ) ;
#497 = ORIENTED_EDGE ( 'NONE', *, *, #485, .F. ) ;
#498 = EDGE_CURVE ( 'NONE', #117, #404, #656, .T. ) ;
#499 = CARTESIAN_POINT ( 'NONE',  ( 0.000000000000000000, 0.000000000000000000, 0.000000000000000000 ) ) ;
#500 = DIRECTION ( 'NONE',  ( 0.000000000000000000, 0.000000000000000000, 1.000000000000000000 ) ) ;
#501 = ORIENTED_EDGE ( 'NONE', *, *, #652, .T. ) ;
#502 = LINE ( 'NONE', #560, #657 ) ;
#503 = DIRECTION ( 'NONE',  ( -1.000000000000000000, -0.000000000000000000, -0.000000000000000000 ) ) ;
#504 = ORIENTED_EDGE ( 'NONE', *, *, #440, .T. ) ;
#505 = AXIS2_PLACEMENT_3D ( 'NONE', #449, #60, #289 ) ;
#506 = CARTESIAN_POINT ( 'NONE',  ( 1.100000000000000089, 0.5773502691896258421, 0.9999999999999991118 ) ) ;
#507 = EDGE_CURVE ( 'NONE', #582, #126, #197, .T. ) ;
#508 = DIRECTION ( 'NONE',  ( -0.7071067811865460184, 0.000000000000000000, 0.7071067811865489050 ) ) ;
#509 = ORIENTED_EDGE ( 'NONE', *, *, #563, .T. ) ;
#510 = VECTOR ( 'NONE', #106, 1000.000000000000000 ) ;
#511 = CARTESIAN_POINT ( 'NONE',  ( 1.100000000000000089, -0.5773502691896261751, 1.000000000000000888 ) ) ;
#512 = FACE_OUTER_BOUND ( 'NONE', #692, .T. ) ;
#513 = ORIENTED_EDGE ( 'NONE', *, *, #689, .F. ) ;
#514 = ADVANCED_BREP_SHAPE_REPRESENTATION ( 'socket countersunk head screw_iso_ISO 10642 - M3 x 8 - 8N', ( #177, #543 ), #206 ) ;
#515 = CARTESIAN_POINT ( 'NONE',  ( 1.100000000000000089, 1.154700538379250796, -1.767059508710385824E-15 ) ) ;
#516 = DIRECTION ( 'NONE',  ( 0.000000000000000000, 0.000000000000000000, 1.000000000000000000 ) ) ;
#517 = EDGE_LOOP ( 'NONE', ( #144, #291, #685, #677, #314 ) ) ;
#518 = DIRECTION ( 'NONE',  ( 0.000000000000000000, 0.000000000000000000, 1.000000000000000000 ) ) ;
#519 = PRODUCT_RELATED_PRODUCT_CATEGORY ( 'part', '', ( #370 ) ) ;
#520 = DIRECTION ( 'NONE',  ( 1.000000000000000000, -0.000000000000000000, 0.000000000000000000 ) ) ;
#521 = EDGE_LOOP ( 'NONE', ( #701, #353, #114 ) ) ;
#522 = VECTOR ( 'NONE', #676, 1000.000000000000000 ) ;
#523 = VECTOR ( 'NONE', #644, 1000.000000000000000 ) ;
#524 = PRESENTATION_STYLE_ASSIGNMENT (( #71 ) ) ;
#525 = CARTESIAN_POINT ( 'NONE',  ( 1.100000000000000089, 0.5773502691896258421, -1.000000000000000000 ) ) ;
#526 = ORIENTED_EDGE ( 'NONE', *, *, #187, .F. ) ;
#527 = CARTESIAN_POINT ( 'NONE',  ( 0.000000000000000000, 0.000000000000000000, 0.000000000000000000 ) ) ;
#528 = ORIENTED_EDGE ( 'NONE', *, *, #107, .T. ) ;
#529 = VERTEX_POINT ( 'NONE', #597 ) ;
#530 = CARTESIAN_POINT ( 'NONE',  ( 0.000000000000000000, 1.154700538379250796, -1.767059508710385824E-15 ) ) ;
#531 = EDGE_CURVE ( 'NONE', #664, #466, #426, .T. ) ;
#532 = EDGE_LOOP ( 'NONE', ( #248, #306, #244, #590 ) ) ;
#533 = AXIS2_PLACEMENT_3D ( 'NONE', #720, #222, #285 ) ;
#534 = AXIS2_PLACEMENT_3D ( 'NONE', #301, #520, #76 ) ;
#535 = DIRECTION ( 'NONE',  ( 0.000000000000000000, 0.000000000000000000, 1.000000000000000000 ) ) ;
#536 = DIRECTION ( 'NONE',  ( 0.000000000000000000, 0.000000000000000000, -1.000000000000000000 ) ) ;
#537 = PRODUCT_DEFINITION_SHAPE ( 'NONE', 'NONE',  #474 ) ;
#538 = CARTESIAN_POINT ( 'NONE',  ( 1.100000000000000089, -0.5773502691896255090, -1.000000000000000000 ) ) ;
#539 = DIRECTION ( 'NONE',  ( -1.000000000000000000, -0.000000000000000000, -0.000000000000000000 ) ) ;
#540 = EDGE_CURVE ( 'NONE', #253, #185, #284, .T. ) ;
#541 = ORIENTED_EDGE ( 'NONE', *, *, #351, .T. ) ;
#542 = DIRECTION ( 'NONE',  ( 0.000000000000000000, 0.000000000000000000, 1.000000000000000000 ) ) ;
#543 = AXIS2_PLACEMENT_3D ( 'NONE', #527, #518, #18 ) ;
#544 = DIRECTION ( 'NONE',  ( -1.000000000000000000, -0.000000000000000000, -0.000000000000000000 ) ) ;
#545 = EDGE_LOOP ( 'NONE', ( #599, #151, #181, #59, #695 ) ) ;
#546 = VECTOR ( 'NONE', #488, 1000.000000000000114 ) ;
#547 = FACE_OUTER_BOUND ( 'NONE', #643, .T. ) ;
#548 = VECTOR ( 'NONE', #16, 999.9999999999998863 ) ;
#549 = DIRECTION ( 'NONE',  ( 0.000000000000000000, 0.000000000000000000, 1.000000000000000000 ) ) ;
#550 = CARTESIAN_POINT ( 'NONE',  ( 0.000000000000000000, 3.392271633638169501E-16, -2.770000000000000906 ) ) ;
#551 = DIRECTION ( 'NONE',  ( 0.000000000000000000, 0.000000000000000000, -1.000000000000000000 ) ) ;
#552 = DIRECTION ( 'NONE',  ( 1.000000000000000000, 0.000000000000000000, -0.000000000000000000 ) ) ;
#553 = EDGE_CURVE ( 'NONE', #367, #126, #385, .T. ) ;
#554 = CARTESIAN_POINT ( 'NONE',  ( 1.100000000000000089, -0.5773502691896261751, 1.000000000000000888 ) ) ;
#555 = COLOUR_RGB ( '',1.000000000000000000, 0.9490196078431372140, 0.9098039215686274384 ) ;
#556 = FACE_OUTER_BOUND ( 'NONE', #73, .T. ) ;
#557 = AXIS2_PLACEMENT_3D ( 'NONE', #493, #431, #327 ) ;
#558 = CYLINDRICAL_SURFACE ( 'NONE', #395, 1.500000000000012434 ) ;
#559 = ORIENTED_EDGE ( 'NONE', *, *, #143, .F. ) ;
#560 = CARTESIAN_POINT ( 'NONE',  ( 1.100000000000000089, 1.154700538379250796, -1.767059508710385824E-15 ) ) ;
#561 = FACE_OUTER_BOUND ( 'NONE', #580, .T. ) ;
#562 = EDGE_LOOP ( 'NONE', ( #286, #446, #349, #309 ) ) ;
#563 = EDGE_CURVE ( 'NONE', #139, #117, #397, .T. ) ;
#564 = DIRECTION ( 'NONE',  ( 0.000000000000000000, 0.4999999999999986677, -0.8660254037844393737 ) ) ;
#565 = DIRECTION ( 'NONE',  ( -1.000000000000000000, 0.000000000000000000, -0.000000000000000000 ) ) ;
#566 = ORIENTED_EDGE ( 'NONE', *, *, #722, .T. ) ;
#567 = APPLICATION_CONTEXT ( 'automotive_design' ) ;
#568 = EDGE_CURVE ( 'NONE', #391, #582, #277, .T. ) ;
#569 = SURFACE_SIDE_STYLE ('',( #293 ) ) ;
#570 = CONICAL_SURFACE ( 'NONE', #149, 1.219500000000000917, 0.7853981633975480880 ) ;
#571 = CARTESIAN_POINT ( 'NONE',  ( 1.100000000000000311, 0.000000000000000000, -1.000000000000000000 ) ) ;
#572 = CIRCLE ( 'NONE', #7, 1.529289321881357910 ) ;
#573 = ORIENTED_EDGE ( 'NONE', *, *, #423, .F. ) ;
#574 = DIRECTION ( 'NONE',  ( 0.000000000000000000, 0.4999999999999986677, -0.8660254037844393737 ) ) ;
#575 = ORIENTED_EDGE ( 'NONE', *, *, #307, .F. ) ;
#576 = LINE ( 'NONE', #515, #604 ) ;
#577 = UNCERTAINTY_MEASURE_WITH_UNIT (LENGTH_MEASURE( 1.000000000000000082E-05 ), #438, 'distance_accuracy_value', 'NONE');
#578 = LINE ( 'NONE', #525, #162 ) ;
#579 = EDGE_CURVE ( 'NONE', #529, #391, #342, .T. ) ;
#580 = EDGE_LOOP ( 'NONE', ( #566, #504, #637, #394 ) ) ;
#581 = CARTESIAN_POINT ( 'NONE',  ( 1.677350269189632703, 0.000000000000000000, 0.000000000000000000 ) ) ;
#582 = VERTEX_POINT ( 'NONE', #339 ) ;
#583 = AXIS2_PLACEMENT_3D ( 'NONE', #605, #318, #551 ) ;
#584 = VECTOR ( 'NONE', #672, 1000.000000000000000 ) ;
#585 =( NAMED_UNIT ( * ) PLANE_ANGLE_UNIT ( ) SI_UNIT ( $, .RADIAN. ) );
#586 = LINE ( 'NONE', #132, #458 ) ;
#587 = EDGE_LOOP ( 'NONE', ( #20, #178, #310, #154 ) ) ;
#588 = ADVANCED_FACE ( 'NONE', ( #611 ), #494, .T. ) ;
#589 = CARTESIAN_POINT ( 'NONE',  ( 1.100000000000000311, 0.000000000000000000, 1.000000000000000000 ) ) ;
#590 = ORIENTED_EDGE ( 'NONE', *, *, #287, .F. ) ;
#591 = VECTOR ( 'NONE', #564, 1000.000000000000114 ) ;
#592 = LINE ( 'NONE', #208, #280 ) ;
#593 = DIRECTION ( 'NONE',  ( 1.000000000000000000, -0.000000000000000000, 0.000000000000000000 ) ) ;
#594 = CLOSED_SHELL ( 'NONE', ( #97, #360, #118, #219, #618, #372, #158, #179, #459, #588, #74, #53, #490, #610, #671, #44, #602, #682, #659, #274, #413, #101, #199, #389, #298, #704 ) ) ;
#595 = AXIS2_PLACEMENT_3D ( 'NONE', #66, #565, #612 ) ;
#596 = ORIENTED_EDGE ( 'NONE', *, *, #283, .T. ) ;
#597 = CARTESIAN_POINT ( 'NONE',  ( 7.999999999999992895, 0.000000000000000000, 1.219500000000000917 ) ) ;
#598 = DIRECTION ( 'NONE',  ( 0.000000000000000000, 0.000000000000000000, 1.000000000000000000 ) ) ;
#599 = ORIENTED_EDGE ( 'NONE', *, *, #351, .F. ) ;
#600 = DIRECTION ( 'NONE',  ( 0.000000000000000000, 0.000000000000000000, 1.000000000000000000 ) ) ;
#601 = FACE_OUTER_BOUND ( 'NONE', #626, .T. ) ;
#602 = ADVANCED_FACE ( 'NONE', ( #556 ), #167, .T. ) ;
#603 = FACE_OUTER_BOUND ( 'NONE', #681, .T. ) ;
#604 = VECTOR ( 'NONE', #296, 1000.000000000000000 ) ;
#605 = CARTESIAN_POINT ( 'NONE',  ( 7.999999999999992895, 1.219500000000000917, 0.000000000000000000 ) ) ;
#606 = AXIS2_PLACEMENT_3D ( 'NONE', #495, #61, #445 ) ;
#607 = CIRCLE ( 'NONE', #405, 1.000000000000000000 ) ;
#608 = CARTESIAN_POINT ( 'NONE',  ( 7.999999999999992895, 1.665213485140628664E-16, -1.219500000000000917 ) ) ;
#609 = FACE_OUTER_BOUND ( 'NONE', #587, .T. ) ;
#610 = ADVANCED_FACE ( 'NONE', ( #104 ), #347, .T. ) ;
#611 = FACE_OUTER_BOUND ( 'NONE', #336, .T. ) ;
#612 = DIRECTION ( 'NONE',  ( -0.000000000000000000, 0.000000000000000000, 1.000000000000000000 ) ) ;
#613 = CARTESIAN_POINT ( 'NONE',  ( 1.100000000000000089, 1.154700538379250796, -1.767059508710385824E-15 ) ) ;
#614 = CONICAL_SURFACE ( 'NONE', #300, 1.000000000000000000, 1.047197551196592746 ) ;
#615 = VERTEX_POINT ( 'NONE', #281 ) ;
#616 = DIRECTION ( 'NONE',  ( -1.000000000000000000, -0.000000000000000000, -0.000000000000000000 ) ) ;
#617 = CARTESIAN_POINT ( 'NONE',  ( 1.100000000000000089, 0.5773502691896258421, -1.000000000000000000 ) ) ;
#618 = ADVANCED_FACE ( 'NONE', ( #723 ), #646, .T. ) ;
#619 = ORIENTED_EDGE ( 'NONE', *, *, #173, .F. ) ;
#620 = DIRECTION ( 'NONE',  ( -1.000000000000000000, -0.000000000000000000, -0.000000000000000000 ) ) ;
#621 = DIRECTION ( 'NONE',  ( -1.000000000000000000, -0.000000000000000000, -0.000000000000000000 ) ) ;
#622 = ORIENTED_EDGE ( 'NONE', *, *, #531, .T. ) ;
#623 = EDGE_CURVE ( 'NONE', #62, #83, #502, .T. ) ;
#624 = DIRECTION ( 'NONE',  ( -1.000000000000000000, -0.000000000000000000, -0.000000000000000000 ) ) ;
#625 = FACE_OUTER_BOUND ( 'NONE', #14, .T. ) ;
#626 = EDGE_LOOP ( 'NONE', ( #38, #478, #476, #631 ) ) ;
#627 = PLANE ( 'NONE',  #379 ) ;
#628 = CARTESIAN_POINT ( 'NONE',  ( 0.000000000000000000, -0.5773502691896261751, 1.000000000000000888 ) ) ;
#629 = ORIENTED_EDGE ( 'NONE', *, *, #22, .T. ) ;
#630 = CARTESIAN_POINT ( 'NONE',  ( 0.000000000000000000, 0.000000000000000000, 0.000000000000000000 ) ) ;
#631 = ORIENTED_EDGE ( 'NONE', *, *, #477, .F. ) ;
#632 = FILL_AREA_STYLE_COLOUR ( '', #555 ) ;
#633 = PLANE ( 'NONE',  #673 ) ;
#634 = ORIENTED_EDGE ( 'NONE', *, *, #477, .T. ) ;
#635 = CARTESIAN_POINT ( 'NONE',  ( 7.719500000000026674, 0.000000000000000000, 0.000000000000000000 ) ) ;
#636 = PLANE ( 'NONE',  #534 ) ;
#637 = ORIENTED_EDGE ( 'NONE', *, *, #251, .T. ) ;
#638 = AXIS2_PLACEMENT_3D ( 'NONE', #159, #88, #647 ) ;
#639 = CIRCLE ( 'NONE', #416, 1.219500000000000917 ) ;
#640 = DIRECTION ( 'NONE',  ( -1.000000000000000000, -0.000000000000000000, -0.000000000000000000 ) ) ;
#641 = DIRECTION ( 'NONE',  ( 0.000000000000000000, 0.000000000000000000, 1.000000000000000000 ) ) ;
#642 = ORIENTED_EDGE ( 'NONE', *, *, #287, .T. ) ;
#643 = EDGE_LOOP ( 'NONE', ( #325, #356, #642, #174 ) ) ;
#644 = DIRECTION ( 'NONE',  ( -1.000000000000000000, -0.000000000000000000, -0.000000000000000000 ) ) ;
#645 = ORIENTED_EDGE ( 'NONE', *, *, #153, .T. ) ;
#646 = CONICAL_SURFACE ( 'NONE', #192, 2.770000000000000018, 0.7853981633974503884 ) ;
#647 = DIRECTION ( 'NONE',  ( 0.000000000000000000, 0.000000000000000000, 1.000000000000000000 ) ) ;
#648 = DIRECTION ( 'NONE',  ( 0.000000000000000000, 0.000000000000000000, 1.000000000000000000 ) ) ;
#649 = EDGE_CURVE ( 'NONE', #229, #253, #227, .T. ) ;
#650 = STYLED_ITEM ( 'NONE', ( #667 ), #177 ) ;
#651 = DIRECTION ( 'NONE',  ( 1.000000000000000000, -0.000000000000000000, 0.000000000000000000 ) ) ;
#652 = EDGE_CURVE ( 'NONE', #109, #229, #662, .T. ) ;
#653 = CARTESIAN_POINT ( 'NONE',  ( 1.100000000000000089, 0.5773502691896258421, 0.9999999999999991118 ) ) ;
#654 = FACE_OUTER_BOUND ( 'NONE', #521, .T. ) ;
#655 = FACE_OUTER_BOUND ( 'NONE', #517, .T. ) ;
#656 = LINE ( 'NONE', #102, #8 ) ;
#657 = VECTOR ( 'NONE', #3, 1000.000000000000114 ) ;
#658 = CARTESIAN_POINT ( 'NONE',  ( 1.100000000000000089, 0.5773502691896258421, -1.000000000000000000 ) ) ;
#659 = ADVANCED_FACE ( 'NONE', ( #115 ), #719, .T. ) ;
#660 = CARTESIAN_POINT ( 'NONE',  ( 1.100000000000000089, -0.5773502691896253980, -1.000000000000000000 ) ) ;
#661 = CARTESIAN_POINT ( 'NONE',  ( 0.000000000000000000, 0.000000000000000000, 0.000000000000000000 ) ) ;
#662 = LINE ( 'NONE', #164, #87 ) ;
#663 = CARTESIAN_POINT ( 'NONE',  ( 0.5900000000000106271, 3.392271633638169008E-16, -2.770000000000000018 ) ) ;
#664 = VERTEX_POINT ( 'NONE', #506 ) ;
#665 = DIRECTION ( 'NONE',  ( -1.000000000000000000, -0.000000000000000000, -0.000000000000000000 ) ) ;
#666 = EDGE_CURVE ( 'NONE', #185, #134, #6, .T. ) ;
#667 = PRESENTATION_STYLE_ASSIGNMENT (( #12 ) ) ;
#668 = EDGE_LOOP ( 'NONE', ( #225, #497, #526 ) ) ;
#669 = CARTESIAN_POINT ( 'NONE',  ( 1.100000000000000089, -1.154700538379249020, -1.447295875440451486E-16 ) ) ;
#670 = AXIS2_PLACEMENT_3D ( 'NONE', #465, #686, #516 ) ;
#671 = ADVANCED_FACE ( 'NONE', ( #273 ), #492, .T. ) ;
#672 = DIRECTION ( 'NONE',  ( -1.000000000000000000, -0.000000000000000000, -0.000000000000000000 ) ) ;
#673 = AXIS2_PLACEMENT_3D ( 'NONE', #412, #418, #305 ) ;
#674 = ORIENTED_EDGE ( 'NONE', *, *, #311, .F. ) ;
#675 = CARTESIAN_POINT ( 'NONE',  ( 0.000000000000000000, -0.5773502691896253980, -1.000000000000000000 ) ) ;
#676 = DIRECTION ( 'NONE',  ( -1.000000000000000000, -0.000000000000000000, -0.000000000000000000 ) ) ;
#677 = ORIENTED_EDGE ( 'NONE', *, *, #311, .T. ) ;
#678 = SHAPE_DEFINITION_REPRESENTATION ( #537, #514 ) ;
#679 = LINE ( 'NONE', #455, #124 ) ;
#680 = VECTOR ( 'NONE', #47, 1000.000000000000000 ) ;
#681 = EDGE_LOOP ( 'NONE', ( #223, #252, #142, #401 ) ) ;
#682 = ADVANCED_FACE ( 'NONE', ( #50 ), #627, .T. ) ;
#683 = VECTOR ( 'NONE', #157, 1000.000000000000000 ) ;
#684 = CARTESIAN_POINT ( 'NONE',  ( 1.830710678118647516, 2.632555453325199345E-16, -1.529289321881357910 ) ) ;
#685 = ORIENTED_EDGE ( 'NONE', *, *, #498, .T. ) ;
#686 = DIRECTION ( 'NONE',  ( 1.000000000000000000, 0.000000000000000000, 0.000000000000000000 ) ) ;
#687 = ORIENTED_EDGE ( 'NONE', *, *, #568, .T. ) ;
#688 = LINE ( 'NONE', #141, #150 ) ;
#689 = EDGE_CURVE ( 'NONE', #398, #295, #190, .T. ) ;
#690 = ORIENTED_EDGE ( 'NONE', *, *, #64, .T. ) ;
#691 = CIRCLE ( 'NONE', #215, 2.770000000000000018 ) ;
#692 = EDGE_LOOP ( 'NONE', ( #573, #322, #155, #5 ) ) ;
#693 = DIRECTION ( 'NONE',  ( -1.000000000000000000, -0.000000000000000000, -0.000000000000000000 ) ) ;
#694 = EDGE_CURVE ( 'NONE', #62, #233, #576, .T. ) ;
#695 = ORIENTED_EDGE ( 'NONE', *, *, #143, .T. ) ;
#696 = VECTOR ( 'NONE', #113, 1000.000000000000000 ) ;
#697 = VECTOR ( 'NONE', #616, 1000.000000000000000 ) ;
#698 = EDGE_LOOP ( 'NONE', ( #261, #559, #451, #238, #710 ) ) ;
#699 = DIRECTION ( 'NONE',  ( 1.000000000000000000, -0.000000000000000000, 0.000000000000000000 ) ) ;
#700 = EDGE_LOOP ( 'NONE', ( #374, #282 ) ) ;
#701 = ORIENTED_EDGE ( 'NONE', *, *, #652, .F. ) ;
#702 = DIRECTION ( 'NONE',  ( 1.000000000000000000, 0.000000000000000000, 0.000000000000000000 ) ) ;
#703 = FACE_OUTER_BOUND ( 'NONE', #700, .T. ) ;
#704 = ADVANCED_FACE ( 'NONE', ( #411 ), #614, .F. ) ;
#705 = EDGE_LOOP ( 'NONE', ( #257, #674, #279 ) ) ;
#706 = VECTOR ( 'NONE', #354, 1000.000000000000000 ) ;
#707 = CARTESIAN_POINT ( 'NONE',  ( 0.000000000000000000, -1.154700538379249020, -2.168404344971008868E-16 ) ) ;
#708 = CARTESIAN_POINT ( 'NONE',  ( 0.000000000000000000, 0.000000000000000000, 2.770000000000000906 ) ) ;
#709 = CONICAL_SURFACE ( 'NONE', #138, 1.000000000000000000, 1.047197551196592746 ) ;
#710 = ORIENTED_EDGE ( 'NONE', *, *, #133, .T. ) ;
#711 = VECTOR ( 'NONE', #201, 1000.000000000000000 ) ;
#712 = CARTESIAN_POINT ( 'NONE',  ( 0.000000000000000000, -0.5773502691896261751, 1.000000000000000888 ) ) ;
#713 = CARTESIAN_POINT ( 'NONE',  ( 1.100000000000000089, 0.5773502691896258421, -1.000000000000000000 ) ) ;
#714 = DIRECTION ( 'NONE',  ( -1.000000000000000000, -0.000000000000000000, -0.000000000000000000 ) ) ;
#715 = EDGE_CURVE ( 'NONE', #189, #422, #691, .T. ) ;
#716 = CARTESIAN_POINT ( 'NONE',  ( 1.830710678118647516, 0.000000000000000000, 0.000000000000000000 ) ) ;
#717 = CARTESIAN_POINT ( 'NONE',  ( 1.100000000000000089, -0.5773502691896253980, -1.000000000000000000 ) ) ;
#718 = PLANE ( 'NONE',  #241 ) ;
#719 = PLANE ( 'NONE',  #505 ) ;
#720 = CARTESIAN_POINT ( 'NONE',  ( 7.999999999999992895, 0.000000000000000000, 0.000000000000000000 ) ) ;
#721 = ORIENTED_EDGE ( 'NONE', *, *, #335, .F. ) ;
#722 = EDGE_CURVE ( 'NONE', #391, #615, #346, .T. ) ;
#723 = FACE_OUTER_BOUND ( 'NONE', #467, .T. ) ;
#724 = FACE_BOUND ( 'NONE', #25, .T. ) ;
ENDSEC;
END-ISO-10303-21;
