ISO-10303-21;
HEADER;
FILE_DESCRIPTION (( 'STEP AP214' ),
    '1' );
FILE_NAME ('Twist_Lock_Wing.STEP',
    '2026-08-21T20:26:04',
    ( '' ),
    ( '' ),
    'SwSTEP 2.0',
    'SolidWorks 2025',
    '' );
FILE_SCHEMA (( 'AUTOMOTIVE_DESIGN' ));
ENDSEC;

DATA;
#1 = VERTEX_POINT ( 'NONE', #449 ) ;
#2 = AXIS2_PLACEMENT_3D ( 'NONE', #410, #113, #262 ) ;
#3 =( NAMED_UNIT ( * ) SI_UNIT ( $, .STERADIAN. ) SOLID_ANGLE_UNIT ( ) );
#4 = LINE ( 'NONE', #236, #328 ) ;
#5 =( GEOMETRIC_REPRESENTATION_CONTEXT ( 3 ) GLOBAL_UNCERTAINTY_ASSIGNED_CONTEXT ( ( #469 ) ) GLOBAL_UNIT_ASSIGNED_CONTEXT ( ( #422, #238, #124 ) ) REPRESENTATION_CONTEXT ( 'NONE', 'WORKASPACE' ) );
#6 = DIRECTION ( 'NONE',  ( 0.000000000000000000, 0.000000000000000000, 1.000000000000000000 ) ) ;
#7 = DIRECTION ( 'NONE',  ( 0.000000000000000000, 0.000000000000000000, 1.000000000000000000 ) ) ;
#8 = ADVANCED_FACE ( 'NONE', ( #74 ), #266, .F. ) ;
#9 = VERTEX_POINT ( 'NONE', #105 ) ;
#10 = DIRECTION ( 'NONE',  ( 0.000000000000000000, -1.000000000000000000, 0.000000000000000000 ) ) ;
#11 = ORIENTED_EDGE ( 'NONE', *, *, #251, .T. ) ;
#12 = CARTESIAN_POINT ( 'NONE',  ( -16.49999999999999645, 2.079999999999998295, 0.000000000000000000 ) ) ;
#13 = ORIENTED_EDGE ( 'NONE', *, *, #269, .T. ) ;
#14 = CIRCLE ( 'NONE', #295, 21.00000000000000000 ) ;
#15 = DIRECTION ( 'NONE',  ( 0.000000000000000000, 0.000000000000000000, -1.000000000000000000 ) ) ;
#16 = ORIENTED_EDGE ( 'NONE', *, *, #367, .T. ) ;
#17 = ADVANCED_FACE ( 'NONE', ( #146 ), #444, .T. ) ;
#18 = VERTEX_POINT ( 'NONE', #110 ) ;
#19 = CARTESIAN_POINT ( 'NONE',  ( -31.26109752017105237, 2.080000000000001847, -9.399999999999998579 ) ) ;
#20 = ORIENTED_EDGE ( 'NONE', *, *, #37, .T. ) ;
#21 =( NAMED_UNIT ( * ) SI_UNIT ( $, .STERADIAN. ) SOLID_ANGLE_UNIT ( ) );
#22 = ORIENTED_EDGE ( 'NONE', *, *, #470, .F. ) ;
#23 = EDGE_CURVE ( 'NONE', #347, #226, #491, .T. ) ;
#24 = CYLINDRICAL_SURFACE ( 'NONE', #169, 17.50000000000000000 ) ;
#25 = ORIENTED_EDGE ( 'NONE', *, *, #32, .F. ) ;
#26 = EDGE_CURVE ( 'NONE', #132, #85, #350, .T. ) ;
#27 = CARTESIAN_POINT ( 'NONE',  ( -13.55821503445070064, 3.054437964602610300, -11.14174959593633751 ) ) ;
#28 = CARTESIAN_POINT ( 'NONE',  ( 0.000000000000000000, 2.079999999999998295, 0.000000000000000000 ) ) ;
#29 = AXIS2_PLACEMENT_3D ( 'NONE', #273, #418, #122 ) ;
#30 = CARTESIAN_POINT ( 'NONE',  ( -14.43479157272468605, 3.480000000000000426, -14.20889053347350028 ) ) ;
#31 = DIRECTION ( 'NONE',  ( 0.000000000000000000, 1.000000000000000000, 0.000000000000000000 ) ) ;
#32 = EDGE_CURVE ( 'NONE', #41, #213, #258, .T. ) ;
#33 = FACE_BOUND ( 'NONE', #459, .T. ) ;
#34 = DIRECTION ( 'NONE',  ( 0.000000000000000000, -1.000000000000000000, 0.000000000000000000 ) ) ;
#35 = CARTESIAN_POINT ( 'NONE',  ( -12.48238616928225220, 2.079999999999998295, -18.80000000000000426 ) ) ;
#36 = VERTEX_POINT ( 'NONE', #482 ) ;
#37 = EDGE_CURVE ( 'NONE', #36, #282, #357, .T. ) ;
#38 = SURFACE_STYLE_FILL_AREA ( #383 ) ;
#39 = LINE ( 'NONE', #495, #411 ) ;
#40 = ORIENTED_EDGE ( 'NONE', *, *, #414, .T. ) ;
#41 = VERTEX_POINT ( 'NONE', #292 ) ;
#42 = PRESENTATION_STYLE_ASSIGNMENT (( #421 ) ) ;
#43 = ADVANCED_FACE ( 'NONE', ( #375 ), #231, .F. ) ;
#44 = DIRECTION ( 'NONE',  ( 0.000000000000000000, 0.000000000000000000, 1.000000000000000000 ) ) ;
#45 = VECTOR ( 'NONE', #336, 1000.000000000000000 ) ;
#46 = EDGE_CURVE ( 'NONE', #347, #400, #227, .T. ) ;
#47 = CARTESIAN_POINT ( 'NONE',  ( -10.60457214312674701, 3.480000000000003979, -13.18258633047873474 ) ) ;
#48 = ORIENTED_EDGE ( 'NONE', *, *, #156, .T. ) ;
#49 = FACE_OUTER_BOUND ( 'NONE', #407, .T. ) ;
#50 = ORIENTED_EDGE ( 'NONE', *, *, #263, .F. ) ;
#51 = CIRCLE ( 'NONE', #335, 17.50000000000000000 ) ;
#52 = LINE ( 'NONE', #399, #96 ) ;
#53 = ORIENTED_EDGE ( 'NONE', *, *, #476, .T. ) ;
#54 = CIRCLE ( 'NONE', #195, 1.631999870894150551 ) ;
#55 = VECTOR ( 'NONE', #109, 1000.000000000000000 ) ;
#56 = CARTESIAN_POINT ( 'NONE',  ( -10.16758907723458094, 2.566265317901801790, -6.984275810640244053 ) ) ;
#57 = EDGE_LOOP ( 'NONE', ( #284, #274, #431, #428 ) ) ;
#58 = CARTESIAN_POINT ( 'NONE',  ( 0.000000000000000000, 0.000000000000000000, 0.000000000000000000 ) ) ;
#59 = ORIENTED_EDGE ( 'NONE', *, *, #150, .T. ) ;
#60 = LINE ( 'NONE', #261, #55 ) ;
#61 = ADVANCED_FACE ( 'NONE', ( #33, #229 ), #337, .F. ) ;
#62 = EDGE_LOOP ( 'NONE', ( #183, #185 ) ) ;
#63 = LINE ( 'NONE', #70, #320 ) ;
#64 = CARTESIAN_POINT ( 'NONE',  ( -5.090000000000000746, 2.000000000000019096, -10.90300136424638566 ) ) ;
#65 = LINE ( 'NONE', #152, #107 ) ;
#66 = VERTEX_POINT ( 'NONE', #64 ) ;
#67 = DIRECTION ( 'NONE',  ( -0.000000000000000000, -1.000000000000000000, -0.000000000000000000 ) ) ;
#68 = DIRECTION ( 'NONE',  ( 1.082490641014322783E-32, 0.000000000000000000, -1.000000000000000000 ) ) ;
#69 = EDGE_CURVE ( 'NONE', #144, #93, #413, .T. ) ;
#70 = CARTESIAN_POINT ( 'NONE',  ( 0.000000000000000000, 0.000000000000000000, 0.000000000000000000 ) ) ;
#71 = STYLED_ITEM ( 'NONE', ( #454 ), #119 ) ;
#72 = DIRECTION ( 'NONE',  ( 8.360113137237622995E-16, 0.000000000000000000, 1.000000000000000000 ) ) ;
#73 = APPLICATION_CONTEXT ( 'automotive_design' ) ;
#74 = FACE_OUTER_BOUND ( 'NONE', #321, .T. ) ;
#75 = DIRECTION ( 'NONE',  ( 0.000000000000000000, -1.000000000000000000, 0.000000000000000000 ) ) ;
#76 = VERTEX_POINT ( 'NONE', #488 ) ;
#77 = VECTOR ( 'NONE', #332, 1000.000000000000000 ) ;
#78 = DIRECTION ( 'NONE',  ( 0.000000000000000000, 1.000000000000000000, 0.000000000000000000 ) ) ;
#79 = ORIENTED_EDGE ( 'NONE', *, *, #128, .F. ) ;
#80 = VECTOR ( 'NONE', #401, 1000.000000000000000 ) ;
#81 = CARTESIAN_POINT ( 'NONE',  ( 0.000000000000000000, 0.000000000000000000, 0.000000000000000000 ) ) ;
#82 = DIRECTION ( 'NONE',  ( 1.000000000000000000, 0.000000000000000000, 1.082490641014322783E-32 ) ) ;
#83 = EDGE_LOOP ( 'NONE', ( #53, #216, #286, #395 ) ) ;
#84 = CARTESIAN_POINT ( 'NONE',  ( -14.35739556011235862, 2.080000000000001847, -4.870666710705875424 ) ) ;
#85 = VERTEX_POINT ( 'NONE', #30 ) ;
#86 = ADVANCED_FACE ( 'NONE', ( #441, #257 ), #404, .T. ) ;
#87 = LINE ( 'NONE', #496, #115 ) ;
#88 = ORIENTED_EDGE ( 'NONE', *, *, #269, .F. ) ;
#89 = AXIS2_PLACEMENT_3D ( 'NONE', #160, #393, #354 ) ;
#90 = DIRECTION ( 'NONE',  ( 0.000000000000000000, 0.000000000000000000, 1.000000000000000000 ) ) ;
#91 = ORIENTED_EDGE ( 'NONE', *, *, #26, .F. ) ;
#92 = DIRECTION ( 'NONE',  ( -2.122492810983430007E-32, 0.000000000000000000, -1.000000000000000000 ) ) ;
#93 = VERTEX_POINT ( 'NONE', #197 ) ;
#94 = LINE ( 'NONE', #475, #142 ) ;
#95 = ORIENTED_EDGE ( 'NONE', *, *, #103, .F. ) ;
#96 = VECTOR ( 'NONE', #479, 1000.000000000000114 ) ;
#97 = CARTESIAN_POINT ( 'NONE',  ( -12.48238616928225220, 3.480000000000000426, -18.80000000000000426 ) ) ;
#98 = ORIENTED_EDGE ( 'NONE', *, *, #300, .F. ) ;
#99 = EDGE_CURVE ( 'NONE', #226, #1, #51, .T. ) ;
#100 = CARTESIAN_POINT ( 'NONE',  ( -12.48238616928225220, 3.480000000000000426, -18.80000000000000426 ) ) ;
#101 = ORIENTED_EDGE ( 'NONE', *, *, #316, .F. ) ;
#102 = UNCERTAINTY_MEASURE_WITH_UNIT (LENGTH_MEASURE( 1.000000000000000082E-05 ), #265, 'distance_accuracy_value', 'NONE');
#103 = EDGE_CURVE ( 'NONE', #140, #9, #4, .T. ) ;
#104 =( NAMED_UNIT ( * ) PLANE_ANGLE_UNIT ( ) SI_UNIT ( $, .RADIAN. ) );
#105 = CARTESIAN_POINT ( 'NONE',  ( 0.000000000000000000, 0.000000000000000000, -14.65000000000000391 ) ) ;
#106 = AXIS2_PLACEMENT_3D ( 'NONE', #356, #210, #471 ) ;
#107 = VECTOR ( 'NONE', #147, 1000.000000000000114 ) ;
#108 = CARTESIAN_POINT ( 'NONE',  ( -5.090000000000000746, 2.080000000000001847, -7.639001622458084562 ) ) ;
#109 = DIRECTION ( 'NONE',  ( 8.360113137237622995E-16, 0.000000000000000000, 1.000000000000000000 ) ) ;
#110 = CARTESIAN_POINT ( 'NONE',  ( -10.60457214312674701, 3.480000000000003979, -13.18258633047873474 ) ) ;
#111 = EDGE_CURVE ( 'NONE', #400, #211, #120, .T. ) ;
#112 = CARTESIAN_POINT ( 'NONE',  ( 0.000000000000000000, 2.079999999999998295, -18.80000000000000426 ) ) ;
#113 = DIRECTION ( 'NONE',  ( -0.03978230059144267916, 0.9881164689548813662, 0.1484695670492412467 ) ) ;
#114 = PLANE ( 'NONE',  #203 ) ;
#115 = VECTOR ( 'NONE', #303, 1000.000000000000114 ) ;
#116 = PRESENTATION_LAYER_ASSIGNMENT (  '', '', ( #208 ) ) ;
#117 = DIRECTION ( 'NONE',  ( 1.000000000000000000, 0.000000000000000000, 1.082490641014322783E-32 ) ) ;
#118 = EDGE_CURVE ( 'NONE', #349, #353, #39, .T. ) ;
#119 = MANIFOLD_SOLID_BREP ( 'Chamfer2', #376 ) ;
#120 = LINE ( 'NONE', #384, #487 ) ;
#121 = PRODUCT_RELATED_PRODUCT_CATEGORY ( 'part', '', ( #494 ) ) ;
#122 = DIRECTION ( 'NONE',  ( 0.000000000000000000, 0.000000000000000000, -1.000000000000000000 ) ) ;
#123 = EDGE_LOOP ( 'NONE', ( #255, #135, #363, #22 ) ) ;
#124 =( NAMED_UNIT ( * ) SI_UNIT ( $, .STERADIAN. ) SOLID_ANGLE_UNIT ( ) );
#125 = AXIS2_PLACEMENT_3D ( 'NONE', #19, #283, #184 ) ;
#126 = ORIENTED_EDGE ( 'NONE', *, *, #470, .T. ) ;
#127 = CARTESIAN_POINT ( 'NONE',  ( -31.26109752017105237, 2.080000000000001847, -9.399999999999998579 ) ) ;
#128 = EDGE_CURVE ( 'NONE', #213, #140, #163, .T. ) ;
#129 = DIRECTION ( 'NONE',  ( 1.000000000000000000, 0.000000000000000000, 1.082490641014322783E-32 ) ) ;
#130 = ORIENTED_EDGE ( 'NONE', *, *, #426, .F. ) ;
#131 = CARTESIAN_POINT ( 'NONE',  ( 0.000000000000000000, 2.079999999999998295, 0.000000000000000000 ) ) ;
#132 = VERTEX_POINT ( 'NONE', #84 ) ;
#133 = VECTOR ( 'NONE', #319, 1000.000000000000114 ) ;
#134 = CARTESIAN_POINT ( 'NONE',  ( -16.50000000000000000, 3.480000000000000426, -18.80000000000000426 ) ) ;
#135 = ORIENTED_EDGE ( 'NONE', *, *, #69, .T. ) ;
#136 = UNCERTAINTY_MEASURE_WITH_UNIT (LENGTH_MEASURE( 1.000000000000000082E-05 ), #369, 'distance_accuracy_value', 'NONE');
#137 = DIRECTION ( 'NONE',  ( 2.122492810983430007E-32, 0.000000000000000000, 1.000000000000000000 ) ) ;
#138 = VERTEX_POINT ( 'NONE', #35 ) ;
#139 = DIRECTION ( 'NONE',  ( 0.000000000000000000, 1.000000000000000000, 0.000000000000000000 ) ) ;
#140 = VERTEX_POINT ( 'NONE', #161 ) ;
#141 = VECTOR ( 'NONE', #433, 1000.000000000000000 ) ;
#142 = VECTOR ( 'NONE', #259, 1000.000000000000000 ) ;
#143 = DIRECTION ( 'NONE',  ( -0.000000000000000000, 1.000000000000000000, 0.000000000000000000 ) ) ;
#144 = VERTEX_POINT ( 'NONE', #201 ) ;
#145 = PRODUCT_DEFINITION ( 'General', '', #372, #432 ) ;
#146 = FACE_OUTER_BOUND ( 'NONE', #398, .T. ) ;
#147 = DIRECTION ( 'NONE',  ( 0.9659258262890680902, 0.000000000000000000, 0.2588190451025211836 ) ) ;
#148 = AXIS2_PLACEMENT_3D ( 'NONE', #260, #153, #374 ) ;
#149 = CARTESIAN_POINT ( 'NONE',  ( -14.35739556011235862, 2.080000000000001847, -4.870666710705875424 ) ) ;
#150 = EDGE_CURVE ( 'NONE', #138, #41, #385, .T. ) ;
#151 = DIRECTION ( 'NONE',  ( 2.122492810983430007E-32, 0.000000000000000000, 1.000000000000000000 ) ) ;
#152 = CARTESIAN_POINT ( 'NONE',  ( -8.647283762177924160, 3.480000000000003979, -12.65813248944867730 ) ) ;
#153 = DIRECTION ( 'NONE',  ( 0.000000000000000000, 1.000000000000000000, 0.000000000000000000 ) ) ;
#154 = LINE ( 'NONE', #28, #437 ) ;
#155 = ORIENTED_EDGE ( 'NONE', *, *, #46, .F. ) ;
#156 = EDGE_CURVE ( 'NONE', #353, #1, #204, .T. ) ;
#157 = PRODUCT_CONTEXT ( 'NONE', #73, 'mechanical' ) ;
#158 = CIRCLE ( 'NONE', #125, 17.50000000000000000 ) ;
#159 = MECHANICAL_DESIGN_GEOMETRIC_PRESENTATION_REPRESENTATION (  '', ( #208 ), #461 ) ;
#160 = CARTESIAN_POINT ( 'NONE',  ( -31.26109752017105237, 3.480000000000000426, -9.399999999999998579 ) ) ;
#161 = CARTESIAN_POINT ( 'NONE',  ( 0.000000000000000000, 2.079999999999995186, -14.65000000000000391 ) ) ;
#162 = ORIENTED_EDGE ( 'NONE', *, *, #32, .T. ) ;
#163 = LINE ( 'NONE', #166, #309 ) ;
#164 = ORIENTED_EDGE ( 'NONE', *, *, #37, .F. ) ;
#165 = EDGE_CURVE ( 'NONE', #93, #282, #87, .T. ) ;
#166 = CARTESIAN_POINT ( 'NONE',  ( 0.000000000000000000, 2.079999999999995186, -14.65000000000000391 ) ) ;
#167 = VECTOR ( 'NONE', #254, 1000.000000000000000 ) ;
#168 = ORIENTED_EDGE ( 'NONE', *, *, #165, .F. ) ;
#169 = AXIS2_PLACEMENT_3D ( 'NONE', #409, #341, #377 ) ;
#170 = SHAPE_DEFINITION_REPRESENTATION ( #446, #408 ) ;
#171 = CARTESIAN_POINT ( 'NONE',  ( -4.399999999999997691, 2.079999999999995186, -14.65000000000000391 ) ) ;
#172 = ORIENTED_EDGE ( 'NONE', *, *, #420, .F. ) ;
#173 = CARTESIAN_POINT ( 'NONE',  ( -4.400000000000001243, 0.000000000000000000, -18.80000000000000426 ) ) ;
#174 = ORIENTED_EDGE ( 'NONE', *, *, #199, .T. ) ;
#175 = LINE ( 'NONE', #252, #133 ) ;
#176 = ORIENTED_EDGE ( 'NONE', *, *, #498, .F. ) ;
#177 = AXIS2_PLACEMENT_3D ( 'NONE', #212, #143, #137 ) ;
#178 = AXIS2_PLACEMENT_3D ( 'NONE', #427, #436, #248 ) ;
#179 = ADVANCED_FACE ( 'NONE', ( #305 ), #435, .F. ) ;
#180 = LINE ( 'NONE', #215, #234 ) ;
#181 = ORIENTED_EDGE ( 'NONE', *, *, #344, .F. ) ;
#182 = FACE_OUTER_BOUND ( 'NONE', #123, .T. ) ;
#183 = ORIENTED_EDGE ( 'NONE', *, *, #276, .F. ) ;
#184 = DIRECTION ( 'NONE',  ( 0.000000000000000000, 0.000000000000000000, 1.000000000000000000 ) ) ;
#185 = ORIENTED_EDGE ( 'NONE', *, *, #450, .F. ) ;
#186 = AXIS2_PLACEMENT_3D ( 'NONE', #388, #207, #7 ) ;
#187 = CIRCLE ( 'NONE', #281, 1.631999870894150551 ) ;
#188 = DIRECTION ( 'NONE',  ( 1.000000000000000000, 0.000000000000000000, -8.360113137237622009E-16 ) ) ;
#189 = EDGE_LOOP ( 'NONE', ( #249, #209, #289, #16, #223, #468 ) ) ;
#190 = CARTESIAN_POINT ( 'NONE',  ( -5.090000000000000746, 2.080000000000001847, -9.271001493352235556 ) ) ;
#191 = CARTESIAN_POINT ( 'NONE',  ( -4.399999999999987033, 2.079999999999998295, 3.469446951953614189E-15 ) ) ;
#192 = EDGE_CURVE ( 'NONE', #1, #246, #462, .T. ) ;
#193 = DIRECTION ( 'NONE',  ( 1.082490641014322783E-32, 0.000000000000000000, -1.000000000000000000 ) ) ;
#194 = DIRECTION ( 'NONE',  ( -1.000000000000000000, 0.000000000000000000, -1.082490641014322783E-32 ) ) ;
#195 = AXIS2_PLACEMENT_3D ( 'NONE', #317, #139, #360 ) ;
#196 = DIRECTION ( 'NONE',  ( -1.000000000000000000, 0.000000000000000000, -1.082490641014322783E-32 ) ) ;
#197 = CARTESIAN_POINT ( 'NONE',  ( -5.090000000000000746, 2.000000000000019096, -7.639001622458084562 ) ) ;
#198 = LINE ( 'NONE', #294, #80 ) ;
#199 = EDGE_CURVE ( 'NONE', #76, #138, #370, .T. ) ;
#200 = CARTESIAN_POINT ( 'NONE',  ( -5.090000000000000746, 2.080000000000001847, -9.271001493352235556 ) ) ;
#201 = CARTESIAN_POINT ( 'NONE',  ( -5.090000000000000746, 2.080000000000001847, -7.639001622458084562 ) ) ;
#202 = EDGE_CURVE ( 'NONE', #66, #93, #389, .T. ) ;
#203 = AXIS2_PLACEMENT_3D ( 'NONE', #486, #188, #338 ) ;
#204 = LINE ( 'NONE', #277, #478 ) ;
#205 = ORIENTED_EDGE ( 'NONE', *, *, #199, .F. ) ;
#206 = DIRECTION ( 'NONE',  ( 1.000000000000000000, 0.000000000000000000, 1.082490641014322783E-32 ) ) ;
#207 = DIRECTION ( 'NONE',  ( -0.000000000000000000, -1.000000000000000000, -0.000000000000000000 ) ) ;
#208 = STYLED_ITEM ( 'NONE', ( #42 ), #408 ) ;
#209 = ORIENTED_EDGE ( 'NONE', *, *, #192, .T. ) ;
#210 = DIRECTION ( 'NONE',  ( 1.082490641014322783E-32, 0.000000000000000000, -1.000000000000000000 ) ) ;
#211 = VERTEX_POINT ( 'NONE', #343 ) ;
#212 = CARTESIAN_POINT ( 'NONE',  ( 0.000000000000000000, 3.480000000000000426, 0.000000000000000000 ) ) ;
#213 = VERTEX_POINT ( 'NONE', #171 ) ;
#214 = AXIS2_PLACEMENT_3D ( 'NONE', #447, #378, #340 ) ;
#215 = CARTESIAN_POINT ( 'NONE',  ( -4.400000000000001243, 2.079999999999998295, -18.80000000000000426 ) ) ;
#216 = ORIENTED_EDGE ( 'NONE', *, *, #387, .T. ) ;
#217 = PRESENTATION_LAYER_ASSIGNMENT (  '', '', ( #71 ) ) ;
#218 = DIRECTION ( 'NONE',  ( 0.000000000000000000, 1.000000000000000000, 0.000000000000000000 ) ) ;
#219 = ORIENTED_EDGE ( 'NONE', *, *, #26, .T. ) ;
#220 = ADVANCED_FACE ( 'NONE', ( #315 ), #424, .T. ) ;
#221 = CARTESIAN_POINT ( 'NONE',  ( -10.04150871114264021, 3.040655442366936967, -10.10772351031061156 ) ) ;
#222 = ORIENTED_EDGE ( 'NONE', *, *, #99, .F. ) ;
#223 = ORIENTED_EDGE ( 'NONE', *, *, #420, .T. ) ;
#224 = AXIS2_PLACEMENT_3D ( 'NONE', #190, #490, #333 ) ;
#225 = LINE ( 'NONE', #296, #45 ) ;
#226 = VERTEX_POINT ( 'NONE', #366 ) ;
#227 = LINE ( 'NONE', #382, #247 ) ;
#228 = FACE_OUTER_BOUND ( 'NONE', #239, .T. ) ;
#229 = FACE_OUTER_BOUND ( 'NONE', #189, .T. ) ;
#230 = CARTESIAN_POINT ( 'NONE',  ( -5.090000000000000746, 2.000000000000019096, -9.271001493352235556 ) ) ;
#231 = PLANE ( 'NONE',  #415 ) ;
#232 = DIRECTION ( 'NONE',  ( 0.000000000000000000, 0.000000000000000000, -1.000000000000000000 ) ) ;
#233 = DIRECTION ( 'NONE',  ( 1.000000000000000000, 0.000000000000000000, 0.000000000000000000 ) ) ;
#234 = VECTOR ( 'NONE', #10, 1000.000000000000000 ) ;
#235 = CONICAL_SURFACE ( 'NONE', #178, 3.131999870894160320, 0.6435011087932837048 ) ;
#236 = CARTESIAN_POINT ( 'NONE',  ( 0.000000000000000000, 2.079999999999995186, -14.65000000000000391 ) ) ;
#237 = EDGE_LOOP ( 'NONE', ( #423, #318, #174, #181 ) ) ;
#238 =( NAMED_UNIT ( * ) PLANE_ANGLE_UNIT ( ) SI_UNIT ( $, .RADIAN. ) );
#239 = EDGE_LOOP ( 'NONE', ( #130, #88, #162, #40 ) ) ;
#240 = DIRECTION ( 'NONE',  ( 0.000000000000000000, 1.000000000000000000, 0.000000000000000000 ) ) ;
#241 = MECHANICAL_DESIGN_GEOMETRIC_PRESENTATION_REPRESENTATION (  '', ( #71 ), #5 ) ;
#242 = AXIS2_PLACEMENT_3D ( 'NONE', #112, #193, #196 ) ;
#243 = DIRECTION ( 'NONE',  ( 0.000000000000000000, -1.000000000000000000, 0.000000000000000000 ) ) ;
#244 = ORIENTED_EDGE ( 'NONE', *, *, #263, .T. ) ;
#245 = CARTESIAN_POINT ( 'NONE',  ( -5.090000000000000746, 0.000000000000000000, -6.139001622458074792 ) ) ;
#246 = VERTEX_POINT ( 'NONE', #173 ) ;
#247 = VECTOR ( 'NONE', #117, 1000.000000000000000 ) ;
#248 = DIRECTION ( 'NONE',  ( 0.000000000000000000, 0.000000000000000000, -1.000000000000000000 ) ) ;
#249 = ORIENTED_EDGE ( 'NONE', *, *, #99, .T. ) ;
#250 = CIRCLE ( 'NONE', #224, 1.631999870894150551 ) ;
#251 = EDGE_CURVE ( 'NONE', #132, #76, #175, .T. ) ;
#252 = CARTESIAN_POINT ( 'NONE',  ( 0.2559035412398949494, 2.079999999999998295, -0.9550450177440821253 ) ) ;
#253 = ORIENTED_EDGE ( 'NONE', *, *, #498, .T. ) ;
#254 = DIRECTION ( 'NONE',  ( 1.000000000000000000, 0.000000000000000000, 1.082490641014322783E-32 ) ) ;
#255 = ORIENTED_EDGE ( 'NONE', *, *, #276, .T. ) ;
#256 = CARTESIAN_POINT ( 'NONE',  ( -31.26109752017105237, 3.480000000000000426, -9.399999999999998579 ) ) ;
#257 = FACE_BOUND ( 'NONE', #62, .T. ) ;
#258 = LINE ( 'NONE', #191, #456 ) ;
#259 = DIRECTION ( 'NONE',  ( 1.000000000000000000, 0.000000000000000000, 1.082490641014322783E-32 ) ) ;
#260 = CARTESIAN_POINT ( 'NONE',  ( -5.090000000000000746, 0.000000000000000000, -9.271001493352235556 ) ) ;
#261 = CARTESIAN_POINT ( 'NONE',  ( -4.399999999999987033, 0.000000000000000000, 3.469446951953614189E-15 ) ) ;
#262 = DIRECTION ( 'NONE',  ( -0.9659258262890680902, 0.000000000000000000, -0.2588190451025211281 ) ) ;
#263 = EDGE_CURVE ( 'NONE', #347, #132, #158, .T. ) ;
#264 = AXIS2_PLACEMENT_3D ( 'NONE', #127, #240, #44 ) ;
#265 =( LENGTH_UNIT ( ) NAMED_UNIT ( * ) SI_UNIT ( .MILLI., .METRE. ) );
#266 = CYLINDRICAL_SURFACE ( 'NONE', #293, 1.631999870894150551 ) ;
#267 =( BOUNDED_CURVE ( )  B_SPLINE_CURVE ( 3, ( #47, #221, #56, #325 ),
 .UNSPECIFIED., .F., .F. ) 
 B_SPLINE_CURVE_WITH_KNOTS ( ( 4, 4 ),
 ( 4.269477936311050215, 4.712388980384689674 ),
 .UNSPECIFIED. ) 
 CURVE ( )  GEOMETRIC_REPRESENTATION_ITEM ( )  RATIONAL_B_SPLINE_CURVE ( ( 1.000000000000000000, 0.9837191851176159130, 0.9837191851176159130, 1.000000000000000000 ) ) 
 REPRESENTATION_ITEM ( '' )  );
#268 = CARTESIAN_POINT ( 'NONE',  ( -31.26109752017105237, 0.000000000000000000, -9.399999999999998579 ) ) ;
#269 = EDGE_CURVE ( 'NONE', #41, #246, #180, .T. ) ;
#270 = CARTESIAN_POINT ( 'NONE',  ( 0.000000000000000000, 0.000000000000000000, -18.80000000000000426 ) ) ;
#271 = APPLICATION_PROTOCOL_DEFINITION ( 'draft international standard', 'automotive_design', 1998, #73 ) ;
#272 = VECTOR ( 'NONE', #82, 1000.000000000000000 ) ;
#273 = CARTESIAN_POINT ( 'NONE',  ( -5.090000000000000746, 0.000000000000000000, -9.271001493352235556 ) ) ;
#274 = ORIENTED_EDGE ( 'NONE', *, *, #414, .F. ) ;
#275 = CARTESIAN_POINT ( 'NONE',  ( 0.000000000000000000, 2.079999999999998295, -18.80000000000000426 ) ) ;
#276 = EDGE_CURVE ( 'NONE', #324, #144, #54, .T. ) ;
#277 = CARTESIAN_POINT ( 'NONE',  ( -16.50000000000000000, 2.079999999999998295, -18.80000000000000426 ) ) ;
#278 = ORIENTED_EDGE ( 'NONE', *, *, #118, .F. ) ;
#279 = ADVANCED_FACE ( 'NONE', ( #182 ), #430, .F. ) ;
#280 = FACE_OUTER_BOUND ( 'NONE', #57, .T. ) ;
#281 = AXIS2_PLACEMENT_3D ( 'NONE', #230, #380, #448 ) ;
#282 = VERTEX_POINT ( 'NONE', #245 ) ;
#283 = DIRECTION ( 'NONE',  ( 0.000000000000000000, 1.000000000000000000, 0.000000000000000000 ) ) ;
#284 = ORIENTED_EDGE ( 'NONE', *, *, #367, .F. ) ;
#285 = DIRECTION ( 'NONE',  ( 1.000000000000000000, 0.000000000000000000, -2.122492810983430007E-32 ) ) ;
#286 = ORIENTED_EDGE ( 'NONE', *, *, #457, .T. ) ;
#287 = PLANE ( 'NONE',  #177 ) ;
#288 = AXIS2_PLACEMENT_3D ( 'NONE', #131, #285, #92 ) ;
#289 = ORIENTED_EDGE ( 'NONE', *, *, #426, .T. ) ;
#290 = CARTESIAN_POINT ( 'NONE',  ( -5.090000000000000746, 2.080000000000001847, -10.90300136424638566 ) ) ;
#291 = ORIENTED_EDGE ( 'NONE', *, *, #351, .T. ) ;
#292 = CARTESIAN_POINT ( 'NONE',  ( -4.400000000000001243, 2.079999999999998295, -18.80000000000000426 ) ) ;
#293 = AXIS2_PLACEMENT_3D ( 'NONE', #200, #342, #232 ) ;
#294 = CARTESIAN_POINT ( 'NONE',  ( -5.090000000000000746, 2.080000000000001847, -10.90300136424638566 ) ) ;
#295 = AXIS2_PLACEMENT_3D ( 'NONE', #483, #31, #492 ) ;
#296 = CARTESIAN_POINT ( 'NONE',  ( -4.399999999999997691, 2.079999999999995186, -14.65000000000000391 ) ) ;
#297 = CARTESIAN_POINT ( 'NONE',  ( -14.43479157272468605, 3.480000000000000426, -14.20889053347350028 ) ) ;
#298 = CARTESIAN_POINT ( 'NONE',  ( -4.399999999999997691, 0.000000000000000000, -14.65000000000000391 ) ) ;
#299 = EDGE_LOOP ( 'NONE', ( #291, #416, #155, #307 ) ) ;
#300 = EDGE_CURVE ( 'NONE', #282, #36, #397, .T. ) ;
#301 = FACE_OUTER_BOUND ( 'NONE', #472, .T. ) ;
#302 = ORIENTED_EDGE ( 'NONE', *, *, #202, .T. ) ;
#303 = DIRECTION ( 'NONE',  ( 7.347880794884114066E-17, -0.8000000000000003775, 0.5999999999999994227 ) ) ;
#304 = FILL_AREA_STYLE_COLOUR ( '', #489 ) ;
#305 = FACE_OUTER_BOUND ( 'NONE', #368, .T. ) ;
#306 = FILL_AREA_STYLE_COLOUR ( '', #361 ) ;
#307 = ORIENTED_EDGE ( 'NONE', *, *, #23, .T. ) ;
#308 = APPLICATION_CONTEXT ( 'automotive_design' ) ;
#309 = VECTOR ( 'NONE', #206, 1000.000000000000000 ) ;
#310 = AXIS2_PLACEMENT_3D ( 'NONE', #81, #6, #233 ) ;
#311 = DIRECTION ( 'NONE',  ( 0.000000000000000000, -1.000000000000000000, 0.000000000000000000 ) ) ;
#312 = ADVANCED_FACE ( 'NONE', ( #49 ), #327, .T. ) ;
#313 = ORIENTED_EDGE ( 'NONE', *, *, #344, .T. ) ;
#314 = APPLICATION_PROTOCOL_DEFINITION ( 'draft international standard', 'automotive_design', 1998, #308 ) ;
#315 = FACE_OUTER_BOUND ( 'NONE', #237, .T. ) ;
#316 = EDGE_CURVE ( 'NONE', #66, #36, #52, .T. ) ;
#317 = CARTESIAN_POINT ( 'NONE',  ( -5.090000000000000746, 2.080000000000001847, -9.271001493352235556 ) ) ;
#318 = ORIENTED_EDGE ( 'NONE', *, *, #359, .T. ) ;
#319 = DIRECTION ( 'NONE',  ( 0.9659258262890680902, 0.000000000000000000, 0.2588190451025211836 ) ) ;
#320 = VECTOR ( 'NONE', #481, 1000.000000000000000 ) ;
#321 = EDGE_LOOP ( 'NONE', ( #392, #497, #126, #302 ) ) ;
#322 = ADVANCED_FACE ( 'NONE', ( #280 ), #439, .T. ) ;
#323 = CARTESIAN_POINT ( 'NONE',  ( -5.090000000000000746, 0.000000000000000000, -9.271001493352235556 ) ) ;
#324 = VERTEX_POINT ( 'NONE', #290 ) ;
#325 = CARTESIAN_POINT ( 'NONE',  ( -10.97665516810061881, 2.080000000000001847, -3.964800052847050615 ) ) ;
#326 = ORIENTED_EDGE ( 'NONE', *, *, #192, .F. ) ;
#327 = PLANE ( 'NONE',  #288 ) ;
#328 = VECTOR ( 'NONE', #346, 1000.000000000000000 ) ;
#329 = ORIENTED_EDGE ( 'NONE', *, *, #359, .F. ) ;
#330 =( GEOMETRIC_REPRESENTATION_CONTEXT ( 3 ) GLOBAL_UNCERTAINTY_ASSIGNED_CONTEXT ( ( #136 ) ) GLOBAL_UNIT_ASSIGNED_CONTEXT ( ( #369, #104, #21 ) ) REPRESENTATION_CONTEXT ( 'NONE', 'WORKASPACE' ) );
#331 = ADVANCED_FACE ( 'NONE', ( #473 ), #287, .T. ) ;
#332 = DIRECTION ( 'NONE',  ( 0.000000000000000000, -1.000000000000000000, 0.000000000000000000 ) ) ;
#333 = DIRECTION ( 'NONE',  ( 0.000000000000000000, 0.000000000000000000, 1.000000000000000000 ) ) ;
#334 = DIRECTION ( 'NONE',  ( -0.000000000000000000, 1.000000000000000000, 0.000000000000000000 ) ) ;
#335 = AXIS2_PLACEMENT_3D ( 'NONE', #268, #78, #348 ) ;
#336 = DIRECTION ( 'NONE',  ( 0.000000000000000000, -1.000000000000000000, 0.000000000000000000 ) ) ;
#337 = PLANE ( 'NONE',  #214 ) ;
#338 = DIRECTION ( 'NONE',  ( -8.360113137237622009E-16, 0.000000000000000000, -1.000000000000000000 ) ) ;
#339 = ADVANCED_FACE ( 'NONE', ( #364 ), #235, .F. ) ;
#340 = DIRECTION ( 'NONE',  ( 2.122492810983430007E-32, 0.000000000000000000, 1.000000000000000000 ) ) ;
#341 = DIRECTION ( 'NONE',  ( 0.000000000000000000, -1.000000000000000000, 0.000000000000000000 ) ) ;
#342 = DIRECTION ( 'NONE',  ( 0.000000000000000000, -1.000000000000000000, 0.000000000000000000 ) ) ;
#343 = CARTESIAN_POINT ( 'NONE',  ( 0.000000000000000000, 0.000000000000000000, 0.000000000000000000 ) ) ;
#344 = EDGE_CURVE ( 'NONE', #349, #138, #467, .T. ) ;
#345 = DIRECTION ( 'NONE',  ( -1.000000000000000000, 0.000000000000000000, -1.082490641014322783E-32 ) ) ;
#346 = DIRECTION ( 'NONE',  ( 0.000000000000000000, -1.000000000000000000, 0.000000000000000000 ) ) ;
#347 = VERTEX_POINT ( 'NONE', #12 ) ;
#348 = DIRECTION ( 'NONE',  ( 0.000000000000000000, 0.000000000000000000, 1.000000000000000000 ) ) ;
#349 = VERTEX_POINT ( 'NONE', #100 ) ;
#350 =( BOUNDED_CURVE ( )  B_SPLINE_CURVE ( 3, ( #149, #493, #27, #297 ),
 .UNSPECIFIED., .F., .F. ) 
 B_SPLINE_CURVE_WITH_KNOTS ( ( 4, 4 ),
 ( 1.570796326794897002, 2.110970897101469568 ),
 .UNSPECIFIED. ) 
 CURVE ( )  GEOMETRIC_REPRESENTATION_ITEM ( )  RATIONAL_B_SPLINE_CURVE ( ( 1.000000000000000000, 0.9758317406668284288, 0.9758317406668284288, 1.000000000000000000 ) ) 
 REPRESENTATION_ITEM ( '' )  );
#351 = EDGE_CURVE ( 'NONE', #226, #211, #396, .T. ) ;
#352 = SURFACE_SIDE_STYLE ('',( #390 ) ) ;
#353 = VERTEX_POINT ( 'NONE', #134 ) ;
#354 = DIRECTION ( 'NONE',  ( 0.000000000000000000, 0.000000000000000000, -1.000000000000000000 ) ) ;
#355 = ORIENTED_EDGE ( 'NONE', *, *, #251, .F. ) ;
#356 = CARTESIAN_POINT ( 'NONE',  ( 0.000000000000000000, 2.079999999999995186, -14.65000000000000391 ) ) ;
#357 = CIRCLE ( 'NONE', #148, 3.131999870894160320 ) ;
#358 = ORIENTED_EDGE ( 'NONE', *, *, #23, .F. ) ;
#359 = EDGE_CURVE ( 'NONE', #18, #76, #267, .T. ) ;
#360 = DIRECTION ( 'NONE',  ( 0.000000000000000000, 0.000000000000000000, 1.000000000000000000 ) ) ;
#361 = COLOUR_RGB ( '',0.7960784313725489669, 0.8235294117647058432, 0.9372549019607843146 ) ;
#362 = CIRCLE ( 'NONE', #417, 17.50000000000000000 ) ;
#363 = ORIENTED_EDGE ( 'NONE', *, *, #453, .T. ) ;
#364 = FACE_OUTER_BOUND ( 'NONE', #474, .T. ) ;
#365 = ORIENTED_EDGE ( 'NONE', *, *, #316, .T. ) ;
#366 = CARTESIAN_POINT ( 'NONE',  ( -16.49999999999999645, 0.000000000000000000, 0.000000000000000000 ) ) ;
#367 = EDGE_CURVE ( 'NONE', #477, #9, #94, .T. ) ;
#368 = EDGE_LOOP ( 'NONE', ( #440, #371, #164, #101 ) ) ;
#369 =( LENGTH_UNIT ( ) NAMED_UNIT ( * ) SI_UNIT ( .MILLI., .METRE. ) );
#370 = CIRCLE ( 'NONE', #264, 21.00000000000000000 ) ;
#371 = ORIENTED_EDGE ( 'NONE', *, *, #165, .T. ) ;
#372 = PRODUCT_DEFINITION_FORMATION_WITH_SPECIFIED_SOURCE ( 'Symmetric', '', #494, .NOT_KNOWN. ) ;
#373 = FACE_OUTER_BOUND ( 'NONE', #434, .T. ) ;
#374 = DIRECTION ( 'NONE',  ( 0.000000000000000000, 0.000000000000000000, 1.000000000000000000 ) ) ;
#375 = FACE_OUTER_BOUND ( 'NONE', #299, .T. ) ;
#376 = CLOSED_SHELL ( 'NONE', ( #179, #279, #429, #43, #312, #322, #443, #412, #8, #86, #61, #220, #331, #17, #339 ) ) ;
#377 = DIRECTION ( 'NONE',  ( 0.000000000000000000, 0.000000000000000000, -1.000000000000000000 ) ) ;
#378 = DIRECTION ( 'NONE',  ( -0.000000000000000000, 1.000000000000000000, 0.000000000000000000 ) ) ;
#379 = VECTOR ( 'NONE', #129, 1000.000000000000000 ) ;
#380 = DIRECTION ( 'NONE',  ( -0.000000000000000000, -1.000000000000000000, -0.000000000000000000 ) ) ;
#381 = CARTESIAN_POINT ( 'NONE',  ( 0.000000000000000000, 2.079999999999998295, 0.000000000000000000 ) ) ;
#382 = CARTESIAN_POINT ( 'NONE',  ( 0.000000000000000000, 2.079999999999998295, 0.000000000000000000 ) ) ;
#383 = FILL_AREA_STYLE ('',( #304 ) ) ;
#384 = CARTESIAN_POINT ( 'NONE',  ( 0.000000000000000000, 2.079999999999998295, 0.000000000000000000 ) ) ;
#385 = LINE ( 'NONE', #275, #379 ) ;
#386 = ORIENTED_EDGE ( 'NONE', *, *, #300, .T. ) ;
#387 = EDGE_CURVE ( 'NONE', #85, #18, #65, .T. ) ;
#388 = CARTESIAN_POINT ( 'NONE',  ( -5.090000000000000746, 2.000000000000019096, -9.271001493352235556 ) ) ;
#389 = CIRCLE ( 'NONE', #186, 1.631999870894150551 ) ;
#390 = SURFACE_STYLE_FILL_AREA ( #458 ) ;
#391 = CARTESIAN_POINT ( 'NONE',  ( -5.090000000000000746, 2.080000000000001847, -9.271001493352235556 ) ) ;
#392 = ORIENTED_EDGE ( 'NONE', *, *, #69, .F. ) ;
#393 = DIRECTION ( 'NONE',  ( 0.000000000000000000, -1.000000000000000000, 0.000000000000000000 ) ) ;
#394 = AXIS2_PLACEMENT_3D ( 'NONE', #405, #334, #151 ) ;
#395 = ORIENTED_EDGE ( 'NONE', *, *, #118, .T. ) ;
#396 = LINE ( 'NONE', #58, #167 ) ;
#397 = CIRCLE ( 'NONE', #460, 3.131999870894160320 ) ;
#398 = EDGE_LOOP ( 'NONE', ( #91, #11, #329, #480 ) ) ;
#399 = CARTESIAN_POINT ( 'NONE',  ( -5.090000000000000746, 0.000000000000000000, -12.40300136424639632 ) ) ;
#400 = VERTEX_POINT ( 'NONE', #406 ) ;
#401 = DIRECTION ( 'NONE',  ( 0.000000000000000000, -1.000000000000000000, 0.000000000000000000 ) ) ;
#402 = ORIENTED_EDGE ( 'NONE', *, *, #156, .F. ) ;
#403 = AXIS2_PLACEMENT_3D ( 'NONE', #391, #243, #15 ) ;
#404 = PLANE ( 'NONE',  #394 ) ;
#405 = CARTESIAN_POINT ( 'NONE',  ( 0.000000000000000000, 2.079999999999998295, 0.000000000000000000 ) ) ;
#406 = CARTESIAN_POINT ( 'NONE',  ( 0.000000000000000000, 2.079999999999998295, 0.000000000000000000 ) ) ;
#407 = EDGE_LOOP ( 'NONE', ( #172, #95, #253, #466 ) ) ;
#408 = ADVANCED_BREP_SHAPE_REPRESENTATION ( 'Twist_Lock_Wing', ( #119, #310 ), #330 ) ;
#409 = CARTESIAN_POINT ( 'NONE',  ( -31.26109752017105237, 2.080000000000001847, -9.399999999999998579 ) ) ;
#410 = CARTESIAN_POINT ( 'NONE',  ( 2.585274947162589765, 3.480000000000000426, -9.648377454345705928 ) ) ;
#411 = VECTOR ( 'NONE', #345, 1000.000000000000000 ) ;
#412 = ADVANCED_FACE ( 'NONE', ( #301 ), #451, .T. ) ;
#413 = LINE ( 'NONE', #108, #485 ) ;
#414 = EDGE_CURVE ( 'NONE', #213, #477, #225, .T. ) ;
#415 = AXIS2_PLACEMENT_3D ( 'NONE', #381, #68, #194 ) ;
#416 = ORIENTED_EDGE ( 'NONE', *, *, #111, .F. ) ;
#417 = AXIS2_PLACEMENT_3D ( 'NONE', #256, #67, #442 ) ;
#418 = DIRECTION ( 'NONE',  ( 0.000000000000000000, -1.000000000000000000, 0.000000000000000000 ) ) ;
#419 = ORIENTED_EDGE ( 'NONE', *, *, #202, .F. ) ;
#420 = EDGE_CURVE ( 'NONE', #9, #211, #63, .T. ) ;
#421 = SURFACE_STYLE_USAGE ( .BOTH. , #464 ) ;
#422 =( LENGTH_UNIT ( ) NAMED_UNIT ( * ) SI_UNIT ( .MILLI., .METRE. ) );
#423 = ORIENTED_EDGE ( 'NONE', *, *, #457, .F. ) ;
#424 = CYLINDRICAL_SURFACE ( 'NONE', #89, 21.00000000000000000 ) ;
#425 = EDGE_LOOP ( 'NONE', ( #205, #355, #50, #463, #176, #79, #25, #438 ) ) ;
#426 = EDGE_CURVE ( 'NONE', #246, #477, #60, .T. ) ;
#427 = CARTESIAN_POINT ( 'NONE',  ( -5.090000000000000746, 0.000000000000000000, -9.271001493352235556 ) ) ;
#428 = ORIENTED_EDGE ( 'NONE', *, *, #103, .T. ) ;
#429 = ADVANCED_FACE ( 'NONE', ( #373 ), #24, .F. ) ;
#430 = CYLINDRICAL_SURFACE ( 'NONE', #403, 1.631999870894150551 ) ;
#431 = ORIENTED_EDGE ( 'NONE', *, *, #128, .T. ) ;
#432 = PRODUCT_DEFINITION_CONTEXT ( 'detailed design', #308, 'design' ) ;
#433 = DIRECTION ( 'NONE',  ( 0.000000000000000000, -1.000000000000000000, 0.000000000000000000 ) ) ;
#434 = EDGE_LOOP ( 'NONE', ( #244, #219, #484, #48, #222, #358 ) ) ;
#435 = CONICAL_SURFACE ( 'NONE', #29, 3.131999870894160320, 0.6435011087932837048 ) ;
#436 = DIRECTION ( 'NONE',  ( 0.000000000000000000, -1.000000000000000000, 0.000000000000000000 ) ) ;
#437 = VECTOR ( 'NONE', #445, 1000.000000000000000 ) ;
#438 = ORIENTED_EDGE ( 'NONE', *, *, #150, .F. ) ;
#439 = PLANE ( 'NONE',  #106 ) ;
#440 = ORIENTED_EDGE ( 'NONE', *, *, #453, .F. ) ;
#441 = FACE_OUTER_BOUND ( 'NONE', #425, .T. ) ;
#442 = DIRECTION ( 'NONE',  ( -2.775557561562891351E-15, 0.000000000000000000, 1.000000000000000000 ) ) ;
#443 = ADVANCED_FACE ( 'NONE', ( #228 ), #114, .T. ) ;
#444 = PLANE ( 'NONE',  #2 ) ;
#445 = DIRECTION ( 'NONE',  ( 2.122492810983430007E-32, 0.000000000000000000, 1.000000000000000000 ) ) ;
#446 = PRODUCT_DEFINITION_SHAPE ( 'NONE', 'NONE',  #145 ) ;
#447 = CARTESIAN_POINT ( 'NONE',  ( 0.000000000000000000, 0.000000000000000000, 0.000000000000000000 ) ) ;
#448 = DIRECTION ( 'NONE',  ( 0.000000000000000000, 0.000000000000000000, 1.000000000000000000 ) ) ;
#449 = CARTESIAN_POINT ( 'NONE',  ( -16.50000000000000000, 0.000000000000000000, -18.80000000000000426 ) ) ;
#450 = EDGE_CURVE ( 'NONE', #144, #324, #250, .T. ) ;
#451 = PLANE ( 'NONE',  #242 ) ;
#452 = CARTESIAN_POINT ( 'NONE',  ( -16.49999999999999645, 2.079999999999998295, 0.000000000000000000 ) ) ;
#453 = EDGE_CURVE ( 'NONE', #93, #66, #187, .T. ) ;
#454 = PRESENTATION_STYLE_ASSIGNMENT (( #465 ) ) ;
#455 =( NAMED_UNIT ( * ) PLANE_ANGLE_UNIT ( ) SI_UNIT ( $, .RADIAN. ) );
#456 = VECTOR ( 'NONE', #72, 1000.000000000000000 ) ;
#457 = EDGE_CURVE ( 'NONE', #18, #349, #14, .T. ) ;
#458 = FILL_AREA_STYLE ('',( #306 ) ) ;
#459 = EDGE_LOOP ( 'NONE', ( #20, #386 ) ) ;
#460 = AXIS2_PLACEMENT_3D ( 'NONE', #323, #218, #90 ) ;
#461 =( GEOMETRIC_REPRESENTATION_CONTEXT ( 3 ) GLOBAL_UNCERTAINTY_ASSIGNED_CONTEXT ( ( #102 ) ) GLOBAL_UNIT_ASSIGNED_CONTEXT ( ( #265, #455, #3 ) ) REPRESENTATION_CONTEXT ( 'NONE', 'WORKASPACE' ) );
#462 = LINE ( 'NONE', #270, #272 ) ;
#463 = ORIENTED_EDGE ( 'NONE', *, *, #46, .T. ) ;
#464 = SURFACE_SIDE_STYLE ('',( #38 ) ) ;
#465 = SURFACE_STYLE_USAGE ( .BOTH. , #352 ) ;
#466 = ORIENTED_EDGE ( 'NONE', *, *, #111, .T. ) ;
#467 = LINE ( 'NONE', #97, #141 ) ;
#468 = ORIENTED_EDGE ( 'NONE', *, *, #351, .F. ) ;
#469 = UNCERTAINTY_MEASURE_WITH_UNIT (LENGTH_MEASURE( 1.000000000000000082E-05 ), #422, 'distance_accuracy_value', 'NONE');
#470 = EDGE_CURVE ( 'NONE', #324, #66, #198, .T. ) ;
#471 = DIRECTION ( 'NONE',  ( -1.000000000000000000, 0.000000000000000000, -1.082490641014322783E-32 ) ) ;
#472 = EDGE_LOOP ( 'NONE', ( #326, #402, #278, #313, #59, #13 ) ) ;
#473 = FACE_OUTER_BOUND ( 'NONE', #83, .T. ) ;
#474 = EDGE_LOOP ( 'NONE', ( #168, #419, #365, #98 ) ) ;
#475 = CARTESIAN_POINT ( 'NONE',  ( 0.000000000000000000, 0.000000000000000000, -14.65000000000000391 ) ) ;
#476 = EDGE_CURVE ( 'NONE', #353, #85, #362, .T. ) ;
#477 = VERTEX_POINT ( 'NONE', #298 ) ;
#478 = VECTOR ( 'NONE', #311, 1000.000000000000000 ) ;
#479 = DIRECTION ( 'NONE',  ( -1.273495686590057074E-32, -0.8000000000000003775, -0.5999999999999994227 ) ) ;
#480 = ORIENTED_EDGE ( 'NONE', *, *, #387, .F. ) ;
#481 = DIRECTION ( 'NONE',  ( 2.122492810983430007E-32, 0.000000000000000000, 1.000000000000000000 ) ) ;
#482 = CARTESIAN_POINT ( 'NONE',  ( -5.090000000000000746, 0.000000000000000000, -12.40300136424639632 ) ) ;
#483 = CARTESIAN_POINT ( 'NONE',  ( -31.26109752017105237, 3.480000000000000426, -9.399999999999998579 ) ) ;
#484 = ORIENTED_EDGE ( 'NONE', *, *, #476, .F. ) ;
#485 = VECTOR ( 'NONE', #34, 1000.000000000000000 ) ;
#486 = CARTESIAN_POINT ( 'NONE',  ( -4.399999999999987033, 2.079999999999998295, 3.469446951953614189E-15 ) ) ;
#487 = VECTOR ( 'NONE', #75, 1000.000000000000000 ) ;
#488 = CARTESIAN_POINT ( 'NONE',  ( -10.97665516810061881, 2.080000000000001847, -3.964800052847050615 ) ) ;
#489 = COLOUR_RGB ( '',0.7960784313725489669, 0.8235294117647058432, 0.9372549019607843146 ) ;
#490 = DIRECTION ( 'NONE',  ( 0.000000000000000000, 1.000000000000000000, 0.000000000000000000 ) ) ;
#491 = LINE ( 'NONE', #452, #77 ) ;
#492 = DIRECTION ( 'NONE',  ( 0.000000000000000000, 0.000000000000000000, 1.000000000000000000 ) ) ;
#493 = CARTESIAN_POINT ( 'NONE',  ( -13.53177741227093378, 2.576213443695149596, -7.951915586100995803 ) ) ;
#494 = PRODUCT ( 'Twist_Lock_Wing', 'Twist_Lock_Wing', '', ( #157 ) ) ;
#495 = CARTESIAN_POINT ( 'NONE',  ( 0.000000000000000000, 3.480000000000000426, -18.80000000000000426 ) ) ;
#496 = CARTESIAN_POINT ( 'NONE',  ( -5.090000000000000746, 0.000000000000000000, -6.139001622458074792 ) ) ;
#497 = ORIENTED_EDGE ( 'NONE', *, *, #450, .T. ) ;
#498 = EDGE_CURVE ( 'NONE', #140, #400, #154, .T. ) ;
ENDSEC;
END-ISO-10303-21;
