ISO-10303-21;
HEADER;
FILE_DESCRIPTION (( 'STEP AP214' ),
    '1' );
FILE_NAME ('217000 battery + frame.STEP',
    '2026-05-05T17:37:15',
    ( '' ),
    ( '' ),
    'SwSTEP 2.0',
    'SolidWorks 2025',
    '' );
FILE_SCHEMA (( 'AUTOMOTIVE_DESIGN' ));
ENDSEC;

DATA;
#1 = DIRECTION ( 'NONE',  ( 0.000000000000000000, 0.000000000000000000, 1.000000000000000000 ) ) ;
#2 =( LENGTH_UNIT ( ) NAMED_UNIT ( * ) SI_UNIT ( .MILLI., .METRE. ) );
#3 = VERTEX_POINT ( 'NONE', #161 ) ;
#4 = DIRECTION ( 'NONE',  ( 0.000000000000000000, 1.000000000000000000, -0.000000000000000000 ) ) ;
#5 = PRESENTATION_LAYER_ASSIGNMENT (  '', '', ( #307 ) ) ;
#6 = COLOUR_RGB ( '',0.007843137254901960675, 0.8745098039215686292, 0.000000000000000000 ) ;
#7 = VECTOR ( 'NONE', #146, 1000.000000000000000 ) ;
#8 = AXIS2_PLACEMENT_3D ( 'NONE', #279, #65, #248 ) ;
#9 = FACE_OUTER_BOUND ( 'NONE', #232, .T. ) ;
#10 = EDGE_LOOP ( 'NONE', ( #334, #80, #273, #280 ) ) ;
#11 = UNCERTAINTY_MEASURE_WITH_UNIT (LENGTH_MEASURE( 1.000000000000000082E-05 ), #170, 'distance_accuracy_value', 'NONE');
#12 = FACE_OUTER_BOUND ( 'NONE', #166, .T. ) ;
#13 = CARTESIAN_POINT ( 'NONE',  ( 0.000000000000000000, 83.00000000000000000, 12.50000000000000000 ) ) ;
#14 = AXIS2_PLACEMENT_3D ( 'NONE', #31, #294, #145 ) ;
#15 = EDGE_CURVE ( 'NONE', #3, #194, #337, .T. ) ;
#16 =( LENGTH_UNIT ( ) NAMED_UNIT ( * ) SI_UNIT ( .MILLI., .METRE. ) );
#17 = DIRECTION ( 'NONE',  ( 0.000000000000000000, 0.000000000000000000, 1.000000000000000000 ) ) ;
#18 = ORIENTED_EDGE ( 'NONE', *, *, #207, .F. ) ;
#19 = EDGE_LOOP ( 'NONE', ( #92, #148, #133, #195 ) ) ;
#20 = SURFACE_SIDE_STYLE ('',( #100 ) ) ;
#21 = LINE ( 'NONE', #254, #25 ) ;
#22 =( NAMED_UNIT ( * ) PLANE_ANGLE_UNIT ( ) SI_UNIT ( $, .RADIAN. ) );
#23 =( NAMED_UNIT ( * ) PLANE_ANGLE_UNIT ( ) SI_UNIT ( $, .RADIAN. ) );
#24 = SURFACE_SIDE_STYLE ('',( #316 ) ) ;
#25 = VECTOR ( 'NONE', #370, 1000.000000000000000 ) ;
#26 = PRESENTATION_STYLE_ASSIGNMENT (( #255 ) ) ;
#27 = SHAPE_DEFINITION_REPRESENTATION ( #117, #87 ) ;
#28 =( NAMED_UNIT ( * ) PLANE_ANGLE_UNIT ( ) SI_UNIT ( $, .RADIAN. ) );
#29 = PRESENTATION_STYLE_ASSIGNMENT (( #179 ) ) ;
#30 = MECHANICAL_DESIGN_GEOMETRIC_PRESENTATION_REPRESENTATION (  '', ( #84 ), #357 ) ;
#31 = CARTESIAN_POINT ( 'NONE',  ( 0.000000000000000000, 0.000000000000000000, 0.000000000000000000 ) ) ;
#32 = SURFACE_SIDE_STYLE ('',( #55 ) ) ;
#33 = ORIENTED_EDGE ( 'NONE', *, *, #15, .F. ) ;
#34 = PLANE ( 'NONE',  #37 ) ;
#35 = EDGE_CURVE ( 'NONE', #355, #45, #131, .T. ) ;
#36 = DIRECTION ( 'NONE',  ( 0.000000000000000000, 0.000000000000000000, 1.000000000000000000 ) ) ;
#37 = AXIS2_PLACEMENT_3D ( 'NONE', #178, #153, #86 ) ;
#38 =( NAMED_UNIT ( * ) SI_UNIT ( $, .STERADIAN. ) SOLID_ANGLE_UNIT ( ) );
#39 = ORIENTED_EDGE ( 'NONE', *, *, #123, .F. ) ;
#40 =( NAMED_UNIT ( * ) SI_UNIT ( $, .STERADIAN. ) SOLID_ANGLE_UNIT ( ) );
#41 = ADVANCED_FACE ( 'NONE', ( #249 ), #212, .T. ) ;
#42 = CARTESIAN_POINT ( 'NONE',  ( -11.39999999999999503, 83.00000000000000000, 0.000000000000000000 ) ) ;
#43 = FILL_AREA_STYLE_COLOUR ( '', #351 ) ;
#44 = VERTEX_POINT ( 'NONE', #108 ) ;
#45 = VERTEX_POINT ( 'NONE', #77 ) ;
#46 = PRODUCT_DEFINITION ( 'General', '', #228, #239 ) ;
#47 = CARTESIAN_POINT ( 'NONE',  ( 4.600000000000004974, 0.000000000000000000, -0.000000000000000000 ) ) ;
#48 = VECTOR ( 'NONE', #175, 1000.000000000000000 ) ;
#49 = PLANE ( 'NONE',  #135 ) ;
#50 = DIRECTION ( 'NONE',  ( 0.000000000000000000, 0.000000000000000000, 1.000000000000000000 ) ) ;
#51 = APPLICATION_CONTEXT ( 'automotive_design' ) ;
#52 = CARTESIAN_POINT ( 'NONE',  ( 0.000000000000000000, 83.00000000000000000, -12.50000000000000000 ) ) ;
#53 = FILL_AREA_STYLE ('',( #200 ) ) ;
#54 = STYLED_ITEM ( 'NONE', ( #369 ), #323 ) ;
#55 = SURFACE_STYLE_FILL_AREA ( #202 ) ;
#56 = FILL_AREA_STYLE_COLOUR ( '', #98 ) ;
#57 = VECTOR ( 'NONE', #203, 1000.000000000000000 ) ;
#58 = SURFACE_STYLE_FILL_AREA ( #325 ) ;
#59 = EDGE_CURVE ( 'NONE', #216, #126, #222, .T. ) ;
#60 = LINE ( 'NONE', #262, #70 ) ;
#61 = EDGE_LOOP ( 'NONE', ( #214, #158, #206, #361 ) ) ;
#62 = EDGE_LOOP ( 'NONE', ( #331, #282, #33, #247 ) ) ;
#63 = STYLED_ITEM ( 'NONE', ( #29 ), #225 ) ;
#64 = EDGE_CURVE ( 'NONE', #126, #151, #143, .T. ) ;
#65 = DIRECTION ( 'NONE',  ( 0.000000000000000000, 1.000000000000000000, -0.000000000000000000 ) ) ;
#66 = PLANE ( 'NONE',  #8 ) ;
#67 = CARTESIAN_POINT ( 'NONE',  ( 4.600000000000004974, 83.00000000000000000, -9.549869109050654004 ) ) ;
#68 = ORIENTED_EDGE ( 'NONE', *, *, #129, .T. ) ;
#69 = AXIS2_PLACEMENT_3D ( 'NONE', #208, #311, #17 ) ;
#70 = VECTOR ( 'NONE', #36, 1000.000000000000000 ) ;
#71 =( GEOMETRIC_REPRESENTATION_CONTEXT ( 3 ) GLOBAL_UNCERTAINTY_ASSIGNED_CONTEXT ( ( #338 ) ) GLOBAL_UNIT_ASSIGNED_CONTEXT ( ( #270, #246, #38 ) ) REPRESENTATION_CONTEXT ( 'NONE', 'WORKASPACE' ) );
#72 = FACE_OUTER_BOUND ( 'NONE', #83, .T. ) ;
#73 = LINE ( 'NONE', #167, #245 ) ;
#74 = SURFACE_STYLE_USAGE ( .BOTH. , #341 ) ;
#75 = SURFACE_STYLE_FILL_AREA ( #104 ) ;
#76 =( LENGTH_UNIT ( ) NAMED_UNIT ( * ) SI_UNIT ( .MILLI., .METRE. ) );
#77 = CARTESIAN_POINT ( 'NONE',  ( 4.600000000000004974, 0.000000000000000000, -9.549869109050654004 ) ) ;
#78 = CARTESIAN_POINT ( 'NONE',  ( 4.600000000000004974, 83.00000000000000000, 0.000000000000000000 ) ) ;
#79 = FILL_AREA_STYLE_COLOUR ( '', #176 ) ;
#80 = ORIENTED_EDGE ( 'NONE', *, *, #59, .F. ) ;
#81 = LINE ( 'NONE', #301, #332 ) ;
#82 = EDGE_CURVE ( 'NONE', #304, #355, #201, .T. ) ;
#83 = EDGE_LOOP ( 'NONE', ( #68, #39, #18, #329, #308, #265 ) ) ;
#84 = STYLED_ITEM ( 'NONE', ( #26 ), #116 ) ;
#85 = APPLICATION_PROTOCOL_DEFINITION ( 'draft international standard', 'automotive_design', 1998, #165 ) ;
#86 = DIRECTION ( 'NONE',  ( 0.000000000000000000, 0.000000000000000000, -1.000000000000000000 ) ) ;
#87 = ADVANCED_BREP_SHAPE_REPRESENTATION ( '217000 battery + frame', ( #323, #14 ), #186 ) ;
#88 = CYLINDRICAL_SURFACE ( 'NONE', #134, 10.59999999999999964 ) ;
#89 =( LENGTH_UNIT ( ) NAMED_UNIT ( * ) SI_UNIT ( .MILLI., .METRE. ) );
#90 = FILL_AREA_STYLE ('',( #43 ) ) ;
#91 = DIRECTION ( 'NONE',  ( 0.000000000000000000, 0.000000000000000000, -1.000000000000000000 ) ) ;
#92 = ORIENTED_EDGE ( 'NONE', *, *, #207, .T. ) ;
#93 = UNCERTAINTY_MEASURE_WITH_UNIT (LENGTH_MEASURE( 1.000000000000000082E-05 ), #107, 'distance_accuracy_value', 'NONE');
#94 = PRESENTATION_STYLE_ASSIGNMENT (( #353 ) ) ;
#95 = ORIENTED_EDGE ( 'NONE', *, *, #35, .T. ) ;
#96 = SURFACE_STYLE_USAGE ( .BOTH. , #244 ) ;
#97 = MECHANICAL_DESIGN_GEOMETRIC_PRESENTATION_REPRESENTATION (  '', ( #54 ), #124 ) ;
#98 = COLOUR_RGB ( '',0.2509803921568627416, 0.2509803921568627416, 0.2509803921568627416 ) ;
#99 = STYLED_ITEM ( 'NONE', ( #94 ), #266 ) ;
#100 = SURFACE_STYLE_FILL_AREA ( #141 ) ;
#101 = SURFACE_STYLE_FILL_AREA ( #137 ) ;
#102 = DIRECTION ( 'NONE',  ( 0.000000000000000000, 0.000000000000000000, 1.000000000000000000 ) ) ;
#103 = MECHANICAL_DESIGN_GEOMETRIC_PRESENTATION_REPRESENTATION (  '', ( #307 ), #204 ) ;
#104 = FILL_AREA_STYLE ('',( #198 ) ) ;
#105 = MECHANICAL_DESIGN_GEOMETRIC_PRESENTATION_REPRESENTATION (  '', ( #236 ), #234 ) ;
#106 = CARTESIAN_POINT ( 'NONE',  ( -11.39999999999999503, 83.00000000000000000, -12.50000000000000000 ) ) ;
#107 =( LENGTH_UNIT ( ) NAMED_UNIT ( * ) SI_UNIT ( .MILLI., .METRE. ) );
#108 = CARTESIAN_POINT ( 'NONE',  ( 4.600000000000004974, 0.000000000000000000, 12.50000000000000000 ) ) ;
#109 = DIRECTION ( 'NONE',  ( -0.000000000000000000, -1.000000000000000000, -0.000000000000000000 ) ) ;
#110 = EDGE_CURVE ( 'NONE', #216, #3, #321, .T. ) ;
#111 = COLOUR_RGB ( '',0.007843137254901960675, 0.8745098039215686292, 0.000000000000000000 ) ;
#112 = DIRECTION ( 'NONE',  ( 1.000000000000000000, 0.000000000000000000, 0.000000000000000000 ) ) ;
#113 = VECTOR ( 'NONE', #313, 1000.000000000000000 ) ;
#114 = ORIENTED_EDGE ( 'NONE', *, *, #15, .T. ) ;
#115 = UNCERTAINTY_MEASURE_WITH_UNIT (LENGTH_MEASURE( 1.000000000000000082E-05 ), #16, 'distance_accuracy_value', 'NONE');
#116 = ADVANCED_FACE ( 'NONE', ( #261 ), #49, .F. ) ;
#117 = PRODUCT_DEFINITION_SHAPE ( 'NONE', 'NONE',  #46 ) ;
#118 = FACE_OUTER_BOUND ( 'NONE', #189, .T. ) ;
#119 = STYLED_ITEM ( 'NONE', ( #333 ), #256 ) ;
#120 = CARTESIAN_POINT ( 'NONE',  ( -11.39999999999999503, 83.00000000000000000, 12.50000000000000000 ) ) ;
#121 = SURFACE_STYLE_FILL_AREA ( #193 ) ;
#122 = DIRECTION ( 'NONE',  ( 1.000000000000000000, -0.000000000000000000, 0.000000000000000000 ) ) ;
#123 = EDGE_CURVE ( 'NONE', #276, #44, #73, .T. ) ;
#124 =( GEOMETRIC_REPRESENTATION_CONTEXT ( 3 ) GLOBAL_UNCERTAINTY_ASSIGNED_CONTEXT ( ( #93 ) ) GLOBAL_UNIT_ASSIGNED_CONTEXT ( ( #107, #22, #224 ) ) REPRESENTATION_CONTEXT ( 'NONE', 'WORKASPACE' ) );
#125 = SURFACE_STYLE_USAGE ( .BOTH. , #275 ) ;
#126 = VERTEX_POINT ( 'NONE', #220 ) ;
#127 = AXIS2_PLACEMENT_3D ( 'NONE', #231, #112, #348 ) ;
#128 = PRESENTATION_STYLE_ASSIGNMENT (( #96 ) ) ;
#129 = EDGE_CURVE ( 'NONE', #160, #44, #21, .T. ) ;
#130 = CARTESIAN_POINT ( 'NONE',  ( -11.39999999999999503, 0.000000000000000000, 12.50000000000000000 ) ) ;
#131 = LINE ( 'NONE', #67, #252 ) ;
#132 =( NAMED_UNIT ( * ) SI_UNIT ( $, .STERADIAN. ) SOLID_ANGLE_UNIT ( ) );
#133 = ORIENTED_EDGE ( 'NONE', *, *, #110, .F. ) ;
#134 = AXIS2_PLACEMENT_3D ( 'NONE', #221, #366, #284 ) ;
#135 = AXIS2_PLACEMENT_3D ( 'NONE', #362, #340, #260 ) ;
#136 = SURFACE_STYLE_USAGE ( .BOTH. , #20 ) ;
#137 = FILL_AREA_STYLE ('',( #342 ) ) ;
#138 = ADVANCED_FACE ( 'NONE', ( #287 ), #257, .T. ) ;
#139 = CARTESIAN_POINT ( 'NONE',  ( 4.600000000000004974, 83.00000000000000000, -12.50000000000000000 ) ) ;
#140 = DIRECTION ( 'NONE',  ( -1.000000000000000000, 0.000000000000000000, -0.000000000000000000 ) ) ;
#141 = FILL_AREA_STYLE ('',( #286 ) ) ;
#142 = COLOUR_RGB ( '',0.2509803921568627416, 0.2509803921568627416, 0.2509803921568627416 ) ;
#143 = LINE ( 'NONE', #291, #48 ) ;
#144 = MECHANICAL_DESIGN_GEOMETRIC_PRESENTATION_REPRESENTATION (  '', ( #99 ), #350 ) ;
#145 = DIRECTION ( 'NONE',  ( 1.000000000000000000, 0.000000000000000000, 0.000000000000000000 ) ) ;
#146 = DIRECTION ( 'NONE',  ( -0.000000000000000000, -1.000000000000000000, -0.000000000000000000 ) ) ;
#147 = VECTOR ( 'NONE', #219, 1000.000000000000000 ) ;
#148 = ORIENTED_EDGE ( 'NONE', *, *, #235, .F. ) ;
#149 = EDGE_CURVE ( 'NONE', #304, #151, #81, .T. ) ;
#150 = PRODUCT_CONTEXT ( 'NONE', #51, 'mechanical' ) ;
#151 = VERTEX_POINT ( 'NONE', #267 ) ;
#152 =( NAMED_UNIT ( * ) SI_UNIT ( $, .STERADIAN. ) SOLID_ANGLE_UNIT ( ) );
#153 = DIRECTION ( 'NONE',  ( 1.000000000000000000, 0.000000000000000000, 0.000000000000000000 ) ) ;
#154 = LINE ( 'NONE', #293, #7 ) ;
#155 = AXIS2_PLACEMENT_3D ( 'NONE', #52, #197, #140 ) ;
#156 = COLOUR_RGB ( '',0.2509803921568627416, 0.2509803921568627416, 0.2509803921568627416 ) ;
#157 =( NAMED_UNIT ( * ) PLANE_ANGLE_UNIT ( ) SI_UNIT ( $, .RADIAN. ) );
#158 = ORIENTED_EDGE ( 'NONE', *, *, #162, .F. ) ;
#159 = FILL_AREA_STYLE_COLOUR ( '', #271 ) ;
#160 = VERTEX_POINT ( 'NONE', #264 ) ;
#161 = CARTESIAN_POINT ( 'NONE',  ( -11.39999999999999503, 83.00000000000000000, 12.50000000000000000 ) ) ;
#162 = EDGE_CURVE ( 'NONE', #352, #160, #347, .T. ) ;
#163 =( GEOMETRIC_REPRESENTATION_CONTEXT ( 3 ) GLOBAL_UNCERTAINTY_ASSIGNED_CONTEXT ( ( #115 ) ) GLOBAL_UNIT_ASSIGNED_CONTEXT ( ( #16, #305, #358 ) ) REPRESENTATION_CONTEXT ( 'NONE', 'WORKASPACE' ) );
#164 = ORIENTED_EDGE ( 'NONE', *, *, #363, .F. ) ;
#165 = APPLICATION_CONTEXT ( 'automotive_design' ) ;
#166 = EDGE_LOOP ( 'NONE', ( #164, #312, #335, #359, #251, #114 ) ) ;
#167 = CARTESIAN_POINT ( 'NONE',  ( 0.000000000000000000, 0.000000000000000000, 12.50000000000000000 ) ) ;
#168 = PRESENTATION_LAYER_ASSIGNMENT (  '', '', ( #84 ) ) ;
#169 = DIRECTION ( 'NONE',  ( 0.000000000000000000, 0.000000000000000000, 1.000000000000000000 ) ) ;
#170 =( LENGTH_UNIT ( ) NAMED_UNIT ( * ) SI_UNIT ( .MILLI., .METRE. ) );
#171 = EDGE_CURVE ( 'NONE', #352, #355, #336, .T. ) ;
#172 = DIRECTION ( 'NONE',  ( 0.000000000000000000, 0.000000000000000000, 1.000000000000000000 ) ) ;
#173 = CARTESIAN_POINT ( 'NONE',  ( -11.39999999999999503, 83.00000000000000000, 0.000000000000000000 ) ) ;
#174 =( LENGTH_UNIT ( ) NAMED_UNIT ( * ) SI_UNIT ( .MILLI., .METRE. ) );
#175 = DIRECTION ( 'NONE',  ( 1.000000000000000000, -0.000000000000000000, 0.000000000000000000 ) ) ;
#176 = COLOUR_RGB ( '',0.2509803921568627416, 0.2509803921568627416, 0.2509803921568627416 ) ;
#177 = MECHANICAL_DESIGN_GEOMETRIC_PRESENTATION_REPRESENTATION (  '', ( #119 ), #71 ) ;
#178 = CARTESIAN_POINT ( 'NONE',  ( 4.600000000000004974, 83.00000000000000000, 0.000000000000000000 ) ) ;
#179 = SURFACE_STYLE_USAGE ( .BOTH. , #32 ) ;
#180 = EDGE_CURVE ( 'NONE', #216, #304, #230, .T. ) ;
#181 = UNCERTAINTY_MEASURE_WITH_UNIT (LENGTH_MEASURE( 1.000000000000000082E-05 ), #367, 'distance_accuracy_value', 'NONE');
#182 = CARTESIAN_POINT ( 'NONE',  ( 0.000000000000000000, 83.00000000000000000, 0.000000000000000000 ) ) ;
#183 = CLOSED_SHELL ( 'NONE', ( #138, #281, #187, #41, #225, #116, #256, #266 ) ) ;
#184 =( NAMED_UNIT ( * ) SI_UNIT ( $, .STERADIAN. ) SOLID_ANGLE_UNIT ( ) );
#185 = SURFACE_SIDE_STYLE ('',( #58 ) ) ;
#186 =( GEOMETRIC_REPRESENTATION_CONTEXT ( 3 ) GLOBAL_UNCERTAINTY_ASSIGNED_CONTEXT ( ( #375 ) ) GLOBAL_UNIT_ASSIGNED_CONTEXT ( ( #76, #23, #132 ) ) REPRESENTATION_CONTEXT ( 'NONE', 'WORKASPACE' ) );
#187 = ADVANCED_FACE ( 'NONE', ( #118 ), #34, .T. ) ;
#188 = FILL_AREA_STYLE_COLOUR ( '', #156 ) ;
#189 = EDGE_LOOP ( 'NONE', ( #349, #277, #299, #95 ) ) ;
#190 = STYLED_ITEM ( 'NONE', ( #128 ), #41 ) ;
#191 = ORIENTED_EDGE ( 'NONE', *, *, #373, .T. ) ;
#192 = EDGE_CURVE ( 'NONE', #194, #44, #154, .T. ) ;
#193 = FILL_AREA_STYLE ('',( #159 ) ) ;
#194 = VERTEX_POINT ( 'NONE', #328 ) ;
#195 = ORIENTED_EDGE ( 'NONE', *, *, #59, .T. ) ;
#196 = DIRECTION ( 'NONE',  ( 0.000000000000000000, 1.000000000000000000, -0.000000000000000000 ) ) ;
#197 = DIRECTION ( 'NONE',  ( 0.000000000000000000, 0.000000000000000000, -1.000000000000000000 ) ) ;
#198 = FILL_AREA_STYLE_COLOUR ( '', #6 ) ;
#199 = VECTOR ( 'NONE', #102, 1000.000000000000000 ) ;
#200 = FILL_AREA_STYLE_COLOUR ( '', #346 ) ;
#201 = LINE ( 'NONE', #289, #113 ) ;
#202 = FILL_AREA_STYLE ('',( #56 ) ) ;
#203 = DIRECTION ( 'NONE',  ( -0.000000000000000000, -1.000000000000000000, -0.000000000000000000 ) ) ;
#204 =( GEOMETRIC_REPRESENTATION_CONTEXT ( 3 ) GLOBAL_UNCERTAINTY_ASSIGNED_CONTEXT ( ( #274 ) ) GLOBAL_UNIT_ASSIGNED_CONTEXT ( ( #174, #288, #152 ) ) REPRESENTATION_CONTEXT ( 'NONE', 'WORKASPACE' ) );
#205 =( LENGTH_UNIT ( ) NAMED_UNIT ( * ) SI_UNIT ( .MILLI., .METRE. ) );
#206 = ORIENTED_EDGE ( 'NONE', *, *, #363, .T. ) ;
#207 = EDGE_CURVE ( 'NONE', #126, #276, #60, .T. ) ;
#208 = CARTESIAN_POINT ( 'NONE',  ( 0.000000000000000000, 0.000000000000000000, 0.000000000000000000 ) ) ;
#209 = ORIENTED_EDGE ( 'NONE', *, *, #35, .F. ) ;
#210 = AXIS2_PLACEMENT_3D ( 'NONE', #42, #272, #91 ) ;
#211 = DIRECTION ( 'NONE',  ( -0.000000000000000000, -1.000000000000000000, -0.000000000000000000 ) ) ;
#212 = PLANE ( 'NONE',  #155 ) ;
#213 =( NAMED_UNIT ( * ) PLANE_ANGLE_UNIT ( ) SI_UNIT ( $, .RADIAN. ) );
#214 = ORIENTED_EDGE ( 'NONE', *, *, #129, .F. ) ;
#215 = SURFACE_STYLE_FILL_AREA ( #354 ) ;
#216 = VERTEX_POINT ( 'NONE', #295 ) ;
#217 = PRESENTATION_LAYER_ASSIGNMENT (  '', '', ( #54 ) ) ;
#218 = PRESENTATION_LAYER_ASSIGNMENT (  '', '', ( #99 ) ) ;
#219 = DIRECTION ( 'NONE',  ( -0.000000000000000000, -1.000000000000000000, -0.000000000000000000 ) ) ;
#220 = CARTESIAN_POINT ( 'NONE',  ( -11.39999999999999503, 0.000000000000000000, -12.50000000000000000 ) ) ;
#221 = CARTESIAN_POINT ( 'NONE',  ( 0.000000000000000000, 83.00000000000000000, 0.000000000000000000 ) ) ;
#222 = LINE ( 'NONE', #106, #147 ) ;
#223 = MECHANICAL_DESIGN_GEOMETRIC_PRESENTATION_REPRESENTATION (  '', ( #263 ), #303 ) ;
#224 =( NAMED_UNIT ( * ) SI_UNIT ( $, .STERADIAN. ) SOLID_ANGLE_UNIT ( ) );
#225 = ADVANCED_FACE ( 'NONE', ( #371 ), #372, .F. ) ;
#226 = LINE ( 'NONE', #47, #345 ) ;
#227 = CARTESIAN_POINT ( 'NONE',  ( 4.600000000000004974, 83.00000000000000000, 9.549869109050654004 ) ) ;
#228 = PRODUCT_DEFINITION_FORMATION_WITH_SPECIFIED_SOURCE ( 'Symmetric', '', #300, .NOT_KNOWN. ) ;
#229 = CARTESIAN_POINT ( 'NONE',  ( 0.000000000000000000, 83.00000000000000000, -12.50000000000000000 ) ) ;
#230 = LINE ( 'NONE', #229, #309 ) ;
#231 = CARTESIAN_POINT ( 'NONE',  ( 4.600000000000004974, 83.00000000000000000, 0.000000000000000000 ) ) ;
#232 = EDGE_LOOP ( 'NONE', ( #191, #209, #237, #241 ) ) ;
#233 = VECTOR ( 'NONE', #50, 1000.000000000000000 ) ;
#234 =( GEOMETRIC_REPRESENTATION_CONTEXT ( 3 ) GLOBAL_UNCERTAINTY_ASSIGNED_CONTEXT ( ( #310 ) ) GLOBAL_UNIT_ASSIGNED_CONTEXT ( ( #205, #28, #184 ) ) REPRESENTATION_CONTEXT ( 'NONE', 'WORKASPACE' ) );
#235 = EDGE_CURVE ( 'NONE', #3, #276, #240, .T. ) ;
#236 = STYLED_ITEM ( 'NONE', ( #324 ), #187 ) ;
#237 = ORIENTED_EDGE ( 'NONE', *, *, #171, .F. ) ;
#238 =( NAMED_UNIT ( * ) SI_UNIT ( $, .STERADIAN. ) SOLID_ANGLE_UNIT ( ) );
#239 = PRODUCT_DEFINITION_CONTEXT ( 'detailed design', #165, 'design' ) ;
#240 = LINE ( 'NONE', #120, #317 ) ;
#241 = ORIENTED_EDGE ( 'NONE', *, *, #162, .T. ) ;
#242 = CIRCLE ( 'NONE', #302, 10.59999999999999964 ) ;
#243 = PLANE ( 'NONE',  #69 ) ;
#244 = SURFACE_SIDE_STYLE ('',( #360 ) ) ;
#245 = VECTOR ( 'NONE', #320, 1000.000000000000000 ) ;
#246 =( NAMED_UNIT ( * ) PLANE_ANGLE_UNIT ( ) SI_UNIT ( $, .RADIAN. ) );
#247 = ORIENTED_EDGE ( 'NONE', *, *, #235, .T. ) ;
#248 = DIRECTION ( 'NONE',  ( 0.000000000000000000, 0.000000000000000000, 1.000000000000000000 ) ) ;
#249 = FACE_OUTER_BOUND ( 'NONE', #10, .T. ) ;
#250 = CARTESIAN_POINT ( 'NONE',  ( 4.600000000000004974, 83.00000000000000000, 9.549869109050654004 ) ) ;
#251 = ORIENTED_EDGE ( 'NONE', *, *, #110, .T. ) ;
#252 = VECTOR ( 'NONE', #306, 1000.000000000000000 ) ;
#253 = PRESENTATION_STYLE_ASSIGNMENT (( #136 ) ) ;
#254 = CARTESIAN_POINT ( 'NONE',  ( 4.600000000000004974, 0.000000000000000000, -0.000000000000000000 ) ) ;
#255 = SURFACE_STYLE_USAGE ( .BOTH. , #24 ) ;
#256 = ADVANCED_FACE ( 'NONE', ( #12 ), #66, .T. ) ;
#257 = PLANE ( 'NONE',  #127 ) ;
#258 = PRESENTATION_LAYER_ASSIGNMENT (  '', '', ( #190 ) ) ;
#259 = SURFACE_STYLE_USAGE ( .BOTH. , #314 ) ;
#260 = DIRECTION ( 'NONE',  ( -1.000000000000000000, 0.000000000000000000, -0.000000000000000000 ) ) ;
#261 = FACE_OUTER_BOUND ( 'NONE', #62, .T. ) ;
#262 = CARTESIAN_POINT ( 'NONE',  ( -11.39999999999999503, 0.000000000000000000, 0.000000000000000000 ) ) ;
#263 = STYLED_ITEM ( 'NONE', ( #285 ), #138 ) ;
#264 = CARTESIAN_POINT ( 'NONE',  ( 4.600000000000004974, 0.000000000000000000, 9.549869109050654004 ) ) ;
#265 = ORIENTED_EDGE ( 'NONE', *, *, #373, .F. ) ;
#266 = ADVANCED_FACE ( 'NONE', ( #72 ), #243, .F. ) ;
#267 = CARTESIAN_POINT ( 'NONE',  ( 4.600000000000004974, 0.000000000000000000, -12.50000000000000000 ) ) ;
#268 = UNCERTAINTY_MEASURE_WITH_UNIT (LENGTH_MEASURE( 1.000000000000000082E-05 ), #2, 'distance_accuracy_value', 'NONE');
#269 = MECHANICAL_DESIGN_GEOMETRIC_PRESENTATION_REPRESENTATION (  '', ( #190 ), #163 ) ;
#270 =( LENGTH_UNIT ( ) NAMED_UNIT ( * ) SI_UNIT ( .MILLI., .METRE. ) );
#271 = COLOUR_RGB ( '',0.2509803921568627416, 0.2509803921568627416, 0.2509803921568627416 ) ;
#272 = DIRECTION ( 'NONE',  ( 1.000000000000000000, 0.000000000000000000, 0.000000000000000000 ) ) ;
#273 = ORIENTED_EDGE ( 'NONE', *, *, #180, .T. ) ;
#274 = UNCERTAINTY_MEASURE_WITH_UNIT (LENGTH_MEASURE( 1.000000000000000082E-05 ), #174, 'distance_accuracy_value', 'NONE');
#275 = SURFACE_SIDE_STYLE ('',( #121 ) ) ;
#276 = VERTEX_POINT ( 'NONE', #130 ) ;
#277 = ORIENTED_EDGE ( 'NONE', *, *, #149, .F. ) ;
#278 = AXIS2_PLACEMENT_3D ( 'NONE', #182, #4, #1 ) ;
#279 = CARTESIAN_POINT ( 'NONE',  ( 0.000000000000000000, 83.00000000000000000, 0.000000000000000000 ) ) ;
#280 = ORIENTED_EDGE ( 'NONE', *, *, #149, .T. ) ;
#281 = ADVANCED_FACE ( 'NONE', ( #9 ), #88, .T. ) ;
#282 = ORIENTED_EDGE ( 'NONE', *, *, #192, .F. ) ;
#283 =( NAMED_UNIT ( * ) PLANE_ANGLE_UNIT ( ) SI_UNIT ( $, .RADIAN. ) );
#284 = DIRECTION ( 'NONE',  ( 0.000000000000000000, 0.000000000000000000, -1.000000000000000000 ) ) ;
#285 = PRESENTATION_STYLE_ASSIGNMENT (( #74 ) ) ;
#286 = FILL_AREA_STYLE_COLOUR ( '', #111 ) ;
#287 = FACE_OUTER_BOUND ( 'NONE', #61, .T. ) ;
#288 =( NAMED_UNIT ( * ) PLANE_ANGLE_UNIT ( ) SI_UNIT ( $, .RADIAN. ) );
#289 = CARTESIAN_POINT ( 'NONE',  ( 4.600000000000004974, 83.00000000000000000, 0.000000000000000000 ) ) ;
#290 = PRESENTATION_LAYER_ASSIGNMENT (  '', '', ( #119 ) ) ;
#291 = CARTESIAN_POINT ( 'NONE',  ( 0.000000000000000000, 0.000000000000000000, -12.50000000000000000 ) ) ;
#292 = PRODUCT_RELATED_PRODUCT_CATEGORY ( 'part', '', ( #300 ) ) ;
#293 = CARTESIAN_POINT ( 'NONE',  ( 4.600000000000004974, 83.00000000000000000, 12.50000000000000000 ) ) ;
#294 = DIRECTION ( 'NONE',  ( 0.000000000000000000, 0.000000000000000000, 1.000000000000000000 ) ) ;
#295 = CARTESIAN_POINT ( 'NONE',  ( -11.39999999999999503, 83.00000000000000000, -12.50000000000000000 ) ) ;
#296 = VECTOR ( 'NONE', #122, 1000.000000000000000 ) ;
#297 = APPLICATION_PROTOCOL_DEFINITION ( 'draft international standard', 'automotive_design', 1998, #51 ) ;
#298 = DIRECTION ( 'NONE',  ( 1.000000000000000000, -0.000000000000000000, 0.000000000000000000 ) ) ;
#299 = ORIENTED_EDGE ( 'NONE', *, *, #82, .T. ) ;
#300 = PRODUCT ( '217000 battery + frame', '217000 battery + frame', '', ( #150 ) ) ;
#301 = CARTESIAN_POINT ( 'NONE',  ( 4.600000000000004974, 83.00000000000000000, -12.50000000000000000 ) ) ;
#302 = AXIS2_PLACEMENT_3D ( 'NONE', #318, #196, #172 ) ;
#303 =( GEOMETRIC_REPRESENTATION_CONTEXT ( 3 ) GLOBAL_UNCERTAINTY_ASSIGNED_CONTEXT ( ( #181 ) ) GLOBAL_UNIT_ASSIGNED_CONTEXT ( ( #367, #365, #344 ) ) REPRESENTATION_CONTEXT ( 'NONE', 'WORKASPACE' ) );
#304 = VERTEX_POINT ( 'NONE', #139 ) ;
#305 =( NAMED_UNIT ( * ) PLANE_ANGLE_UNIT ( ) SI_UNIT ( $, .RADIAN. ) );
#306 = DIRECTION ( 'NONE',  ( -0.000000000000000000, -1.000000000000000000, -0.000000000000000000 ) ) ;
#307 = STYLED_ITEM ( 'NONE', ( #253 ), #87 ) ;
#308 = ORIENTED_EDGE ( 'NONE', *, *, #315, .T. ) ;
#309 = VECTOR ( 'NONE', #298, 1000.000000000000000 ) ;
#310 = UNCERTAINTY_MEASURE_WITH_UNIT (LENGTH_MEASURE( 1.000000000000000082E-05 ), #205, 'distance_accuracy_value', 'NONE');
#311 = DIRECTION ( 'NONE',  ( 0.000000000000000000, 1.000000000000000000, -0.000000000000000000 ) ) ;
#312 = ORIENTED_EDGE ( 'NONE', *, *, #171, .T. ) ;
#313 = DIRECTION ( 'NONE',  ( 0.000000000000000000, 0.000000000000000000, 1.000000000000000000 ) ) ;
#314 = SURFACE_SIDE_STYLE ('',( #75 ) ) ;
#315 = EDGE_CURVE ( 'NONE', #151, #45, #226, .T. ) ;
#316 = SURFACE_STYLE_FILL_AREA ( #53 ) ;
#317 = VECTOR ( 'NONE', #211, 1000.000000000000000 ) ;
#318 = CARTESIAN_POINT ( 'NONE',  ( 0.000000000000000000, 0.000000000000000000, 0.000000000000000000 ) ) ;
#319 =( NAMED_UNIT ( * ) SI_UNIT ( $, .STERADIAN. ) SOLID_ANGLE_UNIT ( ) );
#320 = DIRECTION ( 'NONE',  ( 1.000000000000000000, -0.000000000000000000, 0.000000000000000000 ) ) ;
#321 = LINE ( 'NONE', #173, #199 ) ;
#322 = MECHANICAL_DESIGN_GEOMETRIC_PRESENTATION_REPRESENTATION (  '', ( #63 ), #374 ) ;
#323 = MANIFOLD_SOLID_BREP ( 'Boss-Extrude1', #183 ) ;
#324 = PRESENTATION_STYLE_ASSIGNMENT (( #327 ) ) ;
#325 = FILL_AREA_STYLE ('',( #79 ) ) ;
#326 = PRESENTATION_LAYER_ASSIGNMENT (  '', '', ( #236 ) ) ;
#327 = SURFACE_STYLE_USAGE ( .BOTH. , #185 ) ;
#328 = CARTESIAN_POINT ( 'NONE',  ( 4.600000000000004974, 83.00000000000000000, 12.50000000000000000 ) ) ;
#329 = ORIENTED_EDGE ( 'NONE', *, *, #64, .T. ) ;
#330 = SURFACE_SIDE_STYLE ('',( #215 ) ) ;
#331 = ORIENTED_EDGE ( 'NONE', *, *, #123, .T. ) ;
#332 = VECTOR ( 'NONE', #109, 1000.000000000000000 ) ;
#333 = PRESENTATION_STYLE_ASSIGNMENT (( #125 ) ) ;
#334 = ORIENTED_EDGE ( 'NONE', *, *, #64, .F. ) ;
#335 = ORIENTED_EDGE ( 'NONE', *, *, #82, .F. ) ;
#336 = CIRCLE ( 'NONE', #278, 10.59999999999999964 ) ;
#337 = LINE ( 'NONE', #13, #296 ) ;
#338 = UNCERTAINTY_MEASURE_WITH_UNIT (LENGTH_MEASURE( 1.000000000000000082E-05 ), #270, 'distance_accuracy_value', 'NONE');
#339 = LINE ( 'NONE', #78, #233 ) ;
#340 = DIRECTION ( 'NONE',  ( 0.000000000000000000, 0.000000000000000000, -1.000000000000000000 ) ) ;
#341 = SURFACE_SIDE_STYLE ('',( #101 ) ) ;
#342 = FILL_AREA_STYLE_COLOUR ( '', #142 ) ;
#343 = PRESENTATION_LAYER_ASSIGNMENT (  '', '', ( #263 ) ) ;
#344 =( NAMED_UNIT ( * ) SI_UNIT ( $, .STERADIAN. ) SOLID_ANGLE_UNIT ( ) );
#345 = VECTOR ( 'NONE', #169, 1000.000000000000000 ) ;
#346 = COLOUR_RGB ( '',0.2509803921568627416, 0.2509803921568627416, 0.2509803921568627416 ) ;
#347 = LINE ( 'NONE', #227, #57 ) ;
#348 = DIRECTION ( 'NONE',  ( 0.000000000000000000, 0.000000000000000000, -1.000000000000000000 ) ) ;
#349 = ORIENTED_EDGE ( 'NONE', *, *, #315, .F. ) ;
#350 =( GEOMETRIC_REPRESENTATION_CONTEXT ( 3 ) GLOBAL_UNCERTAINTY_ASSIGNED_CONTEXT ( ( #356 ) ) GLOBAL_UNIT_ASSIGNED_CONTEXT ( ( #89, #157, #40 ) ) REPRESENTATION_CONTEXT ( 'NONE', 'WORKASPACE' ) );
#351 = COLOUR_RGB ( '',0.2509803921568627416, 0.2509803921568627416, 0.2509803921568627416 ) ;
#352 = VERTEX_POINT ( 'NONE', #250 ) ;
#353 = SURFACE_STYLE_USAGE ( .BOTH. , #330 ) ;
#354 = FILL_AREA_STYLE ('',( #188 ) ) ;
#355 = VERTEX_POINT ( 'NONE', #364 ) ;
#356 = UNCERTAINTY_MEASURE_WITH_UNIT (LENGTH_MEASURE( 1.000000000000000082E-05 ), #89, 'distance_accuracy_value', 'NONE');
#357 =( GEOMETRIC_REPRESENTATION_CONTEXT ( 3 ) GLOBAL_UNCERTAINTY_ASSIGNED_CONTEXT ( ( #11 ) ) GLOBAL_UNIT_ASSIGNED_CONTEXT ( ( #170, #283, #319 ) ) REPRESENTATION_CONTEXT ( 'NONE', 'WORKASPACE' ) );
#358 =( NAMED_UNIT ( * ) SI_UNIT ( $, .STERADIAN. ) SOLID_ANGLE_UNIT ( ) );
#359 = ORIENTED_EDGE ( 'NONE', *, *, #180, .F. ) ;
#360 = SURFACE_STYLE_FILL_AREA ( #90 ) ;
#361 = ORIENTED_EDGE ( 'NONE', *, *, #192, .T. ) ;
#362 = CARTESIAN_POINT ( 'NONE',  ( 0.000000000000000000, 83.00000000000000000, 12.50000000000000000 ) ) ;
#363 = EDGE_CURVE ( 'NONE', #352, #194, #339, .T. ) ;
#364 = CARTESIAN_POINT ( 'NONE',  ( 4.600000000000004974, 83.00000000000000000, -9.549869109050654004 ) ) ;
#365 =( NAMED_UNIT ( * ) PLANE_ANGLE_UNIT ( ) SI_UNIT ( $, .RADIAN. ) );
#366 = DIRECTION ( 'NONE',  ( -0.000000000000000000, -1.000000000000000000, -0.000000000000000000 ) ) ;
#367 =( LENGTH_UNIT ( ) NAMED_UNIT ( * ) SI_UNIT ( .MILLI., .METRE. ) );
#368 = PRESENTATION_LAYER_ASSIGNMENT (  '', '', ( #63 ) ) ;
#369 = PRESENTATION_STYLE_ASSIGNMENT (( #259 ) ) ;
#370 = DIRECTION ( 'NONE',  ( 0.000000000000000000, 0.000000000000000000, 1.000000000000000000 ) ) ;
#371 = FACE_OUTER_BOUND ( 'NONE', #19, .T. ) ;
#372 = PLANE ( 'NONE',  #210 ) ;
#373 = EDGE_CURVE ( 'NONE', #160, #45, #242, .T. ) ;
#374 =( GEOMETRIC_REPRESENTATION_CONTEXT ( 3 ) GLOBAL_UNCERTAINTY_ASSIGNED_CONTEXT ( ( #268 ) ) GLOBAL_UNIT_ASSIGNED_CONTEXT ( ( #2, #213, #238 ) ) REPRESENTATION_CONTEXT ( 'NONE', 'WORKASPACE' ) );
#375 = UNCERTAINTY_MEASURE_WITH_UNIT (LENGTH_MEASURE( 1.000000000000000082E-05 ), #76, 'distance_accuracy_value', 'NONE');
ENDSEC;
END-ISO-10303-21;
