#VRML V2.0 utf8
# 3D model generated by easyeda2kicad.py (https://github.com/uPesy/easyeda2kicad.py)

Shape{
    appearance Appearance {
        material  Material 	{
            diffuseColor 0.9411764705882353 0.9411764705882353 0.9411764705882353
            specularColor 0.9411764705882353 0.9411764705882353 0.9411764705882353
            ambientIntensity 0.9412
            transparency 0.0
            shininess 0.5
        }
    }
    geometry IndexedFaceSet {
        ccw TRUE
        solid FALSE
        coord DEF co Coordinate {
            point [
                -2.2402 -1.3976 0.7677, -2.2402 -1.4567 0.7677, -2.0906 -1.3976 0.7677, -2.0906 -1.4567 0.7677, -2.2402 -1.6535 0.5709, -2.0906 -1.6535 0.5709, -2.0906 -1.6468 0.6218, -2.2402 -1.6468 0.6218, -2.0906 -1.6272 0.6693, -2.2402 -1.6272 0.6693, -2.0906 -1.5959 0.7101, -2.2402 -1.5959 0.7101, -2.0906 -1.5551 0.7413, -2.2402 -1.5551 0.7413, -2.0906 -1.5076 0.761, -2.2402 -1.5076 0.761, -2.0906 -1.3976 0.6693, -2.0906 -1.4567 0.6693, -2.2402 -1.3976 0.6693, -2.2402 -1.4567 0.6693, -2.0906 -1.5551 0.5709, -2.2402 -1.5551 0.5709, -2.0906 -1.5518 0.5963, -2.2402 -1.5518 0.5963, -2.0906 -1.5419 0.6201, -2.2402 -1.5419 0.6201, -2.0906 -1.5263 0.6405, -2.2402 -1.5263 0.6405, -2.0906 -1.5059 0.6561, -2.2402 -1.5059 0.6561, -2.0906 -1.4822 0.6659, -2.2402 -1.4822 0.6659, -2.2402 -1.5551 0.1969, -2.0906 -1.5551 0.1969, -2.0906 -1.5618 0.1459, -2.2402 -1.5618 0.1459, -2.0906 -1.5815 0.0984, -2.2402 -1.5815 0.0984, -2.0906 -1.6128 0.0577, -2.2402 -1.6128 0.0577, -2.0906 -1.6535 0.0264, -2.2402 -1.6535 0.0264, -2.0906 -1.701 0.0067, -2.2402 -1.701 0.0067, -2.0906 -1.752 0.0, -2.2402 -1.752 0.0, -2.2402 -1.9685 0.0, -2.0906 -1.9685 0.0, -2.0906 -1.9685 0.0984, -2.2402 -1.9685 0.0984, -2.0906 -1.752 0.0984, -2.2402 -1.752 0.0984, -2.0906 -1.7265 0.1018, -2.0906 -1.7028 0.1116, -2.0906 -1.6824 0.1273, -2.0906 -1.6667 0.1476, -2.0906 -1.6569 0.1714, -2.0906 -1.6535 0.1969, -2.2402 -1.6535 0.1969, -2.2402 -1.6569 0.1714, -2.2402 -1.6667 0.1476, -2.2402 -1.6824 0.1273, -2.2402 -1.7028 0.1116, -2.2402 -1.7265 0.1018, 2.0906 -1.3976 0.7677, 2.0906 -1.4567 0.7677, 2.2402 -1.3976 0.7677, 2.2402 -1.4567 0.7677, 2.0906 -1.6535 0.5709, 2.2402 -1.6535 0.5709, 2.2402 -1.6468 0.6218, 2.0906 -1.6468 0.6218, 2.2402 -1.6272 0.6693, 2.0906 -1.6272 0.6693, 2.2402 -1.5959 0.7101, 2.0906 -1.5959 0.7101, 2.2402 -1.5551 0.7413, 2.0906 -1.5551 0.7413, 2.2402 -1.5076 0.761, 2.0906 -1.5076 0.761, 2.0906 -1.6535 0.1969, 2.2402 -1.6535 0.1969, 2.2402 -1.6569 0.1714, 2.0906 -1.6569 0.1714, 2.2402 -1.6667 0.1476, 2.0906 -1.6667 0.1476, 2.2402 -1.6824 0.1273, 2.0906 -1.6824 0.1273, 2.2402 -1.7028 0.1116, 2.0906 -1.7028 0.1116, 2.2402 -1.7265 0.1018, 2.0906 -1.7265 0.1018, 2.2402 -1.752 0.0984, 2.0906 -1.752 0.0984, 2.2402 -1.9685 0.0984, 2.0906 -1.9685 0.0984, 2.2402 -1.9685 0.0, 2.0906 -1.9685 0.0, 2.0906 -1.752 0.0, 2.2402 -1.752 0.0, 2.0906 -1.5551 0.1969, 2.2402 -1.5551 0.1969, 2.2402 -1.5618 0.1459, 2.0906 -1.5618 0.1459, 2.2402 -1.5815 0.0984, 2.0906 -1.5815 0.0984, 2.2402 -1.6128 0.0577, 2.0906 -1.6128 0.0577, 2.2402 -1.6535 0.0264, 2.0906 -1.6535 0.0264, 2.2402 -1.701 0.0067, 2.0906 -1.701 0.0067, 2.2402 -1.3976 0.6693, 2.2402 -1.4567 0.6693, 2.0906 -1.3976 0.6693, 2.0906 -1.4567 0.6693, 2.2402 -1.5551 0.5709, 2.2402 -1.5518 0.5963, 2.2402 -1.5419 0.6201, 2.2402 -1.5263 0.6405, 2.2402 -1.5059 0.6561, 2.2402 -1.4822 0.6659, 2.0906 -1.5551 0.5709, 2.0906 -1.5518 0.5963, 2.0906 -1.5419 0.6201, 2.0906 -1.5263 0.6405, 2.0906 -1.5059 0.6561, 2.0906 -1.4822 0.6659, 1.6969 -1.3976 0.7677, 1.6969 -1.4567 0.7677, 1.8465 -1.3976 0.7677, 1.8465 -1.4567 0.7677, 1.6969 -1.6535 0.5709, 1.8465 -1.6535 0.5709, 1.8465 -1.6468 0.6218, 1.6969 -1.6468 0.6218, 1.8465 -1.6272 0.6693, 1.6969 -1.6272 0.6693, 1.8465 -1.5959 0.7101, 1.6969 -1.5959 0.7101, 1.8465 -1.5551 0.7413, 1.6969 -1.5551 0.7413, 1.8465 -1.5076 0.761, 1.6969 -1.5076 0.761, 1.6969 -1.6535 0.1969, 1.8465 -1.6535 0.1969, 1.8465 -1.6569 0.1714, 1.6969 -1.6569 0.1714, 1.8465 -1.6667 0.1476, 1.6969 -1.6667 0.1476, 1.8465 -1.6824 0.1273, 1.6969 -1.6824 0.1273, 1.8465 -1.7028 0.1116, 1.6969 -1.7028 0.1116, 1.8465 -1.7265 0.1018, 1.6969 -1.7265 0.1018, 1.8465 -1.752 0.0984, 1.6969 -1.752 0.0984, 1.8465 -1.9685 0.0984, 1.6969 -1.9685 0.0984, 1.8465 -1.9685 0.0, 1.6969 -1.9685 0.0, 1.6969 -1.752 0.0, 1.8465 -1.752 0.0, 1.6969 -1.5551 0.1969, 1.8465 -1.5551 0.1969, 1.8465 -1.5618 0.1459, 1.6969 -1.5618 0.1459, 1.8465 -1.5815 0.0984, 1.6969 -1.5815 0.0984, 1.8465 -1.6128 0.0577, 1.6969 -1.6128 0.0577, 1.8465 -1.6535 0.0264, 1.6969 -1.6535 0.0264, 1.8465 -1.701 0.0067, 1.6969 -1.701 0.0067, 1.8465 -1.3976 0.6693, 1.8465 -1.4567 0.6693, 1.6969 -1.3976 0.6693, 1.6969 -1.4567 0.6693, 1.8465 -1.5551 0.5709, 1.8465 -1.5518 0.5963, 1.8465 -1.5419 0.6201, 1.8465 -1.5263 0.6405, 1.8465 -1.5059 0.6561, 1.8465 -1.4822 0.6659, 1.6969 -1.5551 0.5709, 1.6969 -1.5518 0.5963, 1.6969 -1.5419 0.6201, 1.6969 -1.5263 0.6405, 1.6969 -1.5059 0.6561, 1.6969 -1.4822 0.6659, 1.3031 -1.3976 0.7677, 1.3031 -1.4567 0.7677, 1.4528 -1.3976 0.7677, 1.4528 -1.4567 0.7677, 1.3031 -1.6535 0.5709, 1.4528 -1.6535 0.5709, 1.4528 -1.6468 0.6218, 1.3031 -1.6468 0.6218, 1.4528 -1.6272 0.6693, 1.3031 -1.6272 0.6693, 1.4528 -1.5959 0.7101, 1.3031 -1.5959 0.7101, 1.4528 -1.5551 0.7413, 1.3031 -1.5551 0.7413, 1.4528 -1.5076 0.761, 1.3031 -1.5076 0.761, 1.3031 -1.6535 0.1969, 1.4528 -1.6535 0.1969, 1.4528 -1.6569 0.1714, 1.3031 -1.6569 0.1714, 1.4528 -1.6667 0.1476, 1.3031 -1.6667 0.1476, 1.4528 -1.6824 0.1273, 1.3031 -1.6824 0.1273, 1.4528 -1.7028 0.1116, 1.3031 -1.7028 0.1116, 1.4528 -1.7265 0.1018, 1.3031 -1.7265 0.1018, 1.4528 -1.752 0.0984, 1.3031 -1.752 0.0984, 1.4528 -1.9685 0.0984, 1.3031 -1.9685 0.0984, 1.4528 -1.9685 0.0, 1.3031 -1.9685 0.0, 1.3031 -1.752 0.0, 1.4528 -1.752 0.0, 1.3031 -1.5551 0.1969, 1.4528 -1.5551 0.1969, 1.4528 -1.5618 0.1459, 1.3031 -1.5618 0.1459, 1.4528 -1.5815 0.0984, 1.3031 -1.5815 0.0984, 1.4528 -1.6128 0.0577, 1.3031 -1.6128 0.0577, 1.4528 -1.6535 0.0264, 1.3031 -1.6535 0.0264, 1.4528 -1.701 0.0067, 1.3031 -1.701 0.0067, 1.4528 -1.3976 0.6693, 1.4528 -1.4567 0.6693, 1.3031 -1.3976 0.6693, 1.3031 -1.4567 0.6693, 1.4528 -1.5551 0.5709, 1.4528 -1.5518 0.5963, 1.4528 -1.5419 0.6201, 1.4528 -1.5263 0.6405, 1.4528 -1.5059 0.6561, 1.4528 -1.4822 0.6659, 1.3031 -1.5551 0.5709, 1.3031 -1.5518 0.5963, 1.3031 -1.5419 0.6201, 1.3031 -1.5263 0.6405, 1.3031 -1.5059 0.6561, 1.3031 -1.4822 0.6659, 0.9094 -1.3976 0.7677, 0.9094 -1.4567 0.7677, 1.0591 -1.3976 0.7677, 1.0591 -1.4567 0.7677, 0.9094 -1.6535 0.5709, 1.0591 -1.6535 0.5709, 1.0591 -1.6468 0.6218, 0.9094 -1.6468 0.6218, 1.0591 -1.6272 0.6693, 0.9094 -1.6272 0.6693, 1.0591 -1.5959 0.7101, 0.9094 -1.5959 0.7101, 1.0591 -1.5551 0.7413, 0.9094 -1.5551 0.7413, 1.0591 -1.5076 0.761, 0.9094 -1.5076 0.761, 0.9094 -1.6535 0.1969, 1.0591 -1.6535 0.1969, 1.0591 -1.6569 0.1714, 0.9094 -1.6569 0.1714, 1.0591 -1.6667 0.1476, 0.9094 -1.6667 0.1476, 1.0591 -1.6824 0.1273, 0.9094 -1.6824 0.1273, 1.0591 -1.7028 0.1116, 0.9094 -1.7028 0.1116, 1.0591 -1.7265 0.1018, 0.9094 -1.7265 0.1018, 1.0591 -1.752 0.0984, 0.9094 -1.752 0.0984, 1.0591 -1.9685 0.0984, 0.9094 -1.9685 0.0984, 1.0591 -1.9685 0.0, 0.9094 -1.9685 0.0, 0.9094 -1.752 0.0, 1.0591 -1.752 0.0, 0.9094 -1.5551 0.1969, 1.0591 -1.5551 0.1969, 1.0591 -1.5618 0.1459, 0.9094 -1.5618 0.1459, 1.0591 -1.5815 0.0984, 0.9094 -1.5815 0.0984, 1.0591 -1.6128 0.0577, 0.9094 -1.6128 0.0577, 1.0591 -1.6535 0.0264, 0.9094 -1.6535 0.0264, 1.0591 -1.701 0.0067, 0.9094 -1.701 0.0067, 1.0591 -1.3976 0.6693, 1.0591 -1.4567 0.6693, 0.9094 -1.3976 0.6693, 0.9094 -1.4567 0.6693, 1.0591 -1.5551 0.5709, 1.0591 -1.5518 0.5963, 1.0591 -1.5419 0.6201, 1.0591 -1.5263 0.6405, 1.0591 -1.5059 0.6561, 1.0591 -1.4822 0.6659, 0.9094 -1.5551 0.5709, 0.9094 -1.5518 0.5963, 0.9094 -1.5419 0.6201, 0.9094 -1.5263 0.6405, 0.9094 -1.5059 0.6561, 0.9094 -1.4822 0.6659, 0.5157 -1.3976 0.7677, 0.5157 -1.4567 0.7677, 0.6654 -1.3976 0.7677, 0.6654 -1.4567 0.7677, 0.5157 -1.6535 0.5709, 0.6654 -1.6535 0.5709, 0.6654 -1.6468 0.6218, 0.5157 -1.6468 0.6218, 0.6654 -1.6272 0.6693, 0.5157 -1.6272 0.6693, 0.6654 -1.5959 0.7101, 0.5157 -1.5959 0.7101, 0.6654 -1.5551 0.7413, 0.5157 -1.5551 0.7413, 0.6654 -1.5076 0.761, 0.5157 -1.5076 0.761, 0.5157 -1.6535 0.1969, 0.6654 -1.6535 0.1969, 0.6654 -1.6569 0.1714, 0.5157 -1.6569 0.1714, 0.6654 -1.6667 0.1476, 0.5157 -1.6667 0.1476, 0.6654 -1.6824 0.1273, 0.5157 -1.6824 0.1273, 0.6654 -1.7028 0.1116, 0.5157 -1.7028 0.1116, 0.6654 -1.7265 0.1018, 0.5157 -1.7265 0.1018, 0.6654 -1.752 0.0984, 0.5157 -1.752 0.0984, 0.6654 -1.9685 0.0984, 0.5157 -1.9685 0.0984, 0.6654 -1.9685 0.0, 0.5157 -1.9685 0.0, 0.5157 -1.752 0.0, 0.6654 -1.752 0.0, 0.5157 -1.5551 0.1969, 0.6654 -1.5551 0.1969, 0.6654 -1.5618 0.1459, 0.5157 -1.5618 0.1459, 0.6654 -1.5815 0.0984, 0.5157 -1.5815 0.0984, 0.6654 -1.6128 0.0577, 0.5157 -1.6128 0.0577, 0.6654 -1.6535 0.0264, 0.5157 -1.6535 0.0264, 0.6654 -1.701 0.0067, 0.5157 -1.701 0.0067, 0.6654 -1.3976 0.6693, 0.6654 -1.4567 0.6693, 0.5157 -1.3976 0.6693, 0.5157 -1.4567 0.6693, 0.6654 -1.5551 0.5709, 0.6654 -1.5518 0.5963, 0.6654 -1.5419 0.6201, 0.6654 -1.5263 0.6405, 0.6654 -1.5059 0.6561, 0.6654 -1.4822 0.6659, 0.5157 -1.5551 0.5709, 0.5157 -1.5518 0.5963, 0.5157 -1.5419 0.6201, 0.5157 -1.5263 0.6405, 0.5157 -1.5059 0.6561, 0.5157 -1.4822 0.6659, 0.122 -1.3976 0.7677, 0.122 -1.4567 0.7677, 0.2717 -1.3976 0.7677, 0.2717 -1.4567 0.7677, 0.122 -1.6535 0.5709, 0.2717 -1.6535 0.5709, 0.2717 -1.6468 0.6218, 0.122 -1.6468 0.6218, 0.2717 -1.6272 0.6693, 0.122 -1.6272 0.6693, 0.2717 -1.5959 0.7101, 0.122 -1.5959 0.7101, 0.2717 -1.5551 0.7413, 0.122 -1.5551 0.7413, 0.2717 -1.5076 0.761, 0.122 -1.5076 0.761, 0.122 -1.6535 0.1969, 0.2717 -1.6535 0.1969, 0.2717 -1.6569 0.1714, 0.122 -1.6569 0.1714, 0.2717 -1.6667 0.1476, 0.122 -1.6667 0.1476, 0.2717 -1.6824 0.1273, 0.122 -1.6824 0.1273, 0.2717 -1.7028 0.1116, 0.122 -1.7028 0.1116, 0.2717 -1.7265 0.1018, 0.122 -1.7265 0.1018, 0.2717 -1.752 0.0984, 0.122 -1.752 0.0984, 0.2717 -1.9685 0.0984, 0.122 -1.9685 0.0984, 0.2717 -1.9685 0.0, 0.122 -1.9685 0.0, 0.122 -1.752 0.0, 0.2717 -1.752 0.0, 0.122 -1.5551 0.1969, 0.2717 -1.5551 0.1969, 0.2717 -1.5618 0.1459, 0.122 -1.5618 0.1459, 0.2717 -1.5815 0.0984, 0.122 -1.5815 0.0984, 0.2717 -1.6128 0.0577, 0.122 -1.6128 0.0577, 0.2717 -1.6535 0.0264, 0.122 -1.6535 0.0264, 0.2717 -1.701 0.0067, 0.122 -1.701 0.0067, 0.2717 -1.3976 0.6693, 0.2717 -1.4567 0.6693, 0.122 -1.3976 0.6693, 0.122 -1.4567 0.6693, 0.2717 -1.5551 0.5709, 0.2717 -1.5518 0.5963, 0.2717 -1.5419 0.6201, 0.2717 -1.5263 0.6405, 0.2717 -1.5059 0.6561, 0.2717 -1.4822 0.6659, 0.122 -1.5551 0.5709, 0.122 -1.5518 0.5963, 0.122 -1.5419 0.6201, 0.122 -1.5263 0.6405, 0.122 -1.5059 0.6561, 0.122 -1.4822 0.6659, -0.2717 -1.3976 0.7677, -0.2717 -1.4567 0.7677, -0.122 -1.3976 0.7677, -0.122 -1.4567 0.7677, -0.2717 -1.6535 0.5709, -0.122 -1.6535 0.5709, -0.122 -1.6468 0.6218, -0.2717 -1.6468 0.6218, -0.122 -1.6272 0.6693, -0.2717 -1.6272 0.6693, -0.122 -1.5959 0.7101, -0.2717 -1.5959 0.7101, -0.122 -1.5551 0.7413, -0.2717 -1.5551 0.7413, -0.122 -1.5076 0.761, -0.2717 -1.5076 0.761, -0.122 -1.3976 0.6693, -0.122 -1.4567 0.6693, -0.2717 -1.3976 0.6693, -0.2717 -1.4567 0.6693, -0.122 -1.5551 0.5709, -0.2717 -1.5551 0.5709, -0.122 -1.5518 0.5963, -0.2717 -1.5518 0.5963, -0.122 -1.5419 0.6201, -0.2717 -1.5419 0.6201, -0.122 -1.5263 0.6405, -0.2717 -1.5263 0.6405, -0.122 -1.5059 0.6561, -0.2717 -1.5059 0.6561, -0.122 -1.4822 0.6659, -0.2717 -1.4822 0.6659, -0.2717 -1.5551 0.1969, -0.122 -1.5551 0.1969, -0.122 -1.5618 0.1459, -0.2717 -1.5618 0.1459, -0.122 -1.5815 0.0984, -0.2717 -1.5815 0.0984, -0.122 -1.6128 0.0577, -0.2717 -1.6128 0.0577, -0.122 -1.6535 0.0264, -0.2717 -1.6535 0.0264, -0.122 -1.701 0.0067, -0.2717 -1.701 0.0067, -0.122 -1.752 0.0, -0.2717 -1.752 0.0, -0.2717 -1.9685 0.0, -0.122 -1.9685 0.0, -0.122 -1.9685 0.0984, -0.2717 -1.9685 0.0984, -0.122 -1.752 0.0984, -0.2717 -1.752 0.0984, -0.122 -1.7265 0.1018, -0.122 -1.7028 0.1116, -0.122 -1.6824 0.1273, -0.122 -1.6667 0.1476, -0.122 -1.6569 0.1714, -0.122 -1.6535 0.1969, -0.2717 -1.6535 0.1969, -0.2717 -1.6569 0.1714, -0.2717 -1.6667 0.1476, -0.2717 -1.6824 0.1273, -0.2717 -1.7028 0.1116, -0.2717 -1.7265 0.1018, -0.6654 -1.3976 0.7677, -0.6654 -1.4567 0.7677, -0.5157 -1.3976 0.7677, -0.5157 -1.4567 0.7677, -0.6654 -1.6535 0.5709, -0.5157 -1.6535 0.5709, -0.5157 -1.6468 0.6218, -0.6654 -1.6468 0.6218, -0.5157 -1.6272 0.6693, -0.6654 -1.6272 0.6693, -0.5157 -1.5959 0.7101, -0.6654 -1.5959 0.7101, -0.5157 -1.5551 0.7413, -0.6654 -1.5551 0.7413, -0.5157 -1.5076 0.761, -0.6654 -1.5076 0.761, -0.5157 -1.3976 0.6693, -0.5157 -1.4567 0.6693, -0.6654 -1.3976 0.6693, -0.6654 -1.4567 0.6693, -0.5157 -1.5551 0.5709, -0.6654 -1.5551 0.5709, -0.5157 -1.5518 0.5963, -0.6654 -1.5518 0.5963, -0.5157 -1.5419 0.6201, -0.6654 -1.5419 0.6201, -0.5157 -1.5263 0.6405, -0.6654 -1.5263 0.6405, -0.5157 -1.5059 0.6561, -0.6654 -1.5059 0.6561, -0.5157 -1.4822 0.6659, -0.6654 -1.4822 0.6659, -0.6654 -1.5551 0.1969, -0.5157 -1.5551 0.1969, -0.5157 -1.5618 0.1459, -0.6654 -1.5618 0.1459, -0.5157 -1.5815 0.0984, -0.6654 -1.5815 0.0984, -0.5157 -1.6128 0.0577, -0.6654 -1.6128 0.0577, -0.5157 -1.6535 0.0264, -0.6654 -1.6535 0.0264, -0.5157 -1.701 0.0067, -0.6654 -1.701 0.0067, -0.5157 -1.752 0.0, -0.6654 -1.752 0.0, -0.6654 -1.9685 0.0, -0.5157 -1.9685 0.0, -0.5157 -1.9685 0.0984, -0.6654 -1.9685 0.0984, -0.5157 -1.752 0.0984, -0.6654 -1.752 0.0984, -0.5157 -1.7265 0.1018, -0.5157 -1.7028 0.1116, -0.5157 -1.6824 0.1273, -0.5157 -1.6667 0.1476, -0.5157 -1.6569 0.1714, -0.5157 -1.6535 0.1969, -0.6654 -1.6535 0.1969, -0.6654 -1.6569 0.1714, -0.6654 -1.6667 0.1476, -0.6654 -1.6824 0.1273, -0.6654 -1.7028 0.1116, -0.6654 -1.7265 0.1018, -1.0591 -1.3976 0.7677, -1.0591 -1.4567 0.7677, -0.9094 -1.3976 0.7677, -0.9094 -1.4567 0.7677, -1.0591 -1.6535 0.5709, -0.9094 -1.6535 0.5709, -0.9094 -1.6468 0.6218, -1.0591 -1.6468 0.6218, -0.9094 -1.6272 0.6693, -1.0591 -1.6272 0.6693, -0.9094 -1.5959 0.7101, -1.0591 -1.5959 0.7101, -0.9094 -1.5551 0.7413, -1.0591 -1.5551 0.7413, -0.9094 -1.5076 0.761, -1.0591 -1.5076 0.761, -0.9094 -1.3976 0.6693, -0.9094 -1.4567 0.6693, -1.0591 -1.3976 0.6693, -1.0591 -1.4567 0.6693, -0.9094 -1.5551 0.5709, -1.0591 -1.5551 0.5709, -0.9094 -1.5518 0.5963, -1.0591 -1.5518 0.5963, -0.9094 -1.5419 0.6201, -1.0591 -1.5419 0.6201, -0.9094 -1.5263 0.6405, -1.0591 -1.5263 0.6405, -0.9094 -1.5059 0.6561, -1.0591 -1.5059 0.6561, -0.9094 -1.4822 0.6659, -1.0591 -1.4822 0.6659, -1.0591 -1.5551 0.1969, -0.9094 -1.5551 0.1969, -0.9094 -1.5618 0.1459, -1.0591 -1.5618 0.1459, -0.9094 -1.5815 0.0984, -1.0591 -1.5815 0.0984, -0.9094 -1.6128 0.0577, -1.0591 -1.6128 0.0577, -0.9094 -1.6535 0.0264, -1.0591 -1.6535 0.0264, -0.9094 -1.701 0.0067, -1.0591 -1.701 0.0067, -0.9094 -1.752 0.0, -1.0591 -1.752 0.0, -1.0591 -1.9685 0.0, -0.9094 -1.9685 0.0, -0.9094 -1.9685 0.0984, -1.0591 -1.9685 0.0984, -0.9094 -1.752 0.0984, -1.0591 -1.752 0.0984, -0.9094 -1.7265 0.1018, -0.9094 -1.7028 0.1116, -0.9094 -1.6824 0.1273, -0.9094 -1.6667 0.1476, -0.9094 -1.6569 0.1714, -0.9094 -1.6535 0.1969, -1.0591 -1.6535 0.1969, -1.0591 -1.6569 0.1714, -1.0591 -1.6667 0.1476, -1.0591 -1.6824 0.1273, -1.0591 -1.7028 0.1116, -1.0591 -1.7265 0.1018, -1.4528 -1.3976 0.7677, -1.4528 -1.4567 0.7677, -1.3031 -1.3976 0.7677, -1.3031 -1.4567 0.7677, -1.4528 -1.6535 0.5709, -1.3031 -1.6535 0.5709, -1.3031 -1.6468 0.6218, -1.4528 -1.6468 0.6218, -1.3031 -1.6272 0.6693, -1.4528 -1.6272 0.6693, -1.3031 -1.5959 0.7101, -1.4528 -1.5959 0.7101, -1.3031 -1.5551 0.7413, -1.4528 -1.5551 0.7413, -1.3031 -1.5076 0.761, -1.4528 -1.5076 0.761, -1.3031 -1.3976 0.6693, -1.3031 -1.4567 0.6693, -1.4528 -1.3976 0.6693, -1.4528 -1.4567 0.6693, -1.3031 -1.5551 0.5709, -1.4528 -1.5551 0.5709, -1.3031 -1.5518 0.5963, -1.4528 -1.5518 0.5963, -1.3031 -1.5419 0.6201, -1.4528 -1.5419 0.6201, -1.3031 -1.5263 0.6405, -1.4528 -1.5263 0.6405, -1.3031 -1.5059 0.6561, -1.4528 -1.5059 0.6561, -1.3031 -1.4822 0.6659, -1.4528 -1.4822 0.6659, -1.4528 -1.5551 0.1969, -1.3031 -1.5551 0.1969, -1.3031 -1.5618 0.1459, -1.4528 -1.5618 0.1459, -1.3031 -1.5815 0.0984, -1.4528 -1.5815 0.0984, -1.3031 -1.6128 0.0577, -1.4528 -1.6128 0.0577, -1.3031 -1.6535 0.0264, -1.4528 -1.6535 0.0264, -1.3031 -1.701 0.0067, -1.4528 -1.701 0.0067, -1.3031 -1.752 0.0, -1.4528 -1.752 0.0, -1.4528 -1.9685 0.0, -1.3031 -1.9685 0.0, -1.3031 -1.9685 0.0984, -1.4528 -1.9685 0.0984, -1.3031 -1.752 0.0984, -1.4528 -1.752 0.0984, -1.3031 -1.7265 0.1018, -1.3031 -1.7028 0.1116, -1.3031 -1.6824 0.1273, -1.3031 -1.6667 0.1476, -1.3031 -1.6569 0.1714, -1.3031 -1.6535 0.1969, -1.4528 -1.6535 0.1969, -1.4528 -1.6569 0.1714, -1.4528 -1.6667 0.1476, -1.4528 -1.6824 0.1273, -1.4528 -1.7028 0.1116, -1.4528 -1.7265 0.1018, -1.8465 -1.3976 0.7677, -1.8465 -1.4567 0.7677, -1.6969 -1.3976 0.7677, -1.6969 -1.4567 0.7677, -1.8465 -1.6535 0.5709, -1.6969 -1.6535 0.5709, -1.6969 -1.6468 0.6218, -1.8465 -1.6468 0.6218, -1.6969 -1.6272 0.6693, -1.8465 -1.6272 0.6693, -1.6969 -1.5959 0.7101, -1.8465 -1.5959 0.7101, -1.6969 -1.5551 0.7413, -1.8465 -1.5551 0.7413, -1.6969 -1.5076 0.761, -1.8465 -1.5076 0.761, -1.6969 -1.3976 0.6693, -1.6969 -1.4567 0.6693, -1.8465 -1.3976 0.6693, -1.8465 -1.4567 0.6693, -1.6969 -1.5551 0.5709, -1.8465 -1.5551 0.5709, -1.6969 -1.5518 0.5963, -1.8465 -1.5518 0.5963, -1.6969 -1.5419 0.6201, -1.8465 -1.5419 0.6201, -1.6969 -1.5263 0.6405, -1.8465 -1.5263 0.6405, -1.6969 -1.5059 0.6561, -1.8465 -1.5059 0.6561, -1.6969 -1.4822 0.6659, -1.8465 -1.4822 0.6659, -1.8465 -1.5551 0.1969, -1.6969 -1.5551 0.1969, -1.6969 -1.5618 0.1459, -1.8465 -1.5618 0.1459, -1.6969 -1.5815 0.0984, -1.8465 -1.5815 0.0984, -1.6969 -1.6128 0.0577, -1.8465 -1.6128 0.0577, -1.6969 -1.6535 0.0264, -1.8465 -1.6535 0.0264, -1.6969 -1.701 0.0067, -1.8465 -1.701 0.0067, -1.6969 -1.752 0.0, -1.8465 -1.752 0.0, -1.8465 -1.9685 0.0, -1.6969 -1.9685 0.0, -1.6969 -1.9685 0.0984, -1.8465 -1.9685 0.0984, -1.6969 -1.752 0.0984, -1.8465 -1.752 0.0984, -1.6969 -1.7265 0.1018, -1.6969 -1.7028 0.1116, -1.6969 -1.6824 0.1273, -1.6969 -1.6667 0.1476, -1.6969 -1.6569 0.1714, -1.6969 -1.6535 0.1969, -1.8465 -1.6535 0.1969, -1.8465 -1.6569 0.1714, -1.8465 -1.6667 0.1476, -1.8465 -1.6824 0.1273, -1.8465 -1.7028 0.1116, -1.8465 -1.7265 0.1018, -2.0906 1.3976 0.7677, -2.0906 1.4567 0.7677, -2.2402 1.3976 0.7677, -2.2402 1.4567 0.7677, -2.0906 1.5076 0.761, -2.2402 1.5076 0.761, -2.0906 1.5551 0.7413, -2.2402 1.5551 0.7413, -2.0906 1.5959 0.7101, -2.2402 1.5959 0.7101, -2.0906 1.6272 0.6693, -2.2402 1.6272 0.6693, -2.0906 1.6468 0.6218, -2.2402 1.6468 0.6218, -2.0906 1.6535 0.5709, -2.2402 1.6535 0.5709, -2.0906 1.6535 0.1969, -2.2402 1.6535 0.1969, -2.0906 1.752 0.0984, -2.2402 1.752 0.0984, -2.0906 1.7265 0.1018, -2.2402 1.7265 0.1018, -2.0906 1.7028 0.1116, -2.2402 1.7028 0.1116, -2.0906 1.6824 0.1273, -2.2402 1.6824 0.1273, -2.0906 1.6667 0.1476, -2.2402 1.6667 0.1476, -2.0906 1.6569 0.1714, -2.2402 1.6569 0.1714, -2.2402 1.9685 0.0984, -2.0906 1.9685 0.0984, -2.0906 1.9685 0.0, -2.2402 1.9685 0.0, -2.0906 1.752 0.0, -2.2402 1.752 0.0, -2.0906 1.701 0.0067, -2.2402 1.701 0.0067, -2.0906 1.6535 0.0264, -2.2402 1.6535 0.0264, -2.0906 1.6128 0.0577, -2.2402 1.6128 0.0577, -2.0906 1.5815 0.0984, -2.2402 1.5815 0.0984, -2.0906 1.5618 0.1459, -2.2402 1.5618 0.1459, -2.0906 1.5551 0.1969, -2.2402 1.5551 0.1969, -2.0906 1.5551 0.5709, -2.2402 1.5551 0.5709, -2.0906 1.3976 0.6693, -2.0906 1.4567 0.6693, -2.0906 1.4822 0.6659, -2.0906 1.5059 0.6561, -2.0906 1.5263 0.6405, -2.0906 1.5419 0.6201, -2.0906 1.5518 0.5963, -2.2402 1.4567 0.6693, -2.2402 1.4822 0.6659, -2.2402 1.5059 0.6561, -2.2402 1.5263 0.6405, -2.2402 1.5419 0.6201, -2.2402 1.5518 0.5963, -2.2402 1.3976 0.6693, 2.2402 1.3976 0.7677, 2.2402 1.4567 0.7677, 2.0906 1.3976 0.7677, 2.0906 1.4567 0.7677, 2.2402 1.5076 0.761, 2.0906 1.5076 0.761, 2.2402 1.5551 0.7413, 2.0906 1.5551 0.7413, 2.2402 1.5959 0.7101, 2.0906 1.5959 0.7101, 2.2402 1.6272 0.6693, 2.0906 1.6272 0.6693, 2.2402 1.6468 0.6218, 2.0906 1.6468 0.6218, 2.2402 1.6535 0.5709, 2.0906 1.6535 0.5709, 2.2402 1.6535 0.1969, 2.0906 1.6535 0.1969, 2.2402 1.752 0.0984, 2.0906 1.752 0.0984, 2.2402 1.7265 0.1018, 2.0906 1.7265 0.1018, 2.2402 1.7028 0.1116, 2.0906 1.7028 0.1116, 2.2402 1.6824 0.1273, 2.0906 1.6824 0.1273, 2.2402 1.6667 0.1476, 2.0906 1.6667 0.1476, 2.2402 1.6569 0.1714, 2.0906 1.6569 0.1714, 2.0906 1.9685 0.0984, 2.2402 1.9685 0.0984, 2.2402 1.9685 0.0, 2.0906 1.9685 0.0, 2.2402 1.752 0.0, 2.0906 1.752 0.0, 2.2402 1.701 0.0067, 2.0906 1.701 0.0067, 2.2402 1.6535 0.0264, 2.0906 1.6535 0.0264, 2.2402 1.6128 0.0577, 2.0906 1.6128 0.0577, 2.2402 1.5815 0.0984, 2.0906 1.5815 0.0984, 2.2402 1.5618 0.1459, 2.0906 1.5618 0.1459, 2.2402 1.5551 0.1969, 2.0906 1.5551 0.1969, 2.2402 1.5551 0.5709, 2.0906 1.5551 0.5709, 2.2402 1.3976 0.6693, 2.2402 1.4567 0.6693, 2.2402 1.4822 0.6659, 2.2402 1.5059 0.6561, 2.2402 1.5263 0.6405, 2.2402 1.5419 0.6201, 2.2402 1.5518 0.5963, 2.0906 1.4567 0.6693, 2.0906 1.4822 0.6659, 2.0906 1.5059 0.6561, 2.0906 1.5263 0.6405, 2.0906 1.5419 0.6201, 2.0906 1.5518 0.5963, 2.0906 1.3976 0.6693, 1.8465 1.3976 0.7677, 1.8465 1.4567 0.7677, 1.6969 1.3976 0.7677, 1.6969 1.4567 0.7677, 1.8465 1.5076 0.761, 1.6969 1.5076 0.761, 1.8465 1.5551 0.7413, 1.6969 1.5551 0.7413, 1.8465 1.5959 0.7101, 1.6969 1.5959 0.7101, 1.8465 1.6272 0.6693, 1.6969 1.6272 0.6693, 1.8465 1.6468 0.6218, 1.6969 1.6468 0.6218, 1.8465 1.6535 0.5709, 1.6969 1.6535 0.5709, 1.8465 1.6535 0.1969, 1.6969 1.6535 0.1969, 1.8465 1.752 0.0984, 1.6969 1.752 0.0984, 1.8465 1.7265 0.1018, 1.6969 1.7265 0.1018, 1.8465 1.7028 0.1116, 1.6969 1.7028 0.1116, 1.8465 1.6824 0.1273, 1.6969 1.6824 0.1273, 1.8465 1.6667 0.1476, 1.6969 1.6667 0.1476, 1.8465 1.6569 0.1714, 1.6969 1.6569 0.1714, 1.6969 1.9685 0.0984, 1.8465 1.9685 0.0984, 1.8465 1.9685 0.0, 1.6969 1.9685 0.0, 1.8465 1.752 0.0, 1.6969 1.752 0.0, 1.8465 1.701 0.0067, 1.6969 1.701 0.0067, 1.8465 1.6535 0.0264, 1.6969 1.6535 0.0264, 1.8465 1.6128 0.0577, 1.6969 1.6128 0.0577, 1.8465 1.5815 0.0984, 1.6969 1.5815 0.0984, 1.8465 1.5618 0.1459, 1.6969 1.5618 0.1459, 1.8465 1.5551 0.1969, 1.6969 1.5551 0.1969, 1.8465 1.5551 0.5709, 1.6969 1.5551 0.5709, 1.8465 1.3976 0.6693, 1.8465 1.4567 0.6693, 1.8465 1.4822 0.6659, 1.8465 1.5059 0.6561, 1.8465 1.5263 0.6405, 1.8465 1.5419 0.6201, 1.8465 1.5518 0.5963, 1.6969 1.4567 0.6693, 1.6969 1.4822 0.6659, 1.6969 1.5059 0.6561, 1.6969 1.5263 0.6405, 1.6969 1.5419 0.6201, 1.6969 1.5518 0.5963, 1.6969 1.3976 0.6693, 1.4528 1.3976 0.7677, 1.4528 1.4567 0.7677, 1.3031 1.3976 0.7677, 1.3031 1.4567 0.7677, 1.4528 1.5076 0.761, 1.3031 1.5076 0.761, 1.4528 1.5551 0.7413, 1.3031 1.5551 0.7413, 1.4528 1.5959 0.7101, 1.3031 1.5959 0.7101, 1.4528 1.6272 0.6693, 1.3031 1.6272 0.6693, 1.4528 1.6468 0.6218, 1.3031 1.6468 0.6218, 1.4528 1.6535 0.5709, 1.3031 1.6535 0.5709, 1.4528 1.6535 0.1969, 1.3031 1.6535 0.1969, 1.4528 1.752 0.0984, 1.3031 1.752 0.0984, 1.4528 1.7265 0.1018, 1.3031 1.7265 0.1018, 1.4528 1.7028 0.1116, 1.3031 1.7028 0.1116, 1.4528 1.6824 0.1273, 1.3031 1.6824 0.1273, 1.4528 1.6667 0.1476, 1.3031 1.6667 0.1476, 1.4528 1.6569 0.1714, 1.3031 1.6569 0.1714, 1.3031 1.9685 0.0984, 1.4528 1.9685 0.0984, 1.4528 1.9685 0.0, 1.3031 1.9685 0.0, 1.4528 1.752 0.0, 1.3031 1.752 0.0, 1.4528 1.701 0.0067, 1.3031 1.701 0.0067, 1.4528 1.6535 0.0264, 1.3031 1.6535 0.0264, 1.4528 1.6128 0.0577, 1.3031 1.6128 0.0577, 1.4528 1.5815 0.0984, 1.3031 1.5815 0.0984, 1.4528 1.5618 0.1459, 1.3031 1.5618 0.1459, 1.4528 1.5551 0.1969, 1.3031 1.5551 0.1969, 1.4528 1.5551 0.5709, 1.3031 1.5551 0.5709, 1.4528 1.3976 0.6693, 1.4528 1.4567 0.6693, 1.4528 1.4822 0.6659, 1.4528 1.5059 0.6561, 1.4528 1.5263 0.6405, 1.4528 1.5419 0.6201, 1.4528 1.5518 0.5963, 1.3031 1.4567 0.6693, 1.3031 1.4822 0.6659, 1.3031 1.5059 0.6561, 1.3031 1.5263 0.6405, 1.3031 1.5419 0.6201, 1.3031 1.5518 0.5963, 1.3031 1.3976 0.6693, 1.0591 1.3976 0.7677, 1.0591 1.4567 0.7677, 0.9094 1.3976 0.7677, 0.9094 1.4567 0.7677, 1.0591 1.5076 0.761, 0.9094 1.5076 0.761, 1.0591 1.5551 0.7413, 0.9094 1.5551 0.7413, 1.0591 1.5959 0.7101, 0.9094 1.5959 0.7101, 1.0591 1.6272 0.6693, 0.9094 1.6272 0.6693, 1.0591 1.6468 0.6218, 0.9094 1.6468 0.6218, 1.0591 1.6535 0.5709, 0.9094 1.6535 0.5709, 1.0591 1.6535 0.1969, 0.9094 1.6535 0.1969, 1.0591 1.752 0.0984, 0.9094 1.752 0.0984, 1.0591 1.7265 0.1018, 0.9094 1.7265 0.1018, 1.0591 1.7028 0.1116, 0.9094 1.7028 0.1116, 1.0591 1.6824 0.1273, 0.9094 1.6824 0.1273, 1.0591 1.6667 0.1476, 0.9094 1.6667 0.1476, 1.0591 1.6569 0.1714, 0.9094 1.6569 0.1714, 0.9094 1.9685 0.0984, 1.0591 1.9685 0.0984, 1.0591 1.9685 0.0, 0.9094 1.9685 0.0, 1.0591 1.752 0.0, 0.9094 1.752 0.0, 1.0591 1.701 0.0067, 0.9094 1.701 0.0067, 1.0591 1.6535 0.0264, 0.9094 1.6535 0.0264, 1.0591 1.6128 0.0577, 0.9094 1.6128 0.0577, 1.0591 1.5815 0.0984, 0.9094 1.5815 0.0984, 1.0591 1.5618 0.1459, 0.9094 1.5618 0.1459, 1.0591 1.5551 0.1969, 0.9094 1.5551 0.1969, 1.0591 1.5551 0.5709, 0.9094 1.5551 0.5709, 1.0591 1.3976 0.6693, 1.0591 1.4567 0.6693, 1.0591 1.4822 0.6659, 1.0591 1.5059 0.6561, 1.0591 1.5263 0.6405, 1.0591 1.5419 0.6201, 1.0591 1.5518 0.5963, 0.9094 1.4567 0.6693, 0.9094 1.4822 0.6659, 0.9094 1.5059 0.6561, 0.9094 1.5263 0.6405, 0.9094 1.5419 0.6201, 0.9094 1.5518 0.5963, 0.9094 1.3976 0.6693, 0.6654 1.3976 0.7677, 0.6654 1.4567 0.7677, 0.5157 1.3976 0.7677, 0.5157 1.4567 0.7677, 0.6654 1.5076 0.761, 0.5157 1.5076 0.761, 0.6654 1.5551 0.7413, 0.5157 1.5551 0.7413, 0.6654 1.5959 0.7101, 0.5157 1.5959 0.7101, 0.6654 1.6272 0.6693, 0.5157 1.6272 0.6693, 0.6654 1.6468 0.6218, 0.5157 1.6468 0.6218, 0.6654 1.6535 0.5709, 0.5157 1.6535 0.5709, 0.6654 1.6535 0.1969, 0.5157 1.6535 0.1969, 0.6654 1.752 0.0984, 0.5157 1.752 0.0984, 0.6654 1.7265 0.1018, 0.5157 1.7265 0.1018, 0.6654 1.7028 0.1116, 0.5157 1.7028 0.1116, 0.6654 1.6824 0.1273, 0.5157 1.6824 0.1273, 0.6654 1.6667 0.1476, 0.5157 1.6667 0.1476, 0.6654 1.6569 0.1714, 0.5157 1.6569 0.1714, 0.5157 1.9685 0.0984, 0.6654 1.9685 0.0984, 0.6654 1.9685 0.0, 0.5157 1.9685 0.0, 0.6654 1.752 0.0, 0.5157 1.752 0.0, 0.6654 1.701 0.0067, 0.5157 1.701 0.0067, 0.6654 1.6535 0.0264, 0.5157 1.6535 0.0264, 0.6654 1.6128 0.0577, 0.5157 1.6128 0.0577, 0.6654 1.5815 0.0984, 0.5157 1.5815 0.0984, 0.6654 1.5618 0.1459, 0.5157 1.5618 0.1459, 0.6654 1.5551 0.1969, 0.5157 1.5551 0.1969, 0.6654 1.5551 0.5709, 0.5157 1.5551 0.5709, 0.6654 1.3976 0.6693, 0.6654 1.4567 0.6693, 0.6654 1.4822 0.6659, 0.6654 1.5059 0.6561, 0.6654 1.5263 0.6405, 0.6654 1.5419 0.6201, 0.6654 1.5518 0.5963, 0.5157 1.4567 0.6693, 0.5157 1.4822 0.6659, 0.5157 1.5059 0.6561, 0.5157 1.5263 0.6405, 0.5157 1.5419 0.6201, 0.5157 1.5518 0.5963, 0.5157 1.3976 0.6693, 0.2717 1.3976 0.7677, 0.2717 1.4567 0.7677, 0.122 1.3976 0.7677, 0.122 1.4567 0.7677, 0.2717 1.5076 0.761, 0.122 1.5076 0.761, 0.2717 1.5551 0.7413, 0.122 1.5551 0.7413, 0.2717 1.5959 0.7101, 0.122 1.5959 0.7101, 0.2717 1.6272 0.6693, 0.122 1.6272 0.6693, 0.2717 1.6468 0.6218, 0.122 1.6468 0.6218, 0.2717 1.6535 0.5709, 0.122 1.6535 0.5709, 0.2717 1.6535 0.1969, 0.122 1.6535 0.1969, 0.2717 1.752 0.0984, 0.122 1.752 0.0984, 0.2717 1.7265 0.1018, 0.122 1.7265 0.1018, 0.2717 1.7028 0.1116, 0.122 1.7028 0.1116, 0.2717 1.6824 0.1273, 0.122 1.6824 0.1273, 0.2717 1.6667 0.1476, 0.122 1.6667 0.1476, 0.2717 1.6569 0.1714, 0.122 1.6569 0.1714, 0.122 1.9685 0.0984, 0.2717 1.9685 0.0984, 0.2717 1.9685 0.0, 0.122 1.9685 0.0, 0.2717 1.752 0.0, 0.122 1.752 0.0, 0.2717 1.701 0.0067, 0.122 1.701 0.0067, 0.2717 1.6535 0.0264, 0.122 1.6535 0.0264, 0.2717 1.6128 0.0577, 0.122 1.6128 0.0577, 0.2717 1.5815 0.0984, 0.122 1.5815 0.0984, 0.2717 1.5618 0.1459, 0.122 1.5618 0.1459, 0.2717 1.5551 0.1969, 0.122 1.5551 0.1969, 0.2717 1.5551 0.5709, 0.122 1.5551 0.5709, 0.2717 1.3976 0.6693, 0.2717 1.4567 0.6693, 0.2717 1.4822 0.6659, 0.2717 1.5059 0.6561, 0.2717 1.5263 0.6405, 0.2717 1.5419 0.6201, 0.2717 1.5518 0.5963, 0.122 1.4567 0.6693, 0.122 1.4822 0.6659, 0.122 1.5059 0.6561, 0.122 1.5263 0.6405, 0.122 1.5419 0.6201, 0.122 1.5518 0.5963, 0.122 1.3976 0.6693, -0.122 1.3976 0.7677, -0.122 1.4567 0.7677, -0.2717 1.3976 0.7677, -0.2717 1.4567 0.7677, -0.122 1.5076 0.761, -0.2717 1.5076 0.761, -0.122 1.5551 0.7413, -0.2717 1.5551 0.7413, -0.122 1.5959 0.7101, -0.2717 1.5959 0.7101, -0.122 1.6272 0.6693, -0.2717 1.6272 0.6693, -0.122 1.6468 0.6218, -0.2717 1.6468 0.6218, -0.122 1.6535 0.5709, -0.2717 1.6535 0.5709, -0.122 1.6535 0.1969, -0.2717 1.6535 0.1969, -0.122 1.752 0.0984, -0.2717 1.752 0.0984, -0.122 1.7265 0.1018, -0.2717 1.7265 0.1018, -0.122 1.7028 0.1116, -0.2717 1.7028 0.1116, -0.122 1.6824 0.1273, -0.2717 1.6824 0.1273, -0.122 1.6667 0.1476, -0.2717 1.6667 0.1476, -0.122 1.6569 0.1714, -0.2717 1.6569 0.1714, -0.2717 1.9685 0.0984, -0.122 1.9685 0.0984, -0.122 1.9685 0.0, -0.2717 1.9685 0.0, -0.122 1.752 0.0, -0.2717 1.752 0.0, -0.122 1.701 0.0067, -0.2717 1.701 0.0067, -0.122 1.6535 0.0264, -0.2717 1.6535 0.0264, -0.122 1.6128 0.0577, -0.2717 1.6128 0.0577, -0.122 1.5815 0.0984, -0.2717 1.5815 0.0984, -0.122 1.5618 0.1459, -0.2717 1.5618 0.1459, -0.122 1.5551 0.1969, -0.2717 1.5551 0.1969, -0.122 1.5551 0.5709, -0.2717 1.5551 0.5709, -0.122 1.3976 0.6693, -0.122 1.4567 0.6693, -0.122 1.4822 0.6659, -0.122 1.5059 0.6561, -0.122 1.5263 0.6405, -0.122 1.5419 0.6201, -0.122 1.5518 0.5963, -0.2717 1.4567 0.6693, -0.2717 1.4822 0.6659, -0.2717 1.5059 0.6561, -0.2717 1.5263 0.6405, -0.2717 1.5419 0.6201, -0.2717 1.5518 0.5963, -0.2717 1.3976 0.6693, -0.5157 1.3976 0.7677, -0.5157 1.4567 0.7677, -0.6654 1.3976 0.7677, -0.6654 1.4567 0.7677, -0.5157 1.5076 0.761, -0.6654 1.5076 0.761, -0.5157 1.5551 0.7413, -0.6654 1.5551 0.7413, -0.5157 1.5959 0.7101, -0.6654 1.5959 0.7101, -0.5157 1.6272 0.6693, -0.6654 1.6272 0.6693, -0.5157 1.6468 0.6218, -0.6654 1.6468 0.6218, -0.5157 1.6535 0.5709, -0.6654 1.6535 0.5709, -0.5157 1.6535 0.1969, -0.6654 1.6535 0.1969, -0.5157 1.752 0.0984, -0.6654 1.752 0.0984, -0.5157 1.7265 0.1018, -0.6654 1.7265 0.1018, -0.5157 1.7028 0.1116, -0.6654 1.7028 0.1116, -0.5157 1.6824 0.1273, -0.6654 1.6824 0.1273, -0.5157 1.6667 0.1476, -0.6654 1.6667 0.1476, -0.5157 1.6569 0.1714, -0.6654 1.6569 0.1714, -0.6654 1.9685 0.0984, -0.5157 1.9685 0.0984, -0.5157 1.9685 0.0, -0.6654 1.9685 0.0, -0.5157 1.752 0.0, -0.6654 1.752 0.0, -0.5157 1.701 0.0067, -0.6654 1.701 0.0067, -0.5157 1.6535 0.0264, -0.6654 1.6535 0.0264, -0.5157 1.6128 0.0577, -0.6654 1.6128 0.0577, -0.5157 1.5815 0.0984, -0.6654 1.5815 0.0984, -0.5157 1.5618 0.1459, -0.6654 1.5618 0.1459, -0.5157 1.5551 0.1969, -0.6654 1.5551 0.1969, -0.5157 1.5551 0.5709, -0.6654 1.5551 0.5709, -0.5157 1.3976 0.6693, -0.5157 1.4567 0.6693, -0.5157 1.4822 0.6659, -0.5157 1.5059 0.6561, -0.5157 1.5263 0.6405, -0.5157 1.5419 0.6201, -0.5157 1.5518 0.5963, -0.6654 1.4567 0.6693, -0.6654 1.4822 0.6659, -0.6654 1.5059 0.6561, -0.6654 1.5263 0.6405, -0.6654 1.5419 0.6201, -0.6654 1.5518 0.5963, -0.6654 1.3976 0.6693, -0.9094 1.3976 0.7677, -0.9094 1.4567 0.7677, -1.0591 1.3976 0.7677, -1.0591 1.4567 0.7677, -0.9094 1.5076 0.761, -1.0591 1.5076 0.761, -0.9094 1.5551 0.7413, -1.0591 1.5551 0.7413, -0.9094 1.5959 0.7101, -1.0591 1.5959 0.7101, -0.9094 1.6272 0.6693, -1.0591 1.6272 0.6693, -0.9094 1.6468 0.6218, -1.0591 1.6468 0.6218, -0.9094 1.6535 0.5709, -1.0591 1.6535 0.5709, -0.9094 1.6535 0.1969, -1.0591 1.6535 0.1969, -0.9094 1.752 0.0984, -1.0591 1.752 0.0984, -0.9094 1.7265 0.1018, -1.0591 1.7265 0.1018, -0.9094 1.7028 0.1116, -1.0591 1.7028 0.1116, -0.9094 1.6824 0.1273, -1.0591 1.6824 0.1273, -0.9094 1.6667 0.1476, -1.0591 1.6667 0.1476, -0.9094 1.6569 0.1714, -1.0591 1.6569 0.1714, -1.0591 1.9685 0.0984, -0.9094 1.9685 0.0984, -0.9094 1.9685 0.0, -1.0591 1.9685 0.0, -0.9094 1.752 0.0, -1.0591 1.752 0.0, -0.9094 1.701 0.0067, -1.0591 1.701 0.0067, -0.9094 1.6535 0.0264, -1.0591 1.6535 0.0264, -0.9094 1.6128 0.0577, -1.0591 1.6128 0.0577, -0.9094 1.5815 0.0984, -1.0591 1.5815 0.0984, -0.9094 1.5618 0.1459, -1.0591 1.5618 0.1459, -0.9094 1.5551 0.1969, -1.0591 1.5551 0.1969, -0.9094 1.5551 0.5709, -1.0591 1.5551 0.5709, -0.9094 1.3976 0.6693, -0.9094 1.4567 0.6693, -0.9094 1.4822 0.6659, -0.9094 1.5059 0.6561, -0.9094 1.5263 0.6405, -0.9094 1.5419 0.6201, -0.9094 1.5518 0.5963, -1.0591 1.4567 0.6693, -1.0591 1.4822 0.6659, -1.0591 1.5059 0.6561, -1.0591 1.5263 0.6405, -1.0591 1.5419 0.6201, -1.0591 1.5518 0.5963, -1.0591 1.3976 0.6693, -1.3031 1.3976 0.7677, -1.3031 1.4567 0.7677, -1.4528 1.3976 0.7677, -1.4528 1.4567 0.7677, -1.3031 1.5076 0.761, -1.4528 1.5076 0.761, -1.3031 1.5551 0.7413, -1.4528 1.5551 0.7413, -1.3031 1.5959 0.7101, -1.4528 1.5959 0.7101, -1.3031 1.6272 0.6693, -1.4528 1.6272 0.6693, -1.3031 1.6468 0.6218, -1.4528 1.6468 0.6218, -1.3031 1.6535 0.5709, -1.4528 1.6535 0.5709, -1.3031 1.6535 0.1969, -1.4528 1.6535 0.1969, -1.3031 1.752 0.0984, -1.4528 1.752 0.0984, -1.3031 1.7265 0.1018, -1.4528 1.7265 0.1018, -1.3031 1.7028 0.1116, -1.4528 1.7028 0.1116, -1.3031 1.6824 0.1273, -1.4528 1.6824 0.1273, -1.3031 1.6667 0.1476, -1.4528 1.6667 0.1476, -1.3031 1.6569 0.1714, -1.4528 1.6569 0.1714, -1.4528 1.9685 0.0984, -1.3031 1.9685 0.0984, -1.3031 1.9685 0.0, -1.4528 1.9685 0.0, -1.3031 1.752 0.0, -1.4528 1.752 0.0, -1.3031 1.701 0.0067, -1.4528 1.701 0.0067, -1.3031 1.6535 0.0264, -1.4528 1.6535 0.0264, -1.3031 1.6128 0.0577, -1.4528 1.6128 0.0577, -1.3031 1.5815 0.0984, -1.4528 1.5815 0.0984, -1.3031 1.5618 0.1459, -1.4528 1.5618 0.1459, -1.3031 1.5551 0.1969, -1.4528 1.5551 0.1969, -1.3031 1.5551 0.5709, -1.4528 1.5551 0.5709, -1.3031 1.3976 0.6693, -1.3031 1.4567 0.6693, -1.3031 1.4822 0.6659, -1.3031 1.5059 0.6561, -1.3031 1.5263 0.6405, -1.3031 1.5419 0.6201, -1.3031 1.5518 0.5963, -1.4528 1.4567 0.6693, -1.4528 1.4822 0.6659, -1.4528 1.5059 0.6561, -1.4528 1.5263 0.6405, -1.4528 1.5419 0.6201, -1.4528 1.5518 0.5963, -1.4528 1.3976 0.6693, -1.6969 1.3976 0.7677, -1.6969 1.4567 0.7677, -1.8465 1.3976 0.7677, -1.8465 1.4567 0.7677, -1.6969 1.5076 0.761, -1.8465 1.5076 0.761, -1.6969 1.5551 0.7413, -1.8465 1.5551 0.7413, -1.6969 1.5959 0.7101, -1.8465 1.5959 0.7101, -1.6969 1.6272 0.6693, -1.8465 1.6272 0.6693, -1.6969 1.6468 0.6218, -1.8465 1.6468 0.6218, -1.6969 1.6535 0.5709, -1.8465 1.6535 0.5709, -1.6969 1.6535 0.1969, -1.8465 1.6535 0.1969, -1.6969 1.752 0.0984, -1.8465 1.752 0.0984, -1.6969 1.7265 0.1018, -1.8465 1.7265 0.1018, -1.6969 1.7028 0.1116, -1.8465 1.7028 0.1116, -1.6969 1.6824 0.1273, -1.8465 1.6824 0.1273, -1.6969 1.6667 0.1476, -1.8465 1.6667 0.1476, -1.6969 1.6569 0.1714, -1.8465 1.6569 0.1714, -1.8465 1.9685 0.0984, -1.6969 1.9685 0.0984, -1.6969 1.9685 0.0, -1.8465 1.9685 0.0, -1.6969 1.752 0.0, -1.8465 1.752 0.0, -1.6969 1.701 0.0067, -1.8465 1.701 0.0067, -1.6969 1.6535 0.0264, -1.8465 1.6535 0.0264, -1.6969 1.6128 0.0577, -1.8465 1.6128 0.0577, -1.6969 1.5815 0.0984, -1.8465 1.5815 0.0984, -1.6969 1.5618 0.1459, -1.8465 1.5618 0.1459, -1.6969 1.5551 0.1969, -1.8465 1.5551 0.1969, -1.6969 1.5551 0.5709, -1.8465 1.5551 0.5709, -1.6969 1.3976 0.6693, -1.6969 1.4567 0.6693, -1.6969 1.4822 0.6659, -1.6969 1.5059 0.6561, -1.6969 1.5263 0.6405, -1.6969 1.5419 0.6201, -1.6969 1.5518 0.5963, -1.8465 1.4567 0.6693, -1.8465 1.4822 0.6659, -1.8465 1.5059 0.6561, -1.8465 1.5263 0.6405, -1.8465 1.5419 0.6201, -1.8465 1.5518 0.5963, -1.8465 1.3976 0.6693
            ]
        }
        coordIndex [
            0,1,2,-1,2,1,3,-1,4,5,6,-1,4,6,7,-1,7,6,8,-1,7,8,9,-1,9,8,10,-1,9,10,11,-1,11,10,12,-1,11,12,13,-1,13,12,14,-1,13,14,15,-1,15,14,3,-1,15,3,1,-1,16,17,18,-1,18,17,19,-1,20,21,22,-1,22,21,23,-1,22,23,24,-1,24,23,25,-1,24,25,26,-1,26,25,27,-1,26,27,28,-1,28,27,29,-1,28,29,30,-1,30,29,31,-1,30,31,17,-1,17,31,19,-1,32,21,33,-1,33,21,20,-1,32,33,34,-1,32,34,35,-1,35,34,36,-1,35,36,37,-1,37,36,38,-1,37,38,39,-1,39,38,40,-1,39,40,41,-1,41,40,42,-1,41,42,43,-1,43,42,44,-1,43,44,45,-1,46,45,47,-1,47,45,44,-1,48,49,47,-1,47,49,46,-1,48,50,49,-1,49,50,51,-1,48,47,50,-1,50,47,44,-1,50,44,52,-1,52,44,42,-1,52,42,53,-1,53,42,40,-1,53,40,54,-1,54,40,38,-1,54,38,55,-1,55,38,36,-1,55,36,56,-1,56,36,34,-1,56,34,57,-1,57,34,33,-1,57,33,5,-1,5,33,20,-1,5,20,6,-1,6,20,22,-1,6,22,8,-1,8,22,24,-1,8,24,10,-1,10,24,26,-1,10,26,12,-1,12,26,28,-1,12,28,14,-1,14,28,30,-1,14,30,3,-1,3,30,17,-1,3,17,2,-1,2,17,16,-1,57,58,56,-1,56,58,59,-1,56,59,55,-1,55,59,60,-1,55,60,54,-1,54,60,61,-1,54,61,53,-1,53,61,62,-1,53,62,52,-1,52,62,63,-1,52,63,50,-1,50,63,51,-1,4,58,5,-1,5,58,57,-1,0,18,1,-1,1,18,19,-1,1,19,15,-1,15,19,31,-1,15,31,13,-1,13,31,29,-1,13,29,11,-1,11,29,27,-1,11,27,9,-1,9,27,25,-1,9,25,7,-1,7,25,23,-1,7,23,4,-1,4,23,21,-1,4,21,58,-1,58,21,32,-1,58,32,59,-1,59,32,35,-1,59,35,60,-1,60,35,37,-1,60,37,61,-1,61,37,39,-1,61,39,62,-1,62,39,41,-1,62,41,63,-1,63,41,43,-1,63,43,51,-1,51,43,45,-1,51,45,49,-1,49,45,46,-1,64,65,66,-1,66,65,67,-1,68,69,70,-1,68,70,71,-1,71,70,72,-1,71,72,73,-1,73,72,74,-1,73,74,75,-1,75,74,76,-1,75,76,77,-1,77,76,78,-1,77,78,79,-1,79,78,67,-1,79,67,65,-1,68,80,69,-1,69,80,81,-1,81,80,82,-1,82,80,83,-1,82,83,84,-1,84,83,85,-1,84,85,86,-1,86,85,87,-1,86,87,88,-1,88,87,89,-1,88,89,90,-1,90,89,91,-1,90,91,92,-1,92,91,93,-1,94,92,95,-1,95,92,93,-1,94,95,96,-1,96,95,97,-1,97,98,96,-1,96,98,99,-1,100,101,102,-1,100,102,103,-1,103,102,104,-1,103,104,105,-1,105,104,106,-1,105,106,107,-1,107,106,108,-1,107,108,109,-1,109,108,110,-1,109,110,111,-1,111,110,99,-1,111,99,98,-1,112,113,114,-1,114,113,115,-1,94,96,92,-1,92,96,99,-1,92,99,90,-1,90,99,110,-1,90,110,88,-1,88,110,108,-1,88,108,86,-1,86,108,106,-1,86,106,84,-1,84,106,104,-1,84,104,82,-1,82,104,102,-1,82,102,81,-1,81,102,101,-1,81,101,69,-1,69,101,116,-1,69,116,70,-1,70,116,117,-1,70,117,72,-1,72,117,118,-1,72,118,74,-1,74,118,119,-1,74,119,76,-1,76,119,120,-1,76,120,78,-1,78,120,121,-1,78,121,67,-1,67,121,113,-1,67,113,66,-1,66,113,112,-1,116,122,117,-1,117,122,123,-1,117,123,118,-1,118,123,124,-1,118,124,119,-1,119,124,125,-1,119,125,120,-1,120,125,126,-1,120,126,121,-1,121,126,127,-1,121,127,113,-1,113,127,115,-1,100,122,101,-1,101,122,116,-1,64,114,65,-1,65,114,115,-1,65,115,79,-1,79,115,127,-1,79,127,77,-1,77,127,126,-1,77,126,75,-1,75,126,125,-1,75,125,73,-1,73,125,124,-1,73,124,71,-1,71,124,123,-1,71,123,68,-1,68,123,122,-1,68,122,80,-1,80,122,100,-1,80,100,83,-1,83,100,103,-1,83,103,85,-1,85,103,105,-1,85,105,87,-1,87,105,107,-1,87,107,89,-1,89,107,109,-1,89,109,91,-1,91,109,111,-1,91,111,93,-1,93,111,98,-1,93,98,95,-1,95,98,97,-1,128,129,130,-1,130,129,131,-1,132,133,134,-1,132,134,135,-1,135,134,136,-1,135,136,137,-1,137,136,138,-1,137,138,139,-1,139,138,140,-1,139,140,141,-1,141,140,142,-1,141,142,143,-1,143,142,131,-1,143,131,129,-1,132,144,133,-1,133,144,145,-1,145,144,146,-1,146,144,147,-1,146,147,148,-1,148,147,149,-1,148,149,150,-1,150,149,151,-1,150,151,152,-1,152,151,153,-1,152,153,154,-1,154,153,155,-1,154,155,156,-1,156,155,157,-1,158,156,159,-1,159,156,157,-1,158,159,160,-1,160,159,161,-1,161,162,160,-1,160,162,163,-1,164,165,166,-1,164,166,167,-1,167,166,168,-1,167,168,169,-1,169,168,170,-1,169,170,171,-1,171,170,172,-1,171,172,173,-1,173,172,174,-1,173,174,175,-1,175,174,163,-1,175,163,162,-1,176,177,178,-1,178,177,179,-1,158,160,156,-1,156,160,163,-1,156,163,154,-1,154,163,174,-1,154,174,152,-1,152,174,172,-1,152,172,150,-1,150,172,170,-1,150,170,148,-1,148,170,168,-1,148,168,146,-1,146,168,166,-1,146,166,145,-1,145,166,165,-1,145,165,133,-1,133,165,180,-1,133,180,134,-1,134,180,181,-1,134,181,136,-1,136,181,182,-1,136,182,138,-1,138,182,183,-1,138,183,140,-1,140,183,184,-1,140,184,142,-1,142,184,185,-1,142,185,131,-1,131,185,177,-1,131,177,130,-1,130,177,176,-1,180,186,181,-1,181,186,187,-1,181,187,182,-1,182,187,188,-1,182,188,183,-1,183,188,189,-1,183,189,184,-1,184,189,190,-1,184,190,185,-1,185,190,191,-1,185,191,177,-1,177,191,179,-1,164,186,165,-1,165,186,180,-1,128,178,129,-1,129,178,179,-1,129,179,143,-1,143,179,191,-1,143,191,141,-1,141,191,190,-1,141,190,139,-1,139,190,189,-1,139,189,137,-1,137,189,188,-1,137,188,135,-1,135,188,187,-1,135,187,132,-1,132,187,186,-1,132,186,144,-1,144,186,164,-1,144,164,147,-1,147,164,167,-1,147,167,149,-1,149,167,169,-1,149,169,151,-1,151,169,171,-1,151,171,153,-1,153,171,173,-1,153,173,155,-1,155,173,175,-1,155,175,157,-1,157,175,162,-1,157,162,159,-1,159,162,161,-1,192,193,194,-1,194,193,195,-1,196,197,198,-1,196,198,199,-1,199,198,200,-1,199,200,201,-1,201,200,202,-1,201,202,203,-1,203,202,204,-1,203,204,205,-1,205,204,206,-1,205,206,207,-1,207,206,195,-1,207,195,193,-1,196,208,197,-1,197,208,209,-1,209,208,210,-1,210,208,211,-1,210,211,212,-1,212,211,213,-1,212,213,214,-1,214,213,215,-1,214,215,216,-1,216,215,217,-1,216,217,218,-1,218,217,219,-1,218,219,220,-1,220,219,221,-1,222,220,223,-1,223,220,221,-1,222,223,224,-1,224,223,225,-1,225,226,224,-1,224,226,227,-1,228,229,230,-1,228,230,231,-1,231,230,232,-1,231,232,233,-1,233,232,234,-1,233,234,235,-1,235,234,236,-1,235,236,237,-1,237,236,238,-1,237,238,239,-1,239,238,227,-1,239,227,226,-1,240,241,242,-1,242,241,243,-1,222,224,220,-1,220,224,227,-1,220,227,218,-1,218,227,238,-1,218,238,216,-1,216,238,236,-1,216,236,214,-1,214,236,234,-1,214,234,212,-1,212,234,232,-1,212,232,210,-1,210,232,230,-1,210,230,209,-1,209,230,229,-1,209,229,197,-1,197,229,244,-1,197,244,198,-1,198,244,245,-1,198,245,200,-1,200,245,246,-1,200,246,202,-1,202,246,247,-1,202,247,204,-1,204,247,248,-1,204,248,206,-1,206,248,249,-1,206,249,195,-1,195,249,241,-1,195,241,194,-1,194,241,240,-1,244,250,245,-1,245,250,251,-1,245,251,246,-1,246,251,252,-1,246,252,247,-1,247,252,253,-1,247,253,248,-1,248,253,254,-1,248,254,249,-1,249,254,255,-1,249,255,241,-1,241,255,243,-1,228,250,229,-1,229,250,244,-1,192,242,193,-1,193,242,243,-1,193,243,207,-1,207,243,255,-1,207,255,205,-1,205,255,254,-1,205,254,203,-1,203,254,253,-1,203,253,201,-1,201,253,252,-1,201,252,199,-1,199,252,251,-1,199,251,196,-1,196,251,250,-1,196,250,208,-1,208,250,228,-1,208,228,211,-1,211,228,231,-1,211,231,213,-1,213,231,233,-1,213,233,215,-1,215,233,235,-1,215,235,217,-1,217,235,237,-1,217,237,219,-1,219,237,239,-1,219,239,221,-1,221,239,226,-1,221,226,223,-1,223,226,225,-1,256,257,258,-1,258,257,259,-1,260,261,262,-1,260,262,263,-1,263,262,264,-1,263,264,265,-1,265,264,266,-1,265,266,267,-1,267,266,268,-1,267,268,269,-1,269,268,270,-1,269,270,271,-1,271,270,259,-1,271,259,257,-1,260,272,261,-1,261,272,273,-1,273,272,274,-1,274,272,275,-1,274,275,276,-1,276,275,277,-1,276,277,278,-1,278,277,279,-1,278,279,280,-1,280,279,281,-1,280,281,282,-1,282,281,283,-1,282,283,284,-1,284,283,285,-1,286,284,287,-1,287,284,285,-1,286,287,288,-1,288,287,289,-1,289,290,288,-1,288,290,291,-1,292,293,294,-1,292,294,295,-1,295,294,296,-1,295,296,297,-1,297,296,298,-1,297,298,299,-1,299,298,300,-1,299,300,301,-1,301,300,302,-1,301,302,303,-1,303,302,291,-1,303,291,290,-1,304,305,306,-1,306,305,307,-1,286,288,284,-1,284,288,291,-1,284,291,282,-1,282,291,302,-1,282,302,280,-1,280,302,300,-1,280,300,278,-1,278,300,298,-1,278,298,276,-1,276,298,296,-1,276,296,274,-1,274,296,294,-1,274,294,273,-1,273,294,293,-1,273,293,261,-1,261,293,308,-1,261,308,262,-1,262,308,309,-1,262,309,264,-1,264,309,310,-1,264,310,266,-1,266,310,311,-1,266,311,268,-1,268,311,312,-1,268,312,270,-1,270,312,313,-1,270,313,259,-1,259,313,305,-1,259,305,258,-1,258,305,304,-1,308,314,309,-1,309,314,315,-1,309,315,310,-1,310,315,316,-1,310,316,311,-1,311,316,317,-1,311,317,312,-1,312,317,318,-1,312,318,313,-1,313,318,319,-1,313,319,305,-1,305,319,307,-1,292,314,293,-1,293,314,308,-1,256,306,257,-1,257,306,307,-1,257,307,271,-1,271,307,319,-1,271,319,269,-1,269,319,318,-1,269,318,267,-1,267,318,317,-1,267,317,265,-1,265,317,316,-1,265,316,263,-1,263,316,315,-1,263,315,260,-1,260,315,314,-1,260,314,272,-1,272,314,292,-1,272,292,275,-1,275,292,295,-1,275,295,277,-1,277,295,297,-1,277,297,279,-1,279,297,299,-1,279,299,281,-1,281,299,301,-1,281,301,283,-1,283,301,303,-1,283,303,285,-1,285,303,290,-1,285,290,287,-1,287,290,289,-1,320,321,322,-1,322,321,323,-1,324,325,326,-1,324,326,327,-1,327,326,328,-1,327,328,329,-1,329,328,330,-1,329,330,331,-1,331,330,332,-1,331,332,333,-1,333,332,334,-1,333,334,335,-1,335,334,323,-1,335,323,321,-1,324,336,325,-1,325,336,337,-1,337,336,338,-1,338,336,339,-1,338,339,340,-1,340,339,341,-1,340,341,342,-1,342,341,343,-1,342,343,344,-1,344,343,345,-1,344,345,346,-1,346,345,347,-1,346,347,348,-1,348,347,349,-1,350,348,351,-1,351,348,349,-1,350,351,352,-1,352,351,353,-1,353,354,352,-1,352,354,355,-1,356,357,358,-1,356,358,359,-1,359,358,360,-1,359,360,361,-1,361,360,362,-1,361,362,363,-1,363,362,364,-1,363,364,365,-1,365,364,366,-1,365,366,367,-1,367,366,355,-1,367,355,354,-1,368,369,370,-1,370,369,371,-1,350,352,348,-1,348,352,355,-1,348,355,346,-1,346,355,366,-1,346,366,344,-1,344,366,364,-1,344,364,342,-1,342,364,362,-1,342,362,340,-1,340,362,360,-1,340,360,338,-1,338,360,358,-1,338,358,337,-1,337,358,357,-1,337,357,325,-1,325,357,372,-1,325,372,326,-1,326,372,373,-1,326,373,328,-1,328,373,374,-1,328,374,330,-1,330,374,375,-1,330,375,332,-1,332,375,376,-1,332,376,334,-1,334,376,377,-1,334,377,323,-1,323,377,369,-1,323,369,322,-1,322,369,368,-1,372,378,373,-1,373,378,379,-1,373,379,374,-1,374,379,380,-1,374,380,375,-1,375,380,381,-1,375,381,376,-1,376,381,382,-1,376,382,377,-1,377,382,383,-1,377,383,369,-1,369,383,371,-1,356,378,357,-1,357,378,372,-1,320,370,321,-1,321,370,371,-1,321,371,335,-1,335,371,383,-1,335,383,333,-1,333,383,382,-1,333,382,331,-1,331,382,381,-1,331,381,329,-1,329,381,380,-1,329,380,327,-1,327,380,379,-1,327,379,324,-1,324,379,378,-1,324,378,336,-1,336,378,356,-1,336,356,339,-1,339,356,359,-1,339,359,341,-1,341,359,361,-1,341,361,343,-1,343,361,363,-1,343,363,345,-1,345,363,365,-1,345,365,347,-1,347,365,367,-1,347,367,349,-1,349,367,354,-1,349,354,351,-1,351,354,353,-1,384,385,386,-1,386,385,387,-1,388,389,390,-1,388,390,391,-1,391,390,392,-1,391,392,393,-1,393,392,394,-1,393,394,395,-1,395,394,396,-1,395,396,397,-1,397,396,398,-1,397,398,399,-1,399,398,387,-1,399,387,385,-1,388,400,389,-1,389,400,401,-1,401,400,402,-1,402,400,403,-1,402,403,404,-1,404,403,405,-1,404,405,406,-1,406,405,407,-1,406,407,408,-1,408,407,409,-1,408,409,410,-1,410,409,411,-1,410,411,412,-1,412,411,413,-1,414,412,415,-1,415,412,413,-1,414,415,416,-1,416,415,417,-1,417,418,416,-1,416,418,419,-1,420,421,422,-1,420,422,423,-1,423,422,424,-1,423,424,425,-1,425,424,426,-1,425,426,427,-1,427,426,428,-1,427,428,429,-1,429,428,430,-1,429,430,431,-1,431,430,419,-1,431,419,418,-1,432,433,434,-1,434,433,435,-1,414,416,412,-1,412,416,419,-1,412,419,410,-1,410,419,430,-1,410,430,408,-1,408,430,428,-1,408,428,406,-1,406,428,426,-1,406,426,404,-1,404,426,424,-1,404,424,402,-1,402,424,422,-1,402,422,401,-1,401,422,421,-1,401,421,389,-1,389,421,436,-1,389,436,390,-1,390,436,437,-1,390,437,392,-1,392,437,438,-1,392,438,394,-1,394,438,439,-1,394,439,396,-1,396,439,440,-1,396,440,398,-1,398,440,441,-1,398,441,387,-1,387,441,433,-1,387,433,386,-1,386,433,432,-1,436,442,437,-1,437,442,443,-1,437,443,438,-1,438,443,444,-1,438,444,439,-1,439,444,445,-1,439,445,440,-1,440,445,446,-1,440,446,441,-1,441,446,447,-1,441,447,433,-1,433,447,435,-1,420,442,421,-1,421,442,436,-1,384,434,385,-1,385,434,435,-1,385,435,399,-1,399,435,447,-1,399,447,397,-1,397,447,446,-1,397,446,395,-1,395,446,445,-1,395,445,393,-1,393,445,444,-1,393,444,391,-1,391,444,443,-1,391,443,388,-1,388,443,442,-1,388,442,400,-1,400,442,420,-1,400,420,403,-1,403,420,423,-1,403,423,405,-1,405,423,425,-1,405,425,407,-1,407,425,427,-1,407,427,409,-1,409,427,429,-1,409,429,411,-1,411,429,431,-1,411,431,413,-1,413,431,418,-1,413,418,415,-1,415,418,417,-1,448,449,450,-1,450,449,451,-1,452,453,454,-1,452,454,455,-1,455,454,456,-1,455,456,457,-1,457,456,458,-1,457,458,459,-1,459,458,460,-1,459,460,461,-1,461,460,462,-1,461,462,463,-1,463,462,451,-1,463,451,449,-1,464,465,466,-1,466,465,467,-1,468,469,470,-1,470,469,471,-1,470,471,472,-1,472,471,473,-1,472,473,474,-1,474,473,475,-1,474,475,476,-1,476,475,477,-1,476,477,478,-1,478,477,479,-1,478,479,465,-1,465,479,467,-1,480,469,481,-1,481,469,468,-1,480,481,482,-1,480,482,483,-1,483,482,484,-1,483,484,485,-1,485,484,486,-1,485,486,487,-1,487,486,488,-1,487,488,489,-1,489,488,490,-1,489,490,491,-1,491,490,492,-1,491,492,493,-1,494,493,495,-1,495,493,492,-1,496,497,495,-1,495,497,494,-1,496,498,497,-1,497,498,499,-1,496,495,498,-1,498,495,492,-1,498,492,500,-1,500,492,490,-1,500,490,501,-1,501,490,488,-1,501,488,502,-1,502,488,486,-1,502,486,503,-1,503,486,484,-1,503,484,504,-1,504,484,482,-1,504,482,505,-1,505,482,481,-1,505,481,453,-1,453,481,468,-1,453,468,454,-1,454,468,470,-1,454,470,456,-1,456,470,472,-1,456,472,458,-1,458,472,474,-1,458,474,460,-1,460,474,476,-1,460,476,462,-1,462,476,478,-1,462,478,451,-1,451,478,465,-1,451,465,450,-1,450,465,464,-1,505,506,504,-1,504,506,507,-1,504,507,503,-1,503,507,508,-1,503,508,502,-1,502,508,509,-1,502,509,501,-1,501,509,510,-1,501,510,500,-1,500,510,511,-1,500,511,498,-1,498,511,499,-1,452,506,453,-1,453,506,505,-1,448,466,449,-1,449,466,467,-1,449,467,463,-1,463,467,479,-1,463,479,461,-1,461,479,477,-1,461,477,459,-1,459,477,475,-1,459,475,457,-1,457,475,473,-1,457,473,455,-1,455,473,471,-1,455,471,452,-1,452,471,469,-1,452,469,506,-1,506,469,480,-1,506,480,507,-1,507,480,483,-1,507,483,508,-1,508,483,485,-1,508,485,509,-1,509,485,487,-1,509,487,510,-1,510,487,489,-1,510,489,511,-1,511,489,491,-1,511,491,499,-1,499,491,493,-1,499,493,497,-1,497,493,494,-1,512,513,514,-1,514,513,515,-1,516,517,518,-1,516,518,519,-1,519,518,520,-1,519,520,521,-1,521,520,522,-1,521,522,523,-1,523,522,524,-1,523,524,525,-1,525,524,526,-1,525,526,527,-1,527,526,515,-1,527,515,513,-1,528,529,530,-1,530,529,531,-1,532,533,534,-1,534,533,535,-1,534,535,536,-1,536,535,537,-1,536,537,538,-1,538,537,539,-1,538,539,540,-1,540,539,541,-1,540,541,542,-1,542,541,543,-1,542,543,529,-1,529,543,531,-1,544,533,545,-1,545,533,532,-1,544,545,546,-1,544,546,547,-1,547,546,548,-1,547,548,549,-1,549,548,550,-1,549,550,551,-1,551,550,552,-1,551,552,553,-1,553,552,554,-1,553,554,555,-1,555,554,556,-1,555,556,557,-1,558,557,559,-1,559,557,556,-1,560,561,559,-1,559,561,558,-1,560,562,561,-1,561,562,563,-1,560,559,562,-1,562,559,556,-1,562,556,564,-1,564,556,554,-1,564,554,565,-1,565,554,552,-1,565,552,566,-1,566,552,550,-1,566,550,567,-1,567,550,548,-1,567,548,568,-1,568,548,546,-1,568,546,569,-1,569,546,545,-1,569,545,517,-1,517,545,532,-1,517,532,518,-1,518,532,534,-1,518,534,520,-1,520,534,536,-1,520,536,522,-1,522,536,538,-1,522,538,524,-1,524,538,540,-1,524,540,526,-1,526,540,542,-1,526,542,515,-1,515,542,529,-1,515,529,514,-1,514,529,528,-1,569,570,568,-1,568,570,571,-1,568,571,567,-1,567,571,572,-1,567,572,566,-1,566,572,573,-1,566,573,565,-1,565,573,574,-1,565,574,564,-1,564,574,575,-1,564,575,562,-1,562,575,563,-1,516,570,517,-1,517,570,569,-1,512,530,513,-1,513,530,531,-1,513,531,527,-1,527,531,543,-1,527,543,525,-1,525,543,541,-1,525,541,523,-1,523,541,539,-1,523,539,521,-1,521,539,537,-1,521,537,519,-1,519,537,535,-1,519,535,516,-1,516,535,533,-1,516,533,570,-1,570,533,544,-1,570,544,571,-1,571,544,547,-1,571,547,572,-1,572,547,549,-1,572,549,573,-1,573,549,551,-1,573,551,574,-1,574,551,553,-1,574,553,575,-1,575,553,555,-1,575,555,563,-1,563,555,557,-1,563,557,561,-1,561,557,558,-1,576,577,578,-1,578,577,579,-1,580,581,582,-1,580,582,583,-1,583,582,584,-1,583,584,585,-1,585,584,586,-1,585,586,587,-1,587,586,588,-1,587,588,589,-1,589,588,590,-1,589,590,591,-1,591,590,579,-1,591,579,577,-1,592,593,594,-1,594,593,595,-1,596,597,598,-1,598,597,599,-1,598,599,600,-1,600,599,601,-1,600,601,602,-1,602,601,603,-1,602,603,604,-1,604,603,605,-1,604,605,606,-1,606,605,607,-1,606,607,593,-1,593,607,595,-1,608,597,609,-1,609,597,596,-1,608,609,610,-1,608,610,611,-1,611,610,612,-1,611,612,613,-1,613,612,614,-1,613,614,615,-1,615,614,616,-1,615,616,617,-1,617,616,618,-1,617,618,619,-1,619,618,620,-1,619,620,621,-1,622,621,623,-1,623,621,620,-1,624,625,623,-1,623,625,622,-1,624,626,625,-1,625,626,627,-1,624,623,626,-1,626,623,620,-1,626,620,628,-1,628,620,618,-1,628,618,629,-1,629,618,616,-1,629,616,630,-1,630,616,614,-1,630,614,631,-1,631,614,612,-1,631,612,632,-1,632,612,610,-1,632,610,633,-1,633,610,609,-1,633,609,581,-1,581,609,596,-1,581,596,582,-1,582,596,598,-1,582,598,584,-1,584,598,600,-1,584,600,586,-1,586,600,602,-1,586,602,588,-1,588,602,604,-1,588,604,590,-1,590,604,606,-1,590,606,579,-1,579,606,593,-1,579,593,578,-1,578,593,592,-1,633,634,632,-1,632,634,635,-1,632,635,631,-1,631,635,636,-1,631,636,630,-1,630,636,637,-1,630,637,629,-1,629,637,638,-1,629,638,628,-1,628,638,639,-1,628,639,626,-1,626,639,627,-1,580,634,581,-1,581,634,633,-1,576,594,577,-1,577,594,595,-1,577,595,591,-1,591,595,607,-1,591,607,589,-1,589,607,605,-1,589,605,587,-1,587,605,603,-1,587,603,585,-1,585,603,601,-1,585,601,583,-1,583,601,599,-1,583,599,580,-1,580,599,597,-1,580,597,634,-1,634,597,608,-1,634,608,635,-1,635,608,611,-1,635,611,636,-1,636,611,613,-1,636,613,637,-1,637,613,615,-1,637,615,638,-1,638,615,617,-1,638,617,639,-1,639,617,619,-1,639,619,627,-1,627,619,621,-1,627,621,625,-1,625,621,622,-1,640,641,642,-1,642,641,643,-1,644,645,646,-1,644,646,647,-1,647,646,648,-1,647,648,649,-1,649,648,650,-1,649,650,651,-1,651,650,652,-1,651,652,653,-1,653,652,654,-1,653,654,655,-1,655,654,643,-1,655,643,641,-1,656,657,658,-1,658,657,659,-1,660,661,662,-1,662,661,663,-1,662,663,664,-1,664,663,665,-1,664,665,666,-1,666,665,667,-1,666,667,668,-1,668,667,669,-1,668,669,670,-1,670,669,671,-1,670,671,657,-1,657,671,659,-1,672,661,673,-1,673,661,660,-1,672,673,674,-1,672,674,675,-1,675,674,676,-1,675,676,677,-1,677,676,678,-1,677,678,679,-1,679,678,680,-1,679,680,681,-1,681,680,682,-1,681,682,683,-1,683,682,684,-1,683,684,685,-1,686,685,687,-1,687,685,684,-1,688,689,687,-1,687,689,686,-1,688,690,689,-1,689,690,691,-1,688,687,690,-1,690,687,684,-1,690,684,692,-1,692,684,682,-1,692,682,693,-1,693,682,680,-1,693,680,694,-1,694,680,678,-1,694,678,695,-1,695,678,676,-1,695,676,696,-1,696,676,674,-1,696,674,697,-1,697,674,673,-1,697,673,645,-1,645,673,660,-1,645,660,646,-1,646,660,662,-1,646,662,648,-1,648,662,664,-1,648,664,650,-1,650,664,666,-1,650,666,652,-1,652,666,668,-1,652,668,654,-1,654,668,670,-1,654,670,643,-1,643,670,657,-1,643,657,642,-1,642,657,656,-1,697,698,696,-1,696,698,699,-1,696,699,695,-1,695,699,700,-1,695,700,694,-1,694,700,701,-1,694,701,693,-1,693,701,702,-1,693,702,692,-1,692,702,703,-1,692,703,690,-1,690,703,691,-1,644,698,645,-1,645,698,697,-1,640,658,641,-1,641,658,659,-1,641,659,655,-1,655,659,671,-1,655,671,653,-1,653,671,669,-1,653,669,651,-1,651,669,667,-1,651,667,649,-1,649,667,665,-1,649,665,647,-1,647,665,663,-1,647,663,644,-1,644,663,661,-1,644,661,698,-1,698,661,672,-1,698,672,699,-1,699,672,675,-1,699,675,700,-1,700,675,677,-1,700,677,701,-1,701,677,679,-1,701,679,702,-1,702,679,681,-1,702,681,703,-1,703,681,683,-1,703,683,691,-1,691,683,685,-1,691,685,689,-1,689,685,686,-1,704,705,706,-1,706,705,707,-1,708,709,710,-1,708,710,711,-1,711,710,712,-1,711,712,713,-1,713,712,714,-1,713,714,715,-1,715,714,716,-1,715,716,717,-1,717,716,718,-1,717,718,719,-1,719,718,707,-1,719,707,705,-1,720,721,722,-1,722,721,723,-1,724,725,726,-1,726,725,727,-1,726,727,728,-1,728,727,729,-1,728,729,730,-1,730,729,731,-1,730,731,732,-1,732,731,733,-1,732,733,734,-1,734,733,735,-1,734,735,721,-1,721,735,723,-1,736,725,737,-1,737,725,724,-1,736,737,738,-1,736,738,739,-1,739,738,740,-1,739,740,741,-1,741,740,742,-1,741,742,743,-1,743,742,744,-1,743,744,745,-1,745,744,746,-1,745,746,747,-1,747,746,748,-1,747,748,749,-1,750,749,751,-1,751,749,748,-1,752,753,751,-1,751,753,750,-1,752,754,753,-1,753,754,755,-1,752,751,754,-1,754,751,748,-1,754,748,756,-1,756,748,746,-1,756,746,757,-1,757,746,744,-1,757,744,758,-1,758,744,742,-1,758,742,759,-1,759,742,740,-1,759,740,760,-1,760,740,738,-1,760,738,761,-1,761,738,737,-1,761,737,709,-1,709,737,724,-1,709,724,710,-1,710,724,726,-1,710,726,712,-1,712,726,728,-1,712,728,714,-1,714,728,730,-1,714,730,716,-1,716,730,732,-1,716,732,718,-1,718,732,734,-1,718,734,707,-1,707,734,721,-1,707,721,706,-1,706,721,720,-1,761,762,760,-1,760,762,763,-1,760,763,759,-1,759,763,764,-1,759,764,758,-1,758,764,765,-1,758,765,757,-1,757,765,766,-1,757,766,756,-1,756,766,767,-1,756,767,754,-1,754,767,755,-1,708,762,709,-1,709,762,761,-1,704,722,705,-1,705,722,723,-1,705,723,719,-1,719,723,735,-1,719,735,717,-1,717,735,733,-1,717,733,715,-1,715,733,731,-1,715,731,713,-1,713,731,729,-1,713,729,711,-1,711,729,727,-1,711,727,708,-1,708,727,725,-1,708,725,762,-1,762,725,736,-1,762,736,763,-1,763,736,739,-1,763,739,764,-1,764,739,741,-1,764,741,765,-1,765,741,743,-1,765,743,766,-1,766,743,745,-1,766,745,767,-1,767,745,747,-1,767,747,755,-1,755,747,749,-1,755,749,753,-1,753,749,750,-1,768,769,770,-1,770,769,771,-1,771,769,772,-1,771,772,773,-1,773,772,774,-1,773,774,775,-1,775,774,776,-1,775,776,777,-1,777,776,778,-1,777,778,779,-1,779,778,780,-1,779,780,781,-1,781,780,782,-1,781,782,783,-1,782,784,783,-1,783,784,785,-1,786,787,788,-1,788,787,789,-1,788,789,790,-1,790,789,791,-1,790,791,792,-1,792,791,793,-1,792,793,794,-1,794,793,795,-1,794,795,796,-1,796,795,797,-1,796,797,784,-1,784,797,785,-1,798,787,799,-1,799,787,786,-1,800,801,799,-1,799,801,798,-1,800,802,801,-1,801,802,803,-1,803,802,804,-1,803,804,805,-1,805,804,806,-1,805,806,807,-1,807,806,808,-1,807,808,809,-1,809,808,810,-1,809,810,811,-1,811,810,812,-1,811,812,813,-1,813,812,814,-1,813,814,815,-1,814,816,815,-1,815,816,817,-1,768,818,769,-1,769,818,819,-1,769,819,772,-1,772,819,820,-1,772,820,774,-1,774,820,821,-1,774,821,776,-1,776,821,822,-1,776,822,778,-1,778,822,823,-1,778,823,780,-1,780,823,824,-1,780,824,782,-1,782,824,816,-1,782,816,784,-1,784,816,814,-1,784,814,796,-1,796,814,812,-1,796,812,794,-1,794,812,810,-1,794,810,792,-1,792,810,808,-1,792,808,790,-1,790,808,806,-1,790,806,788,-1,788,806,804,-1,788,804,786,-1,786,804,802,-1,786,802,799,-1,799,802,800,-1,819,825,820,-1,820,825,826,-1,820,826,821,-1,821,826,827,-1,821,827,822,-1,822,827,828,-1,822,828,823,-1,823,828,829,-1,823,829,824,-1,824,829,830,-1,824,830,816,-1,816,830,817,-1,831,825,818,-1,818,825,819,-1,798,801,787,-1,787,801,803,-1,787,803,789,-1,789,803,805,-1,789,805,791,-1,791,805,807,-1,791,807,793,-1,793,807,809,-1,793,809,795,-1,795,809,811,-1,795,811,797,-1,797,811,813,-1,797,813,785,-1,785,813,815,-1,785,815,783,-1,783,815,817,-1,783,817,781,-1,781,817,830,-1,781,830,779,-1,779,830,829,-1,779,829,777,-1,777,829,828,-1,777,828,775,-1,775,828,827,-1,775,827,773,-1,773,827,826,-1,773,826,771,-1,771,826,825,-1,771,825,770,-1,770,825,831,-1,832,833,834,-1,834,833,835,-1,835,833,836,-1,835,836,837,-1,837,836,838,-1,837,838,839,-1,839,838,840,-1,839,840,841,-1,841,840,842,-1,841,842,843,-1,843,842,844,-1,843,844,845,-1,845,844,846,-1,845,846,847,-1,846,848,847,-1,847,848,849,-1,850,851,852,-1,852,851,853,-1,852,853,854,-1,854,853,855,-1,854,855,856,-1,856,855,857,-1,856,857,858,-1,858,857,859,-1,858,859,860,-1,860,859,861,-1,860,861,848,-1,848,861,849,-1,862,851,863,-1,863,851,850,-1,864,865,863,-1,863,865,862,-1,864,866,865,-1,865,866,867,-1,867,866,868,-1,867,868,869,-1,869,868,870,-1,869,870,871,-1,871,870,872,-1,871,872,873,-1,873,872,874,-1,873,874,875,-1,875,874,876,-1,875,876,877,-1,877,876,878,-1,877,878,879,-1,878,880,879,-1,879,880,881,-1,832,882,833,-1,833,882,883,-1,833,883,836,-1,836,883,884,-1,836,884,838,-1,838,884,885,-1,838,885,840,-1,840,885,886,-1,840,886,842,-1,842,886,887,-1,842,887,844,-1,844,887,888,-1,844,888,846,-1,846,888,880,-1,846,880,848,-1,848,880,878,-1,848,878,860,-1,860,878,876,-1,860,876,858,-1,858,876,874,-1,858,874,856,-1,856,874,872,-1,856,872,854,-1,854,872,870,-1,854,870,852,-1,852,870,868,-1,852,868,850,-1,850,868,866,-1,850,866,863,-1,863,866,864,-1,883,889,884,-1,884,889,890,-1,884,890,885,-1,885,890,891,-1,885,891,886,-1,886,891,892,-1,886,892,887,-1,887,892,893,-1,887,893,888,-1,888,893,894,-1,888,894,880,-1,880,894,881,-1,895,889,882,-1,882,889,883,-1,862,865,851,-1,851,865,867,-1,851,867,853,-1,853,867,869,-1,853,869,855,-1,855,869,871,-1,855,871,857,-1,857,871,873,-1,857,873,859,-1,859,873,875,-1,859,875,861,-1,861,875,877,-1,861,877,849,-1,849,877,879,-1,849,879,847,-1,847,879,881,-1,847,881,845,-1,845,881,894,-1,845,894,843,-1,843,894,893,-1,843,893,841,-1,841,893,892,-1,841,892,839,-1,839,892,891,-1,839,891,837,-1,837,891,890,-1,837,890,835,-1,835,890,889,-1,835,889,834,-1,834,889,895,-1,896,897,898,-1,898,897,899,-1,899,897,900,-1,899,900,901,-1,901,900,902,-1,901,902,903,-1,903,902,904,-1,903,904,905,-1,905,904,906,-1,905,906,907,-1,907,906,908,-1,907,908,909,-1,909,908,910,-1,909,910,911,-1,910,912,911,-1,911,912,913,-1,914,915,916,-1,916,915,917,-1,916,917,918,-1,918,917,919,-1,918,919,920,-1,920,919,921,-1,920,921,922,-1,922,921,923,-1,922,923,924,-1,924,923,925,-1,924,925,912,-1,912,925,913,-1,926,915,927,-1,927,915,914,-1,928,929,927,-1,927,929,926,-1,928,930,929,-1,929,930,931,-1,931,930,932,-1,931,932,933,-1,933,932,934,-1,933,934,935,-1,935,934,936,-1,935,936,937,-1,937,936,938,-1,937,938,939,-1,939,938,940,-1,939,940,941,-1,941,940,942,-1,941,942,943,-1,942,944,943,-1,943,944,945,-1,896,946,897,-1,897,946,947,-1,897,947,900,-1,900,947,948,-1,900,948,902,-1,902,948,949,-1,902,949,904,-1,904,949,950,-1,904,950,906,-1,906,950,951,-1,906,951,908,-1,908,951,952,-1,908,952,910,-1,910,952,944,-1,910,944,912,-1,912,944,942,-1,912,942,924,-1,924,942,940,-1,924,940,922,-1,922,940,938,-1,922,938,920,-1,920,938,936,-1,920,936,918,-1,918,936,934,-1,918,934,916,-1,916,934,932,-1,916,932,914,-1,914,932,930,-1,914,930,927,-1,927,930,928,-1,947,953,948,-1,948,953,954,-1,948,954,949,-1,949,954,955,-1,949,955,950,-1,950,955,956,-1,950,956,951,-1,951,956,957,-1,951,957,952,-1,952,957,958,-1,952,958,944,-1,944,958,945,-1,959,953,946,-1,946,953,947,-1,926,929,915,-1,915,929,931,-1,915,931,917,-1,917,931,933,-1,917,933,919,-1,919,933,935,-1,919,935,921,-1,921,935,937,-1,921,937,923,-1,923,937,939,-1,923,939,925,-1,925,939,941,-1,925,941,913,-1,913,941,943,-1,913,943,911,-1,911,943,945,-1,911,945,909,-1,909,945,958,-1,909,958,907,-1,907,958,957,-1,907,957,905,-1,905,957,956,-1,905,956,903,-1,903,956,955,-1,903,955,901,-1,901,955,954,-1,901,954,899,-1,899,954,953,-1,899,953,898,-1,898,953,959,-1,960,961,962,-1,962,961,963,-1,963,961,964,-1,963,964,965,-1,965,964,966,-1,965,966,967,-1,967,966,968,-1,967,968,969,-1,969,968,970,-1,969,970,971,-1,971,970,972,-1,971,972,973,-1,973,972,974,-1,973,974,975,-1,974,976,975,-1,975,976,977,-1,978,979,980,-1,980,979,981,-1,980,981,982,-1,982,981,983,-1,982,983,984,-1,984,983,985,-1,984,985,986,-1,986,985,987,-1,986,987,988,-1,988,987,989,-1,988,989,976,-1,976,989,977,-1,990,979,991,-1,991,979,978,-1,992,993,991,-1,991,993,990,-1,992,994,993,-1,993,994,995,-1,995,994,996,-1,995,996,997,-1,997,996,998,-1,997,998,999,-1,999,998,1000,-1,999,1000,1001,-1,1001,1000,1002,-1,1001,1002,1003,-1,1003,1002,1004,-1,1003,1004,1005,-1,1005,1004,1006,-1,1005,1006,1007,-1,1006,1008,1007,-1,1007,1008,1009,-1,960,1010,961,-1,961,1010,1011,-1,961,1011,964,-1,964,1011,1012,-1,964,1012,966,-1,966,1012,1013,-1,966,1013,968,-1,968,1013,1014,-1,968,1014,970,-1,970,1014,1015,-1,970,1015,972,-1,972,1015,1016,-1,972,1016,974,-1,974,1016,1008,-1,974,1008,976,-1,976,1008,1006,-1,976,1006,988,-1,988,1006,1004,-1,988,1004,986,-1,986,1004,1002,-1,986,1002,984,-1,984,1002,1000,-1,984,1000,982,-1,982,1000,998,-1,982,998,980,-1,980,998,996,-1,980,996,978,-1,978,996,994,-1,978,994,991,-1,991,994,992,-1,1011,1017,1012,-1,1012,1017,1018,-1,1012,1018,1013,-1,1013,1018,1019,-1,1013,1019,1014,-1,1014,1019,1020,-1,1014,1020,1015,-1,1015,1020,1021,-1,1015,1021,1016,-1,1016,1021,1022,-1,1016,1022,1008,-1,1008,1022,1009,-1,1023,1017,1010,-1,1010,1017,1011,-1,990,993,979,-1,979,993,995,-1,979,995,981,-1,981,995,997,-1,981,997,983,-1,983,997,999,-1,983,999,985,-1,985,999,1001,-1,985,1001,987,-1,987,1001,1003,-1,987,1003,989,-1,989,1003,1005,-1,989,1005,977,-1,977,1005,1007,-1,977,1007,975,-1,975,1007,1009,-1,975,1009,973,-1,973,1009,1022,-1,973,1022,971,-1,971,1022,1021,-1,971,1021,969,-1,969,1021,1020,-1,969,1020,967,-1,967,1020,1019,-1,967,1019,965,-1,965,1019,1018,-1,965,1018,963,-1,963,1018,1017,-1,963,1017,962,-1,962,1017,1023,-1,1024,1025,1026,-1,1026,1025,1027,-1,1027,1025,1028,-1,1027,1028,1029,-1,1029,1028,1030,-1,1029,1030,1031,-1,1031,1030,1032,-1,1031,1032,1033,-1,1033,1032,1034,-1,1033,1034,1035,-1,1035,1034,1036,-1,1035,1036,1037,-1,1037,1036,1038,-1,1037,1038,1039,-1,1038,1040,1039,-1,1039,1040,1041,-1,1042,1043,1044,-1,1044,1043,1045,-1,1044,1045,1046,-1,1046,1045,1047,-1,1046,1047,1048,-1,1048,1047,1049,-1,1048,1049,1050,-1,1050,1049,1051,-1,1050,1051,1052,-1,1052,1051,1053,-1,1052,1053,1040,-1,1040,1053,1041,-1,1054,1043,1055,-1,1055,1043,1042,-1,1056,1057,1055,-1,1055,1057,1054,-1,1056,1058,1057,-1,1057,1058,1059,-1,1059,1058,1060,-1,1059,1060,1061,-1,1061,1060,1062,-1,1061,1062,1063,-1,1063,1062,1064,-1,1063,1064,1065,-1,1065,1064,1066,-1,1065,1066,1067,-1,1067,1066,1068,-1,1067,1068,1069,-1,1069,1068,1070,-1,1069,1070,1071,-1,1070,1072,1071,-1,1071,1072,1073,-1,1024,1074,1025,-1,1025,1074,1075,-1,1025,1075,1028,-1,1028,1075,1076,-1,1028,1076,1030,-1,1030,1076,1077,-1,1030,1077,1032,-1,1032,1077,1078,-1,1032,1078,1034,-1,1034,1078,1079,-1,1034,1079,1036,-1,1036,1079,1080,-1,1036,1080,1038,-1,1038,1080,1072,-1,1038,1072,1040,-1,1040,1072,1070,-1,1040,1070,1052,-1,1052,1070,1068,-1,1052,1068,1050,-1,1050,1068,1066,-1,1050,1066,1048,-1,1048,1066,1064,-1,1048,1064,1046,-1,1046,1064,1062,-1,1046,1062,1044,-1,1044,1062,1060,-1,1044,1060,1042,-1,1042,1060,1058,-1,1042,1058,1055,-1,1055,1058,1056,-1,1075,1081,1076,-1,1076,1081,1082,-1,1076,1082,1077,-1,1077,1082,1083,-1,1077,1083,1078,-1,1078,1083,1084,-1,1078,1084,1079,-1,1079,1084,1085,-1,1079,1085,1080,-1,1080,1085,1086,-1,1080,1086,1072,-1,1072,1086,1073,-1,1087,1081,1074,-1,1074,1081,1075,-1,1054,1057,1043,-1,1043,1057,1059,-1,1043,1059,1045,-1,1045,1059,1061,-1,1045,1061,1047,-1,1047,1061,1063,-1,1047,1063,1049,-1,1049,1063,1065,-1,1049,1065,1051,-1,1051,1065,1067,-1,1051,1067,1053,-1,1053,1067,1069,-1,1053,1069,1041,-1,1041,1069,1071,-1,1041,1071,1039,-1,1039,1071,1073,-1,1039,1073,1037,-1,1037,1073,1086,-1,1037,1086,1035,-1,1035,1086,1085,-1,1035,1085,1033,-1,1033,1085,1084,-1,1033,1084,1031,-1,1031,1084,1083,-1,1031,1083,1029,-1,1029,1083,1082,-1,1029,1082,1027,-1,1027,1082,1081,-1,1027,1081,1026,-1,1026,1081,1087,-1,1088,1089,1090,-1,1090,1089,1091,-1,1091,1089,1092,-1,1091,1092,1093,-1,1093,1092,1094,-1,1093,1094,1095,-1,1095,1094,1096,-1,1095,1096,1097,-1,1097,1096,1098,-1,1097,1098,1099,-1,1099,1098,1100,-1,1099,1100,1101,-1,1101,1100,1102,-1,1101,1102,1103,-1,1102,1104,1103,-1,1103,1104,1105,-1,1106,1107,1108,-1,1108,1107,1109,-1,1108,1109,1110,-1,1110,1109,1111,-1,1110,1111,1112,-1,1112,1111,1113,-1,1112,1113,1114,-1,1114,1113,1115,-1,1114,1115,1116,-1,1116,1115,1117,-1,1116,1117,1104,-1,1104,1117,1105,-1,1118,1107,1119,-1,1119,1107,1106,-1,1120,1121,1119,-1,1119,1121,1118,-1,1120,1122,1121,-1,1121,1122,1123,-1,1123,1122,1124,-1,1123,1124,1125,-1,1125,1124,1126,-1,1125,1126,1127,-1,1127,1126,1128,-1,1127,1128,1129,-1,1129,1128,1130,-1,1129,1130,1131,-1,1131,1130,1132,-1,1131,1132,1133,-1,1133,1132,1134,-1,1133,1134,1135,-1,1134,1136,1135,-1,1135,1136,1137,-1,1088,1138,1089,-1,1089,1138,1139,-1,1089,1139,1092,-1,1092,1139,1140,-1,1092,1140,1094,-1,1094,1140,1141,-1,1094,1141,1096,-1,1096,1141,1142,-1,1096,1142,1098,-1,1098,1142,1143,-1,1098,1143,1100,-1,1100,1143,1144,-1,1100,1144,1102,-1,1102,1144,1136,-1,1102,1136,1104,-1,1104,1136,1134,-1,1104,1134,1116,-1,1116,1134,1132,-1,1116,1132,1114,-1,1114,1132,1130,-1,1114,1130,1112,-1,1112,1130,1128,-1,1112,1128,1110,-1,1110,1128,1126,-1,1110,1126,1108,-1,1108,1126,1124,-1,1108,1124,1106,-1,1106,1124,1122,-1,1106,1122,1119,-1,1119,1122,1120,-1,1139,1145,1140,-1,1140,1145,1146,-1,1140,1146,1141,-1,1141,1146,1147,-1,1141,1147,1142,-1,1142,1147,1148,-1,1142,1148,1143,-1,1143,1148,1149,-1,1143,1149,1144,-1,1144,1149,1150,-1,1144,1150,1136,-1,1136,1150,1137,-1,1151,1145,1138,-1,1138,1145,1139,-1,1118,1121,1107,-1,1107,1121,1123,-1,1107,1123,1109,-1,1109,1123,1125,-1,1109,1125,1111,-1,1111,1125,1127,-1,1111,1127,1113,-1,1113,1127,1129,-1,1113,1129,1115,-1,1115,1129,1131,-1,1115,1131,1117,-1,1117,1131,1133,-1,1117,1133,1105,-1,1105,1133,1135,-1,1105,1135,1103,-1,1103,1135,1137,-1,1103,1137,1101,-1,1101,1137,1150,-1,1101,1150,1099,-1,1099,1150,1149,-1,1099,1149,1097,-1,1097,1149,1148,-1,1097,1148,1095,-1,1095,1148,1147,-1,1095,1147,1093,-1,1093,1147,1146,-1,1093,1146,1091,-1,1091,1146,1145,-1,1091,1145,1090,-1,1090,1145,1151,-1,1152,1153,1154,-1,1154,1153,1155,-1,1155,1153,1156,-1,1155,1156,1157,-1,1157,1156,1158,-1,1157,1158,1159,-1,1159,1158,1160,-1,1159,1160,1161,-1,1161,1160,1162,-1,1161,1162,1163,-1,1163,1162,1164,-1,1163,1164,1165,-1,1165,1164,1166,-1,1165,1166,1167,-1,1166,1168,1167,-1,1167,1168,1169,-1,1170,1171,1172,-1,1172,1171,1173,-1,1172,1173,1174,-1,1174,1173,1175,-1,1174,1175,1176,-1,1176,1175,1177,-1,1176,1177,1178,-1,1178,1177,1179,-1,1178,1179,1180,-1,1180,1179,1181,-1,1180,1181,1168,-1,1168,1181,1169,-1,1182,1171,1183,-1,1183,1171,1170,-1,1184,1185,1183,-1,1183,1185,1182,-1,1184,1186,1185,-1,1185,1186,1187,-1,1187,1186,1188,-1,1187,1188,1189,-1,1189,1188,1190,-1,1189,1190,1191,-1,1191,1190,1192,-1,1191,1192,1193,-1,1193,1192,1194,-1,1193,1194,1195,-1,1195,1194,1196,-1,1195,1196,1197,-1,1197,1196,1198,-1,1197,1198,1199,-1,1198,1200,1199,-1,1199,1200,1201,-1,1152,1202,1153,-1,1153,1202,1203,-1,1153,1203,1156,-1,1156,1203,1204,-1,1156,1204,1158,-1,1158,1204,1205,-1,1158,1205,1160,-1,1160,1205,1206,-1,1160,1206,1162,-1,1162,1206,1207,-1,1162,1207,1164,-1,1164,1207,1208,-1,1164,1208,1166,-1,1166,1208,1200,-1,1166,1200,1168,-1,1168,1200,1198,-1,1168,1198,1180,-1,1180,1198,1196,-1,1180,1196,1178,-1,1178,1196,1194,-1,1178,1194,1176,-1,1176,1194,1192,-1,1176,1192,1174,-1,1174,1192,1190,-1,1174,1190,1172,-1,1172,1190,1188,-1,1172,1188,1170,-1,1170,1188,1186,-1,1170,1186,1183,-1,1183,1186,1184,-1,1203,1209,1204,-1,1204,1209,1210,-1,1204,1210,1205,-1,1205,1210,1211,-1,1205,1211,1206,-1,1206,1211,1212,-1,1206,1212,1207,-1,1207,1212,1213,-1,1207,1213,1208,-1,1208,1213,1214,-1,1208,1214,1200,-1,1200,1214,1201,-1,1215,1209,1202,-1,1202,1209,1203,-1,1182,1185,1171,-1,1171,1185,1187,-1,1171,1187,1173,-1,1173,1187,1189,-1,1173,1189,1175,-1,1175,1189,1191,-1,1175,1191,1177,-1,1177,1191,1193,-1,1177,1193,1179,-1,1179,1193,1195,-1,1179,1195,1181,-1,1181,1195,1197,-1,1181,1197,1169,-1,1169,1197,1199,-1,1169,1199,1167,-1,1167,1199,1201,-1,1167,1201,1165,-1,1165,1201,1214,-1,1165,1214,1163,-1,1163,1214,1213,-1,1163,1213,1161,-1,1161,1213,1212,-1,1161,1212,1159,-1,1159,1212,1211,-1,1159,1211,1157,-1,1157,1211,1210,-1,1157,1210,1155,-1,1155,1210,1209,-1,1155,1209,1154,-1,1154,1209,1215,-1,1216,1217,1218,-1,1218,1217,1219,-1,1219,1217,1220,-1,1219,1220,1221,-1,1221,1220,1222,-1,1221,1222,1223,-1,1223,1222,1224,-1,1223,1224,1225,-1,1225,1224,1226,-1,1225,1226,1227,-1,1227,1226,1228,-1,1227,1228,1229,-1,1229,1228,1230,-1,1229,1230,1231,-1,1230,1232,1231,-1,1231,1232,1233,-1,1234,1235,1236,-1,1236,1235,1237,-1,1236,1237,1238,-1,1238,1237,1239,-1,1238,1239,1240,-1,1240,1239,1241,-1,1240,1241,1242,-1,1242,1241,1243,-1,1242,1243,1244,-1,1244,1243,1245,-1,1244,1245,1232,-1,1232,1245,1233,-1,1246,1235,1247,-1,1247,1235,1234,-1,1248,1249,1247,-1,1247,1249,1246,-1,1248,1250,1249,-1,1249,1250,1251,-1,1251,1250,1252,-1,1251,1252,1253,-1,1253,1252,1254,-1,1253,1254,1255,-1,1255,1254,1256,-1,1255,1256,1257,-1,1257,1256,1258,-1,1257,1258,1259,-1,1259,1258,1260,-1,1259,1260,1261,-1,1261,1260,1262,-1,1261,1262,1263,-1,1262,1264,1263,-1,1263,1264,1265,-1,1216,1266,1217,-1,1217,1266,1267,-1,1217,1267,1220,-1,1220,1267,1268,-1,1220,1268,1222,-1,1222,1268,1269,-1,1222,1269,1224,-1,1224,1269,1270,-1,1224,1270,1226,-1,1226,1270,1271,-1,1226,1271,1228,-1,1228,1271,1272,-1,1228,1272,1230,-1,1230,1272,1264,-1,1230,1264,1232,-1,1232,1264,1262,-1,1232,1262,1244,-1,1244,1262,1260,-1,1244,1260,1242,-1,1242,1260,1258,-1,1242,1258,1240,-1,1240,1258,1256,-1,1240,1256,1238,-1,1238,1256,1254,-1,1238,1254,1236,-1,1236,1254,1252,-1,1236,1252,1234,-1,1234,1252,1250,-1,1234,1250,1247,-1,1247,1250,1248,-1,1267,1273,1268,-1,1268,1273,1274,-1,1268,1274,1269,-1,1269,1274,1275,-1,1269,1275,1270,-1,1270,1275,1276,-1,1270,1276,1271,-1,1271,1276,1277,-1,1271,1277,1272,-1,1272,1277,1278,-1,1272,1278,1264,-1,1264,1278,1265,-1,1279,1273,1266,-1,1266,1273,1267,-1,1246,1249,1235,-1,1235,1249,1251,-1,1235,1251,1237,-1,1237,1251,1253,-1,1237,1253,1239,-1,1239,1253,1255,-1,1239,1255,1241,-1,1241,1255,1257,-1,1241,1257,1243,-1,1243,1257,1259,-1,1243,1259,1245,-1,1245,1259,1261,-1,1245,1261,1233,-1,1233,1261,1263,-1,1233,1263,1231,-1,1231,1263,1265,-1,1231,1265,1229,-1,1229,1265,1278,-1,1229,1278,1227,-1,1227,1278,1277,-1,1227,1277,1225,-1,1225,1277,1276,-1,1225,1276,1223,-1,1223,1276,1275,-1,1223,1275,1221,-1,1221,1275,1274,-1,1221,1274,1219,-1,1219,1274,1273,-1,1219,1273,1218,-1,1218,1273,1279,-1,1280,1281,1282,-1,1282,1281,1283,-1,1283,1281,1284,-1,1283,1284,1285,-1,1285,1284,1286,-1,1285,1286,1287,-1,1287,1286,1288,-1,1287,1288,1289,-1,1289,1288,1290,-1,1289,1290,1291,-1,1291,1290,1292,-1,1291,1292,1293,-1,1293,1292,1294,-1,1293,1294,1295,-1,1294,1296,1295,-1,1295,1296,1297,-1,1298,1299,1300,-1,1300,1299,1301,-1,1300,1301,1302,-1,1302,1301,1303,-1,1302,1303,1304,-1,1304,1303,1305,-1,1304,1305,1306,-1,1306,1305,1307,-1,1306,1307,1308,-1,1308,1307,1309,-1,1308,1309,1296,-1,1296,1309,1297,-1,1310,1299,1311,-1,1311,1299,1298,-1,1312,1313,1311,-1,1311,1313,1310,-1,1312,1314,1313,-1,1313,1314,1315,-1,1315,1314,1316,-1,1315,1316,1317,-1,1317,1316,1318,-1,1317,1318,1319,-1,1319,1318,1320,-1,1319,1320,1321,-1,1321,1320,1322,-1,1321,1322,1323,-1,1323,1322,1324,-1,1323,1324,1325,-1,1325,1324,1326,-1,1325,1326,1327,-1,1326,1328,1327,-1,1327,1328,1329,-1,1280,1330,1281,-1,1281,1330,1331,-1,1281,1331,1284,-1,1284,1331,1332,-1,1284,1332,1286,-1,1286,1332,1333,-1,1286,1333,1288,-1,1288,1333,1334,-1,1288,1334,1290,-1,1290,1334,1335,-1,1290,1335,1292,-1,1292,1335,1336,-1,1292,1336,1294,-1,1294,1336,1328,-1,1294,1328,1296,-1,1296,1328,1326,-1,1296,1326,1308,-1,1308,1326,1324,-1,1308,1324,1306,-1,1306,1324,1322,-1,1306,1322,1304,-1,1304,1322,1320,-1,1304,1320,1302,-1,1302,1320,1318,-1,1302,1318,1300,-1,1300,1318,1316,-1,1300,1316,1298,-1,1298,1316,1314,-1,1298,1314,1311,-1,1311,1314,1312,-1,1331,1337,1332,-1,1332,1337,1338,-1,1332,1338,1333,-1,1333,1338,1339,-1,1333,1339,1334,-1,1334,1339,1340,-1,1334,1340,1335,-1,1335,1340,1341,-1,1335,1341,1336,-1,1336,1341,1342,-1,1336,1342,1328,-1,1328,1342,1329,-1,1343,1337,1330,-1,1330,1337,1331,-1,1310,1313,1299,-1,1299,1313,1315,-1,1299,1315,1301,-1,1301,1315,1317,-1,1301,1317,1303,-1,1303,1317,1319,-1,1303,1319,1305,-1,1305,1319,1321,-1,1305,1321,1307,-1,1307,1321,1323,-1,1307,1323,1309,-1,1309,1323,1325,-1,1309,1325,1297,-1,1297,1325,1327,-1,1297,1327,1295,-1,1295,1327,1329,-1,1295,1329,1293,-1,1293,1329,1342,-1,1293,1342,1291,-1,1291,1342,1341,-1,1291,1341,1289,-1,1289,1341,1340,-1,1289,1340,1287,-1,1287,1340,1339,-1,1287,1339,1285,-1,1285,1339,1338,-1,1285,1338,1283,-1,1283,1338,1337,-1,1283,1337,1282,-1,1282,1337,1343,-1,1344,1345,1346,-1,1346,1345,1347,-1,1347,1345,1348,-1,1347,1348,1349,-1,1349,1348,1350,-1,1349,1350,1351,-1,1351,1350,1352,-1,1351,1352,1353,-1,1353,1352,1354,-1,1353,1354,1355,-1,1355,1354,1356,-1,1355,1356,1357,-1,1357,1356,1358,-1,1357,1358,1359,-1,1358,1360,1359,-1,1359,1360,1361,-1,1362,1363,1364,-1,1364,1363,1365,-1,1364,1365,1366,-1,1366,1365,1367,-1,1366,1367,1368,-1,1368,1367,1369,-1,1368,1369,1370,-1,1370,1369,1371,-1,1370,1371,1372,-1,1372,1371,1373,-1,1372,1373,1360,-1,1360,1373,1361,-1,1374,1363,1375,-1,1375,1363,1362,-1,1376,1377,1375,-1,1375,1377,1374,-1,1376,1378,1377,-1,1377,1378,1379,-1,1379,1378,1380,-1,1379,1380,1381,-1,1381,1380,1382,-1,1381,1382,1383,-1,1383,1382,1384,-1,1383,1384,1385,-1,1385,1384,1386,-1,1385,1386,1387,-1,1387,1386,1388,-1,1387,1388,1389,-1,1389,1388,1390,-1,1389,1390,1391,-1,1390,1392,1391,-1,1391,1392,1393,-1,1344,1394,1345,-1,1345,1394,1395,-1,1345,1395,1348,-1,1348,1395,1396,-1,1348,1396,1350,-1,1350,1396,1397,-1,1350,1397,1352,-1,1352,1397,1398,-1,1352,1398,1354,-1,1354,1398,1399,-1,1354,1399,1356,-1,1356,1399,1400,-1,1356,1400,1358,-1,1358,1400,1392,-1,1358,1392,1360,-1,1360,1392,1390,-1,1360,1390,1372,-1,1372,1390,1388,-1,1372,1388,1370,-1,1370,1388,1386,-1,1370,1386,1368,-1,1368,1386,1384,-1,1368,1384,1366,-1,1366,1384,1382,-1,1366,1382,1364,-1,1364,1382,1380,-1,1364,1380,1362,-1,1362,1380,1378,-1,1362,1378,1375,-1,1375,1378,1376,-1,1395,1401,1396,-1,1396,1401,1402,-1,1396,1402,1397,-1,1397,1402,1403,-1,1397,1403,1398,-1,1398,1403,1404,-1,1398,1404,1399,-1,1399,1404,1405,-1,1399,1405,1400,-1,1400,1405,1406,-1,1400,1406,1392,-1,1392,1406,1393,-1,1407,1401,1394,-1,1394,1401,1395,-1,1374,1377,1363,-1,1363,1377,1379,-1,1363,1379,1365,-1,1365,1379,1381,-1,1365,1381,1367,-1,1367,1381,1383,-1,1367,1383,1369,-1,1369,1383,1385,-1,1369,1385,1371,-1,1371,1385,1387,-1,1371,1387,1373,-1,1373,1387,1389,-1,1373,1389,1361,-1,1361,1389,1391,-1,1361,1391,1359,-1,1359,1391,1393,-1,1359,1393,1357,-1,1357,1393,1406,-1,1357,1406,1355,-1,1355,1406,1405,-1,1355,1405,1353,-1,1353,1405,1404,-1,1353,1404,1351,-1,1351,1404,1403,-1,1351,1403,1349,-1,1349,1403,1402,-1,1349,1402,1347,-1,1347,1402,1401,-1,1347,1401,1346,-1,1346,1401,1407,-1,1408,1409,1410,-1,1410,1409,1411,-1,1411,1409,1412,-1,1411,1412,1413,-1,1413,1412,1414,-1,1413,1414,1415,-1,1415,1414,1416,-1,1415,1416,1417,-1,1417,1416,1418,-1,1417,1418,1419,-1,1419,1418,1420,-1,1419,1420,1421,-1,1421,1420,1422,-1,1421,1422,1423,-1,1422,1424,1423,-1,1423,1424,1425,-1,1426,1427,1428,-1,1428,1427,1429,-1,1428,1429,1430,-1,1430,1429,1431,-1,1430,1431,1432,-1,1432,1431,1433,-1,1432,1433,1434,-1,1434,1433,1435,-1,1434,1435,1436,-1,1436,1435,1437,-1,1436,1437,1424,-1,1424,1437,1425,-1,1438,1427,1439,-1,1439,1427,1426,-1,1440,1441,1439,-1,1439,1441,1438,-1,1440,1442,1441,-1,1441,1442,1443,-1,1443,1442,1444,-1,1443,1444,1445,-1,1445,1444,1446,-1,1445,1446,1447,-1,1447,1446,1448,-1,1447,1448,1449,-1,1449,1448,1450,-1,1449,1450,1451,-1,1451,1450,1452,-1,1451,1452,1453,-1,1453,1452,1454,-1,1453,1454,1455,-1,1454,1456,1455,-1,1455,1456,1457,-1,1408,1458,1409,-1,1409,1458,1459,-1,1409,1459,1412,-1,1412,1459,1460,-1,1412,1460,1414,-1,1414,1460,1461,-1,1414,1461,1416,-1,1416,1461,1462,-1,1416,1462,1418,-1,1418,1462,1463,-1,1418,1463,1420,-1,1420,1463,1464,-1,1420,1464,1422,-1,1422,1464,1456,-1,1422,1456,1424,-1,1424,1456,1454,-1,1424,1454,1436,-1,1436,1454,1452,-1,1436,1452,1434,-1,1434,1452,1450,-1,1434,1450,1432,-1,1432,1450,1448,-1,1432,1448,1430,-1,1430,1448,1446,-1,1430,1446,1428,-1,1428,1446,1444,-1,1428,1444,1426,-1,1426,1444,1442,-1,1426,1442,1439,-1,1439,1442,1440,-1,1459,1465,1460,-1,1460,1465,1466,-1,1460,1466,1461,-1,1461,1466,1467,-1,1461,1467,1462,-1,1462,1467,1468,-1,1462,1468,1463,-1,1463,1468,1469,-1,1463,1469,1464,-1,1464,1469,1470,-1,1464,1470,1456,-1,1456,1470,1457,-1,1471,1465,1458,-1,1458,1465,1459,-1,1438,1441,1427,-1,1427,1441,1443,-1,1427,1443,1429,-1,1429,1443,1445,-1,1429,1445,1431,-1,1431,1445,1447,-1,1431,1447,1433,-1,1433,1447,1449,-1,1433,1449,1435,-1,1435,1449,1451,-1,1435,1451,1437,-1,1437,1451,1453,-1,1437,1453,1425,-1,1425,1453,1455,-1,1425,1455,1423,-1,1423,1455,1457,-1,1423,1457,1421,-1,1421,1457,1470,-1,1421,1470,1419,-1,1419,1470,1469,-1,1419,1469,1417,-1,1417,1469,1468,-1,1417,1468,1415,-1,1415,1468,1467,-1,1415,1467,1413,-1,1413,1467,1466,-1,1413,1466,1411,-1,1411,1466,1465,-1,1411,1465,1410,-1,1410,1465,1471,-1,1472,1473,1474,-1,1474,1473,1475,-1,1475,1473,1476,-1,1475,1476,1477,-1,1477,1476,1478,-1,1477,1478,1479,-1,1479,1478,1480,-1,1479,1480,1481,-1,1481,1480,1482,-1,1481,1482,1483,-1,1483,1482,1484,-1,1483,1484,1485,-1,1485,1484,1486,-1,1485,1486,1487,-1,1486,1488,1487,-1,1487,1488,1489,-1,1490,1491,1492,-1,1492,1491,1493,-1,1492,1493,1494,-1,1494,1493,1495,-1,1494,1495,1496,-1,1496,1495,1497,-1,1496,1497,1498,-1,1498,1497,1499,-1,1498,1499,1500,-1,1500,1499,1501,-1,1500,1501,1488,-1,1488,1501,1489,-1,1502,1491,1503,-1,1503,1491,1490,-1,1504,1505,1503,-1,1503,1505,1502,-1,1504,1506,1505,-1,1505,1506,1507,-1,1507,1506,1508,-1,1507,1508,1509,-1,1509,1508,1510,-1,1509,1510,1511,-1,1511,1510,1512,-1,1511,1512,1513,-1,1513,1512,1514,-1,1513,1514,1515,-1,1515,1514,1516,-1,1515,1516,1517,-1,1517,1516,1518,-1,1517,1518,1519,-1,1518,1520,1519,-1,1519,1520,1521,-1,1472,1522,1473,-1,1473,1522,1523,-1,1473,1523,1476,-1,1476,1523,1524,-1,1476,1524,1478,-1,1478,1524,1525,-1,1478,1525,1480,-1,1480,1525,1526,-1,1480,1526,1482,-1,1482,1526,1527,-1,1482,1527,1484,-1,1484,1527,1528,-1,1484,1528,1486,-1,1486,1528,1520,-1,1486,1520,1488,-1,1488,1520,1518,-1,1488,1518,1500,-1,1500,1518,1516,-1,1500,1516,1498,-1,1498,1516,1514,-1,1498,1514,1496,-1,1496,1514,1512,-1,1496,1512,1494,-1,1494,1512,1510,-1,1494,1510,1492,-1,1492,1510,1508,-1,1492,1508,1490,-1,1490,1508,1506,-1,1490,1506,1503,-1,1503,1506,1504,-1,1523,1529,1524,-1,1524,1529,1530,-1,1524,1530,1525,-1,1525,1530,1531,-1,1525,1531,1526,-1,1526,1531,1532,-1,1526,1532,1527,-1,1527,1532,1533,-1,1527,1533,1528,-1,1528,1533,1534,-1,1528,1534,1520,-1,1520,1534,1521,-1,1535,1529,1522,-1,1522,1529,1523,-1,1502,1505,1491,-1,1491,1505,1507,-1,1491,1507,1493,-1,1493,1507,1509,-1,1493,1509,1495,-1,1495,1509,1511,-1,1495,1511,1497,-1,1497,1511,1513,-1,1497,1513,1499,-1,1499,1513,1515,-1,1499,1515,1501,-1,1501,1515,1517,-1,1501,1517,1489,-1,1489,1517,1519,-1,1489,1519,1487,-1,1487,1519,1521,-1,1487,1521,1485,-1,1485,1521,1534,-1,1485,1534,1483,-1,1483,1534,1533,-1,1483,1533,1481,-1,1481,1533,1532,-1,1481,1532,1479,-1,1479,1532,1531,-1,1479,1531,1477,-1,1477,1531,1530,-1,1477,1530,1475,-1,1475,1530,1529,-1,1475,1529,1474,-1,1474,1529,1535,-1,
        ]
    }
}
Shape{
    appearance Appearance {
        material  Material 	{
            diffuseColor 0.2980392156862745 0.2980392156862745 0.2980392156862745
            specularColor 0.2980392156862745 0.2980392156862745 0.2980392156862745
            ambientIntensity 0.298
            transparency 0.0
            shininess 0.5
        }
    }
    geometry IndexedFaceSet {
        ccw TRUE
        solid FALSE
        coord DEF co Coordinate {
            point [
                2.9724 0.8497 1.6732, 2.9724 -1.3976 1.6732, 2.9724 -1.3976 0.3839, 2.9724 1.3976 1.6732, 2.9724 1.3976 0.3839, 2.9724 1.3976 0.0984, 2.9724 -1.3976 0.0984, 2.6575 -1.3976 0.0984, 2.6575 1.3976 0.0984, 2.6575 -1.3976 0.4521, 2.6575 1.3976 0.4521, 2.6575 -1.3976 0.3839, 2.6575 1.3976 0.3839, -2.6575 -1.3976 0.4521, -2.6575 1.3976 0.4521, -2.6063 -1.3976 0.4521, -2.6063 1.3976 0.4521, -1.9685 -1.3976 0.4521, -1.9685 1.3976 0.4521, -1.5748 -1.3976 0.4521, -1.5748 1.3976 0.4521, -1.1811 -1.3976 0.4521, -1.1811 1.3976 0.4521, -0.7874 -1.3976 0.4521, -0.7874 1.3976 0.4521, 0.0 -1.3976 0.4521, 0.0 1.3976 0.4521, 0.3937 -1.3976 0.4521, 0.3937 1.3976 0.4521, 0.7874 -1.3976 0.4521, 0.7874 1.3976 0.4521, 1.1811 -1.3976 0.4521, 1.1811 1.3976 0.4521, 1.5748 -1.3976 0.4521, 1.5748 1.3976 0.4521, 1.9685 -1.3976 0.4521, 1.9685 1.3976 0.4521, 1.8465 1.3976 0.7677, 1.9685 1.3976 1.6732, 1.4528 1.3976 0.7677, 1.5748 1.3976 1.6732, 1.0591 1.3976 0.7677, 1.1811 1.3976 1.6732, 0.6654 1.3976 0.7677, 0.7874 1.3976 1.6732, 0.2717 1.3976 0.7677, 0.3937 1.3976 1.6732, -0.9094 1.3976 0.7677, -0.7874 1.3976 1.6732, -1.3031 1.3976 0.7677, -1.1811 1.3976 1.6732, -1.6969 1.3976 0.7677, -1.5748 1.3976 1.6732, -2.0906 1.3976 0.7677, -1.9685 1.3976 1.6732, -2.6575 1.3976 0.0984, -2.9724 1.3976 0.0984, -2.9724 1.3976 0.3839, -2.6063 1.3976 1.6732, -2.9724 1.3976 1.6732, -2.6575 1.3976 0.3839, -2.2402 1.3976 0.7677, -2.2402 1.3976 0.6693, -2.0906 1.3976 0.6693, -1.8465 1.3976 0.7677, -1.8465 1.3976 0.6693, -1.6969 1.3976 0.6693, -1.4528 1.3976 0.7677, -1.4528 1.3976 0.6693, -1.3031 1.3976 0.6693, -1.0591 1.3976 0.7677, -1.0591 1.3976 0.6693, -0.9094 1.3976 0.6693, -0.2937 1.3976 1.6732, -0.6654 1.3976 0.7677, -0.5157 1.3976 0.7677, -0.6654 1.3976 0.6693, -0.5157 1.3976 0.6693, -0.2717 1.3976 0.6693, -0.122 1.3976 0.6693, -0.122 1.3976 0.7677, 0.0 1.3976 1.6732, -0.2717 1.3976 0.7677, 0.122 1.3976 0.7677, 0.122 1.3976 0.6693, 0.2717 1.3976 0.6693, 0.5157 1.3976 0.7677, 0.5157 1.3976 0.6693, 0.6654 1.3976 0.6693, 0.9094 1.3976 0.7677, 0.9094 1.3976 0.6693, 1.0591 1.3976 0.6693, 1.3031 1.3976 0.7677, 1.3031 1.3976 0.6693, 1.4528 1.3976 0.6693, 1.6969 1.3976 0.7677, 1.6969 1.3976 0.6693, 1.8465 1.3976 0.6693, 2.2402 1.3976 0.6693, 2.2402 1.3976 0.7677, 2.0906 1.3976 0.6693, 2.0906 1.3976 0.7677, -2.9724 -1.3976 0.0984, -2.6575 -1.3976 0.0984, -2.6575 -1.3976 0.3839, -2.6063 -1.3976 1.6732, -2.9724 -1.3976 1.6732, -2.9724 -1.3976 0.3839, 2.2402 -1.3976 0.6693, 2.0906 -1.3976 0.6693, 2.0906 -1.3976 0.7677, 1.8465 -1.3976 0.6693, 1.6969 -1.3976 0.6693, 1.6969 -1.3976 0.7677, 1.8465 -1.3976 0.7677, 1.9685 -1.3976 1.6732, 1.5748 -1.3976 1.6732, 2.2402 -1.3976 0.7677, 1.3031 -1.3976 0.6693, 1.3031 -1.3976 0.7677, 1.0591 -1.3976 0.6693, 0.9094 -1.3976 0.6693, 0.9094 -1.3976 0.7677, 1.0591 -1.3976 0.7677, 1.1811 -1.3976 1.6732, 0.7874 -1.3976 1.6732, 1.4528 -1.3976 0.6693, 1.4528 -1.3976 0.7677, 0.5157 -1.3976 0.6693, 0.5157 -1.3976 0.7677, 0.2717 -1.3976 0.6693, 0.122 -1.3976 0.6693, 0.122 -1.3976 0.7677, 0.2717 -1.3976 0.7677, 0.3937 -1.3976 1.6732, 0.0 -1.3976 1.6732, 0.6654 -1.3976 0.6693, 0.6654 -1.3976 0.7677, -0.2937 -1.3976 1.6732, -0.122 -1.3976 0.7677, -0.2717 -1.3976 0.7677, -0.5157 -1.3976 0.6693, -0.6654 -1.3976 0.6693, -0.6654 -1.3976 0.7677, -0.7874 -1.3976 1.6732, -0.5157 -1.3976 0.7677, -0.122 -1.3976 0.6693, -0.2717 -1.3976 0.6693, -1.0591 -1.3976 0.6693, -1.0591 -1.3976 0.7677, -0.9094 -1.3976 0.6693, -0.9094 -1.3976 0.7677, -1.1811 -1.3976 1.6732, -1.4528 -1.3976 0.6693, -1.4528 -1.3976 0.7677, -1.6969 -1.3976 0.6693, -1.8465 -1.3976 0.6693, -1.8465 -1.3976 0.7677, -1.6969 -1.3976 0.7677, -1.5748 -1.3976 1.6732, -1.9685 -1.3976 1.6732, -1.3031 -1.3976 0.6693, -1.3031 -1.3976 0.7677, -2.0906 -1.3976 0.7677, -2.2402 -1.3976 0.7677, -2.2402 -1.3976 0.6693, -2.0906 -1.3976 0.6693, -2.9724 0.8497 1.6732
            ]
        }
        coordIndex [
            0,1,2,-1,3,0,4,-1,4,0,2,-1,4,2,5,-1,5,2,6,-1,6,7,5,-1,5,7,8,-1,9,10,11,-1,11,10,12,-1,11,12,7,-1,7,12,8,-1,13,14,15,-1,15,14,16,-1,15,16,17,-1,17,16,18,-1,17,18,19,-1,19,18,20,-1,19,20,21,-1,21,20,22,-1,21,22,23,-1,23,22,24,-1,23,24,25,-1,25,24,26,-1,25,26,27,-1,27,26,28,-1,27,28,29,-1,29,28,30,-1,29,30,31,-1,31,30,32,-1,31,32,33,-1,33,32,34,-1,33,34,35,-1,35,34,36,-1,35,36,9,-1,9,36,10,-1,37,38,36,-1,39,40,34,-1,41,42,32,-1,43,44,30,-1,45,46,28,-1,47,48,24,-1,49,50,22,-1,51,52,20,-1,53,54,18,-1,55,56,57,-1,58,16,59,-1,59,16,14,-1,59,14,57,-1,57,14,60,-1,57,60,55,-1,54,53,58,-1,58,53,61,-1,58,61,16,-1,16,61,62,-1,16,62,18,-1,18,62,63,-1,18,63,53,-1,52,51,54,-1,54,51,64,-1,54,64,18,-1,18,64,65,-1,18,65,20,-1,20,65,66,-1,20,66,51,-1,50,49,52,-1,52,49,67,-1,52,67,20,-1,20,67,68,-1,20,68,22,-1,22,68,69,-1,22,69,49,-1,48,47,50,-1,50,47,70,-1,50,70,22,-1,22,70,71,-1,22,71,24,-1,24,71,72,-1,24,72,47,-1,48,73,74,-1,74,73,75,-1,48,74,24,-1,24,74,76,-1,24,76,77,-1,78,79,26,-1,26,79,80,-1,26,80,81,-1,81,80,82,-1,26,24,78,-1,78,24,77,-1,78,77,82,-1,82,77,75,-1,82,75,81,-1,81,75,73,-1,46,45,81,-1,81,45,83,-1,81,83,26,-1,26,83,84,-1,26,84,28,-1,28,84,85,-1,28,85,45,-1,44,43,46,-1,46,43,86,-1,46,86,28,-1,28,86,87,-1,28,87,30,-1,30,87,88,-1,30,88,43,-1,42,41,44,-1,44,41,89,-1,44,89,30,-1,30,89,90,-1,30,90,32,-1,32,90,91,-1,32,91,41,-1,40,39,42,-1,42,39,92,-1,42,92,32,-1,32,92,93,-1,32,93,34,-1,34,93,94,-1,34,94,39,-1,38,37,40,-1,40,37,95,-1,40,95,34,-1,34,95,96,-1,34,96,36,-1,36,96,97,-1,36,97,37,-1,10,98,99,-1,98,10,100,-1,100,10,36,-1,100,36,101,-1,101,36,38,-1,101,38,99,-1,99,38,3,-1,99,3,10,-1,10,3,4,-1,10,4,12,-1,12,4,5,-1,12,5,8,-1,56,55,102,-1,102,55,103,-1,14,13,60,-1,60,13,104,-1,60,104,55,-1,55,104,103,-1,15,105,13,-1,13,105,106,-1,13,106,107,-1,102,103,107,-1,107,103,104,-1,107,104,13,-1,7,6,11,-1,11,6,2,-1,11,2,9,-1,108,109,35,-1,35,109,110,-1,35,111,33,-1,33,111,112,-1,33,112,113,-1,114,115,113,-1,113,115,116,-1,113,116,33,-1,35,9,108,-1,108,9,2,-1,108,2,117,-1,117,2,1,-1,117,1,110,-1,110,1,115,-1,110,115,35,-1,35,115,114,-1,35,114,111,-1,31,118,119,-1,31,120,29,-1,29,120,121,-1,29,121,122,-1,123,124,122,-1,122,124,125,-1,122,125,29,-1,118,31,126,-1,126,31,33,-1,126,33,127,-1,127,33,116,-1,127,116,119,-1,119,116,124,-1,119,124,31,-1,31,124,123,-1,31,123,120,-1,27,128,129,-1,27,130,25,-1,25,130,131,-1,25,131,132,-1,133,134,132,-1,132,134,135,-1,132,135,25,-1,128,27,136,-1,136,27,29,-1,136,29,137,-1,137,29,125,-1,137,125,129,-1,129,125,134,-1,129,134,27,-1,27,134,133,-1,27,133,130,-1,135,138,139,-1,139,138,140,-1,141,142,23,-1,23,142,143,-1,23,143,144,-1,144,143,145,-1,135,139,25,-1,25,139,146,-1,25,146,147,-1,138,144,140,-1,140,144,145,-1,140,145,147,-1,147,145,141,-1,147,141,25,-1,25,141,23,-1,21,148,149,-1,148,21,150,-1,150,21,23,-1,150,23,151,-1,151,23,144,-1,151,144,149,-1,149,144,152,-1,149,152,21,-1,19,153,154,-1,19,155,17,-1,17,155,156,-1,17,156,157,-1,158,159,157,-1,157,159,160,-1,157,160,17,-1,153,19,161,-1,161,19,21,-1,161,21,162,-1,162,21,152,-1,162,152,154,-1,154,152,159,-1,154,159,19,-1,19,159,158,-1,19,158,155,-1,163,160,164,-1,164,160,105,-1,164,105,165,-1,165,105,15,-1,165,15,166,-1,166,15,17,-1,166,17,163,-1,163,17,160,-1,167,59,57,-1,106,167,107,-1,107,167,57,-1,107,57,102,-1,102,57,56,-1,3,59,1,-1,1,59,106,-1,
        ]
    }
}