ISO-10303-21;
HEADER;
FILE_DESCRIPTION (( 'STEP AP214' ),
    '1' );
FILE_NAME ('70x70 back seal.STEP',
    '2026-07-13T19:27:29',
    ( '' ),
    ( '' ),
    'SwSTEP 2.0',
    'SolidWorks 2025',
    '' );
FILE_SCHEMA (( 'AUTOMOTIVE_DESIGN' ));
ENDSEC;

DATA;
#1 = ORIENTED_EDGE ( 'NONE', *, *, #1166, .F. ) ;
#2 = CARTESIAN_POINT ( 'NONE',  ( 8.215825695593991895, 63.60560287583458461, 0.000000000000000000 ) ) ;
#3 = LINE ( 'NONE', #726, #9 ) ;
#4 = EDGE_CURVE ( 'NONE', #315, #213, #56, .T. ) ;
#5 = EDGE_LOOP ( 'NONE', ( #912, #307, #1064, #52 ) ) ;
#6 = CARTESIAN_POINT ( 'NONE',  ( 58.25000000000001421, 4.218721658814814646, 2.500000000000000000 ) ) ;
#7 = CARTESIAN_POINT ( 'NONE',  ( 58.25000000000001421, 4.000000000000003553, 0.000000000000000000 ) ) ;
#8 = CIRCLE ( 'NONE', #480, 3.000000000000002665 ) ;
#9 = VECTOR ( 'NONE', #1079, 1000.000000000000114 ) ;
#10 = CARTESIAN_POINT ( 'NONE',  ( 65.50000000000004263, 58.75000000000000711, -7.530789258985404998E-17 ) ) ;
#11 = VECTOR ( 'NONE', #1101, 1000.000000000000000 ) ;
#12 = AXIS2_PLACEMENT_3D ( 'NONE', #1007, #539, #732 ) ;
#13 = ORIENTED_EDGE ( 'NONE', *, *, #598, .F. ) ;
#14 = CARTESIAN_POINT ( 'NONE',  ( 10.75000000000001066, 4.000000000000005329, 0.000000000000000000 ) ) ;
#15 = CARTESIAN_POINT ( 'NONE',  ( 58.25000000000001421, 65.00000000000000000, 0.000000000000000000 ) ) ;
#16 = LINE ( 'NONE', #853, #825 ) ;
#17 = ORIENTED_EDGE ( 'NONE', *, *, #1118, .T. ) ;
#18 = DIRECTION ( 'NONE',  ( 1.000000000000000000, 0.000000000000000000, 0.000000000000000000 ) ) ;
#19 = FACE_OUTER_BOUND ( 'NONE', #176, .T. ) ;
#20 = EDGE_CURVE ( 'NONE', #398, #872, #676, .T. ) ;
#21 = ORIENTED_EDGE ( 'NONE', *, *, #545, .F. ) ;
#22 = ORIENTED_EDGE ( 'NONE', *, *, #935, .T. ) ;
#23 = LINE ( 'NONE', #817, #947 ) ;
#24 = EDGE_CURVE ( 'NONE', #130, #820, #407, .T. ) ;
#25 = CIRCLE ( 'NONE', #616, 2.999999999999970690 ) ;
#26 = CIRCLE ( 'NONE', #312, 7.718721658814805764 ) ;
#27 = AXIS2_PLACEMENT_3D ( 'NONE', #619, #991, #527 ) ;
#28 = ORIENTED_EDGE ( 'NONE', *, *, #935, .F. ) ;
#29 = CARTESIAN_POINT ( 'NONE',  ( 10.75000000000001066, 62.00000000000000000, 2.500000000000000000 ) ) ;
#30 = ORIENTED_EDGE ( 'NONE', *, *, #24, .T. ) ;
#31 = EDGE_CURVE ( 'NONE', #136, #1032, #585, .T. ) ;
#32 = VERTEX_POINT ( 'NONE', #139 ) ;
#33 =( LENGTH_UNIT ( ) NAMED_UNIT ( * ) SI_UNIT ( .MILLI., .METRE. ) );
#34 = VERTEX_POINT ( 'NONE', #600 ) ;
#35 = DIRECTION ( 'NONE',  ( 0.000000000000000000, 0.000000000000000000, 1.000000000000000000 ) ) ;
#36 = DIRECTION ( 'NONE',  ( -0.08715574274765837404, 3.779777825263986243E-17, -0.9961946980917455452 ) ) ;
#37 = ORIENTED_EDGE ( 'NONE', *, *, #1055, .F. ) ;
#38 =( NAMED_UNIT ( * ) PLANE_ANGLE_UNIT ( ) SI_UNIT ( $, .RADIAN. ) );
#39 = EDGE_CURVE ( 'NONE', #1044, #582, #416, .T. ) ;
#40 = ORIENTED_EDGE ( 'NONE', *, *, #299, .F. ) ;
#41 = DIRECTION ( 'NONE',  ( 0.000000000000000000, 0.000000000000000000, 1.000000000000000000 ) ) ;
#42 = CARTESIAN_POINT ( 'NONE',  ( 58.25000000000001421, 66.00000000000000000, 0.000000000000000000 ) ) ;
#43 = ORIENTED_EDGE ( 'NONE', *, *, #454, .F. ) ;
#44 = AXIS2_PLACEMENT_3D ( 'NONE', #287, #934, #643 ) ;
#45 = VECTOR ( 'NONE', #472, 1000.000000000000114 ) ;
#46 = CIRCLE ( 'NONE', #203, 3.218721658814811537 ) ;
#47 = ORIENTED_EDGE ( 'NONE', *, *, #667, .T. ) ;
#48 = CARTESIAN_POINT ( 'NONE',  ( 61.50000000000004263, 11.25000000000000178, 0.000000000000000000 ) ) ;
#49 = CONICAL_SURFACE ( 'NONE', #1116, 7.500000000000007105, 0.08726646259971666819 ) ;
#50 = LINE ( 'NONE', #875, #906 ) ;
#51 = DIRECTION ( 'NONE',  ( 1.000000000000000000, 0.000000000000000000, 0.000000000000000000 ) ) ;
#52 = ORIENTED_EDGE ( 'NONE', *, *, #94, .T. ) ;
#53 = CARTESIAN_POINT ( 'NONE',  ( 61.50000000000004263, 11.25000000000000178, 0.000000000000000000 ) ) ;
#54 = DIRECTION ( 'NONE',  ( -0.07362261458417876381, -0.04664583706704675259, -0.9961946980917455452 ) ) ;
#55 = ADVANCED_FACE ( 'NONE', ( #343 ), #1168, .T. ) ;
#56 = LINE ( 'NONE', #502, #465 ) ;
#57 = VERTEX_POINT ( 'NONE', #236 ) ;
#58 = LINE ( 'NONE', #789, #928 ) ;
#59 = FACE_BOUND ( 'NONE', #961, .T. ) ;
#60 = DIRECTION ( 'NONE',  ( -0.07270083598423807136, -0.04806986520772572880, -0.9961946980917455452 ) ) ;
#61 = DIRECTION ( 'NONE',  ( 0.000000000000000000, 0.000000000000000000, 1.000000000000000000 ) ) ;
#62 = ORIENTED_EDGE ( 'NONE', *, *, #795, .F. ) ;
#63 = DIRECTION ( 'NONE',  ( 0.000000000000000000, 0.000000000000000000, 1.000000000000000000 ) ) ;
#64 = STYLED_ITEM ( 'NONE', ( #949 ), #1144 ) ;
#65 = VECTOR ( 'NONE', #149, 1000.000000000000000 ) ;
#66 = CARTESIAN_POINT ( 'NONE',  ( 58.25000000000001421, 65.00000000000000000, 0.000000000000000000 ) ) ;
#67 = CONICAL_SURFACE ( 'NONE', #481, 3.000000000000002665, 0.08726646259971666819 ) ;
#68 = ORIENTED_EDGE ( 'NONE', *, *, #39, .F. ) ;
#69 = CARTESIAN_POINT ( 'NONE',  ( 0.000000000000000000, 0.000000000000000000, 0.000000000000000000 ) ) ;
#70 = EDGE_CURVE ( 'NONE', #484, #779, #881, .T. ) ;
#71 = ORIENTED_EDGE ( 'NONE', *, *, #355, .T. ) ;
#72 = CARTESIAN_POINT ( 'NONE',  ( 1.157291734758357560, 1.657291734758380874, 0.000000000000000000 ) ) ;
#73 = CARTESIAN_POINT ( 'NONE',  ( 58.25000000000001421, 66.00000000000000000, 0.000000000000000000 ) ) ;
#74 = DIRECTION ( 'NONE',  ( -0.000000000000000000, -0.000000000000000000, -1.000000000000000000 ) ) ;
#75 = PRODUCT_CONTEXT ( 'NONE', #819, 'mechanical' ) ;
#76 = ORIENTED_EDGE ( 'NONE', *, *, #110, .T. ) ;
#77 = CARTESIAN_POINT ( 'NONE',  ( 61.50000000000004263, 58.75000000000000711, 0.000000000000000000 ) ) ;
#78 = EDGE_CURVE ( 'NONE', #1070, #385, #984, .T. ) ;
#79 = DIRECTION ( 'NONE',  ( 1.000000000000000000, 0.000000000000000000, 0.000000000000000000 ) ) ;
#80 = LINE ( 'NONE', #440, #669 ) ;
#81 = ORIENTED_EDGE ( 'NONE', *, *, #158, .T. ) ;
#82 = DIRECTION ( 'NONE',  ( 0.000000000000000000, 0.000000000000000000, 1.000000000000000000 ) ) ;
#83 = DIRECTION ( 'NONE',  ( -0.000000000000000000, 0.08715574274765837404, -0.9961946980917455452 ) ) ;
#84 = AXIS2_PLACEMENT_3D ( 'NONE', #470, #381, #562 ) ;
#85 = VECTOR ( 'NONE', #638, 1000.000000000000114 ) ;
#86 = EDGE_CURVE ( 'NONE', #663, #576, #786, .T. ) ;
#87 = AXIS2_PLACEMENT_3D ( 'NONE', #435, #99, #636 ) ;
#88 = VECTOR ( 'NONE', #54, 1000.000000000000114 ) ;
#89 = AXIS2_PLACEMENT_3D ( 'NONE', #323, #674, #762 ) ;
#90 = DIRECTION ( 'NONE',  ( 0.000000000000000000, 0.000000000000000000, 1.000000000000000000 ) ) ;
#91 = VERTEX_POINT ( 'NONE', #979 ) ;
#92 = CARTESIAN_POINT ( 'NONE',  ( 1.157291734758357560, 1.657291734758380874, 2.500000000000000000 ) ) ;
#93 = DIRECTION ( 'NONE',  ( -0.04664583706704628768, 0.07362261458417906912, -0.9961946980917455452 ) ) ;
#94 = EDGE_CURVE ( 'NONE', #34, #975, #159, .T. ) ;
#95 = LINE ( 'NONE', #453, #11 ) ;
#96 = ORIENTED_EDGE ( 'NONE', *, *, #530, .T. ) ;
#97 = DIRECTION ( 'NONE',  ( -3.638152272470271084E-17, -0.9961946980917455452, 0.08715574274765836016 ) ) ;
#98 = CARTESIAN_POINT ( 'NONE',  ( 3.500000000000033307, 58.75000000000000711, 0.000000000000000000 ) ) ;
#99 = DIRECTION ( 'NONE',  ( 0.000000000000000000, 0.000000000000000000, 1.000000000000000000 ) ) ;
#100 = ORIENTED_EDGE ( 'NONE', *, *, #239, .T. ) ;
#101 = LINE ( 'NONE', #827, #689 ) ;
#102 = DIRECTION ( 'NONE',  ( 1.000000000000000000, 0.000000000000000000, 0.000000000000000000 ) ) ;
#103 = VECTOR ( 'NONE', #316, 1000.000000000000114 ) ;
#104 = AXIS2_PLACEMENT_3D ( 'NONE', #578, #148, #406 ) ;
#105 = CARTESIAN_POINT ( 'NONE',  ( 60.96893390693454506, 63.72266291730138477, 2.500000000000000000 ) ) ;
#106 = CONICAL_SURFACE ( 'NONE', #555, 3.000000000000000888, 0.08726646259971666819 ) ;
#107 = CIRCLE ( 'NONE', #843, 4.000000000000003553 ) ;
#108 = ORIENTED_EDGE ( 'NONE', *, *, #304, .T. ) ;
#109 = DIRECTION ( 'NONE',  ( 1.000000000000000000, 0.000000000000000000, 0.000000000000000000 ) ) ;
#110 = EDGE_CURVE ( 'NONE', #322, #924, #905, .T. ) ;
#111 = DIRECTION ( 'NONE',  ( 1.000000000000000000, 0.000000000000000000, 0.000000000000000000 ) ) ;
#112 = CARTESIAN_POINT ( 'NONE',  ( 64.71872165881485728, 58.75000000000000711, 2.500000000000000000 ) ) ;
#113 = EDGE_LOOP ( 'NONE', ( #127, #13, #830, #871 ) ) ;
#114 = VERTEX_POINT ( 'NONE', #546 ) ;
#115 = EDGE_CURVE ( 'NONE', #678, #339, #915, .T. ) ;
#116 = LINE ( 'NONE', #1087, #201 ) ;
#117 = EDGE_LOOP ( 'NONE', ( #798, #21, #271, #513 ) ) ;
#118 = CARTESIAN_POINT ( 'NONE',  ( 65.50000000000004263, 11.25000000000000178, 0.000000000000000000 ) ) ;
#119 = EDGE_LOOP ( 'NONE', ( #672, #508, #660, #160 ) ) ;
#120 = DIRECTION ( 'NONE',  ( -0.000000000000000000, -0.000000000000000000, -1.000000000000000000 ) ) ;
#121 = ADVANCED_FACE ( 'NONE', ( #996 ), #187, .T. ) ;
#122 = AXIS2_PLACEMENT_3D ( 'NONE', #345, #63, #615 ) ;
#123 = AXIS2_PLACEMENT_3D ( 'NONE', #356, #90, #803 ) ;
#124 = ORIENTED_EDGE ( 'NONE', *, *, #115, .F. ) ;
#125 = DIRECTION ( 'NONE',  ( 1.000000000000000000, 0.000000000000000000, 0.000000000000000000 ) ) ;
#126 = AXIS2_PLACEMENT_3D ( 'NONE', #245, #973, #510 ) ;
#127 = ORIENTED_EDGE ( 'NONE', *, *, #438, .F. ) ;
#128 = DIRECTION ( 'NONE',  ( -0.000000000000000000, -0.000000000000000000, -1.000000000000000000 ) ) ;
#129 = EDGE_CURVE ( 'NONE', #403, #780, #592, .T. ) ;
#130 = VERTEX_POINT ( 'NONE', #174 ) ;
#131 = VERTEX_POINT ( 'NONE', #733 ) ;
#132 = DIRECTION ( 'NONE',  ( 1.000000000000000000, 0.000000000000000000, 0.000000000000000000 ) ) ;
#133 = CARTESIAN_POINT ( 'NONE',  ( 7.500000000000000888, 11.25000000000000178, 2.500000000000000000 ) ) ;
#134 = VERTEX_POINT ( 'NONE', #903 ) ;
#135 = CARTESIAN_POINT ( 'NONE',  ( 7.500000000000033751, 58.75000000000000711, 0.000000000000000000 ) ) ;
#136 = VERTEX_POINT ( 'NONE', #1175 ) ;
#137 = DIRECTION ( 'NONE',  ( 0.08715574274765836016, 0.000000000000000000, -0.9961946980917455452 ) ) ;
#138 = DIRECTION ( 'NONE',  ( 1.000000000000000000, 0.000000000000000000, 0.000000000000000000 ) ) ;
#139 = CARTESIAN_POINT ( 'NONE',  ( 10.75000000000000888, 66.00000000000000000, 0.000000000000000000 ) ) ;
#140 = CONICAL_SURFACE ( 'NONE', #595, 4.000000000000003553, 0.08726646259971666819 ) ;
#141 = AXIS2_PLACEMENT_3D ( 'NONE', #647, #543, #808 ) ;
#142 = AXIS2_PLACEMENT_3D ( 'NONE', #1002, #74, #1009 ) ;
#143 = EDGE_LOOP ( 'NONE', ( #1005, #395, #170, #761 ) ) ;
#144 = DIRECTION ( 'NONE',  ( -0.000000000000000000, -0.000000000000000000, -1.000000000000000000 ) ) ;
#145 = ADVANCED_FACE ( 'NONE', ( #1014 ), #1095, .F. ) ;
#146 = AXIS2_PLACEMENT_3D ( 'NONE', #346, #977, #790 ) ;
#147 = AXIS2_PLACEMENT_3D ( 'NONE', #413, #144, #504 ) ;
#148 = DIRECTION ( 'NONE',  ( 0.000000000000000000, 0.000000000000000000, 1.000000000000000000 ) ) ;
#149 = DIRECTION ( 'NONE',  ( 1.826024711554533913E-17, -1.000000000000000000, 0.000000000000000000 ) ) ;
#150 = ORIENTED_EDGE ( 'NONE', *, *, #603, .F. ) ;
#151 = CARTESIAN_POINT ( 'NONE',  ( 58.25000000000001421, 62.00000000000000000, 0.000000000000000000 ) ) ;
#152 = EDGE_CURVE ( 'NONE', #780, #547, #46, .T. ) ;
#153 = DIRECTION ( 'NONE',  ( 0.000000000000000000, 0.000000000000000000, 1.000000000000000000 ) ) ;
#154 = ORIENTED_EDGE ( 'NONE', *, *, #446, .T. ) ;
#155 = ORIENTED_EDGE ( 'NONE', *, *, #880, .F. ) ;
#156 = DIRECTION ( 'NONE',  ( 0.000000000000000000, 0.000000000000000000, 1.000000000000000000 ) ) ;
#157 = DIRECTION ( 'NONE',  ( 0.000000000000000000, 0.000000000000000000, 1.000000000000000000 ) ) ;
#158 = EDGE_CURVE ( 'NONE', #826, #1034, #886, .T. ) ;
#159 = LINE ( 'NONE', #516, #805 ) ;
#160 = ORIENTED_EDGE ( 'NONE', *, *, #618, .T. ) ;
#161 = DIRECTION ( 'NONE',  ( 1.000000000000000000, 0.000000000000000000, 0.000000000000000000 ) ) ;
#162 = AXIS2_PLACEMENT_3D ( 'NONE', #14, #97, #456 ) ;
#163 = CIRCLE ( 'NONE', #352, 7.500000000000000000 ) ;
#164 = AXIS2_PLACEMENT_3D ( 'NONE', #777, #687, #196 ) ;
#165 = DIRECTION ( 'NONE',  ( -1.000000000000000000, 0.000000000000000000, 0.000000000000000000 ) ) ;
#166 = AXIS2_PLACEMENT_3D ( 'NONE', #377, #544, #736 ) ;
#167 = ADVANCED_FACE ( 'NONE', ( #192 ), #533, .T. ) ;
#168 = CARTESIAN_POINT ( 'NONE',  ( 61.50000000000004263, 58.75000000000000711, 0.000000000000000000 ) ) ;
#169 = APPLICATION_PROTOCOL_DEFINITION ( 'draft international standard', 'automotive_design', 1998, #1124 ) ;
#170 = ORIENTED_EDGE ( 'NONE', *, *, #1145, .F. ) ;
#171 = DIRECTION ( 'NONE',  ( 1.000000000000000000, 0.000000000000000000, 0.000000000000000000 ) ) ;
#172 = DIRECTION ( 'NONE',  ( 0.000000000000000000, 0.000000000000000000, 1.000000000000000000 ) ) ;
#173 = UNCERTAINTY_MEASURE_WITH_UNIT (LENGTH_MEASURE( 1.000000000000000082E-05 ), #577, 'distance_accuracy_value', 'NONE');
#174 = CARTESIAN_POINT ( 'NONE',  ( 5.894397124165426938, 8.715825695594013212, 0.000000000000000000 ) ) ;
#175 = EDGE_CURVE ( 'NONE', #576, #528, #1060, .T. ) ;
#176 = EDGE_LOOP ( 'NONE', ( #907, #227, #931, #374 ) ) ;
#177 = DIRECTION ( 'NONE',  ( 0.000000000000000000, 0.000000000000000000, 1.000000000000000000 ) ) ;
#178 = EDGE_CURVE ( 'NONE', #606, #838, #1088, .T. ) ;
#179 = DIRECTION ( 'NONE',  ( 0.000000000000000000, 0.000000000000000000, 1.000000000000000000 ) ) ;
#180 = DIRECTION ( 'NONE',  ( 0.000000000000000000, 0.000000000000000000, 1.000000000000000000 ) ) ;
#181 = ORIENTED_EDGE ( 'NONE', *, *, #175, .F. ) ;
#182 = CARTESIAN_POINT ( 'NONE',  ( 58.25000000000001421, 66.00000000000000000, 0.000000000000000000 ) ) ;
#183 = EDGE_CURVE ( 'NONE', #993, #213, #784, .T. ) ;
#184 = DIRECTION ( 'NONE',  ( -0.9961946980917455452, 0.000000000000000000, 0.08715574274765836016 ) ) ;
#185 = AXIS2_PLACEMENT_3D ( 'NONE', #852, #41, #404 ) ;
#186 = AXIS2_PLACEMENT_3D ( 'NONE', #29, #559, #125 ) ;
#187 = CONICAL_SURFACE ( 'NONE', #730, 7.499999999999995559, 0.08726646259971666819 ) ;
#188 = DIRECTION ( 'NONE',  ( 1.000000000000000000, 0.000000000000000000, 0.000000000000000000 ) ) ;
#189 = ORIENTED_EDGE ( 'NONE', *, *, #626, .T. ) ;
#190 = CARTESIAN_POINT ( 'NONE',  ( 63.10560287583461303, 61.28417430440602232, -2.635776240644891811E-16 ) ) ;
#191 = CARTESIAN_POINT ( 'NONE',  ( 58.25000000000001421, 65.21872165881481465, 2.500000000000000000 ) ) ;
#192 = FACE_OUTER_BOUND ( 'NONE', #113, .T. ) ;
#193 = ORIENTED_EDGE ( 'NONE', *, *, #603, .T. ) ;
#194 = LINE ( 'NONE', #367, #904 ) ;
#195 = CARTESIAN_POINT ( 'NONE',  ( 65.50000000000004263, 58.75000000000000711, 0.000000000000000000 ) ) ;
#196 = DIRECTION ( 'NONE',  ( 1.000000000000000000, 0.000000000000000000, 0.000000000000000000 ) ) ;
#197 = EDGE_CURVE ( 'NONE', #344, #246, #95, .T. ) ;
#198 = ORIENTED_EDGE ( 'NONE', *, *, #325, .F. ) ;
#199 = DIRECTION ( 'NONE',  ( 0.000000000000000000, 0.000000000000000000, 1.000000000000000000 ) ) ;
#200 = FACE_OUTER_BOUND ( 'NONE', #143, .T. ) ;
#201 = VECTOR ( 'NONE', #306, 1000.000000000000114 ) ;
#202 = VECTOR ( 'NONE', #655, 1000.000000000000114 ) ;
#203 = AXIS2_PLACEMENT_3D ( 'NONE', #279, #361, #448 ) ;
#204 = DIRECTION ( 'NONE',  ( 1.000000000000000000, 0.000000000000000000, 0.000000000000000000 ) ) ;
#205 = CONICAL_SURFACE ( 'NONE', #126, 7.500000000000007105, 0.08726646259971666819 ) ;
#206 = EDGE_CURVE ( 'NONE', #710, #292, #284, .T. ) ;
#207 = CIRCLE ( 'NONE', #44, 3.781278341185197345 ) ;
#208 = ORIENTED_EDGE ( 'NONE', *, *, #1091, .F. ) ;
#209 = DIRECTION ( 'NONE',  ( 1.000000000000000000, 0.000000000000000000, 0.000000000000000000 ) ) ;
#210 = ORIENTED_EDGE ( 'NONE', *, *, #756, .T. ) ;
#211 = LINE ( 'NONE', #369, #831 ) ;
#212 = EDGE_LOOP ( 'NONE', ( #568, #1085, #225, #100 ) ) ;
#213 = VERTEX_POINT ( 'NONE', #706 ) ;
#214 = FACE_OUTER_BOUND ( 'NONE', #1010, .T. ) ;
#215 = EDGE_CURVE ( 'NONE', #339, #322, #3, .T. ) ;
#216 = VERTEX_POINT ( 'NONE', #458 ) ;
#217 = FILL_AREA_STYLE_COLOUR ( '', #571 ) ;
#218 = ORIENTED_EDGE ( 'NONE', *, *, #360, .F. ) ;
#219 = CARTESIAN_POINT ( 'NONE',  ( 58.25000000000001421, 8.000000000000005329, 0.000000000000000000 ) ) ;
#220 = EDGE_CURVE ( 'NONE', #246, #563, #823, .T. ) ;
#221 = CIRCLE ( 'NONE', #707, 7.718721658814805764 ) ;
#222 = ORIENTED_EDGE ( 'NONE', *, *, #999, .T. ) ;
#223 = DIRECTION ( 'NONE',  ( -0.000000000000000000, -0.000000000000000000, -1.000000000000000000 ) ) ;
#224 = VECTOR ( 'NONE', #599, 1000.000000000000114 ) ;
#225 = ORIENTED_EDGE ( 'NONE', *, *, #152, .T. ) ;
#226 = DIRECTION ( 'NONE',  ( 1.000000000000000000, 0.000000000000000000, 0.000000000000000000 ) ) ;
#227 = ORIENTED_EDGE ( 'NONE', *, *, #220, .F. ) ;
#228 = CARTESIAN_POINT ( 'NONE',  ( 10.75000000000000888, 65.00000000000000000, 0.000000000000000000 ) ) ;
#229 = ORIENTED_EDGE ( 'NONE', *, *, #545, .T. ) ;
#230 = DIRECTION ( 'NONE',  ( 0.000000000000000000, 0.000000000000000000, 1.000000000000000000 ) ) ;
#231 = ADVANCED_FACE ( 'NONE', ( #265 ), #897, .T. ) ;
#232 = ORIENTED_EDGE ( 'NONE', *, *, #1083, .F. ) ;
#233 = ORIENTED_EDGE ( 'NONE', *, *, #887, .F. ) ;
#234 = PRESENTATION_STYLE_ASSIGNMENT (( #302 ) ) ;
#235 = CARTESIAN_POINT ( 'NONE',  ( 61.40414782579708941, 5.914474314103082442, 2.500000000000000000 ) ) ;
#236 = CARTESIAN_POINT ( 'NONE',  ( 60.78417430440602942, 63.60560287583459882, 0.000000000000000000 ) ) ;
#237 = MECHANICAL_DESIGN_GEOMETRIC_PRESENTATION_REPRESENTATION (  '', ( #244 ), #1026 ) ;
#238 = SHAPE_DEFINITION_REPRESENTATION ( #854, #1144 ) ;
#239 = EDGE_CURVE ( 'NONE', #547, #114, #80, .T. ) ;
#240 = VECTOR ( 'NONE', #51, 1000.000000000000000 ) ;
#241 = ORIENTED_EDGE ( 'NONE', *, *, #1091, .T. ) ;
#242 = LINE ( 'NONE', #253, #264 ) ;
#243 = AXIS2_PLACEMENT_3D ( 'NONE', #263, #617, #79 ) ;
#244 = STYLED_ITEM ( 'NONE', ( #234 ), #682 ) ;
#245 = CARTESIAN_POINT ( 'NONE',  ( 67.11961006542105679, 2.380389934578922340, 0.000000000000000000 ) ) ;
#246 = VERTEX_POINT ( 'NONE', #1084 ) ;
#247 = ORIENTED_EDGE ( 'NONE', *, *, #916, .T. ) ;
#248 = CARTESIAN_POINT ( 'NONE',  ( 8.215825695593997224, 6.394397124165426938, 0.000000000000000000 ) ) ;
#249 = EDGE_CURVE ( 'NONE', #422, #838, #163, .T. ) ;
#250 = PLANE ( 'NONE',  #847 ) ;
#251 = ORIENTED_EDGE ( 'NONE', *, *, #1118, .F. ) ;
#252 = ORIENTED_EDGE ( 'NONE', *, *, #1008, .T. ) ;
#253 = CARTESIAN_POINT ( 'NONE',  ( 5.293840603394222022, 7.913405820785534672, 0.000000000000000000 ) ) ;
#254 = FACE_OUTER_BOUND ( 'NONE', #330, .T. ) ;
#255 = EDGE_CURVE ( 'NONE', #941, #322, #16, .T. ) ;
#256 = UNCERTAINTY_MEASURE_WITH_UNIT (LENGTH_MEASURE( 1.000000000000000082E-05 ), #33, 'distance_accuracy_value', 'NONE');
#257 = CARTESIAN_POINT ( 'NONE',  ( 10.75000000000001066, 4.000000000000005329, 0.000000000000000000 ) ) ;
#258 = VERTEX_POINT ( 'NONE', #930 ) ;
#259 = DIRECTION ( 'NONE',  ( 1.000000000000000000, 0.000000000000000000, 0.000000000000000000 ) ) ;
#260 = CIRCLE ( 'NONE', #122, 4.000000000000003553 ) ;
#261 = AXIS2_PLACEMENT_3D ( 'NONE', #818, #180, #188 ) ;
#262 = VECTOR ( 'NONE', #165, 1000.000000000000000 ) ;
#263 = CARTESIAN_POINT ( 'NONE',  ( 7.500000000000000888, 11.25000000000000178, 0.000000000000000000 ) ) ;
#264 = VECTOR ( 'NONE', #989, 1000.000000000000114 ) ;
#265 = FACE_OUTER_BOUND ( 'NONE', #863, .T. ) ;
#266 = ORIENTED_EDGE ( 'NONE', *, *, #31, .T. ) ;
#267 = CARTESIAN_POINT ( 'NONE',  ( 61.50000000000004263, 11.25000000000000178, 0.000000000000000000 ) ) ;
#268 = DIRECTION ( 'NONE',  ( 0.000000000000000000, 0.000000000000000000, 1.000000000000000000 ) ) ;
#269 = CARTESIAN_POINT ( 'NONE',  ( 1.157291734758350676, 68.34270826524162601, 0.000000000000000000 ) ) ;
#270 = EDGE_CURVE ( 'NONE', #34, #1152, #612, .T. ) ;
#271 = ORIENTED_EDGE ( 'NONE', *, *, #530, .F. ) ;
#272 = DIRECTION ( 'NONE',  ( 1.000000000000000000, 0.000000000000000000, 0.000000000000000000 ) ) ;
#273 = DIRECTION ( 'NONE',  ( -0.000000000000000000, -0.08715574274765837404, -0.9961946980917455452 ) ) ;
#274 = CARTESIAN_POINT ( 'NONE',  ( 5.293840603394230904, 62.08659417921447954, 0.000000000000000000 ) ) ;
#275 = ORIENTED_EDGE ( 'NONE', *, *, #420, .T. ) ;
#276 = DIRECTION ( 'NONE',  ( -0.000000000000000000, -0.000000000000000000, -1.000000000000000000 ) ) ;
#277 = CARTESIAN_POINT ( 'NONE',  ( 5.894397124165434931, 61.28417430440600810, 7.530789258985404998E-17 ) ) ;
#278 = AXIS2_PLACEMENT_3D ( 'NONE', #892, #354, #811 ) ;
#279 = CARTESIAN_POINT ( 'NONE',  ( 7.500000000000033751, 58.75000000000000711, 2.500000000000000000 ) ) ;
#280 = ORIENTED_EDGE ( 'NONE', *, *, #249, .T. ) ;
#281 = LINE ( 'NONE', #190, #85 ) ;
#282 = LINE ( 'NONE', #2, #745 ) ;
#283 = ADVANCED_FACE ( 'NONE', ( #497, #506 ), #491, .T. ) ;
#284 = LINE ( 'NONE', #1161, #537 ) ;
#285 = ORIENTED_EDGE ( 'NONE', *, *, #1066, .F. ) ;
#286 = DIRECTION ( 'NONE',  ( 0.000000000000000000, -0.08715574274765836016, 0.9961946980917455452 ) ) ;
#287 = CARTESIAN_POINT ( 'NONE',  ( 58.25000000000001421, 62.00000000000000000, 2.500000000000000000 ) ) ;
#288 = EDGE_CURVE ( 'NONE', #826, #779, #329, .T. ) ;
#289 = LINE ( 'NONE', #486, #869 ) ;
#290 = ORIENTED_EDGE ( 'NONE', *, *, #78, .F. ) ;
#291 = FACE_OUTER_BOUND ( 'NONE', #117, .T. ) ;
#292 = VERTEX_POINT ( 'NONE', #42 ) ;
#293 = DIRECTION ( 'NONE',  ( 0.08715574274765836016, 0.000000000000000000, -0.9961946980917455452 ) ) ;
#294 = CIRCLE ( 'NONE', #298, 7.499999999999992895 ) ;
#295 = VECTOR ( 'NONE', #813, 1000.000000000000000 ) ;
#296 = PRODUCT_DEFINITION ( 'General', '', #650, #714 ) ;
#297 = AXIS2_PLACEMENT_3D ( 'NONE', #445, #268, #521 ) ;
#298 = AXIS2_PLACEMENT_3D ( 'NONE', #1012, #549, #111 ) ;
#299 = EDGE_CURVE ( 'NONE', #1152, #734, #1021, .T. ) ;
#300 = ORIENTED_EDGE ( 'NONE', *, *, #505, .T. ) ;
#301 = ORIENTED_EDGE ( 'NONE', *, *, #653, .T. ) ;
#302 = SURFACE_STYLE_USAGE ( .BOTH. , #666 ) ;
#303 = ORIENTED_EDGE ( 'NONE', *, *, #152, .F. ) ;
#304 = EDGE_CURVE ( 'NONE', #728, #678, #731, .T. ) ;
#305 = ORIENTED_EDGE ( 'NONE', *, *, #705, .F. ) ;
#306 = DIRECTION ( 'NONE',  ( 0.04664583706704662075, 0.07362261458417883320, -0.9961946980917455452 ) ) ;
#307 = ORIENTED_EDGE ( 'NONE', *, *, #239, .F. ) ;
#308 = SURFACE_SIDE_STYLE ('',( #1123 ) ) ;
#309 = ORIENTED_EDGE ( 'NONE', *, *, #197, .T. ) ;
#310 = CARTESIAN_POINT ( 'NONE',  ( 63.22266291730139898, 8.531066093065456712, 2.500000000000000000 ) ) ;
#311 = LINE ( 'NONE', #557, #927 ) ;
#312 = AXIS2_PLACEMENT_3D ( 'NONE', #1011, #548, #918 ) ;
#313 = VECTOR ( 'NONE', #605, 1000.000000000000114 ) ;
#314 = CIRCLE ( 'NONE', #146, 3.781278341185189351 ) ;
#315 = VERTEX_POINT ( 'NONE', #772 ) ;
#316 = DIRECTION ( 'NONE',  ( 0.07270083598423782156, -0.04806986520772613819, -0.9961946980917455452 ) ) ;
#317 = VERTEX_POINT ( 'NONE', #105 ) ;
#318 = DIRECTION ( 'NONE',  ( -0.000000000000000000, -0.000000000000000000, -1.000000000000000000 ) ) ;
#319 = EDGE_CURVE ( 'NONE', #315, #768, #538, .T. ) ;
#320 = EDGE_LOOP ( 'NONE', ( #844, #1122, #692, #1102 ) ) ;
#321 = SURFACE_STYLE_USAGE ( .BOTH. , #308 ) ;
#322 = VERTEX_POINT ( 'NONE', #378 ) ;
#323 = CARTESIAN_POINT ( 'NONE',  ( 67.11961006542105679, 2.380389934578922340, 2.500000000000000000 ) ) ;
#324 = DIRECTION ( 'NONE',  ( 1.000000000000000000, 0.000000000000000000, 0.000000000000000000 ) ) ;
#325 = EDGE_CURVE ( 'NONE', #1136, #91, #311, .T. ) ;
#326 = ORIENTED_EDGE ( 'NONE', *, *, #579, .F. ) ;
#327 = EDGE_LOOP ( 'NONE', ( #334, #1141, #285, #512 ) ) ;
#328 = DIRECTION ( 'NONE',  ( 1.000000000000000000, 0.000000000000000000, 0.000000000000000000 ) ) ;
#329 = LINE ( 'NONE', #589, #923 ) ;
#330 = EDGE_LOOP ( 'NONE', ( #656, #614, #489, #495 ) ) ;
#331 = AXIS2_PLACEMENT_3D ( 'NONE', #794, #1154, #418 ) ;
#332 = CIRCLE ( 'NONE', #1003, 7.500000000000007105 ) ;
#333 = EDGE_CURVE ( 'NONE', #1044, #136, #50, .T. ) ;
#334 = ORIENTED_EDGE ( 'NONE', *, *, #183, .T. ) ;
#335 = DIRECTION ( 'NONE',  ( 0.000000000000000000, 0.000000000000000000, 1.000000000000000000 ) ) ;
#336 = VECTOR ( 'NONE', #273, 1000.000000000000114 ) ;
#337 = CARTESIAN_POINT ( 'NONE',  ( 58.25000000000001421, 5.000000000000006217, 0.000000000000000000 ) ) ;
#338 = DIRECTION ( 'NONE',  ( 1.000000000000000000, 0.000000000000000000, 0.000000000000000000 ) ) ;
#339 = VERTEX_POINT ( 'NONE', #112 ) ;
#340 = DIRECTION ( 'NONE',  ( -0.000000000000000000, -0.000000000000000000, -1.000000000000000000 ) ) ;
#341 = EDGE_CURVE ( 'NONE', #872, #292, #613, .T. ) ;
#342 = LINE ( 'NONE', #532, #224 ) ;
#343 = FACE_OUTER_BOUND ( 'NONE', #969, .T. ) ;
#344 = VERTEX_POINT ( 'NONE', #759 ) ;
#345 = CARTESIAN_POINT ( 'NONE',  ( 10.75000000000001066, 62.00000000000000000, 0.000000000000000000 ) ) ;
#346 = CARTESIAN_POINT ( 'NONE',  ( 7.500000000000033751, 58.75000000000000711, 2.500000000000000000 ) ) ;
#347 = DIRECTION ( 'NONE',  ( -0.000000000000000000, 0.08715574274765837404, -0.9961946980917455452 ) ) ;
#348 = AXIS2_PLACEMENT_3D ( 'NONE', #1046, #873, #754 ) ;
#349 = ORIENTED_EDGE ( 'NONE', *, *, #566, .F. ) ;
#350 = DIRECTION ( 'NONE',  ( 1.000000000000000000, 0.000000000000000000, 0.000000000000000000 ) ) ;
#351 = AXIS2_PLACEMENT_3D ( 'NONE', #77, #994, #428 ) ;
#352 = AXIS2_PLACEMENT_3D ( 'NONE', #269, #318, #226 ) ;
#353 = CONICAL_SURFACE ( 'NONE', #164, 4.000000000000003553, 0.08726646259971666819 ) ;
#354 = DIRECTION ( 'NONE',  ( -0.000000000000000000, -0.000000000000000000, -1.000000000000000000 ) ) ;
#355 = EDGE_CURVE ( 'NONE', #114, #975, #289, .T. ) ;
#356 = CARTESIAN_POINT ( 'NONE',  ( 1.157291734758350676, 68.34270826524162601, 0.000000000000000000 ) ) ;
#357 = EDGE_LOOP ( 'NONE', ( #834, #839, #890, #561 ) ) ;
#358 = PLANE ( 'NONE',  #162 ) ;
#359 = CARTESIAN_POINT ( 'NONE',  ( 10.75000000000001066, 8.000000000000005329, 2.500000000000000000 ) ) ;
#360 = EDGE_CURVE ( 'NONE', #317, #551, #391, .T. ) ;
#361 = DIRECTION ( 'NONE',  ( 0.000000000000000000, 0.000000000000000000, 1.000000000000000000 ) ) ;
#362 = ORIENTED_EDGE ( 'NONE', *, *, #699, .T. ) ;
#363 = DIRECTION ( 'NONE',  ( 1.000000000000000000, 0.000000000000000000, 0.000000000000000000 ) ) ;
#364 = CARTESIAN_POINT ( 'NONE',  ( 10.75000000000001066, 62.00000000000000000, 2.500000000000000000 ) ) ;
#365 = DIRECTION ( 'NONE',  ( 1.000000000000000000, 0.000000000000000000, 0.000000000000000000 ) ) ;
#366 = ORIENTED_EDGE ( 'NONE', *, *, #86, .F. ) ;
#367 = CARTESIAN_POINT ( 'NONE',  ( 58.25000000000001421, 65.21872165881481465, 2.500000000000000000 ) ) ;
#368 = EDGE_CURVE ( 'NONE', #427, #980, #1062, .T. ) ;
#369 = CARTESIAN_POINT ( 'NONE',  ( 58.25000000000001421, 65.00000000000000000, -1.506157851797081000E-16 ) ) ;
#370 = AXIS2_PLACEMENT_3D ( 'NONE', #69, #61, #1069 ) ;
#371 = VECTOR ( 'NONE', #522, 1000.000000000000114 ) ;
#372 = AXIS2_PLACEMENT_3D ( 'NONE', #1047, #230, #670 ) ;
#373 = DIRECTION ( 'NONE',  ( 0.08715574274765837404, -0.000000000000000000, -0.9961946980917455452 ) ) ;
#374 = ORIENTED_EDGE ( 'NONE', *, *, #1166, .T. ) ;
#375 = DIRECTION ( 'NONE',  ( 0.04806986520772549981, -0.07270083598423821014, -0.9961946980917455452 ) ) ;
#376 = ADVANCED_FACE ( 'NONE', ( #958 ), #106, .F. ) ;
#377 = CARTESIAN_POINT ( 'NONE',  ( 10.75000000000001066, 62.00000000000000000, 0.000000000000000000 ) ) ;
#378 = CARTESIAN_POINT ( 'NONE',  ( 64.50000000000004263, 58.75000000000000711, 0.000000000000000000 ) ) ;
#379 = ORIENTED_EDGE ( 'NONE', *, *, #438, .T. ) ;
#380 = DIRECTION ( 'NONE',  ( -0.07270083598423814075, 0.04806986520772559696, -0.9961946980917455452 ) ) ;
#381 = DIRECTION ( 'NONE',  ( 0.000000000000000000, 0.000000000000000000, 1.000000000000000000 ) ) ;
#382 = EDGE_CURVE ( 'NONE', #317, #57, #1135, .T. ) ;
#383 = ORIENTED_EDGE ( 'NONE', *, *, #1099, .T. ) ;
#384 = CARTESIAN_POINT ( 'NONE',  ( 67.84270826524164022, 1.657291734758330470, 2.500000000000000000 ) ) ;
#385 = VERTEX_POINT ( 'NONE', #235 ) ;
#386 = CARTESIAN_POINT ( 'NONE',  ( 10.75000000000001066, 4.218721658814816422, 2.500000000000000000 ) ) ;
#387 = AXIS2_PLACEMENT_3D ( 'NONE', #957, #128, #132 ) ;
#388 = CIRCLE ( 'NONE', #866, 3.218721658814815978 ) ;
#389 = AXIS2_PLACEMENT_3D ( 'NONE', #797, #720, #715 ) ;
#390 = ADVANCED_FACE ( 'NONE', ( #419 ), #353, .T. ) ;
#391 = CIRCLE ( 'NONE', #372, 3.218721658814815978 ) ;
#392 = AXIS2_PLACEMENT_3D ( 'NONE', #891, #177, #161 ) ;
#393 = ORIENTED_EDGE ( 'NONE', *, *, #743, .T. ) ;
#394 = CARTESIAN_POINT ( 'NONE',  ( 63.58552568589693976, 61.90414782579708941, 2.500000000000000000 ) ) ;
#395 = ORIENTED_EDGE ( 'NONE', *, *, #1099, .F. ) ;
#396 = EDGE_LOOP ( 'NONE', ( #280, #570, #431, #222 ) ) ;
#397 =( NAMED_UNIT ( * ) PLANE_ANGLE_UNIT ( ) SI_UNIT ( $, .RADIAN. ) );
#398 = VERTEX_POINT ( 'NONE', #550 ) ;
#399 = SURFACE_STYLE_FILL_AREA ( #758 ) ;
#400 = DIRECTION ( 'NONE',  ( -0.000000000000000000, -0.000000000000000000, -1.000000000000000000 ) ) ;
#401 = ORIENTED_EDGE ( 'NONE', *, *, #215, .F. ) ;
#402 = DIRECTION ( 'NONE',  ( 1.000000000000000000, 0.000000000000000000, 0.000000000000000000 ) ) ;
#403 = VERTEX_POINT ( 'NONE', #982 ) ;
#404 = DIRECTION ( 'NONE',  ( 1.000000000000000000, 0.000000000000000000, 0.000000000000000000 ) ) ;
#405 = ADVANCED_FACE ( 'NONE', ( #254 ), #829, .T. ) ;
#406 = DIRECTION ( 'NONE',  ( 1.000000000000000000, 0.000000000000000000, -0.000000000000000000 ) ) ;
#407 = CIRCLE ( 'NONE', #946, 7.500000000000002665 ) ;
#408 = AXIS2_PLACEMENT_3D ( 'NONE', #868, #1041, #584 ) ;
#409 = ORIENTED_EDGE ( 'NONE', *, *, #70, .F. ) ;
#410 = CARTESIAN_POINT ( 'NONE',  ( 63.70615939660581262, 7.913405820785503586, 0.000000000000000000 ) ) ;
#411 = CIRCLE ( 'NONE', #648, 3.218721658814808873 ) ;
#412 = ORIENTED_EDGE ( 'NONE', *, *, #618, .F. ) ;
#413 = CARTESIAN_POINT ( 'NONE',  ( 67.11961006542105679, 67.61961006542108521, 2.500000000000000000 ) ) ;
#414 = ADVANCED_FACE ( 'NONE', ( #622 ), #709, .F. ) ;
#415 = CARTESIAN_POINT ( 'NONE',  ( 58.25000000000001421, 62.00000000000000000, 0.000000000000000000 ) ) ;
#416 = LINE ( 'NONE', #1140, #708 ) ;
#417 = ORIENTED_EDGE ( 'NONE', *, *, #887, .T. ) ;
#418 = DIRECTION ( 'NONE',  ( 1.000000000000000000, 0.000000000000000000, 0.000000000000000000 ) ) ;
#419 = FACE_OUTER_BOUND ( 'NONE', #849, .T. ) ;
#420 = EDGE_CURVE ( 'NONE', #292, #32, #884, .T. ) ;
#421 = CARTESIAN_POINT ( 'NONE',  ( 3.500000000000033307, 58.75000000000000711, 0.000000000000000000 ) ) ;
#422 = VERTEX_POINT ( 'NONE', #1160 ) ;
#423 = CARTESIAN_POINT ( 'NONE',  ( 3.718721658814840847, 11.25000000000000355, 2.500000000000000000 ) ) ;
#424 = CARTESIAN_POINT ( 'NONE',  ( 10.75000000000001066, 4.218721658814816422, 2.500000000000000000 ) ) ;
#425 = ADVANCED_FACE ( 'NONE', ( #990 ), #67, .F. ) ;
#426 = ORIENTED_EDGE ( 'NONE', *, *, #31, .F. ) ;
#427 = VERTEX_POINT ( 'NONE', #995 ) ;
#428 = DIRECTION ( 'NONE',  ( 1.000000000000000000, 0.000000000000000000, 0.000000000000000000 ) ) ;
#429 = AXIS2_PLACEMENT_3D ( 'NONE', #929, #719, #293 ) ;
#430 = DIRECTION ( 'NONE',  ( 1.000000000000000000, 0.000000000000000000, 0.000000000000000000 ) ) ;
#431 = ORIENTED_EDGE ( 'NONE', *, *, #475, .F. ) ;
#432 = ORIENTED_EDGE ( 'NONE', *, *, #341, .F. ) ;
#433 = CARTESIAN_POINT ( 'NONE',  ( 7.500000000000000888, 11.25000000000000178, 0.000000000000000000 ) ) ;
#434 = DIRECTION ( 'NONE',  ( -1.000000000000000000, 0.000000000000000000, 0.000000000000000000 ) ) ;
#435 = CARTESIAN_POINT ( 'NONE',  ( 7.500000000000000888, 11.25000000000000178, 2.500000000000000000 ) ) ;
#436 = ORIENTED_EDGE ( 'NONE', *, *, #1159, .F. ) ;
#437 = FACE_OUTER_BOUND ( 'NONE', #460, .T. ) ;
#438 = EDGE_CURVE ( 'NONE', #542, #503, #439, .T. ) ;
#439 = LINE ( 'NONE', #66, #262 ) ;
#440 = CARTESIAN_POINT ( 'NONE',  ( 4.500000000000032863, 58.75000000000000711, 0.000000000000000000 ) ) ;
#441 = COLOUR_RGB ( '',0.7960784313725489669, 0.8235294117647058432, 0.9372549019607843146 ) ;
#442 = ORIENTED_EDGE ( 'NONE', *, *, #705, .T. ) ;
#443 = LINE ( 'NONE', #631, #1020 ) ;
#444 = CONICAL_SURFACE ( 'NONE', #983, 7.499999999999992895, 0.08726646259971666819 ) ;
#445 = CARTESIAN_POINT ( 'NONE',  ( 61.50000000000004263, 58.75000000000000711, 0.000000000000000000 ) ) ;
#446 = EDGE_CURVE ( 'NONE', #582, #1032, #704, .T. ) ;
#447 = VECTOR ( 'NONE', #93, 1000.000000000000114 ) ;
#448 = DIRECTION ( 'NONE',  ( 1.000000000000000000, 0.000000000000000000, 0.000000000000000000 ) ) ;
#449 = ORIENTED_EDGE ( 'NONE', *, *, #921, .T. ) ;
#450 = DIRECTION ( 'NONE',  ( -0.07362261458417868054, 0.04664583706704687055, -0.9961946980917455452 ) ) ;
#451 = DIRECTION ( 'NONE',  ( 1.826024711554533913E-17, -1.000000000000000000, 0.000000000000000000 ) ) ;
#452 = EDGE_CURVE ( 'NONE', #734, #1044, #634, .T. ) ;
#453 = CARTESIAN_POINT ( 'NONE',  ( 65.28127834118522799, 11.25000000000000178, 2.500000000000000000 ) ) ;
#454 = EDGE_CURVE ( 'NONE', #820, #136, #691, .T. ) ;
#455 = ORIENTED_EDGE ( 'NONE', *, *, #645, .F. ) ;
#456 = DIRECTION ( 'NONE',  ( 0.000000000000000000, -0.08715574274765836016, -0.9961946980917455452 ) ) ;
#457 = DIRECTION ( 'NONE',  ( -0.9961946980917455452, -1.819076136235135850E-17, 0.08715574274765836016 ) ) ;
#458 = CARTESIAN_POINT ( 'NONE',  ( 10.75000000000001066, 65.78127834118518535, 2.500000000000000000 ) ) ;
#459 = EDGE_CURVE ( 'NONE', #606, #587, #314, .T. ) ;
#460 = EDGE_LOOP ( 'NONE', ( #436, #232, #210, #1033 ) ) ;
#461 = CARTESIAN_POINT ( 'NONE',  ( 10.75000000000001066, 66.00000000000000000, 0.000000000000000000 ) ) ;
#462 = ORIENTED_EDGE ( 'NONE', *, *, #1145, .T. ) ;
#463 = CARTESIAN_POINT ( 'NONE',  ( 3.718721658814843956, 58.75000000000000711, 2.500000000000000000 ) ) ;
#464 = AXIS2_PLACEMENT_3D ( 'NONE', #433, #335, #328 ) ;
#465 = VECTOR ( 'NONE', #60, 1000.000000000000114 ) ;
#466 = AXIS2_PLACEMENT_3D ( 'NONE', #364, #1109, #102 ) ;
#467 = CARTESIAN_POINT ( 'NONE',  ( 61.50000000000004263, 11.25000000000000178, 2.500000000000000000 ) ) ;
#468 = ORIENTED_EDGE ( 'NONE', *, *, #609, .T. ) ;
#469 = CARTESIAN_POINT ( 'NONE',  ( 63.10560287583461303, 8.715825695593974132, 0.000000000000000000 ) ) ;
#470 = CARTESIAN_POINT ( 'NONE',  ( 67.84270826524164022, 1.657291734758330470, 0.000000000000000000 ) ) ;
#471 = ORIENTED_EDGE ( 'NONE', *, *, #382, .F. ) ;
#472 = DIRECTION ( 'NONE',  ( -0.08715574274765837404, -0.000000000000000000, -0.9961946980917455452 ) ) ;
#473 = EDGE_LOOP ( 'NONE', ( #641, #1025, #193, #189 ) ) ;
#474 = DIRECTION ( 'NONE',  ( 0.08715574274765836016, 0.000000000000000000, 0.9961946980917455452 ) ) ;
#475 = EDGE_CURVE ( 'NONE', #131, #606, #1096, .T. ) ;
#476 = ORIENTED_EDGE ( 'NONE', *, *, #626, .F. ) ;
#477 = CARTESIAN_POINT ( 'NONE',  ( 8.215825695593991895, 63.60560287583458461, 0.000000000000000000 ) ) ;
#478 = ORIENTED_EDGE ( 'NONE', *, *, #94, .F. ) ;
#479 = LINE ( 'NONE', #1031, #909 ) ;
#480 = AXIS2_PLACEMENT_3D ( 'NONE', #976, #514, #883 ) ;
#481 = AXIS2_PLACEMENT_3D ( 'NONE', #800, #604, #1082 ) ;
#482 = ORIENTED_EDGE ( 'NONE', *, *, #24, .F. ) ;
#483 = DIRECTION ( 'NONE',  ( -0.000000000000000000, -0.000000000000000000, -1.000000000000000000 ) ) ;
#484 = VERTEX_POINT ( 'NONE', #608 ) ;
#485 = CARTESIAN_POINT ( 'NONE',  ( 58.25000000000001421, 65.78127834118518535, 2.500000000000000000 ) ) ;
#486 = CARTESIAN_POINT ( 'NONE',  ( 4.500000000000032863, 58.75000000000000711, 0.000000000000000000 ) ) ;
#487 = EDGE_CURVE ( 'NONE', #734, #820, #342, .T. ) ;
#488 = ORIENTED_EDGE ( 'NONE', *, *, #743, .F. ) ;
#489 = ORIENTED_EDGE ( 'NONE', *, *, #158, .F. ) ;
#490 = FILL_AREA_STYLE_COLOUR ( '', #441 ) ;
#491 = PLANE ( 'NONE',  #104 ) ;
#492 = ORIENTED_EDGE ( 'NONE', *, *, #598, .T. ) ;
#493 = DIRECTION ( 'NONE',  ( 1.000000000000000000, -3.539691668429709093E-15, 0.000000000000000000 ) ) ;
#494 = ADVANCED_FACE ( 'NONE', ( #796, #59 ), #1072, .F. ) ;
#495 = ORIENTED_EDGE ( 'NONE', *, *, #288, .T. ) ;
#496 = DIRECTION ( 'NONE',  ( 0.000000000000000000, 0.000000000000000000, 1.000000000000000000 ) ) ;
#497 = FACE_OUTER_BOUND ( 'NONE', #1063, .T. ) ;
#498 = AXIS2_PLACEMENT_3D ( 'NONE', #567, #1052, #137 ) ;
#499 = CONICAL_SURFACE ( 'NONE', #517, 3.000000000000000000, 0.08726646259971666819 ) ;
#500 = AXIS2_PLACEMENT_3D ( 'NONE', #920, #400, #675 ) ;
#501 = AXIS2_PLACEMENT_3D ( 'NONE', #359, #179, #430 ) ;
#502 = CARTESIAN_POINT ( 'NONE',  ( 7.413405820785522238, 5.793840603394221134, 7.530789258985404998E-17 ) ) ;
#503 = VERTEX_POINT ( 'NONE', #896 ) ;
#504 = DIRECTION ( 'NONE',  ( 1.000000000000000000, 0.000000000000000000, 0.000000000000000000 ) ) ;
#505 = EDGE_CURVE ( 'NONE', #563, #91, #806, .T. ) ;
#506 = FACE_BOUND ( 'NONE', #1037, .T. ) ;
#507 = ORIENTED_EDGE ( 'NONE', *, *, #319, .T. ) ;
#508 = ORIENTED_EDGE ( 'NONE', *, *, #960, .F. ) ;
#509 = CARTESIAN_POINT ( 'NONE',  ( 58.25000000000001421, 8.000000000000005329, 2.500000000000000000 ) ) ;
#510 = DIRECTION ( 'NONE',  ( 1.000000000000000000, 0.000000000000000000, 0.000000000000000000 ) ) ;
#511 = ADVANCED_FACE ( 'NONE', ( #526 ), #749, .F. ) ;
#512 = ORIENTED_EDGE ( 'NONE', *, *, #836, .T. ) ;
#513 = ORIENTED_EDGE ( 'NONE', *, *, #778, .T. ) ;
#514 = DIRECTION ( 'NONE',  ( 0.000000000000000000, 0.000000000000000000, 1.000000000000000000 ) ) ;
#515 = DIRECTION ( 'NONE',  ( 1.000000000000000000, 0.000000000000000000, 0.000000000000000000 ) ) ;
#516 = CARTESIAN_POINT ( 'NONE',  ( 4.500000000000033751, 11.25000000000000355, 0.000000000000000000 ) ) ;
#517 = AXIS2_PLACEMENT_3D ( 'NONE', #1103, #82, #18 ) ;
#518 = ORIENTED_EDGE ( 'NONE', *, *, #848, .F. ) ;
#519 = CARTESIAN_POINT ( 'NONE',  ( 61.58659417921450085, 64.20615939660579841, 0.000000000000000000 ) ) ;
#520 = CIRCLE ( 'NONE', #12, 4.000000000000000000 ) ;
#521 = DIRECTION ( 'NONE',  ( 1.000000000000000000, 0.000000000000000000, 0.000000000000000000 ) ) ;
#522 = DIRECTION ( 'NONE',  ( -0.04806986520772615207, 0.07270083598423780769, -0.9961946980917455452 ) ) ;
#523 = ADVANCED_FACE ( 'NONE', ( #1174 ), #205, .T. ) ;
#524 = ORIENTED_EDGE ( 'NONE', *, *, #900, .F. ) ;
#525 = FACE_OUTER_BOUND ( 'NONE', #814, .T. ) ;
#526 = FACE_OUTER_BOUND ( 'NONE', #760, .T. ) ;
#527 = DIRECTION ( 'NONE',  ( 0.000000000000000000, -0.08715574274765836016, 0.9961946980917455452 ) ) ;
#528 = VERTEX_POINT ( 'NONE', #1067 ) ;
#529 = CARTESIAN_POINT ( 'NONE',  ( 63.58552568589693976, 8.095852174202912366, 2.500000000000000000 ) ) ;
#530 = EDGE_CURVE ( 'NONE', #768, #1070, #879, .T. ) ;
#531 = ORIENTED_EDGE ( 'NONE', *, *, #110, .F. ) ;
#532 = CARTESIAN_POINT ( 'NONE',  ( 8.215825695593993672, 6.394397124165431379, 7.530789258985404998E-17 ) ) ;
#533 = PLANE ( 'NONE',  #389 ) ;
#534 = ORIENTED_EDGE ( 'NONE', *, *, #487, .F. ) ;
#535 = DIRECTION ( 'NONE',  ( 0.000000000000000000, 0.000000000000000000, 1.000000000000000000 ) ) ;
#536 = CIRCLE ( 'NONE', #1112, 3.000000000000002665 ) ;
#537 = VECTOR ( 'NONE', #347, 1000.000000000000114 ) ;
#538 = CIRCLE ( 'NONE', #1040, 3.781278341185190239 ) ;
#539 = DIRECTION ( 'NONE',  ( 0.000000000000000000, 0.000000000000000000, 1.000000000000000000 ) ) ;
#540 = ADVANCED_FACE ( 'NONE', ( #1150 ), #250, .T. ) ;
#541 = CARTESIAN_POINT ( 'NONE',  ( 1.157291734758357560, 1.657291734758380874, 0.000000000000000000 ) ) ;
#542 = VERTEX_POINT ( 'NONE', #15 ) ;
#543 = DIRECTION ( 'NONE',  ( -0.000000000000000000, -0.000000000000000000, -1.000000000000000000 ) ) ;
#544 = DIRECTION ( 'NONE',  ( 0.000000000000000000, 0.000000000000000000, 1.000000000000000000 ) ) ;
#545 = EDGE_CURVE ( 'NONE', #1070, #576, #1027, .T. ) ;
#546 = CARTESIAN_POINT ( 'NONE',  ( 4.500000000000032863, 58.75000000000000711, 0.000000000000000000 ) ) ;
#547 = VERTEX_POINT ( 'NONE', #914 ) ;
#548 = DIRECTION ( 'NONE',  ( -0.000000000000000000, -0.000000000000000000, -1.000000000000000000 ) ) ;
#549 = DIRECTION ( 'NONE',  ( -0.000000000000000000, -0.000000000000000000, -1.000000000000000000 ) ) ;
#550 = CARTESIAN_POINT ( 'NONE',  ( 61.40414782579708941, 64.08552568589692555, 2.500000000000000000 ) ) ;
#551 = VERTEX_POINT ( 'NONE', #191 ) ;
#552 = CARTESIAN_POINT ( 'NONE',  ( 61.50000000000004263, 58.75000000000000711, 2.500000000000000000 ) ) ;
#553 = DIRECTION ( 'NONE',  ( 1.000000000000000000, 0.000000000000000000, 0.000000000000000000 ) ) ;
#554 = AXIS2_PLACEMENT_3D ( 'NONE', #182, #908, #286 ) ;
#555 = AXIS2_PLACEMENT_3D ( 'NONE', #1138, #765, #324 ) ;
#556 = CIRCLE ( 'NONE', #392, 4.000000000000000888 ) ;
#557 = CARTESIAN_POINT ( 'NONE',  ( 63.70615939660581262, 62.08659417921450085, -1.506157851797081000E-16 ) ) ;
#558 = ORIENTED_EDGE ( 'NONE', *, *, #1110, .F. ) ;
#559 = DIRECTION ( 'NONE',  ( 0.000000000000000000, 0.000000000000000000, 1.000000000000000000 ) ) ;
#560 = EDGE_CURVE ( 'NONE', #816, #344, #1004, .T. ) ;
#561 = ORIENTED_EDGE ( 'NONE', *, *, #4, .T. ) ;
#562 = DIRECTION ( 'NONE',  ( 1.000000000000000000, 0.000000000000000000, 0.000000000000000000 ) ) ;
#563 = VERTEX_POINT ( 'NONE', #195 ) ;
#564 = LINE ( 'NONE', #228, #202 ) ;
#565 = ORIENTED_EDGE ( 'NONE', *, *, #20, .F. ) ;
#566 = EDGE_CURVE ( 'NONE', #547, #34, #23, .T. ) ;
#567 = CARTESIAN_POINT ( 'NONE',  ( 4.500000000000032863, 58.75000000000000711, 0.000000000000000000 ) ) ;
#568 = ORIENTED_EDGE ( 'NONE', *, *, #953, .F. ) ;
#569 = CARTESIAN_POINT ( 'NONE',  ( 65.50000000000004263, 11.25000000000000178, 0.000000000000000000 ) ) ;
#570 = ORIENTED_EDGE ( 'NONE', *, *, #178, .F. ) ;
#571 = COLOUR_RGB ( '',0.7960784313725489669, 0.8235294117647058432, 0.9372549019607843146 ) ;
#572 = ADVANCED_FACE ( 'NONE', ( #19 ), #919, .T. ) ;
#573 = AXIS2_PLACEMENT_3D ( 'NONE', #901, #153, #695 ) ;
#574 = ORIENTED_EDGE ( 'NONE', *, *, #737, .F. ) ;
#575 = DIRECTION ( 'NONE',  ( -0.000000000000000000, -0.000000000000000000, -1.000000000000000000 ) ) ;
#576 = VERTEX_POINT ( 'NONE', #1000 ) ;
#577 =( LENGTH_UNIT ( ) NAMED_UNIT ( * ) SI_UNIT ( .MILLI., .METRE. ) );
#578 = CARTESIAN_POINT ( 'NONE',  ( 58.25000000000001421, 8.000000000000005329, 2.500000000000000000 ) ) ;
#579 = EDGE_CURVE ( 'NONE', #213, #663, #520, .T. ) ;
#580 = EDGE_LOOP ( 'NONE', ( #28, #412, #108, #944 ) ) ;
#581 =( NAMED_UNIT ( * ) SI_UNIT ( $, .STERADIAN. ) SOLID_ANGLE_UNIT ( ) );
#582 = VERTEX_POINT ( 'NONE', #1017 ) ;
#583 = CARTESIAN_POINT ( 'NONE',  ( 63.22266291730139898, 61.46893390693454506, 2.500000000000000000 ) ) ;
#584 = DIRECTION ( 'NONE',  ( 1.000000000000000000, 0.000000000000000000, 0.000000000000000000 ) ) ;
#585 = LINE ( 'NONE', #1054, #240 ) ;
#586 = EDGE_CURVE ( 'NONE', #503, #1153, #671, .T. ) ;
#587 = VERTEX_POINT ( 'NONE', #463 ) ;
#588 = PLANE ( 'NONE',  #498 ) ;
#589 = CARTESIAN_POINT ( 'NONE',  ( 3.500000000000030198, 11.25000000000000355, 0.000000000000000000 ) ) ;
#590 = AXIS2_PLACEMENT_3D ( 'NONE', #981, #776, #686 ) ;
#591 = AXIS2_PLACEMENT_3D ( 'NONE', #267, #621, #703 ) ;
#592 = CIRCLE ( 'NONE', #142, 7.281278341185185354 ) ;
#593 = VECTOR ( 'NONE', #434, 1000.000000000000000 ) ;
#594 = ORIENTED_EDGE ( 'NONE', *, *, #70, .T. ) ;
#595 = AXIS2_PLACEMENT_3D ( 'NONE', #53, #607, #711 ) ;
#596 = ORIENTED_EDGE ( 'NONE', *, *, #921, .F. ) ;
#597 = FACE_OUTER_BOUND ( 'NONE', #357, .T. ) ;
#598 = EDGE_CURVE ( 'NONE', #551, #542, #211, .T. ) ;
#599 = DIRECTION ( 'NONE',  ( 0.07362261458417891646, 0.04664583706704648197, -0.9961946980917455452 ) ) ;
#600 = CARTESIAN_POINT ( 'NONE',  ( 4.281278341185222658, 11.25000000000000355, 2.500000000000000000 ) ) ;
#601 = ORIENTED_EDGE ( 'NONE', *, *, #39, .T. ) ;
#602 = CARTESIAN_POINT ( 'NONE',  ( 5.777337082698643655, 61.46893390693453085, 2.500000000000000000 ) ) ;
#603 = EDGE_CURVE ( 'NONE', #1113, #403, #985, .T. ) ;
#604 = DIRECTION ( 'NONE',  ( 0.000000000000000000, 0.000000000000000000, 1.000000000000000000 ) ) ;
#605 = DIRECTION ( 'NONE',  ( 0.07270083598423784932, 0.04806986520772608962, -0.9961946980917455452 ) ) ;
#606 = VERTEX_POINT ( 'NONE', #837 ) ;
#607 = DIRECTION ( 'NONE',  ( -0.000000000000000000, -0.000000000000000000, -1.000000000000000000 ) ) ;
#608 = CARTESIAN_POINT ( 'NONE',  ( 3.500000000000033307, 58.75000000000000711, 0.000000000000000000 ) ) ;
#609 = EDGE_CURVE ( 'NONE', #780, #134, #1092, .T. ) ;
#610 = DIRECTION ( 'NONE',  ( 0.08715574274765837404, 1.591485400111140301E-18, -0.9961946980917455452 ) ) ;
#611 = AXIS2_PLACEMENT_3D ( 'NONE', #723, #535, #109 ) ;
#612 = CIRCLE ( 'NONE', #690, 3.218721658814782227 ) ;
#613 = CIRCLE ( 'NONE', #888, 4.000000000000003553 ) ;
#614 = ORIENTED_EDGE ( 'NONE', *, *, #836, .F. ) ;
#615 = DIRECTION ( 'NONE',  ( 1.000000000000000000, 0.000000000000000000, 0.000000000000000000 ) ) ;
#616 = AXIS2_PLACEMENT_3D ( 'NONE', #859, #496, #661 ) ;
#617 = DIRECTION ( 'NONE',  ( 0.000000000000000000, 0.000000000000000000, 1.000000000000000000 ) ) ;
#618 = EDGE_CURVE ( 'NONE', #728, #980, #832, .T. ) ;
#619 = CARTESIAN_POINT ( 'NONE',  ( 10.75000000000001066, 5.000000000000006217, 0.000000000000000000 ) ) ;
#620 = ORIENTED_EDGE ( 'NONE', *, *, #270, .F. ) ;
#621 = DIRECTION ( 'NONE',  ( 0.000000000000000000, 0.000000000000000000, 1.000000000000000000 ) ) ;
#622 = FACE_OUTER_BOUND ( 'NONE', #793, .T. ) ;
#623 = DIRECTION ( 'NONE',  ( -0.000000000000000000, -0.000000000000000000, -1.000000000000000000 ) ) ;
#624 = ORIENTED_EDGE ( 'NONE', *, *, #255, .F. ) ;
#625 = CARTESIAN_POINT ( 'NONE',  ( 10.75000000000001066, 4.781278341185194236, 2.500000000000000000 ) ) ;
#626 = EDGE_CURVE ( 'NONE', #403, #1153, #282, .T. ) ;
#627 = CARTESIAN_POINT ( 'NONE',  ( 61.50000000000004263, 11.25000000000000178, 2.500000000000000000 ) ) ;
#628 = CARTESIAN_POINT ( 'NONE',  ( 64.71872165881485728, 11.25000000000000178, 2.500000000000000000 ) ) ;
#629 = AXIS2_PLACEMENT_3D ( 'NONE', #1178, #1173, #272 ) ;
#630 = ORIENTED_EDGE ( 'NONE', *, *, #560, .T. ) ;
#631 = CARTESIAN_POINT ( 'NONE',  ( 60.78417430440602232, 6.394397124165407398, 3.765394629492702499E-17 ) ) ;
#632 = AXIS2_PLACEMENT_3D ( 'NONE', #876, #1073, #1146 ) ;
#633 = ADVANCED_FACE ( 'NONE', ( #649 ), #639, .T. ) ;
#634 = CIRCLE ( 'NONE', #501, 3.218721658814810649 ) ;
#635 = DIRECTION ( 'NONE',  ( 0.07362261458417898585, -0.04664583706704642646, -0.9961946980917455452 ) ) ;
#636 = DIRECTION ( 'NONE',  ( 1.000000000000000000, 0.000000000000000000, 0.000000000000000000 ) ) ;
#637 = ORIENTED_EDGE ( 'NONE', *, *, #220, .T. ) ;
#638 = DIRECTION ( 'NONE',  ( -0.04664583706704610727, -0.07362261458417915239, -0.9961946980917455452 ) ) ;
#639 = PLANE ( 'NONE',  #1001 ) ;
#640 = DIRECTION ( 'NONE',  ( 1.000000000000000000, 0.000000000000000000, 0.000000000000000000 ) ) ;
#641 = ORIENTED_EDGE ( 'NONE', *, *, #586, .F. ) ;
#642 = CARTESIAN_POINT ( 'NONE',  ( 5.414474314103096653, 8.095852174202942564, 2.500000000000000000 ) ) ;
#643 = DIRECTION ( 'NONE',  ( 1.000000000000000000, 0.000000000000000000, 0.000000000000000000 ) ) ;
#644 = DIRECTION ( 'NONE',  ( 1.000000000000000000, 0.000000000000000000, 0.000000000000000000 ) ) ;
#645 = EDGE_CURVE ( 'NONE', #528, #1125, #294, .T. ) ;
#646 = ORIENTED_EDGE ( 'NONE', *, *, #812, .F. ) ;
#647 = CARTESIAN_POINT ( 'NONE',  ( 1.880389934578952760, 2.380389934578968969, 0.000000000000000000 ) ) ;
#648 = AXIS2_PLACEMENT_3D ( 'NONE', #509, #156, #171 ) ;
#649 = FACE_OUTER_BOUND ( 'NONE', #858, .T. ) ;
#650 = PRODUCT_DEFINITION_FORMATION_WITH_SPECIFIED_SOURCE ( 'Symmetric', '', #679, .NOT_KNOWN. ) ;
#651 = VECTOR ( 'NONE', #83, 1000.000000000000114 ) ;
#652 = CONICAL_SURFACE ( 'NONE', #348, 3.000000000000002665, 0.08726646259971666819 ) ;
#653 = EDGE_CURVE ( 'NONE', #398, #710, #207, .T. ) ;
#654 = ORIENTED_EDGE ( 'NONE', *, *, #206, .F. ) ;
#655 = DIRECTION ( 'NONE',  ( -0.000000000000000000, -0.08715574274765837404, -0.9961946980917455452 ) ) ;
#656 = ORIENTED_EDGE ( 'NONE', *, *, #880, .T. ) ;
#657 = DIRECTION ( 'NONE',  ( -0.08715574274765837404, -1.591485400111140301E-18, -0.9961946980917455452 ) ) ;
#658 = ORIENTED_EDGE ( 'NONE', *, *, #249, .F. ) ;
#659 =( NAMED_UNIT ( * ) SI_UNIT ( $, .STERADIAN. ) SOLID_ANGLE_UNIT ( ) );
#660 = ORIENTED_EDGE ( 'NONE', *, *, #737, .T. ) ;
#661 = DIRECTION ( 'NONE',  ( 1.000000000000000000, 0.000000000000000000, 0.000000000000000000 ) ) ;
#662 = ADVANCED_FACE ( 'NONE', ( #200 ), #712, .F. ) ;
#663 = VERTEX_POINT ( 'NONE', #742 ) ;
#664 = CARTESIAN_POINT ( 'NONE',  ( 61.58659417921450085, 5.793840603394206923, -7.530789258985404998E-17 ) ) ;
#665 = ORIENTED_EDGE ( 'NONE', *, *, #667, .F. ) ;
#666 = SURFACE_SIDE_STYLE ('',( #399 ) ) ;
#667 = EDGE_CURVE ( 'NONE', #1152, #130, #116, .T. ) ;
#668 = CONICAL_SURFACE ( 'NONE', #629, 4.000000000000003553, 0.08726646259971666819 ) ;
#669 = VECTOR ( 'NONE', #1171, 1000.000000000000114 ) ;
#670 = DIRECTION ( 'NONE',  ( 1.000000000000000000, 0.000000000000000000, 0.000000000000000000 ) ) ;
#671 = CIRCLE ( 'NONE', #166, 3.000000000000002665 ) ;
#672 = ORIENTED_EDGE ( 'NONE', *, *, #368, .F. ) ;
#673 = ORIENTED_EDGE ( 'NONE', *, *, #1008, .F. ) ;
#674 = DIRECTION ( 'NONE',  ( -0.000000000000000000, -0.000000000000000000, -1.000000000000000000 ) ) ;
#675 = DIRECTION ( 'NONE',  ( 1.000000000000000000, 1.786832676926385904E-15, 0.000000000000000000 ) ) ;
#676 = LINE ( 'NONE', #1156, #313 ) ;
#677 = CARTESIAN_POINT ( 'NONE',  ( 5.777337082698636550, 8.531066093065494016, 2.500000000000000000 ) ) ;
#678 = VERTEX_POINT ( 'NONE', #771 ) ;
#679 = PRODUCT ( '70x70 back seal', '70x70 back seal', '', ( #75 ) ) ;
#680 = FACE_OUTER_BOUND ( 'NONE', #5, .T. ) ;
#681 = DIRECTION ( 'NONE',  ( 0.000000000000000000, 1.000000000000000000, 0.000000000000000000 ) ) ;
#682 = MANIFOLD_SOLID_BREP ( 'Boss-Extrude1', #1039 ) ;
#683 = ADVANCED_FACE ( 'NONE', ( #214 ), #1170, .T. ) ;
#684 = ORIENTED_EDGE ( 'NONE', *, *, #333, .F. ) ;
#685 = EDGE_LOOP ( 'NONE', ( #851, #476, #810, #468 ) ) ;
#686 = DIRECTION ( 'NONE',  ( 1.000000000000000000, 0.000000000000000000, 0.000000000000000000 ) ) ;
#687 = DIRECTION ( 'NONE',  ( -0.000000000000000000, -0.000000000000000000, -1.000000000000000000 ) ) ;
#688 = CIRCLE ( 'NONE', #89, 7.281278341185193348 ) ;
#689 = VECTOR ( 'NONE', #375, 1000.000000000000114 ) ;
#690 = AXIS2_PLACEMENT_3D ( 'NONE', #133, #966, #138 ) ;
#691 = CIRCLE ( 'NONE', #967, 3.000000000000000888 ) ;
#692 = ORIENTED_EDGE ( 'NONE', *, *, #795, .T. ) ;
#693 = ORIENTED_EDGE ( 'NONE', *, *, #773, .F. ) ;
#694 = DIRECTION ( 'NONE',  ( 0.000000000000000000, 0.000000000000000000, 1.000000000000000000 ) ) ;
#695 = DIRECTION ( 'NONE',  ( 1.000000000000000000, 0.000000000000000000, -0.000000000000000000 ) ) ;
#696 = CARTESIAN_POINT ( 'NONE',  ( 1.880389934578952760, 2.380389934578968969, 0.000000000000000000 ) ) ;
#697 = ORIENTED_EDGE ( 'NONE', *, *, #333, .T. ) ;
#698 = DIRECTION ( 'NONE',  ( 0.000000000000000000, 0.000000000000000000, 1.000000000000000000 ) ) ;
#699 = EDGE_CURVE ( 'NONE', #91, #872, #902, .T. ) ;
#700 = DIRECTION ( 'NONE',  ( 1.000000000000000000, 0.000000000000000000, 0.000000000000000000 ) ) ;
#701 = DIRECTION ( 'NONE',  ( -0.000000000000000000, -0.000000000000000000, -1.000000000000000000 ) ) ;
#702 = ORIENTED_EDGE ( 'NONE', *, *, #452, .T. ) ;
#703 = DIRECTION ( 'NONE',  ( 1.000000000000000000, 0.000000000000000000, 0.000000000000000000 ) ) ;
#704 = LINE ( 'NONE', #337, #651 ) ;
#705 = EDGE_CURVE ( 'NONE', #975, #130, #25, .T. ) ;
#706 = CARTESIAN_POINT ( 'NONE',  ( 7.413405820785522238, 5.793840603394222910, 0.000000000000000000 ) ) ;
#707 = AXIS2_PLACEMENT_3D ( 'NONE', #384, #483, #493 ) ;
#708 = VECTOR ( 'NONE', #338, 1000.000000000000000 ) ;
#709 = CONICAL_SURFACE ( 'NONE', #1024, 3.000000000000002665, 0.08726646259971666819 ) ;
#710 = VERTEX_POINT ( 'NONE', #485 ) ;
#711 = DIRECTION ( 'NONE',  ( 1.000000000000000000, 0.000000000000000000, 0.000000000000000000 ) ) ;
#712 = CONICAL_SURFACE ( 'NONE', #84, 7.499999999999992895, 0.08726646259971666819 ) ;
#713 = CARTESIAN_POINT ( 'NONE',  ( 1.157291734758350676, 68.34270826524162601, 2.500000000000000000 ) ) ;
#714 = PRODUCT_DEFINITION_CONTEXT ( 'detailed design', #1124, 'design' ) ;
#715 = DIRECTION ( 'NONE',  ( 0.000000000000000000, -0.08715574274765836016, -0.9961946980917455452 ) ) ;
#716 = ADVANCED_FACE ( 'NONE', ( #864 ), #865, .F. ) ;
#717 = ORIENTED_EDGE ( 'NONE', *, *, #178, .T. ) ;
#718 = CARTESIAN_POINT ( 'NONE',  ( 58.25000000000001421, 5.000000000000006217, 0.000000000000000000 ) ) ;
#719 = DIRECTION ( 'NONE',  ( 0.9961946980917455452, 0.000000000000000000, 0.08715574274765836016 ) ) ;
#720 = DIRECTION ( 'NONE',  ( 0.000000000000000000, -0.9961946980917455452, 0.08715574274765836016 ) ) ;
#721 = ADVANCED_FACE ( 'NONE', ( #680 ), #588, .T. ) ;
#722 = EDGE_LOOP ( 'NONE', ( #300, #198, #646, #637 ) ) ;
#723 = CARTESIAN_POINT ( 'NONE',  ( 7.500000000000033751, 58.75000000000000711, 0.000000000000000000 ) ) ;
#724 = ORIENTED_EDGE ( 'NONE', *, *, #699, .F. ) ;
#725 = DIRECTION ( 'NONE',  ( 0.000000000000000000, 0.000000000000000000, 1.000000000000000000 ) ) ;
#726 = CARTESIAN_POINT ( 'NONE',  ( 64.50000000000004263, 58.75000000000000711, 0.000000000000000000 ) ) ;
#727 = PRESENTATION_LAYER_ASSIGNMENT (  '', '', ( #64 ) ) ;
#728 = VERTEX_POINT ( 'NONE', #310 ) ;
#729 = CARTESIAN_POINT ( 'NONE',  ( 7.413405820785521350, 64.20615939660578420, -7.530789258985404998E-17 ) ) ;
#730 = AXIS2_PLACEMENT_3D ( 'NONE', #1094, #623, #365 ) ;
#731 = CIRCLE ( 'NONE', #785, 3.218721658814815978 ) ;
#732 = DIRECTION ( 'NONE',  ( 1.000000000000000000, 0.000000000000000000, 0.000000000000000000 ) ) ;
#733 = CARTESIAN_POINT ( 'NONE',  ( 7.595852174202930129, 64.08552568589691134, 2.500000000000000000 ) ) ;
#734 = VERTEX_POINT ( 'NONE', #962 ) ;
#735 = CARTESIAN_POINT ( 'NONE',  ( 4.500000000000033751, 11.25000000000000355, 0.000000000000000000 ) ) ;
#736 = DIRECTION ( 'NONE',  ( 1.000000000000000000, 0.000000000000000000, 0.000000000000000000 ) ) ;
#737 = EDGE_CURVE ( 'NONE', #258, #728, #688, .T. ) ;
#738 = DIRECTION ( 'NONE',  ( 0.04806986520772564553, 0.07270083598423812687, -0.9961946980917455452 ) ) ;
#739 = ORIENTED_EDGE ( 'NONE', *, *, #560, .F. ) ;
#740 = DIRECTION ( 'NONE',  ( -0.000000000000000000, 0.08715574274765837404, -0.9961946980917455452 ) ) ;
#741 = ORIENTED_EDGE ( 'NONE', *, *, #475, .T. ) ;
#742 = CARTESIAN_POINT ( 'NONE',  ( 10.75000000000001066, 4.000000000000005329, 0.000000000000000000 ) ) ;
#743 = EDGE_CURVE ( 'NONE', #1125, #788, #107, .T. ) ;
#744 = ORIENTED_EDGE ( 'NONE', *, *, #299, .T. ) ;
#745 = VECTOR ( 'NONE', #635, 1000.000000000000114 ) ;
#746 = EDGE_LOOP ( 'NONE', ( #482, #665, #744, #1074 ) ) ;
#747 = LINE ( 'NONE', #1117, #968 ) ;
#748 = CONICAL_SURFACE ( 'NONE', #141, 7.500000000000002665, 0.08726646259971666819 ) ;
#749 = CONICAL_SURFACE ( 'NONE', #243, 2.999999999999970690, 0.08726646259971666819 ) ;
#750 = ADVANCED_FACE ( 'NONE', ( #939 ), #652, .F. ) ;
#751 = ORIENTED_EDGE ( 'NONE', *, *, #206, .T. ) ;
#752 = DIRECTION ( 'NONE',  ( 1.000000000000000000, 0.000000000000000000, 0.000000000000000000 ) ) ;
#753 = VERTEX_POINT ( 'NONE', #583 ) ;
#754 = DIRECTION ( 'NONE',  ( 1.000000000000000000, 0.000000000000000000, 0.000000000000000000 ) ) ;
#755 = ORIENTED_EDGE ( 'NONE', *, *, #1134, .F. ) ;
#756 = EDGE_CURVE ( 'NONE', #753, #317, #1111, .T. ) ;
#757 = EDGE_LOOP ( 'NONE', ( #275, #673, #233, #751 ) ) ;
#758 = FILL_AREA_STYLE ('',( #490 ) ) ;
#759 = CARTESIAN_POINT ( 'NONE',  ( 65.28127834118522799, 11.25000000000000178, 2.500000000000000000 ) ) ;
#760 = EDGE_LOOP ( 'NONE', ( #305, #478, #988, #47 ) ) ;
#761 = ORIENTED_EDGE ( 'NONE', *, *, #1110, .T. ) ;
#762 = DIRECTION ( 'NONE',  ( 1.000000000000000000, 0.000000000000000000, 0.000000000000000000 ) ) ;
#763 = VECTOR ( 'NONE', #878, 1000.000000000000000 ) ;
#764 = AXIS2_PLACEMENT_3D ( 'NONE', #168, #861, #640 ) ;
#765 = DIRECTION ( 'NONE',  ( 0.000000000000000000, 0.000000000000000000, 1.000000000000000000 ) ) ;
#766 = VECTOR ( 'NONE', #782, 1000.000000000000000 ) ;
#767 = AXIS2_PLACEMENT_3D ( 'NONE', #1158, #698, #259 ) ;
#768 = VERTEX_POINT ( 'NONE', #386 ) ;
#769 = DIRECTION ( 'NONE',  ( 0.08715574274765837404, -0.000000000000000000, -0.9961946980917455452 ) ) ;
#770 = ORIENTED_EDGE ( 'NONE', *, *, #459, .T. ) ;
#771 = CARTESIAN_POINT ( 'NONE',  ( 64.71872165881485728, 11.25000000000000178, 2.500000000000000000 ) ) ;
#772 = CARTESIAN_POINT ( 'NONE',  ( 7.595852174202931018, 5.914474314103096653, 2.500000000000000000 ) ) ;
#773 = EDGE_CURVE ( 'NONE', #587, #484, #747, .T. ) ;
#774 = CARTESIAN_POINT ( 'NONE',  ( 58.25000000000001421, 62.00000000000000000, 0.000000000000000000 ) ) ;
#775 = ORIENTED_EDGE ( 'NONE', *, *, #653, .F. ) ;
#776 = DIRECTION ( 'NONE',  ( -0.000000000000000000, -0.000000000000000000, -1.000000000000000000 ) ) ;
#777 = CARTESIAN_POINT ( 'NONE',  ( 10.75000000000001066, 62.00000000000000000, 0.000000000000000000 ) ) ;
#778 = EDGE_CURVE ( 'NONE', #768, #663, #479, .T. ) ;
#779 = VERTEX_POINT ( 'NONE', #1121 ) ;
#780 = VERTEX_POINT ( 'NONE', #602 ) ;
#781 = CARTESIAN_POINT ( 'NONE',  ( 65.50000000000004263, 11.25000000000000178, 0.000000000000000000 ) ) ;
#782 = DIRECTION ( 'NONE',  ( 1.000000000000000000, -3.652049423109067210E-17, -0.000000000000000000 ) ) ;
#783 = VECTOR ( 'NONE', #769, 1000.000000000000114 ) ;
#784 = CIRCLE ( 'NONE', #1131, 7.500000000000001776 ) ;
#785 = AXIS2_PLACEMENT_3D ( 'NONE', #467, #1018, #204 ) ;
#786 = LINE ( 'NONE', #257, #1078 ) ;
#787 = EDGE_CURVE ( 'NONE', #587, #826, #58, .T. ) ;
#788 = VERTEX_POINT ( 'NONE', #781 ) ;
#789 = CARTESIAN_POINT ( 'NONE',  ( 3.718721658814843956, 58.75000000000000711, 2.500000000000000000 ) ) ;
#790 = DIRECTION ( 'NONE',  ( 1.000000000000000000, 0.000000000000000000, 0.000000000000000000 ) ) ;
#791 = DIRECTION ( 'NONE',  ( 1.000000000000000000, 0.000000000000000000, 0.000000000000000000 ) ) ;
#792 = APPLICATION_PROTOCOL_DEFINITION ( 'draft international standard', 'automotive_design', 1998, #819 ) ;
#793 = EDGE_LOOP ( 'NONE', ( #524, #471, #917, #492 ) ) ;
#794 = CARTESIAN_POINT ( 'NONE',  ( 1.880389934578945876, 67.61961006542102837, 0.000000000000000000 ) ) ;
#795 = EDGE_CURVE ( 'NONE', #582, #258, #411, .T. ) ;
#796 = FACE_OUTER_BOUND ( 'NONE', #997, .T. ) ;
#797 = CARTESIAN_POINT ( 'NONE',  ( 58.25000000000001421, 65.00000000000000000, 0.000000000000000000 ) ) ;
#798 = ORIENTED_EDGE ( 'NONE', *, *, #86, .T. ) ;
#799 = DIRECTION ( 'NONE',  ( 1.000000000000000000, 0.000000000000000000, 0.000000000000000000 ) ) ;
#800 = CARTESIAN_POINT ( 'NONE',  ( 61.50000000000004263, 11.25000000000000178, 0.000000000000000000 ) ) ;
#801 = EDGE_CURVE ( 'NONE', #1153, #134, #809, .T. ) ;
#802 = CONICAL_SURFACE ( 'NONE', #1059, 7.500000000000001776, 0.08726646259971666819 ) ;
#803 = DIRECTION ( 'NONE',  ( 1.000000000000000000, 0.000000000000000000, 0.000000000000000000 ) ) ;
#804 = CIRCLE ( 'NONE', #591, 3.000000000000002665 ) ;
#805 = VECTOR ( 'NONE', #610, 1000.000000000000114 ) ;
#806 = CIRCLE ( 'NONE', #297, 4.000000000000003553 ) ;
#807 = ORIENTED_EDGE ( 'NONE', *, *, #368, .T. ) ;
#808 = DIRECTION ( 'NONE',  ( 1.000000000000000000, 0.000000000000000000, 0.000000000000000000 ) ) ;
#809 = CIRCLE ( 'NONE', #331, 7.499999999999995559 ) ;
#810 = ORIENTED_EDGE ( 'NONE', *, *, #129, .T. ) ;
#811 = DIRECTION ( 'NONE',  ( 1.000000000000000000, 0.000000000000000000, 0.000000000000000000 ) ) ;
#812 = EDGE_CURVE ( 'NONE', #246, #1136, #986, .T. ) ;
#813 = DIRECTION ( 'NONE',  ( 0.000000000000000000, 1.000000000000000000, -0.000000000000000000 ) ) ;
#814 = EDGE_LOOP ( 'NONE', ( #531, #401, #1028, #1056 ) ) ;
#815 = FACE_OUTER_BOUND ( 'NONE', #936, .T. ) ;
#816 = VERTEX_POINT ( 'NONE', #529 ) ;
#817 = CARTESIAN_POINT ( 'NONE',  ( 4.281278341185221770, 58.75000000000000711, 2.500000000000000000 ) ) ;
#818 = CARTESIAN_POINT ( 'NONE',  ( 58.25000000000001421, 8.000000000000005329, 0.000000000000000000 ) ) ;
#819 = APPLICATION_CONTEXT ( 'automotive_design' ) ;
#820 = VERTEX_POINT ( 'NONE', #248 ) ;
#821 = LINE ( 'NONE', #729, #964 ) ;
#822 = DIRECTION ( 'NONE',  ( 0.08715574274765836016, 0.000000000000000000, 0.9961946980917455452 ) ) ;
#823 = LINE ( 'NONE', #10, #867 ) ;
#824 = AXIS2_PLACEMENT_3D ( 'NONE', #92, #276, #1006 ) ;
#825 = VECTOR ( 'NONE', #681, 1000.000000000000000 ) ;
#826 = VERTEX_POINT ( 'NONE', #423 ) ;
#827 = CARTESIAN_POINT ( 'NONE',  ( 63.70615939660581262, 7.913405820785503586, 0.000000000000000000 ) ) ;
#828 = ADVANCED_FACE ( 'NONE', ( #437 ), #49, .T. ) ;
#829 = CONICAL_SURFACE ( 'NONE', #278, 3.999999999999971578, 0.08726646259971666819 ) ;
#830 = ORIENTED_EDGE ( 'NONE', *, *, #1055, .T. ) ;
#831 = VECTOR ( 'NONE', #910, 1000.000000000000114 ) ;
#832 = LINE ( 'NONE', #1100, #447 ) ;
#833 = CARTESIAN_POINT ( 'NONE',  ( 10.75000000000001066, 8.000000000000005329, 2.500000000000000000 ) ) ;
#834 = ORIENTED_EDGE ( 'NONE', *, *, #579, .T. ) ;
#835 = FACE_OUTER_BOUND ( 'NONE', #722, .T. ) ;
#836 = EDGE_CURVE ( 'NONE', #1034, #993, #242, .T. ) ;
#837 = CARTESIAN_POINT ( 'NONE',  ( 5.414474314103106423, 61.90414782579706809, 2.500000000000000000 ) ) ;
#838 = VERTEX_POINT ( 'NONE', #1148 ) ;
#839 = ORIENTED_EDGE ( 'NONE', *, *, #778, .F. ) ;
#840 = CARTESIAN_POINT ( 'NONE',  ( 64.50000000000004263, 11.25000000000000178, 0.000000000000000000 ) ) ;
#841 = ADVANCED_FACE ( 'NONE', ( #895 ), #140, .T. ) ;
#842 = ORIENTED_EDGE ( 'NONE', *, *, #452, .F. ) ;
#843 = AXIS2_PLACEMENT_3D ( 'NONE', #48, #35, #1133 ) ;
#844 = ORIENTED_EDGE ( 'NONE', *, *, #916, .F. ) ;
#845 = DIRECTION ( 'NONE',  ( -3.182970800222280218E-18, -0.08715574274765837404, -0.9961946980917455452 ) ) ;
#846 = AXIS2_PLACEMENT_3D ( 'NONE', #135, #223, #402 ) ;
#847 = AXIS2_PLACEMENT_3D ( 'NONE', #840, #184, #474 ) ;
#848 = EDGE_CURVE ( 'NONE', #838, #484, #556, .T. ) ;
#849 = EDGE_LOOP ( 'NONE', ( #449, #956, #251, #252 ) ) ;
#850 = LINE ( 'NONE', #569, #783 ) ;
#851 = ORIENTED_EDGE ( 'NONE', *, *, #801, .F. ) ;
#852 = CARTESIAN_POINT ( 'NONE',  ( 10.75000000000001066, 62.00000000000000000, 0.000000000000000000 ) ) ;
#853 = CARTESIAN_POINT ( 'NONE',  ( 64.50000000000004263, 11.25000000000000178, 0.000000000000000000 ) ) ;
#854 = PRODUCT_DEFINITION_SHAPE ( 'NONE', 'NONE',  #296 ) ;
#855 = ADVANCED_FACE ( 'NONE', ( #597 ), #1019, .T. ) ;
#856 = ORIENTED_EDGE ( 'NONE', *, *, #1139, .F. ) ;
#857 = DIRECTION ( 'NONE',  ( 0.000000000000000000, 1.000000000000000000, 0.000000000000000000 ) ) ;
#858 = EDGE_LOOP ( 'NONE', ( #594, #882, #987, #950 ) ) ;
#859 = CARTESIAN_POINT ( 'NONE',  ( 7.500000000000000888, 11.25000000000000178, 0.000000000000000000 ) ) ;
#860 = DIRECTION ( 'NONE',  ( 1.000000000000000000, 0.000000000000000000, 0.000000000000000000 ) ) ;
#861 = DIRECTION ( 'NONE',  ( 0.000000000000000000, 0.000000000000000000, 1.000000000000000000 ) ) ;
#862 = CARTESIAN_POINT ( 'NONE',  ( 10.75000000000000888, 65.21872165881481465, 2.500000000000000000 ) ) ;
#863 = EDGE_LOOP ( 'NONE', ( #426, #684, #601, #154 ) ) ;
#864 = FACE_OUTER_BOUND ( 'NONE', #473, .T. ) ;
#865 = CONICAL_SURFACE ( 'NONE', #185, 3.000000000000002665, 0.08726646259971666819 ) ;
#866 = AXIS2_PLACEMENT_3D ( 'NONE', #552, #199, #363 ) ;
#867 = VECTOR ( 'NONE', #373, 1000.000000000000114 ) ;
#868 = CARTESIAN_POINT ( 'NONE',  ( 67.11961006542105679, 2.380389934578922340, 0.000000000000000000 ) ) ;
#869 = VECTOR ( 'NONE', #1127, 1000.000000000000000 ) ;
#870 = PRESENTATION_LAYER_ASSIGNMENT (  '', '', ( #244 ) ) ;
#871 = ORIENTED_EDGE ( 'NONE', *, *, #1176, .T. ) ;
#872 = VERTEX_POINT ( 'NONE', #519 ) ;
#873 = DIRECTION ( 'NONE',  ( 0.000000000000000000, 0.000000000000000000, 1.000000000000000000 ) ) ;
#874 = ADVANCED_FACE ( 'NONE', ( #1142 ), #802, .F. ) ;
#875 = CARTESIAN_POINT ( 'NONE',  ( 10.75000000000001066, 5.000000000000005329, 0.000000000000000000 ) ) ;
#876 = CARTESIAN_POINT ( 'NONE',  ( 58.25000000000001421, 8.000000000000005329, 2.500000000000000000 ) ) ;
#877 = ORIENTED_EDGE ( 'NONE', *, *, #1042, .F. ) ;
#878 = DIRECTION ( 'NONE',  ( -1.000000000000000000, -0.000000000000000000, -0.000000000000000000 ) ) ;
#879 = LINE ( 'NONE', #424, #766 ) ;
#880 = EDGE_CURVE ( 'NONE', #779, #993, #1165, .T. ) ;
#881 = LINE ( 'NONE', #421, #65 ) ;
#882 = ORIENTED_EDGE ( 'NONE', *, *, #288, .F. ) ;
#883 = DIRECTION ( 'NONE',  ( 1.000000000000000000, 0.000000000000000000, 0.000000000000000000 ) ) ;
#884 = LINE ( 'NONE', #73, #593 ) ;
#885 = CIRCLE ( 'NONE', #186, 3.781278341185192016 ) ;
#886 = CIRCLE ( 'NONE', #87, 3.781278341185160041 ) ;
#887 = EDGE_CURVE ( 'NONE', #710, #216, #1081, .T. ) ;
#888 = AXIS2_PLACEMENT_3D ( 'NONE', #415, #1143, #860 ) ;
#889 = ORIENTED_EDGE ( 'NONE', *, *, #255, .T. ) ;
#890 = ORIENTED_EDGE ( 'NONE', *, *, #319, .F. ) ;
#891 = CARTESIAN_POINT ( 'NONE',  ( 7.500000000000033751, 58.75000000000000711, 0.000000000000000000 ) ) ;
#892 = CARTESIAN_POINT ( 'NONE',  ( 7.500000000000000888, 11.25000000000000178, 0.000000000000000000 ) ) ;
#893 = DIRECTION ( 'NONE',  ( -0.000000000000000000, -0.000000000000000000, -1.000000000000000000 ) ) ;
#894 = ORIENTED_EDGE ( 'NONE', *, *, #787, .T. ) ;
#895 = FACE_OUTER_BOUND ( 'NONE', #1147, .T. ) ;
#896 = CARTESIAN_POINT ( 'NONE',  ( 10.75000000000000888, 65.00000000000000000, 0.000000000000000000 ) ) ;
#897 = PLANE ( 'NONE',  #27 ) ;
#898 = ORIENTED_EDGE ( 'NONE', *, *, #1066, .T. ) ;
#899 = FACE_OUTER_BOUND ( 'NONE', #212, .T. ) ;
#900 = EDGE_CURVE ( 'NONE', #57, #542, #536, .T. ) ;
#901 = CARTESIAN_POINT ( 'NONE',  ( 58.25000000000001421, 8.000000000000005329, 0.000000000000000000 ) ) ;
#902 = CIRCLE ( 'NONE', #387, 7.499999999999992895 ) ;
#903 = CARTESIAN_POINT ( 'NONE',  ( 5.894397124165434931, 61.28417430440600810, 0.000000000000000000 ) ) ;
#904 = VECTOR ( 'NONE', #925, 1000.000000000000000 ) ;
#905 = CIRCLE ( 'NONE', #764, 3.000000000000002665 ) ;
#906 = VECTOR ( 'NONE', #952, 1000.000000000000114 ) ;
#907 = ORIENTED_EDGE ( 'NONE', *, *, #1139, .T. ) ;
#908 = DIRECTION ( 'NONE',  ( 0.000000000000000000, 0.9961946980917455452, 0.08715574274765836016 ) ) ;
#909 = VECTOR ( 'NONE', #845, 1000.000000000000114 ) ;
#910 = DIRECTION ( 'NONE',  ( -0.000000000000000000, -0.08715574274765837404, -0.9961946980917455452 ) ) ;
#911 = DIRECTION ( 'NONE',  ( 1.000000000000000000, 0.000000000000000000, 0.000000000000000000 ) ) ;
#912 = ORIENTED_EDGE ( 'NONE', *, *, #355, .F. ) ;
#913 = CARTESIAN_POINT ( 'NONE',  ( 5.293840603394222022, 7.913405820785534672, 0.000000000000000000 ) ) ;
#914 = CARTESIAN_POINT ( 'NONE',  ( 4.281278341185221770, 58.75000000000000711, 2.500000000000000000 ) ) ;
#915 = LINE ( 'NONE', #628, #295 ) ;
#916 = EDGE_CURVE ( 'NONE', #1032, #427, #8, .T. ) ;
#917 = ORIENTED_EDGE ( 'NONE', *, *, #360, .T. ) ;
#918 = DIRECTION ( 'NONE',  ( 1.000000000000000000, 1.797938625234137895E-15, 0.000000000000000000 ) ) ;
#919 = PLANE ( 'NONE',  #429 ) ;
#920 = CARTESIAN_POINT ( 'NONE',  ( 1.880389934578952760, 2.380389934578968969, 2.500000000000000000 ) ) ;
#921 = EDGE_CURVE ( 'NONE', #32, #422, #260, .T. ) ;
#922 = VECTOR ( 'NONE', #740, 1000.000000000000114 ) ;
#923 = VECTOR ( 'NONE', #36, 1000.000000000000114 ) ;
#924 = VERTEX_POINT ( 'NONE', #1075 ) ;
#925 = DIRECTION ( 'NONE',  ( -1.000000000000000000, 0.000000000000000000, 0.000000000000000000 ) ) ;
#926 =( GEOMETRIC_REPRESENTATION_CONTEXT ( 3 ) GLOBAL_UNCERTAINTY_ASSIGNED_CONTEXT ( ( #1043 ) ) GLOBAL_UNIT_ASSIGNED_CONTEXT ( ( #1114, #38, #581 ) ) REPRESENTATION_CONTEXT ( 'NONE', 'WORKASPACE' ) );
#927 = VECTOR ( 'NONE', #738, 1000.000000000000114 ) ;
#928 = VECTOR ( 'NONE', #1071, 1000.000000000000000 ) ;
#929 = CARTESIAN_POINT ( 'NONE',  ( 65.50000000000004263, 11.25000000000000178, 0.000000000000000000 ) ) ;
#930 = CARTESIAN_POINT ( 'NONE',  ( 60.96893390693454506, 6.277337082698616122, 2.500000000000000000 ) ) ;
#931 = ORIENTED_EDGE ( 'NONE', *, *, #197, .F. ) ;
#932 = CARTESIAN_POINT ( 'NONE',  ( 67.11961006542105679, 67.61961006542108521, 0.000000000000000000 ) ) ;
#933 = ORIENTED_EDGE ( 'NONE', *, *, #953, .T. ) ;
#934 = DIRECTION ( 'NONE',  ( 0.000000000000000000, 0.000000000000000000, 1.000000000000000000 ) ) ;
#935 = EDGE_CURVE ( 'NONE', #980, #941, #804, .T. ) ;
#936 = EDGE_LOOP ( 'NONE', ( #362, #565, #208, #1157 ) ) ;
#937 = FILL_AREA_STYLE ('',( #217 ) ) ;
#938 = ORIENTED_EDGE ( 'NONE', *, *, #454, .T. ) ;
#939 = FACE_OUTER_BOUND ( 'NONE', #320, .T. ) ;
#940 = ADVANCED_FACE ( 'NONE', ( #525 ), #1130, .F. ) ;
#941 = VERTEX_POINT ( 'NONE', #1016 ) ;
#942 = CARTESIAN_POINT ( 'NONE',  ( 64.50000000000004263, 11.25000000000000178, 7.530789258985404998E-17 ) ) ;
#943 = VECTOR ( 'NONE', #857, 1000.000000000000000 ) ;
#944 = ORIENTED_EDGE ( 'NONE', *, *, #1134, .T. ) ;
#945 =( NAMED_UNIT ( * ) PLANE_ANGLE_UNIT ( ) SI_UNIT ( $, .RADIAN. ) );
#946 = AXIS2_PLACEMENT_3D ( 'NONE', #696, #959, #791 ) ;
#947 = VECTOR ( 'NONE', #451, 1000.000000000000000 ) ;
#948 = ORIENTED_EDGE ( 'NONE', *, *, #20, .T. ) ;
#949 = PRESENTATION_STYLE_ASSIGNMENT (( #321 ) ) ;
#950 = ORIENTED_EDGE ( 'NONE', *, *, #773, .T. ) ;
#951 = DIRECTION ( 'NONE',  ( 1.000000000000000000, 0.000000000000000000, 0.000000000000000000 ) ) ;
#952 = DIRECTION ( 'NONE',  ( -0.000000000000000000, 0.08715574274765837404, -0.9961946980917455452 ) ) ;
#953 = EDGE_CURVE ( 'NONE', #134, #114, #1149, .T. ) ;
#954 = ORIENTED_EDGE ( 'NONE', *, *, #756, .F. ) ;
#955 = LINE ( 'NONE', #664, #103 ) ;
#956 = ORIENTED_EDGE ( 'NONE', *, *, #999, .F. ) ;
#957 = CARTESIAN_POINT ( 'NONE',  ( 67.84270826524165443, 68.34270826524166864, 0.000000000000000000 ) ) ;
#958 = FACE_OUTER_BOUND ( 'NONE', #1080, .T. ) ;
#959 = DIRECTION ( 'NONE',  ( -0.000000000000000000, -0.000000000000000000, -1.000000000000000000 ) ) ;
#960 = EDGE_CURVE ( 'NONE', #258, #427, #443, .T. ) ;
#961 = EDGE_LOOP ( 'NONE', ( #1051, #1137, #379, #1015, #1162, #933, #71, #442, #30, #938, #266, #247, #807, #22, #889, #76 ) ) ;
#962 = CARTESIAN_POINT ( 'NONE',  ( 8.031066093065476252, 6.277337082698640103, 2.500000000000000000 ) ) ;
#963 = AXIS2_PLACEMENT_3D ( 'NONE', #219, #120, #951 ) ;
#964 = VECTOR ( 'NONE', #380, 1000.000000000000114 ) ;
#965 = AXIS2_PLACEMENT_3D ( 'NONE', #774, #701, #974 ) ;
#966 = DIRECTION ( 'NONE',  ( 0.000000000000000000, 0.000000000000000000, 1.000000000000000000 ) ) ;
#967 = AXIS2_PLACEMENT_3D ( 'NONE', #1164, #157, #515 ) ;
#968 = VECTOR ( 'NONE', #657, 1000.000000000000114 ) ;
#969 = EDGE_LOOP ( 'NONE', ( #1120, #654, #775, #948 ) ) ;
#970 = ORIENTED_EDGE ( 'NONE', *, *, #78, .T. ) ;
#971 = CARTESIAN_POINT ( 'NONE',  ( 58.25000000000001421, 65.78127834118518535, 2.500000000000000000 ) ) ;
#972 = ADVANCED_FACE ( 'NONE', ( #1098 ), #748, .T. ) ;
#973 = DIRECTION ( 'NONE',  ( -0.000000000000000000, -0.000000000000000000, -1.000000000000000000 ) ) ;
#974 = DIRECTION ( 'NONE',  ( 1.000000000000000000, 0.000000000000000000, 0.000000000000000000 ) ) ;
#975 = VERTEX_POINT ( 'NONE', #735 ) ;
#976 = CARTESIAN_POINT ( 'NONE',  ( 58.25000000000001421, 8.000000000000005329, 0.000000000000000000 ) ) ;
#977 = DIRECTION ( 'NONE',  ( 0.000000000000000000, 0.000000000000000000, 1.000000000000000000 ) ) ;
#978 = ADVANCED_FACE ( 'NONE', ( #899 ), #499, .F. ) ;
#979 = CARTESIAN_POINT ( 'NONE',  ( 63.70615939660581262, 62.08659417921450085, 0.000000000000000000 ) ) ;
#980 = VERTEX_POINT ( 'NONE', #469 ) ;
#981 = CARTESIAN_POINT ( 'NONE',  ( 10.75000000000001066, 8.000000000000005329, 0.000000000000000000 ) ) ;
#982 = CARTESIAN_POINT ( 'NONE',  ( 8.031066093065474476, 63.72266291730137056, 2.500000000000000000 ) ) ;
#983 = AXIS2_PLACEMENT_3D ( 'NONE', #1023, #1086, #209 ) ;
#984 = CIRCLE ( 'NONE', #632, 3.781278341185190239 ) ;
#985 = CIRCLE ( 'NONE', #466, 3.218721658814814202 ) ;
#986 = CIRCLE ( 'NONE', #767, 3.781278341185190239 ) ;
#987 = ORIENTED_EDGE ( 'NONE', *, *, #787, .F. ) ;
#988 = ORIENTED_EDGE ( 'NONE', *, *, #270, .T. ) ;
#989 = DIRECTION ( 'NONE',  ( -0.04806986520772595084, -0.07270083598423791871, -0.9961946980917455452 ) ) ;
#990 = FACE_OUTER_BOUND ( 'NONE', #580, .T. ) ;
#991 = DIRECTION ( 'NONE',  ( 0.000000000000000000, 0.9961946980917455452, 0.08715574274765836016 ) ) ;
#992 = ADVANCED_FACE ( 'NONE', ( #835 ), #668, .T. ) ;
#993 = VERTEX_POINT ( 'NONE', #913 ) ;
#994 = DIRECTION ( 'NONE',  ( 0.000000000000000000, 0.000000000000000000, 1.000000000000000000 ) ) ;
#995 = CARTESIAN_POINT ( 'NONE',  ( 60.78417430440602232, 6.394397124165407398, 0.000000000000000000 ) ) ;
#996 = FACE_OUTER_BOUND ( 'NONE', #685, .T. ) ;
#997 = EDGE_LOOP ( 'NONE', ( #181, #366, #326, #1119, #155, #409, #518, #658, #596, #1045, #432, #724, #1022, #856, #488, #455 ) ) ;
#998 = PLANE ( 'NONE',  #554 ) ;
#999 = EDGE_CURVE ( 'NONE', #131, #422, #821, .T. ) ;
#1000 = CARTESIAN_POINT ( 'NONE',  ( 58.25000000000001421, 4.000000000000003553, 0.000000000000000000 ) ) ;
#1001 = AXIS2_PLACEMENT_3D ( 'NONE', #98, #457, #822 ) ;
#1002 = CARTESIAN_POINT ( 'NONE',  ( 1.880389934578945876, 67.61961006542102837, 2.500000000000000000 ) ) ;
#1003 = AXIS2_PLACEMENT_3D ( 'NONE', #932, #575, #752 ) ;
#1004 = CIRCLE ( 'NONE', #1151, 3.781278341185190239 ) ;
#1005 = ORIENTED_EDGE ( 'NONE', *, *, #645, .T. ) ;
#1006 = DIRECTION ( 'NONE',  ( 1.000000000000000000, 4.438660981046775082E-15, 0.000000000000000000 ) ) ;
#1007 = CARTESIAN_POINT ( 'NONE',  ( 10.75000000000001066, 8.000000000000005329, 0.000000000000000000 ) ) ;
#1008 = EDGE_CURVE ( 'NONE', #216, #32, #1108, .T. ) ;
#1009 = DIRECTION ( 'NONE',  ( 1.000000000000000000, 0.000000000000000000, 0.000000000000000000 ) ) ;
#1010 = EDGE_LOOP ( 'NONE', ( #1089, #558, #290, #229 ) ) ;
#1011 = CARTESIAN_POINT ( 'NONE',  ( 67.84270826524165443, 68.34270826524166864, 2.500000000000000000 ) ) ;
#1012 = CARTESIAN_POINT ( 'NONE',  ( 67.84270826524164022, 1.657291734758330470, 0.000000000000000000 ) ) ;
#1013 = ADVANCED_FACE ( 'NONE', ( #291 ), #358, .T. ) ;
#1014 = FACE_OUTER_BOUND ( 'NONE', #396, .T. ) ;
#1015 = ORIENTED_EDGE ( 'NONE', *, *, #586, .T. ) ;
#1016 = CARTESIAN_POINT ( 'NONE',  ( 64.50000000000004263, 11.25000000000000178, 0.000000000000000000 ) ) ;
#1017 = CARTESIAN_POINT ( 'NONE',  ( 58.25000000000001421, 4.781278341185195124, 2.500000000000000000 ) ) ;
#1018 = DIRECTION ( 'NONE',  ( 0.000000000000000000, 0.000000000000000000, 1.000000000000000000 ) ) ;
#1019 = CONICAL_SURFACE ( 'NONE', #590, 4.000000000000000000, 0.08726646259971666819 ) ;
#1020 = VECTOR ( 'NONE', #450, 1000.000000000000114 ) ;
#1021 = CIRCLE ( 'NONE', #500, 7.281278341185192460 ) ;
#1022 = ORIENTED_EDGE ( 'NONE', *, *, #505, .F. ) ;
#1023 = CARTESIAN_POINT ( 'NONE',  ( 67.84270826524165443, 68.34270826524166864, 0.000000000000000000 ) ) ;
#1024 = AXIS2_PLACEMENT_3D ( 'NONE', #1061, #172, #700 ) ;
#1025 = ORIENTED_EDGE ( 'NONE', *, *, #1176, .F. ) ;
#1026 =( GEOMETRIC_REPRESENTATION_CONTEXT ( 3 ) GLOBAL_UNCERTAINTY_ASSIGNED_CONTEXT ( ( #173 ) ) GLOBAL_UNIT_ASSIGNED_CONTEXT ( ( #577, #945, #1038 ) ) REPRESENTATION_CONTEXT ( 'NONE', 'WORKASPACE' ) );
#1027 = LINE ( 'NONE', #7, #336 ) ;
#1028 = ORIENTED_EDGE ( 'NONE', *, *, #1042, .T. ) ;
#1029 = ADVANCED_FACE ( 'NONE', ( #815 ), #444, .F. ) ;
#1030 = ORIENTED_EDGE ( 'NONE', *, *, #115, .T. ) ;
#1031 = CARTESIAN_POINT ( 'NONE',  ( 10.75000000000001066, 4.000000000000005329, 0.000000000000000000 ) ) ;
#1032 = VERTEX_POINT ( 'NONE', #718 ) ;
#1033 = ORIENTED_EDGE ( 'NONE', *, *, #382, .T. ) ;
#1034 = VERTEX_POINT ( 'NONE', #642 ) ;
#1035 = LINE ( 'NONE', #942, #45 ) ;
#1036 = MECHANICAL_DESIGN_GEOMETRIC_PRESENTATION_REPRESENTATION (  '', ( #64 ), #926 ) ;
#1037 = EDGE_LOOP ( 'NONE', ( #218, #954, #877, #124, #1132, #574, #62, #68, #842, #40, #620, #349, #303, #1177, #150, #37 ) ) ;
#1038 =( NAMED_UNIT ( * ) SI_UNIT ( $, .STERADIAN. ) SOLID_ANGLE_UNIT ( ) );
#1039 = CLOSED_SHELL ( 'NONE', ( #283, #494, #683, #662, #841, #572, #992, #1029, #55, #1048, #390, #145, #1126, #633, #405, #874, #855, #1013, #828, #414, #167, #716, #121, #978, #721, #511, #972, #376, #231, #750, #523, #425, #540, #940 ) ) ;
#1040 = AXIS2_PLACEMENT_3D ( 'NONE', #833, #1106, #644 ) ;
#1041 = DIRECTION ( 'NONE',  ( -0.000000000000000000, -0.000000000000000000, -1.000000000000000000 ) ) ;
#1042 = EDGE_CURVE ( 'NONE', #339, #753, #388, .T. ) ;
#1043 = UNCERTAINTY_MEASURE_WITH_UNIT (LENGTH_MEASURE( 1.000000000000000082E-05 ), #1114, 'distance_accuracy_value', 'NONE');
#1044 = VERTEX_POINT ( 'NONE', #625 ) ;
#1045 = ORIENTED_EDGE ( 'NONE', *, *, #420, .F. ) ;
#1046 = CARTESIAN_POINT ( 'NONE',  ( 58.25000000000001421, 8.000000000000005329, 0.000000000000000000 ) ) ;
#1047 = CARTESIAN_POINT ( 'NONE',  ( 58.25000000000001421, 62.00000000000000000, 2.500000000000000000 ) ) ;
#1048 = ADVANCED_FACE ( 'NONE', ( #1090 ), #998, .T. ) ;
#1049 = EDGE_LOOP ( 'NONE', ( #624, #755, #1030, #1115 ) ) ;
#1050 = LINE ( 'NONE', #118, #943 ) ;
#1051 = ORIENTED_EDGE ( 'NONE', *, *, #1159, .T. ) ;
#1052 = DIRECTION ( 'NONE',  ( 0.9961946980917455452, 1.819076136235135850E-17, 0.08715574274765836016 ) ) ;
#1053 = CARTESIAN_POINT ( 'NONE',  ( 60.78417430440602232, 63.60560287583459882, 3.012315703594161999E-16 ) ) ;
#1054 = CARTESIAN_POINT ( 'NONE',  ( 10.75000000000001066, 5.000000000000006217, 0.000000000000000000 ) ) ;
#1055 = EDGE_CURVE ( 'NONE', #551, #1113, #194, .T. ) ;
#1056 = ORIENTED_EDGE ( 'NONE', *, *, #1083, .T. ) ;
#1057 = CARTESIAN_POINT ( 'NONE',  ( 67.11961006542105679, 67.61961006542108521, 0.000000000000000000 ) ) ;
#1058 = VECTOR ( 'NONE', #1104, 1000.000000000000114 ) ;
#1059 = AXIS2_PLACEMENT_3D ( 'NONE', #72, #1163, #350 ) ;
#1060 = CIRCLE ( 'NONE', #261, 4.000000000000003553 ) ;
#1061 = CARTESIAN_POINT ( 'NONE',  ( 58.25000000000001421, 62.00000000000000000, 0.000000000000000000 ) ) ;
#1062 = CIRCLE ( 'NONE', #408, 7.500000000000007105 ) ;
#1063 = EDGE_LOOP ( 'NONE', ( #970, #462, #630, #309, #1128, #241, #301, #417, #17, #741, #770, #894, #81, #898, #507, #96 ) ) ;
#1064 = ORIENTED_EDGE ( 'NONE', *, *, #566, .T. ) ;
#1065 = DIRECTION ( 'NONE',  ( 1.000000000000000000, 0.000000000000000000, 0.000000000000000000 ) ) ;
#1066 = EDGE_CURVE ( 'NONE', #1034, #315, #1167, .T. ) ;
#1067 = CARTESIAN_POINT ( 'NONE',  ( 61.58659417921450085, 5.793840603394206923, 0.000000000000000000 ) ) ;
#1068 = DIRECTION ( 'NONE',  ( 1.000000000000000000, -3.652049423109067210E-17, 0.000000000000000000 ) ) ;
#1069 = DIRECTION ( 'NONE',  ( 1.000000000000000000, 0.000000000000000000, 0.000000000000000000 ) ) ;
#1070 = VERTEX_POINT ( 'NONE', #6 ) ;
#1071 = DIRECTION ( 'NONE',  ( 1.826024711554533913E-17, -1.000000000000000000, -0.000000000000000000 ) ) ;
#1072 = PLANE ( 'NONE',  #573 ) ;
#1073 = DIRECTION ( 'NONE',  ( 0.000000000000000000, 0.000000000000000000, 1.000000000000000000 ) ) ;
#1074 = ORIENTED_EDGE ( 'NONE', *, *, #487, .T. ) ;
#1075 = CARTESIAN_POINT ( 'NONE',  ( 63.10560287583461303, 61.28417430440602232, 0.000000000000000000 ) ) ;
#1076 = DIRECTION ( 'NONE',  ( 1.000000000000000000, 0.000000000000000000, 0.000000000000000000 ) ) ;
#1077 = CONICAL_SURFACE ( 'NONE', #846, 4.000000000000000888, 0.08726646259971666819 ) ;
#1078 = VECTOR ( 'NONE', #1068, 1000.000000000000000 ) ;
#1079 = DIRECTION ( 'NONE',  ( -0.08715574274765837404, -0.000000000000000000, -0.9961946980917455452 ) ) ;
#1080 = EDGE_LOOP ( 'NONE', ( #43, #534, #702, #697 ) ) ;
#1081 = LINE ( 'NONE', #971, #763 ) ;
#1082 = DIRECTION ( 'NONE',  ( 1.000000000000000000, 0.000000000000000000, 0.000000000000000000 ) ) ;
#1083 = EDGE_CURVE ( 'NONE', #753, #924, #281, .T. ) ;
#1084 = CARTESIAN_POINT ( 'NONE',  ( 65.28127834118522799, 58.75000000000000711, 2.500000000000000000 ) ) ;
#1085 = ORIENTED_EDGE ( 'NONE', *, *, #609, .F. ) ;
#1086 = DIRECTION ( 'NONE',  ( 0.000000000000000000, 0.000000000000000000, 1.000000000000000000 ) ) ;
#1087 = CARTESIAN_POINT ( 'NONE',  ( 5.894397124165426938, 8.715825695594013212, 0.000000000000000000 ) ) ;
#1088 = LINE ( 'NONE', #274, #371 ) ;
#1089 = ORIENTED_EDGE ( 'NONE', *, *, #175, .T. ) ;
#1090 = FACE_OUTER_BOUND ( 'NONE', #757, .T. ) ;
#1091 = EDGE_CURVE ( 'NONE', #1136, #398, #26, .T. ) ;
#1092 = LINE ( 'NONE', #277, #1058 ) ;
#1093 =( GEOMETRIC_REPRESENTATION_CONTEXT ( 3 ) GLOBAL_UNCERTAINTY_ASSIGNED_CONTEXT ( ( #256 ) ) GLOBAL_UNIT_ASSIGNED_CONTEXT ( ( #33, #397, #659 ) ) REPRESENTATION_CONTEXT ( 'NONE', 'WORKASPACE' ) );
#1094 = CARTESIAN_POINT ( 'NONE',  ( 1.880389934578945876, 67.61961006542102837, 0.000000000000000000 ) ) ;
#1095 = CONICAL_SURFACE ( 'NONE', #123, 7.500000000000000000, 0.08726646259971666819 ) ;
#1096 = CIRCLE ( 'NONE', #1169, 7.718721658814809317 ) ;
#1097 = ORIENTED_EDGE ( 'NONE', *, *, #459, .F. ) ;
#1098 = FACE_OUTER_BOUND ( 'NONE', #746, .T. ) ;
#1099 = EDGE_CURVE ( 'NONE', #816, #1125, #101, .T. ) ;
#1100 = CARTESIAN_POINT ( 'NONE',  ( 63.10560287583461303, 8.715825695593974132, 7.530789258985404998E-17 ) ) ;
#1101 = DIRECTION ( 'NONE',  ( -0.000000000000000000, 1.000000000000000000, -0.000000000000000000 ) ) ;
#1102 = ORIENTED_EDGE ( 'NONE', *, *, #960, .T. ) ;
#1103 = CARTESIAN_POINT ( 'NONE',  ( 7.500000000000033751, 58.75000000000000711, 0.000000000000000000 ) ) ;
#1104 = DIRECTION ( 'NONE',  ( 0.04664583706704684973, -0.07362261458417869442, -0.9961946980917455452 ) ) ;
#1105 = PRODUCT_RELATED_PRODUCT_CATEGORY ( 'part', '', ( #679 ) ) ;
#1106 = DIRECTION ( 'NONE',  ( 0.000000000000000000, 0.000000000000000000, 1.000000000000000000 ) ) ;
#1107 = ORIENTED_EDGE ( 'NONE', *, *, #848, .T. ) ;
#1108 = LINE ( 'NONE', #461, #922 ) ;
#1109 = DIRECTION ( 'NONE',  ( 0.000000000000000000, 0.000000000000000000, 1.000000000000000000 ) ) ;
#1110 = EDGE_CURVE ( 'NONE', #385, #528, #955, .T. ) ;
#1111 = CIRCLE ( 'NONE', #147, 7.281278341185193348 ) ;
#1112 = AXIS2_PLACEMENT_3D ( 'NONE', #151, #694, #1065 ) ;
#1113 = VERTEX_POINT ( 'NONE', #862 ) ;
#1114 =( LENGTH_UNIT ( ) NAMED_UNIT ( * ) SI_UNIT ( .MILLI., .METRE. ) );
#1115 = ORIENTED_EDGE ( 'NONE', *, *, #215, .T. ) ;
#1116 = AXIS2_PLACEMENT_3D ( 'NONE', #1057, #340, #799 ) ;
#1117 = CARTESIAN_POINT ( 'NONE',  ( 3.500000000000033307, 58.75000000000000711, 0.000000000000000000 ) ) ;
#1118 = EDGE_CURVE ( 'NONE', #216, #131, #885, .T. ) ;
#1119 = ORIENTED_EDGE ( 'NONE', *, *, #183, .F. ) ;
#1120 = ORIENTED_EDGE ( 'NONE', *, *, #341, .T. ) ;
#1121 = CARTESIAN_POINT ( 'NONE',  ( 3.500000000000030198, 11.25000000000000355, 0.000000000000000000 ) ) ;
#1122 = ORIENTED_EDGE ( 'NONE', *, *, #446, .F. ) ;
#1123 = SURFACE_STYLE_FILL_AREA ( #937 ) ;
#1124 = APPLICATION_CONTEXT ( 'automotive_design' ) ;
#1125 = VERTEX_POINT ( 'NONE', #410 ) ;
#1126 = ADVANCED_FACE ( 'NONE', ( #1129 ), #1077, .T. ) ;
#1127 = DIRECTION ( 'NONE',  ( 1.826024711554533913E-17, -1.000000000000000000, 0.000000000000000000 ) ) ;
#1128 = ORIENTED_EDGE ( 'NONE', *, *, #812, .T. ) ;
#1129 = FACE_OUTER_BOUND ( 'NONE', #1172, .T. ) ;
#1130 = CONICAL_SURFACE ( 'NONE', #351, 3.000000000000002665, 0.08726646259971666819 ) ;
#1131 = AXIS2_PLACEMENT_3D ( 'NONE', #541, #893, #911 ) ;
#1132 = ORIENTED_EDGE ( 'NONE', *, *, #304, .F. ) ;
#1133 = DIRECTION ( 'NONE',  ( 1.000000000000000000, 0.000000000000000000, 0.000000000000000000 ) ) ;
#1134 = EDGE_CURVE ( 'NONE', #678, #941, #1035, .T. ) ;
#1135 = LINE ( 'NONE', #1053, #88 ) ;
#1136 = VERTEX_POINT ( 'NONE', #394 ) ;
#1137 = ORIENTED_EDGE ( 'NONE', *, *, #900, .T. ) ;
#1138 = CARTESIAN_POINT ( 'NONE',  ( 10.75000000000001066, 8.000000000000005329, 0.000000000000000000 ) ) ;
#1139 = EDGE_CURVE ( 'NONE', #788, #563, #1050, .T. ) ;
#1140 = CARTESIAN_POINT ( 'NONE',  ( 10.75000000000001066, 4.781278341185195124, 2.500000000000000000 ) ) ;
#1141 = ORIENTED_EDGE ( 'NONE', *, *, #4, .F. ) ;
#1142 = FACE_OUTER_BOUND ( 'NONE', #327, .T. ) ;
#1143 = DIRECTION ( 'NONE',  ( 0.000000000000000000, 0.000000000000000000, 1.000000000000000000 ) ) ;
#1144 = ADVANCED_BREP_SHAPE_REPRESENTATION ( '70x70 back seal', ( #682, #370 ), #1093 ) ;
#1145 = EDGE_CURVE ( 'NONE', #385, #816, #221, .T. ) ;
#1146 = DIRECTION ( 'NONE',  ( 1.000000000000000000, 0.000000000000000000, 0.000000000000000000 ) ) ;
#1147 = EDGE_LOOP ( 'NONE', ( #393, #1, #739, #383 ) ) ;
#1148 = CARTESIAN_POINT ( 'NONE',  ( 5.293840603394230016, 62.08659417921447954, 0.000000000000000000 ) ) ;
#1149 = CIRCLE ( 'NONE', #611, 3.000000000000000000 ) ;
#1150 = FACE_OUTER_BOUND ( 'NONE', #1049, .T. ) ;
#1151 = AXIS2_PLACEMENT_3D ( 'NONE', #627, #725, #553 ) ;
#1152 = VERTEX_POINT ( 'NONE', #677 ) ;
#1153 = VERTEX_POINT ( 'NONE', #477 ) ;
#1154 = DIRECTION ( 'NONE',  ( -0.000000000000000000, -0.000000000000000000, -1.000000000000000000 ) ) ;
#1155 = DIRECTION ( 'NONE',  ( -0.000000000000000000, -0.000000000000000000, -1.000000000000000000 ) ) ;
#1156 = CARTESIAN_POINT ( 'NONE',  ( 61.58659417921450085, 64.20615939660579841, -7.530789258985404998E-17 ) ) ;
#1157 = ORIENTED_EDGE ( 'NONE', *, *, #325, .T. ) ;
#1158 = CARTESIAN_POINT ( 'NONE',  ( 61.50000000000004263, 58.75000000000000711, 2.500000000000000000 ) ) ;
#1159 = EDGE_CURVE ( 'NONE', #924, #57, #332, .T. ) ;
#1160 = CARTESIAN_POINT ( 'NONE',  ( 7.413405820785521350, 64.20615939660578420, 0.000000000000000000 ) ) ;
#1161 = CARTESIAN_POINT ( 'NONE',  ( 58.25000000000001421, 66.00000000000000000, 0.000000000000000000 ) ) ;
#1162 = ORIENTED_EDGE ( 'NONE', *, *, #801, .T. ) ;
#1163 = DIRECTION ( 'NONE',  ( 0.000000000000000000, 0.000000000000000000, 1.000000000000000000 ) ) ;
#1164 = CARTESIAN_POINT ( 'NONE',  ( 10.75000000000001066, 8.000000000000005329, 0.000000000000000000 ) ) ;
#1165 = CIRCLE ( 'NONE', #464, 3.999999999999971578 ) ;
#1166 = EDGE_CURVE ( 'NONE', #344, #788, #850, .T. ) ;
#1167 = CIRCLE ( 'NONE', #824, 7.718721658814811093 ) ;
#1168 = CONICAL_SURFACE ( 'NONE', #965, 4.000000000000003553, 0.08726646259971666819 ) ;
#1169 = AXIS2_PLACEMENT_3D ( 'NONE', #713, #1155, #1076 ) ;
#1170 = CONICAL_SURFACE ( 'NONE', #963, 4.000000000000003553, 0.08726646259971666819 ) ;
#1171 = DIRECTION ( 'NONE',  ( 0.08715574274765837404, -0.000000000000000000, -0.9961946980917455452 ) ) ;
#1172 = EDGE_LOOP ( 'NONE', ( #1107, #693, #1097, #717 ) ) ;
#1173 = DIRECTION ( 'NONE',  ( -0.000000000000000000, -0.000000000000000000, -1.000000000000000000 ) ) ;
#1174 = FACE_OUTER_BOUND ( 'NONE', #119, .T. ) ;
#1175 = CARTESIAN_POINT ( 'NONE',  ( 10.75000000000001066, 5.000000000000005329, 0.000000000000000000 ) ) ;
#1176 = EDGE_CURVE ( 'NONE', #1113, #503, #564, .T. ) ;
#1177 = ORIENTED_EDGE ( 'NONE', *, *, #129, .F. ) ;
#1178 = CARTESIAN_POINT ( 'NONE',  ( 61.50000000000004263, 58.75000000000000711, 0.000000000000000000 ) ) ;
ENDSEC;
END-ISO-10303-21;
