ISO-10303-21;
HEADER;
FILE_DESCRIPTION (( 'STEP AP214' ),
    '1' );
FILE_NAME ('buck converter shield.STEP',
    '2026-07-13T19:27:27',
    ( '' ),
    ( '' ),
    'SwSTEP 2.0',
    'SolidWorks 2025',
    '' );
FILE_SCHEMA (( 'AUTOMOTIVE_DESIGN' ));
ENDSEC;

DATA;
#1 = ORIENTED_EDGE ( 'NONE', *, *, #567, .F. ) ;
#2 = DIRECTION ( 'NONE',  ( 0.000000000000000000, 1.000000000000000000, -0.000000000000000000 ) ) ;
#3 = ORIENTED_EDGE ( 'NONE', *, *, #424, .F. ) ;
#4 = APPLICATION_PROTOCOL_DEFINITION ( 'draft international standard', 'automotive_design', 1998, #190 ) ;
#5 = LINE ( 'NONE', #594, #596 ) ;
#6 = ORIENTED_EDGE ( 'NONE', *, *, #39, .T. ) ;
#7 = PLANE ( 'NONE',  #504 ) ;
#8 = ORIENTED_EDGE ( 'NONE', *, *, #45, .F. ) ;
#9 = DIRECTION ( 'NONE',  ( 0.000000000000000000, 0.000000000000000000, 1.000000000000000000 ) ) ;
#10 = ORIENTED_EDGE ( 'NONE', *, *, #90, .T. ) ;
#11 = VECTOR ( 'NONE', #565, 1000.000000000000000 ) ;
#12 = DIRECTION ( 'NONE',  ( 0.000000000000000000, -1.000000000000000000, 0.000000000000000000 ) ) ;
#13 = LINE ( 'NONE', #106, #298 ) ;
#14 = PRODUCT ( 'buck converter shield', 'buck converter shield', '', ( #88 ) ) ;
#15 =( GEOMETRIC_REPRESENTATION_CONTEXT ( 3 ) GLOBAL_UNCERTAINTY_ASSIGNED_CONTEXT ( ( #398 ) ) GLOBAL_UNIT_ASSIGNED_CONTEXT ( ( #42, #50, #510 ) ) REPRESENTATION_CONTEXT ( 'NONE', 'WORKASPACE' ) );
#16 = EDGE_CURVE ( 'NONE', #145, #543, #193, .T. ) ;
#17 = CARTESIAN_POINT ( 'NONE',  ( -65.25000000000000000, -24.97748147472007574, -31.50000000000000000 ) ) ;
#18 = ORIENTED_EDGE ( 'NONE', *, *, #305, .F. ) ;
#19 = MANIFOLD_SOLID_BREP ( 'Cut-Extrude1', #450 ) ;
#20 = DIRECTION ( 'NONE',  ( 0.000000000000000000, 0.000000000000000000, 1.000000000000000000 ) ) ;
#21 = VERTEX_POINT ( 'NONE', #244 ) ;
#22 = LINE ( 'NONE', #491, #157 ) ;
#23 = VECTOR ( 'NONE', #312, 1000.000000000000000 ) ;
#24 = CARTESIAN_POINT ( 'NONE',  ( 0.000000000000000000, -9.477481474720075738, -33.00000000000000000 ) ) ;
#25 = VECTOR ( 'NONE', #137, 1000.000000000000000 ) ;
#26 = LINE ( 'NONE', #84, #335 ) ;
#27 = ORIENTED_EDGE ( 'NONE', *, *, #352, .T. ) ;
#28 = DIRECTION ( 'NONE',  ( 0.000000000000000000, -1.000000000000000000, 0.000000000000000000 ) ) ;
#29 = PLANE ( 'NONE',  #462 ) ;
#30 = ORIENTED_EDGE ( 'NONE', *, *, #270, .T. ) ;
#31 = PRODUCT_RELATED_PRODUCT_CATEGORY ( 'part', '', ( #14 ) ) ;
#32 = CARTESIAN_POINT ( 'NONE',  ( -0.000000000000000000, -9.477481474720075738, -33.00000000000000000 ) ) ;
#33 = DIRECTION ( 'NONE',  ( 1.000000000000000000, 0.000000000000000000, 0.000000000000000000 ) ) ;
#34 = ORIENTED_EDGE ( 'NONE', *, *, #580, .F. ) ;
#35 = DIRECTION ( 'NONE',  ( 1.000000000000000000, 0.000000000000000000, 0.000000000000000000 ) ) ;
#36 = EDGE_CURVE ( 'NONE', #502, #38, #13, .T. ) ;
#37 = DIRECTION ( 'NONE',  ( -1.000000000000000000, 0.000000000000000000, 0.000000000000000000 ) ) ;
#38 = VERTEX_POINT ( 'NONE', #164 ) ;
#39 = EDGE_CURVE ( 'NONE', #464, #395, #452, .T. ) ;
#40 = LINE ( 'NONE', #399, #368 ) ;
#41 = VERTEX_POINT ( 'NONE', #116 ) ;
#42 =( LENGTH_UNIT ( ) NAMED_UNIT ( * ) SI_UNIT ( .MILLI., .METRE. ) );
#43 = DIRECTION ( 'NONE',  ( -1.000000000000000000, 0.000000000000000000, 0.000000000000000000 ) ) ;
#44 = VERTEX_POINT ( 'NONE', #118 ) ;
#45 = EDGE_CURVE ( 'NONE', #67, #365, #303, .T. ) ;
#46 = CARTESIAN_POINT ( 'NONE',  ( -37.75000000000000711, -9.477481474720075738, -33.00000000000000000 ) ) ;
#47 = ORIENTED_EDGE ( 'NONE', *, *, #527, .F. ) ;
#48 = CARTESIAN_POINT ( 'NONE',  ( -63.75000000000000000, 0.000000000000000000, -33.00000000000000000 ) ) ;
#49 = EDGE_LOOP ( 'NONE', ( #152, #236, #1, #512, #432, #185, #191, #6 ) ) ;
#50 =( NAMED_UNIT ( * ) PLANE_ANGLE_UNIT ( ) SI_UNIT ( $, .RADIAN. ) );
#51 = LINE ( 'NONE', #284, #369 ) ;
#52 = VERTEX_POINT ( 'NONE', #306 ) ;
#53 = ADVANCED_FACE ( 'NONE', ( #494 ), #161, .F. ) ;
#54 = LINE ( 'NONE', #186, #95 ) ;
#55 = ORIENTED_EDGE ( 'NONE', *, *, #222, .T. ) ;
#56 = DIRECTION ( 'NONE',  ( -1.000000000000000000, 0.000000000000000000, 0.000000000000000000 ) ) ;
#57 = EDGE_CURVE ( 'NONE', #78, #145, #40, .T. ) ;
#58 = ORIENTED_EDGE ( 'NONE', *, *, #487, .F. ) ;
#59 = DIRECTION ( 'NONE',  ( -1.000000000000000000, 0.000000000000000000, 0.000000000000000000 ) ) ;
#60 = EDGE_CURVE ( 'NONE', #568, #464, #74, .T. ) ;
#61 = STYLED_ITEM ( 'NONE', ( #348 ), #19 ) ;
#62 = PRODUCT_DEFINITION_FORMATION_WITH_SPECIFIED_SOURCE ( 'Symmetric', '', #14, .NOT_KNOWN. ) ;
#63 = CARTESIAN_POINT ( 'NONE',  ( 0.000000000000000000, -23.47748147472007219, 0.000000000000000000 ) ) ;
#64 = VERTEX_POINT ( 'NONE', #410 ) ;
#65 = AXIS2_PLACEMENT_3D ( 'NONE', #488, #566, #105 ) ;
#66 = PLANE ( 'NONE',  #65 ) ;
#67 = VERTEX_POINT ( 'NONE', #219 ) ;
#68 = CARTESIAN_POINT ( 'NONE',  ( 0.000000000000000000, 0.000000000000000000, 0.000000000000000000 ) ) ;
#69 = ORIENTED_EDGE ( 'NONE', *, *, #200, .F. ) ;
#70 = CARTESIAN_POINT ( 'NONE',  ( 0.000000000000000000, 0.000000000000000000, -31.50000000000000000 ) ) ;
#71 = LINE ( 'NONE', #496, #245 ) ;
#72 = CARTESIAN_POINT ( 'NONE',  ( -37.75000000000000711, -25.47748147472007574, -33.00000000000000000 ) ) ;
#73 = VECTOR ( 'NONE', #564, 1000.000000000000000 ) ;
#74 = LINE ( 'NONE', #405, #518 ) ;
#75 = ORIENTED_EDGE ( 'NONE', *, *, #593, .T. ) ;
#76 = DIRECTION ( 'NONE',  ( -1.000000000000000000, 0.000000000000000000, -0.000000000000000000 ) ) ;
#77 = DIRECTION ( 'NONE',  ( 0.000000000000000000, 0.000000000000000000, 1.000000000000000000 ) ) ;
#78 = VERTEX_POINT ( 'NONE', #588 ) ;
#79 = EDGE_CURVE ( 'NONE', #38, #263, #592, .T. ) ;
#80 = DIRECTION ( 'NONE',  ( 0.000000000000000000, 1.000000000000000000, -0.000000000000000000 ) ) ;
#81 = CARTESIAN_POINT ( 'NONE',  ( -65.75000000000000000, 0.000000000000000000, -33.00000000000000000 ) ) ;
#82 = EDGE_LOOP ( 'NONE', ( #378, #291, #272, #552 ) ) ;
#83 = LINE ( 'NONE', #160, #238 ) ;
#84 = CARTESIAN_POINT ( 'NONE',  ( -39.75000000000000711, 0.000000000000000000, 0.000000000000000000 ) ) ;
#85 = EDGE_LOOP ( 'NONE', ( #307, #418, #538, #337, #301, #426, #135, #154 ) ) ;
#86 = DIRECTION ( 'NONE',  ( 0.000000000000000000, 0.000000000000000000, 1.000000000000000000 ) ) ;
#87 = ORIENTED_EDGE ( 'NONE', *, *, #465, .F. ) ;
#88 = PRODUCT_CONTEXT ( 'NONE', #413, 'mechanical' ) ;
#89 = CARTESIAN_POINT ( 'NONE',  ( -39.75000000000000711, 0.000000000000000000, -33.00000000000000000 ) ) ;
#90 = EDGE_CURVE ( 'NONE', #486, #230, #362, .T. ) ;
#91 = ORIENTED_EDGE ( 'NONE', *, *, #465, .T. ) ;
#92 = FACE_OUTER_BOUND ( 'NONE', #509, .T. ) ;
#93 = VERTEX_POINT ( 'NONE', #170 ) ;
#94 = EDGE_CURVE ( 'NONE', #333, #263, #260, .T. ) ;
#95 = VECTOR ( 'NONE', #366, 1000.000000000000000 ) ;
#96 = DIRECTION ( 'NONE',  ( 1.000000000000000000, 0.000000000000000000, 0.000000000000000000 ) ) ;
#97 = ORIENTED_EDGE ( 'NONE', *, *, #79, .T. ) ;
#98 = EDGE_CURVE ( 'NONE', #38, #220, #71, .T. ) ;
#99 = LINE ( 'NONE', #473, #104 ) ;
#100 = ORIENTED_EDGE ( 'NONE', *, *, #334, .F. ) ;
#101 = DIRECTION ( 'NONE',  ( -1.000000000000000000, 0.000000000000000000, 0.000000000000000000 ) ) ;
#102 =( LENGTH_UNIT ( ) NAMED_UNIT ( * ) SI_UNIT ( .MILLI., .METRE. ) );
#103 = PRESENTATION_LAYER_ASSIGNMENT (  '', '', ( #388 ) ) ;
#104 = VECTOR ( 'NONE', #383, 1000.000000000000000 ) ;
#105 = DIRECTION ( 'NONE',  ( 0.000000000000000000, 0.000000000000000000, 1.000000000000000000 ) ) ;
#106 = CARTESIAN_POINT ( 'NONE',  ( -63.75000000000000000, 0.000000000000000000, -33.00000000000000000 ) ) ;
#107 = LINE ( 'NONE', #293, #582 ) ;
#108 = ORIENTED_EDGE ( 'NONE', *, *, #159, .T. ) ;
#109 = CARTESIAN_POINT ( 'NONE',  ( -65.75000000000000000, 0.000000000000000000, 0.000000000000000000 ) ) ;
#110 = EDGE_LOOP ( 'NONE', ( #209, #550, #139, #34 ) ) ;
#111 = CARTESIAN_POINT ( 'NONE',  ( -0.000000000000000000, -9.477481474720075738, 0.000000000000000000 ) ) ;
#112 = ORIENTED_EDGE ( 'NONE', *, *, #382, .T. ) ;
#113 = ADVANCED_FACE ( 'NONE', ( #364 ), #208, .T. ) ;
#114 = CARTESIAN_POINT ( 'NONE',  ( 0.000000000000000000, -24.97748147472007574, -31.50000000000000000 ) ) ;
#115 = UNCERTAINTY_MEASURE_WITH_UNIT (LENGTH_MEASURE( 1.000000000000000082E-05 ), #102, 'distance_accuracy_value', 'NONE');
#116 = CARTESIAN_POINT ( 'NONE',  ( -65.75000000000000000, -9.477481474720075738, -33.00000000000000000 ) ) ;
#117 = LINE ( 'NONE', #447, #427 ) ;
#118 = CARTESIAN_POINT ( 'NONE',  ( -37.75000000000000711, -25.47748147472007574, -1.500000000000000000 ) ) ;
#119 = ADVANCED_BREP_SHAPE_REPRESENTATION ( 'buck converter shield', ( #19, #545 ), #198 ) ;
#120 = VECTOR ( 'NONE', #456, 1000.000000000000000 ) ;
#121 = PRODUCT_DEFINITION_CONTEXT ( 'detailed design', #190, 'design' ) ;
#122 = DIRECTION ( 'NONE',  ( 1.000000000000000000, 0.000000000000000000, 0.000000000000000000 ) ) ;
#123 = DIRECTION ( 'NONE',  ( 0.000000000000000000, -1.000000000000000000, 0.000000000000000000 ) ) ;
#124 = ORIENTED_EDGE ( 'NONE', *, *, #159, .F. ) ;
#125 = DIRECTION ( 'NONE',  ( -0.000000000000000000, 0.000000000000000000, 1.000000000000000000 ) ) ;
#126 = DIRECTION ( 'NONE',  ( 1.000000000000000000, 0.000000000000000000, 0.000000000000000000 ) ) ;
#127 = CARTESIAN_POINT ( 'NONE',  ( -65.25000000000000000, 0.000000000000000000, -31.50000000000000000 ) ) ;
#128 = AXIS2_PLACEMENT_3D ( 'NONE', #442, #501, #77 ) ;
#129 = FACE_OUTER_BOUND ( 'NONE', #85, .T. ) ;
#130 = ORIENTED_EDGE ( 'NONE', *, *, #343, .F. ) ;
#131 = DIRECTION ( 'NONE',  ( 0.000000000000000000, 0.000000000000000000, 1.000000000000000000 ) ) ;
#132 = CARTESIAN_POINT ( 'NONE',  ( -0.000000000000000000, -25.47748147472007574, -33.00000000000000000 ) ) ;
#133 = ADVANCED_FACE ( 'NONE', ( #129 ), #256, .T. ) ;
#134 = FACE_OUTER_BOUND ( 'NONE', #514, .T. ) ;
#135 = ORIENTED_EDGE ( 'NONE', *, *, #439, .F. ) ;
#136 = SURFACE_STYLE_FILL_AREA ( #458 ) ;
#137 = DIRECTION ( 'NONE',  ( -1.000000000000000000, 0.000000000000000000, 0.000000000000000000 ) ) ;
#138 = EDGE_CURVE ( 'NONE', #365, #252, #26, .T. ) ;
#139 = ORIENTED_EDGE ( 'NONE', *, *, #356, .F. ) ;
#140 = PLANE ( 'NONE',  #281 ) ;
#141 = ORIENTED_EDGE ( 'NONE', *, *, #210, .T. ) ;
#142 = AXIS2_PLACEMENT_3D ( 'NONE', #146, #59, #345 ) ;
#143 = ADVANCED_FACE ( 'NONE', ( #531 ), #29, .F. ) ;
#144 = LINE ( 'NONE', #319, #537 ) ;
#145 = VERTEX_POINT ( 'NONE', #584 ) ;
#146 = CARTESIAN_POINT ( 'NONE',  ( -37.75000000000000711, 0.000000000000000000, -33.00000000000000000 ) ) ;
#147 = ORIENTED_EDGE ( 'NONE', *, *, #39, .F. ) ;
#148 = AXIS2_PLACEMENT_3D ( 'NONE', #323, #508, #96 ) ;
#149 = CARTESIAN_POINT ( 'NONE',  ( -0.000000000000000000, -9.477481474720075738, -33.00000000000000000 ) ) ;
#150 = SURFACE_STYLE_USAGE ( .BOTH. , #562 ) ;
#151 = CARTESIAN_POINT ( 'NONE',  ( -39.75000000000000711, -9.477481474720075738, -33.00000000000000000 ) ) ;
#152 = ORIENTED_EDGE ( 'NONE', *, *, #483, .T. ) ;
#153 = FACE_OUTER_BOUND ( 'NONE', #239, .T. ) ;
#154 = ORIENTED_EDGE ( 'NONE', *, *, #379, .T. ) ;
#155 = CARTESIAN_POINT ( 'NONE',  ( -39.75000000000000711, -9.477481474720075738, 0.000000000000000000 ) ) ;
#156 = ORIENTED_EDGE ( 'NONE', *, *, #36, .T. ) ;
#157 = VECTOR ( 'NONE', #211, 1000.000000000000000 ) ;
#158 = CARTESIAN_POINT ( 'NONE',  ( -38.25000000000000711, -24.97748147472007574, -1.500000000000000000 ) ) ;
#159 = EDGE_CURVE ( 'NONE', #225, #543, #168, .T. ) ;
#160 = CARTESIAN_POINT ( 'NONE',  ( 0.000000000000000000, -9.477481474720075738, -31.50000000000000000 ) ) ;
#161 = PLANE ( 'NONE',  #288 ) ;
#162 = ORIENTED_EDGE ( 'NONE', *, *, #460, .F. ) ;
#163 = DIRECTION ( 'NONE',  ( 0.000000000000000000, -1.000000000000000000, 0.000000000000000000 ) ) ;
#164 = CARTESIAN_POINT ( 'NONE',  ( -63.75000000000000000, -23.47748147472007219, -33.00000000000000000 ) ) ;
#165 = ORIENTED_EDGE ( 'NONE', *, *, #597, .F. ) ;
#166 = FACE_OUTER_BOUND ( 'NONE', #195, .T. ) ;
#167 = ADVANCED_FACE ( 'NONE', ( #313 ), #499, .T. ) ;
#168 = LINE ( 'NONE', #540, #264 ) ;
#169 = DIRECTION ( 'NONE',  ( 0.000000000000000000, 0.000000000000000000, 1.000000000000000000 ) ) ;
#170 = CARTESIAN_POINT ( 'NONE',  ( -65.75000000000000000, -25.47748147472007574, 0.000000000000000000 ) ) ;
#171 = ORIENTED_EDGE ( 'NONE', *, *, #45, .T. ) ;
#172 = DIRECTION ( 'NONE',  ( 0.000000000000000000, 0.000000000000000000, 1.000000000000000000 ) ) ;
#173 = EDGE_LOOP ( 'NONE', ( #579, #479, #497, #523, #415, #8, #47, #91 ) ) ;
#174 = ADVANCED_FACE ( 'NONE', ( #425 ), #177, .F. ) ;
#175 = SURFACE_SIDE_STYLE ('',( #136 ) ) ;
#176 = VECTOR ( 'NONE', #9, 1000.000000000000000 ) ;
#177 = PLANE ( 'NONE',  #148 ) ;
#178 = VECTOR ( 'NONE', #12, 1000.000000000000000 ) ;
#179 = VERTEX_POINT ( 'NONE', #546 ) ;
#180 = CARTESIAN_POINT ( 'NONE',  ( -39.75000000000000711, -23.47748147472007219, 0.000000000000000000 ) ) ;
#181 = EDGE_LOOP ( 'NONE', ( #147, #162, #516, #30 ) ) ;
#182 = DIRECTION ( 'NONE',  ( 0.000000000000000000, 0.000000000000000000, 1.000000000000000000 ) ) ;
#183 = EDGE_CURVE ( 'NONE', #247, #220, #429, .T. ) ;
#184 = CARTESIAN_POINT ( 'NONE',  ( -65.25000000000000000, 0.000000000000000000, -1.500000000000000000 ) ) ;
#185 = ORIENTED_EDGE ( 'NONE', *, *, #403, .T. ) ;
#186 = CARTESIAN_POINT ( 'NONE',  ( -65.75000000000000000, 0.000000000000000000, -33.00000000000000000 ) ) ;
#187 = AXIS2_PLACEMENT_3D ( 'NONE', #114, #266, #532 ) ;
#188 = ORIENTED_EDGE ( 'NONE', *, *, #419, .F. ) ;
#189 = LINE ( 'NONE', #109, #178 ) ;
#190 = APPLICATION_CONTEXT ( 'automotive_design' ) ;
#191 = ORIENTED_EDGE ( 'NONE', *, *, #60, .T. ) ;
#192 = LINE ( 'NONE', #433, #290 ) ;
#193 = LINE ( 'NONE', #389, #11 ) ;
#194 = DIRECTION ( 'NONE',  ( -1.000000000000000000, 0.000000000000000000, 0.000000000000000000 ) ) ;
#195 = EDGE_LOOP ( 'NONE', ( #586, #321, #69, #557 ) ) ;
#196 = COLOUR_RGB ( '',0.7960784313725489669, 0.8235294117647058432, 0.9372549019607843146 ) ;
#197 = VECTOR ( 'NONE', #221, 1000.000000000000000 ) ;
#198 =( GEOMETRIC_REPRESENTATION_CONTEXT ( 3 ) GLOBAL_UNCERTAINTY_ASSIGNED_CONTEXT ( ( #404 ) ) GLOBAL_UNIT_ASSIGNED_CONTEXT ( ( #372, #275, #505 ) ) REPRESENTATION_CONTEXT ( 'NONE', 'WORKASPACE' ) );
#199 = LINE ( 'NONE', #253, #341 ) ;
#200 = EDGE_CURVE ( 'NONE', #521, #64, #370, .T. ) ;
#201 = ORIENTED_EDGE ( 'NONE', *, *, #560, .T. ) ;
#202 = LINE ( 'NONE', #431, #428 ) ;
#203 = EDGE_CURVE ( 'NONE', #449, #225, #598, .T. ) ;
#204 = CARTESIAN_POINT ( 'NONE',  ( -37.75000000000000711, 0.000000000000000000, -33.00000000000000000 ) ) ;
#205 = VECTOR ( 'NONE', #182, 1000.000000000000000 ) ;
#206 = VECTOR ( 'NONE', #468, 1000.000000000000000 ) ;
#207 = DIRECTION ( 'NONE',  ( 0.000000000000000000, 1.000000000000000000, -0.000000000000000000 ) ) ;
#208 = PLANE ( 'NONE',  #295 ) ;
#209 = ORIENTED_EDGE ( 'NONE', *, *, #589, .T. ) ;
#210 = EDGE_CURVE ( 'NONE', #64, #568, #5, .T. ) ;
#211 = DIRECTION ( 'NONE',  ( 0.000000000000000000, 0.000000000000000000, 1.000000000000000000 ) ) ;
#212 = CARTESIAN_POINT ( 'NONE',  ( 0.000000000000000000, 0.000000000000000000, -33.00000000000000000 ) ) ;
#213 = ORIENTED_EDGE ( 'NONE', *, *, #315, .T. ) ;
#214 = DIRECTION ( 'NONE',  ( -0.000000000000000000, 0.000000000000000000, 1.000000000000000000 ) ) ;
#215 = DIRECTION ( 'NONE',  ( 0.000000000000000000, 1.000000000000000000, 0.000000000000000000 ) ) ;
#216 = AXIS2_PLACEMENT_3D ( 'NONE', #24, #207, #394 ) ;
#217 = VECTOR ( 'NONE', #20, 1000.000000000000000 ) ;
#218 = PLANE ( 'NONE',  #216 ) ;
#219 = CARTESIAN_POINT ( 'NONE',  ( -37.75000000000000711, -9.477481474720075738, 0.000000000000000000 ) ) ;
#220 = VERTEX_POINT ( 'NONE', #375 ) ;
#221 = DIRECTION ( 'NONE',  ( 0.000000000000000000, -1.000000000000000000, 0.000000000000000000 ) ) ;
#222 = EDGE_CURVE ( 'NONE', #41, #64, #54, .T. ) ;
#223 = ORIENTED_EDGE ( 'NONE', *, *, #379, .F. ) ;
#224 = DIRECTION ( 'NONE',  ( -0.000000000000000000, 0.000000000000000000, 1.000000000000000000 ) ) ;
#225 = VERTEX_POINT ( 'NONE', #286 ) ;
#226 = EDGE_CURVE ( 'NONE', #277, #521, #144, .T. ) ;
#227 = LINE ( 'NONE', #232, #503 ) ;
#228 = CARTESIAN_POINT ( 'NONE',  ( -37.75000000000000711, -9.477481474720075738, -33.00000000000000000 ) ) ;
#229 = VECTOR ( 'NONE', #338, 1000.000000000000000 ) ;
#230 = VERTEX_POINT ( 'NONE', #414 ) ;
#231 = ADVANCED_FACE ( 'NONE', ( #134 ), #320, .F. ) ;
#232 = CARTESIAN_POINT ( 'NONE',  ( -37.75000000000000711, 0.000000000000000000, -1.500000000000000000 ) ) ;
#233 = CARTESIAN_POINT ( 'NONE',  ( -38.25000000000000711, 0.000000000000000000, -31.50000000000000000 ) ) ;
#234 = ORIENTED_EDGE ( 'NONE', *, *, #597, .T. ) ;
#235 = PLANE ( 'NONE',  #536 ) ;
#236 = ORIENTED_EDGE ( 'NONE', *, *, #242, .T. ) ;
#237 = DIRECTION ( 'NONE',  ( 0.000000000000000000, -1.000000000000000000, 0.000000000000000000 ) ) ;
#238 = VECTOR ( 'NONE', #400, 1000.000000000000000 ) ;
#239 = EDGE_LOOP ( 'NONE', ( #171, #282, #367, #331, #285, #254, #274, #346 ) ) ;
#240 = CARTESIAN_POINT ( 'NONE',  ( -63.75000000000000000, -9.477481474720075738, -33.00000000000000000 ) ) ;
#241 = ORIENTED_EDGE ( 'NONE', *, *, #593, .F. ) ;
#242 = EDGE_CURVE ( 'NONE', #78, #461, #377, .T. ) ;
#243 = CARTESIAN_POINT ( 'NONE',  ( -37.75000000000000711, -25.47748147472007574, -31.50000000000000000 ) ) ;
#244 = CARTESIAN_POINT ( 'NONE',  ( -37.75000000000000711, -9.477481474720075738, -1.500000000000000000 ) ) ;
#245 = VECTOR ( 'NONE', #412, 1000.000000000000000 ) ;
#246 = DIRECTION ( 'NONE',  ( 0.000000000000000000, -1.000000000000000000, 0.000000000000000000 ) ) ;
#247 = VERTEX_POINT ( 'NONE', #332 ) ;
#248 = VECTOR ( 'NONE', #169, 1000.000000000000000 ) ;
#249 = AXIS2_PLACEMENT_3D ( 'NONE', #280, #2, #506 ) ;
#250 = ADVANCED_FACE ( 'NONE', ( #276 ), #140, .F. ) ;
#251 = FACE_OUTER_BOUND ( 'NONE', #181, .T. ) ;
#252 = VERTEX_POINT ( 'NONE', #180 ) ;
#253 = CARTESIAN_POINT ( 'NONE',  ( -39.75000000000000711, -23.47748147472007219, -33.00000000000000000 ) ) ;
#254 = ORIENTED_EDGE ( 'NONE', *, *, #356, .T. ) ;
#255 = CARTESIAN_POINT ( 'NONE',  ( -37.75000000000000711, -9.477481474720075738, -33.00000000000000000 ) ) ;
#256 = PLANE ( 'NONE',  #128 ) ;
#257 = EDGE_LOOP ( 'NONE', ( #325, #18, #10, #27 ) ) ;
#258 = AXIS2_PLACEMENT_3D ( 'NONE', #70, #125, #493 ) ;
#259 = FACE_OUTER_BOUND ( 'NONE', #257, .T. ) ;
#260 = LINE ( 'NONE', #492, #359 ) ;
#261 = PLANE ( 'NONE',  #484 ) ;
#262 = DIRECTION ( 'NONE',  ( -0.000000000000000000, 0.000000000000000000, 1.000000000000000000 ) ) ;
#263 = VERTEX_POINT ( 'NONE', #330 ) ;
#264 = VECTOR ( 'NONE', #126, 1000.000000000000000 ) ;
#265 = VECTOR ( 'NONE', #420, 1000.000000000000000 ) ;
#266 = DIRECTION ( 'NONE',  ( 0.000000000000000000, -1.000000000000000000, 0.000000000000000000 ) ) ;
#267 = DIRECTION ( 'NONE',  ( -1.000000000000000000, 0.000000000000000000, 0.000000000000000000 ) ) ;
#268 = VECTOR ( 'NONE', #122, 1000.000000000000000 ) ;
#269 = DIRECTION ( 'NONE',  ( 1.000000000000000000, 0.000000000000000000, 0.000000000000000000 ) ) ;
#270 = EDGE_CURVE ( 'NONE', #277, #395, #273, .T. ) ;
#271 = DIRECTION ( 'NONE',  ( 0.000000000000000000, -1.000000000000000000, 0.000000000000000000 ) ) ;
#272 = ORIENTED_EDGE ( 'NONE', *, *, #36, .F. ) ;
#273 = LINE ( 'NONE', #46, #308 ) ;
#274 = ORIENTED_EDGE ( 'NONE', *, *, #382, .F. ) ;
#275 =( NAMED_UNIT ( * ) PLANE_ANGLE_UNIT ( ) SI_UNIT ( $, .RADIAN. ) );
#276 = FACE_OUTER_BOUND ( 'NONE', #82, .T. ) ;
#277 = VERTEX_POINT ( 'NONE', #228 ) ;
#278 = ADVANCED_FACE ( 'NONE', ( #92 ), #235, .F. ) ;
#279 = APPLICATION_PROTOCOL_DEFINITION ( 'draft international standard', 'automotive_design', 1998, #413 ) ;
#280 = CARTESIAN_POINT ( 'NONE',  ( 0.000000000000000000, -25.47748147472007574, -33.00000000000000000 ) ) ;
#281 = AXIS2_PLACEMENT_3D ( 'NONE', #48, #43, #86 ) ;
#282 = ORIENTED_EDGE ( 'NONE', *, *, #138, .T. ) ;
#283 = EDGE_CURVE ( 'NONE', #52, #93, #513, .T. ) ;
#284 = CARTESIAN_POINT ( 'NONE',  ( -65.25000000000000000, -9.477481474720075738, -31.50000000000000000 ) ) ;
#285 = ORIENTED_EDGE ( 'NONE', *, *, #339, .T. ) ;
#286 = CARTESIAN_POINT ( 'NONE',  ( -65.25000000000000000, -24.97748147472007574, -1.500000000000000000 ) ) ;
#287 = EDGE_LOOP ( 'NONE', ( #344, #130, #381, #97 ) ) ;
#288 = AXIS2_PLACEMENT_3D ( 'NONE', #401, #123, #354 ) ;
#289 = LINE ( 'NONE', #240, #176 ) ;
#290 = VECTOR ( 'NONE', #194, 1000.000000000000000 ) ;
#291 = ORIENTED_EDGE ( 'NONE', *, *, #79, .F. ) ;
#292 = DIRECTION ( 'NONE',  ( 1.000000000000000000, 0.000000000000000000, 0.000000000000000000 ) ) ;
#293 = CARTESIAN_POINT ( 'NONE',  ( -37.75000000000000711, -25.47748147472007574, -33.00000000000000000 ) ) ;
#294 = FILL_AREA_STYLE_COLOUR ( '', #324 ) ;
#295 = AXIS2_PLACEMENT_3D ( 'NONE', #535, #542, #578 ) ;
#296 = EDGE_CURVE ( 'NONE', #486, #590, #515, .T. ) ;
#297 = LINE ( 'NONE', #336, #408 ) ;
#298 = VECTOR ( 'NONE', #271, 1000.000000000000000 ) ;
#299 = ORIENTED_EDGE ( 'NONE', *, *, #527, .T. ) ;
#300 = LINE ( 'NONE', #391, #229 ) ;
#301 = ORIENTED_EDGE ( 'NONE', *, *, #580, .T. ) ;
#302 = CARTESIAN_POINT ( 'NONE',  ( 0.000000000000000000, -24.97748147472007574, -31.50000000000000000 ) ) ;
#303 = LINE ( 'NONE', #358, #547 ) ;
#304 = DIRECTION ( 'NONE',  ( -1.000000000000000000, 0.000000000000000000, 0.000000000000000000 ) ) ;
#305 = EDGE_CURVE ( 'NONE', #486, #449, #51, .T. ) ;
#306 = CARTESIAN_POINT ( 'NONE',  ( -65.75000000000000000, -25.47748147472007574, -1.500000000000000000 ) ) ;
#307 = ORIENTED_EDGE ( 'NONE', *, *, #334, .T. ) ;
#308 = VECTOR ( 'NONE', #463, 1000.000000000000000 ) ;
#309 = LINE ( 'NONE', #495, #205 ) ;
#310 = DIRECTION ( 'NONE',  ( 0.000000000000000000, -1.000000000000000000, 0.000000000000000000 ) ) ;
#311 = ORIENTED_EDGE ( 'NONE', *, *, #544, .F. ) ;
#312 = DIRECTION ( 'NONE',  ( -1.000000000000000000, 0.000000000000000000, 0.000000000000000000 ) ) ;
#313 = FACE_OUTER_BOUND ( 'NONE', #110, .T. ) ;
#314 = PRODUCT_DEFINITION_SHAPE ( 'NONE', 'NONE',  #476 ) ;
#315 = EDGE_CURVE ( 'NONE', #461, #543, #99, .T. ) ;
#316 = PLANE ( 'NONE',  #555 ) ;
#317 = DIRECTION ( 'NONE',  ( 1.000000000000000000, 0.000000000000000000, 0.000000000000000000 ) ) ;
#318 = VECTOR ( 'NONE', #215, 1000.000000000000000 ) ;
#319 = CARTESIAN_POINT ( 'NONE',  ( -37.75000000000000711, 0.000000000000000000, -33.00000000000000000 ) ) ;
#320 = PLANE ( 'NONE',  #249 ) ;
#321 = ORIENTED_EDGE ( 'NONE', *, *, #210, .F. ) ;
#322 = CARTESIAN_POINT ( 'NONE',  ( 0.000000000000000000, 0.000000000000000000, 0.000000000000000000 ) ) ;
#323 = CARTESIAN_POINT ( 'NONE',  ( 0.000000000000000000, 0.000000000000000000, -1.500000000000000000 ) ) ;
#324 = COLOUR_RGB ( '',0.7960784313725489669, 0.8235294117647058432, 0.9372549019607843146 ) ;
#325 = ORIENTED_EDGE ( 'NONE', *, *, #203, .F. ) ;
#326 =( GEOMETRIC_REPRESENTATION_CONTEXT ( 3 ) GLOBAL_UNCERTAINTY_ASSIGNED_CONTEXT ( ( #115 ) ) GLOBAL_UNIT_ASSIGNED_CONTEXT ( ( #102, #440, #573 ) ) REPRESENTATION_CONTEXT ( 'NONE', 'WORKASPACE' ) );
#327 = DIRECTION ( 'NONE',  ( 0.000000000000000000, 1.000000000000000000, 0.000000000000000000 ) ) ;
#328 = AXIS2_PLACEMENT_3D ( 'NONE', #127, #76, #214 ) ;
#329 = VECTOR ( 'NONE', #56, 1000.000000000000000 ) ;
#330 = CARTESIAN_POINT ( 'NONE',  ( -63.75000000000000000, -23.47748147472007219, 0.000000000000000000 ) ) ;
#331 = ORIENTED_EDGE ( 'NONE', *, *, #94, .F. ) ;
#332 = CARTESIAN_POINT ( 'NONE',  ( -39.75000000000000711, -9.477481474720075738, -33.00000000000000000 ) ) ;
#333 = VERTEX_POINT ( 'NONE', #478 ) ;
#334 = EDGE_CURVE ( 'NONE', #41, #590, #202, .T. ) ;
#335 = VECTOR ( 'NONE', #445, 1000.000000000000000 ) ;
#336 = CARTESIAN_POINT ( 'NONE',  ( -65.75000000000000000, 0.000000000000000000, -31.50000000000000000 ) ) ;
#337 = ORIENTED_EDGE ( 'NONE', *, *, #424, .T. ) ;
#338 = DIRECTION ( 'NONE',  ( -1.000000000000000000, 0.000000000000000000, 0.000000000000000000 ) ) ;
#339 = EDGE_CURVE ( 'NONE', #333, #526, #393, .T. ) ;
#340 = EDGE_LOOP ( 'NONE', ( #141, #371, #100, #55 ) ) ;
#341 = VECTOR ( 'NONE', #520, 1000.000000000000000 ) ;
#342 = LINE ( 'NONE', #517, #454 ) ;
#343 = EDGE_CURVE ( 'NONE', #220, #252, #199, .T. ) ;
#344 = ORIENTED_EDGE ( 'NONE', *, *, #470, .T. ) ;
#345 = DIRECTION ( 'NONE',  ( 0.000000000000000000, 0.000000000000000000, 1.000000000000000000 ) ) ;
#346 = ORIENTED_EDGE ( 'NONE', *, *, #560, .F. ) ;
#347 = LINE ( 'NONE', #149, #329 ) ;
#348 = PRESENTATION_STYLE_ASSIGNMENT (( #150 ) ) ;
#349 = VECTOR ( 'NONE', #569, 1000.000000000000000 ) ;
#350 = LINE ( 'NONE', #302, #268 ) ;
#351 = CARTESIAN_POINT ( 'NONE',  ( -65.25000000000000000, 0.000000000000000000, -31.50000000000000000 ) ) ;
#352 = EDGE_CURVE ( 'NONE', #230, #225, #528, .T. ) ;
#353 = DIRECTION ( 'NONE',  ( 0.000000000000000000, 0.000000000000000000, 1.000000000000000000 ) ) ;
#354 = DIRECTION ( 'NONE',  ( 0.000000000000000000, -0.000000000000000000, -1.000000000000000000 ) ) ;
#355 = ORIENTED_EDGE ( 'NONE', *, *, #567, .T. ) ;
#356 = EDGE_CURVE ( 'NONE', #526, #93, #189, .T. ) ;
#357 = FACE_OUTER_BOUND ( 'NONE', #376, .T. ) ;
#358 = CARTESIAN_POINT ( 'NONE',  ( -0.000000000000000000, -9.477481474720075738, 0.000000000000000000 ) ) ;
#359 = VECTOR ( 'NONE', #310, 1000.000000000000000 ) ;
#360 = ORIENTED_EDGE ( 'NONE', *, *, #138, .F. ) ;
#361 = FACE_OUTER_BOUND ( 'NONE', #49, .T. ) ;
#362 = LINE ( 'NONE', #351, #197 ) ;
#363 = CARTESIAN_POINT ( 'NONE',  ( -65.25000000000000000, -9.477481474720075738, -31.50000000000000000 ) ) ;
#364 = FACE_OUTER_BOUND ( 'NONE', #340, .T. ) ;
#365 = VERTEX_POINT ( 'NONE', #155 ) ;
#366 = DIRECTION ( 'NONE',  ( 0.000000000000000000, -1.000000000000000000, 0.000000000000000000 ) ) ;
#367 = ORIENTED_EDGE ( 'NONE', *, *, #470, .F. ) ;
#368 = VECTOR ( 'NONE', #533, 1000.000000000000000 ) ;
#369 = VECTOR ( 'NONE', #471, 1000.000000000000000 ) ;
#370 = LINE ( 'NONE', #132, #265 ) ;
#371 = ORIENTED_EDGE ( 'NONE', *, *, #403, .F. ) ;
#372 =( LENGTH_UNIT ( ) NAMED_UNIT ( * ) SI_UNIT ( .MILLI., .METRE. ) );
#373 = DIRECTION ( 'NONE',  ( 0.000000000000000000, 0.000000000000000000, 1.000000000000000000 ) ) ;
#374 = EDGE_LOOP ( 'NONE', ( #58, #453, #392, #411, #223, #156, #472, #529 ) ) ;
#375 = CARTESIAN_POINT ( 'NONE',  ( -39.75000000000000711, -23.47748147472007219, -33.00000000000000000 ) ) ;
#376 = EDGE_LOOP ( 'NONE', ( #124, #595, #355, #213 ) ) ;
#377 = LINE ( 'NONE', #553, #206 ) ;
#378 = ORIENTED_EDGE ( 'NONE', *, *, #94, .T. ) ;
#379 = EDGE_CURVE ( 'NONE', #502, #41, #347, .T. ) ;
#380 = DIRECTION ( 'NONE',  ( -0.000000000000000000, 0.000000000000000000, 1.000000000000000000 ) ) ;
#381 = ORIENTED_EDGE ( 'NONE', *, *, #98, .F. ) ;
#382 = EDGE_CURVE ( 'NONE', #179, #93, #300, .T. ) ;
#383 = DIRECTION ( 'NONE',  ( -0.000000000000000000, -0.000000000000000000, 1.000000000000000000 ) ) ;
#384 = FILL_AREA_STYLE ('',( #294 ) ) ;
#385 = PRESENTATION_LAYER_ASSIGNMENT (  '', '', ( #61 ) ) ;
#386 = ADVANCED_FACE ( 'NONE', ( #434 ), #66, .T. ) ;
#387 = CARTESIAN_POINT ( 'NONE',  ( -38.25000000000000711, -24.97748147472007574, -31.50000000000000000 ) ) ;
#388 = STYLED_ITEM ( 'NONE', ( #422 ), #119 ) ;
#389 = CARTESIAN_POINT ( 'NONE',  ( -38.25000000000000711, 0.000000000000000000, -1.500000000000000000 ) ) ;
#390 = ADVANCED_FACE ( 'NONE', ( #153 ), #7, .T. ) ;
#391 = CARTESIAN_POINT ( 'NONE',  ( -0.000000000000000000, -25.47748147472007574, 0.000000000000000000 ) ) ;
#392 = ORIENTED_EDGE ( 'NONE', *, *, #200, .T. ) ;
#393 = LINE ( 'NONE', #111, #349 ) ;
#394 = DIRECTION ( 'NONE',  ( 0.000000000000000000, 0.000000000000000000, 1.000000000000000000 ) ) ;
#395 = VERTEX_POINT ( 'NONE', #522 ) ;
#396 = MECHANICAL_DESIGN_GEOMETRIC_PRESENTATION_REPRESENTATION (  '', ( #388 ), #15 ) ;
#397 = CARTESIAN_POINT ( 'NONE',  ( -65.75000000000000000, -9.477481474720075738, -1.500000000000001332 ) ) ;
#398 = UNCERTAINTY_MEASURE_WITH_UNIT (LENGTH_MEASURE( 1.000000000000000082E-05 ), #42, 'distance_accuracy_value', 'NONE');
#399 = CARTESIAN_POINT ( 'NONE',  ( -38.25000000000000711, -9.477481474720075738, -31.50000000000000000 ) ) ;
#400 = DIRECTION ( 'NONE',  ( -1.000000000000000000, 0.000000000000000000, 0.000000000000000000 ) ) ;
#401 = CARTESIAN_POINT ( 'NONE',  ( 0.000000000000000000, -23.47748147472007219, -33.00000000000000000 ) ) ;
#402 = CARTESIAN_POINT ( 'NONE',  ( -65.75000000000000000, -25.47748147472007574, -31.50000000000000000 ) ) ;
#403 = EDGE_CURVE ( 'NONE', #590, #568, #297, .T. ) ;
#404 = UNCERTAINTY_MEASURE_WITH_UNIT (LENGTH_MEASURE( 1.000000000000000082E-05 ), #372, 'distance_accuracy_value', 'NONE');
#405 = CARTESIAN_POINT ( 'NONE',  ( 0.000000000000000000, -25.47748147472007574, -31.50000000000000000 ) ) ;
#406 = ORIENTED_EDGE ( 'NONE', *, *, #16, .T. ) ;
#407 = VECTOR ( 'NONE', #436, 1000.000000000000000 ) ;
#408 = VECTOR ( 'NONE', #246, 1000.000000000000000 ) ;
#409 = PLANE ( 'NONE',  #187 ) ;
#410 = CARTESIAN_POINT ( 'NONE',  ( -65.75000000000000000, -25.47748147472007574, -33.00000000000000000 ) ) ;
#411 = ORIENTED_EDGE ( 'NONE', *, *, #222, .F. ) ;
#412 = DIRECTION ( 'NONE',  ( 1.000000000000000000, 0.000000000000000000, 0.000000000000000000 ) ) ;
#413 = APPLICATION_CONTEXT ( 'automotive_design' ) ;
#414 = CARTESIAN_POINT ( 'NONE',  ( -65.25000000000000000, -24.97748147472007574, -31.50000000000000000 ) ) ;
#415 = ORIENTED_EDGE ( 'NONE', *, *, #419, .T. ) ;
#416 = ADVANCED_FACE ( 'NONE', ( #251 ), #558, .F. ) ;
#417 = CARTESIAN_POINT ( 'NONE',  ( -65.75000000000000000, -25.47748147472007574, -33.00000000000000000 ) ) ;
#418 = ORIENTED_EDGE ( 'NONE', *, *, #296, .F. ) ;
#419 = EDGE_CURVE ( 'NONE', #247, #365, #475, .T. ) ;
#420 = DIRECTION ( 'NONE',  ( -1.000000000000000000, 0.000000000000000000, 0.000000000000000000 ) ) ;
#421 = ORIENTED_EDGE ( 'NONE', *, *, #343, .T. ) ;
#422 = PRESENTATION_STYLE_ASSIGNMENT (( #591 ) ) ;
#423 = VECTOR ( 'NONE', #549, 1000.000000000000000 ) ;
#424 = EDGE_CURVE ( 'NONE', #449, #559, #342, .T. ) ;
#425 = FACE_OUTER_BOUND ( 'NONE', #554, .T. ) ;
#426 = ORIENTED_EDGE ( 'NONE', *, *, #339, .F. ) ;
#427 = VECTOR ( 'NONE', #35, 1000.000000000000000 ) ;
#428 = VECTOR ( 'NONE', #561, 1000.000000000000000 ) ;
#429 = LINE ( 'NONE', #89, #481 ) ;
#430 = ORIENTED_EDGE ( 'NONE', *, *, #315, .F. ) ;
#431 = CARTESIAN_POINT ( 'NONE',  ( -65.75000000000000000, -9.477481474720075738, -33.00000000000000000 ) ) ;
#432 = ORIENTED_EDGE ( 'NONE', *, *, #296, .T. ) ;
#433 = CARTESIAN_POINT ( 'NONE',  ( -0.000000000000000000, -9.477481474720075738, -1.500000000000000000 ) ) ;
#434 = FACE_OUTER_BOUND ( 'NONE', #474, .T. ) ;
#435 = ORIENTED_EDGE ( 'NONE', *, *, #203, .T. ) ;
#436 = DIRECTION ( 'NONE',  ( 1.000000000000000000, 0.000000000000000000, 0.000000000000000000 ) ) ;
#437 = SURFACE_STYLE_FILL_AREA ( #384 ) ;
#438 = CARTESIAN_POINT ( 'NONE',  ( -65.75000000000000000, -9.477481474720075738, 0.000000000000000000 ) ) ;
#439 = EDGE_CURVE ( 'NONE', #502, #333, #289, .T. ) ;
#440 =( NAMED_UNIT ( * ) PLANE_ANGLE_UNIT ( ) SI_UNIT ( $, .RADIAN. ) );
#441 = LINE ( 'NONE', #574, #466 ) ;
#442 = CARTESIAN_POINT ( 'NONE',  ( 0.000000000000000000, -9.477481474720075738, -33.00000000000000000 ) ) ;
#443 = ORIENTED_EDGE ( 'NONE', *, *, #283, .F. ) ;
#444 = CARTESIAN_POINT ( 'NONE',  ( -63.75000000000000000, -9.477481474720075738, -33.00000000000000000 ) ) ;
#445 = DIRECTION ( 'NONE',  ( 0.000000000000000000, -1.000000000000000000, 0.000000000000000000 ) ) ;
#446 = EDGE_LOOP ( 'NONE', ( #241, #234, #299, #201 ) ) ;
#447 = CARTESIAN_POINT ( 'NONE',  ( 0.000000000000000000, -25.47748147472007574, -1.500000000000000000 ) ) ;
#448 = CARTESIAN_POINT ( 'NONE',  ( -63.75000000000000000, -23.47748147472007219, -33.00000000000000000 ) ) ;
#449 = VERTEX_POINT ( 'NONE', #524 ) ;
#450 = CLOSED_SHELL ( 'NONE', ( #507, #416, #576, #113, #133, #490, #231, #167, #250, #53, #386, #143, #390, #548, #519, #278, #583, #174 ) ) ;
#451 = CARTESIAN_POINT ( 'NONE',  ( -65.75000000000000000, 0.000000000000000000, -1.500000000000000000 ) ) ;
#452 = LINE ( 'NONE', #575, #318 ) ;
#453 = ORIENTED_EDGE ( 'NONE', *, *, #226, .T. ) ;
#454 = VECTOR ( 'NONE', #101, 1000.000000000000000 ) ;
#455 = SHAPE_DEFINITION_REPRESENTATION ( #314, #119 ) ;
#456 = DIRECTION ( 'NONE',  ( 0.000000000000000000, 0.000000000000000000, 1.000000000000000000 ) ) ;
#457 = ORIENTED_EDGE ( 'NONE', *, *, #183, .T. ) ;
#458 = FILL_AREA_STYLE ('',( #467 ) ) ;
#459 = DIRECTION ( 'NONE',  ( -1.000000000000000000, 0.000000000000000000, -0.000000000000000000 ) ) ;
#460 = EDGE_CURVE ( 'NONE', #521, #464, #107, .T. ) ;
#461 = VERTEX_POINT ( 'NONE', #387 ) ;
#462 = AXIS2_PLACEMENT_3D ( 'NONE', #212, #262, #33 ) ;
#463 = DIRECTION ( 'NONE',  ( 0.000000000000000000, 0.000000000000000000, 1.000000000000000000 ) ) ;
#464 = VERTEX_POINT ( 'NONE', #243 ) ;
#465 = EDGE_CURVE ( 'NONE', #21, #145, #192, .T. ) ;
#466 = VECTOR ( 'NONE', #28, 1000.000000000000000 ) ;
#467 = FILL_AREA_STYLE_COLOUR ( '', #196 ) ;
#468 = DIRECTION ( 'NONE',  ( 0.000000000000000000, -1.000000000000000000, 0.000000000000000000 ) ) ;
#469 = ORIENTED_EDGE ( 'NONE', *, *, #16, .F. ) ;
#470 = EDGE_CURVE ( 'NONE', #263, #252, #480, .T. ) ;
#471 = DIRECTION ( 'NONE',  ( -0.000000000000000000, -0.000000000000000000, 1.000000000000000000 ) ) ;
#472 = ORIENTED_EDGE ( 'NONE', *, *, #98, .T. ) ;
#473 = CARTESIAN_POINT ( 'NONE',  ( -38.25000000000000711, -24.97748147472007574, -31.50000000000000000 ) ) ;
#474 = EDGE_LOOP ( 'NONE', ( #360, #188, #457, #421 ) ) ;
#475 = LINE ( 'NONE', #151, #217 ) ;
#476 = PRODUCT_DEFINITION ( 'General', '', #62, #121 ) ;
#477 = ORIENTED_EDGE ( 'NONE', *, *, #589, .F. ) ;
#478 = CARTESIAN_POINT ( 'NONE',  ( -63.75000000000000000, -9.477481474720075738, 0.000000000000000000 ) ) ;
#479 = ORIENTED_EDGE ( 'NONE', *, *, #483, .F. ) ;
#480 = LINE ( 'NONE', #63, #407 ) ;
#481 = VECTOR ( 'NONE', #237, 1000.000000000000000 ) ;
#482 = ORIENTED_EDGE ( 'NONE', *, *, #544, .T. ) ;
#483 = EDGE_CURVE ( 'NONE', #395, #78, #83, .T. ) ;
#484 = AXIS2_PLACEMENT_3D ( 'NONE', #204, #304, #353 ) ;
#485 = DIRECTION ( 'NONE',  ( 0.000000000000000000, 0.000000000000000000, 1.000000000000000000 ) ) ;
#486 = VERTEX_POINT ( 'NONE', #363 ) ;
#487 = EDGE_CURVE ( 'NONE', #277, #247, #587, .T. ) ;
#488 = CARTESIAN_POINT ( 'NONE',  ( -39.75000000000000711, 0.000000000000000000, -33.00000000000000000 ) ) ;
#489 = ORIENTED_EDGE ( 'NONE', *, *, #242, .F. ) ;
#490 = ADVANCED_FACE ( 'NONE', ( #541 ), #261, .F. ) ;
#491 = CARTESIAN_POINT ( 'NONE',  ( -65.75000000000000000, -9.477481474720075738, -33.00000000000000000 ) ) ;
#492 = CARTESIAN_POINT ( 'NONE',  ( -63.75000000000000000, 0.000000000000000000, 0.000000000000000000 ) ) ;
#493 = DIRECTION ( 'NONE',  ( 1.000000000000000000, 0.000000000000000000, 0.000000000000000000 ) ) ;
#494 = FACE_OUTER_BOUND ( 'NONE', #287, .T. ) ;
#495 = CARTESIAN_POINT ( 'NONE',  ( -37.75000000000000711, -25.47748147472007574, -33.00000000000000000 ) ) ;
#496 = CARTESIAN_POINT ( 'NONE',  ( 0.000000000000000000, -23.47748147472007219, -33.00000000000000000 ) ) ;
#497 = ORIENTED_EDGE ( 'NONE', *, *, #270, .F. ) ;
#498 = FACE_OUTER_BOUND ( 'NONE', #173, .T. ) ;
#499 = PLANE ( 'NONE',  #525 ) ;
#500 = CARTESIAN_POINT ( 'NONE',  ( 0.000000000000000000, -25.47748147472007574, -33.00000000000000000 ) ) ;
#501 = DIRECTION ( 'NONE',  ( 0.000000000000000000, 1.000000000000000000, -0.000000000000000000 ) ) ;
#502 = VERTEX_POINT ( 'NONE', #444 ) ;
#503 = VECTOR ( 'NONE', #327, 1000.000000000000000 ) ;
#504 = AXIS2_PLACEMENT_3D ( 'NONE', #68, #380, #292 ) ;
#505 =( NAMED_UNIT ( * ) SI_UNIT ( $, .STERADIAN. ) SOLID_ANGLE_UNIT ( ) );
#506 = DIRECTION ( 'NONE',  ( 0.000000000000000000, 0.000000000000000000, 1.000000000000000000 ) ) ;
#507 = ADVANCED_FACE ( 'NONE', ( #498 ), #218, .T. ) ;
#508 = DIRECTION ( 'NONE',  ( -0.000000000000000000, 0.000000000000000000, 1.000000000000000000 ) ) ;
#509 = EDGE_LOOP ( 'NONE', ( #406, #430, #489, #570 ) ) ;
#510 =( NAMED_UNIT ( * ) SI_UNIT ( $, .STERADIAN. ) SOLID_ANGLE_UNIT ( ) );
#511 = DIRECTION ( 'NONE',  ( 0.000000000000000000, -1.000000000000000000, 0.000000000000000000 ) ) ;
#512 = ORIENTED_EDGE ( 'NONE', *, *, #90, .F. ) ;
#513 = LINE ( 'NONE', #417, #585 ) ;
#514 = EDGE_LOOP ( 'NONE', ( #443, #482, #75, #112 ) ) ;
#515 = LINE ( 'NONE', #551, #25 ) ;
#516 = ORIENTED_EDGE ( 'NONE', *, *, #226, .F. ) ;
#517 = CARTESIAN_POINT ( 'NONE',  ( -0.000000000000000000, -9.477481474720075738, -1.500000000000000000 ) ) ;
#518 = VECTOR ( 'NONE', #317, 1000.000000000000000 ) ;
#519 = ADVANCED_FACE ( 'NONE', ( #357 ), #409, .T. ) ;
#520 = DIRECTION ( 'NONE',  ( 0.000000000000000000, 0.000000000000000000, 1.000000000000000000 ) ) ;
#521 = VERTEX_POINT ( 'NONE', #72 ) ;
#522 = CARTESIAN_POINT ( 'NONE',  ( -37.75000000000000711, -9.477481474720075738, -31.50000000000000000 ) ) ;
#523 = ORIENTED_EDGE ( 'NONE', *, *, #487, .T. ) ;
#524 = CARTESIAN_POINT ( 'NONE',  ( -65.25000000000000000, -9.477481474720075738, -1.500000000000000000 ) ) ;
#525 = AXIS2_PLACEMENT_3D ( 'NONE', #81, #267, #556 ) ;
#526 = VERTEX_POINT ( 'NONE', #438 ) ;
#527 = EDGE_CURVE ( 'NONE', #21, #67, #572, .T. ) ;
#528 = LINE ( 'NONE', #17, #73 ) ;
#529 = ORIENTED_EDGE ( 'NONE', *, *, #183, .F. ) ;
#530 = PLANE ( 'NONE',  #258 ) ;
#531 = FACE_OUTER_BOUND ( 'NONE', #374, .T. ) ;
#532 = DIRECTION ( 'NONE',  ( 0.000000000000000000, -0.000000000000000000, -1.000000000000000000 ) ) ;
#533 = DIRECTION ( 'NONE',  ( -0.000000000000000000, -0.000000000000000000, 1.000000000000000000 ) ) ;
#534 = CARTESIAN_POINT ( 'NONE',  ( -65.75000000000000000, -9.477481474720075738, -31.50000000000000000 ) ) ;
#535 = CARTESIAN_POINT ( 'NONE',  ( -65.75000000000000000, 0.000000000000000000, -33.00000000000000000 ) ) ;
#536 = AXIS2_PLACEMENT_3D ( 'NONE', #233, #459, #224 ) ;
#537 = VECTOR ( 'NONE', #511, 1000.000000000000000 ) ;
#538 = ORIENTED_EDGE ( 'NONE', *, *, #305, .T. ) ;
#539 = PLANE ( 'NONE',  #328 ) ;
#540 = CARTESIAN_POINT ( 'NONE',  ( 0.000000000000000000, -24.97748147472007574, -1.500000000000000000 ) ) ;
#541 = FACE_OUTER_BOUND ( 'NONE', #446, .T. ) ;
#542 = DIRECTION ( 'NONE',  ( -1.000000000000000000, 0.000000000000000000, 0.000000000000000000 ) ) ;
#543 = VERTEX_POINT ( 'NONE', #158 ) ;
#544 = EDGE_CURVE ( 'NONE', #52, #44, #117, .T. ) ;
#545 = AXIS2_PLACEMENT_3D ( 'NONE', #322, #131, #269 ) ;
#546 = CARTESIAN_POINT ( 'NONE',  ( -37.75000000000000711, -25.47748147472007574, 0.000000000000000000 ) ) ;
#547 = VECTOR ( 'NONE', #37, 1000.000000000000000 ) ;
#548 = ADVANCED_FACE ( 'NONE', ( #259 ), #539, .T. ) ;
#549 = DIRECTION ( 'NONE',  ( 0.000000000000000000, -1.000000000000000000, 0.000000000000000000 ) ) ;
#550 = ORIENTED_EDGE ( 'NONE', *, *, #283, .T. ) ;
#551 = CARTESIAN_POINT ( 'NONE',  ( 0.000000000000000000, -9.477481474720075738, -31.50000000000000000 ) ) ;
#552 = ORIENTED_EDGE ( 'NONE', *, *, #439, .T. ) ;
#553 = CARTESIAN_POINT ( 'NONE',  ( -38.25000000000000711, 0.000000000000000000, -31.50000000000000000 ) ) ;
#554 = EDGE_LOOP ( 'NONE', ( #87, #165, #311, #477, #3, #435, #108, #469 ) ) ;
#555 = AXIS2_PLACEMENT_3D ( 'NONE', #500, #80, #581 ) ;
#556 = DIRECTION ( 'NONE',  ( 0.000000000000000000, 0.000000000000000000, 1.000000000000000000 ) ) ;
#557 = ORIENTED_EDGE ( 'NONE', *, *, #460, .T. ) ;
#558 = PLANE ( 'NONE',  #142 ) ;
#559 = VERTEX_POINT ( 'NONE', #397 ) ;
#560 = EDGE_CURVE ( 'NONE', #67, #179, #441, .T. ) ;
#561 = DIRECTION ( 'NONE',  ( 0.000000000000000000, 0.000000000000000000, 1.000000000000000000 ) ) ;
#562 = SURFACE_SIDE_STYLE ('',( #437 ) ) ;
#563 = VECTOR ( 'NONE', #163, 1000.000000000000000 ) ;
#564 = DIRECTION ( 'NONE',  ( -0.000000000000000000, -0.000000000000000000, 1.000000000000000000 ) ) ;
#565 = DIRECTION ( 'NONE',  ( 0.000000000000000000, -1.000000000000000000, 0.000000000000000000 ) ) ;
#566 = DIRECTION ( 'NONE',  ( -1.000000000000000000, 0.000000000000000000, 0.000000000000000000 ) ) ;
#567 = EDGE_CURVE ( 'NONE', #230, #461, #350, .T. ) ;
#568 = VERTEX_POINT ( 'NONE', #402 ) ;
#569 = DIRECTION ( 'NONE',  ( -1.000000000000000000, 0.000000000000000000, 0.000000000000000000 ) ) ;
#570 = ORIENTED_EDGE ( 'NONE', *, *, #57, .T. ) ;
#571 = MECHANICAL_DESIGN_GEOMETRIC_PRESENTATION_REPRESENTATION (  '', ( #61 ), #326 ) ;
#572 = LINE ( 'NONE', #255, #248 ) ;
#573 =( NAMED_UNIT ( * ) SI_UNIT ( $, .STERADIAN. ) SOLID_ANGLE_UNIT ( ) );
#574 = CARTESIAN_POINT ( 'NONE',  ( -37.75000000000000711, 0.000000000000000000, 0.000000000000000000 ) ) ;
#575 = CARTESIAN_POINT ( 'NONE',  ( -37.75000000000000711, 0.000000000000000000, -31.50000000000000000 ) ) ;
#576 = ADVANCED_FACE ( 'NONE', ( #166 ), #316, .F. ) ;
#577 = LINE ( 'NONE', #451, #563 ) ;
#578 = DIRECTION ( 'NONE',  ( 0.000000000000000000, 0.000000000000000000, 1.000000000000000000 ) ) ;
#579 = ORIENTED_EDGE ( 'NONE', *, *, #57, .F. ) ;
#580 = EDGE_CURVE ( 'NONE', #559, #526, #22, .T. ) ;
#581 = DIRECTION ( 'NONE',  ( 0.000000000000000000, 0.000000000000000000, 1.000000000000000000 ) ) ;
#582 = VECTOR ( 'NONE', #485, 1000.000000000000000 ) ;
#583 = ADVANCED_FACE ( 'NONE', ( #361 ), #530, .T. ) ;
#584 = CARTESIAN_POINT ( 'NONE',  ( -38.25000000000000711, -9.477481474720075738, -1.500000000000000000 ) ) ;
#585 = VECTOR ( 'NONE', #373, 1000.000000000000000 ) ;
#586 = ORIENTED_EDGE ( 'NONE', *, *, #60, .F. ) ;
#587 = LINE ( 'NONE', #32, #23 ) ;
#588 = CARTESIAN_POINT ( 'NONE',  ( -38.25000000000000711, -9.477481474720075738, -31.50000000000000000 ) ) ;
#589 = EDGE_CURVE ( 'NONE', #559, #52, #577, .T. ) ;
#590 = VERTEX_POINT ( 'NONE', #534 ) ;
#591 = SURFACE_STYLE_USAGE ( .BOTH. , #175 ) ;
#592 = LINE ( 'NONE', #448, #120 ) ;
#593 = EDGE_CURVE ( 'NONE', #44, #179, #309, .T. ) ;
#594 = CARTESIAN_POINT ( 'NONE',  ( -65.75000000000000000, -25.47748147472007574, -33.00000000000000000 ) ) ;
#595 = ORIENTED_EDGE ( 'NONE', *, *, #352, .F. ) ;
#596 = VECTOR ( 'NONE', #172, 1000.000000000000000 ) ;
#597 = EDGE_CURVE ( 'NONE', #44, #21, #227, .T. ) ;
#598 = LINE ( 'NONE', #184, #423 ) ;
ENDSEC;
END-ISO-10303-21;
