ISO-10303-21;
HEADER;
FILE_DESCRIPTION (( 'STEP AP214' ),
    '1' );
FILE_NAME ('Buck converter 5V 16A.STEP',
    '2026-07-13T19:26:04',
    ( '' ),
    ( '' ),
    'SwSTEP 2.0',
    'SolidWorks 2025',
    '' );
FILE_SCHEMA (( 'AUTOMOTIVE_DESIGN' ));
ENDSEC;

DATA;
#1 = DIRECTION ( 'NONE',  ( 0.000000000000000000, 1.000000000000000000, -0.000000000000000000 ) ) ;
#2 = EDGE_LOOP ( 'NONE', ( #204, #256, #654, #37 ) ) ;
#3 = CARTESIAN_POINT ( 'NONE',  ( 0.000000000000000000, 2.299999999999999822, -20.77513752833204563 ) ) ;
#4 = LINE ( 'NONE', #74, #590 ) ;
#5 = VECTOR ( 'NONE', #276, 1000.000000000000000 ) ;
#6 = ORIENTED_EDGE ( 'NONE', *, *, #474, .F. ) ;
#7 = VECTOR ( 'NONE', #167, 1000.000000000000000 ) ;
#8 = CARTESIAN_POINT ( 'NONE',  ( 0.000000000000000000, 2.299999999999999822, -24.23075420759073140 ) ) ;
#9 = LINE ( 'NONE', #240, #580 ) ;
#10 = ORIENTED_EDGE ( 'NONE', *, *, #392, .T. ) ;
#11 = CARTESIAN_POINT ( 'NONE',  ( 0.000000000000000000, 2.299999999999999822, -24.23075420759073140 ) ) ;
#12 = SURFACE_SIDE_STYLE ('',( #416 ) ) ;
#13 = ADVANCED_FACE ( 'NONE', ( #284 ), #142, .T. ) ;
#14 = VERTEX_POINT ( 'NONE', #162 ) ;
#15 = CARTESIAN_POINT ( 'NONE',  ( 0.000000000000000000, 1.800000000000000044, -14.48885612244654730 ) ) ;
#16 = FILL_AREA_STYLE_COLOUR ( '', #236 ) ;
#17 = VECTOR ( 'NONE', #250, 1000.000000000000000 ) ;
#18 = PRESENTATION_LAYER_ASSIGNMENT (  '', '', ( #209 ) ) ;
#19 =( NAMED_UNIT ( * ) PLANE_ANGLE_UNIT ( ) SI_UNIT ( $, .RADIAN. ) );
#20 = DIRECTION ( 'NONE',  ( -1.000000000000000000, 0.000000000000000000, 0.000000000000000000 ) ) ;
#21 = EDGE_CURVE ( 'NONE', #637, #456, #84, .T. ) ;
#22 = VERTEX_POINT ( 'NONE', #174 ) ;
#23 = FILL_AREA_STYLE_COLOUR ( '', #735 ) ;
#24 = FACE_OUTER_BOUND ( 'NONE', #277, .T. ) ;
#25 = ORIENTED_EDGE ( 'NONE', *, *, #701, .T. ) ;
#26 = CARTESIAN_POINT ( 'NONE',  ( 4.688292781573792034, 2.299999999999999822, -14.48885612244654730 ) ) ;
#27 = CARTESIAN_POINT ( 'NONE',  ( 4.688292781573792034, 2.299999999999999822, -24.23075420759073140 ) ) ;
#28 = VERTEX_POINT ( 'NONE', #47 ) ;
#29 = VECTOR ( 'NONE', #602, 1000.000000000000000 ) ;
#30 = LINE ( 'NONE', #709, #266 ) ;
#31 = VECTOR ( 'NONE', #124, 1000.000000000000000 ) ;
#32 = FACE_OUTER_BOUND ( 'NONE', #393, .T. ) ;
#33 = EDGE_LOOP ( 'NONE', ( #552, #490, #371, #151, #263, #623, #387, #459, #571, #120, #164, #512, #566, #646, #718, #286 ) ) ;
#34 = LINE ( 'NONE', #26, #721 ) ;
#35 = CARTESIAN_POINT ( 'NONE',  ( 30.00000000000000000, 0.000000000000000000, 0.000000000000000000 ) ) ;
#36 = EDGE_CURVE ( 'NONE', #634, #238, #722, .T. ) ;
#37 = ORIENTED_EDGE ( 'NONE', *, *, #90, .T. ) ;
#38 = LINE ( 'NONE', #166, #639 ) ;
#39 = VERTEX_POINT ( 'NONE', #451 ) ;
#40 = DIRECTION ( 'NONE',  ( -0.000000000000000000, -1.000000000000000000, -0.000000000000000000 ) ) ;
#41 = VECTOR ( 'NONE', #625, 1000.000000000000000 ) ;
#42 = MECHANICAL_DESIGN_GEOMETRIC_PRESENTATION_REPRESENTATION (  '', ( #209 ), #292 ) ;
#43 = CARTESIAN_POINT ( 'NONE',  ( 0.000000000000000000, 2.299999999999999822, -14.48885612244654730 ) ) ;
#44 = ORIENTED_EDGE ( 'NONE', *, *, #36, .F. ) ;
#45 = EDGE_CURVE ( 'NONE', #127, #168, #733, .T. ) ;
#46 = CARTESIAN_POINT ( 'NONE',  ( 4.688292781573792034, 1.800000000000000044, -20.77513752833204563 ) ) ;
#47 = CARTESIAN_POINT ( 'NONE',  ( 4.688292781573792034, 1.800000000000000044, -10.59209688838887686 ) ) ;
#48 = ORIENTED_EDGE ( 'NONE', *, *, #367, .T. ) ;
#49 = LINE ( 'NONE', #510, #178 ) ;
#50 = CARTESIAN_POINT ( 'NONE',  ( 0.000000000000000000, 2.299999999999999822, -2.100102708508472027 ) ) ;
#51 = EDGE_LOOP ( 'NONE', ( #477, #513, #232, #185 ) ) ;
#52 = PRODUCT_CONTEXT ( 'NONE', #400, 'mechanical' ) ;
#53 = DIRECTION ( 'NONE',  ( -1.000000000000000000, -0.000000000000000000, -0.000000000000000000 ) ) ;
#54 = CARTESIAN_POINT ( 'NONE',  ( 4.688292781573792034, 1.800000000000000044, -2.100102708508472027 ) ) ;
#55 = EDGE_CURVE ( 'NONE', #637, #22, #505, .T. ) ;
#56 = VERTEX_POINT ( 'NONE', #610 ) ;
#57 = DIRECTION ( 'NONE',  ( 1.000000000000000000, 0.000000000000000000, 0.000000000000000000 ) ) ;
#58 = FACE_OUTER_BOUND ( 'NONE', #540, .T. ) ;
#59 = EDGE_CURVE ( 'NONE', #272, #238, #442, .T. ) ;
#60 = ORIENTED_EDGE ( 'NONE', *, *, #275, .T. ) ;
#61 = DIRECTION ( 'NONE',  ( 0.000000000000000000, 0.000000000000000000, -1.000000000000000000 ) ) ;
#62 = CARTESIAN_POINT ( 'NONE',  ( 0.000000000000000000, 8.000000000000000000, -15.55735056542811101 ) ) ;
#63 = ORIENTED_EDGE ( 'NONE', *, *, #95, .T. ) ;
#64 = DIRECTION ( 'NONE',  ( 0.000000000000000000, 1.000000000000000000, -0.000000000000000000 ) ) ;
#65 = PLANE ( 'NONE',  #460 ) ;
#66 = AXIS2_PLACEMENT_3D ( 'NONE', #62, #524, #288 ) ;
#67 = VERTEX_POINT ( 'NONE', #391 ) ;
#68 = AXIS2_PLACEMENT_3D ( 'NONE', #297, #1, #632 ) ;
#69 = EDGE_CURVE ( 'NONE', #419, #593, #322, .T. ) ;
#70 = CARTESIAN_POINT ( 'NONE',  ( 29.32148626817447479, 8.000000000000000000, 0.000000000000000000 ) ) ;
#71 = DIRECTION ( 'NONE',  ( 0.000000000000000000, 0.000000000000000000, -1.000000000000000000 ) ) ;
#72 = ORIENTED_EDGE ( 'NONE', *, *, #90, .F. ) ;
#73 = CARTESIAN_POINT ( 'NONE',  ( 4.688292781573792034, 2.299999999999999822, -10.59209688838887686 ) ) ;
#74 = CARTESIAN_POINT ( 'NONE',  ( 0.000000000000000000, 1.800000000000000044, 0.000000000000000000 ) ) ;
#75 = ADVANCED_FACE ( 'NONE', ( #58 ), #614, .F. ) ;
#76 = VECTOR ( 'NONE', #117, 1000.000000000000000 ) ;
#77 = ORIENTED_EDGE ( 'NONE', *, *, #506, .F. ) ;
#78 = VECTOR ( 'NONE', #94, 1000.000000000000000 ) ;
#79 = DIRECTION ( 'NONE',  ( 0.000000000000000000, 0.000000000000000000, -1.000000000000000000 ) ) ;
#80 = DIRECTION ( 'NONE',  ( 0.000000000000000000, 0.000000000000000000, 1.000000000000000000 ) ) ;
#81 = ORIENTED_EDGE ( 'NONE', *, *, #224, .T. ) ;
#82 = CARTESIAN_POINT ( 'NONE',  ( 13.13408723747981632, 1.800000000000000044, 0.000000000000000000 ) ) ;
#83 = PLANE ( 'NONE',  #350 ) ;
#84 = LINE ( 'NONE', #195, #434 ) ;
#85 = VERTEX_POINT ( 'NONE', #622 ) ;
#86 = PLANE ( 'NONE',  #543 ) ;
#87 = VERTEX_POINT ( 'NONE', #680 ) ;
#88 = VECTOR ( 'NONE', #98, 1000.000000000000000 ) ;
#89 = DIRECTION ( 'NONE',  ( 1.000000000000000000, -0.000000000000000000, 0.000000000000000000 ) ) ;
#90 = EDGE_CURVE ( 'NONE', #419, #723, #738, .T. ) ;
#91 = AXIS2_PLACEMENT_3D ( 'NONE', #8, #121, #471 ) ;
#92 = CARTESIAN_POINT ( 'NONE',  ( 0.000000000000000000, 1.800000000000000044, -5.996861942566146908 ) ) ;
#93 = ORIENTED_EDGE ( 'NONE', *, *, #36, .T. ) ;
#94 = DIRECTION ( 'NONE',  ( -0.000000000000000000, -1.000000000000000000, -0.000000000000000000 ) ) ;
#95 = EDGE_CURVE ( 'NONE', #39, #634, #223, .T. ) ;
#96 = ORIENTED_EDGE ( 'NONE', *, *, #728, .T. ) ;
#97 = CARTESIAN_POINT ( 'NONE',  ( 4.688292781573792034, 1.800000000000000044, -14.48885612244654730 ) ) ;
#98 = DIRECTION ( 'NONE',  ( -0.000000000000000000, -1.000000000000000000, -0.000000000000000000 ) ) ;
#99 = EDGE_CURVE ( 'NONE', #593, #309, #570, .T. ) ;
#100 = ORIENTED_EDGE ( 'NONE', *, *, #732, .F. ) ;
#101 = PRESENTATION_LAYER_ASSIGNMENT (  '', '', ( #648 ) ) ;
#102 = PLANE ( 'NONE',  #522 ) ;
#103 = VECTOR ( 'NONE', #381, 1000.000000000000000 ) ;
#104 = VECTOR ( 'NONE', #496, 1000.000000000000000 ) ;
#105 = LINE ( 'NONE', #50, #422 ) ;
#106 = VERTEX_POINT ( 'NONE', #268 ) ;
#107 = APPLICATION_PROTOCOL_DEFINITION ( 'draft international standard', 'automotive_design', 1998, #196 ) ;
#108 = LINE ( 'NONE', #444, #104 ) ;
#109 = DIRECTION ( 'NONE',  ( -0.000000000000000000, -1.000000000000000000, -0.000000000000000000 ) ) ;
#110 = EDGE_LOOP ( 'NONE', ( #44, #156, #241, #368 ) ) ;
#111 = EDGE_CURVE ( 'NONE', #534, #507, #561, .T. ) ;
#112 = DIRECTION ( 'NONE',  ( 1.000000000000000000, 0.000000000000000000, -0.000000000000000000 ) ) ;
#113 = CARTESIAN_POINT ( 'NONE',  ( 29.32148626817447479, 8.000000000000000000, -0.9208400646203568352 ) ) ;
#114 = ORIENTED_EDGE ( 'NONE', *, *, #474, .T. ) ;
#115 = DIRECTION ( 'NONE',  ( -1.000000000000000000, -0.000000000000000000, -0.000000000000000000 ) ) ;
#116 = PRODUCT_RELATED_PRODUCT_CATEGORY ( 'part', '', ( #327 ) ) ;
#117 = DIRECTION ( 'NONE',  ( 0.000000000000000000, 0.000000000000000000, 1.000000000000000000 ) ) ;
#118 = VECTOR ( 'NONE', #399, 1000.000000000000000 ) ;
#119 = VECTOR ( 'NONE', #140, 1000.000000000000000 ) ;
#120 = ORIENTED_EDGE ( 'NONE', *, *, #233, .F. ) ;
#121 = DIRECTION ( 'NONE',  ( 0.000000000000000000, 0.000000000000000000, 1.000000000000000000 ) ) ;
#122 = DIRECTION ( 'NONE',  ( -1.000000000000000000, 0.000000000000000000, -0.000000000000000000 ) ) ;
#123 = ORIENTED_EDGE ( 'NONE', *, *, #181, .T. ) ;
#124 = DIRECTION ( 'NONE',  ( -1.000000000000000000, -0.000000000000000000, -0.000000000000000000 ) ) ;
#125 = PLANE ( 'NONE',  #337 ) ;
#126 = EDGE_CURVE ( 'NONE', #182, #127, #105, .T. ) ;
#127 = VERTEX_POINT ( 'NONE', #497 ) ;
#128 = FACE_OUTER_BOUND ( 'NONE', #364, .T. ) ;
#129 = DIRECTION ( 'NONE',  ( -1.000000000000000000, 0.000000000000000000, 0.000000000000000000 ) ) ;
#130 = VECTOR ( 'NONE', #558, 1000.000000000000000 ) ;
#131 = ORIENTED_EDGE ( 'NONE', *, *, #579, .F. ) ;
#132 = AXIS2_PLACEMENT_3D ( 'NONE', #572, #61, #183 ) ;
#133 = EDGE_CURVE ( 'NONE', #507, #193, #227, .T. ) ;
#134 = LINE ( 'NONE', #355, #568 ) ;
#135 = CARTESIAN_POINT ( 'NONE',  ( 4.688292781573792034, 2.299999999999999822, -5.996861942566146908 ) ) ;
#136 = LINE ( 'NONE', #311, #473 ) ;
#137 = EDGE_CURVE ( 'NONE', #708, #534, #677, .T. ) ;
#138 = FILL_AREA_STYLE ('',( #16 ) ) ;
#139 = EDGE_LOOP ( 'NONE', ( #549, #556, #467, #704 ) ) ;
#140 = DIRECTION ( 'NONE',  ( 0.000000000000000000, 0.000000000000000000, 1.000000000000000000 ) ) ;
#141 = LINE ( 'NONE', #304, #29 ) ;
#142 = PLANE ( 'NONE',  #375 ) ;
#143 = ORIENTED_EDGE ( 'NONE', *, *, #452, .T. ) ;
#144 = AXIS2_PLACEMENT_3D ( 'NONE', #647, #365, #499 ) ;
#145 = CARTESIAN_POINT ( 'NONE',  ( 0.000000000000000000, 2.299999999999999822, -14.48885612244654730 ) ) ;
#146 = VERTEX_POINT ( 'NONE', #335 ) ;
#147 = DIRECTION ( 'NONE',  ( -0.000000000000000000, -1.000000000000000000, -0.000000000000000000 ) ) ;
#148 = CARTESIAN_POINT ( 'NONE',  ( 30.00000000000000000, 1.800000000000000044, 0.000000000000000000 ) ) ;
#149 = CARTESIAN_POINT ( 'NONE',  ( 0.000000000000000000, 2.299999999999999822, 0.000000000000000000 ) ) ;
#150 = ADVANCED_FACE ( 'NONE', ( #283 ), #159, .T. ) ;
#151 = ORIENTED_EDGE ( 'NONE', *, *, #445, .F. ) ;
#152 = DIRECTION ( 'NONE',  ( 0.000000000000000000, 0.000000000000000000, -1.000000000000000000 ) ) ;
#153 = ORIENTED_EDGE ( 'NONE', *, *, #137, .T. ) ;
#154 = VECTOR ( 'NONE', #57, 1000.000000000000000 ) ;
#155 = CARTESIAN_POINT ( 'NONE',  ( 29.32148626817447479, 8.000000000000000000, -0.9208400646203568352 ) ) ;
#156 = ORIENTED_EDGE ( 'NONE', *, *, #95, .F. ) ;
#157 = LINE ( 'NONE', #273, #650 ) ;
#158 = EDGE_CURVE ( 'NONE', #182, #146, #326, .T. ) ;
#159 = PLANE ( 'NONE',  #421 ) ;
#160 = ORIENTED_EDGE ( 'NONE', *, *, #466, .T. ) ;
#161 = LINE ( 'NONE', #384, #188 ) ;
#162 = CARTESIAN_POINT ( 'NONE',  ( 13.13408723747981632, 8.000000000000000000, -0.9208400646203568352 ) ) ;
#163 = DIRECTION ( 'NONE',  ( -1.000000000000000000, -0.000000000000000000, -0.000000000000000000 ) ) ;
#164 = ORIENTED_EDGE ( 'NONE', *, *, #620, .F. ) ;
#165 = VECTOR ( 'NONE', #462, 1000.000000000000000 ) ;
#166 = CARTESIAN_POINT ( 'NONE',  ( 0.000000000000000000, 2.299999999999999822, -14.48885612244654730 ) ) ;
#167 = DIRECTION ( 'NONE',  ( -0.000000000000000000, -1.000000000000000000, -0.000000000000000000 ) ) ;
#168 = VERTEX_POINT ( 'NONE', #54 ) ;
#169 = CARTESIAN_POINT ( 'NONE',  ( 0.000000000000000000, 1.800000000000000044, -20.77513752833204563 ) ) ;
#170 = DIRECTION ( 'NONE',  ( 0.000000000000000000, 0.000000000000000000, 1.000000000000000000 ) ) ;
#171 = ORIENTED_EDGE ( 'NONE', *, *, #172, .F. ) ;
#172 = EDGE_CURVE ( 'NONE', #229, #507, #280, .T. ) ;
#173 = LINE ( 'NONE', #321, #302 ) ;
#174 = CARTESIAN_POINT ( 'NONE',  ( 4.688292781573792034, 2.299999999999999822, -10.59209688838887686 ) ) ;
#175 = ORIENTED_EDGE ( 'NONE', *, *, #372, .T. ) ;
#176 = LINE ( 'NONE', #414, #31 ) ;
#177 = LINE ( 'NONE', #344, #254 ) ;
#178 = VECTOR ( 'NONE', #662, 1000.000000000000000 ) ;
#179 = ORIENTED_EDGE ( 'NONE', *, *, #596, .T. ) ;
#180 = CARTESIAN_POINT ( 'NONE',  ( 0.000000000000000000, 1.800000000000000044, -15.55735056542811101 ) ) ;
#181 = EDGE_CURVE ( 'NONE', #605, #87, #4, .T. ) ;
#182 = VERTEX_POINT ( 'NONE', #235 ) ;
#183 = DIRECTION ( 'NONE',  ( -1.000000000000000000, 0.000000000000000000, -0.000000000000000000 ) ) ;
#184 = LINE ( 'NONE', #536, #508 ) ;
#185 = ORIENTED_EDGE ( 'NONE', *, *, #158, .T. ) ;
#186 = PLANE ( 'NONE',  #68 ) ;
#187 = VECTOR ( 'NONE', #599, 1000.000000000000000 ) ;
#188 = VECTOR ( 'NONE', #731, 1000.000000000000000 ) ;
#189 = ADVANCED_FACE ( 'NONE', ( #295 ), #358, .F. ) ;
#190 = DIRECTION ( 'NONE',  ( 0.000000000000000000, 0.000000000000000000, -1.000000000000000000 ) ) ;
#191 = DIRECTION ( 'NONE',  ( 1.000000000000000000, -0.000000000000000000, 0.000000000000000000 ) ) ;
#192 = LINE ( 'NONE', #433, #376 ) ;
#193 = VERTEX_POINT ( 'NONE', #689 ) ;
#194 = CARTESIAN_POINT ( 'NONE',  ( 0.000000000000000000, 8.000000000000000000, -0.9208400646203568352 ) ) ;
#195 = CARTESIAN_POINT ( 'NONE',  ( 0.000000000000000000, 2.299999999999999822, -10.59209688838887686 ) ) ;
#196 = APPLICATION_CONTEXT ( 'automotive_design' ) ;
#197 = ORIENTED_EDGE ( 'NONE', *, *, #607, .T. ) ;
#198 = DIRECTION ( 'NONE',  ( -1.000000000000000000, 0.000000000000000000, 0.000000000000000000 ) ) ;
#199 = ADVANCED_FACE ( 'NONE', ( #573 ), #65, .F. ) ;
#200 = ORIENTED_EDGE ( 'NONE', *, *, #126, .T. ) ;
#201 = SURFACE_STYLE_FILL_AREA ( #712 ) ;
#202 = DIRECTION ( 'NONE',  ( 0.000000000000000000, 0.000000000000000000, 1.000000000000000000 ) ) ;
#203 = UNCERTAINTY_MEASURE_WITH_UNIT (LENGTH_MEASURE( 1.000000000000000082E-05 ), #587, 'distance_accuracy_value', 'NONE');
#204 = ORIENTED_EDGE ( 'NONE', *, *, #495, .T. ) ;
#205 = DIRECTION ( 'NONE',  ( -1.000000000000000000, 0.000000000000000000, -0.000000000000000000 ) ) ;
#206 = MANIFOLD_SOLID_BREP ( 'Boss-Extrude3', #567 ) ;
#207 = ORIENTED_EDGE ( 'NONE', *, *, #530, .F. ) ;
#208 = ADVANCED_FACE ( 'NONE', ( #298 ), #125, .F. ) ;
#209 = STYLED_ITEM ( 'NONE', ( #300 ), #643 ) ;
#210 = CARTESIAN_POINT ( 'NONE',  ( 30.00000000000000000, 1.800000000000000044, -26.00000000000000000 ) ) ;
#211 = DIRECTION ( 'NONE',  ( -0.000000000000000000, -1.000000000000000000, -0.000000000000000000 ) ) ;
#212 = VERTEX_POINT ( 'NONE', #692 ) ;
#213 = CARTESIAN_POINT ( 'NONE',  ( 0.000000000000000000, 1.800000000000000044, 0.000000000000000000 ) ) ;
#214 = CARTESIAN_POINT ( 'NONE',  ( 4.688292781573792034, 2.299999999999999822, -2.100102708508472027 ) ) ;
#215 = ORIENTED_EDGE ( 'NONE', *, *, #354, .F. ) ;
#216 = FACE_OUTER_BOUND ( 'NONE', #2, .T. ) ;
#217 = CARTESIAN_POINT ( 'NONE',  ( 0.000000000000000000, 1.800000000000000044, -24.23075420759073140 ) ) ;
#218 = UNCERTAINTY_MEASURE_WITH_UNIT (LENGTH_MEASURE( 1.000000000000000082E-05 ), #636, 'distance_accuracy_value', 'NONE');
#219 = ORIENTED_EDGE ( 'NONE', *, *, #59, .F. ) ;
#220 = AXIS2_PLACEMENT_3D ( 'NONE', #148, #547, #80 ) ;
#221 = CARTESIAN_POINT ( 'NONE',  ( 4.688292781573792034, 1.800000000000000044, -24.23075420759073140 ) ) ;
#222 = VECTOR ( 'NONE', #529, 1000.000000000000000 ) ;
#223 = LINE ( 'NONE', #618, #483 ) ;
#224 = EDGE_CURVE ( 'NONE', #608, #657, #472, .T. ) ;
#225 = ORIENTED_EDGE ( 'NONE', *, *, #55, .F. ) ;
#226 = FACE_OUTER_BOUND ( 'NONE', #139, .T. ) ;
#227 = LINE ( 'NONE', #217, #492 ) ;
#228 = ADVANCED_FACE ( 'NONE', ( #515 ), #633, .F. ) ;
#229 = VERTEX_POINT ( 'NONE', #684 ) ;
#230 = CARTESIAN_POINT ( 'NONE',  ( 4.688292781573792034, 2.299999999999999822, -14.48885612244654730 ) ) ;
#231 =( NAMED_UNIT ( * ) SI_UNIT ( $, .STERADIAN. ) SOLID_ANGLE_UNIT ( ) );
#232 = ORIENTED_EDGE ( 'NONE', *, *, #126, .F. ) ;
#233 = EDGE_CURVE ( 'NONE', #146, #168, #177, .T. ) ;
#234 = LINE ( 'NONE', #180, #324 ) ;
#235 = CARTESIAN_POINT ( 'NONE',  ( 0.000000000000000000, 2.299999999999999822, -2.100102708508472027 ) ) ;
#236 = COLOUR_RGB ( '',0.7960784313725489669, 0.8235294117647058432, 0.9372549019607843146 ) ;
#237 = VECTOR ( 'NONE', #727, 1000.000000000000000 ) ;
#238 = VERTEX_POINT ( 'NONE', #405 ) ;
#239 = LINE ( 'NONE', #584, #449 ) ;
#240 = CARTESIAN_POINT ( 'NONE',  ( 0.000000000000000000, 1.800000000000000044, 0.000000000000000000 ) ) ;
#241 = ORIENTED_EDGE ( 'NONE', *, *, #607, .F. ) ;
#242 = DIRECTION ( 'NONE',  ( 0.000000000000000000, 0.000000000000000000, -1.000000000000000000 ) ) ;
#243 = SURFACE_STYLE_USAGE ( .BOTH. , #12 ) ;
#244 = ADVANCED_FACE ( 'NONE', ( #629 ), #586, .F. ) ;
#245 = ORIENTED_EDGE ( 'NONE', *, *, #397, .T. ) ;
#246 = FACE_OUTER_BOUND ( 'NONE', #317, .T. ) ;
#247 = AXIS2_PLACEMENT_3D ( 'NONE', #43, #438, #554 ) ;
#248 = FACE_OUTER_BOUND ( 'NONE', #715, .T. ) ;
#249 = ORIENTED_EDGE ( 'NONE', *, *, #717, .F. ) ;
#250 = DIRECTION ( 'NONE',  ( -0.000000000000000000, -1.000000000000000000, -0.000000000000000000 ) ) ;
#251 = EDGE_LOOP ( 'NONE', ( #143, #664, #359, #406 ) ) ;
#252 = EDGE_CURVE ( 'NONE', #309, #456, #518, .T. ) ;
#253 = LINE ( 'NONE', #479, #313 ) ;
#254 = VECTOR ( 'NONE', #356, 1000.000000000000000 ) ;
#255 = VECTOR ( 'NONE', #190, 1000.000000000000000 ) ;
#256 = ORIENTED_EDGE ( 'NONE', *, *, #99, .F. ) ;
#257 = DIRECTION ( 'NONE',  ( -0.000000000000000000, -1.000000000000000000, -0.000000000000000000 ) ) ;
#258 = PLANE ( 'NONE',  #603 ) ;
#259 = EDGE_CURVE ( 'NONE', #56, #85, #9, .T. ) ;
#260 = ORIENTED_EDGE ( 'NONE', *, *, #696, .T. ) ;
#261 = CARTESIAN_POINT ( 'NONE',  ( 30.00000000000000000, 0.000000000000000000, -26.00000000000000000 ) ) ;
#262 = EDGE_CURVE ( 'NONE', #39, #106, #184, .T. ) ;
#263 = ORIENTED_EDGE ( 'NONE', *, *, #500, .F. ) ;
#264 = LINE ( 'NONE', #318, #698 ) ;
#265 = EDGE_LOOP ( 'NONE', ( #100, #487, #600, #611, #730, #619, #348, #401, #333, #380, #123, #215, #336, #114, #296, #245 ) ) ;
#266 = VECTOR ( 'NONE', #147, 1000.000000000000000 ) ;
#267 = FACE_OUTER_BOUND ( 'NONE', #498, .T. ) ;
#268 = CARTESIAN_POINT ( 'NONE',  ( 13.13408723747981632, 8.000000000000000000, -15.55735056542811101 ) ) ;
#269 = EDGE_LOOP ( 'NONE', ( #616, #597, #353, #63 ) ) ;
#270 = DIRECTION ( 'NONE',  ( 0.000000000000000000, 1.000000000000000000, -0.000000000000000000 ) ) ;
#271 = CARTESIAN_POINT ( 'NONE',  ( 0.000000000000000000, 2.299999999999999822, -5.996861942566146908 ) ) ;
#272 = VERTEX_POINT ( 'NONE', #155 ) ;
#273 = CARTESIAN_POINT ( 'NONE',  ( 0.000000000000000000, 1.800000000000000044, -5.996861942566146908 ) ) ;
#274 = PRODUCT_DEFINITION_SHAPE ( 'NONE', 'NONE',  #601 ) ;
#275 = EDGE_CURVE ( 'NONE', #272, #14, #707, .T. ) ;
#276 = DIRECTION ( 'NONE',  ( -0.000000000000000000, -1.000000000000000000, -0.000000000000000000 ) ) ;
#277 = EDGE_LOOP ( 'NONE', ( #175, #249, #736, #685 ) ) ;
#278 = VECTOR ( 'NONE', #532, 1000.000000000000000 ) ;
#279 = DIRECTION ( 'NONE',  ( 1.000000000000000000, 0.000000000000000000, -0.000000000000000000 ) ) ;
#280 = LINE ( 'NONE', #511, #41 ) ;
#281 = ORIENTED_EDGE ( 'NONE', *, *, #714, .F. ) ;
#282 = CARTESIAN_POINT ( 'NONE',  ( 4.688292781573792034, 2.299999999999999822, -14.48885612244654730 ) ) ;
#283 = FACE_OUTER_BOUND ( 'NONE', #626, .T. ) ;
#284 = FACE_OUTER_BOUND ( 'NONE', #545, .T. ) ;
#285 = EDGE_CURVE ( 'NONE', #675, #637, #420, .T. ) ;
#286 = ORIENTED_EDGE ( 'NONE', *, *, #133, .F. ) ;
#287 = DIRECTION ( 'NONE',  ( 0.000000000000000000, 0.000000000000000000, 1.000000000000000000 ) ) ;
#288 = DIRECTION ( 'NONE',  ( 1.000000000000000000, 0.000000000000000000, -0.000000000000000000 ) ) ;
#289 = ORIENTED_EDGE ( 'NONE', *, *, #445, .T. ) ;
#290 = CARTESIAN_POINT ( 'NONE',  ( 29.32148626817447479, 1.800000000000000044, -15.55735056542811101 ) ) ;
#291 = VECTOR ( 'NONE', #385, 1000.000000000000000 ) ;
#292 =( GEOMETRIC_REPRESENTATION_CONTEXT ( 3 ) GLOBAL_UNCERTAINTY_ASSIGNED_CONTEXT ( ( #203 ) ) GLOBAL_UNIT_ASSIGNED_CONTEXT ( ( #587, #475, #702 ) ) REPRESENTATION_CONTEXT ( 'NONE', 'WORKASPACE' ) );
#293 = ORIENTED_EDGE ( 'NONE', *, *, #341, .F. ) ;
#294 = DIRECTION ( 'NONE',  ( 0.000000000000000000, 0.000000000000000000, -1.000000000000000000 ) ) ;
#295 = FACE_OUTER_BOUND ( 'NONE', #110, .T. ) ;
#296 = ORIENTED_EDGE ( 'NONE', *, *, #357, .T. ) ;
#297 = CARTESIAN_POINT ( 'NONE',  ( 0.000000000000000000, 0.000000000000000000, 0.000000000000000000 ) ) ;
#298 = FACE_OUTER_BOUND ( 'NONE', #453, .T. ) ;
#299 = ADVANCED_FACE ( 'NONE', ( #649 ), #83, .T. ) ;
#300 = PRESENTATION_STYLE_ASSIGNMENT (( #655 ) ) ;
#301 = DIRECTION ( 'NONE',  ( -0.000000000000000000, -0.000000000000000000, -1.000000000000000000 ) ) ;
#302 = VECTOR ( 'NONE', #621, 1000.000000000000000 ) ;
#303 = ORIENTED_EDGE ( 'NONE', *, *, #585, .F. ) ;
#304 = CARTESIAN_POINT ( 'NONE',  ( 30.00000000000000000, 1.800000000000000044, 0.000000000000000000 ) ) ;
#305 = EDGE_CURVE ( 'NONE', #85, #409, #141, .T. ) ;
#306 = ORIENTED_EDGE ( 'NONE', *, *, #259, .F. ) ;
#307 = DIRECTION ( 'NONE',  ( 0.000000000000000000, 0.000000000000000000, 1.000000000000000000 ) ) ;
#308 = DIRECTION ( 'NONE',  ( 0.000000000000000000, -0.000000000000000000, 1.000000000000000000 ) ) ;
#309 = VERTEX_POINT ( 'NONE', #92 ) ;
#310 = ADVANCED_FACE ( 'NONE', ( #366 ), #426, .T. ) ;
#311 = CARTESIAN_POINT ( 'NONE',  ( 4.688292781573792034, 1.800000000000000044, -5.996861942566146908 ) ) ;
#312 = PLANE ( 'NONE',  #220 ) ;
#313 = VECTOR ( 'NONE', #370, 1000.000000000000000 ) ;
#314 = ORIENTED_EDGE ( 'NONE', *, *, #133, .T. ) ;
#315 = DIRECTION ( 'NONE',  ( -1.000000000000000000, 0.000000000000000000, -0.000000000000000000 ) ) ;
#316 = ADVANCED_FACE ( 'NONE', ( #653 ), #86, .T. ) ;
#317 = EDGE_LOOP ( 'NONE', ( #10, #652, #424, #562 ) ) ;
#318 = CARTESIAN_POINT ( 'NONE',  ( 0.000000000000000000, 2.299999999999999822, -5.996861942566146908 ) ) ;
#319 = ADVANCED_FACE ( 'NONE', ( #24 ), #312, .F. ) ;
#320 = EDGE_LOOP ( 'NONE', ( #96, #72, #396, #528 ) ) ;
#321 = CARTESIAN_POINT ( 'NONE',  ( 0.000000000000000000, 1.800000000000000044, -14.48885612244654730 ) ) ;
#322 = LINE ( 'NONE', #271, #291 ) ;
#323 = ORIENTED_EDGE ( 'NONE', *, *, #441, .T. ) ;
#324 = VECTOR ( 'NONE', #373, 1000.000000000000000 ) ;
#325 = CARTESIAN_POINT ( 'NONE',  ( 0.000000000000000000, 8.000000000000000000, -0.9208400646203568352 ) ) ;
#326 = LINE ( 'NONE', #670, #5 ) ;
#327 = PRODUCT ( 'Buck converter 5V 16A', 'Buck converter 5V 16A', '', ( #52 ) ) ;
#328 = ORIENTED_EDGE ( 'NONE', *, *, #329, .T. ) ;
#329 = EDGE_CURVE ( 'NONE', #106, #484, #645, .T. ) ;
#330 = CARTESIAN_POINT ( 'NONE',  ( 0.000000000000000000, 1.800000000000000044, -26.00000000000000000 ) ) ;
#331 = DIRECTION ( 'NONE',  ( 0.000000000000000000, -0.000000000000000000, 1.000000000000000000 ) ) ;
#332 = DIRECTION ( 'NONE',  ( -0.000000000000000000, -1.000000000000000000, -0.000000000000000000 ) ) ;
#333 = ORIENTED_EDGE ( 'NONE', *, *, #285, .F. ) ;
#334 = CARTESIAN_POINT ( 'NONE',  ( 0.000000000000000000, 2.299999999999999822, -5.996861942566146908 ) ) ;
#335 = CARTESIAN_POINT ( 'NONE',  ( 0.000000000000000000, 1.800000000000000044, -2.100102708508472027 ) ) ;
#336 = ORIENTED_EDGE ( 'NONE', *, *, #392, .F. ) ;
#337 = AXIS2_PLACEMENT_3D ( 'NONE', #641, #347, #527 ) ;
#338 = DIRECTION ( 'NONE',  ( 0.000000000000000000, -0.000000000000000000, 1.000000000000000000 ) ) ;
#339 = VECTOR ( 'NONE', #242, 1000.000000000000000 ) ;
#340 = CARTESIAN_POINT ( 'NONE',  ( 0.000000000000000000, 2.299999999999999822, -10.59209688838887686 ) ) ;
#341 = EDGE_CURVE ( 'NONE', #708, #229, #539, .T. ) ;
#342 = ORIENTED_EDGE ( 'NONE', *, *, #397, .F. ) ;
#343 = CARTESIAN_POINT ( 'NONE',  ( 13.13408723747981632, 8.000000000000000000, 0.000000000000000000 ) ) ;
#344 = CARTESIAN_POINT ( 'NONE',  ( 0.000000000000000000, 1.800000000000000044, -2.100102708508472027 ) ) ;
#345 = ORIENTED_EDGE ( 'NONE', *, *, #574, .F. ) ;
#346 = CARTESIAN_POINT ( 'NONE',  ( 0.000000000000000000, 2.299999999999999822, -14.48885612244654730 ) ) ;
#347 = DIRECTION ( 'NONE',  ( 0.000000000000000000, 0.000000000000000000, -1.000000000000000000 ) ) ;
#348 = ORIENTED_EDGE ( 'NONE', *, *, #252, .T. ) ;
#349 = LINE ( 'NONE', #282, #592 ) ;
#350 = AXIS2_PLACEMENT_3D ( 'NONE', #482, #710, #418 ) ;
#351 = CARTESIAN_POINT ( 'NONE',  ( 0.000000000000000000, 2.299999999999999822, -20.77513752833204563 ) ) ;
#352 = VECTOR ( 'NONE', #40, 1000.000000000000000 ) ;
#353 = ORIENTED_EDGE ( 'NONE', *, *, #262, .F. ) ;
#354 = EDGE_CURVE ( 'NONE', #693, #87, #253, .T. ) ;
#355 = CARTESIAN_POINT ( 'NONE',  ( 0.000000000000000000, 1.800000000000000044, 0.000000000000000000 ) ) ;
#356 = DIRECTION ( 'NONE',  ( 1.000000000000000000, 0.000000000000000000, 0.000000000000000000 ) ) ;
#357 = EDGE_CURVE ( 'NONE', #193, #67, #378, .T. ) ;
#358 = PLANE ( 'NONE',  #686 ) ;
#359 = ORIENTED_EDGE ( 'NONE', *, *, #486, .F. ) ;
#360 = PLANE ( 'NONE',  #389 ) ;
#361 = CARTESIAN_POINT ( 'NONE',  ( 0.000000000000000000, 1.800000000000000044, -26.00000000000000000 ) ) ;
#362 = ADVANCED_FACE ( 'NONE', ( #32 ), #258, .F. ) ;
#363 = AXIS2_PLACEMENT_3D ( 'NONE', #624, #64, #287 ) ;
#364 = EDGE_LOOP ( 'NONE', ( #345, #443, #197, #589 ) ) ;
#365 = DIRECTION ( 'NONE',  ( 0.000000000000000000, 0.000000000000000000, 1.000000000000000000 ) ) ;
#366 = FACE_OUTER_BOUND ( 'NONE', #413, .T. ) ;
#367 = EDGE_CURVE ( 'NONE', #456, #28, #659, .T. ) ;
#368 = ORIENTED_EDGE ( 'NONE', *, *, #59, .T. ) ;
#369 = CARTESIAN_POINT ( 'NONE',  ( 4.688292781573792034, 2.299999999999999822, -20.77513752833204563 ) ) ;
#370 = DIRECTION ( 'NONE',  ( -0.000000000000000000, -1.000000000000000000, -0.000000000000000000 ) ) ;
#371 = ORIENTED_EDGE ( 'NONE', *, *, #181, .F. ) ;
#372 = EDGE_CURVE ( 'NONE', #657, #377, #374, .T. ) ;
#373 = DIRECTION ( 'NONE',  ( 1.000000000000000000, 0.000000000000000000, 0.000000000000000000 ) ) ;
#374 = LINE ( 'NONE', #35, #627 ) ;
#375 = AXIS2_PLACEMENT_3D ( 'NONE', #149, #379, #331 ) ;
#376 = VECTOR ( 'NONE', #550, 1000.000000000000000 ) ;
#377 = VERTEX_POINT ( 'NONE', #261 ) ;
#378 = LINE ( 'NONE', #542, #415 ) ;
#379 = DIRECTION ( 'NONE',  ( 0.000000000000000000, 1.000000000000000000, 0.000000000000000000 ) ) ;
#380 = ORIENTED_EDGE ( 'NONE', *, *, #417, .T. ) ;
#381 = DIRECTION ( 'NONE',  ( -0.000000000000000000, -0.000000000000000000, -1.000000000000000000 ) ) ;
#382 = DIRECTION ( 'NONE',  ( -1.000000000000000000, 0.000000000000000000, 0.000000000000000000 ) ) ;
#383 = EDGE_LOOP ( 'NONE', ( #690, #661, #439, #503 ) ) ;
#384 = CARTESIAN_POINT ( 'NONE',  ( 30.00000000000000000, 1.800000000000000044, 0.000000000000000000 ) ) ;
#385 = DIRECTION ( 'NONE',  ( -1.000000000000000000, -0.000000000000000000, -0.000000000000000000 ) ) ;
#386 = ADVANCED_FACE ( 'NONE', ( #248 ), #489, .F. ) ;
#387 = ORIENTED_EDGE ( 'NONE', *, *, #252, .F. ) ;
#388 = AXIS2_PLACEMENT_3D ( 'NONE', #135, #411, #458 ) ;
#389 = AXIS2_PLACEMENT_3D ( 'NONE', #481, #478, #307 ) ;
#390 = DIRECTION ( 'NONE',  ( 1.000000000000000000, -0.000000000000000000, 0.000000000000000000 ) ) ;
#391 = CARTESIAN_POINT ( 'NONE',  ( 0.000000000000000000, 1.800000000000000044, -26.00000000000000000 ) ) ;
#392 = EDGE_CURVE ( 'NONE', #631, #693, #192, .T. ) ;
#393 = EDGE_LOOP ( 'NONE', ( #468, #171, #293, #153 ) ) ;
#394 = DIRECTION ( 'NONE',  ( 0.000000000000000000, -0.000000000000000000, 1.000000000000000000 ) ) ;
#395 = DIRECTION ( 'NONE',  ( 1.000000000000000000, 0.000000000000000000, 0.000000000000000000 ) ) ;
#396 = ORIENTED_EDGE ( 'NONE', *, *, #596, .F. ) ;
#397 = EDGE_CURVE ( 'NONE', #67, #212, #108, .T. ) ;
#398 = DIRECTION ( 'NONE',  ( 0.000000000000000000, 0.000000000000000000, 1.000000000000000000 ) ) ;
#399 = DIRECTION ( 'NONE',  ( -0.000000000000000000, -1.000000000000000000, -0.000000000000000000 ) ) ;
#400 = APPLICATION_CONTEXT ( 'automotive_design' ) ;
#401 = ORIENTED_EDGE ( 'NONE', *, *, #21, .F. ) ;
#402 = VECTOR ( 'NONE', #332, 1000.000000000000000 ) ;
#403 = CARTESIAN_POINT ( 'NONE',  ( 13.13408723747981632, 1.799999999999999600, -0.9208400646203568352 ) ) ;
#404 = AXIS2_PLACEMENT_3D ( 'NONE', #716, #476, #205 ) ;
#405 = CARTESIAN_POINT ( 'NONE',  ( 29.32148626817447479, 1.799999999999999600, -0.9208400646203568352 ) ) ;
#406 = ORIENTED_EDGE ( 'NONE', *, *, #354, .T. ) ;
#407 = LINE ( 'NONE', #343, #339 ) ;
#408 = CARTESIAN_POINT ( 'NONE',  ( 0.000000000000000000, 1.800000000000000044, 0.000000000000000000 ) ) ;
#409 = VERTEX_POINT ( 'NONE', #210 ) ;
#410 = CARTESIAN_POINT ( 'NONE',  ( 30.00000000000000000, 0.000000000000000000, 0.000000000000000000 ) ) ;
#411 = DIRECTION ( 'NONE',  ( -1.000000000000000000, 0.000000000000000000, 0.000000000000000000 ) ) ;
#412 = ADVANCED_FACE ( 'NONE', ( #613, #676 ), #454, .T. ) ;
#413 = EDGE_LOOP ( 'NONE', ( #281, #342, #575, #537 ) ) ;
#414 = CARTESIAN_POINT ( 'NONE',  ( 0.000000000000000000, 2.299999999999999822, -24.23075420759073140 ) ) ;
#415 = VECTOR ( 'NONE', #430, 1000.000000000000000 ) ;
#416 = SURFACE_STYLE_FILL_AREA ( #138 ) ;
#417 = EDGE_CURVE ( 'NONE', #675, #605, #38, .T. ) ;
#418 = DIRECTION ( 'NONE',  ( 0.000000000000000000, 0.000000000000000000, 1.000000000000000000 ) ) ;
#419 = VERTEX_POINT ( 'NONE', #437 ) ;
#420 = LINE ( 'NONE', #145, #187 ) ;
#421 = AXIS2_PLACEMENT_3D ( 'NONE', #565, #382, #170 ) ;
#422 = VECTOR ( 'NONE', #663, 1000.000000000000000 ) ;
#423 = AXIS2_PLACEMENT_3D ( 'NONE', #523, #691, #338 ) ;
#424 = ORIENTED_EDGE ( 'NONE', *, *, #341, .T. ) ;
#425 =( LENGTH_UNIT ( ) NAMED_UNIT ( * ) SI_UNIT ( .MILLI., .METRE. ) );
#426 = PLANE ( 'NONE',  #448 ) ;
#427 = UNCERTAINTY_MEASURE_WITH_UNIT (LENGTH_MEASURE( 1.000000000000000082E-05 ), #425, 'distance_accuracy_value', 'NONE');
#428 = ORIENTED_EDGE ( 'NONE', *, *, #21, .T. ) ;
#429 = SURFACE_SIDE_STYLE ('',( #201 ) ) ;
#430 = DIRECTION ( 'NONE',  ( 0.000000000000000000, 0.000000000000000000, -1.000000000000000000 ) ) ;
#431 = EDGE_CURVE ( 'NONE', #67, #409, #617, .T. ) ;
#432 = ORIENTED_EDGE ( 'NONE', *, *, #172, .T. ) ;
#433 = CARTESIAN_POINT ( 'NONE',  ( 0.000000000000000000, 2.299999999999999822, -24.23075420759073140 ) ) ;
#434 = VECTOR ( 'NONE', #211, 1000.000000000000000 ) ;
#435 = VECTOR ( 'NONE', #89, 1000.000000000000000 ) ;
#436 = ORIENTED_EDGE ( 'NONE', *, *, #672, .F. ) ;
#437 = CARTESIAN_POINT ( 'NONE',  ( 4.688292781573792034, 2.299999999999999822, -5.996861942566146908 ) ) ;
#438 = DIRECTION ( 'NONE',  ( 0.000000000000000000, 0.000000000000000000, 1.000000000000000000 ) ) ;
#439 = ORIENTED_EDGE ( 'NONE', *, *, #672, .T. ) ;
#440 = LINE ( 'NONE', #666, #103 ) ;
#441 = EDGE_CURVE ( 'NONE', #56, #608, #724, .T. ) ;
#442 = LINE ( 'NONE', #113, #88 ) ;
#443 = ORIENTED_EDGE ( 'NONE', *, *, #275, .F. ) ;
#444 = CARTESIAN_POINT ( 'NONE',  ( 0.000000000000000000, 1.800000000000000044, -26.00000000000000000 ) ) ;
#445 = EDGE_CURVE ( 'NONE', #470, #605, #173, .T. ) ;
#446 = CARTESIAN_POINT ( 'NONE',  ( 4.688292781573792034, 1.800000000000000044, -24.23075420759073140 ) ) ;
#447 = ORIENTED_EDGE ( 'NONE', *, *, #500, .T. ) ;
#448 = AXIS2_PLACEMENT_3D ( 'NONE', #361, #152, #315 ) ;
#449 = VECTOR ( 'NONE', #517, 1000.000000000000000 ) ;
#450 = CARTESIAN_POINT ( 'NONE',  ( 13.13408723747981632, 8.000000000000000000, -0.9208400646203568352 ) ) ;
#451 = CARTESIAN_POINT ( 'NONE',  ( 29.32148626817447479, 8.000000000000000000, -15.55735056542811101 ) ) ;
#452 = EDGE_CURVE ( 'NONE', #87, #534, #553, .T. ) ;
#453 = EDGE_LOOP ( 'NONE', ( #81, #77, #306, #323 ) ) ;
#454 = PLANE ( 'NONE',  #509 ) ;
#455 = CARTESIAN_POINT ( 'NONE',  ( 4.688292781573792034, 2.299999999999999822, -20.77513752833204563 ) ) ;
#456 = VERTEX_POINT ( 'NONE', #501 ) ;
#457 = CARTESIAN_POINT ( 'NONE',  ( 0.000000000000000000, 2.299999999999999822, -14.48885612244654730 ) ) ;
#458 = DIRECTION ( 'NONE',  ( 0.000000000000000000, 0.000000000000000000, 1.000000000000000000 ) ) ;
#459 = ORIENTED_EDGE ( 'NONE', *, *, #495, .F. ) ;
#460 = AXIS2_PLACEMENT_3D ( 'NONE', #351, #71, #122 ) ;
#461 = PLANE ( 'NONE',  #423 ) ;
#462 = DIRECTION ( 'NONE',  ( 0.000000000000000000, 0.000000000000000000, -1.000000000000000000 ) ) ;
#463 = ORIENTED_EDGE ( 'NONE', *, *, #739, .T. ) ;
#464 = LINE ( 'NONE', #70, #255 ) ;
#465 = DIRECTION ( 'NONE',  ( 1.000000000000000000, -0.000000000000000000, 0.000000000000000000 ) ) ;
#466 = EDGE_CURVE ( 'NONE', #593, #182, #264, .T. ) ;
#467 = ORIENTED_EDGE ( 'NONE', *, *, #714, .T. ) ;
#468 = ORIENTED_EDGE ( 'NONE', *, *, #111, .T. ) ;
#469 = CARTESIAN_POINT ( 'NONE',  ( 0.000000000000000000, 2.299999999999999822, -10.59209688838887686 ) ) ;
#470 = VERTEX_POINT ( 'NONE', #97 ) ;
#471 = DIRECTION ( 'NONE',  ( 1.000000000000000000, 0.000000000000000000, -0.000000000000000000 ) ) ;
#472 = LINE ( 'NONE', #700, #734 ) ;
#473 = VECTOR ( 'NONE', #705, 1000.000000000000000 ) ;
#474 = EDGE_CURVE ( 'NONE', #631, #193, #560, .T. ) ;
#475 =( NAMED_UNIT ( * ) PLANE_ANGLE_UNIT ( ) SI_UNIT ( $, .RADIAN. ) );
#476 = DIRECTION ( 'NONE',  ( 0.000000000000000000, 0.000000000000000000, -1.000000000000000000 ) ) ;
#477 = ORIENTED_EDGE ( 'NONE', *, *, #233, .T. ) ;
#478 = DIRECTION ( 'NONE',  ( -1.000000000000000000, 0.000000000000000000, 0.000000000000000000 ) ) ;
#479 = CARTESIAN_POINT ( 'NONE',  ( 0.000000000000000000, 2.299999999999999822, -20.77513752833204563 ) ) ;
#480 = ORIENTED_EDGE ( 'NONE', *, *, #658, .F. ) ;
#481 = CARTESIAN_POINT ( 'NONE',  ( 4.688292781573792034, 2.299999999999999822, -14.48885612244654730 ) ) ;
#482 = CARTESIAN_POINT ( 'NONE',  ( 0.000000000000000000, 1.800000000000000044, 0.000000000000000000 ) ) ;
#483 = VECTOR ( 'NONE', #109, 1000.000000000000000 ) ;
#484 = VERTEX_POINT ( 'NONE', #491 ) ;
#485 = DIRECTION ( 'NONE',  ( -1.000000000000000000, 0.000000000000000000, 0.000000000000000000 ) ) ;
#486 = EDGE_CURVE ( 'NONE', #693, #708, #49, .T. ) ;
#487 = ORIENTED_EDGE ( 'NONE', *, *, #441, .F. ) ;
#488 = LINE ( 'NONE', #538, #544 ) ;
#489 = PLANE ( 'NONE',  #404 ) ;
#490 = ORIENTED_EDGE ( 'NONE', *, *, #452, .F. ) ;
#491 = CARTESIAN_POINT ( 'NONE',  ( 13.13408723747981632, 1.799999999999999600, -15.55735056542811101 ) ) ;
#492 = VECTOR ( 'NONE', #163, 1000.000000000000000 ) ;
#493 = VECTOR ( 'NONE', #679, 1000.000000000000000 ) ;
#494 = ORIENTED_EDGE ( 'NONE', *, *, #701, .F. ) ;
#495 = EDGE_CURVE ( 'NONE', #723, #309, #157, .T. ) ;
#496 = DIRECTION ( 'NONE',  ( -0.000000000000000000, -1.000000000000000000, -0.000000000000000000 ) ) ;
#497 = CARTESIAN_POINT ( 'NONE',  ( 4.688292781573792034, 2.299999999999999822, -2.100102708508472027 ) ) ;
#498 = EDGE_LOOP ( 'NONE', ( #516, #726, #219, #60 ) ) ;
#499 = DIRECTION ( 'NONE',  ( 1.000000000000000000, 0.000000000000000000, 0.000000000000000000 ) ) ;
#500 = EDGE_CURVE ( 'NONE', #28, #470, #440, .T. ) ;
#501 = CARTESIAN_POINT ( 'NONE',  ( 0.000000000000000000, 1.800000000000000044, -10.59209688838887686 ) ) ;
#502 = CARTESIAN_POINT ( 'NONE',  ( 4.688292781573792034, 2.299999999999999822, -5.996861942566146908 ) ) ;
#503 = ORIENTED_EDGE ( 'NONE', *, *, #585, .T. ) ;
#504 = DIRECTION ( 'NONE',  ( 0.000000000000000000, 0.000000000000000000, 1.000000000000000000 ) ) ;
#505 = LINE ( 'NONE', #340, #555 ) ;
#506 = EDGE_CURVE ( 'NONE', #85, #657, #161, .T. ) ;
#507 = VERTEX_POINT ( 'NONE', #221 ) ;
#508 = VECTOR ( 'NONE', #198, 1000.000000000000000 ) ;
#509 = AXIS2_PLACEMENT_3D ( 'NONE', #737, #270, #504 ) ;
#510 = CARTESIAN_POINT ( 'NONE',  ( 0.000000000000000000, 2.299999999999999822, -20.77513752833204563 ) ) ;
#511 = CARTESIAN_POINT ( 'NONE',  ( 4.688292781573792034, 2.299999999999999822, -24.23075420759073140 ) ) ;
#512 = ORIENTED_EDGE ( 'NONE', *, *, #259, .T. ) ;
#513 = ORIENTED_EDGE ( 'NONE', *, *, #45, .F. ) ;
#514 = DIRECTION ( 'NONE',  ( -0.000000000000000000, -0.000000000000000000, -1.000000000000000000 ) ) ;
#515 = FACE_OUTER_BOUND ( 'NONE', #320, .T. ) ;
#516 = ORIENTED_EDGE ( 'NONE', *, *, #530, .T. ) ;
#517 = DIRECTION ( 'NONE',  ( -0.000000000000000000, -0.000000000000000000, -1.000000000000000000 ) ) ;
#518 = LINE ( 'NONE', #408, #165 ) ;
#519 = EDGE_LOOP ( 'NONE', ( #494, #260, #93, #480 ) ) ;
#520 = MECHANICAL_DESIGN_GEOMETRIC_PRESENTATION_REPRESENTATION (  '', ( #648 ), #660 ) ;
#521 = ADVANCED_FACE ( 'NONE', ( #267 ), #102, .T. ) ;
#522 = AXIS2_PLACEMENT_3D ( 'NONE', #325, #394, #112 ) ;
#523 = CARTESIAN_POINT ( 'NONE',  ( 0.000000000000000000, 2.299999999999999822, 0.000000000000000000 ) ) ;
#524 = DIRECTION ( 'NONE',  ( 0.000000000000000000, -0.000000000000000000, 1.000000000000000000 ) ) ;
#525 = ORIENTED_EDGE ( 'NONE', *, *, #69, .T. ) ;
#526 = PLANE ( 'NONE',  #363 ) ;
#527 = DIRECTION ( 'NONE',  ( -1.000000000000000000, 0.000000000000000000, -0.000000000000000000 ) ) ;
#528 = ORIENTED_EDGE ( 'NONE', *, *, #45, .T. ) ;
#529 = DIRECTION ( 'NONE',  ( -0.000000000000000000, -1.000000000000000000, -0.000000000000000000 ) ) ;
#530 = EDGE_CURVE ( 'NONE', #14, #681, #557, .T. ) ;
#531 = FACE_OUTER_BOUND ( 'NONE', #711, .T. ) ;
#532 = DIRECTION ( 'NONE',  ( 1.000000000000000000, 0.000000000000000000, 0.000000000000000000 ) ) ;
#533 =( GEOMETRIC_REPRESENTATION_CONTEXT ( 3 ) GLOBAL_UNCERTAINTY_ASSIGNED_CONTEXT ( ( #427 ) ) GLOBAL_UNIT_ASSIGNED_CONTEXT ( ( #425, #19, #598 ) ) REPRESENTATION_CONTEXT ( 'NONE', 'WORKASPACE' ) );
#534 = VERTEX_POINT ( 'NONE', #46 ) ;
#535 = CARTESIAN_POINT ( 'NONE',  ( 0.000000000000000000, 0.000000000000000000, -26.00000000000000000 ) ) ;
#536 = CARTESIAN_POINT ( 'NONE',  ( 0.000000000000000000, 8.000000000000000000, -15.55735056542811101 ) ) ;
#537 = ORIENTED_EDGE ( 'NONE', *, *, #717, .T. ) ;
#538 = CARTESIAN_POINT ( 'NONE',  ( 0.000000000000000000, 0.000000000000000000, 0.000000000000000000 ) ) ;
#539 = LINE ( 'NONE', #27, #638 ) ;
#540 = EDGE_LOOP ( 'NONE', ( #289, #740, #303, #463 ) ) ;
#541 = ADVANCED_FACE ( 'NONE', ( #216 ), #669, .F. ) ;
#542 = CARTESIAN_POINT ( 'NONE',  ( 0.000000000000000000, 1.800000000000000044, 0.000000000000000000 ) ) ;
#543 = AXIS2_PLACEMENT_3D ( 'NONE', #595, #713, #308 ) ;
#544 = VECTOR ( 'NONE', #79, 1000.000000000000000 ) ;
#545 = EDGE_LOOP ( 'NONE', ( #160, #200, #179, #525 ) ) ;
#546 = LINE ( 'NONE', #82, #119 ) ;
#547 = DIRECTION ( 'NONE',  ( -1.000000000000000000, 0.000000000000000000, 0.000000000000000000 ) ) ;
#548 = ADVANCED_FACE ( 'NONE', ( #226 ), #186, .F. ) ;
#549 = ORIENTED_EDGE ( 'NONE', *, *, #224, .F. ) ;
#550 = DIRECTION ( 'NONE',  ( 0.000000000000000000, 0.000000000000000000, 1.000000000000000000 ) ) ;
#551 = ADVANCED_FACE ( 'NONE', ( #581 ), #640, .F. ) ;
#552 = ORIENTED_EDGE ( 'NONE', *, *, #111, .F. ) ;
#553 = LINE ( 'NONE', #169, #493 ) ;
#554 = DIRECTION ( 'NONE',  ( 1.000000000000000000, 0.000000000000000000, -0.000000000000000000 ) ) ;
#555 = VECTOR ( 'NONE', #395, 1000.000000000000000 ) ;
#556 = ORIENTED_EDGE ( 'NONE', *, *, #732, .T. ) ;
#557 = LINE ( 'NONE', #450, #237 ) ;
#558 = DIRECTION ( 'NONE',  ( -0.000000000000000000, -0.000000000000000000, -1.000000000000000000 ) ) ;
#559 = EDGE_LOOP ( 'NONE', ( #314, #6, #583, #432 ) ) ;
#560 = LINE ( 'NONE', #719, #352 ) ;
#561 = LINE ( 'NONE', #446, #130 ) ;
#562 = ORIENTED_EDGE ( 'NONE', *, *, #564, .T. ) ;
#563 = DIRECTION ( 'NONE',  ( 0.000000000000000000, 0.000000000000000000, 1.000000000000000000 ) ) ;
#564 = EDGE_CURVE ( 'NONE', #229, #631, #176, .T. ) ;
#565 = CARTESIAN_POINT ( 'NONE',  ( 13.13408723747981632, 8.000000000000000000, 0.000000000000000000 ) ) ;
#566 = ORIENTED_EDGE ( 'NONE', *, *, #305, .T. ) ;
#567 = CLOSED_SHELL ( 'NONE', ( #412, #208, #319, #310, #299, #548, #150, #521, #189, #244, #630, #682, #228, #541, #13, #386, #706, #75, #316, #199, #362, #551, #651 ) ) ;
#568 = VECTOR ( 'NONE', #294, 1000.000000000000000 ) ;
#569 = LINE ( 'NONE', #694, #154 ) ;
#570 = LINE ( 'NONE', #729, #402 ) ;
#571 = ORIENTED_EDGE ( 'NONE', *, *, #728, .F. ) ;
#572 = CARTESIAN_POINT ( 'NONE',  ( 0.000000000000000000, 2.299999999999999822, -2.100102708508472027 ) ) ;
#573 = FACE_OUTER_BOUND ( 'NONE', #251, .T. ) ;
#574 = EDGE_CURVE ( 'NONE', #14, #106, #407, .T. ) ;
#575 = ORIENTED_EDGE ( 'NONE', *, *, #431, .T. ) ;
#576 = CARTESIAN_POINT ( 'NONE',  ( 0.000000000000000000, 2.299999999999999822, -5.996861942566146908 ) ) ;
#577 = CARTESIAN_POINT ( 'NONE',  ( 29.32148626817447479, 8.000000000000000000, 0.000000000000000000 ) ) ;
#578 = ORIENTED_EDGE ( 'NONE', *, *, #739, .F. ) ;
#579 = EDGE_CURVE ( 'NONE', #22, #28, #688, .T. ) ;
#580 = VECTOR ( 'NONE', #465, 1000.000000000000000 ) ;
#581 = FACE_OUTER_BOUND ( 'NONE', #559, .T. ) ;
#582 = DIRECTION ( 'NONE',  ( 0.000000000000000000, 0.000000000000000000, 1.000000000000000000 ) ) ;
#583 = ORIENTED_EDGE ( 'NONE', *, *, #564, .F. ) ;
#584 = CARTESIAN_POINT ( 'NONE',  ( 4.688292781573792034, 2.299999999999999822, -5.996861942566146908 ) ) ;
#585 = EDGE_CURVE ( 'NONE', #668, #675, #699, .T. ) ;
#586 = PLANE ( 'NONE',  #66 ) ;
#587 =( LENGTH_UNIT ( ) NAMED_UNIT ( * ) SI_UNIT ( .MILLI., .METRE. ) );
#588 = DIRECTION ( 'NONE',  ( 0.000000000000000000, 0.000000000000000000, -1.000000000000000000 ) ) ;
#589 = ORIENTED_EDGE ( 'NONE', *, *, #262, .T. ) ;
#590 = VECTOR ( 'NONE', #588, 1000.000000000000000 ) ;
#591 = CARTESIAN_POINT ( 'NONE',  ( 13.13408723747981632, 8.000000000000000000, -15.55735056542811101 ) ) ;
#592 = VECTOR ( 'NONE', #514, 1000.000000000000000 ) ;
#593 = VERTEX_POINT ( 'NONE', #576 ) ;
#594 = LINE ( 'NONE', #535, #435 ) ;
#595 = CARTESIAN_POINT ( 'NONE',  ( 0.000000000000000000, 2.299999999999999822, 0.000000000000000000 ) ) ;
#596 = EDGE_CURVE ( 'NONE', #127, #419, #239, .T. ) ;
#597 = ORIENTED_EDGE ( 'NONE', *, *, #329, .F. ) ;
#598 =( NAMED_UNIT ( * ) SI_UNIT ( $, .STERADIAN. ) SOLID_ANGLE_UNIT ( ) );
#599 = DIRECTION ( 'NONE',  ( 0.000000000000000000, 0.000000000000000000, 1.000000000000000000 ) ) ;
#600 = ORIENTED_EDGE ( 'NONE', *, *, #620, .T. ) ;
#601 = PRODUCT_DEFINITION ( 'General', '', #604, #674 ) ;
#602 = DIRECTION ( 'NONE',  ( 0.000000000000000000, 0.000000000000000000, -1.000000000000000000 ) ) ;
#603 = AXIS2_PLACEMENT_3D ( 'NONE', #703, #485, #202 ) ;
#604 = PRODUCT_DEFINITION_FORMATION_WITH_SPECIFIED_SOURCE ( 'Symmetric', '', #327, .NOT_KNOWN. ) ;
#605 = VERTEX_POINT ( 'NONE', #15 ) ;
#606 = DIRECTION ( 'NONE',  ( 0.000000000000000000, 0.000000000000000000, -1.000000000000000000 ) ) ;
#607 = EDGE_CURVE ( 'NONE', #272, #39, #464, .T. ) ;
#608 = VERTEX_POINT ( 'NONE', #635 ) ;
#609 = DIRECTION ( 'NONE',  ( -0.000000000000000000, -1.000000000000000000, -0.000000000000000000 ) ) ;
#610 = CARTESIAN_POINT ( 'NONE',  ( 0.000000000000000000, 1.800000000000000044, 0.000000000000000000 ) ) ;
#611 = ORIENTED_EDGE ( 'NONE', *, *, #158, .F. ) ;
#612 = SHAPE_DEFINITION_REPRESENTATION ( #274, #643 ) ;
#613 = FACE_BOUND ( 'NONE', #519, .T. ) ;
#614 = PLANE ( 'NONE',  #247 ) ;
#615 = VECTOR ( 'NONE', #115, 1000.000000000000000 ) ;
#616 = ORIENTED_EDGE ( 'NONE', *, *, #696, .F. ) ;
#617 = LINE ( 'NONE', #330, #673 ) ;
#618 = CARTESIAN_POINT ( 'NONE',  ( 29.32148626817447479, 8.000000000000000000, -15.55735056542811101 ) ) ;
#619 = ORIENTED_EDGE ( 'NONE', *, *, #99, .T. ) ;
#620 = EDGE_CURVE ( 'NONE', #56, #146, #134, .T. ) ;
#621 = DIRECTION ( 'NONE',  ( -1.000000000000000000, -0.000000000000000000, -0.000000000000000000 ) ) ;
#622 = CARTESIAN_POINT ( 'NONE',  ( 30.00000000000000000, 1.800000000000000044, 0.000000000000000000 ) ) ;
#623 = ORIENTED_EDGE ( 'NONE', *, *, #367, .F. ) ;
#624 = CARTESIAN_POINT ( 'NONE',  ( 0.000000000000000000, 8.000000000000000000, 0.000000000000000000 ) ) ;
#625 = DIRECTION ( 'NONE',  ( -0.000000000000000000, -1.000000000000000000, -0.000000000000000000 ) ) ;
#626 = EDGE_LOOP ( 'NONE', ( #328, #25, #207, #697 ) ) ;
#627 = VECTOR ( 'NONE', #606, 1000.000000000000000 ) ;
#628 = PLANE ( 'NONE',  #132 ) ;
#629 = FACE_OUTER_BOUND ( 'NONE', #269, .T. ) ;
#630 = ADVANCED_FACE ( 'NONE', ( #128 ), #526, .T. ) ;
#631 = VERTEX_POINT ( 'NONE', #11 ) ;
#632 = DIRECTION ( 'NONE',  ( 0.000000000000000000, 0.000000000000000000, 1.000000000000000000 ) ) ;
#633 = PLANE ( 'NONE',  #388 ) ;
#634 = VERTEX_POINT ( 'NONE', #290 ) ;
#635 = CARTESIAN_POINT ( 'NONE',  ( 0.000000000000000000, 0.000000000000000000, 0.000000000000000000 ) ) ;
#636 =( LENGTH_UNIT ( ) NAMED_UNIT ( * ) SI_UNIT ( .MILLI., .METRE. ) );
#637 = VERTEX_POINT ( 'NONE', #469 ) ;
#638 = VECTOR ( 'NONE', #301, 1000.000000000000000 ) ;
#639 = VECTOR ( 'NONE', #609, 1000.000000000000000 ) ;
#640 = PLANE ( 'NONE',  #91 ) ;
#641 = CARTESIAN_POINT ( 'NONE',  ( 0.000000000000000000, 1.800000000000000044, 0.000000000000000000 ) ) ;
#642 = PRESENTATION_STYLE_ASSIGNMENT (( #243 ) ) ;
#643 = ADVANCED_BREP_SHAPE_REPRESENTATION ( 'Buck converter 5V 16A', ( #206, #144 ), #533 ) ;
#644 = CARTESIAN_POINT ( 'NONE',  ( 4.688292781573792034, 1.800000000000000044, -5.996861942566146908 ) ) ;
#645 = LINE ( 'NONE', #591, #17 ) ;
#646 = ORIENTED_EDGE ( 'NONE', *, *, #431, .F. ) ;
#647 = CARTESIAN_POINT ( 'NONE',  ( 0.000000000000000000, 0.000000000000000000, 0.000000000000000000 ) ) ;
#648 = STYLED_ITEM ( 'NONE', ( #642 ), #206 ) ;
#649 = FACE_OUTER_BOUND ( 'NONE', #265, .T. ) ;
#650 = VECTOR ( 'NONE', #53, 1000.000000000000000 ) ;
#651 = ADVANCED_FACE ( 'NONE', ( #246 ), #461, .T. ) ;
#652 = ORIENTED_EDGE ( 'NONE', *, *, #486, .T. ) ;
#653 = FACE_OUTER_BOUND ( 'NONE', #383, .T. ) ;
#654 = ORIENTED_EDGE ( 'NONE', *, *, #69, .F. ) ;
#655 = SURFACE_STYLE_USAGE ( .BOTH. , #429 ) ;
#656 = CARTESIAN_POINT ( 'NONE',  ( 0.000000000000000000, 1.800000000000000044, -10.59209688838887686 ) ) ;
#657 = VERTEX_POINT ( 'NONE', #410 ) ;
#658 = EDGE_CURVE ( 'NONE', #681, #238, #569, .T. ) ;
#659 = LINE ( 'NONE', #656, #278 ) ;
#660 =( GEOMETRIC_REPRESENTATION_CONTEXT ( 3 ) GLOBAL_UNCERTAINTY_ASSIGNED_CONTEXT ( ( #218 ) ) GLOBAL_UNIT_ASSIGNED_CONTEXT ( ( #636, #695, #231 ) ) REPRESENTATION_CONTEXT ( 'NONE', 'WORKASPACE' ) );
#661 = ORIENTED_EDGE ( 'NONE', *, *, #55, .T. ) ;
#662 = DIRECTION ( 'NONE',  ( 1.000000000000000000, 0.000000000000000000, 0.000000000000000000 ) ) ;
#663 = DIRECTION ( 'NONE',  ( 1.000000000000000000, 0.000000000000000000, 0.000000000000000000 ) ) ;
#664 = ORIENTED_EDGE ( 'NONE', *, *, #137, .F. ) ;
#665 = APPLICATION_PROTOCOL_DEFINITION ( 'draft international standard', 'automotive_design', 1998, #400 ) ;
#666 = CARTESIAN_POINT ( 'NONE',  ( 4.688292781573792034, 1.800000000000000044, -14.48885612244654730 ) ) ;
#667 = DIRECTION ( 'NONE',  ( -0.000000000000000000, -1.000000000000000000, -0.000000000000000000 ) ) ;
#668 = VERTEX_POINT ( 'NONE', #230 ) ;
#669 = PLANE ( 'NONE',  #687 ) ;
#670 = CARTESIAN_POINT ( 'NONE',  ( 0.000000000000000000, 2.299999999999999822, -2.100102708508472027 ) ) ;
#671 = VECTOR ( 'NONE', #20, 1000.000000000000000 ) ;
#672 = EDGE_CURVE ( 'NONE', #22, #668, #349, .T. ) ;
#673 = VECTOR ( 'NONE', #390, 1000.000000000000000 ) ;
#674 = PRODUCT_DEFINITION_CONTEXT ( 'detailed design', #196, 'design' ) ;
#675 = VERTEX_POINT ( 'NONE', #457 ) ;
#676 = FACE_OUTER_BOUND ( 'NONE', #33, .T. ) ;
#677 = LINE ( 'NONE', #455, #118 ) ;
#678 = ORIENTED_EDGE ( 'NONE', *, *, #579, .T. ) ;
#679 = DIRECTION ( 'NONE',  ( 1.000000000000000000, 0.000000000000000000, 0.000000000000000000 ) ) ;
#680 = CARTESIAN_POINT ( 'NONE',  ( 0.000000000000000000, 1.800000000000000044, -20.77513752833204563 ) ) ;
#681 = VERTEX_POINT ( 'NONE', #403 ) ;
#682 = ADVANCED_FACE ( 'NONE', ( #683 ), #628, .F. ) ;
#683 = FACE_OUTER_BOUND ( 'NONE', #51, .T. ) ;
#684 = CARTESIAN_POINT ( 'NONE',  ( 4.688292781573792034, 2.299999999999999822, -24.23075420759073140 ) ) ;
#685 = ORIENTED_EDGE ( 'NONE', *, *, #506, .T. ) ;
#686 = AXIS2_PLACEMENT_3D ( 'NONE', #577, #129, #582 ) ;
#687 = AXIS2_PLACEMENT_3D ( 'NONE', #334, #563, #279 ) ;
#688 = LINE ( 'NONE', #73, #222 ) ;
#689 = CARTESIAN_POINT ( 'NONE',  ( 0.000000000000000000, 1.800000000000000044, -24.23075420759073140 ) ) ;
#690 = ORIENTED_EDGE ( 'NONE', *, *, #285, .T. ) ;
#691 = DIRECTION ( 'NONE',  ( 0.000000000000000000, 1.000000000000000000, 0.000000000000000000 ) ) ;
#692 = CARTESIAN_POINT ( 'NONE',  ( 0.000000000000000000, 0.000000000000000000, -26.00000000000000000 ) ) ;
#693 = VERTEX_POINT ( 'NONE', #3 ) ;
#694 = CARTESIAN_POINT ( 'NONE',  ( 0.000000000000000000, 1.800000000000000044, -0.9208400646203568352 ) ) ;
#695 =( NAMED_UNIT ( * ) PLANE_ANGLE_UNIT ( ) SI_UNIT ( $, .RADIAN. ) );
#696 = EDGE_CURVE ( 'NONE', #484, #634, #234, .T. ) ;
#697 = ORIENTED_EDGE ( 'NONE', *, *, #574, .T. ) ;
#698 = VECTOR ( 'NONE', #398, 1000.000000000000000 ) ;
#699 = LINE ( 'NONE', #346, #615 ) ;
#700 = CARTESIAN_POINT ( 'NONE',  ( 0.000000000000000000, 0.000000000000000000, 0.000000000000000000 ) ) ;
#701 = EDGE_CURVE ( 'NONE', #484, #681, #546, .T. ) ;
#702 =( NAMED_UNIT ( * ) SI_UNIT ( $, .STERADIAN. ) SOLID_ANGLE_UNIT ( ) );
#703 = CARTESIAN_POINT ( 'NONE',  ( 4.688292781573792034, 2.299999999999999822, -24.23075420759073140 ) ) ;
#704 = ORIENTED_EDGE ( 'NONE', *, *, #372, .F. ) ;
#705 = DIRECTION ( 'NONE',  ( -0.000000000000000000, -0.000000000000000000, -1.000000000000000000 ) ) ;
#706 = ADVANCED_FACE ( 'NONE', ( #531 ), #360, .F. ) ;
#707 = LINE ( 'NONE', #194, #671 ) ;
#708 = VERTEX_POINT ( 'NONE', #369 ) ;
#709 = CARTESIAN_POINT ( 'NONE',  ( 30.00000000000000000, 1.800000000000000044, -26.00000000000000000 ) ) ;
#710 = DIRECTION ( 'NONE',  ( -1.000000000000000000, 0.000000000000000000, 0.000000000000000000 ) ) ;
#711 = EDGE_LOOP ( 'NONE', ( #447, #578, #436, #678 ) ) ;
#712 = FILL_AREA_STYLE ('',( #23 ) ) ;
#713 = DIRECTION ( 'NONE',  ( 0.000000000000000000, 1.000000000000000000, 0.000000000000000000 ) ) ;
#714 = EDGE_CURVE ( 'NONE', #212, #377, #594, .T. ) ;
#715 = EDGE_LOOP ( 'NONE', ( #48, #131, #225, #428 ) ) ;
#716 = CARTESIAN_POINT ( 'NONE',  ( 0.000000000000000000, 2.299999999999999822, -10.59209688838887686 ) ) ;
#717 = EDGE_CURVE ( 'NONE', #409, #377, #30, .T. ) ;
#718 = ORIENTED_EDGE ( 'NONE', *, *, #357, .F. ) ;
#719 = CARTESIAN_POINT ( 'NONE',  ( 0.000000000000000000, 2.299999999999999822, -24.23075420759073140 ) ) ;
#720 = VECTOR ( 'NONE', #667, 1000.000000000000000 ) ;
#721 = VECTOR ( 'NONE', #257, 1000.000000000000000 ) ;
#722 = LINE ( 'NONE', #725, #76 ) ;
#723 = VERTEX_POINT ( 'NONE', #644 ) ;
#724 = LINE ( 'NONE', #213, #78 ) ;
#725 = CARTESIAN_POINT ( 'NONE',  ( 29.32148626817447479, 1.800000000000000044, 0.000000000000000000 ) ) ;
#726 = ORIENTED_EDGE ( 'NONE', *, *, #658, .T. ) ;
#727 = DIRECTION ( 'NONE',  ( -0.000000000000000000, -1.000000000000000000, -0.000000000000000000 ) ) ;
#728 = EDGE_CURVE ( 'NONE', #168, #723, #136, .T. ) ;
#729 = CARTESIAN_POINT ( 'NONE',  ( 0.000000000000000000, 2.299999999999999822, -5.996861942566146908 ) ) ;
#730 = ORIENTED_EDGE ( 'NONE', *, *, #466, .F. ) ;
#731 = DIRECTION ( 'NONE',  ( -0.000000000000000000, -1.000000000000000000, -0.000000000000000000 ) ) ;
#732 = EDGE_CURVE ( 'NONE', #608, #212, #488, .T. ) ;
#733 = LINE ( 'NONE', #214, #7 ) ;
#734 = VECTOR ( 'NONE', #191, 1000.000000000000000 ) ;
#735 = COLOUR_RGB ( '',0.7960784313725489669, 0.8235294117647058432, 0.9372549019607843146 ) ;
#736 = ORIENTED_EDGE ( 'NONE', *, *, #305, .F. ) ;
#737 = CARTESIAN_POINT ( 'NONE',  ( 0.000000000000000000, 1.800000000000000044, 0.000000000000000000 ) ) ;
#738 = LINE ( 'NONE', #502, #720 ) ;
#739 = EDGE_CURVE ( 'NONE', #668, #470, #34, .T. ) ;
#740 = ORIENTED_EDGE ( 'NONE', *, *, #417, .F. ) ;
ENDSEC;
END-ISO-10303-21;
