ISO-10303-21;
HEADER;
FILE_DESCRIPTION (( 'STEP AP214' ),
    '1' );
FILE_NAME ('C1~R0402~C0402_L1.0-W0.5-H0.5~8fiY.step.STEP',
    '2026-07-06T21:55:14',
    ( '' ),
    ( '' ),
    'SwSTEP 2.0',
    'SolidWorks 2025',
    '' );
FILE_SCHEMA (( 'AUTOMOTIVE_DESIGN' ));
ENDSEC;

DATA;
#1 = UNCERTAINTY_MEASURE_WITH_UNIT (LENGTH_MEASURE( 1.000000000000000082E-05 ), #37, 'distance_accuracy_value', 'NONE');
#2 =( NAMED_UNIT ( * ) PLANE_ANGLE_UNIT ( ) SI_UNIT ( $, .RADIAN. ) );
#3 = DIRECTION ( 'NONE',  ( 1.000000000000000000, 0.000000000000000000, 0.000000000000000000 ) ) ;
#4 = PRODUCT_DEFINITION_CONTEXT ( 'detailed design', #18, 'design' ) ;
#5 = SHAPE_REPRESENTATION ( 'R0402~C0402_L1.0-W0.5-H0.5~8fiY.step', ( #17 ), #50 ) ;
#6 = CARTESIAN_POINT ( 'NONE',  ( 0.000000000000000000, 0.000000000000000000, 0.000000000000000000 ) ) ;
#7 = PROPERTY_DEFINITION ('document property','', #14 ) ;
#8 = PRODUCT_DEFINITION ( 'General', '', #47, #35 ) ;
#9 = UNCERTAINTY_MEASURE_WITH_UNIT (LENGTH_MEASURE( 1.000000000000000082E-05 ), #57, 'distance_accuracy_value', 'NONE');
#10 = APPLIED_EXTERNAL_IDENTIFICATION_ASSIGNMENT ( 'R0402~C0402_L1.0-W0.5-H0.5~8fiY.step.STEP' , #62, #21,( #14) ) ;
#11 = OBJECT_ROLE ('mandatory',$ ) ;
#12 = PRODUCT_DEFINITION_SHAPE ( 'NONE', 'NONE',  #8 ) ;
#13 = CARTESIAN_POINT ( 'NONE',  ( 0.000000000000000000, 0.000000000000000000, 0.000000000000000000 ) ) ;
#14 = DOCUMENT_FILE ( 'R0402~C0402_L1.0-W0.5-H0.5~8fiY.step.STEP' , '', '', #16, '' ,$ ) ;
#15 = DIRECTION ( 'NONE',  ( 0.000000000000000000, 0.000000000000000000, 1.000000000000000000 ) ) ;
#16 = DOCUMENT_TYPE ( 'geometry' ) ;
#17 = AXIS2_PLACEMENT_3D ( 'NONE', #6, #15, #26 ) ;
#18 = APPLICATION_CONTEXT ( 'automotive_design' ) ;
#19 =( NAMED_UNIT ( * ) PLANE_ANGLE_UNIT ( ) SI_UNIT ( $, .RADIAN. ) );
#20 = PROPERTY_DEFINITION ('external definition','', #14 ) ;
#21 = EXTERNAL_SOURCE (IDENTIFIER('') ) ;
#22 = APPLICATION_CONTEXT ( 'automotive_design' ) ;
#23 = AXIS2_PLACEMENT_3D ( 'NONE', #30, #48, #46 ) ;
#24 = APPLICATION_PROTOCOL_DEFINITION ( 'draft international standard', 'automotive_design', 1998, #33 ) ;
#25 = PRODUCT_DEFINITION_FORMATION_WITH_SPECIFIED_SOURCE ( 'Symmetric', '', #55, .NOT_KNOWN. ) ;
#26 = DIRECTION ( 'NONE',  ( 1.000000000000000000, 0.000000000000000000, 0.000000000000000000 ) ) ;
#27 = APPLICATION_PROTOCOL_DEFINITION ( 'draft international standard', 'automotive_design', 1998, #54 ) ;
#28 = DIRECTION ( 'NONE',  ( 0.000000000000000000, 0.000000000000000000, 1.000000000000000000 ) ) ;
#29 = SHAPE_DEFINITION_REPRESENTATION ( #41, #5 ) ;
#30 = CARTESIAN_POINT ( 'NONE',  ( 0.000000000000000000, 0.000000000000000000, 0.000000000000000000 ) ) ;
#31 =( GEOMETRIC_REPRESENTATION_CONTEXT ( 3 ) GLOBAL_UNCERTAINTY_ASSIGNED_CONTEXT ( ( #1 ) ) GLOBAL_UNIT_ASSIGNED_CONTEXT ( ( #37, #19, #45 ) ) REPRESENTATION_CONTEXT ( 'NONE', 'WORKASPACE' ) );
#32 = PROPERTY_DEFINITION_REPRESENTATION ( #7, #5 ) ;
#33 = APPLICATION_CONTEXT ( 'automotive_design' ) ;
#34 = PRODUCT_CONTEXT ( 'NONE', #54, 'mechanical' ) ;
#35 = PRODUCT_DEFINITION_CONTEXT ( 'detailed design', #22, 'design' ) ;
#36 = PRODUCT_DEFINITION_SHAPE ( 'NONE', 'NONE',  #65 ) ;
#37 =( LENGTH_UNIT ( ) NAMED_UNIT ( * ) SI_UNIT ( .MILLI., .METRE. ) );
#38 = PRODUCT_CONTEXT ( 'NONE', #33, 'mechanical' ) ;
#39 = SHAPE_REPRESENTATION ( 'C1~R0402~C0402_L1.0-W0.5-H0.5~8fiY.step', ( #53, #23 ), #31 ) ;
#40 = APPLICATION_PROTOCOL_DEFINITION ( 'draft international standard', 'automotive_design', 1998, #22 ) ;
#41 = PRODUCT_DEFINITION_SHAPE ( 'NONE', 'NONE',  #59 ) ;
#42 = ROLE_ASSOCIATION ( #11, #51 ) ;
#43 = PRODUCT_RELATED_PRODUCT_CATEGORY ( 'part', '', ( #55 ) ) ;
#44 = PRODUCT ( 'C1~R0402~C0402_L1.0-W0.5-H0.5~8fiY.step', 'C1~R0402~C0402_L1.0-W0.5-H0.5~8fiY.step', '', ( #38 ) ) ;
#45 =( NAMED_UNIT ( * ) SI_UNIT ( $, .STERADIAN. ) SOLID_ANGLE_UNIT ( ) );
#46 = DIRECTION ( 'NONE',  ( 1.000000000000000000, 0.000000000000000000, -2.077461250111562526E-48 ) ) ;
#47 = PRODUCT_DEFINITION_FORMATION_WITH_SPECIFIED_SOURCE ( 'Symmetric', '', #44, .NOT_KNOWN. ) ;
#48 = DIRECTION ( 'NONE',  ( -2.077461250111562526E-48, 0.000000000000000000, 1.000000000000000444 ) ) ;
#49 = APPLICATION_PROTOCOL_DEFINITION ( 'draft international standard', 'automotive_design', 1998, #18 ) ;
#50 =( GEOMETRIC_REPRESENTATION_CONTEXT ( 3 ) GLOBAL_UNCERTAINTY_ASSIGNED_CONTEXT ( ( #9 ) ) GLOBAL_UNIT_ASSIGNED_CONTEXT ( ( #57, #2, #60 ) ) REPRESENTATION_CONTEXT ( 'NONE', 'WORKASPACE' ) );
#51 = APPLIED_DOCUMENT_REFERENCE ( #14,'',( #59) ) ;
#52 = PRODUCT_RELATED_PRODUCT_CATEGORY ( 'part', '', ( #44 ) ) ;
#53 = AXIS2_PLACEMENT_3D ( 'NONE', #13, #28, #3 ) ;
#54 = APPLICATION_CONTEXT ( 'automotive_design' ) ;
#55 = PRODUCT ( 'R0402~C0402_L1.0-W0.5-H0.5~8fiY.step', 'R0402~C0402_L1.0-W0.5-H0.5~8fiY.step', '', ( #34 ) ) ;
#56 = CONTEXT_DEPENDENT_SHAPE_REPRESENTATION ( #58, #36 ) ;
#57 =( LENGTH_UNIT ( ) NAMED_UNIT ( * ) SI_UNIT ( .MILLI., .METRE. ) );
#58 =( REPRESENTATION_RELATIONSHIP ('NONE','NONE', #39, #5 ) REPRESENTATION_RELATIONSHIP_WITH_TRANSFORMATION ( #63 )SHAPE_REPRESENTATION_RELATIONSHIP( ) );
#59 = PRODUCT_DEFINITION ( 'General', '', #25, #4 ) ;
#60 =( NAMED_UNIT ( * ) SI_UNIT ( $, .STERADIAN. ) SOLID_ANGLE_UNIT ( ) );
#61 = SHAPE_DEFINITION_REPRESENTATION ( #12, #39 ) ;
#62 = IDENTIFICATION_ROLE ( 'external document id and location', $) ;
#63 = ITEM_DEFINED_TRANSFORMATION ( 'NONE', 'NONE', #23,  #17 ) ;
#64 = PROPERTY_DEFINITION_REPRESENTATION ( #20, #5 ) ;
#65 = NEXT_ASSEMBLY_USAGE_OCCURRENCE ( 'NAUO12', ' ', ' ', #8, #59, $ ) ;
ENDSEC;
END-ISO-10303-21;
