ISO-10303-21;
HEADER;
FILE_DESCRIPTION (( 'STEP AP214' ),
    '1' );
FILE_NAME ('C2~R0402~C0402_L1.0-W0.5-H0.5~8fiY.step.STEP',
    '2026-07-06T21:55:14',
    ( '' ),
    ( '' ),
    'SwSTEP 2.0',
    'SolidWorks 2025',
    '' );
FILE_SCHEMA (( 'AUTOMOTIVE_DESIGN' ));
ENDSEC;

DATA;
#1 = PRODUCT_DEFINITION_FORMATION_WITH_SPECIFIED_SOURCE ( 'Symmetric', '', #48, .NOT_KNOWN. ) ;
#2 = APPLICATION_CONTEXT ( 'automotive_design' ) ;
#3 = AXIS2_PLACEMENT_3D ( 'NONE', #51, #57, #40 ) ;
#4 = PRODUCT_DEFINITION ( 'General', '', #1, #56 ) ;
#5 = APPLICATION_PROTOCOL_DEFINITION ( 'draft international standard', 'automotive_design', 1998, #59 ) ;
#6 =( REPRESENTATION_RELATIONSHIP ('NONE','NONE', #23, #42 ) REPRESENTATION_RELATIONSHIP_WITH_TRANSFORMATION ( #20 )SHAPE_REPRESENTATION_RELATIONSHIP( ) );
#7 = PRODUCT_DEFINITION_FORMATION_WITH_SPECIFIED_SOURCE ( 'Symmetric', '', #58, .NOT_KNOWN. ) ;
#8 = SHAPE_DEFINITION_REPRESENTATION ( #15, #23 ) ;
#9 =( LENGTH_UNIT ( ) NAMED_UNIT ( * ) SI_UNIT ( .MILLI., .METRE. ) );
#10 = PROPERTY_DEFINITION ('document property','', #60 ) ;
#11 = PROPERTY_DEFINITION_REPRESENTATION ( #22, #42 ) ;
#12 = AXIS2_PLACEMENT_3D ( 'NONE', #16, #33, #53 ) ;
#13 = OBJECT_ROLE ('mandatory',$ ) ;
#14 =( GEOMETRIC_REPRESENTATION_CONTEXT ( 3 ) GLOBAL_UNCERTAINTY_ASSIGNED_CONTEXT ( ( #45 ) ) GLOBAL_UNIT_ASSIGNED_CONTEXT ( ( #63, #47, #26 ) ) REPRESENTATION_CONTEXT ( 'NONE', 'WORKASPACE' ) );
#15 = PRODUCT_DEFINITION_SHAPE ( 'NONE', 'NONE',  #4 ) ;
#16 = CARTESIAN_POINT ( 'NONE',  ( 0.000000000000000000, 0.000000000000000000, 0.000000000000000000 ) ) ;
#17 = APPLIED_EXTERNAL_IDENTIFICATION_ASSIGNMENT ( 'R0402~C0402_L1.0-W0.5-H0.5~8fiY.step.STEP' , #55, #18,( #60) ) ;
#18 = EXTERNAL_SOURCE (IDENTIFIER('') ) ;
#19 = SHAPE_DEFINITION_REPRESENTATION ( #44, #42 ) ;
#20 = ITEM_DEFINED_TRANSFORMATION ( 'NONE', 'NONE', #3,  #29 ) ;
#21 =( GEOMETRIC_REPRESENTATION_CONTEXT ( 3 ) GLOBAL_UNCERTAINTY_ASSIGNED_CONTEXT ( ( #35 ) ) GLOBAL_UNIT_ASSIGNED_CONTEXT ( ( #9, #43, #32 ) ) REPRESENTATION_CONTEXT ( 'NONE', 'WORKASPACE' ) );
#22 = PROPERTY_DEFINITION ('external definition','', #60 ) ;
#23 = SHAPE_REPRESENTATION ( 'C2~R0402~C0402_L1.0-W0.5-H0.5~8fiY.step', ( #12, #3 ), #14 ) ;
#24 = PRODUCT_DEFINITION ( 'General', '', #7, #38 ) ;
#25 = PRODUCT_CONTEXT ( 'NONE', #50, 'mechanical' ) ;
#26 =( NAMED_UNIT ( * ) SI_UNIT ( $, .STERADIAN. ) SOLID_ANGLE_UNIT ( ) );
#27 = APPLICATION_PROTOCOL_DEFINITION ( 'draft international standard', 'automotive_design', 1998, #50 ) ;
#28 = DIRECTION ( 'NONE',  ( 1.000000000000000000, 0.000000000000000000, 0.000000000000000000 ) ) ;
#29 = AXIS2_PLACEMENT_3D ( 'NONE', #52, #31, #28 ) ;
#30 = APPLIED_DOCUMENT_REFERENCE ( #60,'',( #24) ) ;
#31 = DIRECTION ( 'NONE',  ( 0.000000000000000000, 0.000000000000000000, 1.000000000000000000 ) ) ;
#32 =( NAMED_UNIT ( * ) SI_UNIT ( $, .STERADIAN. ) SOLID_ANGLE_UNIT ( ) );
#33 = DIRECTION ( 'NONE',  ( 0.000000000000000000, 0.000000000000000000, 1.000000000000000000 ) ) ;
#34 = PROPERTY_DEFINITION_REPRESENTATION ( #10, #42 ) ;
#35 = UNCERTAINTY_MEASURE_WITH_UNIT (LENGTH_MEASURE( 1.000000000000000082E-05 ), #9, 'distance_accuracy_value', 'NONE');
#36 = PRODUCT_DEFINITION_SHAPE ( 'NONE', 'NONE',  #65 ) ;
#37 = CONTEXT_DEPENDENT_SHAPE_REPRESENTATION ( #6, #36 ) ;
#38 = PRODUCT_DEFINITION_CONTEXT ( 'detailed design', #59, 'design' ) ;
#39 = PRODUCT_CONTEXT ( 'NONE', #2, 'mechanical' ) ;
#40 = DIRECTION ( 'NONE',  ( 1.000000000000000444, 0.000000000000000000, 0.000000000000000000 ) ) ;
#41 = PRODUCT_RELATED_PRODUCT_CATEGORY ( 'part', '', ( #48 ) ) ;
#42 = SHAPE_REPRESENTATION ( 'R0402~C0402_L1.0-W0.5-H0.5~8fiY.step', ( #29 ), #21 ) ;
#43 =( NAMED_UNIT ( * ) PLANE_ANGLE_UNIT ( ) SI_UNIT ( $, .RADIAN. ) );
#44 = PRODUCT_DEFINITION_SHAPE ( 'NONE', 'NONE',  #24 ) ;
#45 = UNCERTAINTY_MEASURE_WITH_UNIT (LENGTH_MEASURE( 1.000000000000000082E-05 ), #63, 'distance_accuracy_value', 'NONE');
#46 = PRODUCT_RELATED_PRODUCT_CATEGORY ( 'part', '', ( #58 ) ) ;
#47 =( NAMED_UNIT ( * ) PLANE_ANGLE_UNIT ( ) SI_UNIT ( $, .RADIAN. ) );
#48 = PRODUCT ( 'C2~R0402~C0402_L1.0-W0.5-H0.5~8fiY.step', 'C2~R0402~C0402_L1.0-W0.5-H0.5~8fiY.step', '', ( #25 ) ) ;
#49 = APPLICATION_PROTOCOL_DEFINITION ( 'draft international standard', 'automotive_design', 1998, #64 ) ;
#50 = APPLICATION_CONTEXT ( 'automotive_design' ) ;
#51 = CARTESIAN_POINT ( 'NONE',  ( 0.000000000000000000, 0.000000000000000000, 0.000000000000000000 ) ) ;
#52 = CARTESIAN_POINT ( 'NONE',  ( 0.000000000000000000, 0.000000000000000000, 0.000000000000000000 ) ) ;
#53 = DIRECTION ( 'NONE',  ( 1.000000000000000000, 0.000000000000000000, 0.000000000000000000 ) ) ;
#54 = APPLICATION_PROTOCOL_DEFINITION ( 'draft international standard', 'automotive_design', 1998, #2 ) ;
#55 = IDENTIFICATION_ROLE ( 'external document id and location', $) ;
#56 = PRODUCT_DEFINITION_CONTEXT ( 'detailed design', #64, 'design' ) ;
#57 = DIRECTION ( 'NONE',  ( 0.000000000000000000, 2.077461250111562526E-48, 1.000000000000000444 ) ) ;
#58 = PRODUCT ( 'R0402~C0402_L1.0-W0.5-H0.5~8fiY.step', 'R0402~C0402_L1.0-W0.5-H0.5~8fiY.step', '', ( #39 ) ) ;
#59 = APPLICATION_CONTEXT ( 'automotive_design' ) ;
#60 = DOCUMENT_FILE ( 'R0402~C0402_L1.0-W0.5-H0.5~8fiY.step.STEP' , '', '', #62, '' ,$ ) ;
#61 = ROLE_ASSOCIATION ( #13, #30 ) ;
#62 = DOCUMENT_TYPE ( 'geometry' ) ;
#63 =( LENGTH_UNIT ( ) NAMED_UNIT ( * ) SI_UNIT ( .MILLI., .METRE. ) );
#64 = APPLICATION_CONTEXT ( 'automotive_design' ) ;
#65 = NEXT_ASSEMBLY_USAGE_OCCURRENCE ( 'NAUO11', ' ', ' ', #4, #24, $ ) ;
ENDSEC;
END-ISO-10303-21;
