ISO-10303-21;
HEADER;
FILE_DESCRIPTION (( 'STEP AP214' ),
    '1' );
FILE_NAME ('C3~R0402~C0402_L1.0-W0.5-H0.5~8fiY.step.STEP',
    '2026-07-13T19:26:00',
    ( '' ),
    ( '' ),
    'SwSTEP 2.0',
    'SolidWorks 2025',
    '' );
FILE_SCHEMA (( 'AUTOMOTIVE_DESIGN' ));
ENDSEC;

DATA;
#1 = EXTERNAL_SOURCE (IDENTIFIER('') ) ;
#2 = IDENTIFICATION_ROLE ( 'external document id and location', $) ;
#3 = SHAPE_REPRESENTATION ( 'R0402~C0402_L1.0-W0.5-H0.5~8fiY.step', ( #62 ), #40 ) ;
#4 =( REPRESENTATION_RELATIONSHIP ('NONE','NONE', #25, #3 ) REPRESENTATION_RELATIONSHIP_WITH_TRANSFORMATION ( #63 )SHAPE_REPRESENTATION_RELATIONSHIP( ) );
#5 = PRODUCT_CONTEXT ( 'NONE', #37, 'mechanical' ) ;
#6 = PRODUCT_DEFINITION_FORMATION_WITH_SPECIFIED_SOURCE ( 'Symmetric', '', #41, .NOT_KNOWN. ) ;
#7 = APPLICATION_CONTEXT ( 'automotive_design' ) ;
#8 =( NAMED_UNIT ( * ) SI_UNIT ( $, .STERADIAN. ) SOLID_ANGLE_UNIT ( ) );
#9 = PRODUCT_DEFINITION_CONTEXT ( 'detailed design', #7, 'design' ) ;
#10 = AXIS2_PLACEMENT_3D ( 'NONE', #43, #17, #23 ) ;
#11 =( LENGTH_UNIT ( ) NAMED_UNIT ( * ) SI_UNIT ( .MILLI., .METRE. ) );
#12 = APPLICATION_PROTOCOL_DEFINITION ( 'draft international standard', 'automotive_design', 1998, #37 ) ;
#13 = DIRECTION ( 'NONE',  ( 1.000000000000000444, 0.000000000000000000, 0.000000000000000000 ) ) ;
#14 = CARTESIAN_POINT ( 'NONE',  ( 0.000000000000000000, 0.000000000000000000, 0.000000000000000000 ) ) ;
#15 = CARTESIAN_POINT ( 'NONE',  ( 0.000000000000000000, 0.000000000000000000, 0.000000000000000000 ) ) ;
#16 = DIRECTION ( 'NONE',  ( 1.000000000000000000, 0.000000000000000000, 0.000000000000000000 ) ) ;
#17 = DIRECTION ( 'NONE',  ( 0.000000000000000000, 0.000000000000000000, 1.000000000000000000 ) ) ;
#18 = PRODUCT_RELATED_PRODUCT_CATEGORY ( 'part', '', ( #29 ) ) ;
#19 = PRODUCT_DEFINITION_FORMATION_WITH_SPECIFIED_SOURCE ( 'Symmetric', '', #29, .NOT_KNOWN. ) ;
#20 = UNCERTAINTY_MEASURE_WITH_UNIT (LENGTH_MEASURE( 1.000000000000000082E-05 ), #34, 'distance_accuracy_value', 'NONE');
#21 = PROPERTY_DEFINITION ('external definition','', #57 ) ;
#22 = PROPERTY_DEFINITION_REPRESENTATION ( #24, #3 ) ;
#23 = DIRECTION ( 'NONE',  ( 1.000000000000000000, 0.000000000000000000, 0.000000000000000000 ) ) ;
#24 = PROPERTY_DEFINITION ('document property','', #57 ) ;
#25 = SHAPE_REPRESENTATION ( 'C3~R0402~C0402_L1.0-W0.5-H0.5~8fiY.step', ( #10, #32 ), #51 ) ;
#26 = CONTEXT_DEPENDENT_SHAPE_REPRESENTATION ( #4, #33 ) ;
#27 = APPLICATION_CONTEXT ( 'automotive_design' ) ;
#28 = ROLE_ASSOCIATION ( #30, #49 ) ;
#29 = PRODUCT ( 'C3~R0402~C0402_L1.0-W0.5-H0.5~8fiY.step', 'C3~R0402~C0402_L1.0-W0.5-H0.5~8fiY.step', '', ( #5 ) ) ;
#30 = OBJECT_ROLE ('mandatory',$ ) ;
#31 = PRODUCT_DEFINITION ( 'General', '', #19, #38 ) ;
#32 = AXIS2_PLACEMENT_3D ( 'NONE', #14, #54, #13 ) ;
#33 = PRODUCT_DEFINITION_SHAPE ( 'NONE', 'NONE',  #65 ) ;
#34 =( LENGTH_UNIT ( ) NAMED_UNIT ( * ) SI_UNIT ( .MILLI., .METRE. ) );
#35 = PRODUCT_CONTEXT ( 'NONE', #56, 'mechanical' ) ;
#36 = SHAPE_DEFINITION_REPRESENTATION ( #39, #25 ) ;
#37 = APPLICATION_CONTEXT ( 'automotive_design' ) ;
#38 = PRODUCT_DEFINITION_CONTEXT ( 'detailed design', #27, 'design' ) ;
#39 = PRODUCT_DEFINITION_SHAPE ( 'NONE', 'NONE',  #31 ) ;
#40 =( GEOMETRIC_REPRESENTATION_CONTEXT ( 3 ) GLOBAL_UNCERTAINTY_ASSIGNED_CONTEXT ( ( #20 ) ) GLOBAL_UNIT_ASSIGNED_CONTEXT ( ( #34, #42, #59 ) ) REPRESENTATION_CONTEXT ( 'NONE', 'WORKASPACE' ) );
#41 = PRODUCT ( 'R0402~C0402_L1.0-W0.5-H0.5~8fiY.step', 'R0402~C0402_L1.0-W0.5-H0.5~8fiY.step', '', ( #35 ) ) ;
#42 =( NAMED_UNIT ( * ) PLANE_ANGLE_UNIT ( ) SI_UNIT ( $, .RADIAN. ) );
#43 = CARTESIAN_POINT ( 'NONE',  ( 0.000000000000000000, 0.000000000000000000, 0.000000000000000000 ) ) ;
#44 = APPLICATION_PROTOCOL_DEFINITION ( 'draft international standard', 'automotive_design', 1998, #56 ) ;
#45 = PRODUCT_DEFINITION_SHAPE ( 'NONE', 'NONE',  #60 ) ;
#46 = PRODUCT_RELATED_PRODUCT_CATEGORY ( 'part', '', ( #41 ) ) ;
#47 =( NAMED_UNIT ( * ) PLANE_ANGLE_UNIT ( ) SI_UNIT ( $, .RADIAN. ) );
#48 = APPLICATION_PROTOCOL_DEFINITION ( 'draft international standard', 'automotive_design', 1998, #7 ) ;
#49 = APPLIED_DOCUMENT_REFERENCE ( #57,'',( #60) ) ;
#50 = PROPERTY_DEFINITION_REPRESENTATION ( #21, #3 ) ;
#51 =( GEOMETRIC_REPRESENTATION_CONTEXT ( 3 ) GLOBAL_UNCERTAINTY_ASSIGNED_CONTEXT ( ( #52 ) ) GLOBAL_UNIT_ASSIGNED_CONTEXT ( ( #11, #47, #8 ) ) REPRESENTATION_CONTEXT ( 'NONE', 'WORKASPACE' ) );
#52 = UNCERTAINTY_MEASURE_WITH_UNIT (LENGTH_MEASURE( 1.000000000000000082E-05 ), #11, 'distance_accuracy_value', 'NONE');
#53 = DOCUMENT_TYPE ( 'geometry' ) ;
#54 = DIRECTION ( 'NONE',  ( 0.000000000000000000, 2.077461250111562526E-48, 1.000000000000000444 ) ) ;
#55 = APPLICATION_PROTOCOL_DEFINITION ( 'draft international standard', 'automotive_design', 1998, #27 ) ;
#56 = APPLICATION_CONTEXT ( 'automotive_design' ) ;
#57 = DOCUMENT_FILE ( 'R0402~C0402_L1.0-W0.5-H0.5~8fiY.step.STEP' , '', '', #53, '' ,$ ) ;
#58 = DIRECTION ( 'NONE',  ( 0.000000000000000000, 0.000000000000000000, 1.000000000000000000 ) ) ;
#59 =( NAMED_UNIT ( * ) SI_UNIT ( $, .STERADIAN. ) SOLID_ANGLE_UNIT ( ) );
#60 = PRODUCT_DEFINITION ( 'General', '', #6, #9 ) ;
#61 = APPLIED_EXTERNAL_IDENTIFICATION_ASSIGNMENT ( 'R0402~C0402_L1.0-W0.5-H0.5~8fiY.step.STEP' , #2, #1,( #57) ) ;
#62 = AXIS2_PLACEMENT_3D ( 'NONE', #15, #58, #16 ) ;
#63 = ITEM_DEFINED_TRANSFORMATION ( 'NONE', 'NONE', #32,  #62 ) ;
#64 = SHAPE_DEFINITION_REPRESENTATION ( #45, #3 ) ;
#65 = NEXT_ASSEMBLY_USAGE_OCCURRENCE ( 'NAUO12', ' ', ' ', #31, #60, $ ) ;
ENDSEC;
END-ISO-10303-21;
