ISO-10303-21;
HEADER;
FILE_DESCRIPTION (( 'STEP AP214' ),
    '1' );
FILE_NAME ('C4~R0402~C0402_L1.0-W0.5-H0.5~8fiY.step.STEP',
    '2026-07-06T21:55:11',
    ( '' ),
    ( '' ),
    'SwSTEP 2.0',
    'SolidWorks 2025',
    '' );
FILE_SCHEMA (( 'AUTOMOTIVE_DESIGN' ));
ENDSEC;

DATA;
#1 = PRODUCT_DEFINITION_SHAPE ( 'NONE', 'NONE',  #53 ) ;
#2 = CARTESIAN_POINT ( 'NONE',  ( 0.000000000000000000, 0.000000000000000000, 0.000000000000000000 ) ) ;
#3 = PRODUCT_RELATED_PRODUCT_CATEGORY ( 'part', '', ( #52 ) ) ;
#4 = PRODUCT_CONTEXT ( 'NONE', #36, 'mechanical' ) ;
#5 = DIRECTION ( 'NONE',  ( 0.000000000000000000, 0.000000000000000000, 1.000000000000000000 ) ) ;
#6 = SHAPE_REPRESENTATION ( 'C4~R0402~C0402_L1.0-W0.5-H0.5~8fiY.step', ( #64, #22 ), #37 ) ;
#7 = PRODUCT_DEFINITION_FORMATION_WITH_SPECIFIED_SOURCE ( 'Symmetric', '', #14, .NOT_KNOWN. ) ;
#8 = APPLICATION_CONTEXT ( 'automotive_design' ) ;
#9 =( LENGTH_UNIT ( ) NAMED_UNIT ( * ) SI_UNIT ( .MILLI., .METRE. ) );
#10 = CARTESIAN_POINT ( 'NONE',  ( 0.000000000000000000, 0.000000000000000000, 0.000000000000000000 ) ) ;
#11 = PRODUCT_DEFINITION_FORMATION_WITH_SPECIFIED_SOURCE ( 'Symmetric', '', #52, .NOT_KNOWN. ) ;
#12 = DIRECTION ( 'NONE',  ( 0.000000000000000000, 0.000000000000000000, 1.000000000000000000 ) ) ;
#13 = CARTESIAN_POINT ( 'NONE',  ( 0.000000000000000000, 0.000000000000000000, 0.000000000000000000 ) ) ;
#14 = PRODUCT ( 'R0402~C0402_L1.0-W0.5-H0.5~8fiY.step', 'R0402~C0402_L1.0-W0.5-H0.5~8fiY.step', '', ( #20 ) ) ;
#15 = EXTERNAL_SOURCE (IDENTIFIER('') ) ;
#16 = UNCERTAINTY_MEASURE_WITH_UNIT (LENGTH_MEASURE( 1.000000000000000082E-05 ), #28, 'distance_accuracy_value', 'NONE');
#17 =( NAMED_UNIT ( * ) PLANE_ANGLE_UNIT ( ) SI_UNIT ( $, .RADIAN. ) );
#18 = IDENTIFICATION_ROLE ( 'external document id and location', $) ;
#19 = PRODUCT_DEFINITION_CONTEXT ( 'detailed design', #45, 'design' ) ;
#20 = PRODUCT_CONTEXT ( 'NONE', #30, 'mechanical' ) ;
#21 = SHAPE_DEFINITION_REPRESENTATION ( #56, #6 ) ;
#22 = AXIS2_PLACEMENT_3D ( 'NONE', #13, #44, #51 ) ;
#23 = APPLIED_DOCUMENT_REFERENCE ( #50,'',( #53) ) ;
#24 = PROPERTY_DEFINITION_REPRESENTATION ( #47, #31 ) ;
#25 = APPLICATION_PROTOCOL_DEFINITION ( 'draft international standard', 'automotive_design', 1998, #8 ) ;
#26 = CONTEXT_DEPENDENT_SHAPE_REPRESENTATION ( #32, #63 ) ;
#27 = DOCUMENT_TYPE ( 'geometry' ) ;
#28 =( LENGTH_UNIT ( ) NAMED_UNIT ( * ) SI_UNIT ( .MILLI., .METRE. ) );
#29 = PRODUCT_DEFINITION_CONTEXT ( 'detailed design', #8, 'design' ) ;
#30 = APPLICATION_CONTEXT ( 'automotive_design' ) ;
#31 = SHAPE_REPRESENTATION ( 'R0402~C0402_L1.0-W0.5-H0.5~8fiY.step', ( #41 ), #43 ) ;
#32 =( REPRESENTATION_RELATIONSHIP ('NONE','NONE', #6, #31 ) REPRESENTATION_RELATIONSHIP_WITH_TRANSFORMATION ( #46 )SHAPE_REPRESENTATION_RELATIONSHIP( ) );
#33 = APPLICATION_PROTOCOL_DEFINITION ( 'draft international standard', 'automotive_design', 1998, #30 ) ;
#34 = APPLICATION_PROTOCOL_DEFINITION ( 'draft international standard', 'automotive_design', 1998, #45 ) ;
#35 =( NAMED_UNIT ( * ) SI_UNIT ( $, .STERADIAN. ) SOLID_ANGLE_UNIT ( ) );
#36 = APPLICATION_CONTEXT ( 'automotive_design' ) ;
#37 =( GEOMETRIC_REPRESENTATION_CONTEXT ( 3 ) GLOBAL_UNCERTAINTY_ASSIGNED_CONTEXT ( ( #16 ) ) GLOBAL_UNIT_ASSIGNED_CONTEXT ( ( #28, #55, #62 ) ) REPRESENTATION_CONTEXT ( 'NONE', 'WORKASPACE' ) );
#38 = SHAPE_DEFINITION_REPRESENTATION ( #1, #31 ) ;
#39 = APPLICATION_PROTOCOL_DEFINITION ( 'draft international standard', 'automotive_design', 1998, #36 ) ;
#40 = PROPERTY_DEFINITION ('document property','', #50 ) ;
#41 = AXIS2_PLACEMENT_3D ( 'NONE', #10, #12, #59 ) ;
#42 = ROLE_ASSOCIATION ( #58, #23 ) ;
#43 =( GEOMETRIC_REPRESENTATION_CONTEXT ( 3 ) GLOBAL_UNCERTAINTY_ASSIGNED_CONTEXT ( ( #57 ) ) GLOBAL_UNIT_ASSIGNED_CONTEXT ( ( #9, #17, #35 ) ) REPRESENTATION_CONTEXT ( 'NONE', 'WORKASPACE' ) );
#44 = DIRECTION ( 'NONE',  ( 0.000000000000000000, -2.077461250111562526E-48, 1.000000000000000444 ) ) ;
#45 = APPLICATION_CONTEXT ( 'automotive_design' ) ;
#46 = ITEM_DEFINED_TRANSFORMATION ( 'NONE', 'NONE', #22,  #41 ) ;
#47 = PROPERTY_DEFINITION ('external definition','', #50 ) ;
#48 = PRODUCT_RELATED_PRODUCT_CATEGORY ( 'part', '', ( #14 ) ) ;
#49 = APPLIED_EXTERNAL_IDENTIFICATION_ASSIGNMENT ( 'R0402~C0402_L1.0-W0.5-H0.5~8fiY.step.STEP' , #18, #15,( #50) ) ;
#50 = DOCUMENT_FILE ( 'R0402~C0402_L1.0-W0.5-H0.5~8fiY.step.STEP' , '', '', #27, '' ,$ ) ;
#51 = DIRECTION ( 'NONE',  ( 1.000000000000000444, 0.000000000000000000, 0.000000000000000000 ) ) ;
#52 = PRODUCT ( 'C4~R0402~C0402_L1.0-W0.5-H0.5~8fiY.step', 'C4~R0402~C0402_L1.0-W0.5-H0.5~8fiY.step', '', ( #4 ) ) ;
#53 = PRODUCT_DEFINITION ( 'General', '', #7, #29 ) ;
#54 = DIRECTION ( 'NONE',  ( 1.000000000000000000, 0.000000000000000000, 0.000000000000000000 ) ) ;
#55 =( NAMED_UNIT ( * ) PLANE_ANGLE_UNIT ( ) SI_UNIT ( $, .RADIAN. ) );
#56 = PRODUCT_DEFINITION_SHAPE ( 'NONE', 'NONE',  #60 ) ;
#57 = UNCERTAINTY_MEASURE_WITH_UNIT (LENGTH_MEASURE( 1.000000000000000082E-05 ), #9, 'distance_accuracy_value', 'NONE');
#58 = OBJECT_ROLE ('mandatory',$ ) ;
#59 = DIRECTION ( 'NONE',  ( 1.000000000000000000, 0.000000000000000000, 0.000000000000000000 ) ) ;
#60 = PRODUCT_DEFINITION ( 'General', '', #11, #19 ) ;
#61 = PROPERTY_DEFINITION_REPRESENTATION ( #40, #31 ) ;
#62 =( NAMED_UNIT ( * ) SI_UNIT ( $, .STERADIAN. ) SOLID_ANGLE_UNIT ( ) );
#63 = PRODUCT_DEFINITION_SHAPE ( 'NONE', 'NONE',  #65 ) ;
#64 = AXIS2_PLACEMENT_3D ( 'NONE', #2, #5, #54 ) ;
#65 = NEXT_ASSEMBLY_USAGE_OCCURRENCE ( 'NAUO5', ' ', ' ', #60, #53, $ ) ;
ENDSEC;
END-ISO-10303-21;
