ISO-10303-21;
HEADER;
FILE_DESCRIPTION (( 'STEP AP214' ),
    '1' );
FILE_NAME ('C5~R0402~C0402_L1.0-W0.5-H0.5~8fiY.step.STEP',
    '2026-07-13T19:25:54',
    ( '' ),
    ( '' ),
    'SwSTEP 2.0',
    'SolidWorks 2025',
    '' );
FILE_SCHEMA (( 'AUTOMOTIVE_DESIGN' ));
ENDSEC;

DATA;
#1 = PRODUCT_CONTEXT ( 'NONE', #39, 'mechanical' ) ;
#2 = APPLICATION_CONTEXT ( 'automotive_design' ) ;
#3 = SHAPE_REPRESENTATION ( 'C5~R0402~C0402_L1.0-W0.5-H0.5~8fiY.step', ( #24, #48 ), #27 ) ;
#4 = PROPERTY_DEFINITION ('document property','', #45 ) ;
#5 =( NAMED_UNIT ( * ) PLANE_ANGLE_UNIT ( ) SI_UNIT ( $, .RADIAN. ) );
#6 = APPLICATION_CONTEXT ( 'automotive_design' ) ;
#7 = PRODUCT_RELATED_PRODUCT_CATEGORY ( 'part', '', ( #33 ) ) ;
#8 = CONTEXT_DEPENDENT_SHAPE_REPRESENTATION ( #10, #16 ) ;
#9 = PRODUCT_DEFINITION_FORMATION_WITH_SPECIFIED_SOURCE ( 'Symmetric', '', #33, .NOT_KNOWN. ) ;
#10 =( REPRESENTATION_RELATIONSHIP ('NONE','NONE', #3, #12 ) REPRESENTATION_RELATIONSHIP_WITH_TRANSFORMATION ( #46 )SHAPE_REPRESENTATION_RELATIONSHIP( ) );
#11 = APPLIED_EXTERNAL_IDENTIFICATION_ASSIGNMENT ( 'R0402~C0402_L1.0-W0.5-H0.5~8fiY.step.STEP' , #49, #51,( #45) ) ;
#12 = SHAPE_REPRESENTATION ( 'R0402~C0402_L1.0-W0.5-H0.5~8fiY.step', ( #59 ), #31 ) ;
#13 = APPLICATION_PROTOCOL_DEFINITION ( 'draft international standard', 'automotive_design', 1998, #43 ) ;
#14 = CARTESIAN_POINT ( 'NONE',  ( 0.000000000000000000, 0.000000000000000000, 0.000000000000000000 ) ) ;
#15 = PROPERTY_DEFINITION_REPRESENTATION ( #4, #12 ) ;
#16 = PRODUCT_DEFINITION_SHAPE ( 'NONE', 'NONE',  #65 ) ;
#17 = CARTESIAN_POINT ( 'NONE',  ( 0.000000000000000000, 0.000000000000000000, 0.000000000000000000 ) ) ;
#18 =( LENGTH_UNIT ( ) NAMED_UNIT ( * ) SI_UNIT ( .MILLI., .METRE. ) );
#19 = DIRECTION ( 'NONE',  ( 1.000000000000000000, 0.000000000000000000, 0.000000000000000000 ) ) ;
#20 = DOCUMENT_TYPE ( 'geometry' ) ;
#21 = OBJECT_ROLE ('mandatory',$ ) ;
#22 = APPLIED_DOCUMENT_REFERENCE ( #45,'',( #38) ) ;
#23 = DIRECTION ( 'NONE',  ( 0.000000000000000000, 0.000000000000000000, 1.000000000000000000 ) ) ;
#24 = AXIS2_PLACEMENT_3D ( 'NONE', #17, #47, #26 ) ;
#25 = DIRECTION ( 'NONE',  ( 1.000000000000000000, 0.000000000000000000, 2.077461250111562526E-48 ) ) ;
#26 = DIRECTION ( 'NONE',  ( 1.000000000000000000, 0.000000000000000000, 0.000000000000000000 ) ) ;
#27 =( GEOMETRIC_REPRESENTATION_CONTEXT ( 3 ) GLOBAL_UNCERTAINTY_ASSIGNED_CONTEXT ( ( #37 ) ) GLOBAL_UNIT_ASSIGNED_CONTEXT ( ( #53, #5, #34 ) ) REPRESENTATION_CONTEXT ( 'NONE', 'WORKASPACE' ) );
#28 = PRODUCT_DEFINITION_CONTEXT ( 'detailed design', #6, 'design' ) ;
#29 = SHAPE_DEFINITION_REPRESENTATION ( #57, #12 ) ;
#30 = ROLE_ASSOCIATION ( #21, #22 ) ;
#31 =( GEOMETRIC_REPRESENTATION_CONTEXT ( 3 ) GLOBAL_UNCERTAINTY_ASSIGNED_CONTEXT ( ( #40 ) ) GLOBAL_UNIT_ASSIGNED_CONTEXT ( ( #18, #35, #56 ) ) REPRESENTATION_CONTEXT ( 'NONE', 'WORKASPACE' ) );
#32 = APPLICATION_PROTOCOL_DEFINITION ( 'draft international standard', 'automotive_design', 1998, #2 ) ;
#33 = PRODUCT ( 'R0402~C0402_L1.0-W0.5-H0.5~8fiY.step', 'R0402~C0402_L1.0-W0.5-H0.5~8fiY.step', '', ( #1 ) ) ;
#34 =( NAMED_UNIT ( * ) SI_UNIT ( $, .STERADIAN. ) SOLID_ANGLE_UNIT ( ) );
#35 =( NAMED_UNIT ( * ) PLANE_ANGLE_UNIT ( ) SI_UNIT ( $, .RADIAN. ) );
#36 = DIRECTION ( 'NONE',  ( 2.077461250111562526E-48, 0.000000000000000000, 1.000000000000000444 ) ) ;
#37 = UNCERTAINTY_MEASURE_WITH_UNIT (LENGTH_MEASURE( 1.000000000000000082E-05 ), #53, 'distance_accuracy_value', 'NONE');
#38 = PRODUCT_DEFINITION ( 'General', '', #9, #28 ) ;
#39 = APPLICATION_CONTEXT ( 'automotive_design' ) ;
#40 = UNCERTAINTY_MEASURE_WITH_UNIT (LENGTH_MEASURE( 1.000000000000000082E-05 ), #18, 'distance_accuracy_value', 'NONE');
#41 = PRODUCT_DEFINITION_FORMATION_WITH_SPECIFIED_SOURCE ( 'Symmetric', '', #44, .NOT_KNOWN. ) ;
#42 = PRODUCT_CONTEXT ( 'NONE', #2, 'mechanical' ) ;
#43 = APPLICATION_CONTEXT ( 'automotive_design' ) ;
#44 = PRODUCT ( 'C5~R0402~C0402_L1.0-W0.5-H0.5~8fiY.step', 'C5~R0402~C0402_L1.0-W0.5-H0.5~8fiY.step', '', ( #42 ) ) ;
#45 = DOCUMENT_FILE ( 'R0402~C0402_L1.0-W0.5-H0.5~8fiY.step.STEP' , '', '', #20, '' ,$ ) ;
#46 = ITEM_DEFINED_TRANSFORMATION ( 'NONE', 'NONE', #48,  #59 ) ;
#47 = DIRECTION ( 'NONE',  ( 0.000000000000000000, 0.000000000000000000, 1.000000000000000000 ) ) ;
#48 = AXIS2_PLACEMENT_3D ( 'NONE', #14, #36, #25 ) ;
#49 = IDENTIFICATION_ROLE ( 'external document id and location', $) ;
#50 = CARTESIAN_POINT ( 'NONE',  ( 0.000000000000000000, 0.000000000000000000, 0.000000000000000000 ) ) ;
#51 = EXTERNAL_SOURCE (IDENTIFIER('') ) ;
#52 = PROPERTY_DEFINITION ('external definition','', #45 ) ;
#53 =( LENGTH_UNIT ( ) NAMED_UNIT ( * ) SI_UNIT ( .MILLI., .METRE. ) );
#54 = SHAPE_DEFINITION_REPRESENTATION ( #60, #3 ) ;
#55 = PRODUCT_RELATED_PRODUCT_CATEGORY ( 'part', '', ( #44 ) ) ;
#56 =( NAMED_UNIT ( * ) SI_UNIT ( $, .STERADIAN. ) SOLID_ANGLE_UNIT ( ) );
#57 = PRODUCT_DEFINITION_SHAPE ( 'NONE', 'NONE',  #38 ) ;
#58 = PROPERTY_DEFINITION_REPRESENTATION ( #52, #12 ) ;
#59 = AXIS2_PLACEMENT_3D ( 'NONE', #50, #23, #19 ) ;
#60 = PRODUCT_DEFINITION_SHAPE ( 'NONE', 'NONE',  #63 ) ;
#61 = APPLICATION_PROTOCOL_DEFINITION ( 'draft international standard', 'automotive_design', 1998, #6 ) ;
#62 = APPLICATION_PROTOCOL_DEFINITION ( 'draft international standard', 'automotive_design', 1998, #39 ) ;
#63 = PRODUCT_DEFINITION ( 'General', '', #41, #64 ) ;
#64 = PRODUCT_DEFINITION_CONTEXT ( 'detailed design', #43, 'design' ) ;
#65 = NEXT_ASSEMBLY_USAGE_OCCURRENCE ( 'NAUO1', ' ', ' ', #63, #38, $ ) ;
ENDSEC;
END-ISO-10303-21;
