ISO-10303-21;
HEADER;
FILE_DESCRIPTION (( 'STEP AP214' ),
    '1' );
FILE_NAME ('C6~R0402~C0402_L1.0-W0.5-H0.5~8fiY.step.STEP',
    '2026-07-06T21:55:11',
    ( '' ),
    ( '' ),
    'SwSTEP 2.0',
    'SolidWorks 2025',
    '' );
FILE_SCHEMA (( 'AUTOMOTIVE_DESIGN' ));
ENDSEC;

DATA;
#1 = PRODUCT ( 'R0402~C0402_L1.0-W0.5-H0.5~8fiY.step', 'R0402~C0402_L1.0-W0.5-H0.5~8fiY.step', '', ( #32 ) ) ;
#2 = APPLICATION_CONTEXT ( 'automotive_design' ) ;
#3 = APPLICATION_PROTOCOL_DEFINITION ( 'draft international standard', 'automotive_design', 1998, #2 ) ;
#4 = OBJECT_ROLE ('mandatory',$ ) ;
#5 = PRODUCT_DEFINITION_FORMATION_WITH_SPECIFIED_SOURCE ( 'Symmetric', '', #55, .NOT_KNOWN. ) ;
#6 = PRODUCT_DEFINITION ( 'General', '', #5, #20 ) ;
#7 = UNCERTAINTY_MEASURE_WITH_UNIT (LENGTH_MEASURE( 1.000000000000000082E-05 ), #48, 'distance_accuracy_value', 'NONE');
#8 = DIRECTION ( 'NONE',  ( -2.077461250111562526E-48, 0.000000000000000000, 1.000000000000000444 ) ) ;
#9 = PROPERTY_DEFINITION_REPRESENTATION ( #17, #19 ) ;
#10 = PROPERTY_DEFINITION_REPRESENTATION ( #60, #19 ) ;
#11 = APPLICATION_CONTEXT ( 'automotive_design' ) ;
#12 = PRODUCT_CONTEXT ( 'NONE', #37, 'mechanical' ) ;
#13 = DIRECTION ( 'NONE',  ( 1.000000000000000000, 0.000000000000000000, -2.077461250111562526E-48 ) ) ;
#14 = CONTEXT_DEPENDENT_SHAPE_REPRESENTATION ( #27, #36 ) ;
#15 =( NAMED_UNIT ( * ) SI_UNIT ( $, .STERADIAN. ) SOLID_ANGLE_UNIT ( ) );
#16 = PRODUCT_DEFINITION_FORMATION_WITH_SPECIFIED_SOURCE ( 'Symmetric', '', #1, .NOT_KNOWN. ) ;
#17 = PROPERTY_DEFINITION ('document property','', #57 ) ;
#18 = SHAPE_REPRESENTATION ( 'C6~R0402~C0402_L1.0-W0.5-H0.5~8fiY.step', ( #56, #64 ), #51 ) ;
#19 = SHAPE_REPRESENTATION ( 'R0402~C0402_L1.0-W0.5-H0.5~8fiY.step', ( #33 ), #22 ) ;
#20 = PRODUCT_DEFINITION_CONTEXT ( 'detailed design', #62, 'design' ) ;
#21 =( NAMED_UNIT ( * ) PLANE_ANGLE_UNIT ( ) SI_UNIT ( $, .RADIAN. ) );
#22 =( GEOMETRIC_REPRESENTATION_CONTEXT ( 3 ) GLOBAL_UNCERTAINTY_ASSIGNED_CONTEXT ( ( #7 ) ) GLOBAL_UNIT_ASSIGNED_CONTEXT ( ( #48, #34, #15 ) ) REPRESENTATION_CONTEXT ( 'NONE', 'WORKASPACE' ) );
#23 = CARTESIAN_POINT ( 'NONE',  ( 0.000000000000000000, 0.000000000000000000, 0.000000000000000000 ) ) ;
#24 = PRODUCT_DEFINITION_SHAPE ( 'NONE', 'NONE',  #25 ) ;
#25 = PRODUCT_DEFINITION ( 'General', '', #16, #31 ) ;
#26 = UNCERTAINTY_MEASURE_WITH_UNIT (LENGTH_MEASURE( 1.000000000000000082E-05 ), #58, 'distance_accuracy_value', 'NONE');
#27 =( REPRESENTATION_RELATIONSHIP ('NONE','NONE', #18, #19 ) REPRESENTATION_RELATIONSHIP_WITH_TRANSFORMATION ( #61 )SHAPE_REPRESENTATION_RELATIONSHIP( ) );
#28 = CARTESIAN_POINT ( 'NONE',  ( 0.000000000000000000, 0.000000000000000000, 0.000000000000000000 ) ) ;
#29 = PRODUCT_RELATED_PRODUCT_CATEGORY ( 'part', '', ( #1 ) ) ;
#30 = DOCUMENT_TYPE ( 'geometry' ) ;
#31 = PRODUCT_DEFINITION_CONTEXT ( 'detailed design', #11, 'design' ) ;
#32 = PRODUCT_CONTEXT ( 'NONE', #2, 'mechanical' ) ;
#33 = AXIS2_PLACEMENT_3D ( 'NONE', #41, #35, #46 ) ;
#34 =( NAMED_UNIT ( * ) PLANE_ANGLE_UNIT ( ) SI_UNIT ( $, .RADIAN. ) );
#35 = DIRECTION ( 'NONE',  ( 0.000000000000000000, 0.000000000000000000, 1.000000000000000000 ) ) ;
#36 = PRODUCT_DEFINITION_SHAPE ( 'NONE', 'NONE',  #65 ) ;
#37 = APPLICATION_CONTEXT ( 'automotive_design' ) ;
#38 = EXTERNAL_SOURCE (IDENTIFIER('') ) ;
#39 = ROLE_ASSOCIATION ( #4, #53 ) ;
#40 = IDENTIFICATION_ROLE ( 'external document id and location', $) ;
#41 = CARTESIAN_POINT ( 'NONE',  ( 0.000000000000000000, 0.000000000000000000, 0.000000000000000000 ) ) ;
#42 = DIRECTION ( 'NONE',  ( 1.000000000000000000, 0.000000000000000000, 0.000000000000000000 ) ) ;
#43 = PRODUCT_RELATED_PRODUCT_CATEGORY ( 'part', '', ( #55 ) ) ;
#44 = SHAPE_DEFINITION_REPRESENTATION ( #24, #19 ) ;
#45 = APPLICATION_PROTOCOL_DEFINITION ( 'draft international standard', 'automotive_design', 1998, #37 ) ;
#46 = DIRECTION ( 'NONE',  ( 1.000000000000000000, 0.000000000000000000, 0.000000000000000000 ) ) ;
#47 = PRODUCT_DEFINITION_SHAPE ( 'NONE', 'NONE',  #6 ) ;
#48 =( LENGTH_UNIT ( ) NAMED_UNIT ( * ) SI_UNIT ( .MILLI., .METRE. ) );
#49 = APPLICATION_PROTOCOL_DEFINITION ( 'draft international standard', 'automotive_design', 1998, #62 ) ;
#50 = APPLIED_EXTERNAL_IDENTIFICATION_ASSIGNMENT ( 'R0402~C0402_L1.0-W0.5-H0.5~8fiY.step.STEP' , #40, #38,( #57) ) ;
#51 =( GEOMETRIC_REPRESENTATION_CONTEXT ( 3 ) GLOBAL_UNCERTAINTY_ASSIGNED_CONTEXT ( ( #26 ) ) GLOBAL_UNIT_ASSIGNED_CONTEXT ( ( #58, #21, #54 ) ) REPRESENTATION_CONTEXT ( 'NONE', 'WORKASPACE' ) );
#52 = APPLICATION_PROTOCOL_DEFINITION ( 'draft international standard', 'automotive_design', 1998, #11 ) ;
#53 = APPLIED_DOCUMENT_REFERENCE ( #57,'',( #25) ) ;
#54 =( NAMED_UNIT ( * ) SI_UNIT ( $, .STERADIAN. ) SOLID_ANGLE_UNIT ( ) );
#55 = PRODUCT ( 'C6~R0402~C0402_L1.0-W0.5-H0.5~8fiY.step', 'C6~R0402~C0402_L1.0-W0.5-H0.5~8fiY.step', '', ( #12 ) ) ;
#56 = AXIS2_PLACEMENT_3D ( 'NONE', #23, #59, #42 ) ;
#57 = DOCUMENT_FILE ( 'R0402~C0402_L1.0-W0.5-H0.5~8fiY.step.STEP' , '', '', #30, '' ,$ ) ;
#58 =( LENGTH_UNIT ( ) NAMED_UNIT ( * ) SI_UNIT ( .MILLI., .METRE. ) );
#59 = DIRECTION ( 'NONE',  ( 0.000000000000000000, 0.000000000000000000, 1.000000000000000000 ) ) ;
#60 = PROPERTY_DEFINITION ('external definition','', #57 ) ;
#61 = ITEM_DEFINED_TRANSFORMATION ( 'NONE', 'NONE', #64,  #33 ) ;
#62 = APPLICATION_CONTEXT ( 'automotive_design' ) ;
#63 = SHAPE_DEFINITION_REPRESENTATION ( #47, #18 ) ;
#64 = AXIS2_PLACEMENT_3D ( 'NONE', #28, #8, #13 ) ;
#65 = NEXT_ASSEMBLY_USAGE_OCCURRENCE ( 'NAUO4', ' ', ' ', #6, #25, $ ) ;
ENDSEC;
END-ISO-10303-21;
