ISO-10303-21;
HEADER;
FILE_DESCRIPTION (( 'STEP AP214' ),
    '1' );
FILE_NAME ('C7~R0402~C0402_L1.0-W0.5-H0.5~8fiY.step.STEP',
    '2026-07-13T19:25:54',
    ( '' ),
    ( '' ),
    'SwSTEP 2.0',
    'SolidWorks 2025',
    '' );
FILE_SCHEMA (( 'AUTOMOTIVE_DESIGN' ));
ENDSEC;

DATA;
#1 = DIRECTION ( 'NONE',  ( 1.000000000000000000, 0.000000000000000000, 0.000000000000000000 ) ) ;
#2 = PRODUCT_DEFINITION ( 'General', '', #50, #10 ) ;
#3 = ROLE_ASSOCIATION ( #63, #34 ) ;
#4 = PRODUCT ( 'R0402~C0402_L1.0-W0.5-H0.5~8fiY.step', 'R0402~C0402_L1.0-W0.5-H0.5~8fiY.step', '', ( #47 ) ) ;
#5 = CARTESIAN_POINT ( 'NONE',  ( 0.000000000000000000, 0.000000000000000000, 0.000000000000000000 ) ) ;
#6 = PRODUCT_DEFINITION_FORMATION_WITH_SPECIFIED_SOURCE ( 'Symmetric', '', #4, .NOT_KNOWN. ) ;
#7 = DIRECTION ( 'NONE',  ( 1.000000000000000000, 0.000000000000000000, 0.000000000000000000 ) ) ;
#8 = APPLICATION_CONTEXT ( 'automotive_design' ) ;
#9 = DOCUMENT_TYPE ( 'geometry' ) ;
#10 = PRODUCT_DEFINITION_CONTEXT ( 'detailed design', #60, 'design' ) ;
#11 = PROPERTY_DEFINITION ('external definition','', #45 ) ;
#12 = SHAPE_DEFINITION_REPRESENTATION ( #64, #21 ) ;
#13 = PRODUCT_DEFINITION_SHAPE ( 'NONE', 'NONE',  #57 ) ;
#14 = SHAPE_REPRESENTATION ( 'R0402~C0402_L1.0-W0.5-H0.5~8fiY.step', ( #46 ), #25 ) ;
#15 = IDENTIFICATION_ROLE ( 'external document id and location', $) ;
#16 = PRODUCT_DEFINITION_CONTEXT ( 'detailed design', #51, 'design' ) ;
#17 = CARTESIAN_POINT ( 'NONE',  ( 0.000000000000000000, 0.000000000000000000, 0.000000000000000000 ) ) ;
#18 = PROPERTY_DEFINITION_REPRESENTATION ( #37, #14 ) ;
#19 = DIRECTION ( 'NONE',  ( 0.000000000000000000, 0.000000000000000000, 1.000000000000000000 ) ) ;
#20 = APPLICATION_PROTOCOL_DEFINITION ( 'draft international standard', 'automotive_design', 1998, #51 ) ;
#21 = SHAPE_REPRESENTATION ( 'C7~R0402~C0402_L1.0-W0.5-H0.5~8fiY.step', ( #26, #33 ), #39 ) ;
#22 = APPLICATION_PROTOCOL_DEFINITION ( 'draft international standard', 'automotive_design', 1998, #60 ) ;
#23 = APPLICATION_PROTOCOL_DEFINITION ( 'draft international standard', 'automotive_design', 1998, #30 ) ;
#24 = DIRECTION ( 'NONE',  ( 1.000000000000000000, 0.000000000000000000, -2.077461250111562526E-48 ) ) ;
#25 =( GEOMETRIC_REPRESENTATION_CONTEXT ( 3 ) GLOBAL_UNCERTAINTY_ASSIGNED_CONTEXT ( ( #41 ) ) GLOBAL_UNIT_ASSIGNED_CONTEXT ( ( #52, #42, #40 ) ) REPRESENTATION_CONTEXT ( 'NONE', 'WORKASPACE' ) );
#26 = AXIS2_PLACEMENT_3D ( 'NONE', #58, #19, #7 ) ;
#27 =( NAMED_UNIT ( * ) PLANE_ANGLE_UNIT ( ) SI_UNIT ( $, .RADIAN. ) );
#28 = PRODUCT_CONTEXT ( 'NONE', #8, 'mechanical' ) ;
#29 = DIRECTION ( 'NONE',  ( -2.077461250111562526E-48, 0.000000000000000000, 1.000000000000000444 ) ) ;
#30 = APPLICATION_CONTEXT ( 'automotive_design' ) ;
#31 = PRODUCT ( 'C7~R0402~C0402_L1.0-W0.5-H0.5~8fiY.step', 'C7~R0402~C0402_L1.0-W0.5-H0.5~8fiY.step', '', ( #28 ) ) ;
#32 = SHAPE_DEFINITION_REPRESENTATION ( #13, #14 ) ;
#33 = AXIS2_PLACEMENT_3D ( 'NONE', #17, #29, #24 ) ;
#34 = APPLIED_DOCUMENT_REFERENCE ( #45,'',( #57) ) ;
#35 = DIRECTION ( 'NONE',  ( 0.000000000000000000, 0.000000000000000000, 1.000000000000000000 ) ) ;
#36 = UNCERTAINTY_MEASURE_WITH_UNIT (LENGTH_MEASURE( 1.000000000000000082E-05 ), #59, 'distance_accuracy_value', 'NONE');
#37 = PROPERTY_DEFINITION ('document property','', #45 ) ;
#38 =( NAMED_UNIT ( * ) SI_UNIT ( $, .STERADIAN. ) SOLID_ANGLE_UNIT ( ) );
#39 =( GEOMETRIC_REPRESENTATION_CONTEXT ( 3 ) GLOBAL_UNCERTAINTY_ASSIGNED_CONTEXT ( ( #36 ) ) GLOBAL_UNIT_ASSIGNED_CONTEXT ( ( #59, #27, #38 ) ) REPRESENTATION_CONTEXT ( 'NONE', 'WORKASPACE' ) );
#40 =( NAMED_UNIT ( * ) SI_UNIT ( $, .STERADIAN. ) SOLID_ANGLE_UNIT ( ) );
#41 = UNCERTAINTY_MEASURE_WITH_UNIT (LENGTH_MEASURE( 1.000000000000000082E-05 ), #52, 'distance_accuracy_value', 'NONE');
#42 =( NAMED_UNIT ( * ) PLANE_ANGLE_UNIT ( ) SI_UNIT ( $, .RADIAN. ) );
#43 = APPLICATION_PROTOCOL_DEFINITION ( 'draft international standard', 'automotive_design', 1998, #8 ) ;
#44 = CONTEXT_DEPENDENT_SHAPE_REPRESENTATION ( #55, #56 ) ;
#45 = DOCUMENT_FILE ( 'R0402~C0402_L1.0-W0.5-H0.5~8fiY.step.STEP' , '', '', #9, '' ,$ ) ;
#46 = AXIS2_PLACEMENT_3D ( 'NONE', #5, #35, #1 ) ;
#47 = PRODUCT_CONTEXT ( 'NONE', #30, 'mechanical' ) ;
#48 = PRODUCT_RELATED_PRODUCT_CATEGORY ( 'part', '', ( #4 ) ) ;
#49 = ITEM_DEFINED_TRANSFORMATION ( 'NONE', 'NONE', #33,  #46 ) ;
#50 = PRODUCT_DEFINITION_FORMATION_WITH_SPECIFIED_SOURCE ( 'Symmetric', '', #31, .NOT_KNOWN. ) ;
#51 = APPLICATION_CONTEXT ( 'automotive_design' ) ;
#52 =( LENGTH_UNIT ( ) NAMED_UNIT ( * ) SI_UNIT ( .MILLI., .METRE. ) );
#53 = PRODUCT_RELATED_PRODUCT_CATEGORY ( 'part', '', ( #31 ) ) ;
#54 = APPLIED_EXTERNAL_IDENTIFICATION_ASSIGNMENT ( 'R0402~C0402_L1.0-W0.5-H0.5~8fiY.step.STEP' , #15, #61,( #45) ) ;
#55 =( REPRESENTATION_RELATIONSHIP ('NONE','NONE', #21, #14 ) REPRESENTATION_RELATIONSHIP_WITH_TRANSFORMATION ( #49 )SHAPE_REPRESENTATION_RELATIONSHIP( ) );
#56 = PRODUCT_DEFINITION_SHAPE ( 'NONE', 'NONE',  #65 ) ;
#57 = PRODUCT_DEFINITION ( 'General', '', #6, #16 ) ;
#58 = CARTESIAN_POINT ( 'NONE',  ( 0.000000000000000000, 0.000000000000000000, 0.000000000000000000 ) ) ;
#59 =( LENGTH_UNIT ( ) NAMED_UNIT ( * ) SI_UNIT ( .MILLI., .METRE. ) );
#60 = APPLICATION_CONTEXT ( 'automotive_design' ) ;
#61 = EXTERNAL_SOURCE (IDENTIFIER('') ) ;
#62 = PROPERTY_DEFINITION_REPRESENTATION ( #11, #14 ) ;
#63 = OBJECT_ROLE ('mandatory',$ ) ;
#64 = PRODUCT_DEFINITION_SHAPE ( 'NONE', 'NONE',  #2 ) ;
#65 = NEXT_ASSEMBLY_USAGE_OCCURRENCE ( 'NAUO3', ' ', ' ', #2, #57, $ ) ;
ENDSEC;
END-ISO-10303-21;
