ISO-10303-21;
HEADER;
FILE_DESCRIPTION (( 'STEP AP214' ),
    '1' );
FILE_NAME ('C8~R0402~C0402_L1.0-W0.5-H0.5~8fiY.step.STEP',
    '2026-07-06T21:55:09',
    ( '' ),
    ( '' ),
    'SwSTEP 2.0',
    'SolidWorks 2025',
    '' );
FILE_SCHEMA (( 'AUTOMOTIVE_DESIGN' ));
ENDSEC;

DATA;
#1 = APPLICATION_CONTEXT ( 'automotive_design' ) ;
#2 = PRODUCT_DEFINITION_SHAPE ( 'NONE', 'NONE',  #32 ) ;
#3 =( NAMED_UNIT ( * ) PLANE_ANGLE_UNIT ( ) SI_UNIT ( $, .RADIAN. ) );
#4 = SHAPE_DEFINITION_REPRESENTATION ( #34, #36 ) ;
#5 = UNCERTAINTY_MEASURE_WITH_UNIT (LENGTH_MEASURE( 1.000000000000000082E-05 ), #47, 'distance_accuracy_value', 'NONE');
#6 = IDENTIFICATION_ROLE ( 'external document id and location', $) ;
#7 = PRODUCT_RELATED_PRODUCT_CATEGORY ( 'part', '', ( #61 ) ) ;
#8 = PRODUCT_DEFINITION_SHAPE ( 'NONE', 'NONE',  #65 ) ;
#9 = CONTEXT_DEPENDENT_SHAPE_REPRESENTATION ( #40, #8 ) ;
#10 = PRODUCT_DEFINITION ( 'General', '', #18, #11 ) ;
#11 = PRODUCT_DEFINITION_CONTEXT ( 'detailed design', #64, 'design' ) ;
#12 = PRODUCT_RELATED_PRODUCT_CATEGORY ( 'part', '', ( #53 ) ) ;
#13 = ITEM_DEFINED_TRANSFORMATION ( 'NONE', 'NONE', #58,  #55 ) ;
#14 = PROPERTY_DEFINITION ('document property','', #42 ) ;
#15 =( NAMED_UNIT ( * ) PLANE_ANGLE_UNIT ( ) SI_UNIT ( $, .RADIAN. ) );
#16 = DIRECTION ( 'NONE',  ( 1.000000000000000000, 0.000000000000000000, -2.077461250111562526E-48 ) ) ;
#17 = PRODUCT_DEFINITION_CONTEXT ( 'detailed design', #1, 'design' ) ;
#18 = PRODUCT_DEFINITION_FORMATION_WITH_SPECIFIED_SOURCE ( 'Symmetric', '', #61, .NOT_KNOWN. ) ;
#19 =( LENGTH_UNIT ( ) NAMED_UNIT ( * ) SI_UNIT ( .MILLI., .METRE. ) );
#20 = ROLE_ASSOCIATION ( #44, #35 ) ;
#21 = PRODUCT_CONTEXT ( 'NONE', #24, 'mechanical' ) ;
#22 = CARTESIAN_POINT ( 'NONE',  ( 0.000000000000000000, 0.000000000000000000, 0.000000000000000000 ) ) ;
#23 = CARTESIAN_POINT ( 'NONE',  ( 0.000000000000000000, 0.000000000000000000, 0.000000000000000000 ) ) ;
#24 = APPLICATION_CONTEXT ( 'automotive_design' ) ;
#25 = PRODUCT_CONTEXT ( 'NONE', #39, 'mechanical' ) ;
#26 = DIRECTION ( 'NONE',  ( 1.000000000000000000, 0.000000000000000000, 0.000000000000000000 ) ) ;
#27 = DIRECTION ( 'NONE',  ( 0.000000000000000000, 0.000000000000000000, 1.000000000000000000 ) ) ;
#28 = APPLICATION_PROTOCOL_DEFINITION ( 'draft international standard', 'automotive_design', 1998, #24 ) ;
#29 = DOCUMENT_TYPE ( 'geometry' ) ;
#30 = PROPERTY_DEFINITION_REPRESENTATION ( #14, #41 ) ;
#31 =( GEOMETRIC_REPRESENTATION_CONTEXT ( 3 ) GLOBAL_UNCERTAINTY_ASSIGNED_CONTEXT ( ( #48 ) ) GLOBAL_UNIT_ASSIGNED_CONTEXT ( ( #19, #15, #56 ) ) REPRESENTATION_CONTEXT ( 'NONE', 'WORKASPACE' ) );
#32 = PRODUCT_DEFINITION ( 'General', '', #59, #17 ) ;
#33 = PROPERTY_DEFINITION ('external definition','', #42 ) ;
#34 = PRODUCT_DEFINITION_SHAPE ( 'NONE', 'NONE',  #10 ) ;
#35 = APPLIED_DOCUMENT_REFERENCE ( #42,'',( #32) ) ;
#36 = SHAPE_REPRESENTATION ( 'C8~R0402~C0402_L1.0-W0.5-H0.5~8fiY.step', ( #46, #58 ), #31 ) ;
#37 =( GEOMETRIC_REPRESENTATION_CONTEXT ( 3 ) GLOBAL_UNCERTAINTY_ASSIGNED_CONTEXT ( ( #5 ) ) GLOBAL_UNIT_ASSIGNED_CONTEXT ( ( #47, #3, #45 ) ) REPRESENTATION_CONTEXT ( 'NONE', 'WORKASPACE' ) );
#38 = EXTERNAL_SOURCE (IDENTIFIER('') ) ;
#39 = APPLICATION_CONTEXT ( 'automotive_design' ) ;
#40 =( REPRESENTATION_RELATIONSHIP ('NONE','NONE', #36, #41 ) REPRESENTATION_RELATIONSHIP_WITH_TRANSFORMATION ( #13 )SHAPE_REPRESENTATION_RELATIONSHIP( ) );
#41 = SHAPE_REPRESENTATION ( 'R0402~C0402_L1.0-W0.5-H0.5~8fiY.step', ( #55 ), #37 ) ;
#42 = DOCUMENT_FILE ( 'R0402~C0402_L1.0-W0.5-H0.5~8fiY.step.STEP' , '', '', #29, '' ,$ ) ;
#43 = SHAPE_DEFINITION_REPRESENTATION ( #2, #41 ) ;
#44 = OBJECT_ROLE ('mandatory',$ ) ;
#45 =( NAMED_UNIT ( * ) SI_UNIT ( $, .STERADIAN. ) SOLID_ANGLE_UNIT ( ) );
#46 = AXIS2_PLACEMENT_3D ( 'NONE', #22, #27, #26 ) ;
#47 =( LENGTH_UNIT ( ) NAMED_UNIT ( * ) SI_UNIT ( .MILLI., .METRE. ) );
#48 = UNCERTAINTY_MEASURE_WITH_UNIT (LENGTH_MEASURE( 1.000000000000000082E-05 ), #19, 'distance_accuracy_value', 'NONE');
#49 = APPLICATION_PROTOCOL_DEFINITION ( 'draft international standard', 'automotive_design', 1998, #39 ) ;
#50 = DIRECTION ( 'NONE',  ( 0.000000000000000000, 0.000000000000000000, 1.000000000000000000 ) ) ;
#51 = DIRECTION ( 'NONE',  ( 1.000000000000000000, 0.000000000000000000, 0.000000000000000000 ) ) ;
#52 = APPLICATION_PROTOCOL_DEFINITION ( 'draft international standard', 'automotive_design', 1998, #1 ) ;
#53 = PRODUCT ( 'R0402~C0402_L1.0-W0.5-H0.5~8fiY.step', 'R0402~C0402_L1.0-W0.5-H0.5~8fiY.step', '', ( #21 ) ) ;
#54 = DIRECTION ( 'NONE',  ( -2.077461250111562526E-48, 0.000000000000000000, 1.000000000000000444 ) ) ;
#55 = AXIS2_PLACEMENT_3D ( 'NONE', #23, #50, #51 ) ;
#56 =( NAMED_UNIT ( * ) SI_UNIT ( $, .STERADIAN. ) SOLID_ANGLE_UNIT ( ) );
#57 = APPLIED_EXTERNAL_IDENTIFICATION_ASSIGNMENT ( 'R0402~C0402_L1.0-W0.5-H0.5~8fiY.step.STEP' , #6, #38,( #42) ) ;
#58 = AXIS2_PLACEMENT_3D ( 'NONE', #62, #54, #16 ) ;
#59 = PRODUCT_DEFINITION_FORMATION_WITH_SPECIFIED_SOURCE ( 'Symmetric', '', #53, .NOT_KNOWN. ) ;
#60 = PROPERTY_DEFINITION_REPRESENTATION ( #33, #41 ) ;
#61 = PRODUCT ( 'C8~R0402~C0402_L1.0-W0.5-H0.5~8fiY.step', 'C8~R0402~C0402_L1.0-W0.5-H0.5~8fiY.step', '', ( #25 ) ) ;
#62 = CARTESIAN_POINT ( 'NONE',  ( 0.000000000000000000, 0.000000000000000000, 0.000000000000000000 ) ) ;
#63 = APPLICATION_PROTOCOL_DEFINITION ( 'draft international standard', 'automotive_design', 1998, #64 ) ;
#64 = APPLICATION_CONTEXT ( 'automotive_design' ) ;
#65 = NEXT_ASSEMBLY_USAGE_OCCURRENCE ( 'NAUO1', ' ', ' ', #10, #32, $ ) ;
ENDSEC;
END-ISO-10303-21;
