ISO-10303-21;
HEADER;
FILE_DESCRIPTION (( 'STEP AP214' ),
    '1' );
FILE_NAME ('countersunk flat head cross recess screw_iso.STEP',
    '2026-07-13T19:27:28',
    ( '' ),
    ( '' ),
    'SwSTEP 2.0',
    'SolidWorks 2025',
    '' );
FILE_SCHEMA (( 'AUTOMOTIVE_DESIGN' ));
ENDSEC;

DATA;
#1 = CARTESIAN_POINT ( 'NONE',  ( 2.009999999999999787, -0.3699999999999983857, -0.4978511354034182990 ) ) ;
#2 = CARTESIAN_POINT ( 'NONE',  ( 0.000000000000000000, 0.000000000000000000, 0.000000000000000000 ) ) ;
#3 = ADVANCED_FACE ( 'NONE', ( #1064 ), #261, .T. ) ;
#4 = ORIENTED_EDGE ( 'NONE', *, *, #515, .F. ) ;
#5 = LINE ( 'NONE', #454, #86 ) ;
#6 = ORIENTED_EDGE ( 'NONE', *, *, #324, .T. ) ;
#7 = DIRECTION ( 'NONE',  ( 0.000000000000000000, 0.000000000000000000, 1.000000000000000000 ) ) ;
#8 = CIRCLE ( 'NONE', #870, 0.6965528920064407714 ) ;
#9 = DIRECTION ( 'NONE',  ( -1.000000000000000000, -0.000000000000000000, -0.000000000000000000 ) ) ;
#10 = AXIS2_PLACEMENT_3D ( 'NONE', #622, #180, #814 ) ;
#11 = CIRCLE ( 'NONE', #502, 1.734314575050762697 ) ;
#12 = VERTEX_POINT ( 'NONE', #236 ) ;
#13 = CARTESIAN_POINT ( 'NONE',  ( 2.009999999999999787, 0.000000000000000000, 0.000000000000000000 ) ) ;
#14 = DIRECTION ( 'NONE',  ( -1.000000000000000000, -0.000000000000000000, -0.000000000000000000 ) ) ;
#15 = DIRECTION ( 'NONE',  ( -1.000000000000000000, 0.000000000000000000, -0.000000000000000000 ) ) ;
#16 = ORIENTED_EDGE ( 'NONE', *, *, #583, .F. ) ;
#17 = CARTESIAN_POINT ( 'NONE',  ( 0.4000000000000054068, 0.000000000000000000, 0.000000000000000000 ) ) ;
#18 = VERTEX_POINT ( 'NONE', #1048 ) ;
#19 = DIRECTION ( 'NONE',  ( -1.000000000000000000, -0.000000000000000000, -0.000000000000000000 ) ) ;
#20 = ADVANCED_FACE ( 'NONE', ( #240 ), #390, .F. ) ;
#21 = VERTEX_POINT ( 'NONE', #58 ) ;
#22 = DIRECTION ( 'NONE',  ( -0.7071067811865462405, 8.659560562354950115E-17, -0.7071067811865489050 ) ) ;
#23 = ORIENTED_EDGE ( 'NONE', *, *, #197, .T. ) ;
#24 = FACE_OUTER_BOUND ( 'NONE', #130, .T. ) ;
#25 = EDGE_CURVE ( 'NONE', #951, #480, #698, .T. ) ;
#26 = VECTOR ( 'NONE', #966, 1000.000000000000000 ) ;
#27 = AXIS2_PLACEMENT_3D ( 'NONE', #1141, #228, #323 ) ;
#28 = ORIENTED_EDGE ( 'NONE', *, *, #217, .T. ) ;
#29 = CARTESIAN_POINT ( 'NONE',  ( 2.009999999999999787, 0.4978511354035000669, -0.3699999999999999956 ) ) ;
#30 = ORIENTED_EDGE ( 'NONE', *, *, #780, .F. ) ;
#31 = DIRECTION ( 'NONE',  ( -1.000000000000000000, -0.000000000000000000, -0.000000000000000000 ) ) ;
#32 = EDGE_CURVE ( 'NONE', #906, #117, #1154, .T. ) ;
#33 = EDGE_LOOP ( 'NONE', ( #125, #848, #654 ) ) ;
#34 = CARTESIAN_POINT ( 'NONE',  ( 0.000000000000000000, 0.3700000000000019384, -0.5901575479162617377 ) ) ;
#35 = VERTEX_POINT ( 'NONE', #424 ) ;
#36 = CARTESIAN_POINT ( 'NONE',  ( 0.000000000000000000, 0.3699999999999978306, 0.5901575479162642912 ) ) ;
#37 = LINE ( 'NONE', #52, #280 ) ;
#38 = ORIENTED_EDGE ( 'NONE', *, *, #260, .T. ) ;
#39 = FACE_OUTER_BOUND ( 'NONE', #353, .T. ) ;
#40 = EDGE_CURVE ( 'NONE', #743, #369, #882, .T. ) ;
#41 = VERTEX_POINT ( 'NONE', #343 ) ;
#42 = DIRECTION ( 'NONE',  ( 0.000000000000000000, 0.000000000000000000, 1.000000000000000000 ) ) ;
#43 = DIRECTION ( 'NONE',  ( 0.000000000000000000, 3.382593149645084608E-15, -1.000000000000000000 ) ) ;
#44 = ORIENTED_EDGE ( 'NONE', *, *, #1080, .F. ) ;
#45 = CARTESIAN_POINT ( 'NONE',  ( 1.874345677606162219, 0.000000000000000000, 0.5654858742913566605 ) ) ;
#46 = AXIS2_PLACEMENT_3D ( 'NONE', #29, #395, #854 ) ;
#47 = AXIS2_PLACEMENT_3D ( 'NONE', #949, #15, #694 ) ;
#48 = VERTEX_POINT ( 'NONE', #1137 ) ;
#49 = DIRECTION ( 'NONE',  ( -1.000000000000000000, -0.000000000000000000, -0.000000000000000000 ) ) ;
#50 = VECTOR ( 'NONE', #1079, 1000.000000000000227 ) ;
#51 = CONICAL_SURFACE ( 'NONE', #146, 0.5559999999999994946, 0.06981317007976590994 ) ;
#52 = CARTESIAN_POINT ( 'NONE',  ( 2.009999999999999787, 0.4978511354035000669, -0.3699999999999999956 ) ) ;
#53 = CARTESIAN_POINT ( 'NONE',  ( 0.6702656980951582355, 0.5348382249092117346, -0.3699999999999999400 ) ) ;
#54 = ORIENTED_EDGE ( 'NONE', *, *, #450, .T. ) ;
#55 = DIRECTION ( 'NONE',  ( -1.000000000000000000, -0.000000000000000000, -0.000000000000000000 ) ) ;
#56 = CARTESIAN_POINT ( 'NONE',  ( 2.009999999999999787, 0.000000000000000000, 0.000000000000000000 ) ) ;
#57 = EDGE_CURVE ( 'NONE', #12, #277, #443, .T. ) ;
#58 = CARTESIAN_POINT ( 'NONE',  ( 1.981370849898477671, 1.836970198721029934E-16, -1.500000000000000000 ) ) ;
#59 = ORIENTED_EDGE ( 'NONE', *, *, #1142, .F. ) ;
#60 = CARTESIAN_POINT ( 'NONE',  ( 0.000000000000000000, -0.3700000000000050471, 1.499999999999998668 ) ) ;
#61 = CARTESIAN_POINT ( 'NONE',  ( 0.000000000000000000, -0.5901575479162630700, 0.3700000000000000511 ) ) ;
#62 =( BOUNDED_CURVE ( )  B_SPLINE_CURVE ( 3, ( #231, #123, #686, #931 ),
 .UNSPECIFIED., .F., .F. ) 
 B_SPLINE_CURVE_WITH_KNOTS ( ( 4, 4 ),
 ( 5.754796812636906012, 6.811573801722266452 ),
 .UNSPECIFIED. ) 
 CURVE ( )  GEOMETRIC_REPRESENTATION_ITEM ( )  RATIONAL_B_SPLINE_CURVE ( ( 1.000000000000000000, 0.9090804130448409959, 0.9090804130448409959, 1.000000000000000000 ) ) 
 REPRESENTATION_ITEM ( '' )  );
#63 = DIRECTION ( 'NONE',  ( 0.000000000000000000, -1.000000000000000000, 1.088881891980488586E-16 ) ) ;
#64 =( NAMED_UNIT ( * ) PLANE_ANGLE_UNIT ( ) SI_UNIT ( $, .RADIAN. ) );
#65 = EDGE_LOOP ( 'NONE', ( #189, #821, #748, #843 ) ) ;
#66 = DIRECTION ( 'NONE',  ( 0.8949343913984498800, -0.4461977533474210666, -4.827312494458667931E-17 ) ) ;
#67 = AXIS2_PLACEMENT_3D ( 'NONE', #728, #1016, #999 ) ;
#68 = VECTOR ( 'NONE', #824, 1000.000000000000227 ) ;
#69 = FACE_OUTER_BOUND ( 'NONE', #312, .T. ) ;
#70 = CIRCLE ( 'NONE', #714, 0.5559999999999994946 ) ;
#71 = DIRECTION ( 'NONE',  ( 0.000000000000000000, 0.000000000000000000, 1.000000000000000000 ) ) ;
#72 = APPLICATION_PROTOCOL_DEFINITION ( 'draft international standard', 'automotive_design', 1998, #631 ) ;
#73 = EDGE_CURVE ( 'NONE', #213, #18, #873, .T. ) ;
#74 = ORIENTED_EDGE ( 'NONE', *, *, #786, .T. ) ;
#75 = FACE_OUTER_BOUND ( 'NONE', #991, .T. ) ;
#76 = PRESENTATION_STYLE_ASSIGNMENT (( #157 ) ) ;
#77 = CARTESIAN_POINT ( 'NONE',  ( 0.000000000000000000, 1.500000000000000000, -0.3699999999999998845 ) ) ;
#78 = ORIENTED_EDGE ( 'NONE', *, *, #956, .F. ) ;
#79 = CARTESIAN_POINT ( 'NONE',  ( 2.009999999999999787, -0.3700000000000014388, 0.4150132528004357724 ) ) ;
#80 = EDGE_CURVE ( 'NONE', #200, #1110, #1092, .T. ) ;
#81 = CARTESIAN_POINT ( 'NONE',  ( 2.009999999999999787, 0.4978511354035000669, 0.2475484739953880131 ) ) ;
#82 = CARTESIAN_POINT ( 'NONE',  ( 2.009999999999999787, 0.3699999999999982747, 0.4978511354035014547 ) ) ;
#83 = VERTEX_POINT ( 'NONE', #419 ) ;
#84 = CARTESIAN_POINT ( 'NONE',  ( 1.981370849898477671, 0.000000000000000000, 0.000000000000000000 ) ) ;
#85 = DIRECTION ( 'NONE',  ( 5.394040659131864380E-17, -0.000000000000000000, 1.000000000000000000 ) ) ;
#86 = VECTOR ( 'NONE', #1083, 1000.000000000000000 ) ;
#87 =( GEOMETRIC_REPRESENTATION_CONTEXT ( 3 ) GLOBAL_UNCERTAINTY_ASSIGNED_CONTEXT ( ( #719 ) ) GLOBAL_UNIT_ASSIGNED_CONTEXT ( ( #1059, #64, #434 ) ) REPRESENTATION_CONTEXT ( 'NONE', 'WORKASPACE' ) );
#88 = EDGE_CURVE ( 'NONE', #480, #439, #296, .T. ) ;
#89 = AXIS2_PLACEMENT_3D ( 'NONE', #920, #380, #107 ) ;
#90 = CIRCLE ( 'NONE', #925, 0.5559999999999994946 ) ;
#91 = AXIS2_PLACEMENT_3D ( 'NONE', #322, #31, #673 ) ;
#92 = DIRECTION ( 'NONE',  ( -1.000000000000000000, -0.000000000000000000, -0.000000000000000000 ) ) ;
#93 = ORIENTED_EDGE ( 'NONE', *, *, #128, .F. ) ;
#94 = LINE ( 'NONE', #739, #1012 ) ;
#95 = CYLINDRICAL_SURFACE ( 'NONE', #872, 1.500000000000000000 ) ;
#96 = ADVANCED_FACE ( 'NONE', ( #154 ), #412, .T. ) ;
#97 = DIRECTION ( 'NONE',  ( 0.000000000000000000, 0.000000000000000000, -1.000000000000000000 ) ) ;
#98 = EDGE_LOOP ( 'NONE', ( #827, #244, #150, #453 ) ) ;
#99 = DIRECTION ( 'NONE',  ( -1.000000000000000000, -0.000000000000000000, -0.000000000000000000 ) ) ;
#100 = PLANE ( 'NONE',  #835 ) ;
#101 = CARTESIAN_POINT ( 'NONE',  ( 2.009999999999999787, -0.4978511354034169112, -0.3699999999999999956 ) ) ;
#102 = ORIENTED_EDGE ( 'NONE', *, *, #950, .F. ) ;
#103 = LINE ( 'NONE', #274, #594 ) ;
#104 = VERTEX_POINT ( 'NONE', #795 ) ;
#105 = CARTESIAN_POINT ( 'NONE',  ( 2.009999999999999787, -0.3700000000000017164, 0.4978511354034988456 ) ) ;
#106 = CLOSED_SHELL ( 'NONE', ( #600, #690, #20, #796, #144, #718, #3, #363, #441, #833, #993, #346, #1088, #177, #222, #802, #1147, #96, #627, #934, #630, #761, #526, #235, #1181, #272, #417, #1000, #590, #811, #1043, #289, #378, #183, #638, #901, #110, #532, #939, #741, #464 ) ) ;
#107 = DIRECTION ( 'NONE',  ( 0.000000000000000000, 0.000000000000000000, 1.000000000000000000 ) ) ;
#108 = ORIENTED_EDGE ( 'NONE', *, *, #457, .F. ) ;
#109 = CARTESIAN_POINT ( 'NONE',  ( 2.009999999999999787, 0.3699999999999982747, 0.4978511354035014547 ) ) ;
#110 = ADVANCED_FACE ( 'NONE', ( #519 ), #141, .F. ) ;
#111 = CARTESIAN_POINT ( 'NONE',  ( 0.000000000000000000, 0.000000000000000000, 0.000000000000000000 ) ) ;
#112 = DIRECTION ( 'NONE',  ( -0.7071067811865462405, 0.000000000000000000, 0.7071067811865489050 ) ) ;
#113 = EDGE_LOOP ( 'NONE', ( #305, #670, #831, #108 ) ) ;
#114 = ORIENTED_EDGE ( 'NONE', *, *, #706, .T. ) ;
#115 = EDGE_CURVE ( 'NONE', #435, #685, #373, .T. ) ;
#116 = DIRECTION ( 'NONE',  ( 0.8949343913984499910, -0.4461977533474210666, 0.000000000000000000 ) ) ;
#117 = VERTEX_POINT ( 'NONE', #168 ) ;
#118 = ORIENTED_EDGE ( 'NONE', *, *, #1126, .T. ) ;
#119 = DIRECTION ( 'NONE',  ( 0.000000000000000000, -3.491481338843133355E-15, 1.000000000000000000 ) ) ;
#120 = EDGE_CURVE ( 'NONE', #687, #743, #863, .T. ) ;
#121 = VECTOR ( 'NONE', #1118, 1000.000000000000000 ) ;
#122 = EDGE_LOOP ( 'NONE', ( #326, #1113, #405, #1007 ) ) ;
#123 = CARTESIAN_POINT ( 'NONE',  ( 1.824605185108489680, -0.09076882178347712993, -0.5902855648788503107 ) ) ;
#124 = CIRCLE ( 'NONE', #944, 2.750000000000000000 ) ;
#125 = ORIENTED_EDGE ( 'NONE', *, *, #967, .F. ) ;
#126 = DIRECTION ( 'NONE',  ( 0.000000000000000000, -1.000000000000000000, -3.491481338843133355E-15 ) ) ;
#127 = B_SPLINE_CURVE_WITH_KNOTS ( 'NONE', 3,
 ( #818, #377, #460, #210 ),
 .UNSPECIFIED., .F., .F.,
 ( 4, 4 ),
 ( 0.001380840031772739536, 0.003398373201762473587 ),
 .UNSPECIFIED. ) ;
#128 = EDGE_CURVE ( 'NONE', #682, #951, #1167, .T. ) ;
#129 = ORIENTED_EDGE ( 'NONE', *, *, #158, .T. ) ;
#130 = EDGE_LOOP ( 'NONE', ( #665, #1028, #44, #560 ) ) ;
#131 = CARTESIAN_POINT ( 'NONE',  ( 0.4000000000000054068, 3.367778697655221012E-16, -2.750000000000000000 ) ) ;
#132 = B_SPLINE_CURVE_WITH_KNOTS ( 'NONE', 3,
 ( #165, #897, #611, #254 ),
 .UNSPECIFIED., .F., .F.,
 ( 4, 4 ),
 ( 0.001380840031689471942, 0.003398373201679219871 ),
 .UNSPECIFIED. ) ;
#133 = CARTESIAN_POINT ( 'NONE',  ( 1.981370849898477671, 0.000000000000000000, 1.500000000000000000 ) ) ;
#134 = ORIENTED_EDGE ( 'NONE', *, *, #25, .F. ) ;
#135 = DIRECTION ( 'NONE',  ( 0.000000000000000000, 0.000000000000000000, 1.000000000000000000 ) ) ;
#136 = ORIENTED_EDGE ( 'NONE', *, *, #73, .T. ) ;
#137 = CARTESIAN_POINT ( 'NONE',  ( 2.009999999999999787, -0.3699999999999983857, -0.4978511354034180769 ) ) ;
#138 = DIRECTION ( 'NONE',  ( 0.000000000000000000, 1.000000000000000000, 0.000000000000000000 ) ) ;
#139 = ORIENTED_EDGE ( 'NONE', *, *, #1080, .T. ) ;
#140 = CONICAL_SURFACE ( 'NONE', #414, 0.5559999999999994946, 0.06981317007976590994 ) ;
#141 = CONICAL_SURFACE ( 'NONE', #538, 0.5559999999999994946, 0.06981317007976590994 ) ;
#142 = ORIENTED_EDGE ( 'NONE', *, *, #747, .F. ) ;
#143 = DIRECTION ( 'NONE',  ( 0.000000000000000000, -1.465138070926357223E-16, -1.000000000000000000 ) ) ;
#144 = ADVANCED_FACE ( 'NONE', ( #725 ), #556, .T. ) ;
#145 = AXIS2_PLACEMENT_3D ( 'NONE', #836, #14, #379 ) ;
#146 = AXIS2_PLACEMENT_3D ( 'NONE', #683, #1121, #42 ) ;
#147 = DIRECTION ( 'NONE',  ( 0.000000000000000000, 0.000000000000000000, 1.000000000000000000 ) ) ;
#148 = CARTESIAN_POINT ( 'NONE',  ( 1.415685424949238769, 0.000000000000000000, 0.000000000000000000 ) ) ;
#149 = APPLICATION_PROTOCOL_DEFINITION ( 'draft international standard', 'automotive_design', 1998, #778 ) ;
#150 = ORIENTED_EDGE ( 'NONE', *, *, #115, .T. ) ;
#151 = FACE_OUTER_BOUND ( 'NONE', #512, .T. ) ;
#152 = EDGE_CURVE ( 'NONE', #415, #1159, #8, .T. ) ;
#153 = CARTESIAN_POINT ( 'NONE',  ( 0.000000000000000000, -0.3699999999999979972, -0.5901575479162642912 ) ) ;
#154 = FACE_OUTER_BOUND ( 'NONE', #1182, .T. ) ;
#155 = ORIENTED_EDGE ( 'NONE', *, *, #423, .F. ) ;
#156 = CARTESIAN_POINT ( 'NONE',  ( 8.000000000000000000, 1.500000000000000000, 0.000000000000000000 ) ) ;
#157 = SURFACE_STYLE_USAGE ( .BOTH. , #347 ) ;
#158 = EDGE_CURVE ( 'NONE', #35, #687, #525, .T. ) ;
#159 = DIRECTION ( 'NONE',  ( 0.000000000000000000, 0.000000000000000000, 1.000000000000000000 ) ) ;
#160 = ORIENTED_EDGE ( 'NONE', *, *, #307, .T. ) ;
#161 = LINE ( 'NONE', #426, #959 ) ;
#162 = PRODUCT_DEFINITION_FORMATION_WITH_SPECIFIED_SOURCE ( 'Symmetric', '', #985, .NOT_KNOWN. ) ;
#163 = AXIS2_PLACEMENT_3D ( 'NONE', #898, #730, #463 ) ;
#164 = AXIS2_PLACEMENT_3D ( 'NONE', #1, #367, #1089 ) ;
#165 = CARTESIAN_POINT ( 'NONE',  ( 2.009999999999999787, -0.4150132528004371046, -0.3699999999999999956 ) ) ;
#166 = AXIS2_PLACEMENT_3D ( 'NONE', #640, #383, #564 ) ;
#167 = EDGE_CURVE ( 'NONE', #825, #213, #173, .T. ) ;
#168 = CARTESIAN_POINT ( 'NONE',  ( 2.009999999999999787, -0.4978511354034169112, 0.2475484739955553792 ) ) ;
#169 = PRODUCT_CONTEXT ( 'NONE', #778, 'mechanical' ) ;
#170 = ORIENTED_EDGE ( 'NONE', *, *, #950, .T. ) ;
#171 = FACE_OUTER_BOUND ( 'NONE', #403, .T. ) ;
#172 = FACE_OUTER_BOUND ( 'NONE', #586, .T. ) ;
#173 = LINE ( 'NONE', #359, #1072 ) ;
#174 = EDGE_CURVE ( 'NONE', #738, #825, #903, .T. ) ;
#175 = ORIENTED_EDGE ( 'NONE', *, *, #721, .T. ) ;
#176 = FACE_OUTER_BOUND ( 'NONE', #497, .T. ) ;
#177 = ADVANCED_FACE ( 'NONE', ( #894 ), #984, .F. ) ;
#178 = VERTEX_POINT ( 'NONE', #77 ) ;
#179 = CARTESIAN_POINT ( 'NONE',  ( 2.009999999999999787, 0.3699999999999982747, 0.4978511354035013436 ) ) ;
#180 = DIRECTION ( 'NONE',  ( -1.000000000000000000, -0.000000000000000000, -0.000000000000000000 ) ) ;
#181 = ORIENTED_EDGE ( 'NONE', *, *, #174, .T. ) ;
#182 = CARTESIAN_POINT ( 'NONE',  ( 2.009999999999999787, 0.4978511354035000669, -0.3699999999999999956 ) ) ;
#183 = ADVANCED_FACE ( 'NONE', ( #438 ), #501, .F. ) ;
#184 = CARTESIAN_POINT ( 'NONE',  ( 2.009999999999999787, 0.4978511354035000669, -0.2475484739953880131 ) ) ;
#185 = AXIS2_PLACEMENT_3D ( 'NONE', #182, #912, #839 ) ;
#186 = AXIS2_PLACEMENT_3D ( 'NONE', #368, #92, #720 ) ;
#187 = MECHANICAL_DESIGN_GEOMETRIC_PRESENTATION_REPRESENTATION (  '', ( #1056 ), #905 ) ;
#188 = CARTESIAN_POINT ( 'NONE',  ( 1.824605185108489014, -0.5902855648788501997, -0.09076882178347880914 ) ) ;
#189 = ORIENTED_EDGE ( 'NONE', *, *, #786, .F. ) ;
#190 = FACE_OUTER_BOUND ( 'NONE', #930, .T. ) ;
#191 = DIRECTION ( 'NONE',  ( 0.000000000000000000, -3.382593149645084608E-15, 1.000000000000000000 ) ) ;
#192 = LINE ( 'NONE', #712, #1034 ) ;
#193 = ORIENTED_EDGE ( 'NONE', *, *, #253, .F. ) ;
#194 = PLANE ( 'NONE',  #185 ) ;
#195 = CARTESIAN_POINT ( 'NONE',  ( -6.349999999999990763, 0.000000000000000000, 0.000000000000000000 ) ) ;
#196 = CARTESIAN_POINT ( 'NONE',  ( 2.009999999999999787, -0.3700000000000017164, 0.4978511354034987346 ) ) ;
#197 = EDGE_CURVE ( 'NONE', #738, #104, #192, .T. ) ;
#198 = ORIENTED_EDGE ( 'NONE', *, *, #674, .T. ) ;
#199 = CARTESIAN_POINT ( 'NONE',  ( 2.009999999999999787, 0.000000000000000000, 0.000000000000000000 ) ) ;
#200 = VERTEX_POINT ( 'NONE', #1076 ) ;
#201 = CARTESIAN_POINT ( 'NONE',  ( 0.000000000000000000, -0.3700000000000050471, 1.499999999999998668 ) ) ;
#202 = AXIS2_PLACEMENT_3D ( 'NONE', #1164, #350, #252 ) ;
#203 = AXIS2_PLACEMENT_3D ( 'NONE', #404, #1123, #566 ) ;
#204 = VECTOR ( 'NONE', #1176, 1000.000000000000000 ) ;
#205 = CARTESIAN_POINT ( 'NONE',  ( 0.000000000000000000, -1.500000000000000000, -0.3699999999999998845 ) ) ;
#206 = VECTOR ( 'NONE', #729, 1000.000000000000000 ) ;
#207 = EDGE_CURVE ( 'NONE', #209, #48, #1173, .T. ) ;
#208 = CIRCLE ( 'NONE', #241, 0.5559999999999994946 ) ;
#209 = VERTEX_POINT ( 'NONE', #990 ) ;
#210 = CARTESIAN_POINT ( 'NONE',  ( 0.000000000000000000, -0.3700000000000019940, 0.5901575479162617377 ) ) ;
#211 = ORIENTED_EDGE ( 'NONE', *, *, #385, .F. ) ;
#212 = CARTESIAN_POINT ( 'NONE',  ( 0.000000000000000000, -0.3700000000000050471, 1.499999999999998668 ) ) ;
#213 = VERTEX_POINT ( 'NONE', #101 ) ;
#214 = CARTESIAN_POINT ( 'NONE',  ( 1.415685424949238769, 0.000000000000000000, 1.734314575050762697 ) ) ;
#215 = EDGE_LOOP ( 'NONE', ( #970, #548, #331, #800 ) ) ;
#216 = DIRECTION ( 'NONE',  ( -1.000000000000000000, -0.000000000000000000, -0.000000000000000000 ) ) ;
#217 = EDGE_CURVE ( 'NONE', #117, #906, #1119, .T. ) ;
#218 = ORIENTED_EDGE ( 'NONE', *, *, #820, .T. ) ;
#219 = PLANE ( 'NONE',  #46 ) ;
#220 = ORIENTED_EDGE ( 'NONE', *, *, #1096, .T. ) ;
#221 = CARTESIAN_POINT ( 'NONE',  ( 0.000000000000000000, -0.3699999999999979972, -0.5901575479162642912 ) ) ;
#222 = ADVANCED_FACE ( 'NONE', ( #529 ), #910, .F. ) ;
#223 = ORIENTED_EDGE ( 'NONE', *, *, #508, .T. ) ;
#224 = FACE_OUTER_BOUND ( 'NONE', #964, .T. ) ;
#225 = CIRCLE ( 'NONE', #616, 0.5559999999999994946 ) ;
#226 = ORIENTED_EDGE ( 'NONE', *, *, #197, .F. ) ;
#227 = DIRECTION ( 'NONE',  ( 0.000000000000000000, 0.000000000000000000, 1.000000000000000000 ) ) ;
#228 = DIRECTION ( 'NONE',  ( -1.000000000000000000, -0.000000000000000000, -0.000000000000000000 ) ) ;
#229 = ADVANCED_BREP_SHAPE_REPRESENTATION ( 'countersunk flat head cross recess screw_iso_ISO 7046-1 - M3 x 8 - Z - 8N', ( #459, #614 ), #791 ) ;
#230 = ORIENTED_EDGE ( 'NONE', *, *, #253, .T. ) ;
#231 = CARTESIAN_POINT ( 'NONE',  ( 2.009999999999999787, -0.2475484739955538527, -0.4978511354034176328 ) ) ;
#232 = ORIENTED_EDGE ( 'NONE', *, *, #1037, .T. ) ;
#233 = CARTESIAN_POINT ( 'NONE',  ( 1.874345677606162219, 0.000000000000000000, 0.5654858742913566605 ) ) ;
#234 = DIRECTION ( 'NONE',  ( 0.000000000000000000, 0.000000000000000000, 1.000000000000000000 ) ) ;
#235 = ADVANCED_FACE ( 'NONE', ( #805 ), #281, .T. ) ;
#236 = CARTESIAN_POINT ( 'NONE',  ( 0.000000000000000000, 0.5901575479162630700, -0.3699999999999998845 ) ) ;
#237 = EDGE_LOOP ( 'NONE', ( #838, #1077, #491 ) ) ;
#238 = FACE_OUTER_BOUND ( 'NONE', #578, .T. ) ;
#239 = CARTESIAN_POINT ( 'NONE',  ( 1.415685424949238769, 0.000000000000000000, 0.000000000000000000 ) ) ;
#240 = FACE_OUTER_BOUND ( 'NONE', #250, .T. ) ;
#241 = AXIS2_PLACEMENT_3D ( 'NONE', #587, #49, #777 ) ;
#242 = EDGE_CURVE ( 'NONE', #899, #369, #656, .T. ) ;
#243 = VECTOR ( 'NONE', #138, 1000.000000000000000 ) ;
#244 = ORIENTED_EDGE ( 'NONE', *, *, #706, .F. ) ;
#245 = CARTESIAN_POINT ( 'NONE',  ( 2.009999999999999787, 6.809036203259277383E-17, -0.5559999999999994946 ) ) ;
#246 = AXIS2_PLACEMENT_3D ( 'NONE', #625, #790, #427 ) ;
#247 = AXIS2_PLACEMENT_3D ( 'NONE', #199, #652, #643 ) ;
#248 = DIRECTION ( 'NONE',  ( -0.000000000000000000, 1.000000000000000000, 1.224646799147353207E-16 ) ) ;
#249 = DIRECTION ( 'NONE',  ( -1.000000000000000000, -0.000000000000000000, -0.000000000000000000 ) ) ;
#250 = EDGE_LOOP ( 'NONE', ( #911, #273, #850, #344 ) ) ;
#251 = EDGE_CURVE ( 'NONE', #617, #41, #317, .T. ) ;
#252 = DIRECTION ( 'NONE',  ( 0.000000000000000000, 0.000000000000000000, -1.000000000000000000 ) ) ;
#253 = EDGE_CURVE ( 'NONE', #682, #381, #285, .T. ) ;
#254 = CARTESIAN_POINT ( 'NONE',  ( 0.000000000000000000, -0.5901575479162630700, -0.3699999999999998845 ) ) ;
#255 = CARTESIAN_POINT ( 'NONE',  ( 1.874345677606161553, -0.08750623483958046289, 0.5654858742913566605 ) ) ;
#256 = SURFACE_SIDE_STYLE ('',( #520 ) ) ;
#257 = ORIENTED_EDGE ( 'NONE', *, *, #809, .T. ) ;
#258 = CARTESIAN_POINT ( 'NONE',  ( 2.009999999999999787, 0.3699999999999982747, 0.4978511354035014547 ) ) ;
#259 = CARTESIAN_POINT ( 'NONE',  ( -997.8093446488944664, 0.000000000000000000, 0.000000000000000000 ) ) ;
#260 = EDGE_CURVE ( 'NONE', #369, #687, #816, .T. ) ;
#261 = PLANE ( 'NONE',  #355 ) ;
#262 = EDGE_LOOP ( 'NONE', ( #386, #1044, #170, #1009, #198, #918, #465, #220, #349, #1099, #38 ) ) ;
#263 = DIRECTION ( 'NONE',  ( 0.000000000000000000, 0.000000000000000000, 1.000000000000000000 ) ) ;
#264 = AXIS2_PLACEMENT_3D ( 'NONE', #879, #691, #159 ) ;
#265 = DIRECTION ( 'NONE',  ( -1.000000000000000000, -0.000000000000000000, -0.000000000000000000 ) ) ;
#266 = CIRCLE ( 'NONE', #619, 1.500000000000000000 ) ;
#267 = DIRECTION ( 'NONE',  ( -1.000000000000000000, -0.000000000000000000, -0.000000000000000000 ) ) ;
#268 = ORIENTED_EDGE ( 'NONE', *, *, #251, .F. ) ;
#269 = CARTESIAN_POINT ( 'NONE',  ( -6.349999999999990763, 0.000000000000000000, 0.000000000000000000 ) ) ;
#270 = DIRECTION ( 'NONE',  ( 0.000000000000000000, -1.000000000000000000, -3.491481338843133355E-15 ) ) ;
#271 = CARTESIAN_POINT ( 'NONE',  ( 1.824605185108489680, -0.5902855648788500886, 0.09076882178347911445 ) ) ;
#272 = ADVANCED_FACE ( 'NONE', ( #871, #509 ), #493, .T. ) ;
#273 = ORIENTED_EDGE ( 'NONE', *, *, #477, .T. ) ;
#274 = CARTESIAN_POINT ( 'NONE',  ( 0.000000000000000000, -0.3699999999999948885, -1.500000000000001332 ) ) ;
#275 = CARTESIAN_POINT ( 'NONE',  ( 1.824605185108744365, 0.5902855648787990184, 0.09076882178340490992 ) ) ;
#276 = CARTESIAN_POINT ( 'NONE',  ( 2.009999999999999787, 0.4978511354035000669, -0.3699999999999999956 ) ) ;
#277 = VERTEX_POINT ( 'NONE', #418 ) ;
#278 = DIRECTION ( 'NONE',  ( -1.000000000000000000, -0.000000000000000000, -0.000000000000000000 ) ) ;
#279 = CARTESIAN_POINT ( 'NONE',  ( 2.009999999999999787, -0.3699999999999983857, -0.4978511354034182990 ) ) ;
#280 = VECTOR ( 'NONE', #862, 1000.000000000000000 ) ;
#281 = PLANE ( 'NONE',  #830 ) ;
#282 = ORIENTED_EDGE ( 'NONE', *, *, #207, .T. ) ;
#283 = DIRECTION ( 'NONE',  ( 0.000000000000000000, 0.000000000000000000, 1.000000000000000000 ) ) ;
#284 = DIRECTION ( 'NONE',  ( -1.000000000000000000, -0.000000000000000000, -0.000000000000000000 ) ) ;
#285 = LINE ( 'NONE', #645, #410 ) ;
#286 = ORIENTED_EDGE ( 'NONE', *, *, #867, .F. ) ;
#287 = DIRECTION ( 'NONE',  ( 1.000000000000000000, 0.000000000000000000, 0.000000000000000000 ) ) ;
#288 = DIRECTION ( 'NONE',  ( -1.000000000000000000, -0.000000000000000000, -0.000000000000000000 ) ) ;
#289 = ADVANCED_FACE ( 'NONE', ( #764 ), #422, .F. ) ;
#290 = CARTESIAN_POINT ( 'NONE',  ( 2.009999999999999787, 0.4978511354035000669, -0.3699999999999999956 ) ) ;
#291 = ORIENTED_EDGE ( 'NONE', *, *, #650, .F. ) ;
#292 = DIRECTION ( 'NONE',  ( 1.000000000000000000, 5.394040659131864380E-17, 1.883319230232001834E-31 ) ) ;
#293 = EDGE_LOOP ( 'NONE', ( #975, #543 ) ) ;
#294 = CARTESIAN_POINT ( 'NONE',  ( 2.009999999999999787, 0.2475484739953862923, 0.4978511354035008996 ) ) ;
#295 = CIRCLE ( 'NONE', #753, 0.5559999999999994946 ) ;
#296 = CIRCLE ( 'NONE', #678, 0.5559999999999994946 ) ;
#297 = VECTOR ( 'NONE', #588, 1000.000000000000000 ) ;
#298 = VECTOR ( 'NONE', #701, 1000.000000000000000 ) ;
#299 = EDGE_CURVE ( 'NONE', #672, #807, #696, .T. ) ;
#300 = ORIENTED_EDGE ( 'NONE', *, *, #115, .F. ) ;
#301 = CARTESIAN_POINT ( 'NONE',  ( -6.349999999999990763, 1.836970198721029934E-16, -1.500000000000000000 ) ) ;
#302 = ORIENTED_EDGE ( 'NONE', *, *, #754, .T. ) ;
#303 =( BOUNDED_CURVE ( )  B_SPLINE_CURVE ( 3, ( #495, #775, #311, #45 ),
 .UNSPECIFIED., .F., .F. ) 
 B_SPLINE_CURVE_WITH_KNOTS ( ( 4, 4 ),
 ( 5.754796812637280823, 6.283185307179586232 ),
 .UNSPECIFIED. ) 
 CURVE ( )  GEOMETRIC_REPRESENTATION_ITEM ( )  RATIONAL_B_SPLINE_CURVE ( ( 1.000000000000000000, 0.9768688144526211925, 0.9768688144526211925, 1.000000000000000000 ) ) 
 REPRESENTATION_ITEM ( '' )  );
#304 = CARTESIAN_POINT ( 'NONE',  ( 2.009999999999999787, 0.000000000000000000, 0.5559999999999994946 ) ) ;
#305 = ORIENTED_EDGE ( 'NONE', *, *, #152, .T. ) ;
#306 = CARTESIAN_POINT ( 'NONE',  ( 1.340406951505533906, 0.3700000000000016054, -0.4777421266782427289 ) ) ;
#307 = EDGE_CURVE ( 'NONE', #12, #178, #955, .T. ) ;
#308 = ORIENTED_EDGE ( 'NONE', *, *, #583, .T. ) ;
#309 = DIRECTION ( 'NONE',  ( -1.000000000000000000, -0.000000000000000000, -0.000000000000000000 ) ) ;
#310 = ORIENTED_EDGE ( 'NONE', *, *, #867, .T. ) ;
#311 = CARTESIAN_POINT ( 'NONE',  ( 1.874345677606161553, 0.08750623483957646609, 0.5654858742913574376 ) ) ;
#312 = EDGE_LOOP ( 'NONE', ( #461, #129, #1068, #591, #302, #580, #308, #987, #916, #642, #567 ) ) ;
#313 = PRODUCT_RELATED_PRODUCT_CATEGORY ( 'part', '', ( #985 ) ) ;
#314 = LINE ( 'NONE', #958, #358 ) ;
#315 = LINE ( 'NONE', #408, #297 ) ;
#316 = AXIS2_PLACEMENT_3D ( 'NONE', #864, #681, #484 ) ;
#317 = CIRCLE ( 'NONE', #1130, 0.5559999999999994946 ) ;
#318 = VECTOR ( 'NONE', #601, 1000.000000000000000 ) ;
#319 = ORIENTED_EDGE ( 'NONE', *, *, #1005, .F. ) ;
#320 = CONICAL_SURFACE ( 'NONE', #979, 2.750000000000000000, 0.7853981633974501664 ) ;
#321 = ORIENTED_EDGE ( 'NONE', *, *, #888, .T. ) ;
#322 = CARTESIAN_POINT ( 'NONE',  ( 0.000000000000000000, 0.000000000000000000, 0.000000000000000000 ) ) ;
#323 = DIRECTION ( 'NONE',  ( 0.000000000000000000, 0.000000000000000000, 1.000000000000000000 ) ) ;
#324 = EDGE_CURVE ( 'NONE', #48, #209, #904, .T. ) ;
#325 = ORIENTED_EDGE ( 'NONE', *, *, #1049, .T. ) ;
#326 = ORIENTED_EDGE ( 'NONE', *, *, #754, .F. ) ;
#327 = DIRECTION ( 'NONE',  ( 0.000000000000000000, 0.000000000000000000, 1.000000000000000000 ) ) ;
#328 = CARTESIAN_POINT ( 'NONE',  ( 2.009999999999999787, -0.4978511354034170222, 0.3700000000000001066 ) ) ;
#329 = EDGE_CURVE ( 'NONE', #661, #722, #961, .T. ) ;
#330 = CARTESIAN_POINT ( 'NONE',  ( 1.981370849898478115, 0.000000000000000000, 0.000000000000000000 ) ) ;
#331 = ORIENTED_EDGE ( 'NONE', *, *, #847, .T. ) ;
#332 = CARTESIAN_POINT ( 'NONE',  ( 2.009999999999999787, -0.4978511354034169112, -0.2475484739955552682 ) ) ;
#333 = DIRECTION ( 'NONE',  ( 0.000000000000000000, 0.000000000000000000, 1.000000000000000000 ) ) ;
#334 = PRODUCT_DEFINITION ( 'General', '', #162, #1174 ) ;
#335 = DIRECTION ( 'NONE',  ( 0.000000000000000000, 0.000000000000000000, 1.000000000000000000 ) ) ;
#336 = CIRCLE ( 'NONE', #1135, 2.750000000000000000 ) ;
#337 = PRESENTATION_STYLE_ASSIGNMENT (( #511 ) ) ;
#338 = EDGE_CURVE ( 'NONE', #704, #947, #37, .T. ) ;
#339 = ORIENTED_EDGE ( 'NONE', *, *, #1023, .T. ) ;
#340 = CARTESIAN_POINT ( 'NONE',  ( 2.009999999999999787, -0.4150132528004369936, 0.3700000000000001066 ) ) ;
#341 = VECTOR ( 'NONE', #1020, 1000.000000000000227 ) ;
#342 = DIRECTION ( 'NONE',  ( 1.000000000000000000, 0.000000000000000000, -5.394040659131864380E-17 ) ) ;
#343 = CARTESIAN_POINT ( 'NONE',  ( 2.009999999999999787, 0.3699999999999985523, 0.4150132528004383814 ) ) ;
#344 = ORIENTED_EDGE ( 'NONE', *, *, #847, .F. ) ;
#345 = CARTESIAN_POINT ( 'NONE',  ( 1.340406951505533906, 0.4777421266782440057, 0.3699999999999999956 ) ) ;
#346 = ADVANCED_FACE ( 'NONE', ( #402 ), #1042, .F. ) ;
#347 = SURFACE_SIDE_STYLE ('',( #524 ) ) ;
#348 = DIRECTION ( 'NONE',  ( -1.000000000000000000, -0.000000000000000000, -0.000000000000000000 ) ) ;
#349 = ORIENTED_EDGE ( 'NONE', *, *, #612, .T. ) ;
#350 = DIRECTION ( 'NONE',  ( 1.000000000000000000, 0.000000000000000000, 0.000000000000000000 ) ) ;
#351 = FILL_AREA_STYLE ('',( #605 ) ) ;
#352 = DIRECTION ( 'NONE',  ( 1.000000000000000000, 0.000000000000000000, 0.000000000000000000 ) ) ;
#353 = EDGE_LOOP ( 'NONE', ( #321, #429, #485, #536, #4, #1050, #945 ) ) ;
#354 = CARTESIAN_POINT ( 'NONE',  ( 0.000000000000000000, -0.3699999999999948885, -1.500000000000001332 ) ) ;
#355 = AXIS2_PLACEMENT_3D ( 'NONE', #1157, #1143, #969 ) ;
#356 = AXIS2_PLACEMENT_3D ( 'NONE', #1106, #913, #933 ) ;
#357 = CARTESIAN_POINT ( 'NONE',  ( 0.000000000000000000, 0.3699999999999946110, 1.500000000000001332 ) ) ;
#358 = VECTOR ( 'NONE', #143, 1000.000000000000000 ) ;
#359 = CARTESIAN_POINT ( 'NONE',  ( 0.000000000000000000, -1.500000000000000000, -0.3699999999999998845 ) ) ;
#360 = ORIENTED_EDGE ( 'NONE', *, *, #710, .F. ) ;
#361 = DIRECTION ( 'NONE',  ( -1.000000000000000000, -0.000000000000000000, -0.000000000000000000 ) ) ;
#362 = DIRECTION ( 'NONE',  ( -1.000000000000000000, -0.000000000000000000, -0.000000000000000000 ) ) ;
#363 = ADVANCED_FACE ( 'NONE', ( #877 ), #677, .T. ) ;
#364 = DIRECTION ( 'NONE',  ( -0.3090169943749417891, 0.000000000000000000, 0.9510565162951553075 ) ) ;
#365 = ORIENTED_EDGE ( 'NONE', *, *, #488, .F. ) ;
#366 = CARTESIAN_POINT ( 'NONE',  ( 2.009999999999999787, 0.4978511354035000669, -0.2475484739953880131 ) ) ;
#367 = DIRECTION ( 'NONE',  ( 2.731943609379471477E-17, 1.000000000000000000, 3.382593149645084608E-15 ) ) ;
#368 = CARTESIAN_POINT ( 'NONE',  ( 2.009999999999999787, 0.000000000000000000, 0.000000000000000000 ) ) ;
#369 = VERTEX_POINT ( 'NONE', #742 ) ;
#370 = CARTESIAN_POINT ( 'NONE',  ( 2.009999999999999787, 0.000000000000000000, 0.000000000000000000 ) ) ;
#371 = EDGE_CURVE ( 'NONE', #1110, #200, #11, .T. ) ;
#372 = DIRECTION ( 'NONE',  ( 2.731943609379471477E-17, 1.000000000000000000, 3.382593149645084608E-15 ) ) ;
#373 = CIRCLE ( 'NONE', #792, 0.6965528920064407714 ) ;
#374 = AXIS2_PLACEMENT_3D ( 'NONE', #746, #288, #462 ) ;
#375 = DIRECTION ( 'NONE',  ( 0.000000000000000000, 0.000000000000000000, 1.000000000000000000 ) ) ;
#376 = ORIENTED_EDGE ( 'NONE', *, *, #884, .T. ) ;
#377 = CARTESIAN_POINT ( 'NONE',  ( 1.340406951505533906, -0.3700000000000016609, 0.4777421266782427289 ) ) ;
#378 = ADVANCED_FACE ( 'NONE', ( #559 ), #431, .F. ) ;
#379 = DIRECTION ( 'NONE',  ( 0.000000000000000000, 0.000000000000000000, 1.000000000000000000 ) ) ;
#380 = DIRECTION ( 'NONE',  ( -1.000000000000000000, -0.000000000000000000, -0.000000000000000000 ) ) ;
#381 = VERTEX_POINT ( 'NONE', #1102 ) ;
#382 = DIRECTION ( 'NONE',  ( -1.000000000000000000, -0.000000000000000000, -0.000000000000000000 ) ) ;
#383 = DIRECTION ( 'NONE',  ( -1.000000000000000000, -0.000000000000000000, -0.000000000000000000 ) ) ;
#384 = EDGE_CURVE ( 'NONE', #277, #704, #315, .T. ) ;
#385 = EDGE_CURVE ( 'NONE', #947, #277, #90, .T. ) ;
#386 = ORIENTED_EDGE ( 'NONE', *, *, #158, .F. ) ;
#387 = VERTEX_POINT ( 'NONE', #133 ) ;
#388 = DIRECTION ( 'NONE',  ( 0.000000000000000000, 0.000000000000000000, 1.000000000000000000 ) ) ;
#389 = VECTOR ( 'NONE', #1160, 1000.000000000000000 ) ;
#390 = TOROIDAL_SURFACE ( 'NONE', #713, 2.299999999999999822, 0.8000000000000000444 ) ;
#391 = EDGE_CURVE ( 'NONE', #584, #899, #1146, .T. ) ;
#392 = COLOUR_RGB ( '',1.000000000000000000, 0.9490196078431372140, 0.9098039215686274384 ) ;
#393 = AXIS2_PLACEMENT_3D ( 'NONE', #629, #361, #447 ) ;
#394 = VERTEX_POINT ( 'NONE', #551 ) ;
#395 = DIRECTION ( 'NONE',  ( 1.000000000000000000, 0.000000000000000000, 0.000000000000000000 ) ) ;
#396 = VERTEX_POINT ( 'NONE', #1011 ) ;
#397 = CARTESIAN_POINT ( 'NONE',  ( 2.009999999999999787, 0.000000000000000000, 0.000000000000000000 ) ) ;
#398 = ORIENTED_EDGE ( 'NONE', *, *, #73, .F. ) ;
#399 = DIRECTION ( 'NONE',  ( -1.000000000000000000, -0.000000000000000000, -0.000000000000000000 ) ) ;
#400 = ORIENTED_EDGE ( 'NONE', *, *, #546, .F. ) ;
#401 = CARTESIAN_POINT ( 'NONE',  ( 2.009999999999999787, 0.000000000000000000, 0.000000000000000000 ) ) ;
#402 = FACE_OUTER_BOUND ( 'NONE', #563, .T. ) ;
#403 = EDGE_LOOP ( 'NONE', ( #1122, #134, #957 ) ) ;
#404 = CARTESIAN_POINT ( 'NONE',  ( 2.009999999999999787, 0.4978511354035000669, -0.3699999999999999956 ) ) ;
#405 = ORIENTED_EDGE ( 'NONE', *, *, #621, .T. ) ;
#406 = CARTESIAN_POINT ( 'NONE',  ( 1.340406951505533906, 0.3699999999999982747, 0.4777421266782453380 ) ) ;
#407 = EDGE_CURVE ( 'NONE', #1110, #1045, #469, .T. ) ;
#408 = CARTESIAN_POINT ( 'NONE',  ( 2.009999999999999787, -0.4978511354034169112, -0.3699999999999999956 ) ) ;
#409 = AXIS2_PLACEMENT_3D ( 'NONE', #370, #766, #1111 ) ;
#410 = VECTOR ( 'NONE', #1006, 1000.000000000000000 ) ;
#411 = AXIS2_PLACEMENT_3D ( 'NONE', #259, #362, #1067 ) ;
#412 = PLANE ( 'NONE',  #1014 ) ;
#413 = DIRECTION ( 'NONE',  ( -0.4461977533474210666, 3.124646727056624473E-15, -0.8949343913984499910 ) ) ;
#414 = AXIS2_PLACEMENT_3D ( 'NONE', #13, #278, #1100 ) ;
#415 = VERTEX_POINT ( 'NONE', #61 ) ;
#416 = CARTESIAN_POINT ( 'NONE',  ( 0.6702656980951573473, -0.3699999999999982192, -0.5348382249092129559 ) ) ;
#417 = ADVANCED_FACE ( 'NONE', ( #902 ), #1170, .T. ) ;
#418 = CARTESIAN_POINT ( 'NONE',  ( 2.009999999999999787, 0.4150132528004371046, -0.3699999999999999956 ) ) ;
#419 = CARTESIAN_POINT ( 'NONE',  ( 0.000000000000000000, 0.3699999999999978306, 0.5901575479162642912 ) ) ;
#420 = VERTEX_POINT ( 'NONE', #1063 ) ;
#421 = CYLINDRICAL_SURFACE ( 'NONE', #1175, 1.500000000000000000 ) ;
#422 = PLANE ( 'NONE',  #448 ) ;
#423 = EDGE_CURVE ( 'NONE', #369, #584, #1161, .T. ) ;
#424 = CARTESIAN_POINT ( 'NONE',  ( 2.190655351105491810, -5.271245762022948583E-16, 0.000000000000000000 ) ) ;
#425 = EDGE_LOOP ( 'NONE', ( #708, #310, #609, #517 ) ) ;
#426 = CARTESIAN_POINT ( 'NONE',  ( 0.000000000000000000, 1.500000000000000000, -0.3699999999999998845 ) ) ;
#427 = DIRECTION ( 'NONE',  ( 0.000000000000000000, 0.000000000000000000, 1.000000000000000000 ) ) ;
#428 = EDGE_CURVE ( 'NONE', #35, #807, #1155, .T. ) ;
#429 = ORIENTED_EDGE ( 'NONE', *, *, #1165, .T. ) ;
#430 = DIRECTION ( 'NONE',  ( 0.000000000000000000, 0.000000000000000000, -1.000000000000000000 ) ) ;
#431 = CONICAL_SURFACE ( 'NONE', #1133, 0.5559999999999994946, 0.06981317007976590994 ) ;
#432 = PLANE ( 'NONE',  #1156 ) ;
#433 = CARTESIAN_POINT ( 'NONE',  ( 2.009999999999999787, 0.4978511354035000669, 0.3699999999999999956 ) ) ;
#434 =( NAMED_UNIT ( * ) SI_UNIT ( $, .STERADIAN. ) SOLID_ANGLE_UNIT ( ) );
#435 = VERTEX_POINT ( 'NONE', #153 ) ;
#436 = CARTESIAN_POINT ( 'NONE',  ( 2.009999999999999787, 0.3699999999999982747, 0.4978511354035013436 ) ) ;
#437 = CARTESIAN_POINT ( 'NONE',  ( 1.981370849898478115, 2.816687638038912056E-16, -2.299999999999999822 ) ) ;
#438 = FACE_OUTER_BOUND ( 'NONE', #122, .T. ) ;
#439 = VERTEX_POINT ( 'NONE', #81 ) ;
#440 = DIRECTION ( 'NONE',  ( 0.8949343913984351140, -1.533754566774062674E-15, 0.4461977533474507651 ) ) ;
#441 = ADVANCED_FACE ( 'NONE', ( #172 ), #432, .T. ) ;
#442 =( NAMED_UNIT ( * ) SI_UNIT ( $, .STERADIAN. ) SOLID_ANGLE_UNIT ( ) );
#443 = B_SPLINE_CURVE_WITH_KNOTS ( 'NONE', 3,
 ( #787, #53, #707, #503 ),
 .UNSPECIFIED., .F., .F.,
 ( 4, 4 ),
 ( 0.001013853424283302392, 0.003031486302290192780 ),
 .UNSPECIFIED. ) ;
#444 = DIRECTION ( 'NONE',  ( 1.000000000000000000, 5.394040659131864380E-17, 1.883319230232001834E-31 ) ) ;
#445 = CIRCLE ( 'NONE', #554, 0.5559999999999994946 ) ;
#446 = ORIENTED_EDGE ( 'NONE', *, *, #57, .T. ) ;
#447 = DIRECTION ( 'NONE',  ( 0.000000000000000000, 0.000000000000000000, 1.000000000000000000 ) ) ;
#448 = AXIS2_PLACEMENT_3D ( 'NONE', #785, #499, #857 ) ;
#449 = VECTOR ( 'NONE', #968, 1000.000000000000114 ) ;
#450 = EDGE_CURVE ( 'NONE', #18, #685, #132, .T. ) ;
#451 = AXIS2_PLACEMENT_3D ( 'NONE', #856, #1025, #227 ) ;
#452 = DIRECTION ( 'NONE',  ( 0.000000000000000000, 0.000000000000000000, 1.000000000000000000 ) ) ;
#453 = ORIENTED_EDGE ( 'NONE', *, *, #450, .F. ) ;
#454 = CARTESIAN_POINT ( 'NONE',  ( 2.009999999999999787, -0.3699999999999983857, -0.4978511354034180769 ) ) ;
#455 = FACE_OUTER_BOUND ( 'NONE', #1151, .T. ) ;
#456 = DIRECTION ( 'NONE',  ( 0.000000000000000000, 0.000000000000000000, -1.000000000000000000 ) ) ;
#457 = EDGE_CURVE ( 'NONE', #415, #853, #803, .T. ) ;
#458 = ORIENTED_EDGE ( 'NONE', *, *, #1172, .F. ) ;
#459 = MANIFOLD_SOLID_BREP ( 'RecessCore', #106 ) ;
#460 = CARTESIAN_POINT ( 'NONE',  ( 0.6702656980951570143, -0.3700000000000018274, 0.5348382249092104024 ) ) ;
#461 = ORIENTED_EDGE ( 'NONE', *, *, #428, .F. ) ;
#462 = DIRECTION ( 'NONE',  ( 0.000000000000000000, 0.000000000000000000, 1.000000000000000000 ) ) ;
#463 = DIRECTION ( 'NONE',  ( 0.000000000000000000, 0.000000000000000000, -1.000000000000000000 ) ) ;
#464 = ADVANCED_FACE ( 'NONE', ( #69 ), #639, .F. ) ;
#465 = ORIENTED_EDGE ( 'NONE', *, *, #32, .T. ) ;
#466 = DIRECTION ( 'NONE',  ( 0.8949343913984351140, -1.509618004301769775E-15, 0.4461977533474507651 ) ) ;
#467 = FACE_OUTER_BOUND ( 'NONE', #98, .T. ) ;
#468 = VECTOR ( 'NONE', #976, 1000.000000000000000 ) ;
#469 = LINE ( 'NONE', #929, #1093 ) ;
#470 = ORIENTED_EDGE ( 'NONE', *, *, #576, .F. ) ;
#471 = FACE_OUTER_BOUND ( 'NONE', #1065, .T. ) ;
#472 = EDGE_LOOP ( 'NONE', ( #1131, #745, #193, #1060 ) ) ;
#473 = CARTESIAN_POINT ( 'NONE',  ( 0.000000000000000000, 0.3700000000000051581, -1.499999999999998668 ) ) ;
#474 = ORIENTED_EDGE ( 'NONE', *, *, #338, .F. ) ;
#475 = ORIENTED_EDGE ( 'NONE', *, *, #650, .T. ) ;
#476 = PLANE ( 'NONE',  #164 ) ;
#477 = EDGE_CURVE ( 'NONE', #200, #21, #772, .T. ) ;
#478 = ORIENTED_EDGE ( 'NONE', *, *, #167, .F. ) ;
#479 = DIRECTION ( 'NONE',  ( -1.000000000000000000, -0.000000000000000000, -0.000000000000000000 ) ) ;
#480 = VERTEX_POINT ( 'NONE', #804 ) ;
#481 = CARTESIAN_POINT ( 'NONE',  ( 2.009999999999999787, 0.2475484739955572111, -0.4978511354034159120 ) ) ;
#482 = AXIS2_PLACEMENT_3D ( 'NONE', #1129, #479, #756 ) ;
#483 = ORIENTED_EDGE ( 'NONE', *, *, #888, .F. ) ;
#484 = DIRECTION ( 'NONE',  ( 0.000000000000000000, 0.000000000000000000, 1.000000000000000000 ) ) ;
#485 = ORIENTED_EDGE ( 'NONE', *, *, #40, .T. ) ;
#486 = DIRECTION ( 'NONE',  ( -0.8949343913984351140, 1.557891129246355573E-15, -0.4461977533474507651 ) ) ;
#487 = CARTESIAN_POINT ( 'NONE',  ( 2.009999999999999787, 0.000000000000000000, 0.000000000000000000 ) ) ;
#488 = EDGE_CURVE ( 'NONE', #937, #672, #577, .T. ) ;
#489 = VERTEX_POINT ( 'NONE', #989 ) ;
#490 = CARTESIAN_POINT ( 'NONE',  ( 0.4000000000000054068, 3.367778697655221012E-16, -2.750000000000000000 ) ) ;
#491 = ORIENTED_EDGE ( 'NONE', *, *, #508, .F. ) ;
#492 = CARTESIAN_POINT ( 'NONE',  ( 1.340406951505533906, -0.3699999999999984412, -0.4777421266782452269 ) ) ;
#493 = PLANE ( 'NONE',  #47 ) ;
#494 = ORIENTED_EDGE ( 'NONE', *, *, #621, .F. ) ;
#495 = CARTESIAN_POINT ( 'NONE',  ( 2.009999999999999787, 0.2475484739953862923, 0.4978511354035008996 ) ) ;
#496 = EDGE_CURVE ( 'NONE', #489, #865, #810, .T. ) ;
#497 = EDGE_LOOP ( 'NONE', ( #572, #935, #570, #1128 ) ) ;
#498 = CARTESIAN_POINT ( 'NONE',  ( 0.000000000000000000, -1.500000000000000000, 0.3700000000000001621 ) ) ;
#499 = DIRECTION ( 'NONE',  ( 1.000000000000000000, 0.000000000000000000, 0.000000000000000000 ) ) ;
#500 = VECTOR ( 'NONE', #126, 1000.000000000000000 ) ;
#501 = CONICAL_SURFACE ( 'NONE', #186, 0.5559999999999994946, 0.06981317007976590994 ) ;
#502 = AXIS2_PLACEMENT_3D ( 'NONE', #239, #1127, #234 ) ;
#503 = CARTESIAN_POINT ( 'NONE',  ( 2.009999999999999787, 0.4150132528004371046, -0.3699999999999999956 ) ) ;
#504 = DIRECTION ( 'NONE',  ( 1.000000000000000000, 0.000000000000000000, 0.000000000000000000 ) ) ;
#505 = AXIS2_PLACEMENT_3D ( 'NONE', #688, #1046, #1041 ) ;
#506 = EDGE_LOOP ( 'NONE', ( #59, #282, #232, #339 ) ) ;
#507 = FACE_OUTER_BOUND ( 'NONE', #33, .T. ) ;
#508 = EDGE_CURVE ( 'NONE', #853, #104, #1179, .T. ) ;
#509 = FACE_BOUND ( 'NONE', #727, .T. ) ;
#510 = ORIENTED_EDGE ( 'NONE', *, *, #1134, .T. ) ;
#511 = SURFACE_STYLE_USAGE ( .BOTH. , #256 ) ;
#512 = EDGE_LOOP ( 'NONE', ( #759, #446, #552, #651 ) ) ;
#513 = LINE ( 'NONE', #705, #389 ) ;
#514 =( LENGTH_UNIT ( ) NAMED_UNIT ( * ) SI_UNIT ( .MILLI., .METRE. ) );
#515 = EDGE_CURVE ( 'NONE', #603, #584, #909, .T. ) ;
#516 = DIRECTION ( 'NONE',  ( -1.000000000000000000, -0.000000000000000000, -0.000000000000000000 ) ) ;
#517 = ORIENTED_EDGE ( 'NONE', *, *, #1126, .F. ) ;
#518 = DIRECTION ( 'NONE',  ( 0.000000000000000000, 0.000000000000000000, -1.000000000000000000 ) ) ;
#519 = FACE_OUTER_BOUND ( 'NONE', #1177, .T. ) ;
#520 = SURFACE_STYLE_FILL_AREA ( #1149 ) ;
#521 = ORIENTED_EDGE ( 'NONE', *, *, #1037, .F. ) ;
#522 = DIRECTION ( 'NONE',  ( 1.000000000000000000, 0.000000000000000000, 0.000000000000000000 ) ) ;
#523 = VECTOR ( 'NONE', #270, 1000.000000000000000 ) ;
#524 = SURFACE_STYLE_FILL_AREA ( #351 ) ;
#525 = LINE ( 'NONE', #1091, #734 ) ;
#526 = ADVANCED_FACE ( 'NONE', ( #24 ), #928, .T. ) ;
#527 = EDGE_LOOP ( 'NONE', ( #1038, #510, #376, #891, #1021, #1094 ) ) ;
#528 = LINE ( 'NONE', #599, #26 ) ;
#529 = FACE_OUTER_BOUND ( 'NONE', #680, .T. ) ;
#530 = ORIENTED_EDGE ( 'NONE', *, *, #1107, .F. ) ;
#531 = CARTESIAN_POINT ( 'NONE',  ( 2.009999999999999787, 0.000000000000000000, 0.000000000000000000 ) ) ;
#532 = ADVANCED_FACE ( 'NONE', ( #555 ), #697, .F. ) ;
#533 = CARTESIAN_POINT ( 'NONE',  ( 2.009999999999999787, 0.4978511354035001779, -0.3699999999999999956 ) ) ;
#534 = CARTESIAN_POINT ( 'NONE',  ( 2.009999999999999787, 0.000000000000000000, 0.5559999999999994946 ) ) ;
#535 = CIRCLE ( 'NONE', #393, 0.5559999999999994946 ) ;
#536 = ORIENTED_EDGE ( 'NONE', *, *, #423, .T. ) ;
#537 = DIRECTION ( 'NONE',  ( -1.000000000000000000, -0.000000000000000000, -0.000000000000000000 ) ) ;
#538 = AXIS2_PLACEMENT_3D ( 'NONE', #703, #890, #71 ) ;
#539 = AXIS2_PLACEMENT_3D ( 'NONE', #328, #1047, #582 ) ;
#540 = DIRECTION ( 'NONE',  ( 0.000000000000000000, 0.000000000000000000, 1.000000000000000000 ) ) ;
#541 = EDGE_CURVE ( 'NONE', #1026, #840, #124, .T. ) ;
#542 = CARTESIAN_POINT ( 'NONE',  ( 2.009999999999999787, -0.4978511354034169112, -0.2475484739955552682 ) ) ;
#543 = ORIENTED_EDGE ( 'NONE', *, *, #541, .T. ) ;
#544 = LINE ( 'NONE', #549, #749 ) ;
#545 = DIRECTION ( 'NONE',  ( 0.000000000000000000, -1.000000000000000000, 1.264902534566421675E-16 ) ) ;
#546 = EDGE_CURVE ( 'NONE', #18, #906, #70, .T. ) ;
#547 = DIRECTION ( 'NONE',  ( 0.8949343913984351140, 0.4461977533474507651, -2.413656247229294214E-17 ) ) ;
#548 = ORIENTED_EDGE ( 'NONE', *, *, #371, .F. ) ;
#549 = CARTESIAN_POINT ( 'NONE',  ( 2.009999999999999787, -0.4978511354034168002, 0.3700000000000001066 ) ) ;
#550 = DIRECTION ( 'NONE',  ( 0.000000000000000000, 0.000000000000000000, 1.000000000000000000 ) ) ;
#551 = CARTESIAN_POINT ( 'NONE',  ( 2.009999999999999787, -0.2475484739955538527, -0.4978511354034176328 ) ) ;
#552 = ORIENTED_EDGE ( 'NONE', *, *, #384, .T. ) ;
#553 = LINE ( 'NONE', #822, #927 ) ;
#554 = AXIS2_PLACEMENT_3D ( 'NONE', #401, #309, #388 ) ;
#555 = FACE_OUTER_BOUND ( 'NONE', #845, .T. ) ;
#556 = CONICAL_SURFACE ( 'NONE', #10, 2.750000000000000000, 0.7853981633974501664 ) ;
#557 = AXIS2_PLACEMENT_3D ( 'NONE', #437, #248, #977 ) ;
#558 = AXIS2_PLACEMENT_3D ( 'NONE', #1095, #99, #744 ) ;
#559 = FACE_OUTER_BOUND ( 'NONE', #113, .T. ) ;
#560 = ORIENTED_EDGE ( 'NONE', *, *, #515, .T. ) ;
#561 =( LENGTH_UNIT ( ) NAMED_UNIT ( * ) SI_UNIT ( .MILLI., .METRE. ) );
#562 = EDGE_CURVE ( 'NONE', #947, #439, #575, .T. ) ;
#563 = EDGE_LOOP ( 'NONE', ( #400, #398, #142 ) ) ;
#564 = DIRECTION ( 'NONE',  ( 0.000000000000000000, 0.000000000000000000, 1.000000000000000000 ) ) ;
#565 = EDGE_LOOP ( 'NONE', ( #628, #78, #817 ) ) ;
#566 = DIRECTION ( 'NONE',  ( 0.000000000000000000, 0.000000000000000000, -1.000000000000000000 ) ) ;
#567 = ORIENTED_EDGE ( 'NONE', *, *, #299, .T. ) ;
#568 = EDGE_CURVE ( 'NONE', #1103, #420, #724, .T. ) ;
#569 = CARTESIAN_POINT ( 'NONE',  ( 2.009999999999999787, 0.3700000000000017164, -0.4978511354034155789 ) ) ;
#570 = ORIENTED_EDGE ( 'NONE', *, *, #1062, .F. ) ;
#571 = CARTESIAN_POINT ( 'NONE',  ( 2.009999999999999787, 0.3700000000000014388, -0.4150132528004357724 ) ) ;
#572 = ORIENTED_EDGE ( 'NONE', *, *, #669, .T. ) ;
#573 = CYLINDRICAL_SURFACE ( 'NONE', #505, 2.750000000000000000 ) ;
#574 = CIRCLE ( 'NONE', #409, 0.5559999999999994946 ) ;
#575 =( BOUNDED_CURVE ( )  B_SPLINE_CURVE ( 3, ( #184, #1097, #275, #1004 ),
 .UNSPECIFIED., .F., .T. ) 
 B_SPLINE_CURVE_WITH_KNOTS ( ( 4, 4 ),
 ( 5.754796812637280823, 6.811573801721891641 ),
 .UNSPECIFIED. ) 
 CURVE ( )  GEOMETRIC_REPRESENTATION_ITEM ( )  RATIONAL_B_SPLINE_CURVE ( ( 1.000000000000000000, 0.9090804130449667841, 0.9090804130449667841, 1.000000000000000000 ) ) 
 REPRESENTATION_ITEM ( '' )  );
#576 = EDGE_CURVE ( 'NONE', #415, #738, #632, .T. ) ;
#577 = CIRCLE ( 'NONE', #834, 0.5559999999999994946 ) ;
#578 = EDGE_LOOP ( 'NONE', ( #1030, #886, #858 ) ) ;
#579 = CARTESIAN_POINT ( 'NONE',  ( -6.349999999999990763, 0.000000000000000000, 2.750000000000000000 ) ) ;
#580 = ORIENTED_EDGE ( 'NONE', *, *, #88, .T. ) ;
#581 = LINE ( 'NONE', #354, #695 ) ;
#582 = DIRECTION ( 'NONE',  ( 0.000000000000000000, 1.000000000000000000, -1.088881891980488709E-16 ) ) ;
#583 = EDGE_CURVE ( 'NONE', #439, #947, #225, .T. ) ;
#584 = VERTEX_POINT ( 'NONE', #105 ) ;
#585 = PLANE ( 'NONE',  #815 ) ;
#586 = EDGE_LOOP ( 'NONE', ( #136, #54, #797, #942 ) ) ;
#587 = CARTESIAN_POINT ( 'NONE',  ( 2.009999999999999787, 0.000000000000000000, 0.000000000000000000 ) ) ;
#588 = DIRECTION ( 'NONE',  ( 0.000000000000000000, 1.000000000000000000, 0.000000000000000000 ) ) ;
#589 = DIRECTION ( 'NONE',  ( -1.000000000000000000, -0.000000000000000000, -0.000000000000000000 ) ) ;
#590 = ADVANCED_FACE ( 'NONE', ( #644 ), #95, .T. ) ;
#591 = ORIENTED_EDGE ( 'NONE', *, *, #251, .T. ) ;
#592 = DIRECTION ( 'NONE',  ( 0.000000000000000000, 0.000000000000000000, 1.000000000000000000 ) ) ;
#593 = DIRECTION ( 'NONE',  ( -1.000000000000000000, -0.000000000000000000, -0.000000000000000000 ) ) ;
#594 = VECTOR ( 'NONE', #723, 1000.000000000000000 ) ;
#595 = AXIS2_PLACEMENT_3D ( 'NONE', #290, #771, #837 ) ;
#596 = CARTESIAN_POINT ( 'NONE',  ( 2.009999999999999787, -0.2475484739953897617, 0.4978511354034991787 ) ) ;
#597 = AXIS2_PLACEMENT_3D ( 'NONE', #943, #763, #486 ) ;
#598 = ORIENTED_EDGE ( 'NONE', *, *, #1142, .T. ) ;
#599 = CARTESIAN_POINT ( 'NONE',  ( 0.000000000000000000, -1.500000000000000000, -0.3699999999999998845 ) ) ;
#600 = ADVANCED_FACE ( 'NONE', ( #828 ), #889, .F. ) ;
#601 = DIRECTION ( 'NONE',  ( 0.000000000000000000, -1.000000000000000000, 1.088881891980488586E-16 ) ) ;
#602 = DIRECTION ( 'NONE',  ( 0.000000000000000000, 0.000000000000000000, 1.000000000000000000 ) ) ;
#603 = VERTEX_POINT ( 'NONE', #212 ) ;
#604 = CARTESIAN_POINT ( 'NONE',  ( 0.000000000000000000, -1.500000000000000000, -0.3699999999999998845 ) ) ;
#605 = FILL_AREA_STYLE_COLOUR ( '', #392 ) ;
#606 = B_SPLINE_CURVE_WITH_KNOTS ( 'NONE', 3,
 ( #784, #345, #1070, #1066 ),
 .UNSPECIFIED., .F., .F.,
 ( 4, 4 ),
 ( 0.001380840031772739753, 0.003398373201762473587 ),
 .UNSPECIFIED. ) ;
#607 = DIRECTION ( 'NONE',  ( 0.000000000000000000, 1.000000000000000000, 0.000000000000000000 ) ) ;
#608 = CARTESIAN_POINT ( 'NONE',  ( 0.000000000000000000, 0.000000000000000000, 0.000000000000000000 ) ) ;
#609 = ORIENTED_EDGE ( 'NONE', *, *, #1073, .F. ) ;
#610 = LINE ( 'NONE', #60, #773 ) ;
#611 = CARTESIAN_POINT ( 'NONE',  ( 0.6702656980951579024, -0.5348382249092117346, -0.3699999999999999400 ) ) ;
#612 = EDGE_CURVE ( 'NONE', #853, #899, #1035, .T. ) ;
#613 = DIRECTION ( 'NONE',  ( 0.000000000000000000, 0.000000000000000000, 1.000000000000000000 ) ) ;
#614 = AXIS2_PLACEMENT_3D ( 'NONE', #608, #699, #504 ) ;
#615 = AXIS2_PLACEMENT_3D ( 'NONE', #276, #352, #456 ) ;
#616 = AXIS2_PLACEMENT_3D ( 'NONE', #655, #842, #540 ) ;
#617 = VERTEX_POINT ( 'NONE', #294 ) ;
#618 = LINE ( 'NONE', #436, #868 ) ;
#619 = AXIS2_PLACEMENT_3D ( 'NONE', #84, #287, #907 ) ;
#620 = CARTESIAN_POINT ( 'NONE',  ( 0.6702656980951581245, -0.5348382249092115126, 0.3700000000000000511 ) ) ;
#621 = EDGE_CURVE ( 'NONE', #83, #381, #679, .T. ) ;
#622 = CARTESIAN_POINT ( 'NONE',  ( 0.4000000000000054068, 0.000000000000000000, 0.000000000000000000 ) ) ;
#623 = ORIENTED_EDGE ( 'NONE', *, *, #841, .T. ) ;
#624 = DIRECTION ( 'NONE',  ( 1.000000000000000000, 0.000000000000000000, -5.394040659131864380E-17 ) ) ;
#625 = CARTESIAN_POINT ( 'NONE',  ( -6.349999999999990763, 0.000000000000000000, 0.000000000000000000 ) ) ;
#626 = DIRECTION ( 'NONE',  ( 0.000000000000000000, 0.000000000000000000, 1.000000000000000000 ) ) ;
#627 = ADVANCED_FACE ( 'NONE', ( #455 ), #100, .T. ) ;
#628 = ORIENTED_EDGE ( 'NONE', *, *, #726, .F. ) ;
#629 = CARTESIAN_POINT ( 'NONE',  ( 2.009999999999999787, 0.000000000000000000, 0.000000000000000000 ) ) ;
#630 = ADVANCED_FACE ( 'NONE', ( #1010 ), #476, .T. ) ;
#631 = APPLICATION_CONTEXT ( 'automotive_design' ) ;
#632 = LINE ( 'NONE', #994, #735 ) ;
#633 = CARTESIAN_POINT ( 'NONE',  ( 0.000000000000000000, 1.500000000000000000, 0.3699999999999997735 ) ) ;
#634 = CIRCLE ( 'NONE', #316, 0.5559999999999994946 ) ;
#635 = ORIENTED_EDGE ( 'NONE', *, *, #152, .F. ) ;
#636 = DIRECTION ( 'NONE',  ( 0.000000000000000000, 0.000000000000000000, 1.000000000000000000 ) ) ;
#637 = VECTOR ( 'NONE', #607, 1000.000000000000000 ) ;
#638 = ADVANCED_FACE ( 'NONE', ( #467 ), #657, .F. ) ;
#639 = CONICAL_SURFACE ( 'NONE', #411, 3077.683537175315450, 1.256637061435923242 ) ;
#640 = CARTESIAN_POINT ( 'NONE',  ( 0.000000000000000000, 0.000000000000000000, 0.000000000000000000 ) ) ;
#641 = CARTESIAN_POINT ( 'NONE',  ( 2.009999999999999787, 0.000000000000000000, 0.000000000000000000 ) ) ;
#642 = ORIENTED_EDGE ( 'NONE', *, *, #488, .T. ) ;
#643 = DIRECTION ( 'NONE',  ( 0.000000000000000000, 0.000000000000000000, 1.000000000000000000 ) ) ;
#644 = FACE_OUTER_BOUND ( 'NONE', #506, .T. ) ;
#645 = CARTESIAN_POINT ( 'NONE',  ( 0.000000000000000000, 1.500000000000000000, 0.3699999999999997735 ) ) ;
#646 = ORIENTED_EDGE ( 'NONE', *, *, #562, .F. ) ;
#647 = DIRECTION ( 'NONE',  ( -1.000000000000000000, -0.000000000000000000, -0.000000000000000000 ) ) ;
#648 = DIRECTION ( 'NONE',  ( -0.4461977533474210666, -0.8949343913984499910, 0.000000000000000000 ) ) ;
#649 = CARTESIAN_POINT ( 'NONE',  ( 2.009999999999999787, 0.000000000000000000, 0.000000000000000000 ) ) ;
#650 = EDGE_CURVE ( 'NONE', #396, #937, #948, .T. ) ;
#651 = ORIENTED_EDGE ( 'NONE', *, *, #841, .F. ) ;
#652 = DIRECTION ( 'NONE',  ( -1.000000000000000000, -0.000000000000000000, -0.000000000000000000 ) ) ;
#653 = CIRCLE ( 'NONE', #451, 1.500000000000000000 ) ;
#654 = ORIENTED_EDGE ( 'NONE', *, *, #1165, .F. ) ;
#655 = CARTESIAN_POINT ( 'NONE',  ( 2.009999999999999787, 0.000000000000000000, 0.000000000000000000 ) ) ;
#656 = CIRCLE ( 'NONE', #923, 0.5559999999999994946 ) ;
#657 = CONICAL_SURFACE ( 'NONE', #145, 0.5559999999999994946, 0.06981317007976590994 ) ;
#658 = B_SPLINE_CURVE_WITH_KNOTS ( 'NONE', 3,
 ( #221, #416, #492, #1140 ),
 .UNSPECIFIED., .F., .F.,
 ( 4, 4 ),
 ( 0.001013853424362996455, 0.003031486302369884676 ),
 .UNSPECIFIED. ) ;
#659 = AXIS2_PLACEMENT_3D ( 'NONE', #1169, #982, #430 ) ;
#660 = EDGE_CURVE ( 'NONE', #83, #41, #717, .T. ) ;
#661 = VERTEX_POINT ( 'NONE', #938 ) ;
#662 = FACE_OUTER_BOUND ( 'NONE', #237, .T. ) ;
#663 = ORIENTED_EDGE ( 'NONE', *, *, #457, .T. ) ;
#664 = PLANE ( 'NONE',  #597 ) ;
#665 = ORIENTED_EDGE ( 'NONE', *, *, #391, .T. ) ;
#666 = CARTESIAN_POINT ( 'NONE',  ( 0.6702656980951570143, 0.3700000000000017719, -0.5348382249092104024 ) ) ;
#667 = VERTEX_POINT ( 'NONE', #131 ) ;
#668 = CARTESIAN_POINT ( 'NONE',  ( 2.009999999999999787, 0.000000000000000000, 0.000000000000000000 ) ) ;
#669 = EDGE_CURVE ( 'NONE', #12, #420, #995, .T. ) ;
#670 = ORIENTED_EDGE ( 'NONE', *, *, #921, .F. ) ;
#671 = LINE ( 'NONE', #490, #752 ) ;
#672 = VERTEX_POINT ( 'NONE', #481 ) ;
#673 = DIRECTION ( 'NONE',  ( 0.000000000000000000, 0.000000000000000000, 1.000000000000000000 ) ) ;
#674 = EDGE_CURVE ( 'NONE', #661, #18, #208, .T. ) ;
#675 = MECHANICAL_DESIGN_GEOMETRIC_PRESENTATION_REPRESENTATION (  '', ( #1013 ), #87 ) ;
#676 = AXIS2_PLACEMENT_3D ( 'NONE', #148, #516, #335 ) ;
#677 = PLANE ( 'NONE',  #539 ) ;
#678 = AXIS2_PLACEMENT_3D ( 'NONE', #1058, #249, #602 ) ;
#679 = CIRCLE ( 'NONE', #166, 0.6965528920064407714 ) ;
#680 = EDGE_LOOP ( 'NONE', ( #268, #483, #360 ) ) ;
#681 = DIRECTION ( 'NONE',  ( -1.000000000000000000, -0.000000000000000000, -0.000000000000000000 ) ) ;
#682 = VERTEX_POINT ( 'NONE', #1115 ) ;
#683 = CARTESIAN_POINT ( 'NONE',  ( 2.009999999999999787, 0.000000000000000000, 0.000000000000000000 ) ) ;
#684 = DIRECTION ( 'NONE',  ( 0.000000000000000000, 3.382593149645084608E-15, -1.000000000000000000 ) ) ;
#685 = VERTEX_POINT ( 'NONE', #1125 ) ;
#686 = CARTESIAN_POINT ( 'NONE',  ( 1.824605185108489014, 0.09076882178348083530, -0.5902855648788498666 ) ) ;
#687 = VERTEX_POINT ( 'NONE', #304 ) ;
#688 = CARTESIAN_POINT ( 'NONE',  ( -6.349999999999990763, 0.000000000000000000, 0.000000000000000000 ) ) ;
#689 = DIRECTION ( 'NONE',  ( -1.000000000000000000, -0.000000000000000000, -0.000000000000000000 ) ) ;
#690 = ADVANCED_FACE ( 'NONE', ( #507 ), #1114, .F. ) ;
#691 = DIRECTION ( 'NONE',  ( -1.000000000000000000, -0.000000000000000000, -0.000000000000000000 ) ) ;
#692 = ORIENTED_EDGE ( 'NONE', *, *, #338, .T. ) ;
#693 = DIRECTION ( 'NONE',  ( -1.000000000000000000, -0.000000000000000000, -0.000000000000000000 ) ) ;
#694 = DIRECTION ( 'NONE',  ( -0.000000000000000000, 0.000000000000000000, 1.000000000000000000 ) ) ;
#695 = VECTOR ( 'NONE', #440, 1000.000000000000114 ) ;
#696 = CIRCLE ( 'NONE', #89, 0.5559999999999994946 ) ;
#697 = CONICAL_SURFACE ( 'NONE', #997, 0.5559999999999994946, 0.06981317007976590994 ) ;
#698 = LINE ( 'NONE', #433, #770 ) ;
#699 = DIRECTION ( 'NONE',  ( 0.000000000000000000, 0.000000000000000000, 1.000000000000000000 ) ) ;
#700 = ORIENTED_EDGE ( 'NONE', *, *, #1134, .F. ) ;
#701 = DIRECTION ( 'NONE',  ( -1.000000000000000000, -0.000000000000000000, -0.000000000000000000 ) ) ;
#702 = CARTESIAN_POINT ( 'NONE',  ( 0.000000000000000000, -0.5901575479162630700, 0.3700000000000000511 ) ) ;
#703 = CARTESIAN_POINT ( 'NONE',  ( 2.009999999999999787, 0.000000000000000000, 0.000000000000000000 ) ) ;
#704 = VERTEX_POINT ( 'NONE', #954 ) ;
#705 = CARTESIAN_POINT ( 'NONE',  ( 2.009999999999999787, 0.4978511354035000669, -0.3699999999999999956 ) ) ;
#706 = EDGE_CURVE ( 'NONE', #435, #661, #658, .T. ) ;
#707 = CARTESIAN_POINT ( 'NONE',  ( 1.340406951505534794, 0.4777421266782438947, -0.3699999999999999400 ) ) ;
#708 = ORIENTED_EDGE ( 'NONE', *, *, #1005, .T. ) ;
#709 = PLANE ( 'NONE',  #1052 ) ;
#710 = EDGE_CURVE ( 'NONE', #41, #865, #758, .T. ) ;
#711 = AXIS2_PLACEMENT_3D ( 'NONE', #668, #866, #327 ) ;
#712 = CARTESIAN_POINT ( 'NONE',  ( 0.000000000000000000, -1.500000000000000000, 0.3700000000000001621 ) ) ;
#713 = AXIS2_PLACEMENT_3D ( 'NONE', #330, #589, #613 ) ;
#714 = AXIS2_PLACEMENT_3D ( 'NONE', #846, #1084, #7 ) ;
#715 = ORIENTED_EDGE ( 'NONE', *, *, #768, .T. ) ;
#716 = DIRECTION ( 'NONE',  ( 5.394040659131864380E-17, -0.000000000000000000, 1.000000000000000000 ) ) ;
#717 = B_SPLINE_CURVE_WITH_KNOTS ( 'NONE', 3,
 ( #36, #769, #406, #751 ),
 .UNSPECIFIED., .F., .F.,
 ( 4, 4 ),
 ( 0.001013853424362996455, 0.003031486302369885109 ),
 .UNSPECIFIED. ) ;
#718 = ADVANCED_FACE ( 'NONE', ( #851 ), #573, .T. ) ;
#719 = UNCERTAINTY_MEASURE_WITH_UNIT (LENGTH_MEASURE( 1.000000000000000082E-05 ), #1059, 'distance_accuracy_value', 'NONE');
#720 = DIRECTION ( 'NONE',  ( 0.000000000000000000, 0.000000000000000000, 1.000000000000000000 ) ) ;
#721 = EDGE_CURVE ( 'NONE', #489, #603, #861, .T. ) ;
#722 = VERTEX_POINT ( 'NONE', #137 ) ;
#723 = DIRECTION ( 'NONE',  ( 0.000000000000000000, 1.000000000000000000, 3.491481338843133355E-15 ) ) ;
#724 = LINE ( 'NONE', #473, #206 ) ;
#725 = FACE_OUTER_BOUND ( 'NONE', #940, .T. ) ;
#726 = EDGE_CURVE ( 'NONE', #394, #661, #295, .T. ) ;
#727 = EDGE_LOOP ( 'NONE', ( #139, #635, #757, #181, #218, #300, #1015, #895, #1139, #1040, #160, #924, #230, #494, #74, #175 ) ) ;
#728 = CARTESIAN_POINT ( 'NONE',  ( 0.4000000000000054068, 0.000000000000000000, 0.000000000000000000 ) ) ;
#729 = DIRECTION ( 'NONE',  ( 0.000000000000000000, -3.491481338843133355E-15, 1.000000000000000000 ) ) ;
#730 = DIRECTION ( 'NONE',  ( 1.000000000000000000, 0.000000000000000000, 0.000000000000000000 ) ) ;
#731 = VECTOR ( 'NONE', #399, 1000.000000000000000 ) ;
#732 = ORIENTED_EDGE ( 'NONE', *, *, #986, .T. ) ;
#733 = CARTESIAN_POINT ( 'NONE',  ( 2.009999999999999787, 0.3700000000000014388, -0.4150132528004357724 ) ) ;
#734 = VECTOR ( 'NONE', #364, 1000.000000000000114 ) ;
#735 = VECTOR ( 'NONE', #545, 1000.000000000000000 ) ;
#736 = CARTESIAN_POINT ( 'NONE',  ( 2.009999999999999787, 0.000000000000000000, 0.000000000000000000 ) ) ;
#737 = DIRECTION ( 'NONE',  ( 5.394040659131864380E-17, -1.000000000000000000, -3.491481338843133355E-15 ) ) ;
#738 = VERTEX_POINT ( 'NONE', #498 ) ;
#739 = CARTESIAN_POINT ( 'NONE',  ( 0.000000000000000000, 0.3700000000000051581, -1.499999999999998668 ) ) ;
#740 = DIRECTION ( 'NONE',  ( 0.000000000000000000, 0.000000000000000000, 1.000000000000000000 ) ) ;
#741 = ADVANCED_FACE ( 'NONE', ( #238 ), #51, .F. ) ;
#742 = CARTESIAN_POINT ( 'NONE',  ( 2.009999999999999787, -0.2475484739953897617, 0.4978511354034991787 ) ) ;
#743 = VERTEX_POINT ( 'NONE', #233 ) ;
#744 = DIRECTION ( 'NONE',  ( 0.000000000000000000, 0.000000000000000000, 1.000000000000000000 ) ) ;
#745 = ORIENTED_EDGE ( 'NONE', *, *, #852, .T. ) ;
#746 = CARTESIAN_POINT ( 'NONE',  ( -997.8093446488944664, 0.000000000000000000, 0.000000000000000000 ) ) ;
#747 = EDGE_CURVE ( 'NONE', #906, #213, #314, .T. ) ;
#748 = ORIENTED_EDGE ( 'NONE', *, *, #710, .T. ) ;
#749 = VECTOR ( 'NONE', #917, 1000.000000000000000 ) ;
#750 = ORIENTED_EDGE ( 'NONE', *, *, #329, .T. ) ;
#751 = CARTESIAN_POINT ( 'NONE',  ( 2.009999999999999787, 0.3699999999999985523, 0.4150132528004383814 ) ) ;
#752 = VECTOR ( 'NONE', #22, 999.9999999999998863 ) ;
#753 = AXIS2_PLACEMENT_3D ( 'NONE', #397, #216, #592 ) ;
#754 = EDGE_CURVE ( 'NONE', #41, #480, #445, .T. ) ;
#755 = ORIENTED_EDGE ( 'NONE', *, *, #1049, .F. ) ;
#756 = DIRECTION ( 'NONE',  ( 0.000000000000000000, 0.000000000000000000, 1.000000000000000000 ) ) ;
#757 = ORIENTED_EDGE ( 'NONE', *, *, #576, .T. ) ;
#758 = LINE ( 'NONE', #569, #1057 ) ;
#759 = ORIENTED_EDGE ( 'NONE', *, *, #307, .F. ) ;
#760 = PLANE ( 'NONE',  #203 ) ;
#761 = ADVANCED_FACE ( 'NONE', ( #1033 ), #664, .T. ) ;
#762 = ORIENTED_EDGE ( 'NONE', *, *, #384, .F. ) ;
#763 = DIRECTION ( 'NONE',  ( -0.4461977533474507651, -2.993526482274656946E-15, 0.8949343913984351140 ) ) ;
#764 = FACE_OUTER_BOUND ( 'NONE', #1069, .T. ) ;
#765 = ORIENTED_EDGE ( 'NONE', *, *, #242, .F. ) ;
#766 = DIRECTION ( 'NONE',  ( -1.000000000000000000, -0.000000000000000000, -0.000000000000000000 ) ) ;
#767 = ORIENTED_EDGE ( 'NONE', *, *, #32, .F. ) ;
#768 = EDGE_CURVE ( 'NONE', #21, #387, #653, .T. ) ;
#769 = CARTESIAN_POINT ( 'NONE',  ( 0.6702656980951575694, 0.3699999999999980527, 0.5348382249092129559 ) ) ;
#770 = VECTOR ( 'NONE', #63, 1000.000000000000000 ) ;
#771 = DIRECTION ( 'NONE',  ( 1.000000000000000000, 0.000000000000000000, 0.000000000000000000 ) ) ;
#772 = CIRCLE ( 'NONE', #557, 0.7999999999999999334 ) ;
#773 = VECTOR ( 'NONE', #1078, 1000.000000000000000 ) ;
#774 = CARTESIAN_POINT ( 'NONE',  ( 1.874345677606162219, 0.000000000000000000, 0.5654858742913566605 ) ) ;
#775 = CARTESIAN_POINT ( 'NONE',  ( 1.920634500420052015, 0.1719762852472149495, 0.5424071224374029665 ) ) ;
#776 = EDGE_LOOP ( 'NONE', ( #286, #325, #118, #874 ) ) ;
#777 = DIRECTION ( 'NONE',  ( 0.000000000000000000, 0.000000000000000000, 1.000000000000000000 ) ) ;
#778 = APPLICATION_CONTEXT ( 'automotive_design' ) ;
#779 = CARTESIAN_POINT ( 'NONE',  ( 2.009999999999999787, -0.3700000000000017164, 0.4978511354034987346 ) ) ;
#780 = EDGE_CURVE ( 'NONE', #1002, #722, #581, .T. ) ;
#781 = CARTESIAN_POINT ( 'NONE',  ( 1.920634500420052015, -0.1719762852472186410, 0.5424071224374017453 ) ) ;
#782 =( NAMED_UNIT ( * ) SI_UNIT ( $, .STERADIAN. ) SOLID_ANGLE_UNIT ( ) );
#783 = ORIENTED_EDGE ( 'NONE', *, *, #973, .T. ) ;
#784 = CARTESIAN_POINT ( 'NONE',  ( 2.009999999999999787, 0.4150132528004371046, 0.3699999999999999956 ) ) ;
#785 = CARTESIAN_POINT ( 'NONE',  ( 2.009999999999999787, 0.4978511354035000669, -0.3699999999999999956 ) ) ;
#786 = EDGE_CURVE ( 'NONE', #83, #489, #1152, .T. ) ;
#787 = CARTESIAN_POINT ( 'NONE',  ( 0.000000000000000000, 0.5901575479162630700, -0.3699999999999998845 ) ) ;
#788 = ORIENTED_EDGE ( 'NONE', *, *, #747, .T. ) ;
#789 = CARTESIAN_POINT ( 'NONE',  ( 0.000000000000000000, 0.000000000000000000, 2.750000000000000000 ) ) ;
#790 = DIRECTION ( 'NONE',  ( -1.000000000000000000, -0.000000000000000000, -0.000000000000000000 ) ) ;
#791 =( GEOMETRIC_REPRESENTATION_CONTEXT ( 3 ) GLOBAL_UNCERTAINTY_ASSIGNED_CONTEXT ( ( #793 ) ) GLOBAL_UNIT_ASSIGNED_CONTEXT ( ( #561, #844, #782 ) ) REPRESENTATION_CONTEXT ( 'NONE', 'WORKASPACE' ) );
#792 = AXIS2_PLACEMENT_3D ( 'NONE', #799, #348, #980 ) ;
#793 = UNCERTAINTY_MEASURE_WITH_UNIT (LENGTH_MEASURE( 1.000000000000000082E-05 ), #561, 'distance_accuracy_value', 'NONE');
#794 = VECTOR ( 'NONE', #684, 1000.000000000000000 ) ;
#795 = CARTESIAN_POINT ( 'NONE',  ( 2.009999999999999787, -0.4978511354034168002, 0.3700000000000001066 ) ) ;
#796 = ADVANCED_FACE ( 'NONE', ( #971 ), #421, .T. ) ;
#797 = ORIENTED_EDGE ( 'NONE', *, *, #820, .F. ) ;
#798 = PLANE ( 'NONE',  #1171 ) ;
#799 = CARTESIAN_POINT ( 'NONE',  ( 0.000000000000000000, 0.000000000000000000, 0.000000000000000000 ) ) ;
#800 = ORIENTED_EDGE ( 'NONE', *, *, #768, .F. ) ;
#801 = DIRECTION ( 'NONE',  ( 0.000000000000000000, -3.491481338843133355E-15, 1.000000000000000000 ) ) ;
#802 = ADVANCED_FACE ( 'NONE', ( #171 ), #1051, .F. ) ;
#803 = B_SPLINE_CURVE_WITH_KNOTS ( 'NONE', 3,
 ( #702, #620, #972, #1166 ),
 .UNSPECIFIED., .F., .F.,
 ( 4, 4 ),
 ( 0.001013853424283302392, 0.003031486302290192780 ),
 .UNSPECIFIED. ) ;
#804 = CARTESIAN_POINT ( 'NONE',  ( 2.009999999999999787, 0.4150132528004371046, 0.3699999999999999956 ) ) ;
#805 = FACE_OUTER_BOUND ( 'NONE', #65, .T. ) ;
#806 = FILL_AREA_STYLE_COLOUR ( '', #1109 ) ;
#807 = VERTEX_POINT ( 'NONE', #245 ) ;
#808 = CARTESIAN_POINT ( 'NONE',  ( 2.009999999999999787, 0.4978511354035001779, -0.3699999999999999956 ) ) ;
#809 = EDGE_CURVE ( 'NONE', #439, #951, #513, .T. ) ;
#810 = LINE ( 'NONE', #357, #50 ) ;
#811 = ADVANCED_FACE ( 'NONE', ( #75 ), #798, .T. ) ;
#812 = PRODUCT_DEFINITION_SHAPE ( 'NONE', 'NONE',  #334 ) ;
#813 = CONICAL_SURFACE ( 'NONE', #1108, 0.5559999999999994946, 0.06981317007976590994 ) ;
#814 = DIRECTION ( 'NONE',  ( 0.000000000000000000, 0.000000000000000000, 1.000000000000000000 ) ) ;
#815 = AXIS2_PLACEMENT_3D ( 'NONE', #936, #413, #1138 ) ;
#816 = CIRCLE ( 'NONE', #1054, 0.5559999999999994946 ) ;
#817 = ORIENTED_EDGE ( 'NONE', *, *, #329, .F. ) ;
#818 = CARTESIAN_POINT ( 'NONE',  ( 2.009999999999999787, -0.3700000000000014388, 0.4150132528004357724 ) ) ;
#819 = AXIS2_PLACEMENT_3D ( 'NONE', #109, #1087, #292 ) ;
#820 = EDGE_CURVE ( 'NONE', #825, #685, #528, .T. ) ;
#821 = ORIENTED_EDGE ( 'NONE', *, *, #660, .T. ) ;
#822 = CARTESIAN_POINT ( 'NONE',  ( -6.349999999999990763, 0.000000000000000000, 1.500000000000000000 ) ) ;
#823 = DIRECTION ( 'NONE',  ( 0.000000000000000000, 0.000000000000000000, 1.000000000000000000 ) ) ;
#824 = DIRECTION ( 'NONE',  ( 0.8949343913984498800, -0.4461977533474210666, 9.654624988917335861E-17 ) ) ;
#825 = VERTEX_POINT ( 'NONE', #604 ) ;
#826 = CARTESIAN_POINT ( 'NONE',  ( 0.4000000000000054068, 0.000000000000000000, 2.750000000000000000 ) ) ;
#827 = ORIENTED_EDGE ( 'NONE', *, *, #674, .F. ) ;
#828 = FACE_OUTER_BOUND ( 'NONE', #262, .T. ) ;
#829 = CARTESIAN_POINT ( 'NONE',  ( 2.009999999999999787, 0.000000000000000000, 0.000000000000000000 ) ) ;
#830 = AXIS2_PLACEMENT_3D ( 'NONE', #82, #737, #444 ) ;
#831 = ORIENTED_EDGE ( 'NONE', *, *, #612, .F. ) ;
#832 = CARTESIAN_POINT ( 'NONE',  ( 0.4000000000000054068, 0.000000000000000000, 0.000000000000000000 ) ) ;
#833 = ADVANCED_FACE ( 'NONE', ( #151 ), #709, .T. ) ;
#834 = AXIS2_PLACEMENT_3D ( 'NONE', #893, #265, #983 ) ;
#835 = AXIS2_PLACEMENT_3D ( 'NONE', #919, #648, #116 ) ;
#836 = CARTESIAN_POINT ( 'NONE',  ( 2.009999999999999787, 0.000000000000000000, 0.000000000000000000 ) ) ;
#837 = DIRECTION ( 'NONE',  ( 0.000000000000000000, 0.000000000000000000, -1.000000000000000000 ) ) ;
#838 = ORIENTED_EDGE ( 'NONE', *, *, #1096, .F. ) ;
#839 = DIRECTION ( 'NONE',  ( 0.000000000000000000, 0.000000000000000000, -1.000000000000000000 ) ) ;
#840 = VERTEX_POINT ( 'NONE', #789 ) ;
#841 = EDGE_CURVE ( 'NONE', #178, #704, #161, .T. ) ;
#842 = DIRECTION ( 'NONE',  ( -1.000000000000000000, -0.000000000000000000, -0.000000000000000000 ) ) ;
#843 = ORIENTED_EDGE ( 'NONE', *, *, #496, .F. ) ;
#844 =( NAMED_UNIT ( * ) PLANE_ANGLE_UNIT ( ) SI_UNIT ( $, .RADIAN. ) );
#845 = EDGE_LOOP ( 'NONE', ( #767, #965 ) ) ;
#846 = CARTESIAN_POINT ( 'NONE',  ( 2.009999999999999787, 0.000000000000000000, 0.000000000000000000 ) ) ;
#847 = EDGE_CURVE ( 'NONE', #1110, #387, #908, .T. ) ;
#848 = ORIENTED_EDGE ( 'NONE', *, *, #120, .T. ) ;
#849 = DIRECTION ( 'NONE',  ( 0.000000000000000000, 3.364991085386491040E-15, -1.000000000000000000 ) ) ;
#850 = ORIENTED_EDGE ( 'NONE', *, *, #1023, .F. ) ;
#851 = FACE_OUTER_BOUND ( 'NONE', #425, .T. ) ;
#852 = EDGE_CURVE ( 'NONE', #480, #381, #606, .T. ) ;
#853 = VERTEX_POINT ( 'NONE', #340 ) ;
#854 = DIRECTION ( 'NONE',  ( 0.000000000000000000, 0.000000000000000000, -1.000000000000000000 ) ) ;
#855 = ORIENTED_EDGE ( 'NONE', *, *, #371, .T. ) ;
#856 = CARTESIAN_POINT ( 'NONE',  ( 1.981370849898477671, 0.000000000000000000, 0.000000000000000000 ) ) ;
#857 = DIRECTION ( 'NONE',  ( 0.000000000000000000, 0.000000000000000000, -1.000000000000000000 ) ) ;
#858 = ORIENTED_EDGE ( 'NONE', *, *, #40, .F. ) ;
#859 = LINE ( 'NONE', #1022, #869 ) ;
#860 = ORIENTED_EDGE ( 'NONE', *, *, #391, .F. ) ;
#861 = LINE ( 'NONE', #875, #500 ) ;
#862 = DIRECTION ( 'NONE',  ( 0.000000000000000000, 0.000000000000000000, 1.000000000000000000 ) ) ;
#863 = LINE ( 'NONE', #534, #204 ) ;
#864 = CARTESIAN_POINT ( 'NONE',  ( 2.009999999999999787, 0.000000000000000000, 0.000000000000000000 ) ) ;
#865 = VERTEX_POINT ( 'NONE', #258 ) ;
#866 = DIRECTION ( 'NONE',  ( -1.000000000000000000, -0.000000000000000000, -0.000000000000000000 ) ) ;
#867 = EDGE_CURVE ( 'NONE', #667, #1026, #881, .T. ) ;
#868 = VECTOR ( 'NONE', #896, 1000.000000000000000 ) ;
#869 = VECTOR ( 'NONE', #849, 1000.000000000000000 ) ;
#870 = AXIS2_PLACEMENT_3D ( 'NONE', #2, #1081, #626 ) ;
#871 = FACE_OUTER_BOUND ( 'NONE', #293, .T. ) ;
#872 = AXIS2_PLACEMENT_3D ( 'NONE', #195, #19, #550 ) ;
#873 = LINE ( 'NONE', #1148, #637 ) ;
#874 = ORIENTED_EDGE ( 'NONE', *, *, #541, .F. ) ;
#875 = CARTESIAN_POINT ( 'NONE',  ( 0.000000000000000000, 0.3699999999999946110, 1.500000000000001332 ) ) ;
#876 = EDGE_CURVE ( 'NONE', #435, #1002, #610, .T. ) ;
#877 = FACE_OUTER_BOUND ( 'NONE', #472, .T. ) ;
#878 = UNCERTAINTY_MEASURE_WITH_UNIT (LENGTH_MEASURE( 1.000000000000000082E-05 ), #514, 'distance_accuracy_value', 'NONE');
#879 = CARTESIAN_POINT ( 'NONE',  ( 2.009999999999999787, 0.000000000000000000, 0.000000000000000000 ) ) ;
#880 = ORIENTED_EDGE ( 'NONE', *, *, #568, .F. ) ;
#881 = LINE ( 'NONE', #892, #298 ) ;
#882 =( BOUNDED_CURVE ( )  B_SPLINE_CURVE ( 3, ( #774, #255, #781, #596 ),
 .UNSPECIFIED., .F., .F. ) 
 B_SPLINE_CURVE_WITH_KNOTS ( ( 4, 4 ),
 ( 0.000000000000000000, 0.5283884945423056312 ),
 .UNSPECIFIED. ) 
 CURVE ( )  GEOMETRIC_REPRESENTATION_ITEM ( )  RATIONAL_B_SPLINE_CURVE ( ( 1.000000000000000000, 0.9768688144526211925, 0.9768688144526211925, 1.000000000000000000 ) ) 
 REPRESENTATION_ITEM ( '' )  );
#883 =( NAMED_UNIT ( * ) PLANE_ANGLE_UNIT ( ) SI_UNIT ( $, .RADIAN. ) );
#884 = EDGE_CURVE ( 'NONE', #672, #396, #988, .T. ) ;
#885 = DIRECTION ( 'NONE',  ( -0.8949343913984351140, -0.4461977533474507651, 0.000000000000000000 ) ) ;
#886 = ORIENTED_EDGE ( 'NONE', *, *, #260, .F. ) ;
#887 = CARTESIAN_POINT ( 'NONE',  ( 0.000000000000000000, 0.3700000000000051581, -1.499999999999998668 ) ) ;
#888 = EDGE_CURVE ( 'NONE', #865, #617, #618, .T. ) ;
#889 = CONICAL_SURFACE ( 'NONE', #374, 3077.683537175315450, 1.256637061435923242 ) ;
#890 = DIRECTION ( 'NONE',  ( -1.000000000000000000, -0.000000000000000000, -0.000000000000000000 ) ) ;
#891 = ORIENTED_EDGE ( 'NONE', *, *, #973, .F. ) ;
#892 = CARTESIAN_POINT ( 'NONE',  ( -6.349999999999990763, 3.367778697655221012E-16, -2.750000000000000000 ) ) ;
#893 = CARTESIAN_POINT ( 'NONE',  ( 2.009999999999999787, 0.000000000000000000, 0.000000000000000000 ) ) ;
#894 = FACE_OUTER_BOUND ( 'NONE', #1117, .T. ) ;
#895 = ORIENTED_EDGE ( 'NONE', *, *, #915, .T. ) ;
#896 = DIRECTION ( 'NONE',  ( 0.000000000000000000, -1.000000000000000000, -3.491481338843133355E-15 ) ) ;
#897 = CARTESIAN_POINT ( 'NONE',  ( 1.340406951505534794, -0.4777421266782438947, -0.3699999999999999400 ) ) ;
#898 = CARTESIAN_POINT ( 'NONE',  ( 2.009999999999999787, 0.4978511354035000669, -0.3699999999999999956 ) ) ;
#899 = VERTEX_POINT ( 'NONE', #79 ) ;
#900 = CARTESIAN_POINT ( 'NONE',  ( 2.009999999999999787, 0.4978511354035001779, 0.3699999999999999956 ) ) ;
#901 = ADVANCED_FACE ( 'NONE', ( #176 ), #813, .F. ) ;
#902 = FACE_OUTER_BOUND ( 'NONE', #776, .T. ) ;
#903 = LINE ( 'NONE', #1085, #960 ) ;
#904 = CIRCLE ( 'NONE', #27, 1.500000000000000000 ) ;
#905 =( GEOMETRIC_REPRESENTATION_CONTEXT ( 3 ) GLOBAL_UNCERTAINTY_ASSIGNED_CONTEXT ( ( #878 ) ) GLOBAL_UNIT_ASSIGNED_CONTEXT ( ( #514, #883, #442 ) ) REPRESENTATION_CONTEXT ( 'NONE', 'WORKASPACE' ) );
#906 = VERTEX_POINT ( 'NONE', #332 ) ;
#907 = DIRECTION ( 'NONE',  ( 0.000000000000000000, 0.000000000000000000, 1.000000000000000000 ) ) ;
#908 = CIRCLE ( 'NONE', #659, 0.7999999999999999334 ) ;
#909 = LINE ( 'NONE', #201, #341 ) ;
#910 = PLANE ( 'NONE',  #163 ) ;
#911 = ORIENTED_EDGE ( 'NONE', *, *, #80, .F. ) ;
#912 = DIRECTION ( 'NONE',  ( 1.000000000000000000, 0.000000000000000000, 0.000000000000000000 ) ) ;
#913 = DIRECTION ( 'NONE',  ( -1.000000000000000000, -0.000000000000000000, -0.000000000000000000 ) ) ;
#914 = DIRECTION ( 'NONE',  ( 0.000000000000000000, 0.000000000000000000, 1.000000000000000000 ) ) ;
#915 = EDGE_CURVE ( 'NONE', #1002, #1103, #103, .T. ) ;
#916 = ORIENTED_EDGE ( 'NONE', *, *, #1062, .T. ) ;
#917 = DIRECTION ( 'NONE',  ( 0.000000000000000000, -1.465138070926357223E-16, -1.000000000000000000 ) ) ;
#918 = ORIENTED_EDGE ( 'NONE', *, *, #546, .T. ) ;
#919 = CARTESIAN_POINT ( 'NONE',  ( 2.009999999999999787, 0.4978511354035000669, 0.3699999999999999956 ) ) ;
#920 = CARTESIAN_POINT ( 'NONE',  ( 2.009999999999999787, 0.000000000000000000, 0.000000000000000000 ) ) ;
#921 = EDGE_CURVE ( 'NONE', #899, #1159, #127, .T. ) ;
#922 = PRESENTATION_LAYER_ASSIGNMENT (  '', '', ( #1013 ) ) ;
#923 = AXIS2_PLACEMENT_3D ( 'NONE', #641, #1001, #914 ) ;
#924 = ORIENTED_EDGE ( 'NONE', *, *, #1107, .T. ) ;
#925 = AXIS2_PLACEMENT_3D ( 'NONE', #649, #1036, #1136 ) ;
#926 = ORIENTED_EDGE ( 'NONE', *, *, #407, .F. ) ;
#927 = VECTOR ( 'NONE', #382, 1000.000000000000000 ) ;
#928 = PLANE ( 'NONE',  #1112 ) ;
#929 = CARTESIAN_POINT ( 'NONE',  ( 0.4000000000000054068, 0.000000000000000000, 2.750000000000000000 ) ) ;
#930 = EDGE_LOOP ( 'NONE', ( #458, #1024, #1163, #755 ) ) ;
#931 = CARTESIAN_POINT ( 'NONE',  ( 2.009999999999999787, 0.2475484739955572111, -0.4978511354034159120 ) ) ;
#932 = ORIENTED_EDGE ( 'NONE', *, *, #1116, .T. ) ;
#933 = DIRECTION ( 'NONE',  ( 0.000000000000000000, 0.000000000000000000, 1.000000000000000000 ) ) ;
#934 = ADVANCED_FACE ( 'NONE', ( #1104 ), #1003, .T. ) ;
#935 = ORIENTED_EDGE ( 'NONE', *, *, #1116, .F. ) ;
#936 = CARTESIAN_POINT ( 'NONE',  ( 2.009999999999999787, -0.3700000000000017164, 0.4978511354034987346 ) ) ;
#937 = VERTEX_POINT ( 'NONE', #733 ) ;
#938 = CARTESIAN_POINT ( 'NONE',  ( 2.009999999999999787, -0.3699999999999986633, -0.4150132528004382704 ) ) ;
#939 = ADVANCED_FACE ( 'NONE', ( #471 ), #140, .F. ) ;
#940 = EDGE_LOOP ( 'NONE', ( #855, #1120, #319, #926 ) ) ;
#941 = LINE ( 'NONE', #579, #731 ) ;
#942 = ORIENTED_EDGE ( 'NONE', *, *, #167, .T. ) ;
#943 = CARTESIAN_POINT ( 'NONE',  ( 2.009999999999999787, 0.3700000000000017164, -0.4978511354034155789 ) ) ;
#944 = AXIS2_PLACEMENT_3D ( 'NONE', #111, #284, #823 ) ;
#945 = ORIENTED_EDGE ( 'NONE', *, *, #496, .T. ) ;
#946 = LINE ( 'NONE', #301, #121 ) ;
#947 = VERTEX_POINT ( 'NONE', #366 ) ;
#948 = LINE ( 'NONE', #1029, #1017 ) ;
#949 = CARTESIAN_POINT ( 'NONE',  ( 0.000000000000000000, 0.000000000000000000, 0.000000000000000000 ) ) ;
#950 = EDGE_CURVE ( 'NONE', #807, #394, #963, .T. ) ;
#951 = VERTEX_POINT ( 'NONE', #900 ) ;
#952 = CARTESIAN_POINT ( 'NONE',  ( 0.000000000000000000, 0.3700000000000051581, -1.499999999999998668 ) ) ;
#953 = ORIENTED_EDGE ( 'NONE', *, *, #562, .T. ) ;
#954 = CARTESIAN_POINT ( 'NONE',  ( 2.009999999999999787, 0.4978511354035001779, -0.3699999999999999956 ) ) ;
#955 = LINE ( 'NONE', #205, #243 ) ;
#956 = EDGE_CURVE ( 'NONE', #722, #394, #5, .T. ) ;
#957 = ORIENTED_EDGE ( 'NONE', *, *, #809, .F. ) ;
#958 = CARTESIAN_POINT ( 'NONE',  ( 2.009999999999999787, -0.4978511354034168002, 0.3700000000000001066 ) ) ;
#959 = VECTOR ( 'NONE', #66, 1000.000000000000227 ) ;
#960 = VECTOR ( 'NONE', #97, 1000.000000000000000 ) ;
#961 = LINE ( 'NONE', #779, #794 ) ;
#962 = PRESENTATION_LAYER_ASSIGNMENT (  '', '', ( #1056 ) ) ;
#963 = CIRCLE ( 'NONE', #247, 0.5559999999999994946 ) ;
#964 = EDGE_LOOP ( 'NONE', ( #211, #474, #762 ) ) ;
#965 = ORIENTED_EDGE ( 'NONE', *, *, #217, .F. ) ;
#966 = DIRECTION ( 'NONE',  ( 0.000000000000000000, 1.000000000000000000, 0.000000000000000000 ) ) ;
#967 = EDGE_CURVE ( 'NONE', #687, #617, #535, .T. ) ;
#968 = DIRECTION ( 'NONE',  ( -0.3090169943749417891, 1.164708318489094564E-16, -0.9510565162951553075 ) ) ;
#969 = DIRECTION ( 'NONE',  ( 0.000000000000000000, 1.000000000000000000, -1.088881891980488709E-16 ) ) ;
#970 = ORIENTED_EDGE ( 'NONE', *, *, #477, .F. ) ;
#971 = FACE_OUTER_BOUND ( 'NONE', #1105, .T. ) ;
#972 = CARTESIAN_POINT ( 'NONE',  ( 1.340406951505534794, -0.4777421266782438947, 0.3700000000000001066 ) ) ;
#973 = EDGE_CURVE ( 'NONE', #1103, #396, #94, .T. ) ;
#974 = DIRECTION ( 'NONE',  ( -0.4461977533474507651, 0.8949343913984351140, -1.311202447819156842E-16 ) ) ;
#975 = ORIENTED_EDGE ( 'NONE', *, *, #1073, .T. ) ;
#976 = DIRECTION ( 'NONE',  ( 0.000000000000000000, 1.000000000000000000, 3.344967531750497781E-15 ) ) ;
#977 = DIRECTION ( 'NONE',  ( 0.000000000000000000, -1.224646799147353454E-16, 1.000000000000000000 ) ) ;
#978 = AXIS2_PLACEMENT_3D ( 'NONE', #996, #267, #452 ) ;
#979 = AXIS2_PLACEMENT_3D ( 'NONE', #832, #537, #283 ) ;
#980 = DIRECTION ( 'NONE',  ( 0.000000000000000000, 0.000000000000000000, 1.000000000000000000 ) ) ;
#981 = ORIENTED_EDGE ( 'NONE', *, *, #324, .F. ) ;
#982 = DIRECTION ( 'NONE',  ( 0.000000000000000000, -1.000000000000000000, 0.000000000000000000 ) ) ;
#983 = DIRECTION ( 'NONE',  ( 0.000000000000000000, 0.000000000000000000, 1.000000000000000000 ) ) ;
#984 = PLANE ( 'NONE',  #615 ) ;
#985 = PRODUCT ( 'countersunk flat head cross recess screw_iso_ISO 7046-1 - M3 x 8 - Z - 8N', 'countersunk flat head cross recess screw_iso_ISO 7046-1 - M3 x 8 - Z - 8N', '', ( #169 ) ) ;
#986 = EDGE_CURVE ( 'NONE', #104, #117, #544, .T. ) ;
#987 = ORIENTED_EDGE ( 'NONE', *, *, #385, .T. ) ;
#988 = LINE ( 'NONE', #1061, #468 ) ;
#989 = CARTESIAN_POINT ( 'NONE',  ( 0.000000000000000000, 0.3699999999999946110, 1.500000000000001332 ) ) ;
#990 = CARTESIAN_POINT ( 'NONE',  ( 8.000000000000000000, 1.836970198721029934E-16, -1.500000000000000000 ) ) ;
#991 = EDGE_LOOP ( 'NONE', ( #981, #1124 ) ) ;
#992 = FACE_OUTER_BOUND ( 'NONE', #565, .T. ) ;
#993 = ADVANCED_FACE ( 'NONE', ( #992 ), #194, .F. ) ;
#994 = CARTESIAN_POINT ( 'NONE',  ( 0.000000000000000000, 1.500000000000000000, 0.3699999999999997735 ) ) ;
#995 = CIRCLE ( 'NONE', #91, 0.6965528920064407714 ) ;
#996 = CARTESIAN_POINT ( 'NONE',  ( 8.000000000000000000, 0.000000000000000000, 0.000000000000000000 ) ) ;
#997 = AXIS2_PLACEMENT_3D ( 'NONE', #736, #1101, #740 ) ;
#998 = ORIENTED_EDGE ( 'NONE', *, *, #876, .F. ) ;
#999 = DIRECTION ( 'NONE',  ( 0.000000000000000000, 0.000000000000000000, 1.000000000000000000 ) ) ;
#1000 = ADVANCED_FACE ( 'NONE', ( #190 ), #320, .T. ) ;
#1001 = DIRECTION ( 'NONE',  ( -1.000000000000000000, -0.000000000000000000, -0.000000000000000000 ) ) ;
#1002 = VERTEX_POINT ( 'NONE', #1178 ) ;
#1003 = PLANE ( 'NONE',  #819 ) ;
#1004 = CARTESIAN_POINT ( 'NONE',  ( 2.009999999999999787, 0.4978511354035000669, 0.2475484739953880131 ) ) ;
#1005 = EDGE_CURVE ( 'NONE', #1045, #667, #336, .T. ) ;
#1006 = DIRECTION ( 'NONE',  ( 0.000000000000000000, -1.000000000000000000, 1.264902534566421675E-16 ) ) ;
#1007 = ORIENTED_EDGE ( 'NONE', *, *, #852, .F. ) ;
#1008 = CARTESIAN_POINT ( 'NONE',  ( 0.000000000000000000, 3.367778697655221012E-16, -2.750000000000000000 ) ) ;
#1009 = ORIENTED_EDGE ( 'NONE', *, *, #726, .T. ) ;
#1010 = FACE_OUTER_BOUND ( 'NONE', #1018, .T. ) ;
#1011 = CARTESIAN_POINT ( 'NONE',  ( 2.009999999999999787, 0.3700000000000017164, -0.4978511354034155789 ) ) ;
#1012 = VECTOR ( 'NONE', #466, 1000.000000000000114 ) ;
#1013 = STYLED_ITEM ( 'NONE', ( #337 ), #229 ) ;
#1014 = AXIS2_PLACEMENT_3D ( 'NONE', #1162, #974, #885 ) ;
#1015 = ORIENTED_EDGE ( 'NONE', *, *, #876, .T. ) ;
#1016 = DIRECTION ( 'NONE',  ( -1.000000000000000000, -0.000000000000000000, -0.000000000000000000 ) ) ;
#1017 = VECTOR ( 'NONE', #1132, 1000.000000000000000 ) ;
#1018 = EDGE_LOOP ( 'NONE', ( #998, #114, #750, #30 ) ) ;
#1019 = VECTOR ( 'NONE', #801, 1000.000000000000000 ) ;
#1020 = DIRECTION ( 'NONE',  ( 0.8949343913984498800, 1.461344879357078467E-15, -0.4461977533474210666 ) ) ;
#1021 = ORIENTED_EDGE ( 'NONE', *, *, #915, .F. ) ;
#1022 = CARTESIAN_POINT ( 'NONE',  ( 0.000000000000000000, -0.3700000000000050471, 1.499999999999998668 ) ) ;
#1023 = EDGE_CURVE ( 'NONE', #387, #21, #266, .T. ) ;
#1024 = ORIENTED_EDGE ( 'NONE', *, *, #80, .T. ) ;
#1025 = DIRECTION ( 'NONE',  ( 1.000000000000000000, 0.000000000000000000, 0.000000000000000000 ) ) ;
#1026 = VERTEX_POINT ( 'NONE', #1008 ) ;
#1027 = CARTESIAN_POINT ( 'NONE',  ( 0.000000000000000000, -0.3700000000000019940, 0.5901575479162617377 ) ) ;
#1028 = ORIENTED_EDGE ( 'NONE', *, *, #921, .T. ) ;
#1029 = CARTESIAN_POINT ( 'NONE',  ( 2.009999999999999787, 0.3700000000000017164, -0.4978511354034155789 ) ) ;
#1030 = ORIENTED_EDGE ( 'NONE', *, *, #120, .F. ) ;
#1031 = LINE ( 'NONE', #1039, #1053 ) ;
#1032 = ORIENTED_EDGE ( 'NONE', *, *, #174, .F. ) ;
#1033 = FACE_OUTER_BOUND ( 'NONE', #527, .T. ) ;
#1034 = VECTOR ( 'NONE', #547, 1000.000000000000114 ) ;
#1035 = CIRCLE ( 'NONE', #356, 0.5559999999999994946 ) ;
#1036 = DIRECTION ( 'NONE',  ( -1.000000000000000000, -0.000000000000000000, -0.000000000000000000 ) ) ;
#1037 = EDGE_CURVE ( 'NONE', #48, #387, #553, .T. ) ;
#1038 = ORIENTED_EDGE ( 'NONE', *, *, #956, .T. ) ;
#1039 = CARTESIAN_POINT ( 'NONE',  ( 0.000000000000000000, 1.500000000000000000, -0.3699999999999998845 ) ) ;
#1040 = ORIENTED_EDGE ( 'NONE', *, *, #669, .F. ) ;
#1041 = DIRECTION ( 'NONE',  ( 0.000000000000000000, 0.000000000000000000, 1.000000000000000000 ) ) ;
#1042 = PLANE ( 'NONE',  #595 ) ;
#1043 = ADVANCED_FACE ( 'NONE', ( #1183 ), #1075, .F. ) ;
#1044 = ORIENTED_EDGE ( 'NONE', *, *, #428, .T. ) ;
#1045 = VERTEX_POINT ( 'NONE', #826 ) ;
#1046 = DIRECTION ( 'NONE',  ( -1.000000000000000000, -0.000000000000000000, -0.000000000000000000 ) ) ;
#1047 = DIRECTION ( 'NONE',  ( 2.731943609379471477E-17, -1.088881891980488709E-16, -1.000000000000000000 ) ) ;
#1048 = CARTESIAN_POINT ( 'NONE',  ( 2.009999999999999787, -0.4150132528004371046, -0.3699999999999999956 ) ) ;
#1049 = EDGE_CURVE ( 'NONE', #667, #1045, #1090, .T. ) ;
#1050 = ORIENTED_EDGE ( 'NONE', *, *, #721, .F. ) ;
#1051 = PLANE ( 'NONE',  #202 ) ;
#1052 = AXIS2_PLACEMENT_3D ( 'NONE', #808, #716, #624 ) ;
#1053 = VECTOR ( 'NONE', #135, 1000.000000000000000 ) ;
#1054 = AXIS2_PLACEMENT_3D ( 'NONE', #487, #689, #147 ) ;
#1055 = CARTESIAN_POINT ( 'NONE',  ( 2.009999999999999787, 0.4978511354035000669, 0.3699999999999999956 ) ) ;
#1056 = STYLED_ITEM ( 'NONE', ( #76 ), #459 ) ;
#1057 = VECTOR ( 'NONE', #119, 1000.000000000000000 ) ;
#1058 = CARTESIAN_POINT ( 'NONE',  ( 2.009999999999999787, 0.000000000000000000, 0.000000000000000000 ) ) ;
#1059 =( LENGTH_UNIT ( ) NAMED_UNIT ( * ) SI_UNIT ( .MILLI., .METRE. ) );
#1060 = ORIENTED_EDGE ( 'NONE', *, *, #128, .T. ) ;
#1061 = CARTESIAN_POINT ( 'NONE',  ( 2.009999999999999787, -0.3699999999999983857, -0.4978511354034180769 ) ) ;
#1062 = EDGE_CURVE ( 'NONE', #277, #937, #574, .T. ) ;
#1063 = CARTESIAN_POINT ( 'NONE',  ( 0.000000000000000000, 0.3700000000000019384, -0.5901575479162617377 ) ) ;
#1064 = FACE_OUTER_BOUND ( 'NONE', #1086, .T. ) ;
#1065 = EDGE_LOOP ( 'NONE', ( #1144, #700, #102 ) ) ;
#1066 = CARTESIAN_POINT ( 'NONE',  ( 0.000000000000000000, 0.5901575479162630700, 0.3699999999999999400 ) ) ;
#1067 = DIRECTION ( 'NONE',  ( 0.000000000000000000, 0.000000000000000000, 1.000000000000000000 ) ) ;
#1068 = ORIENTED_EDGE ( 'NONE', *, *, #967, .T. ) ;
#1069 = EDGE_LOOP ( 'NONE', ( #365, #291, #1168 ) ) ;
#1070 = CARTESIAN_POINT ( 'NONE',  ( 0.6702656980951576804, 0.5348382249092116236, 0.3699999999999999400 ) ) ;
#1071 = CARTESIAN_POINT ( 'NONE',  ( 2.190655351105491810, 6.455414249980455538E-32, -5.271245762022948583E-16 ) ) ;
#1072 = VECTOR ( 'NONE', #1098, 1000.000000000000114 ) ;
#1073 = EDGE_CURVE ( 'NONE', #840, #1026, #1153, .T. ) ;
#1074 = VECTOR ( 'NONE', #43, 1000.000000000000000 ) ;
#1075 = TOROIDAL_SURFACE ( 'NONE', #558, 2.299999999999999822, 0.8000000000000000444 ) ;
#1076 = CARTESIAN_POINT ( 'NONE',  ( 1.415685424949238769, 2.745850745352869614E-16, -1.734314575050762697 ) ) ;
#1077 = ORIENTED_EDGE ( 'NONE', *, *, #986, .F. ) ;
#1078 = DIRECTION ( 'NONE',  ( 0.000000000000000000, 3.364991085386491040E-15, -1.000000000000000000 ) ) ;
#1079 = DIRECTION ( 'NONE',  ( 0.8949343913984498800, 1.606164254190838425E-15, -0.4461977533474210666 ) ) ;
#1080 = EDGE_CURVE ( 'NONE', #603, #1159, #859, .T. ) ;
#1081 = DIRECTION ( 'NONE',  ( -1.000000000000000000, -0.000000000000000000, -0.000000000000000000 ) ) ;
#1082 = EDGE_LOOP ( 'NONE', ( #475, #932, #880, #783 ) ) ;
#1083 = DIRECTION ( 'NONE',  ( 0.000000000000000000, 1.000000000000000000, 3.344967531750497781E-15 ) ) ;
#1084 = DIRECTION ( 'NONE',  ( -1.000000000000000000, -0.000000000000000000, -0.000000000000000000 ) ) ;
#1085 = CARTESIAN_POINT ( 'NONE',  ( 0.000000000000000000, -1.500000000000000000, 0.3700000000000001621 ) ) ;
#1086 = EDGE_LOOP ( 'NONE', ( #470, #663, #223, #226 ) ) ;
#1087 = DIRECTION ( 'NONE',  ( 5.394040659131864380E-17, -1.000000000000000000, -3.491481338843133355E-15 ) ) ;
#1088 = ADVANCED_FACE ( 'NONE', ( #662 ), #219, .F. ) ;
#1089 = DIRECTION ( 'NONE',  ( 0.000000000000000000, -3.382593149645084608E-15, 1.000000000000000000 ) ) ;
#1090 = CIRCLE ( 'NONE', #67, 2.750000000000000000 ) ;
#1091 = CARTESIAN_POINT ( 'NONE',  ( 2.190655351105491810, 0.000000000000000000, 5.271245762022948583E-16 ) ) ;
#1092 = CIRCLE ( 'NONE', #676, 1.734314575050762697 ) ;
#1093 = VECTOR ( 'NONE', #112, 999.9999999999998863 ) ;
#1094 = ORIENTED_EDGE ( 'NONE', *, *, #780, .T. ) ;
#1095 = CARTESIAN_POINT ( 'NONE',  ( 1.981370849898478115, 0.000000000000000000, 0.000000000000000000 ) ) ;
#1096 = EDGE_CURVE ( 'NONE', #117, #853, #634, .T. ) ;
#1097 = CARTESIAN_POINT ( 'NONE',  ( 1.824605185108744143, 0.5902855648787990184, -0.09076882178340506258 ) ) ;
#1098 = DIRECTION ( 'NONE',  ( 0.8949343913984351140, 0.4461977533474507651, -4.827312494458588428E-17 ) ) ;
#1099 = ORIENTED_EDGE ( 'NONE', *, *, #242, .T. ) ;
#1100 = DIRECTION ( 'NONE',  ( 0.000000000000000000, 0.000000000000000000, 1.000000000000000000 ) ) ;
#1101 = DIRECTION ( 'NONE',  ( -1.000000000000000000, -0.000000000000000000, -0.000000000000000000 ) ) ;
#1102 = CARTESIAN_POINT ( 'NONE',  ( 0.000000000000000000, 0.5901575479162630700, 0.3699999999999999400 ) ) ;
#1103 = VERTEX_POINT ( 'NONE', #952 ) ;
#1104 = FACE_OUTER_BOUND ( 'NONE', #1082, .T. ) ;
#1105 = EDGE_LOOP ( 'NONE', ( #6, #598, #715, #521 ) ) ;
#1106 = CARTESIAN_POINT ( 'NONE',  ( 2.009999999999999787, 0.000000000000000000, 0.000000000000000000 ) ) ;
#1107 = EDGE_CURVE ( 'NONE', #178, #682, #1031, .T. ) ;
#1108 = AXIS2_PLACEMENT_3D ( 'NONE', #531, #55, #1145 ) ;
#1109 = COLOUR_RGB ( '',1.000000000000000000, 0.9490196078431372140, 0.9098039215686274384 ) ;
#1110 = VERTEX_POINT ( 'NONE', #214 ) ;
#1111 = DIRECTION ( 'NONE',  ( 0.000000000000000000, 0.000000000000000000, 1.000000000000000000 ) ) ;
#1112 = AXIS2_PLACEMENT_3D ( 'NONE', #279, #372, #191 ) ;
#1113 = ORIENTED_EDGE ( 'NONE', *, *, #660, .F. ) ;
#1114 = CONICAL_SURFACE ( 'NONE', #711, 0.5559999999999994946, 0.06981317007976590994 ) ;
#1115 = CARTESIAN_POINT ( 'NONE',  ( 0.000000000000000000, 1.500000000000000000, 0.3699999999999999956 ) ) ;
#1116 = EDGE_CURVE ( 'NONE', #937, #420, #1150, .T. ) ;
#1117 = EDGE_LOOP ( 'NONE', ( #765, #860, #155 ) ) ;
#1118 = DIRECTION ( 'NONE',  ( -1.000000000000000000, -0.000000000000000000, -0.000000000000000000 ) ) ;
#1119 =( BOUNDED_CURVE ( )  B_SPLINE_CURVE ( 3, ( #1180, #271, #188, #542 ),
 .UNSPECIFIED., .F., .F. ) 
 B_SPLINE_CURVE_WITH_KNOTS ( ( 4, 4 ),
 ( 5.754796812636906012, 6.811573801722266452 ),
 .UNSPECIFIED. ) 
 CURVE ( )  GEOMETRIC_REPRESENTATION_ITEM ( )  RATIONAL_B_SPLINE_CURVE ( ( 1.000000000000000000, 0.9090804130448409959, 0.9090804130448409959, 1.000000000000000000 ) ) 
 REPRESENTATION_ITEM ( '' )  );
#1120 = ORIENTED_EDGE ( 'NONE', *, *, #1172, .T. ) ;
#1121 = DIRECTION ( 'NONE',  ( -1.000000000000000000, -0.000000000000000000, -0.000000000000000000 ) ) ;
#1122 = ORIENTED_EDGE ( 'NONE', *, *, #88, .F. ) ;
#1123 = DIRECTION ( 'NONE',  ( 1.000000000000000000, 0.000000000000000000, 0.000000000000000000 ) ) ;
#1124 = ORIENTED_EDGE ( 'NONE', *, *, #207, .F. ) ;
#1125 = CARTESIAN_POINT ( 'NONE',  ( 0.000000000000000000, -0.5901575479162630700, -0.3699999999999998845 ) ) ;
#1126 = EDGE_CURVE ( 'NONE', #1045, #840, #941, .T. ) ;
#1127 = DIRECTION ( 'NONE',  ( -1.000000000000000000, -0.000000000000000000, -0.000000000000000000 ) ) ;
#1128 = ORIENTED_EDGE ( 'NONE', *, *, #57, .F. ) ;
#1129 = CARTESIAN_POINT ( 'NONE',  ( 0.000000000000000000, 0.000000000000000000, 0.000000000000000000 ) ) ;
#1130 = AXIS2_PLACEMENT_3D ( 'NONE', #829, #9, #375 ) ;
#1131 = ORIENTED_EDGE ( 'NONE', *, *, #25, .T. ) ;
#1132 = DIRECTION ( 'NONE',  ( 0.000000000000000000, -3.491481338843133355E-15, 1.000000000000000000 ) ) ;
#1133 = AXIS2_PLACEMENT_3D ( 'NONE', #56, #593, #333 ) ;
#1134 = EDGE_CURVE ( 'NONE', #394, #672, #62, .T. ) ;
#1135 = AXIS2_PLACEMENT_3D ( 'NONE', #17, #647, #636 ) ;
#1136 = DIRECTION ( 'NONE',  ( 0.000000000000000000, 0.000000000000000000, 1.000000000000000000 ) ) ;
#1137 = CARTESIAN_POINT ( 'NONE',  ( 8.000000000000000000, 0.000000000000000000, 1.500000000000000000 ) ) ;
#1138 = DIRECTION ( 'NONE',  ( 0.8949343913984499910, 1.557891129246252035E-15, -0.4461977533474210666 ) ) ;
#1139 = ORIENTED_EDGE ( 'NONE', *, *, #568, .T. ) ;
#1140 = CARTESIAN_POINT ( 'NONE',  ( 2.009999999999999787, -0.3699999999999986633, -0.4150132528004382704 ) ) ;
#1141 = CARTESIAN_POINT ( 'NONE',  ( 8.000000000000000000, 0.000000000000000000, 0.000000000000000000 ) ) ;
#1142 = EDGE_CURVE ( 'NONE', #209, #21, #946, .T. ) ;
#1143 = DIRECTION ( 'NONE',  ( 2.731943609379471477E-17, -1.088881891980488709E-16, -1.000000000000000000 ) ) ;
#1144 = ORIENTED_EDGE ( 'NONE', *, *, #299, .F. ) ;
#1145 = DIRECTION ( 'NONE',  ( 0.000000000000000000, 0.000000000000000000, 1.000000000000000000 ) ) ;
#1146 = LINE ( 'NONE', #196, #1074 ) ;
#1147 = ADVANCED_FACE ( 'NONE', ( #224 ), #760, .F. ) ;
#1148 = CARTESIAN_POINT ( 'NONE',  ( 2.009999999999999787, -0.4978511354034169112, -0.3699999999999999956 ) ) ;
#1149 = FILL_AREA_STYLE ('',( #806 ) ) ;
#1150 = B_SPLINE_CURVE_WITH_KNOTS ( 'NONE', 3,
 ( #571, #306, #666, #34 ),
 .UNSPECIFIED., .F., .F.,
 ( 4, 4 ),
 ( 0.001380840031772739536, 0.003398373201762473587 ),
 .UNSPECIFIED. ) ;
#1151 = EDGE_LOOP ( 'NONE', ( #692, #953, #257, #93, #530, #623 ) ) ;
#1152 = LINE ( 'NONE', #887, #1019 ) ;
#1153 = CIRCLE ( 'NONE', #482, 2.750000000000000000 ) ;
#1154 = CIRCLE ( 'NONE', #264, 0.5559999999999994946 ) ;
#1155 = LINE ( 'NONE', #1071, #449 ) ;
#1156 = AXIS2_PLACEMENT_3D ( 'NONE', #533, #85, #342 ) ;
#1157 = CARTESIAN_POINT ( 'NONE',  ( 2.009999999999999787, -0.4978511354034170222, 0.3700000000000001066 ) ) ;
#1158 = SHAPE_DEFINITION_REPRESENTATION ( #812, #229 ) ;
#1159 = VERTEX_POINT ( 'NONE', #1027 ) ;
#1160 = DIRECTION ( 'NONE',  ( 0.000000000000000000, 0.000000000000000000, 1.000000000000000000 ) ) ;
#1161 = LINE ( 'NONE', #179, #523 ) ;
#1162 = CARTESIAN_POINT ( 'NONE',  ( 2.009999999999999787, -0.4978511354034169112, -0.3699999999999999956 ) ) ;
#1163 = ORIENTED_EDGE ( 'NONE', *, *, #407, .T. ) ;
#1164 = CARTESIAN_POINT ( 'NONE',  ( 2.009999999999999787, 0.4978511354035000669, -0.3699999999999999956 ) ) ;
#1165 = EDGE_CURVE ( 'NONE', #617, #743, #303, .T. ) ;
#1166 = CARTESIAN_POINT ( 'NONE',  ( 2.009999999999999787, -0.4150132528004369936, 0.3700000000000001066 ) ) ;
#1167 = LINE ( 'NONE', #633, #68 ) ;
#1168 = ORIENTED_EDGE ( 'NONE', *, *, #884, .F. ) ;
#1169 = CARTESIAN_POINT ( 'NONE',  ( 1.981370849898478115, 0.000000000000000000, 2.299999999999999822 ) ) ;
#1170 = CYLINDRICAL_SURFACE ( 'NONE', #246, 2.750000000000000000 ) ;
#1171 = AXIS2_PLACEMENT_3D ( 'NONE', #156, #522, #518 ) ;
#1172 = EDGE_CURVE ( 'NONE', #200, #667, #671, .T. ) ;
#1173 = CIRCLE ( 'NONE', #978, 1.500000000000000000 ) ;
#1174 = PRODUCT_DEFINITION_CONTEXT ( 'detailed design', #631, 'design' ) ;
#1175 = AXIS2_PLACEMENT_3D ( 'NONE', #269, #693, #263 ) ;
#1176 = DIRECTION ( 'NONE',  ( -0.9975640502598247528, 0.000000000000000000, 0.06975647374411804436 ) ) ;
#1177 = EDGE_LOOP ( 'NONE', ( #16, #646 ) ) ;
#1178 = CARTESIAN_POINT ( 'NONE',  ( 0.000000000000000000, -0.3699999999999948885, -1.500000000000001332 ) ) ;
#1179 = LINE ( 'NONE', #1055, #318 ) ;
#1180 = CARTESIAN_POINT ( 'NONE',  ( 2.009999999999999787, -0.4978511354034169112, 0.2475484739955553792 ) ) ;
#1181 = ADVANCED_FACE ( 'NONE', ( #39 ), #585, .T. ) ;
#1182 = EDGE_LOOP ( 'NONE', ( #732, #28, #788, #478, #1032, #23 ) ) ;
#1183 = FACE_OUTER_BOUND ( 'NONE', #215, .T. ) ;
ENDSEC;
END-ISO-10303-21;
