ISO-10303-21;
HEADER;
FILE_DESCRIPTION (( 'STEP AP214' ),
    '1' );
FILE_NAME ('D1~SC-70-3_L2.0-W1.3-P0.65-LS2.1-BL~SC-70-3_L2.0-W1.3-P0.65-LS2.1-BL~8fiY.step.STEP',
    '2026-07-13T19:25:59',
    ( '' ),
    ( '' ),
    'SwSTEP 2.0',
    'SolidWorks 2025',
    '' );
FILE_SCHEMA (( 'AUTOMOTIVE_DESIGN' ));
ENDSEC;

DATA;
#1 = AXIS2_PLACEMENT_3D ( 'NONE', #40, #10, #43 ) ;
#2 =( NAMED_UNIT ( * ) SI_UNIT ( $, .STERADIAN. ) SOLID_ANGLE_UNIT ( ) );
#3 = PRODUCT ( 'SC-70-3_L2.0-W1.3-P0.65-LS2.1-BL~SC-70-3_L2.0-W1.3-P0.65-LS2.1-BL~8fiY.step', 'SC-70-3_L2.0-W1.3-P0.65-LS2.1-BL~SC-70-3_L2.0-W1.3-P0.65-LS2.1-BL~8fiY.step', '', ( #45 ) ) ;
#4 = SHAPE_DEFINITION_REPRESENTATION ( #27, #53 ) ;
#5 = PROPERTY_DEFINITION ('external definition','', #29 ) ;
#6 = APPLICATION_PROTOCOL_DEFINITION ( 'draft international standard', 'automotive_design', 1998, #26 ) ;
#7 = AXIS2_PLACEMENT_3D ( 'NONE', #8, #30, #25 ) ;
#8 = CARTESIAN_POINT ( 'NONE',  ( 0.000000000000000000, 0.000000000000000000, 0.000000000000000000 ) ) ;
#9 = PRODUCT_RELATED_PRODUCT_CATEGORY ( 'part', '', ( #51 ) ) ;
#10 = DIRECTION ( 'NONE',  ( 2.077461250111562526E-48, 0.000000000000000000, 1.000000000000000444 ) ) ;
#11 = APPLIED_DOCUMENT_REFERENCE ( #29,'',( #37) ) ;
#12 =( REPRESENTATION_RELATIONSHIP ('NONE','NONE', #63, #53 ) REPRESENTATION_RELATIONSHIP_WITH_TRANSFORMATION ( #46 )SHAPE_REPRESENTATION_RELATIONSHIP( ) );
#13 = ROLE_ASSOCIATION ( #59, #11 ) ;
#14 =( GEOMETRIC_REPRESENTATION_CONTEXT ( 3 ) GLOBAL_UNCERTAINTY_ASSIGNED_CONTEXT ( ( #55 ) ) GLOBAL_UNIT_ASSIGNED_CONTEXT ( ( #16, #38, #49 ) ) REPRESENTATION_CONTEXT ( 'NONE', 'WORKASPACE' ) );
#15 = PROPERTY_DEFINITION ('document property','', #29 ) ;
#16 =( LENGTH_UNIT ( ) NAMED_UNIT ( * ) SI_UNIT ( .MILLI., .METRE. ) );
#17 = APPLICATION_PROTOCOL_DEFINITION ( 'draft international standard', 'automotive_design', 1998, #54 ) ;
#18 = SHAPE_DEFINITION_REPRESENTATION ( #36, #63 ) ;
#19 = AXIS2_PLACEMENT_3D ( 'NONE', #23, #35, #24 ) ;
#20 = PRODUCT_DEFINITION_CONTEXT ( 'detailed design', #26, 'design' ) ;
#21 = PRODUCT_DEFINITION ( 'General', '', #39, #44 ) ;
#22 =( LENGTH_UNIT ( ) NAMED_UNIT ( * ) SI_UNIT ( .MILLI., .METRE. ) );
#23 = CARTESIAN_POINT ( 'NONE',  ( 0.000000000000000000, 0.000000000000000000, 0.000000000000000000 ) ) ;
#24 = DIRECTION ( 'NONE',  ( 1.000000000000000000, 0.000000000000000000, 0.000000000000000000 ) ) ;
#25 = DIRECTION ( 'NONE',  ( 1.000000000000000000, 0.000000000000000000, 0.000000000000000000 ) ) ;
#26 = APPLICATION_CONTEXT ( 'automotive_design' ) ;
#27 = PRODUCT_DEFINITION_SHAPE ( 'NONE', 'NONE',  #37 ) ;
#28 = DOCUMENT_TYPE ( 'geometry' ) ;
#29 = DOCUMENT_FILE ( 'SC-70-3_L2.0-W1.3-P0.65-LS2.1-BL~SC-70-3_L2.0-W1.3-P0.65-LS2.1-BL~8fiY.step.STEP' , '', '', #28, '' ,$ ) ;
#30 = DIRECTION ( 'NONE',  ( 0.000000000000000000, 0.000000000000000000, 1.000000000000000000 ) ) ;
#31 = APPLICATION_PROTOCOL_DEFINITION ( 'draft international standard', 'automotive_design', 1998, #50 ) ;
#32 = PRODUCT_CONTEXT ( 'NONE', #50, 'mechanical' ) ;
#33 = CONTEXT_DEPENDENT_SHAPE_REPRESENTATION ( #12, #52 ) ;
#34 = PROPERTY_DEFINITION_REPRESENTATION ( #15, #53 ) ;
#35 = DIRECTION ( 'NONE',  ( 0.000000000000000000, 0.000000000000000000, 1.000000000000000000 ) ) ;
#36 = PRODUCT_DEFINITION_SHAPE ( 'NONE', 'NONE',  #21 ) ;
#37 = PRODUCT_DEFINITION ( 'General', '', #42, #20 ) ;
#38 =( NAMED_UNIT ( * ) PLANE_ANGLE_UNIT ( ) SI_UNIT ( $, .RADIAN. ) );
#39 = PRODUCT_DEFINITION_FORMATION_WITH_SPECIFIED_SOURCE ( 'Symmetric', '', #51, .NOT_KNOWN. ) ;
#40 = CARTESIAN_POINT ( 'NONE',  ( 0.000000000000000000, 0.000000000000000000, 0.000000000000000000 ) ) ;
#41 = PRODUCT_RELATED_PRODUCT_CATEGORY ( 'part', '', ( #3 ) ) ;
#42 = PRODUCT_DEFINITION_FORMATION_WITH_SPECIFIED_SOURCE ( 'Symmetric', '', #3, .NOT_KNOWN. ) ;
#43 = DIRECTION ( 'NONE',  ( 1.000000000000000000, 0.000000000000000000, 2.077461250111562526E-48 ) ) ;
#44 = PRODUCT_DEFINITION_CONTEXT ( 'detailed design', #54, 'design' ) ;
#45 = PRODUCT_CONTEXT ( 'NONE', #64, 'mechanical' ) ;
#46 = ITEM_DEFINED_TRANSFORMATION ( 'NONE', 'NONE', #1,  #19 ) ;
#47 = PROPERTY_DEFINITION_REPRESENTATION ( #5, #53 ) ;
#48 =( GEOMETRIC_REPRESENTATION_CONTEXT ( 3 ) GLOBAL_UNCERTAINTY_ASSIGNED_CONTEXT ( ( #62 ) ) GLOBAL_UNIT_ASSIGNED_CONTEXT ( ( #22, #58, #2 ) ) REPRESENTATION_CONTEXT ( 'NONE', 'WORKASPACE' ) );
#49 =( NAMED_UNIT ( * ) SI_UNIT ( $, .STERADIAN. ) SOLID_ANGLE_UNIT ( ) );
#50 = APPLICATION_CONTEXT ( 'automotive_design' ) ;
#51 = PRODUCT ( 'D1~SC-70-3_L2.0-W1.3-P0.65-LS2.1-BL~SC-70-3_L2.0-W1.3-P0.65-LS2.1-BL~8fiY.step', 'D1~SC-70-3_L2.0-W1.3-P0.65-LS2.1-BL~SC-70-3_L2.0-W1.3-P0.65-LS2.1-BL~8fiY.step', '', ( #32 ) ) ;
#52 = PRODUCT_DEFINITION_SHAPE ( 'NONE', 'NONE',  #65 ) ;
#53 = SHAPE_REPRESENTATION ( 'SC-70-3_L2.0-W1.3-P0.65-LS2.1-BL~SC-70-3_L2.0-W1.3-P0.65-LS2.1-BL~8fiY.step', ( #19 ), #48 ) ;
#54 = APPLICATION_CONTEXT ( 'automotive_design' ) ;
#55 = UNCERTAINTY_MEASURE_WITH_UNIT (LENGTH_MEASURE( 1.000000000000000082E-05 ), #16, 'distance_accuracy_value', 'NONE');
#56 = EXTERNAL_SOURCE (IDENTIFIER('') ) ;
#57 = IDENTIFICATION_ROLE ( 'external document id and location', $) ;
#58 =( NAMED_UNIT ( * ) PLANE_ANGLE_UNIT ( ) SI_UNIT ( $, .RADIAN. ) );
#59 = OBJECT_ROLE ('mandatory',$ ) ;
#60 = APPLICATION_PROTOCOL_DEFINITION ( 'draft international standard', 'automotive_design', 1998, #64 ) ;
#61 = APPLIED_EXTERNAL_IDENTIFICATION_ASSIGNMENT ( 'SC-70-3_L2.0-W1.3-P0.65-LS2.1-BL~SC-70-3_L2.0-W1.3-P0.65-LS2.1-BL~8fiY.step.STEP' , #57, #56,( #29) ) ;
#62 = UNCERTAINTY_MEASURE_WITH_UNIT (LENGTH_MEASURE( 1.000000000000000082E-05 ), #22, 'distance_accuracy_value', 'NONE');
#63 = SHAPE_REPRESENTATION ( 'D1~SC-70-3_L2.0-W1.3-P0.65-LS2.1-BL~SC-70-3_L2.0-W1.3-P0.65-LS2.1-BL~8fiY.step', ( #7, #1 ), #14 ) ;
#64 = APPLICATION_CONTEXT ( 'automotive_design' ) ;
#65 = NEXT_ASSEMBLY_USAGE_OCCURRENCE ( 'NAUO9', ' ', ' ', #21, #37, $ ) ;
ENDSEC;
END-ISO-10303-21;
