ISO-10303-21;
HEADER;
FILE_DESCRIPTION (( 'STEP AP214' ),
    '1' );
FILE_NAME ('Heatsink RAK 1Watt 70x22.STEP',
    '2026-07-06T21:55:02',
    ( '' ),
    ( '' ),
    'SwSTEP 2.0',
    'SolidWorks 2025',
    '' );
FILE_SCHEMA (( 'AUTOMOTIVE_DESIGN' ));
ENDSEC;

DATA;
#1 = DIRECTION ( 'NONE',  ( 0.000000000000000000, 0.000000000000000000, 1.000000000000000000 ) ) ;
#2 = DIRECTION ( 'NONE',  ( 1.000000000000000000, 0.000000000000000000, 0.000000000000000000 ) ) ;
#3 = ORIENTED_EDGE ( 'NONE', *, *, #397, .F. ) ;
#4 = DIRECTION ( 'NONE',  ( -0.000000000000000000, 0.000000000000000000, 1.000000000000000000 ) ) ;
#5 = VECTOR ( 'NONE', #484, 1000.000000000000000 ) ;
#6 = PRESENTATION_LAYER_ASSIGNMENT (  '', '', ( #53 ) ) ;
#7 = ORIENTED_EDGE ( 'NONE', *, *, #221, .T. ) ;
#8 = ORIENTED_EDGE ( 'NONE', *, *, #94, .F. ) ;
#9 = DIRECTION ( 'NONE',  ( 0.000000000000000000, 0.000000000000000000, -1.000000000000000000 ) ) ;
#10 = CARTESIAN_POINT ( 'NONE',  ( 0.000000000000000000, 3.000000000000000000, 0.000000000000000000 ) ) ;
#11 = EDGE_CURVE ( 'NONE', #478, #256, #115, .T. ) ;
#12 = ORIENTED_EDGE ( 'NONE', *, *, #504, .T. ) ;
#13 = FACE_OUTER_BOUND ( 'NONE', #514, .T. ) ;
#14 = CARTESIAN_POINT ( 'NONE',  ( 0.000000000000000000, 2.000000000000000000, -18.09524673124269256 ) ) ;
#15 = VERTEX_POINT ( 'NONE', #96 ) ;
#16 = FACE_OUTER_BOUND ( 'NONE', #603, .T. ) ;
#17 = CARTESIAN_POINT ( 'NONE',  ( 0.000000000000000000, 0.000000000000000000, -22.00000000000000000 ) ) ;
#18 = AXIS2_PLACEMENT_3D ( 'NONE', #544, #433, #670 ) ;
#19 = VECTOR ( 'NONE', #275, 1000.000000000000000 ) ;
#20 = ORIENTED_EDGE ( 'NONE', *, *, #449, .F. ) ;
#21 = FACE_OUTER_BOUND ( 'NONE', #686, .T. ) ;
#22 = EDGE_CURVE ( 'NONE', #582, #319, #264, .T. ) ;
#23 = LINE ( 'NONE', #698, #189 ) ;
#24 = DIRECTION ( 'NONE',  ( 0.000000000000000000, -1.000000000000000000, 0.000000000000000000 ) ) ;
#25 = PLANE ( 'NONE',  #690 ) ;
#26 = CARTESIAN_POINT ( 'NONE',  ( 0.000000000000000000, 0.000000000000000000, 0.000000000000000000 ) ) ;
#27 = DIRECTION ( 'NONE',  ( 0.000000000000000000, 0.000000000000000000, -1.000000000000000000 ) ) ;
#28 = VECTOR ( 'NONE', #205, 1000.000000000000000 ) ;
#29 = CARTESIAN_POINT ( 'NONE',  ( 70.00000000000000000, 2.000000000000000000, -8.860163684228403724 ) ) ;
#30 = CARTESIAN_POINT ( 'NONE',  ( 70.00000000000000000, 2.000000000000000000, -11.00000000000000000 ) ) ;
#31 = ORIENTED_EDGE ( 'NONE', *, *, #618, .F. ) ;
#32 = LINE ( 'NONE', #591, #401 ) ;
#33 = CARTESIAN_POINT ( 'NONE',  ( 0.000000000000000000, 2.000000000000000000, -20.19754205901830346 ) ) ;
#34 = LINE ( 'NONE', #431, #215 ) ;
#35 = FILL_AREA_STYLE ('',( #300 ) ) ;
#36 = CARTESIAN_POINT ( 'NONE',  ( 0.000000000000000000, 2.000000000000000000, -8.860163684228403724 ) ) ;
#37 = CARTESIAN_POINT ( 'NONE',  ( 70.00000000000000000, 3.000000000000000000, -11.00000000000000000 ) ) ;
#38 = VECTOR ( 'NONE', #715, 1000.000000000000000 ) ;
#39 = EDGE_LOOP ( 'NONE', ( #682, #48, #31, #132 ) ) ;
#40 = CARTESIAN_POINT ( 'NONE',  ( 70.00000000000000000, 0.000000000000000000, 0.000000000000000000 ) ) ;
#41 = DIRECTION ( 'NONE',  ( 0.000000000000000000, 0.000000000000000000, 1.000000000000000000 ) ) ;
#42 = EDGE_CURVE ( 'NONE', #676, #582, #34, .T. ) ;
#43 = ORIENTED_EDGE ( 'NONE', *, *, #221, .F. ) ;
#44 = EDGE_LOOP ( 'NONE', ( #575, #370, #71, #671 ) ) ;
#45 = PLANE ( 'NONE',  #536 ) ;
#46 = CARTESIAN_POINT ( 'NONE',  ( 0.000000000000000000, 2.000000000000000000, -3.979835244749301726 ) ) ;
#47 = EDGE_CURVE ( 'NONE', #386, #608, #312, .T. ) ;
#48 = ORIENTED_EDGE ( 'NONE', *, *, #529, .F. ) ;
#49 = DIRECTION ( 'NONE',  ( -0.000000000000000000, 1.000000000000000000, -0.000000000000000000 ) ) ;
#50 = ORIENTED_EDGE ( 'NONE', *, *, #554, .T. ) ;
#51 = PRODUCT_RELATED_PRODUCT_CATEGORY ( 'part', '', ( #192 ) ) ;
#52 = VECTOR ( 'NONE', #592, 1000.000000000000000 ) ;
#53 = STYLED_ITEM ( 'NONE', ( #432 ), #621 ) ;
#54 = CARTESIAN_POINT ( 'NONE',  ( 0.000000000000000000, 3.000000000000000000, -20.19754205901830346 ) ) ;
#55 = DIRECTION ( 'NONE',  ( -0.000000000000000000, 1.000000000000000000, -0.000000000000000000 ) ) ;
#56 = VERTEX_POINT ( 'NONE', #37 ) ;
#57 = LINE ( 'NONE', #607, #250 ) ;
#58 = ORIENTED_EDGE ( 'NONE', *, *, #241, .F. ) ;
#59 = SHAPE_DEFINITION_REPRESENTATION ( #417, #212 ) ;
#60 = DIRECTION ( 'NONE',  ( -1.000000000000000000, 0.000000000000000000, -0.000000000000000000 ) ) ;
#61 = VECTOR ( 'NONE', #209, 1000.000000000000000 ) ;
#62 = VECTOR ( 'NONE', #475, 1000.000000000000000 ) ;
#63 = FACE_OUTER_BOUND ( 'NONE', #306, .T. ) ;
#64 = EDGE_CURVE ( 'NONE', #550, #112, #380, .T. ) ;
#65 = ORIENTED_EDGE ( 'NONE', *, *, #179, .T. ) ;
#66 = DIRECTION ( 'NONE',  ( -1.000000000000000000, 0.000000000000000000, -0.000000000000000000 ) ) ;
#67 = DIRECTION ( 'NONE',  ( -0.000000000000000000, 1.000000000000000000, -0.000000000000000000 ) ) ;
#68 = VERTEX_POINT ( 'NONE', #374 ) ;
#69 = CARTESIAN_POINT ( 'NONE',  ( 0.000000000000000000, 2.000000000000000000, -6.232294524508883882 ) ) ;
#70 = LINE ( 'NONE', #190, #106 ) ;
#71 = ORIENTED_EDGE ( 'NONE', *, *, #146, .F. ) ;
#72 = EDGE_CURVE ( 'NONE', #530, #412, #495, .T. ) ;
#73 = LINE ( 'NONE', #515, #476 ) ;
#74 = VECTOR ( 'NONE', #403, 1000.000000000000000 ) ;
#75 = CARTESIAN_POINT ( 'NONE',  ( 0.000000000000000000, 3.000000000000000000, 0.000000000000000000 ) ) ;
#76 = ORIENTED_EDGE ( 'NONE', *, *, #654, .F. ) ;
#77 = PLANE ( 'NONE',  #669 ) ;
#78 = VERTEX_POINT ( 'NONE', #666 ) ;
#79 = PLANE ( 'NONE',  #570 ) ;
#80 = DIRECTION ( 'NONE',  ( 0.000000000000000000, 0.000000000000000000, -1.000000000000000000 ) ) ;
#81 = EDGE_CURVE ( 'NONE', #112, #394, #552, .T. ) ;
#82 = ORIENTED_EDGE ( 'NONE', *, *, #282, .T. ) ;
#83 = LINE ( 'NONE', #188, #606 ) ;
#84 = CARTESIAN_POINT ( 'NONE',  ( 70.00000000000000000, 3.000000000000000000, 0.000000000000000000 ) ) ;
#85 = EDGE_CURVE ( 'NONE', #631, #709, #267, .T. ) ;
#86 = AXIS2_PLACEMENT_3D ( 'NONE', #649, #314, #587 ) ;
#87 = ORIENTED_EDGE ( 'NONE', *, *, #688, .F. ) ;
#88 = PLANE ( 'NONE',  #487 ) ;
#89 = ORIENTED_EDGE ( 'NONE', *, *, #720, .T. ) ;
#90 = LINE ( 'NONE', #40, #389 ) ;
#91 = FACE_OUTER_BOUND ( 'NONE', #334, .T. ) ;
#92 = DIRECTION ( 'NONE',  ( 0.000000000000000000, 0.000000000000000000, 1.000000000000000000 ) ) ;
#93 = FACE_OUTER_BOUND ( 'NONE', #283, .T. ) ;
#94 = EDGE_CURVE ( 'NONE', #277, #709, #70, .T. ) ;
#95 = DIRECTION ( 'NONE',  ( -1.000000000000000000, -0.000000000000000000, -0.000000000000000000 ) ) ;
#96 = CARTESIAN_POINT ( 'NONE',  ( 70.00000000000000000, 0.000000000000000000, 0.000000000000000000 ) ) ;
#97 = AXIS2_PLACEMENT_3D ( 'NONE', #149, #373, #301 ) ;
#98 = CARTESIAN_POINT ( 'NONE',  ( 0.000000000000000000, 2.000000000000000000, -6.232294524508883882 ) ) ;
#99 = DIRECTION ( 'NONE',  ( 1.000000000000000000, 0.000000000000000000, 0.000000000000000000 ) ) ;
#100 = ORIENTED_EDGE ( 'NONE', *, *, #508, .T. ) ;
#101 =( NAMED_UNIT ( * ) SI_UNIT ( $, .STERADIAN. ) SOLID_ANGLE_UNIT ( ) );
#102 = DIRECTION ( 'NONE',  ( -1.000000000000000000, 0.000000000000000000, -0.000000000000000000 ) ) ;
#103 = EDGE_CURVE ( 'NONE', #124, #631, #466, .T. ) ;
#104 = ORIENTED_EDGE ( 'NONE', *, *, #346, .F. ) ;
#105 = DIRECTION ( 'NONE',  ( 0.000000000000000000, 0.000000000000000000, -1.000000000000000000 ) ) ;
#106 = VECTOR ( 'NONE', #641, 1000.000000000000000 ) ;
#107 = MECHANICAL_DESIGN_GEOMETRIC_PRESENTATION_REPRESENTATION (  '', ( #488 ), #643 ) ;
#108 = LINE ( 'NONE', #325, #728 ) ;
#109 = ORIENTED_EDGE ( 'NONE', *, *, #407, .F. ) ;
#110 = ADVANCED_FACE ( 'NONE', ( #345 ), #130, .T. ) ;
#111 = DIRECTION ( 'NONE',  ( -1.000000000000000000, -0.000000000000000000, -0.000000000000000000 ) ) ;
#112 = VERTEX_POINT ( 'NONE', #349 ) ;
#113 = CARTESIAN_POINT ( 'NONE',  ( 0.000000000000000000, 3.000000000000000000, 0.000000000000000000 ) ) ;
#114 = ADVANCED_FACE ( 'NONE', ( #63 ), #25, .F. ) ;
#115 = LINE ( 'NONE', #507, #727 ) ;
#116 = VERTEX_POINT ( 'NONE', #135 ) ;
#117 = DIRECTION ( 'NONE',  ( 1.000000000000000000, 0.000000000000000000, 0.000000000000000000 ) ) ;
#118 = VECTOR ( 'NONE', #451, 1000.000000000000000 ) ;
#119 = LINE ( 'NONE', #341, #399 ) ;
#120 = EDGE_LOOP ( 'NONE', ( #238, #724, #191, #234 ) ) ;
#121 = APPLICATION_PROTOCOL_DEFINITION ( 'draft international standard', 'automotive_design', 1998, #562 ) ;
#122 = CARTESIAN_POINT ( 'NONE',  ( 0.000000000000000000, 2.000000000000000000, -13.66541014771551232 ) ) ;
#123 = DIRECTION ( 'NONE',  ( 1.000000000000000000, 0.000000000000000000, 0.000000000000000000 ) ) ;
#124 = VERTEX_POINT ( 'NONE', #244 ) ;
#125 = CARTESIAN_POINT ( 'NONE',  ( 70.00000000000000000, 3.000000000000000000, -15.91786942747509492 ) ) ;
#126 = CARTESIAN_POINT ( 'NONE',  ( 0.000000000000000000, 2.000000000000000000, -8.860163684228403724 ) ) ;
#127 = EDGE_LOOP ( 'NONE', ( #214, #199, #556, #20 ) ) ;
#128 = CARTESIAN_POINT ( 'NONE',  ( 0.000000000000000000, 2.000000000000000000, -15.91786942747509492 ) ) ;
#129 = CLOSED_SHELL ( 'NONE', ( #543, #276, #138, #114, #266, #513, #161, #297, #342, #134, #423, #444, #645, #564, #382, #110, #245, #699, #588, #453, #434, #223 ) ) ;
#130 = PLANE ( 'NONE',  #413 ) ;
#131 = VECTOR ( 'NONE', #539, 1000.000000000000000 ) ;
#132 = ORIENTED_EDGE ( 'NONE', *, *, #574, .T. ) ;
#133 = CARTESIAN_POINT ( 'NONE',  ( 0.000000000000000000, 3.000000000000000000, 0.000000000000000000 ) ) ;
#134 = ADVANCED_FACE ( 'NONE', ( #585 ), #406, .T. ) ;
#135 = CARTESIAN_POINT ( 'NONE',  ( 0.000000000000000000, 3.000000000000000000, -6.232294524508883882 ) ) ;
#136 = ORIENTED_EDGE ( 'NONE', *, *, #707, .T. ) ;
#137 = DIRECTION ( 'NONE',  ( 1.000000000000000000, 0.000000000000000000, 0.000000000000000000 ) ) ;
#138 = ADVANCED_FACE ( 'NONE', ( #573 ), #295, .F. ) ;
#139 = FACE_OUTER_BOUND ( 'NONE', #517, .T. ) ;
#140 = ORIENTED_EDGE ( 'NONE', *, *, #508, .F. ) ;
#141 = CARTESIAN_POINT ( 'NONE',  ( 0.000000000000000000, 0.000000000000000000, 0.000000000000000000 ) ) ;
#142 = LINE ( 'NONE', #252, #329 ) ;
#143 = AXIS2_PLACEMENT_3D ( 'NONE', #170, #24, #185 ) ;
#144 = ORIENTED_EDGE ( 'NONE', *, *, #211, .F. ) ;
#145 = CARTESIAN_POINT ( 'NONE',  ( 0.000000000000000000, 3.000000000000000000, 0.000000000000000000 ) ) ;
#146 = EDGE_CURVE ( 'NONE', #412, #184, #568, .T. ) ;
#147 = ORIENTED_EDGE ( 'NONE', *, *, #479, .T. ) ;
#148 = ORIENTED_EDGE ( 'NONE', *, *, #286, .T. ) ;
#149 = CARTESIAN_POINT ( 'NONE',  ( 0.000000000000000000, 2.000000000000000000, -15.91786942747509492 ) ) ;
#150 = VERTEX_POINT ( 'NONE', #525 ) ;
#151 =( NAMED_UNIT ( * ) PLANE_ANGLE_UNIT ( ) SI_UNIT ( $, .RADIAN. ) );
#152 = DIRECTION ( 'NONE',  ( -1.000000000000000000, -0.000000000000000000, -0.000000000000000000 ) ) ;
#153 = VERTEX_POINT ( 'NONE', #298 ) ;
#154 = VECTOR ( 'NONE', #497, 1000.000000000000000 ) ;
#155 =( GEOMETRIC_REPRESENTATION_CONTEXT ( 3 ) GLOBAL_UNCERTAINTY_ASSIGNED_CONTEXT ( ( #567 ) ) GLOBAL_UNIT_ASSIGNED_CONTEXT ( ( #661, #310, #194 ) ) REPRESENTATION_CONTEXT ( 'NONE', 'WORKASPACE' ) );
#156 = DIRECTION ( 'NONE',  ( 0.000000000000000000, 0.000000000000000000, 1.000000000000000000 ) ) ;
#157 = LINE ( 'NONE', #387, #19 ) ;
#158 = EDGE_CURVE ( 'NONE', #277, #383, #23, .T. ) ;
#159 = ORIENTED_EDGE ( 'NONE', *, *, #81, .T. ) ;
#160 = DIRECTION ( 'NONE',  ( 0.000000000000000000, 0.000000000000000000, -1.000000000000000000 ) ) ;
#161 = ADVANCED_FACE ( 'NONE', ( #519 ), #577, .F. ) ;
#162 = EDGE_LOOP ( 'NONE', ( #82, #522, #706, #473 ) ) ;
#163 = CARTESIAN_POINT ( 'NONE',  ( 0.000000000000000000, 3.000000000000000000, -20.19754205901830346 ) ) ;
#164 = AXIS2_PLACEMENT_3D ( 'NONE', #186, #289, #701 ) ;
#165 = ORIENTED_EDGE ( 'NONE', *, *, #158, .F. ) ;
#166 =( NAMED_UNIT ( * ) PLANE_ANGLE_UNIT ( ) SI_UNIT ( $, .RADIAN. ) );
#167 = CARTESIAN_POINT ( 'NONE',  ( 70.00000000000000000, 2.000000000000000000, -3.979835244749301726 ) ) ;
#168 = EDGE_CURVE ( 'NONE', #242, #679, #240, .T. ) ;
#169 = EDGE_LOOP ( 'NONE', ( #89, #482, #50, #7 ) ) ;
#170 = CARTESIAN_POINT ( 'NONE',  ( 0.000000000000000000, 3.000000000000000000, 0.000000000000000000 ) ) ;
#171 = EDGE_LOOP ( 'NONE', ( #586, #660, #700, #458 ) ) ;
#172 = ORIENTED_EDGE ( 'NONE', *, *, #47, .F. ) ;
#173 = LINE ( 'NONE', #640, #448 ) ;
#174 = PRODUCT_DEFINITION_CONTEXT ( 'detailed design', #520, 'design' ) ;
#175 = LINE ( 'NONE', #183, #352 ) ;
#176 = ORIENTED_EDGE ( 'NONE', *, *, #193, .T. ) ;
#177 = LINE ( 'NONE', #402, #366 ) ;
#178 = VECTOR ( 'NONE', #684, 1000.000000000000000 ) ;
#179 = EDGE_CURVE ( 'NONE', #582, #153, #416, .T. ) ;
#180 = DIRECTION ( 'NONE',  ( 0.000000000000000000, -0.000000000000000000, -1.000000000000000000 ) ) ;
#181 = VERTEX_POINT ( 'NONE', #460 ) ;
#182 = LINE ( 'NONE', #635, #178 ) ;
#183 = CARTESIAN_POINT ( 'NONE',  ( 70.00000000000000000, 3.000000000000000000, 0.000000000000000000 ) ) ;
#184 = VERTEX_POINT ( 'NONE', #411 ) ;
#185 = DIRECTION ( 'NONE',  ( 0.000000000000000000, -0.000000000000000000, -1.000000000000000000 ) ) ;
#186 = CARTESIAN_POINT ( 'NONE',  ( 70.00000000000000000, 3.000000000000000000, 0.000000000000000000 ) ) ;
#187 = ORIENTED_EDGE ( 'NONE', *, *, #533, .T. ) ;
#188 = CARTESIAN_POINT ( 'NONE',  ( 70.00000000000000000, 2.000000000000000000, -13.66541014771551232 ) ) ;
#189 = VECTOR ( 'NONE', #457, 1000.000000000000000 ) ;
#190 = CARTESIAN_POINT ( 'NONE',  ( 0.000000000000000000, 3.000000000000000000, -22.00000000000000000 ) ) ;
#191 = ORIENTED_EDGE ( 'NONE', *, *, #168, .F. ) ;
#192 = PRODUCT ( 'Heatsink RAK 1Watt 70x22', 'Heatsink RAK 1Watt 70x22', '', ( #639 ) ) ;
#193 = EDGE_CURVE ( 'NONE', #150, #256, #175, .T. ) ;
#194 =( NAMED_UNIT ( * ) SI_UNIT ( $, .STERADIAN. ) SOLID_ANGLE_UNIT ( ) );
#195 = CARTESIAN_POINT ( 'NONE',  ( 0.000000000000000000, 2.000000000000000000, -11.00000000000000000 ) ) ;
#196 = ORIENTED_EDGE ( 'NONE', *, *, #42, .F. ) ;
#197 = PLANE ( 'NONE',  #461 ) ;
#198 = EDGE_CURVE ( 'NONE', #530, #638, #119, .T. ) ;
#199 = ORIENTED_EDGE ( 'NONE', *, *, #361, .F. ) ;
#200 = CARTESIAN_POINT ( 'NONE',  ( 0.000000000000000000, 3.000000000000000000, 0.000000000000000000 ) ) ;
#201 = PLANE ( 'NONE',  #337 ) ;
#202 = EDGE_CURVE ( 'NONE', #299, #492, #285, .T. ) ;
#203 = VECTOR ( 'NONE', #49, 1000.000000000000000 ) ;
#204 = VECTOR ( 'NONE', #228, 1000.000000000000000 ) ;
#205 = DIRECTION ( 'NONE',  ( -0.000000000000000000, 1.000000000000000000, -0.000000000000000000 ) ) ;
#206 = SURFACE_STYLE_USAGE ( .BOTH. , #257 ) ;
#207 = DIRECTION ( 'NONE',  ( 0.000000000000000000, -0.000000000000000000, -1.000000000000000000 ) ) ;
#208 = DIRECTION ( 'NONE',  ( 0.000000000000000000, 0.000000000000000000, 1.000000000000000000 ) ) ;
#209 = DIRECTION ( 'NONE',  ( -0.000000000000000000, -0.000000000000000000, -1.000000000000000000 ) ) ;
#210 = DIRECTION ( 'NONE',  ( -0.000000000000000000, -0.000000000000000000, -1.000000000000000000 ) ) ;
#211 = EDGE_CURVE ( 'NONE', #386, #309, #624, .T. ) ;
#212 = ADVANCED_BREP_SHAPE_REPRESENTATION ( 'Heatsink RAK 1Watt 70x22', ( #621, #317 ), #617 ) ;
#213 = DIRECTION ( 'NONE',  ( -1.000000000000000000, 0.000000000000000000, -0.000000000000000000 ) ) ;
#214 = ORIENTED_EDGE ( 'NONE', *, *, #330, .T. ) ;
#215 = VECTOR ( 'NONE', #92, 1000.000000000000000 ) ;
#216 = VECTOR ( 'NONE', #511, 1000.000000000000000 ) ;
#217 = ORIENTED_EDGE ( 'NONE', *, *, #637, .F. ) ;
#218 = EDGE_CURVE ( 'NONE', #181, #550, #420, .T. ) ;
#219 = CARTESIAN_POINT ( 'NONE',  ( 0.000000000000000000, 2.000000000000000000, -3.979835244749301726 ) ) ;
#220 = LINE ( 'NONE', #69, #429 ) ;
#221 = EDGE_CURVE ( 'NONE', #324, #696, #428, .T. ) ;
#222 = CARTESIAN_POINT ( 'NONE',  ( 0.000000000000000000, 3.000000000000000000, -15.91786942747509492 ) ) ;
#223 = ADVANCED_FACE ( 'NONE', ( #599 ), #708, .T. ) ;
#224 = ORIENTED_EDGE ( 'NONE', *, *, #47, .T. ) ;
#225 = LINE ( 'NONE', #563, #521 ) ;
#226 = ORIENTED_EDGE ( 'NONE', *, *, #533, .F. ) ;
#227 = ORIENTED_EDGE ( 'NONE', *, *, #72, .T. ) ;
#228 = DIRECTION ( 'NONE',  ( -0.000000000000000000, 1.000000000000000000, -0.000000000000000000 ) ) ;
#229 = CARTESIAN_POINT ( 'NONE',  ( 0.000000000000000000, 2.000000000000000000, -20.19754205901830346 ) ) ;
#230 = ORIENTED_EDGE ( 'NONE', *, *, #322, .T. ) ;
#231 = PRODUCT_DEFINITION ( 'UNKNOWN', '', #318, #174 ) ;
#232 = LINE ( 'NONE', #680, #216 ) ;
#233 = DIRECTION ( 'NONE',  ( -0.000000000000000000, 1.000000000000000000, -0.000000000000000000 ) ) ;
#234 = ORIENTED_EDGE ( 'NONE', *, *, #596, .T. ) ;
#235 = DIRECTION ( 'NONE',  ( 0.000000000000000000, 0.000000000000000000, -1.000000000000000000 ) ) ;
#236 = VECTOR ( 'NONE', #111, 1000.000000000000000 ) ;
#237 = DIRECTION ( 'NONE',  ( 0.000000000000000000, -1.000000000000000000, 0.000000000000000000 ) ) ;
#238 = ORIENTED_EDGE ( 'NONE', *, *, #11, .T. ) ;
#239 = CARTESIAN_POINT ( 'NONE',  ( 70.00000000000000000, 3.000000000000000000, -3.979835244749301726 ) ) ;
#240 = LINE ( 'NONE', #126, #642 ) ;
#241 = EDGE_CURVE ( 'NONE', #418, #608, #711, .T. ) ;
#242 = VERTEX_POINT ( 'NONE', #36 ) ;
#243 = DIRECTION ( 'NONE',  ( -0.000000000000000000, 1.000000000000000000, -0.000000000000000000 ) ) ;
#244 = CARTESIAN_POINT ( 'NONE',  ( 70.00000000000000000, 3.000000000000000000, -22.00000000000000000 ) ) ;
#245 = ADVANCED_FACE ( 'NONE', ( #308 ), #719, .F. ) ;
#246 = ORIENTED_EDGE ( 'NONE', *, *, #614, .F. ) ;
#247 = CARTESIAN_POINT ( 'NONE',  ( 0.000000000000000000, 2.000000000000000000, -15.91786942747509492 ) ) ;
#248 = VECTOR ( 'NONE', #436, 1000.000000000000000 ) ;
#249 = LINE ( 'NONE', #365, #378 ) ;
#250 = VECTOR ( 'NONE', #613, 1000.000000000000000 ) ;
#251 = ORIENTED_EDGE ( 'NONE', *, *, #103, .F. ) ;
#252 = CARTESIAN_POINT ( 'NONE',  ( 70.00000000000000000, 3.000000000000000000, 0.000000000000000000 ) ) ;
#253 = ORIENTED_EDGE ( 'NONE', *, *, #675, .F. ) ;
#254 = DIRECTION ( 'NONE',  ( -0.000000000000000000, -0.000000000000000000, -1.000000000000000000 ) ) ;
#255 = DIRECTION ( 'NONE',  ( 0.000000000000000000, 0.000000000000000000, 1.000000000000000000 ) ) ;
#256 = VERTEX_POINT ( 'NONE', #653 ) ;
#257 = SURFACE_SIDE_STYLE ('',( #359 ) ) ;
#258 = DIRECTION ( 'NONE',  ( 0.000000000000000000, -1.000000000000000000, 0.000000000000000000 ) ) ;
#259 = VECTOR ( 'NONE', #156, 1000.000000000000000 ) ;
#260 = CARTESIAN_POINT ( 'NONE',  ( 0.000000000000000000, 2.000000000000000000, -6.232294524508883882 ) ) ;
#261 = ORIENTED_EDGE ( 'NONE', *, *, #305, .F. ) ;
#262 = FILL_AREA_STYLE ('',( #561 ) ) ;
#263 = DIRECTION ( 'NONE',  ( 0.000000000000000000, 1.000000000000000000, 0.000000000000000000 ) ) ;
#264 = LINE ( 'NONE', #336, #28 ) ;
#265 = DIRECTION ( 'NONE',  ( -0.000000000000000000, 0.000000000000000000, 1.000000000000000000 ) ) ;
#266 = ADVANCED_FACE ( 'NONE', ( #537 ), #197, .F. ) ;
#267 = LINE ( 'NONE', #17, #74 ) ;
#268 = ORIENTED_EDGE ( 'NONE', *, *, #627, .T. ) ;
#269 = CARTESIAN_POINT ( 'NONE',  ( 0.000000000000000000, 2.000000000000000000, -11.00000000000000000 ) ) ;
#270 = FACE_OUTER_BOUND ( 'NONE', #120, .T. ) ;
#271 = ORIENTED_EDGE ( 'NONE', *, *, #529, .T. ) ;
#272 = VECTOR ( 'NONE', #208, 1000.000000000000000 ) ;
#273 = PRESENTATION_LAYER_ASSIGNMENT (  '', '', ( #488 ) ) ;
#274 = FACE_OUTER_BOUND ( 'NONE', #44, .T. ) ;
#275 = DIRECTION ( 'NONE',  ( 1.000000000000000000, 0.000000000000000000, 0.000000000000000000 ) ) ;
#276 = ADVANCED_FACE ( 'NONE', ( #602 ), #88, .F. ) ;
#277 = VERTEX_POINT ( 'NONE', #360 ) ;
#278 = LINE ( 'NONE', #321, #118 ) ;
#279 = ORIENTED_EDGE ( 'NONE', *, *, #407, .T. ) ;
#280 = AXIS2_PLACEMENT_3D ( 'NONE', #620, #501, #729 ) ;
#281 = LINE ( 'NONE', #128, #204 ) ;
#282 = EDGE_CURVE ( 'NONE', #150, #116, #249, .T. ) ;
#283 = EDGE_LOOP ( 'NONE', ( #384, #159, #644, #326 ) ) ;
#284 = CARTESIAN_POINT ( 'NONE',  ( 70.00000000000000000, 2.000000000000000000, -18.09524673124269256 ) ) ;
#285 = LINE ( 'NONE', #14, #316 ) ;
#286 = EDGE_CURVE ( 'NONE', #184, #299, #494, .T. ) ;
#287 = ORIENTED_EDGE ( 'NONE', *, *, #707, .F. ) ;
#288 = CARTESIAN_POINT ( 'NONE',  ( 70.00000000000000000, 3.000000000000000000, -20.19754205901830346 ) ) ;
#289 = DIRECTION ( 'NONE',  ( -1.000000000000000000, 0.000000000000000000, 0.000000000000000000 ) ) ;
#290 = ORIENTED_EDGE ( 'NONE', *, *, #286, .F. ) ;
#291 = VECTOR ( 'NONE', #210, 1000.000000000000000 ) ;
#292 = DIRECTION ( 'NONE',  ( -0.000000000000000000, -0.000000000000000000, 1.000000000000000000 ) ) ;
#293 = EDGE_CURVE ( 'NONE', #394, #181, #662, .T. ) ;
#294 = COLOUR_RGB ( '',1.000000000000000000, 0.9490196078431372140, 0.8980392156862745390 ) ;
#295 = PLANE ( 'NONE',  #629 ) ;
#296 = LINE ( 'NONE', #405, #463 ) ;
#297 = ADVANCED_FACE ( 'NONE', ( #139 ), #201, .F. ) ;
#298 = CARTESIAN_POINT ( 'NONE',  ( 70.00000000000000000, 2.000000000000000000, -13.66541014771551232 ) ) ;
#299 = VERTEX_POINT ( 'NONE', #595 ) ;
#300 = FILL_AREA_STYLE_COLOUR ( '', #294 ) ;
#301 = DIRECTION ( 'NONE',  ( -1.000000000000000000, 0.000000000000000000, -0.000000000000000000 ) ) ;
#302 = ORIENTED_EDGE ( 'NONE', *, *, #371, .T. ) ;
#303 = DIRECTION ( 'NONE',  ( -0.000000000000000000, -0.000000000000000000, 1.000000000000000000 ) ) ;
#304 = LINE ( 'NONE', #30, #656 ) ;
#305 = EDGE_CURVE ( 'NONE', #124, #277, #717, .T. ) ;
#306 = EDGE_LOOP ( 'NONE', ( #176, #362, #100, #320 ) ) ;
#307 = LINE ( 'NONE', #133, #131 ) ;
#308 = FACE_OUTER_BOUND ( 'NONE', #39, .T. ) ;
#309 = VERTEX_POINT ( 'NONE', #145 ) ;
#310 =( NAMED_UNIT ( * ) PLANE_ANGLE_UNIT ( ) SI_UNIT ( $, .RADIAN. ) );
#311 = PLANE ( 'NONE',  #18 ) ;
#312 = LINE ( 'NONE', #545, #388 ) ;
#313 = ORIENTED_EDGE ( 'NONE', *, *, #596, .F. ) ;
#314 = DIRECTION ( 'NONE',  ( 0.000000000000000000, 1.000000000000000000, 0.000000000000000000 ) ) ;
#315 = DIRECTION ( 'NONE',  ( -0.000000000000000000, 1.000000000000000000, -0.000000000000000000 ) ) ;
#316 = VECTOR ( 'NONE', #233, 1000.000000000000000 ) ;
#317 = AXIS2_PLACEMENT_3D ( 'NONE', #500, #1, #468 ) ;
#318 = PRODUCT_DEFINITION_FORMATION_WITH_SPECIFIED_SOURCE ( 'ANY', '', #192, .NOT_KNOWN. ) ;
#319 = VERTEX_POINT ( 'NONE', #705 ) ;
#320 = ORIENTED_EDGE ( 'NONE', *, *, #282, .F. ) ;
#321 = CARTESIAN_POINT ( 'NONE',  ( 0.000000000000000000, 3.000000000000000000, -18.09524673124269256 ) ) ;
#322 = EDGE_CURVE ( 'NONE', #324, #56, #304, .T. ) ;
#323 = ORIENTED_EDGE ( 'NONE', *, *, #241, .T. ) ;
#324 = VERTEX_POINT ( 'NONE', #369 ) ;
#325 = CARTESIAN_POINT ( 'NONE',  ( 0.000000000000000000, 2.000000000000000000, -20.19754205901830346 ) ) ;
#326 = ORIENTED_EDGE ( 'NONE', *, *, #218, .T. ) ;
#327 = ORIENTED_EDGE ( 'NONE', *, *, #584, .T. ) ;
#328 = DIRECTION ( 'NONE',  ( -0.000000000000000000, -0.000000000000000000, 1.000000000000000000 ) ) ;
#329 = VECTOR ( 'NONE', #481, 1000.000000000000000 ) ;
#330 = EDGE_CURVE ( 'NONE', #597, #638, #142, .T. ) ;
#331 = CARTESIAN_POINT ( 'NONE',  ( 0.000000000000000000, 2.000000000000000000, -11.00000000000000000 ) ) ;
#332 = ORIENTED_EDGE ( 'NONE', *, *, #683, .F. ) ;
#333 = PLANE ( 'NONE',  #678 ) ;
#334 = EDGE_LOOP ( 'NONE', ( #323, #172, #571, #187 ) ) ;
#335 = DIRECTION ( 'NONE',  ( -0.000000000000000000, 1.000000000000000000, -0.000000000000000000 ) ) ;
#336 = CARTESIAN_POINT ( 'NONE',  ( 0.000000000000000000, 2.000000000000000000, -13.66541014771551232 ) ) ;
#337 = AXIS2_PLACEMENT_3D ( 'NONE', #665, #255, #477 ) ;
#338 = ORIENTED_EDGE ( 'NONE', *, *, #158, .T. ) ;
#339 = AXIS2_PLACEMENT_3D ( 'NONE', #524, #693, #469 ) ;
#340 = LINE ( 'NONE', #247, #62 ) ;
#341 = CARTESIAN_POINT ( 'NONE',  ( 70.00000000000000000, 2.000000000000000000, -18.09524673124269256 ) ) ;
#342 = ADVANCED_FACE ( 'NONE', ( #91 ), #311, .F. ) ;
#343 = ORIENTED_EDGE ( 'NONE', *, *, #361, .T. ) ;
#344 = CARTESIAN_POINT ( 'NONE',  ( 0.000000000000000000, 2.000000000000000000, -11.00000000000000000 ) ) ;
#345 = FACE_OUTER_BOUND ( 'NONE', #169, .T. ) ;
#346 = EDGE_CURVE ( 'NONE', #319, #622, #225, .T. ) ;
#347 = EDGE_LOOP ( 'NONE', ( #625, #246, #703, #593 ) ) ;
#348 = CARTESIAN_POINT ( 'NONE',  ( 0.000000000000000000, 3.000000000000000000, -18.09524673124269256 ) ) ;
#349 = CARTESIAN_POINT ( 'NONE',  ( 0.000000000000000000, 2.000000000000000000, -3.979835244749301726 ) ) ;
#350 = VERTEX_POINT ( 'NONE', #673 ) ;
#351 = EDGE_CURVE ( 'NONE', #696, #622, #557, .T. ) ;
#352 = VECTOR ( 'NONE', #398, 1000.000000000000000 ) ;
#353 = DIRECTION ( 'NONE',  ( 0.000000000000000000, 0.000000000000000000, -1.000000000000000000 ) ) ;
#354 = COLOUR_RGB ( '',1.000000000000000000, 0.9490196078431372140, 0.8980392156862745390 ) ;
#355 = CARTESIAN_POINT ( 'NONE',  ( 0.000000000000000000, 2.000000000000000000, 0.000000000000000000 ) ) ;
#356 = CARTESIAN_POINT ( 'NONE',  ( 0.000000000000000000, 2.000000000000000000, -11.00000000000000000 ) ) ;
#357 = CARTESIAN_POINT ( 'NONE',  ( 0.000000000000000000, 3.000000000000000000, -22.00000000000000000 ) ) ;
#358 = ORIENTED_EDGE ( 'NONE', *, *, #574, .F. ) ;
#359 = SURFACE_STYLE_FILL_AREA ( #35 ) ;
#360 = CARTESIAN_POINT ( 'NONE',  ( 0.000000000000000000, 3.000000000000000000, -22.00000000000000000 ) ) ;
#361 = EDGE_CURVE ( 'NONE', #492, #638, #278, .T. ) ;
#362 = ORIENTED_EDGE ( 'NONE', *, *, #11, .F. ) ;
#363 = CARTESIAN_POINT ( 'NONE',  ( 70.00000000000000000, 3.000000000000000000, -18.09524673124269256 ) ) ;
#364 = VECTOR ( 'NONE', #694, 1000.000000000000000 ) ;
#365 = CARTESIAN_POINT ( 'NONE',  ( 0.000000000000000000, 3.000000000000000000, -6.232294524508883882 ) ) ;
#366 = VECTOR ( 'NONE', #576, 1000.000000000000000 ) ;
#367 = ORIENTED_EDGE ( 'NONE', *, *, #198, .T. ) ;
#368 = CARTESIAN_POINT ( 'NONE',  ( 70.00000000000000000, 0.000000000000000000, -22.00000000000000000 ) ) ;
#369 = CARTESIAN_POINT ( 'NONE',  ( 70.00000000000000000, 2.000000000000000000, -11.00000000000000000 ) ) ;
#370 = ORIENTED_EDGE ( 'NONE', *, *, #371, .F. ) ;
#371 = EDGE_CURVE ( 'NONE', #184, #383, #108, .T. ) ;
#372 = DIRECTION ( 'NONE',  ( -0.000000000000000000, 1.000000000000000000, -0.000000000000000000 ) ) ;
#373 = DIRECTION ( 'NONE',  ( 0.000000000000000000, 0.000000000000000000, -1.000000000000000000 ) ) ;
#374 = CARTESIAN_POINT ( 'NONE',  ( 0.000000000000000000, 3.000000000000000000, -15.91786942747509492 ) ) ;
#375 = EDGE_LOOP ( 'NONE', ( #510, #450, #437, #367, #462, #358, #287, #268, #440, #619, #485, #526, #712, #725, #655, #546, #58, #404, #718, #251 ) ) ;
#376 = EDGE_CURVE ( 'NONE', #679, #256, #57, .T. ) ;
#377 = FACE_OUTER_BOUND ( 'NONE', #162, .T. ) ;
#378 = VECTOR ( 'NONE', #95, 1000.000000000000000 ) ;
#379 = AXIS2_PLACEMENT_3D ( 'NONE', #344, #9, #66 ) ;
#380 = LINE ( 'NONE', #260, #272 ) ;
#381 = CARTESIAN_POINT ( 'NONE',  ( 70.00000000000000000, 2.000000000000000000, -6.232294524508883882 ) ) ;
#382 = ADVANCED_FACE ( 'NONE', ( #270 ), #615, .F. ) ;
#383 = VERTEX_POINT ( 'NONE', #54 ) ;
#384 = ORIENTED_EDGE ( 'NONE', *, *, #64, .T. ) ;
#385 = CARTESIAN_POINT ( 'NONE',  ( 0.000000000000000000, 3.000000000000000000, -8.860163684228403724 ) ) ;
#386 = VERTEX_POINT ( 'NONE', #496 ) ;
#387 = CARTESIAN_POINT ( 'NONE',  ( 0.000000000000000000, 2.000000000000000000, -18.09524673124269256 ) ) ;
#388 = VECTOR ( 'NONE', #491, 1000.000000000000000 ) ;
#389 = VECTOR ( 'NONE', #542, 1000.000000000000000 ) ;
#390 = ORIENTED_EDGE ( 'NONE', *, *, #667, .F. ) ;
#391 = LINE ( 'NONE', #381, #630 ) ;
#392 = ORIENTED_EDGE ( 'NONE', *, *, #305, .T. ) ;
#393 = DIRECTION ( 'NONE',  ( -0.000000000000000000, -0.000000000000000000, -1.000000000000000000 ) ) ;
#394 = VERTEX_POINT ( 'NONE', #167 ) ;
#395 = EDGE_LOOP ( 'NONE', ( #343, #590, #109, #634 ) ) ;
#396 = CARTESIAN_POINT ( 'NONE',  ( 0.000000000000000000, 3.000000000000000000, -13.66541014771551232 ) ) ;
#397 = EDGE_CURVE ( 'NONE', #505, #383, #445, .T. ) ;
#398 = DIRECTION ( 'NONE',  ( 0.000000000000000000, 0.000000000000000000, -1.000000000000000000 ) ) ;
#399 = VECTOR ( 'NONE', #67, 1000.000000000000000 ) ;
#400 = ORIENTED_EDGE ( 'NONE', *, *, #610, .T. ) ;
#401 = VECTOR ( 'NONE', #254, 1000.000000000000000 ) ;
#402 = CARTESIAN_POINT ( 'NONE',  ( 70.00000000000000000, 2.000000000000000000, -15.91786942747509492 ) ) ;
#403 = DIRECTION ( 'NONE',  ( -1.000000000000000000, -0.000000000000000000, -0.000000000000000000 ) ) ;
#404 = ORIENTED_EDGE ( 'NONE', *, *, #637, .T. ) ;
#405 = CARTESIAN_POINT ( 'NONE',  ( 70.00000000000000000, 2.000000000000000000, -20.19754205901830346 ) ) ;
#406 = PLANE ( 'NONE',  #474 ) ;
#407 = EDGE_CURVE ( 'NONE', #299, #530, #157, .T. ) ;
#408 = ORIENTED_EDGE ( 'NONE', *, *, #688, .T. ) ;
#409 = APPLICATION_PROTOCOL_DEFINITION ( 'draft international standard', 'automotive_design', 1998, #520 ) ;
#410 = CARTESIAN_POINT ( 'NONE',  ( 70.00000000000000000, 2.000000000000000000, -11.00000000000000000 ) ) ;
#411 = CARTESIAN_POINT ( 'NONE',  ( 0.000000000000000000, 2.000000000000000000, -20.19754205901830346 ) ) ;
#412 = VERTEX_POINT ( 'NONE', #447 ) ;
#413 = AXIS2_PLACEMENT_3D ( 'NONE', #355, #528, #516 ) ;
#414 = CARTESIAN_POINT ( 'NONE',  ( 70.00000000000000000, 3.000000000000000000, 0.000000000000000000 ) ) ;
#415 = AXIS2_PLACEMENT_3D ( 'NONE', #506, #4, #677 ) ;
#416 = LINE ( 'NONE', #685, #569 ) ;
#417 = PRODUCT_DEFINITION_SHAPE ( 'NONE', 'NONE',  #231 ) ;
#418 = VERTEX_POINT ( 'NONE', #559 ) ;
#419 = DIRECTION ( 'NONE',  ( -0.000000000000000000, 0.000000000000000000, 1.000000000000000000 ) ) ;
#420 = LINE ( 'NONE', #659, #5 ) ;
#421 = ORIENTED_EDGE ( 'NONE', *, *, #610, .F. ) ;
#422 = PLANE ( 'NONE',  #86 ) ;
#423 = ADVANCED_FACE ( 'NONE', ( #377 ), #498, .F. ) ;
#424 = DIRECTION ( 'NONE',  ( -1.000000000000000000, -0.000000000000000000, -0.000000000000000000 ) ) ;
#425 = ORIENTED_EDGE ( 'NONE', *, *, #720, .F. ) ;
#426 = DIRECTION ( 'NONE',  ( -0.000000000000000000, -1.000000000000000000, -0.000000000000000000 ) ) ;
#427 = VECTOR ( 'NONE', #80, 1000.000000000000000 ) ;
#428 = LINE ( 'NONE', #195, #668 ) ;
#429 = VECTOR ( 'NONE', #518, 1000.000000000000000 ) ;
#430 = EDGE_CURVE ( 'NONE', #181, #150, #391, .T. ) ;
#431 = CARTESIAN_POINT ( 'NONE',  ( 0.000000000000000000, 2.000000000000000000, -15.91786942747509492 ) ) ;
#432 = PRESENTATION_STYLE_ASSIGNMENT (( #206 ) ) ;
#433 = DIRECTION ( 'NONE',  ( 0.000000000000000000, -1.000000000000000000, 0.000000000000000000 ) ) ;
#434 = ADVANCED_FACE ( 'NONE', ( #503 ), #551, .F. ) ;
#435 = ORIENTED_EDGE ( 'NONE', *, *, #94, .T. ) ;
#436 = DIRECTION ( 'NONE',  ( -0.000000000000000000, -0.000000000000000000, 1.000000000000000000 ) ) ;
#437 = ORIENTED_EDGE ( 'NONE', *, *, #72, .F. ) ;
#438 = LINE ( 'NONE', #443, #702 ) ;
#439 = VECTOR ( 'NONE', #152, 1000.000000000000000 ) ;
#440 = ORIENTED_EDGE ( 'NONE', *, *, #465, .F. ) ;
#441 = ORIENTED_EDGE ( 'NONE', *, *, #695, .F. ) ;
#442 = SURFACE_STYLE_FILL_AREA ( #262 ) ;
#443 = CARTESIAN_POINT ( 'NONE',  ( 70.00000000000000000, 3.000000000000000000, 0.000000000000000000 ) ) ;
#444 = ADVANCED_FACE ( 'NONE', ( #609 ), #45, .F. ) ;
#445 = LINE ( 'NONE', #163, #439 ) ;
#446 = ORIENTED_EDGE ( 'NONE', *, *, #85, .F. ) ;
#447 = CARTESIAN_POINT ( 'NONE',  ( 70.00000000000000000, 2.000000000000000000, -20.19754205901830346 ) ) ;
#448 = VECTOR ( 'NONE', #335, 1000.000000000000000 ) ;
#449 = EDGE_CURVE ( 'NONE', #597, #68, #674, .T. ) ;
#450 = ORIENTED_EDGE ( 'NONE', *, *, #490, .F. ) ;
#451 = DIRECTION ( 'NONE',  ( 1.000000000000000000, 0.000000000000000000, 0.000000000000000000 ) ) ;
#452 = EDGE_LOOP ( 'NONE', ( #12, #611, #43, #230 ) ) ;
#453 = ADVANCED_FACE ( 'NONE', ( #274 ), #333, .F. ) ;
#454 = ORIENTED_EDGE ( 'NONE', *, *, #22, .F. ) ;
#455 = FACE_OUTER_BOUND ( 'NONE', #452, .T. ) ;
#456 = UNCERTAINTY_MEASURE_WITH_UNIT (LENGTH_MEASURE( 1.000000000000000082E-05 ), #664, 'distance_accuracy_value', 'NONE');
#457 = DIRECTION ( 'NONE',  ( -0.000000000000000000, -0.000000000000000000, 1.000000000000000000 ) ) ;
#458 = ORIENTED_EDGE ( 'NONE', *, *, #22, .T. ) ;
#459 = LINE ( 'NONE', #687, #499 ) ;
#460 = CARTESIAN_POINT ( 'NONE',  ( 70.00000000000000000, 2.000000000000000000, -6.232294524508883882 ) ) ;
#461 = AXIS2_PLACEMENT_3D ( 'NONE', #540, #532, #27 ) ;
#462 = ORIENTED_EDGE ( 'NONE', *, *, #330, .F. ) ;
#463 = VECTOR ( 'NONE', #243, 1000.000000000000000 ) ;
#464 = PLANE ( 'NONE',  #339 ) ;
#465 = EDGE_CURVE ( 'NONE', #56, #350, #438, .T. ) ;
#466 = LINE ( 'NONE', #633, #616 ) ;
#467 = ORIENTED_EDGE ( 'NONE', *, *, #103, .T. ) ;
#468 = DIRECTION ( 'NONE',  ( 1.000000000000000000, 0.000000000000000000, 0.000000000000000000 ) ) ;
#469 = DIRECTION ( 'NONE',  ( 0.000000000000000000, -0.000000000000000000, 1.000000000000000000 ) ) ;
#470 = DIRECTION ( 'NONE',  ( -0.000000000000000000, -1.000000000000000000, -0.000000000000000000 ) ) ;
#471 = EDGE_LOOP ( 'NONE', ( #148, #279, #227, #600 ) ) ;
#472 = DIRECTION ( 'NONE',  ( 0.000000000000000000, -0.000000000000000000, -1.000000000000000000 ) ) ;
#473 = ORIENTED_EDGE ( 'NONE', *, *, #430, .T. ) ;
#474 = AXIS2_PLACEMENT_3D ( 'NONE', #647, #237, #472 ) ;
#475 = DIRECTION ( 'NONE',  ( -1.000000000000000000, -0.000000000000000000, -0.000000000000000000 ) ) ;
#476 = VECTOR ( 'NONE', #292, 1000.000000000000000 ) ;
#477 = DIRECTION ( 'NONE',  ( 1.000000000000000000, 0.000000000000000000, -0.000000000000000000 ) ) ;
#478 = VERTEX_POINT ( 'NONE', #385 ) ;
#479 = EDGE_CURVE ( 'NONE', #550, #116, #220, .T. ) ;
#480 = LINE ( 'NONE', #141, #38 ) ;
#481 = DIRECTION ( 'NONE',  ( 0.000000000000000000, 0.000000000000000000, -1.000000000000000000 ) ) ;
#482 = ORIENTED_EDGE ( 'NONE', *, *, #168, .T. ) ;
#483 = CARTESIAN_POINT ( 'NONE',  ( 0.000000000000000000, 0.000000000000000000, -22.00000000000000000 ) ) ;
#484 = DIRECTION ( 'NONE',  ( -1.000000000000000000, -0.000000000000000000, -0.000000000000000000 ) ) ;
#485 = ORIENTED_EDGE ( 'NONE', *, *, #554, .F. ) ;
#486 = DIRECTION ( 'NONE',  ( -0.000000000000000000, 1.000000000000000000, -0.000000000000000000 ) ) ;
#487 = AXIS2_PLACEMENT_3D ( 'NONE', #589, #258, #207 ) ;
#488 = STYLED_ITEM ( 'NONE', ( #612 ), #212 ) ;
#489 = DIRECTION ( 'NONE',  ( 0.000000000000000000, -0.000000000000000000, 1.000000000000000000 ) ) ;
#490 = EDGE_CURVE ( 'NONE', #412, #505, #296, .T. ) ;
#491 = DIRECTION ( 'NONE',  ( 1.000000000000000000, 0.000000000000000000, 0.000000000000000000 ) ) ;
#492 = VERTEX_POINT ( 'NONE', #348 ) ;
#493 = LINE ( 'NONE', #269, #259 ) ;
#494 = LINE ( 'NONE', #33, #605 ) ;
#495 = LINE ( 'NONE', #721, #291 ) ;
#496 = CARTESIAN_POINT ( 'NONE',  ( 0.000000000000000000, 3.000000000000000000, -3.979835244749301726 ) ) ;
#497 = DIRECTION ( 'NONE',  ( 1.000000000000000000, 0.000000000000000000, 0.000000000000000000 ) ) ;
#498 = PLANE ( 'NONE',  #523 ) ;
#499 = VECTOR ( 'NONE', #117, 1000.000000000000000 ) ;
#500 = CARTESIAN_POINT ( 'NONE',  ( 0.000000000000000000, 0.000000000000000000, 0.000000000000000000 ) ) ;
#501 = DIRECTION ( 'NONE',  ( -0.000000000000000000, 0.000000000000000000, 1.000000000000000000 ) ) ;
#502 = SURFACE_SIDE_STYLE ('',( #442 ) ) ;
#503 = FACE_OUTER_BOUND ( 'NONE', #395, .T. ) ;
#504 = EDGE_CURVE ( 'NONE', #56, #622, #232, .T. ) ;
#505 = VERTEX_POINT ( 'NONE', #288 ) ;
#506 = CARTESIAN_POINT ( 'NONE',  ( 0.000000000000000000, 2.000000000000000000, -8.860163684228403724 ) ) ;
#507 = CARTESIAN_POINT ( 'NONE',  ( 0.000000000000000000, 3.000000000000000000, -8.860163684228403724 ) ) ;
#508 = EDGE_CURVE ( 'NONE', #478, #116, #73, .T. ) ;
#509 = VECTOR ( 'NONE', #486, 1000.000000000000000 ) ;
#510 = ORIENTED_EDGE ( 'NONE', *, *, #584, .F. ) ;
#511 = DIRECTION ( 'NONE',  ( -1.000000000000000000, -0.000000000000000000, -0.000000000000000000 ) ) ;
#512 = DIRECTION ( 'NONE',  ( 0.000000000000000000, -1.000000000000000000, 0.000000000000000000 ) ) ;
#513 = ADVANCED_FACE ( 'NONE', ( #13 ), #77, .F. ) ;
#514 = EDGE_LOOP ( 'NONE', ( #408, #217, #226, #555 ) ) ;
#515 = CARTESIAN_POINT ( 'NONE',  ( 0.000000000000000000, 3.000000000000000000, 0.000000000000000000 ) ) ;
#516 = DIRECTION ( 'NONE',  ( 0.000000000000000000, -0.000000000000000000, 1.000000000000000000 ) ) ;
#517 = EDGE_LOOP ( 'NONE', ( #663, #8, #261, #467 ) ) ;
#518 = DIRECTION ( 'NONE',  ( -0.000000000000000000, 1.000000000000000000, -0.000000000000000000 ) ) ;
#519 = FACE_OUTER_BOUND ( 'NONE', #375, .T. ) ;
#520 = APPLICATION_CONTEXT ( 'automotive_design' ) ;
#521 = VECTOR ( 'NONE', #328, 1000.000000000000000 ) ;
#522 = ORIENTED_EDGE ( 'NONE', *, *, #479, .F. ) ;
#523 = AXIS2_PLACEMENT_3D ( 'NONE', #98, #105, #102 ) ;
#524 = CARTESIAN_POINT ( 'NONE',  ( 0.000000000000000000, 2.000000000000000000, 0.000000000000000000 ) ) ;
#525 = CARTESIAN_POINT ( 'NONE',  ( 70.00000000000000000, 3.000000000000000000, -6.232294524508883882 ) ) ;
#526 = ORIENTED_EDGE ( 'NONE', *, *, #376, .T. ) ;
#527 = PLANE ( 'NONE',  #143 ) ;
#528 = DIRECTION ( 'NONE',  ( 0.000000000000000000, 1.000000000000000000, 0.000000000000000000 ) ) ;
#529 = EDGE_CURVE ( 'NONE', #676, #68, #281, .T. ) ;
#530 = VERTEX_POINT ( 'NONE', #284 ) ;
#531 = CARTESIAN_POINT ( 'NONE',  ( 70.00000000000000000, 2.000000000000000000, -3.979835244749301726 ) ) ;
#532 = DIRECTION ( 'NONE',  ( 1.000000000000000000, -0.000000000000000000, 0.000000000000000000 ) ) ;
#533 = EDGE_CURVE ( 'NONE', #309, #418, #459, .T. ) ;
#534 = EDGE_LOOP ( 'NONE', ( #290, #302, #165, #435, #648, #76, #144, #421, #560, #147, #140, #313, #425, #681, #104, #454, #196, #271, #441, #692 ) ) ;
#535 = CARTESIAN_POINT ( 'NONE',  ( 0.000000000000000000, 2.000000000000000000, -15.91786942747509492 ) ) ;
#536 = AXIS2_PLACEMENT_3D ( 'NONE', #219, #265, #2 ) ;
#537 = FACE_OUTER_BOUND ( 'NONE', #534, .T. ) ;
#538 = ORIENTED_EDGE ( 'NONE', *, *, #618, .T. ) ;
#539 = DIRECTION ( 'NONE',  ( -0.000000000000000000, -0.000000000000000000, 1.000000000000000000 ) ) ;
#540 = CARTESIAN_POINT ( 'NONE',  ( 0.000000000000000000, 3.000000000000000000, 0.000000000000000000 ) ) ;
#541 = EDGE_LOOP ( 'NONE', ( #253, #446, #332, #87 ) ) ;
#542 = DIRECTION ( 'NONE',  ( 0.000000000000000000, 0.000000000000000000, -1.000000000000000000 ) ) ;
#543 = ADVANCED_FACE ( 'NONE', ( #16 ), #527, .F. ) ;
#544 = CARTESIAN_POINT ( 'NONE',  ( 0.000000000000000000, 3.000000000000000000, 0.000000000000000000 ) ) ;
#545 = CARTESIAN_POINT ( 'NONE',  ( 0.000000000000000000, 3.000000000000000000, -3.979835244749301726 ) ) ;
#546 = ORIENTED_EDGE ( 'NONE', *, *, #667, .T. ) ;
#547 = LINE ( 'NONE', #414, #594 ) ;
#548 = CARTESIAN_POINT ( 'NONE',  ( 0.000000000000000000, 2.000000000000000000, 0.000000000000000000 ) ) ;
#549 = UNCERTAINTY_MEASURE_WITH_UNIT (LENGTH_MEASURE( 1.000000000000000082E-05 ), #726, 'distance_accuracy_value', 'NONE');
#550 = VERTEX_POINT ( 'NONE', #579 ) ;
#551 = PLANE ( 'NONE',  #280 ) ;
#552 = LINE ( 'NONE', #46, #154 ) ;
#553 = DIRECTION ( 'NONE',  ( -0.000000000000000000, 1.000000000000000000, -0.000000000000000000 ) ) ;
#554 = EDGE_CURVE ( 'NONE', #679, #324, #572, .T. ) ;
#555 = ORIENTED_EDGE ( 'NONE', *, *, #654, .T. ) ;
#556 = ORIENTED_EDGE ( 'NONE', *, *, #695, .T. ) ;
#557 = LINE ( 'NONE', #331, #203 ) ;
#558 = VECTOR ( 'NONE', #235, 1000.000000000000000 ) ;
#559 = CARTESIAN_POINT ( 'NONE',  ( 70.00000000000000000, 3.000000000000000000, 0.000000000000000000 ) ) ;
#560 = ORIENTED_EDGE ( 'NONE', *, *, #64, .F. ) ;
#561 = FILL_AREA_STYLE_COLOUR ( '', #354 ) ;
#562 = APPLICATION_CONTEXT ( 'automotive_design' ) ;
#563 = CARTESIAN_POINT ( 'NONE',  ( 0.000000000000000000, 3.000000000000000000, 0.000000000000000000 ) ) ;
#564 = ADVANCED_FACE ( 'NONE', ( #455 ), #632, .F. ) ;
#565 = ORIENTED_EDGE ( 'NONE', *, *, #81, .F. ) ;
#566 = LINE ( 'NONE', #396, #714 ) ;
#567 = UNCERTAINTY_MEASURE_WITH_UNIT (LENGTH_MEASURE( 1.000000000000000082E-05 ), #661, 'distance_accuracy_value', 'NONE');
#568 = LINE ( 'NONE', #229, #364 ) ;
#569 = VECTOR ( 'NONE', #123, 1000.000000000000000 ) ;
#570 = AXIS2_PLACEMENT_3D ( 'NONE', #704, #419, #137 ) ;
#571 = ORIENTED_EDGE ( 'NONE', *, *, #211, .T. ) ;
#572 = LINE ( 'NONE', #410, #691 ) ;
#573 = FACE_OUTER_BOUND ( 'NONE', #347, .T. ) ;
#574 = EDGE_CURVE ( 'NONE', #604, #597, #177, .T. ) ;
#575 = ORIENTED_EDGE ( 'NONE', *, *, #397, .T. ) ;
#576 = DIRECTION ( 'NONE',  ( -0.000000000000000000, 1.000000000000000000, -0.000000000000000000 ) ) ;
#577 = PLANE ( 'NONE',  #164 ) ;
#578 = ORIENTED_EDGE ( 'NONE', *, *, #42, .T. ) ;
#579 = CARTESIAN_POINT ( 'NONE',  ( 0.000000000000000000, 2.000000000000000000, -6.232294524508883882 ) ) ;
#580 = DIRECTION ( 'NONE',  ( 1.000000000000000000, 0.000000000000000000, 0.000000000000000000 ) ) ;
#581 = MECHANICAL_DESIGN_GEOMETRIC_PRESENTATION_REPRESENTATION (  '', ( #53 ), #155 ) ;
#582 = VERTEX_POINT ( 'NONE', #122 ) ;
#583 = CARTESIAN_POINT ( 'NONE',  ( 70.00000000000000000, 3.000000000000000000, 0.000000000000000000 ) ) ;
#584 = EDGE_CURVE ( 'NONE', #505, #124, #623, .T. ) ;
#585 = FACE_OUTER_BOUND ( 'NONE', #541, .T. ) ;
#586 = ORIENTED_EDGE ( 'NONE', *, *, #614, .T. ) ;
#587 = DIRECTION ( 'NONE',  ( 0.000000000000000000, -0.000000000000000000, 1.000000000000000000 ) ) ;
#588 = ADVANCED_FACE ( 'NONE', ( #21 ), #464, .T. ) ;
#589 = CARTESIAN_POINT ( 'NONE',  ( 0.000000000000000000, 3.000000000000000000, 0.000000000000000000 ) ) ;
#590 = ORIENTED_EDGE ( 'NONE', *, *, #198, .F. ) ;
#591 = CARTESIAN_POINT ( 'NONE',  ( 70.00000000000000000, 2.000000000000000000, -15.91786942747509492 ) ) ;
#592 = DIRECTION ( 'NONE',  ( -1.000000000000000000, -0.000000000000000000, -0.000000000000000000 ) ) ;
#593 = ORIENTED_EDGE ( 'NONE', *, *, #504, .F. ) ;
#594 = VECTOR ( 'NONE', #601, 1000.000000000000000 ) ;
#595 = CARTESIAN_POINT ( 'NONE',  ( 0.000000000000000000, 2.000000000000000000, -18.09524673124269256 ) ) ;
#596 = EDGE_CURVE ( 'NONE', #242, #478, #182, .T. ) ;
#597 = VERTEX_POINT ( 'NONE', #125 ) ;
#598 = CARTESIAN_POINT ( 'NONE',  ( 0.000000000000000000, 3.000000000000000000, -11.00000000000000000 ) ) ;
#599 = FACE_OUTER_BOUND ( 'NONE', #471, .T. ) ;
#600 = ORIENTED_EDGE ( 'NONE', *, *, #146, .T. ) ;
#601 = DIRECTION ( 'NONE',  ( -0.000000000000000000, -1.000000000000000000, -0.000000000000000000 ) ) ;
#602 = FACE_OUTER_BOUND ( 'NONE', #127, .T. ) ;
#603 = EDGE_LOOP ( 'NONE', ( #338, #3, #327, #392 ) ) ;
#604 = VERTEX_POINT ( 'NONE', #697 ) ;
#605 = VECTOR ( 'NONE', #41, 1000.000000000000000 ) ;
#606 = VECTOR ( 'NONE', #372, 1000.000000000000000 ) ;
#607 = CARTESIAN_POINT ( 'NONE',  ( 70.00000000000000000, 2.000000000000000000, -8.860163684228403724 ) ) ;
#608 = VERTEX_POINT ( 'NONE', #239 ) ;
#609 = FACE_OUTER_BOUND ( 'NONE', #651, .T. ) ;
#610 = EDGE_CURVE ( 'NONE', #112, #386, #173, .T. ) ;
#611 = ORIENTED_EDGE ( 'NONE', *, *, #351, .F. ) ;
#612 = PRESENTATION_STYLE_ASSIGNMENT (( #672 ) ) ;
#613 = DIRECTION ( 'NONE',  ( -0.000000000000000000, 1.000000000000000000, -0.000000000000000000 ) ) ;
#614 = EDGE_CURVE ( 'NONE', #319, #350, #566, .T. ) ;
#615 = PLANE ( 'NONE',  #415 ) ;
#616 = VECTOR ( 'NONE', #470, 1000.000000000000000 ) ;
#617 =( GEOMETRIC_REPRESENTATION_CONTEXT ( 3 ) GLOBAL_UNCERTAINTY_ASSIGNED_CONTEXT ( ( #549 ) ) GLOBAL_UNIT_ASSIGNED_CONTEXT ( ( #726, #166, #101 ) ) REPRESENTATION_CONTEXT ( 'NONE', 'WORKASPACE' ) );
#618 = EDGE_CURVE ( 'NONE', #604, #676, #340, .T. ) ;
#619 = ORIENTED_EDGE ( 'NONE', *, *, #322, .F. ) ;
#620 = CARTESIAN_POINT ( 'NONE',  ( 0.000000000000000000, 2.000000000000000000, -18.09524673124269256 ) ) ;
#621 = MANIFOLD_SOLID_BREP ( 'Cut-Extrude1', #129 ) ;
#622 = VERTEX_POINT ( 'NONE', #598 ) ;
#623 = LINE ( 'NONE', #583, #558 ) ;
#624 = LINE ( 'NONE', #689, #248 ) ;
#625 = ORIENTED_EDGE ( 'NONE', *, *, #465, .T. ) ;
#626 = DIRECTION ( 'NONE',  ( 1.000000000000000000, 0.000000000000000000, 0.000000000000000000 ) ) ;
#627 = EDGE_CURVE ( 'NONE', #153, #350, #83, .T. ) ;
#628 = DIRECTION ( 'NONE',  ( 0.000000000000000000, -0.000000000000000000, -1.000000000000000000 ) ) ;
#629 = AXIS2_PLACEMENT_3D ( 'NONE', #10, #636, #180 ) ;
#630 = VECTOR ( 'NONE', #55, 1000.000000000000000 ) ;
#631 = VERTEX_POINT ( 'NONE', #368 ) ;
#632 = PLANE ( 'NONE',  #379 ) ;
#633 = CARTESIAN_POINT ( 'NONE',  ( 70.00000000000000000, 3.000000000000000000, -22.00000000000000000 ) ) ;
#634 = ORIENTED_EDGE ( 'NONE', *, *, #202, .T. ) ;
#635 = CARTESIAN_POINT ( 'NONE',  ( 0.000000000000000000, 2.000000000000000000, -8.860163684228403724 ) ) ;
#636 = DIRECTION ( 'NONE',  ( 0.000000000000000000, -1.000000000000000000, 0.000000000000000000 ) ) ;
#637 = EDGE_CURVE ( 'NONE', #418, #15, #547, .T. ) ;
#638 = VERTEX_POINT ( 'NONE', #363 ) ;
#639 = PRODUCT_CONTEXT ( 'NONE', #562, 'mechanical' ) ;
#640 = CARTESIAN_POINT ( 'NONE',  ( 0.000000000000000000, 2.000000000000000000, -3.979835244749301726 ) ) ;
#641 = DIRECTION ( 'NONE',  ( -0.000000000000000000, -1.000000000000000000, -0.000000000000000000 ) ) ;
#642 = VECTOR ( 'NONE', #580, 1000.000000000000000 ) ;
#643 =( GEOMETRIC_REPRESENTATION_CONTEXT ( 3 ) GLOBAL_UNCERTAINTY_ASSIGNED_CONTEXT ( ( #456 ) ) GLOBAL_UNIT_ASSIGNED_CONTEXT ( ( #664, #151, #722 ) ) REPRESENTATION_CONTEXT ( 'NONE', 'WORKASPACE' ) );
#644 = ORIENTED_EDGE ( 'NONE', *, *, #293, .T. ) ;
#645 = ADVANCED_FACE ( 'NONE', ( #93 ), #422, .T. ) ;
#646 = LINE ( 'NONE', #26, #716 ) ;
#647 = CARTESIAN_POINT ( 'NONE',  ( 0.000000000000000000, 0.000000000000000000, 0.000000000000000000 ) ) ;
#648 = ORIENTED_EDGE ( 'NONE', *, *, #675, .T. ) ;
#649 = CARTESIAN_POINT ( 'NONE',  ( 0.000000000000000000, 2.000000000000000000, 0.000000000000000000 ) ) ;
#650 = CARTESIAN_POINT ( 'NONE',  ( 70.00000000000000000, 2.000000000000000000, -6.232294524508883882 ) ) ;
#651 = EDGE_LOOP ( 'NONE', ( #224, #390, #565, #400 ) ) ;
#652 = FACE_OUTER_BOUND ( 'NONE', #171, .T. ) ;
#653 = CARTESIAN_POINT ( 'NONE',  ( 70.00000000000000000, 3.000000000000000000, -8.860163684228403724 ) ) ;
#654 = EDGE_CURVE ( 'NONE', #309, #78, #710, .T. ) ;
#655 = ORIENTED_EDGE ( 'NONE', *, *, #293, .F. ) ;
#656 = VECTOR ( 'NONE', #315, 1000.000000000000000 ) ;
#657 = LINE ( 'NONE', #531, #509 ) ;
#658 = VECTOR ( 'NONE', #426, 1000.000000000000000 ) ;
#659 = CARTESIAN_POINT ( 'NONE',  ( 0.000000000000000000, 2.000000000000000000, -6.232294524508883882 ) ) ;
#660 = ORIENTED_EDGE ( 'NONE', *, *, #627, .F. ) ;
#661 =( LENGTH_UNIT ( ) NAMED_UNIT ( * ) SI_UNIT ( .MILLI., .METRE. ) );
#662 = LINE ( 'NONE', #650, #61 ) ;
#663 = ORIENTED_EDGE ( 'NONE', *, *, #85, .T. ) ;
#664 =( LENGTH_UNIT ( ) NAMED_UNIT ( * ) SI_UNIT ( .MILLI., .METRE. ) );
#665 = CARTESIAN_POINT ( 'NONE',  ( 0.000000000000000000, 3.000000000000000000, -22.00000000000000000 ) ) ;
#666 = CARTESIAN_POINT ( 'NONE',  ( 0.000000000000000000, 0.000000000000000000, 0.000000000000000000 ) ) ;
#667 = EDGE_CURVE ( 'NONE', #394, #608, #657, .T. ) ;
#668 = VECTOR ( 'NONE', #424, 1000.000000000000000 ) ;
#669 = AXIS2_PLACEMENT_3D ( 'NONE', #113, #353, #60 ) ;
#670 = DIRECTION ( 'NONE',  ( 0.000000000000000000, -0.000000000000000000, -1.000000000000000000 ) ) ;
#671 = ORIENTED_EDGE ( 'NONE', *, *, #490, .T. ) ;
#672 = SURFACE_STYLE_USAGE ( .BOTH. , #502 ) ;
#673 = CARTESIAN_POINT ( 'NONE',  ( 70.00000000000000000, 3.000000000000000000, -13.66541014771551232 ) ) ;
#674 = LINE ( 'NONE', #222, #236 ) ;
#675 = EDGE_CURVE ( 'NONE', #709, #78, #646, .T. ) ;
#676 = VERTEX_POINT ( 'NONE', #535 ) ;
#677 = DIRECTION ( 'NONE',  ( 1.000000000000000000, 0.000000000000000000, 0.000000000000000000 ) ) ;
#678 = AXIS2_PLACEMENT_3D ( 'NONE', #730, #723, #213 ) ;
#679 = VERTEX_POINT ( 'NONE', #29 ) ;
#680 = CARTESIAN_POINT ( 'NONE',  ( 0.000000000000000000, 3.000000000000000000, -11.00000000000000000 ) ) ;
#681 = ORIENTED_EDGE ( 'NONE', *, *, #351, .T. ) ;
#682 = ORIENTED_EDGE ( 'NONE', *, *, #449, .T. ) ;
#683 = EDGE_CURVE ( 'NONE', #15, #631, #90, .T. ) ;
#684 = DIRECTION ( 'NONE',  ( -0.000000000000000000, 1.000000000000000000, -0.000000000000000000 ) ) ;
#685 = CARTESIAN_POINT ( 'NONE',  ( 0.000000000000000000, 2.000000000000000000, -13.66541014771551232 ) ) ;
#686 = EDGE_LOOP ( 'NONE', ( #578, #65, #136, #538 ) ) ;
#687 = CARTESIAN_POINT ( 'NONE',  ( 0.000000000000000000, 3.000000000000000000, 0.000000000000000000 ) ) ;
#688 = EDGE_CURVE ( 'NONE', #78, #15, #480, .T. ) ;
#689 = CARTESIAN_POINT ( 'NONE',  ( 0.000000000000000000, 3.000000000000000000, 0.000000000000000000 ) ) ;
#690 = AXIS2_PLACEMENT_3D ( 'NONE', #75, #512, #628 ) ;
#691 = VECTOR ( 'NONE', #393, 1000.000000000000000 ) ;
#692 = ORIENTED_EDGE ( 'NONE', *, *, #202, .F. ) ;
#693 = DIRECTION ( 'NONE',  ( 0.000000000000000000, 1.000000000000000000, 0.000000000000000000 ) ) ;
#694 = DIRECTION ( 'NONE',  ( -1.000000000000000000, -0.000000000000000000, -0.000000000000000000 ) ) ;
#695 = EDGE_CURVE ( 'NONE', #492, #68, #307, .T. ) ;
#696 = VERTEX_POINT ( 'NONE', #356 ) ;
#697 = CARTESIAN_POINT ( 'NONE',  ( 70.00000000000000000, 2.000000000000000000, -15.91786942747509492 ) ) ;
#698 = CARTESIAN_POINT ( 'NONE',  ( 0.000000000000000000, 3.000000000000000000, 0.000000000000000000 ) ) ;
#699 = ADVANCED_FACE ( 'NONE', ( #652 ), #79, .F. ) ;
#700 = ORIENTED_EDGE ( 'NONE', *, *, #179, .F. ) ;
#701 = DIRECTION ( 'NONE',  ( 0.000000000000000000, 0.000000000000000000, 1.000000000000000000 ) ) ;
#702 = VECTOR ( 'NONE', #160, 1000.000000000000000 ) ;
#703 = ORIENTED_EDGE ( 'NONE', *, *, #346, .T. ) ;
#704 = CARTESIAN_POINT ( 'NONE',  ( 0.000000000000000000, 2.000000000000000000, -13.66541014771551232 ) ) ;
#705 = CARTESIAN_POINT ( 'NONE',  ( 0.000000000000000000, 3.000000000000000000, -13.66541014771551232 ) ) ;
#706 = ORIENTED_EDGE ( 'NONE', *, *, #218, .F. ) ;
#707 = EDGE_CURVE ( 'NONE', #153, #604, #32, .T. ) ;
#708 = PLANE ( 'NONE',  #713 ) ;
#709 = VERTEX_POINT ( 'NONE', #483 ) ;
#710 = LINE ( 'NONE', #200, #658 ) ;
#711 = LINE ( 'NONE', #84, #427 ) ;
#712 = ORIENTED_EDGE ( 'NONE', *, *, #193, .F. ) ;
#713 = AXIS2_PLACEMENT_3D ( 'NONE', #548, #263, #489 ) ;
#714 = VECTOR ( 'NONE', #626, 1000.000000000000000 ) ;
#715 = DIRECTION ( 'NONE',  ( 1.000000000000000000, 0.000000000000000000, 0.000000000000000000 ) ) ;
#716 = VECTOR ( 'NONE', #303, 1000.000000000000000 ) ;
#717 = LINE ( 'NONE', #357, #52 ) ;
#718 = ORIENTED_EDGE ( 'NONE', *, *, #683, .T. ) ;
#719 = PLANE ( 'NONE',  #97 ) ;
#720 = EDGE_CURVE ( 'NONE', #696, #242, #493, .T. ) ;
#721 = CARTESIAN_POINT ( 'NONE',  ( 70.00000000000000000, 2.000000000000000000, -20.19754205901830346 ) ) ;
#722 =( NAMED_UNIT ( * ) SI_UNIT ( $, .STERADIAN. ) SOLID_ANGLE_UNIT ( ) );
#723 = DIRECTION ( 'NONE',  ( 0.000000000000000000, 0.000000000000000000, -1.000000000000000000 ) ) ;
#724 = ORIENTED_EDGE ( 'NONE', *, *, #376, .F. ) ;
#725 = ORIENTED_EDGE ( 'NONE', *, *, #430, .F. ) ;
#726 =( LENGTH_UNIT ( ) NAMED_UNIT ( * ) SI_UNIT ( .MILLI., .METRE. ) );
#727 = VECTOR ( 'NONE', #99, 1000.000000000000000 ) ;
#728 = VECTOR ( 'NONE', #553, 1000.000000000000000 ) ;
#729 = DIRECTION ( 'NONE',  ( 1.000000000000000000, 0.000000000000000000, 0.000000000000000000 ) ) ;
#730 = CARTESIAN_POINT ( 'NONE',  ( 0.000000000000000000, 2.000000000000000000, -20.19754205901830346 ) ) ;
ENDSEC;
END-ISO-10303-21;
