ISO-10303-21;
HEADER;
FILE_DESCRIPTION (( 'STEP AP214' ),
    '1' );
FILE_NAME ('hexalobular socket cheese head_iso.STEP',
    '2026-07-06T21:55:19',
    ( '' ),
    ( '' ),
    'SwSTEP 2.0',
    'SolidWorks 2025',
    '' );
FILE_SCHEMA (( 'AUTOMOTIVE_DESIGN' ));
ENDSEC;

DATA;
#1 = AXIS2_PLACEMENT_3D ( 'NONE', #547, #754, #810 ) ;
#2 = CARTESIAN_POINT ( 'NONE',  ( 5.421010862427522170E-17, 9.129999999999999005, -1.400000000000000133 ) ) ;
#3 = ORIENTED_EDGE ( 'NONE', *, *, #41, .F. ) ;
#4 = DIRECTION ( 'NONE',  ( -0.000000000000000000, 1.000000000000000000, -0.000000000000000000 ) ) ;
#5 = CARTESIAN_POINT ( 'NONE',  ( 3.367778697655221012E-16, 8.000000000000000000, 2.750000000000000000 ) ) ;
#6 = ORIENTED_EDGE ( 'NONE', *, *, #509, .F. ) ;
#7 = CARTESIAN_POINT ( 'NONE',  ( 0.9333333333333333481, 9.129999999999999005, 0.3064168650976183406 ) ) ;
#8 = CARTESIAN_POINT ( 'NONE',  ( 0.007246867584389744647, 9.129999999999999005, 1.399431702457000881 ) ) ;
#9 = EDGE_LOOP ( 'NONE', ( #279, #425, #776, #43, #590, #433, #708, #747, #79 ) ) ;
#10 = DIRECTION ( 'NONE',  ( 0.000000000000000000, -0.000000000000000000, 1.000000000000000000 ) ) ;
#11 = CARTESIAN_POINT ( 'NONE',  ( 0.000000000000000000, 10.27299999999999969, 0.000000000000000000 ) ) ;
#12 = CIRCLE ( 'NONE', #272, 0.9333333333334999926 ) ;
#13 = ADVANCED_FACE ( 'NONE', ( #448 ), #483, .F. ) ;
#14 = EDGE_LOOP ( 'NONE', ( #751, #83, #351, #689 ) ) ;
#15 = CIRCLE ( 'NONE', #512, 1.500000000000000000 ) ;
#16 = CARTESIAN_POINT ( 'NONE',  ( 0.000000000000000000, 9.129999999999999005, 0.000000000000000000 ) ) ;
#17 = CARTESIAN_POINT ( 'NONE',  ( -1.355252715606880543E-17, 10.27300000000000146, 1.399999999999999911 ) ) ;
#18 = VERTEX_POINT ( 'NONE', #850 ) ;
#19 = FACE_OUTER_BOUND ( 'NONE', #342, .T. ) ;
#20 = DIRECTION ( 'NONE',  ( -0.000000000000000000, 1.000000000000000000, -0.000000000000000000 ) ) ;
#21 = ORIENTED_EDGE ( 'NONE', *, *, #387, .T. ) ;
#22 = ADVANCED_FACE ( 'NONE', ( #589 ), #854, .F. ) ;
#23 = CARTESIAN_POINT ( 'NONE',  ( 0.000000000000000000, 10.40000000000000036, 0.000000000000000000 ) ) ;
#24 = DIRECTION ( 'NONE',  ( 0.000000000000000000, 0.000000000000000000, -1.000000000000000000 ) ) ;
#25 = EDGE_LOOP ( 'NONE', ( #326, #439 ) ) ;
#26 = AXIS2_PLACEMENT_3D ( 'NONE', #538, #193, #268 ) ;
#27 = CIRCLE ( 'NONE', #768, 2.540027207537798315 ) ;
#28 = CARTESIAN_POINT ( 'NONE',  ( 0.000000000000000000, 10.27299999999999969, 0.000000000000000000 ) ) ;
#29 = DIRECTION ( 'NONE',  ( 0.000000000000000000, -0.000000000000000000, 1.000000000000000000 ) ) ;
#30 = ORIENTED_EDGE ( 'NONE', *, *, #452, .F. ) ;
#31 = ORIENTED_EDGE ( 'NONE', *, *, #242, .T. ) ;
#32 = EDGE_CURVE ( 'NONE', #311, #297, #457, .T. ) ;
#33 = DIRECTION ( 'NONE',  ( -0.000000000000000000, -1.000000000000000000, -0.000000000000000000 ) ) ;
#34 = EDGE_CURVE ( 'NONE', #774, #230, #139, .T. ) ;
#35 = DIRECTION ( 'NONE',  ( 0.000000000000000000, -0.000000000000000000, 1.000000000000000000 ) ) ;
#36 = ORIENTED_EDGE ( 'NONE', *, *, #294, .T. ) ;
#37 = EDGE_LOOP ( 'NONE', ( #310, #136, #76, #821 ) ) ;
#38 =( NAMED_UNIT ( * ) SI_UNIT ( $, .STERADIAN. ) SOLID_ANGLE_UNIT ( ) );
#39 = PLANE ( 'NONE',  #131 ) ;
#40 = CARTESIAN_POINT ( 'NONE',  ( 0.000000000000000000, 7.000000000000000000, 0.000000000000000000 ) ) ;
#41 = EDGE_CURVE ( 'NONE', #785, #107, #228, .T. ) ;
#42 = CIRCLE ( 'NONE', #555, 1.399999999999999911 ) ;
#43 = ORIENTED_EDGE ( 'NONE', *, *, #682, .T. ) ;
#44 =( NAMED_UNIT ( * ) PLANE_ANGLE_UNIT ( ) SI_UNIT ( $, .RADIAN. ) );
#45 = LINE ( 'NONE', #588, #472 ) ;
#46 = CARTESIAN_POINT ( 'NONE',  ( -0.7320314559891982764, 9.129999999999999005, -0.6550819443166691070 ) ) ;
#47 = ORIENTED_EDGE ( 'NONE', *, *, #671, .F. ) ;
#48 = DIRECTION ( 'NONE',  ( 0.000000000000000000, 0.000000000000000000, -1.000000000000000000 ) ) ;
#49 = CARTESIAN_POINT ( 'NONE',  ( 1.741423733396732085E-16, 8.000000000000000000, 1.421980390271855743 ) ) ;
#50 = DIRECTION ( 'NONE',  ( 0.000000000000000000, 0.000000000000000000, 1.000000000000000000 ) ) ;
#51 = ORIENTED_EDGE ( 'NONE', *, *, #187, .F. ) ;
#52 =( NAMED_UNIT ( * ) SI_UNIT ( $, .STERADIAN. ) SOLID_ANGLE_UNIT ( ) );
#53 = EDGE_CURVE ( 'NONE', #146, #275, #250, .T. ) ;
#54 = CARTESIAN_POINT ( 'NONE',  ( 1.600249331657972672E-15, 9.129999999999999005, 1.399999999999999689 ) ) ;
#55 = DIRECTION ( 'NONE',  ( 0.000000000000000000, 0.000000000000000000, -1.000000000000000000 ) ) ;
#56 = APPLICATION_CONTEXT ( 'automotive_design' ) ;
#57 = AXIS2_PLACEMENT_3D ( 'NONE', #11, #829, #225 ) ;
#58 = FACE_OUTER_BOUND ( 'NONE', #771, .T. ) ;
#59 = VECTOR ( 'NONE', #659, 1000.000000000000000 ) ;
#60 = CONICAL_SURFACE ( 'NONE', #738, 2.750000000000000000, 0.08726646259970981256 ) ;
#61 = CARTESIAN_POINT ( 'NONE',  ( 0.000000000000000000, 8.000000000000000000, -2.750000000000000000 ) ) ;
#62 =( NAMED_UNIT ( * ) PLANE_ANGLE_UNIT ( ) SI_UNIT ( $, .RADIAN. ) );
#63 = EDGE_CURVE ( 'NONE', #571, #594, #156, .T. ) ;
#64 = CARTESIAN_POINT ( 'NONE',  ( 0.000000000000000000, 8.239999999999998437, 0.000000000000000000 ) ) ;
#65 = DIRECTION ( 'NONE',  ( -0.000000000000000000, -1.000000000000000000, -0.000000000000000000 ) ) ;
#66 = EDGE_CURVE ( 'NONE', #785, #107, #402, .T. ) ;
#67 = SURFACE_STYLE_FILL_AREA ( #607 ) ;
#68 = CARTESIAN_POINT ( 'NONE',  ( -0.1006509386720712412, 9.129999999999999005, 1.400000000000003686 ) ) ;
#69 = CARTESIAN_POINT ( 'NONE',  ( -1.592188735935161636, 9.129999999999999005, -0.9192505952928529123 ) ) ;
#70 = EDGE_LOOP ( 'NONE', ( #191, #3 ) ) ;
#71 = DIRECTION ( 'NONE',  ( 1.000000000000000000, 0.000000000000000000, 0.000000000000000000 ) ) ;
#72 = CARTESIAN_POINT ( 'NONE',  ( 0.000000000000000000, 7.900000000000000355, -1.321980390271855876 ) ) ;
#73 = TOROIDAL_SURFACE ( 'NONE', #261, 1.421980390271855743, 0.1000000000000000056 ) ;
#74 = AXIS2_PLACEMENT_3D ( 'NONE', #214, #480, #130 ) ;
#75 = DIRECTION ( 'NONE',  ( 0.000000000000000000, 0.000000000000000000, -1.000000000000000000 ) ) ;
#76 = ORIENTED_EDGE ( 'NONE', *, *, #332, .T. ) ;
#77 = CARTESIAN_POINT ( 'NONE',  ( -1.262761034634241941, 10.27299999999999969, 0.6128337301952304639 ) ) ;
#78 = CARTESIAN_POINT ( 'NONE',  ( 0.000000000000000000, 9.129999999999999005, 0.000000000000000000 ) ) ;
#79 = ORIENTED_EDGE ( 'NONE', *, *, #626, .T. ) ;
#80 = CARTESIAN_POINT ( 'NONE',  ( 0.000000000000000000, 9.129999999999999005, 0.000000000000000000 ) ) ;
#81 = ADVANCED_FACE ( 'NONE', ( #593 ), #73, .F. ) ;
#82 = PLANE ( 'NONE',  #57 ) ;
#83 = ORIENTED_EDGE ( 'NONE', *, *, #878, .T. ) ;
#84 = PRODUCT ( 'hexalobular socket cheese head_iso_ISO 14580 - #3 x 8 x 7 - 4.8-N', 'hexalobular socket cheese head_iso_ISO 14580 - #3 x 8 x 7 - 4.8-N', '', ( #414 ) ) ;
#85 = DIRECTION ( 'NONE',  ( 1.000000000000000000, 0.000000000000000000, -1.224646799147353207E-16 ) ) ;
#86 = ADVANCED_FACE ( 'NONE', ( #398 ), #469, .T. ) ;
#87 = DIRECTION ( 'NONE',  ( -0.000000000000000000, 1.000000000000000000, 0.000000000000000000 ) ) ;
#88 = VECTOR ( 'NONE', #453, 1000.000000000000000 ) ;
#89 = ORIENTED_EDGE ( 'NONE', *, *, #591, .T. ) ;
#90 = VECTOR ( 'NONE', #703, 1000.000000000000000 ) ;
#91 = DIRECTION ( 'NONE',  ( 0.000000000000000000, 0.000000000000000000, -1.000000000000000000 ) ) ;
#92 = CARTESIAN_POINT ( 'NONE',  ( 1.836970198721029934E-16, 7.000000000000000000, 1.500000000000000000 ) ) ;
#93 = ORIENTED_EDGE ( 'NONE', *, *, #823, .F. ) ;
#94 = EDGE_CURVE ( 'NONE', #360, #641, #142, .T. ) ;
#95 = CARTESIAN_POINT ( 'NONE',  ( 1.836970198721029934E-16, 0.000000000000000000, 1.500000000000000000 ) ) ;
#96 = FACE_OUTER_BOUND ( 'NONE', #699, .T. ) ;
#97 = ORIENTED_EDGE ( 'NONE', *, *, #111, .T. ) ;
#98 = FACE_OUTER_BOUND ( 'NONE', #818, .T. ) ;
#99 = FACE_OUTER_BOUND ( 'NONE', #248, .T. ) ;
#100 = ORIENTED_EDGE ( 'NONE', *, *, #367, .F. ) ;
#101 = AXIS2_PLACEMENT_3D ( 'NONE', #876, #674, #135 ) ;
#102 = EDGE_CURVE ( 'NONE', #495, #418, #735, .T. ) ;
#103 = AXIS2_PLACEMENT_3D ( 'NONE', #466, #381, #715 ) ;
#104 = EDGE_LOOP ( 'NONE', ( #461, #119 ) ) ;
#105 = CYLINDRICAL_SURFACE ( 'NONE', #799, 1.500000000000000000 ) ;
#106 = FACE_OUTER_BOUND ( 'NONE', #493, .T. ) ;
#107 = VERTEX_POINT ( 'NONE', #536 ) ;
#108 = EDGE_LOOP ( 'NONE', ( #482, #241 ) ) ;
#109 = CARTESIAN_POINT ( 'NONE',  ( -1.592188735935162747, 9.129999999999999005, 0.9192505952928531343 ) ) ;
#110 = FACE_OUTER_BOUND ( 'NONE', #104, .T. ) ;
#111 = EDGE_CURVE ( 'NONE', #172, #311, #804, .T. ) ;
#112 = ORIENTED_EDGE ( 'NONE', *, *, #671, .T. ) ;
#113 = ORIENTED_EDGE ( 'NONE', *, *, #719, .T. ) ;
#114 = DIRECTION ( 'NONE',  ( 0.000000000000000000, 0.000000000000000000, -1.000000000000000000 ) ) ;
#115 = CARTESIAN_POINT ( 'NONE',  ( 0.000000000000000000, 1008.240000000000009, 0.000000000000000000 ) ) ;
#116 = CARTESIAN_POINT ( 'NONE',  ( 0.000000000000000000, 7.900000000000000355, 0.000000000000000000 ) ) ;
#117 = CONICAL_SURFACE ( 'NONE', #825, 1.500000000000000000, 0.1973955598498806085 ) ;
#118 = CIRCLE ( 'NONE', #669, 0.9333333333334999926 ) ;
#119 = ORIENTED_EDGE ( 'NONE', *, *, #682, .F. ) ;
#120 = FACE_OUTER_BOUND ( 'NONE', #553, .T. ) ;
#121 = DIRECTION ( 'NONE',  ( 0.000000000000000000, 1.000000000000000000, 0.000000000000000000 ) ) ;
#122 = EDGE_CURVE ( 'NONE', #513, #760, #467, .T. ) ;
#123 = ORIENTED_EDGE ( 'NONE', *, *, #645, .T. ) ;
#124 = DIRECTION ( 'NONE',  ( 0.000000000000000000, 0.000000000000000000, -1.000000000000000000 ) ) ;
#125 = DIRECTION ( 'NONE',  ( 0.000000000000000000, 1.000000000000000000, 0.000000000000000000 ) ) ;
#126 = CARTESIAN_POINT ( 'NONE',  ( 0.000000000000000000, 1008.240000000000009, 0.000000000000000000 ) ) ;
#127 = DIRECTION ( 'NONE',  ( 0.000000000000000000, 0.000000000000000000, -1.000000000000000000 ) ) ;
#128 = DIRECTION ( 'NONE',  ( -0.000000000000000000, -1.000000000000000000, -0.000000000000000000 ) ) ;
#129 = AXIS2_PLACEMENT_3D ( 'NONE', #315, #128, #401 ) ;
#130 = DIRECTION ( 'NONE',  ( 0.000000000000000000, 0.000000000000000000, -1.000000000000000000 ) ) ;
#131 = AXIS2_PLACEMENT_3D ( 'NONE', #54, #462, #718 ) ;
#132 = DIRECTION ( 'NONE',  ( 0.000000000000000000, 0.000000000000000000, 1.000000000000000000 ) ) ;
#133 = DIRECTION ( 'NONE',  ( 8.862861028326715802E-17, 0.6901068175652125269, -0.7237075240385542063 ) ) ;
#134 = EDGE_CURVE ( 'NONE', #571, #319, #750, .T. ) ;
#135 = DIRECTION ( 'NONE',  ( -1.224646799147353207E-16, 0.000000000000000000, -1.000000000000000000 ) ) ;
#136 = ORIENTED_EDGE ( 'NONE', *, *, #665, .T. ) ;
#137 = CARTESIAN_POINT ( 'NONE',  ( 0.000000000000000000, 8.000000000000000000, -1.421980390271855743 ) ) ;
#138 = CARTESIAN_POINT ( 'NONE',  ( -1.212435565298213502, 10.27299999999999969, 0.7000000000000006217 ) ) ;
#139 = B_SPLINE_CURVE_WITH_KNOTS ( 'NONE', 3,
 ( #194, #183, #597, #46, #389 ),
 .UNSPECIFIED., .F., .F.,
 ( 4, 1, 4 ),
 ( 0.7500000000000001110, 0.8333333333333339255, 0.9166666666666662966 ),
 .UNSPECIFIED. ) ;
#140 = ORIENTED_EDGE ( 'NONE', *, *, #63, .F. ) ;
#141 = CARTESIAN_POINT ( 'NONE',  ( -1.212435565298213724, 10.27299999999999969, -0.7000000000000001776 ) ) ;
#142 = CIRCLE ( 'NONE', #497, 0.9333333333334999926 ) ;
#143 = AXIS2_PLACEMENT_3D ( 'NONE', #535, #723, #873 ) ;
#144 = CARTESIAN_POINT ( 'NONE',  ( 5.421010862427522170E-17, 10.27300000000000146, -1.400000000000000133 ) ) ;
#145 = AXIS2_PLACEMENT_3D ( 'NONE', #862, #396, #114 ) ;
#146 = VERTEX_POINT ( 'NONE', #333 ) ;
#147 = EDGE_CURVE ( 'NONE', #785, #297, #601, .T. ) ;
#148 = CARTESIAN_POINT ( 'NONE',  ( -0.4666666666667536600, 9.129999999999999005, -0.8082903768656182208 ) ) ;
#149 = DIRECTION ( 'NONE',  ( -0.000000000000000000, -1.000000000000000000, -0.000000000000000000 ) ) ;
#150 = ORIENTED_EDGE ( 'NONE', *, *, #543, .F. ) ;
#151 = DIRECTION ( 'NONE',  ( 0.000000000000000000, 1.000000000000000000, 0.000000000000000000 ) ) ;
#152 = CARTESIAN_POINT ( 'NONE',  ( 1.212435565298213946, 10.27299999999999969, -0.7000000000000001776 ) ) ;
#153 = VERTEX_POINT ( 'NONE', #808 ) ;
#154 = FACE_OUTER_BOUND ( 'NONE', #826, .T. ) ;
#155 = CARTESIAN_POINT ( 'NONE',  ( 0.000000000000000000, 8.000000000000000000, 0.000000000000000000 ) ) ;
#156 = CIRCLE ( 'NONE', #202, 0.1000000000000000472 ) ;
#157 = ADVANCED_FACE ( 'NONE', ( #201 ), #117, .T. ) ;
#158 = AXIS2_PLACEMENT_3D ( 'NONE', #507, #563, #836 ) ;
#159 = ORIENTED_EDGE ( 'NONE', *, *, #94, .F. ) ;
#160 =( GEOMETRIC_REPRESENTATION_CONTEXT ( 3 ) GLOBAL_UNCERTAINTY_ASSIGNED_CONTEXT ( ( #537 ) ) GLOBAL_UNIT_ASSIGNED_CONTEXT ( ( #312, #192, #52 ) ) REPRESENTATION_CONTEXT ( 'NONE', 'WORKASPACE' ) );
#161 = EDGE_CURVE ( 'NONE', #641, #153, #370, .T. ) ;
#162 = DIRECTION ( 'NONE',  ( -0.000000000000000000, -1.000000000000000000, -0.000000000000000000 ) ) ;
#163 = ADVANCED_FACE ( 'NONE', ( #604 ), #260, .T. ) ;
#164 = PLANE ( 'NONE',  #314 ) ;
#165 = ORIENTED_EDGE ( 'NONE', *, *, #629, .F. ) ;
#166 = CARTESIAN_POINT ( 'NONE',  ( 0.000000000000000000, 0.000000000000000000, 0.000000000000000000 ) ) ;
#167 = CARTESIAN_POINT ( 'NONE',  ( 0.000000000000000000, 10.40000000000000036, 1.399999999999999911 ) ) ;
#168 = EDGE_LOOP ( 'NONE', ( #680, #779 ) ) ;
#169 = ORIENTED_EDGE ( 'NONE', *, *, #63, .T. ) ;
#170 = CARTESIAN_POINT ( 'NONE',  ( 0.000000000000000000, 8.000000000000000000, 0.000000000000000000 ) ) ;
#171 = FACE_OUTER_BOUND ( 'NONE', #9, .T. ) ;
#172 = VERTEX_POINT ( 'NONE', #341 ) ;
#173 = AXIS2_PLACEMENT_3D ( 'NONE', #78, #65, #282 ) ;
#174 = VECTOR ( 'NONE', #133, 1000.000000000000000 ) ;
#175 = EDGE_CURVE ( 'NONE', #176, #651, #12, .T. ) ;
#176 = VERTEX_POINT ( 'NONE', #487 ) ;
#177 = CARTESIAN_POINT ( 'NONE',  ( 0.000000000000000000, 6.123233995736764803E-17, 0.000000000000000000 ) ) ;
#178 = CARTESIAN_POINT ( 'NONE',  ( 0.7320314559891925033, 9.129999999999999005, -0.6550819443166681078 ) ) ;
#179 = EDGE_LOOP ( 'NONE', ( #622, #475, #217, #586, #765, #252 ) ) ;
#180 = ORIENTED_EDGE ( 'NONE', *, *, #848, .T. ) ;
#181 = DIRECTION ( 'NONE',  ( 0.000000000000000000, -1.000000000000000000, -0.000000000000000000 ) ) ;
#182 = DIRECTION ( 'NONE',  ( 0.000000000000000000, -0.000000000000000000, 1.000000000000000000 ) ) ;
#183 = CARTESIAN_POINT ( 'NONE',  ( -0.9333333333333342363, 9.129999999999999005, -0.3064168650976197839 ) ) ;
#184 = EDGE_LOOP ( 'NONE', ( #430, #31, #702, #865 ) ) ;
#185 = CARTESIAN_POINT ( 'NONE',  ( -2.032879073410320814E-17, 9.129999999999999005, -1.399999999999999911 ) ) ;
#186 = CARTESIAN_POINT ( 'NONE',  ( 0.000000000000000000, 7.000000000000000000, -1.500000000000000000 ) ) ;
#187 = EDGE_CURVE ( 'NONE', #153, #774, #652, .T. ) ;
#188 = CARTESIAN_POINT ( 'NONE',  ( 3.367778697655221012E-16, 8.000000000000000000, 2.750000000000000000 ) ) ;
#189 = AXIS2_PLACEMENT_3D ( 'NONE', #755, #149, #420 ) ;
#190 = AXIS2_PLACEMENT_3D ( 'NONE', #115, #522, #327 ) ;
#191 = ORIENTED_EDGE ( 'NONE', *, *, #66, .T. ) ;
#192 =( NAMED_UNIT ( * ) PLANE_ANGLE_UNIT ( ) SI_UNIT ( $, .RADIAN. ) );
#193 = DIRECTION ( 'NONE',  ( -0.000000000000000000, -1.000000000000000000, -0.000000000000000000 ) ) ;
#194 = CARTESIAN_POINT ( 'NONE',  ( -0.9333333333334999926, 9.129999999999999005, -1.302696062818577301E-15 ) ) ;
#195 = CARTESIAN_POINT ( 'NONE',  ( 0.9333333333334999926, 9.129999999999999005, 1.084202172485698198E-16 ) ) ;
#196 = PLANE ( 'NONE',  #103 ) ;
#197 = CARTESIAN_POINT ( 'NONE',  ( 1.714505518806294391E-16, 10.27299999999999969, -1.399999999999999911 ) ) ;
#198 = ADVANCED_FACE ( 'NONE', ( #824 ), #567, .F. ) ;
#199 = APPLICATION_PROTOCOL_DEFINITION ( 'draft international standard', 'automotive_design', 1998, #378 ) ;
#200 = FACE_OUTER_BOUND ( 'NONE', #515, .T. ) ;
#201 = FACE_OUTER_BOUND ( 'NONE', #835, .T. ) ;
#202 = AXIS2_PLACEMENT_3D ( 'NONE', #794, #322, #530 ) ;
#203 = AXIS2_PLACEMENT_3D ( 'NONE', #337, #541, #407 ) ;
#204 = EDGE_CURVE ( 'NONE', #18, #785, #675, .T. ) ;
#205 = CARTESIAN_POINT ( 'NONE',  ( 0.000000000000000000, 10.27299999999999969, 0.000000000000000000 ) ) ;
#206 = CIRCLE ( 'NONE', #654, 1.323922322702763887 ) ;
#207 = COLOUR_RGB ( '',1.000000000000000000, 0.9490196078431372140, 0.9098039215686274384 ) ;
#208 = FACE_OUTER_BOUND ( 'NONE', #108, .T. ) ;
#209 = ORIENTED_EDGE ( 'NONE', *, *, #788, .F. ) ;
#210 = DIRECTION ( 'NONE',  ( -0.000000000000000000, 1.000000000000000000, 0.000000000000000000 ) ) ;
#211 = CARTESIAN_POINT ( 'NONE',  ( -0.09702750487987683858, 9.129999999999999005, 1.415786042861088001 ) ) ;
#212 = ORIENTED_EDGE ( 'NONE', *, *, #816, .F. ) ;
#213 =( NAMED_UNIT ( * ) SI_UNIT ( $, .STERADIAN. ) SOLID_ANGLE_UNIT ( ) );
#214 = CARTESIAN_POINT ( 'NONE',  ( 0.000000000000000000, 8.000000000000000000, 0.000000000000000000 ) ) ;
#215 = CARTESIAN_POINT ( 'NONE',  ( -0.3019528160162190389, 9.129999999999999005, 0.5229976188285883065 ) ) ;
#216 = ADVANCED_FACE ( 'NONE', ( #208 ), #82, .T. ) ;
#217 = ORIENTED_EDGE ( 'NONE', *, *, #599, .F. ) ;
#218 = CARTESIAN_POINT ( 'NONE',  ( -2.032879073410320814E-17, 9.129999999999999005, -1.399999999999999911 ) ) ;
#219 = CIRCLE ( 'NONE', #143, 1.399999999999999911 ) ;
#220 = AXIS2_PLACEMENT_3D ( 'NONE', #807, #612, #276 ) ;
#221 = CARTESIAN_POINT ( 'NONE',  ( -1.592188735935162081, 9.129999999999999005, 0.9192505952928529123 ) ) ;
#222 = CIRCLE ( 'NONE', #639, 0.1000000000000000472 ) ;
#223 = EDGE_LOOP ( 'NONE', ( #100, #238, #165, #533 ) ) ;
#224 = CARTESIAN_POINT ( 'NONE',  ( 1.262761034634241275, 10.27299999999999969, -0.6128337301952304639 ) ) ;
#225 = DIRECTION ( 'NONE',  ( 0.000000000000000000, -0.000000000000000000, 1.000000000000000000 ) ) ;
#226 = ORIENTED_EDGE ( 'NONE', *, *, #665, .F. ) ;
#227 = CARTESIAN_POINT ( 'NONE',  ( 1.212435565298213946, 10.27299999999999969, 0.6999999999999998446 ) ) ;
#228 = B_SPLINE_CURVE_WITH_KNOTS ( 'NONE', 3,
 ( #523, #736, #729, #867, #725 ),
 .UNSPECIFIED., .F., .F.,
 ( 4, 1, 4 ),
 ( 0.4999999999999993339, 0.5833333333333328152, 0.6666666666666670737 ),
 .UNSPECIFIED. ) ;
#229 = CARTESIAN_POINT ( 'NONE',  ( 1.162110095962191281, 10.27299999999999969, -0.7871662698047670048 ) ) ;
#230 = VERTEX_POINT ( 'NONE', #411 ) ;
#231 = CARTESIAN_POINT ( 'NONE',  ( 0.000000000000000000, 10.27299999999999969, 1.399999999999999911 ) ) ;
#232 = CARTESIAN_POINT ( 'NONE',  ( -1.212435565298213724, 10.27299999999999969, -0.7000000000000001776 ) ) ;
#233 = AXIS2_PLACEMENT_3D ( 'NONE', #80, #608, #616 ) ;
#234 = EDGE_LOOP ( 'NONE', ( #93, #565 ) ) ;
#235 = AXIS2_PLACEMENT_3D ( 'NONE', #792, #181, #124 ) ;
#236 = CARTESIAN_POINT ( 'NONE',  ( 0.000000000000000000, 10.27299999999999969, 0.000000000000000000 ) ) ;
#237 = CARTESIAN_POINT ( 'NONE',  ( 0.000000000000000000, 7.900000000000000355, 0.000000000000000000 ) ) ;
#238 = ORIENTED_EDGE ( 'NONE', *, *, #254, .T. ) ;
#239 = DIRECTION ( 'NONE',  ( -0.000000000000000000, -1.000000000000000000, -0.000000000000000000 ) ) ;
#240 = CARTESIAN_POINT ( 'NONE',  ( 0.3019528160162059938, 9.129999999999999005, -0.5229976188285728744 ) ) ;
#241 = ORIENTED_EDGE ( 'NONE', *, *, #204, .F. ) ;
#242 = EDGE_CURVE ( 'NONE', #230, #176, #470, .T. ) ;
#243 = ORIENTED_EDGE ( 'NONE', *, *, #32, .F. ) ;
#244 = CARTESIAN_POINT ( 'NONE',  ( 0.1006509386720699228, 9.129999999999999005, -1.399999999999997691 ) ) ;
#245 = VERTEX_POINT ( 'NONE', #152 ) ;
#246 = AXIS2_PLACEMENT_3D ( 'NONE', #237, #644, #631 ) ;
#247 = STYLED_ITEM ( 'NONE', ( #520 ), #840 ) ;
#248 = EDGE_LOOP ( 'NONE', ( #306, #30 ) ) ;
#249 = CARTESIAN_POINT ( 'NONE',  ( 0.000000000000000000, 10.27299999999999969, 0.000000000000000000 ) ) ;
#250 = LINE ( 'NONE', #188, #88 ) ;
#251 = ADVANCED_FACE ( 'NONE', ( #678 ), #347, .T. ) ;
#252 = ORIENTED_EDGE ( 'NONE', *, *, #423, .T. ) ;
#253 = DIRECTION ( 'NONE',  ( -1.000000000000000000, 0.000000000000000000, 0.000000000000000000 ) ) ;
#254 = EDGE_CURVE ( 'NONE', #383, #478, #880, .T. ) ;
#255 = CARTESIAN_POINT ( 'NONE',  ( -0.1006509386720714355, 10.27299999999999791, -1.400000000000002576 ) ) ;
#256 = DIRECTION ( 'NONE',  ( 0.000000000000000000, 0.000000000000000000, 1.000000000000000000 ) ) ;
#257 = EDGE_LOOP ( 'NONE', ( #657, #180, #454, #212 ) ) ;
#258 = DIRECTION ( 'NONE',  ( -0.000000000000000000, -1.000000000000000000, -0.000000000000000000 ) ) ;
#259 = DIRECTION ( 'NONE',  ( 0.000000000000000000, -0.000000000000000000, 1.000000000000000000 ) ) ;
#260 = B_SPLINE_SURFACE_WITH_KNOTS ( 'NONE', 3, 1, ( 
 ( #353, #820 ),
 ( #8, #548 ),
 ( #211, #817 ),
 ( #215, #481 ),
 ( #221, #477 ),
 ( #551, #288 ),
 ( #69, #350 ),
 ( #557, #621 ),
 ( #672, #749 ),
 ( #2, #144 ) ),
 .UNSPECIFIED., .F., .F., .F.,
 ( 4, 1, 1, 1, 1, 1, 1, 4 ),
 ( 2, 2 ),
 ( 0.4970000000000002194, 0.5000000000000004441, 0.5833333333333334814, 0.6666666666666665186, 0.7500000000000000000, 0.8333333333333335924, 0.9166666666666658525, 1.000000000000000000 ),
 ( 0.000000000000000000, 1.000000000000000000 ),
 .UNSPECIFIED. ) ;
#261 = AXIS2_PLACEMENT_3D ( 'NONE', #116, #394, #660 ) ;
#262 = AXIS2_PLACEMENT_3D ( 'NONE', #205, #4, #404 ) ;
#263 = EDGE_LOOP ( 'NONE', ( #372, #36, #391, #757 ) ) ;
#264 = DIRECTION ( 'NONE',  ( -0.000000000000000000, -1.000000000000000000, -0.000000000000000000 ) ) ;
#265 = B_SPLINE_CURVE_WITH_KNOTS ( 'NONE', 3,
 ( #658, #534, #109, #380, #595 ),
 .UNSPECIFIED., .F., .F.,
 ( 4, 1, 4 ),
 ( 0.5833333333333334814, 0.6666666666666665186, 0.7500000000000001110 ),
 .UNSPECIFIED. ) ;
#266 = CARTESIAN_POINT ( 'NONE',  ( 0.000000000000000000, 10.40000000000000036, -2.540027207537798315 ) ) ;
#267 = DIRECTION ( 'NONE',  ( 0.000000000000000000, 0.000000000000000000, -1.000000000000000000 ) ) ;
#268 = DIRECTION ( 'NONE',  ( 0.000000000000000000, 0.000000000000000000, -1.000000000000000000 ) ) ;
#269 = EDGE_CURVE ( 'NONE', #692, #785, #812, .T. ) ;
#270 = CARTESIAN_POINT ( 'NONE',  ( 0.000000000000000000, 8.239999999999998437, 0.000000000000000000 ) ) ;
#271 = CARTESIAN_POINT ( 'NONE',  ( -0.3019528160162214259, 10.27299999999999969, 0.5229976188285834215 ) ) ;
#272 = AXIS2_PLACEMENT_3D ( 'NONE', #417, #609, #684 ) ;
#273 = CIRCLE ( 'NONE', #811, 1.399999999999999911 ) ;
#274 = PLANE ( 'NONE',  #220 ) ;
#275 = VERTEX_POINT ( 'NONE', #5 ) ;
#276 = DIRECTION ( 'NONE',  ( 0.000000000000000000, -0.000000000000000000, 1.000000000000000000 ) ) ;
#277 = ADVANCED_FACE ( 'NONE', ( #171 ), #465, .T. ) ;
#278 = DIRECTION ( 'NONE',  ( 0.000000000000000000, 0.000000000000000000, -1.000000000000000000 ) ) ;
#279 = ORIENTED_EDGE ( 'NONE', *, *, #762, .T. ) ;
#280 = B_SPLINE_CURVE_WITH_KNOTS ( 'NONE', 3,
 ( #819, #7, #734, #419, #740 ),
 .UNSPECIFIED., .F., .F.,
 ( 4, 1, 4 ),
 ( 0.2500000000000004996, 0.3333333333333338144, 0.4166666666666673513 ),
 .UNSPECIFIED. ) ;
#281 = FACE_OUTER_BOUND ( 'NONE', #234, .T. ) ;
#282 = DIRECTION ( 'NONE',  ( 0.000000000000000000, 0.000000000000000000, -1.000000000000000000 ) ) ;
#283 = ORIENTED_EDGE ( 'NONE', *, *, #32, .T. ) ;
#284 = ADVANCED_BREP_SHAPE_REPRESENTATION ( 'hexalobular socket cheese head_iso_ISO 14580 - #3 x 8 x 7 - 4.8-N', ( #840, #783 ), #160 ) ;
#285 = CARTESIAN_POINT ( 'NONE',  ( 0.000000000000000000, 10.27299999999999969, 0.000000000000000000 ) ) ;
#286 = AXIS2_PLACEMENT_3D ( 'NONE', #365, #258, #456 ) ;
#287 = AXIS2_PLACEMENT_3D ( 'NONE', #290, #151, #769 ) ;
#288 = CARTESIAN_POINT ( 'NONE',  ( -0.6039056320324169835, 10.27300000000000146, 1.936985509658291697E-18 ) ) ;
#289 = ORIENTED_EDGE ( 'NONE', *, *, #332, .F. ) ;
#290 = CARTESIAN_POINT ( 'NONE',  ( 0.000000000000000000, 10.40000000000000036, 0.000000000000000000 ) ) ;
#291 = DIRECTION ( 'NONE',  ( 0.000000000000000000, 0.000000000000000000, -1.000000000000000000 ) ) ;
#292 = PRODUCT_RELATED_PRODUCT_CATEGORY ( 'part', '', ( #84 ) ) ;
#293 = ORIENTED_EDGE ( 'NONE', *, *, #387, .F. ) ;
#294 = EDGE_CURVE ( 'NONE', #319, #418, #511, .T. ) ;
#295 = CARTESIAN_POINT ( 'NONE',  ( 0.000000000000000000, 8.000000000000000000, -2.750000000000000000 ) ) ;
#296 = CARTESIAN_POINT ( 'NONE',  ( 0.000000000000000000, 7.900000000000000355, 0.000000000000000000 ) ) ;
#297 = VERTEX_POINT ( 'NONE', #167 ) ;
#298 = DIRECTION ( 'NONE',  ( 0.000000000000000000, 0.000000000000000000, -1.000000000000000000 ) ) ;
#299 = CARTESIAN_POINT ( 'NONE',  ( 0.1006509386720715743, 10.27300000000000146, 1.399999999999998801 ) ) ;
#300 = AXIS2_PLACEMENT_3D ( 'NONE', #573, #20, #436 ) ;
#301 = EDGE_LOOP ( 'NONE', ( #561, #488, #412, #289 ) ) ;
#302 =( GEOMETRIC_REPRESENTATION_CONTEXT ( 3 ) GLOBAL_UNCERTAINTY_ASSIGNED_CONTEXT ( ( #438 ) ) GLOBAL_UNIT_ASSIGNED_CONTEXT ( ( #450, #44, #38 ) ) REPRESENTATION_CONTEXT ( 'NONE', 'WORKASPACE' ) );
#303 = DIRECTION ( 'NONE',  ( 0.000000000000000000, 1.000000000000000000, 0.000000000000000000 ) ) ;
#304 = CARTESIAN_POINT ( 'NONE',  ( 0.1006509386720704086, 10.27299999999999969, -1.399999999999995470 ) ) ;
#305 = ADVANCED_FACE ( 'NONE', ( #106 ), #704, .T. ) ;
#306 = ORIENTED_EDGE ( 'NONE', *, *, #788, .T. ) ;
#307 = ORIENTED_EDGE ( 'NONE', *, *, #94, .T. ) ;
#308 = CARTESIAN_POINT ( 'NONE',  ( 0.1006509386720699228, 10.27300000000000146, -1.399999999999997691 ) ) ;
#309 = B_SPLINE_CURVE_WITH_KNOTS ( 'NONE', 3,
 ( #527, #447, #517, #863 ),
 .UNSPECIFIED., .F., .F.,
 ( 4, 4 ),
 ( 0.000000000000000000, 0.08333333333333314830 ),
 .UNSPECIFIED. ) ;
#310 = ORIENTED_EDGE ( 'NONE', *, *, #707, .F. ) ;
#311 = VERTEX_POINT ( 'NONE', #627 ) ;
#312 =( LENGTH_UNIT ( ) NAMED_UNIT ( * ) SI_UNIT ( .MILLI., .METRE. ) );
#313 = CARTESIAN_POINT ( 'NONE',  ( -1.212435565298213724, 10.27299999999999969, -0.7000000000000001776 ) ) ;
#314 = AXIS2_PLACEMENT_3D ( 'NONE', #849, #508, #35 ) ;
#315 = CARTESIAN_POINT ( 'NONE',  ( 0.000000000000000000, 7.880388386486181673, 0.000000000000000000 ) ) ;
#316 = AXIS2_PLACEMENT_3D ( 'NONE', #320, #400, #858 ) ;
#317 = EDGE_CURVE ( 'NONE', #760, #275, #343, .T. ) ;
#318 =( GEOMETRIC_REPRESENTATION_CONTEXT ( 3 ) GLOBAL_UNCERTAINTY_ASSIGNED_CONTEXT ( ( #602 ) ) GLOBAL_UNIT_ASSIGNED_CONTEXT ( ( #615, #62, #213 ) ) REPRESENTATION_CONTEXT ( 'NONE', 'WORKASPACE' ) );
#319 = VERTEX_POINT ( 'NONE', #837 ) ;
#320 = CARTESIAN_POINT ( 'NONE',  ( 0.000000000000000000, 8.000000000000000000, 0.000000000000000000 ) ) ;
#321 = B_SPLINE_CURVE_WITH_KNOTS ( 'NONE', 3,
 ( #666, #255, #451, #728, #313 ),
 .UNSPECIFIED., .F., .F.,
 ( 4, 1, 4 ),
 ( 0.000000000000000000, 0.08333333333333470261, 0.1666666666666675178 ),
 .UNSPECIFIED. ) ;
#322 = DIRECTION ( 'NONE',  ( -1.000000000000000000, 0.000000000000000000, 0.000000000000000000 ) ) ;
#323 = ORIENTED_EDGE ( 'NONE', *, *, #578, .T. ) ;
#324 = CARTESIAN_POINT ( 'NONE',  ( 0.000000000000000000, 10.27299999999999969, 0.000000000000000000 ) ) ;
#325 = DIRECTION ( 'NONE',  ( 0.000000000000000000, 1.000000000000000000, 0.000000000000000000 ) ) ;
#326 = ORIENTED_EDGE ( 'NONE', *, *, #317, .T. ) ;
#327 = DIRECTION ( 'NONE',  ( 0.000000000000000000, 0.000000000000000000, 1.000000000000000000 ) ) ;
#328 = CARTESIAN_POINT ( 'NONE',  ( 0.000000000000000000, 7.000000000000000000, 0.000000000000000000 ) ) ;
#329 = AXIS2_PLACEMENT_3D ( 'NONE', #126, #325, #50 ) ;
#330 = CIRCLE ( 'NONE', #499, 1.500000000000000000 ) ;
#331 = DIRECTION ( 'NONE',  ( -0.000000000000000000, -1.000000000000000000, -0.000000000000000000 ) ) ;
#332 = EDGE_CURVE ( 'NONE', #495, #676, #701, .T. ) ;
#333 = CARTESIAN_POINT ( 'NONE',  ( 3.239207443556787847E-16, 10.40000000000000036, 2.540027207537798315 ) ) ;
#334 = PRESENTATION_STYLE_ASSIGNMENT (( #814 ) ) ;
#335 = LINE ( 'NONE', #270, #174 ) ;
#336 = EDGE_CURVE ( 'NONE', #245, #172, #489, .T. ) ;
#337 = CARTESIAN_POINT ( 'NONE',  ( 0.000000000000000000, 0.000000000000000000, 0.000000000000000000 ) ) ;
#338 = ADVANCED_FACE ( 'NONE', ( #844 ), #693, .F. ) ;
#339 = FILL_AREA_STYLE_COLOUR ( '', #207 ) ;
#340 = CARTESIAN_POINT ( 'NONE',  ( 1.195104801059953702E-15, 9.129999999999999005, 1.400000000000000133 ) ) ;
#341 = CARTESIAN_POINT ( 'NONE',  ( -7.357501618376551716E-16, 10.27299999999999969, -1.399999999999999911 ) ) ;
#342 = EDGE_LOOP ( 'NONE', ( #449, #549 ) ) ;
#343 = CIRCLE ( 'NONE', #667, 2.750000000000000000 ) ;
#344 = ADVANCED_FACE ( 'NONE', ( #362 ), #773, .F. ) ;
#345 = AXIS2_PLACEMENT_3D ( 'NONE', #696, #85, #355 ) ;
#346 = FACE_OUTER_BOUND ( 'NONE', #70, .T. ) ;
#347 = CYLINDRICAL_SURFACE ( 'NONE', #203, 1.500000000000000000 ) ;
#348 = ORIENTED_EDGE ( 'NONE', *, *, #423, .F. ) ;
#349 = DIRECTION ( 'NONE',  ( 0.000000000000000000, 1.000000000000000000, 0.000000000000000000 ) ) ;
#350 = CARTESIAN_POINT ( 'NONE',  ( -1.592188735935161636, 10.27300000000000146, -0.9192505952928529123 ) ) ;
#351 = ORIENTED_EDGE ( 'NONE', *, *, #434, .F. ) ;
#352 = CYLINDRICAL_SURFACE ( 'NONE', #262, 1.399999999999999911 ) ;
#353 = CARTESIAN_POINT ( 'NONE',  ( 0.01087798626600056107, 9.129999999999999005, 1.398328876701469436 ) ) ;
#354 = ORIENTED_EDGE ( 'NONE', *, *, #147, .F. ) ;
#355 = DIRECTION ( 'NONE',  ( -1.224646799147353207E-16, 0.000000000000000000, -1.000000000000000000 ) ) ;
#356 = AXIS2_PLACEMENT_3D ( 'NONE', #458, #121, #132 ) ;
#357 = AXIS2_PLACEMENT_3D ( 'NONE', #386, #125, #803 ) ;
#358 = CARTESIAN_POINT ( 'NONE',  ( 0.3019528160162059938, 10.27300000000000146, -0.5229976188285728744 ) ) ;
#359 = ADVANCED_FACE ( 'NONE', ( #99 ), #164, .T. ) ;
#360 = VERTEX_POINT ( 'NONE', #500 ) ;
#361 = CARTESIAN_POINT ( 'NONE',  ( 0.1006509386720725041, 9.129999999999999005, 1.399999999999996136 ) ) ;
#362 = FACE_OUTER_BOUND ( 'NONE', #179, .T. ) ;
#363 = ORIENTED_EDGE ( 'NONE', *, *, #823, .T. ) ;
#364 = CARTESIAN_POINT ( 'NONE',  ( 0.000000000000000000, 7.880388386486181673, 0.000000000000000000 ) ) ;
#365 = CARTESIAN_POINT ( 'NONE',  ( 0.000000000000000000, 8.000000000000000000, 0.000000000000000000 ) ) ;
#366 = ORIENTED_EDGE ( 'NONE', *, *, #464, .T. ) ;
#367 = EDGE_CURVE ( 'NONE', #383, #594, #797, .T. ) ;
#368 = CARTESIAN_POINT ( 'NONE',  ( 0.2013018773441425657, 9.129999999999999005, 0.9614988094142890018 ) ) ;
#369 = CARTESIAN_POINT ( 'NONE',  ( -2.032879073410320814E-17, 9.129999999999999005, -1.399999999999999911 ) ) ;
#370 = CIRCLE ( 'NONE', #766, 0.9333333333334999926 ) ;
#371 = CONICAL_SURFACE ( 'NONE', #190, 1048.689138576966116, 0.8091596867331981580 ) ;
#372 = ORIENTED_EDGE ( 'NONE', *, *, #134, .T. ) ;
#373 = EDGE_LOOP ( 'NONE', ( #169, #662, #382, #713 ) ) ;
#374 = CARTESIAN_POINT ( 'NONE',  ( 0.000000000000000000, 7.000000000000000000, 0.000000000000000000 ) ) ;
#375 = CARTESIAN_POINT ( 'NONE',  ( 0.000000000000000000, 0.000000000000000000, -1.500000000000000000 ) ) ;
#376 = B_SPLINE_CURVE_WITH_KNOTS ( 'NONE', 3,
 ( #141, #416, #683, #77, #630 ),
 .UNSPECIFIED., .F., .F.,
 ( 4, 1, 4 ),
 ( 0.1666666666666675178, 0.2500000000000000555, 0.3333333333333324822 ),
 .UNSPECIFIED. ) ;
#377 = VERTEX_POINT ( 'NONE', #232 ) ;
#378 = APPLICATION_CONTEXT ( 'automotive_design' ) ;
#379 = ORIENTED_EDGE ( 'NONE', *, *, #204, .T. ) ;
#380 = CARTESIAN_POINT ( 'NONE',  ( -0.9333333333333320159, 9.129999999999999005, 0.3064168650976176744 ) ) ;
#381 = DIRECTION ( 'NONE',  ( -0.000000000000000000, 1.000000000000000000, 0.000000000000000000 ) ) ;
#382 = ORIENTED_EDGE ( 'NONE', *, *, #719, .F. ) ;
#383 = VERTEX_POINT ( 'NONE', #770 ) ;
#384 = DIRECTION ( 'NONE',  ( -0.000000000000000000, 1.000000000000000000, -0.000000000000000000 ) ) ;
#385 = ADVANCED_FACE ( 'NONE', ( #96 ), #706, .T. ) ;
#386 = CARTESIAN_POINT ( 'NONE',  ( 0.000000000000000000, 10.40000000000000036, 0.000000000000000000 ) ) ;
#387 = EDGE_CURVE ( 'NONE', #377, #18, #219, .T. ) ;
#388 = VECTOR ( 'NONE', #539, 1000.000000000000000 ) ;
#389 = CARTESIAN_POINT ( 'NONE',  ( -0.4666666666667536600, 9.129999999999999005, -0.8082903768656182208 ) ) ;
#390 = MECHANICAL_DESIGN_GEOMETRIC_PRESENTATION_REPRESENTATION (  '', ( #460 ), #318 ) ;
#391 = ORIENTED_EDGE ( 'NONE', *, *, #102, .F. ) ;
#392 = DIRECTION ( 'NONE',  ( 0.000000000000000000, 0.000000000000000000, 1.000000000000000000 ) ) ;
#393 = CARTESIAN_POINT ( 'NONE',  ( 1.836970198721029934E-16, 7.000000000000000000, 1.500000000000000000 ) ) ;
#394 = DIRECTION ( 'NONE',  ( -0.000000000000000000, -1.000000000000000000, -0.000000000000000000 ) ) ;
#395 = VERTEX_POINT ( 'NONE', #866 ) ;
#396 = DIRECTION ( 'NONE',  ( -0.000000000000000000, -1.000000000000000000, -0.000000000000000000 ) ) ;
#397 = CARTESIAN_POINT ( 'NONE',  ( 1.592188735935165411, 9.129999999999999005, -0.9192505952928576862 ) ) ;
#398 = FACE_OUTER_BOUND ( 'NONE', #632, .T. ) ;
#399 = ADVANCED_FACE ( 'NONE', ( #120 ), #39, .T. ) ;
#400 = DIRECTION ( 'NONE',  ( 0.000000000000000000, 1.000000000000000000, 0.000000000000000000 ) ) ;
#401 = DIRECTION ( 'NONE',  ( 0.000000000000000000, 0.000000000000000000, -1.000000000000000000 ) ) ;
#402 = CIRCLE ( 'NONE', #356, 1.399999999999999911 ) ;
#403 = AXIS2_PLACEMENT_3D ( 'NONE', #170, #33, #556 ) ;
#404 = DIRECTION ( 'NONE',  ( 0.000000000000000000, 0.000000000000000000, 1.000000000000000000 ) ) ;
#405 = DIRECTION ( 'NONE',  ( -0.000000000000000000, 1.000000000000000000, -0.000000000000000000 ) ) ;
#406 = CARTESIAN_POINT ( 'NONE',  ( 0.4666666666666642871, 9.129999999999999005, -0.8082903768654773335 ) ) ;
#407 = DIRECTION ( 'NONE',  ( 0.000000000000000000, 0.000000000000000000, -1.000000000000000000 ) ) ;
#408 = ADVANCED_FACE ( 'NONE', ( #58 ), #371, .F. ) ;
#409 = ORIENTED_EDGE ( 'NONE', *, *, #566, .T. ) ;
#410 = DIRECTION ( 'NONE',  ( 0.000000000000000000, 0.000000000000000000, 1.000000000000000000 ) ) ;
#411 = CARTESIAN_POINT ( 'NONE',  ( -0.4666666666667536600, 9.129999999999999005, -0.8082903768656182208 ) ) ;
#412 = ORIENTED_EDGE ( 'NONE', *, *, #871, .F. ) ;
#413 = AXIS2_PLACEMENT_3D ( 'NONE', #296, #564, #24 ) ;
#414 = PRODUCT_CONTEXT ( 'NONE', #56, 'mechanical' ) ;
#415 = CIRCLE ( 'NONE', #316, 1.421980390271855743 ) ;
#416 = CARTESIAN_POINT ( 'NONE',  ( -1.262761034634241497, 10.27299999999999969, -0.6128337301952302418 ) ) ;
#417 = CARTESIAN_POINT ( 'NONE',  ( 0.000000000000000000, 9.129999999999999005, 0.000000000000000000 ) ) ;
#418 = VERTEX_POINT ( 'NONE', #393 ) ;
#419 = CARTESIAN_POINT ( 'NONE',  ( 0.7320314559891963890, 9.129999999999999005, 0.6550819443166722156 ) ) ;
#420 = DIRECTION ( 'NONE',  ( 0.000000000000000000, 0.000000000000000000, -1.000000000000000000 ) ) ;
#421 = ORIENTED_EDGE ( 'NONE', *, *, #626, .F. ) ;
#422 = CARTESIAN_POINT ( 'NONE',  ( 1.212435565298213946, 10.27299999999999969, -0.7000000000000001776 ) ) ;
#423 = EDGE_CURVE ( 'NONE', #297, #311, #598, .T. ) ;
#424 = DIRECTION ( 'NONE',  ( 2.401729971581266715E-17, -0.9805806756909202226, 0.1961161351381839058 ) ) ;
#425 = ORIENTED_EDGE ( 'NONE', *, *, #269, .T. ) ;
#426 = VECTOR ( 'NONE', #732, 1000.000000000000000 ) ;
#427 = LINE ( 'NONE', #95, #90 ) ;
#428 = AXIS2_PLACEMENT_3D ( 'NONE', #582, #331, #127 ) ;
#429 = CARTESIAN_POINT ( 'NONE',  ( -7.357501618376551716E-16, 10.27299999999999969, -1.399999999999999911 ) ) ;
#430 = ORIENTED_EDGE ( 'NONE', *, *, #566, .F. ) ;
#431 = CARTESIAN_POINT ( 'NONE',  ( 1.836970198721029934E-16, 6.123233995736764803E-17, 1.500000000000000000 ) ) ;
#432 = CARTESIAN_POINT ( 'NONE',  ( 0.1006509386720715743, 9.129999999999999005, 1.399999999999998801 ) ) ;
#433 = ORIENTED_EDGE ( 'NONE', *, *, #877, .F. ) ;
#434 = EDGE_CURVE ( 'NONE', #478, #577, #415, .T. ) ;
#435 = DIRECTION ( 'NONE',  ( -0.000000000000000000, -1.000000000000000000, -0.000000000000000000 ) ) ;
#436 = DIRECTION ( 'NONE',  ( 0.000000000000000000, 0.000000000000000000, 1.000000000000000000 ) ) ;
#437 = ORIENTED_EDGE ( 'NONE', *, *, #34, .F. ) ;
#438 = UNCERTAINTY_MEASURE_WITH_UNIT (LENGTH_MEASURE( 1.000000000000000082E-05 ), #450, 'distance_accuracy_value', 'NONE');
#439 = ORIENTED_EDGE ( 'NONE', *, *, #816, .T. ) ;
#440 = DIRECTION ( 'NONE',  ( 0.000000000000000000, -0.000000000000000000, 1.000000000000000000 ) ) ;
#441 = CARTESIAN_POINT ( 'NONE',  ( -1.355252715606880543E-17, 9.129999999999999005, 1.399999999999999911 ) ) ;
#442 = VECTOR ( 'NONE', #405, 1000.000000000000000 ) ;
#443 = CIRCLE ( 'NONE', #459, 1.399999999999999911 ) ;
#444 = ORIENTED_EDGE ( 'NONE', *, *, #175, .F. ) ;
#445 = ORIENTED_EDGE ( 'NONE', *, *, #645, .F. ) ;
#446 = FILL_AREA_STYLE ('',( #526 ) ) ;
#447 = CARTESIAN_POINT ( 'NONE',  ( 0.1006509386720702837, 9.129999999999999005, -1.399999999999997691 ) ) ;
#448 = FACE_OUTER_BOUND ( 'NONE', #14, .T. ) ;
#449 = ORIENTED_EDGE ( 'NONE', *, *, #871, .T. ) ;
#450 =( LENGTH_UNIT ( ) NAMED_UNIT ( * ) SI_UNIT ( .MILLI., .METRE. ) );
#451 = CARTESIAN_POINT ( 'NONE',  ( -0.3019528160162188168, 10.27299999999999969, -0.5229976188285717642 ) ) ;
#452 = EDGE_CURVE ( 'NONE', #172, #377, #321, .T. ) ;
#453 = DIRECTION ( 'NONE',  ( 1.067350013832215855E-17, -0.9961946980917461003, 0.08715574274765153229 ) ) ;
#454 = ORIENTED_EDGE ( 'NONE', *, *, #122, .T. ) ;
#455 = DIRECTION ( 'NONE',  ( 0.000000000000000000, 0.000000000000000000, -1.000000000000000000 ) ) ;
#456 = DIRECTION ( 'NONE',  ( 0.000000000000000000, 0.000000000000000000, -1.000000000000000000 ) ) ;
#457 = CIRCLE ( 'NONE', #636, 1.399999999999999911 ) ;
#458 = CARTESIAN_POINT ( 'NONE',  ( 0.000000000000000000, 10.27299999999999969, 0.000000000000000000 ) ) ;
#459 = AXIS2_PLACEMENT_3D ( 'NONE', #324, #592, #798 ) ;
#460 = STYLED_ITEM ( 'NONE', ( #334 ), #284 ) ;
#461 = ORIENTED_EDGE ( 'NONE', *, *, #599, .T. ) ;
#462 = DIRECTION ( 'NONE',  ( -0.000000000000000000, 1.000000000000000000, 0.000000000000000000 ) ) ;
#463 = DIRECTION ( 'NONE',  ( -0.000000000000000000, -1.000000000000000000, -0.000000000000000000 ) ) ;
#464 = EDGE_CURVE ( 'NONE', #642, #641, #793, .T. ) ;
#465 = B_SPLINE_SURFACE_WITH_KNOTS ( 'NONE', 3, 1, ( 
 ( #369, #691 ),
 ( #244, #308 ),
 ( #240, #358 ),
 ( #697, #576 ),
 ( #711, #784 ),
 ( #778, #634 ),
 ( #852, #505 ),
 ( #432, #299 ),
 ( #441, #17 ) ),
 .UNSPECIFIED., .F., .F., .F.,
 ( 4, 1, 1, 1, 1, 1, 4 ),
 ( 2, 2 ),
 ( 0.000000000000000000, 0.08333333333333285686, 0.1666666666666669627, 0.2500000000000004996, 0.3333333333333339255, 0.4166666666666675733, 0.5000000159681372569 ),
 ( 0.000000000000000000, 1.000000000000000000 ),
 .UNSPECIFIED. ) ;
#466 = CARTESIAN_POINT ( 'NONE',  ( 1.600249331657972672E-15, 9.129999999999999005, 1.399999999999999689 ) ) ;
#467 = LINE ( 'NONE', #61, #426 ) ;
#468 = CARTESIAN_POINT ( 'NONE',  ( 0.000000000000000000, 9.129999999999999005, 0.9333333333335001036 ) ) ;
#469 = PLANE ( 'NONE',  #528 ) ;
#470 = CIRCLE ( 'NONE', #623, 0.9333333333334999926 ) ;
#471 = EDGE_CURVE ( 'NONE', #395, #651, #309, .T. ) ;
#472 = VECTOR ( 'NONE', #687, 1000.000000000000000 ) ;
#473 = DIRECTION ( 'NONE',  ( 0.000000000000000000, 1.000000000000000000, 0.000000000000000000 ) ) ;
#474 = CARTESIAN_POINT ( 'NONE',  ( -1.162110095962189948, 10.27299999999999791, 0.7871662698047674489 ) ) ;
#475 = ORIENTED_EDGE ( 'NONE', *, *, #591, .F. ) ;
#476 = CARTESIAN_POINT ( 'NONE',  ( 1.600249331657972672E-15, 9.129999999999999005, 1.399999999999999689 ) ) ;
#477 = CARTESIAN_POINT ( 'NONE',  ( -1.592188735935162081, 10.27300000000000146, 0.9192505952928529123 ) ) ;
#478 = VERTEX_POINT ( 'NONE', #49 ) ;
#479 = SURFACE_SIDE_STYLE ('',( #67 ) ) ;
#480 = DIRECTION ( 'NONE',  ( 0.000000000000000000, 1.000000000000000000, 0.000000000000000000 ) ) ;
#481 = CARTESIAN_POINT ( 'NONE',  ( -0.3019528160162190389, 10.27300000000000146, 0.5229976188285883065 ) ) ;
#482 = ORIENTED_EDGE ( 'NONE', *, *, #496, .T. ) ;
#483 = TOROIDAL_SURFACE ( 'NONE', #839, 1.421980390271855743, 0.1000000000000000056 ) ;
#484 = DIRECTION ( 'NONE',  ( 0.000000000000000000, 0.000000000000000000, 1.000000000000000000 ) ) ;
#485 = CIRCLE ( 'NONE', #233, 0.9333333333334999926 ) ;
#486 = DIRECTION ( 'NONE',  ( 0.000000000000000000, 0.000000000000000000, 1.000000000000000000 ) ) ;
#487 = CARTESIAN_POINT ( 'NONE',  ( 1.143003679204400461E-16, 9.129999999999999005, -0.9333333333335001036 ) ) ;
#488 = ORIENTED_EDGE ( 'NONE', *, *, #707, .T. ) ;
#489 = B_SPLINE_CURVE_WITH_KNOTS ( 'NONE', 3,
 ( #834, #229, #640, #304, #429 ),
 .UNSPECIFIED., .F., .F.,
 ( 4, 1, 4 ),
 ( 0.8333333333333319271, 0.9166666666666666297, 1.000000000000000000 ),
 .UNSPECIFIED. ) ;
#490 = EDGE_CURVE ( 'NONE', #594, #383, #827, .T. ) ;
#491 = DIRECTION ( 'NONE',  ( -0.000000000000000000, -1.000000000000000000, -0.000000000000000000 ) ) ;
#492 = CARTESIAN_POINT ( 'NONE',  ( 0.000000000000000000, 9.129999999999999005, 0.000000000000000000 ) ) ;
#493 = EDGE_LOOP ( 'NONE', ( #421, #112 ) ) ;
#494 = CARTESIAN_POINT ( 'NONE',  ( 1.195104801059953702E-15, 9.129999999999999005, 1.400000000000000133 ) ) ;
#495 = VERTEX_POINT ( 'NONE', #186 ) ;
#496 = EDGE_CURVE ( 'NONE', #18, #785, #443, .T. ) ;
#497 = AXIS2_PLACEMENT_3D ( 'NONE', #668, #463, #55 ) ;
#498 = DIRECTION ( 'NONE',  ( 0.000000000000000000, 0.000000000000000000, 1.000000000000000000 ) ) ;
#499 = AXIS2_PLACEMENT_3D ( 'NONE', #374, #435, #772 ) ;
#500 = CARTESIAN_POINT ( 'NONE',  ( 0.4666666666667492192, 9.129999999999999005, 0.8082903768656209964 ) ) ;
#501 = ADVANCED_FACE ( 'NONE', ( #600 ), #870, .T. ) ;
#502 = ORIENTED_EDGE ( 'NONE', *, *, #452, .T. ) ;
#503 = B_SPLINE_CURVE_WITH_KNOTS ( 'NONE', 3,
 ( #148, #603, #875, #218 ),
 .UNSPECIFIED., .F., .F.,
 ( 4, 4 ),
 ( 0.9166666666666662966, 1.000000000000000000 ),
 .UNSPECIFIED. ) ;
#504 = DIRECTION ( 'NONE',  ( -0.000000000000000000, -1.000000000000000000, -0.000000000000000000 ) ) ;
#505 = CARTESIAN_POINT ( 'NONE',  ( 0.3019528160162120445, 10.27300000000000146, 0.5229976188285807570 ) ) ;
#506 = ORIENTED_EDGE ( 'NONE', *, *, #242, .F. ) ;
#507 = CARTESIAN_POINT ( 'NONE',  ( 1.500000000000000000, 3.061616997868382402E-17, 0.000000000000000000 ) ) ;
#508 = DIRECTION ( 'NONE',  ( 0.000000000000000000, 1.000000000000000000, 0.000000000000000000 ) ) ;
#509 = EDGE_CURVE ( 'NONE', #651, #855, #739, .T. ) ;
#510 = ORIENTED_EDGE ( 'NONE', *, *, #464, .F. ) ;
#511 = LINE ( 'NONE', #92, #581 ) ;
#512 = AXIS2_PLACEMENT_3D ( 'NONE', #177, #721, #856 ) ;
#513 = VERTEX_POINT ( 'NONE', #266 ) ;
#514 = ADVANCED_FACE ( 'NONE', ( #731 ), #196, .T. ) ;
#515 = EDGE_LOOP ( 'NONE', ( #685, #307, #868, #150 ) ) ;
#516 = FACE_OUTER_BOUND ( 'NONE', #257, .T. ) ;
#517 = CARTESIAN_POINT ( 'NONE',  ( 0.2013018773441379028, 9.129999999999999005, -0.9614988094142854491 ) ) ;
#518 = CARTESIAN_POINT ( 'NONE',  ( 0.000000000000000000, 7.900000000000000355, 0.000000000000000000 ) ) ;
#519 = EDGE_LOOP ( 'NONE', ( #209, #97, #283, #354, #726, #293 ) ) ;
#520 = PRESENTATION_STYLE_ASSIGNMENT (( #730 ) ) ;
#521 = ADVANCED_FACE ( 'NONE', ( #110 ), #649, .T. ) ;
#522 = DIRECTION ( 'NONE',  ( 0.000000000000000000, 1.000000000000000000, 0.000000000000000000 ) ) ;
#523 = CARTESIAN_POINT ( 'NONE',  ( 0.000000000000000000, 10.27299999999999969, 1.399999999999999911 ) ) ;
#524 = B_SPLINE_CURVE_WITH_KNOTS ( 'NONE', 3,
 ( #340, #68, #620, #677 ),
 .UNSPECIFIED., .F., .F.,
 ( 4, 4 ),
 ( 0.5000000000000002220, 0.5833333333333334814 ),
 .UNSPECIFIED. ) ;
#525 = EDGE_LOOP ( 'NONE', ( #348, #243 ) ) ;
#526 = FILL_AREA_STYLE_COLOUR ( '', #695 ) ;
#527 = CARTESIAN_POINT ( 'NONE',  ( -2.032879073410320814E-17, 9.129999999999999005, -1.399999999999999911 ) ) ;
#528 = AXIS2_PLACEMENT_3D ( 'NONE', #864, #664, #259 ) ;
#529 = EDGE_CURVE ( 'NONE', #571, #495, #45, .T. ) ;
#530 = DIRECTION ( 'NONE',  ( 0.000000000000000000, 0.000000000000000000, 1.000000000000000000 ) ) ;
#531 = CIRCLE ( 'NONE', #403, 2.750000000000000000 ) ;
#532 = CIRCLE ( 'NONE', #145, 1.500000000000000000 ) ;
#533 = ORIENTED_EDGE ( 'NONE', *, *, #878, .F. ) ;
#534 = CARTESIAN_POINT ( 'NONE',  ( -0.7320314559891992756, 9.129999999999999005, 0.6550819443166762124 ) ) ;
#535 = CARTESIAN_POINT ( 'NONE',  ( 0.000000000000000000, 10.27299999999999969, 0.000000000000000000 ) ) ;
#536 = CARTESIAN_POINT ( 'NONE',  ( 1.212435565298213946, 10.27299999999999969, 0.6999999999999998446 ) ) ;
#537 = UNCERTAINTY_MEASURE_WITH_UNIT (LENGTH_MEASURE( 1.000000000000000082E-05 ), #312, 'distance_accuracy_value', 'NONE');
#538 = CARTESIAN_POINT ( 'NONE',  ( 0.000000000000000000, 7.000000000000000000, 0.000000000000000000 ) ) ;
#539 = DIRECTION ( 'NONE',  ( -0.000000000000000000, 1.000000000000000000, -0.000000000000000000 ) ) ;
#540 = FACE_OUTER_BOUND ( 'NONE', #519, .T. ) ;
#541 = DIRECTION ( 'NONE',  ( -0.000000000000000000, -1.000000000000000000, -0.000000000000000000 ) ) ;
#542 = AXIS2_PLACEMENT_3D ( 'NONE', #23, #491, #91 ) ;
#543 = EDGE_CURVE ( 'NONE', #692, #153, #524, .T. ) ;
#544 = FACE_OUTER_BOUND ( 'NONE', #614, .T. ) ;
#545 = CARTESIAN_POINT ( 'NONE',  ( -0.1006509386720726706, 10.27299999999999969, 1.399999999999997247 ) ) ;
#546 = EDGE_LOOP ( 'NONE', ( #113, #830, #140, #646 ) ) ;
#547 = CARTESIAN_POINT ( 'NONE',  ( 1.600249331657972672E-15, 9.129999999999999005, 1.399999999999999689 ) ) ;
#548 = CARTESIAN_POINT ( 'NONE',  ( 0.007246867584389744647, 10.27300000000000146, 1.399431702457000881 ) ) ;
#549 = ORIENTED_EDGE ( 'NONE', *, *, #832, .T. ) ;
#550 = CARTESIAN_POINT ( 'NONE',  ( 1.600249331657972672E-15, 9.129999999999999005, 1.399999999999999689 ) ) ;
#551 = CARTESIAN_POINT ( 'NONE',  ( -0.6039056320324169835, 9.129999999999999005, 1.936985509658291697E-18 ) ) ;
#552 = ADVANCED_FACE ( 'NONE', ( #281 ), #673, .T. ) ;
#553 = EDGE_LOOP ( 'NONE', ( #6, #323 ) ) ;
#554 = AXIS2_PLACEMENT_3D ( 'NONE', #328, #872, #267 ) ;
#555 = AXIS2_PLACEMENT_3D ( 'NONE', #285, #349, #486 ) ;
#556 = DIRECTION ( 'NONE',  ( 0.000000000000000000, 0.000000000000000000, -1.000000000000000000 ) ) ;
#557 = CARTESIAN_POINT ( 'NONE',  ( -0.3019528160162174846, 9.129999999999999005, -0.5229976188285776484 ) ) ;
#558 = ORIENTED_EDGE ( 'NONE', *, *, #161, .F. ) ;
#559 = CARTESIAN_POINT ( 'NONE',  ( 0.4666666666667492192, 9.129999999999999005, 0.8082903768656209964 ) ) ;
#560 = DIRECTION ( 'NONE',  ( -0.000000000000000000, -1.000000000000000000, -0.000000000000000000 ) ) ;
#561 = ORIENTED_EDGE ( 'NONE', *, *, #102, .T. ) ;
#562 = ADVANCED_FACE ( 'NONE', ( #540 ), #352, .F. ) ;
#563 = DIRECTION ( 'NONE',  ( 0.000000000000000000, -1.000000000000000000, -0.000000000000000000 ) ) ;
#564 = DIRECTION ( 'NONE',  ( -0.000000000000000000, -1.000000000000000000, -0.000000000000000000 ) ) ;
#565 = ORIENTED_EDGE ( 'NONE', *, *, #187, .T. ) ;
#566 = EDGE_CURVE ( 'NONE', #230, #395, #503, .T. ) ;
#567 = TOROIDAL_SURFACE ( 'NONE', #189, 1.421980390271855743, 0.1000000000000000056 ) ;
#568 = PLANE ( 'NONE',  #158 ) ;
#569 = CIRCLE ( 'NONE', #767, 1.399999999999999911 ) ;
#570 = DIRECTION ( 'NONE',  ( -0.000000000000000000, -1.000000000000000000, -0.000000000000000000 ) ) ;
#571 = VERTEX_POINT ( 'NONE', #822 ) ;
#572 = DIRECTION ( 'NONE',  ( 0.000000000000000000, 0.000000000000000000, -1.000000000000000000 ) ) ;
#573 = CARTESIAN_POINT ( 'NONE',  ( 0.000000000000000000, 10.27299999999999969, 0.000000000000000000 ) ) ;
#574 = ORIENTED_EDGE ( 'NONE', *, *, #733, .F. ) ;
#575 = ORIENTED_EDGE ( 'NONE', *, *, #336, .F. ) ;
#576 = CARTESIAN_POINT ( 'NONE',  ( 1.592188735935166521, 10.27300000000000146, -0.9192505952928586854 ) ) ;
#577 = VERTEX_POINT ( 'NONE', #137 ) ;
#578 = EDGE_CURVE ( 'NONE', #651, #855, #485, .T. ) ;
#579 = ORIENTED_EDGE ( 'NONE', *, *, #543, .T. ) ;
#580 = PLANE ( 'NONE',  #235 ) ;
#581 = VECTOR ( 'NONE', #424, 1000.000000000000000 ) ;
#582 = CARTESIAN_POINT ( 'NONE',  ( 0.000000000000000000, 7.900000000000000355, 0.000000000000000000 ) ) ;
#583 = CIRCLE ( 'NONE', #681, 0.9333333333334999926 ) ;
#584 = DIRECTION ( 'NONE',  ( -0.000000000000000000, -1.000000000000000000, -0.000000000000000000 ) ) ;
#585 = PRODUCT_DEFINITION_FORMATION_WITH_SPECIFIED_SOURCE ( 'Symmetric', '', #84, .NOT_KNOWN. ) ;
#586 = ORIENTED_EDGE ( 'NONE', *, *, #66, .F. ) ;
#587 = CARTESIAN_POINT ( 'NONE',  ( 0.000000000000000000, 7.900000000000000355, -1.421980390271855743 ) ) ;
#588 = CARTESIAN_POINT ( 'NONE',  ( 0.000000000000000000, 7.000000000000000000, -1.500000000000000000 ) ) ;
#589 = FACE_OUTER_BOUND ( 'NONE', #742, .T. ) ;
#590 = ORIENTED_EDGE ( 'NONE', *, *, #336, .T. ) ;
#591 = EDGE_CURVE ( 'NONE', #245, #172, #273, .T. ) ;
#592 = DIRECTION ( 'NONE',  ( 0.000000000000000000, 1.000000000000000000, 0.000000000000000000 ) ) ;
#593 = FACE_OUTER_BOUND ( 'NONE', #373, .T. ) ;
#594 = VERTEX_POINT ( 'NONE', #72 ) ;
#595 = CARTESIAN_POINT ( 'NONE',  ( -0.9333333333334999926, 9.129999999999999005, -1.302696062818577301E-15 ) ) ;
#596 = CARTESIAN_POINT ( 'NONE',  ( 0.000000000000000000, 8.239999999999998437, 0.000000000000000000 ) ) ;
#597 = CARTESIAN_POINT ( 'NONE',  ( -1.592188735935163191, 9.129999999999999005, -0.9192505952928543556 ) ) ;
#598 = CIRCLE ( 'NONE', #357, 1.399999999999999911 ) ;
#599 = EDGE_CURVE ( 'NONE', #107, #245, #42, .T. ) ;
#600 = FACE_OUTER_BOUND ( 'NONE', #263, .T. ) ;
#601 = LINE ( 'NONE', #874, #388 ) ;
#602 = UNCERTAINTY_MEASURE_WITH_UNIT (LENGTH_MEASURE( 1.000000000000000082E-05 ), #615, 'distance_accuracy_value', 'NONE');
#603 = CARTESIAN_POINT ( 'NONE',  ( -0.2013018773441444531, 9.129999999999999005, -0.9614988094142897790 ) ) ;
#604 = FACE_OUTER_BOUND ( 'NONE', #781, .T. ) ;
#605 = B_SPLINE_CURVE_WITH_KNOTS ( 'NONE', 3,
 ( #227, #700, #643, #224, #422 ),
 .UNSPECIFIED., .F., .F.,
 ( 4, 1, 4 ),
 ( 0.6666666666666670737, 0.7499999999999995559, 0.8333333333333319271 ),
 .UNSPECIFIED. ) ;
#606 = ADVANCED_FACE ( 'NONE', ( #346 ), #274, .T. ) ;
#607 = FILL_AREA_STYLE ('',( #339 ) ) ;
#608 = DIRECTION ( 'NONE',  ( -0.000000000000000000, -1.000000000000000000, -0.000000000000000000 ) ) ;
#609 = DIRECTION ( 'NONE',  ( -0.000000000000000000, -1.000000000000000000, -0.000000000000000000 ) ) ;
#610 = VECTOR ( 'NONE', #613, 1000.000000000000000 ) ;
#611 = ORIENTED_EDGE ( 'NONE', *, *, #578, .F. ) ;
#612 = DIRECTION ( 'NONE',  ( 0.000000000000000000, 1.000000000000000000, 0.000000000000000000 ) ) ;
#613 = DIRECTION ( 'NONE',  ( -0.000000000000000000, 1.000000000000000000, -0.000000000000000000 ) ) ;
#614 = EDGE_LOOP ( 'NONE', ( #437, #619 ) ) ;
#615 =( LENGTH_UNIT ( ) NAMED_UNIT ( * ) SI_UNIT ( .MILLI., .METRE. ) );
#616 = DIRECTION ( 'NONE',  ( 0.000000000000000000, 0.000000000000000000, -1.000000000000000000 ) ) ;
#617 = ADVANCED_FACE ( 'NONE', ( #200 ), #670, .T. ) ;
#618 = DIRECTION ( 'NONE',  ( -0.000000000000000000, -1.000000000000000000, -0.000000000000000000 ) ) ;
#619 = ORIENTED_EDGE ( 'NONE', *, *, #805, .T. ) ;
#620 = CARTESIAN_POINT ( 'NONE',  ( -0.2013018773441445641, 9.129999999999999005, 0.9614988094142957742 ) ) ;
#621 = CARTESIAN_POINT ( 'NONE',  ( -0.3019528160162174846, 10.27300000000000146, -0.5229976188285776484 ) ) ;
#622 = ORIENTED_EDGE ( 'NONE', *, *, #111, .F. ) ;
#623 = AXIS2_PLACEMENT_3D ( 'NONE', #492, #759, #75 ) ;
#624 = CIRCLE ( 'NONE', #345, 0.1000000000000000472 ) ;
#625 = PLANE ( 'NONE',  #287 ) ;
#626 = EDGE_CURVE ( 'NONE', #855, #360, #280, .T. ) ;
#627 = CARTESIAN_POINT ( 'NONE',  ( 1.714505518806294391E-16, 10.40000000000000036, -1.399999999999999911 ) ) ;
#628 = ORIENTED_EDGE ( 'NONE', *, *, #805, .F. ) ;
#629 = EDGE_CURVE ( 'NONE', #577, #478, #724, .T. ) ;
#630 = CARTESIAN_POINT ( 'NONE',  ( -1.212435565298213502, 10.27299999999999969, 0.7000000000000006217 ) ) ;
#631 = DIRECTION ( 'NONE',  ( 0.000000000000000000, 0.000000000000000000, -1.000000000000000000 ) ) ;
#632 = EDGE_LOOP ( 'NONE', ( #21, #801 ) ) ;
#633 = DIRECTION ( 'NONE',  ( -0.000000000000000000, -1.000000000000000000, -0.000000000000000000 ) ) ;
#634 = CARTESIAN_POINT ( 'NONE',  ( 1.592188735935164523, 10.27300000000000146, 0.9192505952928550217 ) ) ;
#635 = ORIENTED_EDGE ( 'NONE', *, *, #34, .T. ) ;
#636 = AXIS2_PLACEMENT_3D ( 'NONE', #720, #790, #256 ) ;
#637 = CARTESIAN_POINT ( 'NONE',  ( -0.9333333333334999926, 9.129999999999999005, -1.302696062818577301E-15 ) ) ;
#638 = AXIS2_PLACEMENT_3D ( 'NONE', #550, #210, #10 ) ;
#639 = AXIS2_PLACEMENT_3D ( 'NONE', #587, #253, #392 ) ;
#640 = CARTESIAN_POINT ( 'NONE',  ( 0.3019528160162073260, 10.27299999999999969, -0.5229976188285669902 ) ) ;
#641 = VERTEX_POINT ( 'NONE', #468 ) ;
#642 = VERTEX_POINT ( 'NONE', #64 ) ;
#643 = CARTESIAN_POINT ( 'NONE',  ( 0.6039056320324261984, 10.27299999999999969, 3.705748467395533119E-16 ) ) ;
#644 = DIRECTION ( 'NONE',  ( -0.000000000000000000, -1.000000000000000000, -0.000000000000000000 ) ) ;
#645 = EDGE_CURVE ( 'NONE', #642, #176, #335, .T. ) ;
#646 = ORIENTED_EDGE ( 'NONE', *, *, #756, .F. ) ;
#647 = ORIENTED_EDGE ( 'NONE', *, *, #756, .T. ) ;
#648 = LINE ( 'NONE', #185, #842 ) ;
#649 = PLANE ( 'NONE',  #857 ) ;
#650 = ORIENTED_EDGE ( 'NONE', *, *, #122, .F. ) ;
#651 = VERTEX_POINT ( 'NONE', #406 ) ;
#652 = CIRCLE ( 'NONE', #173, 0.9333333333334999926 ) ;
#653 = CARTESIAN_POINT ( 'NONE',  ( 0.9333333333333326820, 9.129999999999999005, -0.3064168650976182295 ) ) ;
#654 = AXIS2_PLACEMENT_3D ( 'NONE', #364, #633, #298 ) ;
#655 = ADVANCED_FACE ( 'NONE', ( #544 ), #815, .T. ) ;
#656 = DIRECTION ( 'NONE',  ( -0.000000000000000000, -1.000000000000000000, -0.000000000000000000 ) ) ;
#657 = ORIENTED_EDGE ( 'NONE', *, *, #53, .F. ) ;
#658 = CARTESIAN_POINT ( 'NONE',  ( -0.4666666666667501628, 9.129999999999999005, 0.8082903768656203303 ) ) ;
#659 = DIRECTION ( 'NONE',  ( 0.000000000000000000, 0.6901068175652125269, 0.7237075240385542063 ) ) ;
#660 = DIRECTION ( 'NONE',  ( 0.000000000000000000, 0.000000000000000000, -1.000000000000000000 ) ) ;
#661 = EDGE_CURVE ( 'NONE', #377, #18, #376, .T. ) ;
#662 = ORIENTED_EDGE ( 'NONE', *, *, #490, .T. ) ;
#663 = CARTESIAN_POINT ( 'NONE',  ( 0.9333333333334999926, 9.129999999999999005, 1.084202172485698198E-16 ) ) ;
#664 = DIRECTION ( 'NONE',  ( 0.000000000000000000, 1.000000000000000000, 0.000000000000000000 ) ) ;
#665 = EDGE_CURVE ( 'NONE', #418, #495, #330, .T. ) ;
#666 = CARTESIAN_POINT ( 'NONE',  ( -7.357501618376551716E-16, 10.27299999999999969, -1.399999999999999911 ) ) ;
#667 = AXIS2_PLACEMENT_3D ( 'NONE', #155, #570, #291 ) ;
#668 = CARTESIAN_POINT ( 'NONE',  ( 0.000000000000000000, 9.129999999999999005, 0.000000000000000000 ) ) ;
#669 = AXIS2_PLACEMENT_3D ( 'NONE', #16, #504, #828 ) ;
#670 = PLANE ( 'NONE',  #1 ) ;
#671 = EDGE_CURVE ( 'NONE', #855, #360, #118, .T. ) ;
#672 = CARTESIAN_POINT ( 'NONE',  ( -0.1006509386720714216, 9.129999999999999005, -1.400000000000002798 ) ) ;
#673 = PLANE ( 'NONE',  #638 ) ;
#674 = DIRECTION ( 'NONE',  ( 1.000000000000000000, 0.000000000000000000, -1.224646799147353207E-16 ) ) ;
#675 = B_SPLINE_CURVE_WITH_KNOTS ( 'NONE', 3,
 ( #138, #474, #271, #545, #688 ),
 .UNSPECIFIED., .F., .F.,
 ( 4, 1, 4 ),
 ( 0.3333333333333324822, 0.4166666666666659080, 0.4999999999999993339 ),
 .UNSPECIFIED. ) ;
#676 = VERTEX_POINT ( 'NONE', #761 ) ;
#677 = CARTESIAN_POINT ( 'NONE',  ( -0.4666666666667501628, 9.129999999999999005, 0.8082903768656203303 ) ) ;
#678 = FACE_OUTER_BOUND ( 'NONE', #301, .T. ) ;
#679 = VECTOR ( 'NONE', #560, 1000.000000000000000 ) ;
#680 = ORIENTED_EDGE ( 'NONE', *, *, #629, .T. ) ;
#681 = AXIS2_PLACEMENT_3D ( 'NONE', #847, #162, #572 ) ;
#682 = EDGE_CURVE ( 'NONE', #107, #245, #605, .T. ) ;
#683 = CARTESIAN_POINT ( 'NONE',  ( -0.6039056320324254212, 10.27299999999999969, 4.101662560274652975E-16 ) ) ;
#684 = DIRECTION ( 'NONE',  ( 0.000000000000000000, 0.000000000000000000, -1.000000000000000000 ) ) ;
#685 = ORIENTED_EDGE ( 'NONE', *, *, #762, .F. ) ;
#686 = PRODUCT_DEFINITION ( 'General', '', #585, #809 ) ;
#687 = DIRECTION ( 'NONE',  ( 0.000000000000000000, -0.9805806756909202226, -0.1961161351381839058 ) ) ;
#688 = CARTESIAN_POINT ( 'NONE',  ( 0.000000000000000000, 10.27299999999999969, 1.399999999999999911 ) ) ;
#689 = ORIENTED_EDGE ( 'NONE', *, *, #254, .F. ) ;
#690 = DIRECTION ( 'NONE',  ( 0.000000000000000000, 1.000000000000000000, 0.000000000000000000 ) ) ;
#691 = CARTESIAN_POINT ( 'NONE',  ( -2.032879073410320814E-17, 10.27300000000000146, -1.399999999999999911 ) ) ;
#692 = VERTEX_POINT ( 'NONE', #494 ) ;
#693 = TOROIDAL_SURFACE ( 'NONE', #246, 1.421980390271855743, 0.1000000000000000056 ) ;
#694 = PRESENTATION_LAYER_ASSIGNMENT (  '', '', ( #247 ) ) ;
#695 = COLOUR_RGB ( '',1.000000000000000000, 0.9490196078431372140, 0.9098039215686274384 ) ;
#696 = CARTESIAN_POINT ( 'NONE',  ( 1.741423733396732332E-16, 7.900000000000000355, 1.421980390271855743 ) ) ;
#697 = CARTESIAN_POINT ( 'NONE',  ( 1.592188735935166521, 9.129999999999999005, -0.9192505952928586854 ) ) ;
#698 = ADVANCED_FACE ( 'NONE', ( #154 ), #833, .T. ) ;
#699 = EDGE_LOOP ( 'NONE', ( #838, #791, #712, #650 ) ) ;
#700 = CARTESIAN_POINT ( 'NONE',  ( 1.262761034634240609, 10.27299999999999969, 0.6128337301952286875 ) ) ;
#701 = LINE ( 'NONE', #375, #679 ) ;
#702 = ORIENTED_EDGE ( 'NONE', *, *, #175, .T. ) ;
#703 = DIRECTION ( 'NONE',  ( -0.000000000000000000, -1.000000000000000000, -0.000000000000000000 ) ) ;
#704 = PLANE ( 'NONE',  #722 ) ;
#705 = VERTEX_POINT ( 'NONE', #431 ) ;
#706 = CONICAL_SURFACE ( 'NONE', #286, 2.750000000000000000, 0.08726646259970981256 ) ;
#707 = EDGE_CURVE ( 'NONE', #418, #705, #427, .T. ) ;
#708 = ORIENTED_EDGE ( 'NONE', *, *, #471, .T. ) ;
#709 = CARTESIAN_POINT ( 'NONE',  ( 1.195104801059953702E-15, 9.129999999999999005, 1.400000000000000133 ) ) ;
#710 = AXIS2_PLACEMENT_3D ( 'NONE', #476, #744, #748 ) ;
#711 = CARTESIAN_POINT ( 'NONE',  ( 0.6039056320324177607, 9.129999999999999005, -3.765442377822345030E-17 ) ) ;
#712 = ORIENTED_EDGE ( 'NONE', *, *, #317, .F. ) ;
#713 = ORIENTED_EDGE ( 'NONE', *, *, #134, .F. ) ;
#714 = SURFACE_STYLE_FILL_AREA ( #446 ) ;
#715 = DIRECTION ( 'NONE',  ( 0.000000000000000000, -0.000000000000000000, 1.000000000000000000 ) ) ;
#716 = ORIENTED_EDGE ( 'NONE', *, *, #848, .F. ) ;
#717 = DIRECTION ( 'NONE',  ( -0.000000000000000000, -1.000000000000000000, -0.000000000000000000 ) ) ;
#718 = DIRECTION ( 'NONE',  ( 0.000000000000000000, -0.000000000000000000, 1.000000000000000000 ) ) ;
#719 = EDGE_CURVE ( 'NONE', #319, #383, #624, .T. ) ;
#720 = CARTESIAN_POINT ( 'NONE',  ( 0.000000000000000000, 10.40000000000000036, 0.000000000000000000 ) ) ;
#721 = DIRECTION ( 'NONE',  ( -0.000000000000000000, -1.000000000000000000, -0.000000000000000000 ) ) ;
#722 = AXIS2_PLACEMENT_3D ( 'NONE', #764, #87, #29 ) ;
#723 = DIRECTION ( 'NONE',  ( 0.000000000000000000, 1.000000000000000000, 0.000000000000000000 ) ) ;
#724 = CIRCLE ( 'NONE', #74, 1.421980390271855743 ) ;
#725 = CARTESIAN_POINT ( 'NONE',  ( 1.212435565298213946, 10.27299999999999969, 0.6999999999999998446 ) ) ;
#726 = ORIENTED_EDGE ( 'NONE', *, *, #496, .F. ) ;
#727 = CARTESIAN_POINT ( 'NONE',  ( 0.000000000000000000, 10.40000000000000036, 0.000000000000000000 ) ) ;
#728 = CARTESIAN_POINT ( 'NONE',  ( -1.162110095962190393, 10.27299999999999969, -0.7871662698047642293 ) ) ;
#729 = CARTESIAN_POINT ( 'NONE',  ( 0.3019528160162121000, 10.27299999999999969, 0.5229976188285752059 ) ) ;
#730 = SURFACE_STYLE_USAGE ( .BOTH. , #851 ) ;
#731 = FACE_OUTER_BOUND ( 'NONE', #184, .T. ) ;
#732 = DIRECTION ( 'NONE',  ( 0.000000000000000000, -0.9961946980917461003, -0.08715574274765153229 ) ) ;
#733 = EDGE_CURVE ( 'NONE', #513, #146, #841, .T. ) ;
#734 = CARTESIAN_POINT ( 'NONE',  ( 1.592188735935163635, 9.129999999999999005, 0.9192505952928542445 ) ) ;
#735 = CIRCLE ( 'NONE', #554, 1.500000000000000000 ) ;
#736 = CARTESIAN_POINT ( 'NONE',  ( 0.1006509386720710608, 10.27299999999999969, 1.400000000000001243 ) ) ;
#737 = MECHANICAL_DESIGN_GEOMETRIC_PRESENTATION_REPRESENTATION (  '', ( #247 ), #302 ) ;
#738 = AXIS2_PLACEMENT_3D ( 'NONE', #787, #717, #48 ) ;
#739 = B_SPLINE_CURVE_WITH_KNOTS ( 'NONE', 3,
 ( #869, #178, #397, #653, #663 ),
 .UNSPECIFIED., .F., .F.,
 ( 4, 1, 4 ),
 ( 0.08333333333333314830, 0.1666666666666671293, 0.2500000000000004996 ),
 .UNSPECIFIED. ) ;
#740 = CARTESIAN_POINT ( 'NONE',  ( 0.4666666666667492192, 9.129999999999999005, 0.8082903768656209964 ) ) ;
#741 = CARTESIAN_POINT ( 'NONE',  ( 1.600249331657972672E-15, 9.129999999999999005, 1.399999999999999689 ) ) ;
#742 = EDGE_LOOP ( 'NONE', ( #510, #123, #506, #628, #51, #558 ) ) ;
#743 = APPLICATION_PROTOCOL_DEFINITION ( 'draft international standard', 'automotive_design', 1998, #56 ) ;
#744 = DIRECTION ( 'NONE',  ( -0.000000000000000000, 1.000000000000000000, 0.000000000000000000 ) ) ;
#745 = CARTESIAN_POINT ( 'NONE',  ( 0.000000000000000000, 9.129999999999999005, 0.000000000000000000 ) ) ;
#746 = ADVANCED_FACE ( 'NONE', ( #758, #98 ), #625, .T. ) ;
#747 = ORIENTED_EDGE ( 'NONE', *, *, #509, .T. ) ;
#748 = DIRECTION ( 'NONE',  ( 0.000000000000000000, -0.000000000000000000, 1.000000000000000000 ) ) ;
#749 = CARTESIAN_POINT ( 'NONE',  ( -0.1006509386720714216, 10.27300000000000146, -1.400000000000002798 ) ) ;
#750 = CIRCLE ( 'NONE', #129, 1.323922322702763887 ) ;
#751 = ORIENTED_EDGE ( 'NONE', *, *, #490, .F. ) ;
#752 = PRESENTATION_LAYER_ASSIGNMENT (  '', '', ( #460 ) ) ;
#753 = CARTESIAN_POINT ( 'NONE',  ( 0.000000000000000000, 0.000000000000000000, 0.000000000000000000 ) ) ;
#754 = DIRECTION ( 'NONE',  ( -0.000000000000000000, 1.000000000000000000, 0.000000000000000000 ) ) ;
#755 = CARTESIAN_POINT ( 'NONE',  ( 0.000000000000000000, 7.900000000000000355, 0.000000000000000000 ) ) ;
#756 = EDGE_CURVE ( 'NONE', #319, #571, #206, .T. ) ;
#757 = ORIENTED_EDGE ( 'NONE', *, *, #529, .F. ) ;
#758 = FACE_BOUND ( 'NONE', #525, .T. ) ;
#759 = DIRECTION ( 'NONE',  ( -0.000000000000000000, -1.000000000000000000, -0.000000000000000000 ) ) ;
#760 = VERTEX_POINT ( 'NONE', #295 ) ;
#761 = CARTESIAN_POINT ( 'NONE',  ( 0.000000000000000000, 6.123233995736764803E-17, -1.500000000000000000 ) ) ;
#762 = EDGE_CURVE ( 'NONE', #360, #692, #831, .T. ) ;
#763 = PRODUCT_DEFINITION_SHAPE ( 'NONE', 'NONE',  #686 ) ;
#764 = CARTESIAN_POINT ( 'NONE',  ( 1.600249331657972672E-15, 9.129999999999999005, 1.399999999999999689 ) ) ;
#765 = ORIENTED_EDGE ( 'NONE', *, *, #147, .T. ) ;
#766 = AXIS2_PLACEMENT_3D ( 'NONE', #745, #618, #278 ) ;
#767 = AXIS2_PLACEMENT_3D ( 'NONE', #28, #303, #498 ) ;
#768 = AXIS2_PLACEMENT_3D ( 'NONE', #727, #264, #455 ) ;
#769 = DIRECTION ( 'NONE',  ( 0.000000000000000000, -0.000000000000000000, 1.000000000000000000 ) ) ;
#770 = CARTESIAN_POINT ( 'NONE',  ( 1.618959053481997036E-16, 7.900000000000000355, 1.321980390271855876 ) ) ;
#771 = EDGE_LOOP ( 'NONE', ( #445, #366, #159, #47, #611, #444 ) ) ;
#772 = DIRECTION ( 'NONE',  ( 0.000000000000000000, 0.000000000000000000, -1.000000000000000000 ) ) ;
#773 = CYLINDRICAL_SURFACE ( 'NONE', #300, 1.399999999999999911 ) ;
#774 = VERTEX_POINT ( 'NONE', #637 ) ;
#775 = ADVANCED_FACE ( 'NONE', ( #19 ), #568, .T. ) ;
#776 = ORIENTED_EDGE ( 'NONE', *, *, #41, .T. ) ;
#777 = DIRECTION ( 'NONE',  ( 0.000000000000000000, 0.000000000000000000, -1.000000000000000000 ) ) ;
#778 = CARTESIAN_POINT ( 'NONE',  ( 1.592188735935164523, 9.129999999999999005, 0.9192505952928550217 ) ) ;
#779 = ORIENTED_EDGE ( 'NONE', *, *, #434, .T. ) ;
#780 = CLOSED_SHELL ( 'NONE', ( #81, #198, #22, #277, #562, #338, #251, #501, #385, #399, #305, #617, #552, #655, #514, #746, #860, #845, #157, #813, #775, #13, #344, #359, #86, #216, #606, #521, #698, #163, #408 ) ) ;
#781 = EDGE_LOOP ( 'NONE', ( #846, #579, #363, #635, #409, #853, #502, #795, #379 ) ) ;
#782 = AXIS2_PLACEMENT_3D ( 'NONE', #236, #690, #440 ) ;
#783 = AXIS2_PLACEMENT_3D ( 'NONE', #753, #484, #71 ) ;
#784 = CARTESIAN_POINT ( 'NONE',  ( 0.6039056320324177607, 10.27300000000000146, -3.765442377822345030E-17 ) ) ;
#785 = VERTEX_POINT ( 'NONE', #231 ) ;
#786 = ORIENTED_EDGE ( 'NONE', *, *, #529, .T. ) ;
#787 = CARTESIAN_POINT ( 'NONE',  ( 0.000000000000000000, 8.000000000000000000, 0.000000000000000000 ) ) ;
#788 = EDGE_CURVE ( 'NONE', #172, #377, #569, .T. ) ;
#789 = DIRECTION ( 'NONE',  ( 0.000000000000000000, 1.000000000000000000, 0.000000000000000000 ) ) ;
#790 = DIRECTION ( 'NONE',  ( 0.000000000000000000, 1.000000000000000000, 0.000000000000000000 ) ) ;
#791 = ORIENTED_EDGE ( 'NONE', *, *, #53, .T. ) ;
#792 = CARTESIAN_POINT ( 'NONE',  ( 1.300000000000000266, 8.000000000000000000, 0.000000000000000000 ) ) ;
#793 = LINE ( 'NONE', #596, #59 ) ;
#794 = CARTESIAN_POINT ( 'NONE',  ( 0.000000000000000000, 7.900000000000000355, -1.421980390271855743 ) ) ;
#795 = ORIENTED_EDGE ( 'NONE', *, *, #661, .T. ) ;
#796 = FACE_BOUND ( 'NONE', #168, .T. ) ;
#797 = CIRCLE ( 'NONE', #413, 1.321980390271855876 ) ;
#798 = DIRECTION ( 'NONE',  ( 0.000000000000000000, 0.000000000000000000, 1.000000000000000000 ) ) ;
#799 = AXIS2_PLACEMENT_3D ( 'NONE', #166, #239, #777 ) ;
#800 = DIRECTION ( 'NONE',  ( 0.000000000000000000, 0.000000000000000000, -1.000000000000000000 ) ) ;
#801 = ORIENTED_EDGE ( 'NONE', *, *, #661, .F. ) ;
#802 = FACE_OUTER_BOUND ( 'NONE', #25, .T. ) ;
#803 = DIRECTION ( 'NONE',  ( 0.000000000000000000, 0.000000000000000000, 1.000000000000000000 ) ) ;
#804 = LINE ( 'NONE', #197, #442 ) ;
#805 = EDGE_CURVE ( 'NONE', #774, #230, #583, .T. ) ;
#806 = SHAPE_DEFINITION_REPRESENTATION ( #763, #284 ) ;
#807 = CARTESIAN_POINT ( 'NONE',  ( 0.000000000000000000, 10.27299999999999969, 0.000000000000000000 ) ) ;
#808 = CARTESIAN_POINT ( 'NONE',  ( -0.4666666666667501628, 9.129999999999999005, 0.8082903768656203303 ) ) ;
#809 = PRODUCT_DEFINITION_CONTEXT ( 'detailed design', #378, 'design' ) ;
#810 = DIRECTION ( 'NONE',  ( 0.000000000000000000, -0.000000000000000000, 1.000000000000000000 ) ) ;
#811 = AXIS2_PLACEMENT_3D ( 'NONE', #879, #473, #410 ) ;
#812 = LINE ( 'NONE', #741, #610 ) ;
#813 = ADVANCED_FACE ( 'NONE', ( #843 ), #105, .T. ) ;
#814 = SURFACE_STYLE_USAGE ( .BOTH. , #479 ) ;
#815 = PLANE ( 'NONE',  #710 ) ;
#816 = EDGE_CURVE ( 'NONE', #275, #760, #531, .T. ) ;
#817 = CARTESIAN_POINT ( 'NONE',  ( -0.09702750487987683858, 10.27300000000000146, 1.415786042861088001 ) ) ;
#818 = EDGE_LOOP ( 'NONE', ( #574, #716 ) ) ;
#819 = CARTESIAN_POINT ( 'NONE',  ( 0.9333333333334999926, 9.129999999999999005, 1.084202172485698198E-16 ) ) ;
#820 = CARTESIAN_POINT ( 'NONE',  ( 0.01087798626600056107, 10.27300000000000146, 1.398328876701469436 ) ) ;
#821 = ORIENTED_EDGE ( 'NONE', *, *, #832, .F. ) ;
#822 = CARTESIAN_POINT ( 'NONE',  ( 0.000000000000000000, 7.880388386486181673, -1.323922322702763887 ) ) ;
#823 = EDGE_CURVE ( 'NONE', #153, #774, #265, .T. ) ;
#824 = FACE_OUTER_BOUND ( 'NONE', #546, .T. ) ;
#825 = AXIS2_PLACEMENT_3D ( 'NONE', #40, #584, #859 ) ;
#826 = EDGE_LOOP ( 'NONE', ( #89, #575 ) ) ;
#827 = CIRCLE ( 'NONE', #428, 1.321980390271855876 ) ;
#828 = DIRECTION ( 'NONE',  ( 0.000000000000000000, 0.000000000000000000, -1.000000000000000000 ) ) ;
#829 = DIRECTION ( 'NONE',  ( 0.000000000000000000, 1.000000000000000000, 0.000000000000000000 ) ) ;
#830 = ORIENTED_EDGE ( 'NONE', *, *, #367, .T. ) ;
#831 = B_SPLINE_CURVE_WITH_KNOTS ( 'NONE', 3,
 ( #559, #368, #361, #709 ),
 .UNSPECIFIED., .F., .F.,
 ( 4, 4 ),
 ( 0.4166666666666673513, 0.5000000000000002220 ),
 .UNSPECIFIED. ) ;
#832 = EDGE_CURVE ( 'NONE', #705, #676, #15, .T. ) ;
#833 = PLANE ( 'NONE',  #782 ) ;
#834 = CARTESIAN_POINT ( 'NONE',  ( 1.212435565298213946, 10.27299999999999969, -0.7000000000000001776 ) ) ;
#835 = EDGE_LOOP ( 'NONE', ( #861, #647, #786, #226 ) ) ;
#836 = DIRECTION ( 'NONE',  ( 0.000000000000000000, 0.000000000000000000, -1.000000000000000000 ) ) ;
#837 = CARTESIAN_POINT ( 'NONE',  ( 1.729153716769349758E-16, 7.880388386486181673, 1.323922322702763887 ) ) ;
#838 = ORIENTED_EDGE ( 'NONE', *, *, #733, .T. ) ;
#839 = AXIS2_PLACEMENT_3D ( 'NONE', #518, #656, #800 ) ;
#840 = MANIFOLD_SOLID_BREP ( 'Drill-Cut-Revolve', #780 ) ;
#841 = CIRCLE ( 'NONE', #542, 2.540027207537798315 ) ;
#842 = VECTOR ( 'NONE', #384, 1000.000000000000000 ) ;
#843 = FACE_OUTER_BOUND ( 'NONE', #37, .T. ) ;
#844 = FACE_OUTER_BOUND ( 'NONE', #223, .T. ) ;
#845 = ADVANCED_FACE ( 'NONE', ( #796, #802 ), #580, .T. ) ;
#846 = ORIENTED_EDGE ( 'NONE', *, *, #269, .F. ) ;
#847 = CARTESIAN_POINT ( 'NONE',  ( 0.000000000000000000, 9.129999999999999005, 0.000000000000000000 ) ) ;
#848 = EDGE_CURVE ( 'NONE', #146, #513, #27, .T. ) ;
#849 = CARTESIAN_POINT ( 'NONE',  ( 0.000000000000000000, 10.27299999999999969, 0.000000000000000000 ) ) ;
#850 = CARTESIAN_POINT ( 'NONE',  ( -1.212435565298213502, 10.27299999999999969, 0.7000000000000006217 ) ) ;
#851 = SURFACE_SIDE_STYLE ('',( #714 ) ) ;
#852 = CARTESIAN_POINT ( 'NONE',  ( 0.3019528160162120445, 9.129999999999999005, 0.5229976188285807570 ) ) ;
#853 = ORIENTED_EDGE ( 'NONE', *, *, #877, .T. ) ;
#854 = CONICAL_SURFACE ( 'NONE', #329, 1048.689138576966116, 0.8091596867331981580 ) ;
#855 = VERTEX_POINT ( 'NONE', #195 ) ;
#856 = DIRECTION ( 'NONE',  ( 0.000000000000000000, 0.000000000000000000, -1.000000000000000000 ) ) ;
#857 = AXIS2_PLACEMENT_3D ( 'NONE', #249, #789, #182 ) ;
#858 = DIRECTION ( 'NONE',  ( 0.000000000000000000, 0.000000000000000000, -1.000000000000000000 ) ) ;
#859 = DIRECTION ( 'NONE',  ( 0.000000000000000000, 0.000000000000000000, -1.000000000000000000 ) ) ;
#860 = ADVANCED_FACE ( 'NONE', ( #516 ), #60, .T. ) ;
#861 = ORIENTED_EDGE ( 'NONE', *, *, #294, .F. ) ;
#862 = CARTESIAN_POINT ( 'NONE',  ( 0.000000000000000000, 6.123233995736764803E-17, 0.000000000000000000 ) ) ;
#863 = CARTESIAN_POINT ( 'NONE',  ( 0.4666666666666642871, 9.129999999999999005, -0.8082903768654773335 ) ) ;
#864 = CARTESIAN_POINT ( 'NONE',  ( 0.000000000000000000, 10.27299999999999969, 0.000000000000000000 ) ) ;
#865 = ORIENTED_EDGE ( 'NONE', *, *, #471, .F. ) ;
#866 = CARTESIAN_POINT ( 'NONE',  ( -2.032879073410320814E-17, 9.129999999999999005, -1.399999999999999911 ) ) ;
#867 = CARTESIAN_POINT ( 'NONE',  ( 1.162110095962189726, 10.27299999999999969, 0.7871662698047664497 ) ) ;
#868 = ORIENTED_EDGE ( 'NONE', *, *, #161, .T. ) ;
#869 = CARTESIAN_POINT ( 'NONE',  ( 0.4666666666666642871, 9.129999999999999005, -0.8082903768654773335 ) ) ;
#870 = CONICAL_SURFACE ( 'NONE', #26, 1.500000000000000000, 0.1973955598498806085 ) ;
#871 = EDGE_CURVE ( 'NONE', #676, #705, #532, .T. ) ;
#872 = DIRECTION ( 'NONE',  ( -0.000000000000000000, -1.000000000000000000, -0.000000000000000000 ) ) ;
#873 = DIRECTION ( 'NONE',  ( 0.000000000000000000, 0.000000000000000000, 1.000000000000000000 ) ) ;
#874 = CARTESIAN_POINT ( 'NONE',  ( 0.000000000000000000, 10.27299999999999969, 1.399999999999999911 ) ) ;
#875 = CARTESIAN_POINT ( 'NONE',  ( -0.1006509386720706029, 9.129999999999999005, -1.400000000000003908 ) ) ;
#876 = CARTESIAN_POINT ( 'NONE',  ( 1.741423733396732332E-16, 7.900000000000000355, 1.421980390271855743 ) ) ;
#877 = EDGE_CURVE ( 'NONE', #395, #172, #648, .T. ) ;
#878 = EDGE_CURVE ( 'NONE', #594, #577, #222, .T. ) ;
#879 = CARTESIAN_POINT ( 'NONE',  ( 0.000000000000000000, 10.27299999999999969, 0.000000000000000000 ) ) ;
#880 = CIRCLE ( 'NONE', #101, 0.1000000000000000472 ) ;
ENDSEC;
END-ISO-10303-21;
