ISO-10303-21;
HEADER;
FILE_DESCRIPTION (( 'STEP AP214' ),
    '1' );
FILE_NAME ('lunpid_longwave_v0.1.step.STEP',
    '2026-07-13T19:26:03',
    ( '' ),
    ( '' ),
    'SwSTEP 2.0',
    'SolidWorks 2025',
    '' );
FILE_SCHEMA (( 'AUTOMOTIVE_DESIGN' ));
ENDSEC;

DATA;
#1 = DIRECTION ( 'NONE',  ( 2.077461250111562526E-48, 0.000000000000000000, 1.000000000000000444 ) ) ;
#2 = DOCUMENT_TYPE ( 'geometry' ) ;
#3 = APPLICATION_PROTOCOL_DEFINITION ( 'draft international standard', 'automotive_design', 1998, #114 ) ;
#4 = IDENTIFICATION_ROLE ( 'external document id and location', $) ;
#5 = PRODUCT_DEFINITION_FORMATION_WITH_SPECIFIED_SOURCE ( 'Symmetric', '', #239, .NOT_KNOWN. ) ;
#6 = OBJECT_ROLE ('mandatory',$ ) ;
#7 = PRODUCT_DEFINITION_SHAPE ( 'NONE', 'NONE',  #535 ) ;
#8 = ITEM_DEFINED_TRANSFORMATION ( 'NONE', 'NONE', #377,  #418 ) ;
#9 = APPLICATION_PROTOCOL_DEFINITION ( 'draft international standard', 'automotive_design', 1998, #426 ) ;
#10 = DIRECTION ( 'NONE',  ( 1.000000000000000000, 0.000000000000000000, 0.000000000000000000 ) ) ;
#11 = ROLE_ASSOCIATION ( #383, #241 ) ;
#12 = CARTESIAN_POINT ( 'NONE',  ( 0.000000000000000000, 0.000000000000000000, 0.000000000000000000 ) ) ;
#13 =( LENGTH_UNIT ( ) NAMED_UNIT ( * ) SI_UNIT ( .MILLI., .METRE. ) );
#14 =( GEOMETRIC_REPRESENTATION_CONTEXT ( 3 ) GLOBAL_UNCERTAINTY_ASSIGNED_CONTEXT ( ( #276 ) ) GLOBAL_UNIT_ASSIGNED_CONTEXT ( ( #88, #499, #322 ) ) REPRESENTATION_CONTEXT ( 'NONE', 'WORKASPACE' ) );
#15 =( NAMED_UNIT ( * ) PLANE_ANGLE_UNIT ( ) SI_UNIT ( $, .RADIAN. ) );
#16 = ROLE_ASSOCIATION ( #696, #252 ) ;
#17 = PRODUCT ( 'U2~SOT-23-5_L2.9-W1.6-P0.95-LS2.8-BL~SOT-23-5_L2.9-W1.6-P0.95-LS2.8-BL~8fiY.step', 'U2~SOT-23-5_L2.9-W1.6-P0.95-LS2.8-BL~SOT-23-5_L2.9-W1.6-P0.95-LS2.8-BL~8fiY.step', '', ( #448 ) ) ;
#18 =( REPRESENTATION_RELATIONSHIP ('NONE','NONE', #61, #427 ) REPRESENTATION_RELATIONSHIP_WITH_TRANSFORMATION ( #588 )SHAPE_REPRESENTATION_RELATIONSHIP( ) );
#19 = DIRECTION ( 'NONE',  ( 1.000000000000000000, 0.000000000000000000, 0.000000000000000000 ) ) ;
#20 = PRODUCT_RELATED_PRODUCT_CATEGORY ( 'part', '', ( #564 ) ) ;
#21 = APPLICATION_CONTEXT ( 'automotive_design' ) ;
#22 = PROPERTY_DEFINITION ('external definition','', #568 ) ;
#23 = DIRECTION ( 'NONE',  ( 2.077461250111562526E-48, 0.000000000000000000, 1.000000000000000444 ) ) ;
#24 =( GEOMETRIC_REPRESENTATION_CONTEXT ( 3 ) GLOBAL_UNCERTAINTY_ASSIGNED_CONTEXT ( ( #602 ) ) GLOBAL_UNIT_ASSIGNED_CONTEXT ( ( #624, #173, #629 ) ) REPRESENTATION_CONTEXT ( 'NONE', 'WORKASPACE' ) );
#25 = UNCERTAINTY_MEASURE_WITH_UNIT (LENGTH_MEASURE( 1.000000000000000082E-05 ), #387, 'distance_accuracy_value', 'NONE');
#26 = DIRECTION ( 'NONE',  ( 1.000000000000000000, 0.000000000000000000, 0.000000000000000000 ) ) ;
#27 = APPLICATION_CONTEXT ( 'automotive_design' ) ;
#28 = APPLIED_DOCUMENT_REFERENCE ( #373,'',( #392) ) ;
#29 =( NAMED_UNIT ( * ) PLANE_ANGLE_UNIT ( ) SI_UNIT ( $, .RADIAN. ) );
#30 = PROPERTY_DEFINITION ('external definition','', #500 ) ;
#31 = APPLICATION_CONTEXT ( 'automotive_design' ) ;
#32 = SHAPE_REPRESENTATION ( 'C4~R0402~C0402_L1.0-W0.5-H0.5~8fiY.step', ( #418 ), #14 ) ;
#33 = IDENTIFICATION_ROLE ( 'external document id and location', $) ;
#34 = PROPERTY_DEFINITION_REPRESENTATION ( #39, #658 ) ;
#35 = AXIS2_PLACEMENT_3D ( 'NONE', #76, #545, #310 ) ;
#36 = PRODUCT_CONTEXT ( 'NONE', #517, 'mechanical' ) ;
#37 = DIRECTION ( 'NONE',  ( -1.000000000000000000, 0.000000000000000000, -2.077461250111562526E-48 ) ) ;
#38 = DOCUMENT_TYPE ( 'geometry' ) ;
#39 = PROPERTY_DEFINITION ('external definition','', #160 ) ;
#40 = PRODUCT ( 'C2~R0402~C0402_L1.0-W0.5-H0.5~8fiY.step', 'C2~R0402~C0402_L1.0-W0.5-H0.5~8fiY.step', '', ( #164 ) ) ;
#41 = APPLICATION_PROTOCOL_DEFINITION ( 'draft international standard', 'automotive_design', 1998, #21 ) ;
#42 = DIRECTION ( 'NONE',  ( 2.077461250111562526E-48, 0.000000000000000000, 1.000000000000000444 ) ) ;
#43 = PRODUCT_DEFINITION_CONTEXT ( 'detailed design', #414, 'design' ) ;
#44 = APPLICATION_CONTEXT ( 'automotive_design' ) ;
#45 = APPLIED_DOCUMENT_REFERENCE ( #160,'',( #638) ) ;
#46 = APPLICATION_PROTOCOL_DEFINITION ( 'draft international standard', 'automotive_design', 1998, #243 ) ;
#47 = PRODUCT_DEFINITION_SHAPE ( 'NONE', 'NONE',  #186 ) ;
#48 = PROPERTY_DEFINITION_REPRESENTATION ( #174, #172 ) ;
#49 = PRODUCT_DEFINITION_FORMATION_WITH_SPECIFIED_SOURCE ( 'Symmetric', '', #136, .NOT_KNOWN. ) ;
#50 = DIRECTION ( 'NONE',  ( 2.077461250111562526E-48, 0.000000000000000000, 1.000000000000000444 ) ) ;
#51 =( GEOMETRIC_REPRESENTATION_CONTEXT ( 3 ) GLOBAL_UNCERTAINTY_ASSIGNED_CONTEXT ( ( #376 ) ) GLOBAL_UNIT_ASSIGNED_CONTEXT ( ( #731, #65, #242 ) ) REPRESENTATION_CONTEXT ( 'NONE', 'WORKASPACE' ) );
#52 = APPLIED_EXTERNAL_IDENTIFICATION_ASSIGNMENT ( 'C8~R0402~C0402_L1.0-W0.5-H0.5~8fiY.step.STEP' , #33, #240,( #546) ) ;
#53 = APPLICATION_PROTOCOL_DEFINITION ( 'draft international standard', 'automotive_design', 1998, #400 ) ;
#54 = CARTESIAN_POINT ( 'NONE',  ( -1.524003048005997840, -7.366014732029002587, 1.600050800102000625 ) ) ;
#55 = DOCUMENT_TYPE ( 'geometry' ) ;
#56 = DIRECTION ( 'NONE',  ( 0.000000000000000000, 0.000000000000000000, 1.000000000000000000 ) ) ;
#57 =( LENGTH_UNIT ( ) NAMED_UNIT ( * ) SI_UNIT ( .MILLI., .METRE. ) );
#58 = SHAPE_DEFINITION_REPRESENTATION ( #474, #427 ) ;
#59 =( NAMED_UNIT ( * ) SI_UNIT ( $, .STERADIAN. ) SOLID_ANGLE_UNIT ( ) );
#60 = APPLICATION_CONTEXT ( 'automotive_design' ) ;
#61 = SHAPE_REPRESENTATION ( 'lunpid_longwave_v0.1.step', ( #238, #586, #77, #321, #222, #707, #377, #262, #430, #541, #502, #183, #133, #599, #688, #141, #331, #272 ), #420 ) ;
#62 = APPLIED_DOCUMENT_REFERENCE ( #650,'',( #268) ) ;
#63 =( NAMED_UNIT ( * ) PLANE_ANGLE_UNIT ( ) SI_UNIT ( $, .RADIAN. ) );
#64 = PRODUCT_CONTEXT ( 'NONE', #435, 'mechanical' ) ;
#65 =( NAMED_UNIT ( * ) PLANE_ANGLE_UNIT ( ) SI_UNIT ( $, .RADIAN. ) );
#66 = PRODUCT ( 'lunpid_longwave_v0.1.step', 'lunpid_longwave_v0.1.step', '', ( #169 ) ) ;
#67 = ROLE_ASSOCIATION ( #159, #122 ) ;
#68 =( LENGTH_UNIT ( ) NAMED_UNIT ( * ) SI_UNIT ( .MILLI., .METRE. ) );
#69 = APPLICATION_PROTOCOL_DEFINITION ( 'draft international standard', 'automotive_design', 1998, #355 ) ;
#70 = APPLICATION_CONTEXT ( 'automotive_design' ) ;
#71 = PRODUCT_DEFINITION_SHAPE ( 'NONE', 'NONE',  #722 ) ;
#72 = DIRECTION ( 'NONE',  ( 1.000000000000000000, 0.000000000000000000, 0.000000000000000000 ) ) ;
#73 = APPLIED_DOCUMENT_REFERENCE ( #596,'',( #423) ) ;
#74 = PRODUCT_RELATED_PRODUCT_CATEGORY ( 'part', '', ( #246 ) ) ;
#75 = IDENTIFICATION_ROLE ( 'external document id and location', $) ;
#76 = CARTESIAN_POINT ( 'NONE',  ( 0.000000000000000000, 0.000000000000000000, 0.000000000000000000 ) ) ;
#77 = AXIS2_PLACEMENT_3D ( 'NONE', #391, #686, #112 ) ;
#78 = PROPERTY_DEFINITION ('external definition','', #650 ) ;
#79 = CARTESIAN_POINT ( 'NONE',  ( 0.000000000000000000, 0.000000000000000000, 0.000000000000000000 ) ) ;
#80 = IDENTIFICATION_ROLE ( 'external document id and location', $) ;
#81 = PROPERTY_DEFINITION_REPRESENTATION ( #84, #581 ) ;
#82 = OBJECT_ROLE ('mandatory',$ ) ;
#83 = PRODUCT_DEFINITION_CONTEXT ( 'detailed design', #243, 'design' ) ;
#84 = PROPERTY_DEFINITION ('external definition','', #373 ) ;
#85 = APPLICATION_CONTEXT ( 'automotive_design' ) ;
#86 = ITEM_DEFINED_TRANSFORMATION ( 'NONE', 'NONE', #502,  #118 ) ;
#87 = PROPERTY_DEFINITION_REPRESENTATION ( #30, #368 ) ;
#88 =( LENGTH_UNIT ( ) NAMED_UNIT ( * ) SI_UNIT ( .MILLI., .METRE. ) );
#89 = PRODUCT_DEFINITION_FORMATION_WITH_SPECIFIED_SOURCE ( 'Symmetric', '', #283, .NOT_KNOWN. ) ;
#90 = DOCUMENT_FILE ( 'C2~R0402~C0402_L1.0-W0.5-H0.5~8fiY.step.STEP' , '', '', #297, '' ,$ ) ;
#91 =( NAMED_UNIT ( * ) PLANE_ANGLE_UNIT ( ) SI_UNIT ( $, .RADIAN. ) );
#92 = PROPERTY_DEFINITION ('external definition','', #494 ) ;
#93 = EXTERNAL_SOURCE (IDENTIFIER('') ) ;
#94 = PROPERTY_DEFINITION ('document property','', #90 ) ;
#95 =( NAMED_UNIT ( * ) SI_UNIT ( $, .STERADIAN. ) SOLID_ANGLE_UNIT ( ) );
#96 = DIRECTION ( 'NONE',  ( 2.077461250111562526E-48, 0.000000000000000000, 1.000000000000000444 ) ) ;
#97 = UNCERTAINTY_MEASURE_WITH_UNIT (LENGTH_MEASURE( 1.000000000000000082E-05 ), #123, 'distance_accuracy_value', 'NONE');
#98 =( NAMED_UNIT ( * ) SI_UNIT ( $, .STERADIAN. ) SOLID_ANGLE_UNIT ( ) );
#99 = EXTERNAL_SOURCE (IDENTIFIER('') ) ;
#100 = PROPERTY_DEFINITION_REPRESENTATION ( #662, #658 ) ;
#101 = SHAPE_DEFINITION_REPRESENTATION ( #488, #712 ) ;
#102 = CARTESIAN_POINT ( 'NONE',  ( 0.000000000000000000, 0.000000000000000000, 0.000000000000000000 ) ) ;
#103 = PROPERTY_DEFINITION ('external definition','', #536 ) ;
#104 = PRODUCT_CONTEXT ( 'NONE', #318, 'mechanical' ) ;
#105 = CARTESIAN_POINT ( 'NONE',  ( 4.445008890018003811, -6.477012954026001523, 1.600050800102000625 ) ) ;
#106 = UNCERTAINTY_MEASURE_WITH_UNIT (LENGTH_MEASURE( 1.000000000000000082E-05 ), #633, 'distance_accuracy_value', 'NONE');
#107 = CARTESIAN_POINT ( 'NONE',  ( 0.000000000000000000, 0.000000000000000000, 0.000000000000000000 ) ) ;
#108 = CARTESIAN_POINT ( 'NONE',  ( 0.000000000000000000, 0.000000000000000000, 0.000000000000000000 ) ) ;
#109 = PRODUCT_RELATED_PRODUCT_CATEGORY ( 'part', '', ( #17 ) ) ;
#110 = CONTEXT_DEPENDENT_SHAPE_REPRESENTATION ( #405, #673 ) ;
#111 = SHAPE_DEFINITION_REPRESENTATION ( #600, #658 ) ;
#112 = DIRECTION ( 'NONE',  ( 1.000000000000000000, 0.000000000000000000, 2.077461250111562526E-48 ) ) ;
#113 = PROPERTY_DEFINITION ('document property','', #373 ) ;
#114 = APPLICATION_CONTEXT ( 'automotive_design' ) ;
#115 = PRODUCT_DEFINITION_FORMATION_WITH_SPECIFIED_SOURCE ( 'Symmetric', '', #40, .NOT_KNOWN. ) ;
#116 = APPLICATION_PROTOCOL_DEFINITION ( 'draft international standard', 'automotive_design', 1998, #120 ) ;
#117 = CARTESIAN_POINT ( 'NONE',  ( 4.630281940564001886, -11.75389890779000446, 1.600050800102000625 ) ) ;
#118 = AXIS2_PLACEMENT_3D ( 'NONE', #543, #512, #464 ) ;
#119 = DIRECTION ( 'NONE',  ( 1.000000000000000000, 0.000000000000000000, 0.000000000000000000 ) ) ;
#120 = APPLICATION_CONTEXT ( 'automotive_design' ) ;
#121 =( REPRESENTATION_RELATIONSHIP ('NONE','NONE', #61, #124 ) REPRESENTATION_RELATIONSHIP_WITH_TRANSFORMATION ( #717 )SHAPE_REPRESENTATION_RELATIONSHIP( ) );
#122 = APPLIED_DOCUMENT_REFERENCE ( #360,'',( #324) ) ;
#123 =( LENGTH_UNIT ( ) NAMED_UNIT ( * ) SI_UNIT ( .MILLI., .METRE. ) );
#124 = SHAPE_REPRESENTATION ( 'C2~R0402~C0402_L1.0-W0.5-H0.5~8fiY.step', ( #456 ), #264 ) ;
#125 = DOCUMENT_TYPE ( 'geometry' ) ;
#126 = APPLICATION_PROTOCOL_DEFINITION ( 'draft international standard', 'automotive_design', 1998, #195 ) ;
#127 = PRODUCT_DEFINITION ( 'General', '', #301, #83 ) ;
#128 =( NAMED_UNIT ( * ) PLANE_ANGLE_UNIT ( ) SI_UNIT ( $, .RADIAN. ) );
#129 = ROLE_ASSOCIATION ( #441, #73 ) ;
#130 = DIRECTION ( 'NONE',  ( 2.077461250111562526E-48, 0.000000000000000000, 1.000000000000000444 ) ) ;
#131 = APPLICATION_CONTEXT ( 'automotive_design' ) ;
#132 = AXIS2_PLACEMENT_3D ( 'NONE', #254, #664, #279 ) ;
#133 = AXIS2_PLACEMENT_3D ( 'NONE', #628, #636, #619 ) ;
#134 = PROPERTY_DEFINITION ('external definition','', #596 ) ;
#135 = SHAPE_DEFINITION_REPRESENTATION ( #305, #217 ) ;
#136 = PRODUCT ( 'RF1~SMA-SMD_BWSMA-KE-P001~SMA-TH_5P-L6.5-W6.5-H9.5_BWSMA-KE-P001~8fiY.step', 'RF1~SMA-SMD_BWSMA-KE-P001~SMA-TH_5P-L6.5-W6.5-H9.5_BWSMA-KE-P001~8fiY.step', '', ( #104 ) ) ;
#137 = DOCUMENT_TYPE ( 'geometry' ) ;
#138 = CONTEXT_DEPENDENT_SHAPE_REPRESENTATION ( #483, #711 ) ;
#139 =( LENGTH_UNIT ( ) NAMED_UNIT ( * ) SI_UNIT ( .MILLI., .METRE. ) );
#140 =( NAMED_UNIT ( * ) SI_UNIT ( $, .STERADIAN. ) SOLID_ANGLE_UNIT ( ) );
#141 = AXIS2_PLACEMENT_3D ( 'NONE', #521, #23, #467 ) ;
#142 = IDENTIFICATION_ROLE ( 'external document id and location', $) ;
#143 = APPLIED_DOCUMENT_REFERENCE ( #546,'',( #127) ) ;
#144 = PROPERTY_DEFINITION ('document property','', #650 ) ;
#145 = PRODUCT_DEFINITION_CONTEXT ( 'detailed design', #70, 'design' ) ;
#146 = DIRECTION ( 'NONE',  ( 0.000000000000000000, 0.000000000000000000, 1.000000000000000000 ) ) ;
#147 = PROPERTY_DEFINITION ('document property','', #265 ) ;
#148 = CONTEXT_DEPENDENT_SHAPE_REPRESENTATION ( #597, #275 ) ;
#149 = OBJECT_ROLE ('mandatory',$ ) ;
#150 = PRODUCT_DEFINITION_FORMATION_WITH_SPECIFIED_SOURCE ( 'Symmetric', '', #246, .NOT_KNOWN. ) ;
#151 =( LENGTH_UNIT ( ) NAMED_UNIT ( * ) SI_UNIT ( .MILLI., .METRE. ) );
#152 = AXIS2_PLACEMENT_3D ( 'NONE', #12, #266, #495 ) ;
#153 = AXIS2_PLACEMENT_3D ( 'NONE', #107, #683, #343 ) ;
#154 = PRODUCT_DEFINITION_FORMATION_WITH_SPECIFIED_SOURCE ( 'Symmetric', '', #17, .NOT_KNOWN. ) ;
#155 = PROPERTY_DEFINITION ('external definition','', #90 ) ;
#156 = PRODUCT_DEFINITION_CONTEXT ( 'detailed design', #551, 'design' ) ;
#157 = PRODUCT_DEFINITION ( 'General', '', #251, #43 ) ;
#158 = CARTESIAN_POINT ( 'NONE',  ( 0.000000000000000000, 0.000000000000000000, 0.000000000000000000 ) ) ;
#159 = OBJECT_ROLE ('mandatory',$ ) ;
#160 = DOCUMENT_FILE ( 'USB1~USB-C-SMD_TYPE-C-6PIN-2MD-073~USB-C-SMD_TYPEC-304YDSW-ACP16~8fiY.step.STEP' , '', '', #654, '' ,$ ) ;
#161 = EXTERNAL_SOURCE (IDENTIFIER('') ) ;
#162 = SHAPE_DEFINITION_REPRESENTATION ( #648, #581 ) ;
#163 = PROPERTY_DEFINITION ('document property','', #494 ) ;
#164 = PRODUCT_CONTEXT ( 'NONE', #131, 'mechanical' ) ;
#165 = DIRECTION ( 'NONE',  ( 2.077461250111562526E-48, 0.000000000000000000, 1.000000000000000444 ) ) ;
#166 = PRODUCT_DEFINITION_CONTEXT ( 'detailed design', #27, 'design' ) ;
#167 =( GEOMETRIC_REPRESENTATION_CONTEXT ( 3 ) GLOBAL_UNCERTAINTY_ASSIGNED_CONTEXT ( ( #286 ) ) GLOBAL_UNIT_ASSIGNED_CONTEXT ( ( #583, #63, #585 ) ) REPRESENTATION_CONTEXT ( 'NONE', 'WORKASPACE' ) );
#168 = APPLIED_EXTERNAL_IDENTIFICATION_ASSIGNMENT ( 'U1~LGA-38_L11.0-W10.0-P1.00-TL~LGA-38_L11.0-W10.0-P1.00-TL~8fiY.step.STEP' , #601, #161,( #494) ) ;
#169 = PRODUCT_CONTEXT ( 'NONE', #21, 'mechanical' ) ;
#170 = DIRECTION ( 'NONE',  ( 2.077461250111562526E-48, 0.000000000000000000, 1.000000000000000444 ) ) ;
#171 = APPLICATION_CONTEXT ( 'automotive_design' ) ;
#172 = SHAPE_REPRESENTATION ( 'C3~R0402~C0402_L1.0-W0.5-H0.5~8fiY.step', ( #153 ), #530 ) ;
#173 =( NAMED_UNIT ( * ) PLANE_ANGLE_UNIT ( ) SI_UNIT ( $, .RADIAN. ) );
#174 = PROPERTY_DEFINITION ('document property','', #568 ) ;
#175 = PRODUCT ( 'R2~R0402~R0402_L1.0-W0.5-H0.4~8fiY.step', 'R2~R0402~R0402_L1.0-W0.5-H0.4~8fiY.step', '', ( #64 ) ) ;
#176 = DIRECTION ( 'NONE',  ( 0.000000000000000000, 0.000000000000000000, 1.000000000000000000 ) ) ;
#177 = CARTESIAN_POINT ( 'NONE',  ( 1.905003810008000453, -11.43002286004000467, 1.600050800102000625 ) ) ;
#178 = SHAPE_REPRESENTATION ( 'C1~R0402~C0402_L1.0-W0.5-H0.5~8fiY.step', ( #237 ), #429 ) ;
#179 = ITEM_DEFINED_TRANSFORMATION ( 'NONE', 'NONE', #331,  #363 ) ;
#180 = APPLICATION_PROTOCOL_DEFINITION ( 'draft international standard', 'automotive_design', 1998, #187 ) ;
#181 =( REPRESENTATION_RELATIONSHIP ('NONE','NONE', #61, #712 ) REPRESENTATION_RELATIONSHIP_WITH_TRANSFORMATION ( #726 )SHAPE_REPRESENTATION_RELATIONSHIP( ) );
#182 = ITEM_DEFINED_TRANSFORMATION ( 'NONE', 'NONE', #77,  #472 ) ;
#183 = AXIS2_PLACEMENT_3D ( 'NONE', #278, #96, #338 ) ;
#184 = DIRECTION ( 'NONE',  ( 0.000000000000000000, 0.000000000000000000, 1.000000000000000000 ) ) ;
#185 = ROLE_ASSOCIATION ( #567, #652 ) ;
#186 = PRODUCT_DEFINITION ( 'General', '', #611, #210 ) ;
#187 = APPLICATION_CONTEXT ( 'automotive_design' ) ;
#188 = CONTEXT_DEPENDENT_SHAPE_REPRESENTATION ( #649, #702 ) ;
#189 = PRODUCT ( 'U1~LGA-38_L11.0-W10.0-P1.00-TL~LGA-38_L11.0-W10.0-P1.00-TL~8fiY.step', 'U1~LGA-38_L11.0-W10.0-P1.00-TL~LGA-38_L11.0-W10.0-P1.00-TL~8fiY.step', '', ( #228 ) ) ;
#190 = PRODUCT_CONTEXT ( 'NONE', #257, 'mechanical' ) ;
#191 = APPLIED_EXTERNAL_IDENTIFICATION_ASSIGNMENT ( 'Board~8fiY.step.STEP' , #591, #533,( #419) ) ;
#192 = PRODUCT_DEFINITION_SHAPE ( 'NONE', 'NONE',  #548 ) ;
#193 = EXTERNAL_SOURCE (IDENTIFIER('') ) ;
#194 = APPLICATION_PROTOCOL_DEFINITION ( 'draft international standard', 'automotive_design', 1998, #551 ) ;
#195 = APPLICATION_CONTEXT ( 'automotive_design' ) ;
#196 = PROPERTY_DEFINITION_REPRESENTATION ( #563, #351 ) ;
#197 = OBJECT_ROLE ('mandatory',$ ) ;
#198 = PROPERTY_DEFINITION ('document property','', #536 ) ;
#199 = CONTEXT_DEPENDENT_SHAPE_REPRESENTATION ( #121, #209 ) ;
#200 = SHAPE_REPRESENTATION ( 'U1~LGA-38_L11.0-W10.0-P1.00-TL~LGA-38_L11.0-W10.0-P1.00-TL~8fiY.step', ( #642 ), #308 ) ;
#201 = IDENTIFICATION_ROLE ( 'external document id and location', $) ;
#202 =( GEOMETRIC_REPRESENTATION_CONTEXT ( 3 ) GLOBAL_UNCERTAINTY_ASSIGNED_CONTEXT ( ( #398 ) ) GLOBAL_UNIT_ASSIGNED_CONTEXT ( ( #666, #493, #325 ) ) REPRESENTATION_CONTEXT ( 'NONE', 'WORKASPACE' ) );
#203 = PRODUCT_DEFINITION_FORMATION_WITH_SPECIFIED_SOURCE ( 'Symmetric', '', #682, .NOT_KNOWN. ) ;
#204 = DOCUMENT_TYPE ( 'geometry' ) ;
#205 = ITEM_DEFINED_TRANSFORMATION ( 'NONE', 'NONE', #133,  #642 ) ;
#206 = APPLICATION_CONTEXT ( 'automotive_design' ) ;
#207 = PROPERTY_DEFINITION_REPRESENTATION ( #92, #200 ) ;
#208 = UNCERTAINTY_MEASURE_WITH_UNIT (LENGTH_MEASURE( 1.000000000000000082E-05 ), #68, 'distance_accuracy_value', 'NONE');
#209 = PRODUCT_DEFINITION_SHAPE ( 'NONE', 'NONE',  #747 ) ;
#210 = PRODUCT_DEFINITION_CONTEXT ( 'detailed design', #720, 'design' ) ;
#211 = APPLICATION_PROTOCOL_DEFINITION ( 'draft international standard', 'automotive_design', 1998, #517 ) ;
#212 = PRODUCT_DEFINITION_SHAPE ( 'NONE', 'NONE',  #746 ) ;
#213 = ROLE_ASSOCIATION ( #615, #572 ) ;
#214 = APPLICATION_PROTOCOL_DEFINITION ( 'draft international standard', 'automotive_design', 1998, #631 ) ;
#215 = CARTESIAN_POINT ( 'NONE',  ( 1.143002286005001533, -6.477012954026001523, 1.600050800102000625 ) ) ;
#216 = DOCUMENT_TYPE ( 'geometry' ) ;
#217 = SHAPE_REPRESENTATION ( 'C5~R0402~C0402_L1.0-W0.5-H0.5~8fiY.step', ( #472 ), #670 ) ;
#218 =( LENGTH_UNIT ( ) NAMED_UNIT ( * ) SI_UNIT ( .MILLI., .METRE. ) );
#219 = PROPERTY_DEFINITION ('external definition','', #419 ) ;
#220 = APPLICATION_PROTOCOL_DEFINITION ( 'draft international standard', 'automotive_design', 1998, #479 ) ;
#221 =( NAMED_UNIT ( * ) PLANE_ANGLE_UNIT ( ) SI_UNIT ( $, .RADIAN. ) );
#222 = AXIS2_PLACEMENT_3D ( 'NONE', #681, #404, #37 ) ;
#223 = APPLIED_EXTERNAL_IDENTIFICATION_ASSIGNMENT ( 'C4~R0402~C0402_L1.0-W0.5-H0.5~8fiY.step.STEP' , #4, #193,( #265) ) ;
#224 = SHAPE_DEFINITION_REPRESENTATION ( #71, #61 ) ;
#225 = DIRECTION ( 'NONE',  ( 1.000000000000000000, 0.000000000000000000, 2.077461250111562526E-48 ) ) ;
#226 = PROPERTY_DEFINITION ('document property','', #678 ) ;
#227 =( REPRESENTATION_RELATIONSHIP ('NONE','NONE', #61, #645 ) REPRESENTATION_RELATIONSHIP_WITH_TRANSFORMATION ( #371 )SHAPE_REPRESENTATION_RELATIONSHIP( ) );
#228 = PRODUCT_CONTEXT ( 'NONE', #85, 'mechanical' ) ;
#229 = CARTESIAN_POINT ( 'NONE',  ( 5.060058420117003131, -9.376225552451003864, 1.600050800102000625 ) ) ;
#230 =( LENGTH_UNIT ( ) NAMED_UNIT ( * ) SI_UNIT ( .MILLI., .METRE. ) );
#231 = APPLICATION_PROTOCOL_DEFINITION ( 'draft international standard', 'automotive_design', 1998, #257 ) ;
#232 =( REPRESENTATION_RELATIONSHIP ('NONE','NONE', #61, #244 ) REPRESENTATION_RELATIONSHIP_WITH_TRANSFORMATION ( #699 )SHAPE_REPRESENTATION_RELATIONSHIP( ) );
#233 = DOCUMENT_TYPE ( 'geometry' ) ;
#234 = PRODUCT_DEFINITION ( 'General', '', #203, #261 ) ;
#235 = ITEM_DEFINED_TRANSFORMATION ( 'NONE', 'NONE', #222,  #260 ) ;
#236 = CARTESIAN_POINT ( 'NONE',  ( -2.794005588010996188, -11.81102362204000578, 1.600050800102000625 ) ) ;
#237 = AXIS2_PLACEMENT_3D ( 'NONE', #679, #646, #119 ) ;
#238 = AXIS2_PLACEMENT_3D ( 'NONE', #395, #176, #618 ) ;
#239 = PRODUCT ( 'USB1~USB-C-SMD_TYPE-C-6PIN-2MD-073~USB-C-SMD_TYPEC-304YDSW-ACP16~8fiY.step', 'USB1~USB-C-SMD_TYPE-C-6PIN-2MD-073~USB-C-SMD_TYPEC-304YDSW-ACP16~8fiY.step', '', ( #460 ) ) ;
#240 = EXTERNAL_SOURCE (IDENTIFIER('') ) ;
#241 = APPLIED_DOCUMENT_REFERENCE ( #536,'',( #258) ) ;
#242 =( NAMED_UNIT ( * ) SI_UNIT ( $, .STERADIAN. ) SOLID_ANGLE_UNIT ( ) );
#243 = APPLICATION_CONTEXT ( 'automotive_design' ) ;
#244 = SHAPE_REPRESENTATION ( 'Board~8fiY.step', ( #560 ), #659 ) ;
#245 = PROPERTY_DEFINITION_REPRESENTATION ( #595, #244 ) ;
#246 = PRODUCT ( 'C4~R0402~C0402_L1.0-W0.5-H0.5~8fiY.step', 'C4~R0402~C0402_L1.0-W0.5-H0.5~8fiY.step', '', ( #36 ) ) ;
#247 = PRODUCT_RELATED_PRODUCT_CATEGORY ( 'part', '', ( #653 ) ) ;
#248 = DIRECTION ( 'NONE',  ( 1.000000000000000000, 0.000000000000000000, 0.000000000000000000 ) ) ;
#249 = PROPERTY_DEFINITION_REPRESENTATION ( #198, #178 ) ;
#250 = APPLIED_EXTERNAL_IDENTIFICATION_ASSIGNMENT ( 'C1~R0402~C0402_L1.0-W0.5-H0.5~8fiY.step.STEP' , #309, #99,( #536) ) ;
#251 = PRODUCT_DEFINITION_FORMATION_WITH_SPECIFIED_SOURCE ( 'Symmetric', '', #189, .NOT_KNOWN. ) ;
#252 = APPLIED_DOCUMENT_REFERENCE ( #90,'',( #417) ) ;
#253 = IDENTIFICATION_ROLE ( 'external document id and location', $) ;
#254 = CARTESIAN_POINT ( 'NONE',  ( 0.000000000000000000, 0.000000000000000000, 0.000000000000000000 ) ) ;
#255 = ITEM_DEFINED_TRANSFORMATION ( 'NONE', 'NONE', #262,  #152 ) ;
#256 = PROPERTY_DEFINITION ('external definition','', #360 ) ;
#257 = APPLICATION_CONTEXT ( 'automotive_design' ) ;
#258 = PRODUCT_DEFINITION ( 'General', '', #550, #616 ) ;
#259 = PROPERTY_DEFINITION_REPRESENTATION ( #94, #124 ) ;
#260 = AXIS2_PLACEMENT_3D ( 'NONE', #542, #433, #19 ) ;
#261 = PRODUCT_DEFINITION_CONTEXT ( 'detailed design', #479, 'design' ) ;
#262 = AXIS2_PLACEMENT_3D ( 'NONE', #342, #295, #516 ) ;
#263 =( NAMED_UNIT ( * ) PLANE_ANGLE_UNIT ( ) SI_UNIT ( $, .RADIAN. ) );
#264 =( GEOMETRIC_REPRESENTATION_CONTEXT ( 3 ) GLOBAL_UNCERTAINTY_ASSIGNED_CONTEXT ( ( #314 ) ) GLOBAL_UNIT_ASSIGNED_CONTEXT ( ( #230, #221, #693 ) ) REPRESENTATION_CONTEXT ( 'NONE', 'WORKASPACE' ) );
#265 = DOCUMENT_FILE ( 'C4~R0402~C0402_L1.0-W0.5-H0.5~8fiY.step.STEP' , '', '', #137, '' ,$ ) ;
#266 = DIRECTION ( 'NONE',  ( 0.000000000000000000, 0.000000000000000000, 1.000000000000000000 ) ) ;
#267 = EXTERNAL_SOURCE (IDENTIFIER('') ) ;
#268 = PRODUCT_DEFINITION ( 'General', '', #154, #156 ) ;
#269 = UNCERTAINTY_MEASURE_WITH_UNIT (LENGTH_MEASURE( 1.000000000000000082E-05 ), #57, 'distance_accuracy_value', 'NONE');
#270 = PRODUCT_DEFINITION_SHAPE ( 'NONE', 'NONE',  #744 ) ;
#271 =( REPRESENTATION_RELATIONSHIP ('NONE','NONE', #61, #178 ) REPRESENTATION_RELATIONSHIP_WITH_TRANSFORMATION ( #348 )SHAPE_REPRESENTATION_RELATIONSHIP( ) );
#272 = AXIS2_PLACEMENT_3D ( 'NONE', #718, #410, #380 ) ;
#273 = SHAPE_DEFINITION_REPRESENTATION ( #582, #32 ) ;
#274 = DIRECTION ( 'NONE',  ( -1.000000000000000000, 0.000000000000000000, -2.077461250111562526E-48 ) ) ;
#275 = PRODUCT_DEFINITION_SHAPE ( 'NONE', 'NONE',  #743 ) ;
#276 = UNCERTAINTY_MEASURE_WITH_UNIT (LENGTH_MEASURE( 1.000000000000000082E-05 ), #88, 'distance_accuracy_value', 'NONE');
#277 = PROPERTY_DEFINITION_REPRESENTATION ( #555, #734 ) ;
#278 = CARTESIAN_POINT ( 'NONE',  ( 5.715011430023002603, -6.477012954026001523, 1.600050800102000625 ) ) ;
#279 = DIRECTION ( 'NONE',  ( 1.000000000000000000, 0.000000000000000000, 0.000000000000000000 ) ) ;
#280 = PROPERTY_DEFINITION ('document property','', #497 ) ;
#281 = PRODUCT_RELATED_PRODUCT_CATEGORY ( 'part', '', ( #452 ) ) ;
#282 = APPLICATION_CONTEXT ( 'automotive_design' ) ;
#283 = PRODUCT ( 'R1~R0402~R0402_L1.0-W0.5-H0.4~8fiY.step', 'R1~R0402~R0402_L1.0-W0.5-H0.4~8fiY.step', '', ( #578 ) ) ;
#284 = PRODUCT_CONTEXT ( 'NONE', #489, 'mechanical' ) ;
#285 = DIRECTION ( 'NONE',  ( 0.000000000000000000, 1.000000000000000444, 0.000000000000000000 ) ) ;
#286 = UNCERTAINTY_MEASURE_WITH_UNIT (LENGTH_MEASURE( 1.000000000000000082E-05 ), #583, 'distance_accuracy_value', 'NONE');
#287 = PRODUCT_DEFINITION_FORMATION_WITH_SPECIFIED_SOURCE ( 'Symmetric', '', #389, .NOT_KNOWN. ) ;
#288 = PROPERTY_DEFINITION_REPRESENTATION ( #293, #368 ) ;
#289 = SHAPE_DEFINITION_REPRESENTATION ( #482, #734 ) ;
#290 = DIRECTION ( 'NONE',  ( 0.000000000000000000, -1.000000000000000444, 0.000000000000000000 ) ) ;
#291 = DIRECTION ( 'NONE',  ( 1.000000000000000000, 0.000000000000000000, 0.000000000000000000 ) ) ;
#292 = EXTERNAL_SOURCE (IDENTIFIER('') ) ;
#293 = PROPERTY_DEFINITION ('document property','', #500 ) ;
#294 = PRODUCT_CONTEXT ( 'NONE', #367, 'mechanical' ) ;
#295 = DIRECTION ( 'NONE',  ( 2.077461250111562526E-48, 0.000000000000000000, 1.000000000000000444 ) ) ;
#296 =( NAMED_UNIT ( * ) SI_UNIT ( $, .STERADIAN. ) SOLID_ANGLE_UNIT ( ) );
#297 = DOCUMENT_TYPE ( 'geometry' ) ;
#298 = APPLICATION_PROTOCOL_DEFINITION ( 'draft international standard', 'automotive_design', 1998, #31 ) ;
#299 = ROLE_ASSOCIATION ( #674, #62 ) ;
#300 = AXIS2_PLACEMENT_3D ( 'NONE', #158, #56, #413 ) ;
#301 = PRODUCT_DEFINITION_FORMATION_WITH_SPECIFIED_SOURCE ( 'Symmetric', '', #399, .NOT_KNOWN. ) ;
#302 = PRODUCT_DEFINITION_SHAPE ( 'NONE', 'NONE',  #234 ) ;
#303 = DIRECTION ( 'NONE',  ( 1.000000000000000000, 0.000000000000000000, 0.000000000000000000 ) ) ;
#304 = PRODUCT_CONTEXT ( 'NONE', #195, 'mechanical' ) ;
#305 = PRODUCT_DEFINITION_SHAPE ( 'NONE', 'NONE',  #324 ) ;
#306 = OBJECT_ROLE ('mandatory',$ ) ;
#307 = ROLE_ASSOCIATION ( #538, #439 ) ;
#308 =( GEOMETRIC_REPRESENTATION_CONTEXT ( 3 ) GLOBAL_UNCERTAINTY_ASSIGNED_CONTEXT ( ( #689 ) ) GLOBAL_UNIT_ASSIGNED_CONTEXT ( ( #218, #91, #634 ) ) REPRESENTATION_CONTEXT ( 'NONE', 'WORKASPACE' ) );
#309 = IDENTIFICATION_ROLE ( 'external document id and location', $) ;
#310 = DIRECTION ( 'NONE',  ( 1.000000000000000000, 0.000000000000000000, 0.000000000000000000 ) ) ;
#311 = PRODUCT_DEFINITION_SHAPE ( 'NONE', 'NONE',  #741 ) ;
#312 = DOCUMENT_TYPE ( 'geometry' ) ;
#313 = APPLIED_DOCUMENT_REFERENCE ( #497,'',( #356) ) ;
#314 = UNCERTAINTY_MEASURE_WITH_UNIT (LENGTH_MEASURE( 1.000000000000000082E-05 ), #230, 'distance_accuracy_value', 'NONE');
#315 = ROLE_ASSOCIATION ( #525, #28 ) ;
#316 = PROPERTY_DEFINITION ('external definition','', #394 ) ;
#317 = DIRECTION ( 'NONE',  ( 0.000000000000000000, 0.000000000000000000, 1.000000000000000000 ) ) ;
#318 = APPLICATION_CONTEXT ( 'automotive_design' ) ;
#319 = SHAPE_DEFINITION_REPRESENTATION ( #626, #645 ) ;
#320 =( GEOMETRIC_REPRESENTATION_CONTEXT ( 3 ) GLOBAL_UNCERTAINTY_ASSIGNED_CONTEXT ( ( #663 ) ) GLOBAL_UNIT_ASSIGNED_CONTEXT ( ( #151, #263, #370 ) ) REPRESENTATION_CONTEXT ( 'NONE', 'WORKASPACE' ) );
#321 = AXIS2_PLACEMENT_3D ( 'NONE', #117, #566, #622 ) ;
#322 =( NAMED_UNIT ( * ) SI_UNIT ( $, .STERADIAN. ) SOLID_ANGLE_UNIT ( ) );
#323 = PROPERTY_DEFINITION_REPRESENTATION ( #155, #124 ) ;
#324 = PRODUCT_DEFINITION ( 'General', '', #393, #326 ) ;
#325 =( NAMED_UNIT ( * ) SI_UNIT ( $, .STERADIAN. ) SOLID_ANGLE_UNIT ( ) );
#326 = PRODUCT_DEFINITION_CONTEXT ( 'detailed design', #355, 'design' ) ;
#327 = PRODUCT_DEFINITION_SHAPE ( 'NONE', 'NONE',  #748 ) ;
#328 = DOCUMENT_TYPE ( 'geometry' ) ;
#329 = ITEM_DEFINED_TRANSFORMATION ( 'NONE', 'NONE', #141,  #300 ) ;
#330 = PRODUCT_CONTEXT ( 'NONE', #631, 'mechanical' ) ;
#331 = AXIS2_PLACEMENT_3D ( 'NONE', #236, #130, #604 ) ;
#332 = ROLE_ASSOCIATION ( #6, #630 ) ;
#333 = APPLICATION_CONTEXT ( 'automotive_design' ) ;
#334 = PRODUCT_DEFINITION_CONTEXT ( 'detailed design', #282, 'design' ) ;
#335 = PRODUCT_DEFINITION_SHAPE ( 'NONE', 'NONE',  #423 ) ;
#336 =( NAMED_UNIT ( * ) PLANE_ANGLE_UNIT ( ) SI_UNIT ( $, .RADIAN. ) );
#337 = APPLICATION_PROTOCOL_DEFINITION ( 'draft international standard', 'automotive_design', 1998, #489 ) ;
#338 = DIRECTION ( 'NONE',  ( 0.000000000000000000, -1.000000000000000444, 0.000000000000000000 ) ) ;
#339 = IDENTIFICATION_ROLE ( 'external document id and location', $) ;
#340 = CONTEXT_DEPENDENT_SHAPE_REPRESENTATION ( #703, #443 ) ;
#341 = SHAPE_DEFINITION_REPRESENTATION ( #7, #607 ) ;
#342 = CARTESIAN_POINT ( 'NONE',  ( 4.572009144018000626, 6.096012192024002907, 1.600050800102000625 ) ) ;
#343 = DIRECTION ( 'NONE',  ( 1.000000000000000000, 0.000000000000000000, 0.000000000000000000 ) ) ;
#344 =( REPRESENTATION_RELATIONSHIP ('NONE','NONE', #61, #607 ) REPRESENTATION_RELATIONSHIP_WITH_TRANSFORMATION ( #329 )SHAPE_REPRESENTATION_RELATIONSHIP( ) );
#345 = APPLIED_EXTERNAL_IDENTIFICATION_ASSIGNMENT ( 'R1~R0402~R0402_L1.0-W0.5-H0.4~8fiY.step.STEP' , #339, #436,( #394) ) ;
#346 = APPLICATION_PROTOCOL_DEFINITION ( 'draft international standard', 'automotive_design', 1998, #60 ) ;
#347 = EXTERNAL_SOURCE (IDENTIFIER('') ) ;
#348 = ITEM_DEFINED_TRANSFORMATION ( 'NONE', 'NONE', #321,  #237 ) ;
#349 = EXTERNAL_SOURCE (IDENTIFIER('') ) ;
#350 = PRODUCT ( 'C1~R0402~C0402_L1.0-W0.5-H0.5~8fiY.step', 'C1~R0402~C0402_L1.0-W0.5-H0.5~8fiY.step', '', ( #655 ) ) ;
#351 = SHAPE_REPRESENTATION ( 'C6~R0402~C0402_L1.0-W0.5-H0.5~8fiY.step', ( #152 ), #202 ) ;
#352 = CONTEXT_DEPENDENT_SHAPE_REPRESENTATION ( #18, #311 ) ;
#353 = PROPERTY_DEFINITION ('document property','', #596 ) ;
#354 = PROPERTY_DEFINITION ('document property','', #360 ) ;
#355 = APPLICATION_CONTEXT ( 'automotive_design' ) ;
#356 = PRODUCT_DEFINITION ( 'General', '', #49, #434 ) ;
#357 =( REPRESENTATION_RELATIONSHIP ('NONE','NONE', #61, #734 ) REPRESENTATION_RELATIONSHIP_WITH_TRANSFORMATION ( #179 )SHAPE_REPRESENTATION_RELATIONSHIP( ) );
#358 = APPLICATION_PROTOCOL_DEFINITION ( 'draft international standard', 'automotive_design', 1998, #705 ) ;
#359 = EXTERNAL_SOURCE (IDENTIFIER('') ) ;
#360 = DOCUMENT_FILE ( 'C5~R0402~C0402_L1.0-W0.5-H0.5~8fiY.step.STEP' , '', '', #736, '' ,$ ) ;
#361 = PROPERTY_DEFINITION_REPRESENTATION ( #507, #32 ) ;
#362 = IDENTIFICATION_ROLE ( 'external document id and location', $) ;
#363 = AXIS2_PLACEMENT_3D ( 'NONE', #451, #184, #10 ) ;
#364 = DIRECTION ( 'NONE',  ( 1.000000000000000000, 0.000000000000000000, 0.000000000000000000 ) ) ;
#365 = PRODUCT_DEFINITION_SHAPE ( 'NONE', 'NONE',  #697 ) ;
#366 = ROLE_ASSOCIATION ( #197, #540 ) ;
#367 = APPLICATION_CONTEXT ( 'automotive_design' ) ;
#368 = SHAPE_REPRESENTATION ( 'R2~R0402~R0402_L1.0-W0.5-H0.4~8fiY.step', ( #529 ), #167 ) ;
#369 = PRODUCT_DEFINITION_CONTEXT ( 'detailed design', #171, 'design' ) ;
#370 =( NAMED_UNIT ( * ) SI_UNIT ( $, .STERADIAN. ) SOLID_ANGLE_UNIT ( ) );
#371 = ITEM_DEFINED_TRANSFORMATION ( 'NONE', 'NONE', #430,  #35 ) ;
#372 = PRODUCT_RELATED_PRODUCT_CATEGORY ( 'part', '', ( #421 ) ) ;
#373 = DOCUMENT_FILE ( 'D1~SC-70-3_L2.0-W1.3-P0.65-LS2.1-BL~SC-70-3_L2.0-W1.3-P0.65-LS2.1-BL~8fiY.step.STEP' , '', '', #641, '' ,$ ) ;
#374 = APPLIED_EXTERNAL_IDENTIFICATION_ASSIGNMENT ( 'C5~R0402~C0402_L1.0-W0.5-H0.5~8fiY.step.STEP' , #657, #471,( #360) ) ;
#375 = AXIS2_PLACEMENT_3D ( 'NONE', #612, #317, #26 ) ;
#376 = UNCERTAINTY_MEASURE_WITH_UNIT (LENGTH_MEASURE( 1.000000000000000082E-05 ), #731, 'distance_accuracy_value', 'NONE');
#377 = AXIS2_PLACEMENT_3D ( 'NONE', #215, #42, #285 ) ;
#378 = APPLIED_EXTERNAL_IDENTIFICATION_ASSIGNMENT ( 'C6~R0402~C0402_L1.0-W0.5-H0.5~8fiY.step.STEP' , #201, #93,( #484) ) ;
#379 = DOCUMENT_TYPE ( 'geometry' ) ;
#380 = DIRECTION ( 'NONE',  ( 1.000000000000000000, 0.000000000000000000, 2.077461250111562526E-48 ) ) ;
#381 = ROLE_ASSOCIATION ( #82, #45 ) ;
#382 = CARTESIAN_POINT ( 'NONE',  ( 0.000000000000000000, 0.000000000000000000, 0.000000000000000000 ) ) ;
#383 = OBJECT_ROLE ('mandatory',$ ) ;
#384 =( NAMED_UNIT ( * ) SI_UNIT ( $, .STERADIAN. ) SOLID_ANGLE_UNIT ( ) );
#385 = UNCERTAINTY_MEASURE_WITH_UNIT (LENGTH_MEASURE( 1.000000000000000082E-05 ), #13, 'distance_accuracy_value', 'NONE');
#386 =( NAMED_UNIT ( * ) SI_UNIT ( $, .STERADIAN. ) SOLID_ANGLE_UNIT ( ) );
#387 =( LENGTH_UNIT ( ) NAMED_UNIT ( * ) SI_UNIT ( .MILLI., .METRE. ) );
#388 = PRODUCT_DEFINITION_SHAPE ( 'NONE', 'NONE',  #749 ) ;
#389 = PRODUCT ( 'D1~SC-70-3_L2.0-W1.3-P0.65-LS2.1-BL~SC-70-3_L2.0-W1.3-P0.65-LS2.1-BL~8fiY.step', 'D1~SC-70-3_L2.0-W1.3-P0.65-LS2.1-BL~SC-70-3_L2.0-W1.3-P0.65-LS2.1-BL~8fiY.step', '', ( #453 ) ) ;
#390 = APPLICATION_PROTOCOL_DEFINITION ( 'draft international standard', 'automotive_design', 1998, #70 ) ;
#391 = CARTESIAN_POINT ( 'NONE',  ( -0.5080010160019993171, -6.096012192024002019, 1.600050800102000625 ) ) ;
#392 = PRODUCT_DEFINITION ( 'General', '', #287, #728 ) ;
#393 = PRODUCT_DEFINITION_FORMATION_WITH_SPECIFIED_SOURCE ( 'Symmetric', '', #421, .NOT_KNOWN. ) ;
#394 = DOCUMENT_FILE ( 'R1~R0402~R0402_L1.0-W0.5-H0.4~8fiY.step.STEP' , '', '', #204, '' ,$ ) ;
#395 = CARTESIAN_POINT ( 'NONE',  ( 0.000000000000000000, 0.000000000000000000, 0.000000000000000000 ) ) ;
#396 = CARTESIAN_POINT ( 'NONE',  ( 0.000000000000000000, -10.66802133604000247, 1.600050800102000625 ) ) ;
#397 =( NAMED_UNIT ( * ) PLANE_ANGLE_UNIT ( ) SI_UNIT ( $, .RADIAN. ) );
#398 = UNCERTAINTY_MEASURE_WITH_UNIT (LENGTH_MEASURE( 1.000000000000000082E-05 ), #666, 'distance_accuracy_value', 'NONE');
#399 = PRODUCT ( 'C8~R0402~C0402_L1.0-W0.5-H0.5~8fiY.step', 'C8~R0402~C0402_L1.0-W0.5-H0.5~8fiY.step', '', ( #284 ) ) ;
#400 = APPLICATION_CONTEXT ( 'automotive_design' ) ;
#401 = DIRECTION ( 'NONE',  ( 0.000000000000000000, 1.000000000000000444, 0.000000000000000000 ) ) ;
#402 = PRODUCT_RELATED_PRODUCT_CATEGORY ( 'part', '', ( #350 ) ) ;
#403 = APPLICATION_PROTOCOL_DEFINITION ( 'draft international standard', 'automotive_design', 1998, #27 ) ;
#404 = DIRECTION ( 'NONE',  ( 2.077461250111562526E-48, 0.000000000000000000, 1.000000000000000444 ) ) ;
#405 =( REPRESENTATION_RELATIONSHIP ('NONE','NONE', #61, #368 ) REPRESENTATION_RELATIONSHIP_WITH_TRANSFORMATION ( #617 )SHAPE_REPRESENTATION_RELATIONSHIP( ) );
#406 =( GEOMETRIC_REPRESENTATION_CONTEXT ( 3 ) GLOBAL_UNCERTAINTY_ASSIGNED_CONTEXT ( ( #501 ) ) GLOBAL_UNIT_ASSIGNED_CONTEXT ( ( #438, #29, #140 ) ) REPRESENTATION_CONTEXT ( 'NONE', 'WORKASPACE' ) );
#407 =( GEOMETRIC_REPRESENTATION_CONTEXT ( 3 ) GLOBAL_UNCERTAINTY_ASSIGNED_CONTEXT ( ( #97 ) ) GLOBAL_UNIT_ASSIGNED_CONTEXT ( ( #123, #128, #527 ) ) REPRESENTATION_CONTEXT ( 'NONE', 'WORKASPACE' ) );
#408 = PROPERTY_DEFINITION_REPRESENTATION ( #256, #217 ) ;
#409 =( REPRESENTATION_RELATIONSHIP ('NONE','NONE', #61, #581 ) REPRESENTATION_RELATIONSHIP_WITH_TRANSFORMATION ( #86 )SHAPE_REPRESENTATION_RELATIONSHIP( ) );
#410 = DIRECTION ( 'NONE',  ( 2.077461250111562526E-48, 0.000000000000000000, 1.000000000000000444 ) ) ;
#411 = IDENTIFICATION_ROLE ( 'external document id and location', $) ;
#412 = PROPERTY_DEFINITION_REPRESENTATION ( #353, #505 ) ;
#413 = DIRECTION ( 'NONE',  ( 1.000000000000000000, 0.000000000000000000, 0.000000000000000000 ) ) ;
#414 = APPLICATION_CONTEXT ( 'automotive_design' ) ;
#415 = PRODUCT_DEFINITION_SHAPE ( 'NONE', 'NONE',  #740 ) ;
#416 = PROPERTY_DEFINITION_REPRESENTATION ( #78, #427 ) ;
#417 = PRODUCT_DEFINITION ( 'General', '', #115, #462 ) ;
#418 = AXIS2_PLACEMENT_3D ( 'NONE', #639, #146, #364 ) ;
#419 = DOCUMENT_FILE ( 'Board~8fiY.step.STEP' , '', '', #672, '' ,$ ) ;
#420 =( GEOMETRIC_REPRESENTATION_CONTEXT ( 3 ) GLOBAL_UNCERTAINTY_ASSIGNED_CONTEXT ( ( #450 ) ) GLOBAL_UNIT_ASSIGNED_CONTEXT ( ( #139, #336, #95 ) ) REPRESENTATION_CONTEXT ( 'NONE', 'WORKASPACE' ) );
#421 = PRODUCT ( 'C5~R0402~C0402_L1.0-W0.5-H0.5~8fiY.step', 'C5~R0402~C0402_L1.0-W0.5-H0.5~8fiY.step', '', ( #526 ) ) ;
#422 = CONTEXT_DEPENDENT_SHAPE_REPRESENTATION ( #700, #415 ) ;
#423 = PRODUCT_DEFINITION ( 'General', '', #574, #609 ) ;
#424 = PROPERTY_DEFINITION_REPRESENTATION ( #513, #645 ) ;
#425 = PRODUCT_DEFINITION_SHAPE ( 'NONE', 'NONE',  #739 ) ;
#426 = APPLICATION_CONTEXT ( 'automotive_design' ) ;
#427 = SHAPE_REPRESENTATION ( 'U2~SOT-23-5_L2.9-W1.6-P0.95-LS2.8-BL~SOT-23-5_L2.9-W1.6-P0.95-LS2.8-BL~8fiY.step', ( #375 ), #320 ) ;
#428 = UNCERTAINTY_MEASURE_WITH_UNIT (LENGTH_MEASURE( 1.000000000000000082E-05 ), #625, 'distance_accuracy_value', 'NONE');
#429 =( GEOMETRIC_REPRESENTATION_CONTEXT ( 3 ) GLOBAL_UNCERTAINTY_ASSIGNED_CONTEXT ( ( #668 ) ) GLOBAL_UNIT_ASSIGNED_CONTEXT ( ( #594, #397, #637 ) ) REPRESENTATION_CONTEXT ( 'NONE', 'WORKASPACE' ) );
#430 = AXIS2_PLACEMENT_3D ( 'NONE', #54, #579, #274 ) ;
#431 = PROPERTY_DEFINITION ('external definition','', #678 ) ;
#432 = CONTEXT_DEPENDENT_SHAPE_REPRESENTATION ( #445, #327 ) ;
#433 = DIRECTION ( 'NONE',  ( 0.000000000000000000, 0.000000000000000000, 1.000000000000000000 ) ) ;
#434 = PRODUCT_DEFINITION_CONTEXT ( 'detailed design', #120, 'design' ) ;
#435 = APPLICATION_CONTEXT ( 'automotive_design' ) ;
#436 = EXTERNAL_SOURCE (IDENTIFIER('') ) ;
#437 = PROPERTY_DEFINITION ('external definition','', #497 ) ;
#438 =( LENGTH_UNIT ( ) NAMED_UNIT ( * ) SI_UNIT ( .MILLI., .METRE. ) );
#439 = APPLIED_DOCUMENT_REFERENCE ( #265,'',( #463) ) ;
#440 = PRODUCT_DEFINITION_SHAPE ( 'NONE', 'NONE',  #752 ) ;
#441 = OBJECT_ROLE ('mandatory',$ ) ;
#442 = APPLIED_DOCUMENT_REFERENCE ( #678,'',( #535) ) ;
#443 = PRODUCT_DEFINITION_SHAPE ( 'NONE', 'NONE',  #753 ) ;
#444 = APPLICATION_PROTOCOL_DEFINITION ( 'draft international standard', 'automotive_design', 1998, #44 ) ;
#445 =( REPRESENTATION_RELATIONSHIP ('NONE','NONE', #61, #200 ) REPRESENTATION_RELATIONSHIP_WITH_TRANSFORMATION ( #205 )SHAPE_REPRESENTATION_RELATIONSHIP( ) );
#446 = DIRECTION ( 'NONE',  ( 0.000000000000000000, 0.000000000000000000, 1.000000000000000000 ) ) ;
#447 = PROPERTY_DEFINITION_REPRESENTATION ( #22, #172 ) ;
#448 = PRODUCT_CONTEXT ( 'NONE', #504, 'mechanical' ) ;
#449 = DIRECTION ( 'NONE',  ( 0.000000000000000000, 0.000000000000000000, 1.000000000000000000 ) ) ;
#450 = UNCERTAINTY_MEASURE_WITH_UNIT (LENGTH_MEASURE( 1.000000000000000082E-05 ), #139, 'distance_accuracy_value', 'NONE');
#451 = CARTESIAN_POINT ( 'NONE',  ( 0.000000000000000000, 0.000000000000000000, 0.000000000000000000 ) ) ;
#452 = PRODUCT ( 'Board~8fiY.step', 'Board~8fiY.step', '', ( #190 ) ) ;
#453 = PRODUCT_CONTEXT ( 'NONE', #187, 'mechanical' ) ;
#454 = APPLIED_EXTERNAL_IDENTIFICATION_ASSIGNMENT ( 'R2~R0402~R0402_L1.0-W0.5-H0.4~8fiY.step.STEP' , #80, #292,( #500) ) ;
#455 = CARTESIAN_POINT ( 'NONE',  ( 0.000000000000000000, 0.000000000000000000, 0.000000000000000000 ) ) ;
#456 = AXIS2_PLACEMENT_3D ( 'NONE', #725, #503, #291 ) ;
#457 =( GEOMETRIC_REPRESENTATION_CONTEXT ( 3 ) GLOBAL_UNCERTAINTY_ASSIGNED_CONTEXT ( ( #208 ) ) GLOBAL_UNIT_ASSIGNED_CONTEXT ( ( #68, #470, #59 ) ) REPRESENTATION_CONTEXT ( 'NONE', 'WORKASPACE' ) );
#458 = DIRECTION ( 'NONE',  ( 0.000000000000000000, 0.000000000000000000, 1.000000000000000000 ) ) ;
#459 = PRODUCT_RELATED_PRODUCT_CATEGORY ( 'part', '', ( #534 ) ) ;
#460 = PRODUCT_CONTEXT ( 'NONE', #684, 'mechanical' ) ;
#461 = DIRECTION ( 'NONE',  ( 2.077461250111562526E-48, 0.000000000000000000, 1.000000000000000444 ) ) ;
#462 = PRODUCT_DEFINITION_CONTEXT ( 'detailed design', #60, 'design' ) ;
#463 = PRODUCT_DEFINITION ( 'General', '', #150, #145 ) ;
#464 = DIRECTION ( 'NONE',  ( 1.000000000000000000, 0.000000000000000000, 0.000000000000000000 ) ) ;
#465 = CONTEXT_DEPENDENT_SHAPE_REPRESENTATION ( #344, #733 ) ;
#466 = APPLICATION_PROTOCOL_DEFINITION ( 'draft international standard', 'automotive_design', 1998, #606 ) ;
#467 = DIRECTION ( 'NONE',  ( 1.000000000000000000, 0.000000000000000000, 2.077461250111562526E-48 ) ) ;
#468 =( REPRESENTATION_RELATIONSHIP ('NONE','NONE', #61, #172 ) REPRESENTATION_RELATIONSHIP_WITH_TRANSFORMATION ( #552 )SHAPE_REPRESENTATION_RELATIONSHIP( ) );
#469 = APPLICATION_PROTOCOL_DEFINITION ( 'draft international standard', 'automotive_design', 1998, #620 ) ;
#470 =( NAMED_UNIT ( * ) PLANE_ANGLE_UNIT ( ) SI_UNIT ( $, .RADIAN. ) );
#471 = EXTERNAL_SOURCE (IDENTIFIER('') ) ;
#472 = AXIS2_PLACEMENT_3D ( 'NONE', #108, #458, #72 ) ;
#473 = CONTEXT_DEPENDENT_SHAPE_REPRESENTATION ( #232, #709 ) ;
#474 = PRODUCT_DEFINITION_SHAPE ( 'NONE', 'NONE',  #268 ) ;
#475 = CARTESIAN_POINT ( 'NONE',  ( 0.000000000000000000, 0.000000000000000000, 0.000000000000000000 ) ) ;
#476 = PRODUCT_RELATED_PRODUCT_CATEGORY ( 'part', '', ( #283 ) ) ;
#477 = PRODUCT_RELATED_PRODUCT_CATEGORY ( 'part', '', ( #399 ) ) ;
#478 = PRODUCT_DEFINITION_SHAPE ( 'NONE', 'NONE',  #157 ) ;
#479 = APPLICATION_CONTEXT ( 'automotive_design' ) ;
#480 = APPLICATION_PROTOCOL_DEFINITION ( 'draft international standard', 'automotive_design', 1998, #318 ) ;
#481 = APPLIED_EXTERNAL_IDENTIFICATION_ASSIGNMENT ( 'C2~R0402~C0402_L1.0-W0.5-H0.5~8fiY.step.STEP' , #522, #486,( #90) ) ;
#482 = PRODUCT_DEFINITION_SHAPE ( 'NONE', 'NONE',  #643 ) ;
#483 =( REPRESENTATION_RELATIONSHIP ('NONE','NONE', #61, #32 ) REPRESENTATION_RELATIONSHIP_WITH_TRANSFORMATION ( #8 )SHAPE_REPRESENTATION_RELATIONSHIP( ) );
#484 = DOCUMENT_FILE ( 'C6~R0402~C0402_L1.0-W0.5-H0.5~8fiY.step.STEP' , '', '', #379, '' ,$ ) ;
#485 = DIRECTION ( 'NONE',  ( 0.000000000000000000, 0.000000000000000000, 1.000000000000000000 ) ) ;
#486 = EXTERNAL_SOURCE (IDENTIFIER('') ) ;
#487 = ROLE_ASSOCIATION ( #647, #143 ) ;
#488 = PRODUCT_DEFINITION_SHAPE ( 'NONE', 'NONE',  #356 ) ;
#489 = APPLICATION_CONTEXT ( 'automotive_design' ) ;
#490 = PROPERTY_DEFINITION_REPRESENTATION ( #113, #581 ) ;
#491 =( GEOMETRIC_REPRESENTATION_CONTEXT ( 3 ) GLOBAL_UNCERTAINTY_ASSIGNED_CONTEXT ( ( #106 ) ) GLOBAL_UNIT_ASSIGNED_CONTEXT ( ( #633, #524, #384 ) ) REPRESENTATION_CONTEXT ( 'NONE', 'WORKASPACE' ) );
#492 = PRODUCT_RELATED_PRODUCT_CATEGORY ( 'part', '', ( #175 ) ) ;
#493 =( NAMED_UNIT ( * ) PLANE_ANGLE_UNIT ( ) SI_UNIT ( $, .RADIAN. ) );
#494 = DOCUMENT_FILE ( 'U1~LGA-38_L11.0-W10.0-P1.00-TL~LGA-38_L11.0-W10.0-P1.00-TL~8fiY.step.STEP' , '', '', #714, '' ,$ ) ;
#495 = DIRECTION ( 'NONE',  ( 1.000000000000000000, 0.000000000000000000, 0.000000000000000000 ) ) ;
#496 = PRODUCT_DEFINITION_CONTEXT ( 'detailed design', #114, 'design' ) ;
#497 = DOCUMENT_FILE ( 'RF1~SMA-SMD_BWSMA-KE-P001~SMA-TH_5P-L6.5-W6.5-H9.5_BWSMA-KE-P001~8fiY.step.STEP' , '', '', #2, '' ,$ ) ;
#498 = EXTERNAL_SOURCE (IDENTIFIER('') ) ;
#499 =( NAMED_UNIT ( * ) PLANE_ANGLE_UNIT ( ) SI_UNIT ( $, .RADIAN. ) );
#500 = DOCUMENT_FILE ( 'R2~R0402~R0402_L1.0-W0.5-H0.4~8fiY.step.STEP' , '', '', #233, '' ,$ ) ;
#501 = UNCERTAINTY_MEASURE_WITH_UNIT (LENGTH_MEASURE( 1.000000000000000082E-05 ), #438, 'distance_accuracy_value', 'NONE');
#502 = AXIS2_PLACEMENT_3D ( 'NONE', #396, #461, #719 ) ;
#503 = DIRECTION ( 'NONE',  ( 0.000000000000000000, 0.000000000000000000, 1.000000000000000000 ) ) ;
#504 = APPLICATION_CONTEXT ( 'automotive_design' ) ;
#505 = SHAPE_REPRESENTATION ( 'C7~R0402~C0402_L1.0-W0.5-H0.5~8fiY.step', ( #260 ), #51 ) ;
#506 = CONTEXT_DEPENDENT_SHAPE_REPRESENTATION ( #468, #388 ) ;
#507 = PROPERTY_DEFINITION ('external definition','', #265 ) ;
#508 = PRODUCT_DEFINITION_SHAPE ( 'NONE', 'NONE',  #417 ) ;
#509 = APPLICATION_PROTOCOL_DEFINITION ( 'draft international standard', 'automotive_design', 1998, #504 ) ;
#510 = CARTESIAN_POINT ( 'NONE',  ( 0.000000000000000000, 10.16002032004100464, 1.600050800102000625 ) ) ;
#511 = APPLICATION_PROTOCOL_DEFINITION ( 'draft international standard', 'automotive_design', 1998, #85 ) ;
#512 = DIRECTION ( 'NONE',  ( 0.000000000000000000, 0.000000000000000000, 1.000000000000000000 ) ) ;
#513 = PROPERTY_DEFINITION ('external definition','', #546 ) ;
#514 = CONTEXT_DEPENDENT_SHAPE_REPRESENTATION ( #357, #440 ) ;
#515 = APPLICATION_PROTOCOL_DEFINITION ( 'draft international standard', 'automotive_design', 1998, #435 ) ;
#516 = DIRECTION ( 'NONE',  ( -1.000000000000000000, 0.000000000000000000, -2.077461250111562526E-48 ) ) ;
#517 = APPLICATION_CONTEXT ( 'automotive_design' ) ;
#518 = APPLIED_EXTERNAL_IDENTIFICATION_ASSIGNMENT ( 'USB1~USB-C-SMD_TYPE-C-6PIN-2MD-073~USB-C-SMD_TYPEC-304YDSW-ACP16~8fiY.step.STEP' , #411, #698,( #160) ) ;
#519 = ROLE_ASSOCIATION ( #306, #556 ) ;
#520 = APPLICATION_PROTOCOL_DEFINITION ( 'draft international standard', 'automotive_design', 1998, #720 ) ;
#521 = CARTESIAN_POINT ( 'NONE',  ( -1.524003048005997840, -8.636017272035003245, 1.600050800102000625 ) ) ;
#522 = IDENTIFICATION_ROLE ( 'external document id and location', $) ;
#523 = PROPERTY_DEFINITION_REPRESENTATION ( #219, #244 ) ;
#524 =( NAMED_UNIT ( * ) PLANE_ANGLE_UNIT ( ) SI_UNIT ( $, .RADIAN. ) );
#525 = OBJECT_ROLE ('mandatory',$ ) ;
#526 = PRODUCT_CONTEXT ( 'NONE', #620, 'mechanical' ) ;
#527 =( NAMED_UNIT ( * ) SI_UNIT ( $, .STERADIAN. ) SOLID_ANGLE_UNIT ( ) );
#528 = PRODUCT_RELATED_PRODUCT_CATEGORY ( 'part', '', ( #136 ) ) ;
#529 = AXIS2_PLACEMENT_3D ( 'NONE', #455, #589, #303 ) ;
#530 =( GEOMETRIC_REPRESENTATION_CONTEXT ( 3 ) GLOBAL_UNCERTAINTY_ASSIGNED_CONTEXT ( ( #385 ) ) GLOBAL_UNIT_ASSIGNED_CONTEXT ( ( #13, #640, #296 ) ) REPRESENTATION_CONTEXT ( 'NONE', 'WORKASPACE' ) );
#531 = PROPERTY_DEFINITION_REPRESENTATION ( #144, #427 ) ;
#532 = PRODUCT_DEFINITION_SHAPE ( 'NONE', 'NONE',  #258 ) ;
#533 = EXTERNAL_SOURCE (IDENTIFIER('') ) ;
#534 = PRODUCT ( 'R3~R0402~R0402_L1.0-W0.5-H0.4~8fiY.step', 'R3~R0402~R0402_L1.0-W0.5-H0.4~8fiY.step', '', ( #294 ) ) ;
#535 = PRODUCT_DEFINITION ( 'General', '', #660, #553 ) ;
#536 = DOCUMENT_FILE ( 'C1~R0402~C0402_L1.0-W0.5-H0.5~8fiY.step.STEP' , '', '', #216, '' ,$ ) ;
#537 = PRODUCT_RELATED_PRODUCT_CATEGORY ( 'part', '', ( #389 ) ) ;
#538 = OBJECT_ROLE ('mandatory',$ ) ;
#539 = PRODUCT_DEFINITION_FORMATION_WITH_SPECIFIED_SOURCE ( 'Symmetric', '', #452, .NOT_KNOWN. ) ;
#540 = APPLIED_DOCUMENT_REFERENCE ( #494,'',( #157) ) ;
#541 = AXIS2_PLACEMENT_3D ( 'NONE', #510, #1, #401 ) ;
#542 = CARTESIAN_POINT ( 'NONE',  ( 0.000000000000000000, 0.000000000000000000, 0.000000000000000000 ) ) ;
#543 = CARTESIAN_POINT ( 'NONE',  ( 0.000000000000000000, 0.000000000000000000, 0.000000000000000000 ) ) ;
#544 = PROPERTY_DEFINITION_REPRESENTATION ( #147, #32 ) ;
#545 = DIRECTION ( 'NONE',  ( 0.000000000000000000, 0.000000000000000000, 1.000000000000000000 ) ) ;
#546 = DOCUMENT_FILE ( 'C8~R0402~C0402_L1.0-W0.5-H0.5~8fiY.step.STEP' , '', '', #312, '' ,$ ) ;
#547 = PRODUCT_DEFINITION_SHAPE ( 'NONE', 'NONE',  #745 ) ;
#548 = PRODUCT_DEFINITION ( 'General', '', #575, #334 ) ;
#549 = APPLIED_DOCUMENT_REFERENCE ( #484,'',( #234) ) ;
#550 = PRODUCT_DEFINITION_FORMATION_WITH_SPECIFIED_SOURCE ( 'Symmetric', '', #350, .NOT_KNOWN. ) ;
#551 = APPLICATION_CONTEXT ( 'automotive_design' ) ;
#552 = ITEM_DEFINED_TRANSFORMATION ( 'NONE', 'NONE', #599,  #153 ) ;
#553 = PRODUCT_DEFINITION_CONTEXT ( 'detailed design', #606, 'design' ) ;
#554 = PROPERTY_DEFINITION_REPRESENTATION ( #316, #734 ) ;
#555 = PROPERTY_DEFINITION ('document property','', #394 ) ;
#556 = APPLIED_DOCUMENT_REFERENCE ( #500,'',( #186) ) ;
#557 = EXTERNAL_SOURCE (IDENTIFIER('') ) ;
#558 = SHAPE_DEFINITION_REPRESENTATION ( #192, #172 ) ;
#559 = DIRECTION ( 'NONE',  ( 1.000000000000000000, 0.000000000000000000, 2.077461250111562526E-48 ) ) ;
#560 = AXIS2_PLACEMENT_3D ( 'NONE', #382, #485, #248 ) ;
#561 = PRODUCT_DEFINITION_CONTEXT ( 'detailed design', #44, 'design' ) ;
#562 = ROLE_ASSOCIATION ( #149, #442 ) ;
#563 = PROPERTY_DEFINITION ('document property','', #484 ) ;
#564 = PRODUCT ( 'C3~R0402~C0402_L1.0-W0.5-H0.5~8fiY.step', 'C3~R0402~C0402_L1.0-W0.5-H0.5~8fiY.step', '', ( #330 ) ) ;
#565 = APPLICATION_PROTOCOL_DEFINITION ( 'draft international standard', 'automotive_design', 1998, #282 ) ;
#566 = DIRECTION ( 'NONE',  ( 2.077461250111562526E-48, 0.000000000000000000, 1.000000000000000444 ) ) ;
#567 = OBJECT_ROLE ('mandatory',$ ) ;
#568 = DOCUMENT_FILE ( 'C3~R0402~C0402_L1.0-W0.5-H0.5~8fiY.step.STEP' , '', '', #38, '' ,$ ) ;
#569 = SHAPE_DEFINITION_REPRESENTATION ( #478, #200 ) ;
#570 = DIRECTION ( 'NONE',  ( 1.000000000000000000, 0.000000000000000000, 0.000000000000000000 ) ) ;
#571 =( NAMED_UNIT ( * ) PLANE_ANGLE_UNIT ( ) SI_UNIT ( $, .RADIAN. ) );
#572 = APPLIED_DOCUMENT_REFERENCE ( #568,'',( #548) ) ;
#573 = DIRECTION ( 'NONE',  ( 0.000000000000000000, -1.000000000000000444, 0.000000000000000000 ) ) ;
#574 = PRODUCT_DEFINITION_FORMATION_WITH_SPECIFIED_SOURCE ( 'Symmetric', '', #653, .NOT_KNOWN. ) ;
#575 = PRODUCT_DEFINITION_FORMATION_WITH_SPECIFIED_SOURCE ( 'Symmetric', '', #564, .NOT_KNOWN. ) ;
#576 = APPLIED_EXTERNAL_IDENTIFICATION_ASSIGNMENT ( 'D1~SC-70-3_L2.0-W1.3-P0.65-LS2.1-BL~SC-70-3_L2.0-W1.3-P0.65-LS2.1-BL~8fiY.step.STEP' , #362, #267,( #373) ) ;
#577 = IDENTIFICATION_ROLE ( 'external document id and location', $) ;
#578 = PRODUCT_CONTEXT ( 'NONE', #333, 'mechanical' ) ;
#579 = DIRECTION ( 'NONE',  ( 2.077461250111562526E-48, 0.000000000000000000, 1.000000000000000444 ) ) ;
#580 = PROPERTY_DEFINITION_REPRESENTATION ( #103, #178 ) ;
#581 = SHAPE_REPRESENTATION ( 'D1~SC-70-3_L2.0-W1.3-P0.65-LS2.1-BL~SC-70-3_L2.0-W1.3-P0.65-LS2.1-BL~8fiY.step', ( #118 ), #24 ) ;
#582 = PRODUCT_DEFINITION_SHAPE ( 'NONE', 'NONE',  #463 ) ;
#583 =( LENGTH_UNIT ( ) NAMED_UNIT ( * ) SI_UNIT ( .MILLI., .METRE. ) );
#584 = CONTEXT_DEPENDENT_SHAPE_REPRESENTATION ( #271, #425 ) ;
#585 =( NAMED_UNIT ( * ) SI_UNIT ( $, .STERADIAN. ) SOLID_ANGLE_UNIT ( ) );
#586 = AXIS2_PLACEMENT_3D ( 'NONE', #102, #165, #225 ) ;
#587 = APPLIED_EXTERNAL_IDENTIFICATION_ASSIGNMENT ( 'C3~R0402~C0402_L1.0-W0.5-H0.5~8fiY.step.STEP' , #577, #359,( #568) ) ;
#588 = ITEM_DEFINED_TRANSFORMATION ( 'NONE', 'NONE', #707,  #375 ) ;
#589 = DIRECTION ( 'NONE',  ( 0.000000000000000000, 0.000000000000000000, 1.000000000000000000 ) ) ;
#590 = PRODUCT_RELATED_PRODUCT_CATEGORY ( 'part', '', ( #66 ) ) ;
#591 = IDENTIFICATION_ROLE ( 'external document id and location', $) ;
#592 = PRODUCT_RELATED_PRODUCT_CATEGORY ( 'part', '', ( #682 ) ) ;
#593 = SHAPE_DEFINITION_REPRESENTATION ( #365, #244 ) ;
#594 =( LENGTH_UNIT ( ) NAMED_UNIT ( * ) SI_UNIT ( .MILLI., .METRE. ) );
#595 = PROPERTY_DEFINITION ('document property','', #419 ) ;
#596 = DOCUMENT_FILE ( 'C7~R0402~C0402_L1.0-W0.5-H0.5~8fiY.step.STEP' , '', '', #125, '' ,$ ) ;
#597 =( REPRESENTATION_RELATIONSHIP ('NONE','NONE', #61, #351 ) REPRESENTATION_RELATIONSHIP_WITH_TRANSFORMATION ( #255 )SHAPE_REPRESENTATION_RELATIONSHIP( ) );
#598 = PROPERTY_DEFINITION_REPRESENTATION ( #280, #712 ) ;
#599 = AXIS2_PLACEMENT_3D ( 'NONE', #105, #692, #573 ) ;
#600 = PRODUCT_DEFINITION_SHAPE ( 'NONE', 'NONE',  #638 ) ;
#601 = IDENTIFICATION_ROLE ( 'external document id and location', $) ;
#602 = UNCERTAINTY_MEASURE_WITH_UNIT (LENGTH_MEASURE( 1.000000000000000082E-05 ), #624, 'distance_accuracy_value', 'NONE');
#603 = CONTEXT_DEPENDENT_SHAPE_REPRESENTATION ( #409, #212 ) ;
#604 = DIRECTION ( 'NONE',  ( 1.000000000000000000, 0.000000000000000000, 2.077461250111562526E-48 ) ) ;
#605 = PRODUCT_RELATED_PRODUCT_CATEGORY ( 'part', '', ( #239 ) ) ;
#606 = APPLICATION_CONTEXT ( 'automotive_design' ) ;
#607 = SHAPE_REPRESENTATION ( 'R3~R0402~R0402_L1.0-W0.5-H0.4~8fiY.step', ( #300 ), #457 ) ;
#608 = CONTEXT_DEPENDENT_SHAPE_REPRESENTATION ( #181, #547 ) ;
#609 = PRODUCT_DEFINITION_CONTEXT ( 'detailed design', #705, 'design' ) ;
#610 = PROPERTY_DEFINITION_REPRESENTATION ( #163, #200 ) ;
#611 = PRODUCT_DEFINITION_FORMATION_WITH_SPECIFIED_SOURCE ( 'Symmetric', '', #175, .NOT_KNOWN. ) ;
#612 = CARTESIAN_POINT ( 'NONE',  ( 0.000000000000000000, 0.000000000000000000, 0.000000000000000000 ) ) ;
#613 = PROPERTY_DEFINITION ('document property','', #546 ) ;
#614 = CONTEXT_DEPENDENT_SHAPE_REPRESENTATION ( #227, #270 ) ;
#615 = OBJECT_ROLE ('mandatory',$ ) ;
#616 = PRODUCT_DEFINITION_CONTEXT ( 'detailed design', #31, 'design' ) ;
#617 = ITEM_DEFINED_TRANSFORMATION ( 'NONE', 'NONE', #688,  #529 ) ;
#618 = DIRECTION ( 'NONE',  ( 1.000000000000000000, 0.000000000000000000, 0.000000000000000000 ) ) ;
#619 = DIRECTION ( 'NONE',  ( 1.000000000000000000, 0.000000000000000000, 2.077461250111562526E-48 ) ) ;
#620 = APPLICATION_CONTEXT ( 'automotive_design' ) ;
#621 = APPLICATION_PROTOCOL_DEFINITION ( 'draft international standard', 'automotive_design', 1998, #131 ) ;
#622 = DIRECTION ( 'NONE',  ( -1.000000000000000000, 0.000000000000000000, -2.077461250111562526E-48 ) ) ;
#623 = DIRECTION ( 'NONE',  ( 1.000000000000000000, 0.000000000000000000, 0.000000000000000000 ) ) ;
#624 =( LENGTH_UNIT ( ) NAMED_UNIT ( * ) SI_UNIT ( .MILLI., .METRE. ) );
#625 =( LENGTH_UNIT ( ) NAMED_UNIT ( * ) SI_UNIT ( .MILLI., .METRE. ) );
#626 = PRODUCT_DEFINITION_SHAPE ( 'NONE', 'NONE',  #127 ) ;
#627 = APPLICATION_PROTOCOL_DEFINITION ( 'draft international standard', 'automotive_design', 1998, #367 ) ;
#628 = CARTESIAN_POINT ( 'NONE',  ( 0.000000000000000000, 0.000000000000000000, 1.600050800102000625 ) ) ;
#629 =( NAMED_UNIT ( * ) SI_UNIT ( $, .STERADIAN. ) SOLID_ANGLE_UNIT ( ) );
#630 = APPLIED_DOCUMENT_REFERENCE ( #394,'',( #643) ) ;
#631 = APPLICATION_CONTEXT ( 'automotive_design' ) ;
#632 = APPLICATION_PROTOCOL_DEFINITION ( 'draft international standard', 'automotive_design', 1998, #684 ) ;
#633 =( LENGTH_UNIT ( ) NAMED_UNIT ( * ) SI_UNIT ( .MILLI., .METRE. ) );
#634 =( NAMED_UNIT ( * ) SI_UNIT ( $, .STERADIAN. ) SOLID_ANGLE_UNIT ( ) );
#635 = APPLICATION_PROTOCOL_DEFINITION ( 'draft international standard', 'automotive_design', 1998, #206 ) ;
#636 = DIRECTION ( 'NONE',  ( 2.077461250111562526E-48, 0.000000000000000000, 1.000000000000000444 ) ) ;
#637 =( NAMED_UNIT ( * ) SI_UNIT ( $, .STERADIAN. ) SOLID_ANGLE_UNIT ( ) );
#638 = PRODUCT_DEFINITION ( 'General', '', #5, #561 ) ;
#639 = CARTESIAN_POINT ( 'NONE',  ( 0.000000000000000000, 0.000000000000000000, 0.000000000000000000 ) ) ;
#640 =( NAMED_UNIT ( * ) PLANE_ANGLE_UNIT ( ) SI_UNIT ( $, .RADIAN. ) );
#641 = DOCUMENT_TYPE ( 'geometry' ) ;
#642 = AXIS2_PLACEMENT_3D ( 'NONE', #79, #446, #623 ) ;
#643 = PRODUCT_DEFINITION ( 'General', '', #89, #369 ) ;
#644 = PROPERTY_DEFINITION_REPRESENTATION ( #354, #217 ) ;
#645 = SHAPE_REPRESENTATION ( 'C8~R0402~C0402_L1.0-W0.5-H0.5~8fiY.step', ( #35 ), #406 ) ;
#646 = DIRECTION ( 'NONE',  ( 0.000000000000000000, 0.000000000000000000, 1.000000000000000000 ) ) ;
#647 = OBJECT_ROLE ('mandatory',$ ) ;
#648 = PRODUCT_DEFINITION_SHAPE ( 'NONE', 'NONE',  #392 ) ;
#649 =( REPRESENTATION_RELATIONSHIP ('NONE','NONE', #61, #217 ) REPRESENTATION_RELATIONSHIP_WITH_TRANSFORMATION ( #182 )SHAPE_REPRESENTATION_RELATIONSHIP( ) );
#650 = DOCUMENT_FILE ( 'U2~SOT-23-5_L2.9-W1.6-P0.95-LS2.8-BL~SOT-23-5_L2.9-W1.6-P0.95-LS2.8-BL~8fiY.step.STEP' , '', '', #55, '' ,$ ) ;
#651 = PRODUCT_DEFINITION_FORMATION_WITH_SPECIFIED_SOURCE ( 'Symmetric', '', #66, .NOT_KNOWN. ) ;
#652 = APPLIED_DOCUMENT_REFERENCE ( #419,'',( #697) ) ;
#653 = PRODUCT ( 'C7~R0402~C0402_L1.0-W0.5-H0.5~8fiY.step', 'C7~R0402~C0402_L1.0-W0.5-H0.5~8fiY.step', '', ( #304 ) ) ;
#654 = DOCUMENT_TYPE ( 'geometry' ) ;
#655 = PRODUCT_CONTEXT ( 'NONE', #426, 'mechanical' ) ;
#656 = PROPERTY_DEFINITION_REPRESENTATION ( #613, #645 ) ;
#657 = IDENTIFICATION_ROLE ( 'external document id and location', $) ;
#658 = SHAPE_REPRESENTATION ( 'USB1~USB-C-SMD_TYPE-C-6PIN-2MD-073~USB-C-SMD_TYPEC-304YDSW-ACP16~8fiY.step', ( #716 ), #491 ) ;
#659 =( GEOMETRIC_REPRESENTATION_CONTEXT ( 3 ) GLOBAL_UNCERTAINTY_ASSIGNED_CONTEXT ( ( #428 ) ) GLOBAL_UNIT_ASSIGNED_CONTEXT ( ( #625, #15, #721 ) ) REPRESENTATION_CONTEXT ( 'NONE', 'WORKASPACE' ) );
#660 = PRODUCT_DEFINITION_FORMATION_WITH_SPECIFIED_SOURCE ( 'Symmetric', '', #534, .NOT_KNOWN. ) ;
#661 = PRODUCT_RELATED_PRODUCT_CATEGORY ( 'part', '', ( #189 ) ) ;
#662 = PROPERTY_DEFINITION ('document property','', #160 ) ;
#663 = UNCERTAINTY_MEASURE_WITH_UNIT (LENGTH_MEASURE( 1.000000000000000082E-05 ), #151, 'distance_accuracy_value', 'NONE');
#664 = DIRECTION ( 'NONE',  ( 0.000000000000000000, 0.000000000000000000, 1.000000000000000000 ) ) ;
#665 = ROLE_ASSOCIATION ( #710, #549 ) ;
#666 =( LENGTH_UNIT ( ) NAMED_UNIT ( * ) SI_UNIT ( .MILLI., .METRE. ) );
#667 = PROPERTY_DEFINITION_REPRESENTATION ( #437, #712 ) ;
#668 = UNCERTAINTY_MEASURE_WITH_UNIT (LENGTH_MEASURE( 1.000000000000000082E-05 ), #594, 'distance_accuracy_value', 'NONE');
#669 = APPLIED_EXTERNAL_IDENTIFICATION_ASSIGNMENT ( 'U2~SOT-23-5_L2.9-W1.6-P0.95-LS2.8-BL~SOT-23-5_L2.9-W1.6-P0.95-LS2.8-BL~8fiY.step.STEP' , #729, #557,( #650) ) ;
#670 =( GEOMETRIC_REPRESENTATION_CONTEXT ( 3 ) GLOBAL_UNCERTAINTY_ASSIGNED_CONTEXT ( ( #269 ) ) GLOBAL_UNIT_ASSIGNED_CONTEXT ( ( #57, #715, #386 ) ) REPRESENTATION_CONTEXT ( 'NONE', 'WORKASPACE' ) );
#671 = APPLIED_EXTERNAL_IDENTIFICATION_ASSIGNMENT ( 'R3~R0402~R0402_L1.0-W0.5-H0.4~8fiY.step.STEP' , #253, #349,( #678) ) ;
#672 = DOCUMENT_TYPE ( 'geometry' ) ;
#673 = PRODUCT_DEFINITION_SHAPE ( 'NONE', 'NONE',  #750 ) ;
#674 = OBJECT_ROLE ('mandatory',$ ) ;
#675 = ITEM_DEFINED_TRANSFORMATION ( 'NONE', 'NONE', #272,  #716 ) ;
#676 = APPLICATION_PROTOCOL_DEFINITION ( 'draft international standard', 'automotive_design', 1998, #333 ) ;
#677 = OBJECT_ROLE ('mandatory',$ ) ;
#678 = DOCUMENT_FILE ( 'R3~R0402~R0402_L1.0-W0.5-H0.4~8fiY.step.STEP' , '', '', #328, '' ,$ ) ;
#679 = CARTESIAN_POINT ( 'NONE',  ( 0.000000000000000000, 0.000000000000000000, 0.000000000000000000 ) ) ;
#680 = APPLICATION_PROTOCOL_DEFINITION ( 'draft international standard', 'automotive_design', 1998, #171 ) ;
#681 = CARTESIAN_POINT ( 'NONE',  ( 2.794005588011003294, -6.096012192024002019, 1.600050800102000625 ) ) ;
#682 = PRODUCT ( 'C6~R0402~C0402_L1.0-W0.5-H0.5~8fiY.step', 'C6~R0402~C0402_L1.0-W0.5-H0.5~8fiY.step', '', ( #735 ) ) ;
#683 = DIRECTION ( 'NONE',  ( 0.000000000000000000, 0.000000000000000000, 1.000000000000000000 ) ) ;
#684 = APPLICATION_CONTEXT ( 'automotive_design' ) ;
#685 = APPLICATION_PROTOCOL_DEFINITION ( 'draft international standard', 'automotive_design', 1998, #414 ) ;
#686 = DIRECTION ( 'NONE',  ( 2.077461250111562526E-48, 0.000000000000000000, 1.000000000000000444 ) ) ;
#687 =( GEOMETRIC_REPRESENTATION_CONTEXT ( 3 ) GLOBAL_UNCERTAINTY_ASSIGNED_CONTEXT ( ( #25 ) ) GLOBAL_UNIT_ASSIGNED_CONTEXT ( ( #387, #571, #98 ) ) REPRESENTATION_CONTEXT ( 'NONE', 'WORKASPACE' ) );
#688 = AXIS2_PLACEMENT_3D ( 'NONE', #177, #50, #290 ) ;
#689 = UNCERTAINTY_MEASURE_WITH_UNIT (LENGTH_MEASURE( 1.000000000000000082E-05 ), #218, 'distance_accuracy_value', 'NONE');
#690 = APPLIED_EXTERNAL_IDENTIFICATION_ASSIGNMENT ( 'RF1~SMA-SMD_BWSMA-KE-P001~SMA-TH_5P-L6.5-W6.5-H9.5_BWSMA-KE-P001~8fiY.step.STEP' , #75, #498,( #497) ) ;
#691 = SHAPE_DEFINITION_REPRESENTATION ( #47, #368 ) ;
#692 = DIRECTION ( 'NONE',  ( 2.077461250111562526E-48, 0.000000000000000000, 1.000000000000000444 ) ) ;
#693 =( NAMED_UNIT ( * ) SI_UNIT ( $, .STERADIAN. ) SOLID_ANGLE_UNIT ( ) );
#694 = PROPERTY_DEFINITION_REPRESENTATION ( #226, #607 ) ;
#695 = SHAPE_DEFINITION_REPRESENTATION ( #508, #124 ) ;
#696 = OBJECT_ROLE ('mandatory',$ ) ;
#697 = PRODUCT_DEFINITION ( 'General', '', #539, #496 ) ;
#698 = EXTERNAL_SOURCE (IDENTIFIER('') ) ;
#699 = ITEM_DEFINED_TRANSFORMATION ( 'NONE', 'NONE', #586,  #560 ) ;
#700 =( REPRESENTATION_RELATIONSHIP ('NONE','NONE', #61, #505 ) REPRESENTATION_RELATIONSHIP_WITH_TRANSFORMATION ( #235 )SHAPE_REPRESENTATION_RELATIONSHIP( ) );
#701 = PROPERTY_DEFINITION_REPRESENTATION ( #134, #505 ) ;
#702 = PRODUCT_DEFINITION_SHAPE ( 'NONE', 'NONE',  #738 ) ;
#703 =( REPRESENTATION_RELATIONSHIP ('NONE','NONE', #61, #658 ) REPRESENTATION_RELATIONSHIP_WITH_TRANSFORMATION ( #675 )SHAPE_REPRESENTATION_RELATIONSHIP( ) );
#704 = SHAPE_DEFINITION_REPRESENTATION ( #532, #178 ) ;
#705 = APPLICATION_CONTEXT ( 'automotive_design' ) ;
#706 = APPLIED_EXTERNAL_IDENTIFICATION_ASSIGNMENT ( 'C7~R0402~C0402_L1.0-W0.5-H0.5~8fiY.step.STEP' , #142, #347,( #596) ) ;
#707 = AXIS2_PLACEMENT_3D ( 'NONE', #229, #170, #559 ) ;
#708 = SHAPE_DEFINITION_REPRESENTATION ( #335, #505 ) ;
#709 = PRODUCT_DEFINITION_SHAPE ( 'NONE', 'NONE',  #737 ) ;
#710 = OBJECT_ROLE ('mandatory',$ ) ;
#711 = PRODUCT_DEFINITION_SHAPE ( 'NONE', 'NONE',  #742 ) ;
#712 = SHAPE_REPRESENTATION ( 'RF1~SMA-SMD_BWSMA-KE-P001~SMA-TH_5P-L6.5-W6.5-H9.5_BWSMA-KE-P001~8fiY.step', ( #132 ), #687 ) ;
#713 = ROLE_ASSOCIATION ( #677, #313 ) ;
#714 = DOCUMENT_TYPE ( 'geometry' ) ;
#715 =( NAMED_UNIT ( * ) PLANE_ANGLE_UNIT ( ) SI_UNIT ( $, .RADIAN. ) );
#716 = AXIS2_PLACEMENT_3D ( 'NONE', #475, #449, #570 ) ;
#717 = ITEM_DEFINED_TRANSFORMATION ( 'NONE', 'NONE', #183,  #456 ) ;
#718 = CARTESIAN_POINT ( 'NONE',  ( 0.000000000000000000, -15.62103124206000615, 1.600050800102000625 ) ) ;
#719 = DIRECTION ( 'NONE',  ( 1.000000000000000000, 0.000000000000000000, 2.077461250111562526E-48 ) ) ;
#720 = APPLICATION_CONTEXT ( 'automotive_design' ) ;
#721 =( NAMED_UNIT ( * ) SI_UNIT ( $, .STERADIAN. ) SOLID_ANGLE_UNIT ( ) );
#722 = PRODUCT_DEFINITION ( 'General', '', #651, #166 ) ;
#723 = PROPERTY_DEFINITION_REPRESENTATION ( #727, #351 ) ;
#724 = PRODUCT_RELATED_PRODUCT_CATEGORY ( 'part', '', ( #40 ) ) ;
#725 = CARTESIAN_POINT ( 'NONE',  ( 0.000000000000000000, 0.000000000000000000, 0.000000000000000000 ) ) ;
#726 = ITEM_DEFINED_TRANSFORMATION ( 'NONE', 'NONE', #541,  #132 ) ;
#727 = PROPERTY_DEFINITION ('external definition','', #484 ) ;
#728 = PRODUCT_DEFINITION_CONTEXT ( 'detailed design', #206, 'design' ) ;
#729 = IDENTIFICATION_ROLE ( 'external document id and location', $) ;
#730 = PROPERTY_DEFINITION_REPRESENTATION ( #431, #607 ) ;
#731 =( LENGTH_UNIT ( ) NAMED_UNIT ( * ) SI_UNIT ( .MILLI., .METRE. ) );
#732 = SHAPE_DEFINITION_REPRESENTATION ( #302, #351 ) ;
#733 = PRODUCT_DEFINITION_SHAPE ( 'NONE', 'NONE',  #751 ) ;
#734 = SHAPE_REPRESENTATION ( 'R1~R0402~R0402_L1.0-W0.5-H0.4~8fiY.step', ( #363 ), #407 ) ;
#735 = PRODUCT_CONTEXT ( 'NONE', #400, 'mechanical' ) ;
#736 = DOCUMENT_TYPE ( 'geometry' ) ;
#737 = NEXT_ASSEMBLY_USAGE_OCCURRENCE ( 'NAUO17', ' ', ' ', #722, #697, $ ) ;
#738 = NEXT_ASSEMBLY_USAGE_OCCURRENCE ( 'NAUO18', ' ', ' ', #722, #324, $ ) ;
#739 = NEXT_ASSEMBLY_USAGE_OCCURRENCE ( 'NAUO19', ' ', ' ', #722, #258, $ ) ;
#740 = NEXT_ASSEMBLY_USAGE_OCCURRENCE ( 'NAUO20', ' ', ' ', #722, #423, $ ) ;
#741 = NEXT_ASSEMBLY_USAGE_OCCURRENCE ( 'NAUO21', ' ', ' ', #722, #268, $ ) ;
#742 = NEXT_ASSEMBLY_USAGE_OCCURRENCE ( 'NAUO22', ' ', ' ', #722, #463, $ ) ;
#743 = NEXT_ASSEMBLY_USAGE_OCCURRENCE ( 'NAUO23', ' ', ' ', #722, #234, $ ) ;
#744 = NEXT_ASSEMBLY_USAGE_OCCURRENCE ( 'NAUO24', ' ', ' ', #722, #127, $ ) ;
#745 = NEXT_ASSEMBLY_USAGE_OCCURRENCE ( 'NAUO25', ' ', ' ', #722, #356, $ ) ;
#746 = NEXT_ASSEMBLY_USAGE_OCCURRENCE ( 'NAUO26', ' ', ' ', #722, #392, $ ) ;
#747 = NEXT_ASSEMBLY_USAGE_OCCURRENCE ( 'NAUO27', ' ', ' ', #722, #417, $ ) ;
#748 = NEXT_ASSEMBLY_USAGE_OCCURRENCE ( 'NAUO28', ' ', ' ', #722, #157, $ ) ;
#749 = NEXT_ASSEMBLY_USAGE_OCCURRENCE ( 'NAUO29', ' ', ' ', #722, #548, $ ) ;
#750 = NEXT_ASSEMBLY_USAGE_OCCURRENCE ( 'NAUO30', ' ', ' ', #722, #186, $ ) ;
#751 = NEXT_ASSEMBLY_USAGE_OCCURRENCE ( 'NAUO31', ' ', ' ', #722, #535, $ ) ;
#752 = NEXT_ASSEMBLY_USAGE_OCCURRENCE ( 'NAUO32', ' ', ' ', #722, #643, $ ) ;
#753 = NEXT_ASSEMBLY_USAGE_OCCURRENCE ( 'NAUO33', ' ', ' ', #722, #638, $ ) ;
ENDSEC;
END-ISO-10303-21;
