ISO-10303-21;
HEADER;
FILE_DESCRIPTION (( 'STEP AP214' ),
    '1' );
FILE_NAME ('middel part.STEP',
    '2026-07-06T21:55:18',
    ( '' ),
    ( '' ),
    'SwSTEP 2.0',
    'SolidWorks 2025',
    '' );
FILE_SCHEMA (( 'AUTOMOTIVE_DESIGN' ));
ENDSEC;

DATA;
#1 = PLANE ( 'NONE',  #292 ) ;
#2 = VERTEX_POINT ( 'NONE', #107 ) ;
#3 = CARTESIAN_POINT ( 'NONE',  ( -11.60999999999999766, 0.000000000000000000, 3.000000000000000000 ) ) ;
#4 = DIRECTION ( 'NONE',  ( -0.000000000000000000, 0.000000000000000000, 1.000000000000000000 ) ) ;
#5 = ORIENTED_EDGE ( 'NONE', *, *, #396, .T. ) ;
#6 = FACE_OUTER_BOUND ( 'NONE', #739, .T. ) ;
#7 = LINE ( 'NONE', #196, #586 ) ;
#8 = ORIENTED_EDGE ( 'NONE', *, *, #798, .T. ) ;
#9 = DIRECTION ( 'NONE',  ( -9.762817048420158359E-17, 1.000000000000000000, 0.000000000000000000 ) ) ;
#10 = LINE ( 'NONE', #319, #263 ) ;
#11 = AXIS2_PLACEMENT_3D ( 'NONE', #720, #779, #652 ) ;
#12 = ADVANCED_FACE ( 'NONE', ( #169 ), #369, .F. ) ;
#13 = ORIENTED_EDGE ( 'NONE', *, *, #230, .F. ) ;
#14 = AXIS2_PLACEMENT_3D ( 'NONE', #3, #262, #621 ) ;
#15 = DIRECTION ( 'NONE',  ( -0.000000000000000000, 0.000000000000000000, 1.000000000000000000 ) ) ;
#16 = CARTESIAN_POINT ( 'NONE',  ( 0.000000000000000000, 0.000000000000000000, 3.000000000000000000 ) ) ;
#17 = VERTEX_POINT ( 'NONE', #354 ) ;
#18 = CARTESIAN_POINT ( 'NONE',  ( 13.24194999866640288, 3.043486101843687439E-15, 3.000000000000000000 ) ) ;
#19 = CARTESIAN_POINT ( 'NONE',  ( 13.45775241264305322, -9.650000000000002132, 3.000000000000000000 ) ) ;
#20 = ORIENTED_EDGE ( 'NONE', *, *, #804, .F. ) ;
#21 = ADVANCED_FACE ( 'NONE', ( #602 ), #539, .T. ) ;
#22 = DIRECTION ( 'NONE',  ( 1.000000000000000000, 0.000000000000000000, 0.000000000000000000 ) ) ;
#23 = DIRECTION ( 'NONE',  ( -0.000000000000000000, 0.000000000000000000, 1.000000000000000000 ) ) ;
#24 = EDGE_LOOP ( 'NONE', ( #395, #657, #544, #5 ) ) ;
#25 = CIRCLE ( 'NONE', #94, 16.55999999999999872 ) ;
#26 = CIRCLE ( 'NONE', #251, 1.631949998666401891 ) ;
#27 = FACE_BOUND ( 'NONE', #392, .T. ) ;
#28 = DIRECTION ( 'NONE',  ( 1.000000000000000000, 0.000000000000000000, 0.000000000000000000 ) ) ;
#29 = VERTEX_POINT ( 'NONE', #299 ) ;
#30 = EDGE_LOOP ( 'NONE', ( #497, #410, #782, #697 ) ) ;
#31 = EDGE_CURVE ( 'NONE', #155, #97, #89, .T. ) ;
#32 = CARTESIAN_POINT ( 'NONE',  ( -11.60999999999999766, 0.000000000000000000, 0.000000000000000000 ) ) ;
#33 = EDGE_CURVE ( 'NONE', #155, #701, #232, .T. ) ;
#34 = CYLINDRICAL_SURFACE ( 'NONE', #328, 1.631949998666401891 ) ;
#35 = ORIENTED_EDGE ( 'NONE', *, *, #182, .F. ) ;
#36 = VERTEX_POINT ( 'NONE', #730 ) ;
#37 = SURFACE_STYLE_USAGE ( .BOTH. , #360 ) ;
#38 = CARTESIAN_POINT ( 'NONE',  ( 19.81898894019258606, -4.007003542364786952, 1.600000000000000089 ) ) ;
#39 = CARTESIAN_POINT ( 'NONE',  ( 15.99573168334696760, 4.286043386897754992, 3.000000000000000000 ) ) ;
#40 = ADVANCED_FACE ( 'NONE', ( #304, #173, #786, #473 ), #418, .F. ) ;
#41 = CIRCLE ( 'NONE', #689, 20.21999999999999886 ) ;
#42 = EDGE_LOOP ( 'NONE', ( #715, #591, #338, #335, #68 ) ) ;
#43 = APPLICATION_PROTOCOL_DEFINITION ( 'draft international standard', 'automotive_design', 1998, #248 ) ;
#44 = AXIS2_PLACEMENT_3D ( 'NONE', #148, #650, #98 ) ;
#45 = FILL_AREA_STYLE_COLOUR ( '', #677 ) ;
#46 = VERTEX_POINT ( 'NONE', #669 ) ;
#47 = ORIENTED_EDGE ( 'NONE', *, *, #648, .F. ) ;
#48 =( LENGTH_UNIT ( ) NAMED_UNIT ( * ) SI_UNIT ( .MILLI., .METRE. ) );
#49 = DIRECTION ( 'NONE',  ( 1.000000000000000000, 0.000000000000000000, 0.000000000000000000 ) ) ;
#50 = ORIENTED_EDGE ( 'NONE', *, *, #423, .F. ) ;
#51 = EDGE_CURVE ( 'NONE', #634, #359, #238, .T. ) ;
#52 = FACE_OUTER_BOUND ( 'NONE', #125, .T. ) ;
#53 = DIRECTION ( 'NONE',  ( 1.000000000000000000, 0.000000000000000000, 0.000000000000000000 ) ) ;
#54 = LINE ( 'NONE', #476, #666 ) ;
#55 = AXIS2_PLACEMENT_3D ( 'NONE', #129, #675, #321 ) ;
#56 = AXIS2_PLACEMENT_3D ( 'NONE', #397, #458, #268 ) ;
#57 = CARTESIAN_POINT ( 'NONE',  ( 16.82811403408016204, 1.179550162637855948, 2.499721131605127322 ) ) ;
#58 = EDGE_CURVE ( 'NONE', #170, #97, #186, .T. ) ;
#59 = CARTESIAN_POINT ( 'NONE',  ( -9.421118451725454770E-16, -9.650000000000000355, 3.000000000000000000 ) ) ;
#60 = CARTESIAN_POINT ( 'NONE',  ( 11.61000000000000121, 2.843629867620153816E-15, 3.000000000000000000 ) ) ;
#61 = EDGE_CURVE ( 'NONE', #780, #46, #404, .T. ) ;
#62 = CARTESIAN_POINT ( 'NONE',  ( -9.421118451725454770E-16, 9.650000000000000355, 3.000000000000000000 ) ) ;
#63 = DIRECTION ( 'NONE',  ( -0.000000000000000000, 0.000000000000000000, 1.000000000000000000 ) ) ;
#64 = ORIENTED_EDGE ( 'NONE', *, *, #31, .F. ) ;
#65 = DIRECTION ( 'NONE',  ( -0.000000000000000000, -0.000000000000000000, -1.000000000000000000 ) ) ;
#66 = AXIS2_PLACEMENT_3D ( 'NONE', #563, #127, #132 ) ;
#67 = DIRECTION ( 'NONE',  ( 9.762817048420158359E-17, 1.000000000000000000, -0.000000000000000000 ) ) ;
#68 = ORIENTED_EDGE ( 'NONE', *, *, #51, .F. ) ;
#69 = DIRECTION ( 'NONE',  ( -0.000000000000000000, -0.000000000000000000, -1.000000000000000000 ) ) ;
#70 = CARTESIAN_POINT ( 'NONE',  ( 0.000000000000000000, 0.000000000000000000, 1.600000000000000089 ) ) ;
#71 = ORIENTED_EDGE ( 'NONE', *, *, #541, .T. ) ;
#72 = DIRECTION ( 'NONE',  ( -1.000000000000000000, 0.000000000000000000, 0.000000000000000000 ) ) ;
#73 = EDGE_CURVE ( 'NONE', #388, #653, #687, .T. ) ;
#74 = CARTESIAN_POINT ( 'NONE',  ( 0.000000000000000000, 0.000000000000000000, 1.600000000000000089 ) ) ;
#75 = ORIENTED_EDGE ( 'NONE', *, *, #271, .T. ) ;
#76 =( BOUNDED_CURVE ( )  B_SPLINE_CURVE ( 3, ( #507, #275, #713, #389 ),
 .UNSPECIFIED., .F., .F. ) 
 B_SPLINE_CURVE_WITH_KNOTS ( ( 4, 4 ),
 ( 4.712388980384689674, 4.974188368183839692 ),
 .UNSPECIFIED. ) 
 CURVE ( )  GEOMETRIC_REPRESENTATION_ITEM ( )  RATIONAL_B_SPLINE_CURVE ( ( 1.000000000000000000, 0.9942965742492069214, 0.9942965742492069214, 1.000000000000000000 ) ) 
 REPRESENTATION_ITEM ( '' )  );
#77 = FACE_OUTER_BOUND ( 'NONE', #449, .T. ) ;
#78 = EDGE_CURVE ( 'NONE', #314, #154, #783, .T. ) ;
#79 = CARTESIAN_POINT ( 'NONE',  ( 0.000000000000000000, 0.000000000000000000, 0.000000000000000000 ) ) ;
#80 = AXIS2_PLACEMENT_3D ( 'NONE', #114, #548, #358 ) ;
#81 = ORIENTED_EDGE ( 'NONE', *, *, #87, .T. ) ;
#82 = AXIS2_PLACEMENT_3D ( 'NONE', #32, #393, #152 ) ;
#83 =( GEOMETRIC_REPRESENTATION_CONTEXT ( 3 ) GLOBAL_UNCERTAINTY_ASSIGNED_CONTEXT ( ( #400 ) ) GLOBAL_UNIT_ASSIGNED_CONTEXT ( ( #471, #724, #718 ) ) REPRESENTATION_CONTEXT ( 'NONE', 'WORKASPACE' ) );
#84 = CARTESIAN_POINT ( 'NONE',  ( 8.478050001333592434, 2.843629867620153816E-15, 0.000000000000000000 ) ) ;
#85 = DIRECTION ( 'NONE',  ( -0.000000000000000000, -0.000000000000000000, -1.000000000000000000 ) ) ;
#86 = EDGE_LOOP ( 'NONE', ( #345, #452, #712, #213, #628, #670 ) ) ;
#87 = EDGE_CURVE ( 'NONE', #421, #2, #517, .T. ) ;
#88 = CARTESIAN_POINT ( 'NONE',  ( -16.55999999999999162, -1.449274994432596664, 2.551043140385320207 ) ) ;
#89 =( BOUNDED_CURVE ( )  B_SPLINE_CURVE ( 3, ( #307, #118, #245, #490 ),
 .UNSPECIFIED., .F., .F. ) 
 B_SPLINE_CURVE_WITH_KNOTS ( ( 4, 4 ),
 ( 4.974188368183839692, 5.173679217785007722 ),
 .UNSPECIFIED. ) 
 CURVE ( )  GEOMETRIC_REPRESENTATION_ITEM ( )  RATIONAL_B_SPLINE_CURVE ( ( 1.000000000000000000, 0.9966863654315485377, 0.9966863654315485377, 1.000000000000000000 ) ) 
 REPRESENTATION_ITEM ( '' )  );
#90 = CARTESIAN_POINT ( 'NONE',  ( 0.000000000000000000, 0.000000000000000000, 3.000000000000000000 ) ) ;
#91 = EDGE_LOOP ( 'NONE', ( #571, #326, #445, #777, #553 ) ) ;
#92 = DIRECTION ( 'NONE',  ( -0.000000000000000000, -0.000000000000000000, -1.000000000000000000 ) ) ;
#93 = EDGE_LOOP ( 'NONE', ( #13, #348, #656, #643 ) ) ;
#94 = AXIS2_PLACEMENT_3D ( 'NONE', #462, #523, #390 ) ;
#95 = EDGE_CURVE ( 'NONE', #564, #46, #550, .T. ) ;
#96 = AXIS2_PLACEMENT_3D ( 'NONE', #679, #629, #370 ) ;
#97 = VERTEX_POINT ( 'NONE', #184 ) ;
#98 = DIRECTION ( 'NONE',  ( 1.000000000000000000, 0.000000000000000000, 0.000000000000000000 ) ) ;
#99 = APPLICATION_CONTEXT ( 'automotive_design' ) ;
#100 = CARTESIAN_POINT ( 'NONE',  ( -17.76867749721402490, -9.649999999999998579, 3.000000000000000000 ) ) ;
#101 = ORIENTED_EDGE ( 'NONE', *, *, #220, .T. ) ;
#102 = EDGE_LOOP ( 'NONE', ( #585, #681 ) ) ;
#103 = LINE ( 'NONE', #734, #146 ) ;
#104 = EDGE_CURVE ( 'NONE', #381, #516, #144, .T. ) ;
#105 = ORIENTED_EDGE ( 'NONE', *, *, #58, .T. ) ;
#106 = ORIENTED_EDGE ( 'NONE', *, *, #494, .F. ) ;
#107 = CARTESIAN_POINT ( 'NONE',  ( 14.74194999866640821, 3.227183121715790950E-15, 0.000000000000000000 ) ) ;
#108 = AXIS2_PLACEMENT_3D ( 'NONE', #227, #801, #422 ) ;
#109 = AXIS2_PLACEMENT_3D ( 'NONE', #62, #9, #318 ) ;
#110 = EDGE_LOOP ( 'NONE', ( #373, #234, #384, #285, #352, #351 ) ) ;
#111 = SURFACE_STYLE_FILL_AREA ( #531 ) ;
#112 = PRODUCT_DEFINITION_FORMATION_WITH_SPECIFIED_SOURCE ( 'Symmetric', '', #562, .NOT_KNOWN. ) ;
#113 = CARTESIAN_POINT ( 'NONE',  ( 9.978050001333597763, 2.843629867620153816E-15, 3.000000000000000000 ) ) ;
#114 = CARTESIAN_POINT ( 'NONE',  ( 0.000000000000000000, 0.000000000000000000, 3.000000000000000000 ) ) ;
#115 = ADVANCED_FACE ( 'NONE', ( #383 ), #436, .T. ) ;
#116 = ORIENTED_EDGE ( 'NONE', *, *, #31, .T. ) ;
#117 = DIRECTION ( 'NONE',  ( 1.000000000000000000, 0.000000000000000000, 0.000000000000000000 ) ) ;
#118 = CARTESIAN_POINT ( 'NONE',  ( -20.21999999999999531, 1.346802695182008902, 1.983563818063239337 ) ) ;
#119 = DIRECTION ( 'NONE',  ( -0.000000000000000000, 0.000000000000000000, 1.000000000000000000 ) ) ;
#120 = CARTESIAN_POINT ( 'NONE',  ( 17.76867749721402134, 9.650000000000002132, 3.000000000000000000 ) ) ;
#121 = ORIENTED_EDGE ( 'NONE', *, *, #197, .F. ) ;
#122 = CARTESIAN_POINT ( 'NONE',  ( 15.75656036088866152, -5.095527999498388638, 1.600000000000000089 ) ) ;
#123 = ADVANCED_FACE ( 'NONE', ( #140 ), #1, .F. ) ;
#124 = CARTESIAN_POINT ( 'NONE',  ( -15.75656036088866152, 5.095527999498392191, 1.600000000000000089 ) ) ;
#125 = EDGE_LOOP ( 'NONE', ( #105, #788, #286, #300 ) ) ;
#126 = CARTESIAN_POINT ( 'NONE',  ( 0.000000000000000000, 0.000000000000000000, 3.000000000000000000 ) ) ;
#127 = DIRECTION ( 'NONE',  ( -0.000000000000000000, -0.000000000000000000, -1.000000000000000000 ) ) ;
#128 = ORIENTED_EDGE ( 'NONE', *, *, #751, .F. ) ;
#129 = CARTESIAN_POINT ( 'NONE',  ( 0.000000000000000000, 0.000000000000000000, 3.000000000000000000 ) ) ;
#130 = CIRCLE ( 'NONE', #481, 7.774999999999998579 ) ;
#131 = AXIS2_PLACEMENT_3D ( 'NONE', #364, #665, #800 ) ;
#132 = DIRECTION ( 'NONE',  ( -1.000000000000000000, 0.000000000000000000, 0.000000000000000000 ) ) ;
#133 = VECTOR ( 'NONE', #333, 1000.000000000000114 ) ;
#134 = EDGE_LOOP ( 'NONE', ( #81, #717 ) ) ;
#135 = EDGE_CURVE ( 'NONE', #460, #209, #635, .T. ) ;
#136 = CARTESIAN_POINT ( 'NONE',  ( 9.978050001333597763, 2.843629867620153816E-15, 3.000000000000000000 ) ) ;
#137 = CARTESIAN_POINT ( 'NONE',  ( -16.55999999999999517, 1.733597681358538978, 2.072800197377407727 ) ) ;
#138 = ORIENTED_EDGE ( 'NONE', *, *, #463, .T. ) ;
#139 = CARTESIAN_POINT ( 'NONE',  ( -11.60999999999999766, 0.000000000000000000, 0.000000000000000000 ) ) ;
#140 = FACE_OUTER_BOUND ( 'NONE', #110, .T. ) ;
#141 = ORIENTED_EDGE ( 'NONE', *, *, #625, .F. ) ;
#142 = DIRECTION ( 'NONE',  ( 1.000000000000000000, 0.000000000000000000, 0.000000000000000000 ) ) ;
#143 = DIRECTION ( 'NONE',  ( -0.000000000000000000, -0.000000000000000000, -1.000000000000000000 ) ) ;
#144 = CIRCLE ( 'NONE', #598, 1.631949998666401891 ) ;
#145 = ADVANCED_FACE ( 'NONE', ( #310 ), #322, .T. ) ;
#146 = VECTOR ( 'NONE', #480, 1000.000000000000227 ) ;
#147 = ORIENTED_EDGE ( 'NONE', *, *, #95, .F. ) ;
#148 = CARTESIAN_POINT ( 'NONE',  ( 0.000000000000000000, 0.000000000000000000, 1.600000000000000089 ) ) ;
#149 = EDGE_CURVE ( 'NONE', #500, #509, #276, .T. ) ;
#150 = CARTESIAN_POINT ( 'NONE',  ( 8.478050001333592434, 2.843629867620153816E-15, 0.000000000000000000 ) ) ;
#151 = VERTEX_POINT ( 'NONE', #622 ) ;
#152 = DIRECTION ( 'NONE',  ( -1.000000000000000000, 0.000000000000000000, 0.000000000000000000 ) ) ;
#153 = CARTESIAN_POINT ( 'NONE',  ( 17.76867749721402134, 9.650000000000002132, 0.000000000000000000 ) ) ;
#154 = VERTEX_POINT ( 'NONE', #558 ) ;
#155 = VERTEX_POINT ( 'NONE', #325 ) ;
#156 = CARTESIAN_POINT ( 'NONE',  ( 17.76867749721402134, -9.650000000000002132, 1.600000000000000089 ) ) ;
#157 = DIRECTION ( 'NONE',  ( -1.000000000000000000, 0.000000000000000000, 0.000000000000000000 ) ) ;
#158 = ORIENTED_EDGE ( 'NONE', *, *, #172, .T. ) ;
#159 = AXIS2_PLACEMENT_3D ( 'NONE', #90, #92, #337 ) ;
#160 = VECTOR ( 'NONE', #435, 1000.000000000000000 ) ;
#161 = UNCERTAINTY_MEASURE_WITH_UNIT (LENGTH_MEASURE( 1.000000000000000082E-05 ), #526, 'distance_accuracy_value', 'NONE');
#162 = EDGE_CURVE ( 'NONE', #267, #154, #257, .T. ) ;
#163 = ORIENTED_EDGE ( 'NONE', *, *, #725, .F. ) ;
#164 = CARTESIAN_POINT ( 'NONE',  ( -13.45775241264305677, 9.649999999999998579, 1.600000000000000089 ) ) ;
#165 = ORIENTED_EDGE ( 'NONE', *, *, #372, .F. ) ;
#166 = PRODUCT_DEFINITION_SHAPE ( 'NONE', 'NONE',  #667 ) ;
#167 = VERTEX_POINT ( 'NONE', #371 ) ;
#168 = LINE ( 'NONE', #472, #600 ) ;
#169 = FACE_OUTER_BOUND ( 'NONE', #688, .T. ) ;
#170 = VERTEX_POINT ( 'NONE', #499 ) ;
#171 = DIRECTION ( 'NONE',  ( 1.000000000000000000, 0.000000000000000000, 0.000000000000000000 ) ) ;
#172 = EDGE_CURVE ( 'NONE', #653, #151, #555, .T. ) ;
#173 = FACE_BOUND ( 'NONE', #440, .T. ) ;
#174 = VECTOR ( 'NONE', #508, 1000.000000000000000 ) ;
#175 = CONICAL_SURFACE ( 'NONE', #454, 3.131949998666408330, 0.6435011087932833718 ) ;
#176 = ORIENTED_EDGE ( 'NONE', *, *, #432, .F. ) ;
#177 = PRODUCT_CONTEXT ( 'NONE', #248, 'mechanical' ) ;
#178 = CARTESIAN_POINT ( 'NONE',  ( 7.774999999999998579, 9.521628863370669207E-16, 3.000000000000000000 ) ) ;
#179 = EDGE_LOOP ( 'NONE', ( #528, #47, #141, #590, #468 ) ) ;
#180 =( NAMED_UNIT ( * ) SI_UNIT ( $, .STERADIAN. ) SOLID_ANGLE_UNIT ( ) );
#181 = DIRECTION ( 'NONE',  ( -0.000000000000000000, 0.000000000000000000, 1.000000000000000000 ) ) ;
#182 = EDGE_CURVE ( 'NONE', #388, #167, #7, .T. ) ;
#183 = DIRECTION ( 'NONE',  ( 0.9659258262890680902, 0.2588190451025214611, 0.000000000000000000 ) ) ;
#184 = CARTESIAN_POINT ( 'NONE',  ( -19.81898894019258606, 4.007003542364788728, 1.600000000000000089 ) ) ;
#185 = AXIS2_PLACEMENT_3D ( 'NONE', #536, #727, #661 ) ;
#186 = CIRCLE ( 'NONE', #315, 20.21999999999999886 ) ;
#187 = ADVANCED_FACE ( 'NONE', ( #570 ), #680, .T. ) ;
#188 = CARTESIAN_POINT ( 'NONE',  ( -19.53102020756496060, -5.233321091972986672, 3.000000000000000000 ) ) ;
#189 = VECTOR ( 'NONE', #226, 1000.000000000000000 ) ;
#190 = DIRECTION ( 'NONE',  ( -0.9659258262890680902, -0.2588190451025214611, 0.000000000000000000 ) ) ;
#191 = ORIENTED_EDGE ( 'NONE', *, *, #135, .T. ) ;
#192 = DIRECTION ( 'NONE',  ( 1.000000000000000000, -9.762817048420159591E-17, 0.000000000000000000 ) ) ;
#193 = DIRECTION ( 'NONE',  ( -0.000000000000000000, 0.000000000000000000, 1.000000000000000000 ) ) ;
#194 = EDGE_LOOP ( 'NONE', ( #165, #128, #198, #258 ) ) ;
#195 = LINE ( 'NONE', #136, #573 ) ;
#196 = CARTESIAN_POINT ( 'NONE',  ( -14.74194999866640465, 0.000000000000000000, 0.000000000000000000 ) ) ;
#197 = EDGE_CURVE ( 'NONE', #434, #564, #10, .T. ) ;
#198 = ORIENTED_EDGE ( 'NONE', *, *, #758, .T. ) ;
#199 = LINE ( 'NONE', #741, #442 ) ;
#200 = CIRCLE ( 'NONE', #11, 1.631949998666401891 ) ;
#201 = MECHANICAL_DESIGN_GEOMETRIC_PRESENTATION_REPRESENTATION (  '', ( #419 ), #773 ) ;
#202 = CARTESIAN_POINT ( 'NONE',  ( 0.000000000000000000, 0.000000000000000000, 0.000000000000000000 ) ) ;
#203 = ORIENTED_EDGE ( 'NONE', *, *, #316, .T. ) ;
#204 = CARTESIAN_POINT ( 'NONE',  ( 13.45775241264305322, -9.650000000000002132, 3.000000000000000000 ) ) ;
#205 = LINE ( 'NONE', #502, #745 ) ;
#206 = ORIENTED_EDGE ( 'NONE', *, *, #699, .T. ) ;
#207 = CARTESIAN_POINT ( 'NONE',  ( 17.76867749721402134, -9.650000000000002132, 1.600000000000000089 ) ) ;
#208 = DIRECTION ( 'NONE',  ( -0.000000000000000000, -0.000000000000000000, -1.000000000000000000 ) ) ;
#209 = VERTEX_POINT ( 'NONE', #755 ) ;
#210 = LINE ( 'NONE', #156, #614 ) ;
#211 = LINE ( 'NONE', #767, #572 ) ;
#212 = VECTOR ( 'NONE', #236, 1000.000000000000000 ) ;
#213 = ORIENTED_EDGE ( 'NONE', *, *, #475, .T. ) ;
#214 = CARTESIAN_POINT ( 'NONE',  ( -7.774999999999998579, 0.000000000000000000, 0.000000000000000000 ) ) ;
#215 = CARTESIAN_POINT ( 'NONE',  ( -11.60999999999999766, 0.000000000000000000, 0.000000000000000000 ) ) ;
#216 = ORIENTED_EDGE ( 'NONE', *, *, #576, .T. ) ;
#217 = CARTESIAN_POINT ( 'NONE',  ( 2.244897367846220041E-16, -8.378071034579708211E-16, 3.000000000000063505 ) ) ;
#218 = FACE_OUTER_BOUND ( 'NONE', #91, .T. ) ;
#219 = VERTEX_POINT ( 'NONE', #439 ) ;
#220 = EDGE_CURVE ( 'NONE', #29, #721, #265, .T. ) ;
#221 = DIRECTION ( 'NONE',  ( 1.000000000000000000, 0.000000000000000000, 0.000000000000000000 ) ) ;
#222 = VERTEX_POINT ( 'NONE', #627 ) ;
#223 = CONICAL_SURFACE ( 'NONE', #703, 3.131949998666408330, 0.6435011087932833718 ) ;
#224 = CIRCLE ( 'NONE', #294, 3.131949998666408330 ) ;
#225 = ORIENTED_EDGE ( 'NONE', *, *, #660, .T. ) ;
#226 = DIRECTION ( 'NONE',  ( 0.9659258262890680902, 0.2588190451025214611, 0.000000000000000000 ) ) ;
#227 = CARTESIAN_POINT ( 'NONE',  ( -2.329371405922696425, 8.693332436601624025, 1.600000000000000089 ) ) ;
#228 = EDGE_CURVE ( 'NONE', #29, #564, #366, .T. ) ;
#229 = ORIENTED_EDGE ( 'NONE', *, *, #456, .T. ) ;
#230 = EDGE_CURVE ( 'NONE', #17, #653, #205, .T. ) ;
#231 = DIRECTION ( 'NONE',  ( -0.000000000000000000, 0.000000000000000000, 1.000000000000000000 ) ) ;
#232 = LINE ( 'NONE', #293, #534 ) ;
#233 = PRODUCT_RELATED_PRODUCT_CATEGORY ( 'part', '', ( #562 ) ) ;
#234 = ORIENTED_EDGE ( 'NONE', *, *, #798, .F. ) ;
#235 = CARTESIAN_POINT ( 'NONE',  ( -11.60999999999999766, 0.000000000000000000, 2.000000000000013767 ) ) ;
#236 = DIRECTION ( 'NONE',  ( -0.000000000000000000, -0.000000000000000000, -1.000000000000000000 ) ) ;
#237 = CARTESIAN_POINT ( 'NONE',  ( 11.61000000000000121, 2.843629867620153816E-15, 0.000000000000000000 ) ) ;
#238 = CIRCLE ( 'NONE', #80, 20.21999999999999886 ) ;
#239 = AXIS2_PLACEMENT_3D ( 'NONE', #126, #382, #72 ) ;
#240 = ORIENTED_EDGE ( 'NONE', *, *, #339, .F. ) ;
#241 = DIRECTION ( 'NONE',  ( 0.000000000000000000, 0.000000000000000000, 1.000000000000000000 ) ) ;
#242 = DIRECTION ( 'NONE',  ( -0.000000000000000000, -0.000000000000000000, -1.000000000000000000 ) ) ;
#243 = DIRECTION ( 'NONE',  ( -0.000000000000000000, -0.000000000000000000, -1.000000000000000000 ) ) ;
#244 = FILL_AREA_STYLE ('',( #45 ) ) ;
#245 = CARTESIAN_POINT ( 'NONE',  ( -20.08588523942407633, 2.686911172412568938, 1.787605206120197687 ) ) ;
#246 = EDGE_CURVE ( 'NONE', #707, #649, #130, .T. ) ;
#247 = CARTESIAN_POINT ( 'NONE',  ( 0.000000000000000000, 0.000000000000000000, 0.000000000000000000 ) ) ;
#248 = APPLICATION_CONTEXT ( 'automotive_design' ) ;
#249 = CARTESIAN_POINT ( 'NONE',  ( -8.478050001333588881, 3.835532540956374299E-16, 0.000000000000000000 ) ) ;
#250 = CIRCLE ( 'NONE', #612, 20.21999999999999886 ) ;
#251 = AXIS2_PLACEMENT_3D ( 'NONE', #308, #557, #498 ) ;
#252 = FACE_OUTER_BOUND ( 'NONE', #288, .T. ) ;
#253 = DIRECTION ( 'NONE',  ( -1.000000000000000000, 9.762817048420158359E-17, 0.000000000000000000 ) ) ;
#254 = ORIENTED_EDGE ( 'NONE', *, *, #456, .F. ) ;
#255 = FACE_OUTER_BOUND ( 'NONE', #194, .T. ) ;
#256 = ADVANCED_FACE ( 'NONE', ( #692 ), #459, .F. ) ;
#257 = LINE ( 'NONE', #630, #733 ) ;
#258 = ORIENTED_EDGE ( 'NONE', *, *, #446, .F. ) ;
#259 = CYLINDRICAL_SURFACE ( 'NONE', #239, 20.21999999999999886 ) ;
#260 = DIRECTION ( 'NONE',  ( 1.000000000000000000, 0.000000000000000000, 0.000000000000000000 ) ) ;
#261 = ORIENTED_EDGE ( 'NONE', *, *, #149, .F. ) ;
#262 = DIRECTION ( 'NONE',  ( -0.000000000000000000, -0.000000000000000000, -1.000000000000000000 ) ) ;
#263 = VECTOR ( 'NONE', #190, 1000.000000000000000 ) ;
#264 = VECTOR ( 'NONE', #65, 1000.000000000000000 ) ;
#265 = LINE ( 'NONE', #686, #174 ) ;
#266 = COLOUR_RGB ( '',0.7960784313725489669, 0.8235294117647058432, 0.9372549019607843146 ) ;
#267 = VERTEX_POINT ( 'NONE', #709 ) ;
#268 = DIRECTION ( 'NONE',  ( 1.000000000000000000, 0.000000000000000000, 0.000000000000000000 ) ) ;
#269 = CARTESIAN_POINT ( 'NONE',  ( 0.000000000000000000, 0.000000000000000000, 3.000000000000000000 ) ) ;
#270 = ORIENTED_EDGE ( 'NONE', *, *, #660, .F. ) ;
#271 = EDGE_CURVE ( 'NONE', #524, #365, #250, .T. ) ;
#272 = CARTESIAN_POINT ( 'NONE',  ( -9.421118451725454770E-16, 9.650000000000000355, 0.000000000000000000 ) ) ;
#273 = CARTESIAN_POINT ( 'NONE',  ( 9.978050001333597763, 2.843629867620153816E-15, 2.000000000000013767 ) ) ;
#274 = ORIENTED_EDGE ( 'NONE', *, *, #73, .F. ) ;
#275 = CARTESIAN_POINT ( 'NONE',  ( -19.98902270734956232, -3.524032492783271575, 2.724731102104198666 ) ) ;
#276 =( BOUNDED_CURVE ( )  B_SPLINE_CURVE ( 3, ( #124, #375, #137, #313 ),
 .UNSPECIFIED., .F., .F. ) 
 B_SPLINE_CURVE_WITH_KNOTS ( ( 4, 4 ),
 ( 0.9962211171047506975, 1.308996938995746318 ),
 .UNSPECIFIED. ) 
 CURVE ( )  GEOMETRIC_REPRESENTATION_ITEM ( )  RATIONAL_B_SPLINE_CURVE ( ( 1.000000000000000000, 0.9918642089412585960, 0.9918642089412585960, 1.000000000000000000 ) ) 
 REPRESENTATION_ITEM ( '' )  );
#277 = DIRECTION ( 'NONE',  ( -1.000000000000000000, 0.000000000000000000, 0.000000000000000000 ) ) ;
#278 = CIRCLE ( 'NONE', #305, 1.631949998666401891 ) ;
#279 = CIRCLE ( 'NONE', #651, 20.21999999999999886 ) ;
#280 = ORIENTED_EDGE ( 'NONE', *, *, #556, .F. ) ;
#281 = CIRCLE ( 'NONE', #420, 1.631949998666401891 ) ;
#282 = CARTESIAN_POINT ( 'NONE',  ( 19.81898894019258606, -4.007003542364786952, 1.600000000000000089 ) ) ;
#283 = FACE_OUTER_BOUND ( 'NONE', #297, .T. ) ;
#284 = EDGE_CURVE ( 'NONE', #209, #460, #806, .T. ) ;
#285 = ORIENTED_EDGE ( 'NONE', *, *, #396, .F. ) ;
#286 = ORIENTED_EDGE ( 'NONE', *, *, #803, .F. ) ;
#287 = CARTESIAN_POINT ( 'NONE',  ( 0.000000000000000000, 0.000000000000000000, 0.000000000000000000 ) ) ;
#288 = EDGE_LOOP ( 'NONE', ( #631, #332, #225 ) ) ;
#289 = ORIENTED_EDGE ( 'NONE', *, *, #51, .T. ) ;
#290 = DIRECTION ( 'NONE',  ( 1.000000000000000000, 0.000000000000000000, 0.000000000000000000 ) ) ;
#291 = CARTESIAN_POINT ( 'NONE',  ( -9.421118451725454770E-16, 9.650000000000000355, 1.600000000000000089 ) ) ;
#292 = AXIS2_PLACEMENT_3D ( 'NONE', #752, #67, #253 ) ;
#293 = CARTESIAN_POINT ( 'NONE',  ( -20.21999999999999886, 0.000000000000000000, 3.000000000000000000 ) ) ;
#294 = AXIS2_PLACEMENT_3D ( 'NONE', #542, #231, #117 ) ;
#295 = VECTOR ( 'NONE', #350, 1000.000000000000000 ) ;
#296 = ADVANCED_FACE ( 'NONE', ( #218 ), #781, .T. ) ;
#297 = EDGE_LOOP ( 'NONE', ( #595, #274, #406, #464 ) ) ;
#298 = CARTESIAN_POINT ( 'NONE',  ( -18.32510308926966758, 4.407289049703867256, 1.600000000000000089 ) ) ;
#299 = CARTESIAN_POINT ( 'NONE',  ( 13.45775241264305322, -9.650000000000002132, 1.600000000000000089 ) ) ;
#300 = ORIENTED_EDGE ( 'NONE', *, *, #475, .F. ) ;
#301 = DIRECTION ( 'NONE',  ( 1.000000000000000000, 0.000000000000000000, 0.000000000000000000 ) ) ;
#302 = DIRECTION ( 'NONE',  ( 1.000000000000000000, 0.000000000000000000, 0.000000000000000000 ) ) ;
#303 = ORIENTED_EDGE ( 'NONE', *, *, #758, .F. ) ;
#304 = FACE_BOUND ( 'NONE', #134, .T. ) ;
#305 = AXIS2_PLACEMENT_3D ( 'NONE', #714, #638, #221 ) ;
#306 = ADVANCED_FACE ( 'NONE', ( #700 ), #377, .F. ) ;
#307 = CARTESIAN_POINT ( 'NONE',  ( -20.21999999999999886, 0.000000000000000000, 2.185927830137563976 ) ) ;
#308 = CARTESIAN_POINT ( 'NONE',  ( -11.60999999999999766, 0.000000000000000000, 3.000000000000000000 ) ) ;
#309 = EDGE_CURVE ( 'NONE', #17, #219, #278, .T. ) ;
#310 = FACE_OUTER_BOUND ( 'NONE', #399, .T. ) ;
#311 = ADVANCED_FACE ( 'NONE', ( #775 ), #34, .F. ) ;
#312 = LINE ( 'NONE', #120, #796 ) ;
#313 = CARTESIAN_POINT ( 'NONE',  ( -16.55999999999999872, 0.000000000000000000, 2.333282139815938905 ) ) ;
#314 = VERTEX_POINT ( 'NONE', #465 ) ;
#315 = AXIS2_PLACEMENT_3D ( 'NONE', #672, #742, #53 ) ;
#316 = EDGE_CURVE ( 'NONE', #474, #36, #25, .T. ) ;
#317 = CIRCLE ( 'NONE', #378, 20.21999999999999886 ) ;
#318 = DIRECTION ( 'NONE',  ( -1.000000000000000000, -9.762817048420158359E-17, 0.000000000000000000 ) ) ;
#319 = CARTESIAN_POINT ( 'NONE',  ( 2.329371405922695537, -8.693332436601620472, 1.600000000000000089 ) ) ;
#320 = EDGE_LOOP ( 'NONE', ( #106, #344, #684, #303 ) ) ;
#321 = DIRECTION ( 'NONE',  ( -1.000000000000000000, 0.000000000000000000, 0.000000000000000000 ) ) ;
#322 = CYLINDRICAL_SURFACE ( 'NONE', #66, 20.21999999999999886 ) ;
#323 = EDGE_LOOP ( 'NONE', ( #694, #640 ) ) ;
#324 = CARTESIAN_POINT ( 'NONE',  ( 7.774999999999998579, 9.521628863370669207E-16, 0.000000000000000000 ) ) ;
#325 = CARTESIAN_POINT ( 'NONE',  ( -20.21999999999999886, 0.000000000000000000, 2.185927830137563976 ) ) ;
#326 = ORIENTED_EDGE ( 'NONE', *, *, #711, .F. ) ;
#327 = FACE_BOUND ( 'NONE', #102, .T. ) ;
#328 = AXIS2_PLACEMENT_3D ( 'NONE', #455, #85, #341 ) ;
#329 = VECTOR ( 'NONE', #626, 1000.000000000000000 ) ;
#330 = DIRECTION ( 'NONE',  ( -0.000000000000000000, -0.000000000000000000, -1.000000000000000000 ) ) ;
#331 = EDGE_CURVE ( 'NONE', #516, #381, #200, .T. ) ;
#332 = ORIENTED_EDGE ( 'NONE', *, *, #566, .T. ) ;
#333 = DIRECTION ( 'NONE',  ( -0.5999999999999990896, 0.000000000000000000, -0.8000000000000005995 ) ) ;
#334 = CARTESIAN_POINT ( 'NONE',  ( 13.24194999866640288, 3.043486101843687439E-15, 3.000000000000000000 ) ) ;
#335 = ORIENTED_EDGE ( 'NONE', *, *, #482, .F. ) ;
#336 = FACE_OUTER_BOUND ( 'NONE', #624, .T. ) ;
#337 = DIRECTION ( 'NONE',  ( -1.000000000000000000, 0.000000000000000000, 0.000000000000000000 ) ) ;
#338 = ORIENTED_EDGE ( 'NONE', *, *, #625, .T. ) ;
#339 = EDGE_CURVE ( 'NONE', #649, #707, #647, .T. ) ;
#340 = CARTESIAN_POINT ( 'NONE',  ( 20.34293131606264637, 2.203227583830050573, 2.512024768138502839 ) ) ;
#341 = DIRECTION ( 'NONE',  ( -1.000000000000000000, 0.000000000000000000, 0.000000000000000000 ) ) ;
#342 = AXIS2_PLACEMENT_3D ( 'NONE', #74, #193, #433 ) ;
#343 = PRESENTATION_LAYER_ASSIGNMENT (  '', '', ( #419 ) ) ;
#344 = ORIENTED_EDGE ( 'NONE', *, *, #372, .T. ) ;
#345 = ORIENTED_EDGE ( 'NONE', *, *, #556, .T. ) ;
#346 = LINE ( 'NONE', #18, #535 ) ;
#347 = DIRECTION ( 'NONE',  ( -0.000000000000000000, 0.000000000000000000, 1.000000000000000000 ) ) ;
#348 = ORIENTED_EDGE ( 'NONE', *, *, #309, .T. ) ;
#349 = ORIENTED_EDGE ( 'NONE', *, *, #230, .T. ) ;
#350 = DIRECTION ( 'NONE',  ( -0.000000000000000000, -0.000000000000000000, -1.000000000000000000 ) ) ;
#351 = ORIENTED_EDGE ( 'NONE', *, *, #482, .T. ) ;
#352 = ORIENTED_EDGE ( 'NONE', *, *, #529, .F. ) ;
#353 = DIRECTION ( 'NONE',  ( -0.000000000000000000, -0.000000000000000000, -1.000000000000000000 ) ) ;
#354 = CARTESIAN_POINT ( 'NONE',  ( -9.978050001333595986, 1.998562342235335244E-16, 3.000000000000000000 ) ) ;
#355 =( BOUNDED_CURVE ( )  B_SPLINE_CURVE ( 3, ( #587, #88, #778, #450 ),
 .UNSPECIFIED., .F., .F. ) 
 B_SPLINE_CURVE_WITH_KNOTS ( ( 4, 4 ),
 ( 1.308996938995746318, 1.570796326794896114 ),
 .UNSPECIFIED. ) 
 CURVE ( )  GEOMETRIC_REPRESENTATION_ITEM ( )  RATIONAL_B_SPLINE_CURVE ( ( 1.000000000000000000, 0.9942965742492069214, 0.9942965742492069214, 1.000000000000000000 ) ) 
 REPRESENTATION_ITEM ( '' )  );
#356 = ORIENTED_EDGE ( 'NONE', *, *, #228, .F. ) ;
#357 = DIRECTION ( 'NONE',  ( -1.000000000000000000, 0.000000000000000000, 0.000000000000000000 ) ) ;
#358 = DIRECTION ( 'NONE',  ( 1.000000000000000000, 0.000000000000000000, 0.000000000000000000 ) ) ;
#359 = VERTEX_POINT ( 'NONE', #100 ) ;
#360 = SURFACE_SIDE_STYLE ('',( #111 ) ) ;
#361 = FACE_OUTER_BOUND ( 'NONE', #605, .T. ) ;
#362 = ADVANCED_BREP_SHAPE_REPRESENTATION ( 'middel part', ( #489, #797 ), #575 ) ;
#363 = ADVANCED_FACE ( 'NONE', ( #283 ), #223, .F. ) ;
#364 = CARTESIAN_POINT ( 'NONE',  ( 11.61000000000000121, 2.843629867620153816E-15, 2.000000000000013767 ) ) ;
#365 = VERTEX_POINT ( 'NONE', #153 ) ;
#366 = CIRCLE ( 'NONE', #716, 16.55999999999999872 ) ;
#367 = AXIS2_PLACEMENT_3D ( 'NONE', #510, #15, #142 ) ;
#368 = LINE ( 'NONE', #757, #264 ) ;
#369 = CYLINDRICAL_SURFACE ( 'NONE', #185, 1.631949998666401891 ) ;
#370 = DIRECTION ( 'NONE',  ( -1.000000000000000000, 0.000000000000000000, 0.000000000000000000 ) ) ;
#371 = CARTESIAN_POINT ( 'NONE',  ( -14.74194999866640465, 0.000000000000000000, 0.000000000000000000 ) ) ;
#372 = EDGE_CURVE ( 'NONE', #457, #2, #211, .T. ) ;
#373 = ORIENTED_EDGE ( 'NONE', *, *, #648, .T. ) ;
#374 = FACE_OUTER_BOUND ( 'NONE', #728, .T. ) ;
#375 = CARTESIAN_POINT ( 'NONE',  ( -16.28999004236377601, 3.446039079943899353, 1.826367895722371237 ) ) ;
#376 = ORIENTED_EDGE ( 'NONE', *, *, #751, .T. ) ;
#377 = CONICAL_SURFACE ( 'NONE', #505, 3.131949998666408330, 0.6435011087932833718 ) ;
#378 = AXIS2_PLACEMENT_3D ( 'NONE', #642, #23, #301 ) ;
#379 = DIRECTION ( 'NONE',  ( -0.000000000000000000, 0.000000000000000000, 1.000000000000000000 ) ) ;
#380 = DIRECTION ( 'NONE',  ( 1.000000000000000000, 9.762817048420159591E-17, 0.000000000000000000 ) ) ;
#381 = VERTEX_POINT ( 'NONE', #334 ) ;
#382 = DIRECTION ( 'NONE',  ( -0.000000000000000000, -0.000000000000000000, -1.000000000000000000 ) ) ;
#383 = FACE_OUTER_BOUND ( 'NONE', #756, .T. ) ;
#384 = ORIENTED_EDGE ( 'NONE', *, *, #220, .F. ) ;
#385 = DIRECTION ( 'NONE',  ( -0.000000000000000000, -0.000000000000000000, -1.000000000000000000 ) ) ;
#386 = EDGE_CURVE ( 'NONE', #578, #701, #41, .T. ) ;
#387 = CARTESIAN_POINT ( 'NONE',  ( 0.000000000000000000, 0.000000000000000000, 0.000000000000000000 ) ) ;
#388 = VERTEX_POINT ( 'NONE', #593 ) ;
#389 = CARTESIAN_POINT ( 'NONE',  ( -20.21999999999999886, 0.000000000000000000, 2.185927830137563976 ) ) ;
#390 = DIRECTION ( 'NONE',  ( 1.000000000000000000, 0.000000000000000000, 0.000000000000000000 ) ) ;
#391 = CIRCLE ( 'NONE', #56, 1.631949998666401891 ) ;
#392 = EDGE_LOOP ( 'NONE', ( #415, #537 ) ) ;
#393 = DIRECTION ( 'NONE',  ( -0.000000000000000000, -0.000000000000000000, -1.000000000000000000 ) ) ;
#394 = DIRECTION ( 'NONE',  ( 0.5999999999999990896, 7.347880794884107903E-17, -0.8000000000000005995 ) ) ;
#395 = ORIENTED_EDGE ( 'NONE', *, *, #228, .T. ) ;
#396 = EDGE_CURVE ( 'NONE', #780, #29, #398, .T. ) ;
#397 = CARTESIAN_POINT ( 'NONE',  ( 11.61000000000000121, 2.843629867620153816E-15, 2.000000000000013767 ) ) ;
#398 = LINE ( 'NONE', #19, #784 ) ;
#399 = EDGE_LOOP ( 'NONE', ( #521, #116, #485, #138, #597 ) ) ;
#400 = UNCERTAINTY_MEASURE_WITH_UNIT (LENGTH_MEASURE( 1.000000000000000082E-05 ), #471, 'distance_accuracy_value', 'NONE');
#401 = VERTEX_POINT ( 'NONE', #273 ) ;
#402 = FACE_BOUND ( 'NONE', #323, .T. ) ;
#403 = DIRECTION ( 'NONE',  ( 1.000000000000000000, 0.000000000000000000, 0.000000000000000000 ) ) ;
#404 = CIRCLE ( 'NONE', #532, 16.55999999999999872 ) ;
#405 = AXIS2_PLACEMENT_3D ( 'NONE', #217, #641, #580 ) ;
#406 = ORIENTED_EDGE ( 'NONE', *, *, #182, .T. ) ;
#407 = ORIENTED_EDGE ( 'NONE', *, *, #804, .T. ) ;
#408 = APPLICATION_PROTOCOL_DEFINITION ( 'draft international standard', 'automotive_design', 1998, #99 ) ;
#409 = CARTESIAN_POINT ( 'NONE',  ( -16.55999999999999872, 0.000000000000000000, 2.333282139815938905 ) ) ;
#410 = ORIENTED_EDGE ( 'NONE', *, *, #725, .T. ) ;
#411 = CARTESIAN_POINT ( 'NONE',  ( 0.000000000000000000, 0.000000000000000000, 0.000000000000000000 ) ) ;
#412 = SURFACE_STYLE_FILL_AREA ( #244 ) ;
#413 = ADVANCED_FACE ( 'NONE', ( #515 ), #451, .T. ) ;
#414 = ORIENTED_EDGE ( 'NONE', *, *, #776, .F. ) ;
#415 = ORIENTED_EDGE ( 'NONE', *, *, #284, .F. ) ;
#416 =( NAMED_UNIT ( * ) PLANE_ANGLE_UNIT ( ) SI_UNIT ( $, .RADIAN. ) );
#417 = AXIS2_PLACEMENT_3D ( 'NONE', #696, #63, #617 ) ;
#418 = PLANE ( 'NONE',  #493 ) ;
#419 = STYLED_ITEM ( 'NONE', ( #488 ), #489 ) ;
#420 = AXIS2_PLACEMENT_3D ( 'NONE', #235, #353, #290 ) ;
#421 = VERTEX_POINT ( 'NONE', #150 ) ;
#422 = DIRECTION ( 'NONE',  ( -0.9659258262890680902, -0.2588190451025214611, 0.000000000000000000 ) ) ;
#423 = EDGE_CURVE ( 'NONE', #721, #434, #317, .T. ) ;
#424 = CYLINDRICAL_SURFACE ( 'NONE', #560, 7.774999999999998579 ) ;
#425 = DIRECTION ( 'NONE',  ( 1.000000000000000000, 0.000000000000000000, 0.000000000000000000 ) ) ;
#426 = FACE_OUTER_BOUND ( 'NONE', #86, .T. ) ;
#427 = CARTESIAN_POINT ( 'NONE',  ( 16.74615080400343459, -2.035483672191896076, 2.019945709836375780 ) ) ;
#428 = ADVANCED_FACE ( 'NONE', ( #361 ), #424, .F. ) ;
#429 = VECTOR ( 'NONE', #385, 1000.000000000000000 ) ;
#430 = CIRCLE ( 'NONE', #44, 16.55999999999999872 ) ;
#431 = LINE ( 'NONE', #754, #329 ) ;
#432 = EDGE_CURVE ( 'NONE', #219, #388, #546, .T. ) ;
#433 = DIRECTION ( 'NONE',  ( 1.000000000000000000, 0.000000000000000000, 0.000000000000000000 ) ) ;
#434 = VERTEX_POINT ( 'NONE', #38 ) ;
#435 = DIRECTION ( 'NONE',  ( 1.000000000000000000, -9.762817048420159591E-17, 0.000000000000000000 ) ) ;
#436 = CYLINDRICAL_SURFACE ( 'NONE', #664, 20.21999999999999886 ) ;
#437 = ORIENTED_EDGE ( 'NONE', *, *, #603, .T. ) ;
#438 = CARTESIAN_POINT ( 'NONE',  ( -17.76867749721402490, 9.649999999999998579, 0.000000000000000000 ) ) ;
#439 = CARTESIAN_POINT ( 'NONE',  ( -13.24194999866639932, 0.000000000000000000, 3.000000000000000000 ) ) ;
#440 = EDGE_LOOP ( 'NONE', ( #761, #206 ) ) ;
#441 = AXIS2_PLACEMENT_3D ( 'NONE', #269, #581, #520 ) ;
#442 = VECTOR ( 'NONE', #183, 1000.000000000000227 ) ;
#443 = CYLINDRICAL_SURFACE ( 'NONE', #96, 1.631949998666401891 ) ;
#444 = DIRECTION ( 'NONE',  ( 1.000000000000000000, 0.000000000000000000, 0.000000000000000000 ) ) ;
#445 = ORIENTED_EDGE ( 'NONE', *, *, #693, .T. ) ;
#446 = EDGE_CURVE ( 'NONE', #2, #421, #224, .T. ) ;
#447 = LINE ( 'NONE', #84, #133 ) ;
#448 = DIRECTION ( 'NONE',  ( -0.000000000000000000, 0.000000000000000000, 1.000000000000000000 ) ) ;
#449 = EDGE_LOOP ( 'NONE', ( #608, #437, #540, #765, #753, #203, #254, #289, #525 ) ) ;
#450 = CARTESIAN_POINT ( 'NONE',  ( -15.99573168334696760, -4.286043386897756768, 3.000000000000000000 ) ) ;
#451 = CYLINDRICAL_SURFACE ( 'NONE', #549, 16.55999999999999872 ) ;
#452 = ORIENTED_EDGE ( 'NONE', *, *, #766, .F. ) ;
#453 = DIRECTION ( 'NONE',  ( -0.000000000000000000, -0.000000000000000000, -1.000000000000000000 ) ) ;
#454 = AXIS2_PLACEMENT_3D ( 'NONE', #565, #69, #750 ) ;
#455 = CARTESIAN_POINT ( 'NONE',  ( -11.60999999999999766, 0.000000000000000000, 3.000000000000000000 ) ) ;
#456 = EDGE_CURVE ( 'NONE', #634, #36, #103, .T. ) ;
#457 = VERTEX_POINT ( 'NONE', #486 ) ;
#458 = DIRECTION ( 'NONE',  ( -0.000000000000000000, -0.000000000000000000, -1.000000000000000000 ) ) ;
#459 = CYLINDRICAL_SURFACE ( 'NONE', #623, 7.774999999999998579 ) ;
#460 = VERTEX_POINT ( 'NONE', #785 ) ;
#461 = LINE ( 'NONE', #583, #429 ) ;
#462 = CARTESIAN_POINT ( 'NONE',  ( 0.000000000000000000, 0.000000000000000000, 3.000000000000000000 ) ) ;
#463 = EDGE_CURVE ( 'NONE', #170, #578, #168, .T. ) ;
#464 = ORIENTED_EDGE ( 'NONE', *, *, #699, .F. ) ;
#465 = CARTESIAN_POINT ( 'NONE',  ( 19.53102020756496060, 5.233321091972984895, 3.000000000000000000 ) ) ;
#466 = AXIS2_PLACEMENT_3D ( 'NONE', #387, #589, #28 ) ;
#467 = VECTOR ( 'NONE', #192, 1000.000000000000000 ) ;
#468 = ORIENTED_EDGE ( 'NONE', *, *, #766, .T. ) ;
#469 = EDGE_CURVE ( 'NONE', #460, #649, #738, .T. ) ;
#470 = ORIENTED_EDGE ( 'NONE', *, *, #469, .F. ) ;
#471 =( LENGTH_UNIT ( ) NAMED_UNIT ( * ) SI_UNIT ( .MILLI., .METRE. ) );
#472 = CARTESIAN_POINT ( 'NONE',  ( -17.76867749721402490, 9.649999999999998579, 1.600000000000000089 ) ) ;
#473 = FACE_BOUND ( 'NONE', #478, .T. ) ;
#474 = VERTEX_POINT ( 'NONE', #596 ) ;
#475 = EDGE_CURVE ( 'NONE', #170, #504, #655, .T. ) ;
#476 = CARTESIAN_POINT ( 'NONE',  ( -17.76867749721402490, -9.649999999999998579, 3.000000000000000000 ) ) ;
#477 = DIRECTION ( 'NONE',  ( -0.000000000000000000, -0.000000000000000000, -1.000000000000000000 ) ) ;
#478 = EDGE_LOOP ( 'NONE', ( #646, #768 ) ) ;
#479 =( NAMED_UNIT ( * ) SI_UNIT ( $, .STERADIAN. ) SOLID_ANGLE_UNIT ( ) );
#480 = DIRECTION ( 'NONE',  ( 0.9659258262890680902, 0.2588190451025214611, 0.000000000000000000 ) ) ;
#481 = AXIS2_PLACEMENT_3D ( 'NONE', #202, #448, #444 ) ;
#482 = EDGE_CURVE ( 'NONE', #359, #222, #54, .T. ) ;
#483 = DIRECTION ( 'NONE',  ( 1.000000000000000000, 0.000000000000000000, 0.000000000000000000 ) ) ;
#484 = CIRCLE ( 'NONE', #506, 3.131949998666408330 ) ;
#485 = ORIENTED_EDGE ( 'NONE', *, *, #58, .F. ) ;
#486 = CARTESIAN_POINT ( 'NONE',  ( 13.24194999866640288, 3.043486101843687439E-15, 2.000000000000013767 ) ) ;
#487 = DIRECTION ( 'NONE',  ( -0.000000000000000000, 0.000000000000000000, 1.000000000000000000 ) ) ;
#488 = PRESENTATION_STYLE_ASSIGNMENT (( #606 ) ) ;
#489 = MANIFOLD_SOLID_BREP ( 'Chamfer3', #772 ) ;
#490 = CARTESIAN_POINT ( 'NONE',  ( -19.81898894019258606, 4.007003542364788728, 1.600000000000000089 ) ) ;
#491 = LINE ( 'NONE', #59, #160 ) ;
#492 = DIRECTION ( 'NONE',  ( -0.000000000000000000, 0.000000000000000000, 1.000000000000000000 ) ) ;
#493 = AXIS2_PLACEMENT_3D ( 'NONE', #673, #181, #49 ) ;
#494 = EDGE_CURVE ( 'NONE', #457, #401, #519, .T. ) ;
#495 = CARTESIAN_POINT ( 'NONE',  ( -9.978050001333595986, 1.998562342235335244E-16, 2.000000000000013767 ) ) ;
#496 = DIRECTION ( 'NONE',  ( -0.5999999999999990896, 0.000000000000000000, -0.8000000000000005995 ) ) ;
#497 = ORIENTED_EDGE ( 'NONE', *, *, #331, .T. ) ;
#498 = DIRECTION ( 'NONE',  ( 1.000000000000000000, 0.000000000000000000, 0.000000000000000000 ) ) ;
#499 = CARTESIAN_POINT ( 'NONE',  ( -17.76867749721402490, 9.649999999999998579, 1.600000000000000089 ) ) ;
#500 = VERTEX_POINT ( 'NONE', #611 ) ;
#501 = CYLINDRICAL_SURFACE ( 'NONE', #14, 1.631949998666401891 ) ;
#502 = CARTESIAN_POINT ( 'NONE',  ( -9.978050001333595986, 1.998562342235335737E-16, 3.000000000000000000 ) ) ;
#503 = EDGE_CURVE ( 'NONE', #97, #500, #552, .T. ) ;
#504 = VERTEX_POINT ( 'NONE', #164 ) ;
#505 = AXIS2_PLACEMENT_3D ( 'NONE', #511, #633, #584 ) ;
#506 = AXIS2_PLACEMENT_3D ( 'NONE', #139, #698, #22 ) ;
#507 = CARTESIAN_POINT ( 'NONE',  ( -19.53102020756496060, -5.233321091972986672, 3.000000000000000000 ) ) ;
#508 = DIRECTION ( 'NONE',  ( 1.000000000000000000, -9.762817048420159591E-17, 0.000000000000000000 ) ) ;
#509 = VERTEX_POINT ( 'NONE', #409 ) ;
#510 = CARTESIAN_POINT ( 'NONE',  ( 0.000000000000000000, 0.000000000000000000, 3.000000000000000000 ) ) ;
#511 = CARTESIAN_POINT ( 'NONE',  ( 11.61000000000000121, 2.843629867620153816E-15, 0.000000000000000000 ) ) ;
#512 = EDGE_LOOP ( 'NONE', ( #530, #710, #356, #101 ) ) ;
#513 = ADVANCED_FACE ( 'NONE', ( #52 ), #538, .T. ) ;
#514 = CARTESIAN_POINT ( 'NONE',  ( -11.60999999999999766, 0.000000000000000000, 0.000000000000000000 ) ) ;
#515 = FACE_OUTER_BOUND ( 'NONE', #24, .T. ) ;
#516 = VERTEX_POINT ( 'NONE', #113 ) ;
#517 = CIRCLE ( 'NONE', #547, 3.131949998666408330 ) ;
#518 = LINE ( 'NONE', #272, #735 ) ;
#519 = CIRCLE ( 'NONE', #131, 1.631949998666401891 ) ;
#520 = DIRECTION ( 'NONE',  ( 1.000000000000000000, 0.000000000000000000, 0.000000000000000000 ) ) ;
#521 = ORIENTED_EDGE ( 'NONE', *, *, #33, .F. ) ;
#522 = DIRECTION ( 'NONE',  ( 1.000000000000000000, 0.000000000000000000, 0.000000000000000000 ) ) ;
#523 = DIRECTION ( 'NONE',  ( -0.000000000000000000, 0.000000000000000000, 1.000000000000000000 ) ) ;
#524 = VERTEX_POINT ( 'NONE', #615 ) ;
#525 = ORIENTED_EDGE ( 'NONE', *, *, #529, .T. ) ;
#526 =( LENGTH_UNIT ( ) NAMED_UNIT ( * ) SI_UNIT ( .MILLI., .METRE. ) );
#527 = DIRECTION ( 'NONE',  ( 1.000000000000000000, 0.000000000000000000, 0.000000000000000000 ) ) ;
#528 = ORIENTED_EDGE ( 'NONE', *, *, #271, .F. ) ;
#529 = EDGE_CURVE ( 'NONE', #359, #780, #491, .T. ) ;
#530 = ORIENTED_EDGE ( 'NONE', *, *, #423, .T. ) ;
#531 = FILL_AREA_STYLE ('',( #545 ) ) ;
#532 = AXIS2_PLACEMENT_3D ( 'NONE', #799, #607, #302 ) ;
#533 = DIRECTION ( 'NONE',  ( -0.000000000000000000, -0.000000000000000000, -1.000000000000000000 ) ) ;
#534 = VECTOR ( 'NONE', #477, 1000.000000000000000 ) ;
#535 = VECTOR ( 'NONE', #708, 1000.000000000000000 ) ;
#536 = CARTESIAN_POINT ( 'NONE',  ( 11.61000000000000121, 2.843629867620153816E-15, 3.000000000000000000 ) ) ;
#537 = ORIENTED_EDGE ( 'NONE', *, *, #135, .F. ) ;
#538 = PLANE ( 'NONE',  #746 ) ;
#539 = PLANE ( 'NONE',  #108 ) ;
#540 = ORIENTED_EDGE ( 'NONE', *, *, #78, .T. ) ;
#541 = EDGE_CURVE ( 'NONE', #219, #17, #26, .T. ) ;
#542 = CARTESIAN_POINT ( 'NONE',  ( 11.61000000000000121, 2.843629867620153816E-15, 0.000000000000000000 ) ) ;
#543 = CARTESIAN_POINT ( 'NONE',  ( -11.60999999999999766, 0.000000000000000000, 2.000000000000013767 ) ) ;
#544 = ORIENTED_EDGE ( 'NONE', *, *, #61, .F. ) ;
#545 = FILL_AREA_STYLE_COLOUR ( '', #266 ) ;
#546 = LINE ( 'NONE', #726, #212 ) ;
#547 = AXIS2_PLACEMENT_3D ( 'NONE', #237, #487, #736 ) ;
#548 = DIRECTION ( 'NONE',  ( -0.000000000000000000, 0.000000000000000000, 1.000000000000000000 ) ) ;
#549 = AXIS2_PLACEMENT_3D ( 'NONE', #770, #645, #706 ) ;
#550 =( BOUNDED_CURVE ( )  B_SPLINE_CURVE ( 3, ( #613, #427, #57, #39 ),
 .UNSPECIFIED., .F., .T. ) 
 B_SPLINE_CURVE_WITH_KNOTS ( ( 4, 4 ),
 ( 0.9962211171047511415, 1.570796326794895892 ),
 .UNSPECIFIED. ) 
 CURVE ( )  GEOMETRIC_REPRESENTATION_ITEM ( )  RATIONAL_B_SPLINE_CURVE ( ( 1.000000000000000000, 0.9726773100344804357, 0.9726773100344804357, 1.000000000000000000 ) ) 
 REPRESENTATION_ITEM ( '' )  );
#551 = ADVANCED_FACE ( 'NONE', ( #255 ), #175, .F. ) ;
#552 = LINE ( 'NONE', #298, #189 ) ;
#553 = ORIENTED_EDGE ( 'NONE', *, *, #149, .T. ) ;
#554 = FACE_OUTER_BOUND ( 'NONE', #42, .T. ) ;
#555 = LINE ( 'NONE', #249, #760 ) ;
#556 = EDGE_CURVE ( 'NONE', #154, #365, #312, .T. ) ;
#557 = DIRECTION ( 'NONE',  ( -0.000000000000000000, 0.000000000000000000, 1.000000000000000000 ) ) ;
#558 = CARTESIAN_POINT ( 'NONE',  ( 17.76867749721402134, 9.650000000000002132, 3.000000000000000000 ) ) ;
#559 = ORIENTED_EDGE ( 'NONE', *, *, #104, .T. ) ;
#560 = AXIS2_PLACEMENT_3D ( 'NONE', #791, #533, #357 ) ;
#561 = FACE_OUTER_BOUND ( 'NONE', #30, .T. ) ;
#562 = PRODUCT ( 'middel part', 'middel part', '', ( #177 ) ) ;
#563 = CARTESIAN_POINT ( 'NONE',  ( 0.000000000000000000, 0.000000000000000000, 3.000000000000000000 ) ) ;
#564 = VERTEX_POINT ( 'NONE', #122 ) ;
#565 = CARTESIAN_POINT ( 'NONE',  ( 11.61000000000000121, 2.843629867620153816E-15, 0.000000000000000000 ) ) ;
#566 = EDGE_CURVE ( 'NONE', #474, #509, #431, .T. ) ;
#567 = CARTESIAN_POINT ( 'NONE',  ( 0.000000000000000000, 0.000000000000000000, 3.000000000000000000 ) ) ;
#568 = ORIENTED_EDGE ( 'NONE', *, *, #78, .F. ) ;
#569 = DIRECTION ( 'NONE',  ( -0.000000000000000000, -0.000000000000000000, -1.000000000000000000 ) ) ;
#570 = FACE_OUTER_BOUND ( 'NONE', #512, .T. ) ;
#571 = ORIENTED_EDGE ( 'NONE', *, *, #566, .F. ) ;
#572 = VECTOR ( 'NONE', #394, 1000.000000000000114 ) ;
#573 = VECTOR ( 'NONE', #685, 1000.000000000000000 ) ;
#574 = PLANE ( 'NONE',  #588 ) ;
#575 =( GEOMETRIC_REPRESENTATION_CONTEXT ( 3 ) GLOBAL_UNCERTAINTY_ASSIGNED_CONTEXT ( ( #161 ) ) GLOBAL_UNIT_ASSIGNED_CONTEXT ( ( #526, #416, #479 ) ) REPRESENTATION_CONTEXT ( 'NONE', 'WORKASPACE' ) );
#576 = EDGE_CURVE ( 'NONE', #516, #401, #195, .T. ) ;
#577 = DIRECTION ( 'NONE',  ( -0.000000000000000000, 0.000000000000000000, 1.000000000000000000 ) ) ;
#578 = VERTEX_POINT ( 'NONE', #438 ) ;
#579 = ADVANCED_FACE ( 'NONE', ( #554 ), #259, .T. ) ;
#580 = DIRECTION ( 'NONE',  ( 0.9659258262890680902, 0.2588190451025214611, 0.000000000000000000 ) ) ;
#581 = DIRECTION ( 'NONE',  ( -0.000000000000000000, 0.000000000000000000, 1.000000000000000000 ) ) ;
#582 = EDGE_LOOP ( 'NONE', ( #654, #620, #609, #731 ) ) ;
#583 = CARTESIAN_POINT ( 'NONE',  ( -13.45775241264305677, 9.649999999999998579, 3.000000000000000000 ) ) ;
#584 = DIRECTION ( 'NONE',  ( -1.000000000000000000, 0.000000000000000000, 0.000000000000000000 ) ) ;
#585 = ORIENTED_EDGE ( 'NONE', *, *, #541, .F. ) ;
#586 = VECTOR ( 'NONE', #496, 1000.000000000000114 ) ;
#587 = CARTESIAN_POINT ( 'NONE',  ( -16.55999999999999872, 0.000000000000000000, 2.333282139815938905 ) ) ;
#588 = AXIS2_PLACEMENT_3D ( 'NONE', #705, #637, #763 ) ;
#589 = DIRECTION ( 'NONE',  ( -0.000000000000000000, 0.000000000000000000, 1.000000000000000000 ) ) ;
#590 = ORIENTED_EDGE ( 'NONE', *, *, #386, .F. ) ;
#591 = ORIENTED_EDGE ( 'NONE', *, *, #33, .T. ) ;
#592 = CARTESIAN_POINT ( 'NONE',  ( -20.21999999999999886, 0.000000000000000000, 0.000000000000000000 ) ) ;
#593 = CARTESIAN_POINT ( 'NONE',  ( -13.24194999866639932, 0.000000000000000000, 2.000000000000013767 ) ) ;
#594 = ADVANCED_FACE ( 'NONE', ( #6 ), #501, .F. ) ;
#595 = ORIENTED_EDGE ( 'NONE', *, *, #172, .F. ) ;
#596 = CARTESIAN_POINT ( 'NONE',  ( -16.55999999999999872, 0.000000000000000000, 3.000000000000000000 ) ) ;
#597 = ORIENTED_EDGE ( 'NONE', *, *, #386, .T. ) ;
#598 = AXIS2_PLACEMENT_3D ( 'NONE', #60, #4, #764 ) ;
#599 =( NAMED_UNIT ( * ) PLANE_ANGLE_UNIT ( ) SI_UNIT ( $, .RADIAN. ) );
#600 = VECTOR ( 'NONE', #795, 1000.000000000000000 ) ;
#601 = EDGE_CURVE ( 'NONE', #209, #707, #368, .T. ) ;
#602 = FACE_OUTER_BOUND ( 'NONE', #723, .T. ) ;
#603 = EDGE_CURVE ( 'NONE', #46, #314, #199, .T. ) ;
#604 =( BOUNDED_CURVE ( )  B_SPLINE_CURVE ( 3, ( #774, #340, #632, #282 ),
 .UNSPECIFIED., .F., .T. ) 
 B_SPLINE_CURVE_WITH_KNOTS ( ( 4, 4 ),
 ( 4.712388980384689674, 5.173679217785007722 ),
 .UNSPECIFIED. ) 
 CURVE ( )  GEOMETRIC_REPRESENTATION_ITEM ( )  RATIONAL_B_SPLINE_CURVE ( ( 1.000000000000000000, 0.9823460798950676143, 0.9823460798950676143, 1.000000000000000000 ) ) 
 REPRESENTATION_ITEM ( '' )  );
#605 = EDGE_LOOP ( 'NONE', ( #470, #191, #737, #240 ) ) ;
#606 = SURFACE_STYLE_USAGE ( .BOTH. , #659 ) ;
#607 = DIRECTION ( 'NONE',  ( -0.000000000000000000, 0.000000000000000000, 1.000000000000000000 ) ) ;
#608 = ORIENTED_EDGE ( 'NONE', *, *, #61, .T. ) ;
#609 = ORIENTED_EDGE ( 'NONE', *, *, #246, .F. ) ;
#610 = ADVANCED_FACE ( 'NONE', ( #426 ), #805, .T. ) ;
#611 = CARTESIAN_POINT ( 'NONE',  ( -15.75656036088866152, 5.095527999498392191, 1.600000000000000089 ) ) ;
#612 = AXIS2_PLACEMENT_3D ( 'NONE', #287, #347, #527 ) ;
#613 = CARTESIAN_POINT ( 'NONE',  ( 15.75656036088866152, -5.095527999498388638, 1.600000000000000089 ) ) ;
#614 = VECTOR ( 'NONE', #453, 1000.000000000000000 ) ;
#615 = CARTESIAN_POINT ( 'NONE',  ( 17.76867749721402134, -9.650000000000002132, 0.000000000000000000 ) ) ;
#616 = ADVANCED_FACE ( 'NONE', ( #252 ), #802, .T. ) ;
#617 = DIRECTION ( 'NONE',  ( 1.000000000000000000, 0.000000000000000000, 0.000000000000000000 ) ) ;
#618 = CARTESIAN_POINT ( 'NONE',  ( -9.421118451725454770E-16, -9.650000000000000355, 0.000000000000000000 ) ) ;
#619 = DIRECTION ( 'NONE',  ( -1.000000000000000000, 0.000000000000000000, 0.000000000000000000 ) ) ;
#620 = ORIENTED_EDGE ( 'NONE', *, *, #469, .T. ) ;
#621 = DIRECTION ( 'NONE',  ( -1.000000000000000000, 0.000000000000000000, 0.000000000000000000 ) ) ;
#622 = CARTESIAN_POINT ( 'NONE',  ( -8.478050001333588881, 3.835532540956374299E-16, 0.000000000000000000 ) ) ;
#623 = AXIS2_PLACEMENT_3D ( 'NONE', #16, #143, #277 ) ;
#624 = EDGE_LOOP ( 'NONE', ( #147, #121, #414, #790 ) ) ;
#625 = EDGE_CURVE ( 'NONE', #701, #222, #279, .T. ) ;
#626 = DIRECTION ( 'NONE',  ( -0.000000000000000000, -0.000000000000000000, -1.000000000000000000 ) ) ;
#627 = CARTESIAN_POINT ( 'NONE',  ( -17.76867749721402490, -9.649999999999998579, 0.000000000000000000 ) ) ;
#628 = ORIENTED_EDGE ( 'NONE', *, *, #693, .F. ) ;
#629 = DIRECTION ( 'NONE',  ( -0.000000000000000000, -0.000000000000000000, -1.000000000000000000 ) ) ;
#630 = CARTESIAN_POINT ( 'NONE',  ( -9.421118451725454770E-16, 9.650000000000000355, 3.000000000000000000 ) ) ;
#631 = ORIENTED_EDGE ( 'NONE', *, *, #316, .F. ) ;
#632 = CARTESIAN_POINT ( 'NONE',  ( 20.44064593976511546, -0.9322338126005611514, 2.036971549911646306 ) ) ;
#633 = DIRECTION ( 'NONE',  ( -0.000000000000000000, -0.000000000000000000, -1.000000000000000000 ) ) ;
#634 = VERTEX_POINT ( 'NONE', #188 ) ;
#635 = CIRCLE ( 'NONE', #417, 7.774999999999998579 ) ;
#636 = VECTOR ( 'NONE', #671, 1000.000000000000000 ) ;
#637 = DIRECTION ( 'NONE',  ( -0.000000000000000000, 0.000000000000000000, 1.000000000000000000 ) ) ;
#638 = DIRECTION ( 'NONE',  ( -0.000000000000000000, 0.000000000000000000, 1.000000000000000000 ) ) ;
#639 = ADVANCED_FACE ( 'NONE', ( #561 ), #443, .F. ) ;
#640 = ORIENTED_EDGE ( 'NONE', *, *, #104, .F. ) ;
#641 = DIRECTION ( 'NONE',  ( -0.03978230059144273467, 0.1484695670492412745, -0.9881164689548813662 ) ) ;
#642 = CARTESIAN_POINT ( 'NONE',  ( 0.000000000000000000, 0.000000000000000000, 1.600000000000000089 ) ) ;
#643 = ORIENTED_EDGE ( 'NONE', *, *, #73, .T. ) ;
#644 = DIRECTION ( 'NONE',  ( 1.000000000000000000, 9.762817048420159591E-17, 0.000000000000000000 ) ) ;
#645 = DIRECTION ( 'NONE',  ( -0.000000000000000000, -0.000000000000000000, -1.000000000000000000 ) ) ;
#646 = ORIENTED_EDGE ( 'NONE', *, *, #246, .T. ) ;
#647 = CIRCLE ( 'NONE', #466, 7.774999999999998579 ) ;
#648 = EDGE_CURVE ( 'NONE', #222, #524, #691, .T. ) ;
#649 = VERTEX_POINT ( 'NONE', #324 ) ;
#650 = DIRECTION ( 'NONE',  ( -0.000000000000000000, 0.000000000000000000, 1.000000000000000000 ) ) ;
#651 = AXIS2_PLACEMENT_3D ( 'NONE', #247, #379, #744 ) ;
#652 = DIRECTION ( 'NONE',  ( 1.000000000000000000, 0.000000000000000000, 0.000000000000000000 ) ) ;
#653 = VERTEX_POINT ( 'NONE', #495 ) ;
#654 = ORIENTED_EDGE ( 'NONE', *, *, #284, .T. ) ;
#655 = LINE ( 'NONE', #291, #636 ) ;
#656 = ORIENTED_EDGE ( 'NONE', *, *, #432, .T. ) ;
#657 = ORIENTED_EDGE ( 'NONE', *, *, #95, .T. ) ;
#658 = SHAPE_DEFINITION_REPRESENTATION ( #166, #362 ) ;
#659 = SURFACE_SIDE_STYLE ('',( #412 ) ) ;
#660 = EDGE_CURVE ( 'NONE', #509, #36, #355, .T. ) ;
#661 = DIRECTION ( 'NONE',  ( -1.000000000000000000, 0.000000000000000000, 0.000000000000000000 ) ) ;
#662 = ORIENTED_EDGE ( 'NONE', *, *, #740, .F. ) ;
#663 = PRESENTATION_STYLE_ASSIGNMENT (( #37 ) ) ;
#664 = AXIS2_PLACEMENT_3D ( 'NONE', #567, #682, #619 ) ;
#665 = DIRECTION ( 'NONE',  ( -0.000000000000000000, -0.000000000000000000, -1.000000000000000000 ) ) ;
#666 = VECTOR ( 'NONE', #242, 1000.000000000000000 ) ;
#667 = PRODUCT_DEFINITION ( 'General', '', #112, #722 ) ;
#668 = AXIS2_PLACEMENT_3D ( 'NONE', #514, #769, #522 ) ;
#669 = CARTESIAN_POINT ( 'NONE',  ( 15.99573168334696760, 4.286043386897754992, 3.000000000000000000 ) ) ;
#670 = ORIENTED_EDGE ( 'NONE', *, *, #162, .T. ) ;
#671 = DIRECTION ( 'NONE',  ( 1.000000000000000000, 9.762817048420159591E-17, 0.000000000000000000 ) ) ;
#672 = CARTESIAN_POINT ( 'NONE',  ( 0.000000000000000000, 0.000000000000000000, 1.600000000000000089 ) ) ;
#673 = CARTESIAN_POINT ( 'NONE',  ( 0.000000000000000000, 0.000000000000000000, 0.000000000000000000 ) ) ;
#674 = ADVANCED_FACE ( 'NONE', ( #374 ), #762, .F. ) ;
#675 = DIRECTION ( 'NONE',  ( -0.000000000000000000, -0.000000000000000000, -1.000000000000000000 ) ) ;
#676 = ORIENTED_EDGE ( 'NONE', *, *, #776, .T. ) ;
#677 = COLOUR_RGB ( '',0.7960784313725489669, 0.8235294117647058432, 0.9372549019607843146 ) ;
#678 = PRESENTATION_LAYER_ASSIGNMENT (  '', '', ( #690 ) ) ;
#679 = CARTESIAN_POINT ( 'NONE',  ( 11.61000000000000121, 2.843629867620153816E-15, 3.000000000000000000 ) ) ;
#680 = PLANE ( 'NONE',  #342 ) ;
#681 = ORIENTED_EDGE ( 'NONE', *, *, #309, .F. ) ;
#682 = DIRECTION ( 'NONE',  ( -0.000000000000000000, -0.000000000000000000, -1.000000000000000000 ) ) ;
#683 = ADVANCED_FACE ( 'NONE', ( #336 ), #695, .F. ) ;
#684 = ORIENTED_EDGE ( 'NONE', *, *, #87, .F. ) ;
#685 = DIRECTION ( 'NONE',  ( -0.000000000000000000, -0.000000000000000000, -1.000000000000000000 ) ) ;
#686 = CARTESIAN_POINT ( 'NONE',  ( -9.421118451725454770E-16, -9.650000000000000355, 1.600000000000000089 ) ) ;
#687 = CIRCLE ( 'NONE', #702, 1.631949998666401891 ) ;
#688 = EDGE_LOOP ( 'NONE', ( #163, #559, #216, #376 ) ) ;
#689 = AXIS2_PLACEMENT_3D ( 'NONE', #79, #577, #403 ) ;
#690 = STYLED_ITEM ( 'NONE', ( #663 ), #362 ) ;
#691 = LINE ( 'NONE', #618, #467 ) ;
#692 = FACE_OUTER_BOUND ( 'NONE', #582, .T. ) ;
#693 = EDGE_CURVE ( 'NONE', #267, #504, #461, .T. ) ;
#694 = ORIENTED_EDGE ( 'NONE', *, *, #331, .F. ) ;
#695 = PLANE ( 'NONE',  #405 ) ;
#696 = CARTESIAN_POINT ( 'NONE',  ( 0.000000000000000000, 0.000000000000000000, 3.000000000000000000 ) ) ;
#697 = ORIENTED_EDGE ( 'NONE', *, *, #576, .F. ) ;
#698 = DIRECTION ( 'NONE',  ( -0.000000000000000000, 0.000000000000000000, 1.000000000000000000 ) ) ;
#699 = EDGE_CURVE ( 'NONE', #151, #167, #484, .T. ) ;
#700 = FACE_OUTER_BOUND ( 'NONE', #320, .T. ) ;
#701 = VERTEX_POINT ( 'NONE', #592 ) ;
#702 = AXIS2_PLACEMENT_3D ( 'NONE', #543, #243, #483 ) ;
#703 = AXIS2_PLACEMENT_3D ( 'NONE', #215, #330, #157 ) ;
#704 = MECHANICAL_DESIGN_GEOMETRIC_PRESENTATION_REPRESENTATION (  '', ( #690 ), #83 ) ;
#705 = CARTESIAN_POINT ( 'NONE',  ( 0.000000000000000000, 0.000000000000000000, 3.000000000000000000 ) ) ;
#706 = DIRECTION ( 'NONE',  ( -1.000000000000000000, 0.000000000000000000, 0.000000000000000000 ) ) ;
#707 = VERTEX_POINT ( 'NONE', #214 ) ;
#708 = DIRECTION ( 'NONE',  ( -0.000000000000000000, -0.000000000000000000, -1.000000000000000000 ) ) ;
#709 = CARTESIAN_POINT ( 'NONE',  ( -13.45775241264305677, 9.649999999999998579, 3.000000000000000000 ) ) ;
#710 = ORIENTED_EDGE ( 'NONE', *, *, #197, .T. ) ;
#711 = EDGE_CURVE ( 'NONE', #267, #474, #719, .T. ) ;
#712 = ORIENTED_EDGE ( 'NONE', *, *, #463, .F. ) ;
#713 = CARTESIAN_POINT ( 'NONE',  ( -20.21999999999999176, -1.769585772187639128, 2.451817167789310581 ) ) ;
#714 = CARTESIAN_POINT ( 'NONE',  ( -11.60999999999999766, 0.000000000000000000, 3.000000000000000000 ) ) ;
#715 = ORIENTED_EDGE ( 'NONE', *, *, #740, .T. ) ;
#716 = AXIS2_PLACEMENT_3D ( 'NONE', #70, #492, #260 ) ;
#717 = ORIENTED_EDGE ( 'NONE', *, *, #446, .T. ) ;
#718 =( NAMED_UNIT ( * ) SI_UNIT ( $, .STERADIAN. ) SOLID_ANGLE_UNIT ( ) );
#719 = CIRCLE ( 'NONE', #367, 16.55999999999999872 ) ;
#720 = CARTESIAN_POINT ( 'NONE',  ( 11.61000000000000121, 2.843629867620153816E-15, 3.000000000000000000 ) ) ;
#721 = VERTEX_POINT ( 'NONE', #207 ) ;
#722 = PRODUCT_DEFINITION_CONTEXT ( 'detailed design', #99, 'design' ) ;
#723 = EDGE_LOOP ( 'NONE', ( #662, #229, #270, #261, #771, #64 ) ) ;
#724 =( NAMED_UNIT ( * ) PLANE_ANGLE_UNIT ( ) SI_UNIT ( $, .RADIAN. ) );
#725 = EDGE_CURVE ( 'NONE', #381, #457, #346, .T. ) ;
#726 = CARTESIAN_POINT ( 'NONE',  ( -13.24194999866639932, 0.000000000000000000, 3.000000000000000000 ) ) ;
#727 = DIRECTION ( 'NONE',  ( -0.000000000000000000, -0.000000000000000000, -1.000000000000000000 ) ) ;
#728 = EDGE_LOOP ( 'NONE', ( #20, #158, #793, #35 ) ) ;
#729 = DIRECTION ( 'NONE',  ( -0.000000000000000000, 0.000000000000000000, 1.000000000000000000 ) ) ;
#730 = CARTESIAN_POINT ( 'NONE',  ( -15.99573168334696760, -4.286043386897756768, 3.000000000000000000 ) ) ;
#731 = ORIENTED_EDGE ( 'NONE', *, *, #601, .F. ) ;
#732 = DIRECTION ( 'NONE',  ( 1.000000000000000000, 0.000000000000000000, 0.000000000000000000 ) ) ;
#733 = VECTOR ( 'NONE', #380, 1000.000000000000000 ) ;
#734 = CARTESIAN_POINT ( 'NONE',  ( 2.244897367846220041E-16, -8.378071034579708211E-16, 3.000000000000000000 ) ) ;
#735 = VECTOR ( 'NONE', #644, 1000.000000000000000 ) ;
#736 = DIRECTION ( 'NONE',  ( 1.000000000000000000, 0.000000000000000000, 0.000000000000000000 ) ) ;
#737 = ORIENTED_EDGE ( 'NONE', *, *, #601, .T. ) ;
#738 = LINE ( 'NONE', #178, #295 ) ;
#739 = EDGE_LOOP ( 'NONE', ( #71, #349, #407, #176 ) ) ;
#740 = EDGE_CURVE ( 'NONE', #634, #155, #76, .T. ) ;
#741 = CARTESIAN_POINT ( 'NONE',  ( 2.244897367846220041E-16, -8.378071034579708211E-16, 3.000000000000000000 ) ) ;
#742 = DIRECTION ( 'NONE',  ( -0.000000000000000000, 0.000000000000000000, 1.000000000000000000 ) ) ;
#743 = UNCERTAINTY_MEASURE_WITH_UNIT (LENGTH_MEASURE( 1.000000000000000082E-05 ), #48, 'distance_accuracy_value', 'NONE');
#744 = DIRECTION ( 'NONE',  ( 1.000000000000000000, 0.000000000000000000, 0.000000000000000000 ) ) ;
#745 = VECTOR ( 'NONE', #759, 1000.000000000000000 ) ;
#746 = AXIS2_PLACEMENT_3D ( 'NONE', #789, #729, #171 ) ;
#747 = DIRECTION ( 'NONE',  ( 0.5999999999999990896, 7.347880794884107903E-17, -0.8000000000000005995 ) ) ;
#748 = CIRCLE ( 'NONE', #668, 3.131949998666408330 ) ;
#749 = ADVANCED_FACE ( 'NONE', ( #77, #402, #27, #327 ), #574, .T. ) ;
#750 = DIRECTION ( 'NONE',  ( -1.000000000000000000, 0.000000000000000000, 0.000000000000000000 ) ) ;
#751 = EDGE_CURVE ( 'NONE', #401, #457, #391, .T. ) ;
#752 = CARTESIAN_POINT ( 'NONE',  ( -9.421118451725454770E-16, -9.650000000000000355, 3.000000000000000000 ) ) ;
#753 = ORIENTED_EDGE ( 'NONE', *, *, #711, .T. ) ;
#754 = CARTESIAN_POINT ( 'NONE',  ( -16.55999999999999872, 0.000000000000000000, 3.000000000000000000 ) ) ;
#755 = CARTESIAN_POINT ( 'NONE',  ( -7.774999999999998579, 0.000000000000000000, 3.000000000000000000 ) ) ;
#756 = EDGE_LOOP ( 'NONE', ( #568, #676, #50, #8, #75, #280 ) ) ;
#757 = CARTESIAN_POINT ( 'NONE',  ( -7.774999999999998579, 0.000000000000000000, 3.000000000000000000 ) ) ;
#758 = EDGE_CURVE ( 'NONE', #401, #421, #447, .T. ) ;
#759 = DIRECTION ( 'NONE',  ( -0.000000000000000000, -0.000000000000000000, -1.000000000000000000 ) ) ;
#760 = VECTOR ( 'NONE', #747, 1000.000000000000114 ) ;
#761 = ORIENTED_EDGE ( 'NONE', *, *, #787, .T. ) ;
#762 = CONICAL_SURFACE ( 'NONE', #82, 3.131949998666408330, 0.6435011087932833718 ) ;
#763 = DIRECTION ( 'NONE',  ( 1.000000000000000000, 0.000000000000000000, 0.000000000000000000 ) ) ;
#764 = DIRECTION ( 'NONE',  ( 1.000000000000000000, 0.000000000000000000, 0.000000000000000000 ) ) ;
#765 = ORIENTED_EDGE ( 'NONE', *, *, #162, .F. ) ;
#766 = EDGE_CURVE ( 'NONE', #578, #365, #518, .T. ) ;
#767 = CARTESIAN_POINT ( 'NONE',  ( 14.74194999866640821, 3.227183121715790950E-15, 0.000000000000000000 ) ) ;
#768 = ORIENTED_EDGE ( 'NONE', *, *, #339, .T. ) ;
#769 = DIRECTION ( 'NONE',  ( -0.000000000000000000, 0.000000000000000000, 1.000000000000000000 ) ) ;
#770 = CARTESIAN_POINT ( 'NONE',  ( 0.000000000000000000, 0.000000000000000000, 3.000000000000000000 ) ) ;
#771 = ORIENTED_EDGE ( 'NONE', *, *, #503, .F. ) ;
#772 = CLOSED_SHELL ( 'NONE', ( #674, #306, #594, #639, #256, #579, #616, #413, #115, #610, #296, #145, #428, #12, #123, #311, #749, #40, #187, #513, #551, #363, #21, #683 ) ) ;
#773 =( GEOMETRIC_REPRESENTATION_CONTEXT ( 3 ) GLOBAL_UNCERTAINTY_ASSIGNED_CONTEXT ( ( #743 ) ) GLOBAL_UNIT_ASSIGNED_CONTEXT ( ( #48, #599, #180 ) ) REPRESENTATION_CONTEXT ( 'NONE', 'WORKASPACE' ) );
#774 = CARTESIAN_POINT ( 'NONE',  ( 19.53102020756496060, 5.233321091972984895, 3.000000000000000000 ) ) ;
#775 = FACE_OUTER_BOUND ( 'NONE', #93, .T. ) ;
#776 = EDGE_CURVE ( 'NONE', #314, #434, #604, .T. ) ;
#777 = ORIENTED_EDGE ( 'NONE', *, *, #803, .T. ) ;
#778 = CARTESIAN_POINT ( 'NONE',  ( -16.37083165349697467, -2.886151240380355087, 2.774557223088315094 ) ) ;
#779 = DIRECTION ( 'NONE',  ( -0.000000000000000000, 0.000000000000000000, 1.000000000000000000 ) ) ;
#780 = VERTEX_POINT ( 'NONE', #204 ) ;
#781 = CYLINDRICAL_SURFACE ( 'NONE', #159, 16.55999999999999872 ) ;
#782 = ORIENTED_EDGE ( 'NONE', *, *, #494, .T. ) ;
#783 = CIRCLE ( 'NONE', #794, 20.21999999999999886 ) ;
#784 = VECTOR ( 'NONE', #208, 1000.000000000000000 ) ;
#785 = CARTESIAN_POINT ( 'NONE',  ( 7.774999999999998579, 9.521628863370669207E-16, 3.000000000000000000 ) ) ;
#786 = FACE_OUTER_BOUND ( 'NONE', #179, .T. ) ;
#787 = EDGE_CURVE ( 'NONE', #167, #151, #748, .T. ) ;
#788 = ORIENTED_EDGE ( 'NONE', *, *, #503, .T. ) ;
#789 = CARTESIAN_POINT ( 'NONE',  ( 0.000000000000000000, 0.000000000000000000, 1.600000000000000089 ) ) ;
#790 = ORIENTED_EDGE ( 'NONE', *, *, #603, .F. ) ;
#791 = CARTESIAN_POINT ( 'NONE',  ( 0.000000000000000000, 0.000000000000000000, 3.000000000000000000 ) ) ;
#792 = CARTESIAN_POINT ( 'NONE',  ( 0.000000000000000000, 0.000000000000000000, 3.000000000000000000 ) ) ;
#793 = ORIENTED_EDGE ( 'NONE', *, *, #787, .F. ) ;
#794 = AXIS2_PLACEMENT_3D ( 'NONE', #792, #119, #425 ) ;
#795 = DIRECTION ( 'NONE',  ( -0.000000000000000000, -0.000000000000000000, -1.000000000000000000 ) ) ;
#796 = VECTOR ( 'NONE', #569, 1000.000000000000000 ) ;
#797 = AXIS2_PLACEMENT_3D ( 'NONE', #411, #241, #732 ) ;
#798 = EDGE_CURVE ( 'NONE', #721, #524, #210, .T. ) ;
#799 = CARTESIAN_POINT ( 'NONE',  ( 0.000000000000000000, 0.000000000000000000, 3.000000000000000000 ) ) ;
#800 = DIRECTION ( 'NONE',  ( 1.000000000000000000, 0.000000000000000000, 0.000000000000000000 ) ) ;
#801 = DIRECTION ( 'NONE',  ( -0.03978230059144272773, 0.1484695670492412467, 0.9881164689548813662 ) ) ;
#802 = CYLINDRICAL_SURFACE ( 'NONE', #55, 16.55999999999999872 ) ;
#803 = EDGE_CURVE ( 'NONE', #504, #500, #430, .T. ) ;
#804 = EDGE_CURVE ( 'NONE', #653, #388, #281, .T. ) ;
#805 = PLANE ( 'NONE',  #109 ) ;
#806 = CIRCLE ( 'NONE', #441, 7.774999999999998579 ) ;
ENDSEC;
END-ISO-10303-21;
