ISO-10303-21;
HEADER;
FILE_DESCRIPTION (( 'STEP AP214' ),
    '1' );
FILE_NAME ('Part2^V5 ass.STEP',
    '2026-07-06T21:55:17',
    ( '' ),
    ( '' ),
    'SwSTEP 2.0',
    'SolidWorks 2025',
    '' );
FILE_SCHEMA (( 'AUTOMOTIVE_DESIGN' ));
ENDSEC;

DATA;
#1 = EDGE_CURVE ( 'NONE', #98, #521, #121, .T. ) ;
#2 = EDGE_CURVE ( 'NONE', #311, #87, #440, .T. ) ;
#3 = PLANE ( 'NONE',  #265 ) ;
#4 = ORIENTED_EDGE ( 'NONE', *, *, #67, .T. ) ;
#5 = VECTOR ( 'NONE', #459, 1000.000000000000000 ) ;
#6 = PLANE ( 'NONE',  #14 ) ;
#7 = VECTOR ( 'NONE', #400, 1000.000000000000000 ) ;
#8 = DIRECTION ( 'NONE',  ( 0.000000000000000000, 0.000000000000000000, 1.000000000000000000 ) ) ;
#9 = ORIENTED_EDGE ( 'NONE', *, *, #515, .T. ) ;
#10 = CARTESIAN_POINT ( 'NONE',  ( -0.000000000000000000, -9.477481474720075738, -33.00000000000000000 ) ) ;
#11 = ORIENTED_EDGE ( 'NONE', *, *, #2, .F. ) ;
#12 = PLANE ( 'NONE',  #426 ) ;
#13 = VERTEX_POINT ( 'NONE', #75 ) ;
#14 = AXIS2_PLACEMENT_3D ( 'NONE', #130, #404, #357 ) ;
#15 = FACE_OUTER_BOUND ( 'NONE', #437, .T. ) ;
#16 = EDGE_LOOP ( 'NONE', ( #49, #420, #127, #569 ) ) ;
#17 = CARTESIAN_POINT ( 'NONE',  ( 0.000000000000000000, -25.47748147472007574, -33.00000000000000000 ) ) ;
#18 = ORIENTED_EDGE ( 'NONE', *, *, #399, .T. ) ;
#19 = CARTESIAN_POINT ( 'NONE',  ( 0.000000000000000000, 0.000000000000000000, 0.000000000000000000 ) ) ;
#20 = CARTESIAN_POINT ( 'NONE',  ( -0.000000000000000000, -9.477481474720075738, 0.000000000000000000 ) ) ;
#21 = ORIENTED_EDGE ( 'NONE', *, *, #562, .T. ) ;
#22 = VECTOR ( 'NONE', #305, 1000.000000000000000 ) ;
#23 = LINE ( 'NONE', #587, #584 ) ;
#24 = ORIENTED_EDGE ( 'NONE', *, *, #168, .T. ) ;
#25 = EDGE_CURVE ( 'NONE', #187, #335, #79, .T. ) ;
#26 = VECTOR ( 'NONE', #550, 1000.000000000000000 ) ;
#27 = DIRECTION ( 'NONE',  ( -0.000000000000000000, 0.000000000000000000, 1.000000000000000000 ) ) ;
#28 = DIRECTION ( 'NONE',  ( -0.000000000000000000, -0.000000000000000000, 1.000000000000000000 ) ) ;
#29 = ADVANCED_FACE ( 'NONE', ( #77 ), #540, .F. ) ;
#30 = DIRECTION ( 'NONE',  ( 0.000000000000000000, 1.000000000000000000, -0.000000000000000000 ) ) ;
#31 = FACE_OUTER_BOUND ( 'NONE', #274, .T. ) ;
#32 = VERTEX_POINT ( 'NONE', #536 ) ;
#33 = CARTESIAN_POINT ( 'NONE',  ( -39.75000000000000711, 0.000000000000000000, -33.00000000000000000 ) ) ;
#34 = CARTESIAN_POINT ( 'NONE',  ( -39.75000000000000711, -9.477481474720075738, 0.000000000000000000 ) ) ;
#35 = ORIENTED_EDGE ( 'NONE', *, *, #313, .F. ) ;
#36 = PRESENTATION_LAYER_ASSIGNMENT (  '', '', ( #128 ) ) ;
#37 = CARTESIAN_POINT ( 'NONE',  ( -38.25000000000000711, -24.97748147472007574, -1.500000000000000000 ) ) ;
#38 =( LENGTH_UNIT ( ) NAMED_UNIT ( * ) SI_UNIT ( .MILLI., .METRE. ) );
#39 = LINE ( 'NONE', #322, #480 ) ;
#40 = DIRECTION ( 'NONE',  ( 0.000000000000000000, -1.000000000000000000, 0.000000000000000000 ) ) ;
#41 = EDGE_CURVE ( 'NONE', #456, #472, #261, .T. ) ;
#42 = ORIENTED_EDGE ( 'NONE', *, *, #174, .F. ) ;
#43 = CARTESIAN_POINT ( 'NONE',  ( -65.75000000000000000, 0.000000000000000000, -1.500000000000000000 ) ) ;
#44 = ADVANCED_FACE ( 'NONE', ( #31 ), #303, .F. ) ;
#45 = VERTEX_POINT ( 'NONE', #445 ) ;
#46 = CLOSED_SHELL ( 'NONE', ( #469, #428, #278, #537, #214, #91, #494, #258, #430, #381, #496, #558, #450, #344, #90, #29, #129, #44 ) ) ;
#47 = DIRECTION ( 'NONE',  ( -0.000000000000000000, 0.000000000000000000, 1.000000000000000000 ) ) ;
#48 = DIRECTION ( 'NONE',  ( -0.000000000000000000, 0.000000000000000000, 1.000000000000000000 ) ) ;
#49 = ORIENTED_EDGE ( 'NONE', *, *, #535, .T. ) ;
#50 = EDGE_CURVE ( 'NONE', #567, #521, #580, .T. ) ;
#51 = EDGE_CURVE ( 'NONE', #139, #13, #83, .T. ) ;
#52 = LINE ( 'NONE', #131, #7 ) ;
#53 = VERTEX_POINT ( 'NONE', #34 ) ;
#54 = DIRECTION ( 'NONE',  ( 0.000000000000000000, -1.000000000000000000, 0.000000000000000000 ) ) ;
#55 = VERTEX_POINT ( 'NONE', #396 ) ;
#56 = VECTOR ( 'NONE', #217, 1000.000000000000000 ) ;
#57 = LINE ( 'NONE', #10, #377 ) ;
#58 = EDGE_LOOP ( 'NONE', ( #183, #523, #247, #233, #373, #192, #241, #495 ) ) ;
#59 = CARTESIAN_POINT ( 'NONE',  ( -39.75000000000000711, -9.477481474720075738, -33.00000000000000000 ) ) ;
#60 = EDGE_LOOP ( 'NONE', ( #304, #526, #270, #564 ) ) ;
#61 = DIRECTION ( 'NONE',  ( -1.000000000000000000, 0.000000000000000000, 0.000000000000000000 ) ) ;
#62 = EDGE_LOOP ( 'NONE', ( #151, #474, #446, #288 ) ) ;
#63 = VECTOR ( 'NONE', #470, 1000.000000000000000 ) ;
#64 = LINE ( 'NONE', #571, #236 ) ;
#65 = ORIENTED_EDGE ( 'NONE', *, *, #174, .T. ) ;
#66 = PRODUCT_RELATED_PRODUCT_CATEGORY ( 'part', '', ( #235 ) ) ;
#67 = EDGE_CURVE ( 'NONE', #170, #32, #588, .T. ) ;
#68 = FACE_OUTER_BOUND ( 'NONE', #529, .T. ) ;
#69 = ORIENTED_EDGE ( 'NONE', *, *, #448, .T. ) ;
#70 = EDGE_CURVE ( 'NONE', #329, #139, #125, .T. ) ;
#71 = DIRECTION ( 'NONE',  ( 0.000000000000000000, 0.000000000000000000, 1.000000000000000000 ) ) ;
#72 = ORIENTED_EDGE ( 'NONE', *, *, #353, .F. ) ;
#73 = VECTOR ( 'NONE', #302, 1000.000000000000000 ) ;
#74 = CARTESIAN_POINT ( 'NONE',  ( -38.25000000000000711, -24.97748147472007574, -31.50000000000000000 ) ) ;
#75 = CARTESIAN_POINT ( 'NONE',  ( -37.75000000000000711, -25.47748147472007574, 0.000000000000000000 ) ) ;
#76 = PLANE ( 'NONE',  #354 ) ;
#77 = FACE_OUTER_BOUND ( 'NONE', #365, .T. ) ;
#78 = FACE_OUTER_BOUND ( 'NONE', #576, .T. ) ;
#79 = LINE ( 'NONE', #218, #586 ) ;
#80 = ORIENTED_EDGE ( 'NONE', *, *, #197, .T. ) ;
#81 = DIRECTION ( 'NONE',  ( 0.000000000000000000, 0.000000000000000000, 1.000000000000000000 ) ) ;
#82 = VECTOR ( 'NONE', #463, 1000.000000000000000 ) ;
#83 = LINE ( 'NONE', #578, #319 ) ;
#84 = ORIENTED_EDGE ( 'NONE', *, *, #595, .F. ) ;
#85 = LINE ( 'NONE', #268, #552 ) ;
#86 = LINE ( 'NONE', #43, #286 ) ;
#87 = VERTEX_POINT ( 'NONE', #306 ) ;
#88 = MANIFOLD_SOLID_BREP ( 'Cut-Extrude1', #46 ) ;
#89 = DIRECTION ( 'NONE',  ( -1.000000000000000000, 0.000000000000000000, 0.000000000000000000 ) ) ;
#90 = ADVANCED_FACE ( 'NONE', ( #455 ), #388, .T. ) ;
#91 = ADVANCED_FACE ( 'NONE', ( #585 ), #3, .F. ) ;
#92 = VERTEX_POINT ( 'NONE', #186 ) ;
#93 = PRODUCT_DEFINITION_FORMATION_WITH_SPECIFIED_SOURCE ( 'Symmetric', '', #235, .NOT_KNOWN. ) ;
#94 = CARTESIAN_POINT ( 'NONE',  ( -37.75000000000000711, 0.000000000000000000, -33.00000000000000000 ) ) ;
#95 = VERTEX_POINT ( 'NONE', #501 ) ;
#96 =( NAMED_UNIT ( * ) SI_UNIT ( $, .STERADIAN. ) SOLID_ANGLE_UNIT ( ) );
#97 = CARTESIAN_POINT ( 'NONE',  ( 0.000000000000000000, -9.477481474720075738, -33.00000000000000000 ) ) ;
#98 = VERTEX_POINT ( 'NONE', #283 ) ;
#99 = DIRECTION ( 'NONE',  ( 0.000000000000000000, 0.000000000000000000, 1.000000000000000000 ) ) ;
#100 = VERTEX_POINT ( 'NONE', #593 ) ;
#101 = VECTOR ( 'NONE', #358, 1000.000000000000000 ) ;
#102 = CARTESIAN_POINT ( 'NONE',  ( 0.000000000000000000, -23.47748147472007219, -33.00000000000000000 ) ) ;
#103 = ORIENTED_EDGE ( 'NONE', *, *, #361, .F. ) ;
#104 = SHAPE_DEFINITION_REPRESENTATION ( #309, #188 ) ;
#105 = DIRECTION ( 'NONE',  ( 0.000000000000000000, 0.000000000000000000, 1.000000000000000000 ) ) ;
#106 = ORIENTED_EDGE ( 'NONE', *, *, #454, .F. ) ;
#107 = CARTESIAN_POINT ( 'NONE',  ( -65.25000000000000000, -24.97748147472007574, -31.50000000000000000 ) ) ;
#108 = EDGE_CURVE ( 'NONE', #100, #267, #86, .T. ) ;
#109 = EDGE_LOOP ( 'NONE', ( #106, #517, #432, #464 ) ) ;
#110 = EDGE_CURVE ( 'NONE', #55, #95, #415, .T. ) ;
#111 = PRESENTATION_LAYER_ASSIGNMENT (  '', '', ( #338 ) ) ;
#112 = DIRECTION ( 'NONE',  ( 0.000000000000000000, 0.000000000000000000, 1.000000000000000000 ) ) ;
#113 = ORIENTED_EDGE ( 'NONE', *, *, #443, .T. ) ;
#114 = LINE ( 'NONE', #483, #284 ) ;
#115 = ORIENTED_EDGE ( 'NONE', *, *, #478, .T. ) ;
#116 = CARTESIAN_POINT ( 'NONE',  ( -37.75000000000000711, 0.000000000000000000, -33.00000000000000000 ) ) ;
#117 = UNCERTAINTY_MEASURE_WITH_UNIT (LENGTH_MEASURE( 1.000000000000000082E-05 ), #38, 'distance_accuracy_value', 'NONE');
#118 = DIRECTION ( 'NONE',  ( 0.000000000000000000, -0.000000000000000000, -1.000000000000000000 ) ) ;
#119 = VECTOR ( 'NONE', #590, 1000.000000000000000 ) ;
#120 = DIRECTION ( 'NONE',  ( -1.000000000000000000, 0.000000000000000000, 0.000000000000000000 ) ) ;
#121 = LINE ( 'NONE', #298, #307 ) ;
#122 = CARTESIAN_POINT ( 'NONE',  ( -63.75000000000000000, 0.000000000000000000, 0.000000000000000000 ) ) ;
#123 = DIRECTION ( 'NONE',  ( -0.000000000000000000, 0.000000000000000000, 1.000000000000000000 ) ) ;
#124 = FACE_OUTER_BOUND ( 'NONE', #60, .T. ) ;
#125 = LINE ( 'NONE', #173, #573 ) ;
#126 =( NAMED_UNIT ( * ) PLANE_ANGLE_UNIT ( ) SI_UNIT ( $, .RADIAN. ) );
#127 = ORIENTED_EDGE ( 'NONE', *, *, #50, .F. ) ;
#128 = STYLED_ITEM ( 'NONE', ( #392 ), #88 ) ;
#129 = ADVANCED_FACE ( 'NONE', ( #221 ), #317, .T. ) ;
#130 = CARTESIAN_POINT ( 'NONE',  ( -65.75000000000000000, 0.000000000000000000, -33.00000000000000000 ) ) ;
#131 = CARTESIAN_POINT ( 'NONE',  ( -39.75000000000000711, -23.47748147472007219, -33.00000000000000000 ) ) ;
#132 = ORIENTED_EDGE ( 'NONE', *, *, #562, .F. ) ;
#133 = EDGE_CURVE ( 'NONE', #427, #598, #356, .T. ) ;
#134 = DIRECTION ( 'NONE',  ( 0.000000000000000000, 0.000000000000000000, 1.000000000000000000 ) ) ;
#135 = ORIENTED_EDGE ( 'NONE', *, *, #478, .F. ) ;
#136 = CARTESIAN_POINT ( 'NONE',  ( -37.75000000000000711, -9.477481474720075738, -31.50000000000000000 ) ) ;
#137 = CARTESIAN_POINT ( 'NONE',  ( -63.75000000000000000, -23.47748147472007219, -33.00000000000000000 ) ) ;
#138 = VECTOR ( 'NONE', #161, 1000.000000000000000 ) ;
#139 = VERTEX_POINT ( 'NONE', #543 ) ;
#140 = AXIS2_PLACEMENT_3D ( 'NONE', #164, #343, #118 ) ;
#141 =( NAMED_UNIT ( * ) PLANE_ANGLE_UNIT ( ) SI_UNIT ( $, .RADIAN. ) );
#142 = DIRECTION ( 'NONE',  ( -1.000000000000000000, 0.000000000000000000, 0.000000000000000000 ) ) ;
#143 = ORIENTED_EDGE ( 'NONE', *, *, #581, .T. ) ;
#144 = CARTESIAN_POINT ( 'NONE',  ( 0.000000000000000000, -24.97748147472007574, -31.50000000000000000 ) ) ;
#145 = ORIENTED_EDGE ( 'NONE', *, *, #168, .F. ) ;
#146 = DIRECTION ( 'NONE',  ( 0.000000000000000000, 0.000000000000000000, 1.000000000000000000 ) ) ;
#147 = LINE ( 'NONE', #336, #525 ) ;
#148 = ORIENTED_EDGE ( 'NONE', *, *, #401, .F. ) ;
#149 = VECTOR ( 'NONE', #509, 1000.000000000000000 ) ;
#150 = DIRECTION ( 'NONE',  ( 0.000000000000000000, 0.000000000000000000, 1.000000000000000000 ) ) ;
#151 = ORIENTED_EDGE ( 'NONE', *, *, #549, .F. ) ;
#152 = EDGE_CURVE ( 'NONE', #311, #456, #177, .T. ) ;
#153 = DIRECTION ( 'NONE',  ( 0.000000000000000000, -1.000000000000000000, 0.000000000000000000 ) ) ;
#154 = EDGE_CURVE ( 'NONE', #462, #484, #52, .T. ) ;
#155 = EDGE_LOOP ( 'NONE', ( #370, #547, #538, #572 ) ) ;
#156 = APPLICATION_PROTOCOL_DEFINITION ( 'draft international standard', 'automotive_design', 1998, #185 ) ;
#157 = CARTESIAN_POINT ( 'NONE',  ( -65.75000000000000000, 0.000000000000000000, -31.50000000000000000 ) ) ;
#158 = ORIENTED_EDGE ( 'NONE', *, *, #1, .F. ) ;
#159 = VECTOR ( 'NONE', #28, 1000.000000000000000 ) ;
#160 = VECTOR ( 'NONE', #225, 1000.000000000000000 ) ;
#161 = DIRECTION ( 'NONE',  ( 1.000000000000000000, 0.000000000000000000, 0.000000000000000000 ) ) ;
#162 = ORIENTED_EDGE ( 'NONE', *, *, #67, .F. ) ;
#163 = CARTESIAN_POINT ( 'NONE',  ( -63.75000000000000000, 0.000000000000000000, -33.00000000000000000 ) ) ;
#164 = CARTESIAN_POINT ( 'NONE',  ( 0.000000000000000000, -24.97748147472007574, -31.50000000000000000 ) ) ;
#165 = LINE ( 'NONE', #345, #514 ) ;
#166 = CARTESIAN_POINT ( 'NONE',  ( -0.000000000000000000, -25.47748147472007574, -33.00000000000000000 ) ) ;
#167 = VECTOR ( 'NONE', #519, 1000.000000000000000 ) ;
#168 = EDGE_CURVE ( 'NONE', #213, #92, #269, .T. ) ;
#169 = LINE ( 'NONE', #351, #176 ) ;
#170 = VERTEX_POINT ( 'NONE', #232 ) ;
#171 = LINE ( 'NONE', #439, #393 ) ;
#172 = PRODUCT_DEFINITION ( 'General', '', #93, #553 ) ;
#173 = CARTESIAN_POINT ( 'NONE',  ( -37.75000000000000711, -9.477481474720075738, -33.00000000000000000 ) ) ;
#174 = EDGE_CURVE ( 'NONE', #53, #484, #457, .T. ) ;
#175 = PLANE ( 'NONE',  #565 ) ;
#176 = VECTOR ( 'NONE', #297, 1000.000000000000000 ) ;
#177 = LINE ( 'NONE', #310, #82 ) ;
#178 = VECTOR ( 'NONE', #273, 1000.000000000000000 ) ;
#179 = CARTESIAN_POINT ( 'NONE',  ( -65.25000000000000000, 0.000000000000000000, -1.500000000000000000 ) ) ;
#180 = EDGE_LOOP ( 'NONE', ( #132, #143, #4, #84, #148, #200, #69, #406 ) ) ;
#181 = FACE_OUTER_BOUND ( 'NONE', #180, .T. ) ;
#182 = DIRECTION ( 'NONE',  ( 1.000000000000000000, 0.000000000000000000, 0.000000000000000000 ) ) ;
#183 = ORIENTED_EDGE ( 'NONE', *, *, #361, .T. ) ;
#184 = CARTESIAN_POINT ( 'NONE',  ( -0.000000000000000000, -9.477481474720075738, -33.00000000000000000 ) ) ;
#185 = APPLICATION_CONTEXT ( 'automotive_design' ) ;
#186 = CARTESIAN_POINT ( 'NONE',  ( -65.25000000000000000, -24.97748147472007574, -1.500000000000000000 ) ) ;
#187 = VERTEX_POINT ( 'NONE', #229 ) ;
#188 = ADVANCED_BREP_SHAPE_REPRESENTATION ( 'Part2^V5 ass', ( #88, #418 ), #196 ) ;
#189 = CARTESIAN_POINT ( 'NONE',  ( -37.75000000000000711, -9.477481474720075738, -33.00000000000000000 ) ) ;
#190 = ORIENTED_EDGE ( 'NONE', *, *, #448, .F. ) ;
#191 = DIRECTION ( 'NONE',  ( -0.000000000000000000, -0.000000000000000000, 1.000000000000000000 ) ) ;
#192 = ORIENTED_EDGE ( 'NONE', *, *, #383, .T. ) ;
#193 = PRODUCT_CONTEXT ( 'NONE', #185, 'mechanical' ) ;
#194 = CARTESIAN_POINT ( 'NONE',  ( -65.75000000000000000, -25.47748147472007574, -31.50000000000000000 ) ) ;
#195 = ORIENTED_EDGE ( 'NONE', *, *, #582, .F. ) ;
#196 =( GEOMETRIC_REPRESENTATION_CONTEXT ( 3 ) GLOBAL_UNCERTAINTY_ASSIGNED_CONTEXT ( ( #360 ) ) GLOBAL_UNIT_ASSIGNED_CONTEXT ( ( #220, #141, #96 ) ) REPRESENTATION_CONTEXT ( 'NONE', 'WORKASPACE' ) );
#197 = EDGE_CURVE ( 'NONE', #329, #87, #556, .T. ) ;
#198 = EDGE_CURVE ( 'NONE', #409, #53, #411, .T. ) ;
#199 = CARTESIAN_POINT ( 'NONE',  ( -65.75000000000000000, -25.47748147472007574, -1.500000000000000000 ) ) ;
#200 = ORIENTED_EDGE ( 'NONE', *, *, #313, .T. ) ;
#201 = LINE ( 'NONE', #431, #138 ) ;
#202 = ORIENTED_EDGE ( 'NONE', *, *, #401, .T. ) ;
#203 = CARTESIAN_POINT ( 'NONE',  ( 0.000000000000000000, -25.47748147472007574, -31.50000000000000000 ) ) ;
#204 = ORIENTED_EDGE ( 'NONE', *, *, #320, .F. ) ;
#205 = AXIS2_PLACEMENT_3D ( 'NONE', #102, #287, #473 ) ;
#206 =( GEOMETRIC_REPRESENTATION_CONTEXT ( 3 ) GLOBAL_UNCERTAINTY_ASSIGNED_CONTEXT ( ( #117 ) ) GLOBAL_UNIT_ASSIGNED_CONTEXT ( ( #38, #348, #542 ) ) REPRESENTATION_CONTEXT ( 'NONE', 'WORKASPACE' ) );
#207 = DIRECTION ( 'NONE',  ( 0.000000000000000000, 0.000000000000000000, 1.000000000000000000 ) ) ;
#208 = SURFACE_STYLE_USAGE ( .BOTH. , #212 ) ;
#209 = FACE_OUTER_BOUND ( 'NONE', #315, .T. ) ;
#210 = CARTESIAN_POINT ( 'NONE',  ( -65.75000000000000000, -9.477481474720075738, -33.00000000000000000 ) ) ;
#211 = DIRECTION ( 'NONE',  ( 0.000000000000000000, 0.000000000000000000, 1.000000000000000000 ) ) ;
#212 = SURFACE_SIDE_STYLE ('',( #491 ) ) ;
#213 = VERTEX_POINT ( 'NONE', #408 ) ;
#214 = ADVANCED_FACE ( 'NONE', ( #323 ), #281, .T. ) ;
#215 = VECTOR ( 'NONE', #61, 1000.000000000000000 ) ;
#216 = EDGE_CURVE ( 'NONE', #87, #472, #597, .T. ) ;
#217 = DIRECTION ( 'NONE',  ( 0.000000000000000000, -1.000000000000000000, 0.000000000000000000 ) ) ;
#218 = CARTESIAN_POINT ( 'NONE',  ( -65.75000000000000000, 0.000000000000000000, 0.000000000000000000 ) ) ;
#219 = ORIENTED_EDGE ( 'NONE', *, *, #41, .F. ) ;
#220 =( LENGTH_UNIT ( ) NAMED_UNIT ( * ) SI_UNIT ( .MILLI., .METRE. ) );
#221 = FACE_OUTER_BOUND ( 'NONE', #58, .T. ) ;
#222 = ORIENTED_EDGE ( 'NONE', *, *, #476, .F. ) ;
#223 = FILL_AREA_STYLE_COLOUR ( '', #367 ) ;
#224 = VECTOR ( 'NONE', #479, 1000.000000000000000 ) ;
#225 = DIRECTION ( 'NONE',  ( 0.000000000000000000, -1.000000000000000000, 0.000000000000000000 ) ) ;
#226 = ORIENTED_EDGE ( 'NONE', *, *, #198, .T. ) ;
#227 = EDGE_CURVE ( 'NONE', #45, #598, #314, .T. ) ;
#228 = APPLICATION_CONTEXT ( 'automotive_design' ) ;
#229 = CARTESIAN_POINT ( 'NONE',  ( -65.75000000000000000, -9.477481474720075738, 0.000000000000000000 ) ) ;
#230 = ORIENTED_EDGE ( 'NONE', *, *, #198, .F. ) ;
#231 =( LENGTH_UNIT ( ) NAMED_UNIT ( * ) SI_UNIT ( .MILLI., .METRE. ) );
#232 = CARTESIAN_POINT ( 'NONE',  ( -37.75000000000000711, -25.47748147472007574, -33.00000000000000000 ) ) ;
#233 = ORIENTED_EDGE ( 'NONE', *, *, #443, .F. ) ;
#234 = DIRECTION ( 'NONE',  ( 0.000000000000000000, 0.000000000000000000, 1.000000000000000000 ) ) ;
#235 = PRODUCT ( 'Part2^V5 ass', 'Part2^V5 ass', '', ( #193 ) ) ;
#236 = VECTOR ( 'NONE', #112, 1000.000000000000000 ) ;
#237 = ORIENTED_EDGE ( 'NONE', *, *, #259, .F. ) ;
#238 = LINE ( 'NONE', #157, #63 ) ;
#239 = ORIENTED_EDGE ( 'NONE', *, *, #154, .F. ) ;
#240 = DIRECTION ( 'NONE',  ( -0.000000000000000000, 0.000000000000000000, 1.000000000000000000 ) ) ;
#241 = ORIENTED_EDGE ( 'NONE', *, *, #259, .T. ) ;
#242 = EDGE_CURVE ( 'NONE', #262, #456, #560, .T. ) ;
#243 = CARTESIAN_POINT ( 'NONE',  ( -37.75000000000000711, -25.47748147472007574, -1.500000000000000000 ) ) ;
#244 = ORIENTED_EDGE ( 'NONE', *, *, #320, .T. ) ;
#245 = AXIS2_PLACEMENT_3D ( 'NONE', #503, #89, #99 ) ;
#246 = PLANE ( 'NONE',  #205 ) ;
#247 = ORIENTED_EDGE ( 'NONE', *, *, #242, .F. ) ;
#248 = PLANE ( 'NONE',  #532 ) ;
#249 = ORIENTED_EDGE ( 'NONE', *, *, #110, .T. ) ;
#250 = CARTESIAN_POINT ( 'NONE',  ( -39.75000000000000711, 0.000000000000000000, -33.00000000000000000 ) ) ;
#251 = ORIENTED_EDGE ( 'NONE', *, *, #70, .F. ) ;
#252 = VECTOR ( 'NONE', #387, 1000.000000000000000 ) ;
#253 = CARTESIAN_POINT ( 'NONE',  ( -39.75000000000000711, -23.47748147472007219, -33.00000000000000000 ) ) ;
#254 = CARTESIAN_POINT ( 'NONE',  ( 0.000000000000000000, 0.000000000000000000, -1.500000000000000000 ) ) ;
#255 = ORIENTED_EDGE ( 'NONE', *, *, #423, .T. ) ;
#256 = LINE ( 'NONE', #441, #252 ) ;
#257 = DIRECTION ( 'NONE',  ( -0.000000000000000000, -0.000000000000000000, 1.000000000000000000 ) ) ;
#258 = ADVANCED_FACE ( 'NONE', ( #325 ), #512, .T. ) ;
#259 = EDGE_CURVE ( 'NONE', #422, #427, #364, .T. ) ;
#260 = CARTESIAN_POINT ( 'NONE',  ( -63.75000000000000000, -9.477481474720075738, -33.00000000000000000 ) ) ;
#261 = LINE ( 'NONE', #352, #416 ) ;
#262 = VERTEX_POINT ( 'NONE', #293 ) ;
#263 = VECTOR ( 'NONE', #150, 1000.000000000000000 ) ;
#264 = PLANE ( 'NONE',  #316 ) ;
#265 = AXIS2_PLACEMENT_3D ( 'NONE', #94, #142, #8 ) ;
#266 = DIRECTION ( 'NONE',  ( -1.000000000000000000, 0.000000000000000000, 0.000000000000000000 ) ) ;
#267 = VERTEX_POINT ( 'NONE', #199 ) ;
#268 = CARTESIAN_POINT ( 'NONE',  ( -37.75000000000000711, 0.000000000000000000, -33.00000000000000000 ) ) ;
#269 = LINE ( 'NONE', #179, #160 ) ;
#270 = ORIENTED_EDGE ( 'NONE', *, *, #581, .F. ) ;
#271 = PRESENTATION_STYLE_ASSIGNMENT (( #312 ) ) ;
#272 = VECTOR ( 'NONE', #433, 1000.000000000000000 ) ;
#273 = DIRECTION ( 'NONE',  ( 0.000000000000000000, -1.000000000000000000, 0.000000000000000000 ) ) ;
#274 = EDGE_LOOP ( 'NONE', ( #486, #551, #222, #296, #72, #24, #477, #434 ) ) ;
#275 = SURFACE_SIDE_STYLE ('',( #407 ) ) ;
#276 = DIRECTION ( 'NONE',  ( 1.000000000000000000, 0.000000000000000000, 0.000000000000000000 ) ) ;
#277 = ORIENTED_EDGE ( 'NONE', *, *, #353, .T. ) ;
#278 = ADVANCED_FACE ( 'NONE', ( #385 ), #248, .F. ) ;
#279 = EDGE_CURVE ( 'NONE', #481, #187, #574, .T. ) ;
#280 = FILL_AREA_STYLE ('',( #223 ) ) ;
#281 = PLANE ( 'NONE',  #330 ) ;
#282 = ORIENTED_EDGE ( 'NONE', *, *, #341, .F. ) ;
#283 = CARTESIAN_POINT ( 'NONE',  ( -65.25000000000000000, -9.477481474720075738, -31.50000000000000000 ) ) ;
#284 = VECTOR ( 'NONE', #419, 1000.000000000000000 ) ;
#285 = ORIENTED_EDGE ( 'NONE', *, *, #334, .T. ) ;
#286 = VECTOR ( 'NONE', #40, 1000.000000000000000 ) ;
#287 = DIRECTION ( 'NONE',  ( 0.000000000000000000, -1.000000000000000000, 0.000000000000000000 ) ) ;
#288 = ORIENTED_EDGE ( 'NONE', *, *, #341, .T. ) ;
#289 = LINE ( 'NONE', #382, #224 ) ;
#290 = EDGE_LOOP ( 'NONE', ( #244, #65, #292, #294, #337, #380, #282, #504 ) ) ;
#291 = DIRECTION ( 'NONE',  ( -1.000000000000000000, 0.000000000000000000, -0.000000000000000000 ) ) ;
#292 = ORIENTED_EDGE ( 'NONE', *, *, #318, .F. ) ;
#293 = CARTESIAN_POINT ( 'NONE',  ( -65.25000000000000000, -24.97748147472007574, -31.50000000000000000 ) ) ;
#294 = ORIENTED_EDGE ( 'NONE', *, *, #515, .F. ) ;
#295 = CARTESIAN_POINT ( 'NONE',  ( -39.75000000000000711, -23.47748147472007219, 0.000000000000000000 ) ) ;
#296 = ORIENTED_EDGE ( 'NONE', *, *, #108, .F. ) ;
#297 = DIRECTION ( 'NONE',  ( 1.000000000000000000, 0.000000000000000000, 0.000000000000000000 ) ) ;
#298 = CARTESIAN_POINT ( 'NONE',  ( 0.000000000000000000, -9.477481474720075738, -31.50000000000000000 ) ) ;
#299 = AXIS2_PLACEMENT_3D ( 'NONE', #389, #530, #81 ) ;
#300 = DIRECTION ( 'NONE',  ( 1.000000000000000000, 0.000000000000000000, 0.000000000000000000 ) ) ;
#301 = DIRECTION ( 'NONE',  ( 1.000000000000000000, 0.000000000000000000, 0.000000000000000000 ) ) ;
#302 = DIRECTION ( 'NONE',  ( 0.000000000000000000, -1.000000000000000000, 0.000000000000000000 ) ) ;
#303 = PLANE ( 'NONE',  #555 ) ;
#304 = ORIENTED_EDGE ( 'NONE', *, *, #133, .F. ) ;
#305 = DIRECTION ( 'NONE',  ( 0.000000000000000000, -1.000000000000000000, 0.000000000000000000 ) ) ;
#306 = CARTESIAN_POINT ( 'NONE',  ( -38.25000000000000711, -9.477481474720075738, -1.500000000000000000 ) ) ;
#307 = VECTOR ( 'NONE', #489, 1000.000000000000000 ) ;
#308 = DIRECTION ( 'NONE',  ( -1.000000000000000000, 0.000000000000000000, -0.000000000000000000 ) ) ;
#309 = PRODUCT_DEFINITION_SHAPE ( 'NONE', 'NONE',  #172 ) ;
#310 = CARTESIAN_POINT ( 'NONE',  ( -38.25000000000000711, 0.000000000000000000, -31.50000000000000000 ) ) ;
#311 = VERTEX_POINT ( 'NONE', #374 ) ;
#312 = SURFACE_STYLE_USAGE ( .BOTH. , #275 ) ;
#313 = EDGE_CURVE ( 'NONE', #508, #55, #339, .T. ) ;
#314 = LINE ( 'NONE', #189, #460 ) ;
#315 = EDGE_LOOP ( 'NONE', ( #11, #103, #559, #21, #226, #204, #251, #80 ) ) ;
#316 = AXIS2_PLACEMENT_3D ( 'NONE', #163, #120, #207 ) ;
#317 = PLANE ( 'NONE',  #369 ) ;
#318 = EDGE_CURVE ( 'NONE', #95, #484, #201, .T. ) ;
#319 = VECTOR ( 'NONE', #493, 1000.000000000000000 ) ;
#320 = EDGE_CURVE ( 'NONE', #139, #53, #522, .T. ) ;
#321 = EDGE_LOOP ( 'NONE', ( #42, #230, #378, #513 ) ) ;
#322 = CARTESIAN_POINT ( 'NONE',  ( -65.75000000000000000, -25.47748147472007574, -33.00000000000000000 ) ) ;
#323 = FACE_OUTER_BOUND ( 'NONE', #502, .T. ) ;
#324 = VERTEX_POINT ( 'NONE', #243 ) ;
#325 = FACE_OUTER_BOUND ( 'NONE', #412, .T. ) ;
#326 = EDGE_LOOP ( 'NONE', ( #237, #332, #162, #255 ) ) ;
#327 = CARTESIAN_POINT ( 'NONE',  ( -65.25000000000000000, 0.000000000000000000, -31.50000000000000000 ) ) ;
#328 = AXIS2_PLACEMENT_3D ( 'NONE', #250, #485, #71 ) ;
#329 = VERTEX_POINT ( 'NONE', #563 ) ;
#330 = AXIS2_PLACEMENT_3D ( 'NONE', #97, #546, #134 ) ;
#331 = CARTESIAN_POINT ( 'NONE',  ( -63.75000000000000000, 0.000000000000000000, -33.00000000000000000 ) ) ;
#332 = ORIENTED_EDGE ( 'NONE', *, *, #535, .F. ) ;
#333 = DIRECTION ( 'NONE',  ( -1.000000000000000000, 0.000000000000000000, 0.000000000000000000 ) ) ;
#334 = EDGE_CURVE ( 'NONE', #262, #92, #425, .T. ) ;
#335 = VERTEX_POINT ( 'NONE', #568 ) ;
#336 = CARTESIAN_POINT ( 'NONE',  ( -0.000000000000000000, -25.47748147472007574, 0.000000000000000000 ) ) ;
#337 = ORIENTED_EDGE ( 'NONE', *, *, #279, .T. ) ;
#338 = STYLED_ITEM ( 'NONE', ( #271 ), #188 ) ;
#339 = LINE ( 'NONE', #331, #468 ) ;
#340 = ORIENTED_EDGE ( 'NONE', *, *, #216, .T. ) ;
#341 = EDGE_CURVE ( 'NONE', #13, #335, #147, .T. ) ;
#342 = CARTESIAN_POINT ( 'NONE',  ( 0.000000000000000000, -25.47748147472007574, -33.00000000000000000 ) ) ;
#343 = DIRECTION ( 'NONE',  ( 0.000000000000000000, -1.000000000000000000, 0.000000000000000000 ) ) ;
#344 = ADVANCED_FACE ( 'NONE', ( #15 ), #12, .T. ) ;
#345 = CARTESIAN_POINT ( 'NONE',  ( 0.000000000000000000, -25.47748147472007574, -1.500000000000000000 ) ) ;
#346 = DIRECTION ( 'NONE',  ( 0.000000000000000000, 0.000000000000000000, 1.000000000000000000 ) ) ;
#347 = FACE_OUTER_BOUND ( 'NONE', #290, .T. ) ;
#348 =( NAMED_UNIT ( * ) PLANE_ANGLE_UNIT ( ) SI_UNIT ( $, .RADIAN. ) );
#349 = DIRECTION ( 'NONE',  ( 0.000000000000000000, 0.000000000000000000, 1.000000000000000000 ) ) ;
#350 = DIRECTION ( 'NONE',  ( -1.000000000000000000, 0.000000000000000000, 0.000000000000000000 ) ) ;
#351 = CARTESIAN_POINT ( 'NONE',  ( 0.000000000000000000, -24.97748147472007574, -1.500000000000000000 ) ) ;
#352 = CARTESIAN_POINT ( 'NONE',  ( -38.25000000000000711, -24.97748147472007574, -31.50000000000000000 ) ) ;
#353 = EDGE_CURVE ( 'NONE', #213, #100, #289, .T. ) ;
#354 = AXIS2_PLACEMENT_3D ( 'NONE', #451, #27, #497 ) ;
#355 = CARTESIAN_POINT ( 'NONE',  ( -65.75000000000000000, -9.477481474720075738, -33.00000000000000000 ) ) ;
#356 = LINE ( 'NONE', #510, #26 ) ;
#357 = DIRECTION ( 'NONE',  ( 0.000000000000000000, 0.000000000000000000, 1.000000000000000000 ) ) ;
#358 = DIRECTION ( 'NONE',  ( -1.000000000000000000, 0.000000000000000000, 0.000000000000000000 ) ) ;
#359 = ORIENTED_EDGE ( 'NONE', *, *, #399, .F. ) ;
#360 = UNCERTAINTY_MEASURE_WITH_UNIT (LENGTH_MEASURE( 1.000000000000000082E-05 ), #220, 'distance_accuracy_value', 'NONE');
#361 = EDGE_CURVE ( 'NONE', #598, #311, #524, .T. ) ;
#362 = CARTESIAN_POINT ( 'NONE',  ( -37.75000000000000711, 0.000000000000000000, -1.500000000000000000 ) ) ;
#363 = EDGE_CURVE ( 'NONE', #324, #13, #64, .T. ) ;
#364 = LINE ( 'NONE', #203, #436 ) ;
#365 = EDGE_LOOP ( 'NONE', ( #340, #219, #561, #384 ) ) ;
#366 = LINE ( 'NONE', #184, #575 ) ;
#367 = COLOUR_RGB ( '',0.7960784313725489669, 0.8235294117647058432, 0.9372549019607843146 ) ;
#368 = CARTESIAN_POINT ( 'NONE',  ( -0.000000000000000000, -9.477481474720075738, -1.500000000000000000 ) ) ;
#369 = AXIS2_PLACEMENT_3D ( 'NONE', #507, #48, #276 ) ;
#370 = ORIENTED_EDGE ( 'NONE', *, *, #363, .F. ) ;
#371 = CARTESIAN_POINT ( 'NONE',  ( -65.75000000000000000, 0.000000000000000000, -33.00000000000000000 ) ) ;
#372 = DIRECTION ( 'NONE',  ( 0.000000000000000000, 0.000000000000000000, 1.000000000000000000 ) ) ;
#373 = ORIENTED_EDGE ( 'NONE', *, *, #1, .T. ) ;
#374 = CARTESIAN_POINT ( 'NONE',  ( -38.25000000000000711, -9.477481474720075738, -31.50000000000000000 ) ) ;
#375 = ORIENTED_EDGE ( 'NONE', *, *, #582, .T. ) ;
#376 = LINE ( 'NONE', #566, #263 ) ;
#377 = VECTOR ( 'NONE', #516, 1000.000000000000000 ) ;
#378 = ORIENTED_EDGE ( 'NONE', *, *, #520, .T. ) ;
#379 = CARTESIAN_POINT ( 'NONE',  ( -0.000000000000000000, -9.477481474720075738, 0.000000000000000000 ) ) ;
#380 = ORIENTED_EDGE ( 'NONE', *, *, #25, .T. ) ;
#381 = ADVANCED_FACE ( 'NONE', ( #68 ), #246, .F. ) ;
#382 = CARTESIAN_POINT ( 'NONE',  ( -0.000000000000000000, -9.477481474720075738, -1.500000000000000000 ) ) ;
#383 = EDGE_CURVE ( 'NONE', #521, #422, #238, .T. ) ;
#384 = ORIENTED_EDGE ( 'NONE', *, *, #2, .T. ) ;
#385 = FACE_OUTER_BOUND ( 'NONE', #326, .T. ) ;
#386 = ORIENTED_EDGE ( 'NONE', *, *, #279, .F. ) ;
#387 = DIRECTION ( 'NONE',  ( -0.000000000000000000, -0.000000000000000000, 1.000000000000000000 ) ) ;
#388 = PLANE ( 'NONE',  #140 ) ;
#389 = CARTESIAN_POINT ( 'NONE',  ( 0.000000000000000000, -9.477481474720075738, -33.00000000000000000 ) ) ;
#390 = DIRECTION ( 'NONE',  ( 0.000000000000000000, 0.000000000000000000, 1.000000000000000000 ) ) ;
#391 = CARTESIAN_POINT ( 'NONE',  ( -63.75000000000000000, -9.477481474720075738, 0.000000000000000000 ) ) ;
#392 = PRESENTATION_STYLE_ASSIGNMENT (( #208 ) ) ;
#393 = VECTOR ( 'NONE', #300, 1000.000000000000000 ) ;
#394 = COLOUR_RGB ( '',0.7960784313725489669, 0.8235294117647058432, 0.9372549019607843146 ) ;
#395 = CARTESIAN_POINT ( 'NONE',  ( -65.75000000000000000, -9.477481474720075738, -31.50000000000000000 ) ) ;
#396 = CARTESIAN_POINT ( 'NONE',  ( -63.75000000000000000, -23.47748147472007219, -33.00000000000000000 ) ) ;
#397 = FACE_OUTER_BOUND ( 'NONE', #62, .T. ) ;
#398 = DIRECTION ( 'NONE',  ( 0.000000000000000000, -1.000000000000000000, 0.000000000000000000 ) ) ;
#399 = EDGE_CURVE ( 'NONE', #508, #481, #114, .T. ) ;
#400 = DIRECTION ( 'NONE',  ( 0.000000000000000000, 0.000000000000000000, 1.000000000000000000 ) ) ;
#401 = EDGE_CURVE ( 'NONE', #508, #567, #57, .T. ) ;
#402 = AXIS2_PLACEMENT_3D ( 'NONE', #500, #47, #545 ) ;
#403 = UNCERTAINTY_MEASURE_WITH_UNIT (LENGTH_MEASURE( 1.000000000000000082E-05 ), #231, 'distance_accuracy_value', 'NONE');
#404 = DIRECTION ( 'NONE',  ( -1.000000000000000000, 0.000000000000000000, 0.000000000000000000 ) ) ;
#405 = CARTESIAN_POINT ( 'NONE',  ( -39.75000000000000711, -9.477481474720075738, -33.00000000000000000 ) ) ;
#406 = ORIENTED_EDGE ( 'NONE', *, *, #520, .F. ) ;
#407 = SURFACE_STYLE_FILL_AREA ( #280 ) ;
#408 = CARTESIAN_POINT ( 'NONE',  ( -65.25000000000000000, -9.477481474720075738, -1.500000000000000000 ) ) ;
#409 = VERTEX_POINT ( 'NONE', #59 ) ;
#410 = LINE ( 'NONE', #362, #119 ) ;
#411 = LINE ( 'NONE', #405, #592 ) ;
#412 = EDGE_LOOP ( 'NONE', ( #511, #417, #544, #195 ) ) ;
#413 = VECTOR ( 'NONE', #54, 1000.000000000000000 ) ;
#414 = MECHANICAL_DESIGN_GEOMETRIC_PRESENTATION_REPRESENTATION (  '', ( #338 ), #518 ) ;
#415 = LINE ( 'NONE', #137, #482 ) ;
#416 = VECTOR ( 'NONE', #257, 1000.000000000000000 ) ;
#417 = ORIENTED_EDGE ( 'NONE', *, *, #549, .T. ) ;
#418 = AXIS2_PLACEMENT_3D ( 'NONE', #19, #146, #429 ) ;
#419 = DIRECTION ( 'NONE',  ( 0.000000000000000000, 0.000000000000000000, 1.000000000000000000 ) ) ;
#420 = ORIENTED_EDGE ( 'NONE', *, *, #383, .F. ) ;
#421 = DIRECTION ( 'NONE',  ( 1.000000000000000000, 0.000000000000000000, 0.000000000000000000 ) ) ;
#422 = VERTEX_POINT ( 'NONE', #194 ) ;
#423 = EDGE_CURVE ( 'NONE', #170, #427, #376, .T. ) ;
#424 = APPLICATION_PROTOCOL_DEFINITION ( 'draft international standard', 'automotive_design', 1998, #228 ) ;
#425 = LINE ( 'NONE', #107, #447 ) ;
#426 = AXIS2_PLACEMENT_3D ( 'NONE', #327, #291, #240 ) ;
#427 = VERTEX_POINT ( 'NONE', #492 ) ;
#428 = ADVANCED_FACE ( 'NONE', ( #124 ), #175, .F. ) ;
#429 = DIRECTION ( 'NONE',  ( 1.000000000000000000, 0.000000000000000000, 0.000000000000000000 ) ) ;
#430 = ADVANCED_FACE ( 'NONE', ( #78 ), #264, .F. ) ;
#431 = CARTESIAN_POINT ( 'NONE',  ( 0.000000000000000000, -23.47748147472007219, 0.000000000000000000 ) ) ;
#432 = ORIENTED_EDGE ( 'NONE', *, *, #242, .T. ) ;
#433 = DIRECTION ( 'NONE',  ( -1.000000000000000000, 0.000000000000000000, 0.000000000000000000 ) ) ;
#434 = ORIENTED_EDGE ( 'NONE', *, *, #216, .F. ) ;
#435 = LINE ( 'NONE', #122, #73 ) ;
#436 = VECTOR ( 'NONE', #421, 1000.000000000000000 ) ;
#437 = EDGE_LOOP ( 'NONE', ( #145, #135, #113, #285 ) ) ;
#438 = MECHANICAL_DESIGN_GEOMETRIC_PRESENTATION_REPRESENTATION (  '', ( #128 ), #206 ) ;
#439 = CARTESIAN_POINT ( 'NONE',  ( 0.000000000000000000, -23.47748147472007219, -33.00000000000000000 ) ) ;
#440 = LINE ( 'NONE', #499, #159 ) ;
#441 = CARTESIAN_POINT ( 'NONE',  ( -65.25000000000000000, -9.477481474720075738, -31.50000000000000000 ) ) ;
#442 = CARTESIAN_POINT ( 'NONE',  ( -38.25000000000000711, 0.000000000000000000, -31.50000000000000000 ) ) ;
#443 = EDGE_CURVE ( 'NONE', #98, #262, #541, .T. ) ;
#444 = LINE ( 'NONE', #33, #56 ) ;
#445 = CARTESIAN_POINT ( 'NONE',  ( -37.75000000000000711, -9.477481474720075738, -33.00000000000000000 ) ) ;
#446 = ORIENTED_EDGE ( 'NONE', *, *, #363, .T. ) ;
#447 = VECTOR ( 'NONE', #191, 1000.000000000000000 ) ;
#448 = EDGE_CURVE ( 'NONE', #55, #462, #171, .T. ) ;
#449 = VECTOR ( 'NONE', #390, 1000.000000000000000 ) ;
#450 = ADVANCED_FACE ( 'NONE', ( #347 ), #76, .T. ) ;
#451 = CARTESIAN_POINT ( 'NONE',  ( 0.000000000000000000, 0.000000000000000000, 0.000000000000000000 ) ) ;
#452 = DIRECTION ( 'NONE',  ( -0.000000000000000000, 0.000000000000000000, 1.000000000000000000 ) ) ;
#453 = PLANE ( 'NONE',  #402 ) ;
#454 = EDGE_CURVE ( 'NONE', #92, #472, #169, .T. ) ;
#455 = FACE_OUTER_BOUND ( 'NONE', #109, .T. ) ;
#456 = VERTEX_POINT ( 'NONE', #74 ) ;
#457 = LINE ( 'NONE', #591, #178 ) ;
#458 = ORIENTED_EDGE ( 'NONE', *, *, #110, .F. ) ;
#459 = DIRECTION ( 'NONE',  ( 0.000000000000000000, -1.000000000000000000, 0.000000000000000000 ) ) ;
#460 = VECTOR ( 'NONE', #372, 1000.000000000000000 ) ;
#461 = DIRECTION ( 'NONE',  ( 0.000000000000000000, 0.000000000000000000, 1.000000000000000000 ) ) ;
#462 = VERTEX_POINT ( 'NONE', #253 ) ;
#463 = DIRECTION ( 'NONE',  ( 0.000000000000000000, -1.000000000000000000, 0.000000000000000000 ) ) ;
#464 = ORIENTED_EDGE ( 'NONE', *, *, #41, .T. ) ;
#465 = LINE ( 'NONE', #355, #149 ) ;
#466 = CARTESIAN_POINT ( 'NONE',  ( -38.25000000000000711, 0.000000000000000000, -1.500000000000000000 ) ) ;
#467 = ORIENTED_EDGE ( 'NONE', *, *, #50, .T. ) ;
#468 = VECTOR ( 'NONE', #153, 1000.000000000000000 ) ;
#469 = ADVANCED_FACE ( 'NONE', ( #209 ), #589, .T. ) ;
#470 = DIRECTION ( 'NONE',  ( 0.000000000000000000, -1.000000000000000000, 0.000000000000000000 ) ) ;
#471 = AXIS2_PLACEMENT_3D ( 'NONE', #442, #308, #452 ) ;
#472 = VERTEX_POINT ( 'NONE', #37 ) ;
#473 = DIRECTION ( 'NONE',  ( 0.000000000000000000, -0.000000000000000000, -1.000000000000000000 ) ) ;
#474 = ORIENTED_EDGE ( 'NONE', *, *, #476, .T. ) ;
#475 = DIRECTION ( 'NONE',  ( 0.000000000000000000, 1.000000000000000000, -0.000000000000000000 ) ) ;
#476 = EDGE_CURVE ( 'NONE', #267, #324, #165, .T. ) ;
#477 = ORIENTED_EDGE ( 'NONE', *, *, #454, .T. ) ;
#478 = EDGE_CURVE ( 'NONE', #98, #213, #256, .T. ) ;
#479 = DIRECTION ( 'NONE',  ( -1.000000000000000000, 0.000000000000000000, 0.000000000000000000 ) ) ;
#480 = VECTOR ( 'NONE', #596, 1000.000000000000000 ) ;
#481 = VERTEX_POINT ( 'NONE', #391 ) ;
#482 = VECTOR ( 'NONE', #461, 1000.000000000000000 ) ;
#483 = CARTESIAN_POINT ( 'NONE',  ( -63.75000000000000000, -9.477481474720075738, -33.00000000000000000 ) ) ;
#484 = VERTEX_POINT ( 'NONE', #295 ) ;
#485 = DIRECTION ( 'NONE',  ( -1.000000000000000000, 0.000000000000000000, 0.000000000000000000 ) ) ;
#486 = ORIENTED_EDGE ( 'NONE', *, *, #197, .F. ) ;
#487 = CARTESIAN_POINT ( 'NONE',  ( -65.25000000000000000, 0.000000000000000000, -31.50000000000000000 ) ) ;
#488 = VECTOR ( 'NONE', #182, 1000.000000000000000 ) ;
#489 = DIRECTION ( 'NONE',  ( -1.000000000000000000, 0.000000000000000000, 0.000000000000000000 ) ) ;
#490 = DIRECTION ( 'NONE',  ( 1.000000000000000000, 0.000000000000000000, 0.000000000000000000 ) ) ;
#491 = SURFACE_STYLE_FILL_AREA ( #533 ) ;
#492 = CARTESIAN_POINT ( 'NONE',  ( -37.75000000000000711, -25.47748147472007574, -31.50000000000000000 ) ) ;
#493 = DIRECTION ( 'NONE',  ( 0.000000000000000000, -1.000000000000000000, 0.000000000000000000 ) ) ;
#494 = ADVANCED_FACE ( 'NONE', ( #397 ), #577, .F. ) ;
#495 = ORIENTED_EDGE ( 'NONE', *, *, #133, .T. ) ;
#496 = ADVANCED_FACE ( 'NONE', ( #583 ), #534, .T. ) ;
#497 = DIRECTION ( 'NONE',  ( 1.000000000000000000, 0.000000000000000000, 0.000000000000000000 ) ) ;
#498 = FILL_AREA_STYLE_COLOUR ( '', #394 ) ;
#499 = CARTESIAN_POINT ( 'NONE',  ( -38.25000000000000711, -9.477481474720075738, -31.50000000000000000 ) ) ;
#500 = CARTESIAN_POINT ( 'NONE',  ( 0.000000000000000000, 0.000000000000000000, -33.00000000000000000 ) ) ;
#501 = CARTESIAN_POINT ( 'NONE',  ( -63.75000000000000000, -23.47748147472007219, 0.000000000000000000 ) ) ;
#502 = EDGE_LOOP ( 'NONE', ( #467, #158, #115, #277, #375, #386, #359, #202 ) ) ;
#503 = CARTESIAN_POINT ( 'NONE',  ( -65.75000000000000000, 0.000000000000000000, -33.00000000000000000 ) ) ;
#504 = ORIENTED_EDGE ( 'NONE', *, *, #51, .F. ) ;
#505 = AXIS2_PLACEMENT_3D ( 'NONE', #342, #30, #211 ) ;
#506 = LINE ( 'NONE', #371, #5 ) ;
#507 = CARTESIAN_POINT ( 'NONE',  ( 0.000000000000000000, 0.000000000000000000, -31.50000000000000000 ) ) ;
#508 = VERTEX_POINT ( 'NONE', #260 ) ;
#509 = DIRECTION ( 'NONE',  ( 0.000000000000000000, 0.000000000000000000, 1.000000000000000000 ) ) ;
#510 = CARTESIAN_POINT ( 'NONE',  ( -37.75000000000000711, 0.000000000000000000, -31.50000000000000000 ) ) ;
#511 = ORIENTED_EDGE ( 'NONE', *, *, #108, .T. ) ;
#512 = PLANE ( 'NONE',  #245 ) ;
#513 = ORIENTED_EDGE ( 'NONE', *, *, #154, .T. ) ;
#514 = VECTOR ( 'NONE', #490, 1000.000000000000000 ) ;
#515 = EDGE_CURVE ( 'NONE', #481, #95, #435, .T. ) ;
#516 = DIRECTION ( 'NONE',  ( -1.000000000000000000, 0.000000000000000000, 0.000000000000000000 ) ) ;
#517 = ORIENTED_EDGE ( 'NONE', *, *, #334, .F. ) ;
#518 =( GEOMETRIC_REPRESENTATION_CONTEXT ( 3 ) GLOBAL_UNCERTAINTY_ASSIGNED_CONTEXT ( ( #403 ) ) GLOBAL_UNIT_ASSIGNED_CONTEXT ( ( #231, #126, #570 ) ) REPRESENTATION_CONTEXT ( 'NONE', 'WORKASPACE' ) );
#519 = DIRECTION ( 'NONE',  ( -1.000000000000000000, 0.000000000000000000, 0.000000000000000000 ) ) ;
#520 = EDGE_CURVE ( 'NONE', #409, #462, #444, .T. ) ;
#521 = VERTEX_POINT ( 'NONE', #395 ) ;
#522 = LINE ( 'NONE', #20, #167 ) ;
#523 = ORIENTED_EDGE ( 'NONE', *, *, #152, .T. ) ;
#524 = LINE ( 'NONE', #528, #272 ) ;
#525 = VECTOR ( 'NONE', #333, 1000.000000000000000 ) ;
#526 = ORIENTED_EDGE ( 'NONE', *, *, #423, .F. ) ;
#527 = VECTOR ( 'NONE', #350, 1000.000000000000000 ) ;
#528 = CARTESIAN_POINT ( 'NONE',  ( 0.000000000000000000, -9.477481474720075738, -31.50000000000000000 ) ) ;
#529 = EDGE_LOOP ( 'NONE', ( #594, #239, #190, #249 ) ) ;
#530 = DIRECTION ( 'NONE',  ( 0.000000000000000000, 1.000000000000000000, -0.000000000000000000 ) ) ;
#531 = DIRECTION ( 'NONE',  ( 0.000000000000000000, 0.000000000000000000, 1.000000000000000000 ) ) ;
#532 = AXIS2_PLACEMENT_3D ( 'NONE', #17, #475, #105 ) ;
#533 = FILL_AREA_STYLE ('',( #498 ) ) ;
#534 = PLANE ( 'NONE',  #328 ) ;
#535 = EDGE_CURVE ( 'NONE', #32, #422, #23, .T. ) ;
#536 = CARTESIAN_POINT ( 'NONE',  ( -65.75000000000000000, -25.47748147472007574, -33.00000000000000000 ) ) ;
#537 = ADVANCED_FACE ( 'NONE', ( #539 ), #6, .T. ) ;
#538 = ORIENTED_EDGE ( 'NONE', *, *, #70, .T. ) ;
#539 = FACE_OUTER_BOUND ( 'NONE', #16, .T. ) ;
#540 = PLANE ( 'NONE',  #471 ) ;
#541 = LINE ( 'NONE', #487, #22 ) ;
#542 =( NAMED_UNIT ( * ) SI_UNIT ( $, .STERADIAN. ) SOLID_ANGLE_UNIT ( ) );
#543 = CARTESIAN_POINT ( 'NONE',  ( -37.75000000000000711, -9.477481474720075738, 0.000000000000000000 ) ) ;
#544 = ORIENTED_EDGE ( 'NONE', *, *, #25, .F. ) ;
#545 = DIRECTION ( 'NONE',  ( 1.000000000000000000, 0.000000000000000000, 0.000000000000000000 ) ) ;
#546 = DIRECTION ( 'NONE',  ( 0.000000000000000000, 1.000000000000000000, -0.000000000000000000 ) ) ;
#547 = ORIENTED_EDGE ( 'NONE', *, *, #557, .T. ) ;
#548 = CARTESIAN_POINT ( 'NONE',  ( -65.75000000000000000, -9.477481474720075738, -33.00000000000000000 ) ) ;
#549 = EDGE_CURVE ( 'NONE', #267, #335, #39, .T. ) ;
#550 = DIRECTION ( 'NONE',  ( 0.000000000000000000, 1.000000000000000000, 0.000000000000000000 ) ) ;
#551 = ORIENTED_EDGE ( 'NONE', *, *, #557, .F. ) ;
#552 = VECTOR ( 'NONE', #554, 1000.000000000000000 ) ;
#553 = PRODUCT_DEFINITION_CONTEXT ( 'detailed design', #228, 'design' ) ;
#554 = DIRECTION ( 'NONE',  ( 0.000000000000000000, -1.000000000000000000, 0.000000000000000000 ) ) ;
#555 = AXIS2_PLACEMENT_3D ( 'NONE', #254, #123, #301 ) ;
#556 = LINE ( 'NONE', #368, #101 ) ;
#557 = EDGE_CURVE ( 'NONE', #324, #329, #410, .T. ) ;
#558 = ADVANCED_FACE ( 'NONE', ( #181 ), #453, .F. ) ;
#559 = ORIENTED_EDGE ( 'NONE', *, *, #227, .F. ) ;
#560 = LINE ( 'NONE', #144, #488 ) ;
#561 = ORIENTED_EDGE ( 'NONE', *, *, #152, .F. ) ;
#562 = EDGE_CURVE ( 'NONE', #45, #409, #366, .T. ) ;
#563 = CARTESIAN_POINT ( 'NONE',  ( -37.75000000000000711, -9.477481474720075738, -1.500000000000000000 ) ) ;
#564 = ORIENTED_EDGE ( 'NONE', *, *, #227, .T. ) ;
#565 = AXIS2_PLACEMENT_3D ( 'NONE', #116, #579, #531 ) ;
#566 = CARTESIAN_POINT ( 'NONE',  ( -37.75000000000000711, -25.47748147472007574, -33.00000000000000000 ) ) ;
#567 = VERTEX_POINT ( 'NONE', #548 ) ;
#568 = CARTESIAN_POINT ( 'NONE',  ( -65.75000000000000000, -25.47748147472007574, 0.000000000000000000 ) ) ;
#569 = ORIENTED_EDGE ( 'NONE', *, *, #595, .T. ) ;
#570 =( NAMED_UNIT ( * ) SI_UNIT ( $, .STERADIAN. ) SOLID_ANGLE_UNIT ( ) );
#571 = CARTESIAN_POINT ( 'NONE',  ( -37.75000000000000711, -25.47748147472007574, -33.00000000000000000 ) ) ;
#572 = ORIENTED_EDGE ( 'NONE', *, *, #51, .T. ) ;
#573 = VECTOR ( 'NONE', #346, 1000.000000000000000 ) ;
#574 = LINE ( 'NONE', #379, #215 ) ;
#575 = VECTOR ( 'NONE', #266, 1000.000000000000000 ) ;
#576 = EDGE_LOOP ( 'NONE', ( #9, #458, #35, #18 ) ) ;
#577 = PLANE ( 'NONE',  #505 ) ;
#578 = CARTESIAN_POINT ( 'NONE',  ( -37.75000000000000711, 0.000000000000000000, 0.000000000000000000 ) ) ;
#579 = DIRECTION ( 'NONE',  ( -1.000000000000000000, 0.000000000000000000, 0.000000000000000000 ) ) ;
#580 = LINE ( 'NONE', #210, #449 ) ;
#581 = EDGE_CURVE ( 'NONE', #45, #170, #85, .T. ) ;
#582 = EDGE_CURVE ( 'NONE', #100, #187, #465, .T. ) ;
#583 = FACE_OUTER_BOUND ( 'NONE', #321, .T. ) ;
#584 = VECTOR ( 'NONE', #349, 1000.000000000000000 ) ;
#585 = FACE_OUTER_BOUND ( 'NONE', #155, .T. ) ;
#586 = VECTOR ( 'NONE', #398, 1000.000000000000000 ) ;
#587 = CARTESIAN_POINT ( 'NONE',  ( -65.75000000000000000, -25.47748147472007574, -33.00000000000000000 ) ) ;
#588 = LINE ( 'NONE', #166, #527 ) ;
#589 = PLANE ( 'NONE',  #299 ) ;
#590 = DIRECTION ( 'NONE',  ( 0.000000000000000000, 1.000000000000000000, 0.000000000000000000 ) ) ;
#591 = CARTESIAN_POINT ( 'NONE',  ( -39.75000000000000711, 0.000000000000000000, 0.000000000000000000 ) ) ;
#592 = VECTOR ( 'NONE', #234, 1000.000000000000000 ) ;
#593 = CARTESIAN_POINT ( 'NONE',  ( -65.75000000000000000, -9.477481474720075738, -1.500000000000001332 ) ) ;
#594 = ORIENTED_EDGE ( 'NONE', *, *, #318, .T. ) ;
#595 = EDGE_CURVE ( 'NONE', #567, #32, #506, .T. ) ;
#596 = DIRECTION ( 'NONE',  ( 0.000000000000000000, 0.000000000000000000, 1.000000000000000000 ) ) ;
#597 = LINE ( 'NONE', #466, #413 ) ;
#598 = VERTEX_POINT ( 'NONE', #136 ) ;
ENDSEC;
END-ISO-10303-21;
