ISO-10303-21;
HEADER;
FILE_DESCRIPTION (( 'STEP AP214' ),
    '1' );
FILE_NAME ('Part10^V5 ass.STEP',
    '2026-07-13T19:27:29',
    ( '' ),
    ( '' ),
    'SwSTEP 2.0',
    'SolidWorks 2025',
    '' );
FILE_SCHEMA (( 'AUTOMOTIVE_DESIGN' ));
ENDSEC;

DATA;
#1 = LINE ( 'NONE', #106, #178 ) ;
#2 = DIRECTION ( 'NONE',  ( 0.000000000000000000, 0.9961946980917455452, 0.08715574274765836016 ) ) ;
#3 = VECTOR ( 'NONE', #74, 1000.000000000000114 ) ;
#4 = FACE_BOUND ( 'NONE', #62, .T. ) ;
#5 = EDGE_CURVE ( 'NONE', #182, #234, #333, .T. ) ;
#6 = CARTESIAN_POINT ( 'NONE',  ( -2.718721658814809317, 11.21872165881479688, 2.500000000000000000 ) ) ;
#7 = VECTOR ( 'NONE', #166, 1000.000000000000114 ) ;
#8 = LINE ( 'NONE', #324, #188 ) ;
#9 = VERTEX_POINT ( 'NONE', #127 ) ;
#10 = EDGE_CURVE ( 'NONE', #180, #209, #101, .T. ) ;
#11 = DIRECTION ( 'NONE',  ( 1.000000000000000000, 0.000000000000000000, 0.000000000000000000 ) ) ;
#12 = ORIENTED_EDGE ( 'NONE', *, *, #26, .T. ) ;
#13 = CARTESIAN_POINT ( 'NONE',  ( -2.500000000000000000, 58.99999999999998579, 0.000000000000000000 ) ) ;
#14 = ORIENTED_EDGE ( 'NONE', *, *, #94, .T. ) ;
#15 = AXIS2_PLACEMENT_3D ( 'NONE', #218, #2, #317 ) ;
#16 = CARTESIAN_POINT ( 'NONE',  ( -102.2812783411851854, 58.99999999999998579, 2.500000000000000000 ) ) ;
#17 = ORIENTED_EDGE ( 'NONE', *, *, #241, .T. ) ;
#18 = ORIENTED_EDGE ( 'NONE', *, *, #107, .T. ) ;
#19 = ORIENTED_EDGE ( 'NONE', *, *, #222, .T. ) ;
#20 = VECTOR ( 'NONE', #40, 1000.000000000000000 ) ;
#21 = CARTESIAN_POINT ( 'NONE',  ( -101.5000000000000000, 57.99999999999997868, 0.000000000000000000 ) ) ;
#22 = ORIENTED_EDGE ( 'NONE', *, *, #316, .F. ) ;
#23 = CARTESIAN_POINT ( 'NONE',  ( -101.5000000000000000, 11.99999999999998579, 0.000000000000000000 ) ) ;
#24 = VERTEX_POINT ( 'NONE', #310 ) ;
#25 = FACE_BOUND ( 'NONE', #251, .T. ) ;
#26 = EDGE_CURVE ( 'NONE', #182, #9, #286, .T. ) ;
#27 = AXIS2_PLACEMENT_3D ( 'NONE', #155, #45, #282 ) ;
#28 = CARTESIAN_POINT ( 'NONE',  ( -101.5000000000000000, 57.99999999999997868, 0.000000000000000000 ) ) ;
#29 = APPLICATION_CONTEXT ( 'automotive_design' ) ;
#30 =( LENGTH_UNIT ( ) NAMED_UNIT ( * ) SI_UNIT ( .MILLI., .METRE. ) );
#31 = MECHANICAL_DESIGN_GEOMETRIC_PRESENTATION_REPRESENTATION (  '', ( #326 ), #86 ) ;
#32 = EDGE_CURVE ( 'NONE', #24, #176, #262, .T. ) ;
#33 = CARTESIAN_POINT ( 'NONE',  ( -102.5000000000000000, 58.99999999999998579, 0.000000000000000000 ) ) ;
#34 = PLANE ( 'NONE',  #242 ) ;
#35 = CARTESIAN_POINT ( 'NONE',  ( -3.499999999999998668, 11.99999999999998579, 0.000000000000000000 ) ) ;
#36 = EDGE_LOOP ( 'NONE', ( #22, #93, #41, #298 ) ) ;
#37 = EDGE_CURVE ( 'NONE', #156, #230, #320, .T. ) ;
#38 = VECTOR ( 'NONE', #147, 1000.000000000000000 ) ;
#39 = DIRECTION ( 'NONE',  ( 0.000000000000000000, -0.08715574274765837404, -0.9961946980917455452 ) ) ;
#40 = DIRECTION ( 'NONE',  ( -2.828353493440446430E-17, 1.000000000000000000, 0.000000000000000000 ) ) ;
#41 = ORIENTED_EDGE ( 'NONE', *, *, #61, .T. ) ;
#42 = MANIFOLD_SOLID_BREP ( 'Boss-Extrude1', #58 ) ;
#43 = CARTESIAN_POINT ( 'NONE',  ( -3.499999999999998668, 11.99999999999998579, 0.000000000000000000 ) ) ;
#44 = COLOUR_RGB ( '',0.7960784313725489669, 0.8235294117647058432, 0.9372549019607843146 ) ;
#45 = DIRECTION ( 'NONE',  ( 0.000000000000000000, 0.9961946980917455452, 0.08715574274765837404 ) ) ;
#46 = ORIENTED_EDGE ( 'NONE', *, *, #168, .F. ) ;
#47 = ORIENTED_EDGE ( 'NONE', *, *, #245, .T. ) ;
#48 =( LENGTH_UNIT ( ) NAMED_UNIT ( * ) SI_UNIT ( .MILLI., .METRE. ) );
#49 = VECTOR ( 'NONE', #217, 1000.000000000000000 ) ;
#50 = DIRECTION ( 'NONE',  ( -2.828353493440446430E-17, 1.000000000000000000, 0.000000000000000000 ) ) ;
#51 = LINE ( 'NONE', #69, #219 ) ;
#52 = ORIENTED_EDGE ( 'NONE', *, *, #26, .F. ) ;
#53 = SURFACE_STYLE_FILL_AREA ( #84 ) ;
#54 = LINE ( 'NONE', #189, #337 ) ;
#55 = DIRECTION ( 'NONE',  ( 0.000000000000000000, 0.000000000000000000, 1.000000000000000000 ) ) ;
#56 = DIRECTION ( 'NONE',  ( -2.710505431213761393E-17, 1.000000000000000000, 0.000000000000000000 ) ) ;
#57 = ADVANCED_FACE ( 'NONE', ( #167, #4 ), #137, .F. ) ;
#58 = CLOSED_SHELL ( 'NONE', ( #118, #57, #329, #72, #146, #231, #142, #66, #212, #259 ) ) ;
#59 = DIRECTION ( 'NONE',  ( 0.000000000000000000, -0.08715574274765836016, -0.9961946980917455452 ) ) ;
#60 = FACE_OUTER_BOUND ( 'NONE', #290, .T. ) ;
#61 = EDGE_CURVE ( 'NONE', #9, #199, #1, .T. ) ;
#62 = EDGE_LOOP ( 'NONE', ( #14, #19, #312, #285 ) ) ;
#63 = CARTESIAN_POINT ( 'NONE',  ( -2.500000000000000000, 58.99999999999998579, 1.665904134297145957E-32 ) ) ;
#64 = FACE_OUTER_BOUND ( 'NONE', #174, .T. ) ;
#65 = DIRECTION ( 'NONE',  ( 0.08682659386424779191, 0.08682659386424779191, -0.9924325091389669673 ) ) ;
#66 = ADVANCED_FACE ( 'NONE', ( #165 ), #291, .T. ) ;
#67 = APPLICATION_PROTOCOL_DEFINITION ( 'draft international standard', 'automotive_design', 1998, #29 ) ;
#68 = VECTOR ( 'NONE', #73, 1000.000000000000114 ) ;
#69 = CARTESIAN_POINT ( 'NONE',  ( -3.500000000000000000, 57.99999999999997868, 0.000000000000000000 ) ) ;
#70 = ORIENTED_EDGE ( 'NONE', *, *, #272, .T. ) ;
#71 = VERTEX_POINT ( 'NONE', #246 ) ;
#72 = ADVANCED_FACE ( 'NONE', ( #79 ), #266, .T. ) ;
#73 = DIRECTION ( 'NONE',  ( -0.08682659386424779191, -0.08682659386424779191, -0.9924325091389669673 ) ) ;
#74 = DIRECTION ( 'NONE',  ( 0.08682659386424779191, -0.08682659386424779191, -0.9924325091389669673 ) ) ;
#75 = VECTOR ( 'NONE', #112, 1000.000000000000000 ) ;
#76 = ORIENTED_EDGE ( 'NONE', *, *, #37, .T. ) ;
#77 = PRODUCT_DEFINITION_FORMATION_WITH_SPECIFIED_SOURCE ( 'Symmetric', '', #162, .NOT_KNOWN. ) ;
#78 = ORIENTED_EDGE ( 'NONE', *, *, #153, .F. ) ;
#79 = FACE_OUTER_BOUND ( 'NONE', #130, .T. ) ;
#80 = DIRECTION ( 'NONE',  ( -0.9961946980917455452, 0.000000000000000000, 0.08715574274765836016 ) ) ;
#81 =( NAMED_UNIT ( * ) SI_UNIT ( $, .STERADIAN. ) SOLID_ANGLE_UNIT ( ) );
#82 = PRODUCT_RELATED_PRODUCT_CATEGORY ( 'part', '', ( #162 ) ) ;
#83 = PRESENTATION_STYLE_ASSIGNMENT (( #138 ) ) ;
#84 = FILL_AREA_STYLE ('',( #315 ) ) ;
#85 = AXIS2_PLACEMENT_3D ( 'NONE', #90, #92, #203 ) ;
#86 =( GEOMETRIC_REPRESENTATION_CONTEXT ( 3 ) GLOBAL_UNCERTAINTY_ASSIGNED_CONTEXT ( ( #133 ) ) GLOBAL_UNIT_ASSIGNED_CONTEXT ( ( #102, #305, #205 ) ) REPRESENTATION_CONTEXT ( 'NONE', 'WORKASPACE' ) );
#87 = DIRECTION ( 'NONE',  ( 0.9961946980917455452, 0.000000000000000000, 0.08715574274765836016 ) ) ;
#88 = ORIENTED_EDGE ( 'NONE', *, *, #136, .T. ) ;
#89 = DIRECTION ( 'NONE',  ( 0.000000000000000000, -1.000000000000000000, 0.000000000000000000 ) ) ;
#90 = CARTESIAN_POINT ( 'NONE',  ( -2.499999999999998668, 10.99999999999998757, 0.000000000000000000 ) ) ;
#91 =( GEOMETRIC_REPRESENTATION_CONTEXT ( 3 ) GLOBAL_UNCERTAINTY_ASSIGNED_CONTEXT ( ( #302 ) ) GLOBAL_UNIT_ASSIGNED_CONTEXT ( ( #48, #122, #151 ) ) REPRESENTATION_CONTEXT ( 'NONE', 'WORKASPACE' ) );
#92 = DIRECTION ( 'NONE',  ( 0.9961946980917455452, 2.700191139724029542E-17, 0.08715574274765836016 ) ) ;
#93 = ORIENTED_EDGE ( 'NONE', *, *, #216, .F. ) ;
#94 = EDGE_CURVE ( 'NONE', #115, #211, #54, .T. ) ;
#95 = DIRECTION ( 'NONE',  ( -0.9961946980917455452, -2.817590754494639147E-17, 0.08715574274765836016 ) ) ;
#96 = SURFACE_STYLE_USAGE ( .BOTH. , #237 ) ;
#97 = DIRECTION ( 'NONE',  ( -0.08682659386424779191, 0.08682659386424779191, -0.9924325091389669673 ) ) ;
#98 = APPLICATION_PROTOCOL_DEFINITION ( 'draft international standard', 'automotive_design', 1998, #267 ) ;
#99 = AXIS2_PLACEMENT_3D ( 'NONE', #257, #233, #304 ) ;
#100 = ORIENTED_EDGE ( 'NONE', *, *, #61, .F. ) ;
#101 = LINE ( 'NONE', #306, #68 ) ;
#102 =( LENGTH_UNIT ( ) NAMED_UNIT ( * ) SI_UNIT ( .MILLI., .METRE. ) );
#103 = ORIENTED_EDGE ( 'NONE', *, *, #183, .T. ) ;
#104 = ORIENTED_EDGE ( 'NONE', *, *, #124, .T. ) ;
#105 = CARTESIAN_POINT ( 'NONE',  ( -2.500000000000000000, 58.78127834118517114, 2.500000000000000000 ) ) ;
#106 = CARTESIAN_POINT ( 'NONE',  ( -3.500000000000000000, 58.21872165881479333, 2.500000000000000000 ) ) ;
#107 = EDGE_CURVE ( 'NONE', #209, #156, #140, .T. ) ;
#108 = DIRECTION ( 'NONE',  ( 0.000000000000000000, -1.000000000000000000, 0.000000000000000000 ) ) ;
#109 = VECTOR ( 'NONE', #191, 1000.000000000000000 ) ;
#110 = CARTESIAN_POINT ( 'NONE',  ( -102.5000000000000000, 10.99999999999998757, 0.000000000000000000 ) ) ;
#111 = FACE_OUTER_BOUND ( 'NONE', #331, .T. ) ;
#112 = DIRECTION ( 'NONE',  ( 1.000000000000000000, 0.000000000000000000, 0.000000000000000000 ) ) ;
#113 = AXIS2_PLACEMENT_3D ( 'NONE', #35, #95, #277 ) ;
#114 = CARTESIAN_POINT ( 'NONE',  ( -3.281278341185188019, 11.78127834118517647, 2.500000000000000000 ) ) ;
#115 = VERTEX_POINT ( 'NONE', #28 ) ;
#116 = PLANE ( 'NONE',  #214 ) ;
#117 = PLANE ( 'NONE',  #113 ) ;
#118 = ADVANCED_FACE ( 'NONE', ( #111, #25 ), #221, .T. ) ;
#119 = PRESENTATION_LAYER_ASSIGNMENT (  '', '', ( #207 ) ) ;
#120 = DIRECTION ( 'NONE',  ( -0.000000000000000000, -1.000000000000000000, 0.000000000000000000 ) ) ;
#121 = ORIENTED_EDGE ( 'NONE', *, *, #183, .F. ) ;
#122 =( NAMED_UNIT ( * ) PLANE_ANGLE_UNIT ( ) SI_UNIT ( $, .RADIAN. ) );
#123 = VERTEX_POINT ( 'NONE', #243 ) ;
#124 = EDGE_CURVE ( 'NONE', #176, #209, #190, .T. ) ;
#125 = DIRECTION ( 'NONE',  ( 0.08682659386424779191, -0.08682659386424779191, -0.9924325091389669673 ) ) ;
#126 = ORIENTED_EDGE ( 'NONE', *, *, #245, .F. ) ;
#127 = CARTESIAN_POINT ( 'NONE',  ( -3.281278341185189795, 58.21872165881479333, 2.500000000000000000 ) ) ;
#128 = UNCERTAINTY_MEASURE_WITH_UNIT (LENGTH_MEASURE( 1.000000000000000082E-05 ), #30, 'distance_accuracy_value', 'NONE');
#129 = DIRECTION ( 'NONE',  ( -1.000000000000000000, 0.000000000000000000, 0.000000000000000000 ) ) ;
#130 = EDGE_LOOP ( 'NONE', ( #104, #144, #131, #206 ) ) ;
#131 = ORIENTED_EDGE ( 'NONE', *, *, #241, .F. ) ;
#132 = ADVANCED_BREP_SHAPE_REPRESENTATION ( 'Part10^V5 ass', ( #42, #99 ), #91 ) ;
#133 = UNCERTAINTY_MEASURE_WITH_UNIT (LENGTH_MEASURE( 1.000000000000000082E-05 ), #102, 'distance_accuracy_value', 'NONE');
#134 = VECTOR ( 'NONE', #125, 1000.000000000000114 ) ;
#135 = SURFACE_SIDE_STYLE ('',( #53 ) ) ;
#136 = EDGE_CURVE ( 'NONE', #123, #24, #338, .T. ) ;
#137 = PLANE ( 'NONE',  #295 ) ;
#138 = SURFACE_STYLE_USAGE ( .BOTH. , #135 ) ;
#139 = COLOUR_RGB ( '',0.7960784313725489669, 0.8235294117647058432, 0.9372549019607843146 ) ;
#140 = LINE ( 'NONE', #110, #194 ) ;
#141 = DIRECTION ( 'NONE',  ( -0.08682659386424779191, -0.08682659386424779191, -0.9924325091389669673 ) ) ;
#142 = ADVANCED_FACE ( 'NONE', ( #187 ), #164, .T. ) ;
#143 = DIRECTION ( 'NONE',  ( 0.08715574274765836016, 0.000000000000000000, -0.9961946980917455452 ) ) ;
#144 = ORIENTED_EDGE ( 'NONE', *, *, #10, .F. ) ;
#145 = CARTESIAN_POINT ( 'NONE',  ( -101.5000000000000000, 11.99999999999998579, 0.000000000000000000 ) ) ;
#146 = ADVANCED_FACE ( 'NONE', ( #60 ), #34, .T. ) ;
#147 = DIRECTION ( 'NONE',  ( -1.000000000000000000, 0.000000000000000000, 0.000000000000000000 ) ) ;
#148 = EDGE_LOOP ( 'NONE', ( #225, #323, #103, #260 ) ) ;
#149 = DIRECTION ( 'NONE',  ( 1.000000000000000000, -0.000000000000000000, -0.000000000000000000 ) ) ;
#150 = ORIENTED_EDGE ( 'NONE', *, *, #159, .F. ) ;
#151 =( NAMED_UNIT ( * ) SI_UNIT ( $, .STERADIAN. ) SOLID_ANGLE_UNIT ( ) );
#152 = ORIENTED_EDGE ( 'NONE', *, *, #168, .T. ) ;
#153 = EDGE_CURVE ( 'NONE', #180, #283, #8, .T. ) ;
#154 = ORIENTED_EDGE ( 'NONE', *, *, #107, .F. ) ;
#155 = CARTESIAN_POINT ( 'NONE',  ( -2.500000000000000000, 58.99999999999998579, 0.000000000000000000 ) ) ;
#156 = VERTEX_POINT ( 'NONE', #303 ) ;
#157 = FILL_AREA_STYLE_COLOUR ( '', #139 ) ;
#158 = CARTESIAN_POINT ( 'NONE',  ( -3.281278341185188019, 11.99999999999998579, 2.500000000000000000 ) ) ;
#159 = EDGE_CURVE ( 'NONE', #230, #176, #170, .T. ) ;
#160 = LINE ( 'NONE', #21, #3 ) ;
#161 = ORIENTED_EDGE ( 'NONE', *, *, #289, .T. ) ;
#162 = PRODUCT ( 'Part10^V5 ass', 'Part10^V5 ass', '', ( #208 ) ) ;
#163 = AXIS2_PLACEMENT_3D ( 'NONE', #223, #87, #143 ) ;
#164 = PLANE ( 'NONE',  #163 ) ;
#165 = FACE_OUTER_BOUND ( 'NONE', #172, .T. ) ;
#166 = DIRECTION ( 'NONE',  ( -0.08682659386424779191, 0.08682659386424779191, -0.9924325091389669673 ) ) ;
#167 = FACE_OUTER_BOUND ( 'NONE', #258, .T. ) ;
#168 = EDGE_CURVE ( 'NONE', #123, #230, #300, .T. ) ;
#169 = LINE ( 'NONE', #271, #313 ) ;
#170 = LINE ( 'NONE', #13, #38 ) ;
#171 = PLANE ( 'NONE',  #85 ) ;
#172 = EDGE_LOOP ( 'NONE', ( #186, #288, #47, #256 ) ) ;
#173 = LINE ( 'NONE', #252, #20 ) ;
#174 = EDGE_LOOP ( 'NONE', ( #309, #314, #12, #274 ) ) ;
#175 = CARTESIAN_POINT ( 'NONE',  ( -101.7187216588148004, 58.21872165881479333, 2.500000000000000000 ) ) ;
#176 = VERTEX_POINT ( 'NONE', #321 ) ;
#177 = SURFACE_STYLE_FILL_AREA ( #181 ) ;
#178 = VECTOR ( 'NONE', #244, 1000.000000000000000 ) ;
#179 = EDGE_LOOP ( 'NONE', ( #278, #236, #196, #152 ) ) ;
#180 = VERTEX_POINT ( 'NONE', #328 ) ;
#181 = FILL_AREA_STYLE ('',( #157 ) ) ;
#182 = VERTEX_POINT ( 'NONE', #114 ) ;
#183 = EDGE_CURVE ( 'NONE', #199, #71, #322, .T. ) ;
#184 = PRESENTATION_LAYER_ASSIGNMENT (  '', '', ( #326 ) ) ;
#185 = ORIENTED_EDGE ( 'NONE', *, *, #37, .F. ) ;
#186 = ORIENTED_EDGE ( 'NONE', *, *, #222, .F. ) ;
#187 = FACE_OUTER_BOUND ( 'NONE', #148, .T. ) ;
#188 = VECTOR ( 'NONE', #149, 1000.000000000000000 ) ;
#189 = CARTESIAN_POINT ( 'NONE',  ( -101.5000000000000000, 57.99999999999997868, 0.000000000000000000 ) ) ;
#190 = LINE ( 'NONE', #293, #109 ) ;
#191 = DIRECTION ( 'NONE',  ( 0.000000000000000000, -1.000000000000000000, 0.000000000000000000 ) ) ;
#192 = CARTESIAN_POINT ( 'NONE',  ( -2.499999999999998668, 10.99999999999998757, 0.000000000000000000 ) ) ;
#193 = PRODUCT_DEFINITION_SHAPE ( 'NONE', 'NONE',  #198 ) ;
#194 = VECTOR ( 'NONE', #269, 1000.000000000000000 ) ;
#195 = CARTESIAN_POINT ( 'NONE',  ( -102.5000000000000000, 10.99999999999998757, 0.000000000000000000 ) ) ;
#196 = ORIENTED_EDGE ( 'NONE', *, *, #136, .F. ) ;
#197 = CARTESIAN_POINT ( 'NONE',  ( -2.500000000000000000, 58.99999999999998579, 0.000000000000000000 ) ) ;
#198 = PRODUCT_DEFINITION ( 'General', '', #77, #200 ) ;
#199 = VERTEX_POINT ( 'NONE', #175 ) ;
#200 = PRODUCT_DEFINITION_CONTEXT ( 'detailed design', #29, 'design' ) ;
#201 = FACE_OUTER_BOUND ( 'NONE', #36, .T. ) ;
#202 = VECTOR ( 'NONE', #284, 1000.000000000000114 ) ;
#203 = DIRECTION ( 'NONE',  ( 0.08715574274765836016, 0.000000000000000000, -0.9961946980917455452 ) ) ;
#204 = PLANE ( 'NONE',  #27 ) ;
#205 =( NAMED_UNIT ( * ) SI_UNIT ( $, .STERADIAN. ) SOLID_ANGLE_UNIT ( ) );
#206 = ORIENTED_EDGE ( 'NONE', *, *, #32, .T. ) ;
#207 = STYLED_ITEM ( 'NONE', ( #83 ), #42 ) ;
#208 = PRODUCT_CONTEXT ( 'NONE', #267, 'mechanical' ) ;
#209 = VERTEX_POINT ( 'NONE', #327 ) ;
#210 = LINE ( 'NONE', #23, #202 ) ;
#211 = VERTEX_POINT ( 'NONE', #273 ) ;
#212 = ADVANCED_FACE ( 'NONE', ( #64 ), #117, .T. ) ;
#213 = VERTEX_POINT ( 'NONE', #253 ) ;
#214 = AXIS2_PLACEMENT_3D ( 'NONE', #226, #296, #59 ) ;
#215 = ORIENTED_EDGE ( 'NONE', *, *, #272, .F. ) ;
#216 = EDGE_CURVE ( 'NONE', #9, #213, #227, .T. ) ;
#217 = DIRECTION ( 'NONE',  ( -1.000000000000000000, -0.000000000000000000, -0.000000000000000000 ) ) ;
#218 = CARTESIAN_POINT ( 'NONE',  ( -101.5000000000000000, 11.99999999999998579, 0.000000000000000000 ) ) ;
#219 = VECTOR ( 'NONE', #129, 1000.000000000000000 ) ;
#220 = DIRECTION ( 'NONE',  ( 0.000000000000000000, 0.000000000000000000, 1.000000000000000000 ) ) ;
#221 = PLANE ( 'NONE',  #301 ) ;
#222 = EDGE_CURVE ( 'NONE', #211, #234, #224, .T. ) ;
#223 = CARTESIAN_POINT ( 'NONE',  ( -101.5000000000000000, 57.99999999999997868, 0.000000000000000000 ) ) ;
#224 = LINE ( 'NONE', #145, #75 ) ;
#225 = ORIENTED_EDGE ( 'NONE', *, *, #94, .F. ) ;
#226 = CARTESIAN_POINT ( 'NONE',  ( -3.500000000000000000, 57.99999999999997868, 0.000000000000000000 ) ) ;
#227 = LINE ( 'NONE', #279, #276 ) ;
#228 = VECTOR ( 'NONE', #50, 1000.000000000000000 ) ;
#229 = LINE ( 'NONE', #250, #318 ) ;
#230 = VERTEX_POINT ( 'NONE', #197 ) ;
#231 = ADVANCED_FACE ( 'NONE', ( #299 ), #171, .T. ) ;
#232 = EDGE_LOOP ( 'NONE', ( #76, #46, #215, #161 ) ) ;
#233 = DIRECTION ( 'NONE',  ( 0.000000000000000000, 0.000000000000000000, 1.000000000000000000 ) ) ;
#234 = VERTEX_POINT ( 'NONE', #43 ) ;
#235 = VECTOR ( 'NONE', #65, 1000.000000000000114 ) ;
#236 = ORIENTED_EDGE ( 'NONE', *, *, #32, .F. ) ;
#237 = SURFACE_SIDE_STYLE ('',( #177 ) ) ;
#238 = CARTESIAN_POINT ( 'NONE',  ( -102.5000000000000000, 58.99999999999998579, 0.000000000000000000 ) ) ;
#239 = FACE_OUTER_BOUND ( 'NONE', #179, .T. ) ;
#240 = ORIENTED_EDGE ( 'NONE', *, *, #289, .F. ) ;
#241 = EDGE_CURVE ( 'NONE', #24, #180, #275, .T. ) ;
#242 = AXIS2_PLACEMENT_3D ( 'NONE', #195, #249, #39 ) ;
#243 = CARTESIAN_POINT ( 'NONE',  ( -2.718721658814810205, 58.78127834118517114, 2.500000000000000000 ) ) ;
#244 = DIRECTION ( 'NONE',  ( -1.000000000000000000, 0.000000000000000000, 0.000000000000000000 ) ) ;
#245 = EDGE_CURVE ( 'NONE', #71, #182, #229, .T. ) ;
#246 = CARTESIAN_POINT ( 'NONE',  ( -101.7187216588148004, 11.78127834118517647, 2.500000000000000000 ) ) ;
#247 = CARTESIAN_POINT ( 'NONE',  ( 0.000000000000000000, 0.000000000000000000, 0.000000000000000000 ) ) ;
#248 = DIRECTION ( 'NONE',  ( -2.710505431213761393E-17, 1.000000000000000000, -0.000000000000000000 ) ) ;
#249 = DIRECTION ( 'NONE',  ( 0.000000000000000000, -0.9961946980917455452, 0.08715574274765837404 ) ) ;
#250 = CARTESIAN_POINT ( 'NONE',  ( -101.5000000000000000, 11.78127834118517647, 2.500000000000000000 ) ) ;
#251 = EDGE_LOOP ( 'NONE', ( #126, #121, #100, #52 ) ) ;
#252 = CARTESIAN_POINT ( 'NONE',  ( -3.499999999999998668, 11.99999999999998579, 0.000000000000000000 ) ) ;
#253 = CARTESIAN_POINT ( 'NONE',  ( -3.500000000000000000, 57.99999999999997868, 0.000000000000000000 ) ) ;
#254 = VECTOR ( 'NONE', #89, 1000.000000000000000 ) ;
#255 = PRESENTATION_STYLE_ASSIGNMENT (( #96 ) ) ;
#256 = ORIENTED_EDGE ( 'NONE', *, *, #5, .T. ) ;
#257 = CARTESIAN_POINT ( 'NONE',  ( 0.000000000000000000, 0.000000000000000000, 0.000000000000000000 ) ) ;
#258 = EDGE_LOOP ( 'NONE', ( #150, #185, #154, #334 ) ) ;
#259 = ADVANCED_FACE ( 'NONE', ( #201 ), #116, .T. ) ;
#260 = ORIENTED_EDGE ( 'NONE', *, *, #325, .T. ) ;
#261 =( GEOMETRIC_REPRESENTATION_CONTEXT ( 3 ) GLOBAL_UNCERTAINTY_ASSIGNED_CONTEXT ( ( #128 ) ) GLOBAL_UNIT_ASSIGNED_CONTEXT ( ( #30, #294, #81 ) ) REPRESENTATION_CONTEXT ( 'NONE', 'WORKASPACE' ) );
#262 = LINE ( 'NONE', #238, #7 ) ;
#263 = ORIENTED_EDGE ( 'NONE', *, *, #10, .T. ) ;
#264 = VECTOR ( 'NONE', #56, 1000.000000000000000 ) ;
#265 = DIRECTION ( 'NONE',  ( 1.000000000000000000, 0.000000000000000000, -0.000000000000000000 ) ) ;
#266 = PLANE ( 'NONE',  #287 ) ;
#267 = APPLICATION_CONTEXT ( 'automotive_design' ) ;
#268 = EDGE_CURVE ( 'NONE', #234, #213, #173, .T. ) ;
#269 = DIRECTION ( 'NONE',  ( 1.000000000000000000, 0.000000000000000000, 0.000000000000000000 ) ) ;
#270 = DIRECTION ( 'NONE',  ( 0.08715574274765836016, 0.000000000000000000, 0.9961946980917455452 ) ) ;
#271 = CARTESIAN_POINT ( 'NONE',  ( -2.718721658814809317, 10.99999999999998757, 2.500000000000000000 ) ) ;
#272 = EDGE_CURVE ( 'NONE', #283, #123, #169, .T. ) ;
#273 = CARTESIAN_POINT ( 'NONE',  ( -101.5000000000000000, 11.99999999999998579, 0.000000000000000000 ) ) ;
#274 = ORIENTED_EDGE ( 'NONE', *, *, #216, .T. ) ;
#275 = LINE ( 'NONE', #16, #281 ) ;
#276 = VECTOR ( 'NONE', #141, 1000.000000000000114 ) ;
#277 = DIRECTION ( 'NONE',  ( 0.08715574274765836016, 0.000000000000000000, 0.9961946980917455452 ) ) ;
#278 = ORIENTED_EDGE ( 'NONE', *, *, #159, .T. ) ;
#279 = CARTESIAN_POINT ( 'NONE',  ( -3.500000000000000000, 57.99999999999997868, -1.665904134297146231E-32 ) ) ;
#280 = LINE ( 'NONE', #311, #134 ) ;
#281 = VECTOR ( 'NONE', #120, 1000.000000000000000 ) ;
#282 = DIRECTION ( 'NONE',  ( 0.000000000000000000, -0.08715574274765837404, 0.9961946980917455452 ) ) ;
#283 = VERTEX_POINT ( 'NONE', #6 ) ;
#284 = DIRECTION ( 'NONE',  ( 0.08682659386424779191, 0.08682659386424779191, -0.9924325091389669673 ) ) ;
#285 = ORIENTED_EDGE ( 'NONE', *, *, #316, .T. ) ;
#286 = LINE ( 'NONE', #158, #228 ) ;
#287 = AXIS2_PLACEMENT_3D ( 'NONE', #33, #80, #270 ) ;
#288 = ORIENTED_EDGE ( 'NONE', *, *, #325, .F. ) ;
#289 = EDGE_CURVE ( 'NONE', #283, #156, #280, .T. ) ;
#290 = EDGE_LOOP ( 'NONE', ( #18, #240, #78, #263 ) ) ;
#291 = PLANE ( 'NONE',  #15 ) ;
#292 = DIRECTION ( 'NONE',  ( 1.000000000000000000, 0.000000000000000000, -0.000000000000000000 ) ) ;
#293 = CARTESIAN_POINT ( 'NONE',  ( -102.5000000000000000, 58.99999999999998579, 0.000000000000000000 ) ) ;
#294 =( NAMED_UNIT ( * ) PLANE_ANGLE_UNIT ( ) SI_UNIT ( $, .RADIAN. ) );
#295 = AXIS2_PLACEMENT_3D ( 'NONE', #247, #55, #265 ) ;
#296 = DIRECTION ( 'NONE',  ( 0.000000000000000000, -0.9961946980917455452, 0.08715574274765836016 ) ) ;
#297 = CARTESIAN_POINT ( 'NONE',  ( -101.7187216588148004, 57.99999999999997868, 2.500000000000000000 ) ) ;
#298 = ORIENTED_EDGE ( 'NONE', *, *, #335, .T. ) ;
#299 = FACE_OUTER_BOUND ( 'NONE', #232, .T. ) ;
#300 = LINE ( 'NONE', #63, #235 ) ;
#301 = AXIS2_PLACEMENT_3D ( 'NONE', #319, #220, #292 ) ;
#302 = UNCERTAINTY_MEASURE_WITH_UNIT (LENGTH_MEASURE( 1.000000000000000082E-05 ), #48, 'distance_accuracy_value', 'NONE');
#303 = CARTESIAN_POINT ( 'NONE',  ( -2.499999999999998668, 10.99999999999998757, 0.000000000000000000 ) ) ;
#304 = DIRECTION ( 'NONE',  ( 1.000000000000000000, 0.000000000000000000, 0.000000000000000000 ) ) ;
#305 =( NAMED_UNIT ( * ) PLANE_ANGLE_UNIT ( ) SI_UNIT ( $, .RADIAN. ) );
#306 = CARTESIAN_POINT ( 'NONE',  ( -102.5000000000000000, 10.99999999999998757, 0.000000000000000000 ) ) ;
#307 = VECTOR ( 'NONE', #97, 1000.000000000000114 ) ;
#308 = SHAPE_DEFINITION_REPRESENTATION ( #193, #132 ) ;
#309 = ORIENTED_EDGE ( 'NONE', *, *, #268, .F. ) ;
#310 = CARTESIAN_POINT ( 'NONE',  ( -102.2812783411851854, 58.78127834118517114, 2.500000000000000000 ) ) ;
#311 = CARTESIAN_POINT ( 'NONE',  ( -2.499999999999998668, 10.99999999999998757, 0.000000000000000000 ) ) ;
#312 = ORIENTED_EDGE ( 'NONE', *, *, #268, .T. ) ;
#313 = VECTOR ( 'NONE', #248, 1000.000000000000000 ) ;
#314 = ORIENTED_EDGE ( 'NONE', *, *, #5, .F. ) ;
#315 = FILL_AREA_STYLE_COLOUR ( '', #44 ) ;
#316 = EDGE_CURVE ( 'NONE', #213, #115, #51, .T. ) ;
#317 = DIRECTION ( 'NONE',  ( 0.000000000000000000, -0.08715574274765836016, 0.9961946980917455452 ) ) ;
#318 = VECTOR ( 'NONE', #11, 1000.000000000000000 ) ;
#319 = CARTESIAN_POINT ( 'NONE',  ( 0.000000000000000000, 0.000000000000000000, 2.500000000000000000 ) ) ;
#320 = LINE ( 'NONE', #192, #264 ) ;
#321 = CARTESIAN_POINT ( 'NONE',  ( -102.5000000000000000, 58.99999999999998579, 0.000000000000000000 ) ) ;
#322 = LINE ( 'NONE', #297, #254 ) ;
#323 = ORIENTED_EDGE ( 'NONE', *, *, #335, .F. ) ;
#324 = CARTESIAN_POINT ( 'NONE',  ( -102.5000000000000000, 11.21872165881479688, 2.500000000000000000 ) ) ;
#325 = EDGE_CURVE ( 'NONE', #71, #211, #210, .T. ) ;
#326 = STYLED_ITEM ( 'NONE', ( #255 ), #132 ) ;
#327 = CARTESIAN_POINT ( 'NONE',  ( -102.5000000000000000, 10.99999999999998757, 0.000000000000000000 ) ) ;
#328 = CARTESIAN_POINT ( 'NONE',  ( -102.2812783411851854, 11.21872165881479688, 2.500000000000000000 ) ) ;
#329 = ADVANCED_FACE ( 'NONE', ( #239 ), #204, .T. ) ;
#330 = CARTESIAN_POINT ( 'NONE',  ( -3.499999999999998668, 11.99999999999998579, 0.000000000000000000 ) ) ;
#331 = EDGE_LOOP ( 'NONE', ( #88, #17, #336, #70 ) ) ;
#332 = MECHANICAL_DESIGN_GEOMETRIC_PRESENTATION_REPRESENTATION (  '', ( #207 ), #261 ) ;
#333 = LINE ( 'NONE', #330, #307 ) ;
#334 = ORIENTED_EDGE ( 'NONE', *, *, #124, .F. ) ;
#335 = EDGE_CURVE ( 'NONE', #199, #115, #160, .T. ) ;
#336 = ORIENTED_EDGE ( 'NONE', *, *, #153, .T. ) ;
#337 = VECTOR ( 'NONE', #108, 1000.000000000000000 ) ;
#338 = LINE ( 'NONE', #105, #49 ) ;
ENDSEC;
END-ISO-10303-21;
