ISO-10303-21;
HEADER;
FILE_DESCRIPTION (( 'STEP AP214' ),
    '1' );
FILE_NAME ('R1~R0402~R0402_L1.0-W0.5-H0.4~8fiY.step.STEP',
    '2026-07-06T21:55:12',
    ( '' ),
    ( '' ),
    'SwSTEP 2.0',
    'SolidWorks 2025',
    '' );
FILE_SCHEMA (( 'AUTOMOTIVE_DESIGN' ));
ENDSEC;

DATA;
#1 = DIRECTION ( 'NONE',  ( 1.000000000000000000, 0.000000000000000000, 2.077461250111562526E-48 ) ) ;
#2 = PROPERTY_DEFINITION_REPRESENTATION ( #60, #38 ) ;
#3 = DOCUMENT_FILE ( 'R0402~R0402_L1.0-W0.5-H0.4~8fiY.step.STEP' , '', '', #27, '' ,$ ) ;
#4 = APPLICATION_CONTEXT ( 'automotive_design' ) ;
#5 = PRODUCT_DEFINITION_CONTEXT ( 'detailed design', #63, 'design' ) ;
#6 = PROPERTY_DEFINITION ('document property','', #3 ) ;
#7 = APPLIED_EXTERNAL_IDENTIFICATION_ASSIGNMENT ( 'R0402~R0402_L1.0-W0.5-H0.4~8fiY.step.STEP' , #57, #44,( #3) ) ;
#8 = ITEM_DEFINED_TRANSFORMATION ( 'NONE', 'NONE', #30,  #34 ) ;
#9 = PRODUCT_DEFINITION_FORMATION_WITH_SPECIFIED_SOURCE ( 'Symmetric', '', #29, .NOT_KNOWN. ) ;
#10 =( GEOMETRIC_REPRESENTATION_CONTEXT ( 3 ) GLOBAL_UNCERTAINTY_ASSIGNED_CONTEXT ( ( #14 ) ) GLOBAL_UNIT_ASSIGNED_CONTEXT ( ( #39, #46, #55 ) ) REPRESENTATION_CONTEXT ( 'NONE', 'WORKASPACE' ) );
#11 = PRODUCT_DEFINITION ( 'General', '', #56, #48 ) ;
#12 = PRODUCT ( 'R0402~R0402_L1.0-W0.5-H0.4~8fiY.step', 'R0402~R0402_L1.0-W0.5-H0.4~8fiY.step', '', ( #51 ) ) ;
#13 = DIRECTION ( 'NONE',  ( 2.077461250111562526E-48, 0.000000000000000000, 1.000000000000000444 ) ) ;
#14 = UNCERTAINTY_MEASURE_WITH_UNIT (LENGTH_MEASURE( 1.000000000000000082E-05 ), #39, 'distance_accuracy_value', 'NONE');
#15 = DIRECTION ( 'NONE',  ( 0.000000000000000000, 0.000000000000000000, 1.000000000000000000 ) ) ;
#16 =( LENGTH_UNIT ( ) NAMED_UNIT ( * ) SI_UNIT ( .MILLI., .METRE. ) );
#17 = PRODUCT_CONTEXT ( 'NONE', #53, 'mechanical' ) ;
#18 = SHAPE_REPRESENTATION ( 'R1~R0402~R0402_L1.0-W0.5-H0.4~8fiY.step', ( #19, #30 ), #58 ) ;
#19 = AXIS2_PLACEMENT_3D ( 'NONE', #42, #59, #33 ) ;
#20 =( NAMED_UNIT ( * ) PLANE_ANGLE_UNIT ( ) SI_UNIT ( $, .RADIAN. ) );
#21 = DIRECTION ( 'NONE',  ( 1.000000000000000000, 0.000000000000000000, 0.000000000000000000 ) ) ;
#22 = PRODUCT_RELATED_PRODUCT_CATEGORY ( 'part', '', ( #12 ) ) ;
#23 = CARTESIAN_POINT ( 'NONE',  ( 0.000000000000000000, 0.000000000000000000, 0.000000000000000000 ) ) ;
#24 = CARTESIAN_POINT ( 'NONE',  ( 0.000000000000000000, 0.000000000000000000, 0.000000000000000000 ) ) ;
#25 = PRODUCT_DEFINITION_SHAPE ( 'NONE', 'NONE',  #47 ) ;
#26 = APPLICATION_PROTOCOL_DEFINITION ( 'draft international standard', 'automotive_design', 1998, #52 ) ;
#27 = DOCUMENT_TYPE ( 'geometry' ) ;
#28 = PRODUCT_DEFINITION_SHAPE ( 'NONE', 'NONE',  #11 ) ;
#29 = PRODUCT ( 'R1~R0402~R0402_L1.0-W0.5-H0.4~8fiY.step', 'R1~R0402~R0402_L1.0-W0.5-H0.4~8fiY.step', '', ( #17 ) ) ;
#30 = AXIS2_PLACEMENT_3D ( 'NONE', #24, #13, #1 ) ;
#31 = SHAPE_DEFINITION_REPRESENTATION ( #25, #18 ) ;
#32 = SHAPE_DEFINITION_REPRESENTATION ( #28, #38 ) ;
#33 = DIRECTION ( 'NONE',  ( 1.000000000000000000, 0.000000000000000000, 0.000000000000000000 ) ) ;
#34 = AXIS2_PLACEMENT_3D ( 'NONE', #23, #15, #21 ) ;
#35 = APPLICATION_PROTOCOL_DEFINITION ( 'draft international standard', 'automotive_design', 1998, #4 ) ;
#36 = PRODUCT_DEFINITION_SHAPE ( 'NONE', 'NONE',  #65 ) ;
#37 =( REPRESENTATION_RELATIONSHIP ('NONE','NONE', #18, #38 ) REPRESENTATION_RELATIONSHIP_WITH_TRANSFORMATION ( #8 )SHAPE_REPRESENTATION_RELATIONSHIP( ) );
#38 = SHAPE_REPRESENTATION ( 'R0402~R0402_L1.0-W0.5-H0.4~8fiY.step', ( #34 ), #10 ) ;
#39 =( LENGTH_UNIT ( ) NAMED_UNIT ( * ) SI_UNIT ( .MILLI., .METRE. ) );
#40 =( NAMED_UNIT ( * ) SI_UNIT ( $, .STERADIAN. ) SOLID_ANGLE_UNIT ( ) );
#41 = APPLICATION_PROTOCOL_DEFINITION ( 'draft international standard', 'automotive_design', 1998, #63 ) ;
#42 = CARTESIAN_POINT ( 'NONE',  ( 0.000000000000000000, 0.000000000000000000, 0.000000000000000000 ) ) ;
#43 = PRODUCT_RELATED_PRODUCT_CATEGORY ( 'part', '', ( #29 ) ) ;
#44 = EXTERNAL_SOURCE (IDENTIFIER('') ) ;
#45 = APPLICATION_PROTOCOL_DEFINITION ( 'draft international standard', 'automotive_design', 1998, #53 ) ;
#46 =( NAMED_UNIT ( * ) PLANE_ANGLE_UNIT ( ) SI_UNIT ( $, .RADIAN. ) );
#47 = PRODUCT_DEFINITION ( 'General', '', #9, #5 ) ;
#48 = PRODUCT_DEFINITION_CONTEXT ( 'detailed design', #4, 'design' ) ;
#49 = ROLE_ASSOCIATION ( #64, #50 ) ;
#50 = APPLIED_DOCUMENT_REFERENCE ( #3,'',( #11) ) ;
#51 = PRODUCT_CONTEXT ( 'NONE', #52, 'mechanical' ) ;
#52 = APPLICATION_CONTEXT ( 'automotive_design' ) ;
#53 = APPLICATION_CONTEXT ( 'automotive_design' ) ;
#54 = UNCERTAINTY_MEASURE_WITH_UNIT (LENGTH_MEASURE( 1.000000000000000082E-05 ), #16, 'distance_accuracy_value', 'NONE');
#55 =( NAMED_UNIT ( * ) SI_UNIT ( $, .STERADIAN. ) SOLID_ANGLE_UNIT ( ) );
#56 = PRODUCT_DEFINITION_FORMATION_WITH_SPECIFIED_SOURCE ( 'Symmetric', '', #12, .NOT_KNOWN. ) ;
#57 = IDENTIFICATION_ROLE ( 'external document id and location', $) ;
#58 =( GEOMETRIC_REPRESENTATION_CONTEXT ( 3 ) GLOBAL_UNCERTAINTY_ASSIGNED_CONTEXT ( ( #54 ) ) GLOBAL_UNIT_ASSIGNED_CONTEXT ( ( #16, #20, #40 ) ) REPRESENTATION_CONTEXT ( 'NONE', 'WORKASPACE' ) );
#59 = DIRECTION ( 'NONE',  ( 0.000000000000000000, 0.000000000000000000, 1.000000000000000000 ) ) ;
#60 = PROPERTY_DEFINITION ('external definition','', #3 ) ;
#61 = PROPERTY_DEFINITION_REPRESENTATION ( #6, #38 ) ;
#62 = CONTEXT_DEPENDENT_SHAPE_REPRESENTATION ( #37, #36 ) ;
#63 = APPLICATION_CONTEXT ( 'automotive_design' ) ;
#64 = OBJECT_ROLE ('mandatory',$ ) ;
#65 = NEXT_ASSEMBLY_USAGE_OCCURRENCE ( 'NAUO7', ' ', ' ', #47, #11, $ ) ;
ENDSEC;
END-ISO-10303-21;
