ISO-10303-21;
HEADER;
FILE_DESCRIPTION (( 'STEP AP214' ),
    '1' );
FILE_NAME ('R2~R0402~R0402_L1.0-W0.5-H0.4~8fiY.step.STEP',
    '2026-07-13T19:26:01',
    ( '' ),
    ( '' ),
    'SwSTEP 2.0',
    'SolidWorks 2025',
    '' );
FILE_SCHEMA (( 'AUTOMOTIVE_DESIGN' ));
ENDSEC;

DATA;
#1 = PRODUCT_CONTEXT ( 'NONE', #50, 'mechanical' ) ;
#2 =( GEOMETRIC_REPRESENTATION_CONTEXT ( 3 ) GLOBAL_UNCERTAINTY_ASSIGNED_CONTEXT ( ( #33 ) ) GLOBAL_UNIT_ASSIGNED_CONTEXT ( ( #32, #23, #62 ) ) REPRESENTATION_CONTEXT ( 'NONE', 'WORKASPACE' ) );
#3 = SHAPE_DEFINITION_REPRESENTATION ( #55, #56 ) ;
#4 = PRODUCT_DEFINITION_CONTEXT ( 'detailed design', #7, 'design' ) ;
#5 = PRODUCT_DEFINITION_FORMATION_WITH_SPECIFIED_SOURCE ( 'Symmetric', '', #27, .NOT_KNOWN. ) ;
#6 = IDENTIFICATION_ROLE ( 'external document id and location', $) ;
#7 = APPLICATION_CONTEXT ( 'automotive_design' ) ;
#8 = DIRECTION ( 'NONE',  ( 1.000000000000000000, 0.000000000000000000, 0.000000000000000000 ) ) ;
#9 = AXIS2_PLACEMENT_3D ( 'NONE', #42, #47, #63 ) ;
#10 =( LENGTH_UNIT ( ) NAMED_UNIT ( * ) SI_UNIT ( .MILLI., .METRE. ) );
#11 = DIRECTION ( 'NONE',  ( 0.000000000000000000, 0.000000000000000000, 1.000000000000000000 ) ) ;
#12 = ITEM_DEFINED_TRANSFORMATION ( 'NONE', 'NONE', #41,  #39 ) ;
#13 = PROPERTY_DEFINITION ('external definition','', #37 ) ;
#14 = PRODUCT_DEFINITION_CONTEXT ( 'detailed design', #59, 'design' ) ;
#15 = SHAPE_DEFINITION_REPRESENTATION ( #21, #28 ) ;
#16 = ROLE_ASSOCIATION ( #18, #48 ) ;
#17 = APPLICATION_PROTOCOL_DEFINITION ( 'draft international standard', 'automotive_design', 1998, #7 ) ;
#18 = OBJECT_ROLE ('mandatory',$ ) ;
#19 = APPLICATION_PROTOCOL_DEFINITION ( 'draft international standard', 'automotive_design', 1998, #59 ) ;
#20 = UNCERTAINTY_MEASURE_WITH_UNIT (LENGTH_MEASURE( 1.000000000000000082E-05 ), #10, 'distance_accuracy_value', 'NONE');
#21 = PRODUCT_DEFINITION_SHAPE ( 'NONE', 'NONE',  #44 ) ;
#22 = PRODUCT_DEFINITION_SHAPE ( 'NONE', 'NONE',  #65 ) ;
#23 =( NAMED_UNIT ( * ) PLANE_ANGLE_UNIT ( ) SI_UNIT ( $, .RADIAN. ) );
#24 = CARTESIAN_POINT ( 'NONE',  ( 0.000000000000000000, 0.000000000000000000, 0.000000000000000000 ) ) ;
#25 = CARTESIAN_POINT ( 'NONE',  ( 0.000000000000000000, 0.000000000000000000, 0.000000000000000000 ) ) ;
#26 = PRODUCT ( 'R0402~R0402_L1.0-W0.5-H0.4~8fiY.step', 'R0402~R0402_L1.0-W0.5-H0.4~8fiY.step', '', ( #60 ) ) ;
#27 = PRODUCT ( 'R2~R0402~R0402_L1.0-W0.5-H0.4~8fiY.step', 'R2~R0402~R0402_L1.0-W0.5-H0.4~8fiY.step', '', ( #1 ) ) ;
#28 = SHAPE_REPRESENTATION ( 'R2~R0402~R0402_L1.0-W0.5-H0.4~8fiY.step', ( #9, #41 ), #38 ) ;
#29 = DIRECTION ( 'NONE',  ( 1.000000000000000444, 0.000000000000000000, 0.000000000000000000 ) ) ;
#30 = CONTEXT_DEPENDENT_SHAPE_REPRESENTATION ( #45, #22 ) ;
#31 = APPLICATION_PROTOCOL_DEFINITION ( 'draft international standard', 'automotive_design', 1998, #50 ) ;
#32 =( LENGTH_UNIT ( ) NAMED_UNIT ( * ) SI_UNIT ( .MILLI., .METRE. ) );
#33 = UNCERTAINTY_MEASURE_WITH_UNIT (LENGTH_MEASURE( 1.000000000000000082E-05 ), #32, 'distance_accuracy_value', 'NONE');
#34 = APPLIED_EXTERNAL_IDENTIFICATION_ASSIGNMENT ( 'R0402~R0402_L1.0-W0.5-H0.4~8fiY.step.STEP' , #6, #53,( #37) ) ;
#35 = PROPERTY_DEFINITION_REPRESENTATION ( #51, #56 ) ;
#36 = PRODUCT_RELATED_PRODUCT_CATEGORY ( 'part', '', ( #27 ) ) ;
#37 = DOCUMENT_FILE ( 'R0402~R0402_L1.0-W0.5-H0.4~8fiY.step.STEP' , '', '', #49, '' ,$ ) ;
#38 =( GEOMETRIC_REPRESENTATION_CONTEXT ( 3 ) GLOBAL_UNCERTAINTY_ASSIGNED_CONTEXT ( ( #20 ) ) GLOBAL_UNIT_ASSIGNED_CONTEXT ( ( #10, #52, #58 ) ) REPRESENTATION_CONTEXT ( 'NONE', 'WORKASPACE' ) );
#39 = AXIS2_PLACEMENT_3D ( 'NONE', #24, #11, #8 ) ;
#40 = PRODUCT_RELATED_PRODUCT_CATEGORY ( 'part', '', ( #26 ) ) ;
#41 = AXIS2_PLACEMENT_3D ( 'NONE', #25, #46, #29 ) ;
#42 = CARTESIAN_POINT ( 'NONE',  ( 0.000000000000000000, 0.000000000000000000, 0.000000000000000000 ) ) ;
#43 = APPLICATION_CONTEXT ( 'automotive_design' ) ;
#44 = PRODUCT_DEFINITION ( 'General', '', #5, #4 ) ;
#45 =( REPRESENTATION_RELATIONSHIP ('NONE','NONE', #28, #56 ) REPRESENTATION_RELATIONSHIP_WITH_TRANSFORMATION ( #12 )SHAPE_REPRESENTATION_RELATIONSHIP( ) );
#46 = DIRECTION ( 'NONE',  ( 0.000000000000000000, 2.077461250111562526E-48, 1.000000000000000444 ) ) ;
#47 = DIRECTION ( 'NONE',  ( 0.000000000000000000, 0.000000000000000000, 1.000000000000000000 ) ) ;
#48 = APPLIED_DOCUMENT_REFERENCE ( #37,'',( #64) ) ;
#49 = DOCUMENT_TYPE ( 'geometry' ) ;
#50 = APPLICATION_CONTEXT ( 'automotive_design' ) ;
#51 = PROPERTY_DEFINITION ('document property','', #37 ) ;
#52 =( NAMED_UNIT ( * ) PLANE_ANGLE_UNIT ( ) SI_UNIT ( $, .RADIAN. ) );
#53 = EXTERNAL_SOURCE (IDENTIFIER('') ) ;
#54 = PROPERTY_DEFINITION_REPRESENTATION ( #13, #56 ) ;
#55 = PRODUCT_DEFINITION_SHAPE ( 'NONE', 'NONE',  #64 ) ;
#56 = SHAPE_REPRESENTATION ( 'R0402~R0402_L1.0-W0.5-H0.4~8fiY.step', ( #39 ), #2 ) ;
#57 = PRODUCT_DEFINITION_FORMATION_WITH_SPECIFIED_SOURCE ( 'Symmetric', '', #26, .NOT_KNOWN. ) ;
#58 =( NAMED_UNIT ( * ) SI_UNIT ( $, .STERADIAN. ) SOLID_ANGLE_UNIT ( ) );
#59 = APPLICATION_CONTEXT ( 'automotive_design' ) ;
#60 = PRODUCT_CONTEXT ( 'NONE', #43, 'mechanical' ) ;
#61 = APPLICATION_PROTOCOL_DEFINITION ( 'draft international standard', 'automotive_design', 1998, #43 ) ;
#62 =( NAMED_UNIT ( * ) SI_UNIT ( $, .STERADIAN. ) SOLID_ANGLE_UNIT ( ) );
#63 = DIRECTION ( 'NONE',  ( 1.000000000000000000, 0.000000000000000000, 0.000000000000000000 ) ) ;
#64 = PRODUCT_DEFINITION ( 'General', '', #57, #14 ) ;
#65 = NEXT_ASSEMBLY_USAGE_OCCURRENCE ( 'NAUO13', ' ', ' ', #44, #64, $ ) ;
ENDSEC;
END-ISO-10303-21;
