ISO-10303-21;
HEADER;
FILE_DESCRIPTION (( 'STEP AP214' ),
    '1' );
FILE_NAME ('R3~R0402~R0402_L1.0-W0.5-H0.4~8fiY.step.STEP',
    '2026-07-13T19:26:01',
    ( '' ),
    ( '' ),
    'SwSTEP 2.0',
    'SolidWorks 2025',
    '' );
FILE_SCHEMA (( 'AUTOMOTIVE_DESIGN' ));
ENDSEC;

DATA;
#1 = APPLIED_EXTERNAL_IDENTIFICATION_ASSIGNMENT ( 'R0402~R0402_L1.0-W0.5-H0.4~8fiY.step.STEP' , #9, #24,( #2) ) ;
#2 = DOCUMENT_FILE ( 'R0402~R0402_L1.0-W0.5-H0.4~8fiY.step.STEP' , '', '', #11, '' ,$ ) ;
#3 =( REPRESENTATION_RELATIONSHIP ('NONE','NONE', #48, #29 ) REPRESENTATION_RELATIONSHIP_WITH_TRANSFORMATION ( #45 )SHAPE_REPRESENTATION_RELATIONSHIP( ) );
#4 = APPLIED_DOCUMENT_REFERENCE ( #2,'',( #51) ) ;
#5 = CARTESIAN_POINT ( 'NONE',  ( 0.000000000000000000, 0.000000000000000000, 0.000000000000000000 ) ) ;
#6 = APPLICATION_PROTOCOL_DEFINITION ( 'draft international standard', 'automotive_design', 1998, #7 ) ;
#7 = APPLICATION_CONTEXT ( 'automotive_design' ) ;
#8 =( GEOMETRIC_REPRESENTATION_CONTEXT ( 3 ) GLOBAL_UNCERTAINTY_ASSIGNED_CONTEXT ( ( #21 ) ) GLOBAL_UNIT_ASSIGNED_CONTEXT ( ( #41, #60, #46 ) ) REPRESENTATION_CONTEXT ( 'NONE', 'WORKASPACE' ) );
#9 = IDENTIFICATION_ROLE ( 'external document id and location', $) ;
#10 = ROLE_ASSOCIATION ( #49, #4 ) ;
#11 = DOCUMENT_TYPE ( 'geometry' ) ;
#12 = APPLICATION_PROTOCOL_DEFINITION ( 'draft international standard', 'automotive_design', 1998, #20 ) ;
#13 = DIRECTION ( 'NONE',  ( 1.000000000000000000, 0.000000000000000000, 2.077461250111562526E-48 ) ) ;
#14 =( NAMED_UNIT ( * ) PLANE_ANGLE_UNIT ( ) SI_UNIT ( $, .RADIAN. ) );
#15 = DIRECTION ( 'NONE',  ( 1.000000000000000000, 0.000000000000000000, 0.000000000000000000 ) ) ;
#16 = PRODUCT_RELATED_PRODUCT_CATEGORY ( 'part', '', ( #64 ) ) ;
#17 = PROPERTY_DEFINITION_REPRESENTATION ( #58, #29 ) ;
#18 =( NAMED_UNIT ( * ) SI_UNIT ( $, .STERADIAN. ) SOLID_ANGLE_UNIT ( ) );
#19 = PRODUCT_DEFINITION_SHAPE ( 'NONE', 'NONE',  #59 ) ;
#20 = APPLICATION_CONTEXT ( 'automotive_design' ) ;
#21 = UNCERTAINTY_MEASURE_WITH_UNIT (LENGTH_MEASURE( 1.000000000000000082E-05 ), #41, 'distance_accuracy_value', 'NONE');
#22 = APPLICATION_PROTOCOL_DEFINITION ( 'draft international standard', 'automotive_design', 1998, #36 ) ;
#23 = PROPERTY_DEFINITION ('document property','', #2 ) ;
#24 = EXTERNAL_SOURCE (IDENTIFIER('') ) ;
#25 = PRODUCT_DEFINITION_SHAPE ( 'NONE', 'NONE',  #65 ) ;
#26 = PRODUCT ( 'R0402~R0402_L1.0-W0.5-H0.4~8fiY.step', 'R0402~R0402_L1.0-W0.5-H0.4~8fiY.step', '', ( #37 ) ) ;
#27 = AXIS2_PLACEMENT_3D ( 'NONE', #43, #57, #34 ) ;
#28 = APPLICATION_PROTOCOL_DEFINITION ( 'draft international standard', 'automotive_design', 1998, #39 ) ;
#29 = SHAPE_REPRESENTATION ( 'R0402~R0402_L1.0-W0.5-H0.4~8fiY.step', ( #27 ), #8 ) ;
#30 = PRODUCT_CONTEXT ( 'NONE', #7, 'mechanical' ) ;
#31 = PROPERTY_DEFINITION_REPRESENTATION ( #23, #29 ) ;
#32 = DIRECTION ( 'NONE',  ( 0.000000000000000000, 0.000000000000000000, 1.000000000000000000 ) ) ;
#33 = PRODUCT_DEFINITION_CONTEXT ( 'detailed design', #36, 'design' ) ;
#34 = DIRECTION ( 'NONE',  ( 1.000000000000000000, 0.000000000000000000, 0.000000000000000000 ) ) ;
#35 = UNCERTAINTY_MEASURE_WITH_UNIT (LENGTH_MEASURE( 1.000000000000000082E-05 ), #62, 'distance_accuracy_value', 'NONE');
#36 = APPLICATION_CONTEXT ( 'automotive_design' ) ;
#37 = PRODUCT_CONTEXT ( 'NONE', #39, 'mechanical' ) ;
#38 = AXIS2_PLACEMENT_3D ( 'NONE', #53, #32, #15 ) ;
#39 = APPLICATION_CONTEXT ( 'automotive_design' ) ;
#40 = PRODUCT_DEFINITION_FORMATION_WITH_SPECIFIED_SOURCE ( 'Symmetric', '', #26, .NOT_KNOWN. ) ;
#41 =( LENGTH_UNIT ( ) NAMED_UNIT ( * ) SI_UNIT ( .MILLI., .METRE. ) );
#42 = PRODUCT_DEFINITION_FORMATION_WITH_SPECIFIED_SOURCE ( 'Symmetric', '', #64, .NOT_KNOWN. ) ;
#43 = CARTESIAN_POINT ( 'NONE',  ( 0.000000000000000000, 0.000000000000000000, 0.000000000000000000 ) ) ;
#44 =( GEOMETRIC_REPRESENTATION_CONTEXT ( 3 ) GLOBAL_UNCERTAINTY_ASSIGNED_CONTEXT ( ( #35 ) ) GLOBAL_UNIT_ASSIGNED_CONTEXT ( ( #62, #14, #18 ) ) REPRESENTATION_CONTEXT ( 'NONE', 'WORKASPACE' ) );
#45 = ITEM_DEFINED_TRANSFORMATION ( 'NONE', 'NONE', #63,  #27 ) ;
#46 =( NAMED_UNIT ( * ) SI_UNIT ( $, .STERADIAN. ) SOLID_ANGLE_UNIT ( ) );
#47 = CONTEXT_DEPENDENT_SHAPE_REPRESENTATION ( #3, #25 ) ;
#48 = SHAPE_REPRESENTATION ( 'R3~R0402~R0402_L1.0-W0.5-H0.4~8fiY.step', ( #38, #63 ), #44 ) ;
#49 = OBJECT_ROLE ('mandatory',$ ) ;
#50 = PRODUCT_RELATED_PRODUCT_CATEGORY ( 'part', '', ( #26 ) ) ;
#51 = PRODUCT_DEFINITION ( 'General', '', #40, #55 ) ;
#52 = SHAPE_DEFINITION_REPRESENTATION ( #54, #29 ) ;
#53 = CARTESIAN_POINT ( 'NONE',  ( 0.000000000000000000, 0.000000000000000000, 0.000000000000000000 ) ) ;
#54 = PRODUCT_DEFINITION_SHAPE ( 'NONE', 'NONE',  #51 ) ;
#55 = PRODUCT_DEFINITION_CONTEXT ( 'detailed design', #20, 'design' ) ;
#56 = SHAPE_DEFINITION_REPRESENTATION ( #19, #48 ) ;
#57 = DIRECTION ( 'NONE',  ( 0.000000000000000000, 0.000000000000000000, 1.000000000000000000 ) ) ;
#58 = PROPERTY_DEFINITION ('external definition','', #2 ) ;
#59 = PRODUCT_DEFINITION ( 'General', '', #42, #33 ) ;
#60 =( NAMED_UNIT ( * ) PLANE_ANGLE_UNIT ( ) SI_UNIT ( $, .RADIAN. ) );
#61 = DIRECTION ( 'NONE',  ( 2.077461250111562526E-48, 0.000000000000000000, 1.000000000000000444 ) ) ;
#62 =( LENGTH_UNIT ( ) NAMED_UNIT ( * ) SI_UNIT ( .MILLI., .METRE. ) );
#63 = AXIS2_PLACEMENT_3D ( 'NONE', #5, #61, #13 ) ;
#64 = PRODUCT ( 'R3~R0402~R0402_L1.0-W0.5-H0.4~8fiY.step', 'R3~R0402~R0402_L1.0-W0.5-H0.4~8fiY.step', '', ( #30 ) ) ;
#65 = NEXT_ASSEMBLY_USAGE_OCCURRENCE ( 'NAUO14', ' ', ' ', #59, #51, $ ) ;
ENDSEC;
END-ISO-10303-21;
