ISO-10303-21;
HEADER;
FILE_DESCRIPTION (( 'STEP AP214' ),
    '1' );
FILE_NAME ('U1~LGA-38_L11.0-W10.0-P1.00-TL~LGA-38_L11.0-W10.0-P1.00-TL~8fiY.step.STEP',
    '2026-07-13T19:26:00',
    ( '' ),
    ( '' ),
    'SwSTEP 2.0',
    'SolidWorks 2025',
    '' );
FILE_SCHEMA (( 'AUTOMOTIVE_DESIGN' ));
ENDSEC;

DATA;
#1 = ITEM_DEFINED_TRANSFORMATION ( 'NONE', 'NONE', #2,  #53 ) ;
#2 = AXIS2_PLACEMENT_3D ( 'NONE', #50, #45, #64 ) ;
#3 =( GEOMETRIC_REPRESENTATION_CONTEXT ( 3 ) GLOBAL_UNCERTAINTY_ASSIGNED_CONTEXT ( ( #4 ) ) GLOBAL_UNIT_ASSIGNED_CONTEXT ( ( #17, #57, #10 ) ) REPRESENTATION_CONTEXT ( 'NONE', 'WORKASPACE' ) );
#4 = UNCERTAINTY_MEASURE_WITH_UNIT (LENGTH_MEASURE( 1.000000000000000082E-05 ), #17, 'distance_accuracy_value', 'NONE');
#5 = DIRECTION ( 'NONE',  ( 1.000000000000000000, 0.000000000000000000, 0.000000000000000000 ) ) ;
#6 = EXTERNAL_SOURCE (IDENTIFIER('') ) ;
#7 = PRODUCT_DEFINITION_SHAPE ( 'NONE', 'NONE',  #29 ) ;
#8 = APPLIED_DOCUMENT_REFERENCE ( #22,'',( #29) ) ;
#9 =( LENGTH_UNIT ( ) NAMED_UNIT ( * ) SI_UNIT ( .MILLI., .METRE. ) );
#10 =( NAMED_UNIT ( * ) SI_UNIT ( $, .STERADIAN. ) SOLID_ANGLE_UNIT ( ) );
#11 = PRODUCT_RELATED_PRODUCT_CATEGORY ( 'part', '', ( #35 ) ) ;
#12 = PROPERTY_DEFINITION ('external definition','', #22 ) ;
#13 = APPLICATION_CONTEXT ( 'automotive_design' ) ;
#14 = APPLICATION_PROTOCOL_DEFINITION ( 'draft international standard', 'automotive_design', 1998, #40 ) ;
#15 = PRODUCT_CONTEXT ( 'NONE', #23, 'mechanical' ) ;
#16 = APPLICATION_PROTOCOL_DEFINITION ( 'draft international standard', 'automotive_design', 1998, #23 ) ;
#17 =( LENGTH_UNIT ( ) NAMED_UNIT ( * ) SI_UNIT ( .MILLI., .METRE. ) );
#18 = PRODUCT ( 'LGA-38_L11.0-W10.0-P1.00-TL~LGA-38_L11.0-W10.0-P1.00-TL~8fiY.step', 'LGA-38_L11.0-W10.0-P1.00-TL~LGA-38_L11.0-W10.0-P1.00-TL~8fiY.step', '', ( #15 ) ) ;
#19 = APPLICATION_CONTEXT ( 'automotive_design' ) ;
#20 = UNCERTAINTY_MEASURE_WITH_UNIT (LENGTH_MEASURE( 1.000000000000000082E-05 ), #9, 'distance_accuracy_value', 'NONE');
#21 =( GEOMETRIC_REPRESENTATION_CONTEXT ( 3 ) GLOBAL_UNCERTAINTY_ASSIGNED_CONTEXT ( ( #20 ) ) GLOBAL_UNIT_ASSIGNED_CONTEXT ( ( #9, #51, #56 ) ) REPRESENTATION_CONTEXT ( 'NONE', 'WORKASPACE' ) );
#22 = DOCUMENT_FILE ( 'LGA-38_L11.0-W10.0-P1.00-TL~LGA-38_L11.0-W10.0-P1.00-TL~8fiY.step.STEP' , '', '', #52, '' ,$ ) ;
#23 = APPLICATION_CONTEXT ( 'automotive_design' ) ;
#24 = PRODUCT_DEFINITION_FORMATION_WITH_SPECIFIED_SOURCE ( 'Symmetric', '', #18, .NOT_KNOWN. ) ;
#25 = APPLIED_EXTERNAL_IDENTIFICATION_ASSIGNMENT ( 'LGA-38_L11.0-W10.0-P1.00-TL~LGA-38_L11.0-W10.0-P1.00-TL~8fiY.step.STEP' , #48, #6,( #22) ) ;
#26 = SHAPE_REPRESENTATION ( 'LGA-38_L11.0-W10.0-P1.00-TL~LGA-38_L11.0-W10.0-P1.00-TL~8fiY.step', ( #53 ), #3 ) ;
#27 = PRODUCT_DEFINITION_CONTEXT ( 'detailed design', #13, 'design' ) ;
#28 = DIRECTION ( 'NONE',  ( 1.000000000000000000, 0.000000000000000000, 0.000000000000000000 ) ) ;
#29 = PRODUCT_DEFINITION ( 'General', '', #24, #36 ) ;
#30 = APPLICATION_PROTOCOL_DEFINITION ( 'draft international standard', 'automotive_design', 1998, #13 ) ;
#31 = CARTESIAN_POINT ( 'NONE',  ( 0.000000000000000000, 0.000000000000000000, 0.000000000000000000 ) ) ;
#32 = PRODUCT_CONTEXT ( 'NONE', #19, 'mechanical' ) ;
#33 = PROPERTY_DEFINITION_REPRESENTATION ( #46, #26 ) ;
#34 = ROLE_ASSOCIATION ( #42, #8 ) ;
#35 = PRODUCT ( 'U1~LGA-38_L11.0-W10.0-P1.00-TL~LGA-38_L11.0-W10.0-P1.00-TL~8fiY.step', 'U1~LGA-38_L11.0-W10.0-P1.00-TL~LGA-38_L11.0-W10.0-P1.00-TL~8fiY.step', '', ( #32 ) ) ;
#36 = PRODUCT_DEFINITION_CONTEXT ( 'detailed design', #40, 'design' ) ;
#37 = SHAPE_REPRESENTATION ( 'U1~LGA-38_L11.0-W10.0-P1.00-TL~LGA-38_L11.0-W10.0-P1.00-TL~8fiY.step', ( #38, #2 ), #21 ) ;
#38 = AXIS2_PLACEMENT_3D ( 'NONE', #31, #44, #5 ) ;
#39 = DIRECTION ( 'NONE',  ( 0.000000000000000000, 0.000000000000000000, 1.000000000000000000 ) ) ;
#40 = APPLICATION_CONTEXT ( 'automotive_design' ) ;
#41 = PRODUCT_DEFINITION_SHAPE ( 'NONE', 'NONE',  #47 ) ;
#42 = OBJECT_ROLE ('mandatory',$ ) ;
#43 = SHAPE_DEFINITION_REPRESENTATION ( #41, #37 ) ;
#44 = DIRECTION ( 'NONE',  ( 0.000000000000000000, 0.000000000000000000, 1.000000000000000000 ) ) ;
#45 = DIRECTION ( 'NONE',  ( 2.077461250111562526E-48, 0.000000000000000000, 1.000000000000000444 ) ) ;
#46 = PROPERTY_DEFINITION ('document property','', #22 ) ;
#47 = PRODUCT_DEFINITION ( 'General', '', #62, #27 ) ;
#48 = IDENTIFICATION_ROLE ( 'external document id and location', $) ;
#49 = PRODUCT_DEFINITION_SHAPE ( 'NONE', 'NONE',  #65 ) ;
#50 = CARTESIAN_POINT ( 'NONE',  ( 0.000000000000000000, 0.000000000000000000, 0.000000000000000000 ) ) ;
#51 =( NAMED_UNIT ( * ) PLANE_ANGLE_UNIT ( ) SI_UNIT ( $, .RADIAN. ) );
#52 = DOCUMENT_TYPE ( 'geometry' ) ;
#53 = AXIS2_PLACEMENT_3D ( 'NONE', #61, #39, #28 ) ;
#54 = PROPERTY_DEFINITION_REPRESENTATION ( #12, #26 ) ;
#55 = CONTEXT_DEPENDENT_SHAPE_REPRESENTATION ( #63, #49 ) ;
#56 =( NAMED_UNIT ( * ) SI_UNIT ( $, .STERADIAN. ) SOLID_ANGLE_UNIT ( ) );
#57 =( NAMED_UNIT ( * ) PLANE_ANGLE_UNIT ( ) SI_UNIT ( $, .RADIAN. ) );
#58 = SHAPE_DEFINITION_REPRESENTATION ( #7, #26 ) ;
#59 = PRODUCT_RELATED_PRODUCT_CATEGORY ( 'part', '', ( #18 ) ) ;
#60 = APPLICATION_PROTOCOL_DEFINITION ( 'draft international standard', 'automotive_design', 1998, #19 ) ;
#61 = CARTESIAN_POINT ( 'NONE',  ( 0.000000000000000000, 0.000000000000000000, 0.000000000000000000 ) ) ;
#62 = PRODUCT_DEFINITION_FORMATION_WITH_SPECIFIED_SOURCE ( 'Symmetric', '', #35, .NOT_KNOWN. ) ;
#63 =( REPRESENTATION_RELATIONSHIP ('NONE','NONE', #37, #26 ) REPRESENTATION_RELATIONSHIP_WITH_TRANSFORMATION ( #1 )SHAPE_REPRESENTATION_RELATIONSHIP( ) );
#64 = DIRECTION ( 'NONE',  ( 1.000000000000000000, 0.000000000000000000, 2.077461250111562526E-48 ) ) ;
#65 = NEXT_ASSEMBLY_USAGE_OCCURRENCE ( 'NAUO11', ' ', ' ', #47, #29, $ ) ;
ENDSEC;
END-ISO-10303-21;
