ISO-10303-21;
HEADER;
FILE_DESCRIPTION (( 'STEP AP214' ),
    '1' );
FILE_NAME ('U2~SOT-23-5_L2.9-W1.6-P0.95-LS2.8-BL~SOT-23-5_L2.9-W1.6-P0.95-LS2.8-BL~8fiY.step.STEP',
    '2026-07-13T19:25:56',
    ( '' ),
    ( '' ),
    'SwSTEP 2.0',
    'SolidWorks 2025',
    '' );
FILE_SCHEMA (( 'AUTOMOTIVE_DESIGN' ));
ENDSEC;

DATA;
#1 =( NAMED_UNIT ( * ) SI_UNIT ( $, .STERADIAN. ) SOLID_ANGLE_UNIT ( ) );
#2 =( REPRESENTATION_RELATIONSHIP ('NONE','NONE', #51, #30 ) REPRESENTATION_RELATIONSHIP_WITH_TRANSFORMATION ( #62 )SHAPE_REPRESENTATION_RELATIONSHIP( ) );
#3 =( NAMED_UNIT ( * ) SI_UNIT ( $, .STERADIAN. ) SOLID_ANGLE_UNIT ( ) );
#4 = SHAPE_DEFINITION_REPRESENTATION ( #37, #30 ) ;
#5 = PRODUCT_DEFINITION ( 'General', '', #22, #25 ) ;
#6 = UNCERTAINTY_MEASURE_WITH_UNIT (LENGTH_MEASURE( 1.000000000000000082E-05 ), #64, 'distance_accuracy_value', 'NONE');
#7 =( NAMED_UNIT ( * ) PLANE_ANGLE_UNIT ( ) SI_UNIT ( $, .RADIAN. ) );
#8 = APPLICATION_PROTOCOL_DEFINITION ( 'draft international standard', 'automotive_design', 1998, #49 ) ;
#9 = PRODUCT ( 'SOT-23-5_L2.9-W1.6-P0.95-LS2.8-BL~SOT-23-5_L2.9-W1.6-P0.95-LS2.8-BL~8fiY.step', 'SOT-23-5_L2.9-W1.6-P0.95-LS2.8-BL~SOT-23-5_L2.9-W1.6-P0.95-LS2.8-BL~8fiY.step', '', ( #19 ) ) ;
#10 = APPLICATION_PROTOCOL_DEFINITION ( 'draft international standard', 'automotive_design', 1998, #54 ) ;
#11 = DIRECTION ( 'NONE',  ( 1.000000000000000000, 0.000000000000000000, 2.077461250111562526E-48 ) ) ;
#12 = EXTERNAL_SOURCE (IDENTIFIER('') ) ;
#13 = PRODUCT_DEFINITION_FORMATION_WITH_SPECIFIED_SOURCE ( 'Symmetric', '', #32, .NOT_KNOWN. ) ;
#14 = DIRECTION ( 'NONE',  ( 0.000000000000000000, 0.000000000000000000, 1.000000000000000000 ) ) ;
#15 = PROPERTY_DEFINITION_REPRESENTATION ( #29, #30 ) ;
#16 = APPLICATION_PROTOCOL_DEFINITION ( 'draft international standard', 'automotive_design', 1998, #17 ) ;
#17 = APPLICATION_CONTEXT ( 'automotive_design' ) ;
#18 = PRODUCT_RELATED_PRODUCT_CATEGORY ( 'part', '', ( #32 ) ) ;
#19 = PRODUCT_CONTEXT ( 'NONE', #17, 'mechanical' ) ;
#20 = UNCERTAINTY_MEASURE_WITH_UNIT (LENGTH_MEASURE( 1.000000000000000082E-05 ), #42, 'distance_accuracy_value', 'NONE');
#21 = ROLE_ASSOCIATION ( #59, #44 ) ;
#22 = PRODUCT_DEFINITION_FORMATION_WITH_SPECIFIED_SOURCE ( 'Symmetric', '', #9, .NOT_KNOWN. ) ;
#23 = DOCUMENT_TYPE ( 'geometry' ) ;
#24 = CARTESIAN_POINT ( 'NONE',  ( 0.000000000000000000, 0.000000000000000000, 0.000000000000000000 ) ) ;
#25 = PRODUCT_DEFINITION_CONTEXT ( 'detailed design', #56, 'design' ) ;
#26 = CONTEXT_DEPENDENT_SHAPE_REPRESENTATION ( #2, #48 ) ;
#27 = DIRECTION ( 'NONE',  ( 0.000000000000000000, 0.000000000000000000, 1.000000000000000000 ) ) ;
#28 = PRODUCT_DEFINITION ( 'General', '', #13, #35 ) ;
#29 = PROPERTY_DEFINITION ('external definition','', #46 ) ;
#30 = SHAPE_REPRESENTATION ( 'SOT-23-5_L2.9-W1.6-P0.95-LS2.8-BL~SOT-23-5_L2.9-W1.6-P0.95-LS2.8-BL~8fiY.step', ( #34 ), #61 ) ;
#31 =( GEOMETRIC_REPRESENTATION_CONTEXT ( 3 ) GLOBAL_UNCERTAINTY_ASSIGNED_CONTEXT ( ( #6 ) ) GLOBAL_UNIT_ASSIGNED_CONTEXT ( ( #64, #36, #3 ) ) REPRESENTATION_CONTEXT ( 'NONE', 'WORKASPACE' ) );
#32 = PRODUCT ( 'U2~SOT-23-5_L2.9-W1.6-P0.95-LS2.8-BL~SOT-23-5_L2.9-W1.6-P0.95-LS2.8-BL~8fiY.step', 'U2~SOT-23-5_L2.9-W1.6-P0.95-LS2.8-BL~SOT-23-5_L2.9-W1.6-P0.95-LS2.8-BL~8fiY.step', '', ( #60 ) ) ;
#33 = IDENTIFICATION_ROLE ( 'external document id and location', $) ;
#34 = AXIS2_PLACEMENT_3D ( 'NONE', #57, #27, #58 ) ;
#35 = PRODUCT_DEFINITION_CONTEXT ( 'detailed design', #49, 'design' ) ;
#36 =( NAMED_UNIT ( * ) PLANE_ANGLE_UNIT ( ) SI_UNIT ( $, .RADIAN. ) );
#37 = PRODUCT_DEFINITION_SHAPE ( 'NONE', 'NONE',  #5 ) ;
#38 = PRODUCT_DEFINITION_SHAPE ( 'NONE', 'NONE',  #28 ) ;
#39 = DIRECTION ( 'NONE',  ( 2.077461250111562526E-48, 0.000000000000000000, 1.000000000000000444 ) ) ;
#40 = APPLICATION_PROTOCOL_DEFINITION ( 'draft international standard', 'automotive_design', 1998, #56 ) ;
#41 = PRODUCT_RELATED_PRODUCT_CATEGORY ( 'part', '', ( #9 ) ) ;
#42 =( LENGTH_UNIT ( ) NAMED_UNIT ( * ) SI_UNIT ( .MILLI., .METRE. ) );
#43 = SHAPE_DEFINITION_REPRESENTATION ( #38, #51 ) ;
#44 = APPLIED_DOCUMENT_REFERENCE ( #46,'',( #5) ) ;
#45 = PROPERTY_DEFINITION_REPRESENTATION ( #50, #30 ) ;
#46 = DOCUMENT_FILE ( 'SOT-23-5_L2.9-W1.6-P0.95-LS2.8-BL~SOT-23-5_L2.9-W1.6-P0.95-LS2.8-BL~8fiY.step.STEP' , '', '', #23, '' ,$ ) ;
#47 = AXIS2_PLACEMENT_3D ( 'NONE', #63, #39, #11 ) ;
#48 = PRODUCT_DEFINITION_SHAPE ( 'NONE', 'NONE',  #65 ) ;
#49 = APPLICATION_CONTEXT ( 'automotive_design' ) ;
#50 = PROPERTY_DEFINITION ('document property','', #46 ) ;
#51 = SHAPE_REPRESENTATION ( 'U2~SOT-23-5_L2.9-W1.6-P0.95-LS2.8-BL~SOT-23-5_L2.9-W1.6-P0.95-LS2.8-BL~8fiY.step', ( #55, #47 ), #31 ) ;
#52 = APPLIED_EXTERNAL_IDENTIFICATION_ASSIGNMENT ( 'SOT-23-5_L2.9-W1.6-P0.95-LS2.8-BL~SOT-23-5_L2.9-W1.6-P0.95-LS2.8-BL~8fiY.step.STEP' , #33, #12,( #46) ) ;
#53 = DIRECTION ( 'NONE',  ( 1.000000000000000000, 0.000000000000000000, 0.000000000000000000 ) ) ;
#54 = APPLICATION_CONTEXT ( 'automotive_design' ) ;
#55 = AXIS2_PLACEMENT_3D ( 'NONE', #24, #14, #53 ) ;
#56 = APPLICATION_CONTEXT ( 'automotive_design' ) ;
#57 = CARTESIAN_POINT ( 'NONE',  ( 0.000000000000000000, 0.000000000000000000, 0.000000000000000000 ) ) ;
#58 = DIRECTION ( 'NONE',  ( 1.000000000000000000, 0.000000000000000000, 0.000000000000000000 ) ) ;
#59 = OBJECT_ROLE ('mandatory',$ ) ;
#60 = PRODUCT_CONTEXT ( 'NONE', #54, 'mechanical' ) ;
#61 =( GEOMETRIC_REPRESENTATION_CONTEXT ( 3 ) GLOBAL_UNCERTAINTY_ASSIGNED_CONTEXT ( ( #20 ) ) GLOBAL_UNIT_ASSIGNED_CONTEXT ( ( #42, #7, #1 ) ) REPRESENTATION_CONTEXT ( 'NONE', 'WORKASPACE' ) );
#62 = ITEM_DEFINED_TRANSFORMATION ( 'NONE', 'NONE', #47,  #34 ) ;
#63 = CARTESIAN_POINT ( 'NONE',  ( 0.000000000000000000, 0.000000000000000000, 0.000000000000000000 ) ) ;
#64 =( LENGTH_UNIT ( ) NAMED_UNIT ( * ) SI_UNIT ( .MILLI., .METRE. ) );
#65 = NEXT_ASSEMBLY_USAGE_OCCURRENCE ( 'NAUO4', ' ', ' ', #28, #5, $ ) ;
ENDSEC;
END-ISO-10303-21;
