ISO-10303-21;
HEADER;
FILE_DESCRIPTION (( 'STEP AP214' ),
    '1' );
FILE_NAME ('V5 ass.STEP',
    '2026-07-06T21:56:41',
    ( '' ),
    ( '' ),
    'SwSTEP 2.0',
    'SolidWorks 2025',
    '' );
FILE_SCHEMA (( 'AUTOMOTIVE_DESIGN' ));
ENDSEC;

DATA;
#1 = ROLE_ASSOCIATION ( #1051, #816 ) ;
#2 = PRODUCT_DEFINITION_SHAPE ( 'NONE', 'NONE',  #1161 ) ;
#3 = EXTERNAL_SOURCE (IDENTIFIER('') ) ;
#4 = EXTERNAL_SOURCE (IDENTIFIER('') ) ;
#5 = PROPERTY_DEFINITION_REPRESENTATION ( #136, #532 ) ;
#6 = DIRECTION ( 'NONE',  ( 0.5469441386039887165, 6.970833113500071505E-17, -0.8371691043312223801 ) ) ;
#7 =( NAMED_UNIT ( * ) SI_UNIT ( $, .STERADIAN. ) SOLID_ANGLE_UNIT ( ) );
#8 = PROPERTY_DEFINITION_REPRESENTATION ( #85, #73 ) ;
#9 = PRODUCT_DEFINITION_SHAPE ( 'NONE', 'NONE',  #927 ) ;
#10 = DOCUMENT_TYPE ( 'geometry' ) ;
#11 = PRODUCT_CONTEXT ( 'NONE', #346, 'mechanical' ) ;
#12 = PROPERTY_DEFINITION_REPRESENTATION ( #1045, #532 ) ;
#13 = CONTEXT_DEPENDENT_SHAPE_REPRESENTATION ( #976, #622 ) ;
#14 = APPLICATION_PROTOCOL_DEFINITION ( 'draft international standard', 'automotive_design', 1998, #31 ) ;
#15 = DOCUMENT_TYPE ( 'geometry' ) ;
#16 = APPLICATION_PROTOCOL_DEFINITION ( 'draft international standard', 'automotive_design', 1998, #467 ) ;
#17 = CARTESIAN_POINT ( 'NONE',  ( 0.000000000000000000, 0.000000000000000000, 0.000000000000000000 ) ) ;
#18 = PROPERTY_DEFINITION ('external definition','', #129 ) ;
#19 = AXIS2_PLACEMENT_3D ( 'NONE', #512, #186, #179 ) ;
#20 = AXIS2_PLACEMENT_3D ( 'NONE', #69, #629, #1069 ) ;
#21 = PRODUCT_DEFINITION_SHAPE ( 'NONE', 'NONE',  #1165 ) ;
#22 = APPLICATION_PROTOCOL_DEFINITION ( 'draft international standard', 'automotive_design', 1998, #185 ) ;
#23 = APPLIED_EXTERNAL_IDENTIFICATION_ASSIGNMENT ( 'countersunk flat head cross recess screw_iso_ISO 7046-1 - M3 x 8 - Z - 8N.STEP' , #667, #837,( #822) ) ;
#24 = DOCUMENT_TYPE ( 'geometry' ) ;
#25 = DIRECTION ( 'NONE',  ( 1.000000000000000000, 0.000000000000000000, 0.000000000000000000 ) ) ;
#26 = APPLIED_DOCUMENT_REFERENCE ( #305,'',( #408) ) ;
#27 = IDENTIFICATION_ROLE ( 'external document id and location', $) ;
#28 = APPLICATION_PROTOCOL_DEFINITION ( 'draft international standard', 'automotive_design', 1998, #971 ) ;
#29 = DIRECTION ( 'NONE',  ( 0.000000000000000000, 0.000000000000000000, 1.000000000000000000 ) ) ;
#30 = PRODUCT_RELATED_PRODUCT_CATEGORY ( 'part', '', ( #862 ) ) ;
#31 = APPLICATION_CONTEXT ( 'automotive_design' ) ;
#32 =( NAMED_UNIT ( * ) PLANE_ANGLE_UNIT ( ) SI_UNIT ( $, .RADIAN. ) );
#33 = IDENTIFICATION_ROLE ( 'external document id and location', $) ;
#34 = SHAPE_DEFINITION_REPRESENTATION ( #41, #532 ) ;
#35 = APPLIED_DOCUMENT_REFERENCE ( #857,'',( #784) ) ;
#36 = CARTESIAN_POINT ( 'NONE',  ( 0.000000000000000000, 0.000000000000000000, 0.000000000000000000 ) ) ;
#37 = CONTEXT_DEPENDENT_SHAPE_REPRESENTATION ( #831, #262 ) ;
#38 =( REPRESENTATION_RELATIONSHIP ('NONE','NONE', #120, #73 ) REPRESENTATION_RELATIONSHIP_WITH_TRANSFORMATION ( #920 )SHAPE_REPRESENTATION_RELATIONSHIP( ) );
#39 = APPLICATION_CONTEXT ( 'automotive_design' ) ;
#40 = ROLE_ASSOCIATION ( #942, #870 ) ;
#41 = PRODUCT_DEFINITION_SHAPE ( 'NONE', 'NONE',  #705 ) ;
#42 = CARTESIAN_POINT ( 'NONE',  ( -1.141915755117850484, 19.01659113695430747, -18.10540260372385646 ) ) ;
#43 = APPLIED_EXTERNAL_IDENTIFICATION_ASSIGNMENT ( 'Heatsink RAK 1Watt 70x22.STEP' , #255, #860,( #624) ) ;
#44 = CARTESIAN_POINT ( 'NONE',  ( 0.000000000000000000, 0.000000000000000000, 0.000000000000000000 ) ) ;
#45 = ITEM_DEFINED_TRANSFORMATION ( 'NONE', 'NONE', #749,  #768 ) ;
#46 = PRODUCT_RELATED_PRODUCT_CATEGORY ( 'part', '', ( #1022 ) ) ;
#47 = OBJECT_ROLE ('mandatory',$ ) ;
#48 = DIRECTION ( 'NONE',  ( 0.000000000000000000, 0.000000000000000000, 1.000000000000000000 ) ) ;
#49 = IDENTIFICATION_ROLE ( 'external document id and location', $) ;
#50 = PRODUCT ( 'Front part', 'Front part', '', ( #1023 ) ) ;
#51 = PROPERTY_DEFINITION_REPRESENTATION ( #68, #73 ) ;
#52 = DIRECTION ( 'NONE',  ( -0.9923698669302003506, 0.1232965823084184037, 7.586460554229901331E-17 ) ) ;
#53 =( NAMED_UNIT ( * ) PLANE_ANGLE_UNIT ( ) SI_UNIT ( $, .RADIAN. ) );
#54 = ITEM_DEFINED_TRANSFORMATION ( 'NONE', 'NONE', #1002,  #768 ) ;
#55 = EXTERNAL_SOURCE (IDENTIFIER('') ) ;
#56 = PROPERTY_DEFINITION ('document property','', #541 ) ;
#57 = CARTESIAN_POINT ( 'NONE',  ( -5.564223680818536799, 20.72849820060669046, 60.53509736895352944 ) ) ;
#58 = AXIS2_PLACEMENT_3D ( 'NONE', #44, #1029, #1013 ) ;
#59 = AXIS2_PLACEMENT_3D ( 'NONE', #589, #775, #424 ) ;
#60 = DOCUMENT_FILE ( 'hexalobular socket cheese head_iso_ISO 14580 - #3 x 8 x 7 - 4.8-N.STEP' , '', '', #852, '' ,$ ) ;
#61 = APPLIED_EXTERNAL_IDENTIFICATION_ASSIGNMENT ( 'hexalobular socket cheese head_iso_ISO 14580 - #3 x 8 x 7 - 4.8-N.STEP' , #753, #507,( #623) ) ;
#62 = OBJECT_ROLE ('mandatory',$ ) ;
#63 = APPLICATION_CONTEXT ( 'automotive_design' ) ;
#64 = OBJECT_ROLE ('mandatory',$ ) ;
#65 = UNCERTAINTY_MEASURE_WITH_UNIT (LENGTH_MEASURE( 1.000000000000000082E-05 ), #650, 'distance_accuracy_value', 'NONE');
#66 = DIRECTION ( 'NONE',  ( 6.123233995736766036E-17, -1.000000000000000000, 0.000000000000000000 ) ) ;
#67 = PROPERTY_DEFINITION_REPRESENTATION ( #703, #73 ) ;
#68 = PROPERTY_DEFINITION ('external definition','', #71 ) ;
#69 = CARTESIAN_POINT ( 'NONE',  ( 30.58648882541844571, 31.44859113695429187, -17.63040260372385859 ) ) ;
#70 = EXTERNAL_SOURCE (IDENTIFIER('') ) ;
#71 = DOCUMENT_FILE ( 'countersunk flat head cross recess screw_iso_ISO 7046-1 - M3 x 8 - Z - 8N.STEP' , '', '', #327, '' ,$ ) ;
#72 = DIRECTION ( 'NONE',  ( 0.000000000000000000, -1.000000000000000000, 0.000000000000000000 ) ) ;
#73 = SHAPE_REPRESENTATION ( 'countersunk flat head cross recess screw_iso_ISO 7046-1 - M3 x 8 - Z - 8N', ( #171 ), #1078 ) ;
#74 =( REPRESENTATION_RELATIONSHIP ('NONE','NONE', #120, #532 ) REPRESENTATION_RELATIONSHIP_WITH_TRANSFORMATION ( #530 )SHAPE_REPRESENTATION_RELATIONSHIP( ) );
#75 = AXIS2_PLACEMENT_3D ( 'NONE', #36, #228, #158 ) ;
#76 = PROPERTY_DEFINITION ('external definition','', #407 ) ;
#77 = PROPERTY_DEFINITION_REPRESENTATION ( #644, #532 ) ;
#78 = AXIS2_PLACEMENT_3D ( 'NONE', #863, #677, #950 ) ;
#79 = PROPERTY_DEFINITION_REPRESENTATION ( #468, #867 ) ;
#80 = APPLIED_EXTERNAL_IDENTIFICATION_ASSIGNMENT ( 'middel part.STEP' , #1133, #426,( #305) ) ;
#81 = PRODUCT_RELATED_PRODUCT_CATEGORY ( 'part', '', ( #675 ) ) ;
#82 = CARTESIAN_POINT ( 'NONE',  ( 30.78308424488214001, 29.74159113695425205, 10.25195670915684509 ) ) ;
#83 = ROLE_ASSOCIATION ( #429, #1086 ) ;
#84 = PROPERTY_DEFINITION_REPRESENTATION ( #1068, #73 ) ;
#85 = PROPERTY_DEFINITION ('external definition','', #91 ) ;
#86 = CARTESIAN_POINT ( 'NONE',  ( 31.36922313793438732, -4.960818707783004378, 95.49459739627614852 ) ) ;
#87 = APPLIED_DOCUMENT_REFERENCE ( #717,'',( #705) ) ;
#88 = ROLE_ASSOCIATION ( #184, #276 ) ;
#89 =( REPRESENTATION_RELATIONSHIP ('NONE','NONE', #120, #73 ) REPRESENTATION_RELATIONSHIP_WITH_TRANSFORMATION ( #966 )SHAPE_REPRESENTATION_RELATIONSHIP( ) );
#90 = ROLE_ASSOCIATION ( #1038, #556 ) ;
#91 = DOCUMENT_FILE ( 'countersunk flat head cross recess screw_iso_ISO 7046-1 - M3 x 8 - Z - 8N.STEP' , '', '', #1015, '' ,$ ) ;
#92 = PRODUCT_DEFINITION_SHAPE ( 'NONE', 'NONE',  #1146 ) ;
#93 = AXIS2_PLACEMENT_3D ( 'NONE', #544, #825, #450 ) ;
#94 = APPLIED_EXTERNAL_IDENTIFICATION_ASSIGNMENT ( 'Front part.STEP' , #996, #803,( #804) ) ;
#95 = APPLICATION_PROTOCOL_DEFINITION ( 'draft international standard', 'automotive_design', 1998, #63 ) ;
#96 =( REPRESENTATION_RELATIONSHIP ('NONE','NONE', #120, #697 ) REPRESENTATION_RELATIONSHIP_WITH_TRANSFORMATION ( #373 )SHAPE_REPRESENTATION_RELATIONSHIP( ) );
#97 = APPLICATION_CONTEXT ( 'automotive_design' ) ;
#98 = DIRECTION ( 'NONE',  ( 1.000000000000000000, 0.000000000000000000, 0.000000000000000000 ) ) ;
#99 = APPLIED_DOCUMENT_REFERENCE ( #999,'',( #705) ) ;
#100 = PROPERTY_DEFINITION_REPRESENTATION ( #438, #697 ) ;
#101 = PRODUCT_CONTEXT ( 'NONE', #63, 'mechanical' ) ;
#102 = EXTERNAL_SOURCE (IDENTIFIER('') ) ;
#103 = ROLE_ASSOCIATION ( #1113, #35 ) ;
#104 = DIRECTION ( 'NONE',  ( 1.000000000000000000, 0.000000000000000000, 0.000000000000000000 ) ) ;
#105 = ITEM_DEFINED_TRANSFORMATION ( 'NONE', 'NONE', #441,  #171 ) ;
#106 = EXTERNAL_SOURCE (IDENTIFIER('') ) ;
#107 = PRODUCT_DEFINITION_CONTEXT ( 'detailed design', #491, 'design' ) ;
#108 = SHAPE_DEFINITION_REPRESENTATION ( #329, #697 ) ;
#109 = PRODUCT_CONTEXT ( 'NONE', #406, 'mechanical' ) ;
#110 =( NAMED_UNIT ( * ) PLANE_ANGLE_UNIT ( ) SI_UNIT ( $, .RADIAN. ) );
#111 = PRODUCT ( 'Twist lock radio part V3', 'Twist lock radio part V3', '', ( #11 ) ) ;
#112 = APPLIED_DOCUMENT_REFERENCE ( #931,'',( #705) ) ;
#113 = IDENTIFICATION_ROLE ( 'external document id and location', $) ;
#114 = AXIS2_PLACEMENT_3D ( 'NONE', #141, #163, #192 ) ;
#115 = APPLICATION_PROTOCOL_DEFINITION ( 'draft international standard', 'automotive_design', 1998, #827 ) ;
#116 = APPLIED_EXTERNAL_IDENTIFICATION_ASSIGNMENT ( 'countersunk flat head cross recess screw_iso_ISO 7046-1 - M3 x 8 - Z - 8N.STEP' , #270, #144,( #401) ) ;
#117 =( NAMED_UNIT ( * ) PLANE_ANGLE_UNIT ( ) SI_UNIT ( $, .RADIAN. ) );
#118 =( NAMED_UNIT ( * ) SI_UNIT ( $, .STERADIAN. ) SOLID_ANGLE_UNIT ( ) );
#119 = PROPERTY_DEFINITION_REPRESENTATION ( #555, #73 ) ;
#120 = SHAPE_REPRESENTATION ( 'V5 ass', ( #174, #1080, #967, #954, #1061, #348, #422, #232, #59, #728, #594, #746, #538, #331, #441, #385, #152, #1026, #1101, #883, #78, #749, #460, #706, #20, #313, #515, #480, #1041, #1002, #1118, #537, #610, #557, #93, #771, #645, #807, #252 ), #685 ) ;
#121 = EXTERNAL_SOURCE (IDENTIFIER('') ) ;
#122 = APPLICATION_CONTEXT ( 'automotive_design' ) ;
#123 = APPLICATION_PROTOCOL_DEFINITION ( 'draft international standard', 'automotive_design', 1998, #668 ) ;
#124 = PROPERTY_DEFINITION ('document property','', #774 ) ;
#125 =( REPRESENTATION_RELATIONSHIP ('NONE','NONE', #120, #532 ) REPRESENTATION_RELATIONSHIP_WITH_TRANSFORMATION ( #283 )SHAPE_REPRESENTATION_RELATIONSHIP( ) );
#126 = DIRECTION ( 'NONE',  ( 0.000000000000000000, 0.000000000000000000, 1.000000000000000000 ) ) ;
#127 = CONTEXT_DEPENDENT_SHAPE_REPRESENTATION ( #1091, #430 ) ;
#128 = PROPERTY_DEFINITION ('document property','', #909 ) ;
#129 = DOCUMENT_FILE ( 'Heatsink 32x18 lunpid.STEP' , '', '', #907, '' ,$ ) ;
#130 = OBJECT_ROLE ('mandatory',$ ) ;
#131 = CARTESIAN_POINT ( 'NONE',  ( 0.000000000000000000, 0.000000000000000000, 0.000000000000000000 ) ) ;
#132 = OBJECT_ROLE ('mandatory',$ ) ;
#133 = DOCUMENT_FILE ( 'countersunk flat head cross recess screw_iso_ISO 7046-1 - M3 x 8 - Z - 8N.STEP' , '', '', #486, '' ,$ ) ;
#134 =( GEOMETRIC_REPRESENTATION_CONTEXT ( 3 ) GLOBAL_UNCERTAINTY_ASSIGNED_CONTEXT ( ( #817 ) ) GLOBAL_UNIT_ASSIGNED_CONTEXT ( ( #217, #32, #1020 ) ) REPRESENTATION_CONTEXT ( 'NONE', 'WORKASPACE' ) );
#135 = DIRECTION ( 'NONE',  ( -1.000000000000000222, 2.773339119917622913E-32, 0.000000000000000000 ) ) ;
#136 = PROPERTY_DEFINITION ('document property','', #982 ) ;
#137 = APPLIED_EXTERNAL_IDENTIFICATION_ASSIGNMENT ( 'countersunk flat head cross recess screw_iso_ISO 7046-1 - M3 x 8 - Z - 8N.STEP' , #936, #1024,( #133) ) ;
#138 = ROLE_ASSOCIATION ( #733, #26 ) ;
#139 = IDENTIFICATION_ROLE ( 'external document id and location', $) ;
#140 = DIRECTION ( 'NONE',  ( 0.000000000000000000, 0.000000000000000000, 1.000000000000000000 ) ) ;
#141 = CARTESIAN_POINT ( 'NONE',  ( 0.000000000000000000, 0.000000000000000000, 0.000000000000000000 ) ) ;
#142 = PROPERTY_DEFINITION ('external definition','', #401 ) ;
#143 = APPLIED_DOCUMENT_REFERENCE ( #60,'',( #705) ) ;
#144 = EXTERNAL_SOURCE (IDENTIFIER('') ) ;
#145 = DOCUMENT_TYPE ( 'geometry' ) ;
#146 = DIRECTION ( 'NONE',  ( 6.123233995736766036E-17, -1.000000000000000000, 0.000000000000000000 ) ) ;
#147 = APPLICATION_CONTEXT ( 'automotive_design' ) ;
#148 = PRODUCT_DEFINITION_SHAPE ( 'NONE', 'NONE',  #1158 ) ;
#149 = DIRECTION ( 'NONE',  ( -2.773339119917623460E-32, -1.000000000000000222, 0.000000000000000000 ) ) ;
#150 = DOCUMENT_TYPE ( 'geometry' ) ;
#151 =( GEOMETRIC_REPRESENTATION_CONTEXT ( 3 ) GLOBAL_UNCERTAINTY_ASSIGNED_CONTEXT ( ( #989 ) ) GLOBAL_UNIT_ASSIGNED_CONTEXT ( ( #981, #819, #7 ) ) REPRESENTATION_CONTEXT ( 'NONE', 'WORKASPACE' ) );
#152 = AXIS2_PLACEMENT_3D ( 'NONE', #326, #48, #878 ) ;
#153 =( LENGTH_UNIT ( ) NAMED_UNIT ( * ) SI_UNIT ( .MILLI., .METRE. ) );
#154 = PRODUCT_DEFINITION_FORMATION_WITH_SPECIFIED_SOURCE ( 'Symmetric', '', #410, .NOT_KNOWN. ) ;
#155 = CONTEXT_DEPENDENT_SHAPE_REPRESENTATION ( #341, #498 ) ;
#156 = DIRECTION ( 'NONE',  ( 6.123233995736767268E-17, -1.000000000000000000, 1.155557966632341512E-33 ) ) ;
#157 = SHAPE_REPRESENTATION ( 'Front part', ( #421 ), #402 ) ;
#158 = DIRECTION ( 'NONE',  ( 1.000000000000000000, 0.000000000000000000, 0.000000000000000000 ) ) ;
#159 = DOCUMENT_FILE ( 'countersunk flat head cross recess screw_iso_ISO 7046-1 - M3 x 8 - Z - 8N.STEP' , '', '', #1084, '' ,$ ) ;
#160 = PROPERTY_DEFINITION_REPRESENTATION ( #191, #291 ) ;
#161 = PROPERTY_DEFINITION ('external definition','', #1030 ) ;
#162 = CARTESIAN_POINT ( 'NONE',  ( 0.000000000000000000, 0.000000000000000000, 0.000000000000000000 ) ) ;
#163 = DIRECTION ( 'NONE',  ( 0.000000000000000000, 0.000000000000000000, 1.000000000000000000 ) ) ;
#164 = SHAPE_REPRESENTATION ( 'Buck converter 5V 16A', ( #271 ), #725 ) ;
#165 = PROPERTY_DEFINITION_REPRESENTATION ( #558, #532 ) ;
#166 = OBJECT_ROLE ('mandatory',$ ) ;
#167 = PRODUCT_RELATED_PRODUCT_CATEGORY ( 'part', '', ( #410 ) ) ;
#168 =( REPRESENTATION_RELATIONSHIP ('NONE','NONE', #120, #1012 ) REPRESENTATION_RELATIONSHIP_WITH_TRANSFORMATION ( #740 )SHAPE_REPRESENTATION_RELATIONSHIP( ) );
#169 = UNCERTAINTY_MEASURE_WITH_UNIT (LENGTH_MEASURE( 1.000000000000000082E-05 ), #872, 'distance_accuracy_value', 'NONE');
#170 = DIRECTION ( 'NONE',  ( 1.000000000000000000, 0.000000000000000000, 0.000000000000000000 ) ) ;
#171 = AXIS2_PLACEMENT_3D ( 'NONE', #573, #1085, #539 ) ;
#172 = PROPERTY_DEFINITION ('external definition','', #623 ) ;
#173 = ROLE_ASSOCIATION ( #925, #87 ) ;
#174 = AXIS2_PLACEMENT_3D ( 'NONE', #162, #980, #903 ) ;
#175 = PRODUCT_DEFINITION_FORMATION_WITH_SPECIFIED_SOURCE ( 'Symmetric', '', #862, .NOT_KNOWN. ) ;
#176 = CONTEXT_DEPENDENT_SHAPE_REPRESENTATION ( #598, #960 ) ;
#177 = OBJECT_ROLE ('mandatory',$ ) ;
#178 = DIRECTION ( 'NONE',  ( 0.000000000000000000, -1.000000000000000000, 0.000000000000000000 ) ) ;
#179 = DIRECTION ( 'NONE',  ( 1.000000000000000000, 0.000000000000000000, 0.000000000000000000 ) ) ;
#180 = PROPERTY_DEFINITION_REPRESENTATION ( #962, #532 ) ;
#181 = DOCUMENT_FILE ( 'lunpid_longwave_v0.1.STEP' , '', '', #474, '' ,$ ) ;
#182 = PROPERTY_DEFINITION ('external definition','', #686 ) ;
#183 = DIRECTION ( 'NONE',  ( 1.000000000000000000, 0.000000000000000000, 0.000000000000000000 ) ) ;
#184 = OBJECT_ROLE ('mandatory',$ ) ;
#185 = APPLICATION_CONTEXT ( 'automotive_design' ) ;
#186 = DIRECTION ( 'NONE',  ( 0.000000000000000000, 0.000000000000000000, 1.000000000000000000 ) ) ;
#187 = PROPERTY_DEFINITION_REPRESENTATION ( #665, #532 ) ;
#188 = IDENTIFICATION_ROLE ( 'external document id and location', $) ;
#189 = ITEM_DEFINED_TRANSFORMATION ( 'NONE', 'NONE', #728,  #114 ) ;
#190 = PRODUCT_CONTEXT ( 'NONE', #734, 'mechanical' ) ;
#191 = PROPERTY_DEFINITION ('document property','', #1062 ) ;
#192 = DIRECTION ( 'NONE',  ( 1.000000000000000000, 0.000000000000000000, 0.000000000000000000 ) ) ;
#193 = IDENTIFICATION_ROLE ( 'external document id and location', $) ;
#194 = OBJECT_ROLE ('mandatory',$ ) ;
#195 = PROPERTY_DEFINITION ('document property','', #678 ) ;
#196 = DIRECTION ( 'NONE',  ( 0.000000000000000000, 0.000000000000000000, 1.000000000000000000 ) ) ;
#197 = UNCERTAINTY_MEASURE_WITH_UNIT (LENGTH_MEASURE( 1.000000000000000082E-05 ), #1007, 'distance_accuracy_value', 'NONE');
#198 = APPLIED_EXTERNAL_IDENTIFICATION_ASSIGNMENT ( 'CM4 Mockup.step.STEP' , #1053, #679,( #577) ) ;
#199 = SHAPE_DEFINITION_REPRESENTATION ( #672, #578 ) ;
#200 = DIRECTION ( 'NONE',  ( 0.000000000000000000, 0.000000000000000000, 1.000000000000000000 ) ) ;
#201 = DOCUMENT_FILE ( 'hexalobular socket cheese head_iso_ISO 14580 - #3 x 8 x 7 - 4.8-N.STEP' , '', '', #619, '' ,$ ) ;
#202 = PRODUCT_RELATED_PRODUCT_CATEGORY ( 'part', '', ( #490 ) ) ;
#203 =( NAMED_UNIT ( * ) SI_UNIT ( $, .STERADIAN. ) SOLID_ANGLE_UNIT ( ) );
#204 = ROLE_ASSOCIATION ( #62, #1072 ) ;
#205 = SHAPE_REPRESENTATION ( 'CM4 heatsink', ( #75 ), #593 ) ;
#206 =( REPRESENTATION_RELATIONSHIP ('NONE','NONE', #120, #532 ) REPRESENTATION_RELATIONSHIP_WITH_TRANSFORMATION ( #414 )SHAPE_REPRESENTATION_RELATIONSHIP( ) );
#207 = SHAPE_DEFINITION_REPRESENTATION ( #9, #867 ) ;
#208 = ROLE_ASSOCIATION ( #309, #953 ) ;
#209 = PRODUCT_DEFINITION ( 'General', '', #154, #219 ) ;
#210 = PRODUCT_CONTEXT ( 'NONE', #607, 'mechanical' ) ;
#211 =( GEOMETRIC_REPRESENTATION_CONTEXT ( 3 ) GLOBAL_UNCERTAINTY_ASSIGNED_CONTEXT ( ( #360 ) ) GLOBAL_UNIT_ASSIGNED_CONTEXT ( ( #334, #53, #695 ) ) REPRESENTATION_CONTEXT ( 'NONE', 'WORKASPACE' ) );
#212 = AXIS2_PLACEMENT_3D ( 'NONE', #131, #200, #221 ) ;
#213 = APPLICATION_PROTOCOL_DEFINITION ( 'draft international standard', 'automotive_design', 1998, #656 ) ;
#214 = APPLIED_DOCUMENT_REFERENCE ( #91,'',( #575) ) ;
#215 = APPLICATION_CONTEXT ( 'automotive_design' ) ;
#216 = IDENTIFICATION_ROLE ( 'external document id and location', $) ;
#217 =( LENGTH_UNIT ( ) NAMED_UNIT ( * ) SI_UNIT ( .MILLI., .METRE. ) );
#218 = PROPERTY_DEFINITION_REPRESENTATION ( #458, #73 ) ;
#219 = PRODUCT_DEFINITION_CONTEXT ( 'detailed design', #147, 'design' ) ;
#220 = ROLE_ASSOCIATION ( #434, #890 ) ;
#221 = DIRECTION ( 'NONE',  ( 1.000000000000000000, 0.000000000000000000, 0.000000000000000000 ) ) ;
#222 = PRODUCT ( '3D_RAK19007 base module + booster', '3D_RAK19007 base module + booster', '', ( #939 ) ) ;
#223 = PROPERTY_DEFINITION_REPRESENTATION ( #339, #532 ) ;
#224 = IDENTIFICATION_ROLE ( 'external document id and location', $) ;
#225 =( REPRESENTATION_RELATIONSHIP ('NONE','NONE', #120, #739 ) REPRESENTATION_RELATIONSHIP_WITH_TRANSFORMATION ( #949 )SHAPE_REPRESENTATION_RELATIONSHIP( ) );
#226 = PROPERTY_DEFINITION_REPRESENTATION ( #833, #739 ) ;
#227 = DIRECTION ( 'NONE',  ( 0.000000000000000000, 0.000000000000000000, -1.000000000000000000 ) ) ;
#228 = DIRECTION ( 'NONE',  ( 0.000000000000000000, 0.000000000000000000, 1.000000000000000000 ) ) ;
#229 = AXIS2_PLACEMENT_3D ( 'NONE', #1112, #802, #248 ) ;
#230 = CONTEXT_DEPENDENT_SHAPE_REPRESENTATION ( #225, #477 ) ;
#231 = DOCUMENT_TYPE ( 'geometry' ) ;
#232 = AXIS2_PLACEMENT_3D ( 'NONE', #699, #687, #1048 ) ;
#233 = PRODUCT_DEFINITION_FORMATION_WITH_SPECIFIED_SOURCE ( 'Symmetric', '', #311, .NOT_KNOWN. ) ;
#234 = CARTESIAN_POINT ( 'NONE',  ( -32.87032033565414935, 31.44859113695429187, -17.63040260372385504 ) ) ;
#235 = PROPERTY_DEFINITION ('document property','', #857 ) ;
#236 = DOCUMENT_FILE ( 'hexalobular socket cheese head_iso_ISO 14580 - #3 x 8 x 7 - 4.8-N.STEP' , '', '', #938, '' ,$ ) ;
#237 = DIRECTION ( 'NONE',  ( 1.000000000000000000, 0.000000000000000000, 0.000000000000000000 ) ) ;
#238 = PROPERTY_DEFINITION_REPRESENTATION ( #985, #73 ) ;
#239 = APPLICATION_CONTEXT ( 'automotive_design' ) ;
#240 = CARTESIAN_POINT ( 'NONE',  ( 30.78308424488213291, 29.74159113695422363, 66.25195670915684332 ) ) ;
#241 = OBJECT_ROLE ('mandatory',$ ) ;
#242 = PROPERTY_DEFINITION ('document property','', #159 ) ;
#243 = PRODUCT_RELATED_PRODUCT_CATEGORY ( 'part', '', ( #853 ) ) ;
#244 = UNCERTAINTY_MEASURE_WITH_UNIT (LENGTH_MEASURE( 1.000000000000000082E-05 ), #801, 'distance_accuracy_value', 'NONE');
#245 = DIRECTION ( 'NONE',  ( 1.000000000000000000, -3.330669073875468635E-16, 5.273559366969493567E-16 ) ) ;
#246 = DOCUMENT_TYPE ( 'geometry' ) ;
#247 = APPLICATION_CONTEXT ( 'automotive_design' ) ;
#248 = DIRECTION ( 'NONE',  ( 1.000000000000000000, 0.000000000000000000, 0.000000000000000000 ) ) ;
#249 = CONTEXT_DEPENDENT_SHAPE_REPRESENTATION ( #89, #148 ) ;
#250 = PRODUCT_DEFINITION_SHAPE ( 'NONE', 'NONE',  #1159 ) ;
#251 = DIRECTION ( 'NONE',  ( -0.04971950950885134501, -3.044441908759559285E-18, 0.9987632203751796167 ) ) ;
#252 = AXIS2_PLACEMENT_3D ( 'NONE', #727, #1083, #370 ) ;
#253 = PROPERTY_DEFINITION_REPRESENTATION ( #172, #532 ) ;
#254 = APPLIED_EXTERNAL_IDENTIFICATION_ASSIGNMENT ( 'lunpid_longwave_v0.1.STEP' , #413, #102,( #181) ) ;
#255 = IDENTIFICATION_ROLE ( 'external document id and location', $) ;
#256 = APPLIED_DOCUMENT_REFERENCE ( #1062,'',( #209) ) ;
#257 = PRODUCT_DEFINITION_CONTEXT ( 'detailed design', #1033, 'design' ) ;
#258 = PRODUCT_DEFINITION ( 'General', '', #956, #652 ) ;
#259 =( NAMED_UNIT ( * ) SI_UNIT ( $, .STERADIAN. ) SOLID_ANGLE_UNIT ( ) );
#260 = PROPERTY_DEFINITION_REPRESENTATION ( #56, #73 ) ;
#261 = APPLIED_DOCUMENT_REFERENCE ( #624,'',( #292) ) ;
#262 = PRODUCT_DEFINITION_SHAPE ( 'NONE', 'NONE',  #1152 ) ;
#263 =( REPRESENTATION_RELATIONSHIP ('NONE','NONE', #120, #532 ) REPRESENTATION_RELATIONSHIP_WITH_TRANSFORMATION ( #54 )SHAPE_REPRESENTATION_RELATIONSHIP( ) );
#264 = DIRECTION ( 'NONE',  ( 0.8371691043312223801, -4.554224818964409284E-17, 0.5469441386039887165 ) ) ;
#265 =( NAMED_UNIT ( * ) SI_UNIT ( $, .STERADIAN. ) SOLID_ANGLE_UNIT ( ) );
#266 = PROPERTY_DEFINITION_REPRESENTATION ( #128, #532 ) ;
#267 = PROPERTY_DEFINITION_REPRESENTATION ( #628, #412 ) ;
#268 = UNCERTAINTY_MEASURE_WITH_UNIT (LENGTH_MEASURE( 1.000000000000000082E-05 ), #747, 'distance_accuracy_value', 'NONE');
#269 = DIRECTION ( 'NONE',  ( 1.000000000000000000, 0.000000000000000000, 0.000000000000000000 ) ) ;
#270 = IDENTIFICATION_ROLE ( 'external document id and location', $) ;
#271 = AXIS2_PLACEMENT_3D ( 'NONE', #761, #930, #524 ) ;
#272 = CARTESIAN_POINT ( 'NONE',  ( 0.000000000000000000, 0.000000000000000000, 0.000000000000000000 ) ) ;
#273 = PROPERTY_DEFINITION ('external definition','', #822 ) ;
#274 = PROPERTY_DEFINITION_REPRESENTATION ( #944, #532 ) ;
#275 = EXTERNAL_SOURCE (IDENTIFIER('') ) ;
#276 = APPLIED_DOCUMENT_REFERENCE ( #731,'',( #575) ) ;
#277 = CARTESIAN_POINT ( 'NONE',  ( -33.65305464817001990, 16.82590050317851649, 95.49459739627614852 ) ) ;
#278 =( NAMED_UNIT ( * ) PLANE_ANGLE_UNIT ( ) SI_UNIT ( $, .RADIAN. ) );
#279 = DOCUMENT_TYPE ( 'geometry' ) ;
#280 = PROPERTY_DEFINITION_REPRESENTATION ( #806, #73 ) ;
#281 = IDENTIFICATION_ROLE ( 'external document id and location', $) ;
#282 = PROPERTY_DEFINITION ('external definition','', #305 ) ;
#283 = ITEM_DEFINED_TRANSFORMATION ( 'NONE', 'NONE', #557,  #768 ) ;
#284 = CONTEXT_DEPENDENT_SHAPE_REPRESENTATION ( #710, #92 ) ;
#285 = OBJECT_ROLE ('mandatory',$ ) ;
#286 = APPLICATION_CONTEXT ( 'automotive_design' ) ;
#287 = APPLICATION_PROTOCOL_DEFINITION ( 'draft international standard', 'automotive_design', 1998, #239 ) ;
#288 =( LENGTH_UNIT ( ) NAMED_UNIT ( * ) SI_UNIT ( .MILLI., .METRE. ) );
#289 = DOCUMENT_FILE ( 'CM4 heatsink.STEP' , '', '', #636, '' ,$ ) ;
#290 =( GEOMETRIC_REPRESENTATION_CONTEXT ( 3 ) GLOBAL_UNCERTAINTY_ASSIGNED_CONTEXT ( ( #877 ) ) GLOBAL_UNIT_ASSIGNED_CONTEXT ( ( #288, #568, #850 ) ) REPRESENTATION_CONTEXT ( 'NONE', 'WORKASPACE' ) );
#291 = SHAPE_REPRESENTATION ( 'Main base', ( #229 ), #211 ) ;
#292 = PRODUCT_DEFINITION ( 'General', '', #969, #945 ) ;
#293 = PRODUCT_DEFINITION_CONTEXT ( 'detailed design', #39, 'design' ) ;
#294 = PRODUCT_CONTEXT ( 'NONE', #122, 'mechanical' ) ;
#295 = DOCUMENT_TYPE ( 'geometry' ) ;
#296 = CARTESIAN_POINT ( 'NONE',  ( 0.000000000000000000, 0.000000000000000000, 0.000000000000000000 ) ) ;
#297 = CARTESIAN_POINT ( 'NONE',  ( 0.000000000000000000, 0.000000000000000000, 0.000000000000000000 ) ) ;
#298 = PROPERTY_DEFINITION_REPRESENTATION ( #282, #567 ) ;
#299 = PRODUCT_DEFINITION_SHAPE ( 'NONE', 'NONE',  #1138 ) ;
#300 = APPLICATION_PROTOCOL_DEFINITION ( 'draft international standard', 'automotive_design', 1998, #1033 ) ;
#301 = IDENTIFICATION_ROLE ( 'external document id and location', $) ;
#302 =( NAMED_UNIT ( * ) SI_UNIT ( $, .STERADIAN. ) SOLID_ANGLE_UNIT ( ) );
#303 = PRODUCT_DEFINITION_SHAPE ( 'NONE', 'NONE',  #1171 ) ;
#304 = EXTERNAL_SOURCE (IDENTIFIER('') ) ;
#305 = DOCUMENT_FILE ( 'middel part.STEP' , '', '', #24, '' ,$ ) ;
#306 = APPLICATION_PROTOCOL_DEFINITION ( 'draft international standard', 'automotive_design', 1998, #915 ) ;
#307 = PROPERTY_DEFINITION ('external definition','', #774 ) ;
#308 = ITEM_DEFINED_TRANSFORMATION ( 'NONE', 'NONE', #1026,  #171 ) ;
#309 = OBJECT_ROLE ('mandatory',$ ) ;
#310 = APPLICATION_CONTEXT ( 'automotive_design' ) ;
#311 = PRODUCT ( 'top', 'top', '', ( #744 ) ) ;
#312 = IDENTIFICATION_ROLE ( 'external document id and location', $) ;
#313 = AXIS2_PLACEMENT_3D ( 'NONE', #813, #618, #990 ) ;
#314 = APPLICATION_PROTOCOL_DEFINITION ( 'draft international standard', 'automotive_design', 1998, #320 ) ;
#315 = PRODUCT_DEFINITION_FORMATION_WITH_SPECIFIED_SOURCE ( 'Symmetric', '', #675, .NOT_KNOWN. ) ;
#316 = CARTESIAN_POINT ( 'NONE',  ( 31.36922313793440154, 16.82590050317853070, 95.49459739627614852 ) ) ;
#317 = CARTESIAN_POINT ( 'NONE',  ( -16.04923452106060111, 28.46907013130585185, 77.16841899186741216 ) ) ;
#318 = ITEM_DEFINED_TRANSFORMATION ( 'NONE', 'NONE', #252,  #933 ) ;
#319 = APPLIED_DOCUMENT_REFERENCE ( #937,'',( #575) ) ;
#320 = APPLICATION_CONTEXT ( 'automotive_design' ) ;
#321 = ITEM_DEFINED_TRANSFORMATION ( 'NONE', 'NONE', #422,  #229 ) ;
#322 = IDENTIFICATION_ROLE ( 'external document id and location', $) ;
#323 = APPLIED_DOCUMENT_REFERENCE ( #577,'',( #688) ) ;
#324 = PROPERTY_DEFINITION_REPRESENTATION ( #18, #867 ) ;
#325 = PRODUCT_DEFINITION ( 'General', '', #986, #257 ) ;
#326 = CARTESIAN_POINT ( 'NONE',  ( -1.141915755117864251, 19.01659113695429681, -23.05540260372385575 ) ) ;
#327 = DOCUMENT_TYPE ( 'geometry' ) ;
#328 = APPLIED_DOCUMENT_REFERENCE ( #71,'',( #575) ) ;
#329 = PRODUCT_DEFINITION_SHAPE ( 'NONE', 'NONE',  #470 ) ;
#330 = AXIS2_PLACEMENT_3D ( 'NONE', #634, #621, #98 ) ;
#331 = AXIS2_PLACEMENT_3D ( 'NONE', #796, #785, #146 ) ;
#332 = UNCERTAINTY_MEASURE_WITH_UNIT (LENGTH_MEASURE( 1.000000000000000082E-05 ), #153, 'distance_accuracy_value', 'NONE');
#333 = DIRECTION ( 'NONE',  ( 1.000000000000000000, 0.000000000000000000, 0.000000000000000000 ) ) ;
#334 =( LENGTH_UNIT ( ) NAMED_UNIT ( * ) SI_UNIT ( .MILLI., .METRE. ) );
#335 = PRODUCT_DEFINITION ( 'General', '', #612, #1115 ) ;
#336 = ROLE_ASSOCIATION ( #875, #1049 ) ;
#337 =( REPRESENTATION_RELATIONSHIP ('NONE','NONE', #120, #532 ) REPRESENTATION_RELATIONSHIP_WITH_TRANSFORMATION ( #626 )SHAPE_REPRESENTATION_RELATIONSHIP( ) );
#338 = DIRECTION ( 'NONE',  ( 1.000000000000000000, 0.000000000000000000, 0.000000000000000000 ) ) ;
#339 = PROPERTY_DEFINITION ('document property','', #407 ) ;
#340 = ROLE_ASSOCIATION ( #658, #615 ) ;
#341 =( REPRESENTATION_RELATIONSHIP ('NONE','NONE', #120, #867 ) REPRESENTATION_RELATIONSHIP_WITH_TRANSFORMATION ( #522 )SHAPE_REPRESENTATION_RELATIONSHIP( ) );
#342 =( REPRESENTATION_RELATIONSHIP ('NONE','NONE', #120, #73 ) REPRESENTATION_RELATIONSHIP_WITH_TRANSFORMATION ( #888 )SHAPE_REPRESENTATION_RELATIONSHIP( ) );
#343 = PROPERTY_DEFINITION_REPRESENTATION ( #1079, #532 ) ;
#344 = PROPERTY_DEFINITION_REPRESENTATION ( #307, #164 ) ;
#345 = PRODUCT_RELATED_PRODUCT_CATEGORY ( 'part', '', ( #585 ) ) ;
#346 = APPLICATION_CONTEXT ( 'automotive_design' ) ;
#347 = PROPERTY_DEFINITION ('document property','', #401 ) ;
#348 = AXIS2_PLACEMENT_3D ( 'NONE', #57, #245, #1082 ) ;
#349 = ITEM_DEFINED_TRANSFORMATION ( 'NONE', 'NONE', #480,  #768 ) ;
#350 = APPLIED_EXTERNAL_IDENTIFICATION_ASSIGNMENT ( 'countersunk flat head cross recess screw_iso_ISO 7046-1 - M3 x 8 - Z - 8N.STEP' , #224, #121,( #91) ) ;
#351 = DIRECTION ( 'NONE',  ( 1.000000000000000000, 0.000000000000000000, 0.000000000000000000 ) ) ;
#352 = OBJECT_ROLE ('mandatory',$ ) ;
#353 = CONTEXT_DEPENDENT_SHAPE_REPRESENTATION ( #821, #21 ) ;
#354 = ROLE_ASSOCIATION ( #130, #968 ) ;
#355 = PRODUCT_DEFINITION_SHAPE ( 'NONE', 'NONE',  #1157 ) ;
#356 = DIRECTION ( 'NONE',  ( 0.000000000000000000, -1.000000000000000000, 0.000000000000000000 ) ) ;
#357 = IDENTIFICATION_ROLE ( 'external document id and location', $) ;
#358 = PROPERTY_DEFINITION_REPRESENTATION ( #726, #73 ) ;
#359 = IDENTIFICATION_ROLE ( 'external document id and location', $) ;
#360 = UNCERTAINTY_MEASURE_WITH_UNIT (LENGTH_MEASURE( 1.000000000000000082E-05 ), #334, 'distance_accuracy_value', 'NONE');
#361 = DIRECTION ( 'NONE',  ( -4.558870053683604437E-08, -1.334952017489326321E-24, -0.9999999999999990008 ) ) ;
#362 =( NAMED_UNIT ( * ) PLANE_ANGLE_UNIT ( ) SI_UNIT ( $, .RADIAN. ) );
#363 = PROPERTY_DEFINITION ('document property','', #931 ) ;
#364 = DOCUMENT_FILE ( 'hexalobular socket cheese head_iso_ISO 14580 - #3 x 8 x 7 - 4.8-N.STEP' , '', '', #1075, '' ,$ ) ;
#365 = AXIS2_PLACEMENT_3D ( 'NONE', #464, #834, #1094 ) ;
#366 = PRODUCT_DEFINITION_SHAPE ( 'NONE', 'NONE',  #1160 ) ;
#367 = PROPERTY_DEFINITION_REPRESENTATION ( #824, #205 ) ;
#368 =( REPRESENTATION_RELATIONSHIP ('NONE','NONE', #120, #567 ) REPRESENTATION_RELATIONSHIP_WITH_TRANSFORMATION ( #762 )SHAPE_REPRESENTATION_RELATIONSHIP( ) );
#369 = APPLICATION_CONTEXT ( 'automotive_design' ) ;
#370 = DIRECTION ( 'NONE',  ( 1.000000000000000000, 0.000000000000000000, 0.000000000000000000 ) ) ;
#371 = APPLIED_DOCUMENT_REFERENCE ( #982,'',( #705) ) ;
#372 = PROPERTY_DEFINITION ('external definition','', #596 ) ;
#373 = ITEM_DEFINED_TRANSFORMATION ( 'NONE', 'NONE', #594,  #19 ) ;
#374 = EXTERNAL_SOURCE (IDENTIFIER('') ) ;
#375 = PROPERTY_DEFINITION ('external definition','', #717 ) ;
#376 = APPLICATION_PROTOCOL_DEFINITION ( 'draft international standard', 'automotive_design', 1998, #39 ) ;
#377 = PROPERTY_DEFINITION_REPRESENTATION ( #595, #532 ) ;
#378 = PROPERTY_DEFINITION_REPRESENTATION ( #273, #73 ) ;
#379 = PRODUCT_DEFINITION ( 'General', '', #387, #704 ) ;
#380 = APPLICATION_PROTOCOL_DEFINITION ( 'draft international standard', 'automotive_design', 1998, #427 ) ;
#381 = PRODUCT_DEFINITION_SHAPE ( 'NONE', 'NONE',  #1005 ) ;
#382 = CARTESIAN_POINT ( 'NONE',  ( 3.373295054128364612, 5.516591136954465568, 47.31412915784446938 ) ) ;
#383 = IDENTIFICATION_ROLE ( 'external document id and location', $) ;
#384 = CONTEXT_DEPENDENT_SHAPE_REPRESENTATION ( #563, #916 ) ;
#385 = AXIS2_PLACEMENT_3D ( 'NONE', #1056, #509, #510 ) ;
#386 = PROPERTY_DEFINITION ('external definition','', #678 ) ;
#387 = PRODUCT_DEFINITION_FORMATION_WITH_SPECIFIED_SOURCE ( 'Symmetric', '', #873, .NOT_KNOWN. ) ;
#388 = APPLIED_EXTERNAL_IDENTIFICATION_ASSIGNMENT ( 'hexalobular socket cheese head_iso_ISO 14580 - #3 x 8 x 7 - 4.8-N.STEP' , #139, #55,( #686) ) ;
#389 = PRODUCT_DEFINITION_CONTEXT ( 'detailed design', #915, 'design' ) ;
#390 = SHAPE_DEFINITION_REPRESENTATION ( #841, #205 ) ;
#391 = ITEM_DEFINED_TRANSFORMATION ( 'NONE', 'NONE', #78,  #768 ) ;
#392 = IDENTIFICATION_ROLE ( 'external document id and location', $) ;
#393 = PRODUCT_CONTEXT ( 'NONE', #550, 'mechanical' ) ;
#394 = PROPERTY_DEFINITION_REPRESENTATION ( #600, #532 ) ;
#395 =( REPRESENTATION_RELATIONSHIP ('NONE','NONE', #120, #164 ) REPRESENTATION_RELATIONSHIP_WITH_TRANSFORMATION ( #494 )SHAPE_REPRESENTATION_RELATIONSHIP( ) );
#396 = PRODUCT_CONTEXT ( 'NONE', #97, 'mechanical' ) ;
#397 =( REPRESENTATION_RELATIONSHIP ('NONE','NONE', #120, #532 ) REPRESENTATION_RELATIONSHIP_WITH_TRANSFORMATION ( #45 )SHAPE_REPRESENTATION_RELATIONSHIP( ) );
#398 = CONTEXT_DEPENDENT_SHAPE_REPRESENTATION ( #959, #772 ) ;
#399 = DIRECTION ( 'NONE',  ( 0.000000000000000000, 0.000000000000000000, 1.000000000000000000 ) ) ;
#400 = PRODUCT_DEFINITION_SHAPE ( 'NONE', 'NONE',  #1141 ) ;
#401 = DOCUMENT_FILE ( 'countersunk flat head cross recess screw_iso_ISO 7046-1 - M3 x 8 - Z - 8N.STEP' , '', '', #700, '' ,$ ) ;
#402 =( GEOMETRIC_REPRESENTATION_CONTEXT ( 3 ) GLOBAL_UNCERTAINTY_ASSIGNED_CONTEXT ( ( #988 ) ) GLOBAL_UNIT_ASSIGNED_CONTEXT ( ( #1121, #750, #590 ) ) REPRESENTATION_CONTEXT ( 'NONE', 'WORKASPACE' ) );
#403 = PRODUCT_DEFINITION_SHAPE ( 'NONE', 'NONE',  #688 ) ;
#404 = PRODUCT_DEFINITION_FORMATION_WITH_SPECIFIED_SOURCE ( 'Symmetric', '', #943, .NOT_KNOWN. ) ;
#405 = CARTESIAN_POINT ( 'NONE',  ( 33.85808424488214285, 27.01659113695429326, -14.50540260372384793 ) ) ;
#406 = APPLICATION_CONTEXT ( 'automotive_design' ) ;
#407 = DOCUMENT_FILE ( 'hexalobular socket cheese head_iso_ISO 14580 - #3 x 8 x 7 - 4.8-N.STEP' , '', '', #1067, '' ,$ ) ;
#408 = PRODUCT_DEFINITION ( 'General', '', #901, #1008 ) ;
#409 = ROLE_ASSOCIATION ( #166, #1124 ) ;
#410 = PRODUCT ( 'Main base', 'Main base', '', ( #576 ) ) ;
#411 = CARTESIAN_POINT ( 'NONE',  ( -31.64191575511786425, 4.516591136954290597, 50.99459739627615562 ) ) ;
#412 = SHAPE_REPRESENTATION ( 'lunpid_longwave_v0.1', ( #114 ), #745 ) ;
#413 = IDENTIFICATION_ROLE ( 'external document id and location', $) ;
#414 = ITEM_DEFINED_TRANSFORMATION ( 'NONE', 'NONE', #313,  #768 ) ;
#415 = PRODUCT_DEFINITION_SHAPE ( 'NONE', 'NONE',  #1170 ) ;
#416 = PRODUCT_RELATED_PRODUCT_CATEGORY ( 'part', '', ( #50 ) ) ;
#417 = DIRECTION ( 'NONE',  ( 6.123233995736764803E-17, -1.224646799147353454E-16, 1.000000000000000000 ) ) ;
#418 = OBJECT_ROLE ('mandatory',$ ) ;
#419 = PROPERTY_DEFINITION ('external definition','', #159 ) ;
#420 = EXTERNAL_SOURCE (IDENTIFIER('') ) ;
#421 = AXIS2_PLACEMENT_3D ( 'NONE', #17, #126, #104 ) ;
#422 = AXIS2_PLACEMENT_3D ( 'NONE', #405, #333, #227 ) ;
#423 = CONTEXT_DEPENDENT_SHAPE_REPRESENTATION ( #496, #299 ) ;
#424 = DIRECTION ( 'NONE',  ( -3.330669073875469621E-16, 1.110223024625156787E-16, -1.000000000000000000 ) ) ;
#425 = APPLIED_EXTERNAL_IDENTIFICATION_ASSIGNMENT ( 'hexalobular socket cheese head_iso_ISO 14580 - #3 x 8 x 7 - 4.8-N.STEP' , #383, #1123,( #982) ) ;
#426 = EXTERNAL_SOURCE (IDENTIFIER('') ) ;
#427 = APPLICATION_CONTEXT ( 'automotive_design' ) ;
#428 = DIRECTION ( 'NONE',  ( 0.000000000000000000, 1.000000000000000000, 0.000000000000000000 ) ) ;
#429 = OBJECT_ROLE ('mandatory',$ ) ;
#430 = PRODUCT_DEFINITION_SHAPE ( 'NONE', 'NONE',  #1149 ) ;
#431 = CONTEXT_DEPENDENT_SHAPE_REPRESENTATION ( #342, #1058 ) ;
#432 = CONTEXT_DEPENDENT_SHAPE_REPRESENTATION ( #395, #488 ) ;
#433 = CARTESIAN_POINT ( 'NONE',  ( -20.04922903371256382, 34.04199113697973189, 83.57429444101829574 ) ) ;
#434 = OBJECT_ROLE ('mandatory',$ ) ;
#435 =( NAMED_UNIT ( * ) PLANE_ANGLE_UNIT ( ) SI_UNIT ( $, .RADIAN. ) );
#436 = ROLE_ASSOCIATION ( #177, #328 ) ;
#437 = CONTEXT_DEPENDENT_SHAPE_REPRESENTATION ( #617, #400 ) ;
#438 = PROPERTY_DEFINITION ('external definition','', #741 ) ;
#439 = DIRECTION ( 'NONE',  ( 0.8371691043312223801, -4.554224818964409284E-17, 0.5469441386039887165 ) ) ;
#440 =( GEOMETRIC_REPRESENTATION_CONTEXT ( 3 ) GLOBAL_UNCERTAINTY_ASSIGNED_CONTEXT ( ( #65 ) ) GLOBAL_UNIT_ASSIGNED_CONTEXT ( ( #650, #1108, #203 ) ) REPRESENTATION_CONTEXT ( 'NONE', 'WORKASPACE' ) );
#441 = AXIS2_PLACEMENT_3D ( 'NONE', #871, #773, #694 ) ;
#442 = PROPERTY_DEFINITION_REPRESENTATION ( #1099, #532 ) ;
#443 = APPLIED_EXTERNAL_IDENTIFICATION_ASSIGNMENT ( 'countersunk flat head cross recess screw_iso_ISO 7046-1 - M3 x 8 - Z - 8N.STEP' , #666, #842,( #1030) ) ;
#444 = APPLIED_EXTERNAL_IDENTIFICATION_ASSIGNMENT ( 'hexalobular socket cheese head_iso_ISO 14580 - #3 x 8 x 7 - 4.8-N.STEP' , #188, #475,( #999) ) ;
#445 = OBJECT_ROLE ('mandatory',$ ) ;
#446 = PRODUCT_RELATED_PRODUCT_CATEGORY ( 'part', '', ( #1117 ) ) ;
#447 = DIRECTION ( 'NONE',  ( 6.123233995736766036E-17, -1.000000000000000000, 0.000000000000000000 ) ) ;
#448 = PROPERTY_DEFINITION_REPRESENTATION ( #975, #73 ) ;
#449 = PRODUCT_DEFINITION_SHAPE ( 'NONE', 'NONE',  #1144 ) ;
#450 = DIRECTION ( 'NONE',  ( 0.8371691043312223801, -4.554224818964409284E-17, 0.5469441386039887165 ) ) ;
#451 =( REPRESENTATION_RELATIONSHIP ('NONE','NONE', #120, #532 ) REPRESENTATION_RELATIONSHIP_WITH_TRANSFORMATION ( #919 )SHAPE_REPRESENTATION_RELATIONSHIP( ) );
#452 =( LENGTH_UNIT ( ) NAMED_UNIT ( * ) SI_UNIT ( .MILLI., .METRE. ) );
#453 = ITEM_DEFINED_TRANSFORMATION ( 'NONE', 'NONE', #771,  #768 ) ;
#454 = CONTEXT_DEPENDENT_SHAPE_REPRESENTATION ( #896, #1089 ) ;
#455 = DOCUMENT_TYPE ( 'geometry' ) ;
#456 = CARTESIAN_POINT ( 'NONE',  ( 29.35808424488214641, 4.516591136954292374, -10.00540260372385859 ) ) ;
#457 = OBJECT_ROLE ('mandatory',$ ) ;
#458 = PROPERTY_DEFINITION ('document property','', #1030 ) ;
#459 = PROPERTY_DEFINITION_REPRESENTATION ( #375, #532 ) ;
#460 = AXIS2_PLACEMENT_3D ( 'NONE', #958, #874, #897 ) ;
#461 = DIRECTION ( 'NONE',  ( 1.000000000000000000, 0.000000000000000000, 0.000000000000000000 ) ) ;
#462 = APPLIED_EXTERNAL_IDENTIFICATION_ASSIGNMENT ( 'countersunk flat head cross recess screw_iso_ISO 7046-1 - M3 x 8 - Z - 8N.STEP' , #984, #1060,( #799) ) ;
#463 = APPLICATION_PROTOCOL_DEFINITION ( 'draft international standard', 'automotive_design', 1998, #1092 ) ;
#464 = CARTESIAN_POINT ( 'NONE',  ( 0.000000000000000000, 0.000000000000000000, 0.000000000000000000 ) ) ;
#465 = ROLE_ASSOCIATION ( #511, #99 ) ;
#466 = EXTERNAL_SOURCE (IDENTIFIER('') ) ;
#467 = APPLICATION_CONTEXT ( 'automotive_design' ) ;
#468 = PROPERTY_DEFINITION ('document property','', #129 ) ;
#469 = PROPERTY_DEFINITION_REPRESENTATION ( #637, #73 ) ;
#470 = PRODUCT_DEFINITION ( 'General', '', #233, #389 ) ;
#471 = PRODUCT_DEFINITION_SHAPE ( 'NONE', 'NONE',  #1167 ) ;
#472 = APPLICATION_PROTOCOL_DEFINITION ( 'draft international standard', 'automotive_design', 1998, #698 ) ;
#473 = APPLIED_DOCUMENT_REFERENCE ( #181,'',( #258) ) ;
#474 = DOCUMENT_TYPE ( 'geometry' ) ;
#475 = EXTERNAL_SOURCE (IDENTIFIER('') ) ;
#476 = SHAPE_DEFINITION_REPRESENTATION ( #662, #73 ) ;
#477 = PRODUCT_DEFINITION_SHAPE ( 'NONE', 'NONE',  #1135 ) ;
#478 = DIRECTION ( 'NONE',  ( -4.558870053683593849E-08, 4.371140900000000807E-08, -0.9999999999999980016 ) ) ;
#479 = ROLE_ASSOCIATION ( #521, #112 ) ;
#480 = AXIS2_PLACEMENT_3D ( 'NONE', #997, #536, #1074 ) ;
#481 = PRODUCT_DEFINITION_SHAPE ( 'NONE', 'NONE',  #1168 ) ;
#482 =( REPRESENTATION_RELATIONSHIP ('NONE','NONE', #120, #532 ) REPRESENTATION_RELATIONSHIP_WITH_TRANSFORMATION ( #453 )SHAPE_REPRESENTATION_RELATIONSHIP( ) );
#483 = IDENTIFICATION_ROLE ( 'external document id and location', $) ;
#484 = DIRECTION ( 'NONE',  ( 0.000000000000000000, -1.000000000000000000, 0.000000000000000000 ) ) ;
#485 = APPLICATION_PROTOCOL_DEFINITION ( 'draft international standard', 'automotive_design', 1998, #286 ) ;
#486 = DOCUMENT_TYPE ( 'geometry' ) ;
#487 = ROLE_ASSOCIATION ( #194, #671 ) ;
#488 = PRODUCT_DEFINITION_SHAPE ( 'NONE', 'NONE',  #1139 ) ;
#489 = APPLICATION_PROTOCOL_DEFINITION ( 'draft international standard', 'automotive_design', 1998, #607 ) ;
#490 = PRODUCT ( 'middel part', 'middel part', '', ( #759 ) ) ;
#491 = APPLICATION_CONTEXT ( 'automotive_design' ) ;
#492 = ITEM_DEFINED_TRANSFORMATION ( 'NONE', 'NONE', #807,  #365 ) ;
#493 = PROPERTY_DEFINITION_REPRESENTATION ( #161, #73 ) ;
#494 = ITEM_DEFINED_TRANSFORMATION ( 'NONE', 'NONE', #348,  #271 ) ;
#495 =( LENGTH_UNIT ( ) NAMED_UNIT ( * ) SI_UNIT ( .MILLI., .METRE. ) );
#496 =( REPRESENTATION_RELATIONSHIP ('NONE','NONE', #120, #157 ) REPRESENTATION_RELATIONSHIP_WITH_TRANSFORMATION ( #1039 )SHAPE_REPRESENTATION_RELATIONSHIP( ) );
#497 = PRODUCT_RELATED_PRODUCT_CATEGORY ( 'part', '', ( #769 ) ) ;
#498 = PRODUCT_DEFINITION_SHAPE ( 'NONE', 'NONE',  #1136 ) ;
#499 = PROPERTY_DEFINITION_REPRESENTATION ( #142, #73 ) ;
#500 = EXTERNAL_SOURCE (IDENTIFIER('') ) ;
#501 = PRODUCT_DEFINITION_SHAPE ( 'NONE', 'NONE',  #983 ) ;
#502 =( REPRESENTATION_RELATIONSHIP ('NONE','NONE', #120, #578 ) REPRESENTATION_RELATIONSHIP_WITH_TRANSFORMATION ( #588 )SHAPE_REPRESENTATION_RELATIONSHIP( ) );
#503 = APPLIED_EXTERNAL_IDENTIFICATION_ASSIGNMENT ( 'Main Heatsink 70x70x3.STEP' , #921, #602,( #516) ) ;
#504 = CARTESIAN_POINT ( 'NONE',  ( -33.06691575511785430, 41.24159113695426981, -9.255402603723851485 ) ) ;
#505 = PROPERTY_DEFINITION_REPRESENTATION ( #737, #73 ) ;
#506 = PRODUCT_RELATED_PRODUCT_CATEGORY ( 'part', '', ( #508 ) ) ;
#507 = EXTERNAL_SOURCE (IDENTIFIER('') ) ;
#508 = PRODUCT ( 'Heatsink RAK 1Watt 70x22', 'Heatsink RAK 1Watt 70x22', '', ( #294 ) ) ;
#509 = DIRECTION ( 'NONE',  ( -0.02891119594099478621, -1.770300178433060723E-18, 0.9995819840059451122 ) ) ;
#510 = DIRECTION ( 'NONE',  ( 6.123233995736766036E-17, -1.000000000000000000, 0.000000000000000000 ) ) ;
#511 = OBJECT_ROLE ('mandatory',$ ) ;
#512 = CARTESIAN_POINT ( 'NONE',  ( 0.000000000000000000, 0.000000000000000000, 0.000000000000000000 ) ) ;
#513 = ROLE_ASSOCIATION ( #910, #1043 ) ;
#514 = PROPERTY_DEFINITION ('document property','', #741 ) ;
#515 = AXIS2_PLACEMENT_3D ( 'NONE', #548, #523, #528 ) ;
#516 = DOCUMENT_FILE ( 'Main Heatsink 70x70x3.STEP' , '', '', #849, '' ,$ ) ;
#517 = DIRECTION ( 'NONE',  ( 1.000000000000000000, 0.000000000000000000, 0.000000000000000000 ) ) ;
#518 = OBJECT_ROLE ('mandatory',$ ) ;
#519 = APPLIED_EXTERNAL_IDENTIFICATION_ASSIGNMENT ( 'hexalobular socket cheese head_iso_ISO 14580 - #3 x 8 x 7 - 4.8-N.STEP' , #49, #500,( #364) ) ;
#520 = ITEM_DEFINED_TRANSFORMATION ( 'NONE', 'NONE', #515,  #171 ) ;
#521 = OBJECT_ROLE ('mandatory',$ ) ;
#522 = ITEM_DEFINED_TRANSFORMATION ( 'NONE', 'NONE', #967,  #627 ) ;
#523 = DIRECTION ( 'NONE',  ( -0.9922628735804860378, 0.1241547007317745782, 7.596314328718137791E-17 ) ) ;
#524 = DIRECTION ( 'NONE',  ( 1.000000000000000000, 0.000000000000000000, 0.000000000000000000 ) ) ;
#525 = PROPERTY_DEFINITION ('document property','', #799 ) ;
#526 = ITEM_DEFINED_TRANSFORMATION ( 'NONE', 'NONE', #232,  #1025 ) ;
#527 = EXTERNAL_SOURCE (IDENTIFIER('') ) ;
#528 = DIRECTION ( 'NONE',  ( 6.123233995736766036E-17, -1.224646799147353454E-16, 1.000000000000000000 ) ) ;
#529 =( LENGTH_UNIT ( ) NAMED_UNIT ( * ) SI_UNIT ( .MILLI., .METRE. ) );
#530 = ITEM_DEFINED_TRANSFORMATION ( 'NONE', 'NONE', #706,  #768 ) ;
#531 = PROPERTY_DEFINITION_REPRESENTATION ( #965, #642 ) ;
#532 = SHAPE_REPRESENTATION ( 'hexalobular socket cheese head_iso_ISO 14580 - #3 x 8 x 7 - 4.8-N', ( #768 ), #664 ) ;
#533 = EXTERNAL_SOURCE (IDENTIFIER('') ) ;
#534 =( GEOMETRIC_REPRESENTATION_CONTEXT ( 3 ) GLOBAL_UNCERTAINTY_ASSIGNED_CONTEXT ( ( #743 ) ) GLOBAL_UNIT_ASSIGNED_CONTEXT ( ( #529, #1070, #912 ) ) REPRESENTATION_CONTEXT ( 'NONE', 'WORKASPACE' ) );
#535 = PROPERTY_DEFINITION ('document property','', #937 ) ;
#536 = DIRECTION ( 'NONE',  ( 0.000000000000000000, -1.000000000000000000, 0.000000000000000000 ) ) ;
#537 = AXIS2_PLACEMENT_3D ( 'NONE', #709, #732, #713 ) ;
#538 = AXIS2_PLACEMENT_3D ( 'NONE', #961, #1130, #964 ) ;
#539 = DIRECTION ( 'NONE',  ( 1.000000000000000000, 0.000000000000000000, 0.000000000000000000 ) ) ;
#540 = PROPERTY_DEFINITION_REPRESENTATION ( #1119, #532 ) ;
#541 = DOCUMENT_FILE ( 'countersunk flat head cross recess screw_iso_ISO 7046-1 - M3 x 8 - Z - 8N.STEP' , '', '', #684, '' ,$ ) ;
#542 = APPLIED_DOCUMENT_REFERENCE ( #1087,'',( #575) ) ;
#543 = PRODUCT_DEFINITION_CONTEXT ( 'detailed design', #247, 'design' ) ;
#544 = CARTESIAN_POINT ( 'NONE',  ( 29.35808424488214285, 4.516591136954289709, 50.99459739627614141 ) ) ;
#545 =( REPRESENTATION_RELATIONSHIP ('NONE','NONE', #120, #73 ) REPRESENTATION_RELATIONSHIP_WITH_TRANSFORMATION ( #1104 )SHAPE_REPRESENTATION_RELATIONSHIP( ) );
#546 = CONTEXT_DEPENDENT_SHAPE_REPRESENTATION ( #337, #481 ) ;
#547 = PROPERTY_DEFINITION ('document property','', #822 ) ;
#548 = CARTESIAN_POINT ( 'NONE',  ( -32.87032033565416356, 10.04425297132324779, -17.63040260372385859 ) ) ;
#549 = PROPERTY_DEFINITION_REPRESENTATION ( #1128, #532 ) ;
#550 = APPLICATION_CONTEXT ( 'automotive_design' ) ;
#551 = PROPERTY_DEFINITION_REPRESENTATION ( #514, #697 ) ;
#552 = PRODUCT_DEFINITION_SHAPE ( 'NONE', 'NONE',  #1137 ) ;
#553 = APPLICATION_PROTOCOL_DEFINITION ( 'draft international standard', 'automotive_design', 1998, #346 ) ;
#554 = AXIS2_PLACEMENT_3D ( 'NONE', #297, #580, #25 ) ;
#555 = PROPERTY_DEFINITION ('document property','', #133 ) ;
#556 = APPLIED_DOCUMENT_REFERENCE ( #364,'',( #705) ) ;
#557 = AXIS2_PLACEMENT_3D ( 'NONE', #721, #6, #264 ) ;
#558 = PROPERTY_DEFINITION ('document property','', #623 ) ;
#559 =( REPRESENTATION_RELATIONSHIP ('NONE','NONE', #120, #291 ) REPRESENTATION_RELATIONSHIP_WITH_TRANSFORMATION ( #321 )SHAPE_REPRESENTATION_RELATIONSHIP( ) );
#560 = SHAPE_DEFINITION_REPRESENTATION ( #1088, #412 ) ;
#561 = ITEM_DEFINED_TRANSFORMATION ( 'NONE', 'NONE', #538,  #171 ) ;
#562 = APPLICATION_PROTOCOL_DEFINITION ( 'draft international standard', 'automotive_design', 1998, #215 ) ;
#563 =( REPRESENTATION_RELATIONSHIP ('NONE','NONE', #120, #532 ) REPRESENTATION_RELATIONSHIP_WITH_TRANSFORMATION ( #391 )SHAPE_REPRESENTATION_RELATIONSHIP( ) );
#564 = PROPERTY_DEFINITION_REPRESENTATION ( #386, #691 ) ;
#565 = CARTESIAN_POINT ( 'NONE',  ( 0.000000000000000000, 0.000000000000000000, 0.000000000000000000 ) ) ;
#566 = APPLICATION_PROTOCOL_DEFINITION ( 'draft international standard', 'automotive_design', 1998, #310 ) ;
#567 = SHAPE_REPRESENTATION ( 'middel part', ( #330 ), #151 ) ;
#568 =( NAMED_UNIT ( * ) PLANE_ANGLE_UNIT ( ) SI_UNIT ( $, .RADIAN. ) );
#569 = PROPERTY_DEFINITION_REPRESENTATION ( #195, #691 ) ;
#570 = CONTEXT_DEPENDENT_SHAPE_REPRESENTATION ( #545, #716 ) ;
#571 = EXTERNAL_SOURCE (IDENTIFIER('') ) ;
#572 = PROPERTY_DEFINITION ('document property','', #364 ) ;
#573 = CARTESIAN_POINT ( 'NONE',  ( 0.000000000000000000, 0.000000000000000000, 0.000000000000000000 ) ) ;
#574 = CARTESIAN_POINT ( 'NONE',  ( -1.141915755117854037, 9.006791136954287680, 14.38190784352499563 ) ) ;
#575 = PRODUCT_DEFINITION ( 'General', '', #315, #107 ) ;
#576 = PRODUCT_CONTEXT ( 'NONE', #971, 'mechanical' ) ;
#577 = DOCUMENT_FILE ( 'CM4 Mockup.step.STEP' , '', '', #231, '' ,$ ) ;
#578 = SHAPE_REPRESENTATION ( 'Twist lock radio part V3', ( #554 ), #440 ) ;
#579 = EXTERNAL_SOURCE (IDENTIFIER('') ) ;
#580 = DIRECTION ( 'NONE',  ( 0.000000000000000000, 0.000000000000000000, 1.000000000000000000 ) ) ;
#581 = PROPERTY_DEFINITION_REPRESENTATION ( #795, #567 ) ;
#582 =( REPRESENTATION_RELATIONSHIP ('NONE','NONE', #120, #73 ) REPRESENTATION_RELATIONSHIP_WITH_TRANSFORMATION ( #520 )SHAPE_REPRESENTATION_RELATIONSHIP( ) );
#583 = PROPERTY_DEFINITION ('external definition','', #1062 ) ;
#584 = CONTEXT_DEPENDENT_SHAPE_REPRESENTATION ( #502, #552 ) ;
#585 = PRODUCT ( 'CM4 Mockup.step', 'CM4 Mockup.step', '', ( #190 ) ) ;
#586 = PROPERTY_DEFINITION ('external definition','', #857 ) ;
#587 = IDENTIFICATION_ROLE ( 'external document id and location', $) ;
#588 = ITEM_DEFINED_TRANSFORMATION ( 'NONE', 'NONE', #954,  #554 ) ;
#589 = CARTESIAN_POINT ( 'NONE',  ( -28.64191575511748766, 5.516591136954285268, 34.38190784352529050 ) ) ;
#590 =( NAMED_UNIT ( * ) SI_UNIT ( $, .STERADIAN. ) SOLID_ANGLE_UNIT ( ) );
#591 = PRODUCT_DEFINITION_SHAPE ( 'NONE', 'NONE',  #379 ) ;
#592 = PROPERTY_DEFINITION_REPRESENTATION ( #535, #73 ) ;
#593 =( GEOMETRIC_REPRESENTATION_CONTEXT ( 3 ) GLOBAL_UNCERTAINTY_ASSIGNED_CONTEXT ( ( #611 ) ) GLOBAL_UNIT_ASSIGNED_CONTEXT ( ( #952, #887, #701 ) ) REPRESENTATION_CONTEXT ( 'NONE', 'WORKASPACE' ) );
#594 = AXIS2_PLACEMENT_3D ( 'NONE', #791, #428, #886 ) ;
#595 = PROPERTY_DEFINITION ('document property','', #999 ) ;
#596 = DOCUMENT_FILE ( 'Twist lock radio part V3.STEP' , '', '', #889, '' ,$ ) ;
#597 = APPLIED_EXTERNAL_IDENTIFICATION_ASSIGNMENT ( 'hexalobular socket cheese head_iso_ISO 14580 - #3 x 8 x 7 - 4.8-N.STEP' , #33, #767,( #407) ) ;
#598 =( REPRESENTATION_RELATIONSHIP ('NONE','NONE', #120, #73 ) REPRESENTATION_RELATIONSHIP_WITH_TRANSFORMATION ( #105 )SHAPE_REPRESENTATION_RELATIONSHIP( ) );
#599 = DIRECTION ( 'NONE',  ( 0.000000000000000000, 1.000000000000000000, 1.224646799147353700E-16 ) ) ;
#600 = PROPERTY_DEFINITION ('external definition','', #931 ) ;
#601 = DIRECTION ( 'NONE',  ( 0.02497836174290030131, 1.529483537819377882E-18, 0.9996879920478393133 ) ) ;
#602 = EXTERNAL_SOURCE (IDENTIFIER('') ) ;
#603 = ROLE_ASSOCIATION ( #812, #1131 ) ;
#604 = OBJECT_ROLE ('mandatory',$ ) ;
#605 = DIRECTION ( 'NONE',  ( 6.123233995736766036E-17, -1.000000000000000000, 0.000000000000000000 ) ) ;
#606 =( NAMED_UNIT ( * ) SI_UNIT ( $, .STERADIAN. ) SOLID_ANGLE_UNIT ( ) );
#607 = APPLICATION_CONTEXT ( 'automotive_design' ) ;
#608 = PROPERTY_DEFINITION ('document property','', #71 ) ;
#609 = PRODUCT_DEFINITION_CONTEXT ( 'detailed design', #239, 'design' ) ;
#610 = AXIS2_PLACEMENT_3D ( 'NONE', #277, #178, #351 ) ;
#611 = UNCERTAINTY_MEASURE_WITH_UNIT (LENGTH_MEASURE( 1.000000000000000082E-05 ), #952, 'distance_accuracy_value', 'NONE');
#612 = PRODUCT_DEFINITION_FORMATION_WITH_SPECIFIED_SOURCE ( 'Symmetric', '', #50, .NOT_KNOWN. ) ;
#613 = CARTESIAN_POINT ( 'NONE',  ( -36.14191575511786425, 27.01659113695429326, -14.50540260372384438 ) ) ;
#614 = APPLIED_EXTERNAL_IDENTIFICATION_ASSIGNMENT ( 'hexalobular socket cheese head_iso_ISO 14580 - #3 x 8 x 7 - 4.8-N.STEP' , #951, #70,( #60) ) ;
#615 = APPLIED_DOCUMENT_REFERENCE ( #159,'',( #575) ) ;
#616 = ROLE_ASSOCIATION ( #418, #256 ) ;
#617 =( REPRESENTATION_RELATIONSHIP ('NONE','NONE', #120, #642 ) REPRESENTATION_RELATIONSHIP_WITH_TRANSFORMATION ( #526 )SHAPE_REPRESENTATION_RELATIONSHIP( ) );
#618 = DIRECTION ( 'NONE',  ( 0.000000000000000000, -1.000000000000000000, 0.000000000000000000 ) ) ;
#619 = DOCUMENT_TYPE ( 'geometry' ) ;
#620 = PRODUCT_RELATED_PRODUCT_CATEGORY ( 'part', '', ( #943 ) ) ;
#621 = DIRECTION ( 'NONE',  ( 0.000000000000000000, 0.000000000000000000, 1.000000000000000000 ) ) ;
#622 = PRODUCT_DEFINITION_SHAPE ( 'NONE', 'NONE',  #1142 ) ;
#623 = DOCUMENT_FILE ( 'hexalobular socket cheese head_iso_ISO 14580 - #3 x 8 x 7 - 4.8-N.STEP' , '', '', #998, '' ,$ ) ;
#624 = DOCUMENT_FILE ( 'Heatsink RAK 1Watt 70x22.STEP' , '', '', #279, '' ,$ ) ;
#625 = OBJECT_ROLE ('mandatory',$ ) ;
#626 = ITEM_DEFINED_TRANSFORMATION ( 'NONE', 'NONE', #93,  #768 ) ;
#627 = AXIS2_PLACEMENT_3D ( 'NONE', #565, #399, #935 ) ;
#628 = PROPERTY_DEFINITION ('document property','', #181 ) ;
#629 = DIRECTION ( 'NONE',  ( -0.9999500289327980518, -0.009996981409225712614, 6.000500298359833465E-17 ) ) ;
#630 = UNCERTAINTY_MEASURE_WITH_UNIT (LENGTH_MEASURE( 1.000000000000000082E-05 ), #765, 'distance_accuracy_value', 'NONE');
#631 = CONTEXT_DEPENDENT_SHAPE_REPRESENTATION ( #1047, #788 ) ;
#632 = EXTERNAL_SOURCE (IDENTIFIER('') ) ;
#633 =( NAMED_UNIT ( * ) PLANE_ANGLE_UNIT ( ) SI_UNIT ( $, .RADIAN. ) );
#634 = CARTESIAN_POINT ( 'NONE',  ( 0.000000000000000000, 0.000000000000000000, 0.000000000000000000 ) ) ;
#635 = ITEM_DEFINED_TRANSFORMATION ( 'NONE', 'NONE', #59,  #75 ) ;
#636 = DOCUMENT_TYPE ( 'geometry' ) ;
#637 = PROPERTY_DEFINITION ('external definition','', #731 ) ;
#638 = OBJECT_ROLE ('mandatory',$ ) ;
#639 =( NAMED_UNIT ( * ) SI_UNIT ( $, .STERADIAN. ) SOLID_ANGLE_UNIT ( ) );
#640 = CONTEXT_DEPENDENT_SHAPE_REPRESENTATION ( #482, #779 ) ;
#641 = CONTEXT_DEPENDENT_SHAPE_REPRESENTATION ( #96, #449 ) ;
#642 = SHAPE_REPRESENTATION ( 'Main Heatsink 70x70x3', ( #1025 ), #881 ) ;
#643 = APPLICATION_PROTOCOL_DEFINITION ( 'draft international standard', 'automotive_design', 1998, #247 ) ;
#644 = PROPERTY_DEFINITION ('external definition','', #909 ) ;
#645 = AXIS2_PLACEMENT_3D ( 'NONE', #574, #196, #183 ) ;
#646 = APPLICATION_CONTEXT ( 'automotive_design' ) ;
#647 = PROPERTY_DEFINITION_REPRESENTATION ( #814, #412 ) ;
#648 = APPLIED_EXTERNAL_IDENTIFICATION_ASSIGNMENT ( 'hexalobular socket cheese head_iso_ISO 14580 - #3 x 8 x 7 - 4.8-N.STEP' , #1098, #106,( #236) ) ;
#649 = SHAPE_DEFINITION_REPRESENTATION ( #403, #1012 ) ;
#650 =( LENGTH_UNIT ( ) NAMED_UNIT ( * ) SI_UNIT ( .MILLI., .METRE. ) );
#651 = PRODUCT_DEFINITION_SHAPE ( 'NONE', 'NONE',  #1163 ) ;
#652 = PRODUCT_DEFINITION_CONTEXT ( 'detailed design', #798, 'design' ) ;
#653 = SHAPE_DEFINITION_REPRESENTATION ( #1035, #691 ) ;
#654 =( NAMED_UNIT ( * ) PLANE_ANGLE_UNIT ( ) SI_UNIT ( $, .RADIAN. ) );
#655 = PROPERTY_DEFINITION_REPRESENTATION ( #1016, #1012 ) ;
#656 = APPLICATION_CONTEXT ( 'automotive_design' ) ;
#657 = PRODUCT_RELATED_PRODUCT_CATEGORY ( 'part', '', ( #111 ) ) ;
#658 = OBJECT_ROLE ('mandatory',$ ) ;
#659 = APPLICATION_PROTOCOL_DEFINITION ( 'draft international standard', 'automotive_design', 1998, #491 ) ;
#660 = PRODUCT_DEFINITION_SHAPE ( 'NONE', 'NONE',  #335 ) ;
#661 = DIRECTION ( 'NONE',  ( 1.000000000000000000, 0.000000000000000000, 0.000000000000000000 ) ) ;
#662 = PRODUCT_DEFINITION_SHAPE ( 'NONE', 'NONE',  #575 ) ;
#663 = CARTESIAN_POINT ( 'NONE',  ( 0.000000000000000000, 0.000000000000000000, 0.000000000000000000 ) ) ;
#664 =( GEOMETRIC_REPRESENTATION_CONTEXT ( 3 ) GLOBAL_UNCERTAINTY_ASSIGNED_CONTEXT ( ( #922 ) ) GLOBAL_UNIT_ASSIGNED_CONTEXT ( ( #495, #117, #755 ) ) REPRESENTATION_CONTEXT ( 'NONE', 'WORKASPACE' ) );
#665 = PROPERTY_DEFINITION ('external definition','', #201 ) ;
#666 = IDENTIFICATION_ROLE ( 'external document id and location', $) ;
#667 = IDENTIFICATION_ROLE ( 'external document id and location', $) ;
#668 = APPLICATION_CONTEXT ( 'automotive_design' ) ;
#669 = APPLICATION_PROTOCOL_DEFINITION ( 'draft international standard', 'automotive_design', 1998, #734 ) ;
#670 = DIRECTION ( 'NONE',  ( -0.9999999999999990008, 1.252470349655251567E-15, 4.558870053683604437E-08 ) ) ;
#671 = APPLIED_DOCUMENT_REFERENCE ( #678,'',( #325) ) ;
#672 = PRODUCT_DEFINITION_SHAPE ( 'NONE', 'NONE',  #1129 ) ;
#673 = SHAPE_DEFINITION_REPRESENTATION ( #913, #739 ) ;
#674 = EXTERNAL_SOURCE (IDENTIFIER('') ) ;
#675 = PRODUCT ( 'countersunk flat head cross recess screw_iso_ISO 7046-1 - M3 x 8 - Z - 8N', 'countersunk flat head cross recess screw_iso_ISO 7046-1 - M3 x 8 - Z - 8N', '', ( #856 ) ) ;
#676 = PRODUCT_RELATED_PRODUCT_CATEGORY ( 'part', '', ( #311 ) ) ;
#677 = DIRECTION ( 'NONE',  ( 0.000000000000000000, -1.000000000000000000, 0.000000000000000000 ) ) ;
#678 = DOCUMENT_FILE ( 'CM4IO BOARD.STEP' , '', '', #295, '' ,$ ) ;
#679 = EXTERNAL_SOURCE (IDENTIFIER('') ) ;
#680 = ROLE_ASSOCIATION ( #638, #1034 ) ;
#681 = PROPERTY_DEFINITION_REPRESENTATION ( #735, #739 ) ;
#682 = DIRECTION ( 'NONE',  ( 0.5469441386039887165, 6.970833113500071505E-17, -0.8371691043312223801 ) ) ;
#683 = PRODUCT_DEFINITION_SHAPE ( 'NONE', 'NONE',  #209 ) ;
#684 = DOCUMENT_TYPE ( 'geometry' ) ;
#685 =( GEOMETRIC_REPRESENTATION_CONTEXT ( 3 ) GLOBAL_UNCERTAINTY_ASSIGNED_CONTEXT ( ( #244 ) ) GLOBAL_UNIT_ASSIGNED_CONTEXT ( ( #801, #633, #639 ) ) REPRESENTATION_CONTEXT ( 'NONE', 'WORKASPACE' ) );
#686 = DOCUMENT_FILE ( 'hexalobular socket cheese head_iso_ISO 14580 - #3 x 8 x 7 - 4.8-N.STEP' , '', '', #150, '' ,$ ) ;
#687 = DIRECTION ( 'NONE',  ( 0.000000000000000000, -1.000000000000000000, -4.163336342344337027E-17 ) ) ;
#688 = PRODUCT_DEFINITION ( 'General', '', #1120, #293 ) ;
#689 =( NAMED_UNIT ( * ) SI_UNIT ( $, .STERADIAN. ) SOLID_ANGLE_UNIT ( ) );
#690 = PROPERTY_DEFINITION_REPRESENTATION ( #419, #73 ) ;
#691 = SHAPE_REPRESENTATION ( 'CM4IO BOARD', ( #933 ), #866 ) ;
#692 = DOCUMENT_TYPE ( 'geometry' ) ;
#693 = PROPERTY_DEFINITION ('document property','', #60 ) ;
#694 = DIRECTION ( 'NONE',  ( 6.123233995736766036E-17, -1.000000000000000000, 0.000000000000000000 ) ) ;
#695 =( NAMED_UNIT ( * ) SI_UNIT ( $, .STERADIAN. ) SOLID_ANGLE_UNIT ( ) );
#696 = PROPERTY_DEFINITION_REPRESENTATION ( #242, #73 ) ;
#697 = SHAPE_REPRESENTATION ( 'top', ( #19 ), #534 ) ;
#698 = APPLICATION_CONTEXT ( 'automotive_design' ) ;
#699 = CARTESIAN_POINT ( 'NONE',  ( -36.14191575511786425, 0.5165911369542919296, -14.50540260372386392 ) ) ;
#700 = DOCUMENT_TYPE ( 'geometry' ) ;
#701 =( NAMED_UNIT ( * ) SI_UNIT ( $, .STERADIAN. ) SOLID_ANGLE_UNIT ( ) );
#702 = CONTEXT_DEPENDENT_SHAPE_REPRESENTATION ( #559, #1114 ) ;
#703 = PROPERTY_DEFINITION ('external definition','', #799 ) ;
#704 = PRODUCT_DEFINITION_CONTEXT ( 'detailed design', #698, 'design' ) ;
#705 = PRODUCT_DEFINITION ( 'General', '', #404, #843 ) ;
#706 = AXIS2_PLACEMENT_3D ( 'NONE', #86, #72, #911 ) ;
#707 = PRODUCT_DEFINITION_CONTEXT ( 'detailed design', #467, 'design' ) ;
#708 = PRODUCT_DEFINITION_FORMATION_WITH_SPECIFIED_SOURCE ( 'Symmetric', '', #1107, .NOT_KNOWN. ) ;
#709 = CARTESIAN_POINT ( 'NONE',  ( -8.553184772663238178, 38.95986720352865973, 95.49459739627614852 ) ) ;
#710 =( REPRESENTATION_RELATIONSHIP ('NONE','NONE', #120, #73 ) REPRESENTATION_RELATIONSHIP_WITH_TRANSFORMATION ( #561 )SHAPE_REPRESENTATION_RELATIONSHIP( ) );
#711 = PROPERTY_DEFINITION_REPRESENTATION ( #525, #73 ) ;
#712 = APPLIED_DOCUMENT_REFERENCE ( #516,'',( #379) ) ;
#713 = DIRECTION ( 'NONE',  ( 1.000000000000000000, 0.000000000000000000, 0.000000000000000000 ) ) ;
#714 = PRODUCT_RELATED_PRODUCT_CATEGORY ( 'part', '', ( #1107 ) ) ;
#715 =( LENGTH_UNIT ( ) NAMED_UNIT ( * ) SI_UNIT ( .MILLI., .METRE. ) );
#716 = PRODUCT_DEFINITION_SHAPE ( 'NONE', 'NONE',  #1153 ) ;
#717 = DOCUMENT_FILE ( 'hexalobular socket cheese head_iso_ISO 14580 - #3 x 8 x 7 - 4.8-N.STEP' , '', '', #719, '' ,$ ) ;
#718 = ROLE_ASSOCIATION ( #352, #1096 ) ;
#719 = DOCUMENT_TYPE ( 'geometry' ) ;
#720 = UNCERTAINTY_MEASURE_WITH_UNIT (LENGTH_MEASURE( 1.000000000000000082E-05 ), #452, 'distance_accuracy_value', 'NONE');
#721 = CARTESIAN_POINT ( 'NONE',  ( -31.64191575511787846, 4.516591136954292374, -10.00540260372385859 ) ) ;
#722 = ROLE_ASSOCIATION ( #64, #810 ) ;
#723 = ITEM_DEFINED_TRANSFORMATION ( 'NONE', 'NONE', #385,  #171 ) ;
#724 = EXTERNAL_SOURCE (IDENTIFIER('') ) ;
#725 =( GEOMETRIC_REPRESENTATION_CONTEXT ( 3 ) GLOBAL_UNCERTAINTY_ASSIGNED_CONTEXT ( ( #169 ) ) GLOBAL_UNIT_ASSIGNED_CONTEXT ( ( #872, #435, #689 ) ) REPRESENTATION_CONTEXT ( 'NONE', 'WORKASPACE' ) );
#726 = PROPERTY_DEFINITION ('document property','', #91 ) ;
#727 = CARTESIAN_POINT ( 'NONE',  ( -29.14191575511785715, 14.15359113695428483, 34.88190784352501339 ) ) ;
#728 = AXIS2_PLACEMENT_3D ( 'NONE', #778, #149, #972 ) ;
#729 = APPLIED_EXTERNAL_IDENTIFICATION_ASSIGNMENT ( 'Buck converter 5V 16A.STEP' , #193, #674,( #774) ) ;
#730 = APPLIED_EXTERNAL_IDENTIFICATION_ASSIGNMENT ( 'hexalobular socket cheese head_iso_ISO 14580 - #3 x 8 x 7 - 4.8-N.STEP' , #322, #3,( #909) ) ;
#731 = DOCUMENT_FILE ( 'countersunk flat head cross recess screw_iso_ISO 7046-1 - M3 x 8 - Z - 8N.STEP' , '', '', #1073, '' ,$ ) ;
#732 = DIRECTION ( 'NONE',  ( 0.000000000000000000, -1.000000000000000000, 0.000000000000000000 ) ) ;
#733 = OBJECT_ROLE ('mandatory',$ ) ;
#734 = APPLICATION_CONTEXT ( 'automotive_design' ) ;
#735 = PROPERTY_DEFINITION ('external definition','', #624 ) ;
#736 = CONTEXT_DEPENDENT_SHAPE_REPRESENTATION ( #263, #651 ) ;
#737 = PROPERTY_DEFINITION ('external definition','', #937 ) ;
#738 = PRODUCT_CONTEXT ( 'NONE', #1134, 'mechanical' ) ;
#739 = SHAPE_REPRESENTATION ( 'Heatsink RAK 1Watt 70x22', ( #58 ), #823 ) ;
#740 = ITEM_DEFINED_TRANSFORMATION ( 'NONE', 'NONE', #645,  #212 ) ;
#741 = DOCUMENT_FILE ( 'top.STEP' , '', '', #781, '' ,$ ) ;
#742 = OBJECT_ROLE ('mandatory',$ ) ;
#743 = UNCERTAINTY_MEASURE_WITH_UNIT (LENGTH_MEASURE( 1.000000000000000082E-05 ), #529, 'distance_accuracy_value', 'NONE');
#744 = PRODUCT_CONTEXT ( 'NONE', #668, 'mechanical' ) ;
#745 =( GEOMETRIC_REPRESENTATION_CONTEXT ( 3 ) GLOBAL_UNCERTAINTY_ASSIGNED_CONTEXT ( ( #893 ) ) GLOBAL_UNIT_ASSIGNED_CONTEXT ( ( #715, #362, #265 ) ) REPRESENTATION_CONTEXT ( 'NONE', 'WORKASPACE' ) );
#746 = AXIS2_PLACEMENT_3D ( 'NONE', #240, #601, #605 ) ;
#747 =( LENGTH_UNIT ( ) NAMED_UNIT ( * ) SI_UNIT ( .MILLI., .METRE. ) );
#748 = PROPERTY_DEFINITION_REPRESENTATION ( #235, #1132 ) ;
#749 = AXIS2_PLACEMENT_3D ( 'NONE', #411, #682, #1040 ) ;
#750 =( NAMED_UNIT ( * ) PLANE_ANGLE_UNIT ( ) SI_UNIT ( $, .RADIAN. ) );
#751 = APPLIED_EXTERNAL_IDENTIFICATION_ASSIGNMENT ( 'Heatsink 32x18 lunpid.STEP' , #483, #374,( #129) ) ;
#752 = APPLIED_DOCUMENT_REFERENCE ( #407,'',( #705) ) ;
#753 = IDENTIFICATION_ROLE ( 'external document id and location', $) ;
#754 = APPLICATION_PROTOCOL_DEFINITION ( 'draft international standard', 'automotive_design', 1998, #1134 ) ;
#755 =( NAMED_UNIT ( * ) SI_UNIT ( $, .STERADIAN. ) SOLID_ANGLE_UNIT ( ) );
#756 = ITEM_DEFINED_TRANSFORMATION ( 'NONE', 'NONE', #1101,  #171 ) ;
#757 = PRODUCT_DEFINITION_SHAPE ( 'NONE', 'NONE',  #1166 ) ;
#758 = PRODUCT_DEFINITION_CONTEXT ( 'detailed design', #31, 'design' ) ;
#759 = PRODUCT_CONTEXT ( 'NONE', #1092, 'mechanical' ) ;
#760 = IDENTIFICATION_ROLE ( 'external document id and location', $) ;
#761 = CARTESIAN_POINT ( 'NONE',  ( 0.000000000000000000, 0.000000000000000000, 0.000000000000000000 ) ) ;
#762 = ITEM_DEFINED_TRANSFORMATION ( 'NONE', 'NONE', #152,  #330 ) ;
#763 = APPLICATION_PROTOCOL_DEFINITION ( 'draft international standard', 'automotive_design', 1998, #147 ) ;
#764 = PROPERTY_DEFINITION ('external definition','', #804 ) ;
#765 =( LENGTH_UNIT ( ) NAMED_UNIT ( * ) SI_UNIT ( .MILLI., .METRE. ) );
#766 = CONTEXT_DEPENDENT_SHAPE_REPRESENTATION ( #845, #303 ) ;
#767 = EXTERNAL_SOURCE (IDENTIFIER('') ) ;
#768 = AXIS2_PLACEMENT_3D ( 'NONE', #272, #977, #461 ) ;
#769 = PRODUCT ( 'CM4IO BOARD', 'CM4IO BOARD', '', ( #393 ) ) ;
#770 = CONTEXT_DEPENDENT_SHAPE_REPRESENTATION ( #859, #899 ) ;
#771 = AXIS2_PLACEMENT_3D ( 'NONE', #456, #818, #439 ) ;
#772 = PRODUCT_DEFINITION_SHAPE ( 'NONE', 'NONE',  #1172 ) ;
#773 = DIRECTION ( 'NONE',  ( 0.01626150687569816178, 9.957301172318214212E-19, 0.9998677729550702331 ) ) ;
#774 = DOCUMENT_FILE ( 'Buck converter 5V 16A.STEP' , '', '', #789, '' ,$ ) ;
#775 = DIRECTION ( 'NONE',  ( -1.000000000000000000, -6.487078279578141360E-32, 3.330669073875469621E-16 ) ) ;
#776 = ROLE_ASSOCIATION ( #604, #752 ) ;
#777 = PROPERTY_DEFINITION_REPRESENTATION ( #124, #164 ) ;
#778 = CARTESIAN_POINT ( 'NONE',  ( -3.626730345922618337, 9.126641936832479374, 42.31420535799647098 ) ) ;
#779 = PRODUCT_DEFINITION_SHAPE ( 'NONE', 'NONE',  #1169 ) ;
#780 = PROPERTY_DEFINITION_REPRESENTATION ( #182, #532 ) ;
#781 = DOCUMENT_TYPE ( 'geometry' ) ;
#782 = PRODUCT_DEFINITION_CONTEXT ( 'detailed design', #320, 'design' ) ;
#783 = IDENTIFICATION_ROLE ( 'external document id and location', $) ;
#784 = PRODUCT_DEFINITION ( 'General', '', #1046, #543 ) ;
#785 = DIRECTION ( 'NONE',  ( 0.03196959100755064620, 1.957572864872345083E-18, 0.9994888419841464477 ) ) ;
#786 = PROPERTY_DEFINITION ('external definition','', #133 ) ;
#787 = APPLIED_EXTERNAL_IDENTIFICATION_ASSIGNMENT ( 'hexalobular socket cheese head_iso_ISO 14580 - #3 x 8 x 7 - 4.8-N.STEP' , #281, #1127,( #931) ) ;
#788 = PRODUCT_DEFINITION_SHAPE ( 'NONE', 'NONE',  #1164 ) ;
#789 = DOCUMENT_TYPE ( 'geometry' ) ;
#790 = APPLIED_EXTERNAL_IDENTIFICATION_ASSIGNMENT ( 'hexalobular socket cheese head_iso_ISO 14580 - #3 x 8 x 7 - 4.8-N.STEP' , #760, #992,( #717) ) ;
#791 = CARTESIAN_POINT ( 'NONE',  ( 33.65865049930570763, 41.51659113695430392, -24.82501060673700266 ) ) ;
#792 = DOCUMENT_TYPE ( 'geometry' ) ;
#793 = DIRECTION ( 'NONE',  ( 0.000000000000000000, 0.000000000000000000, 1.000000000000000000 ) ) ;
#794 = ROLE_ASSOCIATION ( #1006, #143 ) ;
#795 = PROPERTY_DEFINITION ('document property','', #305 ) ;
#796 = CARTESIAN_POINT ( 'NONE',  ( 30.78308424488212580, 41.24159113695428402, 85.24459739627614852 ) ) ;
#797 = IDENTIFICATION_ROLE ( 'external document id and location', $) ;
#798 = APPLICATION_CONTEXT ( 'automotive_design' ) ;
#799 = DOCUMENT_FILE ( 'countersunk flat head cross recess screw_iso_ISO 7046-1 - M3 x 8 - Z - 8N.STEP' , '', '', #10, '' ,$ ) ;
#800 = PROPERTY_DEFINITION_REPRESENTATION ( #1010, #578 ) ;
#801 =( LENGTH_UNIT ( ) NAMED_UNIT ( * ) SI_UNIT ( .MILLI., .METRE. ) );
#802 = DIRECTION ( 'NONE',  ( 0.000000000000000000, 0.000000000000000000, 1.000000000000000000 ) ) ;
#803 = EXTERNAL_SOURCE (IDENTIFIER('') ) ;
#804 = DOCUMENT_FILE ( 'Front part.STEP' , '', '', #1057, '' ,$ ) ;
#805 = PRODUCT_RELATED_PRODUCT_CATEGORY ( 'part', '', ( #873 ) ) ;
#806 = PROPERTY_DEFINITION ('document property','', #731 ) ;
#807 = AXIS2_PLACEMENT_3D ( 'NONE', #433, #991, #361 ) ;
#808 = APPLIED_EXTERNAL_IDENTIFICATION_ASSIGNMENT ( 'countersunk flat head cross recess screw_iso_ISO 7046-1 - M3 x 8 - Z - 8N.STEP' , #216, #420,( #937) ) ;
#809 = APPLIED_EXTERNAL_IDENTIFICATION_ASSIGNMENT ( 'CM4IO BOARD.STEP' , #27, #1017,( #678) ) ;
#810 = APPLIED_DOCUMENT_REFERENCE ( #201,'',( #705) ) ;
#811 = PROPERTY_DEFINITION_REPRESENTATION ( #764, #157 ) ;
#812 = OBJECT_ROLE ('mandatory',$ ) ;
#813 = CARTESIAN_POINT ( 'NONE',  ( -9.230360388115851578, -4.837345665331588052, 95.49459739627614852 ) ) ;
#814 = PROPERTY_DEFINITION ('external definition','', #181 ) ;
#815 = ROLE_ASSOCIATION ( #132, #1076 ) ;
#816 = APPLIED_DOCUMENT_REFERENCE ( #822,'',( #575) ) ;
#817 = UNCERTAINTY_MEASURE_WITH_UNIT (LENGTH_MEASURE( 1.000000000000000082E-05 ), #217, 'distance_accuracy_value', 'NONE');
#818 = DIRECTION ( 'NONE',  ( 0.5469441386039887165, 6.970833113500071505E-17, -0.8371691043312223801 ) ) ;
#819 =( NAMED_UNIT ( * ) PLANE_ANGLE_UNIT ( ) SI_UNIT ( $, .RADIAN. ) );
#820 = ROLE_ASSOCIATION ( #625, #371 ) ;
#821 =( REPRESENTATION_RELATIONSHIP ('NONE','NONE', #120, #532 ) REPRESENTATION_RELATIONSHIP_WITH_TRANSFORMATION ( #1071 )SHAPE_REPRESENTATION_RELATIONSHIP( ) );
#822 = DOCUMENT_FILE ( 'countersunk flat head cross recess screw_iso_ISO 7046-1 - M3 x 8 - Z - 8N.STEP' , '', '', #1032, '' ,$ ) ;
#823 =( GEOMETRIC_REPRESENTATION_CONTEXT ( 3 ) GLOBAL_UNCERTAINTY_ASSIGNED_CONTEXT ( ( #197 ) ) GLOBAL_UNIT_ASSIGNED_CONTEXT ( ( #1007, #110, #118 ) ) REPRESENTATION_CONTEXT ( 'NONE', 'WORKASPACE' ) );
#824 = PROPERTY_DEFINITION ('external definition','', #289 ) ;
#825 = DIRECTION ( 'NONE',  ( 0.5469441386039887165, 6.970833113500071505E-17, -0.8371691043312223801 ) ) ;
#826 = PRODUCT_DEFINITION_FORMATION_WITH_SPECIFIED_SOURCE ( 'Symmetric', '', #111, .NOT_KNOWN. ) ;
#827 = APPLICATION_CONTEXT ( 'automotive_design' ) ;
#828 = PROPERTY_DEFINITION_REPRESENTATION ( #955, #532 ) ;
#829 = PRODUCT_DEFINITION_SHAPE ( 'NONE', 'NONE',  #1150 ) ;
#830 = ROLE_ASSOCIATION ( #285, #214 ) ;
#831 =( REPRESENTATION_RELATIONSHIP ('NONE','NONE', #120, #73 ) REPRESENTATION_RELATIONSHIP_WITH_TRANSFORMATION ( #756 )SHAPE_REPRESENTATION_RELATIONSHIP( ) );
#832 = APPLICATION_PROTOCOL_DEFINITION ( 'draft international standard', 'automotive_design', 1998, #798 ) ;
#833 = PROPERTY_DEFINITION ('document property','', #624 ) ;
#834 = DIRECTION ( 'NONE',  ( 0.000000000000000000, 0.000000000000000000, 1.000000000000000000 ) ) ;
#835 = ITEM_DEFINED_TRANSFORMATION ( 'NONE', 'NONE', #1118,  #768 ) ;
#836 = PRODUCT_RELATED_PRODUCT_CATEGORY ( 'part', '', ( #222 ) ) ;
#837 = EXTERNAL_SOURCE (IDENTIFIER('') ) ;
#838 = APPLICATION_PROTOCOL_DEFINITION ( 'draft international standard', 'automotive_design', 1998, #1111 ) ;
#839 = APPLICATION_PROTOCOL_DEFINITION ( 'draft international standard', 'automotive_design', 1998, #406 ) ;
#840 = ROLE_ASSOCIATION ( #970, #473 ) ;
#841 = PRODUCT_DEFINITION_SHAPE ( 'NONE', 'NONE',  #1042 ) ;
#842 = EXTERNAL_SOURCE (IDENTIFIER('') ) ;
#843 = PRODUCT_DEFINITION_CONTEXT ( 'detailed design', #310, 'design' ) ;
#844 = APPLICATION_PROTOCOL_DEFINITION ( 'draft international standard', 'automotive_design', 1998, #97 ) ;
#845 =( REPRESENTATION_RELATIONSHIP ('NONE','NONE', #120, #1132 ) REPRESENTATION_RELATIONSHIP_WITH_TRANSFORMATION ( #492 )SHAPE_REPRESENTATION_RELATIONSHIP( ) );
#846 = APPLIED_EXTERNAL_IDENTIFICATION_ASSIGNMENT ( 'countersunk flat head cross recess screw_iso_ISO 7046-1 - M3 x 8 - Z - 8N.STEP' , #392, #4,( #1087) ) ;
#847 = PROPERTY_DEFINITION_REPRESENTATION ( #363, #532 ) ;
#848 = SHAPE_DEFINITION_REPRESENTATION ( #864, #567 ) ;
#849 = DOCUMENT_TYPE ( 'geometry' ) ;
#850 =( NAMED_UNIT ( * ) SI_UNIT ( $, .STERADIAN. ) SOLID_ANGLE_UNIT ( ) );
#851 = PROPERTY_DEFINITION_REPRESENTATION ( #586, #1132 ) ;
#852 = DOCUMENT_TYPE ( 'geometry' ) ;
#853 = PRODUCT ( 'CM4 heatsink', 'CM4 heatsink', '', ( #923 ) ) ;
#854 = ITEM_DEFINED_TRANSFORMATION ( 'NONE', 'NONE', #460,  #171 ) ;
#855 = PRODUCT_DEFINITION_SHAPE ( 'NONE', 'NONE',  #784 ) ;
#856 = PRODUCT_CONTEXT ( 'NONE', #369, 'mechanical' ) ;
#857 = DOCUMENT_FILE ( '3D_RAK19007 base module + booster.STEP' , '', '', #904, '' ,$ ) ;
#858 = PROPERTY_DEFINITION_REPRESENTATION ( #347, #73 ) ;
#859 =( REPRESENTATION_RELATIONSHIP ('NONE','NONE', #120, #73 ) REPRESENTATION_RELATIONSHIP_WITH_TRANSFORMATION ( #308 )SHAPE_REPRESENTATION_RELATIONSHIP( ) );
#860 = EXTERNAL_SOURCE (IDENTIFIER('') ) ;
#861 = PROPERTY_DEFINITION_REPRESENTATION ( #372, #578 ) ;
#862 = PRODUCT ( 'Buck converter 5V 16A', 'Buck converter 5V 16A', '', ( #738 ) ) ;
#863 = CARTESIAN_POINT ( 'NONE',  ( 6.269353262427612705, 38.95986720352865973, 95.49459739627614852 ) ) ;
#864 = PRODUCT_DEFINITION_SHAPE ( 'NONE', 'NONE',  #408 ) ;
#865 = PROPERTY_DEFINITION_REPRESENTATION ( #76, #532 ) ;
#866 =( GEOMETRIC_REPRESENTATION_CONTEXT ( 3 ) GLOBAL_UNCERTAINTY_ASSIGNED_CONTEXT ( ( #630 ) ) GLOBAL_UNIT_ASSIGNED_CONTEXT ( ( #765, #940, #1011 ) ) REPRESENTATION_CONTEXT ( 'NONE', 'WORKASPACE' ) );
#867 = SHAPE_REPRESENTATION ( 'Heatsink 32x18 lunpid', ( #627 ), #134 ) ;
#868 = APPLIED_EXTERNAL_IDENTIFICATION_ASSIGNMENT ( 'CM4 heatsink.STEP' , #1036, #579,( #289) ) ;
#869 = EXTERNAL_SOURCE (IDENTIFIER('') ) ;
#870 = APPLIED_DOCUMENT_REFERENCE ( #596,'',( #1129) ) ;
#871 = CARTESIAN_POINT ( 'NONE',  ( -33.06691575511785430, 41.24159113695425560, 85.24459739627616273 ) ) ;
#872 =( LENGTH_UNIT ( ) NAMED_UNIT ( * ) SI_UNIT ( .MILLI., .METRE. ) );
#873 = PRODUCT ( 'Main Heatsink 70x70x3', 'Main Heatsink 70x70x3', '', ( #396 ) ) ;
#874 = DIRECTION ( 'NONE',  ( -0.9999703923484777324, -0.007695091060642329089, 6.028815014792800039E-17 ) ) ;
#875 = OBJECT_ROLE ('mandatory',$ ) ;
#876 = ROLE_ASSOCIATION ( #241, #957 ) ;
#877 = UNCERTAINTY_MEASURE_WITH_UNIT (LENGTH_MEASURE( 1.000000000000000082E-05 ), #288, 'distance_accuracy_value', 'NONE');
#878 = DIRECTION ( 'NONE',  ( 1.000000000000000000, 0.000000000000000000, 0.000000000000000000 ) ) ;
#879 = PROPERTY_DEFINITION ('external definition','', #60 ) ;
#880 = CONTEXT_DEPENDENT_SHAPE_REPRESENTATION ( #929, #2 ) ;
#881 =( GEOMETRIC_REPRESENTATION_CONTEXT ( 3 ) GLOBAL_UNCERTAINTY_ASSIGNED_CONTEXT ( ( #332 ) ) GLOBAL_UNIT_ASSIGNED_CONTEXT ( ( #153, #1054, #606 ) ) REPRESENTATION_CONTEXT ( 'NONE', 'WORKASPACE' ) );
#882 = DOCUMENT_TYPE ( 'geometry' ) ;
#883 = AXIS2_PLACEMENT_3D ( 'NONE', #234, #52, #417 ) ;
#884 = APPLIED_EXTERNAL_IDENTIFICATION_ASSIGNMENT ( 'countersunk flat head cross recess screw_iso_ISO 7046-1 - M3 x 8 - Z - 8N.STEP' , #891, #304,( #71) ) ;
#885 = APPLIED_EXTERNAL_IDENTIFICATION_ASSIGNMENT ( 'hexalobular socket cheese head_iso_ISO 14580 - #3 x 8 x 7 - 4.8-N.STEP' , #783, #571,( #201) ) ;
#886 = DIRECTION ( 'NONE',  ( 0.000000000000000000, 0.000000000000000000, -1.000000000000000000 ) ) ;
#887 =( NAMED_UNIT ( * ) PLANE_ANGLE_UNIT ( ) SI_UNIT ( $, .RADIAN. ) );
#888 = ITEM_DEFINED_TRANSFORMATION ( 'NONE', 'NONE', #1041,  #171 ) ;
#889 = DOCUMENT_TYPE ( 'geometry' ) ;
#890 = APPLIED_DOCUMENT_REFERENCE ( #129,'',( #927) ) ;
#891 = IDENTIFICATION_ROLE ( 'external document id and location', $) ;
#892 = PRODUCT_DEFINITION_SHAPE ( 'NONE', 'NONE',  #1156 ) ;
#893 = UNCERTAINTY_MEASURE_WITH_UNIT (LENGTH_MEASURE( 1.000000000000000082E-05 ), #715, 'distance_accuracy_value', 'NONE');
#894 = DIRECTION ( 'NONE',  ( 0.03973533826292729998, 2.433087740836563211E-18, 0.9992102395858095676 ) ) ;
#895 = CONTEXT_DEPENDENT_SHAPE_REPRESENTATION ( #947, #892 ) ;
#896 =( REPRESENTATION_RELATIONSHIP ('NONE','NONE', #120, #73 ) REPRESENTATION_RELATIONSHIP_WITH_TRANSFORMATION ( #1000 )SHAPE_REPRESENTATION_RELATIONSHIP( ) );
#897 = DIRECTION ( 'NONE',  ( 6.123233995736764803E-17, -1.224646799147353700E-16, 1.000000000000000000 ) ) ;
#898 = PROPERTY_DEFINITION_REPRESENTATION ( #572, #532 ) ;
#899 = PRODUCT_DEFINITION_SHAPE ( 'NONE', 'NONE',  #1151 ) ;
#900 =( GEOMETRIC_REPRESENTATION_CONTEXT ( 3 ) GLOBAL_UNCERTAINTY_ASSIGNED_CONTEXT ( ( #268 ) ) GLOBAL_UNIT_ASSIGNED_CONTEXT ( ( #747, #654, #302 ) ) REPRESENTATION_CONTEXT ( 'NONE', 'WORKASPACE' ) );
#901 = PRODUCT_DEFINITION_FORMATION_WITH_SPECIFIED_SOURCE ( 'Symmetric', '', #490, .NOT_KNOWN. ) ;
#902 = PRODUCT_DEFINITION_FORMATION_WITH_SPECIFIED_SOURCE ( 'Symmetric', '', #1117, .NOT_KNOWN. ) ;
#903 = DIRECTION ( 'NONE',  ( 1.000000000000000000, 0.000000000000000000, 0.000000000000000000 ) ) ;
#904 = DOCUMENT_TYPE ( 'geometry' ) ;
#905 = ROLE_ASSOCIATION ( #1110, #542 ) ;
#906 = CARTESIAN_POINT ( 'NONE',  ( -33.65305464817003411, -4.960818707783004378, 95.49459739627614852 ) ) ;
#907 = DOCUMENT_TYPE ( 'geometry' ) ;
#908 = PRODUCT_DEFINITION_SHAPE ( 'NONE', 'NONE',  #1143 ) ;
#909 = DOCUMENT_FILE ( 'hexalobular socket cheese head_iso_ISO 14580 - #3 x 8 x 7 - 4.8-N.STEP' , '', '', #882, '' ,$ ) ;
#910 = OBJECT_ROLE ('mandatory',$ ) ;
#911 = DIRECTION ( 'NONE',  ( 1.000000000000000000, 0.000000000000000000, 0.000000000000000000 ) ) ;
#912 =( NAMED_UNIT ( * ) SI_UNIT ( $, .STERADIAN. ) SOLID_ANGLE_UNIT ( ) );
#913 = PRODUCT_DEFINITION_SHAPE ( 'NONE', 'NONE',  #292 ) ;
#914 = CONTEXT_DEPENDENT_SHAPE_REPRESENTATION ( #38, #993 ) ;
#915 = APPLICATION_CONTEXT ( 'automotive_design' ) ;
#916 = PRODUCT_DEFINITION_SHAPE ( 'NONE', 'NONE',  #1154 ) ;
#917 = APPLICATION_PROTOCOL_DEFINITION ( 'draft international standard', 'automotive_design', 1998, #550 ) ;
#918 = APPLIED_EXTERNAL_IDENTIFICATION_ASSIGNMENT ( 'top.STEP' , #797, #466,( #741) ) ;
#919 = ITEM_DEFINED_TRANSFORMATION ( 'NONE', 'NONE', #610,  #768 ) ;
#920 = ITEM_DEFINED_TRANSFORMATION ( 'NONE', 'NONE', #746,  #171 ) ;
#921 = IDENTIFICATION_ROLE ( 'external document id and location', $) ;
#922 = UNCERTAINTY_MEASURE_WITH_UNIT (LENGTH_MEASURE( 1.000000000000000082E-05 ), #495, 'distance_accuracy_value', 'NONE');
#923 = PRODUCT_CONTEXT ( 'NONE', #646, 'mechanical' ) ;
#924 = PROPERTY_DEFINITION ('external definition','', #516 ) ;
#925 = OBJECT_ROLE ('mandatory',$ ) ;
#926 = PROPERTY_DEFINITION_REPRESENTATION ( #547, #73 ) ;
#927 = PRODUCT_DEFINITION ( 'General', '', #708, #758 ) ;
#928 = SHAPE_DEFINITION_REPRESENTATION ( #501, #120 ) ;
#929 =( REPRESENTATION_RELATIONSHIP ('NONE','NONE', #120, #532 ) REPRESENTATION_RELATIONSHIP_WITH_TRANSFORMATION ( #349 )SHAPE_REPRESENTATION_RELATIONSHIP( ) );
#930 = DIRECTION ( 'NONE',  ( 0.000000000000000000, 0.000000000000000000, 1.000000000000000000 ) ) ;
#931 = DOCUMENT_FILE ( 'hexalobular socket cheese head_iso_ISO 14580 - #3 x 8 x 7 - 4.8-N.STEP' , '', '', #15, '' ,$ ) ;
#932 = APPLICATION_PROTOCOL_DEFINITION ( 'draft international standard', 'automotive_design', 1998, #646 ) ;
#933 = AXIS2_PLACEMENT_3D ( 'NONE', #296, #29, #661 ) ;
#934 = PRODUCT_DEFINITION_FORMATION_WITH_SPECIFIED_SOURCE ( 'Symmetric', '', #853, .NOT_KNOWN. ) ;
#935 = DIRECTION ( 'NONE',  ( 1.000000000000000000, 0.000000000000000000, 0.000000000000000000 ) ) ;
#936 = IDENTIFICATION_ROLE ( 'external document id and location', $) ;
#937 = DOCUMENT_FILE ( 'countersunk flat head cross recess screw_iso_ISO 7046-1 - M3 x 8 - Z - 8N.STEP' , '', '', #792, '' ,$ ) ;
#938 = DOCUMENT_TYPE ( 'geometry' ) ;
#939 = PRODUCT_CONTEXT ( 'NONE', #185, 'mechanical' ) ;
#940 =( NAMED_UNIT ( * ) PLANE_ANGLE_UNIT ( ) SI_UNIT ( $, .RADIAN. ) );
#941 = PROPERTY_DEFINITION_REPRESENTATION ( #1027, #1012 ) ;
#942 = OBJECT_ROLE ('mandatory',$ ) ;
#943 = PRODUCT ( 'hexalobular socket cheese head_iso_ISO 14580 - #3 x 8 x 7 - 4.8-N', 'hexalobular socket cheese head_iso_ISO 14580 - #3 x 8 x 7 - 4.8-N', '', ( #101 ) ) ;
#944 = PROPERTY_DEFINITION ('document property','', #201 ) ;
#945 = PRODUCT_DEFINITION_CONTEXT ( 'detailed design', #215, 'design' ) ;
#946 = PROPERTY_DEFINITION_REPRESENTATION ( #1095, #157 ) ;
#947 =( REPRESENTATION_RELATIONSHIP ('NONE','NONE', #120, #73 ) REPRESENTATION_RELATIONSHIP_WITH_TRANSFORMATION ( #854 )SHAPE_REPRESENTATION_RELATIONSHIP( ) );
#948 = CONTEXT_DEPENDENT_SHAPE_REPRESENTATION ( #368, #829 ) ;
#949 = ITEM_DEFINED_TRANSFORMATION ( 'NONE', 'NONE', #1080,  #58 ) ;
#950 = DIRECTION ( 'NONE',  ( 1.000000000000000000, 0.000000000000000000, 0.000000000000000000 ) ) ;
#951 = IDENTIFICATION_ROLE ( 'external document id and location', $) ;
#952 =( LENGTH_UNIT ( ) NAMED_UNIT ( * ) SI_UNIT ( .MILLI., .METRE. ) );
#953 = APPLIED_DOCUMENT_REFERENCE ( #1030,'',( #575) ) ;
#954 = AXIS2_PLACEMENT_3D ( 'NONE', #42, #599, #517 ) ;
#955 = PROPERTY_DEFINITION ('external definition','', #982 ) ;
#956 = PRODUCT_DEFINITION_FORMATION_WITH_SPECIFIED_SOURCE ( 'Symmetric', '', #1022, .NOT_KNOWN. ) ;
#957 = APPLIED_DOCUMENT_REFERENCE ( #799,'',( #575) ) ;
#958 = CARTESIAN_POINT ( 'NONE',  ( 30.58648882541844571, 10.04425297132330286, -17.63040260372385504 ) ) ;
#959 =( REPRESENTATION_RELATIONSHIP ('NONE','NONE', #120, #691 ) REPRESENTATION_RELATIONSHIP_WITH_TRANSFORMATION ( #318 )SHAPE_REPRESENTATION_RELATIONSHIP( ) );
#960 = PRODUCT_DEFINITION_SHAPE ( 'NONE', 'NONE',  #1148 ) ;
#961 = CARTESIAN_POINT ( 'NONE',  ( 30.78308424488212225, 41.24159113695424139, -9.255402603723879906 ) ) ;
#962 = PROPERTY_DEFINITION ('external definition','', #364 ) ;
#963 = DOCUMENT_TYPE ( 'geometry' ) ;
#964 = DIRECTION ( 'NONE',  ( 6.123233995736766036E-17, -1.000000000000000000, 0.000000000000000000 ) ) ;
#965 = PROPERTY_DEFINITION ('document property','', #516 ) ;
#966 = ITEM_DEFINED_TRANSFORMATION ( 'NONE', 'NONE', #20,  #171 ) ;
#967 = AXIS2_PLACEMENT_3D ( 'NONE', #382, #1125, #135 ) ;
#968 = APPLIED_DOCUMENT_REFERENCE ( #804,'',( #335) ) ;
#969 = PRODUCT_DEFINITION_FORMATION_WITH_SPECIFIED_SOURCE ( 'Symmetric', '', #508, .NOT_KNOWN. ) ;
#970 = OBJECT_ROLE ('mandatory',$ ) ;
#971 = APPLICATION_CONTEXT ( 'automotive_design' ) ;
#972 = DIRECTION ( 'NONE',  ( 1.224646799147353207E-16, -5.473822126268816683E-48, -1.000000000000000000 ) ) ;
#973 = PROPERTY_DEFINITION_REPRESENTATION ( #693, #532 ) ;
#974 = PROPERTY_DEFINITION_REPRESENTATION ( #583, #291 ) ;
#975 = PROPERTY_DEFINITION ('document property','', #1087 ) ;
#976 =( REPRESENTATION_RELATIONSHIP ('NONE','NONE', #120, #205 ) REPRESENTATION_RELATIONSHIP_WITH_TRANSFORMATION ( #635 )SHAPE_REPRESENTATION_RELATIONSHIP( ) );
#977 = DIRECTION ( 'NONE',  ( 0.000000000000000000, 0.000000000000000000, 1.000000000000000000 ) ) ;
#978 = CONTEXT_DEPENDENT_SHAPE_REPRESENTATION ( #206, #250 ) ;
#979 = PROPERTY_DEFINITION_REPRESENTATION ( #924, #642 ) ;
#980 = DIRECTION ( 'NONE',  ( 0.000000000000000000, 0.000000000000000000, 1.000000000000000000 ) ) ;
#981 =( LENGTH_UNIT ( ) NAMED_UNIT ( * ) SI_UNIT ( .MILLI., .METRE. ) );
#982 = DOCUMENT_FILE ( 'hexalobular socket cheese head_iso_ISO 14580 - #3 x 8 x 7 - 4.8-N.STEP' , '', '', #963, '' ,$ ) ;
#983 = PRODUCT_DEFINITION ( 'General', '', #902, #707 ) ;
#984 = IDENTIFICATION_ROLE ( 'external document id and location', $) ;
#985 = PROPERTY_DEFINITION ('external definition','', #541 ) ;
#986 = PRODUCT_DEFINITION_FORMATION_WITH_SPECIFIED_SOURCE ( 'Symmetric', '', #769, .NOT_KNOWN. ) ;
#987 = CARTESIAN_POINT ( 'NONE',  ( -33.06691575511785430, 29.74159113695422363, 66.25195670915685753 ) ) ;
#988 = UNCERTAINTY_MEASURE_WITH_UNIT (LENGTH_MEASURE( 1.000000000000000082E-05 ), #1121, 'distance_accuracy_value', 'NONE');
#989 = UNCERTAINTY_MEASURE_WITH_UNIT (LENGTH_MEASURE( 1.000000000000000082E-05 ), #981, 'distance_accuracy_value', 'NONE');
#990 = DIRECTION ( 'NONE',  ( 1.000000000000000000, 0.000000000000000000, 0.000000000000000000 ) ) ;
#991 = DIRECTION ( 'NONE',  ( -1.252470349655249200E-15, -1.000000000000000000, 5.843344770705550594E-23 ) ) ;
#992 = EXTERNAL_SOURCE (IDENTIFIER('') ) ;
#993 = PRODUCT_DEFINITION_SHAPE ( 'NONE', 'NONE',  #1145 ) ;
#994 = CONTEXT_DEPENDENT_SHAPE_REPRESENTATION ( #125, #471 ) ;
#995 = CONTEXT_DEPENDENT_SHAPE_REPRESENTATION ( #1097, #908 ) ;
#996 = IDENTIFICATION_ROLE ( 'external document id and location', $) ;
#997 = CARTESIAN_POINT ( 'NONE',  ( 6.946528877880206565, -4.837345665331588052, 95.49459739627614852 ) ) ;
#998 = DOCUMENT_TYPE ( 'geometry' ) ;
#999 = DOCUMENT_FILE ( 'hexalobular socket cheese head_iso_ISO 14580 - #3 x 8 x 7 - 4.8-N.STEP' , '', '', #145, '' ,$ ) ;
#1000 = ITEM_DEFINED_TRANSFORMATION ( 'NONE', 'NONE', #331,  #171 ) ;
#1001 = SHAPE_DEFINITION_REPRESENTATION ( #683, #291 ) ;
#1002 = AXIS2_PLACEMENT_3D ( 'NONE', #316, #484, #269 ) ;
#1003 = PROPERTY_DEFINITION_REPRESENTATION ( #879, #532 ) ;
#1004 = CONTEXT_DEPENDENT_SHAPE_REPRESENTATION ( #168, #415 ) ;
#1005 = PRODUCT_DEFINITION ( 'General', '', #175, #782 ) ;
#1006 = OBJECT_ROLE ('mandatory',$ ) ;
#1007 =( LENGTH_UNIT ( ) NAMED_UNIT ( * ) SI_UNIT ( .MILLI., .METRE. ) );
#1008 = PRODUCT_DEFINITION_CONTEXT ( 'detailed design', #427, 'design' ) ;
#1009 = PRODUCT_CONTEXT ( 'NONE', #1111, 'mechanical' ) ;
#1010 = PROPERTY_DEFINITION ('document property','', #596 ) ;
#1011 =( NAMED_UNIT ( * ) SI_UNIT ( $, .STERADIAN. ) SOLID_ANGLE_UNIT ( ) );
#1012 = SHAPE_REPRESENTATION ( 'CM4 Mockup.step', ( #212 ), #900 ) ;
#1013 = DIRECTION ( 'NONE',  ( 1.000000000000000000, 0.000000000000000000, 0.000000000000000000 ) ) ;
#1014 = CONTEXT_DEPENDENT_SHAPE_REPRESENTATION ( #397, #1102 ) ;
#1015 = DOCUMENT_TYPE ( 'geometry' ) ;
#1016 = PROPERTY_DEFINITION ('external definition','', #577 ) ;
#1017 = EXTERNAL_SOURCE (IDENTIFIER('') ) ;
#1018 = APPLICATION_PROTOCOL_DEFINITION ( 'draft international standard', 'automotive_design', 1998, #369 ) ;
#1019 = ROLE_ASSOCIATION ( #742, #323 ) ;
#1020 =( NAMED_UNIT ( * ) SI_UNIT ( $, .STERADIAN. ) SOLID_ANGLE_UNIT ( ) );
#1021 = ROLE_ASSOCIATION ( #457, #1037 ) ;
#1022 = PRODUCT ( 'lunpid_longwave_v0.1', 'lunpid_longwave_v0.1', '', ( #210 ) ) ;
#1023 = PRODUCT_CONTEXT ( 'NONE', #286, 'mechanical' ) ;
#1024 = EXTERNAL_SOURCE (IDENTIFIER('') ) ;
#1025 = AXIS2_PLACEMENT_3D ( 'NONE', #663, #793, #237 ) ;
#1026 = AXIS2_PLACEMENT_3D ( 'NONE', #987, #1052, #66 ) ;
#1027 = PROPERTY_DEFINITION ('document property','', #577 ) ;
#1028 = APPLIED_EXTERNAL_IDENTIFICATION_ASSIGNMENT ( 'Main base.STEP' , #357, #869,( #1062) ) ;
#1029 = DIRECTION ( 'NONE',  ( 0.000000000000000000, 0.000000000000000000, 1.000000000000000000 ) ) ;
#1030 = DOCUMENT_FILE ( 'countersunk flat head cross recess screw_iso_ISO 7046-1 - M3 x 8 - Z - 8N.STEP' , '', '', #246, '' ,$ ) ;
#1031 = ROLE_ASSOCIATION ( #47, #261 ) ;
#1032 = DOCUMENT_TYPE ( 'geometry' ) ;
#1033 = APPLICATION_CONTEXT ( 'automotive_design' ) ;
#1034 = APPLIED_DOCUMENT_REFERENCE ( #401,'',( #575) ) ;
#1035 = PRODUCT_DEFINITION_SHAPE ( 'NONE', 'NONE',  #325 ) ;
#1036 = IDENTIFICATION_ROLE ( 'external document id and location', $) ;
#1037 = APPLIED_DOCUMENT_REFERENCE ( #133,'',( #575) ) ;
#1038 = OBJECT_ROLE ('mandatory',$ ) ;
#1039 = ITEM_DEFINED_TRANSFORMATION ( 'NONE', 'NONE', #1061,  #421 ) ;
#1040 = DIRECTION ( 'NONE',  ( 0.8371691043312223801, -4.554224818964409284E-17, 0.5469441386039887165 ) ) ;
#1041 = AXIS2_PLACEMENT_3D ( 'NONE', #82, #894, #447 ) ;
#1042 = PRODUCT_DEFINITION ( 'General', '', #934, #1105 ) ;
#1043 = APPLIED_DOCUMENT_REFERENCE ( #541,'',( #575) ) ;
#1044 = APPLIED_EXTERNAL_IDENTIFICATION_ASSIGNMENT ( 'Twist lock radio part V3.STEP' , #301, #533,( #596) ) ;
#1045 = PROPERTY_DEFINITION ('external definition','', #999 ) ;
#1046 = PRODUCT_DEFINITION_FORMATION_WITH_SPECIFIED_SOURCE ( 'Symmetric', '', #222, .NOT_KNOWN. ) ;
#1047 =( REPRESENTATION_RELATIONSHIP ('NONE','NONE', #120, #532 ) REPRESENTATION_RELATIONSHIP_WITH_TRANSFORMATION ( #835 )SHAPE_REPRESENTATION_RELATIONSHIP( ) );
#1048 = DIRECTION ( 'NONE',  ( 1.000000000000000000, 0.000000000000000000, 0.000000000000000000 ) ) ;
#1049 = APPLIED_DOCUMENT_REFERENCE ( #686,'',( #705) ) ;
#1050 = PROPERTY_DEFINITION ('document property','', #289 ) ;
#1051 = OBJECT_ROLE ('mandatory',$ ) ;
#1052 = DIRECTION ( 'NONE',  ( -0.01224117300733312819, -7.495556670619747181E-19, 0.9999250740347522814 ) ) ;
#1053 = IDENTIFICATION_ROLE ( 'external document id and location', $) ;
#1054 =( NAMED_UNIT ( * ) PLANE_ANGLE_UNIT ( ) SI_UNIT ( $, .RADIAN. ) );
#1055 = CONTEXT_DEPENDENT_SHAPE_REPRESENTATION ( #74, #355 ) ;
#1056 = CARTESIAN_POINT ( 'NONE',  ( -33.06691575511786141, 29.74159113695424850, 10.25195670915683976 ) ) ;
#1057 = DOCUMENT_TYPE ( 'geometry' ) ;
#1058 = PRODUCT_DEFINITION_SHAPE ( 'NONE', 'NONE',  #1162 ) ;
#1059 = CONTEXT_DEPENDENT_SHAPE_REPRESENTATION ( #582, #366 ) ;
#1060 = EXTERNAL_SOURCE (IDENTIFIER('') ) ;
#1061 = AXIS2_PLACEMENT_3D ( 'NONE', #613, #140, #338 ) ;
#1062 = DOCUMENT_FILE ( 'Main base.STEP' , '', '', #455, '' ,$ ) ;
#1063 = APPLIED_EXTERNAL_IDENTIFICATION_ASSIGNMENT ( 'countersunk flat head cross recess screw_iso_ISO 7046-1 - M3 x 8 - Z - 8N.STEP' , #587, #527,( #731) ) ;
#1064 = APPLIED_EXTERNAL_IDENTIFICATION_ASSIGNMENT ( 'countersunk flat head cross recess screw_iso_ISO 7046-1 - M3 x 8 - Z - 8N.STEP' , #113, #724,( #541) ) ;
#1065 = PROPERTY_DEFINITION_REPRESENTATION ( #608, #73 ) ;
#1066 = ROLE_ASSOCIATION ( #518, #712 ) ;
#1067 = DOCUMENT_TYPE ( 'geometry' ) ;
#1068 = PROPERTY_DEFINITION ('external definition','', #1087 ) ;
#1069 = DIRECTION ( 'NONE',  ( 6.123233995736766036E-17, -1.224646799147353454E-16, 1.000000000000000000 ) ) ;
#1070 =( NAMED_UNIT ( * ) PLANE_ANGLE_UNIT ( ) SI_UNIT ( $, .RADIAN. ) );
#1071 = ITEM_DEFINED_TRANSFORMATION ( 'NONE', 'NONE', #537,  #768 ) ;
#1072 = APPLIED_DOCUMENT_REFERENCE ( #741,'',( #470) ) ;
#1073 = DOCUMENT_TYPE ( 'geometry' ) ;
#1074 = DIRECTION ( 'NONE',  ( 1.000000000000000000, 0.000000000000000000, 0.000000000000000000 ) ) ;
#1075 = DOCUMENT_TYPE ( 'geometry' ) ;
#1076 = APPLIED_DOCUMENT_REFERENCE ( #236,'',( #705) ) ;
#1077 = PROPERTY_DEFINITION_REPRESENTATION ( #1050, #205 ) ;
#1078 =( GEOMETRIC_REPRESENTATION_CONTEXT ( 3 ) GLOBAL_UNCERTAINTY_ASSIGNED_CONTEXT ( ( #720 ) ) GLOBAL_UNIT_ASSIGNED_CONTEXT ( ( #452, #278, #259 ) ) REPRESENTATION_CONTEXT ( 'NONE', 'WORKASPACE' ) );
#1079 = PROPERTY_DEFINITION ('document property','', #686 ) ;
#1080 = AXIS2_PLACEMENT_3D ( 'NONE', #317, #670, #478 ) ;
#1081 = APPLIED_EXTERNAL_IDENTIFICATION_ASSIGNMENT ( 'countersunk flat head cross recess screw_iso_ISO 7046-1 - M3 x 8 - Z - 8N.STEP' , #359, #275,( #159) ) ;
#1082 = DIRECTION ( 'NONE',  ( -5.898059818321144121E-16, 6.314393452555577824E-16, 1.000000000000000222 ) ) ;
#1083 = DIRECTION ( 'NONE',  ( 0.000000000000000000, 0.000000000000000000, 1.000000000000000000 ) ) ;
#1084 = DOCUMENT_TYPE ( 'geometry' ) ;
#1085 = DIRECTION ( 'NONE',  ( 0.000000000000000000, 0.000000000000000000, 1.000000000000000000 ) ) ;
#1086 = APPLIED_DOCUMENT_REFERENCE ( #909,'',( #705) ) ;
#1087 = DOCUMENT_FILE ( 'countersunk flat head cross recess screw_iso_ISO 7046-1 - M3 x 8 - Z - 8N.STEP' , '', '', #692, '' ,$ ) ;
#1088 = PRODUCT_DEFINITION_SHAPE ( 'NONE', 'NONE',  #258 ) ;
#1089 = PRODUCT_DEFINITION_SHAPE ( 'NONE', 'NONE',  #1147 ) ;
#1090 = CONTEXT_DEPENDENT_SHAPE_REPRESENTATION ( #451, #757 ) ;
#1091 =( REPRESENTATION_RELATIONSHIP ('NONE','NONE', #120, #73 ) REPRESENTATION_RELATIONSHIP_WITH_TRANSFORMATION ( #723 )SHAPE_REPRESENTATION_RELATIONSHIP( ) );
#1092 = APPLICATION_CONTEXT ( 'automotive_design' ) ;
#1093 = SHAPE_DEFINITION_REPRESENTATION ( #591, #642 ) ;
#1094 = DIRECTION ( 'NONE',  ( 1.000000000000000000, 0.000000000000000000, 0.000000000000000000 ) ) ;
#1095 = PROPERTY_DEFINITION ('document property','', #804 ) ;
#1096 = APPLIED_DOCUMENT_REFERENCE ( #289,'',( #1042) ) ;
#1097 =( REPRESENTATION_RELATIONSHIP ('NONE','NONE', #120, #412 ) REPRESENTATION_RELATIONSHIP_WITH_TRANSFORMATION ( #189 )SHAPE_REPRESENTATION_RELATIONSHIP( ) );
#1098 = IDENTIFICATION_ROLE ( 'external document id and location', $) ;
#1099 = PROPERTY_DEFINITION ('document property','', #236 ) ;
#1100 = APPLICATION_PROTOCOL_DEFINITION ( 'draft international standard', 'automotive_design', 1998, #122 ) ;
#1101 = AXIS2_PLACEMENT_3D ( 'NONE', #504, #251, #156 ) ;
#1102 = PRODUCT_DEFINITION_SHAPE ( 'NONE', 'NONE',  #1155 ) ;
#1103 = APPLIED_EXTERNAL_IDENTIFICATION_ASSIGNMENT ( '3D_RAK19007 base module + booster.STEP' , #312, #632,( #857) ) ;
#1104 = ITEM_DEFINED_TRANSFORMATION ( 'NONE', 'NONE', #883,  #171 ) ;
#1105 = PRODUCT_DEFINITION_CONTEXT ( 'detailed design', #827, 'design' ) ;
#1106 = SHAPE_DEFINITION_REPRESENTATION ( #855, #1132 ) ;
#1107 = PRODUCT ( 'Heatsink 32x18 lunpid', 'Heatsink 32x18 lunpid', '', ( #1009 ) ) ;
#1108 =( NAMED_UNIT ( * ) PLANE_ANGLE_UNIT ( ) SI_UNIT ( $, .RADIAN. ) );
#1109 = SHAPE_DEFINITION_REPRESENTATION ( #381, #164 ) ;
#1110 = OBJECT_ROLE ('mandatory',$ ) ;
#1111 = APPLICATION_CONTEXT ( 'automotive_design' ) ;
#1112 = CARTESIAN_POINT ( 'NONE',  ( 0.000000000000000000, 0.000000000000000000, 0.000000000000000000 ) ) ;
#1113 = OBJECT_ROLE ('mandatory',$ ) ;
#1114 = PRODUCT_DEFINITION_SHAPE ( 'NONE', 'NONE',  #1140 ) ;
#1115 = PRODUCT_DEFINITION_CONTEXT ( 'detailed design', #656, 'design' ) ;
#1116 = SHAPE_DEFINITION_REPRESENTATION ( #660, #157 ) ;
#1117 = PRODUCT ( 'V5 ass', 'V5 ass', '', ( #109 ) ) ;
#1118 = AXIS2_PLACEMENT_3D ( 'NONE', #906, #356, #170 ) ;
#1119 = PROPERTY_DEFINITION ('document property','', #717 ) ;
#1120 = PRODUCT_DEFINITION_FORMATION_WITH_SPECIFIED_SOURCE ( 'Symmetric', '', #585, .NOT_KNOWN. ) ;
#1121 =( LENGTH_UNIT ( ) NAMED_UNIT ( * ) SI_UNIT ( .MILLI., .METRE. ) );
#1122 = PROPERTY_DEFINITION_REPRESENTATION ( #786, #73 ) ;
#1123 = EXTERNAL_SOURCE (IDENTIFIER('') ) ;
#1124 = APPLIED_DOCUMENT_REFERENCE ( #774,'',( #1005) ) ;
#1125 = DIRECTION ( 'NONE',  ( 0.000000000000000000, 8.210733189403225025E-48, 1.000000000000000222 ) ) ;
#1126 = ROLE_ASSOCIATION ( #445, #319 ) ;
#1127 = EXTERNAL_SOURCE (IDENTIFIER('') ) ;
#1128 = PROPERTY_DEFINITION ('external definition','', #236 ) ;
#1129 = PRODUCT_DEFINITION ( 'General', '', #826, #609 ) ;
#1130 = DIRECTION ( 'NONE',  ( 0.07871574991265746502, 4.819949558650975308E-18, 0.9968971013678834536 ) ) ;
#1131 = APPLIED_DOCUMENT_REFERENCE ( #623,'',( #705) ) ;
#1132 = SHAPE_REPRESENTATION ( '3D_RAK19007 base module + booster', ( #365 ), #290 ) ;
#1133 = IDENTIFICATION_ROLE ( 'external document id and location', $) ;
#1134 = APPLICATION_CONTEXT ( 'automotive_design' ) ;
#1135 = NEXT_ASSEMBLY_USAGE_OCCURRENCE ( 'NAUO35', ' ', ' ', #983, #292, $ ) ;
#1136 = NEXT_ASSEMBLY_USAGE_OCCURRENCE ( 'NAUO36', ' ', ' ', #983, #927, $ ) ;
#1137 = NEXT_ASSEMBLY_USAGE_OCCURRENCE ( 'NAUO37', ' ', ' ', #983, #1129, $ ) ;
#1138 = NEXT_ASSEMBLY_USAGE_OCCURRENCE ( 'NAUO38', ' ', ' ', #983, #335, $ ) ;
#1139 = NEXT_ASSEMBLY_USAGE_OCCURRENCE ( 'NAUO39', ' ', ' ', #983, #1005, $ ) ;
#1140 = NEXT_ASSEMBLY_USAGE_OCCURRENCE ( 'NAUO40', ' ', ' ', #983, #209, $ ) ;
#1141 = NEXT_ASSEMBLY_USAGE_OCCURRENCE ( 'NAUO41', ' ', ' ', #983, #379, $ ) ;
#1142 = NEXT_ASSEMBLY_USAGE_OCCURRENCE ( 'NAUO42', ' ', ' ', #983, #1042, $ ) ;
#1143 = NEXT_ASSEMBLY_USAGE_OCCURRENCE ( 'NAUO43', ' ', ' ', #983, #258, $ ) ;
#1144 = NEXT_ASSEMBLY_USAGE_OCCURRENCE ( 'NAUO44', ' ', ' ', #983, #470, $ ) ;
#1145 = NEXT_ASSEMBLY_USAGE_OCCURRENCE ( 'NAUO45', ' ', ' ', #983, #575, $ ) ;
#1146 = NEXT_ASSEMBLY_USAGE_OCCURRENCE ( 'NAUO46', ' ', ' ', #983, #575, $ ) ;
#1147 = NEXT_ASSEMBLY_USAGE_OCCURRENCE ( 'NAUO47', ' ', ' ', #983, #575, $ ) ;
#1148 = NEXT_ASSEMBLY_USAGE_OCCURRENCE ( 'NAUO48', ' ', ' ', #983, #575, $ ) ;
#1149 = NEXT_ASSEMBLY_USAGE_OCCURRENCE ( 'NAUO49', ' ', ' ', #983, #575, $ ) ;
#1150 = NEXT_ASSEMBLY_USAGE_OCCURRENCE ( 'NAUO50', ' ', ' ', #983, #408, $ ) ;
#1151 = NEXT_ASSEMBLY_USAGE_OCCURRENCE ( 'NAUO51', ' ', ' ', #983, #575, $ ) ;
#1152 = NEXT_ASSEMBLY_USAGE_OCCURRENCE ( 'NAUO52', ' ', ' ', #983, #575, $ ) ;
#1153 = NEXT_ASSEMBLY_USAGE_OCCURRENCE ( 'NAUO53', ' ', ' ', #983, #575, $ ) ;
#1154 = NEXT_ASSEMBLY_USAGE_OCCURRENCE ( 'NAUO54', ' ', ' ', #983, #705, $ ) ;
#1155 = NEXT_ASSEMBLY_USAGE_OCCURRENCE ( 'NAUO55', ' ', ' ', #983, #705, $ ) ;
#1156 = NEXT_ASSEMBLY_USAGE_OCCURRENCE ( 'NAUO56', ' ', ' ', #983, #575, $ ) ;
#1157 = NEXT_ASSEMBLY_USAGE_OCCURRENCE ( 'NAUO57', ' ', ' ', #983, #705, $ ) ;
#1158 = NEXT_ASSEMBLY_USAGE_OCCURRENCE ( 'NAUO58', ' ', ' ', #983, #575, $ ) ;
#1159 = NEXT_ASSEMBLY_USAGE_OCCURRENCE ( 'NAUO59', ' ', ' ', #983, #705, $ ) ;
#1160 = NEXT_ASSEMBLY_USAGE_OCCURRENCE ( 'NAUO60', ' ', ' ', #983, #575, $ ) ;
#1161 = NEXT_ASSEMBLY_USAGE_OCCURRENCE ( 'NAUO61', ' ', ' ', #983, #705, $ ) ;
#1162 = NEXT_ASSEMBLY_USAGE_OCCURRENCE ( 'NAUO62', ' ', ' ', #983, #575, $ ) ;
#1163 = NEXT_ASSEMBLY_USAGE_OCCURRENCE ( 'NAUO63', ' ', ' ', #983, #705, $ ) ;
#1164 = NEXT_ASSEMBLY_USAGE_OCCURRENCE ( 'NAUO64', ' ', ' ', #983, #705, $ ) ;
#1165 = NEXT_ASSEMBLY_USAGE_OCCURRENCE ( 'NAUO65', ' ', ' ', #983, #705, $ ) ;
#1166 = NEXT_ASSEMBLY_USAGE_OCCURRENCE ( 'NAUO66', ' ', ' ', #983, #705, $ ) ;
#1167 = NEXT_ASSEMBLY_USAGE_OCCURRENCE ( 'NAUO67', ' ', ' ', #983, #705, $ ) ;
#1168 = NEXT_ASSEMBLY_USAGE_OCCURRENCE ( 'NAUO68', ' ', ' ', #983, #705, $ ) ;
#1169 = NEXT_ASSEMBLY_USAGE_OCCURRENCE ( 'NAUO69', ' ', ' ', #983, #705, $ ) ;
#1170 = NEXT_ASSEMBLY_USAGE_OCCURRENCE ( 'NAUO70', ' ', ' ', #983, #688, $ ) ;
#1171 = NEXT_ASSEMBLY_USAGE_OCCURRENCE ( 'NAUO71', ' ', ' ', #983, #784, $ ) ;
#1172 = NEXT_ASSEMBLY_USAGE_OCCURRENCE ( 'NAUO72', ' ', ' ', #983, #325, $ ) ;
ENDSEC;
END-ISO-10303-21;
