ISO-10303-21;
HEADER;
FILE_DESCRIPTION (( 'STEP AP214' ),
    '1' );
FILE_NAME ('Assem2.STEP',
    '2026-06-18T19:13:37',
    ( '' ),
    ( '' ),
    'SwSTEP 2.0',
    'SolidWorks 2025',
    '' );
FILE_SCHEMA (( 'AUTOMOTIVE_DESIGN' ));
ENDSEC;

DATA;
#1 = APPLIED_DOCUMENT_REFERENCE ( #422,'',( #65) ) ;
#2 = DIRECTION ( 'NONE',  ( 1.000000000000000000, 0.000000000000000000, 0.000000000000000000 ) ) ;
#3 = CARTESIAN_POINT ( 'NONE',  ( 0.000000000000000000, 0.000000000000000000, 0.000000000000000000 ) ) ;
#4 = UNCERTAINTY_MEASURE_WITH_UNIT (LENGTH_MEASURE( 1.000000000000000082E-05 ), #163, 'distance_accuracy_value', 'NONE');
#5 = DIRECTION ( 'NONE',  ( 0.000000000000000000, 0.000000000000000000, 1.000000000000000000 ) ) ;
#6 = PRODUCT_DEFINITION ( 'General', '', #151, #274 ) ;
#7 = DOCUMENT_TYPE ( 'geometry' ) ;
#8 = SHAPE_REPRESENTATION ( 'Twist lock battery part V3', ( #162 ), #287 ) ;
#9 = DOCUMENT_FILE ( 'Part1.STEP' , '', '', #263, '' ,$ ) ;
#10 = CARTESIAN_POINT ( 'NONE',  ( -54.61134954018692156, -33.37212923056722502, 64.65959600500252691 ) ) ;
#11 =( GEOMETRIC_REPRESENTATION_CONTEXT ( 3 ) GLOBAL_UNCERTAINTY_ASSIGNED_CONTEXT ( ( #357 ) ) GLOBAL_UNIT_ASSIGNED_CONTEXT ( ( #31, #542, #245 ) ) REPRESENTATION_CONTEXT ( 'NONE', 'WORKASPACE' ) );
#12 = APPLIED_DOCUMENT_REFERENCE ( #317,'',( #213) ) ;
#13 = DIRECTION ( 'NONE',  ( 1.000000000000000000, -3.233155946051822662E-16, -3.247888258214634543E-30 ) ) ;
#14 = CARTESIAN_POINT ( 'NONE',  ( -47.78634954018690451, -52.37212923056701896, 47.65959600500232796 ) ) ;
#15 = PRODUCT ( 'Twist lock radio part V3', 'Twist lock radio part V3', '', ( #325 ) ) ;
#16 =( REPRESENTATION_RELATIONSHIP ('NONE','NONE', #134, #446 ) REPRESENTATION_RELATIONSHIP_WITH_TRANSFORMATION ( #180 )SHAPE_REPRESENTATION_RELATIONSHIP( ) );
#17 = APPLICATION_CONTEXT ( 'automotive_design' ) ;
#18 = UNCERTAINTY_MEASURE_WITH_UNIT (LENGTH_MEASURE( 1.000000000000000082E-05 ), #285, 'distance_accuracy_value', 'NONE');
#19 = PROPERTY_DEFINITION_REPRESENTATION ( #179, #509 ) ;
#20 = DIRECTION ( 'NONE',  ( 1.000000000000000000, -4.718447854656915297E-16, 7.974312934735322024E-31 ) ) ;
#21 = PRODUCT ( 'middel part', 'middel part', '', ( #464 ) ) ;
#22 = CARTESIAN_POINT ( 'NONE',  ( -54.61134954018691445, -23.87212923056720015, 64.65959600500262638 ) ) ;
#23 = EXTERNAL_SOURCE (IDENTIFIER('') ) ;
#24 = PRODUCT_RELATED_PRODUCT_CATEGORY ( 'part', '', ( #21 ) ) ;
#25 = CARTESIAN_POINT ( 'NONE',  ( 0.000000000000000000, 0.000000000000000000, 0.000000000000000000 ) ) ;
#26 = APPLIED_EXTERNAL_IDENTIFICATION_ASSIGNMENT ( 'Twist lock battery part V3.STEP' , #324, #29,( #314) ) ;
#27 = APPLICATION_PROTOCOL_DEFINITION ( 'draft international standard', 'automotive_design', 1998, #177 ) ;
#28 = PRODUCT_DEFINITION_SHAPE ( 'NONE', 'NONE',  #493 ) ;
#29 = EXTERNAL_SOURCE (IDENTIFIER('') ) ;
#30 = APPLICATION_CONTEXT ( 'automotive_design' ) ;
#31 =( LENGTH_UNIT ( ) NAMED_UNIT ( * ) SI_UNIT ( .MILLI., .METRE. ) );
#32 = PROPERTY_DEFINITION ('external definition','', #358 ) ;
#33 = SHAPE_DEFINITION_REPRESENTATION ( #282, #169 ) ;
#34 = AXIS2_PLACEMENT_3D ( 'NONE', #3, #367, #335 ) ;
#35 = DIRECTION ( 'NONE',  ( 0.000000000000000000, 0.000000000000000000, 1.000000000000000000 ) ) ;
#36 = DIRECTION ( 'NONE',  ( 1.000000000000000000, 0.000000000000000000, 0.000000000000000000 ) ) ;
#37 = PROPERTY_DEFINITION ('external definition','', #467 ) ;
#38 = APPLICATION_CONTEXT ( 'automotive_design' ) ;
#39 = APPLICATION_PROTOCOL_DEFINITION ( 'draft international standard', 'automotive_design', 1998, #100 ) ;
#40 =( LENGTH_UNIT ( ) NAMED_UNIT ( * ) SI_UNIT ( .MILLI., .METRE. ) );
#41 =( REPRESENTATION_RELATIONSHIP ('NONE','NONE', #134, #8 ) REPRESENTATION_RELATIONSHIP_WITH_TRANSFORMATION ( #108 )SHAPE_REPRESENTATION_RELATIONSHIP( ) );
#42 = ROLE_ASSOCIATION ( #238, #87 ) ;
#43 =( LENGTH_UNIT ( ) NAMED_UNIT ( * ) SI_UNIT ( .MILLI., .METRE. ) );
#44 = DIRECTION ( 'NONE',  ( 0.000000000000000000, 0.000000000000000000, 1.000000000000000000 ) ) ;
#45 = AXIS2_PLACEMENT_3D ( 'NONE', #136, #73, #352 ) ;
#46 = IDENTIFICATION_ROLE ( 'external document id and location', $) ;
#47 = CONTEXT_DEPENDENT_SHAPE_REPRESENTATION ( #518, #465 ) ;
#48 = PROPERTY_DEFINITION ('document property','', #317 ) ;
#49 = PRODUCT_DEFINITION_CONTEXT ( 'detailed design', #487, 'design' ) ;
#50 = PRODUCT_DEFINITION_FORMATION_WITH_SPECIFIED_SOURCE ( 'Symmetric', '', #402, .NOT_KNOWN. ) ;
#51 = APPLIED_DOCUMENT_REFERENCE ( #9,'',( #184) ) ;
#52 =( NAMED_UNIT ( * ) SI_UNIT ( $, .STERADIAN. ) SOLID_ANGLE_UNIT ( ) );
#53 =( GEOMETRIC_REPRESENTATION_CONTEXT ( 3 ) GLOBAL_UNCERTAINTY_ASSIGNED_CONTEXT ( ( #4 ) ) GLOBAL_UNIT_ASSIGNED_CONTEXT ( ( #163, #370, #408 ) ) REPRESENTATION_CONTEXT ( 'NONE', 'WORKASPACE' ) );
#54 = APPLICATION_CONTEXT ( 'automotive_design' ) ;
#55 =( LENGTH_UNIT ( ) NAMED_UNIT ( * ) SI_UNIT ( .MILLI., .METRE. ) );
#56 = SHAPE_REPRESENTATION ( 'wing part', ( #215 ), #441 ) ;
#57 = APPLIED_DOCUMENT_REFERENCE ( #466,'',( #126) ) ;
#58 = ROLE_ASSOCIATION ( #322, #51 ) ;
#59 = AXIS2_PLACEMENT_3D ( 'NONE', #442, #67, #277 ) ;
#60 = OBJECT_ROLE ('mandatory',$ ) ;
#61 = DOCUMENT_FILE ( 'wing part.STEP' , '', '', #479, '' ,$ ) ;
#62 = PROPERTY_DEFINITION_REPRESENTATION ( #138, #527 ) ;
#63 = DIRECTION ( 'NONE',  ( 6.446472709852955847E-30, -7.285838599102652905E-16, -1.000000000000000000 ) ) ;
#64 =( REPRESENTATION_RELATIONSHIP ('NONE','NONE', #134, #56 ) REPRESENTATION_RELATIONSHIP_WITH_TRANSFORMATION ( #307 )SHAPE_REPRESENTATION_RELATIONSHIP( ) );
#65 = PRODUCT_DEFINITION ( 'General', '', #144, #544 ) ;
#66 = ITEM_DEFINED_TRANSFORMATION ( 'NONE', 'NONE', #127,  #215 ) ;
#67 = DIRECTION ( 'NONE',  ( -1.053616598355358499E-15, -1.000000000000000000, -1.084896061875895315E-14 ) ) ;
#68 = CONTEXT_DEPENDENT_SHAPE_REPRESENTATION ( #194, #390 ) ;
#69 = APPLIED_EXTERNAL_IDENTIFICATION_ASSIGNMENT ( '3D_RAK19007 base module + booster.STEP' , #191, #159,( #422) ) ;
#70 = PRODUCT_DEFINITION_CONTEXT ( 'detailed design', #17, 'design' ) ;
#71 = APPLICATION_CONTEXT ( 'automotive_design' ) ;
#72 = SHAPE_REPRESENTATION ( 'PCB frame', ( #406 ), #380 ) ;
#73 = DIRECTION ( 'NONE',  ( 0.000000000000000000, 0.000000000000000000, 1.000000000000000000 ) ) ;
#74 = OBJECT_ROLE ('mandatory',$ ) ;
#75 = SHAPE_DEFINITION_REPRESENTATION ( #107, #488 ) ;
#76 = SHAPE_DEFINITION_REPRESENTATION ( #275, #134 ) ;
#77 =( LENGTH_UNIT ( ) NAMED_UNIT ( * ) SI_UNIT ( .MILLI., .METRE. ) );
#78 = SHAPE_DEFINITION_REPRESENTATION ( #115, #72 ) ;
#79 = UNCERTAINTY_MEASURE_WITH_UNIT (LENGTH_MEASURE( 1.000000000000000082E-05 ), #231, 'distance_accuracy_value', 'NONE');
#80 = CARTESIAN_POINT ( 'NONE',  ( 0.000000000000000000, 0.000000000000000000, 0.000000000000000000 ) ) ;
#81 = PRODUCT_DEFINITION ( 'General', '', #50, #182 ) ;
#82 = APPLICATION_CONTEXT ( 'automotive_design' ) ;
#83 = APPLICATION_PROTOCOL_DEFINITION ( 'draft international standard', 'automotive_design', 1998, #487 ) ;
#84 = APPLICATION_PROTOCOL_DEFINITION ( 'draft international standard', 'automotive_design', 1998, #123 ) ;
#85 = PRODUCT_DEFINITION_SHAPE ( 'NONE', 'NONE',  #553 ) ;
#86 = EXTERNAL_SOURCE (IDENTIFIER('') ) ;
#87 = APPLIED_DOCUMENT_REFERENCE ( #297,'',( #474) ) ;
#88 = PRODUCT_RELATED_PRODUCT_CATEGORY ( 'part', '', ( #512 ) ) ;
#89 = PRODUCT_DEFINITION_SHAPE ( 'NONE', 'NONE',  #555 ) ;
#90 = CONTEXT_DEPENDENT_SHAPE_REPRESENTATION ( #498, #255 ) ;
#91 =( REPRESENTATION_RELATIONSHIP ('NONE','NONE', #134, #476 ) REPRESENTATION_RELATIONSHIP_WITH_TRANSFORMATION ( #214 )SHAPE_REPRESENTATION_RELATIONSHIP( ) );
#92 = ROLE_ASSOCIATION ( #206, #57 ) ;
#93 = PRODUCT_DEFINITION_SHAPE ( 'NONE', 'NONE',  #559 ) ;
#94 = PRODUCT_DEFINITION_CONTEXT ( 'detailed design', #477, 'design' ) ;
#95 = APPLIED_EXTERNAL_IDENTIFICATION_ASSIGNMENT ( 'wing part.STEP' , #416, #359,( #347) ) ;
#96 = ROLE_ASSOCIATION ( #546, #1 ) ;
#97 =( LENGTH_UNIT ( ) NAMED_UNIT ( * ) SI_UNIT ( .MILLI., .METRE. ) );
#98 = AXIS2_PLACEMENT_3D ( 'NONE', #364, #44, #424 ) ;
#99 = PROPERTY_DEFINITION_REPRESENTATION ( #336, #218 ) ;
#100 = APPLICATION_CONTEXT ( 'automotive_design' ) ;
#101 = DIRECTION ( 'NONE',  ( 1.000000000000000000, -1.053616598355347258E-15, -1.053616598355358893E-15 ) ) ;
#102 = AXIS2_PLACEMENT_3D ( 'NONE', #486, #153, #533 ) ;
#103 = DIRECTION ( 'NONE',  ( 1.000000000000000000, -3.053113317719180486E-16, 0.000000000000000000 ) ) ;
#104 = PRODUCT_RELATED_PRODUCT_CATEGORY ( 'part', '', ( #15 ) ) ;
#105 = ROLE_ASSOCIATION ( #351, #147 ) ;
#106 = CARTESIAN_POINT ( 'NONE',  ( -19.60934954018690135, -15.87212923056651981, -48.89040399499710787 ) ) ;
#107 = PRODUCT_DEFINITION_SHAPE ( 'NONE', 'NONE',  #65 ) ;
#108 = ITEM_DEFINED_TRANSFORMATION ( 'NONE', 'NONE', #59,  #162 ) ;
#109 = IDENTIFICATION_ROLE ( 'external document id and location', $) ;
#110 = SHAPE_REPRESENTATION ( 'buck converter', ( #241 ), #459 ) ;
#111 = PRODUCT_DEFINITION ( 'General', '', #444, #425 ) ;
#112 = APPLIED_DOCUMENT_REFERENCE ( #61,'',( #348) ) ;
#113 =( REPRESENTATION_RELATIONSHIP ('NONE','NONE', #134, #56 ) REPRESENTATION_RELATIONSHIP_WITH_TRANSFORMATION ( #66 )SHAPE_REPRESENTATION_RELATIONSHIP( ) );
#114 =( LENGTH_UNIT ( ) NAMED_UNIT ( * ) SI_UNIT ( .MILLI., .METRE. ) );
#115 = PRODUCT_DEFINITION_SHAPE ( 'NONE', 'NONE',  #111 ) ;
#116 = PRODUCT_CONTEXT ( 'NONE', #141, 'mechanical' ) ;
#117 = PROPERTY_DEFINITION ('document property','', #528 ) ;
#118 = PRODUCT ( 'batcase', 'batcase', '', ( #116 ) ) ;
#119 = SHAPE_DEFINITION_REPRESENTATION ( #471, #110 ) ;
#120 =( GEOMETRIC_REPRESENTATION_CONTEXT ( 3 ) GLOBAL_UNCERTAINTY_ASSIGNED_CONTEXT ( ( #192 ) ) GLOBAL_UNIT_ASSIGNED_CONTEXT ( ( #114, #190, #316 ) ) REPRESENTATION_CONTEXT ( 'NONE', 'WORKASPACE' ) );
#121 =( NAMED_UNIT ( * ) SI_UNIT ( $, .STERADIAN. ) SOLID_ANGLE_UNIT ( ) );
#122 = UNCERTAINTY_MEASURE_WITH_UNIT (LENGTH_MEASURE( 1.000000000000000082E-05 ), #43, 'distance_accuracy_value', 'NONE');
#123 = APPLICATION_CONTEXT ( 'automotive_design' ) ;
#124 = PRODUCT_DEFINITION_SHAPE ( 'NONE', 'NONE',  #551 ) ;
#125 = APPLICATION_PROTOCOL_DEFINITION ( 'draft international standard', 'automotive_design', 1998, #401 ) ;
#126 = PRODUCT_DEFINITION ( 'General', '', #373, #49 ) ;
#127 = AXIS2_PLACEMENT_3D ( 'NONE', #318, #433, #491 ) ;
#128 = PROPERTY_DEFINITION ('document property','', #9 ) ;
#129 = PRODUCT_CONTEXT ( 'NONE', #326, 'mechanical' ) ;
#130 = EXTERNAL_SOURCE (IDENTIFIER('') ) ;
#131 = PRODUCT_DEFINITION ( 'General', '', #457, #143 ) ;
#132 = AXIS2_PLACEMENT_3D ( 'NONE', #188, #354, #529 ) ;
#133 = PROPERTY_DEFINITION ('external definition','', #61 ) ;
#134 = SHAPE_REPRESENTATION ( 'Assem2', ( #383, #186, #499, #313, #265, #158, #222, #132, #102, #173, #59, #454, #432, #127 ), #361 ) ;
#135 = CONTEXT_DEPENDENT_SHAPE_REPRESENTATION ( #16, #175 ) ;
#136 = CARTESIAN_POINT ( 'NONE',  ( 0.000000000000000000, 0.000000000000000000, 0.000000000000000000 ) ) ;
#137 = DIRECTION ( 'NONE',  ( 0.000000000000000000, 0.000000000000000000, 1.000000000000000000 ) ) ;
#138 = PROPERTY_DEFINITION ('external definition','', #317 ) ;
#139 = DIRECTION ( 'NONE',  ( 0.000000000000000000, 0.000000000000000000, 1.000000000000000000 ) ) ;
#140 = PROPERTY_DEFINITION_REPRESENTATION ( #330, #218 ) ;
#141 = APPLICATION_CONTEXT ( 'automotive_design' ) ;
#142 = PRODUCT_RELATED_PRODUCT_CATEGORY ( 'part', '', ( #236 ) ) ;
#143 = PRODUCT_DEFINITION_CONTEXT ( 'detailed design', #100, 'design' ) ;
#144 = PRODUCT_DEFINITION_FORMATION_WITH_SPECIFIED_SOURCE ( 'Symmetric', '', #271, .NOT_KNOWN. ) ;
#145 = PROPERTY_DEFINITION_REPRESENTATION ( #455, #56 ) ;
#146 = IDENTIFICATION_ROLE ( 'external document id and location', $) ;
#147 = APPLIED_DOCUMENT_REFERENCE ( #528,'',( #131) ) ;
#148 = PRODUCT_RELATED_PRODUCT_CATEGORY ( 'part', '', ( #271 ) ) ;
#149 = APPLIED_EXTERNAL_IDENTIFICATION_ASSIGNMENT ( 'cooling.STEP' , #146, #538,( #260) ) ;
#150 = PROPERTY_DEFINITION_REPRESENTATION ( #377, #446 ) ;
#151 = PRODUCT_DEFINITION_FORMATION_WITH_SPECIFIED_SOURCE ( 'Symmetric', '', #321, .NOT_KNOWN. ) ;
#152 = APPLICATION_CONTEXT ( 'automotive_design' ) ;
#153 = DIRECTION ( 'NONE',  ( 5.709718412358004551E-16, 1.000000000000000000, 1.084896061875890424E-14 ) ) ;
#154 = DIRECTION ( 'NONE',  ( 0.000000000000000000, 0.000000000000000000, 1.000000000000000000 ) ) ;
#155 = UNCERTAINTY_MEASURE_WITH_UNIT (LENGTH_MEASURE( 1.000000000000000082E-05 ), #77, 'distance_accuracy_value', 'NONE');
#156 = PROPERTY_DEFINITION_REPRESENTATION ( #516, #56 ) ;
#157 = DIRECTION ( 'NONE',  ( 5.916456789157588541E-30, 1.084896061875895472E-14, -1.000000000000000000 ) ) ;
#158 = AXIS2_PLACEMENT_3D ( 'NONE', #320, #226, #356 ) ;
#159 = EXTERNAL_SOURCE (IDENTIFIER('') ) ;
#160 = PRODUCT ( 'Part1', 'Part1', '', ( #418 ) ) ;
#161 = PRODUCT_CONTEXT ( 'NONE', #202, 'mechanical' ) ;
#162 = AXIS2_PLACEMENT_3D ( 'NONE', #198, #346, #2 ) ;
#163 =( LENGTH_UNIT ( ) NAMED_UNIT ( * ) SI_UNIT ( .MILLI., .METRE. ) );
#164 = PROPERTY_DEFINITION ('document property','', #358 ) ;
#165 = ITEM_DEFINED_TRANSFORMATION ( 'NONE', 'NONE', #186,  #98 ) ;
#166 = DIRECTION ( 'NONE',  ( 1.000000000000000000, 0.000000000000000000, 0.000000000000000000 ) ) ;
#167 = APPLIED_EXTERNAL_IDENTIFICATION_ASSIGNMENT ( 'buck converter.STEP' , #482, #333,( #467) ) ;
#168 = DOCUMENT_TYPE ( 'geometry' ) ;
#169 = SHAPE_REPRESENTATION ( 'Top new', ( #232 ), #53 ) ;
#170 = SHAPE_DEFINITION_REPRESENTATION ( #530, #527 ) ;
#171 = PROPERTY_DEFINITION ('external definition','', #9 ) ;
#172 = APPLICATION_PROTOCOL_DEFINITION ( 'draft international standard', 'automotive_design', 1998, #17 ) ;
#173 = AXIS2_PLACEMENT_3D ( 'NONE', #106, #154, #270 ) ;
#174 = PROPERTY_DEFINITION_REPRESENTATION ( #201, #56 ) ;
#175 = PRODUCT_DEFINITION_SHAPE ( 'NONE', 'NONE',  #554 ) ;
#176 = CONTEXT_DEPENDENT_SHAPE_REPRESENTATION ( #227, #385 ) ;
#177 = APPLICATION_CONTEXT ( 'automotive_design' ) ;
#178 = PRODUCT_DEFINITION_CONTEXT ( 'detailed design', #123, 'design' ) ;
#179 = PROPERTY_DEFINITION ('external definition','', #528 ) ;
#180 = ITEM_DEFINED_TRANSFORMATION ( 'NONE', 'NONE', #102,  #304 ) ;
#181 = DIRECTION ( 'NONE',  ( 0.000000000000000000, 0.000000000000000000, 1.000000000000000000 ) ) ;
#182 = PRODUCT_DEFINITION_CONTEXT ( 'detailed design', #384, 'design' ) ;
#183 = APPLICATION_CONTEXT ( 'automotive_design' ) ;
#184 = PRODUCT_DEFINITION ( 'General', '', #503, #262 ) ;
#185 = PROPERTY_DEFINITION_REPRESENTATION ( #133, #56 ) ;
#186 = AXIS2_PLACEMENT_3D ( 'NONE', #14, #494, #103 ) ;
#187 = APPLIED_DOCUMENT_REFERENCE ( #260,'',( #6) ) ;
#188 = CARTESIAN_POINT ( 'NONE',  ( -19.61134954018690379, -15.87212923056604374, -43.94040399499727556 ) ) ;
#189 = ROLE_ASSOCIATION ( #299, #342 ) ;
#190 =( NAMED_UNIT ( * ) PLANE_ANGLE_UNIT ( ) SI_UNIT ( $, .RADIAN. ) );
#191 = IDENTIFICATION_ROLE ( 'external document id and location', $) ;
#192 = UNCERTAINTY_MEASURE_WITH_UNIT (LENGTH_MEASURE( 1.000000000000000082E-05 ), #114, 'distance_accuracy_value', 'NONE');
#193 = PRODUCT ( 'PCB frame', 'PCB frame', '', ( #458 ) ) ;
#194 =( REPRESENTATION_RELATIONSHIP ('NONE','NONE', #134, #72 ) REPRESENTATION_RELATIONSHIP_WITH_TRANSFORMATION ( #272 )SHAPE_REPRESENTATION_RELATIONSHIP( ) );
#195 = CARTESIAN_POINT ( 'NONE',  ( -54.61134954018692156, -33.37212923056608105, -40.34040399499747309 ) ) ;
#196 = APPLICATION_PROTOCOL_DEFINITION ( 'draft international standard', 'automotive_design', 1998, #429 ) ;
#197 = PRODUCT_DEFINITION_SHAPE ( 'NONE', 'NONE',  #184 ) ;
#198 = CARTESIAN_POINT ( 'NONE',  ( 0.000000000000000000, 0.000000000000000000, 0.000000000000000000 ) ) ;
#199 = PRODUCT_RELATED_PRODUCT_CATEGORY ( 'part', '', ( #402 ) ) ;
#200 = APPLICATION_PROTOCOL_DEFINITION ( 'draft international standard', 'automotive_design', 1998, #411 ) ;
#201 = PROPERTY_DEFINITION ('document property','', #347 ) ;
#202 = APPLICATION_CONTEXT ( 'automotive_design' ) ;
#203 = AXIS2_PLACEMENT_3D ( 'NONE', #513, #374, #506 ) ;
#204 = PRODUCT_CONTEXT ( 'NONE', #177, 'mechanical' ) ;
#205 = APPLICATION_PROTOCOL_DEFINITION ( 'draft international standard', 'automotive_design', 1998, #353 ) ;
#206 = OBJECT_ROLE ('mandatory',$ ) ;
#207 = PROPERTY_DEFINITION ('document property','', #314 ) ;
#208 = PROPERTY_DEFINITION_REPRESENTATION ( #171, #392 ) ;
#209 =( LENGTH_UNIT ( ) NAMED_UNIT ( * ) SI_UNIT ( .MILLI., .METRE. ) );
#210 = ITEM_DEFINED_TRANSFORMATION ( 'NONE', 'NONE', #265,  #232 ) ;
#211 = PROPERTY_DEFINITION ('external definition','', #314 ) ;
#212 = PRODUCT_DEFINITION_FORMATION_WITH_SPECIFIED_SOURCE ( 'Symmetric', '', #451, .NOT_KNOWN. ) ;
#213 = PRODUCT_DEFINITION ( 'General', '', #403, #94 ) ;
#214 = ITEM_DEFINED_TRANSFORMATION ( 'NONE', 'NONE', #132,  #34 ) ;
#215 = AXIS2_PLACEMENT_3D ( 'NONE', #25, #410, #36 ) ;
#216 = DIRECTION ( 'NONE',  ( 1.000000000000000000, 0.000000000000000000, 0.000000000000000000 ) ) ;
#217 = DOCUMENT_TYPE ( 'geometry' ) ;
#218 = SHAPE_REPRESENTATION ( 'pi4withall', ( #98 ), #315 ) ;
#219 = ROLE_ASSOCIATION ( #350, #393 ) ;
#220 =( NAMED_UNIT ( * ) PLANE_ANGLE_UNIT ( ) SI_UNIT ( $, .RADIAN. ) );
#221 = EXTERNAL_SOURCE (IDENTIFIER('') ) ;
#222 = AXIS2_PLACEMENT_3D ( 'NONE', #22, #537, #13 ) ;
#223 = PRODUCT_RELATED_PRODUCT_CATEGORY ( 'part', '', ( #193 ) ) ;
#224 = CONTEXT_DEPENDENT_SHAPE_REPRESENTATION ( #394, #292 ) ;
#225 = EXTERNAL_SOURCE (IDENTIFIER('') ) ;
#226 = DIRECTION ( 'NONE',  ( -1.053616598355358696E-15, -1.000000000000000222, -1.084896061875895630E-14 ) ) ;
#227 =( REPRESENTATION_RELATIONSHIP ('NONE','NONE', #134, #169 ) REPRESENTATION_RELATIONSHIP_WITH_TRANSFORMATION ( #210 )SHAPE_REPRESENTATION_RELATIONSHIP( ) );
#228 = ROLE_ASSOCIATION ( #468, #112 ) ;
#229 = UNCERTAINTY_MEASURE_WITH_UNIT (LENGTH_MEASURE( 1.000000000000000082E-05 ), #295, 'distance_accuracy_value', 'NONE');
#230 = PRODUCT_DEFINITION_FORMATION_WITH_SPECIFIED_SOURCE ( 'Symmetric', '', #439, .NOT_KNOWN. ) ;
#231 =( LENGTH_UNIT ( ) NAMED_UNIT ( * ) SI_UNIT ( .MILLI., .METRE. ) );
#232 = AXIS2_PLACEMENT_3D ( 'NONE', #80, #289, #166 ) ;
#233 = PROPERTY_DEFINITION_REPRESENTATION ( #207, #8 ) ;
#234 = DIRECTION ( 'NONE',  ( 4.360905546817708986E-16, -1.088018564132653725E-14, 1.000000000000000000 ) ) ;
#235 = IDENTIFICATION_ROLE ( 'external document id and location', $) ;
#236 = PRODUCT ( 'Twist lock battery part V3', 'Twist lock battery part V3', '', ( #507 ) ) ;
#237 = APPLICATION_PROTOCOL_DEFINITION ( 'draft international standard', 'automotive_design', 1998, #202 ) ;
#238 = OBJECT_ROLE ('mandatory',$ ) ;
#239 = APPLIED_EXTERNAL_IDENTIFICATION_ASSIGNMENT ( 'Twist lock radio part V3.STEP' , #452, #249,( #297) ) ;
#240 = PRODUCT_DEFINITION_CONTEXT ( 'detailed design', #429, 'design' ) ;
#241 = AXIS2_PLACEMENT_3D ( 'NONE', #421, #137, #301 ) ;
#242 = PRODUCT_CONTEXT ( 'NONE', #401, 'mechanical' ) ;
#243 = PROPERTY_DEFINITION ('external definition','', #297 ) ;
#244 = APPLICATION_PROTOCOL_DEFINITION ( 'draft international standard', 'automotive_design', 1998, #384 ) ;
#245 =( NAMED_UNIT ( * ) SI_UNIT ( $, .STERADIAN. ) SOLID_ANGLE_UNIT ( ) );
#246 = PROPERTY_DEFINITION ('document property','', #514 ) ;
#247 = PRODUCT_DEFINITION ( 'General', '', #428, #178 ) ;
#248 = APPLICATION_PROTOCOL_DEFINITION ( 'draft international standard', 'automotive_design', 1998, #461 ) ;
#249 = EXTERNAL_SOURCE (IDENTIFIER('') ) ;
#250 =( NAMED_UNIT ( * ) PLANE_ANGLE_UNIT ( ) SI_UNIT ( $, .RADIAN. ) );
#251 = APPLIED_DOCUMENT_REFERENCE ( #347,'',( #348) ) ;
#252 = DOCUMENT_TYPE ( 'geometry' ) ;
#253 =( NAMED_UNIT ( * ) SI_UNIT ( $, .STERADIAN. ) SOLID_ANGLE_UNIT ( ) );
#254 =( NAMED_UNIT ( * ) PLANE_ANGLE_UNIT ( ) SI_UNIT ( $, .RADIAN. ) );
#255 = PRODUCT_DEFINITION_SHAPE ( 'NONE', 'NONE',  #549 ) ;
#256 = CONTEXT_DEPENDENT_SHAPE_REPRESENTATION ( #64, #124 ) ;
#257 = PROPERTY_DEFINITION_REPRESENTATION ( #501, #110 ) ;
#258 = APPLIED_EXTERNAL_IDENTIFICATION_ASSIGNMENT ( 'pi4withall.STEP' , #109, #470,( #466) ) ;
#259 =( NAMED_UNIT ( * ) SI_UNIT ( $, .STERADIAN. ) SOLID_ANGLE_UNIT ( ) );
#260 = DOCUMENT_FILE ( 'cooling.STEP' , '', '', #278, '' ,$ ) ;
#261 =( NAMED_UNIT ( * ) SI_UNIT ( $, .STERADIAN. ) SOLID_ANGLE_UNIT ( ) );
#262 = PRODUCT_DEFINITION_CONTEXT ( 'detailed design', #353, 'design' ) ;
#263 = DOCUMENT_TYPE ( 'geometry' ) ;
#264 = PROPERTY_DEFINITION_REPRESENTATION ( #48, #527 ) ;
#265 = AXIS2_PLACEMENT_3D ( 'NONE', #10, #234, #404 ) ;
#266 = APPLICATION_CONTEXT ( 'automotive_design' ) ;
#267 = PROPERTY_DEFINITION_REPRESENTATION ( #211, #8 ) ;
#268 = CARTESIAN_POINT ( 'NONE',  ( -44.43368010472367047, -23.87212923056652869, 0.3041362057872006863 ) ) ;
#269 = PROPERTY_DEFINITION_REPRESENTATION ( #32, #72 ) ;
#270 = DIRECTION ( 'NONE',  ( 1.000000000000000000, 0.000000000000000000, 0.000000000000000000 ) ) ;
#271 = PRODUCT ( '3D_RAK19007 base module + booster', '3D_RAK19007 base module + booster', '', ( #204 ) ) ;
#272 = ITEM_DEFINED_TRANSFORMATION ( 'NONE', 'NONE', #454,  #406 ) ;
#273 = IDENTIFICATION_ROLE ( 'external document id and location', $) ;
#274 = PRODUCT_DEFINITION_CONTEXT ( 'detailed design', #82, 'design' ) ;
#275 = PRODUCT_DEFINITION_SHAPE ( 'NONE', 'NONE',  #247 ) ;
#276 = ITEM_DEFINED_TRANSFORMATION ( 'NONE', 'NONE', #173,  #283 ) ;
#277 = DIRECTION ( 'NONE',  ( 1.000000000000000000, -1.053616598355347258E-15, -1.053616598355358893E-15 ) ) ;
#278 = DOCUMENT_TYPE ( 'geometry' ) ;
#279 = PRODUCT_RELATED_PRODUCT_CATEGORY ( 'part', '', ( #118 ) ) ;
#280 = APPLICATION_PROTOCOL_DEFINITION ( 'draft international standard', 'automotive_design', 1998, #326 ) ;
#281 = UNCERTAINTY_MEASURE_WITH_UNIT (LENGTH_MEASURE( 1.000000000000000082E-05 ), #97, 'distance_accuracy_value', 'NONE');
#282 = PRODUCT_DEFINITION_SHAPE ( 'NONE', 'NONE',  #378 ) ;
#283 = AXIS2_PLACEMENT_3D ( 'NONE', #376, #5, #515 ) ;
#284 = APPLICATION_PROTOCOL_DEFINITION ( 'draft international standard', 'automotive_design', 1998, #526 ) ;
#285 =( LENGTH_UNIT ( ) NAMED_UNIT ( * ) SI_UNIT ( .MILLI., .METRE. ) );
#286 = APPLICATION_PROTOCOL_DEFINITION ( 'draft international standard', 'automotive_design', 1998, #368 ) ;
#287 =( GEOMETRIC_REPRESENTATION_CONTEXT ( 3 ) GLOBAL_UNCERTAINTY_ASSIGNED_CONTEXT ( ( #281 ) ) GLOBAL_UNIT_ASSIGNED_CONTEXT ( ( #97, #524, #261 ) ) REPRESENTATION_CONTEXT ( 'NONE', 'WORKASPACE' ) );
#288 = OBJECT_ROLE ('mandatory',$ ) ;
#289 = DIRECTION ( 'NONE',  ( 0.000000000000000000, 0.000000000000000000, 1.000000000000000000 ) ) ;
#290 = APPLIED_EXTERNAL_IDENTIFICATION_ASSIGNMENT ( 'wing part.STEP' , #449, #86,( #61) ) ;
#291 = APPLICATION_PROTOCOL_DEFINITION ( 'draft international standard', 'automotive_design', 1998, #266 ) ;
#292 = PRODUCT_DEFINITION_SHAPE ( 'NONE', 'NONE',  #558 ) ;
#293 = SHAPE_DEFINITION_REPRESENTATION ( #28, #8 ) ;
#294 =( NAMED_UNIT ( * ) PLANE_ANGLE_UNIT ( ) SI_UNIT ( $, .RADIAN. ) );
#295 =( LENGTH_UNIT ( ) NAMED_UNIT ( * ) SI_UNIT ( .MILLI., .METRE. ) );
#296 = EXTERNAL_SOURCE (IDENTIFIER('') ) ;
#297 = DOCUMENT_FILE ( 'Twist lock radio part V3.STEP' , '', '', #382, '' ,$ ) ;
#298 =( NAMED_UNIT ( * ) PLANE_ANGLE_UNIT ( ) SI_UNIT ( $, .RADIAN. ) );
#299 = OBJECT_ROLE ('mandatory',$ ) ;
#300 = PROPERTY_DEFINITION_REPRESENTATION ( #128, #392 ) ;
#301 = DIRECTION ( 'NONE',  ( 1.000000000000000000, 0.000000000000000000, 0.000000000000000000 ) ) ;
#302 = PRODUCT_DEFINITION_SHAPE ( 'NONE', 'NONE',  #552 ) ;
#303 = PROPERTY_DEFINITION_REPRESENTATION ( #37, #110 ) ;
#304 = AXIS2_PLACEMENT_3D ( 'NONE', #511, #181, #216 ) ;
#305 = DIRECTION ( 'NONE',  ( 0.000000000000000000, 0.000000000000000000, 1.000000000000000000 ) ) ;
#306 = DIRECTION ( 'NONE',  ( 1.000000000000000000, 0.000000000000000000, 0.000000000000000000 ) ) ;
#307 = ITEM_DEFINED_TRANSFORMATION ( 'NONE', 'NONE', #158,  #215 ) ;
#308 = PRODUCT_DEFINITION_FORMATION_WITH_SPECIFIED_SOURCE ( 'Symmetric', '', #236, .NOT_KNOWN. ) ;
#309 = APPLICATION_CONTEXT ( 'automotive_design' ) ;
#310 = PRODUCT_RELATED_PRODUCT_CATEGORY ( 'part', '', ( #451 ) ) ;
#311 = PROPERTY_DEFINITION_REPRESENTATION ( #462, #169 ) ;
#312 = DOCUMENT_TYPE ( 'geometry' ) ;
#313 = AXIS2_PLACEMENT_3D ( 'NONE', #398, #535, #63 ) ;
#314 = DOCUMENT_FILE ( 'Twist lock battery part V3.STEP' , '', '', #543, '' ,$ ) ;
#315 =( GEOMETRIC_REPRESENTATION_CONTEXT ( 3 ) GLOBAL_UNCERTAINTY_ASSIGNED_CONTEXT ( ( #328 ) ) GLOBAL_UNIT_ASSIGNED_CONTEXT ( ( #40, #254, #259 ) ) REPRESENTATION_CONTEXT ( 'NONE', 'WORKASPACE' ) );
#316 =( NAMED_UNIT ( * ) SI_UNIT ( $, .STERADIAN. ) SOLID_ANGLE_UNIT ( ) );
#317 = DOCUMENT_FILE ( 'batcase.STEP' , '', '', #252, '' ,$ ) ;
#318 = CARTESIAN_POINT ( 'NONE',  ( 12.47865045981407128, -6.601127737212529212, -43.94040399499721161 ) ) ;
#319 = PRODUCT_DEFINITION_SHAPE ( 'NONE', 'NONE',  #6 ) ;
#320 = CARTESIAN_POINT ( 'NONE',  ( -51.70134954018590889, -25.14313072391693282, -43.94040399499733951 ) ) ;
#321 = PRODUCT ( 'cooling', 'cooling', '', ( #129 ) ) ;
#322 = OBJECT_ROLE ('mandatory',$ ) ;
#323 = DIRECTION ( 'NONE',  ( -1.053616598355358499E-15, -1.000000000000000000, -1.084896061875895315E-14 ) ) ;
#324 = IDENTIFICATION_ROLE ( 'external document id and location', $) ;
#325 = PRODUCT_CONTEXT ( 'NONE', #309, 'mechanical' ) ;
#326 = APPLICATION_CONTEXT ( 'automotive_design' ) ;
#327 = CARTESIAN_POINT ( 'NONE',  ( 0.000000000000000000, 0.000000000000000000, 0.000000000000000000 ) ) ;
#328 = UNCERTAINTY_MEASURE_WITH_UNIT (LENGTH_MEASURE( 1.000000000000000082E-05 ), #40, 'distance_accuracy_value', 'NONE');
#329 = APPLICATION_PROTOCOL_DEFINITION ( 'draft international standard', 'automotive_design', 1998, #309 ) ;
#330 = PROPERTY_DEFINITION ('external definition','', #466 ) ;
#331 = APPLIED_EXTERNAL_IDENTIFICATION_ASSIGNMENT ( 'Part1.STEP' , #235, #130,( #9) ) ;
#332 =( GEOMETRIC_REPRESENTATION_CONTEXT ( 3 ) GLOBAL_UNCERTAINTY_ASSIGNED_CONTEXT ( ( #496 ) ) GLOBAL_UNIT_ASSIGNED_CONTEXT ( ( #55, #298, #460 ) ) REPRESENTATION_CONTEXT ( 'NONE', 'WORKASPACE' ) );
#333 = EXTERNAL_SOURCE (IDENTIFIER('') ) ;
#334 = APPLICATION_PROTOCOL_DEFINITION ( 'draft international standard', 'automotive_design', 1998, #477 ) ;
#335 = DIRECTION ( 'NONE',  ( 1.000000000000000000, 0.000000000000000000, 0.000000000000000000 ) ) ;
#336 = PROPERTY_DEFINITION ('document property','', #466 ) ;
#337 = PROPERTY_DEFINITION_REPRESENTATION ( #246, #169 ) ;
#338 =( REPRESENTATION_RELATIONSHIP ('NONE','NONE', #134, #509 ) REPRESENTATION_RELATIONSHIP_WITH_TRANSFORMATION ( #276 )SHAPE_REPRESENTATION_RELATIONSHIP( ) );
#339 = IDENTIFICATION_ROLE ( 'external document id and location', $) ;
#340 = PRODUCT_DEFINITION_SHAPE ( 'NONE', 'NONE',  #547 ) ;
#341 = PROPERTY_DEFINITION_REPRESENTATION ( #475, #476 ) ;
#342 = APPLIED_DOCUMENT_REFERENCE ( #467,'',( #81) ) ;
#343 =( NAMED_UNIT ( * ) PLANE_ANGLE_UNIT ( ) SI_UNIT ( $, .RADIAN. ) );
#344 =( NAMED_UNIT ( * ) SI_UNIT ( $, .STERADIAN. ) SOLID_ANGLE_UNIT ( ) );
#345 = CONTEXT_DEPENDENT_SHAPE_REPRESENTATION ( #508, #302 ) ;
#346 = DIRECTION ( 'NONE',  ( 0.000000000000000000, 0.000000000000000000, 1.000000000000000000 ) ) ;
#347 = DOCUMENT_FILE ( 'wing part.STEP' , '', '', #7, '' ,$ ) ;
#348 = PRODUCT_DEFINITION ( 'General', '', #230, #240 ) ;
#349 =( NAMED_UNIT ( * ) SI_UNIT ( $, .STERADIAN. ) SOLID_ANGLE_UNIT ( ) );
#350 = OBJECT_ROLE ('mandatory',$ ) ;
#351 = OBJECT_ROLE ('mandatory',$ ) ;
#352 = DIRECTION ( 'NONE',  ( 1.000000000000000000, 0.000000000000000000, 0.000000000000000000 ) ) ;
#353 = APPLICATION_CONTEXT ( 'automotive_design' ) ;
#354 = DIRECTION ( 'NONE',  ( 5.916456789157588541E-30, 1.000000000000000000, 1.084896061875895472E-14 ) ) ;
#355 = PRODUCT_DEFINITION_FORMATION_WITH_SPECIFIED_SOURCE ( 'Symmetric', '', #15, .NOT_KNOWN. ) ;
#356 = DIRECTION ( 'NONE',  ( -1.000000000000000222, 1.053616598355347455E-15, 1.053616598355359091E-15 ) ) ;
#357 = UNCERTAINTY_MEASURE_WITH_UNIT (LENGTH_MEASURE( 1.000000000000000082E-05 ), #31, 'distance_accuracy_value', 'NONE');
#358 = DOCUMENT_FILE ( 'PCB frame.STEP' , '', '', #312, '' ,$ ) ;
#359 = EXTERNAL_SOURCE (IDENTIFIER('') ) ;
#360 = PRODUCT_CONTEXT ( 'NONE', #38, 'mechanical' ) ;
#361 =( GEOMETRIC_REPRESENTATION_CONTEXT ( 3 ) GLOBAL_UNCERTAINTY_ASSIGNED_CONTEXT ( ( #79 ) ) GLOBAL_UNIT_ASSIGNED_CONTEXT ( ( #231, #396, #375 ) ) REPRESENTATION_CONTEXT ( 'NONE', 'WORKASPACE' ) );
#362 = PRODUCT ( 'Assem2', 'Assem2', '', ( #360 ) ) ;
#363 = APPLICATION_PROTOCOL_DEFINITION ( 'draft international standard', 'automotive_design', 1998, #71 ) ;
#364 = CARTESIAN_POINT ( 'NONE',  ( 0.000000000000000000, 0.000000000000000000, 0.000000000000000000 ) ) ;
#365 = SHAPE_DEFINITION_REPRESENTATION ( #197, #392 ) ;
#366 = APPLICATION_PROTOCOL_DEFINITION ( 'draft international standard', 'automotive_design', 1998, #30 ) ;
#367 = DIRECTION ( 'NONE',  ( 0.000000000000000000, 0.000000000000000000, 1.000000000000000000 ) ) ;
#368 = APPLICATION_CONTEXT ( 'automotive_design' ) ;
#369 = APPLICATION_PROTOCOL_DEFINITION ( 'draft international standard', 'automotive_design', 1998, #54 ) ;
#370 =( NAMED_UNIT ( * ) PLANE_ANGLE_UNIT ( ) SI_UNIT ( $, .RADIAN. ) );
#371 = PRODUCT_DEFINITION_SHAPE ( 'NONE', 'NONE',  #556 ) ;
#372 = DIRECTION ( 'NONE',  ( 1.000000000000000000, 0.000000000000000000, 0.000000000000000000 ) ) ;
#373 = PRODUCT_DEFINITION_FORMATION_WITH_SPECIFIED_SOURCE ( 'Symmetric', '', #512, .NOT_KNOWN. ) ;
#374 = DIRECTION ( 'NONE',  ( 0.000000000000000000, 0.000000000000000000, 1.000000000000000000 ) ) ;
#375 =( NAMED_UNIT ( * ) SI_UNIT ( $, .STERADIAN. ) SOLID_ANGLE_UNIT ( ) );
#376 = CARTESIAN_POINT ( 'NONE',  ( 0.000000000000000000, 0.000000000000000000, 0.000000000000000000 ) ) ;
#377 = PROPERTY_DEFINITION ('external definition','', #260 ) ;
#378 = PRODUCT_DEFINITION ( 'General', '', #212, #70 ) ;
#379 = PROPERTY_DEFINITION_REPRESENTATION ( #243, #476 ) ;
#380 =( GEOMETRIC_REPRESENTATION_CONTEXT ( 3 ) GLOBAL_UNCERTAINTY_ASSIGNED_CONTEXT ( ( #122 ) ) GLOBAL_UNIT_ASSIGNED_CONTEXT ( ( #43, #220, #349 ) ) REPRESENTATION_CONTEXT ( 'NONE', 'WORKASPACE' ) );
#381 = DIRECTION ( 'NONE',  ( 1.000000000000000000, 0.000000000000000000, 0.000000000000000000 ) ) ;
#382 = DOCUMENT_TYPE ( 'geometry' ) ;
#383 = AXIS2_PLACEMENT_3D ( 'NONE', #412, #35, #372 ) ;
#384 = APPLICATION_CONTEXT ( 'automotive_design' ) ;
#385 = PRODUCT_DEFINITION_SHAPE ( 'NONE', 'NONE',  #550 ) ;
#386 = ITEM_DEFINED_TRANSFORMATION ( 'NONE', 'NONE', #499,  #241 ) ;
#387 = UNCERTAINTY_MEASURE_WITH_UNIT (LENGTH_MEASURE( 1.000000000000000082E-05 ), #389, 'distance_accuracy_value', 'NONE');
#388 = APPLIED_EXTERNAL_IDENTIFICATION_ASSIGNMENT ( 'batcase.STEP' , #420, #225,( #317) ) ;
#389 =( LENGTH_UNIT ( ) NAMED_UNIT ( * ) SI_UNIT ( .MILLI., .METRE. ) );
#390 = PRODUCT_DEFINITION_SHAPE ( 'NONE', 'NONE',  #557 ) ;
#391 = DOCUMENT_TYPE ( 'geometry' ) ;
#392 = SHAPE_REPRESENTATION ( 'Part1', ( #203 ), #11 ) ;
#393 = APPLIED_DOCUMENT_REFERENCE ( #514,'',( #378) ) ;
#394 =( REPRESENTATION_RELATIONSHIP ('NONE','NONE', #134, #527 ) REPRESENTATION_RELATIONSHIP_WITH_TRANSFORMATION ( #440 )SHAPE_REPRESENTATION_RELATIONSHIP( ) );
#395 = ROLE_ASSOCIATION ( #523, #187 ) ;
#396 =( NAMED_UNIT ( * ) PLANE_ANGLE_UNIT ( ) SI_UNIT ( $, .RADIAN. ) );
#397 = ROLE_ASSOCIATION ( #60, #436 ) ;
#398 = CARTESIAN_POINT ( 'NONE',  ( -23.48907120807334437, -23.85942923054129849, 44.25453695251185593 ) ) ;
#399 =( GEOMETRIC_REPRESENTATION_CONTEXT ( 3 ) GLOBAL_UNCERTAINTY_ASSIGNED_CONTEXT ( ( #492 ) ) GLOBAL_UNIT_ASSIGNED_CONTEXT ( ( #209, #343, #520 ) ) REPRESENTATION_CONTEXT ( 'NONE', 'WORKASPACE' ) );
#400 = PROPERTY_DEFINITION_REPRESENTATION ( #117, #509 ) ;
#401 = APPLICATION_CONTEXT ( 'automotive_design' ) ;
#402 = PRODUCT ( 'buck converter', 'buck converter', '', ( #161 ) ) ;
#403 = PRODUCT_DEFINITION_FORMATION_WITH_SPECIFIED_SOURCE ( 'Symmetric', '', #118, .NOT_KNOWN. ) ;
#404 = DIRECTION ( 'NONE',  ( -1.000000000000000000, 6.520183953215832753E-16, 4.360905546817778505E-16 ) ) ;
#405 = PRODUCT_DEFINITION_SHAPE ( 'NONE', 'NONE',  #131 ) ;
#406 = AXIS2_PLACEMENT_3D ( 'NONE', #327, #305, #381 ) ;
#407 = SHAPE_DEFINITION_REPRESENTATION ( #539, #56 ) ;
#408 =( NAMED_UNIT ( * ) SI_UNIT ( $, .STERADIAN. ) SOLID_ANGLE_UNIT ( ) );
#409 = DOCUMENT_TYPE ( 'geometry' ) ;
#410 = DIRECTION ( 'NONE',  ( 0.000000000000000000, 0.000000000000000000, 1.000000000000000000 ) ) ;
#411 = APPLICATION_CONTEXT ( 'automotive_design' ) ;
#412 = CARTESIAN_POINT ( 'NONE',  ( 0.000000000000000000, 0.000000000000000000, 0.000000000000000000 ) ) ;
#413 = PROPERTY_DEFINITION ('document property','', #260 ) ;
#414 = PRODUCT_CONTEXT ( 'NONE', #368, 'mechanical' ) ;
#415 = PRODUCT_CONTEXT ( 'NONE', #526, 'mechanical' ) ;
#416 = IDENTIFICATION_ROLE ( 'external document id and location', $) ;
#417 = PRODUCT_DEFINITION_SHAPE ( 'NONE', 'NONE',  #126 ) ;
#418 = PRODUCT_CONTEXT ( 'NONE', #183, 'mechanical' ) ;
#419 =( NAMED_UNIT ( * ) PLANE_ANGLE_UNIT ( ) SI_UNIT ( $, .RADIAN. ) );
#420 = IDENTIFICATION_ROLE ( 'external document id and location', $) ;
#421 = CARTESIAN_POINT ( 'NONE',  ( 0.000000000000000000, 0.000000000000000000, 0.000000000000000000 ) ) ;
#422 = DOCUMENT_FILE ( '3D_RAK19007 base module + booster.STEP' , '', '', #217, '' ,$ ) ;
#423 = PROPERTY_DEFINITION ('document property','', #422 ) ;
#424 = DIRECTION ( 'NONE',  ( 1.000000000000000000, 0.000000000000000000, 0.000000000000000000 ) ) ;
#425 = PRODUCT_DEFINITION_CONTEXT ( 'detailed design', #411, 'design' ) ;
#426 = CONTEXT_DEPENDENT_SHAPE_REPRESENTATION ( #91, #85 ) ;
#427 =( GEOMETRIC_REPRESENTATION_CONTEXT ( 3 ) GLOBAL_UNCERTAINTY_ASSIGNED_CONTEXT ( ( #387 ) ) GLOBAL_UNIT_ASSIGNED_CONTEXT ( ( #389, #469, #52 ) ) REPRESENTATION_CONTEXT ( 'NONE', 'WORKASPACE' ) );
#428 = PRODUCT_DEFINITION_FORMATION_WITH_SPECIFIED_SOURCE ( 'Symmetric', '', #362, .NOT_KNOWN. ) ;
#429 = APPLICATION_CONTEXT ( 'automotive_design' ) ;
#430 = PROPERTY_DEFINITION_REPRESENTATION ( #545, #488 ) ;
#431 = ITEM_DEFINED_TRANSFORMATION ( 'NONE', 'NONE', #313,  #505 ) ;
#432 = AXIS2_PLACEMENT_3D ( 'NONE', #443, #323, #101 ) ;
#433 = DIRECTION ( 'NONE',  ( 1.025861022739729783E-15, 1.000000000000000222, 1.084896061875895630E-14 ) ) ;
#434 = PRODUCT_RELATED_PRODUCT_CATEGORY ( 'part', '', ( #439 ) ) ;
#435 = OBJECT_ROLE ('mandatory',$ ) ;
#436 = APPLIED_DOCUMENT_REFERENCE ( #358,'',( #111) ) ;
#437 =( REPRESENTATION_RELATIONSHIP ('NONE','NONE', #134, #218 ) REPRESENTATION_RELATIONSHIP_WITH_TRANSFORMATION ( #165 )SHAPE_REPRESENTATION_RELATIONSHIP( ) );
#438 = DIRECTION ( 'NONE',  ( -7.632783294297949983E-17, -1.000000000000000000, 0.000000000000000000 ) ) ;
#439 = PRODUCT ( 'wing part', 'wing part', '', ( #242 ) ) ;
#440 = ITEM_DEFINED_TRANSFORMATION ( 'NONE', 'NONE', #432,  #45 ) ;
#441 =( GEOMETRIC_REPRESENTATION_CONTEXT ( 3 ) GLOBAL_UNCERTAINTY_ASSIGNED_CONTEXT ( ( #18 ) ) GLOBAL_UNIT_ASSIGNED_CONTEXT ( ( #285, #419, #121 ) ) REPRESENTATION_CONTEXT ( 'NONE', 'WORKASPACE' ) );
#442 = CARTESIAN_POINT ( 'NONE',  ( -19.61134954018594101, -15.87212923056464220, -53.02040399499728807 ) ) ;
#443 = CARTESIAN_POINT ( 'NONE',  ( -19.61134954018688248, -15.87212923056468483, -131.0204039949972525 ) ) ;
#444 = PRODUCT_DEFINITION_FORMATION_WITH_SPECIFIED_SOURCE ( 'Symmetric', '', #193, .NOT_KNOWN. ) ;
#445 = DOCUMENT_TYPE ( 'geometry' ) ;
#446 = SHAPE_REPRESENTATION ( 'cooling', ( #304 ), #399 ) ;
#447 = ROLE_ASSOCIATION ( #435, #12 ) ;
#448 = DIRECTION ( 'NONE',  ( 0.000000000000000000, 0.000000000000000000, 1.000000000000000000 ) ) ;
#449 = IDENTIFICATION_ROLE ( 'external document id and location', $) ;
#450 = SHAPE_DEFINITION_REPRESENTATION ( #489, #476 ) ;
#451 = PRODUCT ( 'Top new', 'Top new', '', ( #414 ) ) ;
#452 = IDENTIFICATION_ROLE ( 'external document id and location', $) ;
#453 = SHAPE_DEFINITION_REPRESENTATION ( #405, #509 ) ;
#454 = AXIS2_PLACEMENT_3D ( 'NONE', #195, #157, #20 ) ;
#455 = PROPERTY_DEFINITION ('external definition','', #347 ) ;
#456 = PRODUCT_RELATED_PRODUCT_CATEGORY ( 'part', '', ( #160 ) ) ;
#457 = PRODUCT_DEFINITION_FORMATION_WITH_SPECIFIED_SOURCE ( 'Symmetric', '', #21, .NOT_KNOWN. ) ;
#458 = PRODUCT_CONTEXT ( 'NONE', #266, 'mechanical' ) ;
#459 =( GEOMETRIC_REPRESENTATION_CONTEXT ( 3 ) GLOBAL_UNCERTAINTY_ASSIGNED_CONTEXT ( ( #229 ) ) GLOBAL_UNIT_ASSIGNED_CONTEXT ( ( #295, #250, #344 ) ) REPRESENTATION_CONTEXT ( 'NONE', 'WORKASPACE' ) );
#460 =( NAMED_UNIT ( * ) SI_UNIT ( $, .STERADIAN. ) SOLID_ANGLE_UNIT ( ) );
#461 = APPLICATION_CONTEXT ( 'automotive_design' ) ;
#462 = PROPERTY_DEFINITION ('external definition','', #514 ) ;
#463 = CONTEXT_DEPENDENT_SHAPE_REPRESENTATION ( #437, #340 ) ;
#464 = PRODUCT_CONTEXT ( 'NONE', #152, 'mechanical' ) ;
#465 = PRODUCT_DEFINITION_SHAPE ( 'NONE', 'NONE',  #548 ) ;
#466 = DOCUMENT_FILE ( 'pi4withall.STEP' , '', '', #445, '' ,$ ) ;
#467 = DOCUMENT_FILE ( 'buck converter.STEP' , '', '', #168, '' ,$ ) ;
#468 = OBJECT_ROLE ('mandatory',$ ) ;
#469 =( NAMED_UNIT ( * ) PLANE_ANGLE_UNIT ( ) SI_UNIT ( $, .RADIAN. ) );
#470 = EXTERNAL_SOURCE (IDENTIFIER('') ) ;
#471 = PRODUCT_DEFINITION_SHAPE ( 'NONE', 'NONE',  #81 ) ;
#472 =( GEOMETRIC_REPRESENTATION_CONTEXT ( 3 ) GLOBAL_UNCERTAINTY_ASSIGNED_CONTEXT ( ( #155 ) ) GLOBAL_UNIT_ASSIGNED_CONTEXT ( ( #77, #294, #253 ) ) REPRESENTATION_CONTEXT ( 'NONE', 'WORKASPACE' ) );
#473 = PROPERTY_DEFINITION_REPRESENTATION ( #423, #488 ) ;
#474 = PRODUCT_DEFINITION ( 'General', '', #355, #502 ) ;
#475 = PROPERTY_DEFINITION ('document property','', #297 ) ;
#476 = SHAPE_REPRESENTATION ( 'Twist lock radio part V3', ( #34 ), #472 ) ;
#477 = APPLICATION_CONTEXT ( 'automotive_design' ) ;
#478 = ITEM_DEFINED_TRANSFORMATION ( 'NONE', 'NONE', #222,  #203 ) ;
#479 = DOCUMENT_TYPE ( 'geometry' ) ;
#480 = ROLE_ASSOCIATION ( #74, #534 ) ;
#481 = PRODUCT_RELATED_PRODUCT_CATEGORY ( 'part', '', ( #321 ) ) ;
#482 = IDENTIFICATION_ROLE ( 'external document id and location', $) ;
#483 = CONTEXT_DEPENDENT_SHAPE_REPRESENTATION ( #338, #89 ) ;
#484 = APPLICATION_PROTOCOL_DEFINITION ( 'draft international standard', 'automotive_design', 1998, #38 ) ;
#485 = PROPERTY_DEFINITION_REPRESENTATION ( #413, #446 ) ;
#486 = CARTESIAN_POINT ( 'NONE',  ( -54.61134954018687182, 5.627870769433060083, 39.65959600500295323 ) ) ;
#487 = APPLICATION_CONTEXT ( 'automotive_design' ) ;
#488 = SHAPE_REPRESENTATION ( '3D_RAK19007 base module + booster', ( #505 ), #332 ) ;
#489 = PRODUCT_DEFINITION_SHAPE ( 'NONE', 'NONE',  #474 ) ;
#490 = CONTEXT_DEPENDENT_SHAPE_REPRESENTATION ( #113, #93 ) ;
#491 = DIRECTION ( 'NONE',  ( 1.000000000000000222, -1.025861022739718541E-15, -1.053616598355358696E-15 ) ) ;
#492 = UNCERTAINTY_MEASURE_WITH_UNIT (LENGTH_MEASURE( 1.000000000000000082E-05 ), #209, 'distance_accuracy_value', 'NONE');
#493 = PRODUCT_DEFINITION ( 'General', '', #308, #521 ) ;
#494 = DIRECTION ( 'NONE',  ( 3.053113317719180486E-16, 1.000000000000000000, 1.084896061875895157E-14 ) ) ;
#495 = APPLICATION_PROTOCOL_DEFINITION ( 'draft international standard', 'automotive_design', 1998, #183 ) ;
#496 = UNCERTAINTY_MEASURE_WITH_UNIT (LENGTH_MEASURE( 1.000000000000000082E-05 ), #55, 'distance_accuracy_value', 'NONE');
#497 = SHAPE_DEFINITION_REPRESENTATION ( #319, #446 ) ;
#498 =( REPRESENTATION_RELATIONSHIP ('NONE','NONE', #134, #488 ) REPRESENTATION_RELATIONSHIP_WITH_TRANSFORMATION ( #431 )SHAPE_REPRESENTATION_RELATIONSHIP( ) );
#499 = AXIS2_PLACEMENT_3D ( 'NONE', #268, #448, #438 ) ;
#500 = APPLICATION_PROTOCOL_DEFINITION ( 'draft international standard', 'automotive_design', 1998, #141 ) ;
#501 = PROPERTY_DEFINITION ('document property','', #467 ) ;
#502 = PRODUCT_DEFINITION_CONTEXT ( 'detailed design', #461, 'design' ) ;
#503 = PRODUCT_DEFINITION_FORMATION_WITH_SPECIFIED_SOURCE ( 'Symmetric', '', #160, .NOT_KNOWN. ) ;
#504 = APPLICATION_PROTOCOL_DEFINITION ( 'draft international standard', 'automotive_design', 1998, #152 ) ;
#505 = AXIS2_PLACEMENT_3D ( 'NONE', #517, #139, #306 ) ;
#506 = DIRECTION ( 'NONE',  ( 1.000000000000000000, 0.000000000000000000, 0.000000000000000000 ) ) ;
#507 = PRODUCT_CONTEXT ( 'NONE', #30, 'mechanical' ) ;
#508 =( REPRESENTATION_RELATIONSHIP ('NONE','NONE', #134, #392 ) REPRESENTATION_RELATIONSHIP_WITH_TRANSFORMATION ( #478 )SHAPE_REPRESENTATION_RELATIONSHIP( ) );
#509 = SHAPE_REPRESENTATION ( 'middel part', ( #283 ), #427 ) ;
#510 = SHAPE_DEFINITION_REPRESENTATION ( #417, #218 ) ;
#511 = CARTESIAN_POINT ( 'NONE',  ( 0.000000000000000000, 0.000000000000000000, 0.000000000000000000 ) ) ;
#512 = PRODUCT ( 'pi4withall', 'pi4withall', '', ( #415 ) ) ;
#513 = CARTESIAN_POINT ( 'NONE',  ( 0.000000000000000000, 0.000000000000000000, 0.000000000000000000 ) ) ;
#514 = DOCUMENT_FILE ( 'Top new.STEP' , '', '', #391, '' ,$ ) ;
#515 = DIRECTION ( 'NONE',  ( 1.000000000000000000, 0.000000000000000000, 0.000000000000000000 ) ) ;
#516 = PROPERTY_DEFINITION ('document property','', #61 ) ;
#517 = CARTESIAN_POINT ( 'NONE',  ( 0.000000000000000000, 0.000000000000000000, 0.000000000000000000 ) ) ;
#518 =( REPRESENTATION_RELATIONSHIP ('NONE','NONE', #134, #110 ) REPRESENTATION_RELATIONSHIP_WITH_TRANSFORMATION ( #386 )SHAPE_REPRESENTATION_RELATIONSHIP( ) );
#519 = ROLE_ASSOCIATION ( #288, #251 ) ;
#520 =( NAMED_UNIT ( * ) SI_UNIT ( $, .STERADIAN. ) SOLID_ANGLE_UNIT ( ) );
#521 = PRODUCT_DEFINITION_CONTEXT ( 'detailed design', #71, 'design' ) ;
#522 = CONTEXT_DEPENDENT_SHAPE_REPRESENTATION ( #41, #371 ) ;
#523 = OBJECT_ROLE ('mandatory',$ ) ;
#524 =( NAMED_UNIT ( * ) PLANE_ANGLE_UNIT ( ) SI_UNIT ( $, .RADIAN. ) );
#525 = APPLIED_EXTERNAL_IDENTIFICATION_ASSIGNMENT ( 'PCB frame.STEP' , #46, #221,( #358) ) ;
#526 = APPLICATION_CONTEXT ( 'automotive_design' ) ;
#527 = SHAPE_REPRESENTATION ( 'batcase', ( #45 ), #120 ) ;
#528 = DOCUMENT_FILE ( 'middel part.STEP' , '', '', #409, '' ,$ ) ;
#529 = DIRECTION ( 'NONE',  ( 1.000000000000000000, -5.916456789157653000E-30, 5.916456789157524081E-30 ) ) ;
#530 = PRODUCT_DEFINITION_SHAPE ( 'NONE', 'NONE',  #213 ) ;
#531 = APPLIED_EXTERNAL_IDENTIFICATION_ASSIGNMENT ( 'Top new.STEP' , #273, #296,( #514) ) ;
#532 = PROPERTY_DEFINITION_REPRESENTATION ( #164, #72 ) ;
#533 = DIRECTION ( 'NONE',  ( 1.000000000000000000, -5.709718412357987788E-16, -1.526556658859590490E-16 ) ) ;
#534 = APPLIED_DOCUMENT_REFERENCE ( #314,'',( #493) ) ;
#535 = DIRECTION ( 'NONE',  ( 8.368306048112114268E-15, -1.000000000000000000, 7.285838599102652905E-16 ) ) ;
#536 = APPLIED_EXTERNAL_IDENTIFICATION_ASSIGNMENT ( 'middel part.STEP' , #339, #23,( #528) ) ;
#537 = DIRECTION ( 'NONE',  ( -3.697785493223492838E-32, 1.065814103640150279E-14, -1.000000000000000000 ) ) ;
#538 = EXTERNAL_SOURCE (IDENTIFIER('') ) ;
#539 = PRODUCT_DEFINITION_SHAPE ( 'NONE', 'NONE',  #348 ) ;
#540 = PRODUCT_RELATED_PRODUCT_CATEGORY ( 'part', '', ( #362 ) ) ;
#541 = APPLICATION_PROTOCOL_DEFINITION ( 'draft international standard', 'automotive_design', 1998, #82 ) ;
#542 =( NAMED_UNIT ( * ) PLANE_ANGLE_UNIT ( ) SI_UNIT ( $, .RADIAN. ) );
#543 = DOCUMENT_TYPE ( 'geometry' ) ;
#544 = PRODUCT_DEFINITION_CONTEXT ( 'detailed design', #54, 'design' ) ;
#545 = PROPERTY_DEFINITION ('external definition','', #422 ) ;
#546 = OBJECT_ROLE ('mandatory',$ ) ;
#547 = NEXT_ASSEMBLY_USAGE_OCCURRENCE ( 'NAUO1', ' ', ' ', #247, #126, $ ) ;
#548 = NEXT_ASSEMBLY_USAGE_OCCURRENCE ( 'NAUO2', ' ', ' ', #247, #81, $ ) ;
#549 = NEXT_ASSEMBLY_USAGE_OCCURRENCE ( 'NAUO3', ' ', ' ', #247, #65, $ ) ;
#550 = NEXT_ASSEMBLY_USAGE_OCCURRENCE ( 'NAUO4', ' ', ' ', #247, #378, $ ) ;
#551 = NEXT_ASSEMBLY_USAGE_OCCURRENCE ( 'NAUO5', ' ', ' ', #247, #348, $ ) ;
#552 = NEXT_ASSEMBLY_USAGE_OCCURRENCE ( 'NAUO6', ' ', ' ', #247, #184, $ ) ;
#553 = NEXT_ASSEMBLY_USAGE_OCCURRENCE ( 'NAUO7', ' ', ' ', #247, #474, $ ) ;
#554 = NEXT_ASSEMBLY_USAGE_OCCURRENCE ( 'NAUO8', ' ', ' ', #247, #6, $ ) ;
#555 = NEXT_ASSEMBLY_USAGE_OCCURRENCE ( 'NAUO9', ' ', ' ', #247, #131, $ ) ;
#556 = NEXT_ASSEMBLY_USAGE_OCCURRENCE ( 'NAUO10', ' ', ' ', #247, #493, $ ) ;
#557 = NEXT_ASSEMBLY_USAGE_OCCURRENCE ( 'NAUO11', ' ', ' ', #247, #111, $ ) ;
#558 = NEXT_ASSEMBLY_USAGE_OCCURRENCE ( 'NAUO12', ' ', ' ', #247, #213, $ ) ;
#559 = NEXT_ASSEMBLY_USAGE_OCCURRENCE ( 'NAUO13', ' ', ' ', #247, #348, $ ) ;
ENDSEC;
END-ISO-10303-21;
