ISO-10303-21;
HEADER;
FILE_DESCRIPTION (( 'STEP AP214' ),
    '1' );
FILE_NAME ('wing part.STEP',
    '2026-06-18T19:13:33',
    ( '' ),
    ( '' ),
    'SwSTEP 2.0',
    'SolidWorks 2025',
    '' );
FILE_SCHEMA (( 'AUTOMOTIVE_DESIGN' ));
ENDSEC;

DATA;
#1 = CARTESIAN_POINT ( 'NONE',  ( 0.000000000000000000, 0.000000000000000000, -18.80000000000000426 ) ) ;
#2 = EDGE_LOOP ( 'NONE', ( #477, #314, #344, #296 ) ) ;
#3 = AXIS2_PLACEMENT_3D ( 'NONE', #443, #91, #56 ) ;
#4 = LINE ( 'NONE', #1, #101 ) ;
#5 = EDGE_LOOP ( 'NONE', ( #481, #148, #463, #445, #164, #387 ) ) ;
#6 = DIRECTION ( 'NONE',  ( 0.000000000000000000, 0.000000000000000000, -1.000000000000000000 ) ) ;
#7 = ORIENTED_EDGE ( 'NONE', *, *, #335, .F. ) ;
#8 = EDGE_CURVE ( 'NONE', #79, #461, #382, .T. ) ;
#9 = DIRECTION ( 'NONE',  ( 0.000000000000000000, 0.000000000000000000, 1.000000000000000000 ) ) ;
#10 = ORIENTED_EDGE ( 'NONE', *, *, #57, .T. ) ;
#11 = AXIS2_PLACEMENT_3D ( 'NONE', #474, #483, #326 ) ;
#12 = DIRECTION ( 'NONE',  ( 1.000000000000000000, 0.000000000000000000, -8.360113137237622009E-16 ) ) ;
#13 = CARTESIAN_POINT ( 'NONE',  ( -31.26109752017105237, 3.480000000000000426, -9.399999999999998579 ) ) ;
#14 = VECTOR ( 'NONE', #420, 1000.000000000000000 ) ;
#15 = CARTESIAN_POINT ( 'NONE',  ( -12.48238616928225220, 3.480000000000000426, -18.80000000000000426 ) ) ;
#16 = CARTESIAN_POINT ( 'NONE',  ( 0.000000000000000000, 2.080000000000000071, -14.65000000000000391 ) ) ;
#17 = APPLICATION_CONTEXT ( 'automotive_design' ) ;
#18 = FACE_OUTER_BOUND ( 'NONE', #285, .T. ) ;
#19 = EDGE_CURVE ( 'NONE', #316, #488, #133, .T. ) ;
#20 = CARTESIAN_POINT ( 'NONE',  ( -10.16758907723458094, 2.566265317901800014, -6.984275810640244053 ) ) ;
#21 = AXIS2_PLACEMENT_3D ( 'NONE', #212, #12, #96 ) ;
#22 = CIRCLE ( 'NONE', #85, 21.00000000000000000 ) ;
#23 = CARTESIAN_POINT ( 'NONE',  ( -5.089999999999999858, 2.080000000000000071, -7.639001622458086338 ) ) ;
#24 = CARTESIAN_POINT ( 'NONE',  ( 0.000000000000000000, 0.000000000000000000, 0.000000000000000000 ) ) ;
#25 = VERTEX_POINT ( 'NONE', #132 ) ;
#26 = EDGE_CURVE ( 'NONE', #89, #200, #369, .T. ) ;
#27 = DIRECTION ( 'NONE',  ( 0.000000000000000000, -0.8000000000000003775, -0.5999999999999994227 ) ) ;
#28 = EDGE_LOOP ( 'NONE', ( #357, #293, #195, #50 ) ) ;
#29 = SHAPE_DEFINITION_REPRESENTATION ( #345, #193 ) ;
#30 = PLANE ( 'NONE',  #292 ) ;
#31 = VERTEX_POINT ( 'NONE', #401 ) ;
#32 =( GEOMETRIC_REPRESENTATION_CONTEXT ( 3 ) GLOBAL_UNCERTAINTY_ASSIGNED_CONTEXT ( ( #201 ) ) GLOBAL_UNIT_ASSIGNED_CONTEXT ( ( #67, #376, #458 ) ) REPRESENTATION_CONTEXT ( 'NONE', 'WORKASPACE' ) );
#33 = CARTESIAN_POINT ( 'NONE',  ( 0.000000000000000000, 0.000000000000000000, -14.65000000000000391 ) ) ;
#34 = EDGE_CURVE ( 'NONE', #41, #389, #415, .T. ) ;
#35 = DIRECTION ( 'NONE',  ( 0.000000000000000000, 1.000000000000000000, -0.000000000000000000 ) ) ;
#36 =( BOUNDED_CURVE ( )  B_SPLINE_CURVE ( 3, ( #467, #78, #43, #386 ),
 .UNSPECIFIED., .F., .T. ) 
 B_SPLINE_CURVE_WITH_KNOTS ( ( 4, 4 ),
 ( 1.570796326794897002, 2.110970897101469568 ),
 .UNSPECIFIED. ) 
 CURVE ( )  GEOMETRIC_REPRESENTATION_ITEM ( )  RATIONAL_B_SPLINE_CURVE ( ( 1.000000000000000000, 0.9758317406668284288, 0.9758317406668284288, 1.000000000000000000 ) ) 
 REPRESENTATION_ITEM ( '' )  );
#37 = FILL_AREA_STYLE_COLOUR ( '', #425 ) ;
#38 = EDGE_LOOP ( 'NONE', ( #406, #279, #317, #298 ) ) ;
#39 = AXIS2_PLACEMENT_3D ( 'NONE', #155, #469, #6 ) ;
#40 = CARTESIAN_POINT ( 'NONE',  ( 0.000000000000000000, 2.080000000000000071, 0.000000000000000000 ) ) ;
#41 = VERTEX_POINT ( 'NONE', #438 ) ;
#42 = ADVANCED_FACE ( 'NONE', ( #100 ), #336, .T. ) ;
#43 = CARTESIAN_POINT ( 'NONE',  ( -13.55821503445070064, 3.054437964602608080, -11.14174959593633751 ) ) ;
#44 = ORIENTED_EDGE ( 'NONE', *, *, #327, .T. ) ;
#45 = PLANE ( 'NONE',  #323 ) ;
#46 = AXIS2_PLACEMENT_3D ( 'NONE', #437, #92, #250 ) ;
#47 = ORIENTED_EDGE ( 'NONE', *, *, #143, .T. ) ;
#48 = AXIS2_PLACEMENT_3D ( 'NONE', #214, #325, #64 ) ;
#49 = PRODUCT_DEFINITION_FORMATION_WITH_SPECIFIED_SOURCE ( 'Symmetric', '', #226, .NOT_KNOWN. ) ;
#50 = ORIENTED_EDGE ( 'NONE', *, *, #399, .F. ) ;
#51 = DIRECTION ( 'NONE',  ( -0.000000000000000000, -1.000000000000000000, -0.000000000000000000 ) ) ;
#52 = ORIENTED_EDGE ( 'NONE', *, *, #179, .F. ) ;
#53 = FACE_OUTER_BOUND ( 'NONE', #271, .T. ) ;
#54 = DIRECTION ( 'NONE',  ( -0.000000000000000000, -1.000000000000000000, 0.000000000000000000 ) ) ;
#55 = CARTESIAN_POINT ( 'NONE',  ( -14.43479157272468605, 3.480000000000000426, -14.20889053347350028 ) ) ;
#56 = DIRECTION ( 'NONE',  ( 0.000000000000000000, 0.000000000000000000, 1.000000000000000000 ) ) ;
#57 = EDGE_CURVE ( 'NONE', #200, #89, #151, .T. ) ;
#58 = CARTESIAN_POINT ( 'NONE',  ( -12.48238616928225220, 3.480000000000000426, -18.80000000000000426 ) ) ;
#59 = ORIENTED_EDGE ( 'NONE', *, *, #419, .F. ) ;
#60 = CARTESIAN_POINT ( 'NONE',  ( -4.400000000000001243, 0.000000000000000000, -18.80000000000000426 ) ) ;
#61 = CARTESIAN_POINT ( 'NONE',  ( -10.04150871114264021, 3.040655442366935191, -10.10772351031061156 ) ) ;
#62 = AXIS2_PLACEMENT_3D ( 'NONE', #163, #134, #321 ) ;
#63 = DIRECTION ( 'NONE',  ( -0.000000000000000000, -1.000000000000000000, -0.000000000000000000 ) ) ;
#64 = DIRECTION ( 'NONE',  ( 0.000000000000000000, 0.000000000000000000, 1.000000000000000000 ) ) ;
#65 = CARTESIAN_POINT ( 'NONE',  ( 0.000000000000000000, 2.080000000000000071, 0.000000000000000000 ) ) ;
#66 = CARTESIAN_POINT ( 'NONE',  ( -31.26109752017105237, 3.480000000000000426, -9.399999999999998579 ) ) ;
#67 =( LENGTH_UNIT ( ) NAMED_UNIT ( * ) SI_UNIT ( .MILLI., .METRE. ) );
#68 = AXIS2_PLACEMENT_3D ( 'NONE', #13, #54, #409 ) ;
#69 = CARTESIAN_POINT ( 'NONE',  ( -5.089999999999999858, 0.000000000000000000, -12.40300136424639810 ) ) ;
#70 = EDGE_CURVE ( 'NONE', #93, #170, #206, .T. ) ;
#71 = DIRECTION ( 'NONE',  ( -0.000000000000000000, -1.000000000000000000, -0.000000000000000000 ) ) ;
#72 = DIRECTION ( 'NONE',  ( 0.000000000000000000, 0.000000000000000000, -1.000000000000000000 ) ) ;
#73 = ORIENTED_EDGE ( 'NONE', *, *, #196, .T. ) ;
#74 = FACE_OUTER_BOUND ( 'NONE', #2, .T. ) ;
#75 = ADVANCED_FACE ( 'NONE', ( #167 ), #130, .T. ) ;
#76 = EDGE_LOOP ( 'NONE', ( #470, #237, #125, #319 ) ) ;
#77 = CIRCLE ( 'NONE', #311, 17.50000000000000000 ) ;
#78 = CARTESIAN_POINT ( 'NONE',  ( -13.53177741227093378, 2.576213443695146932, -7.951915586100995803 ) ) ;
#79 = VERTEX_POINT ( 'NONE', #370 ) ;
#80 = AXIS2_PLACEMENT_3D ( 'NONE', #178, #152, #411 ) ;
#81 = DIRECTION ( 'NONE',  ( -1.000000000000000000, 0.000000000000000000, -0.000000000000000000 ) ) ;
#82 = VERTEX_POINT ( 'NONE', #24 ) ;
#83 = PRESENTATION_LAYER_ASSIGNMENT (  '', '', ( #149 ) ) ;
#84 = VERTEX_POINT ( 'NONE', #334 ) ;
#85 = AXIS2_PLACEMENT_3D ( 'NONE', #66, #181, #383 ) ;
#86 = VECTOR ( 'NONE', #233, 1000.000000000000000 ) ;
#87 = EDGE_CURVE ( 'NONE', #391, #253, #364, .T. ) ;
#88 = CARTESIAN_POINT ( 'NONE',  ( -4.400000000000001243, 2.080000000000000071, -18.80000000000000426 ) ) ;
#89 = VERTEX_POINT ( 'NONE', #414 ) ;
#90 = CARTESIAN_POINT ( 'NONE',  ( -16.50000000000000000, 0.000000000000000000, -18.80000000000000426 ) ) ;
#91 = DIRECTION ( 'NONE',  ( -0.000000000000000000, -1.000000000000000000, -0.000000000000000000 ) ) ;
#92 = DIRECTION ( 'NONE',  ( 0.000000000000000000, 1.000000000000000000, -0.000000000000000000 ) ) ;
#93 = VERTEX_POINT ( 'NONE', #495 ) ;
#94 = CARTESIAN_POINT ( 'NONE',  ( -5.089999999999999858, 2.080000000000000071, -7.639001622458086338 ) ) ;
#95 = ORIENTED_EDGE ( 'NONE', *, *, #221, .T. ) ;
#96 = DIRECTION ( 'NONE',  ( -8.360113137237622009E-16, 0.000000000000000000, -1.000000000000000000 ) ) ;
#97 = DIRECTION ( 'NONE',  ( -0.000000000000000000, -1.000000000000000000, -0.000000000000000000 ) ) ;
#98 = EDGE_CURVE ( 'NONE', #389, #41, #223, .T. ) ;
#99 = DIRECTION ( 'NONE',  ( 0.9659258262890680902, 0.000000000000000000, 0.2588190451025211836 ) ) ;
#100 = FACE_OUTER_BOUND ( 'NONE', #5, .T. ) ;
#101 = VECTOR ( 'NONE', #355, 1000.000000000000000 ) ;
#102 = DIRECTION ( 'NONE',  ( 0.000000000000000000, 0.000000000000000000, 1.000000000000000000 ) ) ;
#103 = DIRECTION ( 'NONE',  ( 8.360113137237622995E-16, 0.000000000000000000, 1.000000000000000000 ) ) ;
#104 = CARTESIAN_POINT ( 'NONE',  ( -4.400000000000001243, 2.080000000000000071, -18.80000000000000426 ) ) ;
#105 = ORIENTED_EDGE ( 'NONE', *, *, #196, .F. ) ;
#106 = LINE ( 'NONE', #491, #278 ) ;
#107 = EDGE_CURVE ( 'NONE', #79, #348, #22, .T. ) ;
#108 = VECTOR ( 'NONE', #103, 1000.000000000000000 ) ;
#109 = AXIS2_PLACEMENT_3D ( 'NONE', #305, #268, #102 ) ;
#110 = DIRECTION ( 'NONE',  ( 0.000000000000000000, 0.000000000000000000, -1.000000000000000000 ) ) ;
#111 = ORIENTED_EDGE ( 'NONE', *, *, #435, .T. ) ;
#112 = UNCERTAINTY_MEASURE_WITH_UNIT (LENGTH_MEASURE( 1.000000000000000082E-05 ), #229, 'distance_accuracy_value', 'NONE');
#113 = DIRECTION ( 'NONE',  ( 1.000000000000000000, -0.000000000000000000, 0.000000000000000000 ) ) ;
#114 = EDGE_CURVE ( 'NONE', #457, #31, #184, .T. ) ;
#115 = FACE_OUTER_BOUND ( 'NONE', #281, .T. ) ;
#116 = ORIENTED_EDGE ( 'NONE', *, *, #114, .T. ) ;
#117 = CARTESIAN_POINT ( 'NONE',  ( -5.089999999999999858, 2.080000000000000071, -9.271001493352237333 ) ) ;
#118 = ORIENTED_EDGE ( 'NONE', *, *, #482, .F. ) ;
#119 = EDGE_LOOP ( 'NONE', ( #218, #276 ) ) ;
#120 = PRESENTATION_LAYER_ASSIGNMENT (  '', '', ( #209 ) ) ;
#121 = CARTESIAN_POINT ( 'NONE',  ( -5.089999999999999858, 2.080000000000000071, -9.271001493352237333 ) ) ;
#122 = EDGE_LOOP ( 'NONE', ( #240, #244, #307, #73 ) ) ;
#123 = ADVANCED_FACE ( 'NONE', ( #270 ), #30, .F. ) ;
#124 = AXIS2_PLACEMENT_3D ( 'NONE', #131, #400, #255 ) ;
#125 = ORIENTED_EDGE ( 'NONE', *, *, #176, .T. ) ;
#126 = CARTESIAN_POINT ( 'NONE',  ( -4.399999999999997691, 2.080000000000000071, -14.65000000000000391 ) ) ;
#127 = ORIENTED_EDGE ( 'NONE', *, *, #299, .T. ) ;
#128 = LINE ( 'NONE', #136, #301 ) ;
#129 = EDGE_CURVE ( 'NONE', #441, #421, #352, .T. ) ;
#130 = PLANE ( 'NONE',  #215 ) ;
#131 = CARTESIAN_POINT ( 'NONE',  ( -5.089999999999999858, 2.080000000000000071, -9.271001493352237333 ) ) ;
#132 = CARTESIAN_POINT ( 'NONE',  ( 0.000000000000000000, 2.080000000000000071, 0.000000000000000000 ) ) ;
#133 = CIRCLE ( 'NONE', #68, 17.50000000000000000 ) ;
#134 = DIRECTION ( 'NONE',  ( 0.000000000000000000, 1.000000000000000000, -0.000000000000000000 ) ) ;
#135 = DIRECTION ( 'NONE',  ( -1.000000000000000000, 0.000000000000000000, -0.000000000000000000 ) ) ;
#136 = CARTESIAN_POINT ( 'NONE',  ( -5.089999999999999858, 0.000000000000000000, -6.139001622458076568 ) ) ;
#137 = ORIENTED_EDGE ( 'NONE', *, *, #98, .F. ) ;
#138 = ADVANCED_FACE ( 'NONE', ( #225, #338 ), #144, .T. ) ;
#139 = ORIENTED_EDGE ( 'NONE', *, *, #87, .F. ) ;
#140 = CARTESIAN_POINT ( 'NONE',  ( -5.089999999999999858, 2.000000000000016431, -10.90300136424638744 ) ) ;
#141 = ORIENTED_EDGE ( 'NONE', *, *, #107, .T. ) ;
#142 = VECTOR ( 'NONE', #262, 1000.000000000000000 ) ;
#143 = EDGE_CURVE ( 'NONE', #391, #93, #185, .T. ) ;
#144 = PLANE ( 'NONE',  #173 ) ;
#145 = EDGE_LOOP ( 'NONE', ( #249, #475 ) ) ;
#146 = PRESENTATION_STYLE_ASSIGNMENT (( #182 ) ) ;
#147 = DIRECTION ( 'NONE',  ( 1.000000000000000000, 0.000000000000000000, 0.000000000000000000 ) ) ;
#148 = ORIENTED_EDGE ( 'NONE', *, *, #449, .F. ) ;
#149 = STYLED_ITEM ( 'NONE', ( #146 ), #193 ) ;
#150 = CARTESIAN_POINT ( 'NONE',  ( -4.399999999999985256, 2.080000000000000071, 3.678449780384541772E-15 ) ) ;
#151 = CIRCLE ( 'NONE', #3, 1.631999870894150551 ) ;
#152 = DIRECTION ( 'NONE',  ( -0.000000000000000000, -1.000000000000000000, -0.000000000000000000 ) ) ;
#153 = VECTOR ( 'NONE', #496, 1000.000000000000000 ) ;
#154 = SURFACE_STYLE_FILL_AREA ( #188 ) ;
#155 = CARTESIAN_POINT ( 'NONE',  ( -5.089999999999999858, 0.000000000000000000, -9.271001493352237333 ) ) ;
#156 = ORIENTED_EDGE ( 'NONE', *, *, #498, .F. ) ;
#157 = DIRECTION ( 'NONE',  ( 0.000000000000000000, 0.000000000000000000, -1.000000000000000000 ) ) ;
#158 = ORIENTED_EDGE ( 'NONE', *, *, #213, .F. ) ;
#159 = PRESENTATION_STYLE_ASSIGNMENT (( #239 ) ) ;
#160 = ADVANCED_FACE ( 'NONE', ( #487 ), #343, .T. ) ;
#161 = ORIENTED_EDGE ( 'NONE', *, *, #19, .T. ) ;
#162 = ORIENTED_EDGE ( 'NONE', *, *, #498, .T. ) ;
#163 = CARTESIAN_POINT ( 'NONE',  ( -31.26109752017105237, 0.000000000000000000, -9.399999999999998579 ) ) ;
#164 = ORIENTED_EDGE ( 'NONE', *, *, #335, .T. ) ;
#165 = PRODUCT_DEFINITION_CONTEXT ( 'detailed design', #17, 'design' ) ;
#166 = DIRECTION ( 'NONE',  ( 0.000000000000000000, 0.000000000000000000, 1.000000000000000000 ) ) ;
#167 = FACE_OUTER_BOUND ( 'NONE', #38, .T. ) ;
#168 = AXIS2_PLACEMENT_3D ( 'NONE', #65, #147, #72 ) ;
#169 = DIRECTION ( 'NONE',  ( 7.347880794884112834E-17, -0.8000000000000003775, 0.5999999999999994227 ) ) ;
#170 = VERTEX_POINT ( 'NONE', #459 ) ;
#171 = LINE ( 'NONE', #295, #234 ) ;
#172 = DIRECTION ( 'NONE',  ( 0.000000000000000000, 0.000000000000000000, 1.000000000000000000 ) ) ;
#173 = AXIS2_PLACEMENT_3D ( 'NONE', #379, #339, #453 ) ;
#174 = DIRECTION ( 'NONE',  ( 0.000000000000000000, 1.000000000000000000, -0.000000000000000000 ) ) ;
#175 = CARTESIAN_POINT ( 'NONE',  ( -10.97665516810061881, 2.080000000000000071, -3.964800052847051504 ) ) ;
#176 = EDGE_CURVE ( 'NONE', #200, #389, #260, .T. ) ;
#177 = EDGE_LOOP ( 'NONE', ( #380, #118, #424, #360, #497, #190, #156, #7 ) ) ;
#178 = CARTESIAN_POINT ( 'NONE',  ( -31.26109752017105237, 3.480000000000000426, -9.399999999999998579 ) ) ;
#179 = EDGE_CURVE ( 'NONE', #466, #253, #106, .T. ) ;
#180 = APPLICATION_PROTOCOL_DEFINITION ( 'draft international standard', 'automotive_design', 1998, #17 ) ;
#181 = DIRECTION ( 'NONE',  ( 0.000000000000000000, 1.000000000000000000, -0.000000000000000000 ) ) ;
#182 = SURFACE_STYLE_USAGE ( .BOTH. , #227 ) ;
#183 = MECHANICAL_DESIGN_GEOMETRIC_PRESENTATION_REPRESENTATION (  '', ( #209 ), #447 ) ;
#184 = LINE ( 'NONE', #228, #392 ) ;
#185 = LINE ( 'NONE', #312, #14 ) ;
#186 = ADVANCED_FACE ( 'NONE', ( #220 ), #417, .T. ) ;
#187 = VECTOR ( 'NONE', #476, 1000.000000000000114 ) ;
#188 = FILL_AREA_STYLE ('',( #37 ) ) ;
#189 = CONICAL_SURFACE ( 'NONE', #494, 3.131999870894160320, 0.6435011087932837048 ) ;
#190 = ORIENTED_EDGE ( 'NONE', *, *, #143, .F. ) ;
#191 = DIRECTION ( 'NONE',  ( 0.000000000000000000, 0.000000000000000000, 1.000000000000000000 ) ) ;
#192 = ORIENTED_EDGE ( 'NONE', *, *, #428, .T. ) ;
#193 = ADVANCED_BREP_SHAPE_REPRESENTATION ( 'wing part', ( #230, #224 ), #455 ) ;
#194 = CARTESIAN_POINT ( 'NONE',  ( -5.089999999999999858, 0.000000000000000000, -9.271001493352237333 ) ) ;
#195 = ORIENTED_EDGE ( 'NONE', *, *, #493, .T. ) ;
#196 = EDGE_CURVE ( 'NONE', #25, #82, #341, .T. ) ;
#197 =( LENGTH_UNIT ( ) NAMED_UNIT ( * ) SI_UNIT ( .MILLI., .METRE. ) );
#198 = EDGE_LOOP ( 'NONE', ( #303, #105, #247, #116 ) ) ;
#199 = CYLINDRICAL_SURFACE ( 'NONE', #410, 1.631999870894150551 ) ;
#200 = VERTEX_POINT ( 'NONE', #140 ) ;
#201 = UNCERTAINTY_MEASURE_WITH_UNIT (LENGTH_MEASURE( 1.000000000000000082E-05 ), #67, 'distance_accuracy_value', 'NONE');
#202 = LINE ( 'NONE', #40, #371 ) ;
#203 = ORIENTED_EDGE ( 'NONE', *, *, #361, .T. ) ;
#204 = EDGE_CURVE ( 'NONE', #253, #170, #302, .T. ) ;
#205 = LINE ( 'NONE', #23, #479 ) ;
#206 = LINE ( 'NONE', #16, #331 ) ;
#207 = LINE ( 'NONE', #150, #108 ) ;
#208 = DIRECTION ( 'NONE',  ( -0.03978230059144267916, 0.9881164689548813662, 0.1484695670492412467 ) ) ;
#209 = STYLED_ITEM ( 'NONE', ( #159 ), #230 ) ;
#210 = CARTESIAN_POINT ( 'NONE',  ( -5.089999999999999858, 2.080000000000000071, -10.90300136424638744 ) ) ;
#211 = EDGE_LOOP ( 'NONE', ( #235, #139, #47, #413 ) ) ;
#212 = CARTESIAN_POINT ( 'NONE',  ( -4.399999999999985256, 2.080000000000000071, 3.678449780384541772E-15 ) ) ;
#213 = EDGE_CURVE ( 'NONE', #273, #466, #232, .T. ) ;
#214 = CARTESIAN_POINT ( 'NONE',  ( -5.089999999999999858, 0.000000000000000000, -9.271001493352237333 ) ) ;
#215 = AXIS2_PLACEMENT_3D ( 'NONE', #290, #208, #256 ) ;
#216 = CONICAL_SURFACE ( 'NONE', #39, 3.131999870894160320, 0.6435011087932837048 ) ;
#217 = LINE ( 'NONE', #372, #266 ) ;
#218 = ORIENTED_EDGE ( 'NONE', *, *, #98, .T. ) ;
#219 = SURFACE_STYLE_FILL_AREA ( #489 ) ;
#220 = FACE_OUTER_BOUND ( 'NONE', #28, .T. ) ;
#221 = EDGE_CURVE ( 'NONE', #348, #316, #454, .T. ) ;
#222 = DIRECTION ( 'NONE',  ( 8.360113137237622995E-16, 0.000000000000000000, 1.000000000000000000 ) ) ;
#223 = CIRCLE ( 'NONE', #109, 3.131999870894160320 ) ;
#224 = AXIS2_PLACEMENT_3D ( 'NONE', #269, #264, #418 ) ;
#225 = FACE_OUTER_BOUND ( 'NONE', #177, .T. ) ;
#226 = PRODUCT ( 'wing part', 'wing part', '', ( #381 ) ) ;
#227 = SURFACE_SIDE_STYLE ('',( #219 ) ) ;
#228 = CARTESIAN_POINT ( 'NONE',  ( -16.49999999999999645, 2.080000000000000071, 0.000000000000000000 ) ) ;
#229 =( LENGTH_UNIT ( ) NAMED_UNIT ( * ) SI_UNIT ( .MILLI., .METRE. ) );
#230 = MANIFOLD_SOLID_BREP ( 'Chamfer2', #310 ) ;
#231 = ADVANCED_FACE ( 'NONE', ( #115 ), #377, .T. ) ;
#232 = LINE ( 'NONE', #104, #403 ) ;
#233 = DIRECTION ( 'NONE',  ( 1.000000000000000000, -0.000000000000000000, 0.000000000000000000 ) ) ;
#234 = VECTOR ( 'NONE', #365, 1000.000000000000000 ) ;
#235 = ORIENTED_EDGE ( 'NONE', *, *, #204, .F. ) ;
#236 = CARTESIAN_POINT ( 'NONE',  ( -31.26109752017105237, 2.080000000000000071, -9.399999999999998579 ) ) ;
#237 = ORIENTED_EDGE ( 'NONE', *, *, #57, .F. ) ;
#238 = ADVANCED_FACE ( 'NONE', ( #245 ), #216, .F. ) ;
#239 = SURFACE_STYLE_USAGE ( .BOTH. , #446 ) ;
#240 = ORIENTED_EDGE ( 'NONE', *, *, #408, .F. ) ;
#241 = COLOUR_RGB ( '',0.7960784313725489669, 0.8235294117647058432, 0.9372549019607843146 ) ;
#242 = FACE_OUTER_BOUND ( 'NONE', #211, .T. ) ;
#243 = AXIS2_PLACEMENT_3D ( 'NONE', #300, #332, #135 ) ;
#244 = ORIENTED_EDGE ( 'NONE', *, *, #70, .F. ) ;
#245 = FACE_OUTER_BOUND ( 'NONE', #468, .T. ) ;
#246 = ADVANCED_FACE ( 'NONE', ( #74 ), #199, .F. ) ;
#247 = ORIENTED_EDGE ( 'NONE', *, *, #320, .F. ) ;
#248 = PLANE ( 'NONE',  #11 ) ;
#249 = ORIENTED_EDGE ( 'NONE', *, *, #129, .F. ) ;
#250 = DIRECTION ( 'NONE',  ( 0.000000000000000000, 0.000000000000000000, 1.000000000000000000 ) ) ;
#251 = CARTESIAN_POINT ( 'NONE',  ( -10.60457214312674701, 3.480000000000000426, -13.18258633047873474 ) ) ;
#252 = CARTESIAN_POINT ( 'NONE',  ( -5.089999999999999858, 2.080000000000000071, -10.90300136424638744 ) ) ;
#253 = VERTEX_POINT ( 'NONE', #423 ) ;
#254 = ADVANCED_FACE ( 'NONE', ( #277 ), #189, .F. ) ;
#255 = DIRECTION ( 'NONE',  ( 0.000000000000000000, 0.000000000000000000, -1.000000000000000000 ) ) ;
#256 = DIRECTION ( 'NONE',  ( -0.9659258262890680902, 0.000000000000000000, -0.2588190451025211281 ) ) ;
#257 = LINE ( 'NONE', #252, #330 ) ;
#258 = DIRECTION ( 'NONE',  ( -0.000000000000000000, -1.000000000000000000, -0.000000000000000000 ) ) ;
#259 = PRODUCT_DEFINITION ( 'General', '', #49, #165 ) ;
#260 = LINE ( 'NONE', #69, #451 ) ;
#261 = FILL_AREA_STYLE_COLOUR ( '', #241 ) ;
#262 = DIRECTION ( 'NONE',  ( -1.000000000000000000, 0.000000000000000000, 0.000000000000000000 ) ) ;
#263 = EDGE_LOOP ( 'NONE', ( #404, #351, #398, #427, #433, #395 ) ) ;
#264 = DIRECTION ( 'NONE',  ( 0.000000000000000000, 0.000000000000000000, 1.000000000000000000 ) ) ;
#265 = CARTESIAN_POINT ( 'NONE',  ( 0.000000000000000000, 2.080000000000000071, 0.000000000000000000 ) ) ;
#266 = VECTOR ( 'NONE', #166, 1000.000000000000000 ) ;
#267 = AXIS2_PLACEMENT_3D ( 'NONE', #366, #258, #172 ) ;
#268 = DIRECTION ( 'NONE',  ( 0.000000000000000000, 1.000000000000000000, -0.000000000000000000 ) ) ;
#269 = CARTESIAN_POINT ( 'NONE',  ( 0.000000000000000000, 0.000000000000000000, 0.000000000000000000 ) ) ;
#270 = FACE_OUTER_BOUND ( 'NONE', #198, .T. ) ;
#271 = EDGE_LOOP ( 'NONE', ( #59, #44, #111, #10 ) ) ;
#272 = DIRECTION ( 'NONE',  ( 0.000000000000000000, 1.000000000000000000, -0.000000000000000000 ) ) ;
#273 = VERTEX_POINT ( 'NONE', #88 ) ;
#274 = DIRECTION ( 'NONE',  ( 0.000000000000000000, 1.000000000000000000, -0.000000000000000000 ) ) ;
#275 = ADVANCED_FACE ( 'NONE', ( #464 ), #426, .F. ) ;
#276 = ORIENTED_EDGE ( 'NONE', *, *, #34, .T. ) ;
#277 = FACE_OUTER_BOUND ( 'NONE', #76, .T. ) ;
#278 = VECTOR ( 'NONE', #222, 1000.000000000000000 ) ;
#279 = ORIENTED_EDGE ( 'NONE', *, *, #482, .T. ) ;
#280 =( NAMED_UNIT ( * ) SI_UNIT ( $, .STERADIAN. ) SOLID_ANGLE_UNIT ( ) );
#281 = EDGE_LOOP ( 'NONE', ( #161, #192, #141, #95 ) ) ;
#282 = EDGE_CURVE ( 'NONE', #31, #82, #350, .T. ) ;
#283 = CIRCLE ( 'NONE', #62, 17.50000000000000000 ) ;
#284 = DIRECTION ( 'NONE',  ( -0.000000000000000000, -1.000000000000000000, -0.000000000000000000 ) ) ;
#285 = EDGE_LOOP ( 'NONE', ( #430, #127, #396, #358, #452, #373 ) ) ;
#286 = AXIS2_PLACEMENT_3D ( 'NONE', #318, #272, #9 ) ;
#287 = LINE ( 'NONE', #405, #471 ) ;
#288 = EDGE_LOOP ( 'NONE', ( #52, #158, #162, #436 ) ) ;
#289 = DIRECTION ( 'NONE',  ( 0.000000000000000000, 0.000000000000000000, 1.000000000000000000 ) ) ;
#290 = CARTESIAN_POINT ( 'NONE',  ( 2.585274947162587544, 3.480000000000000426, -9.648377454345705928 ) ) ;
#291 = DIRECTION ( 'NONE',  ( -0.000000000000000000, -1.000000000000000000, -0.000000000000000000 ) ) ;
#292 = AXIS2_PLACEMENT_3D ( 'NONE', #486, #110, #374 ) ;
#293 = ORIENTED_EDGE ( 'NONE', *, *, #8, .T. ) ;
#294 = ADVANCED_FACE ( 'NONE', ( #242 ), #45, .T. ) ;
#295 = CARTESIAN_POINT ( 'NONE',  ( 0.000000000000000000, 2.080000000000000071, -18.80000000000000426 ) ) ;
#296 = ORIENTED_EDGE ( 'NONE', *, *, #435, .F. ) ;
#297 = LINE ( 'NONE', #444, #309 ) ;
#298 = ORIENTED_EDGE ( 'NONE', *, *, #428, .F. ) ;
#299 = EDGE_CURVE ( 'NONE', #328, #466, #4, .T. ) ;
#300 = CARTESIAN_POINT ( 'NONE',  ( 0.000000000000000000, 2.080000000000000071, -18.80000000000000426 ) ) ;
#301 = VECTOR ( 'NONE', #169, 1000.000000000000114 ) ;
#302 = LINE ( 'NONE', #33, #363 ) ;
#303 = ORIENTED_EDGE ( 'NONE', *, *, #282, .T. ) ;
#304 = VECTOR ( 'NONE', #337, 1000.000000000000000 ) ;
#305 = CARTESIAN_POINT ( 'NONE',  ( -5.089999999999999858, 0.000000000000000000, -9.271001493352237333 ) ) ;
#306 = DIRECTION ( 'NONE',  ( -0.000000000000000000, -1.000000000000000000, -0.000000000000000000 ) ) ;
#307 = ORIENTED_EDGE ( 'NONE', *, *, #313, .T. ) ;
#308 = EDGE_CURVE ( 'NONE', #322, #488, #36, .T. ) ;
#309 = VECTOR ( 'NONE', #99, 1000.000000000000114 ) ;
#310 = CLOSED_SHELL ( 'NONE', ( #238, #246, #275, #123, #160, #294, #472, #42, #393, #138, #346, #186, #231, #75, #254 ) ) ;
#311 = AXIS2_PLACEMENT_3D ( 'NONE', #434, #174, #289 ) ;
#312 = CARTESIAN_POINT ( 'NONE',  ( 0.000000000000000000, 2.080000000000000071, -14.65000000000000391 ) ) ;
#313 = EDGE_CURVE ( 'NONE', #93, #25, #202, .T. ) ;
#314 = ORIENTED_EDGE ( 'NONE', *, *, #419, .T. ) ;
#315 = CARTESIAN_POINT ( 'NONE',  ( -16.50000000000000000, 3.480000000000000426, -18.80000000000000426 ) ) ;
#316 = VERTEX_POINT ( 'NONE', #315 ) ;
#317 = ORIENTED_EDGE ( 'NONE', *, *, #8, .F. ) ;
#318 = CARTESIAN_POINT ( 'NONE',  ( 0.000000000000000000, 3.480000000000000426, 0.000000000000000000 ) ) ;
#319 = ORIENTED_EDGE ( 'NONE', *, *, #34, .F. ) ;
#320 = EDGE_CURVE ( 'NONE', #457, #25, #388, .T. ) ;
#321 = DIRECTION ( 'NONE',  ( 0.000000000000000000, 0.000000000000000000, 1.000000000000000000 ) ) ;
#322 = VERTEX_POINT ( 'NONE', #462 ) ;
#323 = AXIS2_PLACEMENT_3D ( 'NONE', #422, #394, #81 ) ;
#324 = CARTESIAN_POINT ( 'NONE',  ( 0.2559035412398942833, 2.080000000000000071, -0.9550450177440811261 ) ) ;
#325 = DIRECTION ( 'NONE',  ( 0.000000000000000000, 1.000000000000000000, -0.000000000000000000 ) ) ;
#326 = DIRECTION ( 'NONE',  ( 0.000000000000000000, 0.000000000000000000, 1.000000000000000000 ) ) ;
#327 = EDGE_CURVE ( 'NONE', #421, #441, #385, .T. ) ;
#328 = VERTEX_POINT ( 'NONE', #90 ) ;
#329 = DIRECTION ( 'NONE',  ( -0.000000000000000000, -1.000000000000000000, -0.000000000000000000 ) ) ;
#330 = VECTOR ( 'NONE', #407, 1000.000000000000000 ) ;
#331 = VECTOR ( 'NONE', #97, 1000.000000000000000 ) ;
#332 = DIRECTION ( 'NONE',  ( 0.000000000000000000, 0.000000000000000000, -1.000000000000000000 ) ) ;
#333 = CYLINDRICAL_SURFACE ( 'NONE', #124, 1.631999870894150551 ) ;
#334 = CARTESIAN_POINT ( 'NONE',  ( -12.48238616928225220, 2.080000000000000071, -18.80000000000000426 ) ) ;
#335 = EDGE_CURVE ( 'NONE', #84, #273, #171, .T. ) ;
#336 = PLANE ( 'NONE',  #243 ) ;
#337 = DIRECTION ( 'NONE',  ( -0.000000000000000000, -1.000000000000000000, -0.000000000000000000 ) ) ;
#338 = FACE_BOUND ( 'NONE', #145, .T. ) ;
#339 = DIRECTION ( 'NONE',  ( 0.000000000000000000, 1.000000000000000000, -0.000000000000000000 ) ) ;
#340 =( NAMED_UNIT ( * ) SI_UNIT ( $, .STERADIAN. ) SOLID_ANGLE_UNIT ( ) );
#341 = LINE ( 'NONE', #265, #304 ) ;
#342 = CIRCLE ( 'NONE', #46, 21.00000000000000000 ) ;
#343 = PLANE ( 'NONE',  #168 ) ;
#344 = ORIENTED_EDGE ( 'NONE', *, *, #26, .T. ) ;
#345 = PRODUCT_DEFINITION_SHAPE ( 'NONE', 'NONE',  #259 ) ;
#346 = ADVANCED_FACE ( 'NONE', ( #397, #18 ), #248, .F. ) ;
#347 = CARTESIAN_POINT ( 'NONE',  ( 0.000000000000000000, 2.080000000000000071, 0.000000000000000000 ) ) ;
#348 = VERTEX_POINT ( 'NONE', #15 ) ;
#349 = UNCERTAINTY_MEASURE_WITH_UNIT (LENGTH_MEASURE( 1.000000000000000082E-05 ), #197, 'distance_accuracy_value', 'NONE');
#350 = LINE ( 'NONE', #460, #86 ) ;
#351 = ORIENTED_EDGE ( 'NONE', *, *, #308, .T. ) ;
#352 = CIRCLE ( 'NONE', #456, 1.631999870894150551 ) ;
#353 = DIRECTION ( 'NONE',  ( 0.000000000000000000, 0.000000000000000000, -1.000000000000000000 ) ) ;
#354 = ORIENTED_EDGE ( 'NONE', *, *, #26, .F. ) ;
#355 = DIRECTION ( 'NONE',  ( 1.000000000000000000, -0.000000000000000000, 0.000000000000000000 ) ) ;
#356 = PRODUCT_RELATED_PRODUCT_CATEGORY ( 'part', '', ( #226 ) ) ;
#357 = ORIENTED_EDGE ( 'NONE', *, *, #107, .F. ) ;
#358 = ORIENTED_EDGE ( 'NONE', *, *, #204, .T. ) ;
#359 = FACE_OUTER_BOUND ( 'NONE', #288, .T. ) ;
#360 = ORIENTED_EDGE ( 'NONE', *, *, #320, .T. ) ;
#361 = EDGE_CURVE ( 'NONE', #89, #41, #128, .T. ) ;
#362 = DIRECTION ( 'NONE',  ( 0.000000000000000000, 0.000000000000000000, 1.000000000000000000 ) ) ;
#363 = VECTOR ( 'NONE', #113, 1000.000000000000000 ) ;
#364 = LINE ( 'NONE', #484, #439 ) ;
#365 = DIRECTION ( 'NONE',  ( 1.000000000000000000, -0.000000000000000000, 0.000000000000000000 ) ) ;
#366 = CARTESIAN_POINT ( 'NONE',  ( -5.089999999999999858, 2.000000000000016431, -9.271001493352237333 ) ) ;
#367 = LINE ( 'NONE', #324, #187 ) ;
#368 = MECHANICAL_DESIGN_GEOMETRIC_PRESENTATION_REPRESENTATION (  '', ( #149 ), #32 ) ;
#369 = CIRCLE ( 'NONE', #267, 1.631999870894150551 ) ;
#370 = CARTESIAN_POINT ( 'NONE',  ( -10.60457214312674701, 3.480000000000000426, -13.18258633047873474 ) ) ;
#371 = VECTOR ( 'NONE', #191, 1000.000000000000000 ) ;
#372 = CARTESIAN_POINT ( 'NONE',  ( 0.000000000000000000, 0.000000000000000000, -0.000000000000000000 ) ) ;
#373 = ORIENTED_EDGE ( 'NONE', *, *, #282, .F. ) ;
#374 = DIRECTION ( 'NONE',  ( -1.000000000000000000, 0.000000000000000000, -0.000000000000000000 ) ) ;
#375 = APPLICATION_CONTEXT ( 'automotive_design' ) ;
#376 =( NAMED_UNIT ( * ) PLANE_ANGLE_UNIT ( ) SI_UNIT ( $, .RADIAN. ) );
#377 = PLANE ( 'NONE',  #286 ) ;
#378 = EDGE_CURVE ( 'NONE', #457, #322, #77, .T. ) ;
#379 = CARTESIAN_POINT ( 'NONE',  ( 0.000000000000000000, 2.080000000000000071, 0.000000000000000000 ) ) ;
#380 = ORIENTED_EDGE ( 'NONE', *, *, #493, .F. ) ;
#381 = PRODUCT_CONTEXT ( 'NONE', #375, 'mechanical' ) ;
#382 =( BOUNDED_CURVE ( )  B_SPLINE_CURVE ( 3, ( #251, #61, #20, #175 ),
 .UNSPECIFIED., .F., .F. ) 
 B_SPLINE_CURVE_WITH_KNOTS ( ( 4, 4 ),
 ( 4.269477936311050215, 4.712388980384689674 ),
 .UNSPECIFIED. ) 
 CURVE ( )  GEOMETRIC_REPRESENTATION_ITEM ( )  RATIONAL_B_SPLINE_CURVE ( ( 1.000000000000000000, 0.9837191851176159130, 0.9837191851176159130, 1.000000000000000000 ) ) 
 REPRESENTATION_ITEM ( '' )  );
#383 = DIRECTION ( 'NONE',  ( 0.000000000000000000, 0.000000000000000000, 1.000000000000000000 ) ) ;
#384 = CARTESIAN_POINT ( 'NONE',  ( 0.000000000000000000, 3.480000000000000426, -18.80000000000000426 ) ) ;
#385 = CIRCLE ( 'NONE', #431, 1.631999870894150551 ) ;
#386 = CARTESIAN_POINT ( 'NONE',  ( -14.43479157272468605, 3.480000000000000426, -14.20889053347350028 ) ) ;
#387 = ORIENTED_EDGE ( 'NONE', *, *, #213, .T. ) ;
#388 = LINE ( 'NONE', #347, #153 ) ;
#389 = VERTEX_POINT ( 'NONE', #478 ) ;
#390 =( NAMED_UNIT ( * ) PLANE_ANGLE_UNIT ( ) SI_UNIT ( $, .RADIAN. ) );
#391 = VERTEX_POINT ( 'NONE', #126 ) ;
#392 = VECTOR ( 'NONE', #450, 1000.000000000000000 ) ;
#393 = ADVANCED_FACE ( 'NONE', ( #53 ), #333, .F. ) ;
#394 = DIRECTION ( 'NONE',  ( 0.000000000000000000, 0.000000000000000000, -1.000000000000000000 ) ) ;
#395 = ORIENTED_EDGE ( 'NONE', *, *, #114, .F. ) ;
#396 = ORIENTED_EDGE ( 'NONE', *, *, #179, .T. ) ;
#397 = FACE_BOUND ( 'NONE', #119, .T. ) ;
#398 = ORIENTED_EDGE ( 'NONE', *, *, #19, .F. ) ;
#399 = EDGE_CURVE ( 'NONE', #348, #84, #440, .T. ) ;
#400 = DIRECTION ( 'NONE',  ( -0.000000000000000000, -1.000000000000000000, -0.000000000000000000 ) ) ;
#401 = CARTESIAN_POINT ( 'NONE',  ( -16.49999999999999645, 0.000000000000000000, 0.000000000000000000 ) ) ;
#402 = CARTESIAN_POINT ( 'NONE',  ( -10.97665516810061881, 2.080000000000000071, -3.964800052847051504 ) ) ;
#403 = VECTOR ( 'NONE', #306, 1000.000000000000000 ) ;
#404 = ORIENTED_EDGE ( 'NONE', *, *, #378, .T. ) ;
#405 = CARTESIAN_POINT ( 'NONE',  ( -16.50000000000000000, 2.080000000000000071, -18.80000000000000426 ) ) ;
#406 = ORIENTED_EDGE ( 'NONE', *, *, #308, .F. ) ;
#407 = DIRECTION ( 'NONE',  ( -0.000000000000000000, -1.000000000000000000, -0.000000000000000000 ) ) ;
#408 = EDGE_CURVE ( 'NONE', #170, #82, #217, .T. ) ;
#409 = DIRECTION ( 'NONE',  ( -2.775557561562891351E-15, 0.000000000000000000, 1.000000000000000000 ) ) ;
#410 = AXIS2_PLACEMENT_3D ( 'NONE', #121, #284, #429 ) ;
#411 = DIRECTION ( 'NONE',  ( 0.000000000000000000, 0.000000000000000000, -1.000000000000000000 ) ) ;
#412 = DIRECTION ( 'NONE',  ( 0.000000000000000000, 0.000000000000000000, 1.000000000000000000 ) ) ;
#413 = ORIENTED_EDGE ( 'NONE', *, *, #70, .T. ) ;
#414 = CARTESIAN_POINT ( 'NONE',  ( -5.089999999999999858, 2.000000000000016431, -7.639001622458086338 ) ) ;
#415 = CIRCLE ( 'NONE', #48, 3.131999870894160320 ) ;
#416 =( NAMED_UNIT ( * ) PLANE_ANGLE_UNIT ( ) SI_UNIT ( $, .RADIAN. ) );
#417 = CYLINDRICAL_SURFACE ( 'NONE', #80, 21.00000000000000000 ) ;
#418 = DIRECTION ( 'NONE',  ( 1.000000000000000000, 0.000000000000000000, 0.000000000000000000 ) ) ;
#419 = EDGE_CURVE ( 'NONE', #421, #89, #205, .T. ) ;
#420 = DIRECTION ( 'NONE',  ( 1.000000000000000000, -0.000000000000000000, 0.000000000000000000 ) ) ;
#421 = VERTEX_POINT ( 'NONE', #94 ) ;
#422 = CARTESIAN_POINT ( 'NONE',  ( 0.000000000000000000, 2.080000000000000071, -14.65000000000000391 ) ) ;
#423 = CARTESIAN_POINT ( 'NONE',  ( -4.399999999999997691, 0.000000000000000000, -14.65000000000000391 ) ) ;
#424 = ORIENTED_EDGE ( 'NONE', *, *, #378, .F. ) ;
#425 = COLOUR_RGB ( '',0.7960784313725489669, 0.8235294117647058432, 0.9372549019607843146 ) ;
#426 = CYLINDRICAL_SURFACE ( 'NONE', #473, 17.50000000000000000 ) ;
#427 = ORIENTED_EDGE ( 'NONE', *, *, #449, .T. ) ;
#428 = EDGE_CURVE ( 'NONE', #488, #79, #297, .T. ) ;
#429 = DIRECTION ( 'NONE',  ( 0.000000000000000000, 0.000000000000000000, -1.000000000000000000 ) ) ;
#430 = ORIENTED_EDGE ( 'NONE', *, *, #465, .T. ) ;
#431 = AXIS2_PLACEMENT_3D ( 'NONE', #117, #274, #362 ) ;
#432 = DIRECTION ( 'NONE',  ( -0.000000000000000000, -1.000000000000000000, -0.000000000000000000 ) ) ;
#433 = ORIENTED_EDGE ( 'NONE', *, *, #465, .F. ) ;
#434 = CARTESIAN_POINT ( 'NONE',  ( -31.26109752017105237, 2.080000000000000071, -9.399999999999998579 ) ) ;
#435 = EDGE_CURVE ( 'NONE', #441, #200, #257, .T. ) ;
#436 = ORIENTED_EDGE ( 'NONE', *, *, #87, .T. ) ;
#437 = CARTESIAN_POINT ( 'NONE',  ( -31.26109752017105237, 2.080000000000000071, -9.399999999999998579 ) ) ;
#438 = CARTESIAN_POINT ( 'NONE',  ( -5.089999999999999858, 0.000000000000000000, -6.139001622458076568 ) ) ;
#439 = VECTOR ( 'NONE', #71, 1000.000000000000000 ) ;
#440 = LINE ( 'NONE', #58, #492 ) ;
#441 = VERTEX_POINT ( 'NONE', #210 ) ;
#442 = PLANE ( 'NONE',  #21 ) ;
#443 = CARTESIAN_POINT ( 'NONE',  ( -5.089999999999999858, 2.000000000000016431, -9.271001493352237333 ) ) ;
#444 = CARTESIAN_POINT ( 'NONE',  ( -8.647283762177925936, 3.480000000000000426, -12.65813248944867730 ) ) ;
#445 = ORIENTED_EDGE ( 'NONE', *, *, #399, .T. ) ;
#446 = SURFACE_SIDE_STYLE ('',( #154 ) ) ;
#447 =( GEOMETRIC_REPRESENTATION_CONTEXT ( 3 ) GLOBAL_UNCERTAINTY_ASSIGNED_CONTEXT ( ( #349 ) ) GLOBAL_UNIT_ASSIGNED_CONTEXT ( ( #197, #390, #280 ) ) REPRESENTATION_CONTEXT ( 'NONE', 'WORKASPACE' ) );
#448 = APPLICATION_PROTOCOL_DEFINITION ( 'draft international standard', 'automotive_design', 1998, #375 ) ;
#449 = EDGE_CURVE ( 'NONE', #316, #328, #287, .T. ) ;
#450 = DIRECTION ( 'NONE',  ( -0.000000000000000000, -1.000000000000000000, -0.000000000000000000 ) ) ;
#451 = VECTOR ( 'NONE', #27, 1000.000000000000114 ) ;
#452 = ORIENTED_EDGE ( 'NONE', *, *, #408, .T. ) ;
#453 = DIRECTION ( 'NONE',  ( 0.000000000000000000, 0.000000000000000000, 1.000000000000000000 ) ) ;
#454 = LINE ( 'NONE', #384, #142 ) ;
#455 =( GEOMETRIC_REPRESENTATION_CONTEXT ( 3 ) GLOBAL_UNCERTAINTY_ASSIGNED_CONTEXT ( ( #112 ) ) GLOBAL_UNIT_ASSIGNED_CONTEXT ( ( #229, #416, #340 ) ) REPRESENTATION_CONTEXT ( 'NONE', 'WORKASPACE' ) );
#456 = AXIS2_PLACEMENT_3D ( 'NONE', #490, #35, #412 ) ;
#457 = VERTEX_POINT ( 'NONE', #480 ) ;
#458 =( NAMED_UNIT ( * ) SI_UNIT ( $, .STERADIAN. ) SOLID_ANGLE_UNIT ( ) );
#459 = CARTESIAN_POINT ( 'NONE',  ( 0.000000000000000000, 0.000000000000000000, -14.65000000000000391 ) ) ;
#460 = CARTESIAN_POINT ( 'NONE',  ( 0.000000000000000000, 0.000000000000000000, 0.000000000000000000 ) ) ;
#461 = VERTEX_POINT ( 'NONE', #402 ) ;
#462 = CARTESIAN_POINT ( 'NONE',  ( -14.35739556011235862, 2.080000000000000071, -4.870666710705874536 ) ) ;
#463 = ORIENTED_EDGE ( 'NONE', *, *, #221, .F. ) ;
#464 = FACE_OUTER_BOUND ( 'NONE', #263, .T. ) ;
#465 = EDGE_CURVE ( 'NONE', #31, #328, #283, .T. ) ;
#466 = VERTEX_POINT ( 'NONE', #60 ) ;
#467 = CARTESIAN_POINT ( 'NONE',  ( -14.35739556011235862, 2.080000000000000071, -4.870666710705874536 ) ) ;
#468 = EDGE_LOOP ( 'NONE', ( #354, #203, #137, #485 ) ) ;
#469 = DIRECTION ( 'NONE',  ( -0.000000000000000000, -1.000000000000000000, -0.000000000000000000 ) ) ;
#470 = ORIENTED_EDGE ( 'NONE', *, *, #361, .F. ) ;
#471 = VECTOR ( 'NONE', #63, 1000.000000000000000 ) ;
#472 = ADVANCED_FACE ( 'NONE', ( #359 ), #442, .T. ) ;
#473 = AXIS2_PLACEMENT_3D ( 'NONE', #236, #51, #353 ) ;
#474 = CARTESIAN_POINT ( 'NONE',  ( 0.000000000000000000, 0.000000000000000000, 0.000000000000000000 ) ) ;
#475 = ORIENTED_EDGE ( 'NONE', *, *, #327, .F. ) ;
#476 = DIRECTION ( 'NONE',  ( 0.9659258262890680902, 0.000000000000000000, 0.2588190451025211836 ) ) ;
#477 = ORIENTED_EDGE ( 'NONE', *, *, #129, .T. ) ;
#478 = CARTESIAN_POINT ( 'NONE',  ( -5.089999999999999858, 0.000000000000000000, -12.40300136424639810 ) ) ;
#479 = VECTOR ( 'NONE', #329, 1000.000000000000000 ) ;
#480 = CARTESIAN_POINT ( 'NONE',  ( -16.49999999999999645, 2.080000000000000071, 0.000000000000000000 ) ) ;
#481 = ORIENTED_EDGE ( 'NONE', *, *, #299, .F. ) ;
#482 = EDGE_CURVE ( 'NONE', #322, #461, #367, .T. ) ;
#483 = DIRECTION ( 'NONE',  ( 0.000000000000000000, 1.000000000000000000, -0.000000000000000000 ) ) ;
#484 = CARTESIAN_POINT ( 'NONE',  ( -4.399999999999997691, 2.080000000000000071, -14.65000000000000391 ) ) ;
#485 = ORIENTED_EDGE ( 'NONE', *, *, #176, .F. ) ;
#486 = CARTESIAN_POINT ( 'NONE',  ( 0.000000000000000000, 2.080000000000000071, 0.000000000000000000 ) ) ;
#487 = FACE_OUTER_BOUND ( 'NONE', #122, .T. ) ;
#488 = VERTEX_POINT ( 'NONE', #55 ) ;
#489 = FILL_AREA_STYLE ('',( #261 ) ) ;
#490 = CARTESIAN_POINT ( 'NONE',  ( -5.089999999999999858, 2.080000000000000071, -9.271001493352237333 ) ) ;
#491 = CARTESIAN_POINT ( 'NONE',  ( -4.399999999999985256, 0.000000000000000000, 3.678449780384541772E-15 ) ) ;
#492 = VECTOR ( 'NONE', #291, 1000.000000000000000 ) ;
#493 = EDGE_CURVE ( 'NONE', #461, #84, #342, .T. ) ;
#494 = AXIS2_PLACEMENT_3D ( 'NONE', #194, #432, #157 ) ;
#495 = CARTESIAN_POINT ( 'NONE',  ( 0.000000000000000000, 2.080000000000000071, -14.65000000000000391 ) ) ;
#496 = DIRECTION ( 'NONE',  ( 1.000000000000000000, -0.000000000000000000, 0.000000000000000000 ) ) ;
#497 = ORIENTED_EDGE ( 'NONE', *, *, #313, .F. ) ;
#498 = EDGE_CURVE ( 'NONE', #273, #391, #207, .T. ) ;
ENDSEC;
END-ISO-10303-21;
