ISO-10303-21;
HEADER;
FILE_DESCRIPTION (( 'STEP AP214' ),
    '1' );
FILE_NAME ('Assem2.STEP',
    '2026-05-30T17:37:45',
    ( '' ),
    ( '' ),
    'SwSTEP 2.0',
    'SolidWorks 2025',
    '' );
FILE_SCHEMA (( 'AUTOMOTIVE_DESIGN' ));
ENDSEC;

DATA;
#1 = CARTESIAN_POINT ( 'NONE',  ( -35.70603737852546544, -11.55137252338552756, -4.851846873023007767 ) ) ;
#2 = CARTESIAN_POINT ( 'NONE',  ( 0.000000000000000000, 0.000000000000000000, 0.000000000000000000 ) ) ;
#3 = PRODUCT_CONTEXT ( 'NONE', #308, 'mechanical' ) ;
#4 =( LENGTH_UNIT ( ) NAMED_UNIT ( * ) SI_UNIT ( .MILLI., .METRE. ) );
#5 = APPLICATION_PROTOCOL_DEFINITION ( 'draft international standard', 'automotive_design', 1998, #488 ) ;
#6 = SHAPE_DEFINITION_REPRESENTATION ( #408, #345 ) ;
#7 = PRODUCT_DEFINITION_CONTEXT ( 'detailed design', #323, 'design' ) ;
#8 = EXTERNAL_SOURCE (IDENTIFIER('') ) ;
#9 = AXIS2_PLACEMENT_3D ( 'NONE', #214, #223, #415 ) ;
#10 = DIRECTION ( 'NONE',  ( 0.000000000000000000, 0.000000000000000000, 1.000000000000000000 ) ) ;
#11 = ITEM_DEFINED_TRANSFORMATION ( 'NONE', 'NONE', #113,  #267 ) ;
#12 = IDENTIFICATION_ROLE ( 'external document id and location', $) ;
#13 = APPLICATION_PROTOCOL_DEFINITION ( 'draft international standard', 'automotive_design', 1998, #366 ) ;
#14 = PRODUCT_DEFINITION_CONTEXT ( 'detailed design', #348, 'design' ) ;
#15 = PROPERTY_DEFINITION_REPRESENTATION ( #141, #127 ) ;
#16 = PROPERTY_DEFINITION ('external definition','', #209 ) ;
#17 = IDENTIFICATION_ROLE ( 'external document id and location', $) ;
#18 = PRODUCT_DEFINITION_FORMATION_WITH_SPECIFIED_SOURCE ( 'Symmetric', '', #289, .NOT_KNOWN. ) ;
#19 = PROPERTY_DEFINITION_REPRESENTATION ( #243, #162 ) ;
#20 = PROPERTY_DEFINITION ('external definition','', #283 ) ;
#21 = APPLIED_DOCUMENT_REFERENCE ( #283,'',( #455) ) ;
#22 =( NAMED_UNIT ( * ) PLANE_ANGLE_UNIT ( ) SI_UNIT ( $, .RADIAN. ) );
#23 = PRODUCT_DEFINITION ( 'General', '', #152, #251 ) ;
#24 =( NAMED_UNIT ( * ) PLANE_ANGLE_UNIT ( ) SI_UNIT ( $, .RADIAN. ) );
#25 = PROPERTY_DEFINITION_REPRESENTATION ( #215, #35 ) ;
#26 = DIRECTION ( 'NONE',  ( 0.000000000000000000, 0.000000000000000000, 1.000000000000000000 ) ) ;
#27 = PRODUCT ( 'Twist lock radio part V3', 'Twist lock radio part V3', '', ( #44 ) ) ;
#28 = DIRECTION ( 'NONE',  ( 1.000000000000000000, 0.000000000000000000, 0.000000000000000000 ) ) ;
#29 = UNCERTAINTY_MEASURE_WITH_UNIT (LENGTH_MEASURE( 1.000000000000000082E-05 ), #330, 'distance_accuracy_value', 'NONE');
#30 = IDENTIFICATION_ROLE ( 'external document id and location', $) ;
#31 = APPLIED_DOCUMENT_REFERENCE ( #452,'',( #200) ) ;
#32 = PRODUCT_DEFINITION_FORMATION_WITH_SPECIFIED_SOURCE ( 'Symmetric', '', #254, .NOT_KNOWN. ) ;
#33 = PROPERTY_DEFINITION ('document property','', #317 ) ;
#34 = DIRECTION ( 'NONE',  ( -7.632783294297949983E-17, -1.000000000000000000, 0.000000000000000000 ) ) ;
#35 = SHAPE_REPRESENTATION ( 'buck converter', ( #211 ), #269 ) ;
#36 =( NAMED_UNIT ( * ) SI_UNIT ( $, .STERADIAN. ) SOLID_ANGLE_UNIT ( ) );
#37 = SHAPE_REPRESENTATION ( 'pi4withall', ( #9 ), #484 ) ;
#38 = ROLE_ASSOCIATION ( #374, #386 ) ;
#39 = AXIS2_PLACEMENT_3D ( 'NONE', #472, #307, #213 ) ;
#40 = APPLICATION_PROTOCOL_DEFINITION ( 'draft international standard', 'automotive_design', 1998, #81 ) ;
#41 = PRODUCT_DEFINITION_CONTEXT ( 'detailed design', #252, 'design' ) ;
#42 = EXTERNAL_SOURCE (IDENTIFIER('') ) ;
#43 = DIRECTION ( 'NONE',  ( 1.000000000000000000, 0.000000000000000000, 0.000000000000000000 ) ) ;
#44 = PRODUCT_CONTEXT ( 'NONE', #112, 'mechanical' ) ;
#45 = DOCUMENT_TYPE ( 'geometry' ) ;
#46 = UNCERTAINTY_MEASURE_WITH_UNIT (LENGTH_MEASURE( 1.000000000000000082E-05 ), #102, 'distance_accuracy_value', 'NONE');
#47 = SHAPE_DEFINITION_REPRESENTATION ( #473, #35 ) ;
#48 = DOCUMENT_TYPE ( 'geometry' ) ;
#49 = ROLE_ASSOCIATION ( #65, #83 ) ;
#50 = PRODUCT_DEFINITION_CONTEXT ( 'detailed design', #488, 'design' ) ;
#51 = DIRECTION ( 'NONE',  ( 1.000000000000000000, 0.000000000000000000, 0.000000000000000000 ) ) ;
#52 = APPLICATION_PROTOCOL_DEFINITION ( 'draft international standard', 'automotive_design', 1998, #348 ) ;
#53 = PROPERTY_DEFINITION_REPRESENTATION ( #163, #345 ) ;
#54 = CONTEXT_DEPENDENT_SHAPE_REPRESENTATION ( #471, #318 ) ;
#55 = EXTERNAL_SOURCE (IDENTIFIER('') ) ;
#56 = CONTEXT_DEPENDENT_SHAPE_REPRESENTATION ( #424, #248 ) ;
#57 = PRODUCT_DEFINITION_CONTEXT ( 'detailed design', #366, 'design' ) ;
#58 = APPLIED_DOCUMENT_REFERENCE ( #420,'',( #303) ) ;
#59 = PROPERTY_DEFINITION ('document property','', #452 ) ;
#60 = DOCUMENT_TYPE ( 'geometry' ) ;
#61 = PRODUCT_DEFINITION ( 'General', '', #477, #236 ) ;
#62 = PRODUCT_RELATED_PRODUCT_CATEGORY ( 'part', '', ( #205 ) ) ;
#63 = UNCERTAINTY_MEASURE_WITH_UNIT (LENGTH_MEASURE( 1.000000000000000082E-05 ), #4, 'distance_accuracy_value', 'NONE');
#64 = PRODUCT_DEFINITION_SHAPE ( 'NONE', 'NONE',  #303 ) ;
#65 = OBJECT_ROLE ('mandatory',$ ) ;
#66 =( NAMED_UNIT ( * ) SI_UNIT ( $, .STERADIAN. ) SOLID_ANGLE_UNIT ( ) );
#67 = PROPERTY_DEFINITION_REPRESENTATION ( #16, #180 ) ;
#68 = PRODUCT_DEFINITION_CONTEXT ( 'detailed design', #266, 'design' ) ;
#69 = PROPERTY_DEFINITION ('document property','', #321 ) ;
#70 = DIRECTION ( 'NONE',  ( 1.000000000000000000, 0.000000000000000000, 0.000000000000000000 ) ) ;
#71 = UNCERTAINTY_MEASURE_WITH_UNIT (LENGTH_MEASURE( 1.000000000000000082E-05 ), #336, 'distance_accuracy_value', 'NONE');
#72 = PRODUCT_DEFINITION_FORMATION_WITH_SPECIFIED_SOURCE ( 'Symmetric', '', #218, .NOT_KNOWN. ) ;
#73 = DIRECTION ( 'NONE',  ( 0.000000000000000000, 0.000000000000000000, 1.000000000000000000 ) ) ;
#74 = OBJECT_ROLE ('mandatory',$ ) ;
#75 = PROPERTY_DEFINITION_REPRESENTATION ( #320, #264 ) ;
#76 = CARTESIAN_POINT ( 'NONE',  ( -13.93867717779735038, -11.69288152224834043, 35.06618587996499770 ) ) ;
#77 =( GEOMETRIC_REPRESENTATION_CONTEXT ( 3 ) GLOBAL_UNCERTAINTY_ASSIGNED_CONTEXT ( ( #225 ) ) GLOBAL_UNIT_ASSIGNED_CONTEXT ( ( #221, #259, #384 ) ) REPRESENTATION_CONTEXT ( 'NONE', 'WORKASPACE' ) );
#78 = AXIS2_PLACEMENT_3D ( 'NONE', #165, #217, #43 ) ;
#79 = SHAPE_DEFINITION_REPRESENTATION ( #426, #319 ) ;
#80 = DOCUMENT_TYPE ( 'geometry' ) ;
#81 = APPLICATION_CONTEXT ( 'automotive_design' ) ;
#82 = SHAPE_REPRESENTATION ( 'base', ( #433 ), #450 ) ;
#83 = APPLIED_DOCUMENT_REFERENCE ( #118,'',( #316) ) ;
#84 =( GEOMETRIC_REPRESENTATION_CONTEXT ( 3 ) GLOBAL_UNCERTAINTY_ASSIGNED_CONTEXT ( ( #46 ) ) GLOBAL_UNIT_ASSIGNED_CONTEXT ( ( #102, #492, #129 ) ) REPRESENTATION_CONTEXT ( 'NONE', 'WORKASPACE' ) );
#85 = CARTESIAN_POINT ( 'NONE',  ( 0.000000000000000000, 0.000000000000000000, 0.000000000000000000 ) ) ;
#86 = SHAPE_DEFINITION_REPRESENTATION ( #331, #100 ) ;
#87 = SHAPE_REPRESENTATION ( 'top', ( #388 ), #229 ) ;
#88 = PROPERTY_DEFINITION_REPRESENTATION ( #498, #345 ) ;
#89 = DOCUMENT_TYPE ( 'geometry' ) ;
#90 = APPLIED_DOCUMENT_REFERENCE ( #317,'',( #279) ) ;
#91 = PRODUCT_DEFINITION ( 'General', '', #470, #41 ) ;
#92 = CARTESIAN_POINT ( 'NONE',  ( -5.214745905965703976, -2.044032576114780841, -59.30218778566982962 ) ) ;
#93 = PROPERTY_DEFINITION_REPRESENTATION ( #69, #127 ) ;
#94 = PRODUCT_DEFINITION_SHAPE ( 'NONE', 'NONE',  #507 ) ;
#95 = DOCUMENT_TYPE ( 'geometry' ) ;
#96 = PROPERTY_DEFINITION_REPRESENTATION ( #20, #82 ) ;
#97 =( NAMED_UNIT ( * ) PLANE_ANGLE_UNIT ( ) SI_UNIT ( $, .RADIAN. ) );
#98 = CONTEXT_DEPENDENT_SHAPE_REPRESENTATION ( #285, #383 ) ;
#99 =( REPRESENTATION_RELATIONSHIP ('NONE','NONE', #319, #264 ) REPRESENTATION_RELATIONSHIP_WITH_TRANSFORMATION ( #367 )SHAPE_REPRESENTATION_RELATIONSHIP( ) );
#100 = SHAPE_REPRESENTATION ( 'PCB frame', ( #491 ), #77 ) ;
#101 = PRODUCT_DEFINITION_SHAPE ( 'NONE', 'NONE',  #511 ) ;
#102 =( LENGTH_UNIT ( ) NAMED_UNIT ( * ) SI_UNIT ( .MILLI., .METRE. ) );
#103 =( REPRESENTATION_RELATIONSHIP ('NONE','NONE', #319, #162 ) REPRESENTATION_RELATIONSHIP_WITH_TRANSFORMATION ( #324 )SHAPE_REPRESENTATION_RELATIONSHIP( ) );
#104 = PROPERTY_DEFINITION ('external definition','', #317 ) ;
#105 = APPLIED_EXTERNAL_IDENTIFICATION_ASSIGNMENT ( 'wing part.STEP' , #30, #42,( #122) ) ;
#106 = APPLICATION_PROTOCOL_DEFINITION ( 'draft international standard', 'automotive_design', 1998, #160 ) ;
#107 = CARTESIAN_POINT ( 'NONE',  ( -5.214745905965716410, -2.044032576114795052, -55.30218778566982252 ) ) ;
#108 = EXTERNAL_SOURCE (IDENTIFIER('') ) ;
#109 = UNCERTAINTY_MEASURE_WITH_UNIT (LENGTH_MEASURE( 1.000000000000000082E-05 ), #465, 'distance_accuracy_value', 'NONE');
#110 = PRODUCT_RELATED_PRODUCT_CATEGORY ( 'part', '', ( #254 ) ) ;
#111 = DIRECTION ( 'NONE',  ( 0.004777722468436731984, 0.9999885866188746864, 1.084917190734616462E-14 ) ) ;
#112 = APPLICATION_CONTEXT ( 'automotive_design' ) ;
#113 = AXIS2_PLACEMENT_3D ( 'NONE', #153, #111, #304 ) ;
#114 = SHAPE_DEFINITION_REPRESENTATION ( #458, #264 ) ;
#115 = CARTESIAN_POINT ( 'NONE',  ( 0.000000000000000000, 0.000000000000000000, 0.000000000000000000 ) ) ;
#116 = DIRECTION ( 'NONE',  ( -1.000000000000000000, 1.165734175856454994E-15, 0.000000000000000000 ) ) ;
#117 = EXTERNAL_SOURCE (IDENTIFIER('') ) ;
#118 = DOCUMENT_FILE ( 'Twist lock battery part V3.STEP' , '', '', #315, '' ,$ ) ;
#119 = DIRECTION ( 'NONE',  ( 1.000000000000000000, 0.000000000000000000, 0.000000000000000000 ) ) ;
#120 = SHAPE_DEFINITION_REPRESENTATION ( #64, #162 ) ;
#121 = PRODUCT_DEFINITION_FORMATION_WITH_SPECIFIED_SOURCE ( 'Symmetric', '', #135, .NOT_KNOWN. ) ;
#122 = DOCUMENT_FILE ( 'wing part.STEP' , '', '', #95, '' ,$ ) ;
#123 = PRODUCT_DEFINITION ( 'General', '', #146, #139 ) ;
#124 = PRODUCT_CONTEXT ( 'NONE', #411, 'mechanical' ) ;
#125 = OBJECT_ROLE ('mandatory',$ ) ;
#126 = ITEM_DEFINED_TRANSFORMATION ( 'NONE', 'NONE', #203,  #352 ) ;
#127 = SHAPE_REPRESENTATION ( 'middel part', ( #239 ), #305 ) ;
#128 = CONTEXT_DEPENDENT_SHAPE_REPRESENTATION ( #103, #410 ) ;
#129 =( NAMED_UNIT ( * ) SI_UNIT ( $, .STERADIAN. ) SOLID_ANGLE_UNIT ( ) );
#130 = PROPERTY_DEFINITION_REPRESENTATION ( #325, #162 ) ;
#131 = PRODUCT_RELATED_PRODUCT_CATEGORY ( 'part', '', ( #289 ) ) ;
#132 = CARTESIAN_POINT ( 'NONE',  ( 0.000000000000000000, 0.000000000000000000, 0.000000000000000000 ) ) ;
#133 = UNCERTAINTY_MEASURE_WITH_UNIT (LENGTH_MEASURE( 1.000000000000000082E-05 ), #268, 'distance_accuracy_value', 'NONE');
#134 = ITEM_DEFINED_TRANSFORMATION ( 'NONE', 'NONE', #451,  #211 ) ;
#135 = PRODUCT ( 'Assem2', 'Assem2', '', ( #181 ) ) ;
#136 =( NAMED_UNIT ( * ) SI_UNIT ( $, .STERADIAN. ) SOLID_ANGLE_UNIT ( ) );
#137 = OBJECT_ROLE ('mandatory',$ ) ;
#138 = ITEM_DEFINED_TRANSFORMATION ( 'NONE', 'NONE', #245,  #491 ) ;
#139 = PRODUCT_DEFINITION_CONTEXT ( 'detailed design', #474, 'design' ) ;
#140 = DIRECTION ( 'NONE',  ( 0.000000000000000000, 0.000000000000000000, 1.000000000000000000 ) ) ;
#141 = PROPERTY_DEFINITION ('external definition','', #321 ) ;
#142 = CARTESIAN_POINT ( 'NONE',  ( -5.216745905965679775, -2.044032576115331068, 48.24781221433018175 ) ) ;
#143 = DOCUMENT_TYPE ( 'geometry' ) ;
#144 = PRODUCT_DEFINITION_SHAPE ( 'NONE', 'NONE',  #514 ) ;
#145 = DOCUMENT_FILE ( 'Twist lock radio part V3.STEP' , '', '', #80, '' ,$ ) ;
#146 = PRODUCT_DEFINITION_FORMATION_WITH_SPECIFIED_SOURCE ( 'Symmetric', '', #490, .NOT_KNOWN. ) ;
#147 = APPLIED_EXTERNAL_IDENTIFICATION_ASSIGNMENT ( 'pi4withall.STEP' , #393, #344,( #288) ) ;
#148 = PRODUCT_DEFINITION_SHAPE ( 'NONE', 'NONE',  #505 ) ;
#149 = DIRECTION ( 'NONE',  ( 1.000000000000000000, -4.718447854656915297E-16, 0.000000000000000000 ) ) ;
#150 = APPLICATION_PROTOCOL_DEFINITION ( 'draft international standard', 'automotive_design', 1998, #252 ) ;
#151 =( REPRESENTATION_RELATIONSHIP ('NONE','NONE', #319, #82 ) REPRESENTATION_RELATIONSHIP_WITH_TRANSFORMATION ( #168 )SHAPE_REPRESENTATION_RELATIONSHIP( ) );
#152 = PRODUCT_DEFINITION_FORMATION_WITH_SPECIFIED_SOURCE ( 'Symmetric', '', #418, .NOT_KNOWN. ) ;
#153 = CARTESIAN_POINT ( 'NONE',  ( 26.91949027206406697, 7.202544496400173912, -50.22218778566976027 ) ) ;
#154 = PROPERTY_DEFINITION_REPRESENTATION ( #33, #345 ) ;
#155 = DIRECTION ( 'NONE',  ( 0.000000000000000000, 0.000000000000000000, 1.000000000000000000 ) ) ;
#156 = PROPERTY_DEFINITION_REPRESENTATION ( #373, #438 ) ;
#157 = APPLICATION_PROTOCOL_DEFINITION ( 'draft international standard', 'automotive_design', 1998, #208 ) ;
#158 = PRODUCT_DEFINITION_FORMATION_WITH_SPECIFIED_SOURCE ( 'Symmetric', '', #210, .NOT_KNOWN. ) ;
#159 = DIRECTION ( 'NONE',  ( 0.000000000000000000, 0.000000000000000000, 1.000000000000000000 ) ) ;
#160 = APPLICATION_CONTEXT ( 'automotive_design' ) ;
#161 = CONTEXT_DEPENDENT_SHAPE_REPRESENTATION ( #453, #148 ) ;
#162 = SHAPE_REPRESENTATION ( 'batcase', ( #378 ), #257 ) ;
#163 = PROPERTY_DEFINITION ('document property','', #122 ) ;
#164 =( REPRESENTATION_RELATIONSHIP ('NONE','NONE', #319, #100 ) REPRESENTATION_RELATIONSHIP_WITH_TRANSFORMATION ( #138 )SHAPE_REPRESENTATION_RELATIONSHIP( ) );
#165 = CARTESIAN_POINT ( 'NONE',  ( 0.000000000000000000, 0.000000000000000000, 0.000000000000000000 ) ) ;
#166 = ROLE_ASSOCIATION ( #74, #372 ) ;
#167 = PRODUCT_DEFINITION_SHAPE ( 'NONE', 'NONE',  #512 ) ;
#168 = ITEM_DEFINED_TRANSFORMATION ( 'NONE', 'NONE', #371,  #433 ) ;
#169 = CARTESIAN_POINT ( 'NONE',  ( 0.000000000000000000, 0.000000000000000000, 0.000000000000000000 ) ) ;
#170 = PROPERTY_DEFINITION ('external definition','', #452 ) ;
#171 =( LENGTH_UNIT ( ) NAMED_UNIT ( * ) SI_UNIT ( .MILLI., .METRE. ) );
#172 = PRODUCT_DEFINITION ( 'General', '', #121, #428 ) ;
#173 = DOCUMENT_FILE ( 'buck converter.STEP' , '', '', #312, '' ,$ ) ;
#174 = IDENTIFICATION_ROLE ( 'external document id and location', $) ;
#175 = PRODUCT_DEFINITION_SHAPE ( 'NONE', 'NONE',  #23 ) ;
#176 = DIRECTION ( 'NONE',  ( 1.000000000000000000, -3.053113317719180486E-16, 0.000000000000000000 ) ) ;
#177 = DIRECTION ( 'NONE',  ( 0.000000000000000000, 0.000000000000000000, 1.000000000000000000 ) ) ;
#178 = APPLIED_EXTERNAL_IDENTIFICATION_ASSIGNMENT ( 'batcase.STEP' , #17, #182,( #420) ) ;
#179 = ROLE_ASSOCIATION ( #220, #340 ) ;
#180 = SHAPE_REPRESENTATION ( '3D_RAK19007 base module + booster', ( #202 ), #360 ) ;
#181 = PRODUCT_CONTEXT ( 'NONE', #81, 'mechanical' ) ;
#182 = EXTERNAL_SOURCE (IDENTIFIER('') ) ;
#183 = APPLICATION_PROTOCOL_DEFINITION ( 'draft international standard', 'automotive_design', 1998, #112 ) ;
#184 = DIRECTION ( 'NONE',  ( 1.000000000000000000, 0.000000000000000000, 0.000000000000000000 ) ) ;
#185 = CONTEXT_DEPENDENT_SHAPE_REPRESENTATION ( #502, #391 ) ;
#186 = DIRECTION ( 'NONE',  ( 1.165734175856373741E-15, 1.000000000000000000, 0.000000000000000000 ) ) ;
#187 = PRODUCT_DEFINITION_SHAPE ( 'NONE', 'NONE',  #515 ) ;
#188 = AXIS2_PLACEMENT_3D ( 'NONE', #436, #261, #394 ) ;
#189 = SHAPE_DEFINITION_REPRESENTATION ( #175, #127 ) ;
#190 = APPLICATION_CONTEXT ( 'automotive_design' ) ;
#191 = APPLICATION_PROTOCOL_DEFINITION ( 'draft international standard', 'automotive_design', 1998, #323 ) ;
#192 = CARTESIAN_POINT ( 'NONE',  ( 0.000000000000000000, 0.000000000000000000, 0.000000000000000000 ) ) ;
#193 = APPLICATION_PROTOCOL_DEFINITION ( 'draft international standard', 'automotive_design', 1998, #308 ) ;
#194 =( NAMED_UNIT ( * ) SI_UNIT ( $, .STERADIAN. ) SOLID_ANGLE_UNIT ( ) );
#195 = APPLICATION_PROTOCOL_DEFINITION ( 'draft international standard', 'automotive_design', 1998, #441 ) ;
#196 = UNCERTAINTY_MEASURE_WITH_UNIT (LENGTH_MEASURE( 1.000000000000000082E-05 ), #275, 'distance_accuracy_value', 'NONE');
#197 = PRODUCT_CONTEXT ( 'NONE', #216, 'mechanical' ) ;
#198 = DOCUMENT_TYPE ( 'geometry' ) ;
#199 = ROLE_ASSOCIATION ( #125, #58 ) ;
#200 = PRODUCT_DEFINITION ( 'General', '', #414, #447 ) ;
#201 = PRODUCT_DEFINITION_SHAPE ( 'NONE', 'NONE',  #455 ) ;
#202 = AXIS2_PLACEMENT_3D ( 'NONE', #85, #400, #51 ) ;
#203 = AXIS2_PLACEMENT_3D ( 'NONE', #92, #186, #116 ) ;
#204 = PROPERTY_DEFINITION_REPRESENTATION ( #170, #100 ) ;
#205 = PRODUCT ( 'top', 'top', '', ( #480 ) ) ;
#206 = PROPERTY_DEFINITION_REPRESENTATION ( #293, #35 ) ;
#207 = PRODUCT_RELATED_PRODUCT_CATEGORY ( 'part', '', ( #300 ) ) ;
#208 = APPLICATION_CONTEXT ( 'automotive_design' ) ;
#209 = DOCUMENT_FILE ( '3D_RAK19007 base module + booster.STEP' , '', '', #445, '' ,$ ) ;
#210 = PRODUCT ( 'batcase', 'batcase', '', ( #3 ) ) ;
#211 = AXIS2_PLACEMENT_3D ( 'NONE', #115, #501, #489 ) ;
#212 = AXIS2_PLACEMENT_3D ( 'NONE', #142, #294, #256 ) ;
#213 = DIRECTION ( 'NONE',  ( -0.9999885866188749084, 0.004777722468436632237, 1.118420572090048249E-16 ) ) ;
#214 = CARTESIAN_POINT ( 'NONE',  ( 0.000000000000000000, 0.000000000000000000, 0.000000000000000000 ) ) ;
#215 = PROPERTY_DEFINITION ('document property','', #173 ) ;
#216 = APPLICATION_CONTEXT ( 'automotive_design' ) ;
#217 = DIRECTION ( 'NONE',  ( 0.000000000000000000, 0.000000000000000000, 1.000000000000000000 ) ) ;
#218 = PRODUCT ( 'wing part', 'wing part', '', ( #124 ) ) ;
#219 = APPLICATION_PROTOCOL_DEFINITION ( 'draft international standard', 'automotive_design', 1998, #359 ) ;
#220 = OBJECT_ROLE ('mandatory',$ ) ;
#221 =( LENGTH_UNIT ( ) NAMED_UNIT ( * ) SI_UNIT ( .MILLI., .METRE. ) );
#222 = CARTESIAN_POINT ( 'NONE',  ( -31.86484849135891295, -40.70558152227407334, 41.24781221432973410 ) ) ;
#223 = DIRECTION ( 'NONE',  ( 0.000000000000000000, 0.000000000000000000, 1.000000000000000000 ) ) ;
#224 = PRODUCT_RELATED_PRODUCT_CATEGORY ( 'part', '', ( #27 ) ) ;
#225 = UNCERTAINTY_MEASURE_WITH_UNIT (LENGTH_MEASURE( 1.000000000000000082E-05 ), #221, 'distance_accuracy_value', 'NONE');
#226 =( REPRESENTATION_RELATIONSHIP ('NONE','NONE', #319, #127 ) REPRESENTATION_RELATIONSHIP_WITH_TRANSFORMATION ( #413 )SHAPE_REPRESENTATION_RELATIONSHIP( ) );
#227 = PRODUCT_CONTEXT ( 'NONE', #337, 'mechanical' ) ;
#228 =( NAMED_UNIT ( * ) SI_UNIT ( $, .STERADIAN. ) SOLID_ANGLE_UNIT ( ) );
#229 =( GEOMETRIC_REPRESENTATION_CONTEXT ( 3 ) GLOBAL_UNCERTAINTY_ASSIGNED_CONTEXT ( ( #332 ) ) GLOBAL_UNIT_ASSIGNED_CONTEXT ( ( #171, #22, #457 ) ) REPRESENTATION_CONTEXT ( 'NONE', 'WORKASPACE' ) );
#230 = SHAPE_DEFINITION_REPRESENTATION ( #201, #82 ) ;
#231 = APPLIED_EXTERNAL_IDENTIFICATION_ASSIGNMENT ( 'Twist lock radio part V3.STEP' , #467, #409,( #145) ) ;
#232 = PRODUCT_CONTEXT ( 'NONE', #295, 'mechanical' ) ;
#233 =( REPRESENTATION_RELATIONSHIP ('NONE','NONE', #319, #37 ) REPRESENTATION_RELATIONSHIP_WITH_TRANSFORMATION ( #329 )SHAPE_REPRESENTATION_RELATIONSHIP( ) );
#234 =( NAMED_UNIT ( * ) PLANE_ANGLE_UNIT ( ) SI_UNIT ( $, .RADIAN. ) );
#235 = SHAPE_DEFINITION_REPRESENTATION ( #504, #438 ) ;
#236 = PRODUCT_DEFINITION_CONTEXT ( 'detailed design', #416, 'design' ) ;
#237 = IDENTIFICATION_ROLE ( 'external document id and location', $) ;
#238 = ITEM_DEFINED_TRANSFORMATION ( 'NONE', 'NONE', #39,  #267 ) ;
#239 = AXIS2_PLACEMENT_3D ( 'NONE', #479, #177, #70 ) ;
#240 = PROPERTY_DEFINITION_REPRESENTATION ( #274, #37 ) ;
#241 = PRODUCT ( '3D_RAK19007 base module + booster', '3D_RAK19007 base module + booster', '', ( #439 ) ) ;
#242 = EXTERNAL_SOURCE (IDENTIFIER('') ) ;
#243 = PROPERTY_DEFINITION ('document property','', #420 ) ;
#244 = ROLE_ASSOCIATION ( #497, #375 ) ;
#245 = AXIS2_PLACEMENT_3D ( 'NONE', #427, #382, #263 ) ;
#246 = PRODUCT_DEFINITION ( 'General', '', #18, #50 ) ;
#247 = APPLIED_DOCUMENT_REFERENCE ( #173,'',( #123) ) ;
#248 = PRODUCT_DEFINITION_SHAPE ( 'NONE', 'NONE',  #508 ) ;
#249 =( NAMED_UNIT ( * ) PLANE_ANGLE_UNIT ( ) SI_UNIT ( $, .RADIAN. ) );
#250 = CONTEXT_DEPENDENT_SHAPE_REPRESENTATION ( #164, #282 ) ;
#251 = PRODUCT_DEFINITION_CONTEXT ( 'detailed design', #190, 'design' ) ;
#252 = APPLICATION_CONTEXT ( 'automotive_design' ) ;
#253 = AXIS2_PLACEMENT_3D ( 'NONE', #222, #343, #176 ) ;
#254 = PRODUCT ( 'base', 'base', '', ( #273 ) ) ;
#255 =( NAMED_UNIT ( * ) PLANE_ANGLE_UNIT ( ) SI_UNIT ( $, .RADIAN. ) );
#256 = DIRECTION ( 'NONE',  ( 1.000000000000000000, -5.957536051783270455E-16, 5.957536051783214249E-16 ) ) ;
#257 =( GEOMETRIC_REPRESENTATION_CONTEXT ( 3 ) GLOBAL_UNCERTAINTY_ASSIGNED_CONTEXT ( ( #29 ) ) GLOBAL_UNIT_ASSIGNED_CONTEXT ( ( #330, #249, #286 ) ) REPRESENTATION_CONTEXT ( 'NONE', 'WORKASPACE' ) );
#258 = APPLICATION_CONTEXT ( 'automotive_design' ) ;
#259 =( NAMED_UNIT ( * ) PLANE_ANGLE_UNIT ( ) SI_UNIT ( $, .RADIAN. ) );
#260 = PROPERTY_DEFINITION_REPRESENTATION ( #277, #264 ) ;
#261 = DIRECTION ( 'NONE',  ( -7.888609052210118054E-31, -1.000000000000000000, 6.223015277861141707E-61 ) ) ;
#262 = CARTESIAN_POINT ( 'NONE',  ( 0.000000000000000000, 0.000000000000000000, 0.000000000000000000 ) ) ;
#263 = DIRECTION ( 'NONE',  ( 1.000000000000000000, -4.718447854656915297E-16, 7.974312934735322024E-31 ) ) ;
#264 = SHAPE_REPRESENTATION ( 'Twist lock radio part V3', ( #296 ), #84 ) ;
#265 = APPLICATION_PROTOCOL_DEFINITION ( 'draft international standard', 'automotive_design', 1998, #258 ) ;
#266 = APPLICATION_CONTEXT ( 'automotive_design' ) ;
#267 = AXIS2_PLACEMENT_3D ( 'NONE', #262, #159, #355 ) ;
#268 =( LENGTH_UNIT ( ) NAMED_UNIT ( * ) SI_UNIT ( .MILLI., .METRE. ) );
#269 =( GEOMETRIC_REPRESENTATION_CONTEXT ( 3 ) GLOBAL_UNCERTAINTY_ASSIGNED_CONTEXT ( ( #299 ) ) GLOBAL_UNIT_ASSIGNED_CONTEXT ( ( #459, #24, #136 ) ) REPRESENTATION_CONTEXT ( 'NONE', 'WORKASPACE' ) );
#270 = PRODUCT_DEFINITION_FORMATION_WITH_SPECIFIED_SOURCE ( 'Symmetric', '', #466, .NOT_KNOWN. ) ;
#271 = APPLICATION_PROTOCOL_DEFINITION ( 'draft international standard', 'automotive_design', 1998, #337 ) ;
#272 = APPLIED_EXTERNAL_IDENTIFICATION_ASSIGNMENT ( 'base.STEP' , #287, #117,( #283) ) ;
#273 = PRODUCT_CONTEXT ( 'NONE', #258, 'mechanical' ) ;
#274 = PROPERTY_DEFINITION ('document property','', #288 ) ;
#275 =( LENGTH_UNIT ( ) NAMED_UNIT ( * ) SI_UNIT ( .MILLI., .METRE. ) );
#276 = SHAPE_DEFINITION_REPRESENTATION ( #284, #180 ) ;
#277 = PROPERTY_DEFINITION ('external definition','', #145 ) ;
#278 = PROPERTY_DEFINITION_REPRESENTATION ( #431, #37 ) ;
#279 = PRODUCT_DEFINITION ( 'General', '', #72, #68 ) ;
#280 = APPLICATION_CONTEXT ( 'automotive_design' ) ;
#281 =( GEOMETRIC_REPRESENTATION_CONTEXT ( 3 ) GLOBAL_UNCERTAINTY_ASSIGNED_CONTEXT ( ( #351 ) ) GLOBAL_UNIT_ASSIGNED_CONTEXT ( ( #476, #255, #36 ) ) REPRESENTATION_CONTEXT ( 'NONE', 'WORKASPACE' ) );
#282 = PRODUCT_DEFINITION_SHAPE ( 'NONE', 'NONE',  #509 ) ;
#283 = DOCUMENT_FILE ( 'base.STEP' , '', '', #143, '' ,$ ) ;
#284 = PRODUCT_DEFINITION_SHAPE ( 'NONE', 'NONE',  #61 ) ;
#285 =( REPRESENTATION_RELATIONSHIP ('NONE','NONE', #319, #35 ) REPRESENTATION_RELATIONSHIP_WITH_TRANSFORMATION ( #134 )SHAPE_REPRESENTATION_RELATIONSHIP( ) );
#286 =( NAMED_UNIT ( * ) SI_UNIT ( $, .STERADIAN. ) SOLID_ANGLE_UNIT ( ) );
#287 = IDENTIFICATION_ROLE ( 'external document id and location', $) ;
#288 = DOCUMENT_FILE ( 'pi4withall.STEP' , '', '', #421, '' ,$ ) ;
#289 = PRODUCT ( 'pi4withall', 'pi4withall', '', ( #227 ) ) ;
#290 = ITEM_DEFINED_TRANSFORMATION ( 'NONE', 'NONE', #212,  #388 ) ;
#291 = DIRECTION ( 'NONE',  ( 1.000000000000000000, 0.000000000000000000, 0.000000000000000000 ) ) ;
#292 = UNCERTAINTY_MEASURE_WITH_UNIT (LENGTH_MEASURE( 1.000000000000000082E-05 ), #486, 'distance_accuracy_value', 'NONE');
#293 = PROPERTY_DEFINITION ('external definition','', #173 ) ;
#294 = DIRECTION ( 'NONE',  ( -5.957536051783206360E-16, -1.000000000000000000, -1.072649593884422115E-14 ) ) ;
#295 = APPLICATION_CONTEXT ( 'automotive_design' ) ;
#296 = AXIS2_PLACEMENT_3D ( 'NONE', #132, #326, #291 ) ;
#297 = DIRECTION ( 'NONE',  ( 5.916456789157588541E-30, 1.084896061875895788E-14, -1.000000000000000222 ) ) ;
#298 = CARTESIAN_POINT ( 'NONE',  ( -57.06156866359990687, -21.85349057165142739, -46.75218778567006694 ) ) ;
#299 = UNCERTAINTY_MEASURE_WITH_UNIT (LENGTH_MEASURE( 1.000000000000000082E-05 ), #459, 'distance_accuracy_value', 'NONE');
#300 = PRODUCT ( 'PCB frame', 'PCB frame', '', ( #443 ) ) ;
#301 = PROPERTY_DEFINITION_REPRESENTATION ( #309, #87 ) ;
#302 = DIRECTION ( 'NONE',  ( 0.000000000000000000, 0.000000000000000000, 1.000000000000000000 ) ) ;
#303 = PRODUCT_DEFINITION ( 'General', '', #158, #7 ) ;
#304 = DIRECTION ( 'NONE',  ( 0.9999885866188746864, -0.004777722468436731984, -4.264268722936253517E-17 ) ) ;
#305 =( GEOMETRIC_REPRESENTATION_CONTEXT ( 3 ) GLOBAL_UNCERTAINTY_ASSIGNED_CONTEXT ( ( #196 ) ) GLOBAL_UNIT_ASSIGNED_CONTEXT ( ( #275, #422, #419 ) ) REPRESENTATION_CONTEXT ( 'NONE', 'WORKASPACE' ) );
#306 = APPLIED_EXTERNAL_IDENTIFICATION_ASSIGNMENT ( 'Twist lock battery part V3.STEP' , #174, #242,( #118) ) ;
#307 = DIRECTION ( 'NONE',  ( -0.004777722468436632237, -0.9999885866188749084, -1.084916895804779697E-14 ) ) ;
#308 = APPLICATION_CONTEXT ( 'automotive_design' ) ;
#309 = PROPERTY_DEFINITION ('document property','', #468 ) ;
#310 = ITEM_DEFINED_TRANSFORMATION ( 'NONE', 'NONE', #379,  #202 ) ;
#311 = APPLIED_EXTERNAL_IDENTIFICATION_ASSIGNMENT ( 'middel part.STEP' , #237, #435,( #321) ) ;
#312 = DOCUMENT_TYPE ( 'geometry' ) ;
#313 = ROLE_ASSOCIATION ( #137, #90 ) ;
#314 = APPLICATION_PROTOCOL_DEFINITION ( 'draft international standard', 'automotive_design', 1998, #416 ) ;
#315 = DOCUMENT_TYPE ( 'geometry' ) ;
#316 = PRODUCT_DEFINITION ( 'General', '', #270, #57 ) ;
#317 = DOCUMENT_FILE ( 'wing part.STEP' , '', '', #60, '' ,$ ) ;
#318 = PRODUCT_DEFINITION_SHAPE ( 'NONE', 'NONE',  #506 ) ;
#319 = SHAPE_REPRESENTATION ( 'Assem2', ( #78, #113, #39, #203, #379, #245, #188, #405, #371, #451, #253, #461, #212 ), #281 ) ;
#320 = PROPERTY_DEFINITION ('document property','', #145 ) ;
#321 = DOCUMENT_FILE ( 'middel part.STEP' , '', '', #48, '' ,$ ) ;
#322 = APPLIED_EXTERNAL_IDENTIFICATION_ASSIGNMENT ( 'wing part.STEP' , #463, #387,( #317) ) ;
#323 = APPLICATION_CONTEXT ( 'automotive_design' ) ;
#324 = ITEM_DEFINED_TRANSFORMATION ( 'NONE', 'NONE', #188,  #378 ) ;
#325 = PROPERTY_DEFINITION ('external definition','', #420 ) ;
#326 = DIRECTION ( 'NONE',  ( 0.000000000000000000, 0.000000000000000000, 1.000000000000000000 ) ) ;
#327 = PROPERTY_DEFINITION_REPRESENTATION ( #335, #82 ) ;
#328 = PROPERTY_DEFINITION ('external definition','', #118 ) ;
#329 = ITEM_DEFINED_TRANSFORMATION ( 'NONE', 'NONE', #253,  #9 ) ;
#330 =( LENGTH_UNIT ( ) NAMED_UNIT ( * ) SI_UNIT ( .MILLI., .METRE. ) );
#331 = PRODUCT_DEFINITION_SHAPE ( 'NONE', 'NONE',  #200 ) ;
#332 = UNCERTAINTY_MEASURE_WITH_UNIT (LENGTH_MEASURE( 1.000000000000000082E-05 ), #171, 'distance_accuracy_value', 'NONE');
#333 = APPLIED_DOCUMENT_REFERENCE ( #288,'',( #246) ) ;
#334 =( NAMED_UNIT ( * ) SI_UNIT ( $, .STERADIAN. ) SOLID_ANGLE_UNIT ( ) );
#335 = PROPERTY_DEFINITION ('document property','', #283 ) ;
#336 =( LENGTH_UNIT ( ) NAMED_UNIT ( * ) SI_UNIT ( .MILLI., .METRE. ) );
#337 = APPLICATION_CONTEXT ( 'automotive_design' ) ;
#338 = PRODUCT_RELATED_PRODUCT_CATEGORY ( 'part', '', ( #218 ) ) ;
#339 = DIRECTION ( 'NONE',  ( 1.000000000000000000, -6.661338147750071496E-16, 1.577721810442023611E-30 ) ) ;
#340 = APPLIED_DOCUMENT_REFERENCE ( #468,'',( #346) ) ;
#341 = CARTESIAN_POINT ( 'NONE',  ( -5.216745905965714414, -2.044032576114246158, -50.35218778566985520 ) ) ;
#342 = PROPERTY_DEFINITION_REPRESENTATION ( #349, #87 ) ;
#343 = DIRECTION ( 'NONE',  ( 3.053113317719180486E-16, 1.000000000000000000, 1.084896061875895157E-14 ) ) ;
#344 = EXTERNAL_SOURCE (IDENTIFIER('') ) ;
#345 = SHAPE_REPRESENTATION ( 'wing part', ( #267 ), #370 ) ;
#346 = PRODUCT_DEFINITION ( 'General', '', #398, #464 ) ;
#347 = DIRECTION ( 'NONE',  ( 6.446472709852955847E-30, -7.285838599102652905E-16, -1.000000000000000000 ) ) ;
#348 = APPLICATION_CONTEXT ( 'automotive_design' ) ;
#349 = PROPERTY_DEFINITION ('external definition','', #468 ) ;
#350 = DIRECTION ( 'NONE',  ( 8.368306048112114268E-15, -1.000000000000000000, 7.285838599102652905E-16 ) ) ;
#351 = UNCERTAINTY_MEASURE_WITH_UNIT (LENGTH_MEASURE( 1.000000000000000082E-05 ), #476, 'distance_accuracy_value', 'NONE');
#352 = AXIS2_PLACEMENT_3D ( 'NONE', #192, #155, #119 ) ;
#353 =( NAMED_UNIT ( * ) PLANE_ANGLE_UNIT ( ) SI_UNIT ( $, .RADIAN. ) );
#354 = APPLICATION_PROTOCOL_DEFINITION ( 'draft international standard', 'automotive_design', 1998, #295 ) ;
#355 = DIRECTION ( 'NONE',  ( 1.000000000000000000, 0.000000000000000000, 0.000000000000000000 ) ) ;
#356 = PRODUCT_RELATED_PRODUCT_CATEGORY ( 'part', '', ( #466 ) ) ;
#357 = PROPERTY_DEFINITION_REPRESENTATION ( #328, #438 ) ;
#358 = APPLICATION_PROTOCOL_DEFINITION ( 'draft international standard', 'automotive_design', 1998, #266 ) ;
#359 = APPLICATION_CONTEXT ( 'automotive_design' ) ;
#360 =( GEOMETRIC_REPRESENTATION_CONTEXT ( 3 ) GLOBAL_UNCERTAINTY_ASSIGNED_CONTEXT ( ( #63 ) ) GLOBAL_UNIT_ASSIGNED_CONTEXT ( ( #4, #485, #194 ) ) REPRESENTATION_CONTEXT ( 'NONE', 'WORKASPACE' ) );
#361 = APPLIED_EXTERNAL_IDENTIFICATION_ASSIGNMENT ( '3D_RAK19007 base module + booster.STEP' , #481, #8,( #209) ) ;
#362 = APPLICATION_PROTOCOL_DEFINITION ( 'draft international standard', 'automotive_design', 1998, #385 ) ;
#363 = PRODUCT_RELATED_PRODUCT_CATEGORY ( 'part', '', ( #135 ) ) ;
#364 = DIRECTION ( 'NONE',  ( 1.000000000000000000, 0.000000000000000000, 0.000000000000000000 ) ) ;
#365 = APPLICATION_PROTOCOL_DEFINITION ( 'draft international standard', 'automotive_design', 1998, #280 ) ;
#366 = APPLICATION_CONTEXT ( 'automotive_design' ) ;
#367 = ITEM_DEFINED_TRANSFORMATION ( 'NONE', 'NONE', #461,  #296 ) ;
#368 = PRODUCT_DEFINITION_SHAPE ( 'NONE', 'NONE',  #346 ) ;
#369 = CONTEXT_DEPENDENT_SHAPE_REPRESENTATION ( #226, #101 ) ;
#370 =( GEOMETRIC_REPRESENTATION_CONTEXT ( 3 ) GLOBAL_UNCERTAINTY_ASSIGNED_CONTEXT ( ( #292 ) ) GLOBAL_UNIT_ASSIGNED_CONTEXT ( ( #486, #353, #395 ) ) REPRESENTATION_CONTEXT ( 'NONE', 'WORKASPACE' ) );
#371 = AXIS2_PLACEMENT_3D ( 'NONE', #298, #297, #149 ) ;
#372 = APPLIED_DOCUMENT_REFERENCE ( #321,'',( #23) ) ;
#373 = PROPERTY_DEFINITION ('document property','', #118 ) ;
#374 = OBJECT_ROLE ('mandatory',$ ) ;
#375 = APPLIED_DOCUMENT_REFERENCE ( #209,'',( #61) ) ;
#376 = IDENTIFICATION_ROLE ( 'external document id and location', $) ;
#377 = PROPERTY_DEFINITION_REPRESENTATION ( #454, #180 ) ;
#378 = AXIS2_PLACEMENT_3D ( 'NONE', #2, #140, #28 ) ;
#379 = AXIS2_PLACEMENT_3D ( 'NONE', #76, #350, #347 ) ;
#380 = DIRECTION ( 'NONE',  ( 0.000000000000000000, 0.000000000000000000, 1.000000000000000000 ) ) ;
#381 = PRODUCT_RELATED_PRODUCT_CATEGORY ( 'part', '', ( #241 ) ) ;
#382 = DIRECTION ( 'NONE',  ( 5.916456789157588541E-30, 1.084896061875895472E-14, -1.000000000000000000 ) ) ;
#383 = PRODUCT_DEFINITION_SHAPE ( 'NONE', 'NONE',  #513 ) ;
#384 =( NAMED_UNIT ( * ) SI_UNIT ( $, .STERADIAN. ) SOLID_ANGLE_UNIT ( ) );
#385 = APPLICATION_CONTEXT ( 'automotive_design' ) ;
#386 = APPLIED_DOCUMENT_REFERENCE ( #145,'',( #91) ) ;
#387 = EXTERNAL_SOURCE (IDENTIFIER('') ) ;
#388 = AXIS2_PLACEMENT_3D ( 'NONE', #169, #26, #494 ) ;
#389 = APPLIED_EXTERNAL_IDENTIFICATION_ASSIGNMENT ( 'top.STEP' , #12, #402,( #468) ) ;
#390 = SHAPE_DEFINITION_REPRESENTATION ( #368, #87 ) ;
#391 = PRODUCT_DEFINITION_SHAPE ( 'NONE', 'NONE',  #516 ) ;
#392 = CARTESIAN_POINT ( 'NONE',  ( 0.000000000000000000, 0.000000000000000000, 0.000000000000000000 ) ) ;
#393 = IDENTIFICATION_ROLE ( 'external document id and location', $) ;
#394 = DIRECTION ( 'NONE',  ( 1.000000000000000000, -7.888609052210118054E-31, -7.888609052210118054E-31 ) ) ;
#395 =( NAMED_UNIT ( * ) SI_UNIT ( $, .STERADIAN. ) SOLID_ANGLE_UNIT ( ) );
#396 = OBJECT_ROLE ('mandatory',$ ) ;
#397 = APPLICATION_PROTOCOL_DEFINITION ( 'draft international standard', 'automotive_design', 1998, #411 ) ;
#398 = PRODUCT_DEFINITION_FORMATION_WITH_SPECIFIED_SOURCE ( 'Symmetric', '', #205, .NOT_KNOWN. ) ;
#399 = APPLICATION_PROTOCOL_DEFINITION ( 'draft international standard', 'automotive_design', 1998, #190 ) ;
#400 = DIRECTION ( 'NONE',  ( 0.000000000000000000, 0.000000000000000000, 1.000000000000000000 ) ) ;
#401 = APPLICATION_PROTOCOL_DEFINITION ( 'draft international standard', 'automotive_design', 1998, #216 ) ;
#402 = EXTERNAL_SOURCE (IDENTIFIER('') ) ;
#403 = PRODUCT_CONTEXT ( 'NONE', #280, 'mechanical' ) ;
#404 = APPLICATION_CONTEXT ( 'automotive_design' ) ;
#405 = AXIS2_PLACEMENT_3D ( 'NONE', #107, #302, #475 ) ;
#406 = APPLIED_EXTERNAL_IDENTIFICATION_ASSIGNMENT ( 'buck converter.STEP' , #429, #108,( #173) ) ;
#407 = APPLIED_DOCUMENT_REFERENCE ( #122,'',( #279) ) ;
#408 = PRODUCT_DEFINITION_SHAPE ( 'NONE', 'NONE',  #279 ) ;
#409 = EXTERNAL_SOURCE (IDENTIFIER('') ) ;
#410 = PRODUCT_DEFINITION_SHAPE ( 'NONE', 'NONE',  #510 ) ;
#411 = APPLICATION_CONTEXT ( 'automotive_design' ) ;
#412 = PRODUCT_RELATED_PRODUCT_CATEGORY ( 'part', '', ( #210 ) ) ;
#413 = ITEM_DEFINED_TRANSFORMATION ( 'NONE', 'NONE', #405,  #239 ) ;
#414 = PRODUCT_DEFINITION_FORMATION_WITH_SPECIFIED_SOURCE ( 'Symmetric', '', #300, .NOT_KNOWN. ) ;
#415 = DIRECTION ( 'NONE',  ( 1.000000000000000000, 0.000000000000000000, 0.000000000000000000 ) ) ;
#416 = APPLICATION_CONTEXT ( 'automotive_design' ) ;
#417 = ROLE_ASSOCIATION ( #478, #247 ) ;
#418 = PRODUCT ( 'middel part', 'middel part', '', ( #197 ) ) ;
#419 =( NAMED_UNIT ( * ) SI_UNIT ( $, .STERADIAN. ) SOLID_ANGLE_UNIT ( ) );
#420 = DOCUMENT_FILE ( 'batcase.STEP' , '', '', #198, '' ,$ ) ;
#421 = DOCUMENT_TYPE ( 'geometry' ) ;
#422 =( NAMED_UNIT ( * ) PLANE_ANGLE_UNIT ( ) SI_UNIT ( $, .RADIAN. ) );
#423 = PRODUCT_DEFINITION_SHAPE ( 'NONE', 'NONE',  #246 ) ;
#424 =( REPRESENTATION_RELATIONSHIP ('NONE','NONE', #319, #180 ) REPRESENTATION_RELATIONSHIP_WITH_TRANSFORMATION ( #310 )SHAPE_REPRESENTATION_RELATIONSHIP( ) );
#425 = APPLIED_EXTERNAL_IDENTIFICATION_ASSIGNMENT ( 'PCB frame.STEP' , #376, #55,( #452) ) ;
#426 = PRODUCT_DEFINITION_SHAPE ( 'NONE', 'NONE',  #172 ) ;
#427 = CARTESIAN_POINT ( 'NONE',  ( -57.06156866359990687, -21.85349057165142739, -46.75218778567006694 ) ) ;
#428 = PRODUCT_DEFINITION_CONTEXT ( 'detailed design', #404, 'design' ) ;
#429 = IDENTIFICATION_ROLE ( 'external document id and location', $) ;
#430 = CONTEXT_DEPENDENT_SHAPE_REPRESENTATION ( #99, #187 ) ;
#431 = PROPERTY_DEFINITION ('external definition','', #288 ) ;
#432 = APPLICATION_PROTOCOL_DEFINITION ( 'draft international standard', 'automotive_design', 1998, #404 ) ;
#433 = AXIS2_PLACEMENT_3D ( 'NONE', #442, #380, #364 ) ;
#434 = OBJECT_ROLE ('mandatory',$ ) ;
#435 = EXTERNAL_SOURCE (IDENTIFIER('') ) ;
#436 = CARTESIAN_POINT ( 'NONE',  ( -5.214745905965663120, -2.044032576113786526, -137.3021877856698154 ) ) ;
#437 = OBJECT_ROLE ('mandatory',$ ) ;
#438 = SHAPE_REPRESENTATION ( 'Twist lock battery part V3', ( #352 ), #440 ) ;
#439 = PRODUCT_CONTEXT ( 'NONE', #208, 'mechanical' ) ;
#440 =( GEOMETRIC_REPRESENTATION_CONTEXT ( 3 ) GLOBAL_UNCERTAINTY_ASSIGNED_CONTEXT ( ( #133 ) ) GLOBAL_UNIT_ASSIGNED_CONTEXT ( ( #268, #234, #228 ) ) REPRESENTATION_CONTEXT ( 'NONE', 'WORKASPACE' ) );
#441 = APPLICATION_CONTEXT ( 'automotive_design' ) ;
#442 = CARTESIAN_POINT ( 'NONE',  ( 0.000000000000000000, 0.000000000000000000, 0.000000000000000000 ) ) ;
#443 = PRODUCT_CONTEXT ( 'NONE', #385, 'mechanical' ) ;
#444 = PRODUCT_RELATED_PRODUCT_CATEGORY ( 'part', '', ( #418 ) ) ;
#445 = DOCUMENT_TYPE ( 'geometry' ) ;
#446 = ROLE_ASSOCIATION ( #396, #407 ) ;
#447 = PRODUCT_DEFINITION_CONTEXT ( 'detailed design', #441, 'design' ) ;
#448 = PROPERTY_DEFINITION_REPRESENTATION ( #104, #345 ) ;
#449 = OBJECT_ROLE ('mandatory',$ ) ;
#450 =( GEOMETRIC_REPRESENTATION_CONTEXT ( 3 ) GLOBAL_UNCERTAINTY_ASSIGNED_CONTEXT ( ( #71 ) ) GLOBAL_UNIT_ASSIGNED_CONTEXT ( ( #336, #97, #66 ) ) REPRESENTATION_CONTEXT ( 'NONE', 'WORKASPACE' ) );
#451 = AXIS2_PLACEMENT_3D ( 'NONE', #1, #73, #34 ) ;
#452 = DOCUMENT_FILE ( 'PCB frame.STEP' , '', '', #89, '' ,$ ) ;
#453 =( REPRESENTATION_RELATIONSHIP ('NONE','NONE', #319, #345 ) REPRESENTATION_RELATIONSHIP_WITH_TRANSFORMATION ( #11 )SHAPE_REPRESENTATION_RELATIONSHIP( ) );
#454 = PROPERTY_DEFINITION ('document property','', #209 ) ;
#455 = PRODUCT_DEFINITION ( 'General', '', #32, #14 ) ;
#456 = CONTEXT_DEPENDENT_SHAPE_REPRESENTATION ( #151, #167 ) ;
#457 =( NAMED_UNIT ( * ) SI_UNIT ( $, .STERADIAN. ) SOLID_ANGLE_UNIT ( ) );
#458 = PRODUCT_DEFINITION_SHAPE ( 'NONE', 'NONE',  #91 ) ;
#459 =( LENGTH_UNIT ( ) NAMED_UNIT ( * ) SI_UNIT ( .MILLI., .METRE. ) );
#460 = PROPERTY_DEFINITION_REPRESENTATION ( #59, #100 ) ;
#461 = AXIS2_PLACEMENT_3D ( 'NONE', #341, #469, #339 ) ;
#462 = ROLE_ASSOCIATION ( #434, #31 ) ;
#463 = IDENTIFICATION_ROLE ( 'external document id and location', $) ;
#464 = PRODUCT_DEFINITION_CONTEXT ( 'detailed design', #160, 'design' ) ;
#465 =( LENGTH_UNIT ( ) NAMED_UNIT ( * ) SI_UNIT ( .MILLI., .METRE. ) );
#466 = PRODUCT ( 'Twist lock battery part V3', 'Twist lock battery part V3', '', ( #232 ) ) ;
#467 = IDENTIFICATION_ROLE ( 'external document id and location', $) ;
#468 = DOCUMENT_FILE ( 'top.STEP' , '', '', #45, '' ,$ ) ;
#469 = DIRECTION ( 'NONE',  ( 6.661338147751355367E-16, 1.000000000000000000, 1.084896061875896103E-14 ) ) ;
#470 = PRODUCT_DEFINITION_FORMATION_WITH_SPECIFIED_SOURCE ( 'Symmetric', '', #27, .NOT_KNOWN. ) ;
#471 =( REPRESENTATION_RELATIONSHIP ('NONE','NONE', #319, #345 ) REPRESENTATION_RELATIONSHIP_WITH_TRANSFORMATION ( #238 )SHAPE_REPRESENTATION_RELATIONSHIP( ) );
#472 = CARTESIAN_POINT ( 'NONE',  ( -37.34898208399547315, -11.29060964862865113, -50.22218778566995923 ) ) ;
#473 = PRODUCT_DEFINITION_SHAPE ( 'NONE', 'NONE',  #123 ) ;
#474 = APPLICATION_CONTEXT ( 'automotive_design' ) ;
#475 = DIRECTION ( 'NONE',  ( 1.000000000000000000, 0.000000000000000000, 0.000000000000000000 ) ) ;
#476 =( LENGTH_UNIT ( ) NAMED_UNIT ( * ) SI_UNIT ( .MILLI., .METRE. ) );
#477 = PRODUCT_DEFINITION_FORMATION_WITH_SPECIFIED_SOURCE ( 'Symmetric', '', #241, .NOT_KNOWN. ) ;
#478 = OBJECT_ROLE ('mandatory',$ ) ;
#479 = CARTESIAN_POINT ( 'NONE',  ( 0.000000000000000000, 0.000000000000000000, 0.000000000000000000 ) ) ;
#480 = PRODUCT_CONTEXT ( 'NONE', #359, 'mechanical' ) ;
#481 = IDENTIFICATION_ROLE ( 'external document id and location', $) ;
#482 = CONTEXT_DEPENDENT_SHAPE_REPRESENTATION ( #493, #94 ) ;
#483 = SHAPE_DEFINITION_REPRESENTATION ( #423, #37 ) ;
#484 =( GEOMETRIC_REPRESENTATION_CONTEXT ( 3 ) GLOBAL_UNCERTAINTY_ASSIGNED_CONTEXT ( ( #109 ) ) GLOBAL_UNIT_ASSIGNED_CONTEXT ( ( #465, #496, #334 ) ) REPRESENTATION_CONTEXT ( 'NONE', 'WORKASPACE' ) );
#485 =( NAMED_UNIT ( * ) PLANE_ANGLE_UNIT ( ) SI_UNIT ( $, .RADIAN. ) );
#486 =( LENGTH_UNIT ( ) NAMED_UNIT ( * ) SI_UNIT ( .MILLI., .METRE. ) );
#487 = APPLICATION_PROTOCOL_DEFINITION ( 'draft international standard', 'automotive_design', 1998, #474 ) ;
#488 = APPLICATION_CONTEXT ( 'automotive_design' ) ;
#489 = DIRECTION ( 'NONE',  ( 1.000000000000000000, 0.000000000000000000, 0.000000000000000000 ) ) ;
#490 = PRODUCT ( 'buck converter', 'buck converter', '', ( #403 ) ) ;
#491 = AXIS2_PLACEMENT_3D ( 'NONE', #392, #10, #184 ) ;
#492 =( NAMED_UNIT ( * ) PLANE_ANGLE_UNIT ( ) SI_UNIT ( $, .RADIAN. ) );
#493 =( REPRESENTATION_RELATIONSHIP ('NONE','NONE', #319, #438 ) REPRESENTATION_RELATIONSHIP_WITH_TRANSFORMATION ( #126 )SHAPE_REPRESENTATION_RELATIONSHIP( ) );
#494 = DIRECTION ( 'NONE',  ( 1.000000000000000000, 0.000000000000000000, 0.000000000000000000 ) ) ;
#495 = ROLE_ASSOCIATION ( #437, #21 ) ;
#496 =( NAMED_UNIT ( * ) PLANE_ANGLE_UNIT ( ) SI_UNIT ( $, .RADIAN. ) );
#497 = OBJECT_ROLE ('mandatory',$ ) ;
#498 = PROPERTY_DEFINITION ('external definition','', #122 ) ;
#499 = PRODUCT_RELATED_PRODUCT_CATEGORY ( 'part', '', ( #490 ) ) ;
#500 = CONTEXT_DEPENDENT_SHAPE_REPRESENTATION ( #233, #144 ) ;
#501 = DIRECTION ( 'NONE',  ( 0.000000000000000000, 0.000000000000000000, 1.000000000000000000 ) ) ;
#502 =( REPRESENTATION_RELATIONSHIP ('NONE','NONE', #319, #87 ) REPRESENTATION_RELATIONSHIP_WITH_TRANSFORMATION ( #290 )SHAPE_REPRESENTATION_RELATIONSHIP( ) );
#503 = ROLE_ASSOCIATION ( #449, #333 ) ;
#504 = PRODUCT_DEFINITION_SHAPE ( 'NONE', 'NONE',  #316 ) ;
#505 = NEXT_ASSEMBLY_USAGE_OCCURRENCE ( 'NAUO1', ' ', ' ', #172, #279, $ ) ;
#506 = NEXT_ASSEMBLY_USAGE_OCCURRENCE ( 'NAUO2', ' ', ' ', #172, #279, $ ) ;
#507 = NEXT_ASSEMBLY_USAGE_OCCURRENCE ( 'NAUO3', ' ', ' ', #172, #316, $ ) ;
#508 = NEXT_ASSEMBLY_USAGE_OCCURRENCE ( 'NAUO4', ' ', ' ', #172, #61, $ ) ;
#509 = NEXT_ASSEMBLY_USAGE_OCCURRENCE ( 'NAUO5', ' ', ' ', #172, #200, $ ) ;
#510 = NEXT_ASSEMBLY_USAGE_OCCURRENCE ( 'NAUO6', ' ', ' ', #172, #303, $ ) ;
#511 = NEXT_ASSEMBLY_USAGE_OCCURRENCE ( 'NAUO7', ' ', ' ', #172, #23, $ ) ;
#512 = NEXT_ASSEMBLY_USAGE_OCCURRENCE ( 'NAUO8', ' ', ' ', #172, #455, $ ) ;
#513 = NEXT_ASSEMBLY_USAGE_OCCURRENCE ( 'NAUO9', ' ', ' ', #172, #123, $ ) ;
#514 = NEXT_ASSEMBLY_USAGE_OCCURRENCE ( 'NAUO10', ' ', ' ', #172, #246, $ ) ;
#515 = NEXT_ASSEMBLY_USAGE_OCCURRENCE ( 'NAUO11', ' ', ' ', #172, #91, $ ) ;
#516 = NEXT_ASSEMBLY_USAGE_OCCURRENCE ( 'NAUO12', ' ', ' ', #172, #346, $ ) ;
ENDSEC;
END-ISO-10303-21;
