ISO-10303-21;
HEADER;
FILE_DESCRIPTION (( 'STEP AP214' ),
    '1' );
FILE_NAME ('buck converter.STEP',
    '2026-05-30T17:37:44',
    ( '' ),
    ( '' ),
    'SwSTEP 2.0',
    'SolidWorks 2025',
    '' );
FILE_SCHEMA (( 'AUTOMOTIVE_DESIGN' ));
ENDSEC;

DATA;
#1 = CARTESIAN_POINT ( 'NONE',  ( 1.800000000000000044, 0.000000000000000000, -31.00000000000000000 ) ) ;
#2 = EDGE_LOOP ( 'NONE', ( #594, #296, #140, #224 ) ) ;
#3 = CLOSED_SHELL ( 'NONE', ( #276, #29, #57, #5, #383, #157, #198, #108, #318, #591, #6, #640, #95, #138, #626, #163, #426, #281, #513 ) ) ;
#4 = CIRCLE ( 'NONE', #584, 1.000000000000000000 ) ;
#5 = ADVANCED_FACE ( 'NONE', ( #404 ), #449, .F. ) ;
#6 = ADVANCED_FACE ( 'NONE', ( #253 ), #17, .F. ) ;
#7 = DIRECTION ( 'NONE',  ( -1.000000000000000000, -0.000000000000000000, -0.000000000000000000 ) ) ;
#8 = CARTESIAN_POINT ( 'NONE',  ( 1.800000000000000044, 17.91610889887260782, -9.191409046518604242 ) ) ;
#9 = LINE ( 'NONE', #455, #548 ) ;
#10 = CARTESIAN_POINT ( 'NONE',  ( 5.799999999999999822, 17.91610889887260782, -9.191409046518604242 ) ) ;
#11 = ORIENTED_EDGE ( 'NONE', *, *, #238, .T. ) ;
#12 = AXIS2_PLACEMENT_3D ( 'NONE', #550, #555, #595 ) ;
#13 = DIRECTION ( 'NONE',  ( 1.000000000000000000, 0.000000000000000000, 0.000000000000000000 ) ) ;
#14 = EDGE_LOOP ( 'NONE', ( #564, #112 ) ) ;
#15 = EDGE_CURVE ( 'NONE', #110, #610, #554, .T. ) ;
#16 = CARTESIAN_POINT ( 'NONE',  ( 1.800000000000000044, 17.42500000000000071, -6.650000000000002132 ) ) ;
#17 = CYLINDRICAL_SURFACE ( 'NONE', #124, 1.000000000000000000 ) ;
#18 = CARTESIAN_POINT ( 'NONE',  ( 1.800000000000000044, 0.000000000000000000, -31.00000000000000000 ) ) ;
#19 = DIRECTION ( 'NONE',  ( -1.000000000000000000, -0.000000000000000000, -0.000000000000000000 ) ) ;
#20 = EDGE_LOOP ( 'NONE', ( #187, #127, #101, #99 ) ) ;
#21 = CARTESIAN_POINT ( 'NONE',  ( 5.799999999999999822, 9.537256831458041262, -17.66806872561505060 ) ) ;
#22 = CIRCLE ( 'NONE', #350, 1.000000000000000888 ) ;
#23 = CARTESIAN_POINT ( 'NONE',  ( 1.800000000000000044, 0.000000000000000000, 0.000000000000000000 ) ) ;
#24 = PRODUCT_DEFINITION ( 'General', '', #572, #634 ) ;
#25 = CARTESIAN_POINT ( 'NONE',  ( 1.800000000000000044, 9.537256831458041262, -9.191409046518604242 ) ) ;
#26 = EDGE_CURVE ( 'NONE', #478, #110, #113, .T. ) ;
#27 = CARTESIAN_POINT ( 'NONE',  ( 0.000000000000000000, 17.42500000000000071, -5.650000000000002132 ) ) ;
#28 = ORIENTED_EDGE ( 'NONE', *, *, #456, .T. ) ;
#29 = ADVANCED_FACE ( 'NONE', ( #598 ), #605, .F. ) ;
#30 = ORIENTED_EDGE ( 'NONE', *, *, #518, .F. ) ;
#31 = DIRECTION ( 'NONE',  ( 0.000000000000000000, 0.000000000000000000, -1.000000000000000000 ) ) ;
#32 = FACE_BOUND ( 'NONE', #237, .T. ) ;
#33 = ORIENTED_EDGE ( 'NONE', *, *, #403, .T. ) ;
#34 = ORIENTED_EDGE ( 'NONE', *, *, #311, .T. ) ;
#35 = UNCERTAINTY_MEASURE_WITH_UNIT (LENGTH_MEASURE( 1.000000000000000082E-05 ), #482, 'distance_accuracy_value', 'NONE');
#36 = EDGE_CURVE ( 'NONE', #43, #245, #294, .T. ) ;
#37 = VECTOR ( 'NONE', #512, 1000.000000000000000 ) ;
#38 = CARTESIAN_POINT ( 'NONE',  ( 1.800000000000000044, 17.42500000000000071, -6.650000000000002132 ) ) ;
#39 = CIRCLE ( 'NONE', #75, 1.000000000000000888 ) ;
#40 = VERTEX_POINT ( 'NONE', #251 ) ;
#41 = EDGE_CURVE ( 'NONE', #446, #568, #9, .T. ) ;
#42 = DIRECTION ( 'NONE',  ( 0.000000000000000000, -1.000000000000000000, 0.000000000000000000 ) ) ;
#43 = VERTEX_POINT ( 'NONE', #510 ) ;
#44 = FACE_OUTER_BOUND ( 'NONE', #247, .T. ) ;
#45 = LINE ( 'NONE', #427, #540 ) ;
#46 = ORIENTED_EDGE ( 'NONE', *, *, #609, .F. ) ;
#47 = ADVANCED_BREP_SHAPE_REPRESENTATION ( 'buck converter', ( #336, #480 ), #146 ) ;
#48 = LINE ( 'NONE', #142, #315 ) ;
#49 = CIRCLE ( 'NONE', #295, 1.000000000000000888 ) ;
#50 = VERTEX_POINT ( 'NONE', #602 ) ;
#51 = DIRECTION ( 'NONE',  ( 0.000000000000000000, 0.000000000000000000, -1.000000000000000000 ) ) ;
#52 = EDGE_CURVE ( 'NONE', #208, #543, #582, .T. ) ;
#53 = ORIENTED_EDGE ( 'NONE', *, *, #121, .T. ) ;
#54 = CYLINDRICAL_SURFACE ( 'NONE', #241, 1.000000000000000888 ) ;
#55 = ORIENTED_EDGE ( 'NONE', *, *, #481, .F. ) ;
#56 = DIRECTION ( 'NONE',  ( -1.000000000000000000, -0.000000000000000000, -0.000000000000000000 ) ) ;
#57 = ADVANCED_FACE ( 'NONE', ( #398 ), #158, .F. ) ;
#58 = VECTOR ( 'NONE', #148, 1000.000000000000000 ) ;
#59 = LINE ( 'NONE', #8, #195 ) ;
#60 = CARTESIAN_POINT ( 'NONE',  ( 1.800000000000000044, 2.924999999999995381, -6.650000000000003020 ) ) ;
#61 = CARTESIAN_POINT ( 'NONE',  ( 5.799999999999999822, 9.537256831458041262, -9.191409046518604242 ) ) ;
#62 = DIRECTION ( 'NONE',  ( 1.000000000000000000, 0.000000000000000000, 0.000000000000000000 ) ) ;
#63 = PLANE ( 'NONE',  #500 ) ;
#64 = DIRECTION ( 'NONE',  ( 0.000000000000000000, 0.000000000000000000, 1.000000000000000000 ) ) ;
#65 = AXIS2_PLACEMENT_3D ( 'NONE', #601, #56, #154 ) ;
#66 = AXIS2_PLACEMENT_3D ( 'NONE', #176, #606, #162 ) ;
#67 =( GEOMETRIC_REPRESENTATION_CONTEXT ( 3 ) GLOBAL_UNCERTAINTY_ASSIGNED_CONTEXT ( ( #421 ) ) GLOBAL_UNIT_ASSIGNED_CONTEXT ( ( #328, #433, #475 ) ) REPRESENTATION_CONTEXT ( 'NONE', 'WORKASPACE' ) );
#68 = CARTESIAN_POINT ( 'NONE',  ( 0.000000000000000000, 0.000000000000000000, 0.000000000000000000 ) ) ;
#69 = DIRECTION ( 'NONE',  ( 0.000000000000000000, 0.000000000000000000, 1.000000000000000000 ) ) ;
#70 = DIRECTION ( 'NONE',  ( 1.000000000000000000, 0.000000000000000000, 0.000000000000000000 ) ) ;
#71 = CARTESIAN_POINT ( 'NONE',  ( 1.800000000000000044, 2.924999999999998934, -24.35000000000000142 ) ) ;
#72 = PLANE ( 'NONE',  #186 ) ;
#73 = DIRECTION ( 'NONE',  ( -0.000000000000000000, 1.000000000000000000, 0.000000000000000000 ) ) ;
#74 = EDGE_CURVE ( 'NONE', #629, #351, #129, .T. ) ;
#75 = AXIS2_PLACEMENT_3D ( 'NONE', #533, #489, #337 ) ;
#76 = DIRECTION ( 'NONE',  ( 1.000000000000000000, 0.000000000000000000, 0.000000000000000000 ) ) ;
#77 = AXIS2_PLACEMENT_3D ( 'NONE', #460, #76, #31 ) ;
#78 = EDGE_CURVE ( 'NONE', #334, #474, #561, .T. ) ;
#79 = DIRECTION ( 'NONE',  ( 1.000000000000000000, 0.000000000000000000, 0.000000000000000000 ) ) ;
#80 = ORIENTED_EDGE ( 'NONE', *, *, #114, .T. ) ;
#81 = VERTEX_POINT ( 'NONE', #118 ) ;
#82 = DIRECTION ( 'NONE',  ( 1.000000000000000000, 0.000000000000000000, 0.000000000000000000 ) ) ;
#83 = DIRECTION ( 'NONE',  ( 0.000000000000000000, 0.000000000000000000, -1.000000000000000000 ) ) ;
#84 = ORIENTED_EDGE ( 'NONE', *, *, #297, .T. ) ;
#85 = CARTESIAN_POINT ( 'NONE',  ( 0.000000000000000000, 17.42500000000000071, -7.650000000000002132 ) ) ;
#86 = CARTESIAN_POINT ( 'NONE',  ( 1.800000000000000044, 0.000000000000000000, 0.000000000000000000 ) ) ;
#87 = DIRECTION ( 'NONE',  ( -0.000000000000000000, -0.000000000000000000, 1.000000000000000000 ) ) ;
#88 = AXIS2_PLACEMENT_3D ( 'NONE', #329, #246, #51 ) ;
#89 = VERTEX_POINT ( 'NONE', #412 ) ;
#90 = DIRECTION ( 'NONE',  ( 0.000000000000000000, 0.000000000000000000, -1.000000000000000000 ) ) ;
#91 = ORIENTED_EDGE ( 'NONE', *, *, #448, .T. ) ;
#92 = APPLICATION_PROTOCOL_DEFINITION ( 'draft international standard', 'automotive_design', 1998, #183 ) ;
#93 = DIRECTION ( 'NONE',  ( -0.000000000000000000, -0.000000000000000000, 1.000000000000000000 ) ) ;
#94 = ORIENTED_EDGE ( 'NONE', *, *, #311, .F. ) ;
#95 = ADVANCED_FACE ( 'NONE', ( #570 ), #232, .F. ) ;
#96 = PLANE ( 'NONE',  #520 ) ;
#97 = AXIS2_PLACEMENT_3D ( 'NONE', #556, #257, #458 ) ;
#98 = CIRCLE ( 'NONE', #454, 1.000000000000000888 ) ;
#99 = ORIENTED_EDGE ( 'NONE', *, *, #74, .F. ) ;
#100 = PRESENTATION_STYLE_ASSIGNMENT (( #542 ) ) ;
#101 = ORIENTED_EDGE ( 'NONE', *, *, #169, .F. ) ;
#102 = CARTESIAN_POINT ( 'NONE',  ( 0.000000000000000000, 0.000000000000000000, -31.00000000000000000 ) ) ;
#103 = DIRECTION ( 'NONE',  ( -0.000000000000000000, -0.000000000000000000, 1.000000000000000000 ) ) ;
#104 =( LENGTH_UNIT ( ) NAMED_UNIT ( * ) SI_UNIT ( .MILLI., .METRE. ) );
#105 = ORIENTED_EDGE ( 'NONE', *, *, #307, .F. ) ;
#106 = AXIS2_PLACEMENT_3D ( 'NONE', #71, #363, #608 ) ;
#107 = AXIS2_PLACEMENT_3D ( 'NONE', #496, #132, #538 ) ;
#108 = ADVANCED_FACE ( 'NONE', ( #306 ), #612, .F. ) ;
#109 = DIRECTION ( 'NONE',  ( 0.000000000000000000, 0.000000000000000000, -1.000000000000000000 ) ) ;
#110 = VERTEX_POINT ( 'NONE', #123 ) ;
#111 = CARTESIAN_POINT ( 'NONE',  ( 1.800000000000000044, 2.924999999999995381, -7.650000000000003020 ) ) ;
#112 = ORIENTED_EDGE ( 'NONE', *, *, #553, .F. ) ;
#113 = LINE ( 'NONE', #395, #491 ) ;
#114 = EDGE_CURVE ( 'NONE', #568, #368, #357, .T. ) ;
#115 = AXIS2_PLACEMENT_3D ( 'NONE', #461, #319, #524 ) ;
#116 = VECTOR ( 'NONE', #93, 1000.000000000000000 ) ;
#117 = LINE ( 'NONE', #511, #467 ) ;
#118 = CARTESIAN_POINT ( 'NONE',  ( 1.800000000000000044, 17.42500000000000071, -23.34999999999999787 ) ) ;
#119 = DIRECTION ( 'NONE',  ( 0.000000000000000000, -1.000000000000000000, 0.000000000000000000 ) ) ;
#120 = CARTESIAN_POINT ( 'NONE',  ( 5.799999999999999822, 9.537256831458041262, -9.191409046518604242 ) ) ;
#121 = EDGE_CURVE ( 'NONE', #468, #209, #172, .T. ) ;
#122 = CARTESIAN_POINT ( 'NONE',  ( 1.800000000000000044, 0.000000000000000000, 0.000000000000000000 ) ) ;
#123 = CARTESIAN_POINT ( 'NONE',  ( 5.799999999999999822, 17.91610889887260782, -9.191409046518604242 ) ) ;
#124 = AXIS2_PLACEMENT_3D ( 'NONE', #249, #255, #69 ) ;
#125 = CARTESIAN_POINT ( 'NONE',  ( 5.799999999999999822, 17.91610889887260782, -17.66806872561505060 ) ) ;
#126 = DIRECTION ( 'NONE',  ( 0.000000000000000000, -0.000000000000000000, 1.000000000000000000 ) ) ;
#127 = ORIENTED_EDGE ( 'NONE', *, *, #358, .T. ) ;
#128 = FACE_OUTER_BOUND ( 'NONE', #314, .T. ) ;
#129 = LINE ( 'NONE', #473, #452 ) ;
#130 = ORIENTED_EDGE ( 'NONE', *, *, #619, .F. ) ;
#131 = LINE ( 'NONE', #289, #116 ) ;
#132 = DIRECTION ( 'NONE',  ( 0.000000000000000000, 0.000000000000000000, 1.000000000000000000 ) ) ;
#133 = AXIS2_PLACEMENT_3D ( 'NONE', #457, #575, #356 ) ;
#134 = ORIENTED_EDGE ( 'NONE', *, *, #258, .T. ) ;
#135 = DIRECTION ( 'NONE',  ( 0.000000000000000000, 0.000000000000000000, 1.000000000000000000 ) ) ;
#136 = DIRECTION ( 'NONE',  ( 0.000000000000000000, 0.000000000000000000, 1.000000000000000000 ) ) ;
#137 = ORIENTED_EDGE ( 'NONE', *, *, #41, .F. ) ;
#138 = ADVANCED_FACE ( 'NONE', ( #322 ), #407, .F. ) ;
#139 = CARTESIAN_POINT ( 'NONE',  ( 5.799999999999999822, 17.91610889887260782, -17.66806872561505060 ) ) ;
#140 = ORIENTED_EDGE ( 'NONE', *, *, #343, .T. ) ;
#141 =( NAMED_UNIT ( * ) SI_UNIT ( $, .STERADIAN. ) SOLID_ANGLE_UNIT ( ) );
#142 = CARTESIAN_POINT ( 'NONE',  ( 1.800000000000000044, 17.42500000000000071, -5.650000000000002132 ) ) ;
#143 = AXIS2_PLACEMENT_3D ( 'NONE', #528, #515, #415 ) ;
#144 = VECTOR ( 'NONE', #381, 1000.000000000000000 ) ;
#145 = VERTEX_POINT ( 'NONE', #361 ) ;
#146 =( GEOMETRIC_REPRESENTATION_CONTEXT ( 3 ) GLOBAL_UNCERTAINTY_ASSIGNED_CONTEXT ( ( #35 ) ) GLOBAL_UNIT_ASSIGNED_CONTEXT ( ( #482, #286, #141 ) ) REPRESENTATION_CONTEXT ( 'NONE', 'WORKASPACE' ) );
#147 = ORIENTED_EDGE ( 'NONE', *, *, #74, .T. ) ;
#148 = DIRECTION ( 'NONE',  ( -1.000000000000000000, -0.000000000000000000, -0.000000000000000000 ) ) ;
#149 = ORIENTED_EDGE ( 'NONE', *, *, #459, .T. ) ;
#150 = CARTESIAN_POINT ( 'NONE',  ( 0.000000000000000000, 17.42500000000000071, -6.650000000000002132 ) ) ;
#151 = DIRECTION ( 'NONE',  ( 0.000000000000000000, 0.000000000000000000, -1.000000000000000000 ) ) ;
#152 = CIRCLE ( 'NONE', #175, 1.000000000000000888 ) ;
#153 = LINE ( 'NONE', #68, #340 ) ;
#154 = DIRECTION ( 'NONE',  ( 0.000000000000000000, 0.000000000000000000, 1.000000000000000000 ) ) ;
#155 = EDGE_CURVE ( 'NONE', #182, #245, #214, .T. ) ;
#156 = CARTESIAN_POINT ( 'NONE',  ( 1.800000000000000044, 2.924999999999998934, -23.34999999999999787 ) ) ;
#157 = ADVANCED_FACE ( 'NONE', ( #32, #616, #519, #260, #366 ), #275, .T. ) ;
#158 = CYLINDRICAL_SURFACE ( 'NONE', #97, 1.000000000000000000 ) ;
#159 = FACE_OUTER_BOUND ( 'NONE', #240, .T. ) ;
#160 = VERTEX_POINT ( 'NONE', #27 ) ;
#161 =( GEOMETRIC_REPRESENTATION_CONTEXT ( 3 ) GLOBAL_UNCERTAINTY_ASSIGNED_CONTEXT ( ( #170 ) ) GLOBAL_UNIT_ASSIGNED_CONTEXT ( ( #104, #507, #250 ) ) REPRESENTATION_CONTEXT ( 'NONE', 'WORKASPACE' ) );
#162 = DIRECTION ( 'NONE',  ( -1.000000000000000000, 0.000000000000000000, -0.000000000000000000 ) ) ;
#163 = ADVANCED_FACE ( 'NONE', ( #228 ), #223, .F. ) ;
#164 = DIRECTION ( 'NONE',  ( -0.000000000000000000, 1.000000000000000000, 0.000000000000000000 ) ) ;
#165 = EDGE_LOOP ( 'NONE', ( #573, #589, #435, #400 ) ) ;
#166 = DIRECTION ( 'NONE',  ( 0.000000000000000000, -0.000000000000000000, -1.000000000000000000 ) ) ;
#167 = CARTESIAN_POINT ( 'NONE',  ( 1.800000000000000044, 0.000000000000000000, 0.000000000000000000 ) ) ;
#168 = ORIENTED_EDGE ( 'NONE', *, *, #325, .F. ) ;
#169 = EDGE_CURVE ( 'NONE', #351, #145, #431, .T. ) ;
#170 = UNCERTAINTY_MEASURE_WITH_UNIT (LENGTH_MEASURE( 1.000000000000000082E-05 ), #104, 'distance_accuracy_value', 'NONE');
#171 = DIRECTION ( 'NONE',  ( -1.000000000000000000, -0.000000000000000000, -0.000000000000000000 ) ) ;
#172 = LINE ( 'NONE', #471, #37 ) ;
#173 = ORIENTED_EDGE ( 'NONE', *, *, #226, .T. ) ;
#174 = VECTOR ( 'NONE', #269, 1000.000000000000000 ) ;
#175 = AXIS2_PLACEMENT_3D ( 'NONE', #321, #70, #558 ) ;
#176 = CARTESIAN_POINT ( 'NONE',  ( 5.799999999999999822, 17.91610889887260782, -9.191409046518604242 ) ) ;
#177 = CARTESIAN_POINT ( 'NONE',  ( 1.800000000000000044, 2.924999999999998934, -23.34999999999999787 ) ) ;
#178 = ORIENTED_EDGE ( 'NONE', *, *, #36, .F. ) ;
#179 = DIRECTION ( 'NONE',  ( -1.000000000000000000, -0.000000000000000000, -0.000000000000000000 ) ) ;
#180 = CARTESIAN_POINT ( 'NONE',  ( 0.000000000000000000, 17.42500000000000071, -6.650000000000002132 ) ) ;
#181 = DIRECTION ( 'NONE',  ( -1.000000000000000000, -0.000000000000000000, -0.000000000000000000 ) ) ;
#182 = VERTEX_POINT ( 'NONE', #423 ) ;
#183 = APPLICATION_CONTEXT ( 'automotive_design' ) ;
#184 = DIRECTION ( 'NONE',  ( 0.000000000000000000, 0.000000000000000000, 1.000000000000000000 ) ) ;
#185 = CARTESIAN_POINT ( 'NONE',  ( 1.800000000000000044, 20.35000000000000142, 0.000000000000000000 ) ) ;
#186 = AXIS2_PLACEMENT_3D ( 'NONE', #611, #119, #166 ) ;
#187 = ORIENTED_EDGE ( 'NONE', *, *, #532, .T. ) ;
#188 = APPLICATION_PROTOCOL_DEFINITION ( 'draft international standard', 'automotive_design', 1998, #335 ) ;
#189 = FACE_OUTER_BOUND ( 'NONE', #534, .T. ) ;
#190 = EDGE_LOOP ( 'NONE', ( #497, #526, #137, #233 ) ) ;
#191 = FILL_AREA_STYLE_COLOUR ( '', #231 ) ;
#192 = EDGE_LOOP ( 'NONE', ( #409, #130, #355, #55 ) ) ;
#193 = FACE_BOUND ( 'NONE', #280, .T. ) ;
#194 = AXIS2_PLACEMENT_3D ( 'NONE', #465, #79, #83 ) ;
#195 = VECTOR ( 'NONE', #546, 1000.000000000000000 ) ;
#196 = ORIENTED_EDGE ( 'NONE', *, *, #613, .F. ) ;
#197 = CARTESIAN_POINT ( 'NONE',  ( 0.000000000000000000, 2.924999999999995381, -5.650000000000003020 ) ) ;
#198 = ADVANCED_FACE ( 'NONE', ( #272 ), #417, .F. ) ;
#199 = DIRECTION ( 'NONE',  ( -1.000000000000000000, -0.000000000000000000, -0.000000000000000000 ) ) ;
#200 = LINE ( 'NONE', #1, #531 ) ;
#201 = EDGE_LOOP ( 'NONE', ( #418, #539, #84, #303 ) ) ;
#202 = LINE ( 'NONE', #552, #419 ) ;
#203 = ORIENTED_EDGE ( 'NONE', *, *, #15, .T. ) ;
#204 = VECTOR ( 'NONE', #393, 1000.000000000000000 ) ;
#205 = VECTOR ( 'NONE', #399, 1000.000000000000000 ) ;
#206 = PRESENTATION_LAYER_ASSIGNMENT (  '', '', ( #509 ) ) ;
#207 = FACE_BOUND ( 'NONE', #346, .T. ) ;
#208 = VERTEX_POINT ( 'NONE', #177 ) ;
#209 = VERTEX_POINT ( 'NONE', #370 ) ;
#210 = CARTESIAN_POINT ( 'NONE',  ( 5.799999999999999822, 9.537256831458041262, -9.191409046518604242 ) ) ;
#211 = ORIENTED_EDGE ( 'NONE', *, *, #274, .F. ) ;
#212 = EDGE_CURVE ( 'NONE', #81, #291, #278, .T. ) ;
#213 = FACE_OUTER_BOUND ( 'NONE', #424, .T. ) ;
#214 = LINE ( 'NONE', #86, #388 ) ;
#215 = ORIENTED_EDGE ( 'NONE', *, *, #574, .F. ) ;
#216 = CIRCLE ( 'NONE', #466, 1.000000000000000000 ) ;
#217 = VECTOR ( 'NONE', #181, 1000.000000000000000 ) ;
#218 = LINE ( 'NONE', #464, #304 ) ;
#219 = DIRECTION ( 'NONE',  ( 0.000000000000000000, 0.000000000000000000, -1.000000000000000000 ) ) ;
#220 = ORIENTED_EDGE ( 'NONE', *, *, #307, .T. ) ;
#221 = PRODUCT ( 'buck converter', 'buck converter', '', ( #635 ) ) ;
#222 = CARTESIAN_POINT ( 'NONE',  ( 1.800000000000000044, 9.537256831458041262, -9.191409046518604242 ) ) ;
#223 = PLANE ( 'NONE',  #477 ) ;
#224 = ORIENTED_EDGE ( 'NONE', *, *, #440, .F. ) ;
#225 = EDGE_LOOP ( 'NONE', ( #639, #430, #30, #270 ) ) ;
#226 = EDGE_CURVE ( 'NONE', #50, #334, #216, .T. ) ;
#227 = DIRECTION ( 'NONE',  ( 0.000000000000000000, 0.000000000000000000, -1.000000000000000000 ) ) ;
#228 = FACE_OUTER_BOUND ( 'NONE', #190, .T. ) ;
#229 = VERTEX_POINT ( 'NONE', #487 ) ;
#230 = EDGE_CURVE ( 'NONE', #632, #43, #586, .T. ) ;
#231 = COLOUR_RGB ( '',0.5490196078431373028, 0.000000000000000000, 0.6862745098039215730 ) ;
#232 = CYLINDRICAL_SURFACE ( 'NONE', #143, 1.000000000000000888 ) ;
#233 = ORIENTED_EDGE ( 'NONE', *, *, #609, .T. ) ;
#234 = FILL_AREA_STYLE_COLOUR ( '', #267 ) ;
#235 = DIRECTION ( 'NONE',  ( -1.000000000000000000, -0.000000000000000000, -0.000000000000000000 ) ) ;
#236 = EDGE_LOOP ( 'NONE', ( #374, #243, #215, #525 ) ) ;
#237 = EDGE_LOOP ( 'NONE', ( #637, #134 ) ) ;
#238 = EDGE_CURVE ( 'NONE', #160, #474, #397, .T. ) ;
#239 = CARTESIAN_POINT ( 'NONE',  ( 0.000000000000000000, 17.42500000000000071, -23.34999999999999787 ) ) ;
#240 = EDGE_LOOP ( 'NONE', ( #91, #390, #522, #439 ) ) ;
#241 = AXIS2_PLACEMENT_3D ( 'NONE', #324, #371, #136 ) ;
#242 = FACE_OUTER_BOUND ( 'NONE', #165, .T. ) ;
#243 = ORIENTED_EDGE ( 'NONE', *, *, #155, .F. ) ;
#244 = CARTESIAN_POINT ( 'NONE',  ( 1.800000000000000044, 17.42500000000000071, -7.650000000000002132 ) ) ;
#245 = VERTEX_POINT ( 'NONE', #378 ) ;
#246 = DIRECTION ( 'NONE',  ( 1.000000000000000000, 0.000000000000000000, 0.000000000000000000 ) ) ;
#247 = EDGE_LOOP ( 'NONE', ( #428, #614, #34, #479 ) ) ;
#248 = VECTOR ( 'NONE', #389, 1000.000000000000000 ) ;
#249 = CARTESIAN_POINT ( 'NONE',  ( 1.800000000000000044, 2.924999999999995381, -6.650000000000003020 ) ) ;
#250 =( NAMED_UNIT ( * ) SI_UNIT ( $, .STERADIAN. ) SOLID_ANGLE_UNIT ( ) );
#251 = CARTESIAN_POINT ( 'NONE',  ( 1.800000000000000044, 2.924999999999995381, -7.650000000000003020 ) ) ;
#252 = LINE ( 'NONE', #10, #205 ) ;
#253 = FACE_OUTER_BOUND ( 'NONE', #485, .T. ) ;
#254 = CARTESIAN_POINT ( 'NONE',  ( 5.799999999999999822, 17.91610889887260782, -17.66806872561505060 ) ) ;
#255 = DIRECTION ( 'NONE',  ( -1.000000000000000000, -0.000000000000000000, -0.000000000000000000 ) ) ;
#256 = VECTOR ( 'NONE', #620, 1000.000000000000000 ) ;
#257 = DIRECTION ( 'NONE',  ( -1.000000000000000000, -0.000000000000000000, -0.000000000000000000 ) ) ;
#258 = EDGE_CURVE ( 'NONE', #420, #283, #39, .T. ) ;
#259 = CARTESIAN_POINT ( 'NONE',  ( 1.800000000000000044, 17.91610889887260782, -9.191409046518604242 ) ) ;
#260 = FACE_BOUND ( 'NONE', #494, .T. ) ;
#261 = CARTESIAN_POINT ( 'NONE',  ( 1.800000000000000044, 20.35000000000000142, -31.00000000000000000 ) ) ;
#262 = EDGE_CURVE ( 'NONE', #568, #478, #630, .T. ) ;
#263 = DIRECTION ( 'NONE',  ( 0.000000000000000000, -0.000000000000000000, 1.000000000000000000 ) ) ;
#264 = ORIENTED_EDGE ( 'NONE', *, *, #325, .T. ) ;
#265 = AXIS2_PLACEMENT_3D ( 'NONE', #504, #62, #451 ) ;
#266 = VECTOR ( 'NONE', #87, 1000.000000000000000 ) ;
#267 = COLOUR_RGB ( '',0.5490196078431373028, 0.000000000000000000, 0.6862745098039215730 ) ;
#268 = DIRECTION ( 'NONE',  ( 0.000000000000000000, 0.000000000000000000, -1.000000000000000000 ) ) ;
#269 = DIRECTION ( 'NONE',  ( -1.000000000000000000, -0.000000000000000000, -0.000000000000000000 ) ) ;
#270 = ORIENTED_EDGE ( 'NONE', *, *, #155, .T. ) ;
#271 = DIRECTION ( 'NONE',  ( 0.000000000000000000, 0.000000000000000000, -1.000000000000000000 ) ) ;
#272 = FACE_OUTER_BOUND ( 'NONE', #236, .T. ) ;
#273 = ORIENTED_EDGE ( 'NONE', *, *, #169, .T. ) ;
#274 = EDGE_CURVE ( 'NONE', #209, #43, #131, .T. ) ;
#275 = PLANE ( 'NONE',  #115 ) ;
#276 = ADVANCED_FACE ( 'NONE', ( #242 ), #54, .F. ) ;
#277 = ORIENTED_EDGE ( 'NONE', *, *, #411, .T. ) ;
#278 = CIRCLE ( 'NONE', #499, 1.000000000000000888 ) ;
#279 = FILL_AREA_STYLE ('',( #191 ) ) ;
#280 = EDGE_LOOP ( 'NONE', ( #488, #196 ) ) ;
#281 = ADVANCED_FACE ( 'NONE', ( #333 ), #96, .F. ) ;
#282 = LINE ( 'NONE', #156, #549 ) ;
#283 = VERTEX_POINT ( 'NONE', #239 ) ;
#284 = CARTESIAN_POINT ( 'NONE',  ( 1.800000000000000044, 17.42500000000000071, -23.34999999999999787 ) ) ;
#285 = ORIENTED_EDGE ( 'NONE', *, *, #436, .F. ) ;
#286 =( NAMED_UNIT ( * ) PLANE_ANGLE_UNIT ( ) SI_UNIT ( $, .RADIAN. ) );
#287 = LINE ( 'NONE', #493, #266 ) ;
#288 = VERTEX_POINT ( 'NONE', #434 ) ;
#289 = CARTESIAN_POINT ( 'NONE',  ( 0.000000000000000000, 20.35000000000000142, 0.000000000000000000 ) ) ;
#290 = ORIENTED_EDGE ( 'NONE', *, *, #385, .T. ) ;
#291 = VERTEX_POINT ( 'NONE', #529 ) ;
#292 = EDGE_CURVE ( 'NONE', #283, #420, #49, .T. ) ;
#293 = LINE ( 'NONE', #111, #58 ) ;
#294 = LINE ( 'NONE', #353, #204 ) ;
#295 = AXIS2_PLACEMENT_3D ( 'NONE', #536, #429, #588 ) ;
#296 = ORIENTED_EDGE ( 'NONE', *, *, #613, .T. ) ;
#297 = EDGE_CURVE ( 'NONE', #81, #283, #581, .T. ) ;
#298 = DIRECTION ( 'NONE',  ( -1.000000000000000000, -0.000000000000000000, -0.000000000000000000 ) ) ;
#299 = CARTESIAN_POINT ( 'NONE',  ( 5.799999999999999822, 17.91610889887260782, -9.191409046518604242 ) ) ;
#300 = PLANE ( 'NONE',  #12 ) ;
#301 = VERTEX_POINT ( 'NONE', #373 ) ;
#302 = DIRECTION ( 'NONE',  ( 1.000000000000000000, 0.000000000000000000, 0.000000000000000000 ) ) ;
#303 = ORIENTED_EDGE ( 'NONE', *, *, #258, .F. ) ;
#304 = VECTOR ( 'NONE', #271, 1000.000000000000000 ) ;
#305 = DIRECTION ( 'NONE',  ( -1.000000000000000000, -0.000000000000000000, -0.000000000000000000 ) ) ;
#306 = FACE_OUTER_BOUND ( 'NONE', #225, .T. ) ;
#307 = EDGE_CURVE ( 'NONE', #478, #301, #45, .T. ) ;
#308 = DIRECTION ( 'NONE',  ( -0.000000000000000000, 1.000000000000000000, -0.000000000000000000 ) ) ;
#309 = CARTESIAN_POINT ( 'NONE',  ( 5.799999999999999822, 9.537256831458041262, -17.66806872561505060 ) ) ;
#310 = EDGE_LOOP ( 'NONE', ( #173, #587, #316, #94 ) ) ;
#311 = EDGE_CURVE ( 'NONE', #50, #160, #48, .T. ) ;
#312 = CARTESIAN_POINT ( 'NONE',  ( 1.800000000000000044, 2.924999999999998934, -25.35000000000000142 ) ) ;
#313 = CARTESIAN_POINT ( 'NONE',  ( 1.800000000000000044, 17.42500000000000071, -7.650000000000002132 ) ) ;
#314 = EDGE_LOOP ( 'NONE', ( #592, #379, #168, #53 ) ) ;
#315 = VECTOR ( 'NONE', #636, 1000.000000000000000 ) ;
#316 = ORIENTED_EDGE ( 'NONE', *, *, #238, .F. ) ;
#317 = DIRECTION ( 'NONE',  ( 0.000000000000000000, 0.000000000000000000, -1.000000000000000000 ) ) ;
#318 = ADVANCED_FACE ( 'NONE', ( #189 ), #628, .F. ) ;
#319 = DIRECTION ( 'NONE',  ( -1.000000000000000000, 0.000000000000000000, 0.000000000000000000 ) ) ;
#320 = ORIENTED_EDGE ( 'NONE', *, *, #331, .F. ) ;
#321 = CARTESIAN_POINT ( 'NONE',  ( 1.800000000000000044, 17.42500000000000071, -24.35000000000000142 ) ) ;
#322 = FACE_OUTER_BOUND ( 'NONE', #2, .T. ) ;
#323 = ORIENTED_EDGE ( 'NONE', *, *, #541, .T. ) ;
#324 = CARTESIAN_POINT ( 'NONE',  ( 1.800000000000000044, 2.924999999999998934, -24.35000000000000142 ) ) ;
#325 = EDGE_CURVE ( 'NONE', #468, #632, #287, .T. ) ;
#326 = AXIS2_PLACEMENT_3D ( 'NONE', #167, #164, #126 ) ;
#327 = CIRCLE ( 'NONE', #77, 1.000000000000000000 ) ;
#328 =( LENGTH_UNIT ( ) NAMED_UNIT ( * ) SI_UNIT ( .MILLI., .METRE. ) );
#329 = CARTESIAN_POINT ( 'NONE',  ( 0.000000000000000000, 2.924999999999995381, -6.650000000000003020 ) ) ;
#330 = ORIENTED_EDGE ( 'NONE', *, *, #385, .F. ) ;
#331 = EDGE_CURVE ( 'NONE', #145, #351, #508, .T. ) ;
#332 = PRESENTATION_STYLE_ASSIGNMENT (( #627 ) ) ;
#333 = FACE_OUTER_BOUND ( 'NONE', #530, .T. ) ;
#334 = VERTEX_POINT ( 'NONE', #244 ) ;
#335 = APPLICATION_CONTEXT ( 'automotive_design' ) ;
#336 = MANIFOLD_SOLID_BREP ( 'Boss-Extrude2', #3 ) ;
#337 = DIRECTION ( 'NONE',  ( 0.000000000000000000, 0.000000000000000000, -1.000000000000000000 ) ) ;
#338 = EDGE_LOOP ( 'NONE', ( #149, #105, #537, #80 ) ) ;
#339 = AXIS2_PLACEMENT_3D ( 'NONE', #60, #7, #64 ) ;
#340 = VECTOR ( 'NONE', #505, 1000.000000000000000 ) ;
#341 = SURFACE_SIDE_STYLE ('',( #590 ) ) ;
#342 = ORIENTED_EDGE ( 'NONE', *, *, #436, .T. ) ;
#343 = EDGE_CURVE ( 'NONE', #208, #288, #282, .T. ) ;
#344 = ORIENTED_EDGE ( 'NONE', *, *, #15, .F. ) ;
#345 = LINE ( 'NONE', #102, #248 ) ;
#346 = EDGE_LOOP ( 'NONE', ( #551, #462 ) ) ;
#347 = VECTOR ( 'NONE', #638, 1000.000000000000000 ) ;
#348 = FACE_BOUND ( 'NONE', #387, .T. ) ;
#349 = CIRCLE ( 'NONE', #367, 1.000000000000000000 ) ;
#350 = AXIS2_PLACEMENT_3D ( 'NONE', #394, #302, #597 ) ;
#351 = VERTEX_POINT ( 'NONE', #197 ) ;
#352 = CARTESIAN_POINT ( 'NONE',  ( 0.000000000000000000, 2.924999999999998934, -24.35000000000000142 ) ) ;
#353 = CARTESIAN_POINT ( 'NONE',  ( 0.000000000000000000, 0.000000000000000000, 0.000000000000000000 ) ) ;
#354 = DIRECTION ( 'NONE',  ( 1.000000000000000000, 0.000000000000000000, 0.000000000000000000 ) ) ;
#355 = ORIENTED_EDGE ( 'NONE', *, *, #459, .F. ) ;
#356 = DIRECTION ( 'NONE',  ( 0.000000000000000000, 0.000000000000000000, -1.000000000000000000 ) ) ;
#357 = LINE ( 'NONE', #309, #631 ) ;
#358 = EDGE_CURVE ( 'NONE', #40, #145, #293, .T. ) ;
#359 = VECTOR ( 'NONE', #171, 1000.000000000000000 ) ;
#360 = LINE ( 'NONE', #523, #375 ) ;
#361 = CARTESIAN_POINT ( 'NONE',  ( 0.000000000000000000, 2.924999999999995381, -7.650000000000003020 ) ) ;
#362 = CARTESIAN_POINT ( 'NONE',  ( 1.800000000000000044, 2.924999999999995381, -6.650000000000003020 ) ) ;
#363 = DIRECTION ( 'NONE',  ( -1.000000000000000000, -0.000000000000000000, -0.000000000000000000 ) ) ;
#364 = ORIENTED_EDGE ( 'NONE', *, *, #619, .T. ) ;
#365 = DIRECTION ( 'NONE',  ( -0.000000000000000000, -1.000000000000000000, -0.000000000000000000 ) ) ;
#366 = FACE_BOUND ( 'NONE', #596, .T. ) ;
#367 = AXIS2_PLACEMENT_3D ( 'NONE', #362, #414, #268 ) ;
#368 = VERTEX_POINT ( 'NONE', #544 ) ;
#369 = CARTESIAN_POINT ( 'NONE',  ( 1.800000000000000044, 2.924999999999995381, -5.650000000000003020 ) ) ;
#370 = CARTESIAN_POINT ( 'NONE',  ( 0.000000000000000000, 20.35000000000000142, -31.00000000000000000 ) ) ;
#371 = DIRECTION ( 'NONE',  ( -1.000000000000000000, -0.000000000000000000, -0.000000000000000000 ) ) ;
#372 = EDGE_LOOP ( 'NONE', ( #618, #323, #413, #516 ) ) ;
#373 = CARTESIAN_POINT ( 'NONE',  ( 1.800000000000000044, 17.91610889887260782, -17.66806872561505060 ) ) ;
#374 = ORIENTED_EDGE ( 'NONE', *, *, #36, .T. ) ;
#375 = VECTOR ( 'NONE', #604, 1000.000000000000000 ) ;
#376 = PRODUCT_RELATED_PRODUCT_CATEGORY ( 'part', '', ( #221 ) ) ;
#377 = AXIS2_PLACEMENT_3D ( 'NONE', #580, #179, #184 ) ;
#378 = CARTESIAN_POINT ( 'NONE',  ( 0.000000000000000000, 0.000000000000000000, 0.000000000000000000 ) ) ;
#379 = ORIENTED_EDGE ( 'NONE', *, *, #230, .F. ) ;
#380 = SHAPE_DEFINITION_REPRESENTATION ( #405, #47 ) ;
#381 = DIRECTION ( 'NONE',  ( -0.000000000000000000, 1.000000000000000000, -0.000000000000000000 ) ) ;
#382 = ORIENTED_EDGE ( 'NONE', *, *, #440, .T. ) ;
#383 = ADVANCED_FACE ( 'NONE', ( #193, #207, #396, #348, #445, #392 ), #300, .F. ) ;
#384 = SURFACE_STYLE_FILL_AREA ( #437 ) ;
#385 = EDGE_CURVE ( 'NONE', #89, #209, #345, .T. ) ;
#386 = CARTESIAN_POINT ( 'NONE',  ( 5.799999999999999822, 17.91610889887260782, -9.191409046518604242 ) ) ;
#387 = EDGE_LOOP ( 'NONE', ( #583, #547 ) ) ;
#388 = VECTOR ( 'NONE', #563, 1000.000000000000000 ) ;
#389 = DIRECTION ( 'NONE',  ( 0.000000000000000000, 1.000000000000000000, 0.000000000000000000 ) ) ;
#390 = ORIENTED_EDGE ( 'NONE', *, *, #41, .T. ) ;
#391 = EDGE_CURVE ( 'NONE', #245, #89, #153, .T. ) ;
#392 = FACE_BOUND ( 'NONE', #192, .T. ) ;
#393 = DIRECTION ( 'NONE',  ( -0.000000000000000000, -1.000000000000000000, -0.000000000000000000 ) ) ;
#394 = CARTESIAN_POINT ( 'NONE',  ( 0.000000000000000000, 2.924999999999998934, -24.35000000000000142 ) ) ;
#395 = CARTESIAN_POINT ( 'NONE',  ( 5.799999999999999822, 17.91610889887260782, -9.191409046518604242 ) ) ;
#396 = FACE_BOUND ( 'NONE', #14, .T. ) ;
#397 = CIRCLE ( 'NONE', #599, 1.000000000000000000 ) ;
#398 = FACE_OUTER_BOUND ( 'NONE', #310, .T. ) ;
#399 = DIRECTION ( 'NONE',  ( 0.000000000000000000, -1.000000000000000000, 0.000000000000000000 ) ) ;
#400 = ORIENTED_EDGE ( 'NONE', *, *, #343, .F. ) ;
#401 = ORIENTED_EDGE ( 'NONE', *, *, #358, .F. ) ;
#402 = CARTESIAN_POINT ( 'NONE',  ( 1.800000000000000044, 2.924999999999998934, -24.35000000000000142 ) ) ;
#403 = EDGE_CURVE ( 'NONE', #610, #506, #59, .T. ) ;
#404 = FACE_OUTER_BOUND ( 'NONE', #20, .T. ) ;
#405 = PRODUCT_DEFINITION_SHAPE ( 'NONE', 'NONE',  #24 ) ;
#406 = PLANE ( 'NONE',  #66 ) ;
#407 = CYLINDRICAL_SURFACE ( 'NONE', #106, 1.000000000000000888 ) ;
#408 = VECTOR ( 'NONE', #470, 1000.000000000000000 ) ;
#409 = ORIENTED_EDGE ( 'NONE', *, *, #403, .F. ) ;
#410 = DIRECTION ( 'NONE',  ( 0.000000000000000000, 0.000000000000000000, -1.000000000000000000 ) ) ;
#411 = EDGE_CURVE ( 'NONE', #288, #229, #492, .T. ) ;
#412 = CARTESIAN_POINT ( 'NONE',  ( 0.000000000000000000, 0.000000000000000000, -31.00000000000000000 ) ) ;
#413 = ORIENTED_EDGE ( 'NONE', *, *, #292, .F. ) ;
#414 = DIRECTION ( 'NONE',  ( 1.000000000000000000, 0.000000000000000000, 0.000000000000000000 ) ) ;
#415 = DIRECTION ( 'NONE',  ( 0.000000000000000000, 0.000000000000000000, 1.000000000000000000 ) ) ;
#416 = LINE ( 'NONE', #259, #256 ) ;
#417 = PLANE ( 'NONE',  #557 ) ;
#418 = ORIENTED_EDGE ( 'NONE', *, *, #541, .F. ) ;
#419 = VECTOR ( 'NONE', #308, 1000.000000000000000 ) ;
#420 = VERTEX_POINT ( 'NONE', #447 ) ;
#421 = UNCERTAINTY_MEASURE_WITH_UNIT (LENGTH_MEASURE( 1.000000000000000082E-05 ), #328, 'distance_accuracy_value', 'NONE');
#422 = CYLINDRICAL_SURFACE ( 'NONE', #377, 1.000000000000000000 ) ;
#423 = CARTESIAN_POINT ( 'NONE',  ( 1.800000000000000044, 0.000000000000000000, 0.000000000000000000 ) ) ;
#424 = EDGE_LOOP ( 'NONE', ( #33, #46, #498, #203 ) ) ;
#425 = SURFACE_SIDE_STYLE ('',( #384 ) ) ;
#426 = ADVANCED_FACE ( 'NONE', ( #501 ), #63, .F. ) ;
#427 = CARTESIAN_POINT ( 'NONE',  ( 5.799999999999999822, 17.91610889887260782, -17.66806872561505060 ) ) ;
#428 = ORIENTED_EDGE ( 'NONE', *, *, #78, .F. ) ;
#429 = DIRECTION ( 'NONE',  ( 1.000000000000000000, 0.000000000000000000, 0.000000000000000000 ) ) ;
#430 = ORIENTED_EDGE ( 'NONE', *, *, #463, .F. ) ;
#431 = CIRCLE ( 'NONE', #194, 1.000000000000000000 ) ;
#432 = MECHANICAL_DESIGN_GEOMETRIC_PRESENTATION_REPRESENTATION (  '', ( #559 ), #161 ) ;
#433 =( NAMED_UNIT ( * ) PLANE_ANGLE_UNIT ( ) SI_UNIT ( $, .RADIAN. ) );
#434 = CARTESIAN_POINT ( 'NONE',  ( 0.000000000000000000, 2.924999999999998934, -23.34999999999999787 ) ) ;
#435 = ORIENTED_EDGE ( 'NONE', *, *, #411, .F. ) ;
#436 = EDGE_CURVE ( 'NONE', #625, #468, #200, .T. ) ;
#437 = FILL_AREA_STYLE ('',( #234 ) ) ;
#438 = DIRECTION ( 'NONE',  ( 0.000000000000000000, 0.000000000000000000, -1.000000000000000000 ) ) ;
#439 = ORIENTED_EDGE ( 'NONE', *, *, #26, .T. ) ;
#440 = EDGE_CURVE ( 'NONE', #229, #288, #22, .T. ) ;
#441 = DIRECTION ( 'NONE',  ( 1.000000000000000000, 0.000000000000000000, 0.000000000000000000 ) ) ;
#442 = ORIENTED_EDGE ( 'NONE', *, *, #463, .T. ) ;
#443 = VECTOR ( 'NONE', #199, 1000.000000000000000 ) ;
#444 = PRESENTATION_LAYER_ASSIGNMENT (  '', '', ( #559 ) ) ;
#445 = FACE_OUTER_BOUND ( 'NONE', #521, .T. ) ;
#446 = VERTEX_POINT ( 'NONE', #61 ) ;
#447 = CARTESIAN_POINT ( 'NONE',  ( 0.000000000000000000, 17.42500000000000071, -25.35000000000000142 ) ) ;
#448 = EDGE_CURVE ( 'NONE', #110, #446, #252, .T. ) ;
#449 = CYLINDRICAL_SURFACE ( 'NONE', #339, 1.000000000000000000 ) ;
#450 = DIRECTION ( 'NONE',  ( 1.000000000000000000, 0.000000000000000000, 0.000000000000000000 ) ) ;
#451 = DIRECTION ( 'NONE',  ( 0.000000000000000000, 0.000000000000000000, -1.000000000000000000 ) ) ;
#452 = VECTOR ( 'NONE', #567, 1000.000000000000000 ) ;
#453 = DIRECTION ( 'NONE',  ( -0.000000000000000000, 0.000000000000000000, 1.000000000000000000 ) ) ;
#454 = AXIS2_PLACEMENT_3D ( 'NONE', #402, #82, #317 ) ;
#455 = CARTESIAN_POINT ( 'NONE',  ( 5.799999999999999822, 9.537256831458041262, -9.191409046518604242 ) ) ;
#456 = EDGE_CURVE ( 'NONE', #474, #160, #593, .T. ) ;
#457 = CARTESIAN_POINT ( 'NONE',  ( 5.799999999999999822, 0.000000000000000000, 0.000000000000000000 ) ) ;
#458 = DIRECTION ( 'NONE',  ( 0.000000000000000000, 0.000000000000000000, 1.000000000000000000 ) ) ;
#459 = EDGE_CURVE ( 'NONE', #368, #301, #202, .T. ) ;
#460 = CARTESIAN_POINT ( 'NONE',  ( 1.800000000000000044, 2.924999999999995381, -6.650000000000003020 ) ) ;
#461 = CARTESIAN_POINT ( 'NONE',  ( 0.000000000000000000, 0.000000000000000000, 0.000000000000000000 ) ) ;
#462 = ORIENTED_EDGE ( 'NONE', *, *, #617, .F. ) ;
#463 = EDGE_CURVE ( 'NONE', #625, #89, #527, .T. ) ;
#464 = CARTESIAN_POINT ( 'NONE',  ( 1.800000000000000044, 0.000000000000000000, 0.000000000000000000 ) ) ;
#465 = CARTESIAN_POINT ( 'NONE',  ( 0.000000000000000000, 2.924999999999995381, -6.650000000000003020 ) ) ;
#466 = AXIS2_PLACEMENT_3D ( 'NONE', #38, #441, #90 ) ;
#467 = VECTOR ( 'NONE', #305, 1000.000000000000000 ) ;
#468 = VERTEX_POINT ( 'NONE', #261 ) ;
#469 = MECHANICAL_DESIGN_GEOMETRIC_PRESENTATION_REPRESENTATION (  '', ( #509 ), #67 ) ;
#470 = DIRECTION ( 'NONE',  ( -1.000000000000000000, -0.000000000000000000, -0.000000000000000000 ) ) ;
#471 = CARTESIAN_POINT ( 'NONE',  ( 1.800000000000000044, 20.35000000000000142, -31.00000000000000000 ) ) ;
#472 = PLANE ( 'NONE',  #133 ) ;
#473 = CARTESIAN_POINT ( 'NONE',  ( 1.800000000000000044, 2.924999999999995381, -5.650000000000003020 ) ) ;
#474 = VERTEX_POINT ( 'NONE', #85 ) ;
#475 =( NAMED_UNIT ( * ) SI_UNIT ( $, .STERADIAN. ) SOLID_ANGLE_UNIT ( ) );
#476 = DIRECTION ( 'NONE',  ( 1.000000000000000000, 0.000000000000000000, 0.000000000000000000 ) ) ;
#477 = AXIS2_PLACEMENT_3D ( 'NONE', #120, #73, #263 ) ;
#478 = VERTEX_POINT ( 'NONE', #125 ) ;
#479 = ORIENTED_EDGE ( 'NONE', *, *, #456, .F. ) ;
#480 = AXIS2_PLACEMENT_3D ( 'NONE', #585, #135, #535 ) ;
#481 = EDGE_CURVE ( 'NONE', #506, #368, #517, .T. ) ;
#482 =( LENGTH_UNIT ( ) NAMED_UNIT ( * ) SI_UNIT ( .MILLI., .METRE. ) );
#483 = DIRECTION ( 'NONE',  ( 1.000000000000000000, 0.000000000000000000, 0.000000000000000000 ) ) ;
#484 = ORIENTED_EDGE ( 'NONE', *, *, #331, .T. ) ;
#485 = EDGE_LOOP ( 'NONE', ( #401, #490, #147, #320 ) ) ;
#486 = CARTESIAN_POINT ( 'NONE',  ( 1.800000000000000044, 20.35000000000000142, 0.000000000000000000 ) ) ;
#487 = CARTESIAN_POINT ( 'NONE',  ( 0.000000000000000000, 2.924999999999998934, -25.35000000000000142 ) ) ;
#488 = ORIENTED_EDGE ( 'NONE', *, *, #52, .F. ) ;
#489 = DIRECTION ( 'NONE',  ( 1.000000000000000000, 0.000000000000000000, 0.000000000000000000 ) ) ;
#490 = ORIENTED_EDGE ( 'NONE', *, *, #565, .T. ) ;
#491 = VECTOR ( 'NONE', #103, 1000.000000000000000 ) ;
#492 = CIRCLE ( 'NONE', #633, 1.000000000000000888 ) ;
#493 = CARTESIAN_POINT ( 'NONE',  ( 1.800000000000000044, 20.35000000000000142, 0.000000000000000000 ) ) ;
#494 = EDGE_LOOP ( 'NONE', ( #11, #28 ) ) ;
#495 = ORIENTED_EDGE ( 'NONE', *, *, #391, .F. ) ;
#496 = CARTESIAN_POINT ( 'NONE',  ( 1.800000000000000044, 0.000000000000000000, -31.00000000000000000 ) ) ;
#497 = ORIENTED_EDGE ( 'NONE', *, *, #481, .T. ) ;
#498 = ORIENTED_EDGE ( 'NONE', *, *, #448, .F. ) ;
#499 = AXIS2_PLACEMENT_3D ( 'NONE', #576, #476, #624 ) ;
#500 = AXIS2_PLACEMENT_3D ( 'NONE', #254, #453, #13 ) ;
#501 = FACE_OUTER_BOUND ( 'NONE', #338, .T. ) ;
#502 = ORIENTED_EDGE ( 'NONE', *, *, #518, .T. ) ;
#503 = DIRECTION ( 'NONE',  ( 0.000000000000000000, 1.000000000000000000, 0.000000000000000000 ) ) ;
#504 = CARTESIAN_POINT ( 'NONE',  ( 1.800000000000000044, 2.924999999999998934, -24.35000000000000142 ) ) ;
#505 = DIRECTION ( 'NONE',  ( 0.000000000000000000, 0.000000000000000000, -1.000000000000000000 ) ) ;
#506 = VERTEX_POINT ( 'NONE', #222 ) ;
#507 =( NAMED_UNIT ( * ) PLANE_ANGLE_UNIT ( ) SI_UNIT ( $, .RADIAN. ) );
#508 = CIRCLE ( 'NONE', #88, 1.000000000000000000 ) ;
#509 = STYLED_ITEM ( 'NONE', ( #332 ), #47 ) ;
#510 = CARTESIAN_POINT ( 'NONE',  ( 0.000000000000000000, 20.35000000000000142, 0.000000000000000000 ) ) ;
#511 = CARTESIAN_POINT ( 'NONE',  ( 1.800000000000000044, 2.924999999999998934, -25.35000000000000142 ) ) ;
#512 = DIRECTION ( 'NONE',  ( -1.000000000000000000, -0.000000000000000000, -0.000000000000000000 ) ) ;
#513 = ADVANCED_FACE ( 'NONE', ( #159 ), #472, .T. ) ;
#514 = DIRECTION ( 'NONE',  ( 1.000000000000000000, 0.000000000000000000, 0.000000000000000000 ) ) ;
#515 = DIRECTION ( 'NONE',  ( -1.000000000000000000, -0.000000000000000000, -0.000000000000000000 ) ) ;
#516 = ORIENTED_EDGE ( 'NONE', *, *, #297, .F. ) ;
#517 = LINE ( 'NONE', #25, #571 ) ;
#518 = EDGE_CURVE ( 'NONE', #182, #625, #218, .T. ) ;
#519 = FACE_OUTER_BOUND ( 'NONE', #623, .T. ) ;
#520 = AXIS2_PLACEMENT_3D ( 'NONE', #386, #42, #578 ) ;
#521 = EDGE_LOOP ( 'NONE', ( #545, #502, #342, #264 ) ) ;
#522 = ORIENTED_EDGE ( 'NONE', *, *, #262, .T. ) ;
#523 = CARTESIAN_POINT ( 'NONE',  ( 1.800000000000000044, 17.42500000000000071, -25.35000000000000142 ) ) ;
#524 = DIRECTION ( 'NONE',  ( 0.000000000000000000, 0.000000000000000000, 1.000000000000000000 ) ) ;
#525 = ORIENTED_EDGE ( 'NONE', *, *, #230, .T. ) ;
#526 = ORIENTED_EDGE ( 'NONE', *, *, #114, .F. ) ;
#527 = LINE ( 'NONE', #566, #408 ) ;
#528 = CARTESIAN_POINT ( 'NONE',  ( 1.800000000000000044, 17.42500000000000071, -24.35000000000000142 ) ) ;
#529 = CARTESIAN_POINT ( 'NONE',  ( 1.800000000000000044, 17.42500000000000071, -25.35000000000000142 ) ) ;
#530 = EDGE_LOOP ( 'NONE', ( #364, #344, #577, #220 ) ) ;
#531 = VECTOR ( 'NONE', #503, 1000.000000000000000 ) ;
#532 = EDGE_CURVE ( 'NONE', #629, #40, #327, .T. ) ;
#533 = CARTESIAN_POINT ( 'NONE',  ( 0.000000000000000000, 17.42500000000000071, -24.35000000000000142 ) ) ;
#534 = EDGE_LOOP ( 'NONE', ( #290, #579, #285, #442 ) ) ;
#535 = DIRECTION ( 'NONE',  ( 1.000000000000000000, 0.000000000000000000, 0.000000000000000000 ) ) ;
#536 = CARTESIAN_POINT ( 'NONE',  ( 0.000000000000000000, 17.42500000000000071, -24.35000000000000142 ) ) ;
#537 = ORIENTED_EDGE ( 'NONE', *, *, #262, .F. ) ;
#538 = DIRECTION ( 'NONE',  ( 1.000000000000000000, 0.000000000000000000, -0.000000000000000000 ) ) ;
#539 = ORIENTED_EDGE ( 'NONE', *, *, #617, .T. ) ;
#540 = VECTOR ( 'NONE', #235, 1000.000000000000000 ) ;
#541 = EDGE_CURVE ( 'NONE', #291, #420, #360, .T. ) ;
#542 = SURFACE_STYLE_USAGE ( .BOTH. , #341 ) ;
#543 = VERTEX_POINT ( 'NONE', #312 ) ;
#544 = CARTESIAN_POINT ( 'NONE',  ( 1.800000000000000044, 9.537256831458041262, -17.66806872561505060 ) ) ;
#545 = ORIENTED_EDGE ( 'NONE', *, *, #574, .T. ) ;
#546 = DIRECTION ( 'NONE',  ( 0.000000000000000000, -1.000000000000000000, 0.000000000000000000 ) ) ;
#547 = ORIENTED_EDGE ( 'NONE', *, *, #565, .F. ) ;
#548 = VECTOR ( 'NONE', #151, 1000.000000000000000 ) ;
#549 = VECTOR ( 'NONE', #298, 1000.000000000000000 ) ;
#550 = CARTESIAN_POINT ( 'NONE',  ( 1.800000000000000044, 0.000000000000000000, 0.000000000000000000 ) ) ;
#551 = ORIENTED_EDGE ( 'NONE', *, *, #212, .F. ) ;
#552 = CARTESIAN_POINT ( 'NONE',  ( 1.800000000000000044, 17.91610889887260782, -17.66806872561505060 ) ) ;
#553 = EDGE_CURVE ( 'NONE', #334, #50, #4, .T. ) ;
#554 = LINE ( 'NONE', #299, #443 ) ;
#555 = DIRECTION ( 'NONE',  ( -1.000000000000000000, 0.000000000000000000, 0.000000000000000000 ) ) ;
#556 = CARTESIAN_POINT ( 'NONE',  ( 1.800000000000000044, 17.42500000000000071, -6.650000000000002132 ) ) ;
#557 = AXIS2_PLACEMENT_3D ( 'NONE', #23, #219, #621 ) ;
#558 = DIRECTION ( 'NONE',  ( 0.000000000000000000, 0.000000000000000000, -1.000000000000000000 ) ) ;
#559 = STYLED_ITEM ( 'NONE', ( #100 ), #336 ) ;
#560 = EDGE_CURVE ( 'NONE', #543, #229, #117, .T. ) ;
#561 = LINE ( 'NONE', #313, #174 ) ;
#562 = LINE ( 'NONE', #122, #622 ) ;
#563 = DIRECTION ( 'NONE',  ( -1.000000000000000000, -0.000000000000000000, -0.000000000000000000 ) ) ;
#564 = ORIENTED_EDGE ( 'NONE', *, *, #226, .F. ) ;
#565 = EDGE_CURVE ( 'NONE', #40, #629, #349, .T. ) ;
#566 = CARTESIAN_POINT ( 'NONE',  ( 1.800000000000000044, 0.000000000000000000, -31.00000000000000000 ) ) ;
#567 = DIRECTION ( 'NONE',  ( -1.000000000000000000, -0.000000000000000000, -0.000000000000000000 ) ) ;
#568 = VERTEX_POINT ( 'NONE', #21 ) ;
#569 = CARTESIAN_POINT ( 'NONE',  ( 1.800000000000000044, 17.91610889887260782, -9.191409046518604242 ) ) ;
#570 = FACE_OUTER_BOUND ( 'NONE', #201, .T. ) ;
#571 = VECTOR ( 'NONE', #227, 1000.000000000000000 ) ;
#572 = PRODUCT_DEFINITION_FORMATION_WITH_SPECIFIED_SOURCE ( 'Symmetric', '', #221, .NOT_KNOWN. ) ;
#573 = ORIENTED_EDGE ( 'NONE', *, *, #52, .T. ) ;
#574 = EDGE_CURVE ( 'NONE', #632, #182, #562, .T. ) ;
#575 = DIRECTION ( 'NONE',  ( 1.000000000000000000, 0.000000000000000000, 0.000000000000000000 ) ) ;
#576 = CARTESIAN_POINT ( 'NONE',  ( 1.800000000000000044, 17.42500000000000071, -24.35000000000000142 ) ) ;
#577 = ORIENTED_EDGE ( 'NONE', *, *, #26, .F. ) ;
#578 = DIRECTION ( 'NONE',  ( 0.000000000000000000, -0.000000000000000000, -1.000000000000000000 ) ) ;
#579 = ORIENTED_EDGE ( 'NONE', *, *, #121, .F. ) ;
#580 = CARTESIAN_POINT ( 'NONE',  ( 1.800000000000000044, 17.42500000000000071, -6.650000000000002132 ) ) ;
#581 = LINE ( 'NONE', #284, #217 ) ;
#582 = CIRCLE ( 'NONE', #265, 1.000000000000000888 ) ;
#583 = ORIENTED_EDGE ( 'NONE', *, *, #532, .F. ) ;
#584 = AXIS2_PLACEMENT_3D ( 'NONE', #16, #514, #410 ) ;
#585 = CARTESIAN_POINT ( 'NONE',  ( 0.000000000000000000, 0.000000000000000000, 0.000000000000000000 ) ) ;
#586 = LINE ( 'NONE', #185, #347 ) ;
#587 = ORIENTED_EDGE ( 'NONE', *, *, #78, .T. ) ;
#588 = DIRECTION ( 'NONE',  ( 0.000000000000000000, 0.000000000000000000, -1.000000000000000000 ) ) ;
#589 = ORIENTED_EDGE ( 'NONE', *, *, #560, .T. ) ;
#590 = SURFACE_STYLE_FILL_AREA ( #279 ) ;
#591 = ADVANCED_FACE ( 'NONE', ( #128 ), #72, .F. ) ;
#592 = ORIENTED_EDGE ( 'NONE', *, *, #274, .T. ) ;
#593 = CIRCLE ( 'NONE', #607, 1.000000000000000000 ) ;
#594 = ORIENTED_EDGE ( 'NONE', *, *, #560, .F. ) ;
#595 = DIRECTION ( 'NONE',  ( 0.000000000000000000, 0.000000000000000000, 1.000000000000000000 ) ) ;
#596 = EDGE_LOOP ( 'NONE', ( #277, #382 ) ) ;
#597 = DIRECTION ( 'NONE',  ( 0.000000000000000000, 0.000000000000000000, -1.000000000000000000 ) ) ;
#598 = FACE_OUTER_BOUND ( 'NONE', #372, .T. ) ;
#599 = AXIS2_PLACEMENT_3D ( 'NONE', #180, #483, #438 ) ;
#600 = DIRECTION ( 'NONE',  ( 0.000000000000000000, 0.000000000000000000, -1.000000000000000000 ) ) ;
#601 = CARTESIAN_POINT ( 'NONE',  ( 1.800000000000000044, 17.42500000000000071, -24.35000000000000142 ) ) ;
#602 = CARTESIAN_POINT ( 'NONE',  ( 1.800000000000000044, 17.42500000000000071, -5.650000000000002132 ) ) ;
#603 = EDGE_LOOP ( 'NONE', ( #273, #484 ) ) ;
#604 = DIRECTION ( 'NONE',  ( -1.000000000000000000, -0.000000000000000000, -0.000000000000000000 ) ) ;
#605 = CYLINDRICAL_SURFACE ( 'NONE', #65, 1.000000000000000888 ) ;
#606 = DIRECTION ( 'NONE',  ( 0.000000000000000000, 0.000000000000000000, -1.000000000000000000 ) ) ;
#607 = AXIS2_PLACEMENT_3D ( 'NONE', #150, #450, #600 ) ;
#608 = DIRECTION ( 'NONE',  ( 0.000000000000000000, 0.000000000000000000, 1.000000000000000000 ) ) ;
#609 = EDGE_CURVE ( 'NONE', #446, #506, #615, .T. ) ;
#610 = VERTEX_POINT ( 'NONE', #569 ) ;
#611 = CARTESIAN_POINT ( 'NONE',  ( 1.800000000000000044, 20.35000000000000142, 0.000000000000000000 ) ) ;
#612 = PLANE ( 'NONE',  #326 ) ;
#613 = EDGE_CURVE ( 'NONE', #543, #208, #98, .T. ) ;
#614 = ORIENTED_EDGE ( 'NONE', *, *, #553, .T. ) ;
#615 = LINE ( 'NONE', #210, #359 ) ;
#616 = FACE_BOUND ( 'NONE', #603, .T. ) ;
#617 = EDGE_CURVE ( 'NONE', #291, #81, #152, .T. ) ;
#618 = ORIENTED_EDGE ( 'NONE', *, *, #212, .T. ) ;
#619 = EDGE_CURVE ( 'NONE', #301, #610, #416, .T. ) ;
#620 = DIRECTION ( 'NONE',  ( -0.000000000000000000, -0.000000000000000000, 1.000000000000000000 ) ) ;
#621 = DIRECTION ( 'NONE',  ( -1.000000000000000000, 0.000000000000000000, -0.000000000000000000 ) ) ;
#622 = VECTOR ( 'NONE', #365, 1000.000000000000000 ) ;
#623 = EDGE_LOOP ( 'NONE', ( #178, #211, #330, #495 ) ) ;
#624 = DIRECTION ( 'NONE',  ( 0.000000000000000000, 0.000000000000000000, -1.000000000000000000 ) ) ;
#625 = VERTEX_POINT ( 'NONE', #18 ) ;
#626 = ADVANCED_FACE ( 'NONE', ( #213 ), #406, .F. ) ;
#627 = SURFACE_STYLE_USAGE ( .BOTH. , #425 ) ;
#628 = PLANE ( 'NONE',  #107 ) ;
#629 = VERTEX_POINT ( 'NONE', #369 ) ;
#630 = LINE ( 'NONE', #139, #144 ) ;
#631 = VECTOR ( 'NONE', #19, 1000.000000000000000 ) ;
#632 = VERTEX_POINT ( 'NONE', #486 ) ;
#633 = AXIS2_PLACEMENT_3D ( 'NONE', #352, #354, #109 ) ;
#634 = PRODUCT_DEFINITION_CONTEXT ( 'detailed design', #335, 'design' ) ;
#635 = PRODUCT_CONTEXT ( 'NONE', #183, 'mechanical' ) ;
#636 = DIRECTION ( 'NONE',  ( -1.000000000000000000, -0.000000000000000000, -0.000000000000000000 ) ) ;
#637 = ORIENTED_EDGE ( 'NONE', *, *, #292, .T. ) ;
#638 = DIRECTION ( 'NONE',  ( -1.000000000000000000, -0.000000000000000000, -0.000000000000000000 ) ) ;
#639 = ORIENTED_EDGE ( 'NONE', *, *, #391, .T. ) ;
#640 = ADVANCED_FACE ( 'NONE', ( #44 ), #422, .F. ) ;
ENDSEC;
END-ISO-10303-21;
