ISO-10303-21;
HEADER;
FILE_DESCRIPTION (( 'STEP AP214' ),
    '1' );
FILE_NAME ('middel part.STEP',
    '2026-05-30T17:37:42',
    ( '' ),
    ( '' ),
    'SwSTEP 2.0',
    'SolidWorks 2025',
    '' );
FILE_SCHEMA (( 'AUTOMOTIVE_DESIGN' ));
ENDSEC;

DATA;
#1 = DIRECTION ( 'NONE',  ( -1.000000000000000000, 0.000000000000000000, 0.000000000000000000 ) ) ;
#2 =( NAMED_UNIT ( * ) SI_UNIT ( $, .STERADIAN. ) SOLID_ANGLE_UNIT ( ) );
#3 = CIRCLE ( 'NONE', #427, 20.21999999999999886 ) ;
#4 = VECTOR ( 'NONE', #83, 1000.000000000000000 ) ;
#5 =( GEOMETRIC_REPRESENTATION_CONTEXT ( 3 ) GLOBAL_UNCERTAINTY_ASSIGNED_CONTEXT ( ( #210 ) ) GLOBAL_UNIT_ASSIGNED_CONTEXT ( ( #794, #180, #2 ) ) REPRESENTATION_CONTEXT ( 'NONE', 'WORKASPACE' ) );
#6 = EDGE_CURVE ( 'NONE', #643, #544, #747, .T. ) ;
#7 = ORIENTED_EDGE ( 'NONE', *, *, #448, .F. ) ;
#8 = EDGE_CURVE ( 'NONE', #544, #181, #687, .T. ) ;
#9 =( NAMED_UNIT ( * ) PLANE_ANGLE_UNIT ( ) SI_UNIT ( $, .RADIAN. ) );
#10 = CARTESIAN_POINT ( 'NONE',  ( 19.81898894019258606, -4.007003542364786952, 1.600000000000000089 ) ) ;
#11 = VERTEX_POINT ( 'NONE', #570 ) ;
#12 = FILL_AREA_STYLE ('',( #255 ) ) ;
#13 = VERTEX_POINT ( 'NONE', #633 ) ;
#14 = DIRECTION ( 'NONE',  ( 1.000000000000000000, 0.000000000000000000, 0.000000000000000000 ) ) ;
#15 = AXIS2_PLACEMENT_3D ( 'NONE', #98, #207, #23 ) ;
#16 = STYLED_ITEM ( 'NONE', ( #406 ), #378 ) ;
#17 = CARTESIAN_POINT ( 'NONE',  ( 0.000000000000000000, 0.000000000000000000, 3.000000000000000000 ) ) ;
#18 = DIRECTION ( 'NONE',  ( -0.000000000000000000, -0.000000000000000000, -1.000000000000000000 ) ) ;
#19 = EDGE_CURVE ( 'NONE', #652, #743, #342, .T. ) ;
#20 = DIRECTION ( 'NONE',  ( 0.9659258262890680902, 0.2588190451025214611, 0.000000000000000000 ) ) ;
#21 = CARTESIAN_POINT ( 'NONE',  ( -13.24194999866639932, 0.000000000000000000, 3.000000000000000000 ) ) ;
#22 = DIRECTION ( 'NONE',  ( -0.000000000000000000, 0.000000000000000000, 1.000000000000000000 ) ) ;
#23 = DIRECTION ( 'NONE',  ( 1.000000000000000000, 0.000000000000000000, 0.000000000000000000 ) ) ;
#24 = AXIS2_PLACEMENT_3D ( 'NONE', #217, #770, #386 ) ;
#25 = CARTESIAN_POINT ( 'NONE',  ( 9.978050001333597763, 2.843629867620153816E-15, 3.000000000000000000 ) ) ;
#26 = EDGE_CURVE ( 'NONE', #753, #307, #407, .T. ) ;
#27 = EDGE_CURVE ( 'NONE', #544, #294, #488, .T. ) ;
#28 = VERTEX_POINT ( 'NONE', #32 ) ;
#29 = CARTESIAN_POINT ( 'NONE',  ( -19.81898894019258606, 4.007003542364788728, 1.600000000000000089 ) ) ;
#30 = DIRECTION ( 'NONE',  ( -0.000000000000000000, -0.000000000000000000, -1.000000000000000000 ) ) ;
#31 = ADVANCED_FACE ( 'NONE', ( #260 ), #398, .F. ) ;
#32 = CARTESIAN_POINT ( 'NONE',  ( 13.45775241264305322, -9.650000000000002132, 3.000000000000000000 ) ) ;
#33 = CARTESIAN_POINT ( 'NONE',  ( 0.000000000000000000, 0.000000000000000000, 3.000000000000000000 ) ) ;
#34 = CARTESIAN_POINT ( 'NONE',  ( 0.000000000000000000, 0.000000000000000000, 3.000000000000000000 ) ) ;
#35 = DIRECTION ( 'NONE',  ( -0.000000000000000000, -0.000000000000000000, -1.000000000000000000 ) ) ;
#36 = EDGE_CURVE ( 'NONE', #737, #786, #444, .T. ) ;
#37 = ORIENTED_EDGE ( 'NONE', *, *, #767, .F. ) ;
#38 = VECTOR ( 'NONE', #535, 1000.000000000000000 ) ;
#39 = ORIENTED_EDGE ( 'NONE', *, *, #661, .F. ) ;
#40 = DIRECTION ( 'NONE',  ( 1.000000000000000000, 0.000000000000000000, 0.000000000000000000 ) ) ;
#41 = CIRCLE ( 'NONE', #626, 16.55999999999999872 ) ;
#42 = AXIS2_PLACEMENT_3D ( 'NONE', #555, #561, #497 ) ;
#43 = CARTESIAN_POINT ( 'NONE',  ( -17.76867749721402490, 9.649999999999998579, 1.600000000000000089 ) ) ;
#44 = EDGE_CURVE ( 'NONE', #307, #112, #3, .T. ) ;
#45 = CARTESIAN_POINT ( 'NONE',  ( -17.76867749721402490, -9.649999999999998579, 3.000000000000000000 ) ) ;
#46 = VERTEX_POINT ( 'NONE', #778 ) ;
#47 = VERTEX_POINT ( 'NONE', #783 ) ;
#48 = CARTESIAN_POINT ( 'NONE',  ( 0.000000000000000000, 0.000000000000000000, 0.000000000000000000 ) ) ;
#49 = DIRECTION ( 'NONE',  ( 0.9659258262890680902, 0.2588190451025214611, 0.000000000000000000 ) ) ;
#50 = DIRECTION ( 'NONE',  ( 1.000000000000000000, 0.000000000000000000, 0.000000000000000000 ) ) ;
#51 = VERTEX_POINT ( 'NONE', #755 ) ;
#52 = ORIENTED_EDGE ( 'NONE', *, *, #769, .F. ) ;
#53 = CARTESIAN_POINT ( 'NONE',  ( -11.60999999999999766, 0.000000000000000000, 0.000000000000000000 ) ) ;
#54 = SURFACE_SIDE_STYLE ('',( #539 ) ) ;
#55 = LINE ( 'NONE', #125, #325 ) ;
#56 = VERTEX_POINT ( 'NONE', #99 ) ;
#57 = VERTEX_POINT ( 'NONE', #103 ) ;
#58 = DIRECTION ( 'NONE',  ( 1.000000000000000000, 0.000000000000000000, 0.000000000000000000 ) ) ;
#59 = CIRCLE ( 'NONE', #278, 20.21999999999999886 ) ;
#60 = CARTESIAN_POINT ( 'NONE',  ( -16.55999999999999872, 0.000000000000000000, 3.000000000000000000 ) ) ;
#61 = AXIS2_PLACEMENT_3D ( 'NONE', #404, #170, #127 ) ;
#62 = ORIENTED_EDGE ( 'NONE', *, *, #367, .F. ) ;
#63 = DIRECTION ( 'NONE',  ( -0.000000000000000000, 0.000000000000000000, 1.000000000000000000 ) ) ;
#64 = EDGE_CURVE ( 'NONE', #695, #11, #701, .T. ) ;
#65 = FACE_OUTER_BOUND ( 'NONE', #620, .T. ) ;
#66 = ORIENTED_EDGE ( 'NONE', *, *, #196, .T. ) ;
#67 = CARTESIAN_POINT ( 'NONE',  ( 0.000000000000000000, 0.000000000000000000, 3.000000000000000000 ) ) ;
#68 = DIRECTION ( 'NONE',  ( -1.000000000000000000, 0.000000000000000000, 0.000000000000000000 ) ) ;
#69 = EDGE_LOOP ( 'NONE', ( #432, #238, #37, #164 ) ) ;
#70 = EDGE_CURVE ( 'NONE', #785, #51, #690, .T. ) ;
#71 = COLOUR_RGB ( '',0.7960784313725489669, 0.8235294117647058432, 0.9372549019607843146 ) ;
#72 = EDGE_LOOP ( 'NONE', ( #554, #478, #591, #290, #357 ) ) ;
#73 = PRODUCT_CONTEXT ( 'NONE', #586, 'mechanical' ) ;
#74 = DIRECTION ( 'NONE',  ( 1.000000000000000000, 0.000000000000000000, 0.000000000000000000 ) ) ;
#75 = ORIENTED_EDGE ( 'NONE', *, *, #6, .F. ) ;
#76 = DIRECTION ( 'NONE',  ( -1.000000000000000000, 9.762817048420158359E-17, 0.000000000000000000 ) ) ;
#77 = DIRECTION ( 'NONE',  ( -0.000000000000000000, 0.000000000000000000, 1.000000000000000000 ) ) ;
#78 = VECTOR ( 'NONE', #463, 1000.000000000000114 ) ;
#79 = VECTOR ( 'NONE', #689, 1000.000000000000000 ) ;
#80 = CYLINDRICAL_SURFACE ( 'NONE', #244, 16.55999999999999872 ) ;
#81 = ORIENTED_EDGE ( 'NONE', *, *, #310, .F. ) ;
#82 = DIRECTION ( 'NONE',  ( -0.000000000000000000, -0.000000000000000000, -1.000000000000000000 ) ) ;
#83 = DIRECTION ( 'NONE',  ( 1.000000000000000000, -9.762817048420159591E-17, 0.000000000000000000 ) ) ;
#84 = CARTESIAN_POINT ( 'NONE',  ( -9.421118451725454770E-16, 9.650000000000000355, 1.600000000000000089 ) ) ;
#85 = EDGE_CURVE ( 'NONE', #57, #753, #454, .T. ) ;
#86 = CIRCLE ( 'NONE', #265, 1.631949998666401891 ) ;
#87 = VECTOR ( 'NONE', #166, 1000.000000000000114 ) ;
#88 = STYLED_ITEM ( 'NONE', ( #500 ), #482 ) ;
#89 = ADVANCED_FACE ( 'NONE', ( #529 ), #110, .F. ) ;
#90 = ORIENTED_EDGE ( 'NONE', *, *, #102, .T. ) ;
#91 = CIRCLE ( 'NONE', #685, 20.21999999999999886 ) ;
#92 = DIRECTION ( 'NONE',  ( -0.000000000000000000, -0.000000000000000000, -1.000000000000000000 ) ) ;
#93 = CARTESIAN_POINT ( 'NONE',  ( -20.21999999999999531, 1.346802695182008902, 1.983563818063239337 ) ) ;
#94 = CARTESIAN_POINT ( 'NONE',  ( 0.000000000000000000, 0.000000000000000000, 3.000000000000000000 ) ) ;
#95 = UNCERTAINTY_MEASURE_WITH_UNIT (LENGTH_MEASURE( 1.000000000000000082E-05 ), #496, 'distance_accuracy_value', 'NONE');
#96 = ORIENTED_EDGE ( 'NONE', *, *, #36, .T. ) ;
#97 = DIRECTION ( 'NONE',  ( -0.03978230059144273467, 0.1484695670492412745, -0.9881164689548813662 ) ) ;
#98 = CARTESIAN_POINT ( 'NONE',  ( 11.61000000000000121, 2.843629867620153816E-15, 2.000000000000013767 ) ) ;
#99 = CARTESIAN_POINT ( 'NONE',  ( -20.21999999999999886, 0.000000000000000000, 0.000000000000000000 ) ) ;
#100 = ORIENTED_EDGE ( 'NONE', *, *, #262, .F. ) ;
#101 = DIRECTION ( 'NONE',  ( 0.9659258262890680902, 0.2588190451025214611, 0.000000000000000000 ) ) ;
#102 = EDGE_CURVE ( 'NONE', #28, #461, #177, .T. ) ;
#103 = CARTESIAN_POINT ( 'NONE',  ( -17.76867749721402490, -9.649999999999998579, 3.000000000000000000 ) ) ;
#104 = ORIENTED_EDGE ( 'NONE', *, *, #375, .T. ) ;
#105 = EDGE_LOOP ( 'NONE', ( #615, #198, #790, #765, #363 ) ) ;
#106 = DIRECTION ( 'NONE',  ( 1.000000000000000000, 0.000000000000000000, 0.000000000000000000 ) ) ;
#107 = AXIS2_PLACEMENT_3D ( 'NONE', #507, #680, #630 ) ;
#108 = CIRCLE ( 'NONE', #61, 3.131949998666408330 ) ;
#109 = DIRECTION ( 'NONE',  ( 1.000000000000000000, 0.000000000000000000, 0.000000000000000000 ) ) ;
#110 = CYLINDRICAL_SURFACE ( 'NONE', #625, 1.631949998666401891 ) ;
#111 = EDGE_LOOP ( 'NONE', ( #224, #483, #412, #163, #66 ) ) ;
#112 = VERTEX_POINT ( 'NONE', #219 ) ;
#113 = DIRECTION ( 'NONE',  ( -0.000000000000000000, -0.000000000000000000, -1.000000000000000000 ) ) ;
#114 = CARTESIAN_POINT ( 'NONE',  ( -16.55999999999999872, 0.000000000000000000, 3.000000000000000000 ) ) ;
#115 = EDGE_CURVE ( 'NONE', #604, #403, #602, .T. ) ;
#116 = ORIENTED_EDGE ( 'NONE', *, *, #553, .T. ) ;
#117 = ORIENTED_EDGE ( 'NONE', *, *, #771, .F. ) ;
#118 = FACE_BOUND ( 'NONE', #495, .T. ) ;
#119 = EDGE_LOOP ( 'NONE', ( #90, #666, #391, #258, #174, #493, #801, #727, #446 ) ) ;
#120 = ADVANCED_FACE ( 'NONE', ( #139 ), #80, .T. ) ;
#121 = ORIENTED_EDGE ( 'NONE', *, *, #405, .F. ) ;
#122 = DIRECTION ( 'NONE',  ( 1.000000000000000000, 0.000000000000000000, 0.000000000000000000 ) ) ;
#123 = VECTOR ( 'NONE', #195, 1000.000000000000000 ) ;
#124 = AXIS2_PLACEMENT_3D ( 'NONE', #178, #356, #68 ) ;
#125 = CARTESIAN_POINT ( 'NONE',  ( -17.76867749721402490, 9.649999999999998579, 1.600000000000000089 ) ) ;
#126 = EDGE_LOOP ( 'NONE', ( #525, #605, #721, #136 ) ) ;
#127 = DIRECTION ( 'NONE',  ( 1.000000000000000000, 0.000000000000000000, 0.000000000000000000 ) ) ;
#128 = CARTESIAN_POINT ( 'NONE',  ( -13.24194999866639932, 0.000000000000000000, 3.000000000000000000 ) ) ;
#129 = ORIENTED_EDGE ( 'NONE', *, *, #762, .T. ) ;
#130 =( NAMED_UNIT ( * ) PLANE_ANGLE_UNIT ( ) SI_UNIT ( $, .RADIAN. ) );
#131 = VERTEX_POINT ( 'NONE', #336 ) ;
#132 = PLANE ( 'NONE',  #308 ) ;
#133 = VECTOR ( 'NONE', #20, 1000.000000000000227 ) ;
#134 = AXIS2_PLACEMENT_3D ( 'NONE', #171, #629, #182 ) ;
#135 = ADVANCED_FACE ( 'NONE', ( #381 ), #575, .T. ) ;
#136 = ORIENTED_EDGE ( 'NONE', *, *, #702, .T. ) ;
#137 = CARTESIAN_POINT ( 'NONE',  ( -8.478050001333588881, 3.835532540956374299E-16, 0.000000000000000000 ) ) ;
#138 = CARTESIAN_POINT ( 'NONE',  ( 11.61000000000000121, 2.843629867620153816E-15, 3.000000000000000000 ) ) ;
#139 = FACE_OUTER_BOUND ( 'NONE', #631, .T. ) ;
#140 = CARTESIAN_POINT ( 'NONE',  ( -9.421118451725454770E-16, -9.650000000000000355, 3.000000000000000000 ) ) ;
#141 = EDGE_CURVE ( 'NONE', #13, #550, #557, .T. ) ;
#142 = CIRCLE ( 'NONE', #614, 20.21999999999999886 ) ;
#143 = CIRCLE ( 'NONE', #232, 7.774999999999998579 ) ;
#144 = FACE_OUTER_BOUND ( 'NONE', #69, .T. ) ;
#145 = ORIENTED_EDGE ( 'NONE', *, *, #64, .F. ) ;
#146 = DIRECTION ( 'NONE',  ( -0.000000000000000000, -0.000000000000000000, -1.000000000000000000 ) ) ;
#147 = EDGE_CURVE ( 'NONE', #485, #785, #86, .T. ) ;
#148 = CARTESIAN_POINT ( 'NONE',  ( 0.000000000000000000, 0.000000000000000000, 1.600000000000000089 ) ) ;
#149 = DIRECTION ( 'NONE',  ( -1.000000000000000000, 0.000000000000000000, 0.000000000000000000 ) ) ;
#150 = PRESENTATION_LAYER_ASSIGNMENT (  '', '', ( #88 ) ) ;
#151 = PRODUCT_DEFINITION_FORMATION_WITH_SPECIFIED_SOURCE ( 'Symmetric', '', #212, .NOT_KNOWN. ) ;
#152 = DIRECTION ( 'NONE',  ( 1.000000000000000000, 0.000000000000000000, 0.000000000000000000 ) ) ;
#153 = DIRECTION ( 'NONE',  ( 1.000000000000000000, 0.000000000000000000, 0.000000000000000000 ) ) ;
#154 = ORIENTED_EDGE ( 'NONE', *, *, #85, .T. ) ;
#155 = FACE_OUTER_BOUND ( 'NONE', #490, .T. ) ;
#156 = DIRECTION ( 'NONE',  ( 1.000000000000000000, 0.000000000000000000, 0.000000000000000000 ) ) ;
#157 = ORIENTED_EDGE ( 'NONE', *, *, #694, .T. ) ;
#158 = DIRECTION ( 'NONE',  ( -1.000000000000000000, 0.000000000000000000, 0.000000000000000000 ) ) ;
#159 = CARTESIAN_POINT ( 'NONE',  ( -16.55999999999999517, 1.733597681358538978, 2.072800197377407727 ) ) ;
#160 = ORIENTED_EDGE ( 'NONE', *, *, #603, .F. ) ;
#161 = CIRCLE ( 'NONE', #645, 3.131949998666408330 ) ;
#162 = LINE ( 'NONE', #607, #428 ) ;
#163 = ORIENTED_EDGE ( 'NONE', *, *, #322, .F. ) ;
#164 = ORIENTED_EDGE ( 'NONE', *, *, #115, .T. ) ;
#165 = CARTESIAN_POINT ( 'NONE',  ( 11.61000000000000121, 2.843629867620153816E-15, 3.000000000000000000 ) ) ;
#166 = DIRECTION ( 'NONE',  ( -0.5999999999999990896, 0.000000000000000000, -0.8000000000000005995 ) ) ;
#167 = EDGE_LOOP ( 'NONE', ( #157, #229, #248, #537, #243, #532 ) ) ;
#168 = EDGE_CURVE ( 'NONE', #743, #652, #228, .T. ) ;
#169 = ORIENTED_EDGE ( 'NONE', *, *, #6, .T. ) ;
#170 = DIRECTION ( 'NONE',  ( -0.000000000000000000, 0.000000000000000000, 1.000000000000000000 ) ) ;
#171 = CARTESIAN_POINT ( 'NONE',  ( 0.000000000000000000, 0.000000000000000000, 0.000000000000000000 ) ) ;
#172 =( BOUNDED_CURVE ( )  B_SPLINE_CURVE ( 3, ( #393, #93, #700, #641 ),
 .UNSPECIFIED., .F., .T. ) 
 B_SPLINE_CURVE_WITH_KNOTS ( ( 4, 4 ),
 ( 4.974188368183839692, 5.173679217785007722 ),
 .UNSPECIFIED. ) 
 CURVE ( )  GEOMETRIC_REPRESENTATION_ITEM ( )  RATIONAL_B_SPLINE_CURVE ( ( 1.000000000000000000, 0.9966863654315485377, 0.9966863654315485377, 1.000000000000000000 ) ) 
 REPRESENTATION_ITEM ( '' )  );
#173 = LINE ( 'NONE', #237, #87 ) ;
#174 = ORIENTED_EDGE ( 'NONE', *, *, #277, .T. ) ;
#175 = VERTEX_POINT ( 'NONE', #650 ) ;
#176 = DIRECTION ( 'NONE',  ( -0.000000000000000000, -0.000000000000000000, -1.000000000000000000 ) ) ;
#177 = CIRCLE ( 'NONE', #383, 16.55999999999999872 ) ;
#178 = CARTESIAN_POINT ( 'NONE',  ( 11.61000000000000121, 2.843629867620153816E-15, 0.000000000000000000 ) ) ;
#179 = AXIS2_PLACEMENT_3D ( 'NONE', #581, #452, #703 ) ;
#180 =( NAMED_UNIT ( * ) PLANE_ANGLE_UNIT ( ) SI_UNIT ( $, .RADIAN. ) );
#181 = VERTEX_POINT ( 'NONE', #704 ) ;
#182 = DIRECTION ( 'NONE',  ( 1.000000000000000000, 0.000000000000000000, 0.000000000000000000 ) ) ;
#183 = CARTESIAN_POINT ( 'NONE',  ( -20.21999999999999886, 0.000000000000000000, 2.185927830137563976 ) ) ;
#184 = ORIENTED_EDGE ( 'NONE', *, *, #736, .T. ) ;
#185 = APPLICATION_PROTOCOL_DEFINITION ( 'draft international standard', 'automotive_design', 1998, #586 ) ;
#186 = FACE_OUTER_BOUND ( 'NONE', #546, .T. ) ;
#187 = ORIENTED_EDGE ( 'NONE', *, *, #335, .F. ) ;
#188 = FACE_OUTER_BOUND ( 'NONE', #111, .T. ) ;
#189 = AXIS2_PLACEMENT_3D ( 'NONE', #453, #324, #646 ) ;
#190 = AXIS2_PLACEMENT_3D ( 'NONE', #34, #275, #521 ) ;
#191 = PRESENTATION_LAYER_ASSIGNMENT (  '', '', ( #16 ) ) ;
#192 = CIRCLE ( 'NONE', #543, 7.774999999999998579 ) ;
#193 = ORIENTED_EDGE ( 'NONE', *, *, #70, .F. ) ;
#194 = EDGE_CURVE ( 'NONE', #712, #609, #172, .T. ) ;
#195 = DIRECTION ( 'NONE',  ( 1.000000000000000000, -9.762817048420159591E-17, 0.000000000000000000 ) ) ;
#196 = EDGE_CURVE ( 'NONE', #131, #112, #594, .T. ) ;
#197 = DIRECTION ( 'NONE',  ( -1.000000000000000000, 0.000000000000000000, 0.000000000000000000 ) ) ;
#198 = ORIENTED_EDGE ( 'NONE', *, *, #194, .T. ) ;
#199 = VERTEX_POINT ( 'NONE', #43 ) ;
#200 = VECTOR ( 'NONE', #49, 1000.000000000000227 ) ;
#201 = CIRCLE ( 'NONE', #472, 16.55999999999999872 ) ;
#202 =( BOUNDED_CURVE ( )  B_SPLINE_CURVE ( 3, ( #305, #793, #788, #468 ),
 .UNSPECIFIED., .F., .T. ) 
 B_SPLINE_CURVE_WITH_KNOTS ( ( 4, 4 ),
 ( 4.712388980384689674, 5.173679217785007722 ),
 .UNSPECIFIED. ) 
 CURVE ( )  GEOMETRIC_REPRESENTATION_ITEM ( )  RATIONAL_B_SPLINE_CURVE ( ( 1.000000000000000000, 0.9823460798950676143, 0.9823460798950676143, 1.000000000000000000 ) ) 
 REPRESENTATION_ITEM ( '' )  );
#203 = ADVANCED_FACE ( 'NONE', ( #389 ), #541, .F. ) ;
#204 = DIRECTION ( 'NONE',  ( 1.000000000000000000, 0.000000000000000000, 0.000000000000000000 ) ) ;
#205 = DIRECTION ( 'NONE',  ( -0.000000000000000000, 0.000000000000000000, 1.000000000000000000 ) ) ;
#206 = CARTESIAN_POINT ( 'NONE',  ( -13.45775241264305677, 9.649999999999998579, 1.600000000000000089 ) ) ;
#207 = DIRECTION ( 'NONE',  ( -0.000000000000000000, -0.000000000000000000, -1.000000000000000000 ) ) ;
#208 = EDGE_CURVE ( 'NONE', #785, #485, #792, .T. ) ;
#209 = DIRECTION ( 'NONE',  ( -0.000000000000000000, -0.000000000000000000, -1.000000000000000000 ) ) ;
#210 = UNCERTAINTY_MEASURE_WITH_UNIT (LENGTH_MEASURE( 1.000000000000000082E-05 ), #794, 'distance_accuracy_value', 'NONE');
#211 = CYLINDRICAL_SURFACE ( 'NONE', #326, 20.21999999999999886 ) ;
#212 = PRODUCT ( 'middel part', 'middel part', '', ( #73 ) ) ;
#213 = DIRECTION ( 'NONE',  ( 1.000000000000000000, 0.000000000000000000, 0.000000000000000000 ) ) ;
#214 = AXIS2_PLACEMENT_3D ( 'NONE', #283, #271, #505 ) ;
#215 = VECTOR ( 'NONE', #552, 1000.000000000000000 ) ;
#216 = EDGE_LOOP ( 'NONE', ( #779, #117, #466, #498 ) ) ;
#217 = CARTESIAN_POINT ( 'NONE',  ( 0.000000000000000000, 0.000000000000000000, 3.000000000000000000 ) ) ;
#218 = CYLINDRICAL_SURFACE ( 'NONE', #776, 1.631949998666401891 ) ;
#219 = CARTESIAN_POINT ( 'NONE',  ( 17.76867749721402134, 9.650000000000002132, 0.000000000000000000 ) ) ;
#220 = ORIENTED_EDGE ( 'NONE', *, *, #421, .F. ) ;
#221 = PLANE ( 'NONE',  #545 ) ;
#222 = CARTESIAN_POINT ( 'NONE',  ( -9.421118451725454770E-16, -9.650000000000000355, 0.000000000000000000 ) ) ;
#223 = EDGE_LOOP ( 'NONE', ( #285, #566, #358, #662 ) ) ;
#224 = ORIENTED_EDGE ( 'NONE', *, *, #44, .F. ) ;
#225 = CARTESIAN_POINT ( 'NONE',  ( 0.000000000000000000, 0.000000000000000000, 1.600000000000000089 ) ) ;
#226 = LINE ( 'NONE', #678, #571 ) ;
#227 = ORIENTED_EDGE ( 'NONE', *, *, #800, .T. ) ;
#228 = CIRCLE ( 'NONE', #408, 7.774999999999998579 ) ;
#229 = ORIENTED_EDGE ( 'NONE', *, *, #196, .F. ) ;
#230 = CARTESIAN_POINT ( 'NONE',  ( -15.99573168334696760, -4.286043386897756768, 3.000000000000000000 ) ) ;
#231 = AXIS2_PLACEMENT_3D ( 'NONE', #365, #672, #668 ) ;
#232 = AXIS2_PLACEMENT_3D ( 'NONE', #578, #22, #204 ) ;
#233 = LINE ( 'NONE', #60, #215 ) ;
#234 = EDGE_LOOP ( 'NONE', ( #116, #584, #471, #52 ) ) ;
#235 = ORIENTED_EDGE ( 'NONE', *, *, #563, .F. ) ;
#236 = CARTESIAN_POINT ( 'NONE',  ( 13.45775241264305322, -9.650000000000002132, 3.000000000000000000 ) ) ;
#237 = CARTESIAN_POINT ( 'NONE',  ( -14.74194999866640465, 0.000000000000000000, 0.000000000000000000 ) ) ;
#238 = ORIENTED_EDGE ( 'NONE', *, *, #347, .T. ) ;
#239 = APPLICATION_CONTEXT ( 'automotive_design' ) ;
#240 = FACE_OUTER_BOUND ( 'NONE', #167, .T. ) ;
#241 = FACE_BOUND ( 'NONE', #302, .T. ) ;
#242 = EDGE_CURVE ( 'NONE', #743, #780, #334, .T. ) ;
#243 = ORIENTED_EDGE ( 'NONE', *, *, #531, .F. ) ;
#244 = AXIS2_PLACEMENT_3D ( 'NONE', #457, #651, #654 ) ;
#245 = VECTOR ( 'NONE', #508, 1000.000000000000000 ) ;
#246 = DIRECTION ( 'NONE',  ( -0.000000000000000000, -0.000000000000000000, -1.000000000000000000 ) ) ;
#247 = VECTOR ( 'NONE', #717, 1000.000000000000000 ) ;
#248 = ORIENTED_EDGE ( 'NONE', *, *, #390, .F. ) ;
#249 = EDGE_CURVE ( 'NONE', #181, #47, #161, .T. ) ;
#250 = LINE ( 'NONE', #754, #683 ) ;
#251 = EDGE_LOOP ( 'NONE', ( #75, #104, #438, #344 ) ) ;
#252 = EDGE_CURVE ( 'NONE', #56, #753, #142, .T. ) ;
#253 = CARTESIAN_POINT ( 'NONE',  ( 11.61000000000000121, 2.843629867620153816E-15, 0.000000000000000000 ) ) ;
#254 = CARTESIAN_POINT ( 'NONE',  ( -9.978050001333595986, 1.998562342235335737E-16, 3.000000000000000000 ) ) ;
#255 = FILL_AREA_STYLE_COLOUR ( '', #71 ) ;
#256 = AXIS2_PLACEMENT_3D ( 'NONE', #17, #77, #523 ) ;
#257 = AXIS2_PLACEMENT_3D ( 'NONE', #414, #431, #1 ) ;
#258 = ORIENTED_EDGE ( 'NONE', *, *, #739, .F. ) ;
#259 = PLANE ( 'NONE',  #107 ) ;
#260 = FACE_OUTER_BOUND ( 'NONE', #465, .T. ) ;
#261 = CARTESIAN_POINT ( 'NONE',  ( -13.45775241264305677, 9.649999999999998579, 3.000000000000000000 ) ) ;
#262 = EDGE_CURVE ( 'NONE', #369, #786, #317, .T. ) ;
#263 = CARTESIAN_POINT ( 'NONE',  ( -9.978050001333595986, 1.998562342235335244E-16, 2.000000000000013767 ) ) ;
#264 = DIRECTION ( 'NONE',  ( -0.000000000000000000, 0.000000000000000000, 1.000000000000000000 ) ) ;
#265 = AXIS2_PLACEMENT_3D ( 'NONE', #590, #35, #276 ) ;
#266 = CARTESIAN_POINT ( 'NONE',  ( 11.61000000000000121, 2.843629867620153816E-15, 0.000000000000000000 ) ) ;
#267 = DIRECTION ( 'NONE',  ( 1.000000000000000000, 0.000000000000000000, 0.000000000000000000 ) ) ;
#268 = PRODUCT_DEFINITION_SHAPE ( 'NONE', 'NONE',  #502 ) ;
#269 = CARTESIAN_POINT ( 'NONE',  ( 2.244897367846220041E-16, -8.378071034579708211E-16, 3.000000000000063505 ) ) ;
#270 = CARTESIAN_POINT ( 'NONE',  ( 0.000000000000000000, 0.000000000000000000, 3.000000000000000000 ) ) ;
#271 = DIRECTION ( 'NONE',  ( -0.000000000000000000, -0.000000000000000000, -1.000000000000000000 ) ) ;
#272 = ADVANCED_FACE ( 'NONE', ( #514 ), #218, .F. ) ;
#273 = ORIENTED_EDGE ( 'NONE', *, *, #64, .T. ) ;
#274 = DIRECTION ( 'NONE',  ( -0.000000000000000000, 0.000000000000000000, 1.000000000000000000 ) ) ;
#275 = DIRECTION ( 'NONE',  ( -0.000000000000000000, 0.000000000000000000, 1.000000000000000000 ) ) ;
#276 = DIRECTION ( 'NONE',  ( 1.000000000000000000, 0.000000000000000000, 0.000000000000000000 ) ) ;
#277 = EDGE_CURVE ( 'NONE', #175, #369, #41, .T. ) ;
#278 = AXIS2_PLACEMENT_3D ( 'NONE', #504, #576, #74 ) ;
#279 = CONICAL_SURFACE ( 'NONE', #309, 3.131949998666408330, 0.6435011087932833718 ) ;
#280 = ORIENTED_EDGE ( 'NONE', *, *, #470, .F. ) ;
#281 = CARTESIAN_POINT ( 'NONE',  ( 17.76867749721402134, 9.650000000000002132, 3.000000000000000000 ) ) ;
#282 = DIRECTION ( 'NONE',  ( -0.000000000000000000, -0.000000000000000000, -1.000000000000000000 ) ) ;
#283 = CARTESIAN_POINT ( 'NONE',  ( 0.000000000000000000, 0.000000000000000000, 3.000000000000000000 ) ) ;
#284 = ORIENTED_EDGE ( 'NONE', *, *, #481, .F. ) ;
#285 = ORIENTED_EDGE ( 'NONE', *, *, #242, .F. ) ;
#286 = CYLINDRICAL_SURFACE ( 'NONE', #524, 1.631949998666401891 ) ;
#287 = CYLINDRICAL_SURFACE ( 'NONE', #635, 7.774999999999998579 ) ;
#288 = CARTESIAN_POINT ( 'NONE',  ( -9.421118451725454770E-16, -9.650000000000000355, 1.600000000000000089 ) ) ;
#289 = ADVANCED_FACE ( 'NONE', ( #718 ), #657, .T. ) ;
#290 = ORIENTED_EDGE ( 'NONE', *, *, #85, .F. ) ;
#291 = ORIENTED_EDGE ( 'NONE', *, *, #553, .F. ) ;
#292 = CARTESIAN_POINT ( 'NONE',  ( -9.421118451725454770E-16, 9.650000000000000355, 3.000000000000000000 ) ) ;
#293 = DIRECTION ( 'NONE',  ( -1.000000000000000000, 0.000000000000000000, 0.000000000000000000 ) ) ;
#294 = VERTEX_POINT ( 'NONE', #556 ) ;
#295 = ORIENTED_EDGE ( 'NONE', *, *, #675, .T. ) ;
#296 = CARTESIAN_POINT ( 'NONE',  ( -16.55999999999999872, 0.000000000000000000, 2.333282139815938905 ) ) ;
#297 = ORIENTED_EDGE ( 'NONE', *, *, #421, .T. ) ;
#298 = ORIENTED_EDGE ( 'NONE', *, *, #387, .F. ) ;
#299 = ORIENTED_EDGE ( 'NONE', *, *, #774, .F. ) ;
#300 = DIRECTION ( 'NONE',  ( 1.000000000000000000, 0.000000000000000000, 0.000000000000000000 ) ) ;
#301 = DIRECTION ( 'NONE',  ( 0.5999999999999990896, 7.347880794884107903E-17, -0.8000000000000005995 ) ) ;
#302 = EDGE_LOOP ( 'NONE', ( #184, #359 ) ) ;
#303 = CARTESIAN_POINT ( 'NONE',  ( -11.60999999999999766, 0.000000000000000000, 3.000000000000000000 ) ) ;
#304 =( NAMED_UNIT ( * ) SI_UNIT ( $, .STERADIAN. ) SOLID_ANGLE_UNIT ( ) );
#305 = CARTESIAN_POINT ( 'NONE',  ( 19.53102020756496060, 5.233321091972984895, 3.000000000000000000 ) ) ;
#306 = ADVANCED_FACE ( 'NONE', ( #540 ), #434, .T. ) ;
#307 = VERTEX_POINT ( 'NONE', #601 ) ;
#308 = AXIS2_PLACEMENT_3D ( 'NONE', #140, #382, #76 ) ;
#309 = AXIS2_PLACEMENT_3D ( 'NONE', #53, #355, #158 ) ;
#310 = EDGE_CURVE ( 'NONE', #737, #712, #628, .T. ) ;
#311 = ORIENTED_EDGE ( 'NONE', *, *, #448, .T. ) ;
#312 = LINE ( 'NONE', #757, #440 ) ;
#313 =( BOUNDED_CURVE ( )  B_SPLINE_CURVE ( 3, ( #296, #424, #791, #230 ),
 .UNSPECIFIED., .F., .F. ) 
 B_SPLINE_CURVE_WITH_KNOTS ( ( 4, 4 ),
 ( 1.308996938995746318, 1.570796326794896114 ),
 .UNSPECIFIED. ) 
 CURVE ( )  GEOMETRIC_REPRESENTATION_ITEM ( )  RATIONAL_B_SPLINE_CURVE ( ( 1.000000000000000000, 0.9942965742492069214, 0.9942965742492069214, 1.000000000000000000 ) ) 
 REPRESENTATION_ITEM ( '' )  );
#314 = ORIENTED_EDGE ( 'NONE', *, *, #242, .T. ) ;
#315 = FACE_OUTER_BOUND ( 'NONE', #216, .T. ) ;
#316 = EDGE_LOOP ( 'NONE', ( #518, #349 ) ) ;
#317 = CIRCLE ( 'NONE', #190, 16.55999999999999872 ) ;
#318 = CARTESIAN_POINT ( 'NONE',  ( -16.55999999999999872, 0.000000000000000000, 2.333282139815938905 ) ) ;
#319 = SURFACE_STYLE_USAGE ( .BOTH. , #380 ) ;
#320 = EDGE_CURVE ( 'NONE', #294, #47, #173, .T. ) ;
#321 = DIRECTION ( 'NONE',  ( -1.000000000000000000, 0.000000000000000000, 0.000000000000000000 ) ) ;
#322 = EDGE_CURVE ( 'NONE', #131, #56, #489, .T. ) ;
#323 = DIRECTION ( 'NONE',  ( 1.000000000000000000, 9.762817048420159591E-17, 0.000000000000000000 ) ) ;
#324 = DIRECTION ( 'NONE',  ( -0.000000000000000000, -0.000000000000000000, -1.000000000000000000 ) ) ;
#325 = VECTOR ( 'NONE', #534, 1000.000000000000000 ) ;
#326 = AXIS2_PLACEMENT_3D ( 'NONE', #699, #146, #400 ) ;
#327 = ORIENTED_EDGE ( 'NONE', *, *, #147, .F. ) ;
#328 = FACE_OUTER_BOUND ( 'NONE', #72, .T. ) ;
#329 = ADVANCED_FACE ( 'NONE', ( #740 ), #287, .F. ) ;
#330 = CARTESIAN_POINT ( 'NONE',  ( -11.60999999999999766, 0.000000000000000000, 0.000000000000000000 ) ) ;
#331 = CARTESIAN_POINT ( 'NONE',  ( -15.75656036088866152, 5.095527999498392191, 1.600000000000000089 ) ) ;
#332 = EDGE_LOOP ( 'NONE', ( #399, #679, #796, #39 ) ) ;
#333 = CYLINDRICAL_SURFACE ( 'NONE', #24, 20.21999999999999886 ) ;
#334 = LINE ( 'NONE', #589, #456 ) ;
#335 = EDGE_CURVE ( 'NONE', #461, #13, #480, .T. ) ;
#336 = CARTESIAN_POINT ( 'NONE',  ( -17.76867749721402490, 9.649999999999998579, 0.000000000000000000 ) ) ;
#337 = ORIENTED_EDGE ( 'NONE', *, *, #574, .F. ) ;
#338 = ORIENTED_EDGE ( 'NONE', *, *, #800, .F. ) ;
#339 = PLANE ( 'NONE',  #725 ) ;
#340 = ADVANCED_FACE ( 'NONE', ( #65 ), #394, .F. ) ;
#341 = CARTESIAN_POINT ( 'NONE',  ( -16.28999004236377601, 3.446039079943899353, 1.826367895722371237 ) ) ;
#342 = CIRCLE ( 'NONE', #256, 7.774999999999998579 ) ;
#343 = CONICAL_SURFACE ( 'NONE', #558, 3.131949998666408330, 0.6435011087932833718 ) ;
#344 = ORIENTED_EDGE ( 'NONE', *, *, #771, .T. ) ;
#345 = LINE ( 'NONE', #413, #742 ) ;
#346 = DIRECTION ( 'NONE',  ( -0.9659258262890680902, -0.2588190451025214611, 0.000000000000000000 ) ) ;
#347 = EDGE_CURVE ( 'NONE', #473, #731, #226, .T. ) ;
#348 = CARTESIAN_POINT ( 'NONE',  ( 0.000000000000000000, 0.000000000000000000, 3.000000000000000000 ) ) ;
#349 = ORIENTED_EDGE ( 'NONE', *, *, #784, .T. ) ;
#350 = EDGE_LOOP ( 'NONE', ( #220, #536, #797, #295, #273 ) ) ;
#351 = DIRECTION ( 'NONE',  ( 1.000000000000000000, 0.000000000000000000, 0.000000000000000000 ) ) ;
#352 = FILL_AREA_STYLE_COLOUR ( '', #499 ) ;
#353 = DIRECTION ( 'NONE',  ( -0.000000000000000000, -0.000000000000000000, -1.000000000000000000 ) ) ;
#354 = ORIENTED_EDGE ( 'NONE', *, *, #27, .T. ) ;
#355 = DIRECTION ( 'NONE',  ( -0.000000000000000000, -0.000000000000000000, -1.000000000000000000 ) ) ;
#356 = DIRECTION ( 'NONE',  ( -0.000000000000000000, -0.000000000000000000, -1.000000000000000000 ) ) ;
#357 = ORIENTED_EDGE ( 'NONE', *, *, #450, .F. ) ;
#358 = ORIENTED_EDGE ( 'NONE', *, *, #396, .T. ) ;
#359 = ORIENTED_EDGE ( 'NONE', *, *, #249, .T. ) ;
#360 = CARTESIAN_POINT ( 'NONE',  ( 9.978050001333597763, 2.843629867620153816E-15, 2.000000000000013767 ) ) ;
#361 = AXIS2_PLACEMENT_3D ( 'NONE', #303, #63, #300 ) ;
#362 = LINE ( 'NONE', #724, #708 ) ;
#363 = ORIENTED_EDGE ( 'NONE', *, *, #322, .T. ) ;
#364 = CARTESIAN_POINT ( 'NONE',  ( 7.774999999999998579, 9.521628863370669207E-16, 3.000000000000000000 ) ) ;
#365 = CARTESIAN_POINT ( 'NONE',  ( -11.60999999999999766, 0.000000000000000000, 3.000000000000000000 ) ) ;
#366 = CARTESIAN_POINT ( 'NONE',  ( 0.000000000000000000, 0.000000000000000000, 3.000000000000000000 ) ) ;
#367 = EDGE_CURVE ( 'NONE', #515, #294, #476, .T. ) ;
#368 = UNCERTAINTY_MEASURE_WITH_UNIT (LENGTH_MEASURE( 1.000000000000000082E-05 ), #564, 'distance_accuracy_value', 'NONE');
#369 = VERTEX_POINT ( 'NONE', #114 ) ;
#370 = FACE_BOUND ( 'NONE', #316, .T. ) ;
#371 = ORIENTED_EDGE ( 'NONE', *, *, #484, .F. ) ;
#372 = AXIS2_PLACEMENT_3D ( 'NONE', #519, #516, #40 ) ;
#373 = CARTESIAN_POINT ( 'NONE',  ( 16.74615080400343459, -2.035483672191896076, 2.019945709836375780 ) ) ;
#374 = VECTOR ( 'NONE', #176, 1000.000000000000000 ) ;
#375 = EDGE_CURVE ( 'NONE', #643, #515, #693, .T. ) ;
#376 = ORIENTED_EDGE ( 'NONE', *, *, #19, .F. ) ;
#377 = CARTESIAN_POINT ( 'NONE',  ( -11.60999999999999766, 0.000000000000000000, 0.000000000000000000 ) ) ;
#378 = ADVANCED_BREP_SHAPE_REPRESENTATION ( 'middel part', ( #482, #134 ), #5 ) ;
#379 = DIRECTION ( 'NONE',  ( 0.5999999999999990896, 7.347880794884107903E-17, -0.8000000000000005995 ) ) ;
#380 = SURFACE_SIDE_STYLE ('',( #441 ) ) ;
#381 = FACE_OUTER_BOUND ( 'NONE', #126, .T. ) ;
#382 = DIRECTION ( 'NONE',  ( 9.762817048420158359E-17, 1.000000000000000000, -0.000000000000000000 ) ) ;
#383 = AXIS2_PLACEMENT_3D ( 'NONE', #348, #587, #213 ) ;
#384 = CIRCLE ( 'NONE', #696, 1.631949998666401891 ) ;
#385 = ORIENTED_EDGE ( 'NONE', *, *, #194, .F. ) ;
#386 = DIRECTION ( 'NONE',  ( -1.000000000000000000, 0.000000000000000000, 0.000000000000000000 ) ) ;
#387 = EDGE_CURVE ( 'NONE', #13, #473, #202, .T. ) ;
#388 = DIRECTION ( 'NONE',  ( -0.03978230059144272773, 0.1484695670492412467, 0.9881164689548813662 ) ) ;
#389 = FACE_OUTER_BOUND ( 'NONE', #526, .T. ) ;
#390 = EDGE_CURVE ( 'NONE', #199, #131, #55, .T. ) ;
#391 = ORIENTED_EDGE ( 'NONE', *, *, #141, .T. ) ;
#392 = DIRECTION ( 'NONE',  ( -0.000000000000000000, 0.000000000000000000, 1.000000000000000000 ) ) ;
#393 = CARTESIAN_POINT ( 'NONE',  ( -20.21999999999999886, 0.000000000000000000, 2.185927830137563976 ) ) ;
#394 = CONICAL_SURFACE ( 'NONE', #124, 3.131949998666408330, 0.6435011087932833718 ) ;
#395 = CARTESIAN_POINT ( 'NONE',  ( 0.000000000000000000, 0.000000000000000000, 3.000000000000000000 ) ) ;
#396 = EDGE_CURVE ( 'NONE', #652, #676, #362, .T. ) ;
#397 = CARTESIAN_POINT ( 'NONE',  ( 0.000000000000000000, 0.000000000000000000, 1.600000000000000089 ) ) ;
#398 = CYLINDRICAL_SURFACE ( 'NONE', #214, 7.774999999999998579 ) ;
#399 = ORIENTED_EDGE ( 'NONE', *, *, #688, .T. ) ;
#400 = DIRECTION ( 'NONE',  ( -1.000000000000000000, 0.000000000000000000, 0.000000000000000000 ) ) ;
#401 = CARTESIAN_POINT ( 'NONE',  ( 11.61000000000000121, 2.843629867620153816E-15, 3.000000000000000000 ) ) ;
#402 = DIRECTION ( 'NONE',  ( -1.000000000000000000, 0.000000000000000000, 0.000000000000000000 ) ) ;
#403 = VERTEX_POINT ( 'NONE', #548 ) ;
#404 = CARTESIAN_POINT ( 'NONE',  ( -11.60999999999999766, 0.000000000000000000, 0.000000000000000000 ) ) ;
#405 = EDGE_CURVE ( 'NONE', #609, #695, #162, .T. ) ;
#406 = PRESENTATION_STYLE_ASSIGNMENT (( #709 ) ) ;
#407 = LINE ( 'NONE', #222, #123 ) ;
#408 = AXIS2_PLACEMENT_3D ( 'NONE', #366, #619, #579 ) ;
#409 = CIRCLE ( 'NONE', #372, 1.631949998666401891 ) ;
#410 = ORIENTED_EDGE ( 'NONE', *, *, #168, .F. ) ;
#411 = CIRCLE ( 'NONE', #361, 1.631949998666401891 ) ;
#412 = ORIENTED_EDGE ( 'NONE', *, *, #252, .F. ) ;
#413 = CARTESIAN_POINT ( 'NONE',  ( 9.978050001333597763, 2.843629867620153816E-15, 3.000000000000000000 ) ) ;
#414 = CARTESIAN_POINT ( 'NONE',  ( 0.000000000000000000, 0.000000000000000000, 3.000000000000000000 ) ) ;
#415 = EDGE_CURVE ( 'NONE', #485, #46, #491, .T. ) ;
#416 = ORIENTED_EDGE ( 'NONE', *, *, #141, .F. ) ;
#417 = ORIENTED_EDGE ( 'NONE', *, *, #27, .F. ) ;
#418 = CARTESIAN_POINT ( 'NONE',  ( 7.774999999999998579, 9.521628863370669207E-16, 0.000000000000000000 ) ) ;
#419 = SHAPE_DEFINITION_REPRESENTATION ( #268, #378 ) ;
#420 = CARTESIAN_POINT ( 'NONE',  ( -19.98902270734956232, -3.524032492783271575, 2.724731102104198666 ) ) ;
#421 = EDGE_CURVE ( 'NONE', #369, #11, #233, .T. ) ;
#422 = EDGE_LOOP ( 'NONE', ( #416, #684, #789, #735, #426, #698 ) ) ;
#423 = ORIENTED_EDGE ( 'NONE', *, *, #774, .T. ) ;
#424 = CARTESIAN_POINT ( 'NONE',  ( -16.55999999999999162, -1.449274994432596664, 2.551043140385320207 ) ) ;
#425 = CARTESIAN_POINT ( 'NONE',  ( 0.000000000000000000, 0.000000000000000000, 0.000000000000000000 ) ) ;
#426 = ORIENTED_EDGE ( 'NONE', *, *, #44, .T. ) ;
#427 = AXIS2_PLACEMENT_3D ( 'NONE', #647, #715, #634 ) ;
#428 = VECTOR ( 'NONE', #622, 1000.000000000000000 ) ;
#429 = ORIENTED_EDGE ( 'NONE', *, *, #574, .T. ) ;
#430 = DIRECTION ( 'NONE',  ( -0.000000000000000000, -0.000000000000000000, -1.000000000000000000 ) ) ;
#431 = DIRECTION ( 'NONE',  ( -0.000000000000000000, -0.000000000000000000, -1.000000000000000000 ) ) ;
#432 = ORIENTED_EDGE ( 'NONE', *, *, #639, .T. ) ;
#433 = ADVANCED_FACE ( 'NONE', ( #803, #241, #188, #370 ), #259, .F. ) ;
#434 = CYLINDRICAL_SURFACE ( 'NONE', #257, 20.21999999999999886 ) ;
#435 = ORIENTED_EDGE ( 'NONE', *, *, #415, .F. ) ;
#436 = CYLINDRICAL_SURFACE ( 'NONE', #595, 1.631949998666401891 ) ;
#437 = CLOSED_SHELL ( 'NONE', ( #705, #203, #711, #272, #31, #617, #120, #135, #577, #805, #598, #306, #329, #492, #511, #89, #764, #433, #549, #289, #340, #506, #642, #580 ) ) ;
#438 = ORIENTED_EDGE ( 'NONE', *, *, #367, .T. ) ;
#439 = VECTOR ( 'NONE', #301, 1000.000000000000114 ) ;
#440 = VECTOR ( 'NONE', #82, 1000.000000000000000 ) ;
#441 = SURFACE_STYLE_FILL_AREA ( #12 ) ;
#442 = DIRECTION ( 'NONE',  ( -0.000000000000000000, -0.000000000000000000, -1.000000000000000000 ) ) ;
#443 = CARTESIAN_POINT ( 'NONE',  ( 16.82811403408016204, 1.179550162637855948, 2.499721131605127322 ) ) ;
#444 = LINE ( 'NONE', #596, #133 ) ;
#445 = DIRECTION ( 'NONE',  ( -0.000000000000000000, -0.000000000000000000, -1.000000000000000000 ) ) ;
#446 = ORIENTED_EDGE ( 'NONE', *, *, #563, .T. ) ;
#447 = DIRECTION ( 'NONE',  ( -0.000000000000000000, 0.000000000000000000, 1.000000000000000000 ) ) ;
#448 = EDGE_CURVE ( 'NONE', #46, #51, #674, .T. ) ;
#449 = CIRCLE ( 'NONE', #509, 3.131949998666408330 ) ;
#450 = EDGE_CURVE ( 'NONE', #737, #57, #59, .T. ) ;
#451 = FACE_OUTER_BOUND ( 'NONE', #422, .T. ) ;
#452 = DIRECTION ( 'NONE',  ( -0.000000000000000000, 0.000000000000000000, 1.000000000000000000 ) ) ;
#453 = CARTESIAN_POINT ( 'NONE',  ( 11.61000000000000121, 2.843629867620153816E-15, 0.000000000000000000 ) ) ;
#454 = LINE ( 'NONE', #45, #520 ) ;
#455 = CARTESIAN_POINT ( 'NONE',  ( -2.329371405922696425, 8.693332436601624025, 1.600000000000000089 ) ) ;
#456 = VECTOR ( 'NONE', #282, 1000.000000000000000 ) ;
#457 = CARTESIAN_POINT ( 'NONE',  ( 0.000000000000000000, 0.000000000000000000, 3.000000000000000000 ) ) ;
#458 = MECHANICAL_DESIGN_GEOMETRIC_PRESENTATION_REPRESENTATION (  '', ( #16 ), #750 ) ;
#459 = DIRECTION ( 'NONE',  ( 1.000000000000000000, 0.000000000000000000, 0.000000000000000000 ) ) ;
#460 = CARTESIAN_POINT ( 'NONE',  ( 8.478050001333592434, 2.843629867620153816E-15, 0.000000000000000000 ) ) ;
#461 = VERTEX_POINT ( 'NONE', #752 ) ;
#462 = DIRECTION ( 'NONE',  ( 1.000000000000000000, 0.000000000000000000, 0.000000000000000000 ) ) ;
#463 = DIRECTION ( 'NONE',  ( -0.5999999999999990896, 0.000000000000000000, -0.8000000000000005995 ) ) ;
#464 = PRODUCT_DEFINITION_CONTEXT ( 'detailed design', #239, 'design' ) ;
#465 = EDGE_LOOP ( 'NONE', ( #501, #314, #160, #627 ) ) ;
#466 = ORIENTED_EDGE ( 'NONE', *, *, #320, .T. ) ;
#467 = CARTESIAN_POINT ( 'NONE',  ( -17.76867749721402490, -9.649999999999998579, 0.000000000000000000 ) ) ;
#468 = CARTESIAN_POINT ( 'NONE',  ( 19.81898894019258606, -4.007003542364786952, 1.600000000000000089 ) ) ;
#469 =( GEOMETRIC_REPRESENTATION_CONTEXT ( 3 ) GLOBAL_UNCERTAINTY_ASSIGNED_CONTEXT ( ( #95 ) ) GLOBAL_UNIT_ASSIGNED_CONTEXT ( ( #496, #130, #686 ) ) REPRESENTATION_CONTEXT ( 'NONE', 'WORKASPACE' ) );
#470 = EDGE_CURVE ( 'NONE', #731, #461, #758, .T. ) ;
#471 = ORIENTED_EDGE ( 'NONE', *, *, #147, .T. ) ;
#472 = AXIS2_PLACEMENT_3D ( 'NONE', #225, #802, #106 ) ;
#473 = VERTEX_POINT ( 'NONE', #10 ) ;
#474 = DIRECTION ( 'NONE',  ( -0.000000000000000000, 0.000000000000000000, 1.000000000000000000 ) ) ;
#475 = EDGE_CURVE ( 'NONE', #712, #56, #312, .T. ) ;
#476 = LINE ( 'NONE', #128, #741 ) ;
#477 = ORIENTED_EDGE ( 'NONE', *, *, #26, .T. ) ;
#478 = ORIENTED_EDGE ( 'NONE', *, *, #475, .T. ) ;
#479 = CARTESIAN_POINT ( 'NONE',  ( -15.75656036088866152, 5.095527999498392191, 1.600000000000000089 ) ) ;
#480 = LINE ( 'NONE', #665, #200 ) ;
#481 = EDGE_CURVE ( 'NONE', #806, #485, #573, .T. ) ;
#482 = MANIFOLD_SOLID_BREP ( 'Chamfer3', #437 ) ;
#483 = ORIENTED_EDGE ( 'NONE', *, *, #26, .F. ) ;
#484 = EDGE_CURVE ( 'NONE', #403, #307, #250, .T. ) ;
#485 = VERTEX_POINT ( 'NONE', #746 ) ;
#486 = FACE_BOUND ( 'NONE', #530, .T. ) ;
#487 = CARTESIAN_POINT ( 'NONE',  ( 0.000000000000000000, 0.000000000000000000, 3.000000000000000000 ) ) ;
#488 = CIRCLE ( 'NONE', #569, 1.631949998666401891 ) ;
#489 = CIRCLE ( 'NONE', #542, 20.21999999999999886 ) ;
#490 = EDGE_LOOP ( 'NONE', ( #81, #96, #720, #145, #121, #385 ) ) ;
#491 = LINE ( 'NONE', #612, #439 ) ;
#492 = ADVANCED_FACE ( 'NONE', ( #186 ), #436, .F. ) ;
#493 = ORIENTED_EDGE ( 'NONE', *, *, #262, .T. ) ;
#494 = DIRECTION ( 'NONE',  ( -0.000000000000000000, -0.000000000000000000, -1.000000000000000000 ) ) ;
#495 = EDGE_LOOP ( 'NONE', ( #338, #745 ) ) ;
#496 =( LENGTH_UNIT ( ) NAMED_UNIT ( * ) SI_UNIT ( .MILLI., .METRE. ) );
#497 = DIRECTION ( 'NONE',  ( -1.000000000000000000, -9.762817048420158359E-17, 0.000000000000000000 ) ) ;
#498 = ORIENTED_EDGE ( 'NONE', *, *, #249, .F. ) ;
#499 = COLOUR_RGB ( '',0.7960784313725489669, 0.8235294117647058432, 0.9372549019607843146 ) ;
#500 = PRESENTATION_STYLE_ASSIGNMENT (( #319 ) ) ;
#501 = ORIENTED_EDGE ( 'NONE', *, *, #19, .T. ) ;
#502 = PRODUCT_DEFINITION ( 'General', '', #151, #464 ) ;
#503 = EDGE_LOOP ( 'NONE', ( #280, #623, #298, #187 ) ) ;
#504 = CARTESIAN_POINT ( 'NONE',  ( 0.000000000000000000, 0.000000000000000000, 3.000000000000000000 ) ) ;
#505 = DIRECTION ( 'NONE',  ( -1.000000000000000000, 0.000000000000000000, 0.000000000000000000 ) ) ;
#506 = ADVANCED_FACE ( 'NONE', ( #315 ), #343, .F. ) ;
#507 = CARTESIAN_POINT ( 'NONE',  ( 0.000000000000000000, 0.000000000000000000, 0.000000000000000000 ) ) ;
#508 = DIRECTION ( 'NONE',  ( -0.000000000000000000, -0.000000000000000000, -1.000000000000000000 ) ) ;
#509 = AXIS2_PLACEMENT_3D ( 'NONE', #266, #447, #697 ) ;
#510 = CARTESIAN_POINT ( 'NONE',  ( 0.000000000000000000, 0.000000000000000000, 1.600000000000000089 ) ) ;
#511 = ADVANCED_FACE ( 'NONE', ( #632 ), #132, .F. ) ;
#512 = ORIENTED_EDGE ( 'NONE', *, *, #320, .F. ) ;
#513 = PLANE ( 'NONE',  #583 ) ;
#514 = FACE_OUTER_BOUND ( 'NONE', #234, .T. ) ;
#515 = VERTEX_POINT ( 'NONE', #21 ) ;
#516 = DIRECTION ( 'NONE',  ( -0.000000000000000000, 0.000000000000000000, 1.000000000000000000 ) ) ;
#517 = CARTESIAN_POINT ( 'NONE',  ( -11.60999999999999766, 0.000000000000000000, 2.000000000000013767 ) ) ;
#518 = ORIENTED_EDGE ( 'NONE', *, *, #603, .T. ) ;
#519 = CARTESIAN_POINT ( 'NONE',  ( 11.61000000000000121, 2.843629867620153816E-15, 3.000000000000000000 ) ) ;
#520 = VECTOR ( 'NONE', #773, 1000.000000000000000 ) ;
#521 = DIRECTION ( 'NONE',  ( 1.000000000000000000, 0.000000000000000000, 0.000000000000000000 ) ) ;
#522 = MECHANICAL_DESIGN_GEOMETRIC_PRESENTATION_REPRESENTATION (  '', ( #88 ), #469 ) ;
#523 = DIRECTION ( 'NONE',  ( 1.000000000000000000, 0.000000000000000000, 0.000000000000000000 ) ) ;
#524 = AXIS2_PLACEMENT_3D ( 'NONE', #733, #677, #787 ) ;
#525 = ORIENTED_EDGE ( 'NONE', *, *, #767, .T. ) ;
#526 = EDGE_LOOP ( 'NONE', ( #327, #559, #337, #193 ) ) ;
#527 = LINE ( 'NONE', #781, #4 ) ;
#528 = DIRECTION ( 'NONE',  ( -0.000000000000000000, 0.000000000000000000, 1.000000000000000000 ) ) ;
#529 = FACE_OUTER_BOUND ( 'NONE', #251, .T. ) ;
#530 = EDGE_LOOP ( 'NONE', ( #376, #410 ) ) ;
#531 = EDGE_CURVE ( 'NONE', #175, #669, #568, .T. ) ;
#532 = ORIENTED_EDGE ( 'NONE', *, *, #739, .T. ) ;
#533 = CARTESIAN_POINT ( 'NONE',  ( 15.75656036088866152, -5.095527999498388638, 1.600000000000000089 ) ) ;
#534 = DIRECTION ( 'NONE',  ( -0.000000000000000000, -0.000000000000000000, -1.000000000000000000 ) ) ;
#535 = DIRECTION ( 'NONE',  ( 1.000000000000000000, -9.762817048420159591E-17, 0.000000000000000000 ) ) ;
#536 = ORIENTED_EDGE ( 'NONE', *, *, #277, .F. ) ;
#537 = ORIENTED_EDGE ( 'NONE', *, *, #661, .T. ) ;
#538 = FACE_OUTER_BOUND ( 'NONE', #732, .T. ) ;
#539 = SURFACE_STYLE_FILL_AREA ( #649 ) ;
#540 = FACE_OUTER_BOUND ( 'NONE', #105, .T. ) ;
#541 = CONICAL_SURFACE ( 'NONE', #189, 3.131949998666408330, 0.6435011087932833718 ) ;
#542 = AXIS2_PLACEMENT_3D ( 'NONE', #425, #618, #109 ) ;
#543 = AXIS2_PLACEMENT_3D ( 'NONE', #48, #671, #122 ) ;
#544 = VERTEX_POINT ( 'NONE', #263 ) ;
#545 = AXIS2_PLACEMENT_3D ( 'NONE', #67, #474, #462 ) ;
#546 = EDGE_LOOP ( 'NONE', ( #284, #423, #592, #756 ) ) ;
#547 = CARTESIAN_POINT ( 'NONE',  ( -20.21999999999999886, 0.000000000000000000, 2.185927830137563976 ) ) ;
#548 = CARTESIAN_POINT ( 'NONE',  ( 17.76867749721402134, -9.650000000000002132, 1.600000000000000089 ) ) ;
#549 = ADVANCED_FACE ( 'NONE', ( #144 ), #339, .T. ) ;
#550 = VERTEX_POINT ( 'NONE', #281 ) ;
#551 = CARTESIAN_POINT ( 'NONE',  ( -19.53102020756496060, -5.233321091972986672, 3.000000000000000000 ) ) ;
#552 = DIRECTION ( 'NONE',  ( -0.000000000000000000, -0.000000000000000000, -1.000000000000000000 ) ) ;
#553 = EDGE_CURVE ( 'NONE', #562, #806, #409, .T. ) ;
#554 = ORIENTED_EDGE ( 'NONE', *, *, #310, .T. ) ;
#555 = CARTESIAN_POINT ( 'NONE',  ( -9.421118451725454770E-16, 9.650000000000000355, 3.000000000000000000 ) ) ;
#556 = CARTESIAN_POINT ( 'NONE',  ( -13.24194999866639932, 0.000000000000000000, 2.000000000000013767 ) ) ;
#557 = CIRCLE ( 'NONE', #759, 20.21999999999999886 ) ;
#558 = AXIS2_PLACEMENT_3D ( 'NONE', #377, #445, #682 ) ;
#559 = ORIENTED_EDGE ( 'NONE', *, *, #415, .T. ) ;
#560 = VECTOR ( 'NONE', #323, 1000.000000000000000 ) ;
#561 = DIRECTION ( 'NONE',  ( -9.762817048420158359E-17, 1.000000000000000000, 0.000000000000000000 ) ) ;
#562 = VERTEX_POINT ( 'NONE', #25 ) ;
#563 = EDGE_CURVE ( 'NONE', #57, #28, #527, .T. ) ;
#564 =( LENGTH_UNIT ( ) NAMED_UNIT ( * ) SI_UNIT ( .MILLI., .METRE. ) );
#565 = CARTESIAN_POINT ( 'NONE',  ( 15.99573168334696760, 4.286043386897754992, 3.000000000000000000 ) ) ;
#566 = ORIENTED_EDGE ( 'NONE', *, *, #168, .T. ) ;
#567 = PRODUCT_RELATED_PRODUCT_CATEGORY ( 'part', '', ( #212 ) ) ;
#568 = LINE ( 'NONE', #261, #245 ) ;
#569 = AXIS2_PLACEMENT_3D ( 'NONE', #517, #659, #50 ) ;
#570 = CARTESIAN_POINT ( 'NONE',  ( -16.55999999999999872, 0.000000000000000000, 2.333282139815938905 ) ) ;
#571 = VECTOR ( 'NONE', #346, 1000.000000000000000 ) ;
#572 = CIRCLE ( 'NONE', #760, 1.631949998666401891 ) ;
#573 = LINE ( 'NONE', #691, #79 ) ;
#574 = EDGE_CURVE ( 'NONE', #51, #46, #449, .T. ) ;
#575 = CYLINDRICAL_SURFACE ( 'NONE', #692, 16.55999999999999872 ) ;
#576 = DIRECTION ( 'NONE',  ( -0.000000000000000000, 0.000000000000000000, 1.000000000000000000 ) ) ;
#577 = ADVANCED_FACE ( 'NONE', ( #451 ), #333, .T. ) ;
#578 = CARTESIAN_POINT ( 'NONE',  ( 0.000000000000000000, 0.000000000000000000, 0.000000000000000000 ) ) ;
#579 = DIRECTION ( 'NONE',  ( 1.000000000000000000, 0.000000000000000000, 0.000000000000000000 ) ) ;
#580 = ADVANCED_FACE ( 'NONE', ( #585 ), #588, .F. ) ;
#581 = CARTESIAN_POINT ( 'NONE',  ( 0.000000000000000000, 0.000000000000000000, 1.600000000000000089 ) ) ;
#582 = DIRECTION ( 'NONE',  ( -0.000000000000000000, 0.000000000000000000, 1.000000000000000000 ) ) ;
#583 = AXIS2_PLACEMENT_3D ( 'NONE', #455, #388, #640 ) ;
#584 = ORIENTED_EDGE ( 'NONE', *, *, #481, .T. ) ;
#585 = FACE_OUTER_BOUND ( 'NONE', #503, .T. ) ;
#586 = APPLICATION_CONTEXT ( 'automotive_design' ) ;
#587 = DIRECTION ( 'NONE',  ( -0.000000000000000000, 0.000000000000000000, 1.000000000000000000 ) ) ;
#588 = PLANE ( 'NONE',  #777 ) ;
#589 = CARTESIAN_POINT ( 'NONE',  ( 7.774999999999998579, 9.521628863370669207E-16, 3.000000000000000000 ) ) ;
#590 = CARTESIAN_POINT ( 'NONE',  ( 11.61000000000000121, 2.843629867620153816E-15, 2.000000000000013767 ) ) ;
#591 = ORIENTED_EDGE ( 'NONE', *, *, #252, .T. ) ;
#592 = ORIENTED_EDGE ( 'NONE', *, *, #769, .T. ) ;
#593 = CARTESIAN_POINT ( 'NONE',  ( 13.45775241264305322, -9.650000000000002132, 1.600000000000000089 ) ) ;
#594 = LINE ( 'NONE', #772, #723 ) ;
#595 = AXIS2_PLACEMENT_3D ( 'NONE', #138, #18, #197 ) ;
#596 = CARTESIAN_POINT ( 'NONE',  ( 2.244897367846220041E-16, -8.378071034579708211E-16, 3.000000000000000000 ) ) ;
#597 = VECTOR ( 'NONE', #430, 1000.000000000000000 ) ;
#598 = ADVANCED_FACE ( 'NONE', ( #713 ), #638, .T. ) ;
#599 = ORIENTED_EDGE ( 'NONE', *, *, #8, .T. ) ;
#600 = DIRECTION ( 'NONE',  ( -0.000000000000000000, 0.000000000000000000, 1.000000000000000000 ) ) ;
#601 = CARTESIAN_POINT ( 'NONE',  ( 17.76867749721402134, -9.650000000000002132, 0.000000000000000000 ) ) ;
#602 = LINE ( 'NONE', #288, #38 ) ;
#603 = EDGE_CURVE ( 'NONE', #676, #780, #143, .T. ) ;
#604 = VERTEX_POINT ( 'NONE', #593 ) ;
#605 = ORIENTED_EDGE ( 'NONE', *, *, #470, .T. ) ;
#606 = LINE ( 'NONE', #236, #597 ) ;
#607 = CARTESIAN_POINT ( 'NONE',  ( -18.32510308926966758, 4.407289049703867256, 1.600000000000000089 ) ) ;
#608 = ORIENTED_EDGE ( 'NONE', *, *, #115, .F. ) ;
#609 = VERTEX_POINT ( 'NONE', #29 ) ;
#610 = EDGE_LOOP ( 'NONE', ( #417, #599, #681, #512 ) ) ;
#611 = FACE_BOUND ( 'NONE', #728, .T. ) ;
#612 = CARTESIAN_POINT ( 'NONE',  ( 14.74194999866640821, 3.227183121715790950E-15, 0.000000000000000000 ) ) ;
#613 = VECTOR ( 'NONE', #442, 1000.000000000000000 ) ;
#614 = AXIS2_PLACEMENT_3D ( 'NONE', #763, #264, #156 ) ;
#615 = ORIENTED_EDGE ( 'NONE', *, *, #475, .F. ) ;
#616 = CARTESIAN_POINT ( 'NONE',  ( -15.99573168334696760, -4.286043386897756768, 3.000000000000000000 ) ) ;
#617 = ADVANCED_FACE ( 'NONE', ( #328 ), #211, .T. ) ;
#618 = DIRECTION ( 'NONE',  ( -0.000000000000000000, 0.000000000000000000, 1.000000000000000000 ) ) ;
#619 = DIRECTION ( 'NONE',  ( -0.000000000000000000, 0.000000000000000000, 1.000000000000000000 ) ) ;
#620 = EDGE_LOOP ( 'NONE', ( #435, #663, #670, #7 ) ) ;
#621 = FACE_OUTER_BOUND ( 'NONE', #119, .T. ) ;
#622 = DIRECTION ( 'NONE',  ( 0.9659258262890680902, 0.2588190451025214611, 0.000000000000000000 ) ) ;
#623 = ORIENTED_EDGE ( 'NONE', *, *, #347, .F. ) ;
#624 = CARTESIAN_POINT ( 'NONE',  ( 15.75656036088866152, -5.095527999498388638, 1.600000000000000089 ) ) ;
#625 = AXIS2_PLACEMENT_3D ( 'NONE', #719, #209, #402 ) ;
#626 = AXIS2_PLACEMENT_3D ( 'NONE', #270, #528, #782 ) ;
#627 = ORIENTED_EDGE ( 'NONE', *, *, #396, .F. ) ;
#628 =( BOUNDED_CURVE ( )  B_SPLINE_CURVE ( 3, ( #799, #420, #744, #183 ),
 .UNSPECIFIED., .F., .T. ) 
 B_SPLINE_CURVE_WITH_KNOTS ( ( 4, 4 ),
 ( 4.712388980384689674, 4.974188368183839692 ),
 .UNSPECIFIED. ) 
 CURVE ( )  GEOMETRIC_REPRESENTATION_ITEM ( )  RATIONAL_B_SPLINE_CURVE ( ( 1.000000000000000000, 0.9942965742492069214, 0.9942965742492069214, 1.000000000000000000 ) ) 
 REPRESENTATION_ITEM ( '' )  );
#629 = DIRECTION ( 'NONE',  ( 0.000000000000000000, 0.000000000000000000, 1.000000000000000000 ) ) ;
#630 = DIRECTION ( 'NONE',  ( 1.000000000000000000, 0.000000000000000000, 0.000000000000000000 ) ) ;
#631 = EDGE_LOOP ( 'NONE', ( #100, #297, #129 ) ) ;
#632 = FACE_OUTER_BOUND ( 'NONE', #716, .T. ) ;
#633 = CARTESIAN_POINT ( 'NONE',  ( 19.53102020756496060, 5.233321091972984895, 3.000000000000000000 ) ) ;
#634 = DIRECTION ( 'NONE',  ( 1.000000000000000000, 0.000000000000000000, 0.000000000000000000 ) ) ;
#635 = AXIS2_PLACEMENT_3D ( 'NONE', #487, #246, #293 ) ;
#636 = CIRCLE ( 'NONE', #795, 20.21999999999999886 ) ;
#637 = DIRECTION ( 'NONE',  ( -0.000000000000000000, 0.000000000000000000, 1.000000000000000000 ) ) ;
#638 = CYLINDRICAL_SURFACE ( 'NONE', #660, 16.55999999999999872 ) ;
#639 = EDGE_CURVE ( 'NONE', #403, #473, #91, .T. ) ;
#640 = DIRECTION ( 'NONE',  ( -0.9659258262890680902, -0.2588190451025214611, 0.000000000000000000 ) ) ;
#641 = CARTESIAN_POINT ( 'NONE',  ( -19.81898894019258606, 4.007003542364788728, 1.600000000000000089 ) ) ;
#642 = ADVANCED_FACE ( 'NONE', ( #155 ), #513, .T. ) ;
#643 = VERTEX_POINT ( 'NONE', #766 ) ;
#644 = DIRECTION ( 'NONE',  ( 1.000000000000000000, 0.000000000000000000, 0.000000000000000000 ) ) ;
#645 = AXIS2_PLACEMENT_3D ( 'NONE', #330, #582, #267 ) ;
#646 = DIRECTION ( 'NONE',  ( -1.000000000000000000, 0.000000000000000000, 0.000000000000000000 ) ) ;
#647 = CARTESIAN_POINT ( 'NONE',  ( 0.000000000000000000, 0.000000000000000000, 0.000000000000000000 ) ) ;
#648 = CARTESIAN_POINT ( 'NONE',  ( -7.774999999999998579, 0.000000000000000000, 0.000000000000000000 ) ) ;
#649 = FILL_AREA_STYLE ('',( #352 ) ) ;
#650 = CARTESIAN_POINT ( 'NONE',  ( -13.45775241264305677, 9.649999999999998579, 3.000000000000000000 ) ) ;
#651 = DIRECTION ( 'NONE',  ( -0.000000000000000000, -0.000000000000000000, -1.000000000000000000 ) ) ;
#652 = VERTEX_POINT ( 'NONE', #653 ) ;
#653 = CARTESIAN_POINT ( 'NONE',  ( -7.774999999999998579, 0.000000000000000000, 3.000000000000000000 ) ) ;
#654 = DIRECTION ( 'NONE',  ( -1.000000000000000000, 0.000000000000000000, 0.000000000000000000 ) ) ;
#655 = EDGE_LOOP ( 'NONE', ( #429, #311 ) ) ;
#656 = CARTESIAN_POINT ( 'NONE',  ( 17.76867749721402134, 9.650000000000002132, 3.000000000000000000 ) ) ;
#657 = PLANE ( 'NONE',  #658 ) ;
#658 = AXIS2_PLACEMENT_3D ( 'NONE', #510, #205, #730 ) ;
#659 = DIRECTION ( 'NONE',  ( -0.000000000000000000, -0.000000000000000000, -1.000000000000000000 ) ) ;
#660 = AXIS2_PLACEMENT_3D ( 'NONE', #33, #92, #321 ) ;
#661 = EDGE_CURVE ( 'NONE', #199, #669, #707, .T. ) ;
#662 = ORIENTED_EDGE ( 'NONE', *, *, #784, .F. ) ;
#663 = ORIENTED_EDGE ( 'NONE', *, *, #208, .F. ) ;
#664 = CARTESIAN_POINT ( 'NONE',  ( -11.60999999999999766, 0.000000000000000000, 2.000000000000013767 ) ) ;
#665 = CARTESIAN_POINT ( 'NONE',  ( 2.244897367846220041E-16, -8.378071034579708211E-16, 3.000000000000000000 ) ) ;
#666 = ORIENTED_EDGE ( 'NONE', *, *, #335, .T. ) ;
#667 = FACE_OUTER_BOUND ( 'NONE', #610, .T. ) ;
#668 = DIRECTION ( 'NONE',  ( 1.000000000000000000, 0.000000000000000000, 0.000000000000000000 ) ) ;
#669 = VERTEX_POINT ( 'NONE', #206 ) ;
#670 = ORIENTED_EDGE ( 'NONE', *, *, #70, .T. ) ;
#671 = DIRECTION ( 'NONE',  ( -0.000000000000000000, 0.000000000000000000, 1.000000000000000000 ) ) ;
#672 = DIRECTION ( 'NONE',  ( -0.000000000000000000, 0.000000000000000000, 1.000000000000000000 ) ) ;
#673 = VECTOR ( 'NONE', #379, 1000.000000000000114 ) ;
#674 = CIRCLE ( 'NONE', #749, 3.131949998666408330 ) ;
#675 = EDGE_CURVE ( 'NONE', #669, #695, #726, .T. ) ;
#676 = VERTEX_POINT ( 'NONE', #648 ) ;
#677 = DIRECTION ( 'NONE',  ( -0.000000000000000000, -0.000000000000000000, -1.000000000000000000 ) ) ;
#678 = CARTESIAN_POINT ( 'NONE',  ( 2.329371405922695537, -8.693332436601620472, 1.600000000000000089 ) ) ;
#679 = ORIENTED_EDGE ( 'NONE', *, *, #405, .T. ) ;
#680 = DIRECTION ( 'NONE',  ( -0.000000000000000000, 0.000000000000000000, 1.000000000000000000 ) ) ;
#681 = ORIENTED_EDGE ( 'NONE', *, *, #736, .F. ) ;
#682 = DIRECTION ( 'NONE',  ( -1.000000000000000000, 0.000000000000000000, 0.000000000000000000 ) ) ;
#683 = VECTOR ( 'NONE', #494, 1000.000000000000000 ) ;
#684 = ORIENTED_EDGE ( 'NONE', *, *, #387, .T. ) ;
#685 = AXIS2_PLACEMENT_3D ( 'NONE', #397, #274, #459 ) ;
#686 =( NAMED_UNIT ( * ) SI_UNIT ( $, .STERADIAN. ) SOLID_ANGLE_UNIT ( ) );
#687 = LINE ( 'NONE', #137, #673 ) ;
#688 = EDGE_CURVE ( 'NONE', #199, #609, #636, .T. ) ;
#689 = DIRECTION ( 'NONE',  ( -0.000000000000000000, -0.000000000000000000, -1.000000000000000000 ) ) ;
#690 = LINE ( 'NONE', #460, #78 ) ;
#691 = CARTESIAN_POINT ( 'NONE',  ( 13.24194999866640288, 3.043486101843687439E-15, 3.000000000000000000 ) ) ;
#692 = AXIS2_PLACEMENT_3D ( 'NONE', #94, #706, #149 ) ;
#693 = CIRCLE ( 'NONE', #231, 1.631949998666401891 ) ;
#694 = EDGE_CURVE ( 'NONE', #550, #112, #722, .T. ) ;
#695 = VERTEX_POINT ( 'NONE', #479 ) ;
#696 = AXIS2_PLACEMENT_3D ( 'NONE', #664, #113, #351 ) ;
#697 = DIRECTION ( 'NONE',  ( 1.000000000000000000, 0.000000000000000000, 0.000000000000000000 ) ) ;
#698 = ORIENTED_EDGE ( 'NONE', *, *, #694, .F. ) ;
#699 = CARTESIAN_POINT ( 'NONE',  ( 0.000000000000000000, 0.000000000000000000, 3.000000000000000000 ) ) ;
#700 = CARTESIAN_POINT ( 'NONE',  ( -20.08588523942407633, 2.686911172412568938, 1.787605206120197687 ) ) ;
#701 =( BOUNDED_CURVE ( )  B_SPLINE_CURVE ( 3, ( #331, #341, #159, #318 ),
 .UNSPECIFIED., .F., .F. ) 
 B_SPLINE_CURVE_WITH_KNOTS ( ( 4, 4 ),
 ( 0.9962211171047506975, 1.308996938995746318 ),
 .UNSPECIFIED. ) 
 CURVE ( )  GEOMETRIC_REPRESENTATION_ITEM ( )  RATIONAL_B_SPLINE_CURVE ( ( 1.000000000000000000, 0.9918642089412585960, 0.9918642089412585960, 1.000000000000000000 ) ) 
 REPRESENTATION_ITEM ( '' )  );
#702 = EDGE_CURVE ( 'NONE', #28, #604, #606, .T. ) ;
#703 = DIRECTION ( 'NONE',  ( 1.000000000000000000, 0.000000000000000000, 0.000000000000000000 ) ) ;
#704 = CARTESIAN_POINT ( 'NONE',  ( -8.478050001333588881, 3.835532540956374299E-16, 0.000000000000000000 ) ) ;
#705 = ADVANCED_FACE ( 'NONE', ( #667 ), #279, .F. ) ;
#706 = DIRECTION ( 'NONE',  ( -0.000000000000000000, -0.000000000000000000, -1.000000000000000000 ) ) ;
#707 = LINE ( 'NONE', #84, #560 ) ;
#708 = VECTOR ( 'NONE', #353, 1000.000000000000000 ) ;
#709 = SURFACE_STYLE_USAGE ( .BOTH. , #54 ) ;
#710 = DIRECTION ( 'NONE',  ( -0.000000000000000000, 0.000000000000000000, 1.000000000000000000 ) ) ;
#711 = ADVANCED_FACE ( 'NONE', ( #538 ), #286, .F. ) ;
#712 = VERTEX_POINT ( 'NONE', #547 ) ;
#713 = FACE_OUTER_BOUND ( 'NONE', #350, .T. ) ;
#714 = DIRECTION ( 'NONE',  ( 1.000000000000000000, 9.762817048420159591E-17, 0.000000000000000000 ) ) ;
#715 = DIRECTION ( 'NONE',  ( -0.000000000000000000, 0.000000000000000000, 1.000000000000000000 ) ) ;
#716 = EDGE_LOOP ( 'NONE', ( #477, #371, #608, #751, #235, #154 ) ) ;
#717 = DIRECTION ( 'NONE',  ( 1.000000000000000000, 9.762817048420159591E-17, 0.000000000000000000 ) ) ;
#718 = FACE_OUTER_BOUND ( 'NONE', #332, .T. ) ;
#719 = CARTESIAN_POINT ( 'NONE',  ( -11.60999999999999766, 0.000000000000000000, 3.000000000000000000 ) ) ;
#720 = ORIENTED_EDGE ( 'NONE', *, *, #762, .F. ) ;
#721 = ORIENTED_EDGE ( 'NONE', *, *, #102, .F. ) ;
#722 = LINE ( 'NONE', #656, #374 ) ;
#723 = VECTOR ( 'NONE', #714, 1000.000000000000000 ) ;
#724 = CARTESIAN_POINT ( 'NONE',  ( -7.774999999999998579, 0.000000000000000000, 3.000000000000000000 ) ) ;
#725 = AXIS2_PLACEMENT_3D ( 'NONE', #775, #761, #152 ) ;
#726 = CIRCLE ( 'NONE', #179, 16.55999999999999872 ) ;
#727 = ORIENTED_EDGE ( 'NONE', *, *, #450, .T. ) ;
#728 = EDGE_LOOP ( 'NONE', ( #291, #299 ) ) ;
#729 = DIRECTION ( 'NONE',  ( -0.000000000000000000, -0.000000000000000000, -1.000000000000000000 ) ) ;
#730 = DIRECTION ( 'NONE',  ( 1.000000000000000000, 0.000000000000000000, 0.000000000000000000 ) ) ;
#731 = VERTEX_POINT ( 'NONE', #533 ) ;
#732 = EDGE_LOOP ( 'NONE', ( #227, #169, #354, #62 ) ) ;
#733 = CARTESIAN_POINT ( 'NONE',  ( -11.60999999999999766, 0.000000000000000000, 3.000000000000000000 ) ) ;
#734 = DIRECTION ( 'NONE',  ( -0.000000000000000000, -0.000000000000000000, -1.000000000000000000 ) ) ;
#735 = ORIENTED_EDGE ( 'NONE', *, *, #484, .T. ) ;
#736 = EDGE_CURVE ( 'NONE', #47, #181, #108, .T. ) ;
#737 = VERTEX_POINT ( 'NONE', #551 ) ;
#738 = PLANE ( 'NONE',  #42 ) ;
#739 = EDGE_CURVE ( 'NONE', #175, #550, #798, .T. ) ;
#740 = FACE_OUTER_BOUND ( 'NONE', #223, .T. ) ;
#741 = VECTOR ( 'NONE', #734, 1000.000000000000000 ) ;
#742 = VECTOR ( 'NONE', #729, 1000.000000000000000 ) ;
#743 = VERTEX_POINT ( 'NONE', #364 ) ;
#744 = CARTESIAN_POINT ( 'NONE',  ( -20.21999999999999176, -1.769585772187639128, 2.451817167789310581 ) ) ;
#745 = ORIENTED_EDGE ( 'NONE', *, *, #375, .F. ) ;
#746 = CARTESIAN_POINT ( 'NONE',  ( 13.24194999866640288, 3.043486101843687439E-15, 2.000000000000013767 ) ) ;
#747 = LINE ( 'NONE', #254, #613 ) ;
#748 = APPLICATION_PROTOCOL_DEFINITION ( 'draft international standard', 'automotive_design', 1998, #239 ) ;
#749 = AXIS2_PLACEMENT_3D ( 'NONE', #253, #637, #14 ) ;
#750 =( GEOMETRIC_REPRESENTATION_CONTEXT ( 3 ) GLOBAL_UNCERTAINTY_ASSIGNED_CONTEXT ( ( #368 ) ) GLOBAL_UNIT_ASSIGNED_CONTEXT ( ( #564, #9, #304 ) ) REPRESENTATION_CONTEXT ( 'NONE', 'WORKASPACE' ) );
#751 = ORIENTED_EDGE ( 'NONE', *, *, #702, .F. ) ;
#752 = CARTESIAN_POINT ( 'NONE',  ( 15.99573168334696760, 4.286043386897754992, 3.000000000000000000 ) ) ;
#753 = VERTEX_POINT ( 'NONE', #467 ) ;
#754 = CARTESIAN_POINT ( 'NONE',  ( 17.76867749721402134, -9.650000000000002132, 1.600000000000000089 ) ) ;
#755 = CARTESIAN_POINT ( 'NONE',  ( 8.478050001333592434, 2.843629867620153816E-15, 0.000000000000000000 ) ) ;
#756 = ORIENTED_EDGE ( 'NONE', *, *, #208, .T. ) ;
#757 = CARTESIAN_POINT ( 'NONE',  ( -20.21999999999999886, 0.000000000000000000, 3.000000000000000000 ) ) ;
#758 =( BOUNDED_CURVE ( )  B_SPLINE_CURVE ( 3, ( #624, #373, #443, #565 ),
 .UNSPECIFIED., .F., .T. ) 
 B_SPLINE_CURVE_WITH_KNOTS ( ( 4, 4 ),
 ( 0.9962211171047511415, 1.570796326794895892 ),
 .UNSPECIFIED. ) 
 CURVE ( )  GEOMETRIC_REPRESENTATION_ITEM ( )  RATIONAL_B_SPLINE_CURVE ( ( 1.000000000000000000, 0.9726773100344804357, 0.9726773100344804357, 1.000000000000000000 ) ) 
 REPRESENTATION_ITEM ( '' )  );
#759 = AXIS2_PLACEMENT_3D ( 'NONE', #395, #710, #153 ) ;
#760 = AXIS2_PLACEMENT_3D ( 'NONE', #165, #600, #58 ) ;
#761 = DIRECTION ( 'NONE',  ( -0.000000000000000000, 0.000000000000000000, 1.000000000000000000 ) ) ;
#762 = EDGE_CURVE ( 'NONE', #11, #786, #313, .T. ) ;
#763 = CARTESIAN_POINT ( 'NONE',  ( 0.000000000000000000, 0.000000000000000000, 0.000000000000000000 ) ) ;
#764 = ADVANCED_FACE ( 'NONE', ( #621, #611, #486, #118 ), #221, .T. ) ;
#765 = ORIENTED_EDGE ( 'NONE', *, *, #390, .T. ) ;
#766 = CARTESIAN_POINT ( 'NONE',  ( -9.978050001333595986, 1.998562342235335244E-16, 3.000000000000000000 ) ) ;
#767 = EDGE_CURVE ( 'NONE', #604, #731, #201, .T. ) ;
#768 = DIRECTION ( 'NONE',  ( -1.000000000000000000, 0.000000000000000000, 0.000000000000000000 ) ) ;
#769 = EDGE_CURVE ( 'NONE', #562, #785, #345, .T. ) ;
#770 = DIRECTION ( 'NONE',  ( -0.000000000000000000, -0.000000000000000000, -1.000000000000000000 ) ) ;
#771 = EDGE_CURVE ( 'NONE', #294, #544, #384, .T. ) ;
#772 = CARTESIAN_POINT ( 'NONE',  ( -9.421118451725454770E-16, 9.650000000000000355, 0.000000000000000000 ) ) ;
#773 = DIRECTION ( 'NONE',  ( -0.000000000000000000, -0.000000000000000000, -1.000000000000000000 ) ) ;
#774 = EDGE_CURVE ( 'NONE', #806, #562, #572, .T. ) ;
#775 = CARTESIAN_POINT ( 'NONE',  ( 0.000000000000000000, 0.000000000000000000, 1.600000000000000089 ) ) ;
#776 = AXIS2_PLACEMENT_3D ( 'NONE', #401, #30, #768 ) ;
#777 = AXIS2_PLACEMENT_3D ( 'NONE', #269, #97, #101 ) ;
#778 = CARTESIAN_POINT ( 'NONE',  ( 14.74194999866640821, 3.227183121715790950E-15, 0.000000000000000000 ) ) ;
#779 = ORIENTED_EDGE ( 'NONE', *, *, #8, .F. ) ;
#780 = VERTEX_POINT ( 'NONE', #418 ) ;
#781 = CARTESIAN_POINT ( 'NONE',  ( -9.421118451725454770E-16, -9.650000000000000355, 3.000000000000000000 ) ) ;
#782 = DIRECTION ( 'NONE',  ( 1.000000000000000000, 0.000000000000000000, 0.000000000000000000 ) ) ;
#783 = CARTESIAN_POINT ( 'NONE',  ( -14.74194999866640465, 0.000000000000000000, 0.000000000000000000 ) ) ;
#784 = EDGE_CURVE ( 'NONE', #780, #676, #192, .T. ) ;
#785 = VERTEX_POINT ( 'NONE', #360 ) ;
#786 = VERTEX_POINT ( 'NONE', #616 ) ;
#787 = DIRECTION ( 'NONE',  ( -1.000000000000000000, 0.000000000000000000, 0.000000000000000000 ) ) ;
#788 = CARTESIAN_POINT ( 'NONE',  ( 20.44064593976511546, -0.9322338126005611514, 2.036971549911646306 ) ) ;
#789 = ORIENTED_EDGE ( 'NONE', *, *, #639, .F. ) ;
#790 = ORIENTED_EDGE ( 'NONE', *, *, #688, .F. ) ;
#791 = CARTESIAN_POINT ( 'NONE',  ( -16.37083165349697467, -2.886151240380355087, 2.774557223088315094 ) ) ;
#792 = CIRCLE ( 'NONE', #15, 1.631949998666401891 ) ;
#793 = CARTESIAN_POINT ( 'NONE',  ( 20.34293131606264637, 2.203227583830050573, 2.512024768138502839 ) ) ;
#794 =( LENGTH_UNIT ( ) NAMED_UNIT ( * ) SI_UNIT ( .MILLI., .METRE. ) );
#795 = AXIS2_PLACEMENT_3D ( 'NONE', #148, #392, #644 ) ;
#796 = ORIENTED_EDGE ( 'NONE', *, *, #675, .F. ) ;
#797 = ORIENTED_EDGE ( 'NONE', *, *, #531, .T. ) ;
#798 = LINE ( 'NONE', #292, #247 ) ;
#799 = CARTESIAN_POINT ( 'NONE',  ( -19.53102020756496060, -5.233321091972986672, 3.000000000000000000 ) ) ;
#800 = EDGE_CURVE ( 'NONE', #515, #643, #411, .T. ) ;
#801 = ORIENTED_EDGE ( 'NONE', *, *, #36, .F. ) ;
#802 = DIRECTION ( 'NONE',  ( -0.000000000000000000, 0.000000000000000000, 1.000000000000000000 ) ) ;
#803 = FACE_BOUND ( 'NONE', #655, .T. ) ;
#804 = CARTESIAN_POINT ( 'NONE',  ( 13.24194999866640288, 3.043486101843687439E-15, 3.000000000000000000 ) ) ;
#805 = ADVANCED_FACE ( 'NONE', ( #240 ), #738, .T. ) ;
#806 = VERTEX_POINT ( 'NONE', #804 ) ;
ENDSEC;
END-ISO-10303-21;
