ISO-10303-21;
HEADER;
FILE_DESCRIPTION (( 'STEP AP214' ),
    '1' );
FILE_NAME ('wing part.STEP',
    '2026-05-30T17:36:28',
    ( '' ),
    ( '' ),
    'SwSTEP 2.0',
    'SolidWorks 2025',
    '' );
FILE_SCHEMA (( 'AUTOMOTIVE_DESIGN' ));
ENDSEC;

DATA;
#1 = CIRCLE ( 'NONE', #104, 1.631999870894150551 ) ;
#2 = DIRECTION ( 'NONE',  ( 8.360113137237622995E-16, 0.000000000000000000, 1.000000000000000000 ) ) ;
#3 = COLOUR_RGB ( '',0.7960784313725489669, 0.8235294117647058432, 0.9372549019607843146 ) ;
#4 = CARTESIAN_POINT ( 'NONE',  ( 0.000000000000000000, 0.000000000000000000, -0.000000000000000000 ) ) ;
#5 = DIRECTION ( 'NONE',  ( 0.000000000000000000, 0.000000000000000000, 1.000000000000000000 ) ) ;
#6 =( NAMED_UNIT ( * ) SI_UNIT ( $, .STERADIAN. ) SOLID_ANGLE_UNIT ( ) );
#7 = DIRECTION ( 'NONE',  ( 0.000000000000000000, 0.000000000000000000, 1.000000000000000000 ) ) ;
#8 = AXIS2_PLACEMENT_3D ( 'NONE', #170, #288, #324 ) ;
#9 = DIRECTION ( 'NONE',  ( -1.000000000000000000, 0.000000000000000000, -0.000000000000000000 ) ) ;
#10 = DIRECTION ( 'NONE',  ( 0.000000000000000000, 0.000000000000000000, -1.000000000000000000 ) ) ;
#11 = DIRECTION ( 'NONE',  ( -8.360113137237622009E-16, 0.000000000000000000, -1.000000000000000000 ) ) ;
#12 = EDGE_CURVE ( 'NONE', #137, #434, #490, .T. ) ;
#13 = ORIENTED_EDGE ( 'NONE', *, *, #259, .F. ) ;
#14 = EDGE_LOOP ( 'NONE', ( #249, #302, #449, #76 ) ) ;
#15 = CIRCLE ( 'NONE', #86, 1.631999870894150551 ) ;
#16 = VECTOR ( 'NONE', #151, 1000.000000000000000 ) ;
#17 = FACE_OUTER_BOUND ( 'NONE', #413, .T. ) ;
#18 = ORIENTED_EDGE ( 'NONE', *, *, #121, .F. ) ;
#19 = DIRECTION ( 'NONE',  ( 1.000000000000000000, -0.000000000000000000, 0.000000000000000000 ) ) ;
#20 = ORIENTED_EDGE ( 'NONE', *, *, #172, .T. ) ;
#21 = DIRECTION ( 'NONE',  ( -0.000000000000000000, -1.000000000000000000, -0.000000000000000000 ) ) ;
#22 = UNCERTAINTY_MEASURE_WITH_UNIT (LENGTH_MEASURE( 1.000000000000000082E-05 ), #122, 'distance_accuracy_value', 'NONE');
#23 = EDGE_LOOP ( 'NONE', ( #144, #364, #257, #489, #337, #286, #455, #371 ) ) ;
#24 = ADVANCED_FACE ( 'NONE', ( #493 ), #454, .T. ) ;
#25 = AXIS2_PLACEMENT_3D ( 'NONE', #326, #443, #11 ) ;
#26 = CONICAL_SURFACE ( 'NONE', #492, 3.131999870894160320, 0.6435011087932837048 ) ;
#27 = LINE ( 'NONE', #406, #448 ) ;
#28 = VERTEX_POINT ( 'NONE', #377 ) ;
#29 = FACE_OUTER_BOUND ( 'NONE', #132, .T. ) ;
#30 = CARTESIAN_POINT ( 'NONE',  ( 0.000000000000000000, 2.080000000000000071, 0.000000000000000000 ) ) ;
#31 = EDGE_CURVE ( 'NONE', #28, #142, #287, .T. ) ;
#32 = FACE_OUTER_BOUND ( 'NONE', #335, .T. ) ;
#33 = CARTESIAN_POINT ( 'NONE',  ( -31.26109752017105237, 3.480000000000000426, -9.399999999999998579 ) ) ;
#34 = AXIS2_PLACEMENT_3D ( 'NONE', #160, #45, #426 ) ;
#35 = SURFACE_SIDE_STYLE ('',( #256 ) ) ;
#36 = PRODUCT_DEFINITION_CONTEXT ( 'detailed design', #153, 'design' ) ;
#37 = ORIENTED_EDGE ( 'NONE', *, *, #169, .F. ) ;
#38 = PRODUCT ( 'wing part', 'wing part', '', ( #158 ) ) ;
#39 = DIRECTION ( 'NONE',  ( 0.000000000000000000, 0.000000000000000000, -1.000000000000000000 ) ) ;
#40 = ORIENTED_EDGE ( 'NONE', *, *, #485, .T. ) ;
#41 = CARTESIAN_POINT ( 'NONE',  ( -5.089999999999999858, 2.000000000000016431, -7.639001622458086338 ) ) ;
#42 = CARTESIAN_POINT ( 'NONE',  ( -10.16758907723458094, 2.566265317901800014, -6.984275810640244053 ) ) ;
#43 = APPLICATION_PROTOCOL_DEFINITION ( 'draft international standard', 'automotive_design', 1998, #404 ) ;
#44 = AXIS2_PLACEMENT_3D ( 'NONE', #419, #319, #105 ) ;
#45 = DIRECTION ( 'NONE',  ( -0.000000000000000000, -1.000000000000000000, -0.000000000000000000 ) ) ;
#46 =( GEOMETRIC_REPRESENTATION_CONTEXT ( 3 ) GLOBAL_UNCERTAINTY_ASSIGNED_CONTEXT ( ( #301 ) ) GLOBAL_UNIT_ASSIGNED_CONTEXT ( ( #47, #418, #265 ) ) REPRESENTATION_CONTEXT ( 'NONE', 'WORKASPACE' ) );
#47 =( LENGTH_UNIT ( ) NAMED_UNIT ( * ) SI_UNIT ( .MILLI., .METRE. ) );
#48 = DIRECTION ( 'NONE',  ( 0.000000000000000000, 1.000000000000000000, -0.000000000000000000 ) ) ;
#49 =( NAMED_UNIT ( * ) PLANE_ANGLE_UNIT ( ) SI_UNIT ( $, .RADIAN. ) );
#50 = DIRECTION ( 'NONE',  ( 0.000000000000000000, 0.000000000000000000, 1.000000000000000000 ) ) ;
#51 = EDGE_CURVE ( 'NONE', #417, #83, #116, .T. ) ;
#52 = ADVANCED_FACE ( 'NONE', ( #191, #498 ), #152, .T. ) ;
#53 = CARTESIAN_POINT ( 'NONE',  ( 0.000000000000000000, 2.080000000000000071, 0.000000000000000000 ) ) ;
#54 = FACE_OUTER_BOUND ( 'NONE', #208, .T. ) ;
#55 = VECTOR ( 'NONE', #469, 1000.000000000000000 ) ;
#56 = EDGE_CURVE ( 'NONE', #67, #110, #271, .T. ) ;
#57 = CARTESIAN_POINT ( 'NONE',  ( -16.50000000000000000, 0.000000000000000000, -18.80000000000000426 ) ) ;
#58 = PLANE ( 'NONE',  #195 ) ;
#59 = ORIENTED_EDGE ( 'NONE', *, *, #109, .T. ) ;
#60 = DIRECTION ( 'NONE',  ( 0.000000000000000000, 0.000000000000000000, 1.000000000000000000 ) ) ;
#61 = EDGE_LOOP ( 'NONE', ( #451, #244, #373, #471, #18, #101 ) ) ;
#62 = AXIS2_PLACEMENT_3D ( 'NONE', #458, #266, #7 ) ;
#63 = AXIS2_PLACEMENT_3D ( 'NONE', #182, #111, #39 ) ;
#64 = DIRECTION ( 'NONE',  ( 0.000000000000000000, -0.8000000000000003775, -0.5999999999999994227 ) ) ;
#65 = ORIENTED_EDGE ( 'NONE', *, *, #31, .T. ) ;
#66 = DIRECTION ( 'NONE',  ( 1.000000000000000000, -0.000000000000000000, 0.000000000000000000 ) ) ;
#67 = VERTEX_POINT ( 'NONE', #194 ) ;
#68 = EDGE_CURVE ( 'NONE', #103, #240, #482, .T. ) ;
#69 = EDGE_CURVE ( 'NONE', #181, #213, #353, .T. ) ;
#70 = DIRECTION ( 'NONE',  ( -0.000000000000000000, -1.000000000000000000, -0.000000000000000000 ) ) ;
#71 = ORIENTED_EDGE ( 'NONE', *, *, #376, .T. ) ;
#72 = EDGE_CURVE ( 'NONE', #217, #240, #387, .T. ) ;
#73 = CARTESIAN_POINT ( 'NONE',  ( -4.399999999999997691, 2.080000000000000071, -14.65000000000000391 ) ) ;
#74 = ORIENTED_EDGE ( 'NONE', *, *, #121, .T. ) ;
#75 =( LENGTH_UNIT ( ) NAMED_UNIT ( * ) SI_UNIT ( .MILLI., .METRE. ) );
#76 = ORIENTED_EDGE ( 'NONE', *, *, #238, .T. ) ;
#77 = PLANE ( 'NONE',  #397 ) ;
#78 = DIRECTION ( 'NONE',  ( -1.000000000000000000, 0.000000000000000000, -0.000000000000000000 ) ) ;
#79 = ORIENTED_EDGE ( 'NONE', *, *, #494, .T. ) ;
#80 = VECTOR ( 'NONE', #424, 1000.000000000000000 ) ;
#81 = CYLINDRICAL_SURFACE ( 'NONE', #133, 1.631999870894150551 ) ;
#82 = ORIENTED_EDGE ( 'NONE', *, *, #193, .T. ) ;
#83 = VERTEX_POINT ( 'NONE', #279 ) ;
#84 = EDGE_CURVE ( 'NONE', #251, #179, #156, .T. ) ;
#85 = FACE_OUTER_BOUND ( 'NONE', #61, .T. ) ;
#86 = AXIS2_PLACEMENT_3D ( 'NONE', #212, #389, #141 ) ;
#87 = CARTESIAN_POINT ( 'NONE',  ( -31.26109752017105237, 0.000000000000000000, -9.399999999999998579 ) ) ;
#88 = MECHANICAL_DESIGN_GEOMETRIC_PRESENTATION_REPRESENTATION (  '', ( #272 ), #299 ) ;
#89 = PRODUCT_RELATED_PRODUCT_CATEGORY ( 'part', '', ( #38 ) ) ;
#90 = CARTESIAN_POINT ( 'NONE',  ( 0.000000000000000000, 2.080000000000000071, 0.000000000000000000 ) ) ;
#91 = DIRECTION ( 'NONE',  ( -0.000000000000000000, -1.000000000000000000, -0.000000000000000000 ) ) ;
#92 = LINE ( 'NONE', #53, #185 ) ;
#93 = CARTESIAN_POINT ( 'NONE',  ( -4.399999999999985256, 0.000000000000000000, 3.678449780384541772E-15 ) ) ;
#94 = ADVANCED_FACE ( 'NONE', ( #85 ), #129, .F. ) ;
#95 = CARTESIAN_POINT ( 'NONE',  ( -10.60457214312674701, 3.480000000000000426, -13.18258633047873474 ) ) ;
#96 = VECTOR ( 'NONE', #269, 1000.000000000000114 ) ;
#97 = CARTESIAN_POINT ( 'NONE',  ( -5.089999999999999858, 2.080000000000000071, -9.271001493352237333 ) ) ;
#98 = ORIENTED_EDGE ( 'NONE', *, *, #190, .T. ) ;
#99 = SHAPE_DEFINITION_REPRESENTATION ( #452, #393 ) ;
#100 = CARTESIAN_POINT ( 'NONE',  ( 0.000000000000000000, 2.080000000000000071, 0.000000000000000000 ) ) ;
#101 = ORIENTED_EDGE ( 'NONE', *, *, #435, .F. ) ;
#102 = CARTESIAN_POINT ( 'NONE',  ( -5.089999999999999858, 0.000000000000000000, -12.40300136424639810 ) ) ;
#103 = VERTEX_POINT ( 'NONE', #464 ) ;
#104 = AXIS2_PLACEMENT_3D ( 'NONE', #274, #48, #5 ) ;
#105 = DIRECTION ( 'NONE',  ( 0.000000000000000000, 0.000000000000000000, 1.000000000000000000 ) ) ;
#106 = EDGE_LOOP ( 'NONE', ( #412, #82, #298, #442 ) ) ;
#107 = CARTESIAN_POINT ( 'NONE',  ( -5.089999999999999858, 2.000000000000016431, -10.90300136424638744 ) ) ;
#108 = VERTEX_POINT ( 'NONE', #351 ) ;
#109 = EDGE_CURVE ( 'NONE', #213, #251, #127, .T. ) ;
#110 = VERTEX_POINT ( 'NONE', #231 ) ;
#111 = DIRECTION ( 'NONE',  ( 1.000000000000000000, 0.000000000000000000, 0.000000000000000000 ) ) ;
#112 = ORIENTED_EDGE ( 'NONE', *, *, #84, .F. ) ;
#113 = DIRECTION ( 'NONE',  ( 1.000000000000000000, -0.000000000000000000, 0.000000000000000000 ) ) ;
#114 = ORIENTED_EDGE ( 'NONE', *, *, #69, .F. ) ;
#115 = DIRECTION ( 'NONE',  ( -0.000000000000000000, -1.000000000000000000, -0.000000000000000000 ) ) ;
#116 = LINE ( 'NONE', #262, #184 ) ;
#117 = VECTOR ( 'NONE', #358, 1000.000000000000000 ) ;
#118 = FILL_AREA_STYLE ('',( #276 ) ) ;
#119 = DIRECTION ( 'NONE',  ( 0.000000000000000000, 1.000000000000000000, -0.000000000000000000 ) ) ;
#120 = DIRECTION ( 'NONE',  ( -2.775557561562891351E-15, 0.000000000000000000, 1.000000000000000000 ) ) ;
#121 = EDGE_CURVE ( 'NONE', #221, #356, #218, .T. ) ;
#122 =( LENGTH_UNIT ( ) NAMED_UNIT ( * ) SI_UNIT ( .MILLI., .METRE. ) );
#123 = CARTESIAN_POINT ( 'NONE',  ( -13.55821503445070064, 3.054437964602608080, -11.14174959593633751 ) ) ;
#124 = PRODUCT_DEFINITION ( 'UNKNOWN', '', #466, #36 ) ;
#125 = PLANE ( 'NONE',  #307 ) ;
#126 = AXIS2_PLACEMENT_3D ( 'NONE', #220, #148, #78 ) ;
#127 = LINE ( 'NONE', #227, #80 ) ;
#128 = MECHANICAL_DESIGN_GEOMETRIC_PRESENTATION_REPRESENTATION (  '', ( #338 ), #46 ) ;
#129 = CYLINDRICAL_SURFACE ( 'NONE', #246, 17.50000000000000000 ) ;
#130 = LINE ( 'NONE', #477, #289 ) ;
#131 = AXIS2_PLACEMENT_3D ( 'NONE', #33, #226, #304 ) ;
#132 = EDGE_LOOP ( 'NONE', ( #183, #368, #323, #439 ) ) ;
#133 = AXIS2_PLACEMENT_3D ( 'NONE', #258, #409, #411 ) ;
#134 = CYLINDRICAL_SURFACE ( 'NONE', #473, 1.631999870894150551 ) ;
#135 = ORIENTED_EDGE ( 'NONE', *, *, #280, .F. ) ;
#136 = DIRECTION ( 'NONE',  ( 7.347880794884112834E-17, -0.8000000000000003775, 0.5999999999999994227 ) ) ;
#137 = VERTEX_POINT ( 'NONE', #162 ) ;
#138 = DIRECTION ( 'NONE',  ( -0.000000000000000000, -1.000000000000000000, -0.000000000000000000 ) ) ;
#139 = ORIENTED_EDGE ( 'NONE', *, *, #468, .T. ) ;
#140 = AXIS2_PLACEMENT_3D ( 'NONE', #87, #350, #383 ) ;
#141 = DIRECTION ( 'NONE',  ( 0.000000000000000000, 0.000000000000000000, 1.000000000000000000 ) ) ;
#142 = VERTEX_POINT ( 'NONE', #309 ) ;
#143 = LINE ( 'NONE', #486, #386 ) ;
#144 = ORIENTED_EDGE ( 'NONE', *, *, #242, .F. ) ;
#145 = FACE_OUTER_BOUND ( 'NONE', #446, .T. ) ;
#146 = ORIENTED_EDGE ( 'NONE', *, *, #190, .F. ) ;
#147 = PLANE ( 'NONE',  #63 ) ;
#148 = DIRECTION ( 'NONE',  ( 0.000000000000000000, 0.000000000000000000, -1.000000000000000000 ) ) ;
#149 = DIRECTION ( 'NONE',  ( 0.000000000000000000, 0.000000000000000000, -1.000000000000000000 ) ) ;
#150 = DIRECTION ( 'NONE',  ( 0.000000000000000000, 0.000000000000000000, 1.000000000000000000 ) ) ;
#151 = DIRECTION ( 'NONE',  ( -0.000000000000000000, -1.000000000000000000, -0.000000000000000000 ) ) ;
#152 = PLANE ( 'NONE',  #366 ) ;
#153 = APPLICATION_CONTEXT ( 'automotive_design' ) ;
#154 = AXIS2_PLACEMENT_3D ( 'NONE', #270, #428, #120 ) ;
#155 = CARTESIAN_POINT ( 'NONE',  ( 0.000000000000000000, 0.000000000000000000, 0.000000000000000000 ) ) ;
#156 = LINE ( 'NONE', #4, #405 ) ;
#157 = EDGE_CURVE ( 'NONE', #142, #28, #1, .T. ) ;
#158 = PRODUCT_CONTEXT ( 'NONE', #404, 'mechanical' ) ;
#159 = CARTESIAN_POINT ( 'NONE',  ( -31.26109752017105237, 2.080000000000000071, -9.399999999999998579 ) ) ;
#160 = CARTESIAN_POINT ( 'NONE',  ( -5.089999999999999858, 0.000000000000000000, -9.271001493352237333 ) ) ;
#161 = VECTOR ( 'NONE', #441, 1000.000000000000000 ) ;
#162 = CARTESIAN_POINT ( 'NONE',  ( -10.60457214312674701, 3.480000000000000426, -13.18258633047873474 ) ) ;
#163 = LINE ( 'NONE', #318, #55 ) ;
#164 = LINE ( 'NONE', #453, #381 ) ;
#165 = EDGE_LOOP ( 'NONE', ( #65, #403, #320, #37 ) ) ;
#166 = CIRCLE ( 'NONE', #357, 1.631999870894150551 ) ;
#167 = ORIENTED_EDGE ( 'NONE', *, *, #328, .F. ) ;
#168 = ADVANCED_FACE ( 'NONE', ( #54 ), #352, .F. ) ;
#169 = EDGE_CURVE ( 'NONE', #28, #293, #380, .T. ) ;
#170 = CARTESIAN_POINT ( 'NONE',  ( 2.585274947162587544, 3.480000000000000426, -9.648377454345705928 ) ) ;
#171 = VERTEX_POINT ( 'NONE', #203 ) ;
#172 = EDGE_CURVE ( 'NONE', #110, #67, #263, .T. ) ;
#173 = FACE_OUTER_BOUND ( 'NONE', #285, .T. ) ;
#174 = ORIENTED_EDGE ( 'NONE', *, *, #238, .F. ) ;
#175 = LINE ( 'NONE', #245, #465 ) ;
#176 = ORIENTED_EDGE ( 'NONE', *, *, #31, .F. ) ;
#177 = AXIS2_PLACEMENT_3D ( 'NONE', #450, #488, #447 ) ;
#178 = FACE_OUTER_BOUND ( 'NONE', #106, .T. ) ;
#179 = VERTEX_POINT ( 'NONE', #343 ) ;
#180 = CARTESIAN_POINT ( 'NONE',  ( 0.000000000000000000, 2.080000000000000071, -18.80000000000000426 ) ) ;
#181 = VERTEX_POINT ( 'NONE', #422 ) ;
#182 = CARTESIAN_POINT ( 'NONE',  ( 0.000000000000000000, 2.080000000000000071, 0.000000000000000000 ) ) ;
#183 = ORIENTED_EDGE ( 'NONE', *, *, #365, .F. ) ;
#184 = VECTOR ( 'NONE', #370, 1000.000000000000000 ) ;
#185 = VECTOR ( 'NONE', #316, 1000.000000000000000 ) ;
#186 =( NAMED_UNIT ( * ) PLANE_ANGLE_UNIT ( ) SI_UNIT ( $, .RADIAN. ) );
#187 = EDGE_LOOP ( 'NONE', ( #176, #399 ) ) ;
#188 = ADVANCED_FACE ( 'NONE', ( #277 ), #317, .T. ) ;
#189 = ORIENTED_EDGE ( 'NONE', *, *, #68, .T. ) ;
#190 = EDGE_CURVE ( 'NONE', #356, #181, #163, .T. ) ;
#191 = FACE_OUTER_BOUND ( 'NONE', #23, .T. ) ;
#192 = ORIENTED_EDGE ( 'NONE', *, *, #333, .T. ) ;
#193 = EDGE_CURVE ( 'NONE', #137, #374, #480, .T. ) ;
#194 = CARTESIAN_POINT ( 'NONE',  ( -5.089999999999999858, 0.000000000000000000, -12.40300136424639810 ) ) ;
#195 = AXIS2_PLACEMENT_3D ( 'NONE', #479, #322, #60 ) ;
#196 = PRESENTATION_LAYER_ASSIGNMENT (  '', '', ( #272 ) ) ;
#197 = CARTESIAN_POINT ( 'NONE',  ( -10.97665516810061881, 2.080000000000000071, -3.964800052847051504 ) ) ;
#198 = APPLICATION_PROTOCOL_DEFINITION ( 'draft international standard', 'automotive_design', 1998, #153 ) ;
#199 = DIRECTION ( 'NONE',  ( -0.000000000000000000, -1.000000000000000000, -0.000000000000000000 ) ) ;
#200 = DIRECTION ( 'NONE',  ( -1.000000000000000000, 0.000000000000000000, 0.000000000000000000 ) ) ;
#201 = CARTESIAN_POINT ( 'NONE',  ( -13.53177741227093378, 2.576213443695146932, -7.951915586100995803 ) ) ;
#202 = VECTOR ( 'NONE', #19, 1000.000000000000000 ) ;
#203 = CARTESIAN_POINT ( 'NONE',  ( 0.000000000000000000, 2.080000000000000071, 0.000000000000000000 ) ) ;
#204 = PLANE ( 'NONE',  #25 ) ;
#205 = ORIENTED_EDGE ( 'NONE', *, *, #494, .F. ) ;
#206 = CARTESIAN_POINT ( 'NONE',  ( -4.399999999999985256, 2.080000000000000071, 3.678449780384541772E-15 ) ) ;
#207 = ADVANCED_FACE ( 'NONE', ( #347, #429 ), #58, .F. ) ;
#208 = EDGE_LOOP ( 'NONE', ( #135, #167, #260, #487 ) ) ;
#209 = CARTESIAN_POINT ( 'NONE',  ( -12.48238616928225220, 3.480000000000000426, -18.80000000000000426 ) ) ;
#210 = ORIENTED_EDGE ( 'NONE', *, *, #435, .T. ) ;
#211 = VECTOR ( 'NONE', #200, 1000.000000000000000 ) ;
#212 = CARTESIAN_POINT ( 'NONE',  ( -5.089999999999999858, 2.000000000000016431, -9.271001493352237333 ) ) ;
#213 = VERTEX_POINT ( 'NONE', #398 ) ;
#214 = CARTESIAN_POINT ( 'NONE',  ( -16.49999999999999645, 2.080000000000000071, 0.000000000000000000 ) ) ;
#215 = EDGE_LOOP ( 'NONE', ( #146, #410, #205, #325, #71, #416 ) ) ;
#216 = LINE ( 'NONE', #497, #16 ) ;
#217 = VERTEX_POINT ( 'NONE', #282 ) ;
#218 = CIRCLE ( 'NONE', #140, 17.50000000000000000 ) ;
#219 = FILL_AREA_STYLE_COLOUR ( '', #345 ) ;
#220 = CARTESIAN_POINT ( 'NONE',  ( 0.000000000000000000, 2.080000000000000071, -18.80000000000000426 ) ) ;
#221 = VERTEX_POINT ( 'NONE', #470 ) ;
#222 = DIRECTION ( 'NONE',  ( 0.9659258262890680902, 0.000000000000000000, 0.2588190451025211836 ) ) ;
#223 = ORIENTED_EDGE ( 'NONE', *, *, #430, .F. ) ;
#224 = VECTOR ( 'NONE', #66, 1000.000000000000000 ) ;
#225 = EDGE_LOOP ( 'NONE', ( #192, #392, #13, #210 ) ) ;
#226 = DIRECTION ( 'NONE',  ( 0.000000000000000000, 1.000000000000000000, -0.000000000000000000 ) ) ;
#227 = CARTESIAN_POINT ( 'NONE',  ( 0.000000000000000000, 0.000000000000000000, -14.65000000000000391 ) ) ;
#228 = VECTOR ( 'NONE', #64, 1000.000000000000114 ) ;
#229 = AXIS2_PLACEMENT_3D ( 'NONE', #461, #313, #349 ) ;
#230 = SURFACE_SIDE_STYLE ('',( #234 ) ) ;
#231 = CARTESIAN_POINT ( 'NONE',  ( -5.089999999999999858, 0.000000000000000000, -6.139001622458076568 ) ) ;
#232 = CARTESIAN_POINT ( 'NONE',  ( 0.000000000000000000, 3.480000000000000426, -18.80000000000000426 ) ) ;
#233 = CARTESIAN_POINT ( 'NONE',  ( -5.089999999999999858, 0.000000000000000000, -9.271001493352237333 ) ) ;
#234 = SURFACE_STYLE_FILL_AREA ( #118 ) ;
#235 = CARTESIAN_POINT ( 'NONE',  ( -5.089999999999999858, 2.080000000000000071, -10.90300136424638744 ) ) ;
#236 = ADVANCED_FACE ( 'NONE', ( #475 ), #134, .F. ) ;
#237 = CARTESIAN_POINT ( 'NONE',  ( -10.04150871114264021, 3.040655442366935191, -10.10772351031061156 ) ) ;
#238 = EDGE_CURVE ( 'NONE', #83, #251, #175, .T. ) ;
#239 = LINE ( 'NONE', #209, #117 ) ;
#240 = VERTEX_POINT ( 'NONE', #355 ) ;
#241 = EDGE_CURVE ( 'NONE', #108, #181, #243, .T. ) ;
#242 = EDGE_CURVE ( 'NONE', #374, #361, #253, .T. ) ;
#243 = LINE ( 'NONE', #391, #161 ) ;
#244 = ORIENTED_EDGE ( 'NONE', *, *, #72, .T. ) ;
#245 = CARTESIAN_POINT ( 'NONE',  ( 0.000000000000000000, 2.080000000000000071, -14.65000000000000391 ) ) ;
#246 = AXIS2_PLACEMENT_3D ( 'NONE', #159, #199, #462 ) ;
#247 = ORIENTED_EDGE ( 'NONE', *, *, #485, .F. ) ;
#248 = DIRECTION ( 'NONE',  ( 8.360113137237622995E-16, 0.000000000000000000, 1.000000000000000000 ) ) ;
#249 = ORIENTED_EDGE ( 'NONE', *, *, #109, .F. ) ;
#250 = CARTESIAN_POINT ( 'NONE',  ( -5.089999999999999858, 2.080000000000000071, -7.639001622458086338 ) ) ;
#251 = VERTEX_POINT ( 'NONE', #329 ) ;
#252 = ORIENTED_EDGE ( 'NONE', *, *, #241, .F. ) ;
#253 = CIRCLE ( 'NONE', #44, 21.00000000000000000 ) ;
#254 = AXIS2_PLACEMENT_3D ( 'NONE', #155, #382, #308 ) ;
#255 = EDGE_CURVE ( 'NONE', #108, #417, #394, .T. ) ;
#256 = SURFACE_STYLE_FILL_AREA ( #261 ) ;
#257 = ORIENTED_EDGE ( 'NONE', *, *, #472, .F. ) ;
#258 = CARTESIAN_POINT ( 'NONE',  ( -5.089999999999999858, 2.080000000000000071, -9.271001493352237333 ) ) ;
#259 = EDGE_CURVE ( 'NONE', #264, #171, #400, .T. ) ;
#260 = ORIENTED_EDGE ( 'NONE', *, *, #315, .T. ) ;
#261 = FILL_AREA_STYLE ('',( #219 ) ) ;
#262 = CARTESIAN_POINT ( 'NONE',  ( 0.000000000000000000, 2.080000000000000071, -14.65000000000000391 ) ) ;
#263 = CIRCLE ( 'NONE', #344, 3.131999870894160320 ) ;
#264 = VERTEX_POINT ( 'NONE', #214 ) ;
#265 =( NAMED_UNIT ( * ) SI_UNIT ( $, .STERADIAN. ) SOLID_ANGLE_UNIT ( ) );
#266 = DIRECTION ( 'NONE',  ( 0.000000000000000000, 1.000000000000000000, -0.000000000000000000 ) ) ;
#267 = PRESENTATION_STYLE_ASSIGNMENT (( #346 ) ) ;
#268 = CARTESIAN_POINT ( 'NONE',  ( -14.35739556011235862, 2.080000000000000071, -4.870666710705874536 ) ) ;
#269 = DIRECTION ( 'NONE',  ( 0.9659258262890680902, 0.000000000000000000, 0.2588190451025211836 ) ) ;
#270 = CARTESIAN_POINT ( 'NONE',  ( -31.26109752017105237, 3.480000000000000426, -9.399999999999998579 ) ) ;
#271 = CIRCLE ( 'NONE', #62, 3.131999870894160320 ) ;
#272 = STYLED_ITEM ( 'NONE', ( #414 ), #420 ) ;
#273 = LINE ( 'NONE', #427, #96 ) ;
#274 = CARTESIAN_POINT ( 'NONE',  ( -5.089999999999999858, 2.080000000000000071, -9.271001493352237333 ) ) ;
#275 = EDGE_CURVE ( 'NONE', #434, #361, #239, .T. ) ;
#276 = FILL_AREA_STYLE_COLOUR ( '', #3 ) ;
#277 = FACE_OUTER_BOUND ( 'NONE', #14, .T. ) ;
#278 = ADVANCED_FACE ( 'NONE', ( #17 ), #363, .T. ) ;
#279 = CARTESIAN_POINT ( 'NONE',  ( 0.000000000000000000, 2.080000000000000071, -14.65000000000000391 ) ) ;
#280 = EDGE_CURVE ( 'NONE', #437, #110, #130, .T. ) ;
#281 = CLOSED_SHELL ( 'NONE', ( #379, #236, #94, #459, #421, #188, #348, #24, #390, #52, #207, #369, #415, #278, #168 ) ) ;
#282 = CARTESIAN_POINT ( 'NONE',  ( -14.35739556011235862, 2.080000000000000071, -4.870666710705874536 ) ) ;
#283 = EDGE_LOOP ( 'NONE', ( #189, #40, #445, #79 ) ) ;
#284 = DIRECTION ( 'NONE',  ( -0.000000000000000000, -1.000000000000000000, -0.000000000000000000 ) ) ;
#285 = EDGE_LOOP ( 'NONE', ( #114, #252, #481, #476 ) ) ;
#286 = ORIENTED_EDGE ( 'NONE', *, *, #51, .F. ) ;
#287 = CIRCLE ( 'NONE', #396, 1.631999870894150551 ) ;
#288 = DIRECTION ( 'NONE',  ( -0.03978230059144267916, 0.9881164689548813662, 0.1484695670492412467 ) ) ;
#289 = VECTOR ( 'NONE', #136, 1000.000000000000114 ) ;
#290 = ORIENTED_EDGE ( 'NONE', *, *, #56, .T. ) ;
#291 = VECTOR ( 'NONE', #70, 1000.000000000000000 ) ;
#292 = LINE ( 'NONE', #360, #202 ) ;
#293 = VERTEX_POINT ( 'NONE', #107 ) ;
#294 = DIRECTION ( 'NONE',  ( -0.000000000000000000, -1.000000000000000000, -0.000000000000000000 ) ) ;
#295 = ORIENTED_EDGE ( 'NONE', *, *, #69, .T. ) ;
#296 = EDGE_CURVE ( 'NONE', #103, #356, #433, .T. ) ;
#297 = CARTESIAN_POINT ( 'NONE',  ( -5.089999999999999858, 2.000000000000016431, -9.271001493352237333 ) ) ;
#298 = ORIENTED_EDGE ( 'NONE', *, *, #242, .T. ) ;
#299 =( GEOMETRIC_REPRESENTATION_CONTEXT ( 3 ) GLOBAL_UNCERTAINTY_ASSIGNED_CONTEXT ( ( #444 ) ) GLOBAL_UNIT_ASSIGNED_CONTEXT ( ( #75, #186, #402 ) ) REPRESENTATION_CONTEXT ( 'NONE', 'WORKASPACE' ) );
#300 = DIRECTION ( 'NONE',  ( 0.000000000000000000, 0.000000000000000000, 1.000000000000000000 ) ) ;
#301 = UNCERTAINTY_MEASURE_WITH_UNIT (LENGTH_MEASURE( 1.000000000000000082E-05 ), #47, 'distance_accuracy_value', 'NONE');
#302 = ORIENTED_EDGE ( 'NONE', *, *, #423, .F. ) ;
#303 = DIRECTION ( 'NONE',  ( 0.000000000000000000, 1.000000000000000000, -0.000000000000000000 ) ) ;
#304 = DIRECTION ( 'NONE',  ( 0.000000000000000000, 0.000000000000000000, 1.000000000000000000 ) ) ;
#305 = LINE ( 'NONE', #250, #291 ) ;
#306 = DIRECTION ( 'NONE',  ( 0.000000000000000000, 0.000000000000000000, 1.000000000000000000 ) ) ;
#307 = AXIS2_PLACEMENT_3D ( 'NONE', #90, #311, #9 ) ;
#308 = DIRECTION ( 'NONE',  ( 1.000000000000000000, 0.000000000000000000, 0.000000000000000000 ) ) ;
#309 = CARTESIAN_POINT ( 'NONE',  ( -5.089999999999999858, 2.080000000000000071, -7.639001622458086338 ) ) ;
#310 = ORIENTED_EDGE ( 'NONE', *, *, #84, .T. ) ;
#311 = DIRECTION ( 'NONE',  ( 0.000000000000000000, 0.000000000000000000, -1.000000000000000000 ) ) ;
#312 = CARTESIAN_POINT ( 'NONE',  ( -14.43479157272468605, 3.480000000000000426, -14.20889053347350028 ) ) ;
#313 = DIRECTION ( 'NONE',  ( 0.000000000000000000, 1.000000000000000000, -0.000000000000000000 ) ) ;
#314 = VECTOR ( 'NONE', #91, 1000.000000000000000 ) ;
#315 = EDGE_CURVE ( 'NONE', #293, #67, #483, .T. ) ;
#316 = DIRECTION ( 'NONE',  ( -0.000000000000000000, -1.000000000000000000, -0.000000000000000000 ) ) ;
#317 = PLANE ( 'NONE',  #457 ) ;
#318 = CARTESIAN_POINT ( 'NONE',  ( 0.000000000000000000, 0.000000000000000000, -18.80000000000000426 ) ) ;
#319 = DIRECTION ( 'NONE',  ( 0.000000000000000000, 1.000000000000000000, -0.000000000000000000 ) ) ;
#320 = ORIENTED_EDGE ( 'NONE', *, *, #365, .T. ) ;
#321 = VECTOR ( 'NONE', #21, 1000.000000000000000 ) ;
#322 = DIRECTION ( 'NONE',  ( 0.000000000000000000, 1.000000000000000000, -0.000000000000000000 ) ) ;
#323 = ORIENTED_EDGE ( 'NONE', *, *, #56, .F. ) ;
#324 = DIRECTION ( 'NONE',  ( -0.9659258262890680902, 0.000000000000000000, -0.2588190451025211281 ) ) ;
#325 = ORIENTED_EDGE ( 'NONE', *, *, #275, .T. ) ;
#326 = CARTESIAN_POINT ( 'NONE',  ( -4.399999999999985256, 2.080000000000000071, 3.678449780384541772E-15 ) ) ;
#327 = ORIENTED_EDGE ( 'NONE', *, *, #193, .F. ) ;
#328 = EDGE_CURVE ( 'NONE', #293, #437, #15, .T. ) ;
#329 = CARTESIAN_POINT ( 'NONE',  ( 0.000000000000000000, 0.000000000000000000, -14.65000000000000391 ) ) ;
#330 = ORIENTED_EDGE ( 'NONE', *, *, #169, .T. ) ;
#331 = CARTESIAN_POINT ( 'NONE',  ( -10.97665516810061881, 2.080000000000000071, -3.964800052847051504 ) ) ;
#332 = ORIENTED_EDGE ( 'NONE', *, *, #333, .F. ) ;
#333 = EDGE_CURVE ( 'NONE', #221, #179, #292, .T. ) ;
#334 = CARTESIAN_POINT ( 'NONE',  ( -5.089999999999999858, 0.000000000000000000, -9.271001493352237333 ) ) ;
#335 = EDGE_LOOP ( 'NONE', ( #112, #174, #359, #139 ) ) ;
#336 = FACE_OUTER_BOUND ( 'NONE', #283, .T. ) ;
#337 = ORIENTED_EDGE ( 'NONE', *, *, #362, .F. ) ;
#338 = STYLED_ITEM ( 'NONE', ( #267 ), #393 ) ;
#339 = DIRECTION ( 'NONE',  ( 0.000000000000000000, 0.000000000000000000, 1.000000000000000000 ) ) ;
#340 = CARTESIAN_POINT ( 'NONE',  ( -5.089999999999999858, 2.080000000000000071, -9.271001493352237333 ) ) ;
#341 = SURFACE_STYLE_USAGE ( .BOTH. , #35 ) ;
#342 = ORIENTED_EDGE ( 'NONE', *, *, #72, .F. ) ;
#343 = CARTESIAN_POINT ( 'NONE',  ( 0.000000000000000000, 0.000000000000000000, 0.000000000000000000 ) ) ;
#344 = AXIS2_PLACEMENT_3D ( 'NONE', #233, #384, #50 ) ;
#345 = COLOUR_RGB ( '',0.7960784313725489669, 0.8235294117647058432, 0.9372549019607843146 ) ;
#346 = SURFACE_STYLE_USAGE ( .BOTH. , #230 ) ;
#347 = FACE_BOUND ( 'NONE', #395, .T. ) ;
#348 = ADVANCED_FACE ( 'NONE', ( #173 ), #204, .T. ) ;
#349 = DIRECTION ( 'NONE',  ( 0.000000000000000000, 0.000000000000000000, 1.000000000000000000 ) ) ;
#350 = DIRECTION ( 'NONE',  ( 0.000000000000000000, 1.000000000000000000, -0.000000000000000000 ) ) ;
#351 = CARTESIAN_POINT ( 'NONE',  ( -4.400000000000001243, 2.080000000000000071, -18.80000000000000426 ) ) ;
#352 = CONICAL_SURFACE ( 'NONE', #34, 3.131999870894160320, 0.6435011087932837048 ) ;
#353 = LINE ( 'NONE', #93, #431 ) ;
#354 = CARTESIAN_POINT ( 'NONE',  ( -12.48238616928225220, 2.080000000000000071, -18.80000000000000426 ) ) ;
#355 = CARTESIAN_POINT ( 'NONE',  ( -14.43479157272468605, 3.480000000000000426, -14.20889053347350028 ) ) ;
#356 = VERTEX_POINT ( 'NONE', #57 ) ;
#357 = AXIS2_PLACEMENT_3D ( 'NONE', #297, #115, #300 ) ;
#358 = DIRECTION ( 'NONE',  ( -0.000000000000000000, -1.000000000000000000, -0.000000000000000000 ) ) ;
#359 = ORIENTED_EDGE ( 'NONE', *, *, #362, .T. ) ;
#360 = CARTESIAN_POINT ( 'NONE',  ( 0.000000000000000000, 0.000000000000000000, 0.000000000000000000 ) ) ;
#361 = VERTEX_POINT ( 'NONE', #354 ) ;
#362 = EDGE_CURVE ( 'NONE', #83, #171, #164, .T. ) ;
#363 = PLANE ( 'NONE',  #8 ) ;
#364 = ORIENTED_EDGE ( 'NONE', *, *, #375, .F. ) ;
#365 = EDGE_CURVE ( 'NONE', #437, #293, #166, .T. ) ;
#366 = AXIS2_PLACEMENT_3D ( 'NONE', #30, #119, #306 ) ;
#367 = CARTESIAN_POINT ( 'NONE',  ( -12.48238616928225220, 3.480000000000000426, -18.80000000000000426 ) ) ;
#368 = ORIENTED_EDGE ( 'NONE', *, *, #280, .T. ) ;
#369 = ADVANCED_FACE ( 'NONE', ( #178 ), #495, .T. ) ;
#370 = DIRECTION ( 'NONE',  ( 1.000000000000000000, -0.000000000000000000, 0.000000000000000000 ) ) ;
#371 = ORIENTED_EDGE ( 'NONE', *, *, #376, .F. ) ;
#372 = DIRECTION ( 'NONE',  ( 0.000000000000000000, 0.000000000000000000, 1.000000000000000000 ) ) ;
#373 = ORIENTED_EDGE ( 'NONE', *, *, #68, .F. ) ;
#374 = VERTEX_POINT ( 'NONE', #331 ) ;
#375 = EDGE_CURVE ( 'NONE', #217, #374, #143, .T. ) ;
#376 = EDGE_CURVE ( 'NONE', #361, #108, #456, .T. ) ;
#377 = CARTESIAN_POINT ( 'NONE',  ( -5.089999999999999858, 2.080000000000000071, -10.90300136424638744 ) ) ;
#378 = FACE_OUTER_BOUND ( 'NONE', #225, .T. ) ;
#379 = ADVANCED_FACE ( 'NONE', ( #29 ), #26, .F. ) ;
#380 = LINE ( 'NONE', #235, #314 ) ;
#381 = VECTOR ( 'NONE', #339, 1000.000000000000000 ) ;
#382 = DIRECTION ( 'NONE',  ( 0.000000000000000000, 0.000000000000000000, 1.000000000000000000 ) ) ;
#383 = DIRECTION ( 'NONE',  ( 0.000000000000000000, 0.000000000000000000, 1.000000000000000000 ) ) ;
#384 = DIRECTION ( 'NONE',  ( 0.000000000000000000, 1.000000000000000000, -0.000000000000000000 ) ) ;
#385 = DIRECTION ( 'NONE',  ( 0.000000000000000000, 0.000000000000000000, 1.000000000000000000 ) ) ;
#386 = VECTOR ( 'NONE', #222, 1000.000000000000114 ) ;
#387 =( BOUNDED_CURVE ( )  B_SPLINE_CURVE ( 3, ( #268, #201, #123, #312 ),
 .UNSPECIFIED., .F., .F. ) 
 B_SPLINE_CURVE_WITH_KNOTS ( ( 4, 4 ),
 ( 1.570796326794897002, 2.110970897101469568 ),
 .UNSPECIFIED. ) 
 CURVE ( )  GEOMETRIC_REPRESENTATION_ITEM ( )  RATIONAL_B_SPLINE_CURVE ( ( 1.000000000000000000, 0.9758317406668284288, 0.9758317406668284288, 1.000000000000000000 ) ) 
 REPRESENTATION_ITEM ( '' )  );
#388 = VECTOR ( 'NONE', #113, 1000.000000000000000 ) ;
#389 = DIRECTION ( 'NONE',  ( -0.000000000000000000, -1.000000000000000000, -0.000000000000000000 ) ) ;
#390 = ADVANCED_FACE ( 'NONE', ( #145 ), #81, .F. ) ;
#391 = CARTESIAN_POINT ( 'NONE',  ( -4.400000000000001243, 2.080000000000000071, -18.80000000000000426 ) ) ;
#392 = ORIENTED_EDGE ( 'NONE', *, *, #468, .F. ) ;
#393 = ADVANCED_BREP_SHAPE_REPRESENTATION ( 'wing part', ( #420, #254 ), #407 ) ;
#394 = LINE ( 'NONE', #206, #440 ) ;
#395 = EDGE_LOOP ( 'NONE', ( #290, #20 ) ) ;
#396 = AXIS2_PLACEMENT_3D ( 'NONE', #340, #496, #150 ) ;
#397 = AXIS2_PLACEMENT_3D ( 'NONE', #491, #303, #372 ) ;
#398 = CARTESIAN_POINT ( 'NONE',  ( -4.399999999999997691, 0.000000000000000000, -14.65000000000000391 ) ) ;
#399 = ORIENTED_EDGE ( 'NONE', *, *, #157, .F. ) ;
#400 = LINE ( 'NONE', #100, #224 ) ;
#401 = EDGE_LOOP ( 'NONE', ( #74, #98, #295, #59, #310, #332 ) ) ;
#402 =( NAMED_UNIT ( * ) SI_UNIT ( $, .STERADIAN. ) SOLID_ANGLE_UNIT ( ) );
#403 = ORIENTED_EDGE ( 'NONE', *, *, #430, .T. ) ;
#404 = APPLICATION_CONTEXT ( 'automotive_design' ) ;
#405 = VECTOR ( 'NONE', #385, 1000.000000000000000 ) ;
#406 = CARTESIAN_POINT ( 'NONE',  ( -16.49999999999999645, 2.080000000000000071, 0.000000000000000000 ) ) ;
#407 =( GEOMETRIC_REPRESENTATION_CONTEXT ( 3 ) GLOBAL_UNCERTAINTY_ASSIGNED_CONTEXT ( ( #22 ) ) GLOBAL_UNIT_ASSIGNED_CONTEXT ( ( #122, #49, #6 ) ) REPRESENTATION_CONTEXT ( 'NONE', 'WORKASPACE' ) );
#408 = ORIENTED_EDGE ( 'NONE', *, *, #328, .T. ) ;
#409 = DIRECTION ( 'NONE',  ( -0.000000000000000000, -1.000000000000000000, -0.000000000000000000 ) ) ;
#410 = ORIENTED_EDGE ( 'NONE', *, *, #296, .F. ) ;
#411 = DIRECTION ( 'NONE',  ( 0.000000000000000000, 0.000000000000000000, -1.000000000000000000 ) ) ;
#412 = ORIENTED_EDGE ( 'NONE', *, *, #12, .F. ) ;
#413 = EDGE_LOOP ( 'NONE', ( #342, #478, #327, #247 ) ) ;
#414 = PRESENTATION_STYLE_ASSIGNMENT (( #341 ) ) ;
#415 = ADVANCED_FACE ( 'NONE', ( #336 ), #77, .T. ) ;
#416 = ORIENTED_EDGE ( 'NONE', *, *, #241, .T. ) ;
#417 = VERTEX_POINT ( 'NONE', #73 ) ;
#418 =( NAMED_UNIT ( * ) PLANE_ANGLE_UNIT ( ) SI_UNIT ( $, .RADIAN. ) );
#419 = CARTESIAN_POINT ( 'NONE',  ( -31.26109752017105237, 2.080000000000000071, -9.399999999999998579 ) ) ;
#420 = MANIFOLD_SOLID_BREP ( 'Chamfer2', #281 ) ;
#421 = ADVANCED_FACE ( 'NONE', ( #32 ), #147, .T. ) ;
#422 = CARTESIAN_POINT ( 'NONE',  ( -4.400000000000001243, 0.000000000000000000, -18.80000000000000426 ) ) ;
#423 = EDGE_CURVE ( 'NONE', #417, #213, #216, .T. ) ;
#424 = DIRECTION ( 'NONE',  ( 1.000000000000000000, -0.000000000000000000, 0.000000000000000000 ) ) ;
#425 = LINE ( 'NONE', #232, #211 ) ;
#426 = DIRECTION ( 'NONE',  ( 0.000000000000000000, 0.000000000000000000, -1.000000000000000000 ) ) ;
#427 = CARTESIAN_POINT ( 'NONE',  ( -8.647283762177925936, 3.480000000000000426, -12.65813248944867730 ) ) ;
#428 = DIRECTION ( 'NONE',  ( -0.000000000000000000, -1.000000000000000000, 0.000000000000000000 ) ) ;
#429 = FACE_OUTER_BOUND ( 'NONE', #401, .T. ) ;
#430 = EDGE_CURVE ( 'NONE', #142, #437, #305, .T. ) ;
#431 = VECTOR ( 'NONE', #2, 1000.000000000000000 ) ;
#432 = PRESENTATION_LAYER_ASSIGNMENT (  '', '', ( #338 ) ) ;
#433 = LINE ( 'NONE', #438, #321 ) ;
#434 = VERTEX_POINT ( 'NONE', #367 ) ;
#435 = EDGE_CURVE ( 'NONE', #264, #221, #27, .T. ) ;
#436 = DIRECTION ( 'NONE',  ( 0.000000000000000000, 0.000000000000000000, -1.000000000000000000 ) ) ;
#437 = VERTEX_POINT ( 'NONE', #41 ) ;
#438 = CARTESIAN_POINT ( 'NONE',  ( -16.50000000000000000, 2.080000000000000071, -18.80000000000000426 ) ) ;
#439 = ORIENTED_EDGE ( 'NONE', *, *, #315, .F. ) ;
#440 = VECTOR ( 'NONE', #248, 1000.000000000000000 ) ;
#441 = DIRECTION ( 'NONE',  ( -0.000000000000000000, -1.000000000000000000, -0.000000000000000000 ) ) ;
#442 = ORIENTED_EDGE ( 'NONE', *, *, #275, .F. ) ;
#443 = DIRECTION ( 'NONE',  ( 1.000000000000000000, 0.000000000000000000, -8.360113137237622009E-16 ) ) ;
#444 = UNCERTAINTY_MEASURE_WITH_UNIT (LENGTH_MEASURE( 1.000000000000000082E-05 ), #75, 'distance_accuracy_value', 'NONE');
#445 = ORIENTED_EDGE ( 'NONE', *, *, #12, .T. ) ;
#446 = EDGE_LOOP ( 'NONE', ( #223, #484, #330, #408 ) ) ;
#447 = DIRECTION ( 'NONE',  ( 0.000000000000000000, 0.000000000000000000, -1.000000000000000000 ) ) ;
#448 = VECTOR ( 'NONE', #463, 1000.000000000000000 ) ;
#449 = ORIENTED_EDGE ( 'NONE', *, *, #51, .T. ) ;
#450 = CARTESIAN_POINT ( 'NONE',  ( -31.26109752017105237, 3.480000000000000426, -9.399999999999998579 ) ) ;
#451 = ORIENTED_EDGE ( 'NONE', *, *, #472, .T. ) ;
#452 = PRODUCT_DEFINITION_SHAPE ( 'NONE', 'NONE',  #124 ) ;
#453 = CARTESIAN_POINT ( 'NONE',  ( 0.000000000000000000, 2.080000000000000071, 0.000000000000000000 ) ) ;
#454 = PLANE ( 'NONE',  #126 ) ;
#455 = ORIENTED_EDGE ( 'NONE', *, *, #255, .F. ) ;
#456 = LINE ( 'NONE', #180, #388 ) ;
#457 = AXIS2_PLACEMENT_3D ( 'NONE', #467, #10, #460 ) ;
#458 = CARTESIAN_POINT ( 'NONE',  ( -5.089999999999999858, 0.000000000000000000, -9.271001493352237333 ) ) ;
#459 = ADVANCED_FACE ( 'NONE', ( #378 ), #125, .F. ) ;
#460 = DIRECTION ( 'NONE',  ( -1.000000000000000000, 0.000000000000000000, -0.000000000000000000 ) ) ;
#461 = CARTESIAN_POINT ( 'NONE',  ( -31.26109752017105237, 2.080000000000000071, -9.399999999999998579 ) ) ;
#462 = DIRECTION ( 'NONE',  ( 0.000000000000000000, 0.000000000000000000, -1.000000000000000000 ) ) ;
#463 = DIRECTION ( 'NONE',  ( -0.000000000000000000, -1.000000000000000000, -0.000000000000000000 ) ) ;
#464 = CARTESIAN_POINT ( 'NONE',  ( -16.50000000000000000, 3.480000000000000426, -18.80000000000000426 ) ) ;
#465 = VECTOR ( 'NONE', #138, 1000.000000000000000 ) ;
#466 = PRODUCT_DEFINITION_FORMATION_WITH_SPECIFIED_SOURCE ( 'ANY', '', #38, .NOT_KNOWN. ) ;
#467 = CARTESIAN_POINT ( 'NONE',  ( 0.000000000000000000, 2.080000000000000071, -14.65000000000000391 ) ) ;
#468 = EDGE_CURVE ( 'NONE', #171, #179, #92, .T. ) ;
#469 = DIRECTION ( 'NONE',  ( 1.000000000000000000, -0.000000000000000000, 0.000000000000000000 ) ) ;
#470 = CARTESIAN_POINT ( 'NONE',  ( -16.49999999999999645, 0.000000000000000000, 0.000000000000000000 ) ) ;
#471 = ORIENTED_EDGE ( 'NONE', *, *, #296, .T. ) ;
#472 = EDGE_CURVE ( 'NONE', #264, #217, #474, .T. ) ;
#473 = AXIS2_PLACEMENT_3D ( 'NONE', #97, #284, #436 ) ;
#474 = CIRCLE ( 'NONE', #229, 17.50000000000000000 ) ;
#475 = FACE_OUTER_BOUND ( 'NONE', #165, .T. ) ;
#476 = ORIENTED_EDGE ( 'NONE', *, *, #423, .T. ) ;
#477 = CARTESIAN_POINT ( 'NONE',  ( -5.089999999999999858, 0.000000000000000000, -6.139001622458076568 ) ) ;
#478 = ORIENTED_EDGE ( 'NONE', *, *, #375, .T. ) ;
#479 = CARTESIAN_POINT ( 'NONE',  ( 0.000000000000000000, 0.000000000000000000, 0.000000000000000000 ) ) ;
#480 =( BOUNDED_CURVE ( )  B_SPLINE_CURVE ( 3, ( #95, #237, #42, #197 ),
 .UNSPECIFIED., .F., .T. ) 
 B_SPLINE_CURVE_WITH_KNOTS ( ( 4, 4 ),
 ( 4.269477936311050215, 4.712388980384689674 ),
 .UNSPECIFIED. ) 
 CURVE ( )  GEOMETRIC_REPRESENTATION_ITEM ( )  RATIONAL_B_SPLINE_CURVE ( ( 1.000000000000000000, 0.9837191851176159130, 0.9837191851176159130, 1.000000000000000000 ) ) 
 REPRESENTATION_ITEM ( '' )  );
#481 = ORIENTED_EDGE ( 'NONE', *, *, #255, .T. ) ;
#482 = CIRCLE ( 'NONE', #154, 17.50000000000000000 ) ;
#483 = LINE ( 'NONE', #102, #228 ) ;
#484 = ORIENTED_EDGE ( 'NONE', *, *, #157, .T. ) ;
#485 = EDGE_CURVE ( 'NONE', #240, #137, #273, .T. ) ;
#486 = CARTESIAN_POINT ( 'NONE',  ( 0.2559035412398942833, 2.080000000000000071, -0.9550450177440811261 ) ) ;
#487 = ORIENTED_EDGE ( 'NONE', *, *, #172, .F. ) ;
#488 = DIRECTION ( 'NONE',  ( -0.000000000000000000, -1.000000000000000000, -0.000000000000000000 ) ) ;
#489 = ORIENTED_EDGE ( 'NONE', *, *, #259, .T. ) ;
#490 = CIRCLE ( 'NONE', #131, 21.00000000000000000 ) ;
#491 = CARTESIAN_POINT ( 'NONE',  ( 0.000000000000000000, 3.480000000000000426, 0.000000000000000000 ) ) ;
#492 = AXIS2_PLACEMENT_3D ( 'NONE', #334, #294, #149 ) ;
#493 = FACE_OUTER_BOUND ( 'NONE', #215, .T. ) ;
#494 = EDGE_CURVE ( 'NONE', #434, #103, #425, .T. ) ;
#495 = CYLINDRICAL_SURFACE ( 'NONE', #177, 21.00000000000000000 ) ;
#496 = DIRECTION ( 'NONE',  ( 0.000000000000000000, 1.000000000000000000, -0.000000000000000000 ) ) ;
#497 = CARTESIAN_POINT ( 'NONE',  ( -4.399999999999997691, 2.080000000000000071, -14.65000000000000391 ) ) ;
#498 = FACE_BOUND ( 'NONE', #187, .T. ) ;
ENDSEC;
END-ISO-10303-21;
