ISO-10303-21;
HEADER;
FILE_DESCRIPTION (( 'STEP AP214' ),
    '1' );
FILE_NAME ('BMS 2s.STEP',
    '2026-05-05T17:38:37',
    ( '' ),
    ( '' ),
    'SwSTEP 2.0',
    'SolidWorks 2025',
    '' );
FILE_SCHEMA (( 'AUTOMOTIVE_DESIGN' ));
ENDSEC;

DATA;
#1 = SURFACE_STYLE_USAGE ( .BOTH. , #238 ) ;
#2 = EDGE_CURVE ( 'NONE', #92, #405, #387, .T. ) ;
#3 = FACE_OUTER_BOUND ( 'NONE', #267, .T. ) ;
#4 = CYLINDRICAL_SURFACE ( 'NONE', #36, 1.000000000000000222 ) ;
#5 = CARTESIAN_POINT ( 'NONE',  ( 2.017303644436613475, 0.000000000000000000, -1.926927408109435413 ) ) ;
#6 = CARTESIAN_POINT ( 'NONE',  ( 2.017303644436613475, 1.500000000000000000, -2.926927408109435635 ) ) ;
#7 = ORIENTED_EDGE ( 'NONE', *, *, #302, .F. ) ;
#8 = AXIS2_PLACEMENT_3D ( 'NONE', #133, #610, #439 ) ;
#9 = DIRECTION ( 'NONE',  ( 0.000000000000000000, 0.000000000000000000, 1.000000000000000000 ) ) ;
#10 = CYLINDRICAL_SURFACE ( 'NONE', #561, 1.000000000000000888 ) ;
#11 = EDGE_CURVE ( 'NONE', #555, #711, #41, .T. ) ;
#12 = ORIENTED_EDGE ( 'NONE', *, *, #572, .T. ) ;
#13 = AXIS2_PLACEMENT_3D ( 'NONE', #675, #672, #71 ) ;
#14 = DIRECTION ( 'NONE',  ( 0.000000000000000000, 0.000000000000000000, 1.000000000000000000 ) ) ;
#15 = CARTESIAN_POINT ( 'NONE',  ( 16.32022850568125349, -8.500000000000000000, -3.926927408109436968 ) ) ;
#16 = CARTESIAN_POINT ( 'NONE',  ( 16.32022850568125349, 0.000000000000000000, -29.83251992965577415 ) ) ;
#17 = PRODUCT_DEFINITION_CONTEXT ( 'detailed design', #373, 'design' ) ;
#18 = EDGE_LOOP ( 'NONE', ( #336, #378 ) ) ;
#19 = DIRECTION ( 'NONE',  ( 0.000000000000000000, 0.000000000000000000, -1.000000000000000000 ) ) ;
#20 = CARTESIAN_POINT ( 'NONE',  ( 2.017303644436613475, 1.500000000000000000, -28.83251992965577415 ) ) ;
#21 = EDGE_LOOP ( 'NONE', ( #251, #164, #386, #659 ) ) ;
#22 = ADVANCED_FACE ( 'NONE', ( #648 ), #113, .F. ) ;
#23 = VECTOR ( 'NONE', #466, 1000.000000000000000 ) ;
#24 = EDGE_CURVE ( 'NONE', #632, #638, #710, .T. ) ;
#25 = PLANE ( 'NONE',  #440 ) ;
#26 = CARTESIAN_POINT ( 'NONE',  ( 3.583711328643515159, 4.500000000000000888, -26.79471821162028888 ) ) ;
#27 = VERTEX_POINT ( 'NONE', #593 ) ;
#28 = VECTOR ( 'NONE', #272, 1000.000000000000000 ) ;
#29 =( LENGTH_UNIT ( ) NAMED_UNIT ( * ) SI_UNIT ( .MILLI., .METRE. ) );
#30 = ORIENTED_EDGE ( 'NONE', *, *, #114, .F. ) ;
#31 = DIRECTION ( 'NONE',  ( -1.000000000000000000, 0.000000000000000000, 0.000000000000000000 ) ) ;
#32 = VERTEX_POINT ( 'NONE', #53 ) ;
#33 = LINE ( 'NONE', #393, #28 ) ;
#34 = VERTEX_POINT ( 'NONE', #477 ) ;
#35 = ADVANCED_FACE ( 'NONE', ( #178 ), #471, .F. ) ;
#36 = AXIS2_PLACEMENT_3D ( 'NONE', #366, #105, #490 ) ;
#37 = CARTESIAN_POINT ( 'NONE',  ( 13.49999999999999822, 4.500000000000000000, 0.000000000000000000 ) ) ;
#38 = VERTEX_POINT ( 'NONE', #544 ) ;
#39 = CARTESIAN_POINT ( 'NONE',  ( 11.25722217470615227, 4.500000000000000888, -26.79471821162028888 ) ) ;
#40 = ORIENTED_EDGE ( 'NONE', *, *, #61, .F. ) ;
#41 = CIRCLE ( 'NONE', #487, 1.000000000000001554 ) ;
#42 =( NAMED_UNIT ( * ) SI_UNIT ( $, .STERADIAN. ) SOLID_ANGLE_UNIT ( ) );
#43 = CARTESIAN_POINT ( 'NONE',  ( 4.500000000000000000, 4.500000000000000000, 0.000000000000000000 ) ) ;
#44 = ORIENTED_EDGE ( 'NONE', *, *, #745, .T. ) ;
#45 = VECTOR ( 'NONE', #299, 1000.000000000000000 ) ;
#46 = DIRECTION ( 'NONE',  ( 0.000000000000000000, 0.000000000000000000, 1.000000000000000000 ) ) ;
#47 = CARTESIAN_POINT ( 'NONE',  ( 11.25722217470615227, 1.500000000000000000, -26.79471821162028888 ) ) ;
#48 = VECTOR ( 'NONE', #93, 1000.000000000000000 ) ;
#49 = FACE_BOUND ( 'NONE', #84, .T. ) ;
#50 =( LENGTH_UNIT ( ) NAMED_UNIT ( * ) SI_UNIT ( .MILLI., .METRE. ) );
#51 = LINE ( 'NONE', #219, #628 ) ;
#52 = LINE ( 'NONE', #529, #45 ) ;
#53 = CARTESIAN_POINT ( 'NONE',  ( 13.49999999999999822, 4.500000000000000000, -8.000000000000000000 ) ) ;
#54 = ADVANCED_FACE ( 'NONE', ( #300 ), #182, .T. ) ;
#55 = EDGE_LOOP ( 'NONE', ( #383, #68, #514, #72 ) ) ;
#56 = FILL_AREA_STYLE_COLOUR ( '', #630 ) ;
#57 = CARTESIAN_POINT ( 'NONE',  ( 11.25722217470615227, 1.500000000000000000, -12.43921758387390142 ) ) ;
#58 = CARTESIAN_POINT ( 'NONE',  ( 2.017303644436613475, 0.000000000000000000, -29.83251992965577415 ) ) ;
#59 = VECTOR ( 'NONE', #318, 1000.000000000000000 ) ;
#60 = VERTEX_POINT ( 'NONE', #58 ) ;
#61 = EDGE_CURVE ( 'NONE', #329, #629, #227, .T. ) ;
#62 = LINE ( 'NONE', #543, #146 ) ;
#63 = CARTESIAN_POINT ( 'NONE',  ( 2.017303644436613475, -8.500000000000000000, -28.83251992965577415 ) ) ;
#64 = ORIENTED_EDGE ( 'NONE', *, *, #612, .T. ) ;
#65 = SHAPE_DEFINITION_REPRESENTATION ( #156, #222 ) ;
#66 = PLANE ( 'NONE',  #756 ) ;
#67 = CARTESIAN_POINT ( 'NONE',  ( 16.32022850568125349, 1.500000000000000000, -28.83251992965577415 ) ) ;
#68 = ORIENTED_EDGE ( 'NONE', *, *, #391, .F. ) ;
#69 = LINE ( 'NONE', #307, #558 ) ;
#70 = CARTESIAN_POINT ( 'NONE',  ( 2.017303644436613475, 1.500000000000000000, -3.926927408109436080 ) ) ;
#71 = DIRECTION ( 'NONE',  ( 0.000000000000000000, 0.000000000000000000, 1.000000000000000000 ) ) ;
#72 = ORIENTED_EDGE ( 'NONE', *, *, #410, .F. ) ;
#73 = PLANE ( 'NONE',  #359 ) ;
#74 = LINE ( 'NONE', #733, #185 ) ;
#75 = DIRECTION ( 'NONE',  ( 0.000000000000000000, 0.000000000000000000, -1.000000000000000000 ) ) ;
#76 = VERTEX_POINT ( 'NONE', #240 ) ;
#77 = PRESENTATION_LAYER_ASSIGNMENT (  '', '', ( #107 ) ) ;
#78 = CARTESIAN_POINT ( 'NONE',  ( 11.25722217470615227, 4.500000000000000888, -12.43921758387390142 ) ) ;
#79 = CARTESIAN_POINT ( 'NONE',  ( 2.017303644436613475, 0.000000000000000000, -2.926927408109435635 ) ) ;
#80 = ORIENTED_EDGE ( 'NONE', *, *, #252, .F. ) ;
#81 = EDGE_CURVE ( 'NONE', #662, #120, #706, .T. ) ;
#82 = DIRECTION ( 'NONE',  ( 0.000000000000000000, 1.000000000000000000, -0.000000000000000000 ) ) ;
#83 = DIRECTION ( 'NONE',  ( 0.000000000000000000, 1.000000000000000000, -0.000000000000000000 ) ) ;
#84 = EDGE_LOOP ( 'NONE', ( #566, #144 ) ) ;
#85 = DIRECTION ( 'NONE',  ( -0.000000000000000000, -1.000000000000000000, -0.000000000000000000 ) ) ;
#86 = VECTOR ( 'NONE', #498, 1000.000000000000000 ) ;
#87 = DIRECTION ( 'NONE',  ( 0.000000000000000000, 1.000000000000000000, -0.000000000000000000 ) ) ;
#88 = VERTEX_POINT ( 'NONE', #117 ) ;
#89 = AXIS2_PLACEMENT_3D ( 'NONE', #425, #184, #121 ) ;
#90 = AXIS2_PLACEMENT_3D ( 'NONE', #210, #406, #161 ) ;
#91 = DIRECTION ( 'NONE',  ( 0.000000000000000000, 0.000000000000000000, 1.000000000000000000 ) ) ;
#92 = VERTEX_POINT ( 'NONE', #236 ) ;
#93 = DIRECTION ( 'NONE',  ( -0.000000000000000000, 1.000000000000000000, -0.000000000000000000 ) ) ;
#94 = ORIENTED_EDGE ( 'NONE', *, *, #342, .T. ) ;
#95 = LINE ( 'NONE', #340, #694 ) ;
#96 = EDGE_LOOP ( 'NONE', ( #626, #748, #545, #296 ) ) ;
#97 = STYLED_ITEM ( 'NONE', ( #473 ), #222 ) ;
#98 = DIRECTION ( 'NONE',  ( 0.000000000000000000, 0.000000000000000000, 1.000000000000000000 ) ) ;
#99 = ORIENTED_EDGE ( 'NONE', *, *, #616, .F. ) ;
#100 = CARTESIAN_POINT ( 'NONE',  ( 3.583711328643515159, 1.500000000000000000, -26.79471821162028888 ) ) ;
#101 = LINE ( 'NONE', #277, #431 ) ;
#102 = EDGE_LOOP ( 'NONE', ( #192, #673 ) ) ;
#103 = DIRECTION ( 'NONE',  ( 0.000000000000000000, 0.000000000000000000, -1.000000000000000000 ) ) ;
#104 = LINE ( 'NONE', #762, #250 ) ;
#105 = DIRECTION ( 'NONE',  ( -0.000000000000000000, 1.000000000000000000, -0.000000000000000000 ) ) ;
#106 = VECTOR ( 'NONE', #379, 1000.000000000000000 ) ;
#107 = STYLED_ITEM ( 'NONE', ( #669 ), #151 ) ;
#108 = DIRECTION ( 'NONE',  ( 0.000000000000000000, 0.000000000000000000, -1.000000000000000000 ) ) ;
#109 = DIRECTION ( 'NONE',  ( -0.000000000000000000, -1.000000000000000000, -0.000000000000000000 ) ) ;
#110 = EDGE_LOOP ( 'NONE', ( #587, #339 ) ) ;
#111 = ORIENTED_EDGE ( 'NONE', *, *, #399, .T. ) ;
#112 = DIRECTION ( 'NONE',  ( 0.000000000000000000, 0.000000000000000000, -1.000000000000000000 ) ) ;
#113 = CYLINDRICAL_SURFACE ( 'NONE', #752, 1.000000000000000888 ) ;
#114 = EDGE_CURVE ( 'NONE', #562, #38, #575, .T. ) ;
#115 = EDGE_LOOP ( 'NONE', ( #367, #80, #169, #362 ) ) ;
#116 = DIRECTION ( 'NONE',  ( 0.000000000000000000, 1.000000000000000000, -0.000000000000000000 ) ) ;
#117 = CARTESIAN_POINT ( 'NONE',  ( 0.000000000000000000, 1.500000000000000000, -31.00000000000000000 ) ) ;
#118 = VECTOR ( 'NONE', #346, 1000.000000000000000 ) ;
#119 = ADVANCED_FACE ( 'NONE', ( #486 ), #4, .F. ) ;
#120 = VERTEX_POINT ( 'NONE', #168 ) ;
#121 = DIRECTION ( 'NONE',  ( 1.000000000000000000, 0.000000000000000000, 0.000000000000000000 ) ) ;
#122 = CARTESIAN_POINT ( 'NONE',  ( 16.32022850568125349, 1.500000000000000000, -2.926927408109435635 ) ) ;
#123 = FACE_BOUND ( 'NONE', #390, .T. ) ;
#124 = VECTOR ( 'NONE', #207, 1000.000000000000000 ) ;
#125 = ORIENTED_EDGE ( 'NONE', *, *, #61, .T. ) ;
#126 = CARTESIAN_POINT ( 'NONE',  ( 13.49999999999999822, 1.500000000000000000, 0.000000000000000000 ) ) ;
#127 = CARTESIAN_POINT ( 'NONE',  ( 13.49999999999999822, 4.500000000000000000, 0.000000000000000000 ) ) ;
#128 = SURFACE_STYLE_USAGE ( .BOTH. , #319 ) ;
#129 = ORIENTED_EDGE ( 'NONE', *, *, #81, .F. ) ;
#130 = CARTESIAN_POINT ( 'NONE',  ( 3.583711328643515159, 1.500000000000000000, -12.43921758387390142 ) ) ;
#131 = UNCERTAINTY_MEASURE_WITH_UNIT (LENGTH_MEASURE( 1.000000000000000082E-05 ), #29, 'distance_accuracy_value', 'NONE');
#132 = EDGE_LOOP ( 'NONE', ( #687, #680 ) ) ;
#133 = CARTESIAN_POINT ( 'NONE',  ( 2.017303644436613475, -8.500000000000000000, -2.926927408109435635 ) ) ;
#134 = EDGE_CURVE ( 'NONE', #632, #534, #580, .T. ) ;
#135 = CARTESIAN_POINT ( 'NONE',  ( 0.000000000000000000, 4.500000000000000000, 0.000000000000000000 ) ) ;
#136 = ADVANCED_FACE ( 'NONE', ( #123, #719, #49, #642, #768 ), #225, .F. ) ;
#137 = ORIENTED_EDGE ( 'NONE', *, *, #728, .F. ) ;
#138 = PLANE ( 'NONE',  #550 ) ;
#139 = FILL_AREA_STYLE ('',( #548 ) ) ;
#140 = UNCERTAINTY_MEASURE_WITH_UNIT (LENGTH_MEASURE( 1.000000000000000082E-05 ), #50, 'distance_accuracy_value', 'NONE');
#141 = ORIENTED_EDGE ( 'NONE', *, *, #745, .F. ) ;
#142 = DIRECTION ( 'NONE',  ( 0.000000000000000000, 1.000000000000000000, -0.000000000000000000 ) ) ;
#143 = CARTESIAN_POINT ( 'NONE',  ( 16.32022850568125349, 1.500000000000000000, -1.926927408109434303 ) ) ;
#144 = ORIENTED_EDGE ( 'NONE', *, *, #633, .T. ) ;
#145 = EDGE_CURVE ( 'NONE', #372, #221, #738, .T. ) ;
#146 = VECTOR ( 'NONE', #700, 1000.000000000000000 ) ;
#147 = FACE_OUTER_BOUND ( 'NONE', #519, .T. ) ;
#148 = EDGE_LOOP ( 'NONE', ( #276, #94, #726, #64 ) ) ;
#149 = AXIS2_PLACEMENT_3D ( 'NONE', #154, #627, #163 ) ;
#150 = CARTESIAN_POINT ( 'NONE',  ( 0.000000000000000000, 1.500000000000000000, 0.000000000000000000 ) ) ;
#151 = MANIFOLD_SOLID_BREP ( 'Cut-Extrude1', #713 ) ;
#152 = ORIENTED_EDGE ( 'NONE', *, *, #145, .T. ) ;
#153 = EDGE_CURVE ( 'NONE', #34, #407, #350, .T. ) ;
#154 = CARTESIAN_POINT ( 'NONE',  ( 0.000000000000000000, 1.500000000000000000, 0.000000000000000000 ) ) ;
#155 = ORIENTED_EDGE ( 'NONE', *, *, #624, .T. ) ;
#156 = PRODUCT_DEFINITION_SHAPE ( 'NONE', 'NONE',  #664 ) ;
#157 = CIRCLE ( 'NONE', #324, 1.000000000000000888 ) ;
#158 = CARTESIAN_POINT ( 'NONE',  ( 2.017303644436613475, -8.500000000000000000, -27.83251992965577415 ) ) ;
#159 = EDGE_CURVE ( 'NONE', #407, #34, #581, .T. ) ;
#160 = VERTEX_POINT ( 'NONE', #16 ) ;
#161 = DIRECTION ( 'NONE',  ( 1.000000000000000000, 0.000000000000000000, -0.000000000000000000 ) ) ;
#162 = ORIENTED_EDGE ( 'NONE', *, *, #455, .T. ) ;
#163 = DIRECTION ( 'NONE',  ( 0.000000000000000000, 0.000000000000000000, 1.000000000000000000 ) ) ;
#164 = ORIENTED_EDGE ( 'NONE', *, *, #337, .F. ) ;
#165 = AXIS2_PLACEMENT_3D ( 'NONE', #586, #589, #541 ) ;
#166 = CARTESIAN_POINT ( 'NONE',  ( 4.500000000000000000, 4.500000000000000000, 0.000000000000000000 ) ) ;
#167 = LINE ( 'NONE', #176, #206 ) ;
#168 = CARTESIAN_POINT ( 'NONE',  ( 18.00000000000000000, 0.000000000000000000, 0.000000000000000000 ) ) ;
#169 = ORIENTED_EDGE ( 'NONE', *, *, #302, .T. ) ;
#170 = ADVANCED_FACE ( 'NONE', ( #328 ), #310, .T. ) ;
#171 = AXIS2_PLACEMENT_3D ( 'NONE', #79, #191, #265 ) ;
#172 = LINE ( 'NONE', #247, #754 ) ;
#173 = DIRECTION ( 'NONE',  ( 0.000000000000000000, 0.000000000000000000, 1.000000000000000000 ) ) ;
#174 = DIRECTION ( 'NONE',  ( 0.000000000000000000, 1.000000000000000000, -0.000000000000000000 ) ) ;
#175 = ORIENTED_EDGE ( 'NONE', *, *, #749, .F. ) ;
#176 = CARTESIAN_POINT ( 'NONE',  ( 11.25722217470615227, 4.500000000000000888, -26.79471821162028888 ) ) ;
#177 = EDGE_CURVE ( 'NONE', #38, #562, #516, .T. ) ;
#178 = FACE_OUTER_BOUND ( 'NONE', #708, .T. ) ;
#179 = ORIENTED_EDGE ( 'NONE', *, *, #159, .F. ) ;
#180 = AXIS2_PLACEMENT_3D ( 'NONE', #67, #174, #230 ) ;
#181 = CARTESIAN_POINT ( 'NONE',  ( 2.017303644436613475, 1.500000000000000000, -27.83251992965577415 ) ) ;
#182 = PLANE ( 'NONE',  #165 ) ;
#183 = ORIENTED_EDGE ( 'NONE', *, *, #24, .T. ) ;
#184 = DIRECTION ( 'NONE',  ( 0.000000000000000000, 0.000000000000000000, 1.000000000000000000 ) ) ;
#185 = VECTOR ( 'NONE', #729, 1000.000000000000000 ) ;
#186 = LINE ( 'NONE', #724, #86 ) ;
#187 = CARTESIAN_POINT ( 'NONE',  ( 3.583711328643515159, 4.500000000000000888, -12.43921758387390142 ) ) ;
#188 = AXIS2_PLACEMENT_3D ( 'NONE', #567, #212, #459 ) ;
#189 = DIRECTION ( 'NONE',  ( -0.000000000000000000, 1.000000000000000000, -0.000000000000000000 ) ) ;
#190 = DIRECTION ( 'NONE',  ( -0.000000000000000000, -1.000000000000000000, -0.000000000000000000 ) ) ;
#191 = DIRECTION ( 'NONE',  ( 0.000000000000000000, 1.000000000000000000, -0.000000000000000000 ) ) ;
#192 = ORIENTED_EDGE ( 'NONE', *, *, #511, .F. ) ;
#193 = DIRECTION ( 'NONE',  ( -0.000000000000000000, 1.000000000000000000, -0.000000000000000000 ) ) ;
#194 = CARTESIAN_POINT ( 'NONE',  ( 3.583711328643515159, 4.500000000000000888, -12.43921758387390142 ) ) ;
#195 = LINE ( 'NONE', #26, #609 ) ;
#196 = ORIENTED_EDGE ( 'NONE', *, *, #639, .F. ) ;
#197 = VECTOR ( 'NONE', #351, 1000.000000000000000 ) ;
#198 = LINE ( 'NONE', #493, #59 ) ;
#199 = DIRECTION ( 'NONE',  ( 0.000000000000000000, 0.000000000000000000, 1.000000000000000000 ) ) ;
#200 = ORIENTED_EDGE ( 'NONE', *, *, #81, .T. ) ;
#201 = DIRECTION ( 'NONE',  ( 0.000000000000000000, 0.000000000000000000, 1.000000000000000000 ) ) ;
#202 = DIRECTION ( 'NONE',  ( -0.000000000000000000, 1.000000000000000000, -0.000000000000000000 ) ) ;
#203 = VERTEX_POINT ( 'NONE', #258 ) ;
#204 = LINE ( 'NONE', #495, #218 ) ;
#205 = ORIENTED_EDGE ( 'NONE', *, *, #606, .T. ) ;
#206 = VECTOR ( 'NONE', #417, 1000.000000000000000 ) ;
#207 = DIRECTION ( 'NONE',  ( 1.000000000000000000, -0.000000000000000000, 0.000000000000000000 ) ) ;
#208 = ORIENTED_EDGE ( 'NONE', *, *, #287, .F. ) ;
#209 = COLOUR_RGB ( '',0.000000000000000000, 0.05490196078431372473, 0.9921568627450980671 ) ;
#210 = CARTESIAN_POINT ( 'NONE',  ( 3.583711328643515159, 4.500000000000000888, -26.79471821162028888 ) ) ;
#211 = ORIENTED_EDGE ( 'NONE', *, *, #134, .F. ) ;
#212 = DIRECTION ( 'NONE',  ( 0.000000000000000000, 1.000000000000000000, -0.000000000000000000 ) ) ;
#213 = ORIENTED_EDGE ( 'NONE', *, *, #244, .T. ) ;
#214 = CIRCLE ( 'NONE', #504, 1.000000000000000888 ) ;
#215 = DIRECTION ( 'NONE',  ( 0.000000000000000000, 0.000000000000000000, 1.000000000000000000 ) ) ;
#216 = VECTOR ( 'NONE', #254, 1000.000000000000000 ) ;
#217 = VERTEX_POINT ( 'NONE', #249 ) ;
#218 = VECTOR ( 'NONE', #725, 1000.000000000000000 ) ;
#219 = CARTESIAN_POINT ( 'NONE',  ( 2.017303644436613475, -8.500000000000000000, -1.926927408109435413 ) ) ;
#220 = CARTESIAN_POINT ( 'NONE',  ( 0.000000000000000000, 1.500000000000000000, -31.00000000000000000 ) ) ;
#221 = VERTEX_POINT ( 'NONE', #255 ) ;
#222 = ADVANCED_BREP_SHAPE_REPRESENTATION ( 'BMS 2s', ( #151, #89 ), #429 ) ;
#223 = DIRECTION ( 'NONE',  ( -1.000000000000000000, 0.000000000000000000, -0.000000000000000000 ) ) ;
#224 = DIRECTION ( 'NONE',  ( -0.000000000000000000, 1.000000000000000000, -0.000000000000000000 ) ) ;
#225 = PLANE ( 'NONE',  #314 ) ;
#226 = ORIENTED_EDGE ( 'NONE', *, *, #501, .T. ) ;
#227 = CIRCLE ( 'NONE', #603, 1.000000000000000222 ) ;
#228 = CARTESIAN_POINT ( 'NONE',  ( 16.32022850568125349, -8.500000000000000000, -28.83251992965577415 ) ) ;
#229 = LINE ( 'NONE', #294, #523 ) ;
#230 = DIRECTION ( 'NONE',  ( 0.000000000000000000, 0.000000000000000000, 1.000000000000000000 ) ) ;
#231 = ORIENTED_EDGE ( 'NONE', *, *, #287, .T. ) ;
#232 = EDGE_CURVE ( 'NONE', #445, #764, #315, .T. ) ;
#233 = VECTOR ( 'NONE', #559, 1000.000000000000000 ) ;
#234 = FACE_OUTER_BOUND ( 'NONE', #424, .T. ) ;
#235 = APPLICATION_CONTEXT ( 'automotive_design' ) ;
#236 = CARTESIAN_POINT ( 'NONE',  ( 16.32022850568125349, 1.500000000000000000, -27.83251992965577415 ) ) ;
#237 = ORIENTED_EDGE ( 'NONE', *, *, #316, .F. ) ;
#238 = SURFACE_SIDE_STYLE ('',( #582 ) ) ;
#239 = CARTESIAN_POINT ( 'NONE',  ( 11.25722217470615227, 4.500000000000000888, -26.79471821162028888 ) ) ;
#240 = CARTESIAN_POINT ( 'NONE',  ( 18.00000000000000000, 0.000000000000000000, -31.00000000000000000 ) ) ;
#241 = VERTEX_POINT ( 'NONE', #143 ) ;
#242 = DIRECTION ( 'NONE',  ( -1.000000000000000000, 0.000000000000000000, -0.000000000000000000 ) ) ;
#243 = DIRECTION ( 'NONE',  ( 0.000000000000000000, 0.000000000000000000, 1.000000000000000000 ) ) ;
#244 = EDGE_CURVE ( 'NONE', #534, #438, #262, .T. ) ;
#245 = ORIENTED_EDGE ( 'NONE', *, *, #177, .F. ) ;
#246 = VECTOR ( 'NONE', #540, 1000.000000000000000 ) ;
#247 = CARTESIAN_POINT ( 'NONE',  ( 18.00000000000000000, 0.000000000000000000, 0.000000000000000000 ) ) ;
#248 = DIRECTION ( 'NONE',  ( 0.000000000000000000, 0.000000000000000000, 1.000000000000000000 ) ) ;
#249 = CARTESIAN_POINT ( 'NONE',  ( 16.32022850568125349, 1.500000000000000000, -3.926927408109436968 ) ) ;
#250 = VECTOR ( 'NONE', #109, 1000.000000000000000 ) ;
#251 = ORIENTED_EDGE ( 'NONE', *, *, #749, .T. ) ;
#252 = EDGE_CURVE ( 'NONE', #711, #555, #682, .T. ) ;
#253 = CARTESIAN_POINT ( 'NONE',  ( 4.500000000000000000, 1.500000000000000000, -8.000000000000000000 ) ) ;
#254 = DIRECTION ( 'NONE',  ( 0.000000000000000000, 0.000000000000000000, -1.000000000000000000 ) ) ;
#255 = CARTESIAN_POINT ( 'NONE',  ( 18.00000000000000000, 1.500000000000000000, -31.00000000000000000 ) ) ;
#256 = ORIENTED_EDGE ( 'NONE', *, *, #376, .F. ) ;
#257 = CARTESIAN_POINT ( 'NONE',  ( 3.583711328643515159, 4.500000000000000888, -12.43921758387390142 ) ) ;
#258 = CARTESIAN_POINT ( 'NONE',  ( 4.500000000000000000, 1.500000000000000000, 0.000000000000000000 ) ) ;
#259 = ORIENTED_EDGE ( 'NONE', *, *, #639, .T. ) ;
#260 = VECTOR ( 'NONE', #85, 1000.000000000000000 ) ;
#261 = CARTESIAN_POINT ( 'NONE',  ( 18.00000000000000000, 1.500000000000000000, 0.000000000000000000 ) ) ;
#262 = LINE ( 'NONE', #130, #233 ) ;
#263 = ORIENTED_EDGE ( 'NONE', *, *, #342, .F. ) ;
#264 = VECTOR ( 'NONE', #91, 1000.000000000000000 ) ;
#265 = DIRECTION ( 'NONE',  ( 0.000000000000000000, 0.000000000000000000, 1.000000000000000000 ) ) ;
#266 = EDGE_CURVE ( 'NONE', #691, #744, #195, .T. ) ;
#267 = EDGE_LOOP ( 'NONE', ( #311, #237, #551, #111 ) ) ;
#268 = DIRECTION ( 'NONE',  ( 0.000000000000000000, 1.000000000000000000, -0.000000000000000000 ) ) ;
#269 = VECTOR ( 'NONE', #427, 1000.000000000000000 ) ;
#270 = ADVANCED_FACE ( 'NONE', ( #740 ), #10, .F. ) ;
#271 = VERTEX_POINT ( 'NONE', #389 ) ;
#272 = DIRECTION ( 'NONE',  ( -0.000000000000000000, -1.000000000000000000, -0.000000000000000000 ) ) ;
#273 = ORIENTED_EDGE ( 'NONE', *, *, #134, .T. ) ;
#274 = AXIS2_PLACEMENT_3D ( 'NONE', #135, #87, #611 ) ;
#275 = LINE ( 'NONE', #158, #48 ) ;
#276 = ORIENTED_EDGE ( 'NONE', *, *, #549, .T. ) ;
#277 = CARTESIAN_POINT ( 'NONE',  ( 18.00000000000000000, 1.500000000000000000, -31.00000000000000000 ) ) ;
#278 = ORIENTED_EDGE ( 'NONE', *, *, #647, .T. ) ;
#279 = PRODUCT ( 'BMS 2s', 'BMS 2s', '', ( #595 ) ) ;
#280 = DIRECTION ( 'NONE',  ( 0.000000000000000000, 0.000000000000000000, 1.000000000000000000 ) ) ;
#281 = CIRCLE ( 'NONE', #717, 1.000000000000001554 ) ;
#282 = VERTEX_POINT ( 'NONE', #618 ) ;
#283 = AXIS2_PLACEMENT_3D ( 'NONE', #43, #456, #280 ) ;
#284 = CARTESIAN_POINT ( 'NONE',  ( 2.017303644436613475, 1.500000000000000000, -2.926927408109435635 ) ) ;
#285 = CARTESIAN_POINT ( 'NONE',  ( 16.32022850568125349, -8.500000000000000000, -2.926927408109435635 ) ) ;
#286 = CARTESIAN_POINT ( 'NONE',  ( 3.583711328643515159, 4.500000000000000888, -12.43921758387390142 ) ) ;
#287 = EDGE_CURVE ( 'NONE', #354, #662, #204, .T. ) ;
#288 = CARTESIAN_POINT ( 'NONE',  ( 0.000000000000000000, 4.500000000000000000, -8.000000000000000000 ) ) ;
#289 = PLANE ( 'NONE',  #619 ) ;
#290 = CARTESIAN_POINT ( 'NONE',  ( 0.000000000000000000, 0.000000000000000000, 0.000000000000000000 ) ) ;
#291 = EDGE_CURVE ( 'NONE', #500, #76, #377, .T. ) ;
#292 = EDGE_LOOP ( 'NONE', ( #703, #12, #419, #7 ) ) ;
#293 = VECTOR ( 'NONE', #370, 1000.000000000000000 ) ;
#294 = CARTESIAN_POINT ( 'NONE',  ( 0.000000000000000000, 4.500000000000000000, 0.000000000000000000 ) ) ;
#295 = DIRECTION ( 'NONE',  ( 0.000000000000000000, 1.000000000000000000, -0.000000000000000000 ) ) ;
#296 = ORIENTED_EDGE ( 'NONE', *, *, #309, .F. ) ;
#297 = ADVANCED_FACE ( 'NONE', ( #634 ), #743, .F. ) ;
#298 = EDGE_CURVE ( 'NONE', #538, #721, #396, .T. ) ;
#299 = DIRECTION ( 'NONE',  ( -0.000000000000000000, 1.000000000000000000, -0.000000000000000000 ) ) ;
#300 = FACE_OUTER_BOUND ( 'NONE', #654, .T. ) ;
#301 = ORIENTED_EDGE ( 'NONE', *, *, #291, .F. ) ;
#302 = EDGE_CURVE ( 'NONE', #711, #241, #621, .T. ) ;
#303 = DIRECTION ( 'NONE',  ( 0.000000000000000000, 0.000000000000000000, 1.000000000000000000 ) ) ;
#304 = CARTESIAN_POINT ( 'NONE',  ( 16.32022850568125349, 0.000000000000000000, -2.926927408109435635 ) ) ;
#305 = UNCERTAINTY_MEASURE_WITH_UNIT (LENGTH_MEASURE( 1.000000000000000082E-05 ), #604, 'distance_accuracy_value', 'NONE');
#306 = ORIENTED_EDGE ( 'NONE', *, *, #668, .T. ) ;
#307 = CARTESIAN_POINT ( 'NONE',  ( 0.000000000000000000, 1.500000000000000000, 0.000000000000000000 ) ) ;
#308 = FACE_OUTER_BOUND ( 'NONE', #542, .T. ) ;
#309 = EDGE_CURVE ( 'NONE', #271, #407, #275, .T. ) ;
#310 = PLANE ( 'NONE',  #274 ) ;
#311 = ORIENTED_EDGE ( 'NONE', *, *, #410, .T. ) ;
#312 = CARTESIAN_POINT ( 'NONE',  ( 3.583711328643515159, 4.500000000000000888, -26.79471821162028888 ) ) ;
#313 = LINE ( 'NONE', #15, #106 ) ;
#314 = AXIS2_PLACEMENT_3D ( 'NONE', #290, #533, #537 ) ;
#315 = LINE ( 'NONE', #499, #707 ) ;
#316 = EDGE_CURVE ( 'NONE', #691, #445, #338, .T. ) ;
#317 = ORIENTED_EDGE ( 'NONE', *, *, #159, .T. ) ;
#318 = DIRECTION ( 'NONE',  ( 0.000000000000000000, 0.000000000000000000, 1.000000000000000000 ) ) ;
#319 = SURFACE_SIDE_STYLE ('',( #552 ) ) ;
#320 = ORIENTED_EDGE ( 'NONE', *, *, #309, .T. ) ;
#321 = VECTOR ( 'NONE', #349, 1000.000000000000000 ) ;
#322 = DIRECTION ( 'NONE',  ( 0.000000000000000000, 0.000000000000000000, 1.000000000000000000 ) ) ;
#323 = ORIENTED_EDGE ( 'NONE', *, *, #423, .T. ) ;
#324 = AXIS2_PLACEMENT_3D ( 'NONE', #722, #761, #46 ) ;
#325 = VECTOR ( 'NONE', #470, 1000.000000000000000 ) ;
#326 = EDGE_CURVE ( 'NONE', #602, #721, #692, .T. ) ;
#327 = LINE ( 'NONE', #718, #216 ) ;
#328 = FACE_OUTER_BOUND ( 'NONE', #483, .T. ) ;
#329 = VERTEX_POINT ( 'NONE', #332 ) ;
#330 = AXIS2_PLACEMENT_3D ( 'NONE', #563, #747, #98 ) ;
#331 = EDGE_CURVE ( 'NONE', #354, #203, #750, .T. ) ;
#332 = CARTESIAN_POINT ( 'NONE',  ( 2.017303644436613475, 1.500000000000000000, -1.926927408109435413 ) ) ;
#333 = ORIENTED_EDGE ( 'NONE', *, *, #326, .T. ) ;
#334 = DIRECTION ( 'NONE',  ( 0.000000000000000000, 0.000000000000000000, 1.000000000000000000 ) ) ;
#335 = EDGE_CURVE ( 'NONE', #217, #241, #622, .T. ) ;
#336 = ORIENTED_EDGE ( 'NONE', *, *, #114, .T. ) ;
#337 = EDGE_CURVE ( 'NONE', #221, #76, #101, .T. ) ;
#338 = LINE ( 'NONE', #39, #596 ) ;
#339 = ORIENTED_EDGE ( 'NONE', *, *, #677, .F. ) ;
#340 = CARTESIAN_POINT ( 'NONE',  ( 0.000000000000000000, 1.500000000000000000, -8.000000000000000000 ) ) ;
#341 = ORIENTED_EDGE ( 'NONE', *, *, #720, .T. ) ;
#342 = EDGE_CURVE ( 'NONE', #602, #755, #95, .T. ) ;
#343 = PLANE ( 'NONE',  #283 ) ;
#344 = EDGE_LOOP ( 'NONE', ( #179, #735 ) ) ;
#345 = EDGE_CURVE ( 'NONE', #372, #120, #33, .T. ) ;
#346 = DIRECTION ( 'NONE',  ( 0.000000000000000000, 0.000000000000000000, 1.000000000000000000 ) ) ;
#347 = FACE_OUTER_BOUND ( 'NONE', #505, .T. ) ;
#348 = AXIS2_PLACEMENT_3D ( 'NONE', #436, #660, #9 ) ;
#349 = DIRECTION ( 'NONE',  ( 1.000000000000000000, 0.000000000000000000, 0.000000000000000000 ) ) ;
#350 = CIRCLE ( 'NONE', #13, 1.000000000000000888 ) ;
#351 = DIRECTION ( 'NONE',  ( 0.000000000000000000, 0.000000000000000000, -1.000000000000000000 ) ) ;
#352 = DIRECTION ( 'NONE',  ( 0.000000000000000000, 0.000000000000000000, 1.000000000000000000 ) ) ;
#353 = ADVANCED_FACE ( 'NONE', ( #678 ), #402, .F. ) ;
#354 = VERTEX_POINT ( 'NONE', #625 ) ;
#355 = DIRECTION ( 'NONE',  ( -1.000000000000000000, 0.000000000000000000, -0.000000000000000000 ) ) ;
#356 = EDGE_CURVE ( 'NONE', #27, #160, #527, .T. ) ;
#357 = DIRECTION ( 'NONE',  ( -0.000000000000000000, 1.000000000000000000, -0.000000000000000000 ) ) ;
#358 = ORIENTED_EDGE ( 'NONE', *, *, #502, .T. ) ;
#359 = AXIS2_PLACEMENT_3D ( 'NONE', #288, #108, #223 ) ;
#360 = DIRECTION ( 'NONE',  ( 0.000000000000000000, 0.000000000000000000, 1.000000000000000000 ) ) ;
#361 = CARTESIAN_POINT ( 'NONE',  ( 2.017303644436613475, 0.000000000000000000, -2.926927408109435635 ) ) ;
#362 = ORIENTED_EDGE ( 'NONE', *, *, #511, .T. ) ;
#363 = APPLICATION_PROTOCOL_DEFINITION ( 'draft international standard', 'automotive_design', 1998, #235 ) ;
#364 = CARTESIAN_POINT ( 'NONE',  ( 0.000000000000000000, 1.500000000000000000, -31.00000000000000000 ) ) ;
#365 = VECTOR ( 'NONE', #683, 1000.000000000000000 ) ;
#366 = CARTESIAN_POINT ( 'NONE',  ( 2.017303644436613475, -8.500000000000000000, -2.926927408109435635 ) ) ;
#367 = ORIENTED_EDGE ( 'NONE', *, *, #572, .F. ) ;
#368 = PLANE ( 'NONE',  #591 ) ;
#369 = PRODUCT_RELATED_PRODUCT_CATEGORY ( 'part', '', ( #279 ) ) ;
#370 = DIRECTION ( 'NONE',  ( 0.000000000000000000, 0.000000000000000000, -1.000000000000000000 ) ) ;
#371 =( NAMED_UNIT ( * ) SI_UNIT ( $, .STERADIAN. ) SOLID_ANGLE_UNIT ( ) );
#372 = VERTEX_POINT ( 'NONE', #515 ) ;
#373 = APPLICATION_CONTEXT ( 'automotive_design' ) ;
#374 = FACE_OUTER_BOUND ( 'NONE', #397, .T. ) ;
#375 = CARTESIAN_POINT ( 'NONE',  ( 0.000000000000000000, 1.500000000000000000, -31.00000000000000000 ) ) ;
#376 = EDGE_CURVE ( 'NONE', #271, #60, #494, .T. ) ;
#377 = LINE ( 'NONE', #607, #365 ) ;
#378 = ORIENTED_EDGE ( 'NONE', *, *, #177, .T. ) ;
#379 = DIRECTION ( 'NONE',  ( -0.000000000000000000, 1.000000000000000000, -0.000000000000000000 ) ) ;
#380 = AXIS2_PLACEMENT_3D ( 'NONE', #734, #510, #199 ) ;
#381 =( NAMED_UNIT ( * ) PLANE_ANGLE_UNIT ( ) SI_UNIT ( $, .RADIAN. ) );
#382 = ADVANCED_FACE ( 'NONE', ( #521 ), #343, .T. ) ;
#383 = ORIENTED_EDGE ( 'NONE', *, *, #244, .F. ) ;
#384 = CARTESIAN_POINT ( 'NONE',  ( 16.32022850568125349, 0.000000000000000000, -3.926927408109436968 ) ) ;
#385 = ADVANCED_FACE ( 'NONE', ( #688, #525, #757, #449, #147, #513 ), #452, .T. ) ;
#386 = ORIENTED_EDGE ( 'NONE', *, *, #145, .F. ) ;
#387 = CIRCLE ( 'NONE', #180, 1.000000000000000888 ) ;
#388 = LINE ( 'NONE', #617, #260 ) ;
#389 = CARTESIAN_POINT ( 'NONE',  ( 2.017303644436613475, 0.000000000000000000, -27.83251992965577415 ) ) ;
#390 = EDGE_LOOP ( 'NONE', ( #568, #739 ) ) ;
#391 = EDGE_CURVE ( 'NONE', #764, #534, #588, .T. ) ;
#392 = VECTOR ( 'NONE', #657, 1000.000000000000000 ) ;
#393 = CARTESIAN_POINT ( 'NONE',  ( 18.00000000000000000, 1.500000000000000000, 0.000000000000000000 ) ) ;
#394 = ORIENTED_EDGE ( 'NONE', *, *, #741, .F. ) ;
#395 = VECTOR ( 'NONE', #518, 1000.000000000000000 ) ;
#396 = LINE ( 'NONE', #37, #395 ) ;
#397 = EDGE_LOOP ( 'NONE', ( #457, #613, #323, #763 ) ) ;
#398 = DIRECTION ( 'NONE',  ( -0.000000000000000000, 1.000000000000000000, -0.000000000000000000 ) ) ;
#399 = EDGE_CURVE ( 'NONE', #638, #438, #104, .T. ) ;
#400 = ORIENTED_EDGE ( 'NONE', *, *, #291, .T. ) ;
#401 = AXIS2_PLACEMENT_3D ( 'NONE', #547, #142, #248 ) ;
#402 = PLANE ( 'NONE',  #90 ) ;
#403 = EDGE_CURVE ( 'NONE', #684, #538, #229, .T. ) ;
#404 = MECHANICAL_DESIGN_GEOMETRIC_PRESENTATION_REPRESENTATION (  '', ( #97 ), #736 ) ;
#405 = VERTEX_POINT ( 'NONE', #712 ) ;
#406 = DIRECTION ( 'NONE',  ( 0.000000000000000000, 0.000000000000000000, 1.000000000000000000 ) ) ;
#407 = VERTEX_POINT ( 'NONE', #181 ) ;
#408 = LINE ( 'NONE', #220, #325 ) ;
#409 = ORIENTED_EDGE ( 'NONE', *, *, #232, .T. ) ;
#410 = EDGE_CURVE ( 'NONE', #438, #445, #585, .T. ) ;
#411 = LINE ( 'NONE', #573, #23 ) ;
#412 = DIRECTION ( 'NONE',  ( 0.000000000000000000, 0.000000000000000000, -1.000000000000000000 ) ) ;
#413 = CARTESIAN_POINT ( 'NONE',  ( 0.000000000000000000, 0.000000000000000000, 0.000000000000000000 ) ) ;
#414 = EDGE_LOOP ( 'NONE', ( #99, #30, #44, #125 ) ) ;
#415 = VECTOR ( 'NONE', #75, 1000.000000000000000 ) ;
#416 = LINE ( 'NONE', #704, #118 ) ;
#417 = DIRECTION ( 'NONE',  ( -0.000000000000000000, -0.000000000000000000, -1.000000000000000000 ) ) ;
#418 = CARTESIAN_POINT ( 'NONE',  ( 16.32022850568125349, -8.500000000000000000, -28.83251992965577415 ) ) ;
#419 = ORIENTED_EDGE ( 'NONE', *, *, #335, .T. ) ;
#420 =( NAMED_UNIT ( * ) PLANE_ANGLE_UNIT ( ) SI_UNIT ( $, .RADIAN. ) );
#421 = LINE ( 'NONE', #650, #246 ) ;
#422 = DIRECTION ( 'NONE',  ( -0.000000000000000000, 1.000000000000000000, -0.000000000000000000 ) ) ;
#423 = EDGE_CURVE ( 'NONE', #27, #92, #52, .T. ) ;
#424 = EDGE_LOOP ( 'NONE', ( #200, #759, #695, #478, #742, #278, #454, #231 ) ) ;
#425 = CARTESIAN_POINT ( 'NONE',  ( 0.000000000000000000, 0.000000000000000000, 0.000000000000000000 ) ) ;
#426 = DIRECTION ( 'NONE',  ( -1.000000000000000000, 0.000000000000000000, -0.000000000000000000 ) ) ;
#427 = DIRECTION ( 'NONE',  ( 1.000000000000000000, -0.000000000000000000, 0.000000000000000000 ) ) ;
#428 = ORIENTED_EDGE ( 'NONE', *, *, #403, .T. ) ;
#429 =( GEOMETRIC_REPRESENTATION_CONTEXT ( 3 ) GLOBAL_UNCERTAINTY_ASSIGNED_CONTEXT ( ( #305 ) ) GLOBAL_UNIT_ASSIGNED_CONTEXT ( ( #604, #727, #42 ) ) REPRESENTATION_CONTEXT ( 'NONE', 'WORKASPACE' ) );
#430 = DIRECTION ( 'NONE',  ( -0.000000000000000000, -1.000000000000000000, -0.000000000000000000 ) ) ;
#431 = VECTOR ( 'NONE', #565, 1000.000000000000000 ) ;
#432 = DIRECTION ( 'NONE',  ( 0.000000000000000000, 1.000000000000000000, -0.000000000000000000 ) ) ;
#433 = ORIENTED_EDGE ( 'NONE', *, *, #741, .T. ) ;
#434 = CARTESIAN_POINT ( 'NONE',  ( 0.000000000000000000, 0.000000000000000000, 0.000000000000000000 ) ) ;
#435 = ADVANCED_FACE ( 'NONE', ( #347 ), #709, .T. ) ;
#436 = CARTESIAN_POINT ( 'NONE',  ( 13.49999999999999822, 4.500000000000000000, 0.000000000000000000 ) ) ;
#437 = DIRECTION ( 'NONE',  ( -1.000000000000000000, -0.000000000000000000, -0.000000000000000000 ) ) ;
#438 = VERTEX_POINT ( 'NONE', #57 ) ;
#439 = DIRECTION ( 'NONE',  ( 0.000000000000000000, 0.000000000000000000, 1.000000000000000000 ) ) ;
#440 = AXIS2_PLACEMENT_3D ( 'NONE', #261, #737, #201 ) ;
#441 = DIRECTION ( 'NONE',  ( 0.000000000000000000, 0.000000000000000000, 1.000000000000000000 ) ) ;
#442 = ORIENTED_EDGE ( 'NONE', *, *, #728, .T. ) ;
#443 = DIRECTION ( 'NONE',  ( -0.000000000000000000, -1.000000000000000000, -0.000000000000000000 ) ) ;
#444 = EDGE_CURVE ( 'NONE', #60, #34, #62, .T. ) ;
#445 = VERTEX_POINT ( 'NONE', #47 ) ;
#446 = CARTESIAN_POINT ( 'NONE',  ( 0.000000000000000000, 0.000000000000000000, 0.000000000000000000 ) ) ;
#447 = DIRECTION ( 'NONE',  ( 0.000000000000000000, 0.000000000000000000, 1.000000000000000000 ) ) ;
#448 = ORIENTED_EDGE ( 'NONE', *, *, #685, .F. ) ;
#449 = FACE_BOUND ( 'NONE', #670, .T. ) ;
#450 = ORIENTED_EDGE ( 'NONE', *, *, #326, .F. ) ;
#451 = VECTOR ( 'NONE', #190, 1000.000000000000000 ) ;
#452 = PLANE ( 'NONE',  #149 ) ;
#453 = MECHANICAL_DESIGN_GEOMETRIC_PRESENTATION_REPRESENTATION (  '', ( #107 ), #480 ) ;
#454 = ORIENTED_EDGE ( 'NONE', *, *, #331, .F. ) ;
#455 = EDGE_CURVE ( 'NONE', #88, #221, #408, .T. ) ;
#456 = DIRECTION ( 'NONE',  ( -1.000000000000000000, 0.000000000000000000, 0.000000000000000000 ) ) ;
#457 = ORIENTED_EDGE ( 'NONE', *, *, #689, .F. ) ;
#458 = ADVANCED_FACE ( 'NONE', ( #234 ), #771, .F. ) ;
#459 = DIRECTION ( 'NONE',  ( 0.000000000000000000, 0.000000000000000000, 1.000000000000000000 ) ) ;
#460 = ORIENTED_EDGE ( 'NONE', *, *, #539, .F. ) ;
#461 = AXIS2_PLACEMENT_3D ( 'NONE', #228, #636, #14 ) ;
#462 = CARTESIAN_POINT ( 'NONE',  ( 16.32022850568125349, -8.500000000000000000, -1.926927408109434303 ) ) ;
#463 = PRESENTATION_LAYER_ASSIGNMENT (  '', '', ( #97 ) ) ;
#464 = ORIENTED_EDGE ( 'NONE', *, *, #423, .F. ) ;
#465 = AXIS2_PLACEMENT_3D ( 'NONE', #686, #268, #215 ) ;
#466 = DIRECTION ( 'NONE',  ( -0.000000000000000000, -1.000000000000000000, -0.000000000000000000 ) ) ;
#467 = CARTESIAN_POINT ( 'NONE',  ( 13.49999999999999822, 4.500000000000000000, 0.000000000000000000 ) ) ;
#468 = ORIENTED_EDGE ( 'NONE', *, *, #689, .T. ) ;
#469 = CYLINDRICAL_SURFACE ( 'NONE', #461, 1.000000000000000888 ) ;
#470 = DIRECTION ( 'NONE',  ( 1.000000000000000000, -0.000000000000000000, 0.000000000000000000 ) ) ;
#471 = CYLINDRICAL_SURFACE ( 'NONE', #701, 1.000000000000000888 ) ;
#472 = ORIENTED_EDGE ( 'NONE', *, *, #549, .F. ) ;
#473 = PRESENTATION_STYLE_ASSIGNMENT (( #1 ) ) ;
#474 = ADVANCED_FACE ( 'NONE', ( #536 ), #289, .T. ) ;
#475 = CARTESIAN_POINT ( 'NONE',  ( 16.32022850568125349, -8.500000000000000000, -29.83251992965577415 ) ) ;
#476 = FACE_OUTER_BOUND ( 'NONE', #292, .T. ) ;
#477 = CARTESIAN_POINT ( 'NONE',  ( 2.017303644436613475, 1.500000000000000000, -29.83251992965577415 ) ) ;
#478 = ORIENTED_EDGE ( 'NONE', *, *, #298, .F. ) ;
#479 = FILL_AREA_STYLE ('',( #56 ) ) ;
#480 =( GEOMETRIC_REPRESENTATION_CONTEXT ( 3 ) GLOBAL_UNCERTAINTY_ASSIGNED_CONTEXT ( ( #131 ) ) GLOBAL_UNIT_ASSIGNED_CONTEXT ( ( #29, #381, #371 ) ) REPRESENTATION_CONTEXT ( 'NONE', 'WORKASPACE' ) );
#481 = CARTESIAN_POINT ( 'NONE',  ( 0.000000000000000000, 0.000000000000000000, -31.00000000000000000 ) ) ;
#482 = DIRECTION ( 'NONE',  ( 0.000000000000000000, 1.000000000000000000, -0.000000000000000000 ) ) ;
#483 = EDGE_LOOP ( 'NONE', ( #428, #155, #608, #644 ) ) ;
#484 =( NAMED_UNIT ( * ) SI_UNIT ( $, .STERADIAN. ) SOLID_ANGLE_UNIT ( ) );
#485 = DIRECTION ( 'NONE',  ( -1.000000000000000000, 0.000000000000000000, 0.000000000000000000 ) ) ;
#486 = FACE_OUTER_BOUND ( 'NONE', #564, .T. ) ;
#487 = AXIS2_PLACEMENT_3D ( 'NONE', #304, #482, #598 ) ;
#488 = ORIENTED_EDGE ( 'NONE', *, *, #760, .F. ) ;
#489 = FACE_OUTER_BOUND ( 'NONE', #615, .T. ) ;
#490 = DIRECTION ( 'NONE',  ( 0.000000000000000000, 0.000000000000000000, 1.000000000000000000 ) ) ;
#491 = AXIS2_PLACEMENT_3D ( 'NONE', #364, #112, #355 ) ;
#492 = LINE ( 'NONE', #475, #655 ) ;
#493 = CARTESIAN_POINT ( 'NONE',  ( 3.583711328643515159, 4.500000000000000888, -26.79471821162028888 ) ) ;
#494 = CIRCLE ( 'NONE', #188, 1.000000000000000888 ) ;
#495 = CARTESIAN_POINT ( 'NONE',  ( 0.000000000000000000, 1.500000000000000000, 0.000000000000000000 ) ) ;
#496 = ORIENTED_EDGE ( 'NONE', *, *, #298, .T. ) ;
#497 = ADVANCED_FACE ( 'NONE', ( #476 ), #705, .F. ) ;
#498 = DIRECTION ( 'NONE',  ( 1.000000000000000000, -0.000000000000000000, 0.000000000000000000 ) ) ;
#499 = CARTESIAN_POINT ( 'NONE',  ( 3.583711328643515159, 1.500000000000000000, -26.79471821162028888 ) ) ;
#500 = VERTEX_POINT ( 'NONE', #481 ) ;
#501 = EDGE_CURVE ( 'NONE', #638, #691, #167, .T. ) ;
#502 = EDGE_CURVE ( 'NONE', #721, #372, #421, .T. ) ;
#503 = CARTESIAN_POINT ( 'NONE',  ( 13.49999999999999822, 4.500000000000000000, -8.000000000000000000 ) ) ;
#504 = AXIS2_PLACEMENT_3D ( 'NONE', #671, #82, #322 ) ;
#505 = EDGE_LOOP ( 'NONE', ( #301, #460, #162, #522 ) ) ;
#506 = PRODUCT_DEFINITION_FORMATION_WITH_SPECIFIED_SOURCE ( 'Symmetric', '', #279, .NOT_KNOWN. ) ;
#507 = LINE ( 'NONE', #503, #451 ) ;
#508 = CARTESIAN_POINT ( 'NONE',  ( 2.017303644436613475, -8.500000000000000000, -28.83251992965577415 ) ) ;
#509 = EDGE_LOOP ( 'NONE', ( #409, #666, #517, #590 ) ) ;
#510 = DIRECTION ( 'NONE',  ( 0.000000000000000000, 1.000000000000000000, -0.000000000000000000 ) ) ;
#511 = EDGE_CURVE ( 'NONE', #241, #217, #281, .T. ) ;
#512 = EDGE_LOOP ( 'NONE', ( #175, #129, #433, #400 ) ) ;
#513 = FACE_BOUND ( 'NONE', #55, .T. ) ;
#514 = ORIENTED_EDGE ( 'NONE', *, *, #232, .F. ) ;
#515 = CARTESIAN_POINT ( 'NONE',  ( 18.00000000000000000, 1.500000000000000000, 0.000000000000000000 ) ) ;
#516 = CIRCLE ( 'NONE', #171, 1.000000000000000222 ) ;
#517 = ORIENTED_EDGE ( 'NONE', *, *, #266, .F. ) ;
#518 = DIRECTION ( 'NONE',  ( -0.000000000000000000, -1.000000000000000000, -0.000000000000000000 ) ) ;
#519 = EDGE_LOOP ( 'NONE', ( #263, #333, #358, #152, #560, #488, #571, #137 ) ) ;
#520 = ADVANCED_FACE ( 'NONE', ( #3 ), #66, .F. ) ;
#521 = FACE_OUTER_BOUND ( 'NONE', #553, .T. ) ;
#522 = ORIENTED_EDGE ( 'NONE', *, *, #337, .T. ) ;
#523 = VECTOR ( 'NONE', #641, 1000.000000000000000 ) ;
#524 = FACE_OUTER_BOUND ( 'NONE', #576, .T. ) ;
#525 = FACE_BOUND ( 'NONE', #344, .T. ) ;
#526 = ORIENTED_EDGE ( 'NONE', *, *, #616, .T. ) ;
#527 = CIRCLE ( 'NONE', #465, 1.000000000000000888 ) ;
#528 = DIRECTION ( 'NONE',  ( 0.000000000000000000, 0.000000000000000000, 1.000000000000000000 ) ) ;
#529 = CARTESIAN_POINT ( 'NONE',  ( 16.32022850568125349, -8.500000000000000000, -27.83251992965577415 ) ) ;
#530 = DIRECTION ( 'NONE',  ( 0.000000000000000000, 0.000000000000000000, 1.000000000000000000 ) ) ;
#531 = DIRECTION ( 'NONE',  ( 1.000000000000000000, 0.000000000000000000, 0.000000000000000000 ) ) ;
#532 = CARTESIAN_POINT ( 'NONE',  ( 0.000000000000000000, 4.500000000000000888, 0.000000000000000000 ) ) ;
#533 = DIRECTION ( 'NONE',  ( 0.000000000000000000, 1.000000000000000000, -0.000000000000000000 ) ) ;
#534 = VERTEX_POINT ( 'NONE', #637 ) ;
#535 = CIRCLE ( 'NONE', #690, 1.000000000000000222 ) ;
#536 = FACE_OUTER_BOUND ( 'NONE', #731, .T. ) ;
#537 = DIRECTION ( 'NONE',  ( 0.000000000000000000, 0.000000000000000000, 1.000000000000000000 ) ) ;
#538 = VERTEX_POINT ( 'NONE', #467 ) ;
#539 = EDGE_CURVE ( 'NONE', #88, #500, #697, .T. ) ;
#540 = DIRECTION ( 'NONE',  ( 1.000000000000000000, -0.000000000000000000, 0.000000000000000000 ) ) ;
#541 = DIRECTION ( 'NONE',  ( 0.000000000000000000, 0.000000000000000000, 1.000000000000000000 ) ) ;
#542 = EDGE_LOOP ( 'NONE', ( #213, #751, #676, #273 ) ) ;
#543 = CARTESIAN_POINT ( 'NONE',  ( 2.017303644436613475, -8.500000000000000000, -29.83251992965577415 ) ) ;
#544 = CARTESIAN_POINT ( 'NONE',  ( 2.017303644436613475, 0.000000000000000000, -3.926927408109436080 ) ) ;
#545 = ORIENTED_EDGE ( 'NONE', *, *, #153, .T. ) ;
#546 = AXIS2_PLACEMENT_3D ( 'NONE', #361, #295, #243 ) ;
#547 = CARTESIAN_POINT ( 'NONE',  ( 16.32022850568125349, 0.000000000000000000, -28.83251992965577415 ) ) ;
#548 = FILL_AREA_STYLE_COLOUR ( '', #209 ) ;
#549 = EDGE_CURVE ( 'NONE', #32, #602, #507, .T. ) ;
#550 = AXIS2_PLACEMENT_3D ( 'NONE', #257, #19, #242 ) ;
#551 = ORIENTED_EDGE ( 'NONE', *, *, #501, .F. ) ;
#552 = SURFACE_STYLE_FILL_AREA ( #139 ) ;
#553 = EDGE_LOOP ( 'NONE', ( #306, #442, #772, #205 ) ) ;
#554 = CARTESIAN_POINT ( 'NONE',  ( 4.500000000000000000, 4.500000000000000000, 0.000000000000000000 ) ) ;
#555 = VERTEX_POINT ( 'NONE', #384 ) ;
#556 = ADVANCED_FACE ( 'NONE', ( #489 ), #601, .F. ) ;
#557 = FACE_OUTER_BOUND ( 'NONE', #21, .T. ) ;
#558 = VECTOR ( 'NONE', #103, 1000.000000000000000 ) ;
#559 = DIRECTION ( 'NONE',  ( 1.000000000000000000, 0.000000000000000000, 0.000000000000000000 ) ) ;
#560 = ORIENTED_EDGE ( 'NONE', *, *, #455, .F. ) ;
#561 = AXIS2_PLACEMENT_3D ( 'NONE', #508, #202, #447 ) ;
#562 = VERTEX_POINT ( 'NONE', #5 ) ;
#563 = CARTESIAN_POINT ( 'NONE',  ( 16.32022850568125349, 1.500000000000000000, -2.926927408109435635 ) ) ;
#564 = EDGE_LOOP ( 'NONE', ( #245, #526, #716, #141 ) ) ;
#565 = DIRECTION ( 'NONE',  ( -0.000000000000000000, -1.000000000000000000, -0.000000000000000000 ) ) ;
#566 = ORIENTED_EDGE ( 'NONE', *, *, #356, .T. ) ;
#567 = CARTESIAN_POINT ( 'NONE',  ( 2.017303644436613475, 0.000000000000000000, -28.83251992965577415 ) ) ;
#568 = ORIENTED_EDGE ( 'NONE', *, *, #252, .T. ) ;
#569 = ADVANCED_FACE ( 'NONE', ( #667 ), #665, .F. ) ;
#570 = CARTESIAN_POINT ( 'NONE',  ( 16.32022850568125349, -8.500000000000000000, -2.926927408109435635 ) ) ;
#571 = ORIENTED_EDGE ( 'NONE', *, *, #331, .T. ) ;
#572 = EDGE_CURVE ( 'NONE', #555, #217, #313, .T. ) ;
#573 = CARTESIAN_POINT ( 'NONE',  ( 3.583711328643515159, 4.500000000000000888, -26.79471821162028888 ) ) ;
#574 = DIRECTION ( 'NONE',  ( -0.000000000000000000, -1.000000000000000000, -0.000000000000000000 ) ) ;
#575 = CIRCLE ( 'NONE', #546, 1.000000000000000222 ) ;
#576 = EDGE_LOOP ( 'NONE', ( #599, #211, #196, #341 ) ) ;
#577 = AXIS2_PLACEMENT_3D ( 'NONE', #579, #412, #426 ) ;
#578 = ADVANCED_FACE ( 'NONE', ( #308 ), #138, .F. ) ;
#579 = CARTESIAN_POINT ( 'NONE',  ( 0.000000000000000000, 1.500000000000000000, 0.000000000000000000 ) ) ;
#580 = LINE ( 'NONE', #286, #643 ) ;
#581 = CIRCLE ( 'NONE', #746, 1.000000000000000888 ) ;
#582 = SURFACE_STYLE_FILL_AREA ( #479 ) ;
#583 = VECTOR ( 'NONE', #352, 1000.000000000000000 ) ;
#584 = DIRECTION ( 'NONE',  ( 0.000000000000000000, 1.000000000000000000, -0.000000000000000000 ) ) ;
#585 = LINE ( 'NONE', #646, #392 ) ;
#586 = CARTESIAN_POINT ( 'NONE',  ( 0.000000000000000000, 1.500000000000000000, 0.000000000000000000 ) ) ;
#587 = ORIENTED_EDGE ( 'NONE', *, *, #2, .F. ) ;
#588 = LINE ( 'NONE', #597, #583 ) ;
#589 = DIRECTION ( 'NONE',  ( -1.000000000000000000, 0.000000000000000000, 0.000000000000000000 ) ) ;
#590 = ORIENTED_EDGE ( 'NONE', *, *, #316, .T. ) ;
#591 = AXIS2_PLACEMENT_3D ( 'NONE', #312, #531, #600 ) ;
#592 = DIRECTION ( 'NONE',  ( 0.000000000000000000, -0.000000000000000000, 1.000000000000000000 ) ) ;
#593 = CARTESIAN_POINT ( 'NONE',  ( 16.32022850568125349, 0.000000000000000000, -27.83251992965577415 ) ) ;
#594 = ORIENTED_EDGE ( 'NONE', *, *, #633, .F. ) ;
#595 = PRODUCT_CONTEXT ( 'NONE', #235, 'mechanical' ) ;
#596 = VECTOR ( 'NONE', #574, 1000.000000000000000 ) ;
#597 = CARTESIAN_POINT ( 'NONE',  ( 3.583711328643515159, 1.500000000000000000, -26.79471821162028888 ) ) ;
#598 = DIRECTION ( 'NONE',  ( 0.000000000000000000, 0.000000000000000000, 1.000000000000000000 ) ) ;
#599 = ORIENTED_EDGE ( 'NONE', *, *, #391, .T. ) ;
#600 = DIRECTION ( 'NONE',  ( 0.000000000000000000, 0.000000000000000000, -1.000000000000000000 ) ) ;
#601 = PLANE ( 'NONE',  #348 ) ;
#602 = VERTEX_POINT ( 'NONE', #605 ) ;
#603 = AXIS2_PLACEMENT_3D ( 'NONE', #6, #432, #652 ) ;
#604 =( LENGTH_UNIT ( ) NAMED_UNIT ( * ) SI_UNIT ( .MILLI., .METRE. ) );
#605 = CARTESIAN_POINT ( 'NONE',  ( 13.49999999999999822, 1.500000000000000000, -8.000000000000000000 ) ) ;
#606 = EDGE_CURVE ( 'NONE', #684, #282, #327, .T. ) ;
#607 = CARTESIAN_POINT ( 'NONE',  ( 0.000000000000000000, 0.000000000000000000, -31.00000000000000000 ) ) ;
#608 = ORIENTED_EDGE ( 'NONE', *, *, #612, .F. ) ;
#609 = VECTOR ( 'NONE', #437, 1000.000000000000000 ) ;
#610 = DIRECTION ( 'NONE',  ( -0.000000000000000000, 1.000000000000000000, -0.000000000000000000 ) ) ;
#611 = DIRECTION ( 'NONE',  ( 0.000000000000000000, 0.000000000000000000, 1.000000000000000000 ) ) ;
#612 = EDGE_CURVE ( 'NONE', #282, #32, #186, .T. ) ;
#613 = ORIENTED_EDGE ( 'NONE', *, *, #356, .F. ) ;
#614 = LINE ( 'NONE', #554, #769 ) ;
#615 = EDGE_LOOP ( 'NONE', ( #450, #472, #623, #496 ) ) ;
#616 = EDGE_CURVE ( 'NONE', #38, #629, #74, .T. ) ;
#617 = CARTESIAN_POINT ( 'NONE',  ( 4.500000000000000000, 4.500000000000000000, -8.000000000000000000 ) ) ;
#618 = CARTESIAN_POINT ( 'NONE',  ( 4.500000000000000000, 4.500000000000000000, -8.000000000000000000 ) ) ;
#619 = AXIS2_PLACEMENT_3D ( 'NONE', #532, #767, #592 ) ;
#620 = ORIENTED_EDGE ( 'NONE', *, *, #677, .T. ) ;
#621 = LINE ( 'NONE', #462, #758 ) ;
#622 = CIRCLE ( 'NONE', #330, 1.000000000000001554 ) ;
#623 = ORIENTED_EDGE ( 'NONE', *, *, #624, .F. ) ;
#624 = EDGE_CURVE ( 'NONE', #538, #32, #674, .T. ) ;
#625 = CARTESIAN_POINT ( 'NONE',  ( 0.000000000000000000, 1.500000000000000000, 0.000000000000000000 ) ) ;
#626 = ORIENTED_EDGE ( 'NONE', *, *, #651, .F. ) ;
#627 = DIRECTION ( 'NONE',  ( 0.000000000000000000, 1.000000000000000000, -0.000000000000000000 ) ) ;
#628 = VECTOR ( 'NONE', #193, 1000.000000000000000 ) ;
#629 = VERTEX_POINT ( 'NONE', #70 ) ;
#630 = COLOUR_RGB ( '',0.000000000000000000, 0.05490196078431372473, 0.9921568627450980671 ) ;
#631 = DIRECTION ( 'NONE',  ( -0.000000000000000000, 1.000000000000000000, -0.000000000000000000 ) ) ;
#632 = VERTEX_POINT ( 'NONE', #194 ) ;
#633 = EDGE_CURVE ( 'NONE', #160, #27, #732, .T. ) ;
#634 = FACE_OUTER_BOUND ( 'NONE', #115, .T. ) ;
#635 = EDGE_LOOP ( 'NONE', ( #594, #468, #620, #464 ) ) ;
#636 = DIRECTION ( 'NONE',  ( -0.000000000000000000, 1.000000000000000000, -0.000000000000000000 ) ) ;
#637 = CARTESIAN_POINT ( 'NONE',  ( 3.583711328643515159, 1.500000000000000000, -12.43921758387390142 ) ) ;
#638 = VERTEX_POINT ( 'NONE', #78 ) ;
#639 = EDGE_CURVE ( 'NONE', #744, #632, #198, .T. ) ;
#640 = FACE_OUTER_BOUND ( 'NONE', #148, .T. ) ;
#641 = DIRECTION ( 'NONE',  ( 1.000000000000000000, -0.000000000000000000, 0.000000000000000000 ) ) ;
#642 = FACE_BOUND ( 'NONE', #18, .T. ) ;
#643 = VECTOR ( 'NONE', #658, 1000.000000000000000 ) ;
#644 = ORIENTED_EDGE ( 'NONE', *, *, #606, .F. ) ;
#645 = DIRECTION ( 'NONE',  ( 0.000000000000000000, 0.000000000000000000, -1.000000000000000000 ) ) ;
#646 = CARTESIAN_POINT ( 'NONE',  ( 11.25722217470615227, 1.500000000000000000, -26.79471821162028888 ) ) ;
#647 = EDGE_CURVE ( 'NONE', #684, #203, #614, .T. ) ;
#648 = FACE_OUTER_BOUND ( 'NONE', #635, .T. ) ;
#649 = ORIENTED_EDGE ( 'NONE', *, *, #444, .F. ) ;
#650 = CARTESIAN_POINT ( 'NONE',  ( 0.000000000000000000, 1.500000000000000000, 0.000000000000000000 ) ) ;
#651 = EDGE_CURVE ( 'NONE', #60, #271, #214, .T. ) ;
#652 = DIRECTION ( 'NONE',  ( 0.000000000000000000, 0.000000000000000000, 1.000000000000000000 ) ) ;
#653 = ADVANCED_FACE ( 'NONE', ( #557 ), #25, .F. ) ;
#654 = EDGE_LOOP ( 'NONE', ( #394, #208, #770, #698 ) ) ;
#655 = VECTOR ( 'NONE', #189, 1000.000000000000000 ) ;
#656 = AXIS2_PLACEMENT_3D ( 'NONE', #285, #224, #173 ) ;
#657 = DIRECTION ( 'NONE',  ( -0.000000000000000000, -0.000000000000000000, -1.000000000000000000 ) ) ;
#658 = DIRECTION ( 'NONE',  ( -0.000000000000000000, -1.000000000000000000, -0.000000000000000000 ) ) ;
#659 = ORIENTED_EDGE ( 'NONE', *, *, #345, .T. ) ;
#660 = DIRECTION ( 'NONE',  ( -1.000000000000000000, 0.000000000000000000, 0.000000000000000000 ) ) ;
#661 = CARTESIAN_POINT ( 'NONE',  ( 18.00000000000000000, 1.500000000000000000, 0.000000000000000000 ) ) ;
#662 = VERTEX_POINT ( 'NONE', #446 ) ;
#663 = CARTESIAN_POINT ( 'NONE',  ( 3.583711328643515159, 4.500000000000000888, -26.79471821162028888 ) ) ;
#664 = PRODUCT_DEFINITION ( 'General', '', #506, #17 ) ;
#665 = CYLINDRICAL_SURFACE ( 'NONE', #8, 1.000000000000000222 ) ;
#666 = ORIENTED_EDGE ( 'NONE', *, *, #720, .F. ) ;
#667 = FACE_OUTER_BOUND ( 'NONE', #414, .T. ) ;
#668 = EDGE_CURVE ( 'NONE', #282, #755, #388, .T. ) ;
#669 = PRESENTATION_STYLE_ASSIGNMENT (( #128 ) ) ;
#670 = EDGE_LOOP ( 'NONE', ( #40, #448 ) ) ;
#671 = CARTESIAN_POINT ( 'NONE',  ( 2.017303644436613475, 0.000000000000000000, -28.83251992965577415 ) ) ;
#672 = DIRECTION ( 'NONE',  ( 0.000000000000000000, 1.000000000000000000, -0.000000000000000000 ) ) ;
#673 = ORIENTED_EDGE ( 'NONE', *, *, #335, .F. ) ;
#674 = LINE ( 'NONE', #127, #293 ) ;
#675 = CARTESIAN_POINT ( 'NONE',  ( 2.017303644436613475, 1.500000000000000000, -28.83251992965577415 ) ) ;
#676 = ORIENTED_EDGE ( 'NONE', *, *, #24, .F. ) ;
#677 = EDGE_CURVE ( 'NONE', #405, #92, #157, .T. ) ;
#678 = FACE_OUTER_BOUND ( 'NONE', #509, .T. ) ;
#679 = VECTOR ( 'NONE', #430, 1000.000000000000000 ) ;
#680 = ORIENTED_EDGE ( 'NONE', *, *, #651, .T. ) ;
#681 = ADVANCED_FACE ( 'NONE', ( #524 ), #368, .F. ) ;
#682 = CIRCLE ( 'NONE', #380, 1.000000000000001554 ) ;
#683 = DIRECTION ( 'NONE',  ( 1.000000000000000000, -0.000000000000000000, 0.000000000000000000 ) ) ;
#684 = VERTEX_POINT ( 'NONE', #166 ) ;
#685 = EDGE_CURVE ( 'NONE', #629, #329, #535, .T. ) ;
#686 = CARTESIAN_POINT ( 'NONE',  ( 16.32022850568125349, 0.000000000000000000, -28.83251992965577415 ) ) ;
#687 = ORIENTED_EDGE ( 'NONE', *, *, #376, .T. ) ;
#688 = FACE_BOUND ( 'NONE', #102, .T. ) ;
#689 = EDGE_CURVE ( 'NONE', #160, #405, #492, .T. ) ;
#690 = AXIS2_PLACEMENT_3D ( 'NONE', #284, #584, #528 ) ;
#691 = VERTEX_POINT ( 'NONE', #699 ) ;
#692 = LINE ( 'NONE', #753, #264 ) ;
#693 = ADVANCED_FACE ( 'NONE', ( #640 ), #73, .T. ) ;
#694 = VECTOR ( 'NONE', #31, 1000.000000000000000 ) ;
#695 = ORIENTED_EDGE ( 'NONE', *, *, #502, .F. ) ;
#696 = LINE ( 'NONE', #434, #197 ) ;
#697 = LINE ( 'NONE', #375, #679 ) ;
#698 = ORIENTED_EDGE ( 'NONE', *, *, #539, .T. ) ;
#699 = CARTESIAN_POINT ( 'NONE',  ( 11.25722217470615227, 4.500000000000000888, -26.79471821162028888 ) ) ;
#700 = DIRECTION ( 'NONE',  ( -0.000000000000000000, 1.000000000000000000, -0.000000000000000000 ) ) ;
#701 = AXIS2_PLACEMENT_3D ( 'NONE', #63, #422, #530 ) ;
#702 = DIRECTION ( 'NONE',  ( 0.000000000000000000, 0.000000000000000000, 1.000000000000000000 ) ) ;
#703 = ORIENTED_EDGE ( 'NONE', *, *, #11, .F. ) ;
#704 = CARTESIAN_POINT ( 'NONE',  ( 4.500000000000000000, 1.500000000000000000, 0.000000000000000000 ) ) ;
#705 = CYLINDRICAL_SURFACE ( 'NONE', #656, 1.000000000000001554 ) ;
#706 = LINE ( 'NONE', #413, #269 ) ;
#707 = VECTOR ( 'NONE', #730, 1000.000000000000000 ) ;
#708 = EDGE_LOOP ( 'NONE', ( #649, #256, #320, #317 ) ) ;
#709 = PLANE ( 'NONE',  #491 ) ;
#710 = LINE ( 'NONE', #187, #321 ) ;
#711 = VERTEX_POINT ( 'NONE', #766 ) ;
#712 = CARTESIAN_POINT ( 'NONE',  ( 16.32022850568125349, 1.500000000000000000, -29.83251992965577415 ) ) ;
#713 = CLOSED_SHELL ( 'NONE', ( #497, #270, #22, #119, #385, #54, #458, #653, #435, #136, #556, #693, #382, #170, #681, #578, #520, #353, #474, #569, #715, #35, #297 ) ) ;
#714 = ORIENTED_EDGE ( 'NONE', *, *, #266, .T. ) ;
#715 = ADVANCED_FACE ( 'NONE', ( #374 ), #469, .F. ) ;
#716 = ORIENTED_EDGE ( 'NONE', *, *, #685, .T. ) ;
#717 = AXIS2_PLACEMENT_3D ( 'NONE', #122, #116, #360 ) ;
#718 = CARTESIAN_POINT ( 'NONE',  ( 4.500000000000000000, 4.500000000000000000, 0.000000000000000000 ) ) ;
#719 = FACE_BOUND ( 'NONE', #132, .T. ) ;
#720 = EDGE_CURVE ( 'NONE', #744, #764, #411, .T. ) ;
#721 = VERTEX_POINT ( 'NONE', #126 ) ;
#722 = CARTESIAN_POINT ( 'NONE',  ( 16.32022850568125349, 1.500000000000000000, -28.83251992965577415 ) ) ;
#723 = AXIS2_PLACEMENT_3D ( 'NONE', #570, #398, #334 ) ;
#724 = CARTESIAN_POINT ( 'NONE',  ( 0.000000000000000000, 4.500000000000000000, -8.000000000000000000 ) ) ;
#725 = DIRECTION ( 'NONE',  ( -0.000000000000000000, -1.000000000000000000, -0.000000000000000000 ) ) ;
#726 = ORIENTED_EDGE ( 'NONE', *, *, #668, .F. ) ;
#727 =( NAMED_UNIT ( * ) PLANE_ANGLE_UNIT ( ) SI_UNIT ( $, .RADIAN. ) );
#728 = EDGE_CURVE ( 'NONE', #755, #203, #416, .T. ) ;
#729 = DIRECTION ( 'NONE',  ( -0.000000000000000000, 1.000000000000000000, -0.000000000000000000 ) ) ;
#730 = DIRECTION ( 'NONE',  ( -1.000000000000000000, -0.000000000000000000, -0.000000000000000000 ) ) ;
#731 = EDGE_LOOP ( 'NONE', ( #259, #183, #226, #714 ) ) ;
#732 = CIRCLE ( 'NONE', #401, 1.000000000000000888 ) ;
#733 = CARTESIAN_POINT ( 'NONE',  ( 2.017303644436613475, -8.500000000000000000, -3.926927408109436080 ) ) ;
#734 = CARTESIAN_POINT ( 'NONE',  ( 16.32022850568125349, 0.000000000000000000, -2.926927408109435635 ) ) ;
#735 = ORIENTED_EDGE ( 'NONE', *, *, #153, .F. ) ;
#736 =( GEOMETRIC_REPRESENTATION_CONTEXT ( 3 ) GLOBAL_UNCERTAINTY_ASSIGNED_CONTEXT ( ( #140 ) ) GLOBAL_UNIT_ASSIGNED_CONTEXT ( ( #50, #420, #484 ) ) REPRESENTATION_CONTEXT ( 'NONE', 'WORKASPACE' ) );
#737 = DIRECTION ( 'NONE',  ( -1.000000000000000000, 0.000000000000000000, 0.000000000000000000 ) ) ;
#738 = LINE ( 'NONE', #661, #415 ) ;
#739 = ORIENTED_EDGE ( 'NONE', *, *, #11, .T. ) ;
#740 = FACE_OUTER_BOUND ( 'NONE', #96, .T. ) ;
#741 = EDGE_CURVE ( 'NONE', #662, #500, #696, .T. ) ;
#742 = ORIENTED_EDGE ( 'NONE', *, *, #403, .F. ) ;
#743 = CYLINDRICAL_SURFACE ( 'NONE', #723, 1.000000000000001554 ) ;
#744 = VERTEX_POINT ( 'NONE', #663 ) ;
#745 = EDGE_CURVE ( 'NONE', #562, #329, #51, .T. ) ;
#746 = AXIS2_PLACEMENT_3D ( 'NONE', #20, #83, #441 ) ;
#747 = DIRECTION ( 'NONE',  ( 0.000000000000000000, 1.000000000000000000, -0.000000000000000000 ) ) ;
#748 = ORIENTED_EDGE ( 'NONE', *, *, #444, .T. ) ;
#749 = EDGE_CURVE ( 'NONE', #120, #76, #172, .T. ) ;
#750 = LINE ( 'NONE', #150, #124 ) ;
#751 = ORIENTED_EDGE ( 'NONE', *, *, #399, .F. ) ;
#752 = AXIS2_PLACEMENT_3D ( 'NONE', #418, #357, #702 ) ;
#753 = CARTESIAN_POINT ( 'NONE',  ( 13.49999999999999822, 1.500000000000000000, 0.000000000000000000 ) ) ;
#754 = VECTOR ( 'NONE', #645, 1000.000000000000000 ) ;
#755 = VERTEX_POINT ( 'NONE', #253 ) ;
#756 = AXIS2_PLACEMENT_3D ( 'NONE', #239, #485, #303 ) ;
#757 = FACE_BOUND ( 'NONE', #110, .T. ) ;
#758 = VECTOR ( 'NONE', #631, 1000.000000000000000 ) ;
#759 = ORIENTED_EDGE ( 'NONE', *, *, #345, .F. ) ;
#760 = EDGE_CURVE ( 'NONE', #354, #88, #69, .T. ) ;
#761 = DIRECTION ( 'NONE',  ( 0.000000000000000000, 1.000000000000000000, -0.000000000000000000 ) ) ;
#762 = CARTESIAN_POINT ( 'NONE',  ( 11.25722217470615227, 4.500000000000000888, -12.43921758387390142 ) ) ;
#763 = ORIENTED_EDGE ( 'NONE', *, *, #2, .T. ) ;
#764 = VERTEX_POINT ( 'NONE', #100 ) ;
#765 = APPLICATION_PROTOCOL_DEFINITION ( 'draft international standard', 'automotive_design', 1998, #373 ) ;
#766 = CARTESIAN_POINT ( 'NONE',  ( 16.32022850568125349, 0.000000000000000000, -1.926927408109434303 ) ) ;
#767 = DIRECTION ( 'NONE',  ( 0.000000000000000000, 1.000000000000000000, 0.000000000000000000 ) ) ;
#768 = FACE_OUTER_BOUND ( 'NONE', #512, .T. ) ;
#769 = VECTOR ( 'NONE', #443, 1000.000000000000000 ) ;
#770 = ORIENTED_EDGE ( 'NONE', *, *, #760, .T. ) ;
#771 = PLANE ( 'NONE',  #577 ) ;
#772 = ORIENTED_EDGE ( 'NONE', *, *, #647, .F. ) ;
ENDSEC;
END-ISO-10303-21;
