ISO-10303-21;
HEADER;
FILE_DESCRIPTION (( 'STEP AP214' ),
    '1' );
FILE_NAME ('bottom seal.STEP',
    '2026-08-21T18:09:49',
    ( '' ),
    ( '' ),
    'SwSTEP 2.0',
    'SolidWorks 2025',
    '' );
FILE_SCHEMA (( 'AUTOMOTIVE_DESIGN' ));
ENDSEC;

DATA;
#1 = CARTESIAN_POINT ( 'NONE',  ( 0.000000000000000000, 0.000000000000000000, 0.000000000000000000 ) ) ;
#2 = DIRECTION ( 'NONE',  ( 0.1391731009600657432, 0.000000000000000000, 0.9902680687415703620 ) ) ;
#3 = AXIS2_PLACEMENT_3D ( 'NONE', #184, #159, #316 ) ;
#4 = EDGE_LOOP ( 'NONE', ( #295, #166, #58, #12 ) ) ;
#5 = DIRECTION ( 'NONE',  ( 1.000000000000000000, 0.000000000000000000, 0.000000000000000000 ) ) ;
#6 = PRESENTATION_LAYER_ASSIGNMENT (  '', '', ( #137 ) ) ;
#7 = ORIENTED_EDGE ( 'NONE', *, *, #271, .T. ) ;
#8 =( GEOMETRIC_REPRESENTATION_CONTEXT ( 3 ) GLOBAL_UNCERTAINTY_ASSIGNED_CONTEXT ( ( #142 ) ) GLOBAL_UNIT_ASSIGNED_CONTEXT ( ( #18, #179, #227 ) ) REPRESENTATION_CONTEXT ( 'NONE', 'WORKASPACE' ) );
#9 = VERTEX_POINT ( 'NONE', #152 ) ;
#10 = VERTEX_POINT ( 'NONE', #311 ) ;
#11 = VECTOR ( 'NONE', #200, 1000.000000000000114 ) ;
#12 = ORIENTED_EDGE ( 'NONE', *, *, #165, .F. ) ;
#13 = DIRECTION ( 'NONE',  ( 0.000000000000000000, 0.000000000000000000, 1.000000000000000000 ) ) ;
#14 = EDGE_CURVE ( 'NONE', #30, #244, #65, .T. ) ;
#15 = SURFACE_STYLE_USAGE ( .BOTH. , #93 ) ;
#16 = CARTESIAN_POINT ( 'NONE',  ( 12.00000000000001066, 1.499999999999991784, 0.000000000000000000 ) ) ;
#17 = VECTOR ( 'NONE', #318, 1000.000000000000000 ) ;
#18 =( LENGTH_UNIT ( ) NAMED_UNIT ( * ) SI_UNIT ( .MILLI., .METRE. ) );
#19 = LINE ( 'NONE', #177, #266 ) ;
#20 = CARTESIAN_POINT ( 'NONE',  ( 56.78108166940478441, 0.2810816694047707509, 2.000000000000000000 ) ) ;
#21 = DIRECTION ( 'NONE',  ( 0.000000000000000000, -0.1391731009600657432, 0.9902680687415703620 ) ) ;
#22 = FACE_OUTER_BOUND ( 'NONE', #252, .T. ) ;
#23 = DIRECTION ( 'NONE',  ( 1.000000000000000000, 0.000000000000000000, 0.000000000000000000 ) ) ;
#24 = CARTESIAN_POINT ( 'NONE',  ( 13.21891833059522980, -1.298405847906773058E-14, 2.000000000000000000 ) ) ;
#25 = EDGE_CURVE ( 'NONE', #59, #290, #19, .T. ) ;
#26 = CARTESIAN_POINT ( 'NONE',  ( 56.50000000000000000, -1.280036534392694981E-14, 0.000000000000000000 ) ) ;
#27 = ORIENTED_EDGE ( 'NONE', *, *, #87, .T. ) ;
#28 = SURFACE_STYLE_FILL_AREA ( #234 ) ;
#29 = DIRECTION ( 'NONE',  ( 0.000000000000000000, 0.9902680687415703620, 0.1391731009600657432 ) ) ;
#30 = VERTEX_POINT ( 'NONE', #20 ) ;
#31 = ADVANCED_FACE ( 'NONE', ( #326 ), #175, .T. ) ;
#32 = ORIENTED_EDGE ( 'NONE', *, *, #187, .T. ) ;
#33 = VECTOR ( 'NONE', #148, 1000.000000000000114 ) ;
#34 = APPLICATION_PROTOCOL_DEFINITION ( 'draft international standard', 'automotive_design', 1998, #105 ) ;
#35 = ORIENTED_EDGE ( 'NONE', *, *, #323, .T. ) ;
#36 = VECTOR ( 'NONE', #157, 1000.000000000000000 ) ;
#37 = VERTEX_POINT ( 'NONE', #331 ) ;
#38 = ORIENTED_EDGE ( 'NONE', *, *, #25, .F. ) ;
#39 = EDGE_CURVE ( 'NONE', #170, #10, #42, .T. ) ;
#40 = CARTESIAN_POINT ( 'NONE',  ( 57.99999999999999289, 1.218918330595217148, 2.000000000000000000 ) ) ;
#41 = PLANE ( 'NONE',  #110 ) ;
#42 = LINE ( 'NONE', #126, #178 ) ;
#43 = VECTOR ( 'NONE', #258, 1000.000000000000114 ) ;
#44 = FACE_BOUND ( 'NONE', #301, .T. ) ;
#45 = VERTEX_POINT ( 'NONE', #278 ) ;
#46 = PLANE ( 'NONE',  #229 ) ;
#47 = MECHANICAL_DESIGN_GEOMETRIC_PRESENTATION_REPRESENTATION (  '', ( #137 ), #222 ) ;
#48 = CARTESIAN_POINT ( 'NONE',  ( 56.49999999999999289, -26.00000000000001776, 0.000000000000000000 ) ) ;
#49 = LINE ( 'NONE', #74, #298 ) ;
#50 = LINE ( 'NONE', #108, #43 ) ;
#51 = FILL_AREA_STYLE_COLOUR ( '', #181 ) ;
#52 = DIRECTION ( 'NONE',  ( 0.000000000000000000, -1.000000000000000000, 0.000000000000000000 ) ) ;
#53 = VERTEX_POINT ( 'NONE', #281 ) ;
#54 = CARTESIAN_POINT ( 'NONE',  ( 56.50000000000000000, -1.280036534392694981E-14, 0.000000000000000000 ) ) ;
#55 = ORIENTED_EDGE ( 'NONE', *, *, #193, .F. ) ;
#56 = ORIENTED_EDGE ( 'NONE', *, *, #259, .F. ) ;
#57 = SURFACE_STYLE_USAGE ( .BOTH. , #79 ) ;
#58 = ORIENTED_EDGE ( 'NONE', *, *, #39, .F. ) ;
#59 = VERTEX_POINT ( 'NONE', #203 ) ;
#60 = EDGE_CURVE ( 'NONE', #37, #59, #308, .T. ) ;
#61 = ORIENTED_EDGE ( 'NONE', *, *, #117, .T. ) ;
#62 = CARTESIAN_POINT ( 'NONE',  ( 57.99999999999999289, 1.500000000000000444, 0.000000000000000000 ) ) ;
#63 = DIRECTION ( 'NONE',  ( 0.000000000000000000, -0.1391731009600657432, -0.9902680687415703620 ) ) ;
#64 = LINE ( 'NONE', #62, #163 ) ;
#65 = LINE ( 'NONE', #226, #167 ) ;
#66 = VECTOR ( 'NONE', #256, 1000.000000000000000 ) ;
#67 = FACE_OUTER_BOUND ( 'NONE', #4, .T. ) ;
#68 = ORIENTED_EDGE ( 'NONE', *, *, #173, .F. ) ;
#69 = AXIS2_PLACEMENT_3D ( 'NONE', #1, #103, #5 ) ;
#70 = LINE ( 'NONE', #287, #36 ) ;
#71 = PRODUCT_DEFINITION ( 'General', '', #86, #168 ) ;
#72 = CARTESIAN_POINT ( 'NONE',  ( 56.49999999999999289, -26.00000000000001776, 0.000000000000000000 ) ) ;
#73 = SHAPE_DEFINITION_REPRESENTATION ( #91, #156 ) ;
#74 = CARTESIAN_POINT ( 'NONE',  ( 56.50000000000000000, 0.2810816694047706954, 2.000000000000000000 ) ) ;
#75 = ORIENTED_EDGE ( 'NONE', *, *, #187, .F. ) ;
#76 = LINE ( 'NONE', #208, #211 ) ;
#77 = COLOUR_RGB ( '',0.7960784313725489669, 0.8235294117647058432, 0.9372549019607843146 ) ;
#78 = EDGE_LOOP ( 'NONE', ( #317, #240, #61, #268 ) ) ;
#79 = SURFACE_SIDE_STYLE ('',( #28 ) ) ;
#80 = ORIENTED_EDGE ( 'NONE', *, *, #286, .F. ) ;
#81 = ORIENTED_EDGE ( 'NONE', *, *, #129, .T. ) ;
#82 = ADVANCED_FACE ( 'NONE', ( #67, #333 ), #205, .F. ) ;
#83 = UNCERTAINTY_MEASURE_WITH_UNIT (LENGTH_MEASURE( 1.000000000000000082E-05 ), #134, 'distance_accuracy_value', 'NONE');
#84 = VECTOR ( 'NONE', #337, 1000.000000000000000 ) ;
#85 = ORIENTED_EDGE ( 'NONE', *, *, #147, .T. ) ;
#86 = PRODUCT_DEFINITION_FORMATION_WITH_SPECIFIED_SOURCE ( 'Symmetric', '', #297, .NOT_KNOWN. ) ;
#87 = EDGE_CURVE ( 'NONE', #294, #284, #302, .T. ) ;
#88 = DIRECTION ( 'NONE',  ( -0.000000000000000000, 1.000000000000000000, -0.000000000000000000 ) ) ;
#89 = APPLICATION_CONTEXT ( 'automotive_design' ) ;
#90 =( NAMED_UNIT ( * ) SI_UNIT ( $, .STERADIAN. ) SOLID_ANGLE_UNIT ( ) );
#91 = PRODUCT_DEFINITION_SHAPE ( 'NONE', 'NONE',  #71 ) ;
#92 = DIRECTION ( 'NONE',  ( 4.230359213417361010E-18, -0.9902680687415703620, 0.1391731009600657432 ) ) ;
#93 = SURFACE_SIDE_STYLE ('',( #127 ) ) ;
#94 = CARTESIAN_POINT ( 'NONE',  ( 56.50000000000000000, -1.280036534392694981E-14, 0.000000000000000000 ) ) ;
#95 = DIRECTION ( 'NONE',  ( 0.000000000000000000, 0.000000000000000000, 1.000000000000000000 ) ) ;
#96 = DIRECTION ( 'NONE',  ( 0.9902680687415702510, 0.000000000000000000, 0.1391731009600657432 ) ) ;
#97 = DIRECTION ( 'NONE',  ( 1.000000000000000000, 0.000000000000000000, -0.000000000000000000 ) ) ;
#98 = DIRECTION ( 'NONE',  ( -1.000000000000000000, -1.885568995626965026E-16, 0.000000000000000000 ) ) ;
#99 = ORIENTED_EDGE ( 'NONE', *, *, #219, .T. ) ;
#100 = FILL_AREA_STYLE_COLOUR ( '', #77 ) ;
#101 = CARTESIAN_POINT ( 'NONE',  ( 57.99999999999999289, -27.50000000000001776, 0.000000000000000000 ) ) ;
#102 = EDGE_CURVE ( 'NONE', #284, #324, #146, .T. ) ;
#103 = DIRECTION ( 'NONE',  ( 0.000000000000000000, 0.000000000000000000, 1.000000000000000000 ) ) ;
#104 = DIRECTION ( 'NONE',  ( 0.1378445374916289212, -0.1378445374916289212, -0.9808148484639890308 ) ) ;
#105 = APPLICATION_CONTEXT ( 'automotive_design' ) ;
#106 = CARTESIAN_POINT ( 'NONE',  ( 56.78108166940477730, -26.28108166940479862, 2.000000000000000000 ) ) ;
#107 = VECTOR ( 'NONE', #248, 1000.000000000000000 ) ;
#108 = CARTESIAN_POINT ( 'NONE',  ( 12.00000000000001421, -27.50000000000001776, 0.000000000000000000 ) ) ;
#109 = ORIENTED_EDGE ( 'NONE', *, *, #102, .T. ) ;
#110 = AXIS2_PLACEMENT_3D ( 'NONE', #275, #95, #97 ) ;
#111 = EDGE_LOOP ( 'NONE', ( #217, #149, #38, #214 ) ) ;
#112 =( NAMED_UNIT ( * ) SI_UNIT ( $, .STERADIAN. ) SOLID_ANGLE_UNIT ( ) );
#113 = VERTEX_POINT ( 'NONE', #274 ) ;
#114 = PRODUCT_RELATED_PRODUCT_CATEGORY ( 'part', '', ( #297 ) ) ;
#115 = EDGE_LOOP ( 'NONE', ( #206, #35, #32, #99 ) ) ;
#116 = VECTOR ( 'NONE', #198, 1000.000000000000000 ) ;
#117 = EDGE_CURVE ( 'NONE', #290, #113, #155, .T. ) ;
#118 = PLANE ( 'NONE',  #310 ) ;
#119 = CARTESIAN_POINT ( 'NONE',  ( 57.99999999999999289, -27.50000000000001776, 0.000000000000000000 ) ) ;
#120 = LINE ( 'NONE', #224, #11 ) ;
#121 = ADVANCED_FACE ( 'NONE', ( #250 ), #118, .T. ) ;
#122 = ORIENTED_EDGE ( 'NONE', *, *, #264, .F. ) ;
#123 = ORIENTED_EDGE ( 'NONE', *, *, #247, .F. ) ;
#124 = PRESENTATION_LAYER_ASSIGNMENT (  '', '', ( #272 ) ) ;
#125 = LINE ( 'NONE', #174, #300 ) ;
#126 = CARTESIAN_POINT ( 'NONE',  ( 57.99999999999999289, 1.500000000000000444, 0.000000000000000000 ) ) ;
#127 = SURFACE_STYLE_FILL_AREA ( #151 ) ;
#128 = LINE ( 'NONE', #336, #215 ) ;
#129 = EDGE_CURVE ( 'NONE', #290, #170, #64, .T. ) ;
#130 = CARTESIAN_POINT ( 'NONE',  ( 12.00000000000001421, -27.50000000000001776, 0.000000000000000000 ) ) ;
#131 = DIRECTION ( 'NONE',  ( 0.000000000000000000, -1.000000000000000000, 0.000000000000000000 ) ) ;
#132 = DIRECTION ( 'NONE',  ( 0.1378445374916289212, -0.1378445374916288935, -0.9808148484639890308 ) ) ;
#133 = ORIENTED_EDGE ( 'NONE', *, *, #199, .T. ) ;
#134 =( LENGTH_UNIT ( ) NAMED_UNIT ( * ) SI_UNIT ( .MILLI., .METRE. ) );
#135 = AXIS2_PLACEMENT_3D ( 'NONE', #303, #96, #172 ) ;
#136 = ORIENTED_EDGE ( 'NONE', *, *, #329, .T. ) ;
#137 = STYLED_ITEM ( 'NONE', ( #291 ), #156 ) ;
#138 = AXIS2_PLACEMENT_3D ( 'NONE', #201, #307, #204 ) ;
#139 = ORIENTED_EDGE ( 'NONE', *, *, #140, .T. ) ;
#140 = EDGE_CURVE ( 'NONE', #10, #45, #305, .T. ) ;
#141 = VERTEX_POINT ( 'NONE', #119 ) ;
#142 = UNCERTAINTY_MEASURE_WITH_UNIT (LENGTH_MEASURE( 1.000000000000000082E-05 ), #18, 'distance_accuracy_value', 'NONE');
#143 = ORIENTED_EDGE ( 'NONE', *, *, #14, .F. ) ;
#144 = CARTESIAN_POINT ( 'NONE',  ( 0.000000000000000000, 0.000000000000000000, 0.000000000000000000 ) ) ;
#145 =( LENGTH_UNIT ( ) NAMED_UNIT ( * ) SI_UNIT ( .MILLI., .METRE. ) );
#146 = LINE ( 'NONE', #48, #251 ) ;
#147 = EDGE_CURVE ( 'NONE', #113, #10, #120, .T. ) ;
#148 = DIRECTION ( 'NONE',  ( 0.1378445374916289212, 0.1378445374916289212, -0.9808148484639890308 ) ) ;
#149 = ORIENTED_EDGE ( 'NONE', *, *, #129, .F. ) ;
#150 = AXIS2_PLACEMENT_3D ( 'NONE', #144, #13, #180 ) ;
#151 = FILL_AREA_STYLE ('',( #100 ) ) ;
#152 = CARTESIAN_POINT ( 'NONE',  ( 13.21891833059522980, 0.2810816694047705844, 2.000000000000000000 ) ) ;
#153 = FACE_OUTER_BOUND ( 'NONE', #78, .T. ) ;
#154 = ADVANCED_FACE ( 'NONE', ( #330 ), #202, .T. ) ;
#155 = LINE ( 'NONE', #40, #66 ) ;
#156 = ADVANCED_BREP_SHAPE_REPRESENTATION ( 'bottom seal', ( #334, #69 ), #241 ) ;
#157 = DIRECTION ( 'NONE',  ( 2.668805347656626185E-16, 1.000000000000000000, -0.000000000000000000 ) ) ;
#158 = LINE ( 'NONE', #314, #169 ) ;
#159 = DIRECTION ( 'NONE',  ( -1.867218767778496962E-16, 0.9902680687415703620, 0.1391731009600657432 ) ) ;
#160 = ORIENTED_EDGE ( 'NONE', *, *, #87, .F. ) ;
#161 = FACE_OUTER_BOUND ( 'NONE', #212, .T. ) ;
#162 = ORIENTED_EDGE ( 'NONE', *, *, #286, .T. ) ;
#163 = VECTOR ( 'NONE', #327, 1000.000000000000000 ) ;
#164 = EDGE_LOOP ( 'NONE', ( #75, #143, #246, #196 ) ) ;
#165 = EDGE_CURVE ( 'NONE', #141, #170, #210, .T. ) ;
#166 = ORIENTED_EDGE ( 'NONE', *, *, #140, .F. ) ;
#167 = VECTOR ( 'NONE', #253, 1000.000000000000114 ) ;
#168 = PRODUCT_DEFINITION_CONTEXT ( 'detailed design', #89, 'design' ) ;
#169 = VECTOR ( 'NONE', #260, 1000.000000000000000 ) ;
#170 = VERTEX_POINT ( 'NONE', #338 ) ;
#171 = DIRECTION ( 'NONE',  ( -0.1378445374916288935, 0.1378445374916289212, -0.9808148484639890308 ) ) ;
#172 = DIRECTION ( 'NONE',  ( 0.1391731009600657432, 0.000000000000000000, -0.9902680687415702510 ) ) ;
#173 = EDGE_CURVE ( 'NONE', #113, #37, #76, .T. ) ;
#174 = CARTESIAN_POINT ( 'NONE',  ( 56.49999999999999289, -26.00000000000001776, 0.000000000000000000 ) ) ;
#175 = PLANE ( 'NONE',  #135 ) ;
#176 = FACE_OUTER_BOUND ( 'NONE', #194, .T. ) ;
#177 = CARTESIAN_POINT ( 'NONE',  ( 57.71891833059520849, -27.50000000000001776, 2.000000000000000000 ) ) ;
#178 = VECTOR ( 'NONE', #98, 1000.000000000000000 ) ;
#179 =( NAMED_UNIT ( * ) PLANE_ANGLE_UNIT ( ) SI_UNIT ( $, .RADIAN. ) );
#180 = DIRECTION ( 'NONE',  ( 1.000000000000000000, 0.000000000000000000, -0.000000000000000000 ) ) ;
#181 = COLOUR_RGB ( '',0.7960784313725489669, 0.8235294117647058432, 0.9372549019607843146 ) ;
#182 = AXIS2_PLACEMENT_3D ( 'NONE', #72, #236, #2 ) ;
#183 = CARTESIAN_POINT ( 'NONE',  ( 13.50000000000001421, -26.00000000000001776, 0.000000000000000000 ) ) ;
#184 = CARTESIAN_POINT ( 'NONE',  ( 57.99999999999999289, 1.500000000000000444, 0.000000000000000000 ) ) ;
#185 = CARTESIAN_POINT ( 'NONE',  ( 57.99999999999999289, -27.50000000000001776, 0.000000000000000000 ) ) ;
#186 = DIRECTION ( 'NONE',  ( -1.000000000000000000, -4.271933375367025289E-18, 0.000000000000000000 ) ) ;
#187 = EDGE_CURVE ( 'NONE', #244, #321, #315, .T. ) ;
#188 = ORIENTED_EDGE ( 'NONE', *, *, #60, .F. ) ;
#189 = PLANE ( 'NONE',  #182 ) ;
#190 = EDGE_LOOP ( 'NONE', ( #192, #221, #216, #319 ) ) ;
#191 = PRODUCT_CONTEXT ( 'NONE', #105, 'mechanical' ) ;
#192 = ORIENTED_EDGE ( 'NONE', *, *, #323, .F. ) ;
#193 = EDGE_CURVE ( 'NONE', #30, #9, #49, .T. ) ;
#194 = EDGE_LOOP ( 'NONE', ( #270, #123, #162, #136 ) ) ;
#195 = CLOSED_SHELL ( 'NONE', ( #296, #82, #312, #31, #154, #299, #245, #239, #121, #306 ) ) ;
#196 = ORIENTED_EDGE ( 'NONE', *, *, #247, .T. ) ;
#197 = VECTOR ( 'NONE', #23, 1000.000000000000000 ) ;
#198 = DIRECTION ( 'NONE',  ( 1.000000000000000000, -0.000000000000000000, -0.000000000000000000 ) ) ;
#199 = EDGE_CURVE ( 'NONE', #37, #45, #50, .T. ) ;
#200 = DIRECTION ( 'NONE',  ( -0.1378445374916289490, 0.1378445374916288935, -0.9808148484639890308 ) ) ;
#201 = CARTESIAN_POINT ( 'NONE',  ( 13.50000000000001421, -1.298405847906773058E-14, 0.000000000000000000 ) ) ;
#202 = PLANE ( 'NONE',  #3 ) ;
#203 = CARTESIAN_POINT ( 'NONE',  ( 57.71891833059520849, -27.21891833059523336, 2.000000000000000000 ) ) ;
#204 = DIRECTION ( 'NONE',  ( 0.1391731009600657432, 0.000000000000000000, -0.9902680687415703620 ) ) ;
#205 = PLANE ( 'NONE',  #150 ) ;
#206 = ORIENTED_EDGE ( 'NONE', *, *, #259, .T. ) ;
#207 = PLANE ( 'NONE',  #254 ) ;
#208 = CARTESIAN_POINT ( 'NONE',  ( 12.28108166940479506, 1.499999999999991784, 2.000000000000000000 ) ) ;
#209 = EDGE_CURVE ( 'NONE', #59, #141, #289, .T. ) ;
#210 = LINE ( 'NONE', #185, #17 ) ;
#211 = VECTOR ( 'NONE', #261, 1000.000000000000000 ) ;
#212 = EDGE_LOOP ( 'NONE', ( #56, #238, #27, #109 ) ) ;
#213 = CARTESIAN_POINT ( 'NONE',  ( 13.50000000000001421, -1.298405847906773058E-14, 0.000000000000000000 ) ) ;
#214 = ORIENTED_EDGE ( 'NONE', *, *, #209, .T. ) ;
#215 = VECTOR ( 'NONE', #104, 1000.000000000000114 ) ;
#216 = ORIENTED_EDGE ( 'NONE', *, *, #264, .T. ) ;
#217 = ORIENTED_EDGE ( 'NONE', *, *, #165, .T. ) ;
#218 = UNCERTAINTY_MEASURE_WITH_UNIT (LENGTH_MEASURE( 1.000000000000000082E-05 ), #145, 'distance_accuracy_value', 'NONE');
#219 = EDGE_CURVE ( 'NONE', #321, #53, #232, .T. ) ;
#220 = VECTOR ( 'NONE', #276, 1000.000000000000000 ) ;
#221 = ORIENTED_EDGE ( 'NONE', *, *, #102, .F. ) ;
#222 =( GEOMETRIC_REPRESENTATION_CONTEXT ( 3 ) GLOBAL_UNCERTAINTY_ASSIGNED_CONTEXT ( ( #83 ) ) GLOBAL_UNIT_ASSIGNED_CONTEXT ( ( #134, #269, #112 ) ) REPRESENTATION_CONTEXT ( 'NONE', 'WORKASPACE' ) );
#223 = DIRECTION ( 'NONE',  ( 0.000000000000000000, -0.1391731009600657432, -0.9902680687415703620 ) ) ;
#224 = CARTESIAN_POINT ( 'NONE',  ( 12.00000000000001066, 1.499999999999991784, 0.000000000000000000 ) ) ;
#225 = DIRECTION ( 'NONE',  ( 0.1391731009600657432, 0.000000000000000000, 0.9902680687415703620 ) ) ;
#226 = CARTESIAN_POINT ( 'NONE',  ( 56.50000000000000000, -1.280036534392694981E-14, 0.000000000000000000 ) ) ;
#227 =( NAMED_UNIT ( * ) SI_UNIT ( $, .STERADIAN. ) SOLID_ANGLE_UNIT ( ) );
#228 = EDGE_LOOP ( 'NONE', ( #322, #267, #273, #81 ) ) ;
#229 = AXIS2_PLACEMENT_3D ( 'NONE', #282, #249, #225 ) ;
#230 = FACE_OUTER_BOUND ( 'NONE', #262, .T. ) ;
#231 = CARTESIAN_POINT ( 'NONE',  ( 12.00000000000001421, -27.21891833059523336, 2.000000000000000000 ) ) ;
#232 = LINE ( 'NONE', #213, #280 ) ;
#233 = LINE ( 'NONE', #130, #197 ) ;
#234 = FILL_AREA_STYLE ('',( #51 ) ) ;
#235 = CARTESIAN_POINT ( 'NONE',  ( 57.71891833059520849, 1.218918330595216926, 2.000000000000000000 ) ) ;
#236 = DIRECTION ( 'NONE',  ( -0.9902680687415703620, 2.642832717471101951E-16, 0.1391731009600657432 ) ) ;
#237 = VECTOR ( 'NONE', #132, 1000.000000000000000 ) ;
#238 = ORIENTED_EDGE ( 'NONE', *, *, #329, .F. ) ;
#239 = ADVANCED_FACE ( 'NONE', ( #292 ), #189, .T. ) ;
#240 = ORIENTED_EDGE ( 'NONE', *, *, #25, .T. ) ;
#241 =( GEOMETRIC_REPRESENTATION_CONTEXT ( 3 ) GLOBAL_UNCERTAINTY_ASSIGNED_CONTEXT ( ( #218 ) ) GLOBAL_UNIT_ASSIGNED_CONTEXT ( ( #145, #257, #90 ) ) REPRESENTATION_CONTEXT ( 'NONE', 'WORKASPACE' ) );
#242 = VECTOR ( 'NONE', #131, 1000.000000000000000 ) ;
#243 = ORIENTED_EDGE ( 'NONE', *, *, #209, .F. ) ;
#244 = VERTEX_POINT ( 'NONE', #54 ) ;
#245 = ADVANCED_FACE ( 'NONE', ( #161 ), #207, .T. ) ;
#246 = ORIENTED_EDGE ( 'NONE', *, *, #193, .T. ) ;
#247 = EDGE_CURVE ( 'NONE', #9, #321, #128, .T. ) ;
#248 = DIRECTION ( 'NONE',  ( 1.196361017915038993E-16, -1.000000000000000000, 0.000000000000000000 ) ) ;
#249 = DIRECTION ( 'NONE',  ( -0.9902680687415703620, -1.184718114728424817E-16, 0.1391731009600657432 ) ) ;
#250 = FACE_OUTER_BOUND ( 'NONE', #164, .T. ) ;
#251 = VECTOR ( 'NONE', #171, 1000.000000000000114 ) ;
#252 = EDGE_LOOP ( 'NONE', ( #7, #243, #188, #133 ) ) ;
#253 = DIRECTION ( 'NONE',  ( -0.1378445374916289490, -0.1378445374916289212, -0.9808148484639890308 ) ) ;
#254 = AXIS2_PLACEMENT_3D ( 'NONE', #265, #29, #21 ) ;
#255 = CARTESIAN_POINT ( 'NONE',  ( 56.49999999999999289, -26.00000000000001776, 0.000000000000000000 ) ) ;
#256 = DIRECTION ( 'NONE',  ( -1.000000000000000000, -1.885568995626965273E-16, 0.000000000000000000 ) ) ;
#257 =( NAMED_UNIT ( * ) PLANE_ANGLE_UNIT ( ) SI_UNIT ( $, .RADIAN. ) );
#258 = DIRECTION ( 'NONE',  ( -0.1378445374916288935, -0.1378445374916289212, -0.9808148484639890308 ) ) ;
#259 = EDGE_CURVE ( 'NONE', #53, #324, #158, .T. ) ;
#260 = DIRECTION ( 'NONE',  ( 1.000000000000000000, 0.000000000000000000, 0.000000000000000000 ) ) ;
#261 = DIRECTION ( 'NONE',  ( 1.196361017915039239E-16, -1.000000000000000000, -0.000000000000000000 ) ) ;
#262 = EDGE_LOOP ( 'NONE', ( #139, #293, #68, #85 ) ) ;
#263 = APPLICATION_PROTOCOL_DEFINITION ( 'draft international standard', 'automotive_design', 1998, #89 ) ;
#264 = EDGE_CURVE ( 'NONE', #284, #30, #70, .T. ) ;
#265 = CARTESIAN_POINT ( 'NONE',  ( 13.50000000000001421, -26.00000000000001776, 0.000000000000000000 ) ) ;
#266 = VECTOR ( 'NONE', #88, 1000.000000000000000 ) ;
#267 = ORIENTED_EDGE ( 'NONE', *, *, #147, .F. ) ;
#268 = ORIENTED_EDGE ( 'NONE', *, *, #173, .T. ) ;
#269 =( NAMED_UNIT ( * ) PLANE_ANGLE_UNIT ( ) SI_UNIT ( $, .RADIAN. ) );
#270 = ORIENTED_EDGE ( 'NONE', *, *, #219, .F. ) ;
#271 = EDGE_CURVE ( 'NONE', #45, #141, #233, .T. ) ;
#272 = STYLED_ITEM ( 'NONE', ( #277 ), #334 ) ;
#273 = ORIENTED_EDGE ( 'NONE', *, *, #117, .F. ) ;
#274 = CARTESIAN_POINT ( 'NONE',  ( 12.28108166940479506, 1.218918330595208266, 2.000000000000000000 ) ) ;
#275 = CARTESIAN_POINT ( 'NONE',  ( 0.000000000000000000, 0.000000000000000000, 2.000000000000000000 ) ) ;
#276 = DIRECTION ( 'NONE',  ( 1.000000000000000000, 0.000000000000000000, 0.000000000000000000 ) ) ;
#277 = PRESENTATION_STYLE_ASSIGNMENT (( #15 ) ) ;
#278 = CARTESIAN_POINT ( 'NONE',  ( 12.00000000000001421, -27.50000000000001776, 0.000000000000000000 ) ) ;
#279 = CARTESIAN_POINT ( 'NONE',  ( 13.50000000000001421, -1.298405847906773058E-14, 0.000000000000000000 ) ) ;
#280 = VECTOR ( 'NONE', #52, 1000.000000000000000 ) ;
#281 = CARTESIAN_POINT ( 'NONE',  ( 13.50000000000001421, -26.00000000000001776, 0.000000000000000000 ) ) ;
#282 = CARTESIAN_POINT ( 'NONE',  ( 12.00000000000001066, 1.499999999999991784, 0.000000000000000000 ) ) ;
#283 = CARTESIAN_POINT ( 'NONE',  ( 13.50000000000001421, -26.28108166940479862, 2.000000000000000000 ) ) ;
#284 = VERTEX_POINT ( 'NONE', #106 ) ;
#285 = DIRECTION ( 'NONE',  ( 0.000000000000000000, -0.9902680687415703620, 0.1391731009600657432 ) ) ;
#286 = EDGE_CURVE ( 'NONE', #9, #294, #288, .T. ) ;
#287 = CARTESIAN_POINT ( 'NONE',  ( 56.78108166940477730, -26.00000000000001776, 2.000000000000000000 ) ) ;
#288 = LINE ( 'NONE', #24, #242 ) ;
#289 = LINE ( 'NONE', #101, #237 ) ;
#290 = VERTEX_POINT ( 'NONE', #235 ) ;
#291 = PRESENTATION_STYLE_ASSIGNMENT (( #57 ) ) ;
#292 = FACE_OUTER_BOUND ( 'NONE', #190, .T. ) ;
#293 = ORIENTED_EDGE ( 'NONE', *, *, #199, .F. ) ;
#294 = VERTEX_POINT ( 'NONE', #335 ) ;
#295 = ORIENTED_EDGE ( 'NONE', *, *, #271, .F. ) ;
#296 = ADVANCED_FACE ( 'NONE', ( #153, #44 ), #41, .T. ) ;
#297 = PRODUCT ( 'bottom seal', 'bottom seal', '', ( #191 ) ) ;
#298 = VECTOR ( 'NONE', #186, 1000.000000000000000 ) ;
#299 = ADVANCED_FACE ( 'NONE', ( #230 ), #46, .T. ) ;
#300 = VECTOR ( 'NONE', #328, 1000.000000000000000 ) ;
#301 = EDGE_LOOP ( 'NONE', ( #122, #160, #80, #55 ) ) ;
#302 = LINE ( 'NONE', #283, #220 ) ;
#303 = CARTESIAN_POINT ( 'NONE',  ( 57.99999999999999289, -27.50000000000001776, 0.000000000000000000 ) ) ;
#304 = CARTESIAN_POINT ( 'NONE',  ( 12.00000000000001421, -27.50000000000001776, 0.000000000000000000 ) ) ;
#305 = LINE ( 'NONE', #16, #107 ) ;
#306 = ADVANCED_FACE ( 'NONE', ( #176 ), #332, .T. ) ;
#307 = DIRECTION ( 'NONE',  ( 0.9902680687415703620, 0.000000000000000000, 0.1391731009600657432 ) ) ;
#308 = LINE ( 'NONE', #231, #116 ) ;
#309 = LINE ( 'NONE', #183, #33 ) ;
#310 = AXIS2_PLACEMENT_3D ( 'NONE', #94, #92, #223 ) ;
#311 = CARTESIAN_POINT ( 'NONE',  ( 12.00000000000001066, 1.499999999999991784, 0.000000000000000000 ) ) ;
#312 = ADVANCED_FACE ( 'NONE', ( #22 ), #313, .T. ) ;
#313 = PLANE ( 'NONE',  #325 ) ;
#314 = CARTESIAN_POINT ( 'NONE',  ( 13.50000000000001421, -26.00000000000001776, 0.000000000000000000 ) ) ;
#315 = LINE ( 'NONE', #26, #84 ) ;
#316 = DIRECTION ( 'NONE',  ( 0.000000000000000000, -0.1391731009600657432, 0.9902680687415703620 ) ) ;
#317 = ORIENTED_EDGE ( 'NONE', *, *, #60, .T. ) ;
#318 = DIRECTION ( 'NONE',  ( 0.000000000000000000, 1.000000000000000000, 0.000000000000000000 ) ) ;
#319 = ORIENTED_EDGE ( 'NONE', *, *, #14, .T. ) ;
#320 = MECHANICAL_DESIGN_GEOMETRIC_PRESENTATION_REPRESENTATION (  '', ( #272 ), #8 ) ;
#321 = VERTEX_POINT ( 'NONE', #279 ) ;
#322 = ORIENTED_EDGE ( 'NONE', *, *, #39, .T. ) ;
#323 = EDGE_CURVE ( 'NONE', #324, #244, #125, .T. ) ;
#324 = VERTEX_POINT ( 'NONE', #255 ) ;
#325 = AXIS2_PLACEMENT_3D ( 'NONE', #304, #285, #63 ) ;
#326 = FACE_OUTER_BOUND ( 'NONE', #111, .T. ) ;
#327 = DIRECTION ( 'NONE',  ( 0.1378445374916289212, 0.1378445374916289212, -0.9808148484639890308 ) ) ;
#328 = DIRECTION ( 'NONE',  ( 2.668805347656626185E-16, 1.000000000000000000, 0.000000000000000000 ) ) ;
#329 = EDGE_CURVE ( 'NONE', #294, #53, #309, .T. ) ;
#330 = FACE_OUTER_BOUND ( 'NONE', #228, .T. ) ;
#331 = CARTESIAN_POINT ( 'NONE',  ( 12.28108166940479862, -27.21891833059523336, 2.000000000000000000 ) ) ;
#332 = PLANE ( 'NONE',  #138 ) ;
#333 = FACE_BOUND ( 'NONE', #115, .T. ) ;
#334 = MANIFOLD_SOLID_BREP ( 'Boss-Extrude1', #195 ) ;
#335 = CARTESIAN_POINT ( 'NONE',  ( 13.21891833059522980, -26.28108166940479862, 2.000000000000000000 ) ) ;
#336 = CARTESIAN_POINT ( 'NONE',  ( 13.50000000000001421, -1.298405847906773058E-14, 0.000000000000000000 ) ) ;
#337 = DIRECTION ( 'NONE',  ( -1.000000000000000000, -4.271933375367024518E-18, 0.000000000000000000 ) ) ;
#338 = CARTESIAN_POINT ( 'NONE',  ( 57.99999999999999289, 1.500000000000000444, 0.000000000000000000 ) ) ;
ENDSEC;
END-ISO-10303-21;
