ISO-10303-21;
HEADER;
FILE_DESCRIPTION (( 'STEP AP214' ),
    '1' );
FILE_NAME ('gasket_top_cover.STEP',
    '2026-08-21T18:09:47',
    ( '' ),
    ( '' ),
    'SwSTEP 2.0',
    'SolidWorks 2025',
    '' );
FILE_SCHEMA (( 'AUTOMOTIVE_DESIGN' ));
ENDSEC;

DATA;
#1 = ADVANCED_FACE ( 'NONE', ( #442 ), #278, .T. ) ;
#2 = AXIS2_PLACEMENT_3D ( 'NONE', #87, #385, #23 ) ;
#3 = SURFACE_STYLE_USAGE ( .BOTH. , #464 ) ;
#4 = DIRECTION ( 'NONE',  ( 2.068320967210205068E-16, -0.9945218953682734009, 0.1045284632676537068 ) ) ;
#5 = VECTOR ( 'NONE', #168, 1000.000000000000000 ) ;
#6 = ORIENTED_EDGE ( 'NONE', *, *, #257, .T. ) ;
#7 = CARTESIAN_POINT ( 'NONE',  ( 13.26250413604848255, 40.63185401174214206, 0.000000000000000000 ) ) ;
#8 = EDGE_CURVE ( 'NONE', #478, #489, #140, .T. ) ;
#9 = VECTOR ( 'NONE', #432, 1000.000000000000000 ) ;
#10 = PRESENTATION_STYLE_ASSIGNMENT (( #504 ) ) ;
#11 = AXIS2_PLACEMENT_3D ( 'NONE', #664, #262, #413 ) ;
#12 = ORIENTED_EDGE ( 'NONE', *, *, #476, .T. ) ;
#13 = FILL_AREA_STYLE ('',( #615 ) ) ;
#14 = DIRECTION ( 'NONE',  ( -1.000000000000000000, -4.436722895625987172E-16, -0.000000000000000000 ) ) ;
#15 = PRODUCT_DEFINITION_FORMATION_WITH_SPECIFIED_SOURCE ( 'Symmetric', '', #299, .NOT_KNOWN. ) ;
#16 = ORIENTED_EDGE ( 'NONE', *, *, #376, .T. ) ;
#17 = EDGE_CURVE ( 'NONE', #540, #164, #339, .T. ) ;
#18 = ADVANCED_FACE ( 'NONE', ( #542 ), #393, .T. ) ;
#19 = CARTESIAN_POINT ( 'NONE',  ( 10.41753807333357429, 20.73294642608259863, 2.500000000000000000 ) ) ;
#20 = VERTEX_POINT ( 'NONE', #632 ) ;
#21 = VECTOR ( 'NONE', #555, 1000.000000000000000 ) ;
#22 = DIRECTION ( 'NONE',  ( 0.1037978024193864923, 0.02529334180794678977, -0.9942767537628003360 ) ) ;
#23 = DIRECTION ( 'NONE',  ( -0.2909312820662346422, 0.9567439517003997196, 0.000000000000000000 ) ) ;
#24 = CARTESIAN_POINT ( 'NONE',  ( 15.75906465691169167, 65.53092729468210109, 0.000000000000000000 ) ) ;
#25 = CARTESIAN_POINT ( 'NONE',  ( 13.26250413604848255, 28.96927849710496616, 0.000000000000000000 ) ) ;
#26 = EDGE_CURVE ( 'NONE', #83, #337, #34, .T. ) ;
#27 = LINE ( 'NONE', #633, #608 ) ;
#28 = ORIENTED_EDGE ( 'NONE', *, *, #199, .F. ) ;
#29 = VECTOR ( 'NONE', #439, 1000.000000000000114 ) ;
#30 = DIRECTION ( 'NONE',  ( -0.02967626236838654882, -0.9995595627334283861, 0.000000000000000000 ) ) ;
#31 = ORIENTED_EDGE ( 'NONE', *, *, #395, .F. ) ;
#32 = VECTOR ( 'NONE', #84, 1000.000000000000114 ) ;
#33 = FACE_OUTER_BOUND ( 'NONE', #58, .T. ) ;
#34 = LINE ( 'NONE', #444, #417 ) ;
#35 = EDGE_CURVE ( 'NONE', #276, #607, #531, .T. ) ;
#36 = DIRECTION ( 'NONE',  ( -0.4334888646037085569, -0.9011589228679853791, 0.000000000000000000 ) ) ;
#37 = DIRECTION ( 'NONE',  ( 0.1045740182106055655, 0.000000000000000000, -0.9945171062959591302 ) ) ;
#38 = EDGE_LOOP ( 'NONE', ( #647, #629, #375, #453 ) ) ;
#39 = CARTESIAN_POINT ( 'NONE',  ( 15.56432570607539745, 65.79368788284628522, 2.500000000000000000 ) ) ;
#40 = CARTESIAN_POINT ( 'NONE',  ( 14.19342164625596858, 28.74243347503460555, 2.500000000000000000 ) ) ;
#41 = ORIENTED_EDGE ( 'NONE', *, *, #407, .T. ) ;
#42 = VECTOR ( 'NONE', #281, 1000.000000000000000 ) ;
#43 = VECTOR ( 'NONE', #60, 1000.000000000000000 ) ;
#44 = CARTESIAN_POINT ( 'NONE',  ( 9.384714531282766004, 20.90793023955747998, 0.000000000000000000 ) ) ;
#45 = DIRECTION ( 'NONE',  ( -0.000000000000000000, 0.000000000000000000, 1.000000000000000000 ) ) ;
#46 = EDGE_CURVE ( 'NONE', #473, #589, #179, .T. ) ;
#47 = VERTEX_POINT ( 'NONE', #25 ) ;
#48 = AXIS2_PLACEMENT_3D ( 'NONE', #122, #175, #377 ) ;
#49 = DIRECTION ( 'NONE',  ( 0.02967626236838652801, -0.9995595627334283861, 0.000000000000000000 ) ) ;
#50 = EDGE_CURVE ( 'NONE', #652, #568, #233, .T. ) ;
#51 = CARTESIAN_POINT ( 'NONE',  ( 9.384714531282766004, 20.90793023955747998, 0.000000000000000000 ) ) ;
#52 = ORIENTED_EDGE ( 'NONE', *, *, #291, .T. ) ;
#53 =( NAMED_UNIT ( * ) PLANE_ANGLE_UNIT ( ) SI_UNIT ( $, .RADIAN. ) );
#54 = DIRECTION ( 'NONE',  ( 0.02967626236838652801, -0.9995595627334283861, 0.000000000000000000 ) ) ;
#55 = EDGE_LOOP ( 'NONE', ( #390, #561, #41, #622 ) ) ;
#56 = FACE_OUTER_BOUND ( 'NONE', #400, .T. ) ;
#57 = FACE_OUTER_BOUND ( 'NONE', #462, .T. ) ;
#58 = EDGE_LOOP ( 'NONE', ( #470, #426, #492, #573 ) ) ;
#59 = CARTESIAN_POINT ( 'NONE',  ( 14.86971232810076948, 2.870205214164995411, 0.000000000000000000 ) ) ;
#60 = DIRECTION ( 'NONE',  ( -0.4334888646037086124, -0.9011589228679853791, 0.000000000000000000 ) ) ;
#61 = ORIENTED_EDGE ( 'NONE', *, *, #350, .T. ) ;
#62 = VECTOR ( 'NONE', #655, 1000.000000000000000 ) ;
#63 = LINE ( 'NONE', #66, #617 ) ;
#64 = DIRECTION ( 'NONE',  ( 0.1045284632676537068, 0.000000000000000000, -0.9945218953682734009 ) ) ;
#65 = ORIENTED_EDGE ( 'NONE', *, *, #532, .T. ) ;
#66 = CARTESIAN_POINT ( 'NONE',  ( 13.49929318465068384, 28.85537470807906857, 2.500000000000000000 ) ) ;
#67 = FACE_OUTER_BOUND ( 'NONE', #55, .T. ) ;
#68 = VECTOR ( 'NONE', #374, 1000.000000000000114 ) ;
#69 = VERTEX_POINT ( 'NONE', #634 ) ;
#70 = EDGE_CURVE ( 'NONE', #422, #663, #585, .T. ) ;
#71 =( LENGTH_UNIT ( ) NAMED_UNIT ( * ) SI_UNIT ( .MILLI., .METRE. ) );
#72 = MECHANICAL_DESIGN_GEOMETRIC_PRESENTATION_REPRESENTATION (  '', ( #273 ), #335 ) ;
#73 = ORIENTED_EDGE ( 'NONE', *, *, #463, .T. ) ;
#74 = CARTESIAN_POINT ( 'NONE',  ( 10.66893267680490354, 20.80939170087368595, 0.000000000000000000 ) ) ;
#75 = CARTESIAN_POINT ( 'NONE',  ( 10.66893267680490887, 48.79174080797342583, 0.000000000000000000 ) ) ;
#76 = VECTOR ( 'NONE', #570, 1000.000000000000227 ) ;
#77 = LINE ( 'NONE', #502, #184 ) ;
#78 = VERTEX_POINT ( 'NONE', #406 ) ;
#79 = VECTOR ( 'NONE', #212, 1000.000000000000000 ) ;
#80 = ADVANCED_FACE ( 'NONE', ( #107, #610 ), #144, .T. ) ;
#81 = SHAPE_DEFINITION_REPRESENTATION ( #548, #237 ) ;
#82 = CARTESIAN_POINT ( 'NONE',  ( 44.94907805431299153, 65.53092729468210109, 0.000000000000000000 ) ) ;
#83 = VERTEX_POINT ( 'NONE', #190 ) ;
#84 = DIRECTION ( 'NONE',  ( 0.4334888646037082238, -0.9011589228679856012, 0.000000000000000000 ) ) ;
#85 = ORIENTED_EDGE ( 'NONE', *, *, #384, .F. ) ;
#86 = CARTESIAN_POINT ( 'NONE',  ( 45.21183864247718986, 4.070205214165001806, 2.500000000000000000 ) ) ;
#87 = CARTESIAN_POINT ( 'NONE',  ( 10.66893267680490531, 20.80939170087368595, 0.000000000000000000 ) ) ;
#88 = CARTESIAN_POINT ( 'NONE',  ( 45.21183864247718986, 65.79368788284628522, 2.500000000000000000 ) ) ;
#89 = CARTESIAN_POINT ( 'NONE',  ( 14.45440985207132201, 28.67883613729080139, 0.000000000000000000 ) ) ;
#90 = ORIENTED_EDGE ( 'NONE', *, *, #384, .T. ) ;
#91 = APPLICATION_CONTEXT ( 'automotive_design' ) ;
#92 = LINE ( 'NONE', #247, #21 ) ;
#93 = CARTESIAN_POINT ( 'NONE',  ( 14.19176499346234266, 40.91449861940187560, 2.500000000000000000 ) ) ;
#94 = VECTOR ( 'NONE', #308, 1000.000000000000000 ) ;
#95 = ORIENTED_EDGE ( 'NONE', *, *, #35, .F. ) ;
#96 = FACE_OUTER_BOUND ( 'NONE', #182, .T. ) ;
#97 = DIRECTION ( 'NONE',  ( 0.9940838708631317688, 0.02951369269805393866, 0.1045284632676537068 ) ) ;
#98 = ORIENTED_EDGE ( 'NONE', *, *, #148, .T. ) ;
#99 = VECTOR ( 'NONE', #628, 999.9999999999998863 ) ;
#100 = EDGE_CURVE ( 'NONE', #589, #83, #459, .T. ) ;
#101 = AXIS2_PLACEMENT_3D ( 'NONE', #651, #97, #37 ) ;
#102 = CARTESIAN_POINT ( 'NONE',  ( 46.14907805431299437, 2.870205214165002072, 0.000000000000000000 ) ) ;
#103 = CARTESIAN_POINT ( 'NONE',  ( 15.75906465691169167, 65.53092729468210109, 0.000000000000000000 ) ) ;
#104 = EDGE_CURVE ( 'NONE', #167, #618, #547, .T. ) ;
#105 = ORIENTED_EDGE ( 'NONE', *, *, #267, .F. ) ;
#106 = PRESENTATION_STYLE_ASSIGNMENT (( #3 ) ) ;
#107 = FACE_OUTER_BOUND ( 'NONE', #227, .T. ) ;
#108 = ORIENTED_EDGE ( 'NONE', *, *, #104, .F. ) ;
#109 = APPLICATION_CONTEXT ( 'automotive_design' ) ;
#110 = VECTOR ( 'NONE', #506, 1000.000000000000227 ) ;
#111 = ADVANCED_FACE ( 'NONE', ( #499 ), #295, .T. ) ;
#112 = DIRECTION ( 'NONE',  ( 0.000000000000000000, 0.9945218953682734009, 0.1045284632676537068 ) ) ;
#113 = ORIENTED_EDGE ( 'NONE', *, *, #17, .T. ) ;
#114 = CARTESIAN_POINT ( 'NONE',  ( 15.06445127893706193, 66.46816670651790560, 2.500000000000000000 ) ) ;
#115 = ORIENTED_EDGE ( 'NONE', *, *, #653, .T. ) ;
#116 = CARTESIAN_POINT ( 'NONE',  ( 10.66893267680490887, 48.79174080797342583, 0.000000000000000000 ) ) ;
#117 = DIRECTION ( 'NONE',  ( 0.000000000000000000, -0.1045284632676537068, 0.9945218953682734009 ) ) ;
#118 = VERTEX_POINT ( 'NONE', #40 ) ;
#119 = LINE ( 'NONE', #322, #333 ) ;
#120 = ADVANCED_FACE ( 'NONE', ( #403 ), #255, .T. ) ;
#121 = ORIENTED_EDGE ( 'NONE', *, *, #638, .F. ) ;
#122 = CARTESIAN_POINT ( 'NONE',  ( 0.000000000000000000, 0.000000000000000000, 0.000000000000000000 ) ) ;
#123 = EDGE_LOOP ( 'NONE', ( #344, #419, #460, #466 ) ) ;
#124 = EDGE_CURVE ( 'NONE', #473, #276, #508, .T. ) ;
#125 = FACE_OUTER_BOUND ( 'NONE', #123, .T. ) ;
#126 = ORIENTED_EDGE ( 'NONE', *, *, #306, .T. ) ;
#127 = CARTESIAN_POINT ( 'NONE',  ( 13.69827607170579320, 34.79276850226912643, 2.500000000000000000 ) ) ;
#128 = EDGE_CURVE ( 'NONE', #301, #478, #142, .T. ) ;
#129 = ORIENTED_EDGE ( 'NONE', *, *, #104, .T. ) ;
#130 = AXIS2_PLACEMENT_3D ( 'NONE', #654, #304, #36 ) ;
#131 = DIRECTION ( 'NONE',  ( 0.2909312820662346422, -0.9567439517003997196, 0.000000000000000000 ) ) ;
#132 = VECTOR ( 'NONE', #30, 1000.000000000000114 ) ;
#133 = ORIENTED_EDGE ( 'NONE', *, *, #138, .T. ) ;
#134 = AXIS2_PLACEMENT_3D ( 'NONE', #207, #416, #514 ) ;
#135 = DIRECTION ( 'NONE',  ( 0.2909312820662345866, 0.9567439517003997196, 0.000000000000000000 ) ) ;
#136 = ORIENTED_EDGE ( 'NONE', *, *, #421, .F. ) ;
#137 =( GEOMETRIC_REPRESENTATION_CONTEXT ( 3 ) GLOBAL_UNCERTAINTY_ASSIGNED_CONTEXT ( ( #434 ) ) GLOBAL_UNIT_ASSIGNED_CONTEXT ( ( #612, #516, #261 ) ) REPRESENTATION_CONTEXT ( 'NONE', 'WORKASPACE' ) );
#138 = EDGE_CURVE ( 'NONE', #83, #118, #248, .T. ) ;
#139 = LINE ( 'NONE', #274, #554 ) ;
#140 = LINE ( 'NONE', #188, #29 ) ;
#141 = LINE ( 'NONE', #86, #420 ) ;
#142 = LINE ( 'NONE', #151, #294 ) ;
#143 = LINE ( 'NONE', #458, #364 ) ;
#144 = PLANE ( 'NONE',  #437 ) ;
#145 = ORIENTED_EDGE ( 'NONE', *, *, #171, .F. ) ;
#146 = LINE ( 'NONE', #345, #649 ) ;
#147 = CARTESIAN_POINT ( 'NONE',  ( 14.86971232810076948, 2.870205214164995411, 0.000000000000000000 ) ) ;
#148 = EDGE_CURVE ( 'NONE', #164, #276, #351, .T. ) ;
#149 = ORIENTED_EDGE ( 'NONE', *, *, #284, .F. ) ;
#150 = DIRECTION ( 'NONE',  ( -0.1117716624847546747, -0.008576281472045544849, -0.9936969069396897059 ) ) ;
#151 = CARTESIAN_POINT ( 'NONE',  ( 13.24188910338508940, 40.62683056177129970, -0.1974709220957866496 ) ) ;
#152 = ORIENTED_EDGE ( 'NONE', *, *, #523, .F. ) ;
#153 = VECTOR ( 'NONE', #277, 1000.000000000000227 ) ;
#154 = CARTESIAN_POINT ( 'NONE',  ( 45.88631746614880313, 2.870205214165002072, 2.500000000000000000 ) ) ;
#155 = LINE ( 'NONE', #51, #382 ) ;
#156 = VERTEX_POINT ( 'NONE', #646 ) ;
#157 = EDGE_CURVE ( 'NONE', #663, #618, #155, .T. ) ;
#158 = DIRECTION ( 'NONE',  ( 0.4334888646037082238, -0.9011589228679854902, 0.000000000000000000 ) ) ;
#159 = CARTESIAN_POINT ( 'NONE',  ( 13.26250413604848255, 28.96927849710496616, 0.000000000000000000 ) ) ;
#160 = ORIENTED_EDGE ( 'NONE', *, *, #199, .T. ) ;
#161 = PLANE ( 'NONE',  #447 ) ;
#162 = VECTOR ( 'NONE', #316, 1000.000000000000227 ) ;
#163 = LINE ( 'NONE', #367, #43 ) ;
#164 = VERTEX_POINT ( 'NONE', #452 ) ;
#165 = DIRECTION ( 'NONE',  ( 0.1045740182106055516, 0.000000000000000000, 0.9945171062959590191 ) ) ;
#166 = LINE ( 'NONE', #159, #621 ) ;
#167 = VERTEX_POINT ( 'NONE', #662 ) ;
#168 = DIRECTION ( 'NONE',  ( 0.000000000000000000, 1.000000000000000000, 0.000000000000000000 ) ) ;
#169 = PLANE ( 'NONE',  #134 ) ;
#170 = ORIENTED_EDGE ( 'NONE', *, *, #455, .T. ) ;
#171 = EDGE_CURVE ( 'NONE', #196, #69, #411, .T. ) ;
#172 = LINE ( 'NONE', #519, #5 ) ;
#173 = LINE ( 'NONE', #371, #68 ) ;
#174 = ORIENTED_EDGE ( 'NONE', *, *, #602, .T. ) ;
#175 = DIRECTION ( 'NONE',  ( 0.000000000000000000, 0.000000000000000000, 1.000000000000000000 ) ) ;
#176 = LINE ( 'NONE', #225, #9 ) ;
#177 = DIRECTION ( 'NONE',  ( 0.1045740182106055655, 0.000000000000000000, -0.9945171062959590191 ) ) ;
#178 = CARTESIAN_POINT ( 'NONE',  ( 14.86971232810076948, 2.870205214164995411, 0.000000000000000000 ) ) ;
#179 = LINE ( 'NONE', #381, #346 ) ;
#180 = VECTOR ( 'NONE', #397, 1000.000000000000227 ) ;
#181 = CARTESIAN_POINT ( 'NONE',  ( 14.43428556902132343, 40.91739250694685381, 0.1927700428753862105 ) ) ;
#182 = EDGE_LOOP ( 'NONE', ( #534, #193, #668, #518, #270, #575, #244, #85, #457 ) ) ;
#183 = DIRECTION ( 'NONE',  ( -0.2909312820662349197, -0.9567439517003997196, -0.000000000000000000 ) ) ;
#184 = VECTOR ( 'NONE', #287, 1000.000000000000114 ) ;
#185 = ORIENTED_EDGE ( 'NONE', *, *, #70, .T. ) ;
#186 = ORIENTED_EDGE ( 'NONE', *, *, #409, .F. ) ;
#187 = LINE ( 'NONE', #591, #586 ) ;
#188 = CARTESIAN_POINT ( 'NONE',  ( 13.26250413604848255, 40.63185401174214206, 0.000000000000000000 ) ) ;
#189 = CARTESIAN_POINT ( 'NONE',  ( 10.66893267680490531, 20.80939170087368595, 0.000000000000000000 ) ) ;
#190 = CARTESIAN_POINT ( 'NONE',  ( 14.37328360198778121, 34.80056625442355767, 2.500000000000000000 ) ) ;
#191 = CARTESIAN_POINT ( 'NONE',  ( 14.63615997070125552, 34.80056625442355767, 0.000000000000000000 ) ) ;
#192 = DIRECTION ( 'NONE',  ( -0.07723743956571986480, -0.1042162082183836908, -0.9915509870268468529 ) ) ;
#193 = ORIENTED_EDGE ( 'NONE', *, *, #358, .F. ) ;
#194 = CARTESIAN_POINT ( 'NONE',  ( 9.384714531282769556, 48.69320226928962825, 0.000000000000000000 ) ) ;
#195 = DIRECTION ( 'NONE',  ( 0.4334888646037086124, 0.9011589228679853791, 0.000000000000000000 ) ) ;
#196 = VERTEX_POINT ( 'NONE', #601 ) ;
#197 = LINE ( 'NONE', #594, #563 ) ;
#198 = DIRECTION ( 'NONE',  ( 0.2909312820662346977, -0.9567439517003997196, 0.000000000000000000 ) ) ;
#199 = EDGE_CURVE ( 'NONE', #301, #200, #343, .T. ) ;
#200 = VERTEX_POINT ( 'NONE', #559 ) ;
#201 = LINE ( 'NONE', #297, #640 ) ;
#202 = CARTESIAN_POINT ( 'NONE',  ( 0.000000000000000000, 0.000000000000000000, 2.500000000000000000 ) ) ;
#203 = ORIENTED_EDGE ( 'NONE', *, *, #100, .T. ) ;
#204 = ADVANCED_FACE ( 'NONE', ( #511 ), #494, .T. ) ;
#205 = ORIENTED_EDGE ( 'NONE', *, *, #463, .F. ) ;
#206 = DIRECTION ( 'NONE',  ( 0.8962222799987005217, 0.4311141672467209696, 0.1045284632676537068 ) ) ;
#207 = CARTESIAN_POINT ( 'NONE',  ( 44.94907805431299153, 4.070205214165001806, 0.000000000000000000 ) ) ;
#208 = ORIENTED_EDGE ( 'NONE', *, *, #530, .F. ) ;
#209 = VECTOR ( 'NONE', #433, 1000.000000000000114 ) ;
#210 = MANIFOLD_SOLID_BREP ( 'Boss-Extrude1', #496 ) ;
#211 = VECTOR ( 'NONE', #551, 1000.000000000000000 ) ;
#212 = DIRECTION ( 'NONE',  ( -0.4334888646037086124, -0.9011589228679853791, 0.000000000000000000 ) ) ;
#213 = ORIENTED_EDGE ( 'NONE', *, *, #602, .F. ) ;
#214 = AXIS2_PLACEMENT_3D ( 'NONE', #441, #643, #279 ) ;
#215 = CARTESIAN_POINT ( 'NONE',  ( 9.384714531282766004, 20.90793023955747998, 0.000000000000000000 ) ) ;
#216 = VECTOR ( 'NONE', #14, 1000.000000000000000 ) ;
#217 = EDGE_CURVE ( 'NONE', #156, #652, #243, .T. ) ;
#218 =( NAMED_UNIT ( * ) SI_UNIT ( $, .STERADIAN. ) SOLID_ANGLE_UNIT ( ) );
#219 = ORIENTED_EDGE ( 'NONE', *, *, #577, .T. ) ;
#220 =( LENGTH_UNIT ( ) NAMED_UNIT ( * ) SI_UNIT ( .MILLI., .METRE. ) );
#221 = VERTEX_POINT ( 'NONE', #477 ) ;
#222 = LINE ( 'NONE', #430, #99 ) ;
#223 = ORIENTED_EDGE ( 'NONE', *, *, #372, .F. ) ;
#224 = ADVANCED_FACE ( 'NONE', ( #57 ), #314, .T. ) ;
#225 = CARTESIAN_POINT ( 'NONE',  ( 14.86971232810076948, 3.132965802329187088, 2.500000000000000000 ) ) ;
#226 = ADVANCED_FACE ( 'NONE', ( #428 ), #667, .T. ) ;
#227 = EDGE_LOOP ( 'NONE', ( #16, #160, #495, #373, #363, #553, #545, #412, #391 ) ) ;
#228 = PLANE ( 'NONE',  #423 ) ;
#229 = CARTESIAN_POINT ( 'NONE',  ( 14.86971232810076948, 66.73092729468208972, 0.000000000000000000 ) ) ;
#230 = EDGE_CURVE ( 'NONE', #118, #221, #620, .T. ) ;
#231 = AXIS2_PLACEMENT_3D ( 'NONE', #347, #595, #290 ) ;
#232 = DIRECTION ( 'NONE',  ( 0.9515028082272134480, -0.2893375300624334567, 0.1045284632676536790 ) ) ;
#233 = LINE ( 'NONE', #229, #521 ) ;
#234 = ADVANCED_FACE ( 'NONE', ( #517 ), #572, .T. ) ;
#235 = PLANE ( 'NONE',  #214 ) ;
#236 = EDGE_LOOP ( 'NONE', ( #105, #624, #292, #6 ) ) ;
#237 = ADVANCED_BREP_SHAPE_REPRESENTATION ( 'gasket_top_cover', ( #210, #48 ), #137 ) ;
#238 = EDGE_CURVE ( 'NONE', #47, #663, #166, .T. ) ;
#239 = DIRECTION ( 'NONE',  ( 0.2909312820662348087, -0.9567439517003998306, 0.000000000000000000 ) ) ;
#240 = EDGE_LOOP ( 'NONE', ( #564, #213, #599, #348 ) ) ;
#241 = VERTEX_POINT ( 'NONE', #567 ) ;
#242 = PLANE ( 'NONE',  #130 ) ;
#243 = LINE ( 'NONE', #461, #216 ) ;
#244 = ORIENTED_EDGE ( 'NONE', *, *, #238, .F. ) ;
#245 = AXIS2_PLACEMENT_3D ( 'NONE', #510, #666, #158 ) ;
#246 = ADVANCED_FACE ( 'NONE', ( #269 ), #362, .T. ) ;
#247 = CARTESIAN_POINT ( 'NONE',  ( 44.94907805431299153, 65.79368788284628522, 2.500000000000000000 ) ) ;
#248 = LINE ( 'NONE', #341, #604 ) ;
#249 = ORIENTED_EDGE ( 'NONE', *, *, #128, .T. ) ;
#250 = AXIS2_PLACEMENT_3D ( 'NONE', #465, #4, #317 ) ;
#251 = CARTESIAN_POINT ( 'NONE',  ( 10.38773108076447116, 48.77016410432226223, 2.500000000000000000 ) ) ;
#252 = CARTESIAN_POINT ( 'NONE',  ( 9.384714531282766004, 20.90793023955747998, 0.000000000000000000 ) ) ;
#253 = ORIENTED_EDGE ( 'NONE', *, *, #35, .T. ) ;
#254 = CARTESIAN_POINT ( 'NONE',  ( 13.26250413604848255, 40.63185401174214206, 0.000000000000000000 ) ) ;
#255 = PLANE ( 'NONE',  #231 ) ;
#256 = ORIENTED_EDGE ( 'NONE', *, *, #366, .F. ) ;
#257 = EDGE_CURVE ( 'NONE', #522, #20, #173, .T. ) ;
#258 =( NAMED_UNIT ( * ) SI_UNIT ( $, .STERADIAN. ) SOLID_ANGLE_UNIT ( ) );
#259 = DIRECTION ( 'NONE',  ( 0.8962222799987005217, -0.4311141672467211361, 0.1045284632676537068 ) ) ;
#260 = ORIENTED_EDGE ( 'NONE', *, *, #487, .F. ) ;
#261 =( NAMED_UNIT ( * ) SI_UNIT ( $, .STERADIAN. ) SOLID_ANGLE_UNIT ( ) );
#262 = DIRECTION ( 'NONE',  ( 0.9940838708631317688, -0.02951369269805393866, 0.1045284632676537068 ) ) ;
#263 = EDGE_LOOP ( 'NONE', ( #370, #611, #28, #249 ) ) ;
#264 = DIRECTION ( 'NONE',  ( 1.000000000000000000, -0.000000000000000000, 0.000000000000000000 ) ) ;
#265 = ORIENTED_EDGE ( 'NONE', *, *, #26, .F. ) ;
#266 = VECTOR ( 'NONE', #192, 1000.000000000000114 ) ;
#267 = EDGE_CURVE ( 'NONE', #69, #20, #520, .T. ) ;
#268 = DIRECTION ( 'NONE',  ( -0.4334888646037085569, -0.9011589228679853791, -0.000000000000000000 ) ) ;
#269 = FACE_OUTER_BOUND ( 'NONE', #414, .T. ) ;
#270 = ORIENTED_EDGE ( 'NONE', *, *, #350, .F. ) ;
#271 = VECTOR ( 'NONE', #443, 1000.000000000000227 ) ;
#272 = VERTEX_POINT ( 'NONE', #574 ) ;
#273 = STYLED_ITEM ( 'NONE', ( #106 ), #237 ) ;
#274 = CARTESIAN_POINT ( 'NONE',  ( 15.50767005344036065, 65.60737256947318485, 2.500000000000000000 ) ) ;
#275 = ADVANCED_FACE ( 'NONE', ( #311 ), #169, .T. ) ;
#276 = VERTEX_POINT ( 'NONE', #616 ) ;
#277 = DIRECTION ( 'NONE',  ( -0.2909312820662348642, -0.9567439517003997196, 0.000000000000000000 ) ) ;
#278 = PLANE ( 'NONE',  #319 ) ;
#279 = DIRECTION ( 'NONE',  ( -0.2909312820662349197, -0.9567439517003997196, 0.000000000000000000 ) ) ;
#280 = ORIENTED_EDGE ( 'NONE', *, *, #267, .T. ) ;
#281 = DIRECTION ( 'NONE',  ( 1.000000000000000000, 2.079713857324681502E-16, 0.000000000000000000 ) ) ;
#282 = EDGE_LOOP ( 'NONE', ( #431, #484, #280, #334, #98, #253, #527, #73, #52 ) ) ;
#283 = UNCERTAINTY_MEASURE_WITH_UNIT (LENGTH_MEASURE( 1.000000000000000082E-05 ), #220, 'distance_accuracy_value', 'NONE');
#284 = EDGE_CURVE ( 'NONE', #515, #359, #119, .T. ) ;
#285 = LINE ( 'NONE', #488, #132 ) ;
#286 = ORIENTED_EDGE ( 'NONE', *, *, #571, .F. ) ;
#287 = DIRECTION ( 'NONE',  ( 0.1039620511844979306, -0.1039620511844979167, -0.9891328443778538704 ) ) ;
#288 = ORIENTED_EDGE ( 'NONE', *, *, #100, .F. ) ;
#289 = PLANE ( 'NONE',  #310 ) ;
#290 = DIRECTION ( 'NONE',  ( 0.1045740182106055516, 0.000000000000000000, 0.9945171062959590191 ) ) ;
#291 = EDGE_CURVE ( 'NONE', #512, #331, #163, .T. ) ;
#292 = ORIENTED_EDGE ( 'NONE', *, *, #530, .T. ) ;
#293 = DIRECTION ( 'NONE',  ( 0.07723743956571987868, 0.1042162082183836491, -0.9915509870268468529 ) ) ;
#294 = VECTOR ( 'NONE', #544, 1000.000000000000114 ) ;
#295 = PLANE ( 'NONE',  #469 ) ;
#296 = ORIENTED_EDGE ( 'NONE', *, *, #46, .T. ) ;
#297 = CARTESIAN_POINT ( 'NONE',  ( 14.45440985207132201, 40.92229637155631394, 0.000000000000000000 ) ) ;
#298 = SURFACE_SIDE_STYLE ('',( #598 ) ) ;
#299 = PRODUCT ( 'gasket_top_cover', 'gasket_top_cover', '', ( #630 ) ) ;
#300 = VECTOR ( 'NONE', #131, 1000.000000000000114 ) ;
#301 = VERTEX_POINT ( 'NONE', #524 ) ;
#302 = COLOUR_RGB ( '',0.7960784313725489669, 0.8235294117647058432, 0.9372549019607843146 ) ;
#303 = ADVANCED_FACE ( 'NONE', ( #67 ), #378, .T. ) ;
#304 = DIRECTION ( 'NONE',  ( -0.8962222799987005217, 0.4311141672467210806, 0.1045284632676537206 ) ) ;
#305 = DIRECTION ( 'NONE',  ( -0.2909312820662345866, -0.9567439517003997196, 0.000000000000000000 ) ) ;
#306 = EDGE_CURVE ( 'NONE', #359, #69, #336, .T. ) ;
#307 = ORIENTED_EDGE ( 'NONE', *, *, #407, .F. ) ;
#308 = DIRECTION ( 'NONE',  ( 1.000000000000000000, 0.000000000000000000, 0.000000000000000000 ) ) ;
#309 = ORIENTED_EDGE ( 'NONE', *, *, #230, .F. ) ;
#310 = AXIS2_PLACEMENT_3D ( 'NONE', #44, #450, #239 ) ;
#311 = FACE_OUTER_BOUND ( 'NONE', #236, .T. ) ;
#312 = ORIENTED_EDGE ( 'NONE', *, *, #539, .F. ) ;
#313 = SURFACE_STYLE_FILL_AREA ( #13 ) ;
#314 = PLANE ( 'NONE',  #11 ) ;
#315 = EDGE_LOOP ( 'NONE', ( #256, #565, #65, #113 ) ) ;
#316 = DIRECTION ( 'NONE',  ( 0.2909312820662347532, -0.9567439517003997196, 0.000000000000000000 ) ) ;
#317 = DIRECTION ( 'NONE',  ( 0.000000000000000000, -0.1045284632676537068, -0.9945218953682734009 ) ) ;
#318 = EDGE_LOOP ( 'NONE', ( #61, #449, #429, #129 ) ) ;
#319 = AXIS2_PLACEMENT_3D ( 'NONE', #486, #379, #644 ) ;
#320 = EDGE_CURVE ( 'NONE', #652, #614, #481, .T. ) ;
#321 = CARTESIAN_POINT ( 'NONE',  ( 9.665916127323207263, 48.71477897294079185, 2.500000000000000000 ) ) ;
#322 = CARTESIAN_POINT ( 'NONE',  ( 15.75906465691169167, 3.807444626000810128, 2.500000000000000000 ) ) ;
#323 = ORIENTED_EDGE ( 'NONE', *, *, #26, .T. ) ;
#324 = DIRECTION ( 'NONE',  ( -0.4334888646037085569, -0.9011589228679853791, 0.000000000000000000 ) ) ;
#325 = ORIENTED_EDGE ( 'NONE', *, *, #532, .F. ) ;
#326 = ADVANCED_FACE ( 'NONE', ( #392 ), #228, .T. ) ;
#327 = DIRECTION ( 'NONE',  ( 0.1039620511844979306, 0.1039620511844979722, -0.9891328443778538704 ) ) ;
#328 = ORIENTED_EDGE ( 'NONE', *, *, #409, .T. ) ;
#329 = VECTOR ( 'NONE', #482, 1000.000000000000114 ) ;
#330 = DIRECTION ( 'NONE',  ( -0.02967626236838654882, -0.9995595627334283861, -0.000000000000000000 ) ) ;
#331 = VERTEX_POINT ( 'NONE', #74 ) ;
#332 = CARTESIAN_POINT ( 'NONE',  ( 44.94907805431299153, 4.070205214165001806, 0.000000000000000000 ) ) ;
#333 = VECTOR ( 'NONE', #264, 1000.000000000000000 ) ;
#334 = ORIENTED_EDGE ( 'NONE', *, *, #366, .T. ) ;
#335 =( GEOMETRIC_REPRESENTATION_CONTEXT ( 3 ) GLOBAL_UNCERTAINTY_ASSIGNED_CONTEXT ( ( #283 ) ) GLOBAL_UNIT_ASSIGNED_CONTEXT ( ( #220, #53, #258 ) ) REPRESENTATION_CONTEXT ( 'NONE', 'WORKASPACE' ) );
#336 = LINE ( 'NONE', #332, #440 ) ;
#337 = VERTEX_POINT ( 'NONE', #483 ) ;
#338 = LINE ( 'NONE', #485, #153 ) ;
#339 = LINE ( 'NONE', #593, #329 ) ;
#340 = LINE ( 'NONE', #191, #271 ) ;
#341 = CARTESIAN_POINT ( 'NONE',  ( 14.37351511209227617, 34.80836400657798890, 2.500000000000000000 ) ) ;
#342 = CARTESIAN_POINT ( 'NONE',  ( 14.44029607569631679, 28.68227536781142106, 0.1351955381557485569 ) ) ;
#343 = LINE ( 'NONE', #552, #180 ) ;
#344 = ORIENTED_EDGE ( 'NONE', *, *, #358, .T. ) ;
#345 = CARTESIAN_POINT ( 'NONE',  ( 46.14907805431299437, 66.73092729468210393, 0.000000000000000000 ) ) ;
#346 = VECTOR ( 'NONE', #581, 1000.000000000000114 ) ;
#347 = CARTESIAN_POINT ( 'NONE',  ( 13.43563121309681385, 34.80056625442355767, 0.000000000000000000 ) ) ;
#348 = ORIENTED_EDGE ( 'NONE', *, *, #355, .T. ) ;
#349 = CARTESIAN_POINT ( 'NONE',  ( 14.45440985207132201, 28.67883613729080139, 0.000000000000000000 ) ) ;
#350 = EDGE_CURVE ( 'NONE', #618, #480, #435, .T. ) ;
#351 = LINE ( 'NONE', #103, #636 ) ;
#352 = VECTOR ( 'NONE', #150, 1000.000000000000114 ) ;
#353 = ORIENTED_EDGE ( 'NONE', *, *, #539, .T. ) ;
#354 = STYLED_ITEM ( 'NONE', ( #10 ), #210 ) ;
#355 = EDGE_CURVE ( 'NONE', #221, #331, #578, .T. ) ;
#356 = LINE ( 'NONE', #493, #110 ) ;
#357 = CARTESIAN_POINT ( 'NONE',  ( 15.75906465691169167, 4.070205214165001806, 0.000000000000000000 ) ) ;
#358 = EDGE_CURVE ( 'NONE', #568, #500, #338, .T. ) ;
#359 = VERTEX_POINT ( 'NONE', #389 ) ;
#360 = PRESENTATION_LAYER_ASSIGNMENT (  '', '', ( #273 ) ) ;
#361 = PLANE ( 'NONE',  #245 ) ;
#362 = PLANE ( 'NONE',  #451 ) ;
#363 = ORIENTED_EDGE ( 'NONE', *, *, #638, .T. ) ;
#364 = VECTOR ( 'NONE', #402, 1000.000000000000114 ) ;
#365 = DIRECTION ( 'NONE',  ( -0.9940838708631317688, -0.02951369269805398030, 0.1045284632676537068 ) ) ;
#366 = EDGE_CURVE ( 'NONE', #20, #164, #27, .T. ) ;
#367 = CARTESIAN_POINT ( 'NONE',  ( 14.45440985207132201, 28.67883613729080139, 0.000000000000000000 ) ) ;
#368 = ORIENTED_EDGE ( 'NONE', *, *, #355, .F. ) ;
#369 = CARTESIAN_POINT ( 'NONE',  ( 9.636109134754097028, 20.98437551434856729, 2.500000000000000000 ) ) ;
#370 = ORIENTED_EDGE ( 'NONE', *, *, #8, .T. ) ;
#371 = CARTESIAN_POINT ( 'NONE',  ( 44.94907805431299153, 65.53092729468210109, 0.000000000000000000 ) ) ;
#372 = EDGE_CURVE ( 'NONE', #589, #607, #580, .T. ) ;
#373 = ORIENTED_EDGE ( 'NONE', *, *, #657, .T. ) ;
#374 = DIRECTION ( 'NONE',  ( -0.1039620511844979306, -0.1039620511844979306, -0.9891328443778538704 ) ) ;
#375 = ORIENTED_EDGE ( 'NONE', *, *, #217, .F. ) ;
#376 = EDGE_CURVE ( 'NONE', #614, #301, #383, .T. ) ;
#377 = DIRECTION ( 'NONE',  ( 1.000000000000000000, 0.000000000000000000, 0.000000000000000000 ) ) ;
#378 = PLANE ( 'NONE',  #587 ) ;
#379 = DIRECTION ( 'NONE',  ( -4.412418063381771141E-16, 0.9945218953682734009, 0.1045284632676537068 ) ) ;
#380 = DIRECTION ( 'NONE',  ( 0.000000000000000000, -0.1045284632676537068, -0.9945218953682734009 ) ) ;
#381 = CARTESIAN_POINT ( 'NONE',  ( 10.43214362820270580, 48.67783701894752824, 2.500000000000000000 ) ) ;
#382 = VECTOR ( 'NONE', #198, 1000.000000000000114 ) ;
#383 = LINE ( 'NONE', #584, #32 ) ;
#384 = EDGE_CURVE ( 'NONE', #489, #47, #285, .T. ) ;
#385 = DIRECTION ( 'NONE',  ( 0.9515028082272134480, 0.2893375300624335122, 0.1045284632676537206 ) ) ;
#386 = UNCERTAINTY_MEASURE_WITH_UNIT (LENGTH_MEASURE( 1.000000000000000082E-05 ), #71, 'distance_accuracy_value', 'NONE');
#387 = VECTOR ( 'NONE', #330, 1000.000000000000227 ) ;
#388 = ADVANCED_FACE ( 'NONE', ( #125 ), #235, .T. ) ;
#389 = CARTESIAN_POINT ( 'NONE',  ( 45.21183864247718986, 3.807444626000810128, 2.500000000000000000 ) ) ;
#390 = ORIENTED_EDGE ( 'NONE', *, *, #148, .F. ) ;
#391 = ORIENTED_EDGE ( 'NONE', *, *, #320, .T. ) ;
#392 = FACE_OUTER_BOUND ( 'NONE', #315, .T. ) ;
#393 = PLANE ( 'NONE',  #2 ) ;
#394 = DIRECTION ( 'NONE',  ( -0.000000000000000000, 0.000000000000000000, 1.000000000000000000 ) ) ;
#395 = EDGE_CURVE ( 'NONE', #156, #78, #187, .T. ) ;
#396 = AXIS2_PLACEMENT_3D ( 'NONE', #116, #206, #625 ) ;
#397 = DIRECTION ( 'NONE',  ( 0.02967626236838656964, -0.9995595627334283861, 0.000000000000000000 ) ) ;
#398 = DIRECTION ( 'NONE',  ( 1.000000000000000000, 0.000000000000000000, 0.000000000000000000 ) ) ;
#399 = FILL_AREA_STYLE ('',( #448 ) ) ;
#400 = EDGE_LOOP ( 'NONE', ( #219, #660, #656, #12 ) ) ;
#401 = PRODUCT_DEFINITION ( 'General', '', #15, #635 ) ;
#402 = DIRECTION ( 'NONE',  ( 0.4334888646037082238, -0.9011589228679856012, 0.000000000000000000 ) ) ;
#403 = FACE_OUTER_BOUND ( 'NONE', #404, .T. ) ;
#404 = EDGE_LOOP ( 'NONE', ( #90, #286, #136, #549 ) ) ;
#405 = LINE ( 'NONE', #605, #352 ) ;
#406 = CARTESIAN_POINT ( 'NONE',  ( 46.14907805431299437, 66.73092729468210393, 0.000000000000000000 ) ) ;
#407 = EDGE_CURVE ( 'NONE', #540, #473, #139, .T. ) ;
#408 = ORIENTED_EDGE ( 'NONE', *, *, #284, .T. ) ;
#409 = EDGE_CURVE ( 'NONE', #221, #515, #529, .T. ) ;
#410 = FACE_BOUND ( 'NONE', #282, .T. ) ;
#411 = LINE ( 'NONE', #357, #94 ) ;
#412 = ORIENTED_EDGE ( 'NONE', *, *, #217, .T. ) ;
#413 = DIRECTION ( 'NONE',  ( 0.1045740182106055655, 0.000000000000000000, -0.9945171062959591302 ) ) ;
#414 = EDGE_LOOP ( 'NONE', ( #145, #312, #408, #126 ) ) ;
#415 = EDGE_CURVE ( 'NONE', #200, #489, #222, .T. ) ;
#416 = DIRECTION ( 'NONE',  ( -0.9945218953682734009, 0.000000000000000000, 0.1045284632676537068 ) ) ;
#417 = VECTOR ( 'NONE', #177, 1000.000000000000114 ) ;
#418 = EDGE_CURVE ( 'NONE', #167, #241, #176, .T. ) ;
#419 = ORIENTED_EDGE ( 'NONE', *, *, #476, .F. ) ;
#420 = VECTOR ( 'NONE', #497, 1000.000000000000000 ) ;
#421 = EDGE_CURVE ( 'NONE', #200, #272, #631, .T. ) ;
#422 = VERTEX_POINT ( 'NONE', #533 ) ;
#423 = AXIS2_PLACEMENT_3D ( 'NONE', #82, #541, #380 ) ;
#424 = PRESENTATION_LAYER_ASSIGNMENT (  '', '', ( #354 ) ) ;
#425 = CARTESIAN_POINT ( 'NONE',  ( 14.21762080346911894, 28.79273992631670254, 2.500000000000000000 ) ) ;
#426 = ORIENTED_EDGE ( 'NONE', *, *, #70, .F. ) ;
#427 = CARTESIAN_POINT ( 'NONE',  ( 14.45440985207132201, 40.92229637155631394, 0.000000000000000000 ) ) ;
#428 = FACE_OUTER_BOUND ( 'NONE', #318, .T. ) ;
#429 = ORIENTED_EDGE ( 'NONE', *, *, #418, .F. ) ;
#430 = CARTESIAN_POINT ( 'NONE',  ( 13.43373794294286938, 34.80056625442355767, -0.01800532854295216686 ) ) ;
#431 = ORIENTED_EDGE ( 'NONE', *, *, #590, .T. ) ;
#432 = DIRECTION ( 'NONE',  ( 1.000000000000000000, 2.079713857324681256E-16, -0.000000000000000000 ) ) ;
#433 = DIRECTION ( 'NONE',  ( 0.4334888646037084459, -0.9011589228679854902, 0.000000000000000000 ) ) ;
#434 = UNCERTAINTY_MEASURE_WITH_UNIT (LENGTH_MEASURE( 1.000000000000000082E-05 ), #612, 'distance_accuracy_value', 'NONE');
#435 = LINE ( 'NONE', #178, #42 ) ;
#436 = DIRECTION ( 'NONE',  ( -0.07723743956571985092, 0.1042162082183836352, -0.9915509870268468529 ) ) ;
#437 = AXIS2_PLACEMENT_3D ( 'NONE', #202, #45, #606 ) ;
#438 = CARTESIAN_POINT ( 'NONE',  ( 10.66893267680490531, 20.80939170087368595, 0.000000000000000000 ) ) ;
#439 = DIRECTION ( 'NONE',  ( 0.02967626236838656964, -0.9995595627334283861, 0.000000000000000000 ) ) ;
#440 = VECTOR ( 'NONE', #536, 1000.000000000000114 ) ;
#441 = CARTESIAN_POINT ( 'NONE',  ( 14.86971232810076948, 66.73092729468208972, 0.000000000000000000 ) ) ;
#442 = FACE_OUTER_BOUND ( 'NONE', #38, .T. ) ;
#443 = DIRECTION ( 'NONE',  ( -0.02967626236838652801, -0.9995595627334283861, 0.000000000000000000 ) ) ;
#444 = CARTESIAN_POINT ( 'NONE',  ( 14.63417240133345310, 34.80056625442355767, 0.01890213047228259807 ) ) ;
#445 = ORIENTED_EDGE ( 'NONE', *, *, #157, .T. ) ;
#446 = LINE ( 'NONE', #189, #498 ) ;
#447 = AXIS2_PLACEMENT_3D ( 'NONE', #7, #365, #165 ) ;
#448 = FILL_AREA_STYLE_COLOUR ( '', #302 ) ;
#449 = ORIENTED_EDGE ( 'NONE', *, *, #455, .F. ) ;
#450 = DIRECTION ( 'NONE',  ( -0.9515028082272134480, -0.2893375300624336233, 0.1045284632676537068 ) ) ;
#451 = AXIS2_PLACEMENT_3D ( 'NONE', #562, #112, #117 ) ;
#452 = CARTESIAN_POINT ( 'NONE',  ( 15.75906465691169167, 65.53092729468210109, 0.000000000000000000 ) ) ;
#453 = ORIENTED_EDGE ( 'NONE', *, *, #395, .T. ) ;
#454 = CARTESIAN_POINT ( 'NONE',  ( 14.86971232810076948, 66.73092729468208972, 0.000000000000000000 ) ) ;
#455 = EDGE_CURVE ( 'NONE', #241, #480, #77, .T. ) ;
#456 = CARTESIAN_POINT ( 'NONE',  ( 10.66893267680490887, 48.79174080797342583, 5.213730195234551330E-17 ) ) ;
#457 = ORIENTED_EDGE ( 'NONE', *, *, #8, .F. ) ;
#458 = CARTESIAN_POINT ( 'NONE',  ( 9.384714531282769556, 48.69320226928962825, 0.000000000000000000 ) ) ;
#459 = LINE ( 'NONE', #93, #550 ) ;
#460 = ORIENTED_EDGE ( 'NONE', *, *, #320, .F. ) ;
#461 = CARTESIAN_POINT ( 'NONE',  ( 46.14907805431299437, 66.46816670651791981, 2.500000000000000000 ) ) ;
#462 = EDGE_LOOP ( 'NONE', ( #205, #265, #133, #174 ) ) ;
#463 = EDGE_CURVE ( 'NONE', #337, #512, #340, .T. ) ;
#464 = SURFACE_SIDE_STYLE ('',( #313 ) ) ;
#465 = CARTESIAN_POINT ( 'NONE',  ( 14.86971232810076948, 2.870205214164995411, 0.000000000000000000 ) ) ;
#466 = ORIENTED_EDGE ( 'NONE', *, *, #50, .T. ) ;
#467 = PLANE ( 'NONE',  #396 ) ;
#468 =( NAMED_UNIT ( * ) PLANE_ANGLE_UNIT ( ) SI_UNIT ( $, .RADIAN. ) );
#469 = AXIS2_PLACEMENT_3D ( 'NONE', #89, #259, #195 ) ;
#470 = ORIENTED_EDGE ( 'NONE', *, *, #238, .T. ) ;
#471 = LINE ( 'NONE', #369, #162 ) ;
#472 = CARTESIAN_POINT ( 'NONE',  ( 44.94907805431299153, 4.070205214165001806, 0.000000000000000000 ) ) ;
#473 = VERTEX_POINT ( 'NONE', #251 ) ;
#474 = VECTOR ( 'NONE', #22, 1000.000000000000227 ) ;
#475 = MECHANICAL_DESIGN_GEOMETRIC_PRESENTATION_REPRESENTATION (  '', ( #354 ), #503 ) ;
#476 = EDGE_CURVE ( 'NONE', #614, #500, #405, .T. ) ;
#477 = CARTESIAN_POINT ( 'NONE',  ( 10.38773108076446761, 20.83096840452484599, 2.500000000000000000 ) ) ;
#478 = VERTEX_POINT ( 'NONE', #254 ) ;
#479 = DIRECTION ( 'NONE',  ( -0.2909312820662345866, -0.9567439517003997196, 0.000000000000000000 ) ) ;
#480 = VERTEX_POINT ( 'NONE', #102 ) ;
#481 = LINE ( 'NONE', #588, #526 ) ;
#482 = DIRECTION ( 'NONE',  ( 0.07723743956571987868, -0.1042162082183836630, -0.9915509870268468529 ) ) ;
#483 = CARTESIAN_POINT ( 'NONE',  ( 14.63615997070125552, 34.80056625442355767, 0.000000000000000000 ) ) ;
#484 = ORIENTED_EDGE ( 'NONE', *, *, #171, .T. ) ;
#485 = CARTESIAN_POINT ( 'NONE',  ( 14.86971232810076948, 66.73092729468208972, 0.000000000000000000 ) ) ;
#486 = CARTESIAN_POINT ( 'NONE',  ( 46.14907805431299437, 66.73092729468210393, 0.000000000000000000 ) ) ;
#487 = EDGE_CURVE ( 'NONE', #607, #337, #201, .T. ) ;
#488 = CARTESIAN_POINT ( 'NONE',  ( 13.43563121309681385, 34.80056625442355767, 0.000000000000000000 ) ) ;
#489 = VERTEX_POINT ( 'NONE', #650 ) ;
#490 = CARTESIAN_POINT ( 'NONE',  ( 14.19342164625596858, 40.85869903381250623, 2.500000000000000000 ) ) ;
#491 = ORIENTED_EDGE ( 'NONE', *, *, #138, .F. ) ;
#492 = ORIENTED_EDGE ( 'NONE', *, *, #657, .F. ) ;
#493 = CARTESIAN_POINT ( 'NONE',  ( 13.24905998058747159, 28.97255455508951272, -0.1287812548752090003 ) ) ;
#494 = PLANE ( 'NONE',  #101 ) ;
#495 = ORIENTED_EDGE ( 'NONE', *, *, #421, .T. ) ;
#496 = CLOSED_SHELL ( 'NONE', ( #80, #597, #642, #619, #120, #569, #560, #226, #234, #1, #388, #18, #246, #275, #326, #303, #648, #204, #224, #111 ) ) ;
#497 = DIRECTION ( 'NONE',  ( 0.000000000000000000, 1.000000000000000000, 0.000000000000000000 ) ) ;
#498 = VECTOR ( 'NONE', #600, 1000.000000000000227 ) ;
#499 = FACE_OUTER_BOUND ( 'NONE', #240, .T. ) ;
#500 = VERTEX_POINT ( 'NONE', #194 ) ;
#501 = VECTOR ( 'NONE', #637, 1000.000000000000000 ) ;
#502 = CARTESIAN_POINT ( 'NONE',  ( 46.14907805431299437, 2.870205214165002072, 7.965546744006437632E-32 ) ) ;
#503 =( GEOMETRIC_REPRESENTATION_CONTEXT ( 3 ) GLOBAL_UNCERTAINTY_ASSIGNED_CONTEXT ( ( #386 ) ) GLOBAL_UNIT_ASSIGNED_CONTEXT ( ( #71, #468, #218 ) ) REPRESENTATION_CONTEXT ( 'NONE', 'WORKASPACE' ) );
#504 = SURFACE_STYLE_USAGE ( .BOTH. , #298 ) ;
#505 = EDGE_LOOP ( 'NONE', ( #260, #223, #203, #323 ) ) ;
#506 = DIRECTION ( 'NONE',  ( -0.1037978024193864784, 0.02529334180794681405, -0.9942767537628003360 ) ) ;
#507 = COLOUR_RGB ( '',0.7960784313725489669, 0.8235294117647058432, 0.9372549019607843146 ) ;
#508 = LINE ( 'NONE', #456, #582 ) ;
#509 = EDGE_LOOP ( 'NONE', ( #603, #368, #328, #353 ) ) ;
#510 = CARTESIAN_POINT ( 'NONE',  ( 9.384714531282769556, 48.69320226928962825, 0.000000000000000000 ) ) ;
#511 = FACE_OUTER_BOUND ( 'NONE', #505, .T. ) ;
#512 = VERTEX_POINT ( 'NONE', #349 ) ;
#513 = FACE_OUTER_BOUND ( 'NONE', #263, .T. ) ;
#514 = DIRECTION ( 'NONE',  ( 0.1045284632676537068, 0.000000000000000000, 0.9945218953682734009 ) ) ;
#515 = VERTEX_POINT ( 'NONE', #543 ) ;
#516 =( NAMED_UNIT ( * ) PLANE_ANGLE_UNIT ( ) SI_UNIT ( $, .RADIAN. ) );
#517 = FACE_OUTER_BOUND ( 'NONE', #639, .T. ) ;
#518 = ORIENTED_EDGE ( 'NONE', *, *, #653, .F. ) ;
#519 = CARTESIAN_POINT ( 'NONE',  ( 46.14907805431299437, 2.870205214165002072, 0.000000000000000000 ) ) ;
#520 = LINE ( 'NONE', #472, #535 ) ;
#521 = VECTOR ( 'NONE', #436, 1000.000000000000227 ) ;
#522 = VERTEX_POINT ( 'NONE', #88 ) ;
#523 = EDGE_CURVE ( 'NONE', #241, #156, #658, .T. ) ;
#524 = CARTESIAN_POINT ( 'NONE',  ( 13.52349234186383597, 40.69545134948594978, 2.500000000000000000 ) ) ;
#525 = ORIENTED_EDGE ( 'NONE', *, *, #372, .T. ) ;
#526 = VECTOR ( 'NONE', #183, 1000.000000000000114 ) ;
#527 = ORIENTED_EDGE ( 'NONE', *, *, #487, .T. ) ;
#528 = APPLICATION_PROTOCOL_DEFINITION ( 'draft international standard', 'automotive_design', 1998, #109 ) ;
#529 = LINE ( 'NONE', #19, #300 ) ;
#530 = EDGE_CURVE ( 'NONE', #359, #522, #141, .T. ) ;
#531 = LINE ( 'NONE', #75, #209 ) ;
#532 = EDGE_CURVE ( 'NONE', #522, #540, #92, .T. ) ;
#533 = CARTESIAN_POINT ( 'NONE',  ( 9.665916127323203710, 20.88635353590631993, 2.500000000000000000 ) ) ;
#534 = ORIENTED_EDGE ( 'NONE', *, *, #577, .F. ) ;
#535 = VECTOR ( 'NONE', #623, 1000.000000000000000 ) ;
#536 = DIRECTION ( 'NONE',  ( -0.1039620511844979306, 0.1039620511844979306, -0.9891328443778538704 ) ) ;
#537 = ORIENTED_EDGE ( 'NONE', *, *, #46, .F. ) ;
#538 = DIRECTION ( 'NONE',  ( -1.000000000000000000, 0.000000000000000000, 0.000000000000000000 ) ) ;
#539 = EDGE_CURVE ( 'NONE', #515, #196, #197, .T. ) ;
#540 = VERTEX_POINT ( 'NONE', #39 ) ;
#541 = DIRECTION ( 'NONE',  ( 0.000000000000000000, -0.9945218953682734009, 0.1045284632676537068 ) ) ;
#542 = FACE_OUTER_BOUND ( 'NONE', #509, .T. ) ;
#543 = CARTESIAN_POINT ( 'NONE',  ( 15.56432570607539567, 3.807444626000810128, 2.500000000000000000 ) ) ;
#544 = DIRECTION ( 'NONE',  ( -0.1037978024193864784, -0.02529334180794680365, -0.9942767537628003360 ) ) ;
#545 = ORIENTED_EDGE ( 'NONE', *, *, #523, .T. ) ;
#546 = CARTESIAN_POINT ( 'NONE',  ( 0.000000000000000000, 0.000000000000000000, 0.000000000000000000 ) ) ;
#547 = LINE ( 'NONE', #147, #266 ) ;
#548 = PRODUCT_DEFINITION_SHAPE ( 'NONE', 'NONE',  #401 ) ;
#549 = ORIENTED_EDGE ( 'NONE', *, *, #415, .T. ) ;
#550 = VECTOR ( 'NONE', #54, 1000.000000000000114 ) ;
#551 = DIRECTION ( 'NONE',  ( -0.000000000000000000, 1.000000000000000000, -0.000000000000000000 ) ) ;
#552 = CARTESIAN_POINT ( 'NONE',  ( 13.52514899465746190, 40.63965176389657330, 2.500000000000000000 ) ) ;
#553 = ORIENTED_EDGE ( 'NONE', *, *, #418, .T. ) ;
#554 = VECTOR ( 'NONE', #479, 1000.000000000000114 ) ;
#555 = DIRECTION ( 'NONE',  ( -1.000000000000000000, 0.000000000000000000, 0.000000000000000000 ) ) ;
#556 = DIRECTION ( 'NONE',  ( -0.02967626236838652801, -0.9995595627334283861, 0.000000000000000000 ) ) ;
#557 = EDGE_LOOP ( 'NONE', ( #149, #186, #309, #491, #288, #537, #307, #325, #208 ) ) ;
#558 = PRODUCT_RELATED_PRODUCT_CATEGORY ( 'part', '', ( #299 ) ) ;
#559 = CARTESIAN_POINT ( 'NONE',  ( 13.69850758181028816, 34.80056625442355767, 2.500000000000000000 ) ) ;
#560 = ADVANCED_FACE ( 'NONE', ( #645 ), #289, .T. ) ;
#561 = ORIENTED_EDGE ( 'NONE', *, *, #17, .F. ) ;
#562 = CARTESIAN_POINT ( 'NONE',  ( 15.75906465691169167, 4.070205214165001806, 0.000000000000000000 ) ) ;
#563 = VECTOR ( 'NONE', #293, 1000.000000000000114 ) ;
#564 = ORIENTED_EDGE ( 'NONE', *, *, #291, .F. ) ;
#565 = ORIENTED_EDGE ( 'NONE', *, *, #257, .F. ) ;
#566 = FACE_OUTER_BOUND ( 'NONE', #665, .T. ) ;
#567 = CARTESIAN_POINT ( 'NONE',  ( 45.88631746614880313, 3.132965802329193750, 2.500000000000000000 ) ) ;
#568 = VERTEX_POINT ( 'NONE', #454 ) ;
#569 = ADVANCED_FACE ( 'NONE', ( #33 ), #242, .T. ) ;
#570 = DIRECTION ( 'NONE',  ( 0.1037978024193864923, -0.02529334180794677589, -0.9942767537628003360 ) ) ;
#571 = EDGE_CURVE ( 'NONE', #272, #47, #356, .T. ) ;
#572 = PLANE ( 'NONE',  #641 ) ;
#573 = ORIENTED_EDGE ( 'NONE', *, *, #571, .T. ) ;
#574 = CARTESIAN_POINT ( 'NONE',  ( 13.52349234186383597, 28.90568115936116200, 2.500000000000000000 ) ) ;
#575 = ORIENTED_EDGE ( 'NONE', *, *, #157, .F. ) ;
#576 = APPLICATION_PROTOCOL_DEFINITION ( 'draft international standard', 'automotive_design', 1998, #91 ) ;
#577 = EDGE_CURVE ( 'NONE', #500, #478, #143, .T. ) ;
#578 = LINE ( 'NONE', #438, #501 ) ;
#579 = ORIENTED_EDGE ( 'NONE', *, *, #124, .F. ) ;
#580 = LINE ( 'NONE', #181, #474 ) ;
#581 = DIRECTION ( 'NONE',  ( 0.4334888646037084459, -0.9011589228679854902, 0.000000000000000000 ) ) ;
#582 = VECTOR ( 'NONE', #659, 1000.000000000000114 ) ;
#583 = AXIS2_PLACEMENT_3D ( 'NONE', #546, #394, #398 ) ;
#584 = CARTESIAN_POINT ( 'NONE',  ( 9.621503579884970847, 48.80710605831552584, 2.500000000000000000 ) ) ;
#585 = LINE ( 'NONE', #252, #62 ) ;
#586 = VECTOR ( 'NONE', #327, 1000.000000000000114 ) ;
#587 = AXIS2_PLACEMENT_3D ( 'NONE', #24, #232, #135 ) ;
#588 = CARTESIAN_POINT ( 'NONE',  ( 15.12110693157209873, 66.65448201989100596, 2.500000000000000000 ) ) ;
#589 = VERTEX_POINT ( 'NONE', #490 ) ;
#590 = EDGE_CURVE ( 'NONE', #331, #196, #446, .T. ) ;
#591 = CARTESIAN_POINT ( 'NONE',  ( 46.14907805431299437, 66.73092729468210393, 0.000000000000000000 ) ) ;
#592 = EDGE_CURVE ( 'NONE', #78, #568, #146, .T. ) ;
#593 = CARTESIAN_POINT ( 'NONE',  ( 15.75906465691169167, 65.53092729468210109, 0.000000000000000000 ) ) ;
#594 = CARTESIAN_POINT ( 'NONE',  ( 15.75906465691169167, 4.070205214165001806, -6.981248632200775634E-17 ) ) ;
#595 = DIRECTION ( 'NONE',  ( -0.9940838708631317688, 0.02951369269805395948, 0.1045284632676537068 ) ) ;
#596 = LINE ( 'NONE', #342, #76 ) ;
#597 = ADVANCED_FACE ( 'NONE', ( #96, #410 ), #609, .F. ) ;
#598 = SURFACE_STYLE_FILL_AREA ( #399 ) ;
#599 = ORIENTED_EDGE ( 'NONE', *, *, #230, .T. ) ;
#600 = DIRECTION ( 'NONE',  ( 0.2909312820662346422, -0.9567439517003997196, 0.000000000000000000 ) ) ;
#601 = CARTESIAN_POINT ( 'NONE',  ( 15.75906465691169167, 4.070205214165001806, 0.000000000000000000 ) ) ;
#602 = EDGE_CURVE ( 'NONE', #118, #512, #596, .T. ) ;
#603 = ORIENTED_EDGE ( 'NONE', *, *, #590, .F. ) ;
#604 = VECTOR ( 'NONE', #556, 1000.000000000000114 ) ;
#605 = CARTESIAN_POINT ( 'NONE',  ( 9.384714531282769556, 48.69320226928962825, 0.000000000000000000 ) ) ;
#606 = DIRECTION ( 'NONE',  ( 1.000000000000000000, 0.000000000000000000, 0.000000000000000000 ) ) ;
#607 = VERTEX_POINT ( 'NONE', #427 ) ;
#608 = VECTOR ( 'NONE', #538, 1000.000000000000000 ) ;
#609 = PLANE ( 'NONE',  #583 ) ;
#610 = FACE_BOUND ( 'NONE', #557, .T. ) ;
#611 = ORIENTED_EDGE ( 'NONE', *, *, #415, .F. ) ;
#612 =( LENGTH_UNIT ( ) NAMED_UNIT ( * ) SI_UNIT ( .MILLI., .METRE. ) );
#613 = CARTESIAN_POINT ( 'NONE',  ( 46.14907805431299437, 2.870205214165002072, 0.000000000000000000 ) ) ;
#614 = VERTEX_POINT ( 'NONE', #321 ) ;
#615 = FILL_AREA_STYLE_COLOUR ( '', #507 ) ;
#616 = CARTESIAN_POINT ( 'NONE',  ( 10.66893267680490887, 48.79174080797342583, 0.000000000000000000 ) ) ;
#617 = VECTOR ( 'NONE', #268, 1000.000000000000227 ) ;
#618 = VERTEX_POINT ( 'NONE', #59 ) ;
#619 = ADVANCED_FACE ( 'NONE', ( #513 ), #161, .T. ) ;
#620 = LINE ( 'NONE', #425, #79 ) ;
#621 = VECTOR ( 'NONE', #324, 1000.000000000000227 ) ;
#622 = ORIENTED_EDGE ( 'NONE', *, *, #124, .T. ) ;
#623 = DIRECTION ( 'NONE',  ( 0.000000000000000000, 1.000000000000000000, 0.000000000000000000 ) ) ;
#624 = ORIENTED_EDGE ( 'NONE', *, *, #306, .F. ) ;
#625 = DIRECTION ( 'NONE',  ( -0.4334888646037084459, 0.9011589228679853791, 0.000000000000000000 ) ) ;
#626 = DIRECTION ( 'NONE',  ( 0.9945218953682734009, 0.000000000000000000, 0.1045284632676537068 ) ) ;
#627 = EDGE_LOOP ( 'NONE', ( #445, #108, #121, #185 ) ) ;
#628 = DIRECTION ( 'NONE',  ( -0.1045740182106055655, 0.000000000000000000, -0.9945171062959591302 ) ) ;
#629 = ORIENTED_EDGE ( 'NONE', *, *, #50, .F. ) ;
#630 = PRODUCT_CONTEXT ( 'NONE', #91, 'mechanical' ) ;
#631 = LINE ( 'NONE', #127, #387 ) ;
#632 = CARTESIAN_POINT ( 'NONE',  ( 44.94907805431299153, 65.53092729468210109, 0.000000000000000000 ) ) ;
#633 = CARTESIAN_POINT ( 'NONE',  ( 44.94907805431299153, 65.53092729468210109, 0.000000000000000000 ) ) ;
#634 = CARTESIAN_POINT ( 'NONE',  ( 44.94907805431299153, 4.070205214165001806, 0.000000000000000000 ) ) ;
#635 = PRODUCT_DEFINITION_CONTEXT ( 'detailed design', #109, 'design' ) ;
#636 = VECTOR ( 'NONE', #305, 1000.000000000000227 ) ;
#637 = DIRECTION ( 'NONE',  ( 0.1117716624847546608, -0.008576281472045576074, -0.9936969069396897059 ) ) ;
#638 = EDGE_CURVE ( 'NONE', #422, #167, #471, .T. ) ;
#639 = EDGE_LOOP ( 'NONE', ( #115, #31, #152, #170 ) ) ;
#640 = VECTOR ( 'NONE', #49, 1000.000000000000227 ) ;
#641 = AXIS2_PLACEMENT_3D ( 'NONE', #613, #626, #64 ) ;
#642 = ADVANCED_FACE ( 'NONE', ( #56 ), #361, .T. ) ;
#643 = DIRECTION ( 'NONE',  ( -0.9515028082272133370, 0.2893375300624337343, 0.1045284632676537206 ) ) ;
#644 = DIRECTION ( 'NONE',  ( 0.000000000000000000, -0.1045284632676537068, 0.9945218953682734009 ) ) ;
#645 = FACE_OUTER_BOUND ( 'NONE', #627, .T. ) ;
#646 = CARTESIAN_POINT ( 'NONE',  ( 45.88631746614880313, 66.46816670651790560, 2.500000000000000000 ) ) ;
#647 = ORIENTED_EDGE ( 'NONE', *, *, #592, .T. ) ;
#648 = ADVANCED_FACE ( 'NONE', ( #566 ), #467, .T. ) ;
#649 = VECTOR ( 'NONE', #661, 1000.000000000000000 ) ;
#650 = CARTESIAN_POINT ( 'NONE',  ( 13.43563121309681385, 34.80056625442355767, 0.000000000000000000 ) ) ;
#651 = CARTESIAN_POINT ( 'NONE',  ( 14.45440985207132201, 40.92229637155631394, 0.000000000000000000 ) ) ;
#652 = VERTEX_POINT ( 'NONE', #114 ) ;
#653 = EDGE_CURVE ( 'NONE', #480, #78, #172, .T. ) ;
#654 = CARTESIAN_POINT ( 'NONE',  ( 13.26250413604848255, 28.96927849710496616, 0.000000000000000000 ) ) ;
#655 = DIRECTION ( 'NONE',  ( -0.1117716624847546469, 0.008576281472045596890, -0.9936969069396897059 ) ) ;
#656 = ORIENTED_EDGE ( 'NONE', *, *, #376, .F. ) ;
#657 = EDGE_CURVE ( 'NONE', #272, #422, #63, .T. ) ;
#658 = LINE ( 'NONE', #154, #211 ) ;
#659 = DIRECTION ( 'NONE',  ( 0.1117716624847546331, 0.008576281472045607299, -0.9936969069396897059 ) ) ;
#660 = ORIENTED_EDGE ( 'NONE', *, *, #128, .F. ) ;
#661 = DIRECTION ( 'NONE',  ( -1.000000000000000000, -4.436722895625987172E-16, 0.000000000000000000 ) ) ;
#662 = CARTESIAN_POINT ( 'NONE',  ( 15.06445127893706371, 3.132965802329187088, 2.500000000000000000 ) ) ;
#663 = VERTEX_POINT ( 'NONE', #215 ) ;
#664 = CARTESIAN_POINT ( 'NONE',  ( 14.63615997070125552, 34.80056625442355767, 0.000000000000000000 ) ) ;
#665 = EDGE_LOOP ( 'NONE', ( #95, #579, #296, #525 ) ) ;
#666 = DIRECTION ( 'NONE',  ( -0.8962222799987006328, -0.4311141672467207475, 0.1045284632676537206 ) ) ;
#667 = PLANE ( 'NONE',  #250 ) ;
#668 = ORIENTED_EDGE ( 'NONE', *, *, #592, .F. ) ;
ENDSEC;
END-ISO-10303-21;
