ISO-10303-21;
HEADER;
FILE_DESCRIPTION (( 'STEP AP214' ),
    '1' );
FILE_NAME ('gasket_heatsink_external.STEP',
    '2026-08-21T18:09:49',
    ( '' ),
    ( '' ),
    'SwSTEP 2.0',
    'SolidWorks 2025',
    '' );
FILE_SCHEMA (( 'AUTOMOTIVE_DESIGN' ));
ENDSEC;

DATA;
#1 = CARTESIAN_POINT ( 'NONE',  ( 59.79391833059521844, 45.00000000000002132, 1.999999999999999112 ) ) ;
#2 = ORIENTED_EDGE ( 'NONE', *, *, #347, .F. ) ;
#3 = CARTESIAN_POINT ( 'NONE',  ( 23.07499999999999929, 25.00000000000001776, 0.000000000000000000 ) ) ;
#4 = VERTEX_POINT ( 'NONE', #554 ) ;
#5 = CIRCLE ( 'NONE', #17, 16.71891833059521559 ) ;
#6 = DIRECTION ( 'NONE',  ( 0.000000000000000000, 3.714293464175381867E-32, 1.000000000000000000 ) ) ;
#7 = VECTOR ( 'NONE', #449, 999.9999999999998863 ) ;
#8 = SURFACE_SIDE_STYLE ('',( #335 ) ) ;
#9 = ORIENTED_EDGE ( 'NONE', *, *, #303, .F. ) ;
#10 = AXIS2_PLACEMENT_3D ( 'NONE', #204, #336, #522 ) ;
#11 = DIRECTION ( 'NONE',  ( 0.000000000000000000, 3.714293464175381867E-32, 1.000000000000000000 ) ) ;
#12 = APPLICATION_PROTOCOL_DEFINITION ( 'draft international standard', 'automotive_design', 1998, #115 ) ;
#13 = VECTOR ( 'NONE', #139, 1000.000000000000000 ) ;
#14 = LINE ( 'NONE', #252, #248 ) ;
#15 = MANIFOLD_SOLID_BREP ( 'Boss-Extrude1', #511 ) ;
#16 = DIRECTION ( 'NONE',  ( -0.000000000000000000, 3.714293464175381867E-32, 1.000000000000000000 ) ) ;
#17 = AXIS2_PLACEMENT_3D ( 'NONE', #34, #227, #39 ) ;
#18 = DIRECTION ( 'NONE',  ( 1.000000000000000000, 0.000000000000000000, 0.000000000000000000 ) ) ;
#19 = EDGE_CURVE ( 'NONE', #455, #25, #231, .T. ) ;
#20 = CARTESIAN_POINT ( 'NONE',  ( 43.07500000000000284, 25.00000000000001776, 0.000000000000000000 ) ) ;
#21 = CIRCLE ( 'NONE', #300, 15.28108166940478085 ) ;
#22 = DIRECTION ( 'NONE',  ( 0.000000000000000000, 3.714293464175381867E-32, 1.000000000000000000 ) ) ;
#23 = CARTESIAN_POINT ( 'NONE',  ( 43.07500000000000284, 25.00000000000001776, 0.000000000000000000 ) ) ;
#24 = CIRCLE ( 'NONE', #567, 15.00000000000000000 ) ;
#25 = VERTEX_POINT ( 'NONE', #75 ) ;
#26 = EDGE_CURVE ( 'NONE', #134, #169, #503, .T. ) ;
#27 = DIRECTION ( 'NONE',  ( 1.000000000000000000, 0.000000000000000000, 0.000000000000000000 ) ) ;
#28 = VERTEX_POINT ( 'NONE', #427 ) ;
#29 = PLANE ( 'NONE',  #472 ) ;
#30 = VECTOR ( 'NONE', #50, 999.9999999999998863 ) ;
#31 = SURFACE_SIDE_STYLE ('',( #375 ) ) ;
#32 = ORIENTED_EDGE ( 'NONE', *, *, #26, .T. ) ;
#33 = AXIS2_PLACEMENT_3D ( 'NONE', #184, #171, #505 ) ;
#34 = CARTESIAN_POINT ( 'NONE',  ( 23.07499999999999929, 25.00000000000001776, 2.000000000000000000 ) ) ;
#35 = FACE_OUTER_BOUND ( 'NONE', #486, .T. ) ;
#36 = AXIS2_PLACEMENT_3D ( 'NONE', #299, #107, #304 ) ;
#37 = VECTOR ( 'NONE', #346, 1000.000000000000000 ) ;
#38 = ORIENTED_EDGE ( 'NONE', *, *, #528, .T. ) ;
#39 = DIRECTION ( 'NONE',  ( 1.000000000000000000, 0.000000000000000000, 0.000000000000000000 ) ) ;
#40 =( NAMED_UNIT ( * ) SI_UNIT ( $, .STERADIAN. ) SOLID_ANGLE_UNIT ( ) );
#41 = ORIENTED_EDGE ( 'NONE', *, *, #363, .T. ) ;
#42 = EDGE_CURVE ( 'NONE', #142, #610, #362, .T. ) ;
#43 = PLANE ( 'NONE',  #321 ) ;
#44 = ORIENTED_EDGE ( 'NONE', *, *, #97, .F. ) ;
#45 = DIRECTION ( 'NONE',  ( 0.000000000000000000, -0.1391731009600657432, 0.9902680687415703620 ) ) ;
#46 = CARTESIAN_POINT ( 'NONE',  ( 43.07500000000000284, 8.281081669404802170, 2.000000000000000000 ) ) ;
#47 = ORIENTED_EDGE ( 'NONE', *, *, #556, .F. ) ;
#48 = LINE ( 'NONE', #343, #210 ) ;
#49 = ADVANCED_FACE ( 'NONE', ( #262 ), #609, .T. ) ;
#50 = DIRECTION ( 'NONE',  ( -0.1391731009600657709, -2.840315828940192969E-17, -0.9902680687415703620 ) ) ;
#51 = VECTOR ( 'NONE', #532, 999.9999999999998863 ) ;
#52 = ORIENTED_EDGE ( 'NONE', *, *, #150, .T. ) ;
#53 = VERTEX_POINT ( 'NONE', #378 ) ;
#54 = CARTESIAN_POINT ( 'NONE',  ( 23.07499999999999574, 8.281081669404802170, 2.000000000000000000 ) ) ;
#55 = ORIENTED_EDGE ( 'NONE', *, *, #450, .T. ) ;
#56 =( GEOMETRIC_REPRESENTATION_CONTEXT ( 3 ) GLOBAL_UNCERTAINTY_ASSIGNED_CONTEXT ( ( #67 ) ) GLOBAL_UNIT_ASSIGNED_CONTEXT ( ( #86, #518, #40 ) ) REPRESENTATION_CONTEXT ( 'NONE', 'WORKASPACE' ) );
#57 =( NAMED_UNIT ( * ) SI_UNIT ( $, .STERADIAN. ) SOLID_ANGLE_UNIT ( ) );
#58 = FACE_OUTER_BOUND ( 'NONE', #555, .T. ) ;
#59 = ADVANCED_FACE ( 'NONE', ( #35 ), #558, .T. ) ;
#60 = AXIS2_PLACEMENT_3D ( 'NONE', #345, #98, #530 ) ;
#61 = FACE_OUTER_BOUND ( 'NONE', #293, .T. ) ;
#62 = CONICAL_SURFACE ( 'NONE', #116, 17.00000000000000000, 0.1396263401595466691 ) ;
#63 = CARTESIAN_POINT ( 'NONE',  ( 23.07500000000000284, 45.00000000000001421, 0.000000000000000000 ) ) ;
#64 = CARTESIAN_POINT ( 'NONE',  ( 58.07500000000000284, 45.00000000000002132, 0.000000000000000000 ) ) ;
#65 = VECTOR ( 'NONE', #358, 1000.000000000000000 ) ;
#66 = PRODUCT ( 'gasket_heatsink_external', 'gasket_heatsink_external', '', ( #409 ) ) ;
#67 = UNCERTAINTY_MEASURE_WITH_UNIT (LENGTH_MEASURE( 1.000000000000000082E-05 ), #86, 'distance_accuracy_value', 'NONE');
#68 = DIRECTION ( 'NONE',  ( 0.000000000000000000, 3.714293464175381867E-32, 1.000000000000000000 ) ) ;
#69 = VECTOR ( 'NONE', #444, 999.9999999999998863 ) ;
#70 = CARTESIAN_POINT ( 'NONE',  ( 23.07499999999999574, 9.718918330595235133, 2.000000000000000000 ) ) ;
#71 = CARTESIAN_POINT ( 'NONE',  ( 23.07499999999999929, 61.71891833059523691, 2.000000000000000000 ) ) ;
#72 = ORIENTED_EDGE ( 'NONE', *, *, #141, .F. ) ;
#73 = EDGE_CURVE ( 'NONE', #334, #340, #329, .T. ) ;
#74 = CARTESIAN_POINT ( 'NONE',  ( 6.356081669404781032, 25.00000000000001421, 2.000000000000000000 ) ) ;
#75 = CARTESIAN_POINT ( 'NONE',  ( 8.074999999999999289, 25.00000000000002132, 0.000000000000000000 ) ) ;
#76 = ORIENTED_EDGE ( 'NONE', *, *, #450, .F. ) ;
#77 = MECHANICAL_DESIGN_GEOMETRIC_PRESENTATION_REPRESENTATION (  '', ( #352 ), #372 ) ;
#78 = CARTESIAN_POINT ( 'NONE',  ( 7.793918330595218436, 45.00000000000001421, 1.999999999999999112 ) ) ;
#79 = ORIENTED_EDGE ( 'NONE', *, *, #208, .T. ) ;
#80 = CARTESIAN_POINT ( 'NONE',  ( 8.075000000000001066, 45.00000000000001421, 0.000000000000000000 ) ) ;
#81 = VECTOR ( 'NONE', #510, 1000.000000000000000 ) ;
#82 = ADVANCED_FACE ( 'NONE', ( #473 ), #43, .T. ) ;
#83 = CARTESIAN_POINT ( 'NONE',  ( 8.074999999999999289, 25.00000000000002132, 0.000000000000000000 ) ) ;
#84 = ORIENTED_EDGE ( 'NONE', *, *, #611, .F. ) ;
#85 = CARTESIAN_POINT ( 'NONE',  ( 6.074999999999997513, 45.00000000000002132, 0.000000000000000000 ) ) ;
#86 =( LENGTH_UNIT ( ) NAMED_UNIT ( * ) SI_UNIT ( .MILLI., .METRE. ) );
#87 = AXIS2_PLACEMENT_3D ( 'NONE', #451, #590, #18 ) ;
#88 = VECTOR ( 'NONE', #612, 999.9999999999998863 ) ;
#89 = EDGE_LOOP ( 'NONE', ( #599, #572, #285, #55 ) ) ;
#90 = LINE ( 'NONE', #521, #278 ) ;
#91 = CARTESIAN_POINT ( 'NONE',  ( 23.07499999999999929, 9.718918330595235133, 2.000000000000000000 ) ) ;
#92 = ORIENTED_EDGE ( 'NONE', *, *, #493, .T. ) ;
#93 = LINE ( 'NONE', #194, #51 ) ;
#94 = LINE ( 'NONE', #195, #69 ) ;
#95 = VERTEX_POINT ( 'NONE', #173 ) ;
#96 = VECTOR ( 'NONE', #563, 1000.000000000000000 ) ;
#97 = EDGE_CURVE ( 'NONE', #25, #424, #132, .T. ) ;
#98 = DIRECTION ( 'NONE',  ( -0.9902680687415703620, -6.842277657836020854E-49, 0.1391731009600657432 ) ) ;
#99 = ORIENTED_EDGE ( 'NONE', *, *, #440, .F. ) ;
#100 = CARTESIAN_POINT ( 'NONE',  ( 43.07500000000000284, 61.71891833059523691, 2.000000000000000000 ) ) ;
#101 = CARTESIAN_POINT ( 'NONE',  ( 23.07500000000000284, 45.00000000000001421, 0.000000000000000000 ) ) ;
#102 = ORIENTED_EDGE ( 'NONE', *, *, #187, .F. ) ;
#103 = DIRECTION ( 'NONE',  ( -2.840315828940192352E-17, 0.1391731009600657709, -0.9902680687415703620 ) ) ;
#104 = CARTESIAN_POINT ( 'NONE',  ( 60.07500000000000284, 25.00000000000001776, 0.000000000000000000 ) ) ;
#105 = EDGE_CURVE ( 'NONE', #245, #280, #176, .T. ) ;
#106 = CARTESIAN_POINT ( 'NONE',  ( 58.07500000000000284, 25.00000000000001776, 0.000000000000000000 ) ) ;
#107 = DIRECTION ( 'NONE',  ( 0.000000000000000000, 3.714293464175381867E-32, 1.000000000000000000 ) ) ;
#108 = LINE ( 'NONE', #355, #273 ) ;
#109 = EDGE_CURVE ( 'NONE', #577, #523, #21, .T. ) ;
#110 = DIRECTION ( 'NONE',  ( 0.000000000000000000, 3.714293464175381867E-32, 1.000000000000000000 ) ) ;
#111 = VECTOR ( 'NONE', #604, 999.9999999999998863 ) ;
#112 = VECTOR ( 'NONE', #544, 999.9999999999998863 ) ;
#113 = LINE ( 'NONE', #497, #7 ) ;
#114 = AXIS2_PLACEMENT_3D ( 'NONE', #101, #140, #491 ) ;
#115 = APPLICATION_CONTEXT ( 'automotive_design' ) ;
#116 = AXIS2_PLACEMENT_3D ( 'NONE', #23, #553, #217 ) ;
#117 = LINE ( 'NONE', #400, #111 ) ;
#118 = EDGE_CURVE ( 'NONE', #504, #610, #534, .T. ) ;
#119 = ORIENTED_EDGE ( 'NONE', *, *, #244, .T. ) ;
#120 = LINE ( 'NONE', #426, #365 ) ;
#121 = EDGE_LOOP ( 'NONE', ( #338, #52, #325, #319, #129, #348, #531, #267 ) ) ;
#122 = VERTEX_POINT ( 'NONE', #341 ) ;
#123 = DIRECTION ( 'NONE',  ( -1.000000000000000000, 0.000000000000000000, 0.000000000000000000 ) ) ;
#124 = ORIENTED_EDGE ( 'NONE', *, *, #440, .T. ) ;
#125 = ADVANCED_BREP_SHAPE_REPRESENTATION ( 'gasket_heatsink_external', ( #15, #239 ), #383 ) ;
#126 = AXIS2_PLACEMENT_3D ( 'NONE', #487, #527, #391 ) ;
#127 = CARTESIAN_POINT ( 'NONE',  ( 58.35608166940478725, 25.00000000000001776, 2.000000000000000000 ) ) ;
#128 = FILL_AREA_STYLE_COLOUR ( '', #408 ) ;
#129 = ORIENTED_EDGE ( 'NONE', *, *, #180, .T. ) ;
#130 = ADVANCED_FACE ( 'NONE', ( #246 ), #357, .F. ) ;
#131 = CARTESIAN_POINT ( 'NONE',  ( 7.793918330595214883, 25.00000000000002132, 1.999999999999999112 ) ) ;
#132 = CIRCLE ( 'NONE', #213, 15.00000000000000000 ) ;
#133 = ORIENTED_EDGE ( 'NONE', *, *, #73, .F. ) ;
#134 = VERTEX_POINT ( 'NONE', #429 ) ;
#135 = FACE_OUTER_BOUND ( 'NONE', #526, .T. ) ;
#136 = DIRECTION ( 'NONE',  ( 0.000000000000000000, -0.1391731009600657432, -0.9902680687415702510 ) ) ;
#137 = VECTOR ( 'NONE', #477, 1000.000000000000000 ) ;
#138 = ORIENTED_EDGE ( 'NONE', *, *, #399, .F. ) ;
#139 = DIRECTION ( 'NONE',  ( 1.000000000000000000, 0.000000000000000000, 0.000000000000000000 ) ) ;
#140 = DIRECTION ( 'NONE',  ( 0.000000000000000000, 3.714293464175381867E-32, 1.000000000000000000 ) ) ;
#141 = EDGE_CURVE ( 'NONE', #183, #95, #615, .T. ) ;
#142 = VERTEX_POINT ( 'NONE', #576 ) ;
#143 = CARTESIAN_POINT ( 'NONE',  ( 58.35608166940478725, 45.00000000000002132, 2.000000000000000000 ) ) ;
#144 = ORIENTED_EDGE ( 'NONE', *, *, #588, .T. ) ;
#145 = CIRCLE ( 'NONE', #224, 16.71891833059521559 ) ;
#146 = ORIENTED_EDGE ( 'NONE', *, *, #585, .F. ) ;
#147 = CARTESIAN_POINT ( 'NONE',  ( 6.074999999999997513, 25.00000000000001421, 0.000000000000000000 ) ) ;
#148 = ORIENTED_EDGE ( 'NONE', *, *, #233, .T. ) ;
#149 = AXIS2_PLACEMENT_3D ( 'NONE', #393, #156, #484 ) ;
#150 = EDGE_CURVE ( 'NONE', #53, #280, #242, .T. ) ;
#151 = ORIENTED_EDGE ( 'NONE', *, *, #19, .F. ) ;
#152 = DIRECTION ( 'NONE',  ( 1.000000000000000000, 0.000000000000000000, 0.000000000000000000 ) ) ;
#153 = CARTESIAN_POINT ( 'NONE',  ( 6.356081669404781032, 45.00000000000002132, 2.000000000000000000 ) ) ;
#154 = ORIENTED_EDGE ( 'NONE', *, *, #339, .T. ) ;
#155 = EDGE_CURVE ( 'NONE', #610, #95, #328, .T. ) ;
#156 = DIRECTION ( 'NONE',  ( 0.000000000000000000, -3.714293464175381867E-32, -1.000000000000000000 ) ) ;
#157 = ORIENTED_EDGE ( 'NONE', *, *, #508, .F. ) ;
#158 = CARTESIAN_POINT ( 'NONE',  ( 43.07500000000000284, 10.00000000000001954, 4.336808689942017736E-16 ) ) ;
#159 = FACE_OUTER_BOUND ( 'NONE', #613, .T. ) ;
#160 = ADVANCED_FACE ( 'NONE', ( #58 ), #287, .T. ) ;
#161 = PRODUCT_DEFINITION_CONTEXT ( 'detailed design', #247, 'design' ) ;
#162 = CARTESIAN_POINT ( 'NONE',  ( 43.07500000000000284, 62.00000000000002132, 0.000000000000000000 ) ) ;
#163 = MECHANICAL_DESIGN_GEOMETRIC_PRESENTATION_REPRESENTATION (  '', ( #196 ), #56 ) ;
#164 = CARTESIAN_POINT ( 'NONE',  ( 43.07500000000000284, 9.718918330595235133, 2.000000000000000000 ) ) ;
#165 = PRODUCT_DEFINITION_SHAPE ( 'NONE', 'NONE',  #172 ) ;
#166 = AXIS2_PLACEMENT_3D ( 'NONE', #480, #240, #381 ) ;
#167 = ADVANCED_FACE ( 'NONE', ( #396 ), #422, .T. ) ;
#168 = LINE ( 'NONE', #540, #65 ) ;
#169 = VERTEX_POINT ( 'NONE', #1 ) ;
#170 = AXIS2_PLACEMENT_3D ( 'NONE', #326, #595, #27 ) ;
#171 = DIRECTION ( 'NONE',  ( 0.9902680687415703620, -6.842277657836020854E-49, 0.1391731009600657432 ) ) ;
#172 = PRODUCT_DEFINITION ( 'General', '', #191, #161 ) ;
#173 = CARTESIAN_POINT ( 'NONE',  ( 23.07499999999999574, 8.000000000000017764, 0.000000000000000000 ) ) ;
#174 = ORIENTED_EDGE ( 'NONE', *, *, #475, .F. ) ;
#175 = DIRECTION ( 'NONE',  ( -0.1391731009600657709, -3.900008137384153150E-32, -0.9902680687415703620 ) ) ;
#176 = LINE ( 'NONE', #294, #295 ) ;
#177 = ORIENTED_EDGE ( 'NONE', *, *, #109, .F. ) ;
#178 = FACE_OUTER_BOUND ( 'NONE', #515, .T. ) ;
#179 = ORIENTED_EDGE ( 'NONE', *, *, #73, .T. ) ;
#180 = EDGE_CURVE ( 'NONE', #597, #428, #496, .T. ) ;
#181 = DIRECTION ( 'NONE',  ( 0.1391731009600657432, 3.900008137384153150E-32, 0.9902680687415703620 ) ) ;
#182 = ORIENTED_EDGE ( 'NONE', *, *, #155, .T. ) ;
#183 = VERTEX_POINT ( 'NONE', #54 ) ;
#184 = CARTESIAN_POINT ( 'NONE',  ( 60.07500000000000284, 25.00000000000001776, 0.000000000000000000 ) ) ;
#185 = DIRECTION ( 'NONE',  ( 6.871365065424786581E-16, -0.9902680687415703620, 0.1391731009600657432 ) ) ;
#186 = VERTEX_POINT ( 'NONE', #581 ) ;
#187 = EDGE_CURVE ( 'NONE', #236, #316, #94, .T. ) ;
#188 = LINE ( 'NONE', #104, #37 ) ;
#189 = ORIENTED_EDGE ( 'NONE', *, *, #493, .F. ) ;
#190 = LINE ( 'NONE', #100, #469 ) ;
#191 = PRODUCT_DEFINITION_FORMATION_WITH_SPECIFIED_SOURCE ( 'Symmetric', '', #66, .NOT_KNOWN. ) ;
#192 = CARTESIAN_POINT ( 'NONE',  ( 60.07500000000000284, 25.00000000000001776, 0.000000000000000000 ) ) ;
#193 = ORIENTED_EDGE ( 'NONE', *, *, #508, .T. ) ;
#194 = CARTESIAN_POINT ( 'NONE',  ( 23.07499999999999574, 10.00000000000001954, 0.000000000000000000 ) ) ;
#195 = CARTESIAN_POINT ( 'NONE',  ( 43.07500000000000284, 8.000000000000017764, 0.000000000000000000 ) ) ;
#196 = STYLED_ITEM ( 'NONE', ( #561 ), #15 ) ;
#197 = EDGE_LOOP ( 'NONE', ( #216, #474, #79, #258 ) ) ;
#198 = EDGE_CURVE ( 'NONE', #455, #334, #228, .T. ) ;
#199 = CIRCLE ( 'NONE', #541, 16.71891833059521915 ) ;
#200 = CARTESIAN_POINT ( 'NONE',  ( 23.07500000000000284, 45.00000000000001421, 2.000000000000000000 ) ) ;
#201 = AXIS2_PLACEMENT_3D ( 'NONE', #586, #16, #249 ) ;
#202 = PRESENTATION_STYLE_ASSIGNMENT (( #289 ) ) ;
#203 = EDGE_LOOP ( 'NONE', ( #99, #417, #133, #379, #189, #177, #138, #570 ) ) ;
#204 = CARTESIAN_POINT ( 'NONE',  ( 23.07500000000000284, 45.00000000000001421, 0.000000000000000000 ) ) ;
#205 = ORIENTED_EDGE ( 'NONE', *, *, #588, .F. ) ;
#206 = DIRECTION ( 'NONE',  ( -1.000000000000000000, -6.938893903907227392E-16, 0.000000000000000000 ) ) ;
#207 = LINE ( 'NONE', #162, #112 ) ;
#208 = EDGE_CURVE ( 'NONE', #245, #549, #305, .T. ) ;
#209 = DIRECTION ( 'NONE',  ( 1.000000000000000000, 0.000000000000000000, 0.000000000000000000 ) ) ;
#210 = VECTOR ( 'NONE', #573, 999.9999999999998863 ) ;
#211 = UNCERTAINTY_MEASURE_WITH_UNIT (LENGTH_MEASURE( 1.000000000000000082E-05 ), #394, 'distance_accuracy_value', 'NONE');
#212 = LINE ( 'NONE', #158, #601 ) ;
#213 = AXIS2_PLACEMENT_3D ( 'NONE', #551, #311, #416 ) ;
#214 = EDGE_CURVE ( 'NONE', #226, #4, #188, .T. ) ;
#215 = CARTESIAN_POINT ( 'NONE',  ( 43.07500000000000284, 45.00000000000002132, 0.000000000000000000 ) ) ;
#216 = ORIENTED_EDGE ( 'NONE', *, *, #257, .F. ) ;
#217 = DIRECTION ( 'NONE',  ( 1.000000000000000000, 0.000000000000000000, 0.000000000000000000 ) ) ;
#218 = ORIENTED_EDGE ( 'NONE', *, *, #297, .T. ) ;
#219 = CARTESIAN_POINT ( 'NONE',  ( 43.07500000000000284, 10.00000000000001599, 0.000000000000000000 ) ) ;
#220 = DIRECTION ( 'NONE',  ( 0.1391731009600657709, -1.207134227299594831E-17, -0.9902680687415703620 ) ) ;
#221 = ORIENTED_EDGE ( 'NONE', *, *, #564, .F. ) ;
#222 = CARTESIAN_POINT ( 'NONE',  ( 8.075000000000001066, 45.00000000000001421, 0.000000000000000000 ) ) ;
#223 = SURFACE_STYLE_USAGE ( .BOTH. , #31 ) ;
#224 = AXIS2_PLACEMENT_3D ( 'NONE', #584, #499, #209 ) ;
#225 = ADVANCED_FACE ( 'NONE', ( #61 ), #274, .F. ) ;
#226 = VERTEX_POINT ( 'NONE', #192 ) ;
#227 = DIRECTION ( 'NONE',  ( 0.000000000000000000, 3.714293464175381867E-32, 1.000000000000000000 ) ) ;
#228 = CIRCLE ( 'NONE', #580, 15.28108166940478441 ) ;
#229 = EDGE_LOOP ( 'NONE', ( #467, #9, #2, #552 ) ) ;
#230 = FACE_OUTER_BOUND ( 'NONE', #594, .T. ) ;
#231 = LINE ( 'NONE', #83, #354 ) ;
#232 = ORIENTED_EDGE ( 'NONE', *, *, #198, .T. ) ;
#233 = EDGE_CURVE ( 'NONE', #600, #504, #283, .T. ) ;
#234 = CARTESIAN_POINT ( 'NONE',  ( 60.07500000000000284, 45.00000000000002132, 0.000000000000000000 ) ) ;
#235 = CARTESIAN_POINT ( 'NONE',  ( 43.07500000000000284, 62.00000000000002132, 0.000000000000000000 ) ) ;
#236 = VERTEX_POINT ( 'NONE', #46 ) ;
#237 = LINE ( 'NONE', #431, #516 ) ;
#238 = ORIENTED_EDGE ( 'NONE', *, *, #187, .T. ) ;
#239 = AXIS2_PLACEMENT_3D ( 'NONE', #542, #406, #398 ) ;
#240 = DIRECTION ( 'NONE',  ( 0.000000000000000000, 3.714293464175381867E-32, 1.000000000000000000 ) ) ;
#241 = ORIENTED_EDGE ( 'NONE', *, *, #214, .F. ) ;
#242 = LINE ( 'NONE', #106, #593 ) ;
#243 = AXIS2_PLACEMENT_3D ( 'NONE', #270, #185, #465 ) ;
#244 = EDGE_CURVE ( 'NONE', #95, #316, #237, .T. ) ;
#245 = VERTEX_POINT ( 'NONE', #143 ) ;
#246 = FACE_OUTER_BOUND ( 'NONE', #483, .T. ) ;
#247 = APPLICATION_CONTEXT ( 'automotive_design' ) ;
#248 = VECTOR ( 'NONE', #452, 999.9999999999998863 ) ;
#249 = DIRECTION ( 'NONE',  ( 1.000000000000000000, 0.000000000000000000, 0.000000000000000000 ) ) ;
#250 = AXIS2_PLACEMENT_3D ( 'NONE', #318, #568, #45 ) ;
#251 = ADVANCED_FACE ( 'NONE', ( #308 ), #327, .F. ) ;
#252 = CARTESIAN_POINT ( 'NONE',  ( 43.07500000000000284, 60.00000000000002842, 4.336808689942017736E-16 ) ) ;
#253 = DIRECTION ( 'NONE',  ( 1.000000000000000000, -0.000000000000000000, -0.000000000000000000 ) ) ;
#254 = DIRECTION ( 'NONE',  ( 1.000000000000000000, 0.000000000000000000, 0.000000000000000000 ) ) ;
#255 = ADVANCED_FACE ( 'NONE', ( #159, #351 ), #448, .F. ) ;
#256 = DIRECTION ( 'NONE',  ( 0.000000000000000000, 3.714293464175381867E-32, 1.000000000000000000 ) ) ;
#257 = EDGE_CURVE ( 'NONE', #280, #368, #411, .T. ) ;
#258 = ORIENTED_EDGE ( 'NONE', *, *, #291, .T. ) ;
#259 = FACE_OUTER_BOUND ( 'NONE', #276, .T. ) ;
#260 = EDGE_LOOP ( 'NONE', ( #38, #390, #146, #238 ) ) ;
#261 = CARTESIAN_POINT ( 'NONE',  ( 58.07500000000000284, 25.00000000000001776, 0.000000000000000000 ) ) ;
#262 = FACE_OUTER_BOUND ( 'NONE', #89, .T. ) ;
#263 = ORIENTED_EDGE ( 'NONE', *, *, #485, .T. ) ;
#264 = EDGE_CURVE ( 'NONE', #478, #53, #24, .T. ) ;
#265 = DIRECTION ( 'NONE',  ( 0.000000000000000000, 3.714293464175381867E-32, 1.000000000000000000 ) ) ;
#266 = VERTEX_POINT ( 'NONE', #447 ) ;
#267 = ORIENTED_EDGE ( 'NONE', *, *, #556, .T. ) ;
#268 = PRESENTATION_LAYER_ASSIGNMENT (  '', '', ( #196 ) ) ;
#269 = DIRECTION ( 'NONE',  ( -0.000000000000000000, 3.714293464175381867E-32, 1.000000000000000000 ) ) ;
#270 = CARTESIAN_POINT ( 'NONE',  ( 43.07500000000000284, 60.00000000000002842, 0.000000000000000000 ) ) ;
#271 = ORIENTED_EDGE ( 'NONE', *, *, #264, .F. ) ;
#272 = PLANE ( 'NONE',  #360 ) ;
#273 = VECTOR ( 'NONE', #206, 1000.000000000000000 ) ;
#274 = CONICAL_SURFACE ( 'NONE', #166, 15.00000000000000000, 0.1396263401595466691 ) ;
#275 = EDGE_CURVE ( 'NONE', #428, #25, #494, .T. ) ;
#276 = EDGE_LOOP ( 'NONE', ( #574, #559, #432, #435 ) ) ;
#277 = DIRECTION ( 'NONE',  ( -1.000000000000000000, -0.000000000000000000, -0.000000000000000000 ) ) ;
#278 = VECTOR ( 'NONE', #103, 999.9999999999998863 ) ;
#279 = DIRECTION ( 'NONE',  ( 1.000000000000000000, 0.000000000000000000, 0.000000000000000000 ) ) ;
#280 = VERTEX_POINT ( 'NONE', #64 ) ;
#281 = EDGE_CURVE ( 'NONE', #4, #266, #443, .T. ) ;
#282 = FACE_OUTER_BOUND ( 'NONE', #312, .T. ) ;
#283 = LINE ( 'NONE', #389, #137 ) ;
#284 = CIRCLE ( 'NONE', #524, 17.00000000000001066 ) ;
#285 = ORIENTED_EDGE ( 'NONE', *, *, #399, .T. ) ;
#286 =( NAMED_UNIT ( * ) PLANE_ANGLE_UNIT ( ) SI_UNIT ( $, .RADIAN. ) );
#287 = PLANE ( 'NONE',  #60 ) ;
#288 = EDGE_LOOP ( 'NONE', ( #271, #617, #154, #193 ) ) ;
#289 = SURFACE_STYLE_USAGE ( .BOTH. , #8 ) ;
#290 = PRESENTATION_LAYER_ASSIGNMENT (  '', '', ( #352 ) ) ;
#291 = EDGE_CURVE ( 'NONE', #549, #368, #14, .T. ) ;
#292 = DIRECTION ( 'NONE',  ( 0.000000000000000000, 3.714293464175381867E-32, 1.000000000000000000 ) ) ;
#293 = EDGE_LOOP ( 'NONE', ( #44, #151, #232, #144 ) ) ;
#294 = CARTESIAN_POINT ( 'NONE',  ( 58.07500000000000284, 45.00000000000002132, 0.000000000000000000 ) ) ;
#295 = VECTOR ( 'NONE', #333, 999.9999999999998863 ) ;
#296 = DIRECTION ( 'NONE',  ( 1.000000000000000000, 0.000000000000000000, 0.000000000000000000 ) ) ;
#297 = EDGE_CURVE ( 'NONE', #183, #236, #403, .T. ) ;
#298 = CARTESIAN_POINT ( 'NONE',  ( 43.07500000000000284, 45.00000000000002132, 0.000000000000000000 ) ) ;
#299 = CARTESIAN_POINT ( 'NONE',  ( 43.07500000000000284, 45.00000000000002132, 0.000000000000000000 ) ) ;
#300 = AXIS2_PLACEMENT_3D ( 'NONE', #200, #292, #385 ) ;
#301 = VECTOR ( 'NONE', #560, 999.9999999999998863 ) ;
#302 = SHAPE_DEFINITION_REPRESENTATION ( #165, #125 ) ;
#303 = EDGE_CURVE ( 'NONE', #122, #266, #207, .T. ) ;
#304 = DIRECTION ( 'NONE',  ( 1.000000000000000000, 0.000000000000000000, 0.000000000000000000 ) ) ;
#305 = CIRCLE ( 'NONE', #545, 15.28108166940478441 ) ;
#306 = CARTESIAN_POINT ( 'NONE',  ( 43.07500000000000284, 25.00000000000001776, 0.000000000000000000 ) ) ;
#307 = CONICAL_SURFACE ( 'NONE', #170, 17.00000000000001066, 0.1396263401595466691 ) ;
#308 = FACE_OUTER_BOUND ( 'NONE', #197, .T. ) ;
#309 = EDGE_LOOP ( 'NONE', ( #430, #84, #92, #459 ) ) ;
#310 = DIRECTION ( 'NONE',  ( -0.9902680687415703620, -6.842277657836020854E-49, 0.1391731009600657432 ) ) ;
#311 = DIRECTION ( 'NONE',  ( 0.000000000000000000, 3.714293464175381867E-32, 1.000000000000000000 ) ) ;
#312 = EDGE_LOOP ( 'NONE', ( #182, #72, #174, #387 ) ) ;
#313 = EDGE_CURVE ( 'NONE', #368, #597, #108, .T. ) ;
#314 = FACE_BOUND ( 'NONE', #203, .T. ) ;
#315 = DIRECTION ( 'NONE',  ( 0.000000000000000000, -0.9902680687415702510, 0.1391731009600657432 ) ) ;
#316 = VERTEX_POINT ( 'NONE', #407 ) ;
#317 = CIRCLE ( 'NONE', #126, 16.71891833059521559 ) ;
#318 = CARTESIAN_POINT ( 'NONE',  ( 23.07499999999999929, 10.00000000000001954, 0.000000000000000000 ) ) ;
#319 = ORIENTED_EDGE ( 'NONE', *, *, #313, .T. ) ;
#320 = ORIENTED_EDGE ( 'NONE', *, *, #303, .T. ) ;
#321 = AXIS2_PLACEMENT_3D ( 'NONE', #235, #457, #596 ) ;
#322 = PLANE ( 'NONE',  #33 ) ;
#323 = EDGE_CURVE ( 'NONE', #134, #226, #113, .T. ) ;
#324 = DIRECTION ( 'NONE',  ( 0.000000000000000000, -1.000000000000000000, -3.714293464175381867E-32 ) ) ;
#325 = ORIENTED_EDGE ( 'NONE', *, *, #257, .T. ) ;
#326 = CARTESIAN_POINT ( 'NONE',  ( 23.07500000000000284, 45.00000000000001421, 0.000000000000000000 ) ) ;
#327 = CONICAL_SURFACE ( 'NONE', #36, 15.00000000000000000, 0.1396263401595466691 ) ;
#328 = CIRCLE ( 'NONE', #445, 17.00000000000000000 ) ;
#329 = LINE ( 'NONE', #91, #589 ) ;
#330 = ORIENTED_EDGE ( 'NONE', *, *, #528, .F. ) ;
#331 = CARTESIAN_POINT ( 'NONE',  ( 23.07499999999999929, 60.28108166940479862, 2.000000000000000000 ) ) ;
#332 = AXIS2_PLACEMENT_3D ( 'NONE', #361, #265, #550 ) ;
#333 = DIRECTION ( 'NONE',  ( -0.1391731009600657709, -3.900008137384153150E-32, -0.9902680687415703620 ) ) ;
#334 = VERTEX_POINT ( 'NONE', #70 ) ;
#335 = SURFACE_STYLE_FILL_AREA ( #441 ) ;
#336 = DIRECTION ( 'NONE',  ( 0.000000000000000000, 3.714293464175381867E-32, 1.000000000000000000 ) ) ;
#337 = CONICAL_SURFACE ( 'NONE', #418, 15.00000000000000000, 0.1396263401595466691 ) ;
#338 = ORIENTED_EDGE ( 'NONE', *, *, #264, .T. ) ;
#339 = EDGE_CURVE ( 'NONE', #340, #186, #356, .T. ) ;
#340 = VERTEX_POINT ( 'NONE', #164 ) ;
#341 = CARTESIAN_POINT ( 'NONE',  ( 43.07500000000000284, 61.71891833059523691, 2.000000000000000000 ) ) ;
#342 = ORIENTED_EDGE ( 'NONE', *, *, #281, .F. ) ;
#343 = CARTESIAN_POINT ( 'NONE',  ( 8.075000000000002842, 45.00000000000001421, 4.336808689942017736E-16 ) ) ;
#344 = ORIENTED_EDGE ( 'NONE', *, *, #475, .T. ) ;
#345 = CARTESIAN_POINT ( 'NONE',  ( 58.07500000000000284, 25.00000000000001776, 0.000000000000000000 ) ) ;
#346 = DIRECTION ( 'NONE',  ( 0.000000000000000000, 1.000000000000000000, 3.714293464175381867E-32 ) ) ;
#347 = EDGE_CURVE ( 'NONE', #169, #122, #145, .T. ) ;
#348 = ORIENTED_EDGE ( 'NONE', *, *, #275, .T. ) ;
#349 = DIRECTION ( 'NONE',  ( 1.000000000000000000, 0.000000000000000000, 0.000000000000000000 ) ) ;
#350 = APPLICATION_PROTOCOL_DEFINITION ( 'draft international standard', 'automotive_design', 1998, #247 ) ;
#351 = FACE_BOUND ( 'NONE', #121, .T. ) ;
#352 = STYLED_ITEM ( 'NONE', ( #202 ), #125 ) ;
#353 = FACE_OUTER_BOUND ( 'NONE', #288, .T. ) ;
#354 = VECTOR ( 'NONE', #220, 999.9999999999998863 ) ;
#355 = CARTESIAN_POINT ( 'NONE',  ( 43.07500000000000284, 60.00000000000002842, 0.000000000000000000 ) ) ;
#356 = CIRCLE ( 'NONE', #87, 15.28108166940478441 ) ;
#357 = CONICAL_SURFACE ( 'NONE', #10, 14.99999999999999645, 0.1396263401595466691 ) ;
#358 = DIRECTION ( 'NONE',  ( -1.000000000000000000, -6.938893903907229364E-16, 0.000000000000000000 ) ) ;
#359 = ORIENTED_EDGE ( 'NONE', *, *, #578, .F. ) ;
#360 = AXIS2_PLACEMENT_3D ( 'NONE', #85, #310, #181 ) ;
#361 = CARTESIAN_POINT ( 'NONE',  ( 43.07500000000000284, 25.00000000000001776, 0.000000000000000000 ) ) ;
#362 = LINE ( 'NONE', #506, #437 ) ;
#363 = EDGE_CURVE ( 'NONE', #340, #478, #212, .T. ) ;
#364 = ORIENTED_EDGE ( 'NONE', *, *, #386, .F. ) ;
#365 = VECTOR ( 'NONE', #123, 1000.000000000000000 ) ;
#366 = FACE_OUTER_BOUND ( 'NONE', #260, .T. ) ;
#367 = ORIENTED_EDGE ( 'NONE', *, *, #323, .T. ) ;
#368 = VERTEX_POINT ( 'NONE', #401 ) ;
#369 = PLANE ( 'NONE',  #250 ) ;
#370 = CARTESIAN_POINT ( 'NONE',  ( 59.79391833059521844, 25.00000000000001776, 1.999999999999999112 ) ) ;
#371 = ORIENTED_EDGE ( 'NONE', *, *, #42, .F. ) ;
#372 =( GEOMETRIC_REPRESENTATION_CONTEXT ( 3 ) GLOBAL_UNCERTAINTY_ASSIGNED_CONTEXT ( ( #211 ) ) GLOBAL_UNIT_ASSIGNED_CONTEXT ( ( #394, #286, #479 ) ) REPRESENTATION_CONTEXT ( 'NONE', 'WORKASPACE' ) );
#373 = ADVANCED_FACE ( 'NONE', ( #353 ), #337, .F. ) ;
#374 = DIRECTION ( 'NONE',  ( 0.000000000000000000, 1.000000000000000000, 3.714293464175382962E-32 ) ) ;
#375 = SURFACE_STYLE_FILL_AREA ( #461 ) ;
#376 = ORIENTED_EDGE ( 'NONE', *, *, #155, .F. ) ;
#377 = LINE ( 'NONE', #456, #96 ) ;
#378 = CARTESIAN_POINT ( 'NONE',  ( 58.07500000000000284, 25.00000000000001776, 0.000000000000000000 ) ) ;
#379 = ORIENTED_EDGE ( 'NONE', *, *, #198, .F. ) ;
#380 = DIRECTION ( 'NONE',  ( 1.000000000000000000, 0.000000000000000000, 0.000000000000000000 ) ) ;
#381 = DIRECTION ( 'NONE',  ( 1.000000000000000000, 0.000000000000000000, 0.000000000000000000 ) ) ;
#382 = EDGE_LOOP ( 'NONE', ( #606, #359, #425, #367 ) ) ;
#383 =( GEOMETRIC_REPRESENTATION_CONTEXT ( 3 ) GLOBAL_UNCERTAINTY_ASSIGNED_CONTEXT ( ( #402 ) ) GLOBAL_UNIT_ASSIGNED_CONTEXT ( ( #579, #482, #57 ) ) REPRESENTATION_CONTEXT ( 'NONE', 'WORKASPACE' ) );
#384 = CARTESIAN_POINT ( 'NONE',  ( 23.07499999999999929, 60.00000000000001421, 0.000000000000000000 ) ) ;
#385 = DIRECTION ( 'NONE',  ( 1.000000000000000000, 0.000000000000000000, 0.000000000000000000 ) ) ;
#386 = EDGE_CURVE ( 'NONE', #28, #142, #284, .T. ) ;
#387 = ORIENTED_EDGE ( 'NONE', *, *, #118, .T. ) ;
#388 = CARTESIAN_POINT ( 'NONE',  ( 6.074999999999997513, 25.00000000000002132, 0.000000000000000000 ) ) ;
#389 = CARTESIAN_POINT ( 'NONE',  ( 6.356081669404781032, 45.00000000000002132, 2.000000000000000000 ) ) ;
#390 = ORIENTED_EDGE ( 'NONE', *, *, #323, .F. ) ;
#391 = DIRECTION ( 'NONE',  ( 1.000000000000000000, 0.000000000000000000, 0.000000000000000000 ) ) ;
#392 = AXIS2_PLACEMENT_3D ( 'NONE', #298, #68, #254 ) ;
#393 = CARTESIAN_POINT ( 'NONE',  ( 43.07500000000000284, 45.00000000000002132, 0.000000000000000000 ) ) ;
#394 =( LENGTH_UNIT ( ) NAMED_UNIT ( * ) SI_UNIT ( .MILLI., .METRE. ) );
#395 = ORIENTED_EDGE ( 'NONE', *, *, #347, .T. ) ;
#396 = FACE_OUTER_BOUND ( 'NONE', #229, .T. ) ;
#397 = CIRCLE ( 'NONE', #332, 17.00000000000000000 ) ;
#398 = DIRECTION ( 'NONE',  ( 1.000000000000000000, 0.000000000000000000, 0.000000000000000000 ) ) ;
#399 = EDGE_CURVE ( 'NONE', #549, #577, #168, .T. ) ;
#400 = CARTESIAN_POINT ( 'NONE',  ( 6.074999999999997513, 45.00000000000002132, 0.000000000000000000 ) ) ;
#401 = CARTESIAN_POINT ( 'NONE',  ( 43.07500000000000284, 60.00000000000002842, 0.000000000000000000 ) ) ;
#402 = UNCERTAINTY_MEASURE_WITH_UNIT (LENGTH_MEASURE( 1.000000000000000082E-05 ), #579, 'distance_accuracy_value', 'NONE');
#403 = LINE ( 'NONE', #539, #592 ) ;
#404 = VECTOR ( 'NONE', #476, 999.9999999999998863 ) ;
#405 = EDGE_CURVE ( 'NONE', #600, #142, #117, .T. ) ;
#406 = DIRECTION ( 'NONE',  ( 0.000000000000000000, 0.000000000000000000, 1.000000000000000000 ) ) ;
#407 = CARTESIAN_POINT ( 'NONE',  ( 43.07500000000000284, 8.000000000000017764, 0.000000000000000000 ) ) ;
#408 = COLOUR_RGB ( '',0.7960784313725489669, 0.8235294117647058432, 0.9372549019607843146 ) ;
#409 = PRODUCT_CONTEXT ( 'NONE', #115, 'mechanical' ) ;
#410 = DIRECTION ( 'NONE',  ( 0.000000000000000000, 3.714293464175381867E-32, 1.000000000000000000 ) ) ;
#411 = CIRCLE ( 'NONE', #490, 15.00000000000000000 ) ;
#412 = ORIENTED_EDGE ( 'NONE', *, *, #109, .T. ) ;
#413 = LINE ( 'NONE', #127, #575 ) ;
#414 = ORIENTED_EDGE ( 'NONE', *, *, #297, .F. ) ;
#415 = CARTESIAN_POINT ( 'NONE',  ( 23.07499999999999929, 10.00000000000001954, 0.000000000000000000 ) ) ;
#416 = DIRECTION ( 'NONE',  ( 1.000000000000000000, 0.000000000000000000, 0.000000000000000000 ) ) ;
#417 = ORIENTED_EDGE ( 'NONE', *, *, #339, .F. ) ;
#418 = AXIS2_PLACEMENT_3D ( 'NONE', #306, #256, #349 ) ;
#419 = DIRECTION ( 'NONE',  ( 0.9902680687415703620, -8.589206331781085531E-17, 0.1391731009600657432 ) ) ;
#420 = ADVANCED_FACE ( 'NONE', ( #135, #314 ), #513, .T. ) ;
#421 = ORIENTED_EDGE ( 'NONE', *, *, #150, .F. ) ;
#422 = CONICAL_SURFACE ( 'NONE', #149, 17.00000000000000000, 0.1396263401595466691 ) ;
#423 = DIRECTION ( 'NONE',  ( 1.000000000000000000, 0.000000000000000000, 0.000000000000000000 ) ) ;
#424 = VERTEX_POINT ( 'NONE', #415 ) ;
#425 = ORIENTED_EDGE ( 'NONE', *, *, #26, .F. ) ;
#426 = CARTESIAN_POINT ( 'NONE',  ( 43.07500000000000284, 62.00000000000002132, 0.000000000000000000 ) ) ;
#427 = CARTESIAN_POINT ( 'NONE',  ( 23.07500000000000639, 62.00000000000002132, 0.000000000000000000 ) ) ;
#428 = VERTEX_POINT ( 'NONE', #80 ) ;
#429 = CARTESIAN_POINT ( 'NONE',  ( 59.79391833059521844, 25.00000000000001776, 1.999999999999999112 ) ) ;
#430 = ORIENTED_EDGE ( 'NONE', *, *, #275, .F. ) ;
#431 = CARTESIAN_POINT ( 'NONE',  ( 23.07499999999999574, 8.000000000000017764, 0.000000000000000000 ) ) ;
#432 = ORIENTED_EDGE ( 'NONE', *, *, #466, .F. ) ;
#433 = LINE ( 'NONE', #618, #13 ) ;
#434 = DIRECTION ( 'NONE',  ( 1.000000000000000000, 0.000000000000000000, 0.000000000000000000 ) ) ;
#435 = ORIENTED_EDGE ( 'NONE', *, *, #547, .T. ) ;
#436 = DIRECTION ( 'NONE',  ( 0.000000000000000000, -3.714293464175381867E-32, -1.000000000000000000 ) ) ;
#437 = VECTOR ( 'NONE', #324, 1000.000000000000000 ) ;
#438 = ORIENTED_EDGE ( 'NONE', *, *, #180, .F. ) ;
#439 = CARTESIAN_POINT ( 'NONE',  ( 23.07499999999999929, 25.00000000000001776, 2.000000000000000000 ) ) ;
#440 = EDGE_CURVE ( 'NONE', #186, #245, #413, .T. ) ;
#441 = FILL_AREA_STYLE ('',( #614 ) ) ;
#442 = ORIENTED_EDGE ( 'NONE', *, *, #547, .F. ) ;
#443 = CIRCLE ( 'NONE', #392, 17.00000000000000000 ) ;
#444 = DIRECTION ( 'NONE',  ( 0.000000000000000000, -0.1391731009600657709, -0.9902680687415703620 ) ) ;
#445 = AXIS2_PLACEMENT_3D ( 'NONE', #525, #489, #434 ) ;
#446 = PRODUCT_RELATED_PRODUCT_CATEGORY ( 'part', '', ( #66 ) ) ;
#447 = CARTESIAN_POINT ( 'NONE',  ( 43.07500000000000284, 62.00000000000002132, 0.000000000000000000 ) ) ;
#448 = PLANE ( 'NONE',  #201 ) ;
#449 = DIRECTION ( 'NONE',  ( 0.1391731009600657709, -3.900008137384153150E-32, -0.9902680687415703620 ) ) ;
#450 = EDGE_CURVE ( 'NONE', #577, #597, #557, .T. ) ;
#451 = CARTESIAN_POINT ( 'NONE',  ( 43.07500000000000284, 25.00000000000001776, 2.000000000000000000 ) ) ;
#452 = DIRECTION ( 'NONE',  ( 0.000000000000000000, -0.1391731009600657709, -0.9902680687415703620 ) ) ;
#453 = ADVANCED_FACE ( 'NONE', ( #608 ), #322, .T. ) ;
#454 = CARTESIAN_POINT ( 'NONE',  ( 23.07500000000000284, 45.00000000000001421, 2.000000000000000000 ) ) ;
#455 = VERTEX_POINT ( 'NONE', #131 ) ;
#456 = CARTESIAN_POINT ( 'NONE',  ( 7.793918330595218436, 45.00000000000001421, 1.999999999999999112 ) ) ;
#457 = DIRECTION ( 'NONE',  ( 0.000000000000000000, 0.9902680687415703620, 0.1391731009600657432 ) ) ;
#458 = CONICAL_SURFACE ( 'NONE', #616, 17.00000000000000000, 0.1396263401595466691 ) ;
#459 = ORIENTED_EDGE ( 'NONE', *, *, #19, .T. ) ;
#460 = FACE_OUTER_BOUND ( 'NONE', #309, .T. ) ;
#461 = FILL_AREA_STYLE ('',( #128 ) ) ;
#462 = VERTEX_POINT ( 'NONE', #71 ) ;
#463 = AXIS2_PLACEMENT_3D ( 'NONE', #509, #269, #470 ) ;
#464 = CARTESIAN_POINT ( 'NONE',  ( 23.07499999999999929, 60.00000000000001421, 0.000000000000000000 ) ) ;
#465 = DIRECTION ( 'NONE',  ( 0.000000000000000000, -0.1391731009600657432, -0.9902680687415703620 ) ) ;
#466 = EDGE_CURVE ( 'NONE', #462, #600, #199, .T. ) ;
#467 = ORIENTED_EDGE ( 'NONE', *, *, #281, .T. ) ;
#468 = VECTOR ( 'NONE', #546, 1000.000000000000000 ) ;
#469 = VECTOR ( 'NONE', #277, 1000.000000000000000 ) ;
#470 = DIRECTION ( 'NONE',  ( 1.000000000000000000, 0.000000000000000000, 0.000000000000000000 ) ) ;
#471 = ORIENTED_EDGE ( 'NONE', *, *, #233, .F. ) ;
#472 = AXIS2_PLACEMENT_3D ( 'NONE', #222, #419, #602 ) ;
#473 = FACE_OUTER_BOUND ( 'NONE', #520, .T. ) ;
#474 = ORIENTED_EDGE ( 'NONE', *, *, #105, .F. ) ;
#475 = EDGE_CURVE ( 'NONE', #504, #183, #5, .T. ) ;
#476 = DIRECTION ( 'NONE',  ( 0.1391731009600657709, -3.900008137384153150E-32, -0.9902680687415703620 ) ) ;
#477 = DIRECTION ( 'NONE',  ( -0.000000000000000000, -1.000000000000000000, -3.714293464175382962E-32 ) ) ;
#478 = VERTEX_POINT ( 'NONE', #219 ) ;
#479 =( NAMED_UNIT ( * ) SI_UNIT ( $, .STERADIAN. ) SOLID_ANGLE_UNIT ( ) );
#480 = CARTESIAN_POINT ( 'NONE',  ( 23.07499999999999929, 25.00000000000001776, 0.000000000000000000 ) ) ;
#481 = ORIENTED_EDGE ( 'NONE', *, *, #466, .T. ) ;
#482 =( NAMED_UNIT ( * ) PLANE_ANGLE_UNIT ( ) SI_UNIT ( $, .RADIAN. ) );
#483 = EDGE_LOOP ( 'NONE', ( #438, #76, #412, #501 ) ) ;
#484 = DIRECTION ( 'NONE',  ( 1.000000000000000000, 0.000000000000000000, 0.000000000000000000 ) ) ;
#485 = EDGE_CURVE ( 'NONE', #266, #28, #120, .T. ) ;
#486 = EDGE_LOOP ( 'NONE', ( #119, #102, #414, #562 ) ) ;
#487 = CARTESIAN_POINT ( 'NONE',  ( 43.07500000000000284, 25.00000000000001776, 2.000000000000000000 ) ) ;
#488 = AXIS2_PLACEMENT_3D ( 'NONE', #565, #315, #136 ) ;
#489 = DIRECTION ( 'NONE',  ( 0.000000000000000000, 3.714293464175381867E-32, 1.000000000000000000 ) ) ;
#490 = AXIS2_PLACEMENT_3D ( 'NONE', #215, #110, #536 ) ;
#491 = DIRECTION ( 'NONE',  ( 1.000000000000000000, 0.000000000000000000, 0.000000000000000000 ) ) ;
#492 = DIRECTION ( 'NONE',  ( 0.000000000000000000, 0.1391731009600657709, -0.9902680687415703620 ) ) ;
#493 = EDGE_CURVE ( 'NONE', #523, #455, #377, .T. ) ;
#494 = LINE ( 'NONE', #587, #468 ) ;
#495 = DIRECTION ( 'NONE',  ( 1.000000000000000000, 0.000000000000000000, 0.000000000000000000 ) ) ;
#496 = CIRCLE ( 'NONE', #114, 14.99999999999999645 ) ;
#497 = CARTESIAN_POINT ( 'NONE',  ( 60.07500000000000284, 25.00000000000001776, 0.000000000000000000 ) ) ;
#498 = ADVANCED_FACE ( 'NONE', ( #230 ), #272, .T. ) ;
#499 = DIRECTION ( 'NONE',  ( 0.000000000000000000, 3.714293464175381867E-32, 1.000000000000000000 ) ) ;
#500 = ADVANCED_FACE ( 'NONE', ( #259 ), #307, .T. ) ;
#501 = ORIENTED_EDGE ( 'NONE', *, *, #611, .T. ) ;
#502 = DIRECTION ( 'NONE',  ( 0.000000000000000000, 3.714293464175381867E-32, 1.000000000000000000 ) ) ;
#503 = LINE ( 'NONE', #370, #81 ) ;
#504 = VERTEX_POINT ( 'NONE', #74 ) ;
#505 = DIRECTION ( 'NONE',  ( 0.1391731009600657432, -3.900008137384153150E-32, -0.9902680687415703620 ) ) ;
#506 = CARTESIAN_POINT ( 'NONE',  ( 6.074999999999997513, 45.00000000000002132, 0.000000000000000000 ) ) ;
#507 = ORIENTED_EDGE ( 'NONE', *, *, #585, .T. ) ;
#508 = EDGE_CURVE ( 'NONE', #186, #53, #598, .T. ) ;
#509 = CARTESIAN_POINT ( 'NONE',  ( 43.07500000000000284, 45.00000000000002132, 2.000000000000000000 ) ) ;
#510 = DIRECTION ( 'NONE',  ( -0.000000000000000000, 1.000000000000000000, 3.714293464175382962E-32 ) ) ;
#511 = CLOSED_SHELL ( 'NONE', ( #420, #255, #167, #82, #500, #498, #607, #59, #519, #453, #373, #160, #251, #49, #130, #537, #225, #543 ) ) ;
#512 = ORIENTED_EDGE ( 'NONE', *, *, #105, .T. ) ;
#513 = PLANE ( 'NONE',  #463 ) ;
#514 = ORIENTED_EDGE ( 'NONE', *, *, #118, .F. ) ;
#515 = EDGE_LOOP ( 'NONE', ( #47, #205, #179, #41 ) ) ;
#516 = VECTOR ( 'NONE', #571, 1000.000000000000000 ) ;
#517 = LINE ( 'NONE', #234, #404 ) ;
#518 =( NAMED_UNIT ( * ) PLANE_ANGLE_UNIT ( ) SI_UNIT ( $, .RADIAN. ) );
#519 = ADVANCED_FACE ( 'NONE', ( #366 ), #62, .T. ) ;
#520 = EDGE_LOOP ( 'NONE', ( #263, #442, #221, #320 ) ) ;
#521 = CARTESIAN_POINT ( 'NONE',  ( 23.07499999999999929, 62.00000000000002132, 0.000000000000000000 ) ) ;
#522 = DIRECTION ( 'NONE',  ( 1.000000000000000000, 0.000000000000000000, 0.000000000000000000 ) ) ;
#523 = VERTEX_POINT ( 'NONE', #78 ) ;
#524 = AXIS2_PLACEMENT_3D ( 'NONE', #63, #22, #591 ) ;
#525 = CARTESIAN_POINT ( 'NONE',  ( 23.07499999999999929, 25.00000000000001776, 0.000000000000000000 ) ) ;
#526 = EDGE_LOOP ( 'NONE', ( #395, #529, #481, #148, #344, #218, #507, #32 ) ) ;
#527 = DIRECTION ( 'NONE',  ( 0.000000000000000000, 3.714293464175381867E-32, 1.000000000000000000 ) ) ;
#528 = EDGE_CURVE ( 'NONE', #316, #226, #397, .T. ) ;
#529 = ORIENTED_EDGE ( 'NONE', *, *, #564, .T. ) ;
#530 = DIRECTION ( 'NONE',  ( 0.1391731009600657432, 3.900008137384153150E-32, 0.9902680687415703620 ) ) ;
#531 = ORIENTED_EDGE ( 'NONE', *, *, #97, .T. ) ;
#532 = DIRECTION ( 'NONE',  ( 3.219024606132219396E-17, 0.1391731009600657709, -0.9902680687415703620 ) ) ;
#533 = CARTESIAN_POINT ( 'NONE',  ( 43.07500000000000284, 45.00000000000002132, 2.000000000000000000 ) ) ;
#534 = LINE ( 'NONE', #147, #30 ) ;
#535 = ORIENTED_EDGE ( 'NONE', *, *, #485, .F. ) ;
#536 = DIRECTION ( 'NONE',  ( 1.000000000000000000, 0.000000000000000000, 0.000000000000000000 ) ) ;
#537 = ADVANCED_FACE ( 'NONE', ( #460 ), #29, .T. ) ;
#538 = COLOUR_RGB ( '',0.7960784313725489669, 0.8235294117647058432, 0.9372549019607843146 ) ;
#539 = CARTESIAN_POINT ( 'NONE',  ( 23.07499999999999574, 8.281081669404802170, 2.000000000000000000 ) ) ;
#540 = CARTESIAN_POINT ( 'NONE',  ( 43.07500000000000284, 60.28108166940481283, 2.000000000000000000 ) ) ;
#541 = AXIS2_PLACEMENT_3D ( 'NONE', #454, #502, #423 ) ;
#542 = CARTESIAN_POINT ( 'NONE',  ( 0.000000000000000000, 0.000000000000000000, 0.000000000000000000 ) ) ;
#543 = ADVANCED_FACE ( 'NONE', ( #178 ), #369, .T. ) ;
#544 = DIRECTION ( 'NONE',  ( 0.000000000000000000, 0.1391731009600657709, -0.9902680687415703620 ) ) ;
#545 = AXIS2_PLACEMENT_3D ( 'NONE', #533, #11, #296 ) ;
#546 = DIRECTION ( 'NONE',  ( -8.673617379884040402E-17, -1.000000000000000000, -3.714293464175381320E-32 ) ) ;
#547 = EDGE_CURVE ( 'NONE', #462, #28, #90, .T. ) ;
#548 = VECTOR ( 'NONE', #175, 999.9999999999998863 ) ;
#549 = VERTEX_POINT ( 'NONE', #582 ) ;
#550 = DIRECTION ( 'NONE',  ( 1.000000000000000000, 0.000000000000000000, 0.000000000000000000 ) ) ;
#551 = CARTESIAN_POINT ( 'NONE',  ( 23.07499999999999929, 25.00000000000001776, 0.000000000000000000 ) ) ;
#552 = ORIENTED_EDGE ( 'NONE', *, *, #578, .T. ) ;
#553 = DIRECTION ( 'NONE',  ( 0.000000000000000000, -3.714293464175381867E-32, -1.000000000000000000 ) ) ;
#554 = CARTESIAN_POINT ( 'NONE',  ( 60.07500000000000284, 45.00000000000002132, 0.000000000000000000 ) ) ;
#555 = EDGE_LOOP ( 'NONE', ( #421, #157, #124, #512 ) ) ;
#556 = EDGE_CURVE ( 'NONE', #424, #478, #433, .T. ) ;
#557 = LINE ( 'NONE', #464, #301 ) ;
#558 = PLANE ( 'NONE',  #488 ) ;
#559 = ORIENTED_EDGE ( 'NONE', *, *, #405, .F. ) ;
#560 = DIRECTION ( 'NONE',  ( 9.657073818396651409E-17, -0.1391731009600657709, -0.9902680687415703620 ) ) ;
#561 = PRESENTATION_STYLE_ASSIGNMENT (( #223 ) ) ;
#562 = ORIENTED_EDGE ( 'NONE', *, *, #141, .T. ) ;
#563 = DIRECTION ( 'NONE',  ( -8.673617379884041635E-17, -1.000000000000000000, -3.714293464175382414E-32 ) ) ;
#564 = EDGE_CURVE ( 'NONE', #122, #462, #190, .T. ) ;
#565 = CARTESIAN_POINT ( 'NONE',  ( 23.07499999999999574, 8.000000000000017764, 0.000000000000000000 ) ) ;
#566 = ORIENTED_EDGE ( 'NONE', *, *, #42, .T. ) ;
#567 = AXIS2_PLACEMENT_3D ( 'NONE', #20, #410, #495 ) ;
#568 = DIRECTION ( 'NONE',  ( 0.000000000000000000, 0.9902680687415703620, 0.1391731009600657432 ) ) ;
#569 = DIRECTION ( 'NONE',  ( 0.000000000000000000, 1.000000000000000000, 3.714293464175381867E-32 ) ) ;
#570 = ORIENTED_EDGE ( 'NONE', *, *, #208, .F. ) ;
#571 = DIRECTION ( 'NONE',  ( 1.000000000000000000, 0.000000000000000000, 0.000000000000000000 ) ) ;
#572 = ORIENTED_EDGE ( 'NONE', *, *, #291, .F. ) ;
#573 = DIRECTION ( 'NONE',  ( 0.1391731009600657709, -3.900008137384153150E-32, -0.9902680687415703620 ) ) ;
#574 = ORIENTED_EDGE ( 'NONE', *, *, #386, .T. ) ;
#575 = VECTOR ( 'NONE', #374, 1000.000000000000000 ) ;
#576 = CARTESIAN_POINT ( 'NONE',  ( 6.074999999999997513, 45.00000000000002132, 0.000000000000000000 ) ) ;
#577 = VERTEX_POINT ( 'NONE', #331 ) ;
#578 = EDGE_CURVE ( 'NONE', #169, #4, #517, .T. ) ;
#579 =( LENGTH_UNIT ( ) NAMED_UNIT ( * ) SI_UNIT ( .MILLI., .METRE. ) );
#580 = AXIS2_PLACEMENT_3D ( 'NONE', #439, #6, #152 ) ;
#581 = CARTESIAN_POINT ( 'NONE',  ( 58.35608166940478725, 25.00000000000001776, 2.000000000000000000 ) ) ;
#582 = CARTESIAN_POINT ( 'NONE',  ( 43.07500000000000284, 60.28108166940481283, 2.000000000000000000 ) ) ;
#583 = CARTESIAN_POINT ( 'NONE',  ( 23.07499999999999574, 8.000000000000017764, 0.000000000000000000 ) ) ;
#584 = CARTESIAN_POINT ( 'NONE',  ( 43.07500000000000284, 45.00000000000002132, 2.000000000000000000 ) ) ;
#585 = EDGE_CURVE ( 'NONE', #236, #134, #317, .T. ) ;
#586 = CARTESIAN_POINT ( 'NONE',  ( 43.07500000000000284, 45.00000000000002132, 0.000000000000000000 ) ) ;
#587 = CARTESIAN_POINT ( 'NONE',  ( 8.075000000000001066, 45.00000000000001421, 0.000000000000000000 ) ) ;
#588 = EDGE_CURVE ( 'NONE', #334, #424, #93, .T. ) ;
#589 = VECTOR ( 'NONE', #279, 1000.000000000000000 ) ;
#590 = DIRECTION ( 'NONE',  ( 0.000000000000000000, 3.714293464175381867E-32, 1.000000000000000000 ) ) ;
#591 = DIRECTION ( 'NONE',  ( 1.000000000000000000, 0.000000000000000000, 0.000000000000000000 ) ) ;
#592 = VECTOR ( 'NONE', #253, 1000.000000000000000 ) ;
#593 = VECTOR ( 'NONE', #569, 1000.000000000000000 ) ;
#594 = EDGE_LOOP ( 'NONE', ( #566, #514, #471, #603 ) ) ;
#595 = DIRECTION ( 'NONE',  ( 0.000000000000000000, -3.714293464175381867E-32, -1.000000000000000000 ) ) ;
#596 = DIRECTION ( 'NONE',  ( 0.000000000000000000, -0.1391731009600657432, 0.9902680687415703620 ) ) ;
#597 = VERTEX_POINT ( 'NONE', #384 ) ;
#598 = LINE ( 'NONE', #261, #548 ) ;
#599 = ORIENTED_EDGE ( 'NONE', *, *, #313, .F. ) ;
#600 = VERTEX_POINT ( 'NONE', #153 ) ;
#601 = VECTOR ( 'NONE', #492, 999.9999999999998863 ) ;
#602 = DIRECTION ( 'NONE',  ( 0.1391731009600657432, -3.900008137384153150E-32, -0.9902680687415703620 ) ) ;
#603 = ORIENTED_EDGE ( 'NONE', *, *, #405, .T. ) ;
#604 = DIRECTION ( 'NONE',  ( -0.1391731009600657709, -3.900008137384153150E-32, -0.9902680687415703620 ) ) ;
#605 = ORIENTED_EDGE ( 'NONE', *, *, #244, .F. ) ;
#606 = ORIENTED_EDGE ( 'NONE', *, *, #214, .T. ) ;
#607 = ADVANCED_FACE ( 'NONE', ( #282 ), #458, .T. ) ;
#608 = FACE_OUTER_BOUND ( 'NONE', #382, .T. ) ;
#609 = PLANE ( 'NONE',  #243 ) ;
#610 = VERTEX_POINT ( 'NONE', #388 ) ;
#611 = EDGE_CURVE ( 'NONE', #523, #428, #48, .T. ) ;
#612 = DIRECTION ( 'NONE',  ( 0.000000000000000000, -0.1391731009600657432, -0.9902680687415703620 ) ) ;
#613 = EDGE_LOOP ( 'NONE', ( #342, #241, #330, #605, #376, #371, #364, #535 ) ) ;
#614 = FILL_AREA_STYLE_COLOUR ( '', #538 ) ;
#615 = LINE ( 'NONE', #583, #88 ) ;
#616 = AXIS2_PLACEMENT_3D ( 'NONE', #3, #436, #380 ) ;
#617 = ORIENTED_EDGE ( 'NONE', *, *, #363, .F. ) ;
#618 = CARTESIAN_POINT ( 'NONE',  ( 23.07499999999999929, 10.00000000000001954, 0.000000000000000000 ) ) ;
ENDSEC;
END-ISO-10303-21;
