ISO-10303-21;
HEADER;
FILE_DESCRIPTION (( 'STEP AP214' ),
    '1' );
FILE_NAME ('gasket_front_cover.STEP',
    '2026-08-21T18:09:48',
    ( '' ),
    ( '' ),
    'SwSTEP 2.0',
    'SolidWorks 2025',
    '' );
FILE_SCHEMA (( 'AUTOMOTIVE_DESIGN' ));
ENDSEC;

DATA;
#1 = CLOSED_SHELL ( 'NONE', ( #64, #17, #210, #157, #140, #318, #127, #175, #135, #53 ) ) ;
#2 = DIRECTION ( 'NONE',  ( 1.000000000000000000, 0.000000000000000000, -0.000000000000000000 ) ) ;
#3 = PRESENTATION_LAYER_ASSIGNMENT (  '', '', ( #107 ) ) ;
#4 = AXIS2_PLACEMENT_3D ( 'NONE', #177, #302, #254 ) ;
#5 = LINE ( 'NONE', #162, #133 ) ;
#6 = CARTESIAN_POINT ( 'NONE',  ( -7.174977327051855092, -12.00000000000004796, 2.000000000000000000 ) ) ;
#7 = DIRECTION ( 'NONE',  ( -1.000000000000000000, 0.000000000000000000, 0.000000000000000000 ) ) ;
#8 = ORIENTED_EDGE ( 'NONE', *, *, #234, .F. ) ;
#9 = PLANE ( 'NONE',  #212 ) ;
#10 = VERTEX_POINT ( 'NONE', #235 ) ;
#11 = DIRECTION ( 'NONE',  ( -0.9961946980917455452, 0.000000000000000000, 0.08715574274765836016 ) ) ;
#12 = ORIENTED_EDGE ( 'NONE', *, *, #152, .T. ) ;
#13 = VECTOR ( 'NONE', #136, 1000.000000000000114 ) ;
#14 = LINE ( 'NONE', #303, #47 ) ;
#15 = PRODUCT_DEFINITION_FORMATION_WITH_SPECIFIED_SOURCE ( 'Symmetric', '', #161, .NOT_KNOWN. ) ;
#16 = DIRECTION ( 'NONE',  ( 0.000000000000000000, -1.000000000000000000, 0.000000000000000000 ) ) ;
#17 = ADVANCED_FACE ( 'NONE', ( #286, #184 ), #289, .F. ) ;
#18 = MECHANICAL_DESIGN_GEOMETRIC_PRESENTATION_REPRESENTATION (  '', ( #89 ), #310 ) ;
#19 = CARTESIAN_POINT ( 'NONE',  ( -7.644572307876737582, -96.85542769212327130, 7.367495191942601274 ) ) ;
#20 = ORIENTED_EDGE ( 'NONE', *, *, #265, .F. ) ;
#21 = MECHANICAL_DESIGN_GEOMETRIC_PRESENTATION_REPRESENTATION (  '', ( #107 ), #93 ) ;
#22 = AXIS2_PLACEMENT_3D ( 'NONE', #220, #308, #278 ) ;
#23 = ORIENTED_EDGE ( 'NONE', *, *, #82, .F. ) ;
#24 = LINE ( 'NONE', #260, #71 ) ;
#25 = FILL_AREA_STYLE ('',( #73 ) ) ;
#26 = ORIENTED_EDGE ( 'NONE', *, *, #246, .T. ) ;
#27 = EDGE_CURVE ( 'NONE', #205, #171, #24, .T. ) ;
#28 = CARTESIAN_POINT ( 'NONE',  ( -61.50000000000000000, -9.000000000000001776, 0.000000000000000000 ) ) ;
#29 = VECTOR ( 'NONE', #287, 1000.000000000000000 ) ;
#30 = ORIENTED_EDGE ( 'NONE', *, *, #252, .F. ) ;
#31 = PLANE ( 'NONE',  #193 ) ;
#32 = VECTOR ( 'NONE', #115, 1000.000000000000114 ) ;
#33 = CARTESIAN_POINT ( 'NONE',  ( -8.500000000000015987, -9.000000000000001776, 0.000000000000000000 ) ) ;
#34 = FACE_OUTER_BOUND ( 'NONE', #72, .T. ) ;
#35 = CARTESIAN_POINT ( 'NONE',  ( 0.000000000000000000, 0.000000000000000000, 0.000000000000000000 ) ) ;
#36 = PLANE ( 'NONE',  #22 ) ;
#37 = ORIENTED_EDGE ( 'NONE', *, *, #234, .T. ) ;
#38 = UNCERTAINTY_MEASURE_WITH_UNIT (LENGTH_MEASURE( 1.000000000000000082E-05 ), #225, 'distance_accuracy_value', 'NONE');
#39 = VECTOR ( 'NONE', #326, 1000.000000000000000 ) ;
#40 = DIRECTION ( 'NONE',  ( -0.000000000000000000, 1.000000000000000000, -0.000000000000000000 ) ) ;
#41 = ORIENTED_EDGE ( 'NONE', *, *, #82, .T. ) ;
#42 = EDGE_CURVE ( 'NONE', #192, #299, #49, .T. ) ;
#43 = DIRECTION ( 'NONE',  ( 1.000000000000000000, 0.000000000000000000, 0.000000000000000000 ) ) ;
#44 = PLANE ( 'NONE',  #4 ) ;
#45 = ORIENTED_EDGE ( 'NONE', *, *, #226, .F. ) ;
#46 = VERTEX_POINT ( 'NONE', #240 ) ;
#47 = VECTOR ( 'NONE', #279, 1000.000000000000000 ) ;
#48 = EDGE_LOOP ( 'NONE', ( #104, #98, #37, #100 ) ) ;
#49 = LINE ( 'NONE', #288, #29 ) ;
#50 = EDGE_CURVE ( 'NONE', #70, #122, #314, .T. ) ;
#51 = SURFACE_STYLE_FILL_AREA ( #25 ) ;
#52 = FACE_OUTER_BOUND ( 'NONE', #48, .T. ) ;
#53 = ADVANCED_FACE ( 'NONE', ( #312 ), #233, .T. ) ;
#54 = CARTESIAN_POINT ( 'NONE',  ( -8.325022672948167113, -96.00000000000001421, 2.000000000000000000 ) ) ;
#55 = PLANE ( 'NONE',  #273 ) ;
#56 = DIRECTION ( 'NONE',  ( -4.628899096669765193E-17, 0.9961946980917455452, 0.08715574274765837404 ) ) ;
#57 = SURFACE_STYLE_FILL_AREA ( #81 ) ;
#58 = CARTESIAN_POINT ( 'NONE',  ( -61.50000000000000000, -9.000000000000001776, 0.000000000000000000 ) ) ;
#59 = ORIENTED_EDGE ( 'NONE', *, *, #50, .F. ) ;
#60 = CARTESIAN_POINT ( 'NONE',  ( -7.000000000000007105, -7.500000000000000888, 0.000000000000000000 ) ) ;
#61 = AXIS2_PLACEMENT_3D ( 'NONE', #35, #293, #222 ) ;
#62 = ORIENTED_EDGE ( 'NONE', *, *, #265, .T. ) ;
#63 = VECTOR ( 'NONE', #43, 1000.000000000000000 ) ;
#64 = ADVANCED_FACE ( 'NONE', ( #52, #126 ), #128, .T. ) ;
#65 = CARTESIAN_POINT ( 'NONE',  ( -7.000000000000007105, -7.500000000000000888, 0.000000000000000000 ) ) ;
#66 = CARTESIAN_POINT ( 'NONE',  ( -8.325022672948167113, -8.825022672948152902, 2.000000000000000000 ) ) ;
#67 = VERTEX_POINT ( 'NONE', #106 ) ;
#68 = MANIFOLD_SOLID_BREP ( 'Boss-Extrude1', #1 ) ;
#69 = LINE ( 'NONE', #201, #259 ) ;
#70 = VERTEX_POINT ( 'NONE', #236 ) ;
#71 = VECTOR ( 'NONE', #131, 1000.000000000000114 ) ;
#72 = EDGE_LOOP ( 'NONE', ( #12, #20, #238, #139 ) ) ;
#73 = FILL_AREA_STYLE_COLOUR ( '', #237 ) ;
#74 = DIRECTION ( 'NONE',  ( 0.000000000000000000, -1.000000000000000000, 0.000000000000000000 ) ) ;
#75 = LINE ( 'NONE', #28, #159 ) ;
#76 = PRODUCT_DEFINITION_SHAPE ( 'NONE', 'NONE',  #94 ) ;
#77 = ORIENTED_EDGE ( 'NONE', *, *, #113, .T. ) ;
#78 = VECTOR ( 'NONE', #174, 1000.000000000000000 ) ;
#79 = FACE_OUTER_BOUND ( 'NONE', #313, .T. ) ;
#80 = CARTESIAN_POINT ( 'NONE',  ( -61.50000000000000000, -9.000000000000001776, 0.000000000000000000 ) ) ;
#81 = FILL_AREA_STYLE ('',( #114 ) ) ;
#82 = EDGE_CURVE ( 'NONE', #232, #171, #336, .T. ) ;
#83 = EDGE_CURVE ( 'NONE', #122, #167, #183, .T. ) ;
#84 = FACE_OUTER_BOUND ( 'NONE', #284, .T. ) ;
#85 = ORIENTED_EDGE ( 'NONE', *, *, #200, .T. ) ;
#86 = PRODUCT_DEFINITION_CONTEXT ( 'detailed design', #332, 'design' ) ;
#87 = PRODUCT_CONTEXT ( 'NONE', #119, 'mechanical' ) ;
#88 = CARTESIAN_POINT ( 'NONE',  ( -8.500000000000015987, -96.00000000000001421, 0.000000000000000000 ) ) ;
#89 = STYLED_ITEM ( 'NONE', ( #316 ), #68 ) ;
#90 = EDGE_LOOP ( 'NONE', ( #26, #118, #8, #257 ) ) ;
#91 = APPLICATION_PROTOCOL_DEFINITION ( 'draft international standard', 'automotive_design', 1998, #119 ) ;
#92 = CARTESIAN_POINT ( 'NONE',  ( -61.67497732705184887, -8.825022672948152902, 2.000000000000000000 ) ) ;
#93 =( GEOMETRIC_REPRESENTATION_CONTEXT ( 3 ) GLOBAL_UNCERTAINTY_ASSIGNED_CONTEXT ( ( #219 ) ) GLOBAL_UNIT_ASSIGNED_CONTEXT ( ( #164, #196, #168 ) ) REPRESENTATION_CONTEXT ( 'NONE', 'WORKASPACE' ) );
#94 = PRODUCT_DEFINITION ( 'General', '', #15, #86 ) ;
#95 = DIRECTION ( 'NONE',  ( 1.000000000000000000, 0.000000000000000000, 0.000000000000000000 ) ) ;
#96 = DIRECTION ( 'NONE',  ( -0.08682659386424779191, -0.08682659386424779191, -0.9924325091389669673 ) ) ;
#97 = LINE ( 'NONE', #251, #63 ) ;
#98 = ORIENTED_EDGE ( 'NONE', *, *, #180, .T. ) ;
#99 = DIRECTION ( 'NONE',  ( 0.08682659386424779191, -0.08682659386424776415, -0.9924325091389669673 ) ) ;
#100 = ORIENTED_EDGE ( 'NONE', *, *, #262, .T. ) ;
#101 = ORIENTED_EDGE ( 'NONE', *, *, #291, .T. ) ;
#102 =( NAMED_UNIT ( * ) PLANE_ANGLE_UNIT ( ) SI_UNIT ( $, .RADIAN. ) );
#103 = CARTESIAN_POINT ( 'NONE',  ( -63.00000000000000000, -92.99999999999995737, 0.000000000000000000 ) ) ;
#104 = ORIENTED_EDGE ( 'NONE', *, *, #185, .T. ) ;
#105 = VECTOR ( 'NONE', #249, 1000.000000000000114 ) ;
#106 = CARTESIAN_POINT ( 'NONE',  ( -61.50000000000000000, -96.00000000000001421, 0.000000000000000000 ) ) ;
#107 = STYLED_ITEM ( 'NONE', ( #297 ), #337 ) ;
#108 = SURFACE_SIDE_STYLE ('',( #51 ) ) ;
#109 = VECTOR ( 'NONE', #99, 1000.000000000000114 ) ;
#110 = LINE ( 'NONE', #194, #13 ) ;
#111 = LINE ( 'NONE', #54, #39 ) ;
#112 = EDGE_CURVE ( 'NONE', #130, #206, #75, .T. ) ;
#113 = EDGE_CURVE ( 'NONE', #46, #232, #110, .T. ) ;
#114 = FILL_AREA_STYLE_COLOUR ( '', #283 ) ;
#115 = DIRECTION ( 'NONE',  ( 0.08682659386424779191, 0.08682659386424779191, -0.9924325091389669673 ) ) ;
#116 = ORIENTED_EDGE ( 'NONE', *, *, #83, .T. ) ;
#117 = DIRECTION ( 'NONE',  ( 0.9961946980917455452, 0.000000000000000000, 0.08715574274765836016 ) ) ;
#118 = ORIENTED_EDGE ( 'NONE', *, *, #113, .F. ) ;
#119 = APPLICATION_CONTEXT ( 'automotive_design' ) ;
#120 = DIRECTION ( 'NONE',  ( 0.08715574274765836016, 0.000000000000000000, -0.9961946980917455452 ) ) ;
#121 = EDGE_CURVE ( 'NONE', #123, #299, #268, .T. ) ;
#122 = VERTEX_POINT ( 'NONE', #88 ) ;
#123 = VERTEX_POINT ( 'NONE', #244 ) ;
#124 = VECTOR ( 'NONE', #40, 1000.000000000000000 ) ;
#125 = ORIENTED_EDGE ( 'NONE', *, *, #121, .F. ) ;
#126 = FACE_BOUND ( 'NONE', #218, .T. ) ;
#127 = ADVANCED_FACE ( 'NONE', ( #84 ), #31, .T. ) ;
#128 = PLANE ( 'NONE',  #267 ) ;
#129 =( NAMED_UNIT ( * ) SI_UNIT ( $, .STERADIAN. ) SOLID_ANGLE_UNIT ( ) );
#130 = VERTEX_POINT ( 'NONE', #92 ) ;
#131 = DIRECTION ( 'NONE',  ( -0.08682659386424779191, -0.08682659386424781967, -0.9924325091389669673 ) ) ;
#132 = DIRECTION ( 'NONE',  ( 0.9961946980917455452, 0.000000000000000000, 0.08715574274765836016 ) ) ;
#133 = VECTOR ( 'NONE', #317, 1000.000000000000000 ) ;
#134 = LINE ( 'NONE', #190, #301 ) ;
#135 = ADVANCED_FACE ( 'NONE', ( #191 ), #197, .T. ) ;
#136 = DIRECTION ( 'NONE',  ( -0.08682659386424779191, 0.08682659386424779191, -0.9924325091389669673 ) ) ;
#137 = ORIENTED_EDGE ( 'NONE', *, *, #42, .T. ) ;
#138 = LINE ( 'NONE', #216, #231 ) ;
#139 = ORIENTED_EDGE ( 'NONE', *, *, #27, .T. ) ;
#140 = ADVANCED_FACE ( 'NONE', ( #294 ), #9, .T. ) ;
#141 = LINE ( 'NONE', #271, #182 ) ;
#142 = ORIENTED_EDGE ( 'NONE', *, *, #180, .F. ) ;
#143 = UNCERTAINTY_MEASURE_WITH_UNIT (LENGTH_MEASURE( 1.000000000000000082E-05 ), #187, 'distance_accuracy_value', 'NONE');
#144 = CARTESIAN_POINT ( 'NONE',  ( -63.00000000000000000, -7.500000000000003553, 0.000000000000000000 ) ) ;
#145 = CARTESIAN_POINT ( 'NONE',  ( -7.000000000000007105, -7.674977327051848874, 2.000000000000000000 ) ) ;
#146 = LINE ( 'NONE', #19, #109 ) ;
#147 = ORIENTED_EDGE ( 'NONE', *, *, #246, .F. ) ;
#148 = PRESENTATION_LAYER_ASSIGNMENT (  '', '', ( #89 ) ) ;
#149 = ORIENTED_EDGE ( 'NONE', *, *, #306, .T. ) ;
#150 =( GEOMETRIC_REPRESENTATION_CONTEXT ( 3 ) GLOBAL_UNCERTAINTY_ASSIGNED_CONTEXT ( ( #38 ) ) GLOBAL_UNIT_ASSIGNED_CONTEXT ( ( #225, #228, #172 ) ) REPRESENTATION_CONTEXT ( 'NONE', 'WORKASPACE' ) );
#151 = VECTOR ( 'NONE', #16, 1000.000000000000000 ) ;
#152 = EDGE_CURVE ( 'NONE', #171, #192, #5, .T. ) ;
#153 = CARTESIAN_POINT ( 'NONE',  ( 0.000000000000000000, 0.000000000000000000, 0.000000000000000000 ) ) ;
#154 = CARTESIAN_POINT ( 'NONE',  ( -61.50000000000000000, -96.00000000000001421, 0.000000000000000000 ) ) ;
#155 = CARTESIAN_POINT ( 'NONE',  ( -8.500000000000015987, -96.00000000000001421, 0.000000000000000000 ) ) ;
#156 = ORIENTED_EDGE ( 'NONE', *, *, #291, .F. ) ;
#157 = ADVANCED_FACE ( 'NONE', ( #79 ), #55, .T. ) ;
#158 = CARTESIAN_POINT ( 'NONE',  ( 0.000000000000000000, 0.000000000000000000, 2.000000000000000000 ) ) ;
#159 = VECTOR ( 'NONE', #214, 1000.000000000000114 ) ;
#160 = CARTESIAN_POINT ( 'NONE',  ( -7.000000000000006217, -97.50000000000000000, 0.000000000000000000 ) ) ;
#161 = PRODUCT ( 'gasket_front_cover', 'gasket_front_cover', '', ( #87 ) ) ;
#162 = CARTESIAN_POINT ( 'NONE',  ( -63.00000000000000000, -97.50000000000001421, 0.000000000000000000 ) ) ;
#163 = DIRECTION ( 'NONE',  ( 1.000000000000000000, 2.478176394252582127E-16, -0.000000000000000000 ) ) ;
#164 =( LENGTH_UNIT ( ) NAMED_UNIT ( * ) SI_UNIT ( .MILLI., .METRE. ) );
#165 = VECTOR ( 'NONE', #335, 1000.000000000000114 ) ;
#166 = CARTESIAN_POINT ( 'NONE',  ( -7.000000000000007105, -7.500000000000000888, 0.000000000000000000 ) ) ;
#167 = VERTEX_POINT ( 'NONE', #33 ) ;
#168 =( NAMED_UNIT ( * ) SI_UNIT ( $, .STERADIAN. ) SOLID_ANGLE_UNIT ( ) );
#169 = LINE ( 'NONE', #6, #124 ) ;
#170 = VECTOR ( 'NONE', #227, 1000.000000000000000 ) ;
#171 = VERTEX_POINT ( 'NONE', #274 ) ;
#172 =( NAMED_UNIT ( * ) SI_UNIT ( $, .STERADIAN. ) SOLID_ANGLE_UNIT ( ) );
#173 = LINE ( 'NONE', #277, #151 ) ;
#174 = DIRECTION ( 'NONE',  ( -1.000000000000000000, -4.646580739223591488E-17, 0.000000000000000000 ) ) ;
#175 = ADVANCED_FACE ( 'NONE', ( #323 ), #247, .T. ) ;
#176 = EDGE_CURVE ( 'NONE', #130, #322, #134, .T. ) ;
#177 = CARTESIAN_POINT ( 'NONE',  ( -63.00000000000000000, -92.99999999999995737, 0.000000000000000000 ) ) ;
#178 = EDGE_LOOP ( 'NONE', ( #116, #295, #101, #149 ) ) ;
#179 = ORIENTED_EDGE ( 'NONE', *, *, #226, .T. ) ;
#180 = EDGE_CURVE ( 'NONE', #10, #123, #169, .T. ) ;
#181 = ORIENTED_EDGE ( 'NONE', *, *, #200, .F. ) ;
#182 = VECTOR ( 'NONE', #163, 1000.000000000000000 ) ;
#183 = LINE ( 'NONE', #155, #296 ) ;
#184 = FACE_BOUND ( 'NONE', #178, .T. ) ;
#185 = EDGE_CURVE ( 'NONE', #205, #10, #141, .T. ) ;
#186 = ORIENTED_EDGE ( 'NONE', *, *, #112, .F. ) ;
#187 =( LENGTH_UNIT ( ) NAMED_UNIT ( * ) SI_UNIT ( .MILLI., .METRE. ) );
#188 = EDGE_CURVE ( 'NONE', #70, #330, #111, .T. ) ;
#189 = DIRECTION ( 'NONE',  ( 0.000000000000000000, -0.9961946980917455452, 0.08715574274765836016 ) ) ;
#190 = CARTESIAN_POINT ( 'NONE',  ( -61.67497732705184887, -9.000000000000001776, 2.000000000000000000 ) ) ;
#191 = FACE_OUTER_BOUND ( 'NONE', #258, .T. ) ;
#192 = VERTEX_POINT ( 'NONE', #160 ) ;
#193 = AXIS2_PLACEMENT_3D ( 'NONE', #321, #11, #224 ) ;
#194 = CARTESIAN_POINT ( 'NONE',  ( -62.35542769212326419, -8.144572307876741135, 7.367495191942603050 ) ) ;
#195 = EDGE_LOOP ( 'NONE', ( #282, #245, #179, #203 ) ) ;
#196 =( NAMED_UNIT ( * ) PLANE_ANGLE_UNIT ( ) SI_UNIT ( $, .RADIAN. ) );
#197 = PLANE ( 'NONE',  #198 ) ;
#198 = AXIS2_PLACEMENT_3D ( 'NONE', #58, #132, #242 ) ;
#199 = LINE ( 'NONE', #328, #315 ) ;
#200 = EDGE_CURVE ( 'NONE', #330, #130, #138, .T. ) ;
#201 = CARTESIAN_POINT ( 'NONE',  ( -62.82502267294815113, -92.99999999999995737, 2.000000000000000000 ) ) ;
#202 = LINE ( 'NONE', #145, #170 ) ;
#203 = ORIENTED_EDGE ( 'NONE', *, *, #50, .T. ) ;
#204 = FACE_OUTER_BOUND ( 'NONE', #333, .T. ) ;
#205 = VERTEX_POINT ( 'NONE', #319 ) ;
#206 = VERTEX_POINT ( 'NONE', #80 ) ;
#207 = EDGE_LOOP ( 'NONE', ( #30, #307, #85, #280 ) ) ;
#208 = ORIENTED_EDGE ( 'NONE', *, *, #239, .T. ) ;
#209 = EDGE_CURVE ( 'NONE', #322, #67, #292, .T. ) ;
#210 = ADVANCED_FACE ( 'NONE', ( #34 ), #36, .T. ) ;
#211 = DIRECTION ( 'NONE',  ( 0.000000000000000000, -0.08715574274765836016, 0.9961946980917455452 ) ) ;
#212 = AXIS2_PLACEMENT_3D ( 'NONE', #166, #56, #217 ) ;
#213 = SURFACE_STYLE_USAGE ( .BOTH. , #108 ) ;
#214 = DIRECTION ( 'NONE',  ( 0.08682659386424779191, -0.08682659386424779191, -0.9924325091389669673 ) ) ;
#215 = SURFACE_SIDE_STYLE ('',( #57 ) ) ;
#216 = CARTESIAN_POINT ( 'NONE',  ( -8.500000000000015987, -8.825022672948152902, 2.000000000000000000 ) ) ;
#217 = DIRECTION ( 'NONE',  ( 0.000000000000000000, -0.08715574274765837404, 0.9961946980917455452 ) ) ;
#218 = EDGE_LOOP ( 'NONE', ( #181, #309, #45, #272 ) ) ;
#219 = UNCERTAINTY_MEASURE_WITH_UNIT (LENGTH_MEASURE( 1.000000000000000082E-05 ), #164, 'distance_accuracy_value', 'NONE');
#220 = CARTESIAN_POINT ( 'NONE',  ( -63.00000000000000000, -97.50000000000001421, 0.000000000000000000 ) ) ;
#221 = ORIENTED_EDGE ( 'NONE', *, *, #209, .T. ) ;
#222 = DIRECTION ( 'NONE',  ( 1.000000000000000000, 0.000000000000000000, 0.000000000000000000 ) ) ;
#223 = AXIS2_PLACEMENT_3D ( 'NONE', #153, #264, #266 ) ;
#224 = DIRECTION ( 'NONE',  ( 0.08715574274765836016, 0.000000000000000000, 0.9961946980917455452 ) ) ;
#225 =( LENGTH_UNIT ( ) NAMED_UNIT ( * ) SI_UNIT ( .MILLI., .METRE. ) );
#226 = EDGE_CURVE ( 'NONE', #322, #70, #97, .T. ) ;
#227 = DIRECTION ( 'NONE',  ( -1.000000000000000000, -4.646580739223591488E-17, 0.000000000000000000 ) ) ;
#228 =( NAMED_UNIT ( * ) PLANE_ANGLE_UNIT ( ) SI_UNIT ( $, .RADIAN. ) );
#229 = EDGE_LOOP ( 'NONE', ( #331, #23, #147, #248 ) ) ;
#230 = ORIENTED_EDGE ( 'NONE', *, *, #27, .F. ) ;
#231 = VECTOR ( 'NONE', #7, 1000.000000000000000 ) ;
#232 = VERTEX_POINT ( 'NONE', #144 ) ;
#233 = PLANE ( 'NONE',  #281 ) ;
#234 = EDGE_CURVE ( 'NONE', #123, #46, #202, .T. ) ;
#235 = CARTESIAN_POINT ( 'NONE',  ( -7.174977327051855092, -97.32502267294815113, 2.000000000000000000 ) ) ;
#236 = CARTESIAN_POINT ( 'NONE',  ( -8.325022672948167113, -96.17497732705186309, 2.000000000000000000 ) ) ;
#237 = COLOUR_RGB ( '',0.7960784313725489669, 0.8235294117647058432, 0.9372549019607843146 ) ;
#238 = ORIENTED_EDGE ( 'NONE', *, *, #185, .F. ) ;
#239 = EDGE_CURVE ( 'NONE', #330, #167, #199, .T. ) ;
#240 = CARTESIAN_POINT ( 'NONE',  ( -62.82502267294815113, -7.674977327051851539, 2.000000000000000000 ) ) ;
#241 = VECTOR ( 'NONE', #95, 1000.000000000000000 ) ;
#242 = DIRECTION ( 'NONE',  ( 0.08715574274765836016, 0.000000000000000000, -0.9961946980917455452 ) ) ;
#243 = DIRECTION ( 'NONE',  ( 0.000000000000000000, -1.000000000000000000, 0.000000000000000000 ) ) ;
#244 = CARTESIAN_POINT ( 'NONE',  ( -7.174977327051855092, -7.674977327051848874, 2.000000000000000000 ) ) ;
#245 = ORIENTED_EDGE ( 'NONE', *, *, #209, .F. ) ;
#246 = EDGE_CURVE ( 'NONE', #299, #232, #329, .T. ) ;
#247 = PLANE ( 'NONE',  #327 ) ;
#248 = ORIENTED_EDGE ( 'NONE', *, *, #42, .F. ) ;
#249 = DIRECTION ( 'NONE',  ( 0.08682659386424779191, 0.08682659386424779191, -0.9924325091389669673 ) ) ;
#250 = ORIENTED_EDGE ( 'NONE', *, *, #262, .F. ) ;
#251 = CARTESIAN_POINT ( 'NONE',  ( -61.50000000000000000, -96.17497732705186309, 2.000000000000000000 ) ) ;
#252 = EDGE_CURVE ( 'NONE', #167, #206, #14, .T. ) ;
#253 = CARTESIAN_POINT ( 'NONE',  ( -7.000000000000007105, -7.500000000000000888, 0.000000000000000000 ) ) ;
#254 = DIRECTION ( 'NONE',  ( 0.08715574274765836016, 0.000000000000000000, 0.9961946980917455452 ) ) ;
#255 = DIRECTION ( 'NONE',  ( -0.000000000000000000, -1.000000000000000000, 0.000000000000000000 ) ) ;
#256 = VECTOR ( 'NONE', #74, 1000.000000000000000 ) ;
#257 = ORIENTED_EDGE ( 'NONE', *, *, #121, .T. ) ;
#258 = EDGE_LOOP ( 'NONE', ( #156, #186, #324, #221 ) ) ;
#259 = VECTOR ( 'NONE', #255, 1000.000000000000000 ) ;
#260 = CARTESIAN_POINT ( 'NONE',  ( -63.00000000000000000, -97.50000000000001421, 0.000000000000000000 ) ) ;
#261 = DIRECTION ( 'NONE',  ( 0.000000000000000000, 0.9961946980917455452, 0.08715574274765836016 ) ) ;
#262 = EDGE_CURVE ( 'NONE', #46, #205, #69, .T. ) ;
#263 = DIRECTION ( 'NONE',  ( 0.000000000000000000, 1.000000000000000000, 0.000000000000000000 ) ) ;
#264 = DIRECTION ( 'NONE',  ( 0.000000000000000000, 0.000000000000000000, 1.000000000000000000 ) ) ;
#265 = EDGE_CURVE ( 'NONE', #10, #192, #146, .T. ) ;
#266 = DIRECTION ( 'NONE',  ( 1.000000000000000000, 0.000000000000000000, -0.000000000000000000 ) ) ;
#267 = AXIS2_PLACEMENT_3D ( 'NONE', #158, #338, #2 ) ;
#268 = LINE ( 'NONE', #60, #105 ) ;
#269 = CARTESIAN_POINT ( 'NONE',  ( -7.000000000000007105, -12.00000000000004796, 0.000000000000000000 ) ) ;
#270 = CARTESIAN_POINT ( 'NONE',  ( -61.50000000000000000, -96.00000000000001421, 0.000000000000000000 ) ) ;
#271 = CARTESIAN_POINT ( 'NONE',  ( -63.00000000000000000, -97.32502267294816534, 2.000000000000000000 ) ) ;
#272 = ORIENTED_EDGE ( 'NONE', *, *, #176, .F. ) ;
#273 = AXIS2_PLACEMENT_3D ( 'NONE', #269, #117, #120 ) ;
#274 = CARTESIAN_POINT ( 'NONE',  ( -63.00000000000000000, -97.50000000000001421, 0.000000000000000000 ) ) ;
#275 = ORIENTED_EDGE ( 'NONE', *, *, #188, .T. ) ;
#276 = LINE ( 'NONE', #304, #241 ) ;
#277 = CARTESIAN_POINT ( 'NONE',  ( -61.50000000000000000, -9.000000000000001776, 0.000000000000000000 ) ) ;
#278 = DIRECTION ( 'NONE',  ( 0.000000000000000000, -0.08715574274765837404, -0.9961946980917455452 ) ) ;
#279 = DIRECTION ( 'NONE',  ( -1.000000000000000000, 0.000000000000000000, 0.000000000000000000 ) ) ;
#280 = ORIENTED_EDGE ( 'NONE', *, *, #112, .T. ) ;
#281 = AXIS2_PLACEMENT_3D ( 'NONE', #154, #261, #211 ) ;
#282 = ORIENTED_EDGE ( 'NONE', *, *, #306, .F. ) ;
#283 = COLOUR_RGB ( '',0.7960784313725489669, 0.8235294117647058432, 0.9372549019607843146 ) ;
#284 = EDGE_LOOP ( 'NONE', ( #311, #59, #275, #208 ) ) ;
#285 = CARTESIAN_POINT ( 'NONE',  ( -8.500000000000015987, -96.00000000000001421, 0.000000000000000000 ) ) ;
#286 = FACE_OUTER_BOUND ( 'NONE', #229, .T. ) ;
#287 = DIRECTION ( 'NONE',  ( 0.000000000000000000, 1.000000000000000000, 0.000000000000000000 ) ) ;
#288 = CARTESIAN_POINT ( 'NONE',  ( -7.000000000000007105, -12.00000000000004796, 0.000000000000000000 ) ) ;
#289 = PLANE ( 'NONE',  #223 ) ;
#290 = DIRECTION ( 'NONE',  ( 0.000000000000000000, -0.08715574274765836016, -0.9961946980917455452 ) ) ;
#291 = EDGE_CURVE ( 'NONE', #206, #67, #173, .T. ) ;
#292 = LINE ( 'NONE', #270, #32 ) ;
#293 = DIRECTION ( 'NONE',  ( 0.000000000000000000, 0.000000000000000000, 1.000000000000000000 ) ) ;
#294 = FACE_OUTER_BOUND ( 'NONE', #90, .T. ) ;
#295 = ORIENTED_EDGE ( 'NONE', *, *, #252, .T. ) ;
#296 = VECTOR ( 'NONE', #263, 1000.000000000000000 ) ;
#297 = PRESENTATION_STYLE_ASSIGNMENT (( #320 ) ) ;
#298 = CARTESIAN_POINT ( 'NONE',  ( -8.500000000000015987, -9.000000000000001776, 0.000000000000000000 ) ) ;
#299 = VERTEX_POINT ( 'NONE', #253 ) ;
#300 = APPLICATION_PROTOCOL_DEFINITION ( 'draft international standard', 'automotive_design', 1998, #332 ) ;
#301 = VECTOR ( 'NONE', #243, 1000.000000000000000 ) ;
#302 = DIRECTION ( 'NONE',  ( -0.9961946980917455452, 0.000000000000000000, 0.08715574274765836016 ) ) ;
#303 = CARTESIAN_POINT ( 'NONE',  ( -8.500000000000015987, -9.000000000000001776, 0.000000000000000000 ) ) ;
#304 = CARTESIAN_POINT ( 'NONE',  ( -61.50000000000000000, -96.00000000000001421, 0.000000000000000000 ) ) ;
#305 = CARTESIAN_POINT ( 'NONE',  ( -61.67497732705184887, -96.17497732705186309, 2.000000000000000000 ) ) ;
#306 = EDGE_CURVE ( 'NONE', #67, #122, #276, .T. ) ;
#307 = ORIENTED_EDGE ( 'NONE', *, *, #239, .F. ) ;
#308 = DIRECTION ( 'NONE',  ( 2.468746184890540943E-16, -0.9961946980917455452, 0.08715574274765837404 ) ) ;
#309 = ORIENTED_EDGE ( 'NONE', *, *, #188, .F. ) ;
#310 =( GEOMETRIC_REPRESENTATION_CONTEXT ( 3 ) GLOBAL_UNCERTAINTY_ASSIGNED_CONTEXT ( ( #143 ) ) GLOBAL_UNIT_ASSIGNED_CONTEXT ( ( #187, #102, #129 ) ) REPRESENTATION_CONTEXT ( 'NONE', 'WORKASPACE' ) );
#311 = ORIENTED_EDGE ( 'NONE', *, *, #83, .F. ) ;
#312 = FACE_OUTER_BOUND ( 'NONE', #195, .T. ) ;
#313 = EDGE_LOOP ( 'NONE', ( #137, #125, #142, #62 ) ) ;
#314 = LINE ( 'NONE', #285, #165 ) ;
#315 = VECTOR ( 'NONE', #96, 1000.000000000000114 ) ;
#316 = PRESENTATION_STYLE_ASSIGNMENT (( #213 ) ) ;
#317 = DIRECTION ( 'NONE',  ( 1.000000000000000000, 2.478176394252582127E-16, 0.000000000000000000 ) ) ;
#318 = ADVANCED_FACE ( 'NONE', ( #204 ), #44, .T. ) ;
#319 = CARTESIAN_POINT ( 'NONE',  ( -62.82502267294815113, -97.32502267294816534, 2.000000000000000000 ) ) ;
#320 = SURFACE_STYLE_USAGE ( .BOTH. , #215 ) ;
#321 = CARTESIAN_POINT ( 'NONE',  ( -8.500000000000015987, -96.00000000000001421, 0.000000000000000000 ) ) ;
#322 = VERTEX_POINT ( 'NONE', #305 ) ;
#323 = FACE_OUTER_BOUND ( 'NONE', #207, .T. ) ;
#324 = ORIENTED_EDGE ( 'NONE', *, *, #176, .T. ) ;
#325 = SHAPE_DEFINITION_REPRESENTATION ( #76, #337 ) ;
#326 = DIRECTION ( 'NONE',  ( 0.000000000000000000, 1.000000000000000000, -0.000000000000000000 ) ) ;
#327 = AXIS2_PLACEMENT_3D ( 'NONE', #298, #189, #290 ) ;
#328 = CARTESIAN_POINT ( 'NONE',  ( -8.500000000000015987, -9.000000000000001776, 0.000000000000000000 ) ) ;
#329 = LINE ( 'NONE', #65, #78 ) ;
#330 = VERTEX_POINT ( 'NONE', #66 ) ;
#331 = ORIENTED_EDGE ( 'NONE', *, *, #152, .F. ) ;
#332 = APPLICATION_CONTEXT ( 'automotive_design' ) ;
#333 = EDGE_LOOP ( 'NONE', ( #41, #230, #250, #77 ) ) ;
#334 = PRODUCT_RELATED_PRODUCT_CATEGORY ( 'part', '', ( #161 ) ) ;
#335 = DIRECTION ( 'NONE',  ( -0.08682659386424779191, 0.08682659386424779191, -0.9924325091389669673 ) ) ;
#336 = LINE ( 'NONE', #103, #256 ) ;
#337 = ADVANCED_BREP_SHAPE_REPRESENTATION ( 'gasket_front_cover', ( #68, #61 ), #150 ) ;
#338 = DIRECTION ( 'NONE',  ( 0.000000000000000000, 0.000000000000000000, 1.000000000000000000 ) ) ;
ENDSEC;
END-ISO-10303-21;
