ISO-10303-21;
HEADER;
FILE_DESCRIPTION (( 'STEP AP214' ),
    '1' );
FILE_NAME ('gnns gps.STEP',
    '2026-08-16T17:44:15',
    ( '' ),
    ( '' ),
    'SwSTEP 2.0',
    'SolidWorks 2025',
    '' );
FILE_SCHEMA (( 'AUTOMOTIVE_DESIGN' ));
ENDSEC;

DATA;
#1 = ORIENTED_EDGE ( 'NONE', *, *, #85, .T. ) ;
#2 = FILL_AREA_STYLE ('',( #70 ) ) ;
#3 = CARTESIAN_POINT ( 'NONE',  ( 1.132798289211301501E-15, 0.000000000000000000, 9.249999999999998224 ) ) ;
#4 =( NAMED_UNIT ( * ) SI_UNIT ( $, .STERADIAN. ) SOLID_ANGLE_UNIT ( ) );
#5 = FACE_OUTER_BOUND ( 'NONE', #111, .T. ) ;
#6 = UNCERTAINTY_MEASURE_WITH_UNIT (LENGTH_MEASURE( 1.000000000000000082E-05 ), #116, 'distance_accuracy_value', 'NONE');
#7 = CARTESIAN_POINT ( 'NONE',  ( 0.000000000000000000, 48.00000000000000000, 0.000000000000000000 ) ) ;
#8 = DIRECTION ( 'NONE',  ( 0.000000000000000000, 0.000000000000000000, -1.000000000000000000 ) ) ;
#9 = SURFACE_STYLE_FILL_AREA ( #18 ) ;
#10 = ADVANCED_FACE ( 'NONE', ( #5 ), #90, .F. ) ;
#11 = VECTOR ( 'NONE', #40, 1000.000000000000000 ) ;
#12 = AXIS2_PLACEMENT_3D ( 'NONE', #19, #120, #74 ) ;
#13 = CARTESIAN_POINT ( 'NONE',  ( 0.000000000000000000, 48.00000000000000000, 0.000000000000000000 ) ) ;
#14 = EDGE_LOOP ( 'NONE', ( #80, #100 ) ) ;
#15 = APPLICATION_PROTOCOL_DEFINITION ( 'draft international standard', 'automotive_design', 1998, #38 ) ;
#16 = STYLED_ITEM ( 'NONE', ( #91 ), #109 ) ;
#17 = APPLICATION_PROTOCOL_DEFINITION ( 'draft international standard', 'automotive_design', 1998, #139 ) ;
#18 = FILL_AREA_STYLE ('',( #42 ) ) ;
#19 = CARTESIAN_POINT ( 'NONE',  ( 0.000000000000000000, 48.00000000000000000, 0.000000000000000000 ) ) ;
#20 = COLOUR_RGB ( '',0.1921568627450980227, 0.2039215686274509776, 0.2039215686274509776 ) ;
#21 = DIRECTION ( 'NONE',  ( -0.000000000000000000, -1.000000000000000000, -0.000000000000000000 ) ) ;
#22 =( GEOMETRIC_REPRESENTATION_CONTEXT ( 3 ) GLOBAL_UNCERTAINTY_ASSIGNED_CONTEXT ( ( #71 ) ) GLOBAL_UNIT_ASSIGNED_CONTEXT ( ( #112, #26, #4 ) ) REPRESENTATION_CONTEXT ( 'NONE', 'WORKASPACE' ) );
#23 = EDGE_CURVE ( 'NONE', #104, #55, #33, .T. ) ;
#24 = CIRCLE ( 'NONE', #132, 9.249999999999998224 ) ;
#25 = FACE_OUTER_BOUND ( 'NONE', #14, .T. ) ;
#26 =( NAMED_UNIT ( * ) PLANE_ANGLE_UNIT ( ) SI_UNIT ( $, .RADIAN. ) );
#27 = PLANE ( 'NONE',  #45 ) ;
#28 = EDGE_LOOP ( 'NONE', ( #114, #115, #56, #1 ) ) ;
#29 = DIRECTION ( 'NONE',  ( 0.000000000000000000, 1.000000000000000000, 0.000000000000000000 ) ) ;
#30 = DIRECTION ( 'NONE',  ( 0.000000000000000000, 0.000000000000000000, 1.000000000000000000 ) ) ;
#31 =( GEOMETRIC_REPRESENTATION_CONTEXT ( 3 ) GLOBAL_UNCERTAINTY_ASSIGNED_CONTEXT ( ( #6 ) ) GLOBAL_UNIT_ASSIGNED_CONTEXT ( ( #116, #49, #118 ) ) REPRESENTATION_CONTEXT ( 'NONE', 'WORKASPACE' ) );
#32 = PRESENTATION_STYLE_ASSIGNMENT (( #61 ) ) ;
#33 = CIRCLE ( 'NONE', #86, 9.249999999999998224 ) ;
#34 = AXIS2_PLACEMENT_3D ( 'NONE', #96, #41, #8 ) ;
#35 = ORIENTED_EDGE ( 'NONE', *, *, #140, .T. ) ;
#36 = AXIS2_PLACEMENT_3D ( 'NONE', #89, #30, #39 ) ;
#37 = ORIENTED_EDGE ( 'NONE', *, *, #85, .F. ) ;
#38 = APPLICATION_CONTEXT ( 'automotive_design' ) ;
#39 = DIRECTION ( 'NONE',  ( 1.000000000000000000, 0.000000000000000000, 0.000000000000000000 ) ) ;
#40 = DIRECTION ( 'NONE',  ( -0.000000000000000000, -1.000000000000000000, -0.000000000000000000 ) ) ;
#41 = DIRECTION ( 'NONE',  ( -0.000000000000000000, -1.000000000000000000, -0.000000000000000000 ) ) ;
#42 = FILL_AREA_STYLE_COLOUR ( '', #20 ) ;
#43 = ADVANCED_FACE ( 'NONE', ( #25 ), #27, .T. ) ;
#44 = DIRECTION ( 'NONE',  ( 0.000000000000000000, -0.000000000000000000, 1.000000000000000000 ) ) ;
#45 = AXIS2_PLACEMENT_3D ( 'NONE', #13, #67, #44 ) ;
#46 = ORIENTED_EDGE ( 'NONE', *, *, #23, .T. ) ;
#47 = DIRECTION ( 'NONE',  ( 0.000000000000000000, 0.000000000000000000, 1.000000000000000000 ) ) ;
#48 =( LENGTH_UNIT ( ) NAMED_UNIT ( * ) SI_UNIT ( .MILLI., .METRE. ) );
#49 =( NAMED_UNIT ( * ) PLANE_ANGLE_UNIT ( ) SI_UNIT ( $, .RADIAN. ) );
#50 = EDGE_CURVE ( 'NONE', #128, #136, #122, .T. ) ;
#51 = PRODUCT_DEFINITION_SHAPE ( 'NONE', 'NONE',  #81 ) ;
#52 = CARTESIAN_POINT ( 'NONE',  ( 0.000000000000000000, 0.000000000000000000, -9.249999999999998224 ) ) ;
#53 = CARTESIAN_POINT ( 'NONE',  ( 0.000000000000000000, 48.00000000000000000, 0.000000000000000000 ) ) ;
#54 = AXIS2_PLACEMENT_3D ( 'NONE', #93, #78, #137 ) ;
#55 = VERTEX_POINT ( 'NONE', #52 ) ;
#56 = ORIENTED_EDGE ( 'NONE', *, *, #129, .T. ) ;
#57 = PRODUCT_RELATED_PRODUCT_CATEGORY ( 'part', '', ( #133 ) ) ;
#58 = SURFACE_SIDE_STYLE ('',( #9 ) ) ;
#59 = PRESENTATION_LAYER_ASSIGNMENT (  '', '', ( #83 ) ) ;
#60 = CARTESIAN_POINT ( 'NONE',  ( 0.000000000000000000, 48.00000000000000000, -9.249999999999998224 ) ) ;
#61 = SURFACE_STYLE_USAGE ( .BOTH. , #58 ) ;
#62 =( NAMED_UNIT ( * ) SI_UNIT ( $, .STERADIAN. ) SOLID_ANGLE_UNIT ( ) );
#63 = PRODUCT_DEFINITION_CONTEXT ( 'detailed design', #139, 'design' ) ;
#64 = CIRCLE ( 'NONE', #135, 9.249999999999998224 ) ;
#65 = DIRECTION ( 'NONE',  ( 0.000000000000000000, 1.000000000000000000, 0.000000000000000000 ) ) ;
#66 = SURFACE_STYLE_USAGE ( .BOTH. , #72 ) ;
#67 = DIRECTION ( 'NONE',  ( 0.000000000000000000, 1.000000000000000000, 0.000000000000000000 ) ) ;
#68 = PRODUCT_CONTEXT ( 'NONE', #38, 'mechanical' ) ;
#69 = VECTOR ( 'NONE', #21, 1000.000000000000000 ) ;
#70 = FILL_AREA_STYLE_COLOUR ( '', #97 ) ;
#71 = UNCERTAINTY_MEASURE_WITH_UNIT (LENGTH_MEASURE( 1.000000000000000082E-05 ), #112, 'distance_accuracy_value', 'NONE');
#72 = SURFACE_SIDE_STYLE ('',( #79 ) ) ;
#73 = DIRECTION ( 'NONE',  ( 0.000000000000000000, 0.000000000000000000, 1.000000000000000000 ) ) ;
#74 = DIRECTION ( 'NONE',  ( 0.000000000000000000, 0.000000000000000000, -1.000000000000000000 ) ) ;
#75 = LINE ( 'NONE', #105, #69 ) ;
#76 = PRODUCT_DEFINITION_FORMATION_WITH_SPECIFIED_SOURCE ( 'Symmetric', '', #133, .NOT_KNOWN. ) ;
#77 = CARTESIAN_POINT ( 'NONE',  ( 0.000000000000000000, 0.000000000000000000, 0.000000000000000000 ) ) ;
#78 = DIRECTION ( 'NONE',  ( 0.000000000000000000, 1.000000000000000000, 0.000000000000000000 ) ) ;
#79 = SURFACE_STYLE_FILL_AREA ( #2 ) ;
#80 = ORIENTED_EDGE ( 'NONE', *, *, #107, .T. ) ;
#81 = PRODUCT_DEFINITION ( 'General', '', #76, #63 ) ;
#82 = CYLINDRICAL_SURFACE ( 'NONE', #34, 9.249999999999998224 ) ;
#83 = STYLED_ITEM ( 'NONE', ( #32 ), #108 ) ;
#84 =( NAMED_UNIT ( * ) PLANE_ANGLE_UNIT ( ) SI_UNIT ( $, .RADIAN. ) );
#85 = EDGE_CURVE ( 'NONE', #55, #104, #24, .T. ) ;
#86 = AXIS2_PLACEMENT_3D ( 'NONE', #77, #29, #73 ) ;
#87 =( GEOMETRIC_REPRESENTATION_CONTEXT ( 3 ) GLOBAL_UNCERTAINTY_ASSIGNED_CONTEXT ( ( #127 ) ) GLOBAL_UNIT_ASSIGNED_CONTEXT ( ( #48, #84, #62 ) ) REPRESENTATION_CONTEXT ( 'NONE', 'WORKASPACE' ) );
#88 = DIRECTION ( 'NONE',  ( 0.000000000000000000, 1.000000000000000000, 0.000000000000000000 ) ) ;
#89 = CARTESIAN_POINT ( 'NONE',  ( 0.000000000000000000, 0.000000000000000000, 0.000000000000000000 ) ) ;
#90 = PLANE ( 'NONE',  #54 ) ;
#91 = PRESENTATION_STYLE_ASSIGNMENT (( #66 ) ) ;
#92 = MECHANICAL_DESIGN_GEOMETRIC_PRESENTATION_REPRESENTATION (  '', ( #83 ), #87 ) ;
#93 = CARTESIAN_POINT ( 'NONE',  ( 0.000000000000000000, 0.000000000000000000, 0.000000000000000000 ) ) ;
#94 = CARTESIAN_POINT ( 'NONE',  ( 1.132798289211301501E-15, 48.00000000000000000, 9.249999999999998224 ) ) ;
#95 = MECHANICAL_DESIGN_GEOMETRIC_PRESENTATION_REPRESENTATION (  '', ( #16 ), #22 ) ;
#96 = CARTESIAN_POINT ( 'NONE',  ( 0.000000000000000000, 48.00000000000000000, 0.000000000000000000 ) ) ;
#97 = COLOUR_RGB ( '',0.1921568627450980227, 0.2039215686274509776, 0.2039215686274509776 ) ;
#98 = CYLINDRICAL_SURFACE ( 'NONE', #12, 9.249999999999998224 ) ;
#99 = AXIS2_PLACEMENT_3D ( 'NONE', #53, #88, #134 ) ;
#100 = ORIENTED_EDGE ( 'NONE', *, *, #50, .T. ) ;
#101 = DIRECTION ( 'NONE',  ( 0.000000000000000000, 0.000000000000000000, 1.000000000000000000 ) ) ;
#102 = SHAPE_DEFINITION_REPRESENTATION ( #51, #109 ) ;
#103 = EDGE_LOOP ( 'NONE', ( #126, #35, #46, #125 ) ) ;
#104 = VERTEX_POINT ( 'NONE', #3 ) ;
#105 = CARTESIAN_POINT ( 'NONE',  ( 1.132798289211301501E-15, 48.00000000000000000, 9.249999999999998224 ) ) ;
#106 = FACE_OUTER_BOUND ( 'NONE', #103, .T. ) ;
#107 = EDGE_CURVE ( 'NONE', #136, #128, #64, .T. ) ;
#108 = MANIFOLD_SOLID_BREP ( 'Boss-Extrude1', #110 ) ;
#109 = ADVANCED_BREP_SHAPE_REPRESENTATION ( 'gnns gps', ( #108, #36 ), #31 ) ;
#110 = CLOSED_SHELL ( 'NONE', ( #119, #130, #43, #10 ) ) ;
#111 = EDGE_LOOP ( 'NONE', ( #37, #113 ) ) ;
#112 =( LENGTH_UNIT ( ) NAMED_UNIT ( * ) SI_UNIT ( .MILLI., .METRE. ) );
#113 = ORIENTED_EDGE ( 'NONE', *, *, #23, .F. ) ;
#114 = ORIENTED_EDGE ( 'NONE', *, *, #140, .F. ) ;
#115 = ORIENTED_EDGE ( 'NONE', *, *, #107, .F. ) ;
#116 =( LENGTH_UNIT ( ) NAMED_UNIT ( * ) SI_UNIT ( .MILLI., .METRE. ) );
#117 = CARTESIAN_POINT ( 'NONE',  ( 0.000000000000000000, 48.00000000000000000, -9.249999999999998224 ) ) ;
#118 =( NAMED_UNIT ( * ) SI_UNIT ( $, .STERADIAN. ) SOLID_ANGLE_UNIT ( ) );
#119 = ADVANCED_FACE ( 'NONE', ( #106 ), #82, .T. ) ;
#120 = DIRECTION ( 'NONE',  ( -0.000000000000000000, -1.000000000000000000, -0.000000000000000000 ) ) ;
#121 = LINE ( 'NONE', #117, #11 ) ;
#122 = CIRCLE ( 'NONE', #99, 9.249999999999998224 ) ;
#123 = PRESENTATION_LAYER_ASSIGNMENT (  '', '', ( #16 ) ) ;
#124 = CARTESIAN_POINT ( 'NONE',  ( 0.000000000000000000, 0.000000000000000000, 0.000000000000000000 ) ) ;
#125 = ORIENTED_EDGE ( 'NONE', *, *, #129, .F. ) ;
#126 = ORIENTED_EDGE ( 'NONE', *, *, #50, .F. ) ;
#127 = UNCERTAINTY_MEASURE_WITH_UNIT (LENGTH_MEASURE( 1.000000000000000082E-05 ), #48, 'distance_accuracy_value', 'NONE');
#128 = VERTEX_POINT ( 'NONE', #94 ) ;
#129 = EDGE_CURVE ( 'NONE', #136, #55, #121, .T. ) ;
#130 = ADVANCED_FACE ( 'NONE', ( #131 ), #98, .T. ) ;
#131 = FACE_OUTER_BOUND ( 'NONE', #28, .T. ) ;
#132 = AXIS2_PLACEMENT_3D ( 'NONE', #124, #65, #101 ) ;
#133 = PRODUCT ( 'gnns gps', 'gnns gps', '', ( #68 ) ) ;
#134 = DIRECTION ( 'NONE',  ( 0.000000000000000000, 0.000000000000000000, 1.000000000000000000 ) ) ;
#135 = AXIS2_PLACEMENT_3D ( 'NONE', #7, #138, #47 ) ;
#136 = VERTEX_POINT ( 'NONE', #60 ) ;
#137 = DIRECTION ( 'NONE',  ( 0.000000000000000000, -0.000000000000000000, 1.000000000000000000 ) ) ;
#138 = DIRECTION ( 'NONE',  ( 0.000000000000000000, 1.000000000000000000, 0.000000000000000000 ) ) ;
#139 = APPLICATION_CONTEXT ( 'automotive_design' ) ;
#140 = EDGE_CURVE ( 'NONE', #128, #104, #75, .T. ) ;
ENDSEC;
END-ISO-10303-21;
