ISO-10303-21;
HEADER;
FILE_DESCRIPTION (( 'STEP AP214' ),
    '1' );
FILE_NAME ('middel part.STEP',
    '2026-08-21T18:09:49',
    ( '' ),
    ( '' ),
    'SwSTEP 2.0',
    'SolidWorks 2025',
    '' );
FILE_SCHEMA (( 'AUTOMOTIVE_DESIGN' ));
ENDSEC;

DATA;
#1 = CARTESIAN_POINT ( 'NONE',  ( 0.000000000000000000, 0.000000000000000000, 0.000000000000000000 ) ) ;
#2 = EDGE_CURVE ( 'NONE', #303, #441, #220, .T. ) ;
#3 = ORIENTED_EDGE ( 'NONE', *, *, #293, .F. ) ;
#4 = AXIS2_PLACEMENT_3D ( 'NONE', #526, #457, #156 ) ;
#5 = SURFACE_STYLE_USAGE ( .BOTH. , #490 ) ;
#6 = DIRECTION ( 'NONE',  ( -0.9659258262890680902, -0.2588190451025214611, 0.000000000000000000 ) ) ;
#7 = CIRCLE ( 'NONE', #292, 3.131949998666408330 ) ;
#8 = ORIENTED_EDGE ( 'NONE', *, *, #343, .F. ) ;
#9 = AXIS2_PLACEMENT_3D ( 'NONE', #282, #744, #509 ) ;
#10 = DIRECTION ( 'NONE',  ( 1.000000000000000000, 0.000000000000000000, 0.000000000000000000 ) ) ;
#11 = COLOUR_RGB ( '',0.7960784313725489669, 0.8235294117647058432, 0.9372549019607843146 ) ;
#12 = DIRECTION ( 'NONE',  ( -0.000000000000000000, -0.000000000000000000, -1.000000000000000000 ) ) ;
#13 = LINE ( 'NONE', #521, #475 ) ;
#14 = VECTOR ( 'NONE', #630, 1000.000000000000000 ) ;
#15 = CARTESIAN_POINT ( 'NONE',  ( 0.000000000000000000, 0.000000000000000000, 1.600000000000000089 ) ) ;
#16 =( GEOMETRIC_REPRESENTATION_CONTEXT ( 3 ) GLOBAL_UNCERTAINTY_ASSIGNED_CONTEXT ( ( #273 ) ) GLOBAL_UNIT_ASSIGNED_CONTEXT ( ( #321, #188, #238 ) ) REPRESENTATION_CONTEXT ( 'NONE', 'WORKASPACE' ) );
#17 = DIRECTION ( 'NONE',  ( -1.000000000000000000, 0.000000000000000000, 0.000000000000000000 ) ) ;
#18 = DIRECTION ( 'NONE',  ( 1.000000000000000000, 0.000000000000000000, 0.000000000000000000 ) ) ;
#19 = AXIS2_PLACEMENT_3D ( 'NONE', #64, #269, #579 ) ;
#20 = DIRECTION ( 'NONE',  ( -0.000000000000000000, 0.000000000000000000, 1.000000000000000000 ) ) ;
#21 = CARTESIAN_POINT ( 'NONE',  ( 0.000000000000000000, 0.000000000000000000, 3.000000000000000000 ) ) ;
#22 = EDGE_CURVE ( 'NONE', #543, #308, #70, .T. ) ;
#23 = DIRECTION ( 'NONE',  ( 1.000000000000000000, 0.000000000000000000, 0.000000000000000000 ) ) ;
#24 = AXIS2_PLACEMENT_3D ( 'NONE', #415, #229, #420 ) ;
#25 = LINE ( 'NONE', #341, #458 ) ;
#26 = EDGE_CURVE ( 'NONE', #752, #723, #560, .T. ) ;
#27 = DIRECTION ( 'NONE',  ( -0.000000000000000000, -0.000000000000000000, -1.000000000000000000 ) ) ;
#28 = VECTOR ( 'NONE', #497, 1000.000000000000000 ) ;
#29 = DIRECTION ( 'NONE',  ( -1.000000000000000000, 9.762817048420158359E-17, 0.000000000000000000 ) ) ;
#30 = FACE_OUTER_BOUND ( 'NONE', #549, .T. ) ;
#31 = ORIENTED_EDGE ( 'NONE', *, *, #89, .T. ) ;
#32 = CARTESIAN_POINT ( 'NONE',  ( -20.21999999999999886, 0.000000000000000000, 2.185927830137563976 ) ) ;
#33 = CIRCLE ( 'NONE', #333, 20.21999999999999886 ) ;
#34 = EDGE_CURVE ( 'NONE', #670, #417, #380, .T. ) ;
#35 = FACE_OUTER_BOUND ( 'NONE', #597, .T. ) ;
#36 = ORIENTED_EDGE ( 'NONE', *, *, #662, .T. ) ;
#37 = EDGE_LOOP ( 'NONE', ( #309, #103, #62, #725, #799, #553 ) ) ;
#38 = CARTESIAN_POINT ( 'NONE',  ( 11.61000000000000121, 2.843629867620153816E-15, 0.000000000000000000 ) ) ;
#39 = AXIS2_PLACEMENT_3D ( 'NONE', #204, #694, #18 ) ;
#40 = ORIENTED_EDGE ( 'NONE', *, *, #320, .T. ) ;
#41 = VERTEX_POINT ( 'NONE', #439 ) ;
#42 = VECTOR ( 'NONE', #151, 1000.000000000000114 ) ;
#43 = FACE_OUTER_BOUND ( 'NONE', #179, .T. ) ;
#44 = DIRECTION ( 'NONE',  ( -0.000000000000000000, -0.000000000000000000, -1.000000000000000000 ) ) ;
#45 = ORIENTED_EDGE ( 'NONE', *, *, #364, .F. ) ;
#46 = VECTOR ( 'NONE', #727, 1000.000000000000000 ) ;
#47 = EDGE_CURVE ( 'NONE', #108, #227, #434, .T. ) ;
#48 = STYLED_ITEM ( 'NONE', ( #353 ), #325 ) ;
#49 = EDGE_LOOP ( 'NONE', ( #61, #622, #481, #288 ) ) ;
#50 = DIRECTION ( 'NONE',  ( 1.000000000000000000, 0.000000000000000000, 0.000000000000000000 ) ) ;
#51 = DIRECTION ( 'NONE',  ( -0.000000000000000000, -0.000000000000000000, -1.000000000000000000 ) ) ;
#52 = VERTEX_POINT ( 'NONE', #390 ) ;
#53 = CIRCLE ( 'NONE', #514, 20.21999999999999886 ) ;
#54 = ORIENTED_EDGE ( 'NONE', *, *, #704, .T. ) ;
#55 = EDGE_CURVE ( 'NONE', #245, #377, #314, .T. ) ;
#56 = APPLICATION_PROTOCOL_DEFINITION ( 'draft international standard', 'automotive_design', 1998, #570 ) ;
#57 = DIRECTION ( 'NONE',  ( -0.000000000000000000, 0.000000000000000000, 1.000000000000000000 ) ) ;
#58 = ORIENTED_EDGE ( 'NONE', *, *, #338, .F. ) ;
#59 = VERTEX_POINT ( 'NONE', #513 ) ;
#60 = CARTESIAN_POINT ( 'NONE',  ( 2.244897367846220041E-16, -8.378071034579708211E-16, 3.000000000000063505 ) ) ;
#61 = ORIENTED_EDGE ( 'NONE', *, *, #127, .F. ) ;
#62 = ORIENTED_EDGE ( 'NONE', *, *, #733, .F. ) ;
#63 = LINE ( 'NONE', #131, #225 ) ;
#64 = CARTESIAN_POINT ( 'NONE',  ( 0.000000000000000000, 0.000000000000000000, 3.000000000000000000 ) ) ;
#65 = EDGE_CURVE ( 'NONE', #279, #303, #53, .T. ) ;
#66 = DIRECTION ( 'NONE',  ( -0.000000000000000000, 0.000000000000000000, 1.000000000000000000 ) ) ;
#67 = AXIS2_PLACEMENT_3D ( 'NONE', #788, #468, #592 ) ;
#68 = EDGE_LOOP ( 'NONE', ( #690, #175, #123, #170, #545 ) ) ;
#69 = CARTESIAN_POINT ( 'NONE',  ( -18.32510308926966758, 4.407289049703867256, 1.600000000000000089 ) ) ;
#70 = LINE ( 'NONE', #621, #711 ) ;
#71 = VERTEX_POINT ( 'NONE', #393 ) ;
#72 = AXIS2_PLACEMENT_3D ( 'NONE', #249, #634, #191 ) ;
#73 = CARTESIAN_POINT ( 'NONE',  ( 0.000000000000000000, 0.000000000000000000, 3.000000000000000000 ) ) ;
#74 = ORIENTED_EDGE ( 'NONE', *, *, #107, .F. ) ;
#75 = EDGE_CURVE ( 'NONE', #493, #681, #81, .T. ) ;
#76 = PLANE ( 'NONE',  #762 ) ;
#77 = AXIS2_PLACEMENT_3D ( 'NONE', #533, #548, #492 ) ;
#78 = LINE ( 'NONE', #253, #730 ) ;
#79 = EDGE_CURVE ( 'NONE', #538, #782, #78, .T. ) ;
#80 = DIRECTION ( 'NONE',  ( -0.000000000000000000, 0.000000000000000000, 1.000000000000000000 ) ) ;
#81 = CIRCLE ( 'NONE', #72, 16.55999999999999872 ) ;
#82 = CARTESIAN_POINT ( 'NONE',  ( -16.37083165349697467, -2.886151240380355087, 2.774557223088315094 ) ) ;
#83 = FACE_BOUND ( 'NONE', #482, .T. ) ;
#84 = FACE_OUTER_BOUND ( 'NONE', #49, .T. ) ;
#85 = CARTESIAN_POINT ( 'NONE',  ( 13.24194999866640288, 3.043486101843687439E-15, 2.000000000000013767 ) ) ;
#86 = PRODUCT_DEFINITION_CONTEXT ( 'detailed design', #570, 'design' ) ;
#87 = CYLINDRICAL_SURFACE ( 'NONE', #326, 20.21999999999999886 ) ;
#88 = AXIS2_PLACEMENT_3D ( 'NONE', #586, #583, #461 ) ;
#89 = EDGE_CURVE ( 'NONE', #608, #52, #556, .T. ) ;
#90 = DIRECTION ( 'NONE',  ( 1.000000000000000000, 0.000000000000000000, 0.000000000000000000 ) ) ;
#91 = CYLINDRICAL_SURFACE ( 'NONE', #499, 1.631949998666401891 ) ;
#92 = COLOUR_RGB ( '',0.7960784313725489669, 0.8235294117647058432, 0.9372549019607843146 ) ;
#93 = ORIENTED_EDGE ( 'NONE', *, *, #689, .T. ) ;
#94 = EDGE_CURVE ( 'NONE', #108, #71, #122, .T. ) ;
#95 = CARTESIAN_POINT ( 'NONE',  ( 19.81898894019258606, -4.007003542364786952, 1.600000000000000089 ) ) ;
#96 =( LENGTH_UNIT ( ) NAMED_UNIT ( * ) SI_UNIT ( .MILLI., .METRE. ) );
#97 = ORIENTED_EDGE ( 'NONE', *, *, #584, .T. ) ;
#98 = EDGE_LOOP ( 'NONE', ( #158, #506, #299, #365 ) ) ;
#99 = FACE_OUTER_BOUND ( 'NONE', #68, .T. ) ;
#100 = CIRCLE ( 'NONE', #207, 1.631949998666401891 ) ;
#101 = DIRECTION ( 'NONE',  ( -1.000000000000000000, 0.000000000000000000, 0.000000000000000000 ) ) ;
#102 = VERTEX_POINT ( 'NONE', #738 ) ;
#103 = ORIENTED_EDGE ( 'NONE', *, *, #486, .T. ) ;
#104 = DIRECTION ( 'NONE',  ( 1.000000000000000000, 0.000000000000000000, 0.000000000000000000 ) ) ;
#105 = DIRECTION ( 'NONE',  ( -0.000000000000000000, -0.000000000000000000, -1.000000000000000000 ) ) ;
#106 = AXIS2_PLACEMENT_3D ( 'NONE', #274, #636, #760 ) ;
#107 = EDGE_CURVE ( 'NONE', #466, #613, #598, .T. ) ;
#108 = VERTEX_POINT ( 'NONE', #676 ) ;
#109 = EDGE_LOOP ( 'NONE', ( #3, #715 ) ) ;
#110 = CARTESIAN_POINT ( 'NONE',  ( -19.81898894019258606, 4.007003542364788728, 1.600000000000000089 ) ) ;
#111 = DIRECTION ( 'NONE',  ( -0.5999999999999990896, 0.000000000000000000, -0.8000000000000005995 ) ) ;
#112 = EDGE_LOOP ( 'NONE', ( #250, #74, #550, #595 ) ) ;
#113 = EDGE_CURVE ( 'NONE', #613, #602, #25, .T. ) ;
#114 = AXIS2_PLACEMENT_3D ( 'NONE', #572, #443, #500 ) ;
#115 = AXIS2_PLACEMENT_3D ( 'NONE', #785, #287, #163 ) ;
#116 = ORIENTED_EDGE ( 'NONE', *, *, #673, .T. ) ;
#117 = DIRECTION ( 'NONE',  ( 1.000000000000000000, 0.000000000000000000, 0.000000000000000000 ) ) ;
#118 = DIRECTION ( 'NONE',  ( -0.03978230059144272773, 0.1484695670492412467, 0.9881164689548813662 ) ) ;
#119 = ORIENTED_EDGE ( 'NONE', *, *, #442, .F. ) ;
#120 = EDGE_LOOP ( 'NONE', ( #54, #429, #58, #298, #557, #596 ) ) ;
#121 = DIRECTION ( 'NONE',  ( -0.03978230059144273467, 0.1484695670492412745, -0.9881164689548813662 ) ) ;
#122 = LINE ( 'NONE', #625, #28 ) ;
#123 = ORIENTED_EDGE ( 'NONE', *, *, #2, .T. ) ;
#124 =( BOUNDED_CURVE ( )  B_SPLINE_CURVE ( 3, ( #701, #408, #82, #771 ),
 .UNSPECIFIED., .F., .F. ) 
 B_SPLINE_CURVE_WITH_KNOTS ( ( 4, 4 ),
 ( 1.308996938995746318, 1.570796326794896114 ),
 .UNSPECIFIED. ) 
 CURVE ( )  GEOMETRIC_REPRESENTATION_ITEM ( )  RATIONAL_B_SPLINE_CURVE ( ( 1.000000000000000000, 0.9942965742492069214, 0.9942965742492069214, 1.000000000000000000 ) ) 
 REPRESENTATION_ITEM ( '' )  );
#125 = SHAPE_DEFINITION_REPRESENTATION ( #654, #712 ) ;
#126 = AXIS2_PLACEMENT_3D ( 'NONE', #448, #277, #17 ) ;
#127 = EDGE_CURVE ( 'NONE', #102, #613, #518, .T. ) ;
#128 = CARTESIAN_POINT ( 'NONE',  ( 20.44064593976511546, -0.9322338126005611514, 2.036971549911646306 ) ) ;
#129 = DIRECTION ( 'NONE',  ( 1.000000000000000000, 0.000000000000000000, 0.000000000000000000 ) ) ;
#130 = ORIENTED_EDGE ( 'NONE', *, *, #157, .T. ) ;
#131 = CARTESIAN_POINT ( 'NONE',  ( 2.244897367846220041E-16, -8.378071034579708211E-16, 3.000000000000000000 ) ) ;
#132 = LINE ( 'NONE', #69, #772 ) ;
#133 = DIRECTION ( 'NONE',  ( 1.000000000000000000, -9.762817048420159591E-17, 0.000000000000000000 ) ) ;
#134 = ORIENTED_EDGE ( 'NONE', *, *, #22, .T. ) ;
#135 = CARTESIAN_POINT ( 'NONE',  ( -13.45775241264305677, 9.649999999999998579, 3.000000000000000000 ) ) ;
#136 = CARTESIAN_POINT ( 'NONE',  ( -13.24194999866639932, 0.000000000000000000, 2.000000000000013767 ) ) ;
#137 = ORIENTED_EDGE ( 'NONE', *, *, #113, .T. ) ;
#138 = EDGE_CURVE ( 'NONE', #41, #246, #629, .T. ) ;
#139 = DIRECTION ( 'NONE',  ( 1.000000000000000000, 0.000000000000000000, 0.000000000000000000 ) ) ;
#140 = ORIENTED_EDGE ( 'NONE', *, *, #695, .F. ) ;
#141 = ADVANCED_FACE ( 'NONE', ( #529 ), #644, .T. ) ;
#142 = DIRECTION ( 'NONE',  ( 1.000000000000000000, 0.000000000000000000, 0.000000000000000000 ) ) ;
#143 = CARTESIAN_POINT ( 'NONE',  ( 0.000000000000000000, 0.000000000000000000, 3.000000000000000000 ) ) ;
#144 = AXIS2_PLACEMENT_3D ( 'NONE', #515, #756, #139 ) ;
#145 = FACE_OUTER_BOUND ( 'NONE', #161, .T. ) ;
#146 = CARTESIAN_POINT ( 'NONE',  ( 7.774999999999998579, 9.521628863370669207E-16, 3.000000000000000000 ) ) ;
#147 = CARTESIAN_POINT ( 'NONE',  ( -20.21999999999999886, 0.000000000000000000, 3.000000000000000000 ) ) ;
#148 = EDGE_CURVE ( 'NONE', #308, #782, #124, .T. ) ;
#149 = DIRECTION ( 'NONE',  ( -0.000000000000000000, 0.000000000000000000, 1.000000000000000000 ) ) ;
#150 = AXIS2_PLACEMENT_3D ( 'NONE', #699, #696, #404 ) ;
#151 = DIRECTION ( 'NONE',  ( 0.5999999999999990896, 7.347880794884107903E-17, -0.8000000000000005995 ) ) ;
#152 = CONICAL_SURFACE ( 'NONE', #9, 3.131949998666408330, 0.6435011087932833718 ) ;
#153 = DIRECTION ( 'NONE',  ( 1.000000000000000000, 0.000000000000000000, 0.000000000000000000 ) ) ;
#154 = VECTOR ( 'NONE', #105, 1000.000000000000000 ) ;
#155 = CARTESIAN_POINT ( 'NONE',  ( 0.000000000000000000, 0.000000000000000000, 1.600000000000000089 ) ) ;
#156 = DIRECTION ( 'NONE',  ( 1.000000000000000000, 0.000000000000000000, 0.000000000000000000 ) ) ;
#157 = EDGE_CURVE ( 'NONE', #574, #658, #700, .T. ) ;
#158 = ORIENTED_EDGE ( 'NONE', *, *, #571, .F. ) ;
#159 = CARTESIAN_POINT ( 'NONE',  ( -13.45775241264305677, 9.649999999999998579, 3.000000000000000000 ) ) ;
#160 = CARTESIAN_POINT ( 'NONE',  ( -17.76867749721402490, 9.649999999999998579, 1.600000000000000089 ) ) ;
#161 = EDGE_LOOP ( 'NONE', ( #431, #360, #742, #795, #36, #473, #222, #604, #31 ) ) ;
#162 = CARTESIAN_POINT ( 'NONE',  ( 15.75656036088866152, -5.095527999498388638, 1.600000000000000089 ) ) ;
#163 = DIRECTION ( 'NONE',  ( 1.000000000000000000, 0.000000000000000000, 0.000000000000000000 ) ) ;
#164 = ORIENTED_EDGE ( 'NONE', *, *, #47, .F. ) ;
#165 = ORIENTED_EDGE ( 'NONE', *, *, #460, .T. ) ;
#166 = DIRECTION ( 'NONE',  ( 1.000000000000000000, 0.000000000000000000, 0.000000000000000000 ) ) ;
#167 = AXIS2_PLACEMENT_3D ( 'NONE', #356, #600, #166 ) ;
#168 = CARTESIAN_POINT ( 'NONE',  ( 17.76867749721402134, -9.650000000000002132, 1.600000000000000089 ) ) ;
#169 = ORIENTED_EDGE ( 'NONE', *, *, #576, .F. ) ;
#170 = ORIENTED_EDGE ( 'NONE', *, *, #401, .F. ) ;
#171 = DIRECTION ( 'NONE',  ( -0.000000000000000000, -0.000000000000000000, -1.000000000000000000 ) ) ;
#172 = EDGE_CURVE ( 'NONE', #658, #574, #211, .T. ) ;
#173 = CARTESIAN_POINT ( 'NONE',  ( -14.74194999866640465, 0.000000000000000000, 0.000000000000000000 ) ) ;
#174 = AXIS2_PLACEMENT_3D ( 'NONE', #182, #435, #386 ) ;
#175 = ORIENTED_EDGE ( 'NONE', *, *, #593, .T. ) ;
#176 = ORIENTED_EDGE ( 'NONE', *, *, #338, .T. ) ;
#177 = SURFACE_SIDE_STYLE ('',( #732 ) ) ;
#178 = ORIENTED_EDGE ( 'NONE', *, *, #65, .F. ) ;
#179 = EDGE_LOOP ( 'NONE', ( #436, #187, #776, #501 ) ) ;
#180 =( LENGTH_UNIT ( ) NAMED_UNIT ( * ) SI_UNIT ( .MILLI., .METRE. ) );
#181 = CARTESIAN_POINT ( 'NONE',  ( 15.75656036088866152, -5.095527999498388638, 1.600000000000000089 ) ) ;
#182 = CARTESIAN_POINT ( 'NONE',  ( 11.61000000000000121, 2.843629867620153816E-15, 2.000000000000013767 ) ) ;
#183 = EDGE_CURVE ( 'NONE', #377, #417, #275, .T. ) ;
#184 = ORIENTED_EDGE ( 'NONE', *, *, #450, .T. ) ;
#185 = CARTESIAN_POINT ( 'NONE',  ( 20.34293131606264637, 2.203227583830050573, 2.512024768138502839 ) ) ;
#186 = EDGE_LOOP ( 'NONE', ( #302, #794, #381, #655 ) ) ;
#187 = ORIENTED_EDGE ( 'NONE', *, *, #127, .T. ) ;
#188 =( NAMED_UNIT ( * ) PLANE_ANGLE_UNIT ( ) SI_UNIT ( $, .RADIAN. ) );
#189 = AXIS2_PLACEMENT_3D ( 'NONE', #209, #453, #23 ) ;
#190 = DIRECTION ( 'NONE',  ( 0.9659258262890680902, 0.2588190451025214611, 0.000000000000000000 ) ) ;
#191 = DIRECTION ( 'NONE',  ( 1.000000000000000000, 0.000000000000000000, 0.000000000000000000 ) ) ;
#192 = ORIENTED_EDGE ( 'NONE', *, *, #26, .F. ) ;
#193 = AXIS2_PLACEMENT_3D ( 'NONE', #21, #270, #705 ) ;
#194 = DIRECTION ( 'NONE',  ( -0.000000000000000000, -0.000000000000000000, -1.000000000000000000 ) ) ;
#195 = FACE_OUTER_BOUND ( 'NONE', #508, .T. ) ;
#196 = EDGE_CURVE ( 'NONE', #681, #308, #728, .T. ) ;
#197 = ORIENTED_EDGE ( 'NONE', *, *, #75, .F. ) ;
#198 = CLOSED_SHELL ( 'NONE', ( #352, #305, #208, #720, #589, #649, #516, #331, #221, #394, #764, #268, #491, #233, #758, #385, #626, #524, #216, #141, #739, #638, #426, #371 ) ) ;
#199 = CARTESIAN_POINT ( 'NONE',  ( -9.421118451725454770E-16, 9.650000000000000355, 1.600000000000000089 ) ) ;
#200 = EDGE_CURVE ( 'NONE', #602, #627, #767, .T. ) ;
#201 = DIRECTION ( 'NONE',  ( 1.000000000000000000, 0.000000000000000000, 0.000000000000000000 ) ) ;
#202 = AXIS2_PLACEMENT_3D ( 'NONE', #38, #726, #713 ) ;
#203 = FACE_BOUND ( 'NONE', #665, .T. ) ;
#204 = CARTESIAN_POINT ( 'NONE',  ( 0.000000000000000000, 0.000000000000000000, 1.600000000000000089 ) ) ;
#205 = CYLINDRICAL_SURFACE ( 'NONE', #126, 16.55999999999999872 ) ;
#206 = CARTESIAN_POINT ( 'NONE',  ( -11.60999999999999766, 0.000000000000000000, 2.000000000000013767 ) ) ;
#207 = AXIS2_PLACEMENT_3D ( 'NONE', #721, #300, #104 ) ;
#208 = ADVANCED_FACE ( 'NONE', ( #578 ), #698, .F. ) ;
#209 = CARTESIAN_POINT ( 'NONE',  ( 11.61000000000000121, 2.843629867620153816E-15, 3.000000000000000000 ) ) ;
#210 = CARTESIAN_POINT ( 'NONE',  ( 0.000000000000000000, 0.000000000000000000, 1.600000000000000089 ) ) ;
#211 = CIRCLE ( 'NONE', #505, 3.131949998666408330 ) ;
#212 = CARTESIAN_POINT ( 'NONE',  ( 7.774999999999998579, 9.521628863370669207E-16, 3.000000000000000000 ) ) ;
#213 = FACE_OUTER_BOUND ( 'NONE', #674, .T. ) ;
#214 = CARTESIAN_POINT ( 'NONE',  ( 0.000000000000000000, 0.000000000000000000, 3.000000000000000000 ) ) ;
#215 = AXIS2_PLACEMENT_3D ( 'NONE', #559, #118, #6 ) ;
#216 = ADVANCED_FACE ( 'NONE', ( #213 ), #757, .T. ) ;
#217 = DIRECTION ( 'NONE',  ( 1.000000000000000000, 0.000000000000000000, 0.000000000000000000 ) ) ;
#218 = ORIENTED_EDGE ( 'NONE', *, *, #183, .T. ) ;
#219 = DIRECTION ( 'NONE',  ( -1.000000000000000000, 0.000000000000000000, 0.000000000000000000 ) ) ;
#220 = CIRCLE ( 'NONE', #329, 20.21999999999999886 ) ;
#221 = ADVANCED_FACE ( 'NONE', ( #639 ), #87, .T. ) ;
#222 = ORIENTED_EDGE ( 'NONE', *, *, #79, .F. ) ;
#223 = PRODUCT ( 'middel part', 'middel part', '', ( #614 ) ) ;
#224 = FACE_OUTER_BOUND ( 'NONE', #237, .T. ) ;
#225 = VECTOR ( 'NONE', #432, 1000.000000000000227 ) ;
#226 = CARTESIAN_POINT ( 'NONE',  ( -19.53102020756496060, -5.233321091972986672, 3.000000000000000000 ) ) ;
#227 = VERTEX_POINT ( 'NONE', #146 ) ;
#228 = ORIENTED_EDGE ( 'NONE', *, *, #55, .T. ) ;
#229 = DIRECTION ( 'NONE',  ( -0.000000000000000000, 0.000000000000000000, 1.000000000000000000 ) ) ;
#230 = CYLINDRICAL_SURFACE ( 'NONE', #575, 20.21999999999999886 ) ;
#231 = ORIENTED_EDGE ( 'NONE', *, *, #183, .F. ) ;
#232 = VERTEX_POINT ( 'NONE', #398 ) ;
#233 = ADVANCED_FACE ( 'NONE', ( #84 ), #335, .F. ) ;
#234 = DIRECTION ( 'NONE',  ( -0.000000000000000000, -0.000000000000000000, -1.000000000000000000 ) ) ;
#235 = CARTESIAN_POINT ( 'NONE',  ( 0.000000000000000000, 0.000000000000000000, 3.000000000000000000 ) ) ;
#236 = ORIENTED_EDGE ( 'NONE', *, *, #770, .F. ) ;
#237 = EDGE_LOOP ( 'NONE', ( #363, #349, #355, #599 ) ) ;
#238 =( NAMED_UNIT ( * ) SI_UNIT ( $, .STERADIAN. ) SOLID_ANGLE_UNIT ( ) );
#239 = CARTESIAN_POINT ( 'NONE',  ( 17.76867749721402134, 9.650000000000002132, 3.000000000000000000 ) ) ;
#240 = ORIENTED_EDGE ( 'NONE', *, *, #79, .T. ) ;
#241 = ORIENTED_EDGE ( 'NONE', *, *, #603, .T. ) ;
#242 = PRESENTATION_STYLE_ASSIGNMENT (( #5 ) ) ;
#243 = CARTESIAN_POINT ( 'NONE',  ( -9.421118451725454770E-16, 9.650000000000000355, 0.000000000000000000 ) ) ;
#244 = EDGE_CURVE ( 'NONE', #538, #608, #547, .T. ) ;
#245 = VERTEX_POINT ( 'NONE', #588 ) ;
#246 = VERTEX_POINT ( 'NONE', #405 ) ;
#247 = CARTESIAN_POINT ( 'NONE',  ( 11.61000000000000121, 2.843629867620153816E-15, 0.000000000000000000 ) ) ;
#248 = AXIS2_PLACEMENT_3D ( 'NONE', #214, #777, #295 ) ;
#249 = CARTESIAN_POINT ( 'NONE',  ( 0.000000000000000000, 0.000000000000000000, 1.600000000000000089 ) ) ;
#250 = ORIENTED_EDGE ( 'NONE', *, *, #113, .F. ) ;
#251 =( NAMED_UNIT ( * ) PLANE_ANGLE_UNIT ( ) SI_UNIT ( $, .RADIAN. ) );
#252 = LINE ( 'NONE', #568, #706 ) ;
#253 = CARTESIAN_POINT ( 'NONE',  ( 2.244897367846220041E-16, -8.378071034579708211E-16, 3.000000000000000000 ) ) ;
#254 = AXIS2_PLACEMENT_3D ( 'NONE', #210, #402, #153 ) ;
#255 = ORIENTED_EDGE ( 'NONE', *, *, #645, .F. ) ;
#256 = EDGE_CURVE ( 'NONE', #538, #798, #677, .T. ) ;
#257 = CIRCLE ( 'NONE', #189, 1.631949998666401891 ) ;
#258 = DIRECTION ( 'NONE',  ( 0.9659258262890680902, 0.2588190451025214611, 0.000000000000000000 ) ) ;
#259 = CARTESIAN_POINT ( 'NONE',  ( 2.329371405922695537, -8.693332436601620472, 1.600000000000000089 ) ) ;
#260 = AXIS2_PLACEMENT_3D ( 'NONE', #317, #753, #806 ) ;
#261 = AXIS2_PLACEMENT_3D ( 'NONE', #362, #296, #789 ) ;
#262 = EDGE_CURVE ( 'NONE', #41, #279, #607, .T. ) ;
#263 = DIRECTION ( 'NONE',  ( -0.000000000000000000, -0.000000000000000000, -1.000000000000000000 ) ) ;
#264 = DIRECTION ( 'NONE',  ( -0.9659258262890680902, -0.2588190451025214611, 0.000000000000000000 ) ) ;
#265 = CARTESIAN_POINT ( 'NONE',  ( -13.45775241264305677, 9.649999999999998579, 1.600000000000000089 ) ) ;
#266 = CARTESIAN_POINT ( 'NONE',  ( -16.55999999999999517, 1.733597681358538978, 2.072800197377407727 ) ) ;
#267 = CARTESIAN_POINT ( 'NONE',  ( 17.76867749721402134, 9.650000000000002132, 3.000000000000000000 ) ) ;
#268 = ADVANCED_FACE ( 'NONE', ( #35 ), #230, .T. ) ;
#269 = DIRECTION ( 'NONE',  ( -0.000000000000000000, -0.000000000000000000, -1.000000000000000000 ) ) ;
#270 = DIRECTION ( 'NONE',  ( -0.000000000000000000, 0.000000000000000000, 1.000000000000000000 ) ) ;
#271 = AXIS2_PLACEMENT_3D ( 'NONE', #646, #661, #50 ) ;
#272 = FACE_OUTER_BOUND ( 'NONE', #186, .T. ) ;
#273 = UNCERTAINTY_MEASURE_WITH_UNIT (LENGTH_MEASURE( 1.000000000000000082E-05 ), #321, 'distance_accuracy_value', 'NONE');
#274 = CARTESIAN_POINT ( 'NONE',  ( -11.60999999999999766, 0.000000000000000000, 3.000000000000000000 ) ) ;
#275 = CIRCLE ( 'NONE', #357, 1.631949998666401891 ) ;
#276 = EDGE_CURVE ( 'NONE', #71, #59, #751, .T. ) ;
#277 = DIRECTION ( 'NONE',  ( -0.000000000000000000, -0.000000000000000000, -1.000000000000000000 ) ) ;
#278 = CARTESIAN_POINT ( 'NONE',  ( 13.24194999866640288, 3.043486101843687439E-15, 3.000000000000000000 ) ) ;
#279 = VERTEX_POINT ( 'NONE', #591 ) ;
#280 = FACE_OUTER_BOUND ( 'NONE', #369, .T. ) ;
#281 = EDGE_CURVE ( 'NONE', #102, #410, #463, .T. ) ;
#282 = CARTESIAN_POINT ( 'NONE',  ( -11.60999999999999766, 0.000000000000000000, 0.000000000000000000 ) ) ;
#283 =( BOUNDED_CURVE ( )  B_SPLINE_CURVE ( 3, ( #32, #708, #532, #110 ),
 .UNSPECIFIED., .F., .F. ) 
 B_SPLINE_CURVE_WITH_KNOTS ( ( 4, 4 ),
 ( 4.974188368183839692, 5.173679217785007722 ),
 .UNSPECIFIED. ) 
 CURVE ( )  GEOMETRIC_REPRESENTATION_ITEM ( )  RATIONAL_B_SPLINE_CURVE ( ( 1.000000000000000000, 0.9966863654315485377, 0.9966863654315485377, 1.000000000000000000 ) ) 
 REPRESENTATION_ITEM ( '' )  );
#284 = AXIS2_PLACEMENT_3D ( 'NONE', #668, #558, #117 ) ;
#285 = ORIENTED_EDGE ( 'NONE', *, *, #450, .F. ) ;
#286 = DIRECTION ( 'NONE',  ( -1.000000000000000000, 0.000000000000000000, 0.000000000000000000 ) ) ;
#287 = DIRECTION ( 'NONE',  ( -0.000000000000000000, 0.000000000000000000, 1.000000000000000000 ) ) ;
#288 = ORIENTED_EDGE ( 'NONE', *, *, #107, .T. ) ;
#289 = ORIENTED_EDGE ( 'NONE', *, *, #138, .F. ) ;
#290 = LINE ( 'NONE', #423, #724 ) ;
#291 = VERTEX_POINT ( 'NONE', #722 ) ;
#292 = AXIS2_PLACEMENT_3D ( 'NONE', #247, #750, #446 ) ;
#293 = EDGE_CURVE ( 'NONE', #670, #245, #707, .T. ) ;
#294 = VERTEX_POINT ( 'NONE', #168 ) ;
#295 = DIRECTION ( 'NONE',  ( -1.000000000000000000, 0.000000000000000000, 0.000000000000000000 ) ) ;
#296 = DIRECTION ( 'NONE',  ( -0.000000000000000000, 0.000000000000000000, 1.000000000000000000 ) ) ;
#297 = CONICAL_SURFACE ( 'NONE', #403, 3.131949998666408330, 0.6435011087932833718 ) ;
#298 = ORIENTED_EDGE ( 'NONE', *, *, #544, .F. ) ;
#299 = ORIENTED_EDGE ( 'NONE', *, *, #94, .T. ) ;
#300 = DIRECTION ( 'NONE',  ( -0.000000000000000000, -0.000000000000000000, -1.000000000000000000 ) ) ;
#301 = CARTESIAN_POINT ( 'NONE',  ( -20.21999999999999176, -1.769585772187639128, 2.451817167789310581 ) ) ;
#302 = ORIENTED_EDGE ( 'NONE', *, *, #47, .T. ) ;
#303 = VERTEX_POINT ( 'NONE', #778 ) ;
#304 = CARTESIAN_POINT ( 'NONE',  ( -20.21999999999999886, 0.000000000000000000, 2.185927830137563976 ) ) ;
#305 = ADVANCED_FACE ( 'NONE', ( #793 ), #297, .F. ) ;
#306 = DIRECTION ( 'NONE',  ( 1.000000000000000000, 0.000000000000000000, 0.000000000000000000 ) ) ;
#307 =( GEOMETRIC_REPRESENTATION_CONTEXT ( 3 ) GLOBAL_UNCERTAINTY_ASSIGNED_CONTEXT ( ( #340 ) ) GLOBAL_UNIT_ASSIGNED_CONTEXT ( ( #180, #251, #366 ) ) REPRESENTATION_CONTEXT ( 'NONE', 'WORKASPACE' ) );
#308 = VERTEX_POINT ( 'NONE', #480 ) ;
#309 = ORIENTED_EDGE ( 'NONE', *, *, #631, .F. ) ;
#310 = CARTESIAN_POINT ( 'NONE',  ( -9.978050001333595986, 1.998562342235335244E-16, 2.000000000000013767 ) ) ;
#311 = ORIENTED_EDGE ( 'NONE', *, *, #544, .T. ) ;
#312 = ORIENTED_EDGE ( 'NONE', *, *, #65, .T. ) ;
#313 = CARTESIAN_POINT ( 'NONE',  ( 9.978050001333597763, 2.843629867620153816E-15, 3.000000000000000000 ) ) ;
#314 = LINE ( 'NONE', #375, #14 ) ;
#315 = ORIENTED_EDGE ( 'NONE', *, *, #2, .F. ) ;
#316 = LINE ( 'NONE', #135, #374 ) ;
#317 = CARTESIAN_POINT ( 'NONE',  ( -11.60999999999999766, 0.000000000000000000, 3.000000000000000000 ) ) ;
#318 = DIRECTION ( 'NONE',  ( -0.000000000000000000, -0.000000000000000000, -1.000000000000000000 ) ) ;
#319 = AXIS2_PLACEMENT_3D ( 'NONE', #400, #691, #90 ) ;
#320 = EDGE_CURVE ( 'NONE', #535, #291, #425, .T. ) ;
#321 =( LENGTH_UNIT ( ) NAMED_UNIT ( * ) SI_UNIT ( .MILLI., .METRE. ) );
#322 = PLANE ( 'NONE',  #114 ) ;
#323 = ORIENTED_EDGE ( 'NONE', *, *, #471, .F. ) ;
#324 =( GEOMETRIC_REPRESENTATION_CONTEXT ( 3 ) GLOBAL_UNCERTAINTY_ASSIGNED_CONTEXT ( ( #766 ) ) GLOBAL_UNIT_ASSIGNED_CONTEXT ( ( #96, #358, #348 ) ) REPRESENTATION_CONTEXT ( 'NONE', 'WORKASPACE' ) );
#325 = MANIFOLD_SOLID_BREP ( 'Chamfer3', #198 ) ;
#326 = AXIS2_PLACEMENT_3D ( 'NONE', #143, #454, #337 ) ;
#327 = CARTESIAN_POINT ( 'NONE',  ( -16.55999999999999872, 0.000000000000000000, 3.000000000000000000 ) ) ;
#328 = CARTESIAN_POINT ( 'NONE',  ( 11.61000000000000121, 2.843629867620153816E-15, 0.000000000000000000 ) ) ;
#329 = AXIS2_PLACEMENT_3D ( 'NONE', #444, #741, #129 ) ;
#330 = DIRECTION ( 'NONE',  ( 1.000000000000000000, 0.000000000000000000, 0.000000000000000000 ) ) ;
#331 = ADVANCED_FACE ( 'NONE', ( #345 ), #601, .T. ) ;
#332 = CARTESIAN_POINT ( 'NONE',  ( -16.55999999999999872, 0.000000000000000000, 2.333282139815938905 ) ) ;
#333 = AXIS2_PLACEMENT_3D ( 'NONE', #155, #536, #485 ) ;
#334 = DIRECTION ( 'NONE',  ( -0.000000000000000000, -0.000000000000000000, -1.000000000000000000 ) ) ;
#335 = CYLINDRICAL_SURFACE ( 'NONE', #88, 1.631949998666401891 ) ;
#336 = FACE_OUTER_BOUND ( 'NONE', #678, .T. ) ;
#337 = DIRECTION ( 'NONE',  ( -1.000000000000000000, 0.000000000000000000, 0.000000000000000000 ) ) ;
#338 = EDGE_CURVE ( 'NONE', #418, #294, #487, .T. ) ;
#339 = FACE_OUTER_BOUND ( 'NONE', #359, .T. ) ;
#340 = UNCERTAINTY_MEASURE_WITH_UNIT (LENGTH_MEASURE( 1.000000000000000082E-05 ), #180, 'distance_accuracy_value', 'NONE');
#341 = CARTESIAN_POINT ( 'NONE',  ( 14.74194999866640821, 3.227183121715790950E-15, 0.000000000000000000 ) ) ;
#342 =( BOUNDED_CURVE ( )  B_SPLINE_CURVE ( 3, ( #373, #185, #128, #379 ),
 .UNSPECIFIED., .F., .F. ) 
 B_SPLINE_CURVE_WITH_KNOTS ( ( 4, 4 ),
 ( 4.712388980384689674, 5.173679217785007722 ),
 .UNSPECIFIED. ) 
 CURVE ( )  GEOMETRIC_REPRESENTATION_ITEM ( )  RATIONAL_B_SPLINE_CURVE ( ( 1.000000000000000000, 0.9823460798950676143, 0.9823460798950676143, 1.000000000000000000 ) ) 
 REPRESENTATION_ITEM ( '' )  );
#343 = EDGE_CURVE ( 'NONE', #417, #574, #594, .T. ) ;
#344 = CARTESIAN_POINT ( 'NONE',  ( -9.421118451725454770E-16, -9.650000000000000355, 3.000000000000000000 ) ) ;
#345 = FACE_OUTER_BOUND ( 'NONE', #494, .T. ) ;
#346 = EDGE_LOOP ( 'NONE', ( #498, #116 ) ) ;
#347 = LINE ( 'NONE', #474, #484 ) ;
#348 =( NAMED_UNIT ( * ) SI_UNIT ( $, .STERADIAN. ) SOLID_ANGLE_UNIT ( ) );
#349 = ORIENTED_EDGE ( 'NONE', *, *, #603, .F. ) ;
#350 = EDGE_LOOP ( 'NONE', ( #488, #447, #197, #650 ) ) ;
#351 = CARTESIAN_POINT ( 'NONE',  ( -15.75656036088866152, 5.095527999498392191, 1.600000000000000089 ) ) ;
#352 = ADVANCED_FACE ( 'NONE', ( #30 ), #152, .F. ) ;
#353 = PRESENTATION_STYLE_ASSIGNMENT (( #663 ) ) ;
#354 = VERTEX_POINT ( 'NONE', #512 ) ;
#355 = ORIENTED_EDGE ( 'NONE', *, *, #343, .T. ) ;
#356 = CARTESIAN_POINT ( 'NONE',  ( 0.000000000000000000, 0.000000000000000000, 0.000000000000000000 ) ) ;
#357 = AXIS2_PLACEMENT_3D ( 'NONE', #206, #641, #465 ) ;
#358 =( NAMED_UNIT ( * ) PLANE_ANGLE_UNIT ( ) SI_UNIT ( $, .RADIAN. ) );
#359 = EDGE_LOOP ( 'NONE', ( #119, #561, #315, #178, #165 ) ) ;
#360 = ORIENTED_EDGE ( 'NONE', *, *, #770, .T. ) ;
#361 = DIRECTION ( 'NONE',  ( 1.000000000000000000, 0.000000000000000000, 0.000000000000000000 ) ) ;
#362 = CARTESIAN_POINT ( 'NONE',  ( 0.000000000000000000, 0.000000000000000000, 0.000000000000000000 ) ) ;
#363 = ORIENTED_EDGE ( 'NONE', *, *, #584, .F. ) ;
#364 = EDGE_CURVE ( 'NONE', #227, #108, #428, .T. ) ;
#365 = ORIENTED_EDGE ( 'NONE', *, *, #673, .F. ) ;
#366 =( NAMED_UNIT ( * ) SI_UNIT ( $, .STERADIAN. ) SOLID_ANGLE_UNIT ( ) );
#367 = CARTESIAN_POINT ( 'NONE',  ( -17.76867749721402490, -9.649999999999998579, 0.000000000000000000 ) ) ;
#368 = VECTOR ( 'NONE', #264, 1000.000000000000000 ) ;
#369 = EDGE_LOOP ( 'NONE', ( #653, #612, #804, #790, #735 ) ) ;
#370 = ORIENTED_EDGE ( 'NONE', *, *, #414, .T. ) ;
#371 = ADVANCED_FACE ( 'NONE', ( #616 ), #564, .F. ) ;
#372 = APPLICATION_PROTOCOL_DEFINITION ( 'draft international standard', 'automotive_design', 1998, #618 ) ;
#373 = CARTESIAN_POINT ( 'NONE',  ( 19.53102020756496060, 5.233321091972984895, 3.000000000000000000 ) ) ;
#374 = VECTOR ( 'NONE', #748, 1000.000000000000000 ) ;
#375 = CARTESIAN_POINT ( 'NONE',  ( -9.978050001333595986, 1.998562342235335737E-16, 3.000000000000000000 ) ) ;
#376 = VECTOR ( 'NONE', #334, 1000.000000000000000 ) ;
#377 = VERTEX_POINT ( 'NONE', #310 ) ;
#378 = SURFACE_STYLE_FILL_AREA ( #610 ) ;
#379 = CARTESIAN_POINT ( 'NONE',  ( 19.81898894019258606, -4.007003542364786952, 1.600000000000000089 ) ) ;
#380 = LINE ( 'NONE', #692, #406 ) ;
#381 = ORIENTED_EDGE ( 'NONE', *, *, #276, .F. ) ;
#382 = CARTESIAN_POINT ( 'NONE',  ( 8.478050001333592434, 2.843629867620153816E-15, 0.000000000000000000 ) ) ;
#383 = CYLINDRICAL_SURFACE ( 'NONE', #260, 1.631949998666401891 ) ;
#384 = CIRCLE ( 'NONE', #167, 7.774999999999998579 ) ;
#385 = ADVANCED_FACE ( 'NONE', ( #195 ), #383, .F. ) ;
#386 = DIRECTION ( 'NONE',  ( 1.000000000000000000, 0.000000000000000000, 0.000000000000000000 ) ) ;
#387 = ORIENTED_EDGE ( 'NONE', *, *, #148, .T. ) ;
#388 = DIRECTION ( 'NONE',  ( -0.000000000000000000, -0.000000000000000000, -1.000000000000000000 ) ) ;
#389 = LINE ( 'NONE', #243, #783 ) ;
#390 = CARTESIAN_POINT ( 'NONE',  ( 13.45775241264305322, -9.650000000000002132, 3.000000000000000000 ) ) ;
#391 = VECTOR ( 'NONE', #133, 1000.000000000000000 ) ;
#392 = FACE_BOUND ( 'NONE', #740, .T. ) ;
#393 = CARTESIAN_POINT ( 'NONE',  ( -7.774999999999998579, 0.000000000000000000, 0.000000000000000000 ) ) ;
#394 = ADVANCED_FACE ( 'NONE', ( #624 ), #322, .T. ) ;
#395 = CARTESIAN_POINT ( 'NONE',  ( 8.478050001333592434, 2.843629867620153816E-15, 0.000000000000000000 ) ) ;
#396 = CARTESIAN_POINT ( 'NONE',  ( -15.75656036088866152, 5.095527999498392191, 1.600000000000000089 ) ) ;
#397 = CARTESIAN_POINT ( 'NONE',  ( -17.76867749721402490, -9.649999999999998579, 3.000000000000000000 ) ) ;
#398 = CARTESIAN_POINT ( 'NONE',  ( 19.53102020756496060, 5.233321091972984895, 3.000000000000000000 ) ) ;
#399 = AXIS2_PLACEMENT_3D ( 'NONE', #328, #581, #768 ) ;
#400 = CARTESIAN_POINT ( 'NONE',  ( -11.60999999999999766, 0.000000000000000000, 2.000000000000013767 ) ) ;
#401 = EDGE_CURVE ( 'NONE', #608, #441, #252, .T. ) ;
#402 = DIRECTION ( 'NONE',  ( -0.000000000000000000, 0.000000000000000000, 1.000000000000000000 ) ) ;
#403 = AXIS2_PLACEMENT_3D ( 'NONE', #416, #657, #101 ) ;
#404 = DIRECTION ( 'NONE',  ( -1.000000000000000000, 0.000000000000000000, 0.000000000000000000 ) ) ;
#405 = CARTESIAN_POINT ( 'NONE',  ( -19.81898894019258606, 4.007003542364788728, 1.600000000000000089 ) ) ;
#406 = VECTOR ( 'NONE', #12, 1000.000000000000000 ) ;
#407 = FACE_OUTER_BOUND ( 'NONE', #120, .T. ) ;
#408 = CARTESIAN_POINT ( 'NONE',  ( -16.55999999999999162, -1.449274994432596664, 2.551043140385320207 ) ) ;
#409 = AXIS2_PLACEMENT_3D ( 'NONE', #344, #590, #29 ) ;
#410 = VERTEX_POINT ( 'NONE', #313 ) ;
#411 = CARTESIAN_POINT ( 'NONE',  ( 0.000000000000000000, 0.000000000000000000, 1.600000000000000089 ) ) ;
#412 = VERTEX_POINT ( 'NONE', #555 ) ;
#413 = ORIENTED_EDGE ( 'NONE', *, *, #200, .T. ) ;
#414 = EDGE_CURVE ( 'NONE', #41, #493, #683, .T. ) ;
#415 = CARTESIAN_POINT ( 'NONE',  ( 0.000000000000000000, 0.000000000000000000, 3.000000000000000000 ) ) ;
#416 = CARTESIAN_POINT ( 'NONE',  ( 11.61000000000000121, 2.843629867620153816E-15, 0.000000000000000000 ) ) ;
#417 = VERTEX_POINT ( 'NONE', #136 ) ;
#418 = VERTEX_POINT ( 'NONE', #669 ) ;
#419 = AXIS2_PLACEMENT_3D ( 'NONE', #635, #80, #330 ) ;
#420 = DIRECTION ( 'NONE',  ( 1.000000000000000000, 0.000000000000000000, 0.000000000000000000 ) ) ;
#421 = FILL_AREA_STYLE_COLOUR ( '', #11 ) ;
#422 = ORIENTED_EDGE ( 'NONE', *, *, #430, .F. ) ;
#423 = CARTESIAN_POINT ( 'NONE',  ( -9.421118451725454770E-16, 9.650000000000000355, 3.000000000000000000 ) ) ;
#424 = VECTOR ( 'NONE', #763, 1000.000000000000000 ) ;
#425 = LINE ( 'NONE', #239, #642 ) ;
#426 = ADVANCED_FACE ( 'NONE', ( #797 ), #504, .T. ) ;
#427 = ORIENTED_EDGE ( 'NONE', *, *, #471, .T. ) ;
#428 = CIRCLE ( 'NONE', #462, 7.774999999999998579 ) ;
#429 = ORIENTED_EDGE ( 'NONE', *, *, #792, .F. ) ;
#430 = EDGE_CURVE ( 'NONE', #246, #681, #132, .T. ) ;
#431 = ORIENTED_EDGE ( 'NONE', *, *, #695, .T. ) ;
#432 = DIRECTION ( 'NONE',  ( 0.9659258262890680902, 0.2588190451025214611, 0.000000000000000000 ) ) ;
#433 = CARTESIAN_POINT ( 'NONE',  ( 15.99573168334696760, 4.286043386897754992, 3.000000000000000000 ) ) ;
#434 = CIRCLE ( 'NONE', #467, 7.774999999999998579 ) ;
#435 = DIRECTION ( 'NONE',  ( -0.000000000000000000, -0.000000000000000000, -1.000000000000000000 ) ) ;
#436 = ORIENTED_EDGE ( 'NONE', *, *, #576, .T. ) ;
#437 = CARTESIAN_POINT ( 'NONE',  ( 16.74615080400343459, -2.035483672191896076, 2.019945709836375780 ) ) ;
#438 = CONICAL_SURFACE ( 'NONE', #202, 3.131949998666408330, 0.6435011087932833718 ) ;
#439 = CARTESIAN_POINT ( 'NONE',  ( -17.76867749721402490, 9.649999999999998579, 1.600000000000000089 ) ) ;
#440 = AXIS2_PLACEMENT_3D ( 'NONE', #587, #20, #451 ) ;
#441 = VERTEX_POINT ( 'NONE', #367 ) ;
#442 = EDGE_CURVE ( 'NONE', #412, #291, #680, .T. ) ;
#443 = DIRECTION ( 'NONE',  ( -9.762817048420158359E-17, 1.000000000000000000, 0.000000000000000000 ) ) ;
#444 = CARTESIAN_POINT ( 'NONE',  ( 0.000000000000000000, 0.000000000000000000, 0.000000000000000000 ) ) ;
#445 = ORIENTED_EDGE ( 'NONE', *, *, #262, .T. ) ;
#446 = DIRECTION ( 'NONE',  ( 1.000000000000000000, 0.000000000000000000, 0.000000000000000000 ) ) ;
#447 = ORIENTED_EDGE ( 'NONE', *, *, #430, .T. ) ;
#448 = CARTESIAN_POINT ( 'NONE',  ( 0.000000000000000000, 0.000000000000000000, 3.000000000000000000 ) ) ;
#449 = ORIENTED_EDGE ( 'NONE', *, *, #196, .F. ) ;
#450 = EDGE_CURVE ( 'NONE', #627, #602, #7, .T. ) ;
#451 = DIRECTION ( 'NONE',  ( 1.000000000000000000, 0.000000000000000000, 0.000000000000000000 ) ) ;
#452 = DIRECTION ( 'NONE',  ( 1.000000000000000000, 0.000000000000000000, 0.000000000000000000 ) ) ;
#453 = DIRECTION ( 'NONE',  ( -0.000000000000000000, 0.000000000000000000, 1.000000000000000000 ) ) ;
#454 = DIRECTION ( 'NONE',  ( -0.000000000000000000, -0.000000000000000000, -1.000000000000000000 ) ) ;
#455 = CIRCLE ( 'NONE', #419, 20.21999999999999886 ) ;
#456 = CARTESIAN_POINT ( 'NONE',  ( -8.478050001333588881, 3.835532540956374299E-16, 0.000000000000000000 ) ) ;
#457 = DIRECTION ( 'NONE',  ( -0.000000000000000000, 0.000000000000000000, 1.000000000000000000 ) ) ;
#458 = VECTOR ( 'NONE', #522, 1000.000000000000114 ) ;
#459 = CARTESIAN_POINT ( 'NONE',  ( -14.74194999866640465, 0.000000000000000000, 0.000000000000000000 ) ) ;
#460 = EDGE_CURVE ( 'NONE', #279, #291, #389, .T. ) ;
#461 = DIRECTION ( 'NONE',  ( -1.000000000000000000, 0.000000000000000000, 0.000000000000000000 ) ) ;
#462 = AXIS2_PLACEMENT_3D ( 'NONE', #73, #496, #10 ) ;
#463 = CIRCLE ( 'NONE', #115, 1.631949998666401891 ) ;
#464 = DIRECTION ( 'NONE',  ( 1.000000000000000000, -9.762817048420159591E-17, 0.000000000000000000 ) ) ;
#465 = DIRECTION ( 'NONE',  ( 1.000000000000000000, 0.000000000000000000, 0.000000000000000000 ) ) ;
#466 = VERTEX_POINT ( 'NONE', #737 ) ;
#467 = AXIS2_PLACEMENT_3D ( 'NONE', #565, #66, #510 ) ;
#468 = DIRECTION ( 'NONE',  ( -0.000000000000000000, 0.000000000000000000, 1.000000000000000000 ) ) ;
#469 = DIRECTION ( 'NONE',  ( -1.000000000000000000, 0.000000000000000000, 0.000000000000000000 ) ) ;
#470 = ORIENTED_EDGE ( 'NONE', *, *, #55, .F. ) ;
#471 = EDGE_CURVE ( 'NONE', #723, #354, #534, .T. ) ;
#472 = MECHANICAL_DESIGN_GEOMETRIC_PRESENTATION_REPRESENTATION (  '', ( #648 ), #16 ) ;
#473 = ORIENTED_EDGE ( 'NONE', *, *, #615, .T. ) ;
#474 = CARTESIAN_POINT ( 'NONE',  ( -9.421118451725454770E-16, -9.650000000000000355, 0.000000000000000000 ) ) ;
#475 = VECTOR ( 'NONE', #525, 1000.000000000000000 ) ;
#476 = DIRECTION ( 'NONE',  ( -1.000000000000000000, 0.000000000000000000, 0.000000000000000000 ) ) ;
#477 = ORIENTED_EDGE ( 'NONE', *, *, #34, .F. ) ;
#478 = ORIENTED_EDGE ( 'NONE', *, *, #157, .F. ) ;
#479 = CARTESIAN_POINT ( 'NONE',  ( -11.60999999999999766, 0.000000000000000000, 0.000000000000000000 ) ) ;
#480 = CARTESIAN_POINT ( 'NONE',  ( -16.55999999999999872, 0.000000000000000000, 2.333282139815938905 ) ) ;
#481 = ORIENTED_EDGE ( 'NONE', *, *, #502, .T. ) ;
#482 = EDGE_LOOP ( 'NONE', ( #130, #503 ) ) ;
#483 = PRODUCT_RELATED_PRODUCT_CATEGORY ( 'part', '', ( #223 ) ) ;
#484 = VECTOR ( 'NONE', #464, 1000.000000000000000 ) ;
#485 = DIRECTION ( 'NONE',  ( 1.000000000000000000, 0.000000000000000000, 0.000000000000000000 ) ) ;
#486 = EDGE_CURVE ( 'NONE', #232, #752, #342, .T. ) ;
#487 = LINE ( 'NONE', #714, #46 ) ;
#488 = ORIENTED_EDGE ( 'NONE', *, *, #138, .T. ) ;
#489 = EDGE_LOOP ( 'NONE', ( #729, #228, #218, #477 ) ) ;
#490 = SURFACE_SIDE_STYLE ('',( #378 ) ) ;
#491 = ADVANCED_FACE ( 'NONE', ( #675 ), #620, .F. ) ;
#492 = DIRECTION ( 'NONE',  ( 1.000000000000000000, 0.000000000000000000, 0.000000000000000000 ) ) ;
#493 = VERTEX_POINT ( 'NONE', #265 ) ;
#494 = EDGE_LOOP ( 'NONE', ( #539, #427, #140, #311 ) ) ;
#495 = LINE ( 'NONE', #382, #679 ) ;
#496 = DIRECTION ( 'NONE',  ( -0.000000000000000000, 0.000000000000000000, 1.000000000000000000 ) ) ;
#497 = DIRECTION ( 'NONE',  ( -0.000000000000000000, -0.000000000000000000, -1.000000000000000000 ) ) ;
#498 = ORIENTED_EDGE ( 'NONE', *, *, #276, .T. ) ;
#499 = AXIS2_PLACEMENT_3D ( 'NONE', #717, #234, #286 ) ;
#500 = DIRECTION ( 'NONE',  ( -1.000000000000000000, -9.762817048420158359E-17, 0.000000000000000000 ) ) ;
#501 = ORIENTED_EDGE ( 'NONE', *, *, #502, .F. ) ;
#502 = EDGE_CURVE ( 'NONE', #410, #466, #582, .T. ) ;
#503 = ORIENTED_EDGE ( 'NONE', *, *, #172, .T. ) ;
#504 = PLANE ( 'NONE',  #215 ) ;
#505 = AXIS2_PLACEMENT_3D ( 'NONE', #709, #149, #217 ) ;
#506 = ORIENTED_EDGE ( 'NONE', *, *, #364, .T. ) ;
#507 = CIRCLE ( 'NONE', #319, 1.631949998666401891 ) ;
#508 = EDGE_LOOP ( 'NONE', ( #470, #609, #731, #241 ) ) ;
#509 = DIRECTION ( 'NONE',  ( -1.000000000000000000, 0.000000000000000000, 0.000000000000000000 ) ) ;
#510 = DIRECTION ( 'NONE',  ( 1.000000000000000000, 0.000000000000000000, 0.000000000000000000 ) ) ;
#511 = PRESENTATION_LAYER_ASSIGNMENT (  '', '', ( #48 ) ) ;
#512 = CARTESIAN_POINT ( 'NONE',  ( 15.99573168334696760, 4.286043386897754992, 3.000000000000000000 ) ) ;
#513 = CARTESIAN_POINT ( 'NONE',  ( 7.774999999999998579, 9.521628863370669207E-16, 0.000000000000000000 ) ) ;
#514 = AXIS2_PLACEMENT_3D ( 'NONE', #1, #754, #201 ) ;
#515 = CARTESIAN_POINT ( 'NONE',  ( 0.000000000000000000, 0.000000000000000000, 3.000000000000000000 ) ) ;
#516 = ADVANCED_FACE ( 'NONE', ( #336 ), #205, .T. ) ;
#517 = CIRCLE ( 'NONE', #779, 16.55999999999999872 ) ;
#518 = LINE ( 'NONE', #278, #424 ) ;
#519 = CARTESIAN_POINT ( 'NONE',  ( 14.74194999866640821, 3.227183121715790950E-15, 0.000000000000000000 ) ) ;
#520 = CARTESIAN_POINT ( 'NONE',  ( -16.28999004236377601, 3.446039079943899353, 1.826367895722371237 ) ) ;
#521 = CARTESIAN_POINT ( 'NONE',  ( 13.45775241264305322, -9.650000000000002132, 3.000000000000000000 ) ) ;
#522 = DIRECTION ( 'NONE',  ( 0.5999999999999990896, 7.347880794884107903E-17, -0.8000000000000005995 ) ) ;
#523 = CONICAL_SURFACE ( 'NONE', #563, 3.131949998666408330, 0.6435011087932833718 ) ;
#524 = ADVANCED_FACE ( 'NONE', ( #585, #83, #339, #769 ), #528, .F. ) ;
#525 = DIRECTION ( 'NONE',  ( -0.000000000000000000, -0.000000000000000000, -1.000000000000000000 ) ) ;
#526 = CARTESIAN_POINT ( 'NONE',  ( -11.60999999999999766, 0.000000000000000000, 0.000000000000000000 ) ) ;
#527 = AXIS2_PLACEMENT_3D ( 'NONE', #15, #647, #452 ) ;
#528 = PLANE ( 'NONE',  #440 ) ;
#529 = FACE_OUTER_BOUND ( 'NONE', #350, .T. ) ;
#530 = AXIS2_PLACEMENT_3D ( 'NONE', #60, #121, #190 ) ;
#531 = ORIENTED_EDGE ( 'NONE', *, *, #256, .F. ) ;
#532 = CARTESIAN_POINT ( 'NONE',  ( -20.08588523942407633, 2.686911172412568938, 1.787605206120197687 ) ) ;
#533 = CARTESIAN_POINT ( 'NONE',  ( -11.60999999999999766, 0.000000000000000000, 3.000000000000000000 ) ) ;
#534 =( BOUNDED_CURVE ( )  B_SPLINE_CURVE ( 3, ( #181, #437, #628, #433 ),
 .UNSPECIFIED., .F., .F. ) 
 B_SPLINE_CURVE_WITH_KNOTS ( ( 4, 4 ),
 ( 0.9962211171047511415, 1.570796326794895892 ),
 .UNSPECIFIED. ) 
 CURVE ( )  GEOMETRIC_REPRESENTATION_ITEM ( )  RATIONAL_B_SPLINE_CURVE ( ( 1.000000000000000000, 0.9726773100344804357, 0.9726773100344804357, 1.000000000000000000 ) ) 
 REPRESENTATION_ITEM ( '' )  );
#535 = VERTEX_POINT ( 'NONE', #267 ) ;
#536 = DIRECTION ( 'NONE',  ( -0.000000000000000000, 0.000000000000000000, 1.000000000000000000 ) ) ;
#537 = CARTESIAN_POINT ( 'NONE',  ( 0.000000000000000000, 0.000000000000000000, 3.000000000000000000 ) ) ;
#538 = VERTEX_POINT ( 'NONE', #765 ) ;
#539 = ORIENTED_EDGE ( 'NONE', *, *, #749, .T. ) ;
#540 = PLANE ( 'NONE',  #409 ) ;
#541 = VECTOR ( 'NONE', #761, 1000.000000000000000 ) ;
#542 = DIRECTION ( 'NONE',  ( -0.000000000000000000, -0.000000000000000000, -1.000000000000000000 ) ) ;
#543 = VERTEX_POINT ( 'NONE', #327 ) ;
#544 = EDGE_CURVE ( 'NONE', #52, #418, #13, .T. ) ;
#545 = ORIENTED_EDGE ( 'NONE', *, *, #244, .F. ) ;
#546 = DIRECTION ( 'NONE',  ( 1.000000000000000000, 9.762817048420159591E-17, 0.000000000000000000 ) ) ;
#547 = CIRCLE ( 'NONE', #193, 20.21999999999999886 ) ;
#548 = DIRECTION ( 'NONE',  ( -0.000000000000000000, 0.000000000000000000, 1.000000000000000000 ) ) ;
#549 = EDGE_LOOP ( 'NONE', ( #231, #97, #478, #8 ) ) ;
#550 = ORIENTED_EDGE ( 'NONE', *, *, #796, .T. ) ;
#551 = CARTESIAN_POINT ( 'NONE',  ( -13.24194999866639932, 0.000000000000000000, 3.000000000000000000 ) ) ;
#552 = ORIENTED_EDGE ( 'NONE', *, *, #593, .F. ) ;
#553 = ORIENTED_EDGE ( 'NONE', *, *, #320, .F. ) ;
#554 = AXIS2_PLACEMENT_3D ( 'NONE', #651, #388, #567 ) ;
#555 = CARTESIAN_POINT ( 'NONE',  ( 17.76867749721402134, -9.650000000000002132, 0.000000000000000000 ) ) ;
#556 = LINE ( 'NONE', #802, #391 ) ;
#557 = ORIENTED_EDGE ( 'NONE', *, *, #89, .F. ) ;
#558 = DIRECTION ( 'NONE',  ( 0.000000000000000000, 0.000000000000000000, 1.000000000000000000 ) ) ;
#559 = CARTESIAN_POINT ( 'NONE',  ( -2.329371405922696425, 8.693332436601624025, 1.600000000000000089 ) ) ;
#560 = LINE ( 'NONE', #259, #368 ) ;
#561 = ORIENTED_EDGE ( 'NONE', *, *, #704, .F. ) ;
#562 = LINE ( 'NONE', #800, #580 ) ;
#563 = AXIS2_PLACEMENT_3D ( 'NONE', #479, #171, #219 ) ;
#564 = PLANE ( 'NONE',  #530 ) ;
#565 = CARTESIAN_POINT ( 'NONE',  ( 0.000000000000000000, 0.000000000000000000, 3.000000000000000000 ) ) ;
#566 = ORIENTED_EDGE ( 'NONE', *, *, #796, .F. ) ;
#567 = DIRECTION ( 'NONE',  ( -1.000000000000000000, 0.000000000000000000, 0.000000000000000000 ) ) ;
#568 = CARTESIAN_POINT ( 'NONE',  ( -17.76867749721402490, -9.649999999999998579, 3.000000000000000000 ) ) ;
#569 = EDGE_LOOP ( 'NONE', ( #184, #413 ) ) ;
#570 = APPLICATION_CONTEXT ( 'automotive_design' ) ;
#571 = EDGE_CURVE ( 'NONE', #227, #59, #637, .T. ) ;
#572 = CARTESIAN_POINT ( 'NONE',  ( -9.421118451725454770E-16, 9.650000000000000355, 3.000000000000000000 ) ) ;
#573 = VECTOR ( 'NONE', #801, 1000.000000000000000 ) ;
#574 = VERTEX_POINT ( 'NONE', #459 ) ;
#575 = AXIS2_PLACEMENT_3D ( 'NONE', #537, #44, #476 ) ;
#576 = EDGE_CURVE ( 'NONE', #410, #102, #257, .T. ) ;
#577 = CARTESIAN_POINT ( 'NONE',  ( 0.000000000000000000, 0.000000000000000000, 3.000000000000000000 ) ) ;
#578 = FACE_OUTER_BOUND ( 'NONE', #489, .T. ) ;
#579 = DIRECTION ( 'NONE',  ( -1.000000000000000000, 0.000000000000000000, 0.000000000000000000 ) ) ;
#580 = VECTOR ( 'NONE', #194, 1000.000000000000000 ) ;
#581 = DIRECTION ( 'NONE',  ( -0.000000000000000000, 0.000000000000000000, 1.000000000000000000 ) ) ;
#582 = LINE ( 'NONE', #640, #376 ) ;
#583 = DIRECTION ( 'NONE',  ( -0.000000000000000000, -0.000000000000000000, -1.000000000000000000 ) ) ;
#584 = EDGE_CURVE ( 'NONE', #377, #658, #703, .T. ) ;
#585 = FACE_BOUND ( 'NONE', #569, .T. ) ;
#586 = CARTESIAN_POINT ( 'NONE',  ( 11.61000000000000121, 2.843629867620153816E-15, 3.000000000000000000 ) ) ;
#587 = CARTESIAN_POINT ( 'NONE',  ( 0.000000000000000000, 0.000000000000000000, 0.000000000000000000 ) ) ;
#588 = CARTESIAN_POINT ( 'NONE',  ( -9.978050001333595986, 1.998562342235335244E-16, 3.000000000000000000 ) ) ;
#589 = ADVANCED_FACE ( 'NONE', ( #272 ), #759, .F. ) ;
#590 = DIRECTION ( 'NONE',  ( 9.762817048420158359E-17, 1.000000000000000000, -0.000000000000000000 ) ) ;
#591 = CARTESIAN_POINT ( 'NONE',  ( -17.76867749721402490, 9.649999999999998579, 0.000000000000000000 ) ) ;
#592 = DIRECTION ( 'NONE',  ( 1.000000000000000000, 0.000000000000000000, 0.000000000000000000 ) ) ;
#593 = EDGE_CURVE ( 'NONE', #798, #303, #643, .T. ) ;
#594 = LINE ( 'NONE', #173, #736 ) ;
#595 = ORIENTED_EDGE ( 'NONE', *, *, #200, .F. ) ;
#596 = ORIENTED_EDGE ( 'NONE', *, *, #401, .T. ) ;
#597 = EDGE_LOOP ( 'NONE', ( #552, #747, #289, #445, #312 ) ) ;
#598 = CIRCLE ( 'NONE', #174, 1.631949998666401891 ) ;
#599 = ORIENTED_EDGE ( 'NONE', *, *, #172, .F. ) ;
#600 = DIRECTION ( 'NONE',  ( -0.000000000000000000, 0.000000000000000000, 1.000000000000000000 ) ) ;
#601 = CYLINDRICAL_SURFACE ( 'NONE', #633, 16.55999999999999872 ) ;
#602 = VERTEX_POINT ( 'NONE', #519 ) ;
#603 = EDGE_CURVE ( 'NONE', #417, #377, #507, .T. ) ;
#604 = ORIENTED_EDGE ( 'NONE', *, *, #244, .T. ) ;
#605 = CARTESIAN_POINT ( 'NONE',  ( -8.478050001333588881, 3.835532540956374299E-16, 0.000000000000000000 ) ) ;
#606 = MECHANICAL_DESIGN_GEOMETRIC_PRESENTATION_REPRESENTATION (  '', ( #48 ), #324 ) ;
#607 = LINE ( 'NONE', #160, #154 ) ;
#608 = VERTEX_POINT ( 'NONE', #397 ) ;
#609 = ORIENTED_EDGE ( 'NONE', *, *, #684, .T. ) ;
#610 = FILL_AREA_STYLE ('',( #743 ) ) ;
#611 = CARTESIAN_POINT ( 'NONE',  ( 0.000000000000000000, 0.000000000000000000, 0.000000000000000000 ) ) ;
#612 = ORIENTED_EDGE ( 'NONE', *, *, #662, .F. ) ;
#613 = VERTEX_POINT ( 'NONE', #85 ) ;
#614 = PRODUCT_CONTEXT ( 'NONE', #618, 'mechanical' ) ;
#615 = EDGE_CURVE ( 'NONE', #543, #782, #659, .T. ) ;
#616 = FACE_OUTER_BOUND ( 'NONE', #780, .T. ) ;
#617 = ORIENTED_EDGE ( 'NONE', *, *, #460, .F. ) ;
#618 = APPLICATION_CONTEXT ( 'automotive_design' ) ;
#619 = ORIENTED_EDGE ( 'NONE', *, *, #262, .F. ) ;
#620 = CYLINDRICAL_SURFACE ( 'NONE', #19, 7.774999999999998579 ) ;
#621 = CARTESIAN_POINT ( 'NONE',  ( -16.55999999999999872, 0.000000000000000000, 3.000000000000000000 ) ) ;
#622 = ORIENTED_EDGE ( 'NONE', *, *, #281, .T. ) ;
#623 = CIRCLE ( 'NONE', #271, 1.631949998666401891 ) ;
#624 = FACE_OUTER_BOUND ( 'NONE', #667, .T. ) ;
#625 = CARTESIAN_POINT ( 'NONE',  ( -7.774999999999998579, 0.000000000000000000, 3.000000000000000000 ) ) ;
#626 = ADVANCED_FACE ( 'NONE', ( #145, #203, #392, #632 ), #76, .T. ) ;
#627 = VERTEX_POINT ( 'NONE', #395 ) ;
#628 = CARTESIAN_POINT ( 'NONE',  ( 16.82811403408016204, 1.179550162637855948, 2.499721131605127322 ) ) ;
#629 = CIRCLE ( 'NONE', #527, 20.21999999999999886 ) ;
#630 = DIRECTION ( 'NONE',  ( -0.000000000000000000, -0.000000000000000000, -1.000000000000000000 ) ) ;
#631 = EDGE_CURVE ( 'NONE', #232, #535, #455, .T. ) ;
#632 = FACE_BOUND ( 'NONE', #109, .T. ) ;
#633 = AXIS2_PLACEMENT_3D ( 'NONE', #235, #542, #469 ) ;
#634 = DIRECTION ( 'NONE',  ( -0.000000000000000000, 0.000000000000000000, 1.000000000000000000 ) ) ;
#635 = CARTESIAN_POINT ( 'NONE',  ( 0.000000000000000000, 0.000000000000000000, 3.000000000000000000 ) ) ;
#636 = DIRECTION ( 'NONE',  ( -0.000000000000000000, -0.000000000000000000, -1.000000000000000000 ) ) ;
#637 = LINE ( 'NONE', #212, #541 ) ;
#638 = ADVANCED_FACE ( 'NONE', ( #224 ), #523, .F. ) ;
#639 = FACE_OUTER_BOUND ( 'NONE', #37, .T. ) ;
#640 = CARTESIAN_POINT ( 'NONE',  ( 9.978050001333597763, 2.843629867620153816E-15, 3.000000000000000000 ) ) ;
#641 = DIRECTION ( 'NONE',  ( -0.000000000000000000, -0.000000000000000000, -1.000000000000000000 ) ) ;
#642 = VECTOR ( 'NONE', #51, 1000.000000000000000 ) ;
#643 = LINE ( 'NONE', #147, #702 ) ;
#644 = PLANE ( 'NONE',  #254 ) ;
#645 = EDGE_CURVE ( 'NONE', #613, #466, #100, .T. ) ;
#646 = CARTESIAN_POINT ( 'NONE',  ( -11.60999999999999766, 0.000000000000000000, 3.000000000000000000 ) ) ;
#647 = DIRECTION ( 'NONE',  ( -0.000000000000000000, 0.000000000000000000, 1.000000000000000000 ) ) ;
#648 = STYLED_ITEM ( 'NONE', ( #242 ), #712 ) ;
#649 = ADVANCED_FACE ( 'NONE', ( #99 ), #784, .T. ) ;
#650 = ORIENTED_EDGE ( 'NONE', *, *, #414, .F. ) ;
#651 = CARTESIAN_POINT ( 'NONE',  ( 0.000000000000000000, 0.000000000000000000, 3.000000000000000000 ) ) ;
#652 = CARTESIAN_POINT ( 'NONE',  ( -19.98902270734956232, -3.524032492783271575, 2.724731102104198666 ) ) ;
#653 = ORIENTED_EDGE ( 'NONE', *, *, #22, .F. ) ;
#654 = PRODUCT_DEFINITION_SHAPE ( 'NONE', 'NONE',  #672 ) ;
#655 = ORIENTED_EDGE ( 'NONE', *, *, #94, .F. ) ;
#656 = DIRECTION ( 'NONE',  ( -0.000000000000000000, 0.000000000000000000, 1.000000000000000000 ) ) ;
#657 = DIRECTION ( 'NONE',  ( -0.000000000000000000, -0.000000000000000000, -1.000000000000000000 ) ) ;
#658 = VERTEX_POINT ( 'NONE', #605 ) ;
#659 = CIRCLE ( 'NONE', #144, 16.55999999999999872 ) ;
#660 = ORIENTED_EDGE ( 'NONE', *, *, #781, .F. ) ;
#661 = DIRECTION ( 'NONE',  ( -0.000000000000000000, 0.000000000000000000, 1.000000000000000000 ) ) ;
#662 = EDGE_CURVE ( 'NONE', #746, #543, #697, .T. ) ;
#663 = SURFACE_STYLE_USAGE ( .BOTH. , #177 ) ;
#664 = EDGE_LOOP ( 'NONE', ( #531, #240, #682, #449, #422, #773 ) ) ;
#665 = EDGE_LOOP ( 'NONE', ( #169, #719 ) ) ;
#666 = FACE_OUTER_BOUND ( 'NONE', #112, .T. ) ;
#667 = EDGE_LOOP ( 'NONE', ( #40, #617, #619, #370, #660, #93 ) ) ;
#668 = CARTESIAN_POINT ( 'NONE',  ( 0.000000000000000000, 0.000000000000000000, 0.000000000000000000 ) ) ;
#669 = CARTESIAN_POINT ( 'NONE',  ( 13.45775241264305322, -9.650000000000002132, 1.600000000000000089 ) ) ;
#670 = VERTEX_POINT ( 'NONE', #551 ) ;
#671 = PRODUCT_DEFINITION_FORMATION_WITH_SPECIFIED_SOURCE ( 'Symmetric', '', #223, .NOT_KNOWN. ) ;
#672 = PRODUCT_DEFINITION ( 'General', '', #671, #86 ) ;
#673 = EDGE_CURVE ( 'NONE', #59, #71, #384, .T. ) ;
#674 = EDGE_LOOP ( 'NONE', ( #787, #734, #686, #176 ) ) ;
#675 = FACE_OUTER_BOUND ( 'NONE', #98, .T. ) ;
#676 = CARTESIAN_POINT ( 'NONE',  ( -7.774999999999998579, 0.000000000000000000, 3.000000000000000000 ) ) ;
#677 =( BOUNDED_CURVE ( )  B_SPLINE_CURVE ( 3, ( #226, #652, #301, #718 ),
 .UNSPECIFIED., .F., .F. ) 
 B_SPLINE_CURVE_WITH_KNOTS ( ( 4, 4 ),
 ( 4.712388980384689674, 4.974188368183839692 ),
 .UNSPECIFIED. ) 
 CURVE ( )  GEOMETRIC_REPRESENTATION_ITEM ( )  RATIONAL_B_SPLINE_CURVE ( ( 1.000000000000000000, 0.9942965742492069214, 0.9942965742492069214, 1.000000000000000000 ) ) 
 REPRESENTATION_ITEM ( '' )  );
#678 = EDGE_LOOP ( 'NONE', ( #716, #134, #387 ) ) ;
#679 = VECTOR ( 'NONE', #805, 1000.000000000000114 ) ;
#680 = CIRCLE ( 'NONE', #745, 20.21999999999999886 ) ;
#681 = VERTEX_POINT ( 'NONE', #351 ) ;
#682 = ORIENTED_EDGE ( 'NONE', *, *, #148, .F. ) ;
#683 = LINE ( 'NONE', #199, #573 ) ;
#684 = EDGE_CURVE ( 'NONE', #245, #670, #623, .T. ) ;
#685 = DIRECTION ( 'NONE',  ( 0.9659258262890680902, 0.2588190451025214611, 0.000000000000000000 ) ) ;
#686 = ORIENTED_EDGE ( 'NONE', *, *, #749, .F. ) ;
#687 = CARTESIAN_POINT ( 'NONE',  ( -15.99573168334696760, -4.286043386897756768, 3.000000000000000000 ) ) ;
#688 = DIRECTION ( 'NONE',  ( 1.000000000000000000, 9.762817048420159591E-17, 0.000000000000000000 ) ) ;
#689 = EDGE_CURVE ( 'NONE', #746, #535, #290, .T. ) ;
#690 = ORIENTED_EDGE ( 'NONE', *, *, #256, .T. ) ;
#691 = DIRECTION ( 'NONE',  ( -0.000000000000000000, -0.000000000000000000, -1.000000000000000000 ) ) ;
#692 = CARTESIAN_POINT ( 'NONE',  ( -13.24194999866639932, 0.000000000000000000, 3.000000000000000000 ) ) ;
#693 = DIRECTION ( 'NONE',  ( -0.000000000000000000, 0.000000000000000000, 1.000000000000000000 ) ) ;
#694 = DIRECTION ( 'NONE',  ( -0.000000000000000000, 0.000000000000000000, 1.000000000000000000 ) ) ;
#695 = EDGE_CURVE ( 'NONE', #52, #354, #803, .T. ) ;
#696 = DIRECTION ( 'NONE',  ( -0.000000000000000000, -0.000000000000000000, -1.000000000000000000 ) ) ;
#697 = CIRCLE ( 'NONE', #67, 16.55999999999999872 ) ;
#698 = CYLINDRICAL_SURFACE ( 'NONE', #106, 1.631949998666401891 ) ;
#699 = CARTESIAN_POINT ( 'NONE',  ( 0.000000000000000000, 0.000000000000000000, 3.000000000000000000 ) ) ;
#700 = CIRCLE ( 'NONE', #4, 3.131949998666408330 ) ;
#701 = CARTESIAN_POINT ( 'NONE',  ( -16.55999999999999872, 0.000000000000000000, 2.333282139815938905 ) ) ;
#702 = VECTOR ( 'NONE', #27, 1000.000000000000000 ) ;
#703 = LINE ( 'NONE', #456, #42 ) ;
#704 = EDGE_CURVE ( 'NONE', #441, #412, #347, .T. ) ;
#705 = DIRECTION ( 'NONE',  ( 1.000000000000000000, 0.000000000000000000, 0.000000000000000000 ) ) ;
#706 = VECTOR ( 'NONE', #263, 1000.000000000000000 ) ;
#707 = CIRCLE ( 'NONE', #77, 1.631949998666401891 ) ;
#708 = CARTESIAN_POINT ( 'NONE',  ( -20.21999999999999531, 1.346802695182008902, 1.983563818063239337 ) ) ;
#709 = CARTESIAN_POINT ( 'NONE',  ( -11.60999999999999766, 0.000000000000000000, 0.000000000000000000 ) ) ;
#710 = EDGE_CURVE ( 'NONE', #798, #246, #283, .T. ) ;
#711 = VECTOR ( 'NONE', #318, 1000.000000000000000 ) ;
#712 = ADVANCED_BREP_SHAPE_REPRESENTATION ( 'middel part', ( #325, #284 ), #307 ) ;
#713 = DIRECTION ( 'NONE',  ( -1.000000000000000000, 0.000000000000000000, 0.000000000000000000 ) ) ;
#714 = CARTESIAN_POINT ( 'NONE',  ( -9.421118451725454770E-16, -9.650000000000000355, 1.600000000000000089 ) ) ;
#715 = ORIENTED_EDGE ( 'NONE', *, *, #684, .F. ) ;
#716 = ORIENTED_EDGE ( 'NONE', *, *, #615, .F. ) ;
#717 = CARTESIAN_POINT ( 'NONE',  ( 11.61000000000000121, 2.843629867620153816E-15, 3.000000000000000000 ) ) ;
#718 = CARTESIAN_POINT ( 'NONE',  ( -20.21999999999999886, 0.000000000000000000, 2.185927830137563976 ) ) ;
#719 = ORIENTED_EDGE ( 'NONE', *, *, #281, .F. ) ;
#720 = ADVANCED_FACE ( 'NONE', ( #43 ), #91, .F. ) ;
#721 = CARTESIAN_POINT ( 'NONE',  ( 11.61000000000000121, 2.843629867620153816E-15, 2.000000000000013767 ) ) ;
#722 = CARTESIAN_POINT ( 'NONE',  ( 17.76867749721402134, 9.650000000000002132, 0.000000000000000000 ) ) ;
#723 = VERTEX_POINT ( 'NONE', #162 ) ;
#724 = VECTOR ( 'NONE', #546, 1000.000000000000000 ) ;
#725 = ORIENTED_EDGE ( 'NONE', *, *, #792, .T. ) ;
#726 = DIRECTION ( 'NONE',  ( -0.000000000000000000, -0.000000000000000000, -1.000000000000000000 ) ) ;
#727 = DIRECTION ( 'NONE',  ( 1.000000000000000000, -9.762817048420159591E-17, 0.000000000000000000 ) ) ;
#728 =( BOUNDED_CURVE ( )  B_SPLINE_CURVE ( 3, ( #396, #520, #266, #332 ),
 .UNSPECIFIED., .F., .F. ) 
 B_SPLINE_CURVE_WITH_KNOTS ( ( 4, 4 ),
 ( 0.9962211171047506975, 1.308996938995746318 ),
 .UNSPECIFIED. ) 
 CURVE ( )  GEOMETRIC_REPRESENTATION_ITEM ( )  RATIONAL_B_SPLINE_CURVE ( ( 1.000000000000000000, 0.9918642089412585960, 0.9918642089412585960, 1.000000000000000000 ) ) 
 REPRESENTATION_ITEM ( '' )  );
#729 = ORIENTED_EDGE ( 'NONE', *, *, #293, .T. ) ;
#730 = VECTOR ( 'NONE', #685, 1000.000000000000227 ) ;
#731 = ORIENTED_EDGE ( 'NONE', *, *, #34, .T. ) ;
#732 = SURFACE_STYLE_FILL_AREA ( #775 ) ;
#733 = EDGE_CURVE ( 'NONE', #294, #752, #33, .T. ) ;
#734 = ORIENTED_EDGE ( 'NONE', *, *, #26, .T. ) ;
#735 = ORIENTED_EDGE ( 'NONE', *, *, #196, .T. ) ;
#736 = VECTOR ( 'NONE', #111, 1000.000000000000114 ) ;
#737 = CARTESIAN_POINT ( 'NONE',  ( 9.978050001333597763, 2.843629867620153816E-15, 2.000000000000013767 ) ) ;
#738 = CARTESIAN_POINT ( 'NONE',  ( 13.24194999866640288, 3.043486101843687439E-15, 3.000000000000000000 ) ) ;
#739 = ADVANCED_FACE ( 'NONE', ( #666 ), #438, .F. ) ;
#740 = EDGE_LOOP ( 'NONE', ( #164, #45 ) ) ;
#741 = DIRECTION ( 'NONE',  ( -0.000000000000000000, 0.000000000000000000, 1.000000000000000000 ) ) ;
#742 = ORIENTED_EDGE ( 'NONE', *, *, #631, .T. ) ;
#743 = FILL_AREA_STYLE_COLOUR ( '', #92 ) ;
#744 = DIRECTION ( 'NONE',  ( -0.000000000000000000, -0.000000000000000000, -1.000000000000000000 ) ) ;
#745 = AXIS2_PLACEMENT_3D ( 'NONE', #611, #57, #306 ) ;
#746 = VERTEX_POINT ( 'NONE', #159 ) ;
#747 = ORIENTED_EDGE ( 'NONE', *, *, #710, .T. ) ;
#748 = DIRECTION ( 'NONE',  ( -0.000000000000000000, -0.000000000000000000, -1.000000000000000000 ) ) ;
#749 = EDGE_CURVE ( 'NONE', #418, #723, #517, .T. ) ;
#750 = DIRECTION ( 'NONE',  ( -0.000000000000000000, 0.000000000000000000, 1.000000000000000000 ) ) ;
#751 = CIRCLE ( 'NONE', #261, 7.774999999999998579 ) ;
#752 = VERTEX_POINT ( 'NONE', #95 ) ;
#753 = DIRECTION ( 'NONE',  ( -0.000000000000000000, -0.000000000000000000, -1.000000000000000000 ) ) ;
#754 = DIRECTION ( 'NONE',  ( -0.000000000000000000, 0.000000000000000000, 1.000000000000000000 ) ) ;
#755 = PRESENTATION_LAYER_ASSIGNMENT (  '', '', ( #648 ) ) ;
#756 = DIRECTION ( 'NONE',  ( -0.000000000000000000, 0.000000000000000000, 1.000000000000000000 ) ) ;
#757 = PLANE ( 'NONE',  #39 ) ;
#758 = ADVANCED_FACE ( 'NONE', ( #407 ), #540, .F. ) ;
#759 = CYLINDRICAL_SURFACE ( 'NONE', #150, 7.774999999999998579 ) ;
#760 = DIRECTION ( 'NONE',  ( -1.000000000000000000, 0.000000000000000000, 0.000000000000000000 ) ) ;
#761 = DIRECTION ( 'NONE',  ( -0.000000000000000000, -0.000000000000000000, -1.000000000000000000 ) ) ;
#762 = AXIS2_PLACEMENT_3D ( 'NONE', #577, #693, #142 ) ;
#763 = DIRECTION ( 'NONE',  ( -0.000000000000000000, -0.000000000000000000, -1.000000000000000000 ) ) ;
#764 = ADVANCED_FACE ( 'NONE', ( #280 ), #774, .T. ) ;
#765 = CARTESIAN_POINT ( 'NONE',  ( -19.53102020756496060, -5.233321091972986672, 3.000000000000000000 ) ) ;
#766 = UNCERTAINTY_MEASURE_WITH_UNIT (LENGTH_MEASURE( 1.000000000000000082E-05 ), #96, 'distance_accuracy_value', 'NONE');
#767 = CIRCLE ( 'NONE', #399, 3.131949998666408330 ) ;
#768 = DIRECTION ( 'NONE',  ( 1.000000000000000000, 0.000000000000000000, 0.000000000000000000 ) ) ;
#769 = FACE_BOUND ( 'NONE', #346, .T. ) ;
#770 = EDGE_CURVE ( 'NONE', #354, #232, #63, .T. ) ;
#771 = CARTESIAN_POINT ( 'NONE',  ( -15.99573168334696760, -4.286043386897756768, 3.000000000000000000 ) ) ;
#772 = VECTOR ( 'NONE', #258, 1000.000000000000000 ) ;
#773 = ORIENTED_EDGE ( 'NONE', *, *, #710, .F. ) ;
#774 = CYLINDRICAL_SURFACE ( 'NONE', #554, 16.55999999999999872 ) ;
#775 = FILL_AREA_STYLE ('',( #421 ) ) ;
#776 = ORIENTED_EDGE ( 'NONE', *, *, #645, .T. ) ;
#777 = DIRECTION ( 'NONE',  ( -0.000000000000000000, -0.000000000000000000, -1.000000000000000000 ) ) ;
#778 = CARTESIAN_POINT ( 'NONE',  ( -20.21999999999999886, 0.000000000000000000, 0.000000000000000000 ) ) ;
#779 = AXIS2_PLACEMENT_3D ( 'NONE', #411, #656, #361 ) ;
#780 = EDGE_LOOP ( 'NONE', ( #323, #192, #786, #236 ) ) ;
#781 = EDGE_CURVE ( 'NONE', #746, #493, #316, .T. ) ;
#782 = VERTEX_POINT ( 'NONE', #687 ) ;
#783 = VECTOR ( 'NONE', #688, 1000.000000000000000 ) ;
#784 = CYLINDRICAL_SURFACE ( 'NONE', #248, 20.21999999999999886 ) ;
#785 = CARTESIAN_POINT ( 'NONE',  ( 11.61000000000000121, 2.843629867620153816E-15, 3.000000000000000000 ) ) ;
#786 = ORIENTED_EDGE ( 'NONE', *, *, #486, .F. ) ;
#787 = ORIENTED_EDGE ( 'NONE', *, *, #733, .T. ) ;
#788 = CARTESIAN_POINT ( 'NONE',  ( 0.000000000000000000, 0.000000000000000000, 3.000000000000000000 ) ) ;
#789 = DIRECTION ( 'NONE',  ( 1.000000000000000000, 0.000000000000000000, 0.000000000000000000 ) ) ;
#790 = ORIENTED_EDGE ( 'NONE', *, *, #75, .T. ) ;
#791 = EDGE_LOOP ( 'NONE', ( #255, #137, #285, #566 ) ) ;
#792 = EDGE_CURVE ( 'NONE', #294, #412, #562, .T. ) ;
#793 = FACE_OUTER_BOUND ( 'NONE', #791, .T. ) ;
#794 = ORIENTED_EDGE ( 'NONE', *, *, #571, .T. ) ;
#795 = ORIENTED_EDGE ( 'NONE', *, *, #689, .F. ) ;
#796 = EDGE_CURVE ( 'NONE', #466, #627, #495, .T. ) ;
#797 = FACE_OUTER_BOUND ( 'NONE', #664, .T. ) ;
#798 = VERTEX_POINT ( 'NONE', #304 ) ;
#799 = ORIENTED_EDGE ( 'NONE', *, *, #442, .T. ) ;
#800 = CARTESIAN_POINT ( 'NONE',  ( 17.76867749721402134, -9.650000000000002132, 1.600000000000000089 ) ) ;
#801 = DIRECTION ( 'NONE',  ( 1.000000000000000000, 9.762817048420159591E-17, 0.000000000000000000 ) ) ;
#802 = CARTESIAN_POINT ( 'NONE',  ( -9.421118451725454770E-16, -9.650000000000000355, 3.000000000000000000 ) ) ;
#803 = CIRCLE ( 'NONE', #24, 16.55999999999999872 ) ;
#804 = ORIENTED_EDGE ( 'NONE', *, *, #781, .T. ) ;
#805 = DIRECTION ( 'NONE',  ( -0.5999999999999990896, 0.000000000000000000, -0.8000000000000005995 ) ) ;
#806 = DIRECTION ( 'NONE',  ( -1.000000000000000000, 0.000000000000000000, 0.000000000000000000 ) ) ;
ENDSEC;
END-ISO-10303-21;
