ISO-10303-21;
HEADER;
FILE_DESCRIPTION (( 'STEP AP214' ),
    '1' );
FILE_NAME ('Mpu5 antenna.STEP',
    '2026-08-21T18:09:49',
    ( '' ),
    ( '' ),
    'SwSTEP 2.0',
    'SolidWorks 2025',
    '' );
FILE_SCHEMA (( 'AUTOMOTIVE_DESIGN' ));
ENDSEC;

DATA;
#1 = ADVANCED_FACE ( 'NONE', ( #19 ), #173, .T. ) ;
#2 = CARTESIAN_POINT ( 'NONE',  ( 106.5000000000000000, 0.000000000000000000, 0.000000000000000000 ) ) ;
#3 = CIRCLE ( 'NONE', #57, 4.500000000000000000 ) ;
#4 = ORIENTED_EDGE ( 'NONE', *, *, #343, .T. ) ;
#5 = AXIS2_PLACEMENT_3D ( 'NONE', #288, #146, #122 ) ;
#6 = VERTEX_POINT ( 'NONE', #285 ) ;
#7 = SURFACE_SIDE_STYLE ('',( #129 ) ) ;
#8 = PRODUCT_DEFINITION_FORMATION_WITH_SPECIFIED_SOURCE ( 'Symmetric', '', #262, .NOT_KNOWN. ) ;
#9 = ORIENTED_EDGE ( 'NONE', *, *, #142, .F. ) ;
#10 = ORIENTED_EDGE ( 'NONE', *, *, #147, .F. ) ;
#11 = CIRCLE ( 'NONE', #47, 1.499999999999999556 ) ;
#12 = PRODUCT_RELATED_PRODUCT_CATEGORY ( 'part', '', ( #262 ) ) ;
#13 = VECTOR ( 'NONE', #265, 1000.000000000000000 ) ;
#14 = ORIENTED_EDGE ( 'NONE', *, *, #52, .T. ) ;
#15 = AXIS2_PLACEMENT_3D ( 'NONE', #53, #325, #55 ) ;
#16 = VERTEX_POINT ( 'NONE', #59 ) ;
#17 = EDGE_CURVE ( 'NONE', #6, #193, #3, .T. ) ;
#18 = DIRECTION ( 'NONE',  ( -1.000000000000000000, -0.000000000000000000, -0.000000000000000000 ) ) ;
#19 = FACE_OUTER_BOUND ( 'NONE', #56, .T. ) ;
#20 = CONICAL_SURFACE ( 'NONE', #323, 4.500000000000000000, 0.7853981633974427279 ) ;
#21 = CYLINDRICAL_SURFACE ( 'NONE', #364, 7.499999999999999112 ) ;
#22 = ORIENTED_EDGE ( 'NONE', *, *, #107, .T. ) ;
#23 = CIRCLE ( 'NONE', #5, 6.000000000000000888 ) ;
#24 = FILL_AREA_STYLE ('',( #353 ) ) ;
#25 = MECHANICAL_DESIGN_GEOMETRIC_PRESENTATION_REPRESENTATION (  '', ( #96 ), #81 ) ;
#26 = AXIS2_PLACEMENT_3D ( 'NONE', #33, #100, #300 ) ;
#27 = DIRECTION ( 'NONE',  ( 0.000000000000000000, 0.000000000000000000, 1.000000000000000000 ) ) ;
#28 = DIRECTION ( 'NONE',  ( 0.000000000000000000, 0.000000000000000000, -1.000000000000000000 ) ) ;
#29 =( GEOMETRIC_REPRESENTATION_CONTEXT ( 3 ) GLOBAL_UNCERTAINTY_ASSIGNED_CONTEXT ( ( #226 ) ) GLOBAL_UNIT_ASSIGNED_CONTEXT ( ( #194, #360, #392 ) ) REPRESENTATION_CONTEXT ( 'NONE', 'WORKASPACE' ) );
#30 = DIRECTION ( 'NONE',  ( -1.000000000000000000, -0.000000000000000000, -0.000000000000000000 ) ) ;
#31 = CARTESIAN_POINT ( 'NONE',  ( 105.0000000000000000, 0.000000000000000000, 4.500000000000000000 ) ) ;
#32 = PRODUCT_CONTEXT ( 'NONE', #50, 'mechanical' ) ;
#33 = CARTESIAN_POINT ( 'NONE',  ( 105.0000000000000000, 0.000000000000000000, 0.000000000000000000 ) ) ;
#34 = ADVANCED_FACE ( 'NONE', ( #94 ), #20, .T. ) ;
#35 = DIRECTION ( 'NONE',  ( 0.000000000000000000, 0.000000000000000000, -1.000000000000000000 ) ) ;
#36 = DIRECTION ( 'NONE',  ( 0.000000000000000000, 0.000000000000000000, -1.000000000000000000 ) ) ;
#37 = ORIENTED_EDGE ( 'NONE', *, *, #189, .F. ) ;
#38 = CARTESIAN_POINT ( 'NONE',  ( 0.000000000000000000, 0.000000000000000000, 0.000000000000000000 ) ) ;
#39 = CARTESIAN_POINT ( 'NONE',  ( 46.00000000000004263, 9.184850993605145972E-16, -7.499999999999999112 ) ) ;
#40 = AXIS2_PLACEMENT_3D ( 'NONE', #63, #120, #145 ) ;
#41 = VERTEX_POINT ( 'NONE', #210 ) ;
#42 = ADVANCED_BREP_SHAPE_REPRESENTATION ( 'Mpu5 antenna', ( #278, #215 ), #109 ) ;
#43 = ORIENTED_EDGE ( 'NONE', *, *, #199, .F. ) ;
#44 = CIRCLE ( 'NONE', #368, 6.000000000000000888 ) ;
#45 = COLOUR_RGB ( '',0.1921568627450980227, 0.2039215686274509776, 0.2039215686274509776 ) ;
#46 = EDGE_LOOP ( 'NONE', ( #274, #113, #351, #312 ) ) ;
#47 = AXIS2_PLACEMENT_3D ( 'NONE', #186, #305, #66 ) ;
#48 = EDGE_CURVE ( 'NONE', #111, #16, #181, .T. ) ;
#49 = ORIENTED_EDGE ( 'NONE', *, *, #373, .F. ) ;
#50 = APPLICATION_CONTEXT ( 'automotive_design' ) ;
#51 = DIRECTION ( 'NONE',  ( -0.7071067811865514585, 0.000000000000000000, 0.7071067811865435759 ) ) ;
#52 = EDGE_CURVE ( 'NONE', #6, #111, #382, .T. ) ;
#53 = CARTESIAN_POINT ( 'NONE',  ( 0.000000000000000000, 0.000000000000000000, 0.000000000000000000 ) ) ;
#54 = EDGE_LOOP ( 'NONE', ( #249, #316 ) ) ;
#55 = DIRECTION ( 'NONE',  ( 0.000000000000000000, 0.000000000000000000, -1.000000000000000000 ) ) ;
#56 = EDGE_LOOP ( 'NONE', ( #158, #4, #287, #339 ) ) ;
#57 = AXIS2_PLACEMENT_3D ( 'NONE', #85, #259, #261 ) ;
#58 = DIRECTION ( 'NONE',  ( 0.000000000000000000, 0.000000000000000000, 1.000000000000000000 ) ) ;
#59 = CARTESIAN_POINT ( 'NONE',  ( 0.000000000000000000, 0.000000000000000000, 7.499999999999999112 ) ) ;
#60 =( NAMED_UNIT ( * ) PLANE_ANGLE_UNIT ( ) SI_UNIT ( $, .RADIAN. ) );
#61 = CONICAL_SURFACE ( 'NONE', #256, 4.500000000000000000, 0.7853981633974427279 ) ;
#62 = VECTOR ( 'NONE', #30, 1000.000000000000000 ) ;
#63 = CARTESIAN_POINT ( 'NONE',  ( 180.0000000000000000, 0.000000000000000000, 0.000000000000000000 ) ) ;
#64 =( LENGTH_UNIT ( ) NAMED_UNIT ( * ) SI_UNIT ( .MILLI., .METRE. ) );
#65 = CARTESIAN_POINT ( 'NONE',  ( 105.0000000000000000, 0.000000000000000000, 4.500000000000000000 ) ) ;
#66 = DIRECTION ( 'NONE',  ( 0.000000000000000000, 1.224646799147353454E-16, 1.000000000000000000 ) ) ;
#67 = DIRECTION ( 'NONE',  ( -1.000000000000000000, 0.000000000000000000, 0.000000000000000000 ) ) ;
#68 = AXIS2_PLACEMENT_3D ( 'NONE', #132, #371, #159 ) ;
#69 = ADVANCED_FACE ( 'NONE', ( #390 ), #388, .T. ) ;
#70 = FACE_OUTER_BOUND ( 'NONE', #338, .T. ) ;
#71 = EDGE_LOOP ( 'NONE', ( #324, #43, #281, #246 ) ) ;
#72 = DIRECTION ( 'NONE',  ( 0.000000000000000000, 0.000000000000000000, -1.000000000000000000 ) ) ;
#73 = LINE ( 'NONE', #214, #296 ) ;
#74 = ORIENTED_EDGE ( 'NONE', *, *, #138, .T. ) ;
#75 = SURFACE_STYLE_USAGE ( .BOTH. , #7 ) ;
#76 = EDGE_LOOP ( 'NONE', ( #9, #236, #14, #37 ) ) ;
#77 = CARTESIAN_POINT ( 'NONE',  ( 178.5000000000000000, 0.000000000000000000, 0.000000000000000000 ) ) ;
#78 = ORIENTED_EDGE ( 'NONE', *, *, #206, .F. ) ;
#79 = ADVANCED_FACE ( 'NONE', ( #238 ), #308, .T. ) ;
#80 = AXIS2_PLACEMENT_3D ( 'NONE', #77, #190, #35 ) ;
#81 =( GEOMETRIC_REPRESENTATION_CONTEXT ( 3 ) GLOBAL_UNCERTAINTY_ASSIGNED_CONTEXT ( ( #167 ) ) GLOBAL_UNIT_ASSIGNED_CONTEXT ( ( #64, #60, #209 ) ) REPRESENTATION_CONTEXT ( 'NONE', 'WORKASPACE' ) );
#82 = CIRCLE ( 'NONE', #229, 1.499999999999999556 ) ;
#83 = ORIENTED_EDGE ( 'NONE', *, *, #293, .F. ) ;
#84 = PRESENTATION_LAYER_ASSIGNMENT (  '', '', ( #347 ) ) ;
#85 = CARTESIAN_POINT ( 'NONE',  ( 49.00000000000007105, 0.000000000000000000, 0.000000000000000000 ) ) ;
#86 = DIRECTION ( 'NONE',  ( 0.000000000000000000, 0.000000000000000000, -1.000000000000000000 ) ) ;
#87 = VERTEX_POINT ( 'NONE', #143 ) ;
#88 = FACE_OUTER_BOUND ( 'NONE', #140, .T. ) ;
#89 = DIRECTION ( 'NONE',  ( 0.000000000000000000, 0.000000000000000000, -1.000000000000000000 ) ) ;
#90 = SURFACE_SIDE_STYLE ('',( #357 ) ) ;
#91 = ORIENTED_EDGE ( 'NONE', *, *, #276, .F. ) ;
#92 = AXIS2_PLACEMENT_3D ( 'NONE', #317, #123, #148 ) ;
#93 = DIRECTION ( 'NONE',  ( -1.000000000000000000, -0.000000000000000000, -0.000000000000000000 ) ) ;
#94 = FACE_OUTER_BOUND ( 'NONE', #76, .T. ) ;
#95 = DIRECTION ( 'NONE',  ( -1.000000000000000000, 0.000000000000000000, 0.000000000000000000 ) ) ;
#96 = STYLED_ITEM ( 'NONE', ( #152 ), #278 ) ;
#97 = DIRECTION ( 'NONE',  ( 0.000000000000000000, 0.000000000000000000, 1.000000000000000000 ) ) ;
#98 = CARTESIAN_POINT ( 'NONE',  ( 0.000000000000000000, 0.000000000000000000, 0.000000000000000000 ) ) ;
#99 = EDGE_CURVE ( 'NONE', #104, #284, #376, .T. ) ;
#100 = DIRECTION ( 'NONE',  ( 1.000000000000000000, 0.000000000000000000, 0.000000000000000000 ) ) ;
#101 = SHAPE_DEFINITION_REPRESENTATION ( #313, #42 ) ;
#102 = DIRECTION ( 'NONE',  ( -1.000000000000000000, -0.000000000000000000, -0.000000000000000000 ) ) ;
#103 = VECTOR ( 'NONE', #93, 1000.000000000000000 ) ;
#104 = VERTEX_POINT ( 'NONE', #115 ) ;
#105 = DIRECTION ( 'NONE',  ( 0.000000000000000000, 1.224646799147353454E-16, 1.000000000000000000 ) ) ;
#106 = CIRCLE ( 'NONE', #162, 4.500000000000000888 ) ;
#107 = EDGE_CURVE ( 'NONE', #193, #6, #341, .T. ) ;
#108 = ORIENTED_EDGE ( 'NONE', *, *, #107, .F. ) ;
#109 =( GEOMETRIC_REPRESENTATION_CONTEXT ( 3 ) GLOBAL_UNCERTAINTY_ASSIGNED_CONTEXT ( ( #139 ) ) GLOBAL_UNIT_ASSIGNED_CONTEXT ( ( #310, #275, #269 ) ) REPRESENTATION_CONTEXT ( 'NONE', 'WORKASPACE' ) );
#110 = VERTEX_POINT ( 'NONE', #169 ) ;
#111 = VERTEX_POINT ( 'NONE', #258 ) ;
#112 = ADVANCED_FACE ( 'NONE', ( #116 ), #141, .T. ) ;
#113 = ORIENTED_EDGE ( 'NONE', *, *, #206, .T. ) ;
#114 = AXIS2_PLACEMENT_3D ( 'NONE', #349, #239, #328 ) ;
#115 = CARTESIAN_POINT ( 'NONE',  ( 178.5000000000000000, 7.347880794884120722E-16, -6.000000000000000888 ) ) ;
#116 = FACE_OUTER_BOUND ( 'NONE', #46, .T. ) ;
#117 = CARTESIAN_POINT ( 'NONE',  ( 46.00000000000004263, 0.000000000000000000, 0.000000000000000000 ) ) ;
#118 = DIRECTION ( 'NONE',  ( 1.000000000000000000, 0.000000000000000000, 0.000000000000000000 ) ) ;
#119 = DIRECTION ( 'NONE',  ( 0.000000000000000000, 0.000000000000000000, -1.000000000000000000 ) ) ;
#120 = DIRECTION ( 'NONE',  ( -1.000000000000000000, -0.000000000000000000, -0.000000000000000000 ) ) ;
#121 = EDGE_CURVE ( 'NONE', #110, #284, #254, .T. ) ;
#122 = DIRECTION ( 'NONE',  ( 0.000000000000000000, 0.000000000000000000, -1.000000000000000000 ) ) ;
#123 = DIRECTION ( 'NONE',  ( -1.000000000000000000, -0.000000000000000000, -0.000000000000000000 ) ) ;
#124 = LINE ( 'NONE', #175, #344 ) ;
#125 = DIRECTION ( 'NONE',  ( -1.000000000000000000, -0.000000000000000000, -0.000000000000000000 ) ) ;
#126 = ADVANCED_FACE ( 'NONE', ( #393 ), #220, .T. ) ;
#127 = CARTESIAN_POINT ( 'NONE',  ( 180.0000000000000000, 0.000000000000000000, 0.000000000000000000 ) ) ;
#128 = DIRECTION ( 'NONE',  ( 0.000000000000000000, 0.000000000000000000, 1.000000000000000000 ) ) ;
#129 = SURFACE_STYLE_FILL_AREA ( #280 ) ;
#130 = DIRECTION ( 'NONE',  ( -1.000000000000000000, -0.000000000000000000, -0.000000000000000000 ) ) ;
#131 = ORIENTED_EDGE ( 'NONE', *, *, #340, .F. ) ;
#132 = CARTESIAN_POINT ( 'NONE',  ( 106.5000000000000000, 0.000000000000000000, -4.500000000000000888 ) ) ;
#133 = AXIS2_PLACEMENT_3D ( 'NONE', #297, #237, #28 ) ;
#134 = AXIS2_PLACEMENT_3D ( 'NONE', #332, #102, #361 ) ;
#135 = ORIENTED_EDGE ( 'NONE', *, *, #121, .F. ) ;
#136 = PRESENTATION_STYLE_ASSIGNMENT (( #75 ) ) ;
#137 = ORIENTED_EDGE ( 'NONE', *, *, #218, .T. ) ;
#138 = EDGE_CURVE ( 'NONE', #203, #41, #44, .T. ) ;
#139 = UNCERTAINTY_MEASURE_WITH_UNIT (LENGTH_MEASURE( 1.000000000000000082E-05 ), #310, 'distance_accuracy_value', 'NONE');
#140 = EDGE_LOOP ( 'NONE', ( #309, #255, #10, #282 ) ) ;
#141 = TOROIDAL_SURFACE ( 'NONE', #273, 4.500000000000000888, 1.500000000000000000 ) ;
#142 = EDGE_CURVE ( 'NONE', #193, #160, #270, .T. ) ;
#143 = CARTESIAN_POINT ( 'NONE',  ( 0.000000000000000000, 9.184850993605145972E-16, -7.499999999999999112 ) ) ;
#144 = CARTESIAN_POINT ( 'NONE',  ( 49.00000000000007105, 0.000000000000000000, 0.000000000000000000 ) ) ;
#145 = DIRECTION ( 'NONE',  ( 0.000000000000000000, 0.000000000000000000, 1.000000000000000000 ) ) ;
#146 = DIRECTION ( 'NONE',  ( 1.000000000000000000, 0.000000000000000000, 0.000000000000000000 ) ) ;
#147 = EDGE_CURVE ( 'NONE', #284, #110, #106, .T. ) ;
#148 = DIRECTION ( 'NONE',  ( 0.000000000000000000, 0.000000000000000000, 1.000000000000000000 ) ) ;
#149 = CIRCLE ( 'NONE', #379, 7.499999999999999112 ) ;
#150 = DIRECTION ( 'NONE',  ( 1.000000000000000000, 0.000000000000000000, 0.000000000000000000 ) ) ;
#151 = ORIENTED_EDGE ( 'NONE', *, *, #52, .F. ) ;
#152 = PRESENTATION_STYLE_ASSIGNMENT (( #266 ) ) ;
#153 = DIRECTION ( 'NONE',  ( -0.7071067811865514585, 8.659560562354884787E-17, -0.7071067811865435759 ) ) ;
#154 = DIRECTION ( 'NONE',  ( 0.000000000000000000, 0.000000000000000000, 1.000000000000000000 ) ) ;
#155 = CARTESIAN_POINT ( 'NONE',  ( 0.000000000000000000, 0.000000000000000000, 0.000000000000000000 ) ) ;
#156 = PLANE ( 'NONE',  #345 ) ;
#157 = LINE ( 'NONE', #31, #62 ) ;
#158 = ORIENTED_EDGE ( 'NONE', *, *, #306, .T. ) ;
#159 = DIRECTION ( 'NONE',  ( 0.000000000000000000, 0.000000000000000000, -1.000000000000000000 ) ) ;
#160 = VERTEX_POINT ( 'NONE', #39 ) ;
#161 = CIRCLE ( 'NONE', #213, 7.499999999999999112 ) ;
#162 = AXIS2_PLACEMENT_3D ( 'NONE', #127, #217, #303 ) ;
#163 = EDGE_LOOP ( 'NONE', ( #78, #224, #326, #131 ) ) ;
#164 = ADVANCED_FACE ( 'NONE', ( #358 ), #240, .T. ) ;
#165 = ORIENTED_EDGE ( 'NONE', *, *, #99, .T. ) ;
#166 = APPLICATION_CONTEXT ( 'automotive_design' ) ;
#167 = UNCERTAINTY_MEASURE_WITH_UNIT (LENGTH_MEASURE( 1.000000000000000082E-05 ), #64, 'distance_accuracy_value', 'NONE');
#168 = EDGE_LOOP ( 'NONE', ( #108, #370, #223, #151 ) ) ;
#169 = CARTESIAN_POINT ( 'NONE',  ( 180.0000000000000000, 6.429395695523604153E-16, 4.500000000000000888 ) ) ;
#170 = DIRECTION ( 'NONE',  ( 0.000000000000000000, 0.000000000000000000, -1.000000000000000000 ) ) ;
#171 = EDGE_CURVE ( 'NONE', #337, #193, #333, .T. ) ;
#172 = CARTESIAN_POINT ( 'NONE',  ( 45.00000000000000000, 0.000000000000000000, 0.000000000000000000 ) ) ;
#173 = CYLINDRICAL_SURFACE ( 'NONE', #92, 7.499999999999999112 ) ;
#174 = CLOSED_SHELL ( 'NONE', ( #243, #112, #322, #164, #195, #1, #314, #232, #329, #69, #126, #79, #283, #34 ) ) ;
#175 = CARTESIAN_POINT ( 'NONE',  ( 180.0000000000000000, 0.000000000000000000, 6.000000000000000888 ) ) ;
#176 = DIRECTION ( 'NONE',  ( -1.000000000000000000, 0.000000000000000000, 0.000000000000000000 ) ) ;
#177 = CIRCLE ( 'NONE', #327, 4.500000000000000000 ) ;
#178 = CIRCLE ( 'NONE', #26, 4.500000000000000000 ) ;
#179 = FACE_OUTER_BOUND ( 'NONE', #294, .T. ) ;
#180 = EDGE_CURVE ( 'NONE', #221, #6, #157, .T. ) ;
#181 = LINE ( 'NONE', #290, #13 ) ;
#182 = FACE_OUTER_BOUND ( 'NONE', #334, .T. ) ;
#183 = APPLICATION_PROTOCOL_DEFINITION ( 'draft international standard', 'automotive_design', 1998, #166 ) ;
#184 = CIRCLE ( 'NONE', #342, 7.499999999999999112 ) ;
#185 = CARTESIAN_POINT ( 'NONE',  ( 49.00000000000007105, 5.510910596163088569E-16, -4.500000000000000000 ) ) ;
#186 = CARTESIAN_POINT ( 'NONE',  ( 178.5000000000000000, 5.510910596163089556E-16, 4.500000000000000888 ) ) ;
#187 = CARTESIAN_POINT ( 'NONE',  ( 49.00000000000007105, 5.510910596163088569E-16, -4.500000000000000000 ) ) ;
#188 = ORIENTED_EDGE ( 'NONE', *, *, #374, .F. ) ;
#189 = EDGE_CURVE ( 'NONE', #160, #111, #149, .T. ) ;
#190 = DIRECTION ( 'NONE',  ( -1.000000000000000000, -0.000000000000000000, -0.000000000000000000 ) ) ;
#191 = CARTESIAN_POINT ( 'NONE',  ( 105.0000000000000000, 5.510910596163088569E-16, -4.500000000000000000 ) ) ;
#192 = ORIENTED_EDGE ( 'NONE', *, *, #340, .T. ) ;
#193 = VERTEX_POINT ( 'NONE', #185 ) ;
#194 =( LENGTH_UNIT ( ) NAMED_UNIT ( * ) SI_UNIT ( .MILLI., .METRE. ) );
#195 = ADVANCED_FACE ( 'NONE', ( #70 ), #272, .T. ) ;
#196 = ORIENTED_EDGE ( 'NONE', *, *, #253, .F. ) ;
#197 = AXIS2_PLACEMENT_3D ( 'NONE', #321, #350, #307 ) ;
#198 = AXIS2_PLACEMENT_3D ( 'NONE', #231, #207, #86 ) ;
#199 = EDGE_CURVE ( 'NONE', #221, #337, #178, .T. ) ;
#200 = AXIS2_PLACEMENT_3D ( 'NONE', #267, #130, #128 ) ;
#201 = ORIENTED_EDGE ( 'NONE', *, *, #301, .T. ) ;
#202 = MECHANICAL_DESIGN_GEOMETRIC_PRESENTATION_REPRESENTATION (  '', ( #347 ), #29 ) ;
#203 = VERTEX_POINT ( 'NONE', #336 ) ;
#204 = FACE_OUTER_BOUND ( 'NONE', #71, .T. ) ;
#205 = CARTESIAN_POINT ( 'NONE',  ( 106.5000000000000000, 0.000000000000000000, 0.000000000000000000 ) ) ;
#206 = EDGE_CURVE ( 'NONE', #221, #41, #82, .T. ) ;
#207 = DIRECTION ( 'NONE',  ( 1.000000000000000000, 0.000000000000000000, 0.000000000000000000 ) ) ;
#208 = CARTESIAN_POINT ( 'NONE',  ( 49.00000000000007105, 0.000000000000000000, 4.500000000000000000 ) ) ;
#209 =( NAMED_UNIT ( * ) SI_UNIT ( $, .STERADIAN. ) SOLID_ANGLE_UNIT ( ) );
#210 = CARTESIAN_POINT ( 'NONE',  ( 106.5000000000000000, 0.000000000000000000, 6.000000000000000888 ) ) ;
#211 = VECTOR ( 'NONE', #51, 1000.000000000000000 ) ;
#212 = FACE_OUTER_BOUND ( 'NONE', #163, .T. ) ;
#213 = AXIS2_PLACEMENT_3D ( 'NONE', #117, #389, #58 ) ;
#214 = CARTESIAN_POINT ( 'NONE',  ( 180.0000000000000000, 7.347880794884120722E-16, -6.000000000000000888 ) ) ;
#215 = AXIS2_PLACEMENT_3D ( 'NONE', #98, #241, #335 ) ;
#216 = DIRECTION ( 'NONE',  ( 0.000000000000000000, 0.000000000000000000, -1.000000000000000000 ) ) ;
#217 = DIRECTION ( 'NONE',  ( 1.000000000000000000, 0.000000000000000000, 0.000000000000000000 ) ) ;
#218 = EDGE_CURVE ( 'NONE', #104, #203, #73, .T. ) ;
#219 = ORIENTED_EDGE ( 'NONE', *, *, #352, .F. ) ;
#220 = PLANE ( 'NONE',  #250 ) ;
#221 = VERTEX_POINT ( 'NONE', #65 ) ;
#222 = CARTESIAN_POINT ( 'NONE',  ( 178.5000000000000000, 0.000000000000000000, 6.000000000000000888 ) ) ;
#223 = ORIENTED_EDGE ( 'NONE', *, *, #306, .F. ) ;
#224 = ORIENTED_EDGE ( 'NONE', *, *, #199, .T. ) ;
#225 = AXIS2_PLACEMENT_3D ( 'NONE', #385, #230, #170 ) ;
#226 = UNCERTAINTY_MEASURE_WITH_UNIT (LENGTH_MEASURE( 1.000000000000000082E-05 ), #194, 'distance_accuracy_value', 'NONE');
#227 = CIRCLE ( 'NONE', #15, 7.499999999999999112 ) ;
#228 = ORIENTED_EDGE ( 'NONE', *, *, #48, .T. ) ;
#229 = AXIS2_PLACEMENT_3D ( 'NONE', #248, #365, #105 ) ;
#230 = DIRECTION ( 'NONE',  ( 1.000000000000000000, -0.000000000000000000, -0.000000000000000000 ) ) ;
#231 = CARTESIAN_POINT ( 'NONE',  ( 178.5000000000000000, 0.000000000000000000, 0.000000000000000000 ) ) ;
#232 = ADVANCED_FACE ( 'NONE', ( #182 ), #156, .F. ) ;
#233 = CIRCLE ( 'NONE', #68, 1.499999999999999556 ) ;
#234 = DIRECTION ( 'NONE',  ( 1.000000000000000000, 0.000000000000000000, 0.000000000000000000 ) ) ;
#235 = LINE ( 'NONE', #355, #103 ) ;
#236 = ORIENTED_EDGE ( 'NONE', *, *, #17, .F. ) ;
#237 = DIRECTION ( 'NONE',  ( 1.000000000000000000, 0.000000000000000000, 0.000000000000000000 ) ) ;
#238 = FACE_OUTER_BOUND ( 'NONE', #377, .T. ) ;
#239 = DIRECTION ( 'NONE',  ( -1.000000000000000000, -0.000000000000000000, -0.000000000000000000 ) ) ;
#240 = CYLINDRICAL_SURFACE ( 'NONE', #134, 6.000000000000000888 ) ;
#241 = DIRECTION ( 'NONE',  ( 0.000000000000000000, 0.000000000000000000, 1.000000000000000000 ) ) ;
#242 = DIRECTION ( 'NONE',  ( 1.000000000000000000, 0.000000000000000000, 0.000000000000000000 ) ) ;
#243 = ADVANCED_FACE ( 'NONE', ( #302 ), #61, .T. ) ;
#244 = CARTESIAN_POINT ( 'NONE',  ( 46.00000000000004263, 0.000000000000000000, 0.000000000000000000 ) ) ;
#245 = AXIS2_PLACEMENT_3D ( 'NONE', #257, #354, #380 ) ;
#246 = ORIENTED_EDGE ( 'NONE', *, *, #17, .T. ) ;
#247 = CIRCLE ( 'NONE', #80, 6.000000000000000888 ) ;
#248 = CARTESIAN_POINT ( 'NONE',  ( 106.5000000000000000, 5.510910596163089556E-16, 4.500000000000000888 ) ) ;
#249 = ORIENTED_EDGE ( 'NONE', *, *, #147, .T. ) ;
#250 = AXIS2_PLACEMENT_3D ( 'NONE', #362, #242, #394 ) ;
#251 = ORIENTED_EDGE ( 'NONE', *, *, #189, .T. ) ;
#252 = ORIENTED_EDGE ( 'NONE', *, *, #343, .F. ) ;
#253 = EDGE_CURVE ( 'NONE', #87, #16, #227, .T. ) ;
#254 = CIRCLE ( 'NONE', #197, 4.500000000000000888 ) ;
#255 = ORIENTED_EDGE ( 'NONE', *, *, #374, .T. ) ;
#256 = AXIS2_PLACEMENT_3D ( 'NONE', #318, #95, #387 ) ;
#257 = CARTESIAN_POINT ( 'NONE',  ( 178.5000000000000000, 0.000000000000000000, -4.500000000000000888 ) ) ;
#258 = CARTESIAN_POINT ( 'NONE',  ( 46.00000000000004263, 0.000000000000000000, 7.499999999999999112 ) ) ;
#259 = DIRECTION ( 'NONE',  ( 1.000000000000000000, -0.000000000000000000, -0.000000000000000000 ) ) ;
#260 = DIRECTION ( 'NONE',  ( -1.000000000000000000, -0.000000000000000000, -0.000000000000000000 ) ) ;
#261 = DIRECTION ( 'NONE',  ( 0.000000000000000000, 0.000000000000000000, -1.000000000000000000 ) ) ;
#262 = PRODUCT ( 'Mpu5 antenna', 'Mpu5 antenna', '', ( #32 ) ) ;
#263 = VECTOR ( 'NONE', #153, 1000.000000000000000 ) ;
#264 = DIRECTION ( 'NONE',  ( -1.000000000000000000, -0.000000000000000000, -0.000000000000000000 ) ) ;
#265 = DIRECTION ( 'NONE',  ( -1.000000000000000000, -0.000000000000000000, -0.000000000000000000 ) ) ;
#266 = SURFACE_STYLE_USAGE ( .BOTH. , #90 ) ;
#267 = CARTESIAN_POINT ( 'NONE',  ( 105.0000000000000000, 0.000000000000000000, 0.000000000000000000 ) ) ;
#268 = DIRECTION ( 'NONE',  ( 1.000000000000000000, 0.000000000000000000, 0.000000000000000000 ) ) ;
#269 =( NAMED_UNIT ( * ) SI_UNIT ( $, .STERADIAN. ) SOLID_ANGLE_UNIT ( ) );
#270 = LINE ( 'NONE', #187, #263 ) ;
#271 = DIRECTION ( 'NONE',  ( 1.000000000000000000, 0.000000000000000000, 0.000000000000000000 ) ) ;
#272 = CYLINDRICAL_SURFACE ( 'NONE', #200, 4.500000000000000000 ) ;
#273 = AXIS2_PLACEMENT_3D ( 'NONE', #205, #234, #89 ) ;
#274 = ORIENTED_EDGE ( 'NONE', *, *, #293, .T. ) ;
#275 =( NAMED_UNIT ( * ) PLANE_ANGLE_UNIT ( ) SI_UNIT ( $, .RADIAN. ) );
#276 = EDGE_CURVE ( 'NONE', #363, #41, #124, .T. ) ;
#277 = ORIENTED_EDGE ( 'NONE', *, *, #218, .F. ) ;
#278 = MANIFOLD_SOLID_BREP ( 'Chamfer2', #174 ) ;
#279 = CIRCLE ( 'NONE', #114, 6.000000000000000888 ) ;
#280 = FILL_AREA_STYLE ('',( #369 ) ) ;
#281 = ORIENTED_EDGE ( 'NONE', *, *, #180, .T. ) ;
#282 = ORIENTED_EDGE ( 'NONE', *, *, #99, .F. ) ;
#283 = ADVANCED_FACE ( 'NONE', ( #212 ), #295, .T. ) ;
#284 = VERTEX_POINT ( 'NONE', #299 ) ;
#285 = CARTESIAN_POINT ( 'NONE',  ( 49.00000000000007105, 0.000000000000000000, 4.500000000000000000 ) ) ;
#286 = CYLINDRICAL_SURFACE ( 'NONE', #291, 4.500000000000000000 ) ;
#287 = ORIENTED_EDGE ( 'NONE', *, *, #253, .T. ) ;
#288 = CARTESIAN_POINT ( 'NONE',  ( 106.5000000000000000, 0.000000000000000000, 0.000000000000000000 ) ) ;
#289 = AXIS2_PLACEMENT_3D ( 'NONE', #356, #118, #298 ) ;
#290 = CARTESIAN_POINT ( 'NONE',  ( 45.00000000000000000, 0.000000000000000000, 7.499999999999999112 ) ) ;
#291 = AXIS2_PLACEMENT_3D ( 'NONE', #381, #264, #292 ) ;
#292 = DIRECTION ( 'NONE',  ( 0.000000000000000000, 0.000000000000000000, 1.000000000000000000 ) ) ;
#293 = EDGE_CURVE ( 'NONE', #337, #221, #177, .T. ) ;
#294 = EDGE_LOOP ( 'NONE', ( #252, #251, #228, #319 ) ) ;
#295 = TOROIDAL_SURFACE ( 'NONE', #133, 4.500000000000000888, 1.500000000000000000 ) ;
#296 = VECTOR ( 'NONE', #330, 1000.000000000000000 ) ;
#297 = CARTESIAN_POINT ( 'NONE',  ( 106.5000000000000000, 0.000000000000000000, 0.000000000000000000 ) ) ;
#298 = DIRECTION ( 'NONE',  ( 0.000000000000000000, 0.000000000000000000, -1.000000000000000000 ) ) ;
#299 = CARTESIAN_POINT ( 'NONE',  ( 180.0000000000000000, 0.000000000000000000, -4.500000000000000888 ) ) ;
#300 = DIRECTION ( 'NONE',  ( 0.000000000000000000, 0.000000000000000000, -1.000000000000000000 ) ) ;
#301 = EDGE_CURVE ( 'NONE', #363, #104, #279, .T. ) ;
#302 = FACE_OUTER_BOUND ( 'NONE', #168, .T. ) ;
#303 = DIRECTION ( 'NONE',  ( 0.000000000000000000, 0.000000000000000000, -1.000000000000000000 ) ) ;
#304 = ORIENTED_EDGE ( 'NONE', *, *, #171, .T. ) ;
#305 = DIRECTION ( 'NONE',  ( 0.000000000000000000, 1.000000000000000000, -1.224646799147353207E-16 ) ) ;
#306 = EDGE_CURVE ( 'NONE', #111, #160, #161, .T. ) ;
#307 = DIRECTION ( 'NONE',  ( 0.000000000000000000, 0.000000000000000000, -1.000000000000000000 ) ) ;
#308 = TOROIDAL_SURFACE ( 'NONE', #289, 4.500000000000000888, 1.500000000000000000 ) ;
#309 = ORIENTED_EDGE ( 'NONE', *, *, #301, .F. ) ;
#310 =( LENGTH_UNIT ( ) NAMED_UNIT ( * ) SI_UNIT ( .MILLI., .METRE. ) );
#311 = ORIENTED_EDGE ( 'NONE', *, *, #276, .T. ) ;
#312 = ORIENTED_EDGE ( 'NONE', *, *, #384, .F. ) ;
#313 = PRODUCT_DEFINITION_SHAPE ( 'NONE', 'NONE',  #366 ) ;
#314 = ADVANCED_FACE ( 'NONE', ( #179 ), #21, .T. ) ;
#315 = VECTOR ( 'NONE', #125, 1000.000000000000000 ) ;
#316 = ORIENTED_EDGE ( 'NONE', *, *, #121, .T. ) ;
#317 = CARTESIAN_POINT ( 'NONE',  ( 45.00000000000000000, 0.000000000000000000, 0.000000000000000000 ) ) ;
#318 = CARTESIAN_POINT ( 'NONE',  ( 49.00000000000007105, 0.000000000000000000, 0.000000000000000000 ) ) ;
#319 = ORIENTED_EDGE ( 'NONE', *, *, #352, .T. ) ;
#320 = CARTESIAN_POINT ( 'NONE',  ( 105.0000000000000000, 5.510910596163088569E-16, -4.500000000000000000 ) ) ;
#321 = CARTESIAN_POINT ( 'NONE',  ( 180.0000000000000000, 0.000000000000000000, 0.000000000000000000 ) ) ;
#322 = ADVANCED_FACE ( 'NONE', ( #88 ), #386, .T. ) ;
#323 = AXIS2_PLACEMENT_3D ( 'NONE', #144, #176, #27 ) ;
#324 = ORIENTED_EDGE ( 'NONE', *, *, #171, .F. ) ;
#325 = DIRECTION ( 'NONE',  ( 1.000000000000000000, 0.000000000000000000, 0.000000000000000000 ) ) ;
#326 = ORIENTED_EDGE ( 'NONE', *, *, #384, .T. ) ;
#327 = AXIS2_PLACEMENT_3D ( 'NONE', #383, #150, #119 ) ;
#328 = DIRECTION ( 'NONE',  ( 0.000000000000000000, 0.000000000000000000, -1.000000000000000000 ) ) ;
#329 = ADVANCED_FACE ( 'NONE', ( #204 ), #286, .T. ) ;
#330 = DIRECTION ( 'NONE',  ( -1.000000000000000000, -0.000000000000000000, -0.000000000000000000 ) ) ;
#331 = APPLICATION_PROTOCOL_DEFINITION ( 'draft international standard', 'automotive_design', 1998, #50 ) ;
#332 = CARTESIAN_POINT ( 'NONE',  ( 180.0000000000000000, 0.000000000000000000, 0.000000000000000000 ) ) ;
#333 = LINE ( 'NONE', #191, #315 ) ;
#334 = EDGE_LOOP ( 'NONE', ( #219, #196 ) ) ;
#335 = DIRECTION ( 'NONE',  ( 1.000000000000000000, 0.000000000000000000, 0.000000000000000000 ) ) ;
#336 = CARTESIAN_POINT ( 'NONE',  ( 106.5000000000000000, 7.347880794884120722E-16, -6.000000000000000888 ) ) ;
#337 = VERTEX_POINT ( 'NONE', #320 ) ;
#338 = EDGE_LOOP ( 'NONE', ( #83, #304, #22, #367 ) ) ;
#339 = ORIENTED_EDGE ( 'NONE', *, *, #48, .F. ) ;
#340 = EDGE_CURVE ( 'NONE', #41, #203, #23, .T. ) ;
#341 = CIRCLE ( 'NONE', #225, 4.500000000000000000 ) ;
#342 = AXIS2_PLACEMENT_3D ( 'NONE', #38, #271, #72 ) ;
#343 = EDGE_CURVE ( 'NONE', #160, #87, #235, .T. ) ;
#344 = VECTOR ( 'NONE', #18, 1000.000000000000000 ) ;
#345 = AXIS2_PLACEMENT_3D ( 'NONE', #155, #268, #216 ) ;
#346 = ORIENTED_EDGE ( 'NONE', *, *, #373, .T. ) ;
#347 = STYLED_ITEM ( 'NONE', ( #136 ), #42 ) ;
#348 = EDGE_LOOP ( 'NONE', ( #277, #346, #311, #192 ) ) ;
#349 = CARTESIAN_POINT ( 'NONE',  ( 178.5000000000000000, 0.000000000000000000, 0.000000000000000000 ) ) ;
#350 = DIRECTION ( 'NONE',  ( 1.000000000000000000, 0.000000000000000000, 0.000000000000000000 ) ) ;
#351 = ORIENTED_EDGE ( 'NONE', *, *, #138, .F. ) ;
#352 = EDGE_CURVE ( 'NONE', #16, #87, #184, .T. ) ;
#353 = FILL_AREA_STYLE_COLOUR ( '', #359 ) ;
#354 = DIRECTION ( 'NONE',  ( 0.000000000000000000, -1.000000000000000000, 0.000000000000000000 ) ) ;
#355 = CARTESIAN_POINT ( 'NONE',  ( 45.00000000000000000, 9.184850993605145972E-16, -7.499999999999999112 ) ) ;
#356 = CARTESIAN_POINT ( 'NONE',  ( 178.5000000000000000, 0.000000000000000000, 0.000000000000000000 ) ) ;
#357 = SURFACE_STYLE_FILL_AREA ( #24 ) ;
#358 = FACE_OUTER_BOUND ( 'NONE', #372, .T. ) ;
#359 = COLOUR_RGB ( '',0.1921568627450980227, 0.2039215686274509776, 0.2039215686274509776 ) ;
#360 =( NAMED_UNIT ( * ) PLANE_ANGLE_UNIT ( ) SI_UNIT ( $, .RADIAN. ) );
#361 = DIRECTION ( 'NONE',  ( 0.000000000000000000, 0.000000000000000000, 1.000000000000000000 ) ) ;
#362 = CARTESIAN_POINT ( 'NONE',  ( 180.0000000000000000, 0.000000000000000000, 0.000000000000000000 ) ) ;
#363 = VERTEX_POINT ( 'NONE', #222 ) ;
#364 = AXIS2_PLACEMENT_3D ( 'NONE', #172, #260, #154 ) ;
#365 = DIRECTION ( 'NONE',  ( 0.000000000000000000, 1.000000000000000000, -1.224646799147353207E-16 ) ) ;
#366 = PRODUCT_DEFINITION ( 'General', '', #8, #375 ) ;
#367 = ORIENTED_EDGE ( 'NONE', *, *, #180, .F. ) ;
#368 = AXIS2_PLACEMENT_3D ( 'NONE', #2, #391, #36 ) ;
#369 = FILL_AREA_STYLE_COLOUR ( '', #45 ) ;
#370 = ORIENTED_EDGE ( 'NONE', *, *, #142, .T. ) ;
#371 = DIRECTION ( 'NONE',  ( 0.000000000000000000, -1.000000000000000000, 0.000000000000000000 ) ) ;
#372 = EDGE_LOOP ( 'NONE', ( #201, #137, #74, #91 ) ) ;
#373 = EDGE_CURVE ( 'NONE', #104, #363, #247, .T. ) ;
#374 = EDGE_CURVE ( 'NONE', #363, #110, #11, .T. ) ;
#375 = PRODUCT_DEFINITION_CONTEXT ( 'detailed design', #166, 'design' ) ;
#376 = CIRCLE ( 'NONE', #245, 1.499999999999999556 ) ;
#377 = EDGE_LOOP ( 'NONE', ( #188, #49, #165, #135 ) ) ;
#378 = PRESENTATION_LAYER_ASSIGNMENT (  '', '', ( #96 ) ) ;
#379 = AXIS2_PLACEMENT_3D ( 'NONE', #244, #67, #97 ) ;
#380 = DIRECTION ( 'NONE',  ( 0.000000000000000000, 0.000000000000000000, -1.000000000000000000 ) ) ;
#381 = CARTESIAN_POINT ( 'NONE',  ( 105.0000000000000000, 0.000000000000000000, 0.000000000000000000 ) ) ;
#382 = LINE ( 'NONE', #208, #211 ) ;
#383 = CARTESIAN_POINT ( 'NONE',  ( 105.0000000000000000, 0.000000000000000000, 0.000000000000000000 ) ) ;
#384 = EDGE_CURVE ( 'NONE', #337, #203, #233, .T. ) ;
#385 = CARTESIAN_POINT ( 'NONE',  ( 49.00000000000007105, 0.000000000000000000, 0.000000000000000000 ) ) ;
#386 = TOROIDAL_SURFACE ( 'NONE', #198, 4.500000000000000888, 1.500000000000000000 ) ;
#387 = DIRECTION ( 'NONE',  ( 0.000000000000000000, 0.000000000000000000, 1.000000000000000000 ) ) ;
#388 = CYLINDRICAL_SURFACE ( 'NONE', #40, 6.000000000000000888 ) ;
#389 = DIRECTION ( 'NONE',  ( -1.000000000000000000, 0.000000000000000000, 0.000000000000000000 ) ) ;
#390 = FACE_OUTER_BOUND ( 'NONE', #348, .T. ) ;
#391 = DIRECTION ( 'NONE',  ( 1.000000000000000000, 0.000000000000000000, 0.000000000000000000 ) ) ;
#392 =( NAMED_UNIT ( * ) SI_UNIT ( $, .STERADIAN. ) SOLID_ANGLE_UNIT ( ) );
#393 = FACE_OUTER_BOUND ( 'NONE', #54, .T. ) ;
#394 = DIRECTION ( 'NONE',  ( 0.000000000000000000, 0.000000000000000000, -1.000000000000000000 ) ) ;
ENDSEC;
END-ISO-10303-21;
