ISO-10303-21;
HEADER;
FILE_DESCRIPTION (( 'STEP AP214' ),
    '1' );
FILE_NAME ('P4-WIO.STEP',
    '2026-08-21T18:09:49',
    ( '' ),
    ( '' ),
    'SwSTEP 2.0',
    'SolidWorks 2025',
    '' );
FILE_SCHEMA (( 'AUTOMOTIVE_DESIGN' ));
ENDSEC;

DATA;
#1 = APPLICATION_PROTOCOL_DEFINITION ( 'draft international standard', 'automotive_design', 1998, #505 ) ;
#2 =( NAMED_UNIT ( * ) PLANE_ANGLE_UNIT ( ) SI_UNIT ( $, .RADIAN. ) );
#3 =( GEOMETRIC_REPRESENTATION_CONTEXT ( 3 ) GLOBAL_UNCERTAINTY_ASSIGNED_CONTEXT ( ( #397 ) ) GLOBAL_UNIT_ASSIGNED_CONTEXT ( ( #574, #572, #101 ) ) REPRESENTATION_CONTEXT ( 'NONE', 'WORKASPACE' ) );
#4 =( NAMED_UNIT ( * ) PLANE_ANGLE_UNIT ( ) SI_UNIT ( $, .RADIAN. ) );
#5 = CONTEXT_DEPENDENT_SHAPE_REPRESENTATION ( #481, #314 ) ;
#6 = DOCUMENT_TYPE ( 'geometry' ) ;
#7 = AXIS2_PLACEMENT_3D ( 'NONE', #336, #31, #86 ) ;
#8 =( NAMED_UNIT ( * ) PLANE_ANGLE_UNIT ( ) SI_UNIT ( $, .RADIAN. ) );
#9 = ITEM_DEFINED_TRANSFORMATION ( 'NONE', 'NONE', #217,  #347 ) ;
#10 = APPLICATION_CONTEXT ( 'automotive_design' ) ;
#11 = AXIS2_PLACEMENT_3D ( 'NONE', #186, #138, #224 ) ;
#12 = PROPERTY_DEFINITION_REPRESENTATION ( #443, #523 ) ;
#13 = PROPERTY_DEFINITION_REPRESENTATION ( #66, #431 ) ;
#14 = DOCUMENT_TYPE ( 'geometry' ) ;
#15 = EXTERNAL_SOURCE (IDENTIFIER('') ) ;
#16 = PRODUCT_DEFINITION_FORMATION_WITH_SPECIFIED_SOURCE ( 'Symmetric', '', #509, .NOT_KNOWN. ) ;
#17 = PROPERTY_DEFINITION ('external definition','', #298 ) ;
#18 = CONTEXT_DEPENDENT_SHAPE_REPRESENTATION ( #419, #548 ) ;
#19 = IDENTIFICATION_ROLE ( 'external document id and location', $) ;
#20 = PROPERTY_DEFINITION_REPRESENTATION ( #396, #406 ) ;
#21 = PRODUCT_DEFINITION_SHAPE ( 'NONE', 'NONE',  #327 ) ;
#22 =( REPRESENTATION_RELATIONSHIP ('NONE','NONE', #156, #370 ) REPRESENTATION_RELATIONSHIP_WITH_TRANSFORMATION ( #73 )SHAPE_REPRESENTATION_RELATIONSHIP( ) );
#23 = PRODUCT_DEFINITION_CONTEXT ( 'detailed design', #154, 'design' ) ;
#24 = DOCUMENT_FILE ( 'enclosure_top_cover.STEP' , '', '', #51, '' ,$ ) ;
#25 = PRODUCT_DEFINITION_SHAPE ( 'NONE', 'NONE',  #413 ) ;
#26 =( LENGTH_UNIT ( ) NAMED_UNIT ( * ) SI_UNIT ( .MILLI., .METRE. ) );
#27 = APPLIED_EXTERNAL_IDENTIFICATION_ASSIGNMENT ( 'middel part.STEP' , #19, #476,( #372) ) ;
#28 = DOCUMENT_FILE ( 'gnns gps.STEP' , '', '', #390, '' ,$ ) ;
#29 = APPLICATION_PROTOCOL_DEFINITION ( 'draft international standard', 'automotive_design', 1998, #301 ) ;
#30 =( REPRESENTATION_RELATIONSHIP ('NONE','NONE', #156, #523 ) REPRESENTATION_RELATIONSHIP_WITH_TRANSFORMATION ( #118 )SHAPE_REPRESENTATION_RELATIONSHIP( ) );
#31 = DIRECTION ( 'NONE',  ( 0.000000000000000000, 0.000000000000000000, 1.000000000000000000 ) ) ;
#32 = PRODUCT ( 'Mpu5 antenna', 'Mpu5 antenna', '', ( #417 ) ) ;
#33 = APPLIED_DOCUMENT_REFERENCE ( #372,'',( #34) ) ;
#34 = PRODUCT_DEFINITION ( 'General', '', #251, #169 ) ;
#35 = AXIS2_PLACEMENT_3D ( 'NONE', #472, #188, #424 ) ;
#36 = APPLICATION_PROTOCOL_DEFINITION ( 'draft international standard', 'automotive_design', 1998, #201 ) ;
#37 = DIRECTION ( 'NONE',  ( 1.000000000000000000, 0.000000000000000000, 0.000000000000000000 ) ) ;
#38 = AXIS2_PLACEMENT_3D ( 'NONE', #46, #608, #567 ) ;
#39 = CARTESIAN_POINT ( 'NONE',  ( 0.000000000000000000, 0.000000000000000000, 0.000000000000000000 ) ) ;
#40 = PRODUCT ( 'raspberry_pi4_wm6108_halow_stack', 'raspberry_pi4_wm6108_halow_stack', '', ( #53 ) ) ;
#41 = IDENTIFICATION_ROLE ( 'external document id and location', $) ;
#42 = PRODUCT_CONTEXT ( 'NONE', #201, 'mechanical' ) ;
#43 = APPLIED_EXTERNAL_IDENTIFICATION_ASSIGNMENT ( 'raspberry_pi4_wm6108_halow_stack.STEP' , #518, #487,( #250) ) ;
#44 = DIRECTION ( 'NONE',  ( 3.469446951953614189E-18, 0.000000000000000000, -1.000000000000000000 ) ) ;
#45 = APPLICATION_CONTEXT ( 'automotive_design' ) ;
#46 = CARTESIAN_POINT ( 'NONE',  ( -2.611615235914278799, 17.75529892363508466, -29.17599749905720685 ) ) ;
#47 =( NAMED_UNIT ( * ) SI_UNIT ( $, .STERADIAN. ) SOLID_ANGLE_UNIT ( ) );
#48 = PRODUCT_DEFINITION_SHAPE ( 'NONE', 'NONE',  #620 ) ;
#49 = PRODUCT_DEFINITION_FORMATION_WITH_SPECIFIED_SOURCE ( 'Symmetric', '', #207, .NOT_KNOWN. ) ;
#50 =( LENGTH_UNIT ( ) NAMED_UNIT ( * ) SI_UNIT ( .MILLI., .METRE. ) );
#51 = DOCUMENT_TYPE ( 'geometry' ) ;
#52 = DIRECTION ( 'NONE',  ( 1.000000000000000000, 0.000000000000000000, 0.000000000000000000 ) ) ;
#53 = PRODUCT_CONTEXT ( 'NONE', #470, 'mechanical' ) ;
#54 =( NAMED_UNIT ( * ) PLANE_ANGLE_UNIT ( ) SI_UNIT ( $, .RADIAN. ) );
#55 = EXTERNAL_SOURCE (IDENTIFIER('') ) ;
#56 = DIRECTION ( 'NONE',  ( 1.000000000000000000, 0.000000000000000000, 0.000000000000000000 ) ) ;
#57 = APPLICATION_PROTOCOL_DEFINITION ( 'draft international standard', 'automotive_design', 1998, #143 ) ;
#58 = DIRECTION ( 'NONE',  ( 1.000000000000000000, 0.000000000000000000, 3.469446951953614189E-18 ) ) ;
#59 = EXTERNAL_SOURCE (IDENTIFIER('') ) ;
#60 = PROPERTY_DEFINITION_REPRESENTATION ( #265, #277 ) ;
#61 =( NAMED_UNIT ( * ) SI_UNIT ( $, .STERADIAN. ) SOLID_ANGLE_UNIT ( ) );
#62 =( GEOMETRIC_REPRESENTATION_CONTEXT ( 3 ) GLOBAL_UNCERTAINTY_ASSIGNED_CONTEXT ( ( #69 ) ) GLOBAL_UNIT_ASSIGNED_CONTEXT ( ( #598, #328, #61 ) ) REPRESENTATION_CONTEXT ( 'NONE', 'WORKASPACE' ) );
#63 = PROPERTY_DEFINITION_REPRESENTATION ( #367, #277 ) ;
#64 = DOCUMENT_TYPE ( 'geometry' ) ;
#65 = CONTEXT_DEPENDENT_SHAPE_REPRESENTATION ( #30, #117 ) ;
#66 = PROPERTY_DEFINITION ('external definition','', #402 ) ;
#67 = PRODUCT_DEFINITION ( 'General', '', #534, #349 ) ;
#68 = AXIS2_PLACEMENT_3D ( 'NONE', #93, #421, #408 ) ;
#69 = UNCERTAINTY_MEASURE_WITH_UNIT (LENGTH_MEASURE( 1.000000000000000082E-05 ), #598, 'distance_accuracy_value', 'NONE');
#70 = PRODUCT_DEFINITION_SHAPE ( 'NONE', 'NONE',  #583 ) ;
#71 = PROPERTY_DEFINITION ('external definition','', #24 ) ;
#72 = UNCERTAINTY_MEASURE_WITH_UNIT (LENGTH_MEASURE( 1.000000000000000082E-05 ), #244, 'distance_accuracy_value', 'NONE');
#73 = ITEM_DEFINED_TRANSFORMATION ( 'NONE', 'NONE', #326,  #355 ) ;
#74 =( GEOMETRIC_REPRESENTATION_CONTEXT ( 3 ) GLOBAL_UNCERTAINTY_ASSIGNED_CONTEXT ( ( #206 ) ) GLOBAL_UNIT_ASSIGNED_CONTEXT ( ( #587, #283, #584 ) ) REPRESENTATION_CONTEXT ( 'NONE', 'WORKASPACE' ) );
#75 = SHAPE_REPRESENTATION ( 'enclosure_top_cover', ( #602 ), #62 ) ;
#76 = PROPERTY_DEFINITION_REPRESENTATION ( #401, #370 ) ;
#77 = PRODUCT_DEFINITION_CONTEXT ( 'detailed design', #287, 'design' ) ;
#78 = APPLICATION_CONTEXT ( 'automotive_design' ) ;
#79 = PRODUCT_DEFINITION_FORMATION_WITH_SPECIFIED_SOURCE ( 'Symmetric', '', #448, .NOT_KNOWN. ) ;
#80 = ROLE_ASSOCIATION ( #177, #173 ) ;
#81 = OBJECT_ROLE ('mandatory',$ ) ;
#82 = PRODUCT_DEFINITION_FORMATION_WITH_SPECIFIED_SOURCE ( 'Symmetric', '', #165, .NOT_KNOWN. ) ;
#83 = PROPERTY_DEFINITION ('external definition','', #325 ) ;
#84 = CARTESIAN_POINT ( 'NONE',  ( 0.000000000000000000, 0.000000000000000000, 0.000000000000000000 ) ) ;
#85 = DIRECTION ( 'NONE',  ( 3.469446951953614189E-18, 1.000000000000000000, -3.469446951953614189E-18 ) ) ;
#86 = DIRECTION ( 'NONE',  ( 1.000000000000000000, 0.000000000000000000, 0.000000000000000000 ) ) ;
#87 = CARTESIAN_POINT ( 'NONE',  ( 0.000000000000000000, 0.000000000000000000, 0.000000000000000000 ) ) ;
#88 = IDENTIFICATION_ROLE ( 'external document id and location', $) ;
#89 = APPLICATION_PROTOCOL_DEFINITION ( 'draft international standard', 'automotive_design', 1998, #100 ) ;
#90 = PRODUCT_DEFINITION_SHAPE ( 'NONE', 'NONE',  #617 ) ;
#91 =( LENGTH_UNIT ( ) NAMED_UNIT ( * ) SI_UNIT ( .MILLI., .METRE. ) );
#92 = PRODUCT_DEFINITION ( 'General', '', #230, #23 ) ;
#93 = CARTESIAN_POINT ( 'NONE',  ( 32.18895101850928597, 40.25529892363508111, -31.83560550207036144 ) ) ;
#94 = OBJECT_ROLE ('mandatory',$ ) ;
#95 = CARTESIAN_POINT ( 'NONE',  ( 0.000000000000000000, 0.000000000000000000, 0.000000000000000000 ) ) ;
#96 = APPLICATION_PROTOCOL_DEFINITION ( 'draft international standard', 'automotive_design', 1998, #578 ) ;
#97 = DIRECTION ( 'NONE',  ( 0.000000000000000000, 0.000000000000000000, 1.000000000000000000 ) ) ;
#98 = SHAPE_REPRESENTATION ( 'gnns gps', ( #7 ), #270 ) ;
#99 = AXIS2_PLACEMENT_3D ( 'NONE', #107, #58, #44 ) ;
#100 = APPLICATION_CONTEXT ( 'automotive_design' ) ;
#101 =( NAMED_UNIT ( * ) SI_UNIT ( $, .STERADIAN. ) SOLID_ANGLE_UNIT ( ) );
#102 = PROPERTY_DEFINITION_REPRESENTATION ( #83, #568 ) ;
#103 = DIRECTION ( 'NONE',  ( 0.000000000000000000, 0.000000000000000000, 1.000000000000000000 ) ) ;
#104 = CARTESIAN_POINT ( 'NONE',  ( 6.290939167308405189, -4.744701076364923331, 26.39554602152223239 ) ) ;
#105 = DIRECTION ( 'NONE',  ( 0.000000000000000000, 0.000000000000000000, 1.000000000000000000 ) ) ;
#106 = SHAPE_DEFINITION_REPRESENTATION ( #21, #568 ) ;
#107 = CARTESIAN_POINT ( 'NONE',  ( 32.38838476408572831, 25.75529892363508466, -16.51599749905721026 ) ) ;
#108 = CARTESIAN_POINT ( 'NONE',  ( 0.000000000000000000, 0.000000000000000000, 0.000000000000000000 ) ) ;
#109 = APPLICATION_PROTOCOL_DEFINITION ( 'draft international standard', 'automotive_design', 1998, #392 ) ;
#110 = PRODUCT_RELATED_PRODUCT_CATEGORY ( 'part', '', ( #256 ) ) ;
#111 = PROPERTY_DEFINITION_REPRESENTATION ( #414, #568 ) ;
#112 = PROPERTY_DEFINITION ('document property','', #402 ) ;
#113 = APPLICATION_CONTEXT ( 'automotive_design' ) ;
#114 = ITEM_DEFINED_TRANSFORMATION ( 'NONE', 'NONE', #68,  #602 ) ;
#115 = PRODUCT_RELATED_PRODUCT_CATEGORY ( 'part', '', ( #165 ) ) ;
#116 = DIRECTION ( 'NONE',  ( 1.000000000000000000, 0.000000000000000000, 0.000000000000000000 ) ) ;
#117 = PRODUCT_DEFINITION_SHAPE ( 'NONE', 'NONE',  #615 ) ;
#118 = ITEM_DEFINED_TRANSFORMATION ( 'NONE', 'NONE', #99,  #488 ) ;
#119 = AXIS2_PLACEMENT_3D ( 'NONE', #580, #97, #576 ) ;
#120 = PRODUCT_DEFINITION_SHAPE ( 'NONE', 'NONE',  #92 ) ;
#121 = PRODUCT_DEFINITION_SHAPE ( 'NONE', 'NONE',  #623 ) ;
#122 = PRODUCT_DEFINITION_CONTEXT ( 'detailed design', #392, 'design' ) ;
#123 = PRODUCT_RELATED_PRODUCT_CATEGORY ( 'part', '', ( #559 ) ) ;
#124 = ITEM_DEFINED_TRANSFORMATION ( 'NONE', 'NONE', #196,  #7 ) ;
#125 =( REPRESENTATION_RELATIONSHIP ('NONE','NONE', #156, #568 ) REPRESENTATION_RELATIONSHIP_WITH_TRANSFORMATION ( #575 )SHAPE_REPRESENTATION_RELATIONSHIP( ) );
#126 = ROLE_ASSOCIATION ( #383, #356 ) ;
#127 = APPLICATION_PROTOCOL_DEFINITION ( 'draft international standard', 'automotive_design', 1998, #129 ) ;
#128 = PRODUCT_DEFINITION_FORMATION_WITH_SPECIFIED_SOURCE ( 'Symmetric', '', #256, .NOT_KNOWN. ) ;
#129 = APPLICATION_CONTEXT ( 'automotive_design' ) ;
#130 = ITEM_DEFINED_TRANSFORMATION ( 'NONE', 'NONE', #38,  #295 ) ;
#131 = PRODUCT ( 'bottom seal', 'bottom seal', '', ( #416 ) ) ;
#132 = APPLIED_EXTERNAL_IDENTIFICATION_ASSIGNMENT ( 'Mpu5 antenna.STEP' , #450, #55,( #359) ) ;
#133 = DIRECTION ( 'NONE',  ( 1.000000000000000000, -3.851859888774471706E-34, 3.469446951953614189E-18 ) ) ;
#134 =( NAMED_UNIT ( * ) PLANE_ANGLE_UNIT ( ) SI_UNIT ( $, .RADIAN. ) );
#135 = PRODUCT_DEFINITION_SHAPE ( 'NONE', 'NONE',  #614 ) ;
#136 = CARTESIAN_POINT ( 'NONE',  ( 0.000000000000000000, 0.000000000000000000, 0.000000000000000000 ) ) ;
#137 =( GEOMETRIC_REPRESENTATION_CONTEXT ( 3 ) GLOBAL_UNCERTAINTY_ASSIGNED_CONTEXT ( ( #297 ) ) GLOBAL_UNIT_ASSIGNED_CONTEXT ( ( #319, #274, #333 ) ) REPRESENTATION_CONTEXT ( 'NONE', 'WORKASPACE' ) );
#138 = DIRECTION ( 'NONE',  ( 0.000000000000000000, 0.000000000000000000, 1.000000000000000000 ) ) ;
#139 = DIRECTION ( 'NONE',  ( 1.000000000000000000, 0.000000000000000000, 0.000000000000000000 ) ) ;
#140 = PRODUCT_RELATED_PRODUCT_CATEGORY ( 'part', '', ( #509 ) ) ;
#141 =( GEOMETRIC_REPRESENTATION_CONTEXT ( 3 ) GLOBAL_UNCERTAINTY_ASSIGNED_CONTEXT ( ( #338 ) ) GLOBAL_UNIT_ASSIGNED_CONTEXT ( ( #517, #603, #358 ) ) REPRESENTATION_CONTEXT ( 'NONE', 'WORKASPACE' ) );
#142 = DIRECTION ( 'NONE',  ( -1.000000000000000000, 0.000000000000000000, 0.000000000000000000 ) ) ;
#143 = APPLICATION_CONTEXT ( 'automotive_design' ) ;
#144 = CONTEXT_DEPENDENT_SHAPE_REPRESENTATION ( #125, #180 ) ;
#145 = OBJECT_ROLE ('mandatory',$ ) ;
#146 = AXIS2_PLACEMENT_3D ( 'NONE', #276, #461, #313 ) ;
#147 = DIRECTION ( 'NONE',  ( 0.000000000000000000, 0.000000000000000000, 1.000000000000000000 ) ) ;
#148 = DOCUMENT_FILE ( 'heatsink_external_70x70x3-6mm.STEP' , '', '', #14, '' ,$ ) ;
#149 = IDENTIFICATION_ROLE ( 'external document id and location', $) ;
#150 = DIRECTION ( 'NONE',  ( 3.469446951953614189E-18, 0.000000000000000000, -1.000000000000000000 ) ) ;
#151 =( GEOMETRIC_REPRESENTATION_CONTEXT ( 3 ) GLOBAL_UNCERTAINTY_ASSIGNED_CONTEXT ( ( #72 ) ) GLOBAL_UNIT_ASSIGNED_CONTEXT ( ( #244, #4, #354 ) ) REPRESENTATION_CONTEXT ( 'NONE', 'WORKASPACE' ) );
#152 = PRODUCT_DEFINITION ( 'General', '', #49, #539 ) ;
#153 = SHAPE_DEFINITION_REPRESENTATION ( #400, #370 ) ;
#154 = APPLICATION_CONTEXT ( 'automotive_design' ) ;
#155 = SHAPE_DEFINITION_REPRESENTATION ( #456, #277 ) ;
#156 = SHAPE_REPRESENTATION ( 'P4-WIO', ( #11, #119, #386, #362, #217, #99, #525, #326, #68, #459, #409, #146, #196, #577, #38 ), #471 ) ;
#157 = OBJECT_ROLE ('mandatory',$ ) ;
#158 = PROPERTY_DEFINITION_REPRESENTATION ( #485, #406 ) ;
#159 = PRODUCT_DEFINITION_FORMATION_WITH_SPECIFIED_SOURCE ( 'Symmetric', '', #306, .NOT_KNOWN. ) ;
#160 = OBJECT_ROLE ('mandatory',$ ) ;
#161 = UNCERTAINTY_MEASURE_WITH_UNIT (LENGTH_MEASURE( 1.000000000000000082E-05 ), #233, 'distance_accuracy_value', 'NONE');
#162 = ITEM_DEFINED_TRANSFORMATION ( 'NONE', 'NONE', #525,  #220 ) ;
#163 = PRODUCT_RELATED_PRODUCT_CATEGORY ( 'part', '', ( #478 ) ) ;
#164 = PROPERTY_DEFINITION_REPRESENTATION ( #71, #75 ) ;
#165 = PRODUCT ( 'gasket_heatsink_external', 'gasket_heatsink_external', '', ( #42 ) ) ;
#166 =( GEOMETRIC_REPRESENTATION_CONTEXT ( 3 ) GLOBAL_UNCERTAINTY_ASSIGNED_CONTEXT ( ( #350 ) ) GLOBAL_UNIT_ASSIGNED_CONTEXT ( ( #195, #54, #232 ) ) REPRESENTATION_CONTEXT ( 'NONE', 'WORKASPACE' ) );
#167 = PRODUCT_DEFINITION_CONTEXT ( 'detailed design', #45, 'design' ) ;
#168 = PROPERTY_DEFINITION_REPRESENTATION ( #535, #370 ) ;
#169 = PRODUCT_DEFINITION_CONTEXT ( 'detailed design', #453, 'design' ) ;
#170 =( NAMED_UNIT ( * ) SI_UNIT ( $, .STERADIAN. ) SOLID_ANGLE_UNIT ( ) );
#171 = IDENTIFICATION_ROLE ( 'external document id and location', $) ;
#172 = APPLIED_EXTERNAL_IDENTIFICATION_ASSIGNMENT ( 'mount_twist_lock_magnetic_radio.STEP' , #149, #267,( #343) ) ;
#173 = APPLIED_DOCUMENT_REFERENCE ( #28,'',( #413) ) ;
#174 =( NAMED_UNIT ( * ) PLANE_ANGLE_UNIT ( ) SI_UNIT ( $, .RADIAN. ) );
#175 = APPLICATION_PROTOCOL_DEFINITION ( 'draft international standard', 'automotive_design', 1998, #309 ) ;
#176 = PRODUCT_RELATED_PRODUCT_CATEGORY ( 'part', '', ( #207 ) ) ;
#177 = OBJECT_ROLE ('mandatory',$ ) ;
#178 = CARTESIAN_POINT ( 'NONE',  ( 0.000000000000000000, 0.000000000000000000, 0.000000000000000000 ) ) ;
#179 = APPLIED_EXTERNAL_IDENTIFICATION_ASSIGNMENT ( 'gasket_top_cover.STEP' , #447, #215,( #189) ) ;
#180 = PRODUCT_DEFINITION_SHAPE ( 'NONE', 'NONE',  #612 ) ;
#181 =( NAMED_UNIT ( * ) SI_UNIT ( $, .STERADIAN. ) SOLID_ANGLE_UNIT ( ) );
#182 = SHAPE_DEFINITION_REPRESENTATION ( #262, #586 ) ;
#183 = SHAPE_REPRESENTATION ( 'gasket_top_cover', ( #458 ), #3 ) ;
#184 = DOCUMENT_TYPE ( 'geometry' ) ;
#185 = PRODUCT_RELATED_PRODUCT_CATEGORY ( 'part', '', ( #448 ) ) ;
#186 = CARTESIAN_POINT ( 'NONE',  ( 0.000000000000000000, 0.000000000000000000, 0.000000000000000000 ) ) ;
#187 = CARTESIAN_POINT ( 'NONE',  ( -37.61161523591427169, 33.25529892363508111, -16.51599749905721737 ) ) ;
#188 = DIRECTION ( 'NONE',  ( 0.000000000000000000, 0.000000000000000000, 1.000000000000000000 ) ) ;
#189 = DOCUMENT_FILE ( 'gasket_top_cover.STEP' , '', '', #261, '' ,$ ) ;
#190 =( LENGTH_UNIT ( ) NAMED_UNIT ( * ) SI_UNIT ( .MILLI., .METRE. ) );
#191 = APPLICATION_PROTOCOL_DEFINITION ( 'draft international standard', 'automotive_design', 1998, #280 ) ;
#192 = IDENTIFICATION_ROLE ( 'external document id and location', $) ;
#193 = DIRECTION ( 'NONE',  ( 1.000000000000000000, 0.000000000000000000, 0.000000000000000000 ) ) ;
#194 = DOCUMENT_FILE ( 'enclosure_front_cover.STEP' , '', '', #444, '' ,$ ) ;
#195 =( LENGTH_UNIT ( ) NAMED_UNIT ( * ) SI_UNIT ( .MILLI., .METRE. ) );
#196 = AXIS2_PLACEMENT_3D ( 'NONE', #564, #85, #216 ) ;
#197 = ROLE_ASSOCIATION ( #376, #480 ) ;
#198 = PROPERTY_DEFINITION ('document property','', #372 ) ;
#199 = APPLICATION_PROTOCOL_DEFINITION ( 'draft international standard', 'automotive_design', 1998, #322 ) ;
#200 = CONTEXT_DEPENDENT_SHAPE_REPRESENTATION ( #331, #48 ) ;
#201 = APPLICATION_CONTEXT ( 'automotive_design' ) ;
#202 = ROLE_ASSOCIATION ( #145, #588 ) ;
#203 = PRODUCT_DEFINITION_FORMATION_WITH_SPECIFIED_SOURCE ( 'Symmetric', '', #32, .NOT_KNOWN. ) ;
#204 = APPLIED_DOCUMENT_REFERENCE ( #402,'',( #92) ) ;
#205 = UNCERTAINTY_MEASURE_WITH_UNIT (LENGTH_MEASURE( 1.000000000000000082E-05 ), #91, 'distance_accuracy_value', 'NONE');
#206 = UNCERTAINTY_MEASURE_WITH_UNIT (LENGTH_MEASURE( 1.000000000000000082E-05 ), #587, 'distance_accuracy_value', 'NONE');
#207 = PRODUCT ( 'P4-WIO', 'P4-WIO', '', ( #382 ) ) ;
#208 = APPLICATION_CONTEXT ( 'automotive_design' ) ;
#209 = APPLIED_DOCUMENT_REFERENCE ( #250,'',( #542) ) ;
#210 =( NAMED_UNIT ( * ) SI_UNIT ( $, .STERADIAN. ) SOLID_ANGLE_UNIT ( ) );
#211 = PRODUCT ( 'enclosure_main_chassis', 'enclosure_main_chassis', '', ( #235 ) ) ;
#212 = EXTERNAL_SOURCE (IDENTIFIER('') ) ;
#213 = DIRECTION ( 'NONE',  ( -3.469446951953621893E-18, 3.469446951953637300E-18, 1.000000000000000000 ) ) ;
#214 =( NAMED_UNIT ( * ) PLANE_ANGLE_UNIT ( ) SI_UNIT ( $, .RADIAN. ) );
#215 = EXTERNAL_SOURCE (IDENTIFIER('') ) ;
#216 = DIRECTION ( 'NONE',  ( 1.000000000000000000, -3.469446951953614189E-18, 3.469446951953614189E-18 ) ) ;
#217 = AXIS2_PLACEMENT_3D ( 'NONE', #529, #330, #570 ) ;
#218 =( NAMED_UNIT ( * ) SI_UNIT ( $, .STERADIAN. ) SOLID_ANGLE_UNIT ( ) );
#219 = PROPERTY_DEFINITION ('external definition','', #189 ) ;
#220 = AXIS2_PLACEMENT_3D ( 'NONE', #321, #105, #494 ) ;
#221 = SHAPE_DEFINITION_REPRESENTATION ( #593, #257 ) ;
#222 = PRODUCT_DEFINITION ( 'General', '', #82, #77 ) ;
#223 = DIRECTION ( 'NONE',  ( 1.000000000000000000, 0.000000000000000000, 0.000000000000000000 ) ) ;
#224 = DIRECTION ( 'NONE',  ( 1.000000000000000000, 0.000000000000000000, 0.000000000000000000 ) ) ;
#225 = CARTESIAN_POINT ( 'NONE',  ( -30.82737393664436354, -30.24470107636497218, 71.48400250094277908 ) ) ;
#226 =( NAMED_UNIT ( * ) SI_UNIT ( $, .STERADIAN. ) SOLID_ANGLE_UNIT ( ) );
#227 = APPLICATION_PROTOCOL_DEFINITION ( 'draft international standard', 'automotive_design', 1998, #423 ) ;
#228 = EXTERNAL_SOURCE (IDENTIFIER('') ) ;
#229 = DIRECTION ( 'NONE',  ( 1.000000000000000000, 0.000000000000000000, -2.220446049250312095E-16 ) ) ;
#230 = PRODUCT_DEFINITION_FORMATION_WITH_SPECIFIED_SOURCE ( 'Symmetric', '', #131, .NOT_KNOWN. ) ;
#231 = APPLIED_DOCUMENT_REFERENCE ( #325,'',( #327) ) ;
#232 =( NAMED_UNIT ( * ) SI_UNIT ( $, .STERADIAN. ) SOLID_ANGLE_UNIT ( ) );
#233 =( LENGTH_UNIT ( ) NAMED_UNIT ( * ) SI_UNIT ( .MILLI., .METRE. ) );
#234 = APPLICATION_PROTOCOL_DEFINITION ( 'draft international standard', 'automotive_design', 1998, #287 ) ;
#235 = PRODUCT_CONTEXT ( 'NONE', #280, 'mechanical' ) ;
#236 = PRODUCT_DEFINITION_SHAPE ( 'NONE', 'NONE',  #619 ) ;
#237 =( REPRESENTATION_RELATIONSHIP ('NONE','NONE', #156, #406 ) REPRESENTATION_RELATIONSHIP_WITH_TRANSFORMATION ( #599 )SHAPE_REPRESENTATION_RELATIONSHIP( ) );
#238 = ROLE_ASSOCIATION ( #335, #231 ) ;
#239 = SHAPE_REPRESENTATION ( 'heatsink_external_70x70x3-6mm', ( #347 ), #137 ) ;
#240 = PROPERTY_DEFINITION ('external definition','', #391 ) ;
#241 = APPLICATION_CONTEXT ( 'automotive_design' ) ;
#242 = AXIS2_PLACEMENT_3D ( 'NONE', #339, #407, #223 ) ;
#243 =( GEOMETRIC_REPRESENTATION_CONTEXT ( 3 ) GLOBAL_UNCERTAINTY_ASSIGNED_CONTEXT ( ( #294 ) ) GLOBAL_UNIT_ASSIGNED_CONTEXT ( ( #433, #8, #536 ) ) REPRESENTATION_CONTEXT ( 'NONE', 'WORKASPACE' ) );
#244 =( LENGTH_UNIT ( ) NAMED_UNIT ( * ) SI_UNIT ( .MILLI., .METRE. ) );
#245 = CONTEXT_DEPENDENT_SHAPE_REPRESENTATION ( #22, #90 ) ;
#246 = APPLIED_EXTERNAL_IDENTIFICATION_ASSIGNMENT ( 'gasket_front_cover.STEP' , #88, #59,( #544) ) ;
#247 = PROPERTY_DEFINITION ('document property','', #28 ) ;
#248 = ROLE_ASSOCIATION ( #582, #209 ) ;
#249 = APPLICATION_CONTEXT ( 'automotive_design' ) ;
#250 = DOCUMENT_FILE ( 'raspberry_pi4_wm6108_halow_stack.STEP' , '', '', #545, '' ,$ ) ;
#251 = PRODUCT_DEFINITION_FORMATION_WITH_SPECIFIED_SOURCE ( 'Symmetric', '', #478, .NOT_KNOWN. ) ;
#252 = PRODUCT_DEFINITION_SHAPE ( 'NONE', 'NONE',  #616 ) ;
#253 = APPLIED_DOCUMENT_REFERENCE ( #24,'',( #67) ) ;
#254 = PRODUCT_DEFINITION_CONTEXT ( 'detailed design', #322, 'design' ) ;
#255 = UNCERTAINTY_MEASURE_WITH_UNIT (LENGTH_MEASURE( 1.000000000000000082E-05 ), #190, 'distance_accuracy_value', 'NONE');
#256 = PRODUCT ( 'pololu_buck_converter', 'pololu_buck_converter', '', ( #585 ) ) ;
#257 = SHAPE_REPRESENTATION ( 'Mpu5 antenna', ( #493 ), #166 ) ;
#258 = SHAPE_REPRESENTATION ( 'gasket_heatsink_external', ( #353 ), #571 ) ;
#259 = PROPERTY_DEFINITION ('external definition','', #250 ) ;
#260 =( LENGTH_UNIT ( ) NAMED_UNIT ( * ) SI_UNIT ( .MILLI., .METRE. ) );
#261 = DOCUMENT_TYPE ( 'geometry' ) ;
#262 = PRODUCT_DEFINITION_SHAPE ( 'NONE', 'NONE',  #34 ) ;
#263 = SHAPE_DEFINITION_REPRESENTATION ( #269, #75 ) ;
#264 = DIRECTION ( 'NONE',  ( -3.469446951953614189E-18, -1.321694076934710155E-16, 1.000000000000000000 ) ) ;
#265 = PROPERTY_DEFINITION ('document property','', #194 ) ;
#266 = APPLICATION_PROTOCOL_DEFINITION ( 'draft international standard', 'automotive_design', 1998, #279 ) ;
#267 = EXTERNAL_SOURCE (IDENTIFIER('') ) ;
#268 = ROLE_ASSOCIATION ( #403, #311 ) ;
#269 = PRODUCT_DEFINITION_SHAPE ( 'NONE', 'NONE',  #67 ) ;
#270 =( GEOMETRIC_REPRESENTATION_CONTEXT ( 3 ) GLOBAL_UNCERTAINTY_ASSIGNED_CONTEXT ( ( #302 ) ) GLOBAL_UNIT_ASSIGNED_CONTEXT ( ( #26, #214, #170 ) ) REPRESENTATION_CONTEXT ( 'NONE', 'WORKASPACE' ) );
#271 = DIRECTION ( 'NONE',  ( 0.000000000000000000, -1.000000000000000000, -1.321694076934710155E-16 ) ) ;
#272 = APPLICATION_CONTEXT ( 'automotive_design' ) ;
#273 = PRODUCT_RELATED_PRODUCT_CATEGORY ( 'part', '', ( #497 ) ) ;
#274 =( NAMED_UNIT ( * ) PLANE_ANGLE_UNIT ( ) SI_UNIT ( $, .RADIAN. ) );
#275 = APPLIED_EXTERNAL_IDENTIFICATION_ASSIGNMENT ( 'enclosure_top_cover.STEP' , #300, #342,( #24) ) ;
#276 = CARTESIAN_POINT ( 'NONE',  ( 32.38838476408572831, 25.75529892363508466, -19.01599749905721026 ) ) ;
#277 = SHAPE_REPRESENTATION ( 'enclosure_front_cover', ( #316 ), #293 ) ;
#278 = SHAPE_DEFINITION_REPRESENTATION ( #607, #589 ) ;
#279 = APPLICATION_CONTEXT ( 'automotive_design' ) ;
#280 = APPLICATION_CONTEXT ( 'automotive_design' ) ;
#281 = ITEM_DEFINED_TRANSFORMATION ( 'NONE', 'NONE', #119,  #316 ) ;
#282 = PRODUCT_DEFINITION_SHAPE ( 'NONE', 'NONE',  #622 ) ;
#283 =( NAMED_UNIT ( * ) PLANE_ANGLE_UNIT ( ) SI_UNIT ( $, .RADIAN. ) );
#284 = APPLICATION_PROTOCOL_DEFINITION ( 'draft international standard', 'automotive_design', 1998, #496 ) ;
#285 = APPLICATION_PROTOCOL_DEFINITION ( 'draft international standard', 'automotive_design', 1998, #78 ) ;
#286 = PRODUCT_DEFINITION_SHAPE ( 'NONE', 'NONE',  #624 ) ;
#287 = APPLICATION_CONTEXT ( 'automotive_design' ) ;
#288 = CARTESIAN_POINT ( 'NONE',  ( 0.000000000000000000, 0.000000000000000000, 0.000000000000000000 ) ) ;
#289 = PROPERTY_DEFINITION_REPRESENTATION ( #498, #258 ) ;
#290 = PROPERTY_DEFINITION ('document property','', #148 ) ;
#291 = PROPERTY_DEFINITION ('external definition','', #372 ) ;
#292 = CONTEXT_DEPENDENT_SHAPE_REPRESENTATION ( #237, #236 ) ;
#293 =( GEOMETRIC_REPRESENTATION_CONTEXT ( 3 ) GLOBAL_UNCERTAINTY_ASSIGNED_CONTEXT ( ( #161 ) ) GLOBAL_UNIT_ASSIGNED_CONTEXT ( ( #233, #427, #47 ) ) REPRESENTATION_CONTEXT ( 'NONE', 'WORKASPACE' ) );
#294 = UNCERTAINTY_MEASURE_WITH_UNIT (LENGTH_MEASURE( 1.000000000000000082E-05 ), #433, 'distance_accuracy_value', 'NONE');
#295 = AXIS2_PLACEMENT_3D ( 'NONE', #510, #426, #193 ) ;
#296 = PRODUCT_RELATED_PRODUCT_CATEGORY ( 'part', '', ( #600 ) ) ;
#297 = UNCERTAINTY_MEASURE_WITH_UNIT (LENGTH_MEASURE( 1.000000000000000082E-05 ), #319, 'distance_accuracy_value', 'NONE');
#298 = DOCUMENT_FILE ( 'enclosure_main_chassis.STEP' , '', '', #345, '' ,$ ) ;
#299 = PROPERTY_DEFINITION ('external definition','', #28 ) ;
#300 = IDENTIFICATION_ROLE ( 'external document id and location', $) ;
#301 = APPLICATION_CONTEXT ( 'automotive_design' ) ;
#302 = UNCERTAINTY_MEASURE_WITH_UNIT (LENGTH_MEASURE( 1.000000000000000082E-05 ), #26, 'distance_accuracy_value', 'NONE');
#303 = DOCUMENT_TYPE ( 'geometry' ) ;
#304 = PRODUCT_CONTEXT ( 'NONE', #129, 'mechanical' ) ;
#305 = PRODUCT_DEFINITION_FORMATION_WITH_SPECIFIED_SOURCE ( 'Symmetric', '', #40, .NOT_KNOWN. ) ;
#306 = PRODUCT ( 'enclosure_front_cover', 'enclosure_front_cover', '', ( #489 ) ) ;
#307 = ROLE_ASSOCIATION ( #94, #33 ) ;
#308 = SHAPE_DEFINITION_REPRESENTATION ( #120, #431 ) ;
#309 = APPLICATION_CONTEXT ( 'automotive_design' ) ;
#310 = PRODUCT_DEFINITION ( 'General', '', #590, #122 ) ;
#311 = APPLIED_DOCUMENT_REFERENCE ( #359,'',( #562) ) ;
#312 = DIRECTION ( 'NONE',  ( 1.000000000000000000, 0.000000000000000000, 0.000000000000000000 ) ) ;
#313 = DIRECTION ( 'NONE',  ( -1.000000000000000000, 3.882923274974288043E-34, -3.469446951953634218E-18 ) ) ;
#314 = PRODUCT_DEFINITION_SHAPE ( 'NONE', 'NONE',  #613 ) ;
#315 =( NAMED_UNIT ( * ) PLANE_ANGLE_UNIT ( ) SI_UNIT ( $, .RADIAN. ) );
#316 = AXIS2_PLACEMENT_3D ( 'NONE', #136, #466, #52 ) ;
#317 = PRODUCT_CONTEXT ( 'NONE', #309, 'mechanical' ) ;
#318 =( REPRESENTATION_RELATIONSHIP ('NONE','NONE', #156, #75 ) REPRESENTATION_RELATIONSHIP_WITH_TRANSFORMATION ( #114 )SHAPE_REPRESENTATION_RELATIONSHIP( ) );
#319 =( LENGTH_UNIT ( ) NAMED_UNIT ( * ) SI_UNIT ( .MILLI., .METRE. ) );
#320 = SHAPE_DEFINITION_REPRESENTATION ( #547, #258 ) ;
#321 = CARTESIAN_POINT ( 'NONE',  ( 0.000000000000000000, 0.000000000000000000, 0.000000000000000000 ) ) ;
#322 = APPLICATION_CONTEXT ( 'automotive_design' ) ;
#323 = APPLICATION_PROTOCOL_DEFINITION ( 'draft international standard', 'automotive_design', 1998, #154 ) ;
#324 = CONTEXT_DEPENDENT_SHAPE_REPRESENTATION ( #514, #135 ) ;
#325 = DOCUMENT_FILE ( 'pololu_buck_converter.STEP' , '', '', #184, '' ,$ ) ;
#326 = AXIS2_PLACEMENT_3D ( 'NONE', #187, #377, #142 ) ;
#327 = PRODUCT_DEFINITION ( 'General', '', #128, #501 ) ;
#328 =( NAMED_UNIT ( * ) PLANE_ANGLE_UNIT ( ) SI_UNIT ( $, .RADIAN. ) );
#329 = SHAPE_DEFINITION_REPRESENTATION ( #504, #523 ) ;
#330 = DIRECTION ( 'NONE',  ( 0.000000000000000000, -1.000000000000000000, -4.163336342344337027E-17 ) ) ;
#331 =( REPRESENTATION_RELATIONSHIP ('NONE','NONE', #156, #258 ) REPRESENTATION_RELATIONSHIP_WITH_TRANSFORMATION ( #437 )SHAPE_REPRESENTATION_RELATIONSHIP( ) );
#332 = PRODUCT_RELATED_PRODUCT_CATEGORY ( 'part', '', ( #131 ) ) ;
#333 =( NAMED_UNIT ( * ) SI_UNIT ( $, .STERADIAN. ) SOLID_ANGLE_UNIT ( ) );
#334 = APPLICATION_PROTOCOL_DEFINITION ( 'draft international standard', 'automotive_design', 1998, #272 ) ;
#335 = OBJECT_ROLE ('mandatory',$ ) ;
#336 = CARTESIAN_POINT ( 'NONE',  ( 0.000000000000000000, 0.000000000000000000, 0.000000000000000000 ) ) ;
#337 = APPLIED_DOCUMENT_REFERENCE ( #194,'',( #521) ) ;
#338 = UNCERTAINTY_MEASURE_WITH_UNIT (LENGTH_MEASURE( 1.000000000000000082E-05 ), #517, 'distance_accuracy_value', 'NONE');
#339 = CARTESIAN_POINT ( 'NONE',  ( 0.000000000000000000, 0.000000000000000000, 0.000000000000000000 ) ) ;
#340 = PRODUCT_DEFINITION_FORMATION_WITH_SPECIFIED_SOURCE ( 'Symmetric', '', #352, .NOT_KNOWN. ) ;
#341 = ROLE_ASSOCIATION ( #81, #204 ) ;
#342 = EXTERNAL_SOURCE (IDENTIFIER('') ) ;
#343 = DOCUMENT_FILE ( 'mount_twist_lock_magnetic_radio.STEP' , '', '', #520, '' ,$ ) ;
#344 = APPLIED_EXTERNAL_IDENTIFICATION_ASSIGNMENT ( 'gnns gps.STEP' , #41, #500,( #28) ) ;
#345 = DOCUMENT_TYPE ( 'geometry' ) ;
#346 = PROPERTY_DEFINITION_REPRESENTATION ( #17, #523 ) ;
#347 = AXIS2_PLACEMENT_3D ( 'NONE', #84, #103, #139 ) ;
#348 = PRODUCT_DEFINITION_CONTEXT ( 'detailed design', #279, 'design' ) ;
#349 = PRODUCT_DEFINITION_CONTEXT ( 'detailed design', #569, 'design' ) ;
#350 = UNCERTAINTY_MEASURE_WITH_UNIT (LENGTH_MEASURE( 1.000000000000000082E-05 ), #195, 'distance_accuracy_value', 'NONE');
#351 = PROPERTY_DEFINITION_REPRESENTATION ( #438, #75 ) ;
#352 = PRODUCT ( 'gasket_front_cover', 'gasket_front_cover', '', ( #484 ) ) ;
#353 = AXIS2_PLACEMENT_3D ( 'NONE', #108, #513, #469 ) ;
#354 =( NAMED_UNIT ( * ) SI_UNIT ( $, .STERADIAN. ) SOLID_ANGLE_UNIT ( ) );
#355 = AXIS2_PLACEMENT_3D ( 'NONE', #39, #436, #503 ) ;
#356 = APPLIED_DOCUMENT_REFERENCE ( #298,'',( #310) ) ;
#357 = IDENTIFICATION_ROLE ( 'external document id and location', $) ;
#358 =( NAMED_UNIT ( * ) SI_UNIT ( $, .STERADIAN. ) SOLID_ANGLE_UNIT ( ) );
#359 = DOCUMENT_FILE ( 'Mpu5 antenna.STEP' , '', '', #530, '' ,$ ) ;
#360 = APPLICATION_PROTOCOL_DEFINITION ( 'draft international standard', 'automotive_design', 1998, #241 ) ;
#361 = EXTERNAL_SOURCE (IDENTIFIER('') ) ;
#362 = AXIS2_PLACEMENT_3D ( 'NONE', #486, #150, #474 ) ;
#363 = DIRECTION ( 'NONE',  ( -5.203337006618800548E-50, 1.000000000000000000, 1.224646799147353700E-16 ) ) ;
#364 = PRODUCT_DEFINITION_FORMATION_WITH_SPECIFIED_SOURCE ( 'Symmetric', '', #497, .NOT_KNOWN. ) ;
#365 = PRODUCT_RELATED_PRODUCT_CATEGORY ( 'part', '', ( #352 ) ) ;
#366 = DIRECTION ( 'NONE',  ( 0.000000000000000000, 0.000000000000000000, 1.000000000000000000 ) ) ;
#367 = PROPERTY_DEFINITION ('external definition','', #194 ) ;
#368 = PRODUCT_CONTEXT ( 'NONE', #524, 'mechanical' ) ;
#369 = DIRECTION ( 'NONE',  ( 1.000000000000000000, 0.000000000000000000, 0.000000000000000000 ) ) ;
#370 = SHAPE_REPRESENTATION ( 'gasket_front_cover', ( #355 ), #243 ) ;
#371 =( REPRESENTATION_RELATIONSHIP ('NONE','NONE', #156, #257 ) REPRESENTATION_RELATIONSHIP_WITH_TRANSFORMATION ( #511 )SHAPE_REPRESENTATION_RELATIONSHIP( ) );
#372 = DOCUMENT_FILE ( 'middel part.STEP' , '', '', #552, '' ,$ ) ;
#373 = CARTESIAN_POINT ( 'NONE',  ( -2.611615235914265032, 17.75529892363509532, -24.11599749905720458 ) ) ;
#374 = PROPERTY_DEFINITION ('external definition','', #148 ) ;
#375 = CARTESIAN_POINT ( 'NONE',  ( 0.000000000000000000, 0.000000000000000000, 0.000000000000000000 ) ) ;
#376 = OBJECT_ROLE ('mandatory',$ ) ;
#377 = DIRECTION ( 'NONE',  ( 0.000000000000000000, -1.000000000000000000, 0.000000000000000000 ) ) ;
#378 = PROPERTY_DEFINITION_REPRESENTATION ( #563, #183 ) ;
#379 =( NAMED_UNIT ( * ) PLANE_ANGLE_UNIT ( ) SI_UNIT ( $, .RADIAN. ) );
#380 = SHAPE_DEFINITION_REPRESENTATION ( #516, #183 ) ;
#381 = PROPERTY_DEFINITION ('document property','', #359 ) ;
#382 = PRODUCT_CONTEXT ( 'NONE', #10, 'mechanical' ) ;
#383 = OBJECT_ROLE ('mandatory',$ ) ;
#384 =( GEOMETRIC_REPRESENTATION_CONTEXT ( 3 ) GLOBAL_UNCERTAINTY_ASSIGNED_CONTEXT ( ( #255 ) ) GLOBAL_UNIT_ASSIGNED_CONTEXT ( ( #190, #379, #226 ) ) REPRESENTATION_CONTEXT ( 'NONE', 'WORKASPACE' ) );
#385 = APPLIED_DOCUMENT_REFERENCE ( #148,'',( #499) ) ;
#386 = AXIS2_PLACEMENT_3D ( 'NONE', #104, #229, #482 ) ;
#387 = APPLICATION_PROTOCOL_DEFINITION ( 'draft international standard', 'automotive_design', 1998, #208 ) ;
#388 = PROPERTY_DEFINITION_REPRESENTATION ( #290, #239 ) ;
#389 = PRODUCT_CONTEXT ( 'NONE', #143, 'mechanical' ) ;
#390 = DOCUMENT_TYPE ( 'geometry' ) ;
#391 = DOCUMENT_FILE ( 'gasket_heatsink_external.STEP' , '', '', #64, '' ,$ ) ;
#392 = APPLICATION_CONTEXT ( 'automotive_design' ) ;
#393 = APPLIED_EXTERNAL_IDENTIFICATION_ASSIGNMENT ( 'pololu_buck_converter.STEP' , #591, #228,( #325) ) ;
#394 = PROPERTY_DEFINITION_REPRESENTATION ( #240, #258 ) ;
#395 = PRODUCT_DEFINITION_SHAPE ( 'NONE', 'NONE',  #611 ) ;
#396 = PROPERTY_DEFINITION ('document property','', #343 ) ;
#397 = UNCERTAINTY_MEASURE_WITH_UNIT (LENGTH_MEASURE( 1.000000000000000082E-05 ), #574, 'distance_accuracy_value', 'NONE');
#398 = ROLE_ASSOCIATION ( #538, #253 ) ;
#399 = APPLIED_EXTERNAL_IDENTIFICATION_ASSIGNMENT ( 'bottom seal.STEP' , #463, #212,( #402) ) ;
#400 = PRODUCT_DEFINITION_SHAPE ( 'NONE', 'NONE',  #468 ) ;
#401 = PROPERTY_DEFINITION ('document property','', #544 ) ;
#402 = DOCUMENT_FILE ( 'bottom seal.STEP' , '', '', #6, '' ,$ ) ;
#403 = OBJECT_ROLE ('mandatory',$ ) ;
#404 = PRODUCT_DEFINITION_CONTEXT ( 'detailed design', #249, 'design' ) ;
#405 = IDENTIFICATION_ROLE ( 'external document id and location', $) ;
#406 = SHAPE_REPRESENTATION ( 'mount_twist_lock_magnetic_radio', ( #465 ), #601 ) ;
#407 = DIRECTION ( 'NONE',  ( 0.000000000000000000, 0.000000000000000000, 1.000000000000000000 ) ) ;
#408 = DIRECTION ( 'NONE',  ( 3.469446951953614189E-18, 0.000000000000000000, -1.000000000000000000 ) ) ;
#409 = AXIS2_PLACEMENT_3D ( 'NONE', #551, #271, #264 ) ;
#410 = OBJECT_ROLE ('mandatory',$ ) ;
#411 = PROPERTY_DEFINITION_REPRESENTATION ( #198, #586 ) ;
#412 =( LENGTH_UNIT ( ) NAMED_UNIT ( * ) SI_UNIT ( .MILLI., .METRE. ) );
#413 = PRODUCT_DEFINITION ( 'General', '', #79, #348 ) ;
#414 = PROPERTY_DEFINITION ('document property','', #325 ) ;
#415 = DIRECTION ( 'NONE',  ( 0.000000000000000000, 0.000000000000000000, 1.000000000000000000 ) ) ;
#416 = PRODUCT_CONTEXT ( 'NONE', #301, 'mechanical' ) ;
#417 = PRODUCT_CONTEXT ( 'NONE', #100, 'mechanical' ) ;
#418 = DIRECTION ( 'NONE',  ( 0.000000000000000000, 1.000000000000000222, 6.245004513516505540E-16 ) ) ;
#419 =( REPRESENTATION_RELATIONSHIP ('NONE','NONE', #156, #431 ) REPRESENTATION_RELATIONSHIP_WITH_TRANSFORMATION ( #546 )SHAPE_REPRESENTATION_RELATIONSHIP( ) );
#420 = APPLICATION_PROTOCOL_DEFINITION ( 'draft international standard', 'automotive_design', 1998, #113 ) ;
#421 = DIRECTION ( 'NONE',  ( 0.000000000000000000, 1.000000000000000000, 0.000000000000000000 ) ) ;
#422 = PRODUCT_DEFINITION_FORMATION_WITH_SPECIFIED_SOURCE ( 'Symmetric', '', #600, .NOT_KNOWN. ) ;
#423 = APPLICATION_CONTEXT ( 'automotive_design' ) ;
#424 = DIRECTION ( 'NONE',  ( 1.000000000000000000, 0.000000000000000000, 0.000000000000000000 ) ) ;
#425 = PROPERTY_DEFINITION_REPRESENTATION ( #219, #183 ) ;
#426 = DIRECTION ( 'NONE',  ( 0.000000000000000000, 0.000000000000000000, 1.000000000000000000 ) ) ;
#427 =( NAMED_UNIT ( * ) PLANE_ANGLE_UNIT ( ) SI_UNIT ( $, .RADIAN. ) );
#428 = APPLICATION_PROTOCOL_DEFINITION ( 'draft international standard', 'automotive_design', 1998, #533 ) ;
#429 = PRODUCT_RELATED_PRODUCT_CATEGORY ( 'part', '', ( #40 ) ) ;
#430 = SHAPE_DEFINITION_REPRESENTATION ( #464, #239 ) ;
#431 = SHAPE_REPRESENTATION ( 'bottom seal', ( #242 ), #141 ) ;
#432 =( REPRESENTATION_RELATIONSHIP ('NONE','NONE', #156, #98 ) REPRESENTATION_RELATIONSHIP_WITH_TRANSFORMATION ( #124 )SHAPE_REPRESENTATION_RELATIONSHIP( ) );
#433 =( LENGTH_UNIT ( ) NAMED_UNIT ( * ) SI_UNIT ( .MILLI., .METRE. ) );
#434 = ITEM_DEFINED_TRANSFORMATION ( 'NONE', 'NONE', #362,  #458 ) ;
#435 = APPLICATION_CONTEXT ( 'automotive_design' ) ;
#436 = DIRECTION ( 'NONE',  ( 0.000000000000000000, 0.000000000000000000, 1.000000000000000000 ) ) ;
#437 = ITEM_DEFINED_TRANSFORMATION ( 'NONE', 'NONE', #409,  #353 ) ;
#438 = PROPERTY_DEFINITION ('document property','', #24 ) ;
#439 = PRODUCT_RELATED_PRODUCT_CATEGORY ( 'part', '', ( #32 ) ) ;
#440 = DIRECTION ( 'NONE',  ( 1.000000000000000000, 0.000000000000000000, 0.000000000000000000 ) ) ;
#441 = APPLIED_DOCUMENT_REFERENCE ( #343,'',( #583) ) ;
#442 = PRODUCT_RELATED_PRODUCT_CATEGORY ( 'part', '', ( #211 ) ) ;
#443 = PROPERTY_DEFINITION ('document property','', #298 ) ;
#444 = DOCUMENT_TYPE ( 'geometry' ) ;
#445 = PRODUCT_RELATED_PRODUCT_CATEGORY ( 'part', '', ( #306 ) ) ;
#446 = ROLE_ASSOCIATION ( #492, #495 ) ;
#447 = IDENTIFICATION_ROLE ( 'external document id and location', $) ;
#448 = PRODUCT ( 'gnns gps', 'gnns gps', '', ( #561 ) ) ;
#449 = CONTEXT_DEPENDENT_SHAPE_REPRESENTATION ( #318, #491 ) ;
#450 = IDENTIFICATION_ROLE ( 'external document id and location', $) ;
#451 = PRODUCT_DEFINITION_CONTEXT ( 'detailed design', #505, 'design' ) ;
#452 = DIRECTION ( 'NONE',  ( 0.000000000000000000, 0.000000000000000000, 1.000000000000000000 ) ) ;
#453 = APPLICATION_CONTEXT ( 'automotive_design' ) ;
#454 = PROPERTY_DEFINITION_REPRESENTATION ( #291, #586 ) ;
#455 = APPLICATION_PROTOCOL_DEFINITION ( 'draft international standard', 'automotive_design', 1998, #453 ) ;
#456 = PRODUCT_DEFINITION_SHAPE ( 'NONE', 'NONE',  #521 ) ;
#457 = DIRECTION ( 'NONE',  ( -0.7666174936689548192, -0.6421040557423149941, -4.319927676918364540E-19 ) ) ;
#458 = AXIS2_PLACEMENT_3D ( 'NONE', #375, #415, #312 ) ;
#459 = AXIS2_PLACEMENT_3D ( 'NONE', #373, #363, #133 ) ;
#460 = PROPERTY_DEFINITION_REPRESENTATION ( #381, #257 ) ;
#461 = DIRECTION ( 'NONE',  ( 3.469446951953634218E-18, 1.119176436114069085E-16, -1.000000000000000000 ) ) ;
#462 = PRODUCT_DEFINITION_CONTEXT ( 'detailed design', #435, 'design' ) ;
#463 = IDENTIFICATION_ROLE ( 'external document id and location', $) ;
#464 = PRODUCT_DEFINITION_SHAPE ( 'NONE', 'NONE',  #499 ) ;
#465 = AXIS2_PLACEMENT_3D ( 'NONE', #288, #452, #369 ) ;
#466 = DIRECTION ( 'NONE',  ( 0.000000000000000000, 0.000000000000000000, 1.000000000000000000 ) ) ;
#467 = APPLICATION_PROTOCOL_DEFINITION ( 'draft international standard', 'automotive_design', 1998, #435 ) ;
#468 = PRODUCT_DEFINITION ( 'General', '', #340, #404 ) ;
#469 = DIRECTION ( 'NONE',  ( 1.000000000000000000, 0.000000000000000000, 0.000000000000000000 ) ) ;
#470 = APPLICATION_CONTEXT ( 'automotive_design' ) ;
#471 =( GEOMETRIC_REPRESENTATION_CONTEXT ( 3 ) GLOBAL_UNCERTAINTY_ASSIGNED_CONTEXT ( ( #594 ) ) GLOBAL_UNIT_ASSIGNED_CONTEXT ( ( #412, #174, #181 ) ) REPRESENTATION_CONTEXT ( 'NONE', 'WORKASPACE' ) );
#472 = CARTESIAN_POINT ( 'NONE',  ( 0.000000000000000000, 0.000000000000000000, 0.000000000000000000 ) ) ;
#473 = SHAPE_DEFINITION_REPRESENTATION ( #541, #156 ) ;
#474 = DIRECTION ( 'NONE',  ( 0.000000000000000000, -1.000000000000000000, 0.000000000000000000 ) ) ;
#475 = ROLE_ASSOCIATION ( #410, #337 ) ;
#476 = EXTERNAL_SOURCE (IDENTIFIER('') ) ;
#477 = APPLICATION_PROTOCOL_DEFINITION ( 'draft international standard', 'automotive_design', 1998, #10 ) ;
#478 = PRODUCT ( 'middel part', 'middel part', '', ( #317 ) ) ;
#479 = DIRECTION ( 'NONE',  ( 0.000000000000000000, 0.000000000000000000, 1.000000000000000000 ) ) ;
#480 = APPLIED_DOCUMENT_REFERENCE ( #189,'',( #537) ) ;
#481 =( REPRESENTATION_RELATIONSHIP ('NONE','NONE', #156, #183 ) REPRESENTATION_RELATIONSHIP_WITH_TRANSFORMATION ( #434 )SHAPE_REPRESENTATION_RELATIONSHIP( ) );
#482 = DIRECTION ( 'NONE',  ( -2.220446049250312095E-16, 0.000000000000000000, -1.000000000000000000 ) ) ;
#483 = EXTERNAL_SOURCE (IDENTIFIER('') ) ;
#484 = PRODUCT_CONTEXT ( 'NONE', #272, 'mechanical' ) ;
#485 = PROPERTY_DEFINITION ('external definition','', #343 ) ;
#486 = CARTESIAN_POINT ( 'NONE',  ( 32.18895101850928597, 40.25529892363508111, 90.48400250094276487 ) ) ;
#487 = EXTERNAL_SOURCE (IDENTIFIER('') ) ;
#488 = AXIS2_PLACEMENT_3D ( 'NONE', #95, #479, #56 ) ;
#489 = PRODUCT_CONTEXT ( 'NONE', #78, 'mechanical' ) ;
#490 = UNCERTAINTY_MEASURE_WITH_UNIT (LENGTH_MEASURE( 1.000000000000000082E-05 ), #50, 'distance_accuracy_value', 'NONE');
#491 = PRODUCT_DEFINITION_SHAPE ( 'NONE', 'NONE',  #618 ) ;
#492 = OBJECT_ROLE ('mandatory',$ ) ;
#493 = AXIS2_PLACEMENT_3D ( 'NONE', #178, #366, #37 ) ;
#494 = DIRECTION ( 'NONE',  ( 1.000000000000000000, 0.000000000000000000, 0.000000000000000000 ) ) ;
#495 = APPLIED_DOCUMENT_REFERENCE ( #544,'',( #468) ) ;
#496 = APPLICATION_CONTEXT ( 'automotive_design' ) ;
#497 = PRODUCT ( 'gasket_top_cover', 'gasket_top_cover', '', ( #532 ) ) ;
#498 = PROPERTY_DEFINITION ('document property','', #391 ) ;
#499 = PRODUCT_DEFINITION ( 'General', '', #16, #167 ) ;
#500 = EXTERNAL_SOURCE (IDENTIFIER('') ) ;
#501 = PRODUCT_DEFINITION_CONTEXT ( 'detailed design', #533, 'design' ) ;
#502 = CONTEXT_DEPENDENT_SHAPE_REPRESENTATION ( #543, #252 ) ;
#503 = DIRECTION ( 'NONE',  ( 1.000000000000000000, 0.000000000000000000, 0.000000000000000000 ) ) ;
#504 = PRODUCT_DEFINITION_SHAPE ( 'NONE', 'NONE',  #310 ) ;
#505 = APPLICATION_CONTEXT ( 'automotive_design' ) ;
#506 = ROLE_ASSOCIATION ( #157, #441 ) ;
#507 = APPLIED_EXTERNAL_IDENTIFICATION_ASSIGNMENT ( 'enclosure_main_chassis.STEP' , #192, #604,( #298) ) ;
#508 = APPLICATION_PROTOCOL_DEFINITION ( 'draft international standard', 'automotive_design', 1998, #569 ) ;
#509 = PRODUCT ( 'heatsink_external_70x70x3-6mm', 'heatsink_external_70x70x3-6mm', '', ( #389 ) ) ;
#510 = CARTESIAN_POINT ( 'NONE',  ( 0.000000000000000000, 0.000000000000000000, 0.000000000000000000 ) ) ;
#511 = ITEM_DEFINED_TRANSFORMATION ( 'NONE', 'NONE', #577,  #493 ) ;
#512 = SHAPE_DEFINITION_REPRESENTATION ( #25, #98 ) ;
#513 = DIRECTION ( 'NONE',  ( 0.000000000000000000, 0.000000000000000000, 1.000000000000000000 ) ) ;
#514 =( REPRESENTATION_RELATIONSHIP ('NONE','NONE', #156, #239 ) REPRESENTATION_RELATIONSHIP_WITH_TRANSFORMATION ( #9 )SHAPE_REPRESENTATION_RELATIONSHIP( ) );
#515 = PROPERTY_DEFINITION_REPRESENTATION ( #573, #257 ) ;
#516 = PRODUCT_DEFINITION_SHAPE ( 'NONE', 'NONE',  #537 ) ;
#517 =( LENGTH_UNIT ( ) NAMED_UNIT ( * ) SI_UNIT ( .MILLI., .METRE. ) );
#518 = IDENTIFICATION_ROLE ( 'external document id and location', $) ;
#519 = PROPERTY_DEFINITION ('document property','', #250 ) ;
#520 = DOCUMENT_TYPE ( 'geometry' ) ;
#521 = PRODUCT_DEFINITION ( 'General', '', #159, #549 ) ;
#522 = APPLICATION_PROTOCOL_DEFINITION ( 'draft international standard', 'automotive_design', 1998, #45 ) ;
#523 = SHAPE_REPRESENTATION ( 'enclosure_main_chassis', ( #488 ), #151 ) ;
#524 = APPLICATION_CONTEXT ( 'automotive_design' ) ;
#525 = AXIS2_PLACEMENT_3D ( 'NONE', #225, #418, #116 ) ;
#526 =( NAMED_UNIT ( * ) SI_UNIT ( $, .STERADIAN. ) SOLID_ANGLE_UNIT ( ) );
#527 = APPLIED_EXTERNAL_IDENTIFICATION_ASSIGNMENT ( 'heatsink_external_70x70x3-6mm.STEP' , #405, #361,( #148) ) ;
#528 = PROPERTY_DEFINITION_REPRESENTATION ( #374, #239 ) ;
#529 = CARTESIAN_POINT ( 'NONE',  ( -37.61161523591427169, -4.744701076364918002, -16.51599749905721382 ) ) ;
#530 = DOCUMENT_TYPE ( 'geometry' ) ;
#531 = APPLICATION_PROTOCOL_DEFINITION ( 'draft international standard', 'automotive_design', 1998, #249 ) ;
#532 = PRODUCT_CONTEXT ( 'NONE', #578, 'mechanical' ) ;
#533 = APPLICATION_CONTEXT ( 'automotive_design' ) ;
#534 = PRODUCT_DEFINITION_FORMATION_WITH_SPECIFIED_SOURCE ( 'Symmetric', '', #559, .NOT_KNOWN. ) ;
#535 = PROPERTY_DEFINITION ('external definition','', #544 ) ;
#536 =( NAMED_UNIT ( * ) SI_UNIT ( $, .STERADIAN. ) SOLID_ANGLE_UNIT ( ) );
#537 = PRODUCT_DEFINITION ( 'General', '', #364, #451 ) ;
#538 = OBJECT_ROLE ('mandatory',$ ) ;
#539 = PRODUCT_DEFINITION_CONTEXT ( 'detailed design', #208, 'design' ) ;
#540 = APPLIED_EXTERNAL_IDENTIFICATION_ASSIGNMENT ( 'gasket_heatsink_external.STEP' , #357, #15,( #391) ) ;
#541 = PRODUCT_DEFINITION_SHAPE ( 'NONE', 'NONE',  #152 ) ;
#542 = PRODUCT_DEFINITION ( 'General', '', #305, #254 ) ;
#543 =( REPRESENTATION_RELATIONSHIP ('NONE','NONE', #156, #589 ) REPRESENTATION_RELATIONSHIP_WITH_TRANSFORMATION ( #162 )SHAPE_REPRESENTATION_RELATIONSHIP( ) );
#544 = DOCUMENT_FILE ( 'gasket_front_cover.STEP' , '', '', #303, '' ,$ ) ;
#545 = DOCUMENT_TYPE ( 'geometry' ) ;
#546 = ITEM_DEFINED_TRANSFORMATION ( 'NONE', 'NONE', #146,  #242 ) ;
#547 = PRODUCT_DEFINITION_SHAPE ( 'NONE', 'NONE',  #222 ) ;
#548 = PRODUCT_DEFINITION_SHAPE ( 'NONE', 'NONE',  #621 ) ;
#549 = PRODUCT_DEFINITION_CONTEXT ( 'detailed design', #113, 'design' ) ;
#550 = PROPERTY_DEFINITION_REPRESENTATION ( #259, #589 ) ;
#551 = CARTESIAN_POINT ( 'NONE',  ( 32.38838476408572831, -3.244701076364918446, -16.51599749905721382 ) ) ;
#552 = DOCUMENT_TYPE ( 'geometry' ) ;
#553 = CONTEXT_DEPENDENT_SHAPE_REPRESENTATION ( #565, #286 ) ;
#554 = SHAPE_DEFINITION_REPRESENTATION ( #70, #406 ) ;
#555 =( REPRESENTATION_RELATIONSHIP ('NONE','NONE', #156, #277 ) REPRESENTATION_RELATIONSHIP_WITH_TRANSFORMATION ( #281 )SHAPE_REPRESENTATION_RELATIONSHIP( ) );
#556 = PROPERTY_DEFINITION_REPRESENTATION ( #247, #98 ) ;
#557 = APPLIED_EXTERNAL_IDENTIFICATION_ASSIGNMENT ( 'enclosure_front_cover.STEP' , #171, #483,( #194) ) ;
#558 = CARTESIAN_POINT ( 'NONE',  ( -25.10447888808136696, 2.255298923635074004, 109.4840025009427933 ) ) ;
#559 = PRODUCT ( 'enclosure_top_cover', 'enclosure_top_cover', '', ( #304 ) ) ;
#560 = PROPERTY_DEFINITION_REPRESENTATION ( #299, #98 ) ;
#561 = PRODUCT_CONTEXT ( 'NONE', #423, 'mechanical' ) ;
#562 = PRODUCT_DEFINITION ( 'General', '', #203, #462 ) ;
#563 = PROPERTY_DEFINITION ('document property','', #189 ) ;
#564 = CARTESIAN_POINT ( 'NONE',  ( 19.88124841625284134, 2.255298923635074004, 157.4840025009428075 ) ) ;
#565 =( REPRESENTATION_RELATIONSHIP ('NONE','NONE', #156, #586 ) REPRESENTATION_RELATIONSHIP_WITH_TRANSFORMATION ( #130 )SHAPE_REPRESENTATION_RELATIONSHIP( ) );
#566 = CONTEXT_DEPENDENT_SHAPE_REPRESENTATION ( #371, #121 ) ;
#567 = DIRECTION ( 'NONE',  ( 1.000000000000000000, 0.000000000000000000, 0.000000000000000000 ) ) ;
#568 = SHAPE_REPRESENTATION ( 'pololu_buck_converter', ( #35 ), #384 ) ;
#569 = APPLICATION_CONTEXT ( 'automotive_design' ) ;
#570 = DIRECTION ( 'NONE',  ( 1.000000000000000000, 0.000000000000000000, 0.000000000000000000 ) ) ;
#571 =( GEOMETRIC_REPRESENTATION_CONTEXT ( 3 ) GLOBAL_UNCERTAINTY_ASSIGNED_CONTEXT ( ( #596 ) ) GLOBAL_UNIT_ASSIGNED_CONTEXT ( ( #260, #315, #210 ) ) REPRESENTATION_CONTEXT ( 'NONE', 'WORKASPACE' ) );
#572 =( NAMED_UNIT ( * ) PLANE_ANGLE_UNIT ( ) SI_UNIT ( $, .RADIAN. ) );
#573 = PROPERTY_DEFINITION ('external definition','', #359 ) ;
#574 =( LENGTH_UNIT ( ) NAMED_UNIT ( * ) SI_UNIT ( .MILLI., .METRE. ) );
#575 = ITEM_DEFINED_TRANSFORMATION ( 'NONE', 'NONE', #386,  #35 ) ;
#576 = DIRECTION ( 'NONE',  ( 1.000000000000000000, 0.000000000000000000, 0.000000000000000000 ) ) ;
#577 = AXIS2_PLACEMENT_3D ( 'NONE', #558, #457, #213 ) ;
#578 = APPLICATION_CONTEXT ( 'automotive_design' ) ;
#579 = ROLE_ASSOCIATION ( #160, #385 ) ;
#580 = CARTESIAN_POINT ( 'NONE',  ( -37.61161523591427169, 25.75529892363508466, -16.51599749905722092 ) ) ;
#581 = APPLICATION_PROTOCOL_DEFINITION ( 'draft international standard', 'automotive_design', 1998, #470 ) ;
#582 = OBJECT_ROLE ('mandatory',$ ) ;
#583 = PRODUCT_DEFINITION ( 'General', '', #422, #595 ) ;
#584 =( NAMED_UNIT ( * ) SI_UNIT ( $, .STERADIAN. ) SOLID_ANGLE_UNIT ( ) );
#585 = PRODUCT_CONTEXT ( 'NONE', #496, 'mechanical' ) ;
#586 = SHAPE_REPRESENTATION ( 'middel part', ( #295 ), #609 ) ;
#587 =( LENGTH_UNIT ( ) NAMED_UNIT ( * ) SI_UNIT ( .MILLI., .METRE. ) );
#588 = APPLIED_DOCUMENT_REFERENCE ( #391,'',( #222) ) ;
#589 = SHAPE_REPRESENTATION ( 'raspberry_pi4_wm6108_halow_stack', ( #220 ), #74 ) ;
#590 = PRODUCT_DEFINITION_FORMATION_WITH_SPECIFIED_SOURCE ( 'Symmetric', '', #211, .NOT_KNOWN. ) ;
#591 = IDENTIFICATION_ROLE ( 'external document id and location', $) ;
#592 = PROPERTY_DEFINITION_REPRESENTATION ( #519, #589 ) ;
#593 = PRODUCT_DEFINITION_SHAPE ( 'NONE', 'NONE',  #562 ) ;
#594 = UNCERTAINTY_MEASURE_WITH_UNIT (LENGTH_MEASURE( 1.000000000000000082E-05 ), #412, 'distance_accuracy_value', 'NONE');
#595 = PRODUCT_DEFINITION_CONTEXT ( 'detailed design', #241, 'design' ) ;
#596 = UNCERTAINTY_MEASURE_WITH_UNIT (LENGTH_MEASURE( 1.000000000000000082E-05 ), #260, 'distance_accuracy_value', 'NONE');
#597 = PROPERTY_DEFINITION_REPRESENTATION ( #112, #431 ) ;
#598 =( LENGTH_UNIT ( ) NAMED_UNIT ( * ) SI_UNIT ( .MILLI., .METRE. ) );
#599 = ITEM_DEFINED_TRANSFORMATION ( 'NONE', 'NONE', #459,  #465 ) ;
#600 = PRODUCT ( 'mount_twist_lock_magnetic_radio', 'mount_twist_lock_magnetic_radio', '', ( #368 ) ) ;
#601 =( GEOMETRIC_REPRESENTATION_CONTEXT ( 3 ) GLOBAL_UNCERTAINTY_ASSIGNED_CONTEXT ( ( #205 ) ) GLOBAL_UNIT_ASSIGNED_CONTEXT ( ( #91, #134, #218 ) ) REPRESENTATION_CONTEXT ( 'NONE', 'WORKASPACE' ) );
#602 = AXIS2_PLACEMENT_3D ( 'NONE', #87, #147, #440 ) ;
#603 =( NAMED_UNIT ( * ) PLANE_ANGLE_UNIT ( ) SI_UNIT ( $, .RADIAN. ) );
#604 = EXTERNAL_SOURCE (IDENTIFIER('') ) ;
#605 = CONTEXT_DEPENDENT_SHAPE_REPRESENTATION ( #432, #282 ) ;
#606 = APPLICATION_PROTOCOL_DEFINITION ( 'draft international standard', 'automotive_design', 1998, #524 ) ;
#607 = PRODUCT_DEFINITION_SHAPE ( 'NONE', 'NONE',  #542 ) ;
#608 = DIRECTION ( 'NONE',  ( 0.000000000000000000, 0.000000000000000000, 1.000000000000000000 ) ) ;
#609 =( GEOMETRIC_REPRESENTATION_CONTEXT ( 3 ) GLOBAL_UNCERTAINTY_ASSIGNED_CONTEXT ( ( #490 ) ) GLOBAL_UNIT_ASSIGNED_CONTEXT ( ( #50, #2, #526 ) ) REPRESENTATION_CONTEXT ( 'NONE', 'WORKASPACE' ) );
#610 = CONTEXT_DEPENDENT_SHAPE_REPRESENTATION ( #555, #395 ) ;
#611 = NEXT_ASSEMBLY_USAGE_OCCURRENCE ( 'NAUO1', ' ', ' ', #152, #521, $ ) ;
#612 = NEXT_ASSEMBLY_USAGE_OCCURRENCE ( 'NAUO2', ' ', ' ', #152, #327, $ ) ;
#613 = NEXT_ASSEMBLY_USAGE_OCCURRENCE ( 'NAUO3', ' ', ' ', #152, #537, $ ) ;
#614 = NEXT_ASSEMBLY_USAGE_OCCURRENCE ( 'NAUO4', ' ', ' ', #152, #499, $ ) ;
#615 = NEXT_ASSEMBLY_USAGE_OCCURRENCE ( 'NAUO5', ' ', ' ', #152, #310, $ ) ;
#616 = NEXT_ASSEMBLY_USAGE_OCCURRENCE ( 'NAUO6', ' ', ' ', #152, #542, $ ) ;
#617 = NEXT_ASSEMBLY_USAGE_OCCURRENCE ( 'NAUO7', ' ', ' ', #152, #468, $ ) ;
#618 = NEXT_ASSEMBLY_USAGE_OCCURRENCE ( 'NAUO8', ' ', ' ', #152, #67, $ ) ;
#619 = NEXT_ASSEMBLY_USAGE_OCCURRENCE ( 'NAUO9', ' ', ' ', #152, #583, $ ) ;
#620 = NEXT_ASSEMBLY_USAGE_OCCURRENCE ( 'NAUO10', ' ', ' ', #152, #222, $ ) ;
#621 = NEXT_ASSEMBLY_USAGE_OCCURRENCE ( 'NAUO11', ' ', ' ', #152, #92, $ ) ;
#622 = NEXT_ASSEMBLY_USAGE_OCCURRENCE ( 'NAUO12', ' ', ' ', #152, #413, $ ) ;
#623 = NEXT_ASSEMBLY_USAGE_OCCURRENCE ( 'NAUO13', ' ', ' ', #152, #562, $ ) ;
#624 = NEXT_ASSEMBLY_USAGE_OCCURRENCE ( 'NAUO14', ' ', ' ', #152, #34, $ ) ;
ENDSEC;
END-ISO-10303-21;
