ISO-10303-21;
HEADER;
FILE_DESCRIPTION (( 'STEP AP214' ),
    '1' );
FILE_NAME ('Part2^P4-WIO.STEP',
    '2026-08-16T17:44:14',
    ( '' ),
    ( '' ),
    'SwSTEP 2.0',
    'SolidWorks 2025',
    '' );
FILE_SCHEMA (( 'AUTOMOTIVE_DESIGN' ));
ENDSEC;

DATA;
#1 = CARTESIAN_POINT ( 'NONE',  ( 56.78108166940477730, -26.28108166940479862, 2.000000000000000000 ) ) ;
#2 = VECTOR ( 'NONE', #241, 1000.000000000000000 ) ;
#3 = DIRECTION ( 'NONE',  ( -0.1378445374916289490, 0.1378445374916288935, -0.9808148484639890308 ) ) ;
#4 = CARTESIAN_POINT ( 'NONE',  ( 56.50000000000000000, -1.280036534392694981E-14, 0.000000000000000000 ) ) ;
#5 = PRODUCT_CONTEXT ( 'NONE', #64, 'mechanical' ) ;
#6 = DIRECTION ( 'NONE',  ( 0.000000000000000000, 0.000000000000000000, 1.000000000000000000 ) ) ;
#7 = CARTESIAN_POINT ( 'NONE',  ( 12.00000000000001066, 1.499999999999991784, 0.000000000000000000 ) ) ;
#8 = CARTESIAN_POINT ( 'NONE',  ( 56.78108166940477730, -26.00000000000001776, 2.000000000000000000 ) ) ;
#9 = FACE_OUTER_BOUND ( 'NONE', #154, .T. ) ;
#10 = MECHANICAL_DESIGN_GEOMETRIC_PRESENTATION_REPRESENTATION (  '', ( #269 ), #327 ) ;
#11 = PRODUCT ( 'Part2^P4-WIO', 'Part2^P4-WIO', '', ( #5 ) ) ;
#12 = SURFACE_SIDE_STYLE ('',( #294 ) ) ;
#13 = LINE ( 'NONE', #226, #191 ) ;
#14 = SURFACE_STYLE_USAGE ( .BOTH. , #12 ) ;
#15 = ORIENTED_EDGE ( 'NONE', *, *, #177, .F. ) ;
#16 = CARTESIAN_POINT ( 'NONE',  ( 57.99999999999999289, 1.218918330595217148, 2.000000000000000000 ) ) ;
#17 =( LENGTH_UNIT ( ) NAMED_UNIT ( * ) SI_UNIT ( .MILLI., .METRE. ) );
#18 = PLANE ( 'NONE',  #72 ) ;
#19 = VECTOR ( 'NONE', #3, 1000.000000000000114 ) ;
#20 = LINE ( 'NONE', #65, #289 ) ;
#21 = VERTEX_POINT ( 'NONE', #281 ) ;
#22 = ORIENTED_EDGE ( 'NONE', *, *, #152, .T. ) ;
#23 = CARTESIAN_POINT ( 'NONE',  ( 56.50000000000000000, -1.280036534392694981E-14, 0.000000000000000000 ) ) ;
#24 = VERTEX_POINT ( 'NONE', #187 ) ;
#25 = VECTOR ( 'NONE', #146, 1000.000000000000114 ) ;
#26 = ORIENTED_EDGE ( 'NONE', *, *, #190, .F. ) ;
#27 = EDGE_CURVE ( 'NONE', #205, #21, #50, .T. ) ;
#28 = ORIENTED_EDGE ( 'NONE', *, *, #246, .T. ) ;
#29 = EDGE_CURVE ( 'NONE', #120, #101, #127, .T. ) ;
#30 = FILL_AREA_STYLE_COLOUR ( '', #231 ) ;
#31 = ORIENTED_EDGE ( 'NONE', *, *, #145, .F. ) ;
#32 = DIRECTION ( 'NONE',  ( -0.1378445374916288935, 0.1378445374916289212, -0.9808148484639890308 ) ) ;
#33 = APPLICATION_PROTOCOL_DEFINITION ( 'draft international standard', 'automotive_design', 1998, #243 ) ;
#34 = CARTESIAN_POINT ( 'NONE',  ( 57.99999999999999289, 1.500000000000000444, 0.000000000000000000 ) ) ;
#35 = CARTESIAN_POINT ( 'NONE',  ( 57.71891833059520849, -27.21891833059523336, 2.000000000000000000 ) ) ;
#36 = FACE_OUTER_BOUND ( 'NONE', #185, .T. ) ;
#37 = CARTESIAN_POINT ( 'NONE',  ( 13.50000000000001421, -26.00000000000001776, 0.000000000000000000 ) ) ;
#38 = VERTEX_POINT ( 'NONE', #35 ) ;
#39 = DIRECTION ( 'NONE',  ( 1.000000000000000000, 0.000000000000000000, 0.000000000000000000 ) ) ;
#40 = VECTOR ( 'NONE', #240, 1000.000000000000000 ) ;
#41 = FACE_BOUND ( 'NONE', #262, .T. ) ;
#42 = SURFACE_SIDE_STYLE ('',( #162 ) ) ;
#43 = ORIENTED_EDGE ( 'NONE', *, *, #108, .T. ) ;
#44 = ORIENTED_EDGE ( 'NONE', *, *, #48, .F. ) ;
#45 = CARTESIAN_POINT ( 'NONE',  ( 12.00000000000001421, -27.50000000000001776, 0.000000000000000000 ) ) ;
#46 = VERTEX_POINT ( 'NONE', #1 ) ;
#47 = EDGE_CURVE ( 'NONE', #307, #129, #139, .T. ) ;
#48 = EDGE_CURVE ( 'NONE', #279, #38, #107, .T. ) ;
#49 = ORIENTED_EDGE ( 'NONE', *, *, #210, .F. ) ;
#50 = LINE ( 'NONE', #159, #208 ) ;
#51 = ORIENTED_EDGE ( 'NONE', *, *, #338, .T. ) ;
#52 = DIRECTION ( 'NONE',  ( 0.1391731009600657432, 0.000000000000000000, -0.9902680687415702510 ) ) ;
#53 = FACE_OUTER_BOUND ( 'NONE', #100, .T. ) ;
#54 = PRESENTATION_LAYER_ASSIGNMENT (  '', '', ( #269 ) ) ;
#55 = LINE ( 'NONE', #113, #284 ) ;
#56 = ADVANCED_FACE ( 'NONE', ( #313 ), #195, .T. ) ;
#57 = LINE ( 'NONE', #137, #19 ) ;
#58 = VECTOR ( 'NONE', #32, 1000.000000000000114 ) ;
#59 = CARTESIAN_POINT ( 'NONE',  ( 12.00000000000001421, -27.50000000000001776, 0.000000000000000000 ) ) ;
#60 = CARTESIAN_POINT ( 'NONE',  ( 12.00000000000001421, -27.50000000000001776, 0.000000000000000000 ) ) ;
#61 = CARTESIAN_POINT ( 'NONE',  ( 13.21891833059522980, -26.28108166940479862, 2.000000000000000000 ) ) ;
#62 = FACE_BOUND ( 'NONE', #207, .T. ) ;
#63 = DIRECTION ( 'NONE',  ( 0.000000000000000000, -1.000000000000000000, 0.000000000000000000 ) ) ;
#64 = APPLICATION_CONTEXT ( 'automotive_design' ) ;
#65 = CARTESIAN_POINT ( 'NONE',  ( 13.50000000000001421, -1.298405847906773058E-14, 0.000000000000000000 ) ) ;
#66 = ORIENTED_EDGE ( 'NONE', *, *, #176, .T. ) ;
#67 = VECTOR ( 'NONE', #301, 1000.000000000000000 ) ;
#68 = LINE ( 'NONE', #95, #202 ) ;
#69 = EDGE_LOOP ( 'NONE', ( #257, #147, #303, #213 ) ) ;
#70 = EDGE_CURVE ( 'NONE', #101, #205, #80, .T. ) ;
#71 = ORIENTED_EDGE ( 'NONE', *, *, #306, .F. ) ;
#72 = AXIS2_PLACEMENT_3D ( 'NONE', #23, #117, #298 ) ;
#73 = ORIENTED_EDGE ( 'NONE', *, *, #190, .T. ) ;
#74 =( NAMED_UNIT ( * ) PLANE_ANGLE_UNIT ( ) SI_UNIT ( $, .RADIAN. ) );
#75 = ORIENTED_EDGE ( 'NONE', *, *, #210, .T. ) ;
#76 = MECHANICAL_DESIGN_GEOMETRIC_PRESENTATION_REPRESENTATION (  '', ( #264 ), #309 ) ;
#77 = ADVANCED_BREP_SHAPE_REPRESENTATION ( 'Part2^P4-WIO', ( #215, #214 ), #133 ) ;
#78 = COLOUR_RGB ( '',0.7960784313725489669, 0.8235294117647058432, 0.9372549019607843146 ) ;
#79 = ORIENTED_EDGE ( 'NONE', *, *, #160, .F. ) ;
#80 = LINE ( 'NONE', #295, #149 ) ;
#81 = ADVANCED_FACE ( 'NONE', ( #265 ), #171, .T. ) ;
#82 =( NAMED_UNIT ( * ) PLANE_ANGLE_UNIT ( ) SI_UNIT ( $, .RADIAN. ) );
#83 = CARTESIAN_POINT ( 'NONE',  ( 0.000000000000000000, 0.000000000000000000, 2.000000000000000000 ) ) ;
#84 =( NAMED_UNIT ( * ) SI_UNIT ( $, .STERADIAN. ) SOLID_ANGLE_UNIT ( ) );
#85 = VECTOR ( 'NONE', #274, 1000.000000000000000 ) ;
#86 = CARTESIAN_POINT ( 'NONE',  ( 56.50000000000000000, -1.280036534392694981E-14, 0.000000000000000000 ) ) ;
#87 = ADVANCED_FACE ( 'NONE', ( #9 ), #249, .T. ) ;
#88 = PRESENTATION_STYLE_ASSIGNMENT (( #14 ) ) ;
#89 = DIRECTION ( 'NONE',  ( -0.9902680687415703620, -1.184718114728424817E-16, 0.1391731009600657432 ) ) ;
#90 = DIRECTION ( 'NONE',  ( 0.000000000000000000, -0.1391731009600657432, 0.9902680687415703620 ) ) ;
#91 = FACE_OUTER_BOUND ( 'NONE', #182, .T. ) ;
#92 = ORIENTED_EDGE ( 'NONE', *, *, #160, .T. ) ;
#93 = PLANE ( 'NONE',  #260 ) ;
#94 = VECTOR ( 'NONE', #135, 1000.000000000000000 ) ;
#95 = CARTESIAN_POINT ( 'NONE',  ( 12.00000000000001066, 1.499999999999991784, 0.000000000000000000 ) ) ;
#96 = ORIENTED_EDGE ( 'NONE', *, *, #338, .F. ) ;
#97 = FACE_OUTER_BOUND ( 'NONE', #229, .T. ) ;
#98 = ORIENTED_EDGE ( 'NONE', *, *, #285, .F. ) ;
#99 = FACE_OUTER_BOUND ( 'NONE', #189, .T. ) ;
#100 = EDGE_LOOP ( 'NONE', ( #161, #96, #15, #92 ) ) ;
#101 = VERTEX_POINT ( 'NONE', #220 ) ;
#102 = ORIENTED_EDGE ( 'NONE', *, *, #131, .F. ) ;
#103 = ORIENTED_EDGE ( 'NONE', *, *, #306, .T. ) ;
#104 = VECTOR ( 'NONE', #317, 1000.000000000000114 ) ;
#105 = VECTOR ( 'NONE', #245, 1000.000000000000000 ) ;
#106 = ADVANCED_FACE ( 'NONE', ( #36, #62 ), #267, .T. ) ;
#107 = LINE ( 'NONE', #320, #233 ) ;
#108 = EDGE_CURVE ( 'NONE', #186, #224, #13, .T. ) ;
#109 = CARTESIAN_POINT ( 'NONE',  ( 12.28108166940479862, -27.21891833059523336, 2.000000000000000000 ) ) ;
#110 = LINE ( 'NONE', #225, #156 ) ;
#111 = CARTESIAN_POINT ( 'NONE',  ( 13.21891833059522980, -1.298405847906773058E-14, 2.000000000000000000 ) ) ;
#112 = CARTESIAN_POINT ( 'NONE',  ( 13.50000000000001421, -26.00000000000001776, 0.000000000000000000 ) ) ;
#113 = CARTESIAN_POINT ( 'NONE',  ( 13.50000000000001421, -26.00000000000001776, 0.000000000000000000 ) ) ;
#114 = LINE ( 'NONE', #321, #2 ) ;
#115 = LINE ( 'NONE', #175, #296 ) ;
#116 = VERTEX_POINT ( 'NONE', #322 ) ;
#117 = DIRECTION ( 'NONE',  ( 4.230359213417361010E-18, -0.9902680687415703620, 0.1391731009600657432 ) ) ;
#118 = EDGE_CURVE ( 'NONE', #186, #46, #115, .T. ) ;
#119 = DIRECTION ( 'NONE',  ( 0.000000000000000000, -0.9902680687415703620, 0.1391731009600657432 ) ) ;
#120 = VERTEX_POINT ( 'NONE', #59 ) ;
#121 = LINE ( 'NONE', #16, #85 ) ;
#122 = ORIENTED_EDGE ( 'NONE', *, *, #272, .T. ) ;
#123 = ORIENTED_EDGE ( 'NONE', *, *, #299, .F. ) ;
#124 = AXIS2_PLACEMENT_3D ( 'NONE', #219, #6, #287 ) ;
#125 = ORIENTED_EDGE ( 'NONE', *, *, #256, .T. ) ;
#126 = EDGE_LOOP ( 'NONE', ( #273, #254, #26, #122 ) ) ;
#127 = LINE ( 'NONE', #60, #141 ) ;
#128 =( NAMED_UNIT ( * ) SI_UNIT ( $, .STERADIAN. ) SOLID_ANGLE_UNIT ( ) );
#129 = VERTEX_POINT ( 'NONE', #86 ) ;
#130 = SHAPE_DEFINITION_REPRESENTATION ( #275, #77 ) ;
#131 = EDGE_CURVE ( 'NONE', #224, #307, #55, .T. ) ;
#132 = DIRECTION ( 'NONE',  ( 1.000000000000000000, 0.000000000000000000, 0.000000000000000000 ) ) ;
#133 =( GEOMETRIC_REPRESENTATION_CONTEXT ( 3 ) GLOBAL_UNCERTAINTY_ASSIGNED_CONTEXT ( ( #253 ) ) GLOBAL_UNIT_ASSIGNED_CONTEXT ( ( #17, #74, #328 ) ) REPRESENTATION_CONTEXT ( 'NONE', 'WORKASPACE' ) );
#134 = LINE ( 'NONE', #168, #104 ) ;
#135 = DIRECTION ( 'NONE',  ( 2.668805347656626185E-16, 1.000000000000000000, -0.000000000000000000 ) ) ;
#136 = CARTESIAN_POINT ( 'NONE',  ( 56.49999999999999289, -26.00000000000001776, 0.000000000000000000 ) ) ;
#137 = CARTESIAN_POINT ( 'NONE',  ( 12.00000000000001066, 1.499999999999991784, 0.000000000000000000 ) ) ;
#138 = ORIENTED_EDGE ( 'NONE', *, *, #131, .T. ) ;
#139 = LINE ( 'NONE', #173, #336 ) ;
#140 = LINE ( 'NONE', #194, #25 ) ;
#141 = VECTOR ( 'NONE', #39, 1000.000000000000000 ) ;
#142 = DIRECTION ( 'NONE',  ( 0.1391731009600657432, 0.000000000000000000, 0.9902680687415703620 ) ) ;
#143 = CARTESIAN_POINT ( 'NONE',  ( 57.71891833059520849, 1.218918330595216926, 2.000000000000000000 ) ) ;
#144 = DIRECTION ( 'NONE',  ( 0.000000000000000000, -0.1391731009600657432, -0.9902680687415703620 ) ) ;
#145 = EDGE_CURVE ( 'NONE', #46, #307, #263, .T. ) ;
#146 = DIRECTION ( 'NONE',  ( -0.1378445374916288935, -0.1378445374916289212, -0.9808148484639890308 ) ) ;
#147 = ORIENTED_EDGE ( 'NONE', *, *, #325, .F. ) ;
#148 = PRESENTATION_STYLE_ASSIGNMENT (( #150 ) ) ;
#149 = VECTOR ( 'NONE', #192, 1000.000000000000000 ) ;
#150 = SURFACE_STYLE_USAGE ( .BOTH. , #42 ) ;
#151 = ORIENTED_EDGE ( 'NONE', *, *, #47, .T. ) ;
#152 = EDGE_CURVE ( 'NONE', #116, #129, #134, .T. ) ;
#153 = UNCERTAINTY_MEASURE_WITH_UNIT (LENGTH_MEASURE( 1.000000000000000082E-05 ), #228, 'distance_accuracy_value', 'NONE');
#154 = EDGE_LOOP ( 'NONE', ( #102, #203, #280, #335 ) ) ;
#155 = ORIENTED_EDGE ( 'NONE', *, *, #47, .F. ) ;
#156 = VECTOR ( 'NONE', #196, 1000.000000000000000 ) ;
#157 = PRODUCT_DEFINITION_CONTEXT ( 'detailed design', #243, 'design' ) ;
#158 = ORIENTED_EDGE ( 'NONE', *, *, #27, .T. ) ;
#159 = CARTESIAN_POINT ( 'NONE',  ( 57.99999999999999289, 1.500000000000000444, 0.000000000000000000 ) ) ;
#160 = EDGE_CURVE ( 'NONE', #38, #101, #291, .T. ) ;
#161 = ORIENTED_EDGE ( 'NONE', *, *, #70, .T. ) ;
#162 = SURFACE_STYLE_FILL_AREA ( #204 ) ;
#163 = CLOSED_SHELL ( 'NONE', ( #106, #239, #198, #326, #255, #81, #87, #221, #212, #56 ) ) ;
#164 = CARTESIAN_POINT ( 'NONE',  ( 0.000000000000000000, 0.000000000000000000, 0.000000000000000000 ) ) ;
#165 = ORIENTED_EDGE ( 'NONE', *, *, #256, .F. ) ;
#166 = DIRECTION ( 'NONE',  ( 1.000000000000000000, 0.000000000000000000, 0.000000000000000000 ) ) ;
#167 = VECTOR ( 'NONE', #179, 1000.000000000000114 ) ;
#168 = CARTESIAN_POINT ( 'NONE',  ( 56.50000000000000000, -1.280036534392694981E-14, 0.000000000000000000 ) ) ;
#169 = DIRECTION ( 'NONE',  ( 1.000000000000000000, 0.000000000000000000, 0.000000000000000000 ) ) ;
#170 = DIRECTION ( 'NONE',  ( 0.1391731009600657432, 0.000000000000000000, 0.9902680687415703620 ) ) ;
#171 = PLANE ( 'NONE',  #236 ) ;
#172 = CARTESIAN_POINT ( 'NONE',  ( 56.49999999999999289, -26.00000000000001776, 0.000000000000000000 ) ) ;
#173 = CARTESIAN_POINT ( 'NONE',  ( 56.49999999999999289, -26.00000000000001776, 0.000000000000000000 ) ) ;
#174 = AXIS2_PLACEMENT_3D ( 'NONE', #223, #199, #288 ) ;
#175 = CARTESIAN_POINT ( 'NONE',  ( 13.50000000000001421, -26.28108166940479862, 2.000000000000000000 ) ) ;
#176 = EDGE_CURVE ( 'NONE', #129, #308, #242, .T. ) ;
#177 = EDGE_CURVE ( 'NONE', #38, #244, #110, .T. ) ;
#178 = DIRECTION ( 'NONE',  ( -1.867218767778496962E-16, 0.9902680687415703620, 0.1391731009600657432 ) ) ;
#179 = DIRECTION ( 'NONE',  ( 0.1378445374916289212, -0.1378445374916289212, -0.9808148484639890308 ) ) ;
#180 = CARTESIAN_POINT ( 'NONE',  ( 13.50000000000001421, -1.298405847906773058E-14, 0.000000000000000000 ) ) ;
#181 =( NAMED_UNIT ( * ) PLANE_ANGLE_UNIT ( ) SI_UNIT ( $, .RADIAN. ) );
#182 = EDGE_LOOP ( 'NONE', ( #158, #235, #49, #51 ) ) ;
#183 = PRODUCT_DEFINITION_FORMATION_WITH_SPECIFIED_SOURCE ( 'Symmetric', '', #11, .NOT_KNOWN. ) ;
#184 = CARTESIAN_POINT ( 'NONE',  ( 57.99999999999999289, 1.500000000000000444, 0.000000000000000000 ) ) ;
#185 = EDGE_LOOP ( 'NONE', ( #282, #277, #75, #73 ) ) ;
#186 = VERTEX_POINT ( 'NONE', #61 ) ;
#187 = CARTESIAN_POINT ( 'NONE',  ( 12.28108166940479506, 1.218918330595208266, 2.000000000000000000 ) ) ;
#188 = AXIS2_PLACEMENT_3D ( 'NONE', #172, #314, #170 ) ;
#189 = EDGE_LOOP ( 'NONE', ( #234, #79, #44, #28 ) ) ;
#190 = EDGE_CURVE ( 'NONE', #24, #279, #304, .T. ) ;
#191 = VECTOR ( 'NONE', #286, 1000.000000000000114 ) ;
#192 = DIRECTION ( 'NONE',  ( 0.000000000000000000, 1.000000000000000000, 0.000000000000000000 ) ) ;
#193 = DIRECTION ( 'NONE',  ( 0.000000000000000000, 0.000000000000000000, 1.000000000000000000 ) ) ;
#194 = CARTESIAN_POINT ( 'NONE',  ( 12.00000000000001421, -27.50000000000001776, 0.000000000000000000 ) ) ;
#195 = PLANE ( 'NONE',  #174 ) ;
#196 = DIRECTION ( 'NONE',  ( -0.000000000000000000, 1.000000000000000000, -0.000000000000000000 ) ) ;
#197 = FILL_AREA_STYLE ('',( #227 ) ) ;
#198 = ADVANCED_FACE ( 'NONE', ( #99 ), #93, .T. ) ;
#199 = DIRECTION ( 'NONE',  ( 0.9902680687415703620, 0.000000000000000000, 0.1391731009600657432 ) ) ;
#200 = EDGE_CURVE ( 'NONE', #258, #308, #250, .T. ) ;
#201 = LINE ( 'NONE', #111, #305 ) ;
#202 = VECTOR ( 'NONE', #283, 1000.000000000000000 ) ;
#203 = ORIENTED_EDGE ( 'NONE', *, *, #108, .F. ) ;
#204 = FILL_AREA_STYLE ('',( #30 ) ) ;
#205 = VERTEX_POINT ( 'NONE', #252 ) ;
#206 = CARTESIAN_POINT ( 'NONE',  ( 57.99999999999999289, -27.50000000000001776, 0.000000000000000000 ) ) ;
#207 = EDGE_LOOP ( 'NONE', ( #98, #232, #165, #123 ) ) ;
#208 = VECTOR ( 'NONE', #259, 1000.000000000000000 ) ;
#209 = ORIENTED_EDGE ( 'NONE', *, *, #152, .F. ) ;
#210 = EDGE_CURVE ( 'NONE', #244, #24, #121, .T. ) ;
#211 = EDGE_LOOP ( 'NONE', ( #71, #319, #125, #43 ) ) ;
#212 = ADVANCED_FACE ( 'NONE', ( #97 ), #18, .T. ) ;
#213 = ORIENTED_EDGE ( 'NONE', *, *, #70, .F. ) ;
#214 = AXIS2_PLACEMENT_3D ( 'NONE', #164, #216, #169 ) ;
#215 = MANIFOLD_SOLID_BREP ( 'Boss-Extrude1', #163 ) ;
#216 = DIRECTION ( 'NONE',  ( 0.000000000000000000, 0.000000000000000000, 1.000000000000000000 ) ) ;
#217 = AXIS2_PLACEMENT_3D ( 'NONE', #34, #178, #290 ) ;
#218 = DIRECTION ( 'NONE',  ( 1.000000000000000000, -0.000000000000000000, -0.000000000000000000 ) ) ;
#219 = CARTESIAN_POINT ( 'NONE',  ( 0.000000000000000000, 0.000000000000000000, 0.000000000000000000 ) ) ;
#220 = CARTESIAN_POINT ( 'NONE',  ( 57.99999999999999289, -27.50000000000001776, 0.000000000000000000 ) ) ;
#221 = ADVANCED_FACE ( 'NONE', ( #316 ), #331, .T. ) ;
#222 = LINE ( 'NONE', #8, #94 ) ;
#223 = CARTESIAN_POINT ( 'NONE',  ( 13.50000000000001421, -1.298405847906773058E-14, 0.000000000000000000 ) ) ;
#224 = VERTEX_POINT ( 'NONE', #37 ) ;
#225 = CARTESIAN_POINT ( 'NONE',  ( 57.71891833059520849, -27.50000000000001776, 2.000000000000000000 ) ) ;
#226 = CARTESIAN_POINT ( 'NONE',  ( 13.50000000000001421, -26.00000000000001776, 0.000000000000000000 ) ) ;
#227 = FILL_AREA_STYLE_COLOUR ( '', #78 ) ;
#228 =( LENGTH_UNIT ( ) NAMED_UNIT ( * ) SI_UNIT ( .MILLI., .METRE. ) );
#229 = EDGE_LOOP ( 'NONE', ( #334, #209, #266, #333 ) ) ;
#230 = CARTESIAN_POINT ( 'NONE',  ( 12.28108166940479506, 1.499999999999991784, 2.000000000000000000 ) ) ;
#231 = COLOUR_RGB ( '',0.7960784313725489669, 0.8235294117647058432, 0.9372549019607843146 ) ;
#232 = ORIENTED_EDGE ( 'NONE', *, *, #118, .F. ) ;
#233 = VECTOR ( 'NONE', #218, 1000.000000000000000 ) ;
#234 = ORIENTED_EDGE ( 'NONE', *, *, #29, .T. ) ;
#235 = ORIENTED_EDGE ( 'NONE', *, *, #272, .F. ) ;
#236 = AXIS2_PLACEMENT_3D ( 'NONE', #7, #89, #142 ) ;
#237 = DIRECTION ( 'NONE',  ( 2.668805347656626185E-16, 1.000000000000000000, 0.000000000000000000 ) ) ;
#238 = AXIS2_PLACEMENT_3D ( 'NONE', #206, #337, #52 ) ;
#239 = ADVANCED_FACE ( 'NONE', ( #297, #41 ), #268, .F. ) ;
#240 = DIRECTION ( 'NONE',  ( 0.1378445374916289212, -0.1378445374916288935, -0.9808148484639890308 ) ) ;
#241 = DIRECTION ( 'NONE',  ( -1.000000000000000000, -4.271933375367025289E-18, 0.000000000000000000 ) ) ;
#242 = LINE ( 'NONE', #4, #105 ) ;
#243 = APPLICATION_CONTEXT ( 'automotive_design' ) ;
#244 = VERTEX_POINT ( 'NONE', #143 ) ;
#245 = DIRECTION ( 'NONE',  ( -1.000000000000000000, -4.271933375367024518E-18, 0.000000000000000000 ) ) ;
#246 = EDGE_CURVE ( 'NONE', #279, #120, #140, .T. ) ;
#247 = VECTOR ( 'NONE', #276, 1000.000000000000000 ) ;
#248 = CARTESIAN_POINT ( 'NONE',  ( 13.21891833059522980, 0.2810816694047705844, 2.000000000000000000 ) ) ;
#249 = PLANE ( 'NONE',  #312 ) ;
#250 = LINE ( 'NONE', #180, #167 ) ;
#251 = PLANE ( 'NONE',  #238 ) ;
#252 = CARTESIAN_POINT ( 'NONE',  ( 57.99999999999999289, 1.500000000000000444, 0.000000000000000000 ) ) ;
#253 = UNCERTAINTY_MEASURE_WITH_UNIT (LENGTH_MEASURE( 1.000000000000000082E-05 ), #17, 'distance_accuracy_value', 'NONE');
#254 = ORIENTED_EDGE ( 'NONE', *, *, #246, .F. ) ;
#255 = ADVANCED_FACE ( 'NONE', ( #91 ), #323, .T. ) ;
#256 = EDGE_CURVE ( 'NONE', #258, #186, #201, .T. ) ;
#257 = ORIENTED_EDGE ( 'NONE', *, *, #29, .F. ) ;
#258 = VERTEX_POINT ( 'NONE', #248 ) ;
#259 = DIRECTION ( 'NONE',  ( -1.000000000000000000, -1.885568995626965026E-16, 0.000000000000000000 ) ) ;
#260 = AXIS2_PLACEMENT_3D ( 'NONE', #45, #119, #144 ) ;
#261 = APPLICATION_PROTOCOL_DEFINITION ( 'draft international standard', 'automotive_design', 1998, #64 ) ;
#262 = EDGE_LOOP ( 'NONE', ( #138, #151, #66, #103 ) ) ;
#263 = LINE ( 'NONE', #136, #58 ) ;
#264 = STYLED_ITEM ( 'NONE', ( #148 ), #77 ) ;
#265 = FACE_OUTER_BOUND ( 'NONE', #126, .T. ) ;
#266 = ORIENTED_EDGE ( 'NONE', *, *, #299, .T. ) ;
#267 = PLANE ( 'NONE',  #332 ) ;
#268 = PLANE ( 'NONE',  #124 ) ;
#269 = STYLED_ITEM ( 'NONE', ( #88 ), #215 ) ;
#270 = UNCERTAINTY_MEASURE_WITH_UNIT (LENGTH_MEASURE( 1.000000000000000082E-05 ), #292, 'distance_accuracy_value', 'NONE');
#271 = DIRECTION ( 'NONE',  ( 0.000000000000000000, 0.9902680687415703620, 0.1391731009600657432 ) ) ;
#272 = EDGE_CURVE ( 'NONE', #24, #21, #57, .T. ) ;
#273 = ORIENTED_EDGE ( 'NONE', *, *, #325, .T. ) ;
#274 = DIRECTION ( 'NONE',  ( -1.000000000000000000, -1.885568995626965273E-16, 0.000000000000000000 ) ) ;
#275 = PRODUCT_DEFINITION_SHAPE ( 'NONE', 'NONE',  #278 ) ;
#276 = DIRECTION ( 'NONE',  ( 0.1378445374916289212, 0.1378445374916289212, -0.9808148484639890308 ) ) ;
#277 = ORIENTED_EDGE ( 'NONE', *, *, #177, .T. ) ;
#278 = PRODUCT_DEFINITION ( 'General', '', #183, #157 ) ;
#279 = VERTEX_POINT ( 'NONE', #109 ) ;
#280 = ORIENTED_EDGE ( 'NONE', *, *, #118, .T. ) ;
#281 = CARTESIAN_POINT ( 'NONE',  ( 12.00000000000001066, 1.499999999999991784, 0.000000000000000000 ) ) ;
#282 = ORIENTED_EDGE ( 'NONE', *, *, #48, .T. ) ;
#283 = DIRECTION ( 'NONE',  ( 1.196361017915038993E-16, -1.000000000000000000, 0.000000000000000000 ) ) ;
#284 = VECTOR ( 'NONE', #166, 1000.000000000000000 ) ;
#285 = EDGE_CURVE ( 'NONE', #46, #116, #222, .T. ) ;
#286 = DIRECTION ( 'NONE',  ( 0.1378445374916289212, 0.1378445374916289212, -0.9808148484639890308 ) ) ;
#287 = DIRECTION ( 'NONE',  ( 1.000000000000000000, 0.000000000000000000, -0.000000000000000000 ) ) ;
#288 = DIRECTION ( 'NONE',  ( 0.1391731009600657432, 0.000000000000000000, -0.9902680687415703620 ) ) ;
#289 = VECTOR ( 'NONE', #329, 1000.000000000000000 ) ;
#290 = DIRECTION ( 'NONE',  ( 0.000000000000000000, -0.1391731009600657432, 0.9902680687415703620 ) ) ;
#291 = LINE ( 'NONE', #315, #40 ) ;
#292 =( LENGTH_UNIT ( ) NAMED_UNIT ( * ) SI_UNIT ( .MILLI., .METRE. ) );
#293 = DIRECTION ( 'NONE',  ( 1.000000000000000000, 0.000000000000000000, -0.000000000000000000 ) ) ;
#294 = SURFACE_STYLE_FILL_AREA ( #197 ) ;
#295 = CARTESIAN_POINT ( 'NONE',  ( 57.99999999999999289, -27.50000000000001776, 0.000000000000000000 ) ) ;
#296 = VECTOR ( 'NONE', #132, 1000.000000000000000 ) ;
#297 = FACE_OUTER_BOUND ( 'NONE', #69, .T. ) ;
#298 = DIRECTION ( 'NONE',  ( 0.000000000000000000, -0.1391731009600657432, -0.9902680687415703620 ) ) ;
#299 = EDGE_CURVE ( 'NONE', #116, #258, #114, .T. ) ;
#300 = PRODUCT_RELATED_PRODUCT_CATEGORY ( 'part', '', ( #11 ) ) ;
#301 = DIRECTION ( 'NONE',  ( 1.196361017915039239E-16, -1.000000000000000000, -0.000000000000000000 ) ) ;
#302 = CARTESIAN_POINT ( 'NONE',  ( 13.50000000000001421, -1.298405847906773058E-14, 0.000000000000000000 ) ) ;
#303 = ORIENTED_EDGE ( 'NONE', *, *, #27, .F. ) ;
#304 = LINE ( 'NONE', #230, #67 ) ;
#305 = VECTOR ( 'NONE', #63, 1000.000000000000000 ) ;
#306 = EDGE_CURVE ( 'NONE', #308, #224, #20, .T. ) ;
#307 = VERTEX_POINT ( 'NONE', #311 ) ;
#308 = VERTEX_POINT ( 'NONE', #302 ) ;
#309 =( GEOMETRIC_REPRESENTATION_CONTEXT ( 3 ) GLOBAL_UNCERTAINTY_ASSIGNED_CONTEXT ( ( #153 ) ) GLOBAL_UNIT_ASSIGNED_CONTEXT ( ( #228, #181, #128 ) ) REPRESENTATION_CONTEXT ( 'NONE', 'WORKASPACE' ) );
#310 = LINE ( 'NONE', #184, #247 ) ;
#311 = CARTESIAN_POINT ( 'NONE',  ( 56.49999999999999289, -26.00000000000001776, 0.000000000000000000 ) ) ;
#312 = AXIS2_PLACEMENT_3D ( 'NONE', #112, #271, #90 ) ;
#313 = FACE_OUTER_BOUND ( 'NONE', #211, .T. ) ;
#314 = DIRECTION ( 'NONE',  ( -0.9902680687415703620, 2.642832717471101951E-16, 0.1391731009600657432 ) ) ;
#315 = CARTESIAN_POINT ( 'NONE',  ( 57.99999999999999289, -27.50000000000001776, 0.000000000000000000 ) ) ;
#316 = FACE_OUTER_BOUND ( 'NONE', #330, .T. ) ;
#317 = DIRECTION ( 'NONE',  ( -0.1378445374916289490, -0.1378445374916289212, -0.9808148484639890308 ) ) ;
#318 = PRESENTATION_LAYER_ASSIGNMENT (  '', '', ( #264 ) ) ;
#319 = ORIENTED_EDGE ( 'NONE', *, *, #200, .F. ) ;
#320 = CARTESIAN_POINT ( 'NONE',  ( 12.00000000000001421, -27.21891833059523336, 2.000000000000000000 ) ) ;
#321 = CARTESIAN_POINT ( 'NONE',  ( 56.50000000000000000, 0.2810816694047706954, 2.000000000000000000 ) ) ;
#322 = CARTESIAN_POINT ( 'NONE',  ( 56.78108166940478441, 0.2810816694047707509, 2.000000000000000000 ) ) ;
#323 = PLANE ( 'NONE',  #217 ) ;
#324 = ORIENTED_EDGE ( 'NONE', *, *, #285, .T. ) ;
#325 = EDGE_CURVE ( 'NONE', #21, #120, #68, .T. ) ;
#326 = ADVANCED_FACE ( 'NONE', ( #53 ), #251, .T. ) ;
#327 =( GEOMETRIC_REPRESENTATION_CONTEXT ( 3 ) GLOBAL_UNCERTAINTY_ASSIGNED_CONTEXT ( ( #270 ) ) GLOBAL_UNIT_ASSIGNED_CONTEXT ( ( #292, #82, #84 ) ) REPRESENTATION_CONTEXT ( 'NONE', 'WORKASPACE' ) );
#328 =( NAMED_UNIT ( * ) SI_UNIT ( $, .STERADIAN. ) SOLID_ANGLE_UNIT ( ) );
#329 = DIRECTION ( 'NONE',  ( 0.000000000000000000, -1.000000000000000000, 0.000000000000000000 ) ) ;
#330 = EDGE_LOOP ( 'NONE', ( #155, #31, #324, #22 ) ) ;
#331 = PLANE ( 'NONE',  #188 ) ;
#332 = AXIS2_PLACEMENT_3D ( 'NONE', #83, #193, #293 ) ;
#333 = ORIENTED_EDGE ( 'NONE', *, *, #200, .T. ) ;
#334 = ORIENTED_EDGE ( 'NONE', *, *, #176, .F. ) ;
#335 = ORIENTED_EDGE ( 'NONE', *, *, #145, .T. ) ;
#336 = VECTOR ( 'NONE', #237, 1000.000000000000000 ) ;
#337 = DIRECTION ( 'NONE',  ( 0.9902680687415702510, 0.000000000000000000, 0.1391731009600657432 ) ) ;
#338 = EDGE_CURVE ( 'NONE', #244, #205, #310, .T. ) ;
ENDSEC;
END-ISO-10303-21;
