ISO-10303-21;
HEADER;
FILE_DESCRIPTION (( 'STEP AP214' ),
    '1' );
FILE_NAME ('pololu_buck_converter.STEP',
    '2026-08-21T18:09:47',
    ( '' ),
    ( '' ),
    'SwSTEP 2.0',
    'SolidWorks 2025',
    '' );
FILE_SCHEMA (( 'AUTOMOTIVE_DESIGN' ));
ENDSEC;

DATA;
#1 = ADVANCED_FACE ( 'NONE', ( #217 ), #382, .T. ) ;
#2 = CIRCLE ( 'NONE', #143, 1.000000000000001554 ) ;
#3 = DIRECTION ( 'NONE',  ( 1.000000000000000000, 0.000000000000000000, 0.000000000000000000 ) ) ;
#4 = PLANE ( 'NONE',  #17 ) ;
#5 = VECTOR ( 'NONE', #222, 1000.000000000000000 ) ;
#6 = EDGE_LOOP ( 'NONE', ( #643, #280, #51, #535 ) ) ;
#7 = CARTESIAN_POINT ( 'NONE',  ( 1.372977072117614883, 2.399999999999999911, -1.200506244363679142 ) ) ;
#8 = AXIS2_PLACEMENT_3D ( 'NONE', #608, #165, #456 ) ;
#9 = VERTEX_POINT ( 'NONE', #479 ) ;
#10 = CARTESIAN_POINT ( 'NONE',  ( 0.000000000000000000, 2.399999999999999911, -17.85000000000000142 ) ) ;
#11 = AXIS2_PLACEMENT_3D ( 'NONE', #336, #187, #190 ) ;
#12 = ORIENTED_EDGE ( 'NONE', *, *, #242, .T. ) ;
#13 = ADVANCED_FACE ( 'NONE', ( #129 ), #475, .F. ) ;
#14 = ADVANCED_FACE ( 'NONE', ( #172 ), #29, .T. ) ;
#15 = DIRECTION ( 'NONE',  ( -0.000000000000000000, -1.000000000000000000, -0.000000000000000000 ) ) ;
#16 = ORIENTED_EDGE ( 'NONE', *, *, #373, .F. ) ;
#17 = AXIS2_PLACEMENT_3D ( 'NONE', #449, #314, #360 ) ;
#18 = DIRECTION ( 'NONE',  ( 0.000000000000000000, 0.000000000000000000, 1.000000000000000000 ) ) ;
#19 = EDGE_CURVE ( 'NONE', #9, #124, #526, .T. ) ;
#20 = ORIENTED_EDGE ( 'NONE', *, *, #121, .T. ) ;
#21 = CARTESIAN_POINT ( 'NONE',  ( 1.372977072117614883, 8.500000000000000000, -1.200506244363679142 ) ) ;
#22 = CARTESIAN_POINT ( 'NONE',  ( 12.11234252452654836, 8.500000000000000000, -8.187630063977834993 ) ) ;
#23 = VERTEX_POINT ( 'NONE', #175 ) ;
#24 = EDGE_CURVE ( 'NONE', #548, #357, #61, .T. ) ;
#25 = DIRECTION ( 'NONE',  ( 0.000000000000000000, 0.000000000000000000, 1.000000000000000000 ) ) ;
#26 = CARTESIAN_POINT ( 'NONE',  ( 12.11234252452654836, 2.399999999999999911, -4.554328013554505006 ) ) ;
#27 = AXIS2_PLACEMENT_3D ( 'NONE', #326, #471, #81 ) ;
#28 = DIRECTION ( 'NONE',  ( -0.000000000000000000, -1.000000000000000000, -0.000000000000000000 ) ) ;
#29 = PLANE ( 'NONE',  #426 ) ;
#30 = VECTOR ( 'NONE', #289, 1000.000000000000000 ) ;
#31 = DIRECTION ( 'NONE',  ( 0.000000000000000000, 0.000000000000000000, 1.000000000000000000 ) ) ;
#32 = CARTESIAN_POINT ( 'NONE',  ( 0.000000000000000000, 8.500000000000000000, 0.000000000000000000 ) ) ;
#33 = EDGE_CURVE ( 'NONE', #357, #548, #2, .T. ) ;
#34 = CARTESIAN_POINT ( 'NONE',  ( 2.149999999999999911, 2.399999999999999911, -15.70000000000000284 ) ) ;
#35 = CARTESIAN_POINT ( 'NONE',  ( 18.15000000000000213, 0.000000000000000000, -2.149999999999999911 ) ) ;
#36 = VECTOR ( 'NONE', #321, 1000.000000000000000 ) ;
#37 = ORIENTED_EDGE ( 'NONE', *, *, #46, .T. ) ;
#38 = AXIS2_PLACEMENT_3D ( 'NONE', #59, #254, #108 ) ;
#39 = CARTESIAN_POINT ( 'NONE',  ( 1.372977072117614883, 2.399999999999999467, -1.200506244363679142 ) ) ;
#40 = DIRECTION ( 'NONE',  ( 0.000000000000000000, 0.000000000000000000, 1.000000000000000000 ) ) ;
#41 = ORIENTED_EDGE ( 'NONE', *, *, #19, .F. ) ;
#42 = CIRCLE ( 'NONE', #596, 3.633302050423330432 ) ;
#43 = AXIS2_PLACEMENT_3D ( 'NONE', #282, #180, #440 ) ;
#44 = CARTESIAN_POINT ( 'NONE',  ( 0.000000000000000000, 0.000000000000000000, 0.000000000000000000 ) ) ;
#45 = DIRECTION ( 'NONE',  ( -1.000000000000000000, -0.000000000000000000, -0.000000000000000000 ) ) ;
#46 = EDGE_CURVE ( 'NONE', #238, #604, #374, .T. ) ;
#47 = ORIENTED_EDGE ( 'NONE', *, *, #552, .T. ) ;
#48 = VECTOR ( 'NONE', #181, 1000.000000000000000 ) ;
#49 = EDGE_CURVE ( 'NONE', #144, #518, #523, .T. ) ;
#50 = CARTESIAN_POINT ( 'NONE',  ( 8.330373295439018833, 2.399999999999999911, -1.200506244363679142 ) ) ;
#51 = ORIENTED_EDGE ( 'NONE', *, *, #242, .F. ) ;
#52 = EDGE_CURVE ( 'NONE', #650, #238, #531, .T. ) ;
#53 = APPLICATION_PROTOCOL_DEFINITION ( 'draft international standard', 'automotive_design', 1998, #176 ) ;
#54 = FACE_OUTER_BOUND ( 'NONE', #106, .T. ) ;
#55 = EDGE_LOOP ( 'NONE', ( #117, #506, #234, #514 ) ) ;
#56 = COLOUR_RGB ( '',0.000000000000000000, 0.5019607843137254832, 0.000000000000000000 ) ;
#57 = CARTESIAN_POINT ( 'NONE',  ( 8.330373295439018833, 2.399999999999999911, -7.658397097805591081 ) ) ;
#58 = VERTEX_POINT ( 'NONE', #431 ) ;
#59 = CARTESIAN_POINT ( 'NONE',  ( 7.652473150602575380, 8.500000000000000000, -13.47406676140245452 ) ) ;
#60 = VERTEX_POINT ( 'NONE', #78 ) ;
#61 = CIRCLE ( 'NONE', #27, 1.000000000000001554 ) ;
#62 = FACE_OUTER_BOUND ( 'NONE', #284, .T. ) ;
#63 = EDGE_LOOP ( 'NONE', ( #189, #47, #41, #434 ) ) ;
#64 = DIRECTION ( 'NONE',  ( 0.000000000000000000, 0.000000000000000000, 1.000000000000000000 ) ) ;
#65 = VERTEX_POINT ( 'NONE', #126 ) ;
#66 = EDGE_CURVE ( 'NONE', #100, #23, #628, .T. ) ;
#67 = DIRECTION ( 'NONE',  ( 0.000000000000000000, 0.000000000000000000, -1.000000000000000000 ) ) ;
#68 = VECTOR ( 'NONE', #333, 1000.000000000000000 ) ;
#69 = ORIENTED_EDGE ( 'NONE', *, *, #403, .F. ) ;
#70 =( LENGTH_UNIT ( ) NAMED_UNIT ( * ) SI_UNIT ( .MILLI., .METRE. ) );
#71 = CARTESIAN_POINT ( 'NONE',  ( 0.000000000000000000, 2.399999999999999911, 0.000000000000000000 ) ) ;
#72 = SURFACE_STYLE_USAGE ( .BOTH. , #618 ) ;
#73 = CARTESIAN_POINT ( 'NONE',  ( 8.330373295439018833, 8.500000000000000000, -1.200506244363679142 ) ) ;
#74 = VECTOR ( 'NONE', #86, 1000.000000000000000 ) ;
#75 = EDGE_LOOP ( 'NONE', ( #259, #409 ) ) ;
#76 = ADVANCED_FACE ( 'NONE', ( #265 ), #168, .T. ) ;
#77 = LINE ( 'NONE', #565, #461 ) ;
#78 = CARTESIAN_POINT ( 'NONE',  ( 7.652473150602575380, 8.500000000000000000, -17.39112207200055948 ) ) ;
#79 = ORIENTED_EDGE ( 'NONE', *, *, #350, .F. ) ;
#80 = PLANE ( 'NONE',  #377 ) ;
#81 = DIRECTION ( 'NONE',  ( 0.000000000000000000, 0.000000000000000000, 1.000000000000000000 ) ) ;
#82 = ORIENTED_EDGE ( 'NONE', *, *, #213, .T. ) ;
#83 = DIRECTION ( 'NONE',  ( -0.000000000000000000, -1.000000000000000000, -0.000000000000000000 ) ) ;
#84 = CARTESIAN_POINT ( 'NONE',  ( 12.11234252452654836, 8.500000000000000000, -8.187630063977834993 ) ) ;
#85 = FACE_BOUND ( 'NONE', #270, .T. ) ;
#86 = DIRECTION ( 'NONE',  ( -0.000000000000000000, -0.000000000000000000, 1.000000000000000000 ) ) ;
#87 = VERTEX_POINT ( 'NONE', #73 ) ;
#88 = DIRECTION ( 'NONE',  ( -0.000000000000000000, -1.000000000000000000, -0.000000000000000000 ) ) ;
#89 = CARTESIAN_POINT ( 'NONE',  ( 7.652473150602575380, 8.500000000000000000, -13.47406676140245452 ) ) ;
#90 = AXIS2_PLACEMENT_3D ( 'NONE', #35, #642, #233 ) ;
#91 = ORIENTED_EDGE ( 'NONE', *, *, #649, .F. ) ;
#92 = LINE ( 'NONE', #492, #380 ) ;
#93 = CARTESIAN_POINT ( 'NONE',  ( 0.000000000000000000, 8.500000000000000000, 0.000000000000000000 ) ) ;
#94 = ORIENTED_EDGE ( 'NONE', *, *, #24, .F. ) ;
#95 = VECTOR ( 'NONE', #218, 1000.000000000000000 ) ;
#96 = EDGE_CURVE ( 'NONE', #23, #485, #371, .T. ) ;
#97 = AXIS2_PLACEMENT_3D ( 'NONE', #290, #334, #537 ) ;
#98 = CARTESIAN_POINT ( 'NONE',  ( 0.000000000000000000, 2.399999999999999911, 0.000000000000000000 ) ) ;
#99 = CARTESIAN_POINT ( 'NONE',  ( 0.000000000000000000, 0.000000000000000000, 0.000000000000000000 ) ) ;
#100 = VERTEX_POINT ( 'NONE', #22 ) ;
#101 = FACE_OUTER_BOUND ( 'NONE', #315, .T. ) ;
#102 = ORIENTED_EDGE ( 'NONE', *, *, #152, .T. ) ;
#103 = CIRCLE ( 'NONE', #342, 3.917055310598105411 ) ;
#104 = ADVANCED_FACE ( 'NONE', ( #219 ), #425, .F. ) ;
#105 = FACE_OUTER_BOUND ( 'NONE', #151, .T. ) ;
#106 = EDGE_LOOP ( 'NONE', ( #599, #12, #591, #310 ) ) ;
#107 = SHAPE_DEFINITION_REPRESENTATION ( #473, #137 ) ;
#108 = DIRECTION ( 'NONE',  ( 0.000000000000000000, 0.000000000000000000, -1.000000000000000000 ) ) ;
#109 = ORIENTED_EDGE ( 'NONE', *, *, #384, .F. ) ;
#110 =( NAMED_UNIT ( * ) SI_UNIT ( $, .STERADIAN. ) SOLID_ANGLE_UNIT ( ) );
#111 = FACE_BOUND ( 'NONE', #611, .T. ) ;
#112 = EDGE_LOOP ( 'NONE', ( #82, #472, #115, #510 ) ) ;
#113 = DIRECTION ( 'NONE',  ( -0.000000000000000000, -1.000000000000000000, -0.000000000000000000 ) ) ;
#114 = EDGE_CURVE ( 'NONE', #192, #646, #221, .T. ) ;
#115 = ORIENTED_EDGE ( 'NONE', *, *, #262, .F. ) ;
#116 = DIRECTION ( 'NONE',  ( 1.000000000000000000, 0.000000000000000000, 0.000000000000000000 ) ) ;
#117 = ORIENTED_EDGE ( 'NONE', *, *, #396, .T. ) ;
#118 = CARTESIAN_POINT ( 'NONE',  ( 12.11234252452654836, 8.500000000000000000, -0.9210259631311740192 ) ) ;
#119 = DIRECTION ( 'NONE',  ( 0.000000000000000000, 0.000000000000000000, -1.000000000000000000 ) ) ;
#120 = LINE ( 'NONE', #577, #515 ) ;
#121 = EDGE_CURVE ( 'NONE', #556, #223, #592, .T. ) ;
#122 = ORIENTED_EDGE ( 'NONE', *, *, #406, .T. ) ;
#123 = CIRCLE ( 'NONE', #488, 3.917055310598105411 ) ;
#124 = VERTEX_POINT ( 'NONE', #395 ) ;
#125 = CARTESIAN_POINT ( 'NONE',  ( 20.30000000000000071, 2.399999999999999911, 0.000000000000000000 ) ) ;
#126 = CARTESIAN_POINT ( 'NONE',  ( 20.30000000000000071, 2.399999999999999911, -17.85000000000000142 ) ) ;
#127 = AXIS2_PLACEMENT_3D ( 'NONE', #386, #594, #447 ) ;
#128 = ORIENTED_EDGE ( 'NONE', *, *, #121, .F. ) ;
#129 = FACE_OUTER_BOUND ( 'NONE', #183, .T. ) ;
#130 = AXIS2_PLACEMENT_3D ( 'NONE', #478, #236, #31 ) ;
#131 = DIRECTION ( 'NONE',  ( 0.000000000000000000, 0.000000000000000000, 1.000000000000000000 ) ) ;
#132 = DIRECTION ( 'NONE',  ( 1.000000000000000000, -0.000000000000000000, 0.000000000000000000 ) ) ;
#133 = CARTESIAN_POINT ( 'NONE',  ( 0.000000000000000000, 0.000000000000000000, -17.85000000000000142 ) ) ;
#134 = FACE_OUTER_BOUND ( 'NONE', #601, .T. ) ;
#135 = ADVANCED_FACE ( 'NONE', ( #331 ), #337, .F. ) ;
#136 = CARTESIAN_POINT ( 'NONE',  ( 1.372977072117614883, 8.500000000000000000, -1.200506244363679142 ) ) ;
#137 = ADVANCED_BREP_SHAPE_REPRESENTATION ( 'pololu_buck_converter', ( #410, #276 ), #612 ) ;
#138 = CARTESIAN_POINT ( 'NONE',  ( 7.652473150602576268, 2.399999999999999911, -9.557011450804349550 ) ) ;
#139 = ORIENTED_EDGE ( 'NONE', *, *, #66, .F. ) ;
#140 = LINE ( 'NONE', #435, #325 ) ;
#141 = LINE ( 'NONE', #630, #74 ) ;
#142 = ADVANCED_FACE ( 'NONE', ( #546 ), #540, .T. ) ;
#143 = AXIS2_PLACEMENT_3D ( 'NONE', #274, #170, #477 ) ;
#144 = VERTEX_POINT ( 'NONE', #639 ) ;
#145 = CARTESIAN_POINT ( 'NONE',  ( 18.15000000000000213, 0.000000000000000000, -1.149999999999998357 ) ) ;
#146 = CARTESIAN_POINT ( 'NONE',  ( 12.11234252452654836, 8.500000000000000000, -0.9210259631311740192 ) ) ;
#147 = ORIENTED_EDGE ( 'NONE', *, *, #365, .F. ) ;
#148 =( GEOMETRIC_REPRESENTATION_CONTEXT ( 3 ) GLOBAL_UNCERTAINTY_ASSIGNED_CONTEXT ( ( #362 ) ) GLOBAL_UNIT_ASSIGNED_CONTEXT ( ( #70, #372, #173 ) ) REPRESENTATION_CONTEXT ( 'NONE', 'WORKASPACE' ) );
#149 = CARTESIAN_POINT ( 'NONE',  ( 2.149999999999999911, 0.000000000000000000, -16.70000000000000284 ) ) ;
#150 = CARTESIAN_POINT ( 'NONE',  ( 0.000000000000000000, 0.000000000000000000, 0.000000000000000000 ) ) ;
#151 = EDGE_LOOP ( 'NONE', ( #263, #338, #441, #139 ) ) ;
#152 = EDGE_CURVE ( 'NONE', #480, #616, #141, .T. ) ;
#153 = LINE ( 'NONE', #209, #385 ) ;
#154 = VERTEX_POINT ( 'NONE', #581 ) ;
#155 = DIRECTION ( 'NONE',  ( -0.000000000000000000, -1.000000000000000000, -0.000000000000000000 ) ) ;
#156 = ORIENTED_EDGE ( 'NONE', *, *, #484, .F. ) ;
#157 =( NAMED_UNIT ( * ) SI_UNIT ( $, .STERADIAN. ) SOLID_ANGLE_UNIT ( ) );
#158 = AXIS2_PLACEMENT_3D ( 'NONE', #389, #299, #544 ) ;
#159 = FACE_OUTER_BOUND ( 'NONE', #423, .T. ) ;
#160 = ORIENTED_EDGE ( 'NONE', *, *, #528, .F. ) ;
#161 = CIRCLE ( 'NONE', #130, 3.633302050423330432 ) ;
#162 = DIRECTION ( 'NONE',  ( 1.000000000000000000, -0.000000000000000000, 0.000000000000000000 ) ) ;
#163 = VERTEX_POINT ( 'NONE', #146 ) ;
#164 = ADVANCED_FACE ( 'NONE', ( #134 ), #185, .T. ) ;
#165 = DIRECTION ( 'NONE',  ( 0.000000000000000000, 1.000000000000000000, 0.000000000000000000 ) ) ;
#166 = ORIENTED_EDGE ( 'NONE', *, *, #33, .F. ) ;
#167 = LINE ( 'NONE', #530, #174 ) ;
#168 = PLANE ( 'NONE',  #286 ) ;
#169 = CARTESIAN_POINT ( 'NONE',  ( 0.000000000000000000, 8.500000000000000000, -7.658397097805591081 ) ) ;
#170 = DIRECTION ( 'NONE',  ( 0.000000000000000000, 1.000000000000000000, 0.000000000000000000 ) ) ;
#171 = AXIS2_PLACEMENT_3D ( 'NONE', #428, #575, #177 ) ;
#172 = FACE_OUTER_BOUND ( 'NONE', #63, .T. ) ;
#173 =( NAMED_UNIT ( * ) SI_UNIT ( $, .STERADIAN. ) SOLID_ANGLE_UNIT ( ) );
#174 = VECTOR ( 'NONE', #28, 1000.000000000000000 ) ;
#175 = CARTESIAN_POINT ( 'NONE',  ( 12.11234252452654836, 2.399999999999999911, -8.187630063977834993 ) ) ;
#176 = APPLICATION_CONTEXT ( 'automotive_design' ) ;
#177 = DIRECTION ( 'NONE',  ( 0.000000000000000000, 0.000000000000000000, -1.000000000000000000 ) ) ;
#178 = AXIS2_PLACEMENT_3D ( 'NONE', #44, #394, #593 ) ;
#179 = LINE ( 'NONE', #281, #30 ) ;
#180 = DIRECTION ( 'NONE',  ( 0.000000000000000000, 1.000000000000000000, 0.000000000000000000 ) ) ;
#181 = DIRECTION ( 'NONE',  ( 1.000000000000000000, -0.000000000000000000, 0.000000000000000000 ) ) ;
#182 = CARTESIAN_POINT ( 'NONE',  ( 0.000000000000000000, 0.000000000000000000, -17.85000000000000142 ) ) ;
#183 = EDGE_LOOP ( 'NONE', ( #324, #255, #445, #79 ) ) ;
#184 = LINE ( 'NONE', #383, #68 ) ;
#185 = CYLINDRICAL_SURFACE ( 'NONE', #524, 3.917055310598105411 ) ;
#186 = ORIENTED_EDGE ( 'NONE', *, *, #355, .F. ) ;
#187 = DIRECTION ( 'NONE',  ( -0.000000000000000000, -1.000000000000000000, -0.000000000000000000 ) ) ;
#188 = DIRECTION ( 'NONE',  ( -1.000000000000000000, 0.000000000000000000, 0.000000000000000000 ) ) ;
#189 = ORIENTED_EDGE ( 'NONE', *, *, #547, .T. ) ;
#190 = DIRECTION ( 'NONE',  ( 0.000000000000000000, 0.000000000000000000, -1.000000000000000000 ) ) ;
#191 = DIRECTION ( 'NONE',  ( -0.000000000000000000, -1.000000000000000000, -0.000000000000000000 ) ) ;
#192 = VERTEX_POINT ( 'NONE', #489 ) ;
#193 = ADVANCED_FACE ( 'NONE', ( #54 ), #483, .F. ) ;
#194 = CARTESIAN_POINT ( 'NONE',  ( 0.000000000000000000, 2.399999999999999911, 0.000000000000000000 ) ) ;
#195 = ORIENTED_EDGE ( 'NONE', *, *, #96, .F. ) ;
#196 = PRODUCT_CONTEXT ( 'NONE', #621, 'mechanical' ) ;
#197 = DIRECTION ( 'NONE',  ( -1.000000000000000000, -0.000000000000000000, -0.000000000000000000 ) ) ;
#198 = ORIENTED_EDGE ( 'NONE', *, *, #114, .F. ) ;
#199 = CLOSED_SHELL ( 'NONE', ( #164, #368, #579, #316, #302, #623, #277, #563, #104, #253, #345, #13, #135, #443, #193, #142, #14, #1, #216, #283, #76 ) ) ;
#200 = AXIS2_PLACEMENT_3D ( 'NONE', #505, #322, #25 ) ;
#201 = CYLINDRICAL_SURFACE ( 'NONE', #354, 1.000000000000000888 ) ;
#202 = ORIENTED_EDGE ( 'NONE', *, *, #557, .F. ) ;
#203 = VECTOR ( 'NONE', #574, 1000.000000000000000 ) ;
#204 = CIRCLE ( 'NONE', #158, 1.000000000000000888 ) ;
#205 = EDGE_CURVE ( 'NONE', #650, #458, #229, .T. ) ;
#206 = DIRECTION ( 'NONE',  ( 1.000000000000000000, 0.000000000000000000, -0.000000000000000000 ) ) ;
#207 = ORIENTED_EDGE ( 'NONE', *, *, #605, .T. ) ;
#208 = FILL_AREA_STYLE_COLOUR ( '', #56 ) ;
#209 = CARTESIAN_POINT ( 'NONE',  ( 0.000000000000000000, 2.399999999999999911, -17.85000000000000142 ) ) ;
#210 = ORIENTED_EDGE ( 'NONE', *, *, #520, .T. ) ;
#211 = SURFACE_STYLE_FILL_AREA ( #519 ) ;
#212 = VERTEX_POINT ( 'NONE', #182 ) ;
#213 = EDGE_CURVE ( 'NONE', #144, #58, #204, .T. ) ;
#214 = PRODUCT_DEFINITION_FORMATION_WITH_SPECIFIED_SOURCE ( 'Symmetric', '', #376, .NOT_KNOWN. ) ;
#215 = CARTESIAN_POINT ( 'NONE',  ( 7.652473150602575380, 8.500000000000000000, -17.39112207200055948 ) ) ;
#216 = ADVANCED_FACE ( 'NONE', ( #586 ), #598, .T. ) ;
#217 = FACE_OUTER_BOUND ( 'NONE', #465, .T. ) ;
#218 = DIRECTION ( 'NONE',  ( -0.000000000000000000, -1.000000000000000000, -0.000000000000000000 ) ) ;
#219 = FACE_OUTER_BOUND ( 'NONE', #490, .T. ) ;
#220 = UNCERTAINTY_MEASURE_WITH_UNIT (LENGTH_MEASURE( 1.000000000000000082E-05 ), #415, 'distance_accuracy_value', 'NONE');
#221 = CIRCLE ( 'NONE', #90, 1.000000000000001554 ) ;
#222 = DIRECTION ( 'NONE',  ( -0.000000000000000000, -0.000000000000000000, 1.000000000000000000 ) ) ;
#223 = VERTEX_POINT ( 'NONE', #138 ) ;
#224 = EDGE_CURVE ( 'NONE', #348, #518, #323, .T. ) ;
#225 = DIRECTION ( 'NONE',  ( -0.000000000000000000, -1.000000000000000000, -0.000000000000000000 ) ) ;
#226 = CARTESIAN_POINT ( 'NONE',  ( 8.330373295439018833, 8.500000000000000000, 0.000000000000000000 ) ) ;
#227 = CARTESIAN_POINT ( 'NONE',  ( 0.000000000000000000, 8.500000000000000000, 0.000000000000000000 ) ) ;
#228 = DIRECTION ( 'NONE',  ( 0.000000000000000000, 0.000000000000000000, -1.000000000000000000 ) ) ;
#229 = LINE ( 'NONE', #437, #573 ) ;
#230 = ORIENTED_EDGE ( 'NONE', *, *, #605, .F. ) ;
#231 = VECTOR ( 'NONE', #602, 1000.000000000000000 ) ;
#232 = EDGE_CURVE ( 'NONE', #275, #480, #645, .T. ) ;
#233 = DIRECTION ( 'NONE',  ( 0.000000000000000000, 0.000000000000000000, 1.000000000000000000 ) ) ;
#234 = ORIENTED_EDGE ( 'NONE', *, *, #421, .T. ) ;
#235 = AXIS2_PLACEMENT_3D ( 'NONE', #589, #444, #243 ) ;
#236 = DIRECTION ( 'NONE',  ( 0.000000000000000000, 1.000000000000000000, -0.000000000000000000 ) ) ;
#237 = DIRECTION ( 'NONE',  ( 0.000000000000000000, 1.000000000000000000, -0.000000000000000000 ) ) ;
#238 = VERTEX_POINT ( 'NONE', #99 ) ;
#239 = CARTESIAN_POINT ( 'NONE',  ( 0.000000000000000000, 2.399999999999999911, -17.85000000000000142 ) ) ;
#240 = DIRECTION ( 'NONE',  ( 0.000000000000000000, 0.000000000000000000, -1.000000000000000000 ) ) ;
#241 = EDGE_LOOP ( 'NONE', ( #438, #364, #198, #305 ) ) ;
#242 = EDGE_CURVE ( 'NONE', #361, #275, #295, .T. ) ;
#243 = DIRECTION ( 'NONE',  ( -1.000000000000000000, 0.000000000000000000, -0.000000000000000000 ) ) ;
#244 = VECTOR ( 'NONE', #339, 1000.000000000000000 ) ;
#245 = ORIENTED_EDGE ( 'NONE', *, *, #528, .T. ) ;
#246 = LINE ( 'NONE', #412, #378 ) ;
#247 = EDGE_CURVE ( 'NONE', #212, #238, #399, .T. ) ;
#248 = ORIENTED_EDGE ( 'NONE', *, *, #481, .F. ) ;
#249 = SURFACE_STYLE_USAGE ( .BOTH. , #452 ) ;
#250 = FACE_OUTER_BOUND ( 'NONE', #112, .T. ) ;
#251 = ORIENTED_EDGE ( 'NONE', *, *, #247, .T. ) ;
#252 = VECTOR ( 'NONE', #132, 1000.000000000000000 ) ;
#253 = ADVANCED_FACE ( 'NONE', ( #101 ), #500, .F. ) ;
#254 = DIRECTION ( 'NONE',  ( -0.000000000000000000, -1.000000000000000000, -0.000000000000000000 ) ) ;
#255 = ORIENTED_EDGE ( 'NONE', *, *, #33, .T. ) ;
#256 = MECHANICAL_DESIGN_GEOMETRIC_PRESENTATION_REPRESENTATION (  '', ( #625 ), #148 ) ;
#257 = AXIS2_PLACEMENT_3D ( 'NONE', #93, #237, #40 ) ;
#258 = FACE_OUTER_BOUND ( 'NONE', #55, .T. ) ;
#259 = ORIENTED_EDGE ( 'NONE', *, *, #484, .T. ) ;
#260 = VECTOR ( 'NONE', #228, 1000.000000000000000 ) ;
#261 = DIRECTION ( 'NONE',  ( -0.000000000000000000, -1.000000000000000000, -0.000000000000000000 ) ) ;
#262 = EDGE_CURVE ( 'NONE', #518, #348, #626, .T. ) ;
#263 = ORIENTED_EDGE ( 'NONE', *, *, #463, .F. ) ;
#264 = LINE ( 'NONE', #125, #203 ) ;
#265 = FACE_OUTER_BOUND ( 'NONE', #75, .T. ) ;
#266 = DIRECTION ( 'NONE',  ( 0.000000000000000000, 0.000000000000000000, 1.000000000000000000 ) ) ;
#267 = DIRECTION ( 'NONE',  ( 0.000000000000000000, 0.000000000000000000, 1.000000000000000000 ) ) ;
#268 = EDGE_LOOP ( 'NONE', ( #37, #248, #499, #359 ) ) ;
#269 = DIRECTION ( 'NONE',  ( 0.000000000000000000, 1.000000000000000000, -0.000000000000000000 ) ) ;
#270 = EDGE_LOOP ( 'NONE', ( #503, #353 ) ) ;
#271 = PRODUCT_DEFINITION_CONTEXT ( 'detailed design', #176, 'design' ) ;
#272 = EDGE_CURVE ( 'NONE', #407, #223, #246, .T. ) ;
#273 = LINE ( 'NONE', #118, #570 ) ;
#274 = CARTESIAN_POINT ( 'NONE',  ( 18.15000000000000213, 2.399999999999999911, -2.149999999999999911 ) ) ;
#275 = VERTEX_POINT ( 'NONE', #57 ) ;
#276 = AXIS2_PLACEMENT_3D ( 'NONE', #306, #504, #3 ) ;
#277 = ADVANCED_FACE ( 'NONE', ( #159 ), #408, .F. ) ;
#278 = DIRECTION ( 'NONE',  ( -0.000000000000000000, -1.000000000000000000, -0.000000000000000000 ) ) ;
#279 = DIRECTION ( 'NONE',  ( -0.000000000000000000, -1.000000000000000000, -0.000000000000000000 ) ) ;
#280 = ORIENTED_EDGE ( 'NONE', *, *, #232, .F. ) ;
#281 = CARTESIAN_POINT ( 'NONE',  ( 20.30000000000000071, 0.000000000000000000, 0.000000000000000000 ) ) ;
#282 = CARTESIAN_POINT ( 'NONE',  ( 7.652473150602575380, 2.399999999999999911, -13.47406676140245452 ) ) ;
#283 = ADVANCED_FACE ( 'NONE', ( #62 ), #416, .T. ) ;
#284 = EDGE_LOOP ( 'NONE', ( #450, #156, #559, #20 ) ) ;
#285 = CARTESIAN_POINT ( 'NONE',  ( 7.652473150602575380, 2.399999999999999911, -17.39112207200055948 ) ) ;
#286 = AXIS2_PLACEMENT_3D ( 'NONE', #32, #433, #318 ) ;
#287 = DIRECTION ( 'NONE',  ( 0.000000000000000000, 0.000000000000000000, 1.000000000000000000 ) ) ;
#288 = ORIENTED_EDGE ( 'NONE', *, *, #632, .T. ) ;
#289 = DIRECTION ( 'NONE',  ( 0.000000000000000000, 0.000000000000000000, -1.000000000000000000 ) ) ;
#290 = CARTESIAN_POINT ( 'NONE',  ( 2.149999999999999911, 0.000000000000000000, -15.70000000000000284 ) ) ;
#291 = CIRCLE ( 'NONE', #542, 3.917055310598105411 ) ;
#292 = ORIENTED_EDGE ( 'NONE', *, *, #576, .F. ) ;
#293 = AXIS2_PLACEMENT_3D ( 'NONE', #10, #508, #206 ) ;
#294 = PLANE ( 'NONE',  #414 ) ;
#295 = LINE ( 'NONE', #50, #493 ) ;
#296 = EDGE_CURVE ( 'NONE', #616, #361, #648, .T. ) ;
#297 = ORIENTED_EDGE ( 'NONE', *, *, #46, .F. ) ;
#298 = VECTOR ( 'NONE', #634, 1000.000000000000000 ) ;
#299 = DIRECTION ( 'NONE',  ( 0.000000000000000000, 1.000000000000000000, 0.000000000000000000 ) ) ;
#300 = ORIENTED_EDGE ( 'NONE', *, *, #66, .T. ) ;
#301 = AXIS2_PLACEMENT_3D ( 'NONE', #555, #401, #64 ) ;
#302 = ADVANCED_FACE ( 'NONE', ( #502, #610, #111, #558, #258, #404 ), #4, .F. ) ;
#303 = CYLINDRICAL_SURFACE ( 'NONE', #320, 3.633302050423329987 ) ;
#304 =( GEOMETRIC_REPRESENTATION_CONTEXT ( 3 ) GLOBAL_UNCERTAINTY_ASSIGNED_CONTEXT ( ( #220 ) ) GLOBAL_UNIT_ASSIGNED_CONTEXT ( ( #415, #647, #157 ) ) REPRESENTATION_CONTEXT ( 'NONE', 'WORKASPACE' ) );
#305 = ORIENTED_EDGE ( 'NONE', *, *, #451, .F. ) ;
#306 = CARTESIAN_POINT ( 'NONE',  ( 0.000000000000000000, 0.000000000000000000, 0.000000000000000000 ) ) ;
#307 = CARTESIAN_POINT ( 'NONE',  ( 2.149999999999999911, 2.399999999999999911, -15.70000000000000284 ) ) ;
#308 = EDGE_LOOP ( 'NONE', ( #245, #609 ) ) ;
#309 = DIRECTION ( 'NONE',  ( 0.000000000000000000, 0.000000000000000000, -1.000000000000000000 ) ) ;
#310 = ORIENTED_EDGE ( 'NONE', *, *, #552, .F. ) ;
#311 =( NAMED_UNIT ( * ) PLANE_ANGLE_UNIT ( ) SI_UNIT ( $, .RADIAN. ) );
#312 = DIRECTION ( 'NONE',  ( 0.000000000000000000, 0.000000000000000000, -1.000000000000000000 ) ) ;
#313 = ORIENTED_EDGE ( 'NONE', *, *, #52, .F. ) ;
#314 = DIRECTION ( 'NONE',  ( 0.000000000000000000, -1.000000000000000000, 0.000000000000000000 ) ) ;
#315 = EDGE_LOOP ( 'NONE', ( #541, #202, #147, #207 ) ) ;
#316 = ADVANCED_FACE ( 'NONE', ( #250 ), #459, .F. ) ;
#317 = FILL_AREA_STYLE_COLOUR ( '', #491 ) ;
#318 = DIRECTION ( 'NONE',  ( 0.000000000000000000, 0.000000000000000000, 1.000000000000000000 ) ) ;
#319 = CARTESIAN_POINT ( 'NONE',  ( 18.15000000000000213, 2.399999999999999911, -1.149999999999998357 ) ) ;
#320 = AXIS2_PLACEMENT_3D ( 'NONE', #606, #553, #309 ) ;
#321 = DIRECTION ( 'NONE',  ( 1.000000000000000000, 0.000000000000000000, 0.000000000000000000 ) ) ;
#322 = DIRECTION ( 'NONE',  ( 0.000000000000000000, 1.000000000000000000, 0.000000000000000000 ) ) ;
#323 = CIRCLE ( 'NONE', #97, 1.000000000000000888 ) ;
#324 = ORIENTED_EDGE ( 'NONE', *, *, #511, .F. ) ;
#325 = VECTOR ( 'NONE', #278, 1000.000000000000000 ) ;
#326 = CARTESIAN_POINT ( 'NONE',  ( 18.15000000000000213, 2.399999999999999911, -2.149999999999999911 ) ) ;
#327 = DIRECTION ( 'NONE',  ( 0.000000000000000000, 0.000000000000000000, -1.000000000000000000 ) ) ;
#328 = DIRECTION ( 'NONE',  ( -0.000000000000000000, -1.000000000000000000, -0.000000000000000000 ) ) ;
#329 = STYLED_ITEM ( 'NONE', ( #512 ), #137 ) ;
#330 = CARTESIAN_POINT ( 'NONE',  ( 1.372977072117614883, 8.500000000000000000, 0.000000000000000000 ) ) ;
#331 = FACE_OUTER_BOUND ( 'NONE', #397, .T. ) ;
#332 = EDGE_LOOP ( 'NONE', ( #292, #288, #448, #607 ) ) ;
#333 = DIRECTION ( 'NONE',  ( -0.000000000000000000, -1.000000000000000000, -0.000000000000000000 ) ) ;
#334 = DIRECTION ( 'NONE',  ( 0.000000000000000000, 1.000000000000000000, 0.000000000000000000 ) ) ;
#335 = EDGE_LOOP ( 'NONE', ( #128, #186 ) ) ;
#336 = CARTESIAN_POINT ( 'NONE',  ( 18.15000000000000213, 2.399999999999999911, -2.149999999999999911 ) ) ;
#337 = PLANE ( 'NONE',  #235 ) ;
#338 = ORIENTED_EDGE ( 'NONE', *, *, #384, .T. ) ;
#339 = DIRECTION ( 'NONE',  ( -0.000000000000000000, -1.000000000000000000, -0.000000000000000000 ) ) ;
#340 = EDGE_CURVE ( 'NONE', #9, #480, #352, .T. ) ;
#341 = DIRECTION ( 'NONE',  ( -1.000000000000000000, 0.000000000000000000, 0.000000000000000000 ) ) ;
#342 = AXIS2_PLACEMENT_3D ( 'NONE', #622, #627, #266 ) ;
#343 = ORIENTED_EDGE ( 'NONE', *, *, #340, .F. ) ;
#344 = AXIS2_PLACEMENT_3D ( 'NONE', #194, #162, #549 ) ;
#345 = ADVANCED_FACE ( 'NONE', ( #358 ), #201, .F. ) ;
#346 = LINE ( 'NONE', #226, #497 ) ;
#347 = DIRECTION ( 'NONE',  ( -0.000000000000000000, -0.000000000000000000, 1.000000000000000000 ) ) ;
#348 = VERTEX_POINT ( 'NONE', #513 ) ;
#349 = VECTOR ( 'NONE', #83, 1000.000000000000000 ) ;
#350 = EDGE_CURVE ( 'NONE', #646, #192, #436, .T. ) ;
#351 = FILL_AREA_STYLE ('',( #208 ) ) ;
#352 = LINE ( 'NONE', #363, #231 ) ;
#353 = ORIENTED_EDGE ( 'NONE', *, *, #350, .T. ) ;
#354 = AXIS2_PLACEMENT_3D ( 'NONE', #561, #155, #312 ) ;
#355 = EDGE_CURVE ( 'NONE', #223, #556, #123, .T. ) ;
#356 = DIRECTION ( 'NONE',  ( 0.000000000000000000, 0.000000000000000000, 1.000000000000000000 ) ) ;
#357 = VERTEX_POINT ( 'NONE', #651 ) ;
#358 = FACE_OUTER_BOUND ( 'NONE', #332, .T. ) ;
#359 = ORIENTED_EDGE ( 'NONE', *, *, #52, .T. ) ;
#360 = DIRECTION ( 'NONE',  ( 0.000000000000000000, -0.000000000000000000, -1.000000000000000000 ) ) ;
#361 = VERTEX_POINT ( 'NONE', #464 ) ;
#362 = UNCERTAINTY_MEASURE_WITH_UNIT (LENGTH_MEASURE( 1.000000000000000082E-05 ), #70, 'distance_accuracy_value', 'NONE');
#363 = CARTESIAN_POINT ( 'NONE',  ( 1.372977072117614883, 8.500000000000000000, -7.658397097805591081 ) ) ;
#364 = ORIENTED_EDGE ( 'NONE', *, *, #511, .T. ) ;
#365 = EDGE_CURVE ( 'NONE', #65, #154, #153, .T. ) ;
#366 = LINE ( 'NONE', #427, #5 ) ;
#367 = ORIENTED_EDGE ( 'NONE', *, *, #224, .T. ) ;
#368 = ADVANCED_FACE ( 'NONE', ( #105 ), #303, .T. ) ;
#369 = LINE ( 'NONE', #319, #95 ) ;
#370 = DIRECTION ( 'NONE',  ( -0.000000000000000000, -1.000000000000000000, -0.000000000000000000 ) ) ;
#371 = CIRCLE ( 'NONE', #620, 3.633302050423330432 ) ;
#372 =( NAMED_UNIT ( * ) PLANE_ANGLE_UNIT ( ) SI_UNIT ( $, .RADIAN. ) );
#373 = EDGE_CURVE ( 'NONE', #485, #23, #603, .T. ) ;
#374 = LINE ( 'NONE', #571, #36 ) ;
#375 = ORIENTED_EDGE ( 'NONE', *, *, #340, .T. ) ;
#376 = PRODUCT ( 'pololu_buck_converter', 'pololu_buck_converter', '', ( #196 ) ) ;
#377 = AXIS2_PLACEMENT_3D ( 'NONE', #169, #327, #613 ) ;
#378 = VECTOR ( 'NONE', #517, 1000.000000000000000 ) ;
#379 = EDGE_LOOP ( 'NONE', ( #640, #343, #562, #122 ) ) ;
#380 = VECTOR ( 'NONE', #88, 1000.000000000000000 ) ;
#381 = LINE ( 'NONE', #215, #572 ) ;
#382 = CYLINDRICAL_SURFACE ( 'NONE', #171, 3.633302050423329987 ) ;
#383 = CARTESIAN_POINT ( 'NONE',  ( 2.149999999999999911, 2.399999999999999911, -14.70000000000000107 ) ) ;
#384 = EDGE_CURVE ( 'NONE', #163, #485, #273, .T. ) ;
#385 = VECTOR ( 'NONE', #197, 1000.000000000000000 ) ;
#386 = CARTESIAN_POINT ( 'NONE',  ( 1.372977072117614883, 8.500000000000000000, 0.000000000000000000 ) ) ;
#387 = ORIENTED_EDGE ( 'NONE', *, *, #262, .T. ) ;
#388 = FACE_OUTER_BOUND ( 'NONE', #636, .T. ) ;
#389 = CARTESIAN_POINT ( 'NONE',  ( 2.149999999999999911, 2.399999999999999911, -15.70000000000000284 ) ) ;
#390 = ORIENTED_EDGE ( 'NONE', *, *, #355, .T. ) ;
#391 = LINE ( 'NONE', #239, #349 ) ;
#392 = CARTESIAN_POINT ( 'NONE',  ( 8.330373295439018833, 8.500000000000000000, 0.000000000000000000 ) ) ;
#393 = ORIENTED_EDGE ( 'NONE', *, *, #213, .F. ) ;
#394 = DIRECTION ( 'NONE',  ( 0.000000000000000000, -1.000000000000000000, 0.000000000000000000 ) ) ;
#395 = CARTESIAN_POINT ( 'NONE',  ( 8.330373295439018833, 8.500000000000000000, -7.658397097805591081 ) ) ;
#396 = EDGE_CURVE ( 'NONE', #154, #650, #366, .T. ) ;
#397 = EDGE_LOOP ( 'NONE', ( #652, #631, #417, #617 ) ) ;
#398 = FACE_BOUND ( 'NONE', #454, .T. ) ;
#399 = LINE ( 'NONE', #150, #439 ) ;
#400 = ORIENTED_EDGE ( 'NONE', *, *, #467, .F. ) ;
#401 = DIRECTION ( 'NONE',  ( 0.000000000000000000, 1.000000000000000000, 0.000000000000000000 ) ) ;
#402 = VERTEX_POINT ( 'NONE', #466 ) ;
#403 = EDGE_CURVE ( 'NONE', #407, #60, #103, .T. ) ;
#404 = FACE_BOUND ( 'NONE', #6, .T. ) ;
#405 = VECTOR ( 'NONE', #328, 1000.000000000000000 ) ;
#406 = EDGE_CURVE ( 'NONE', #124, #275, #77, .T. ) ;
#407 = VERTEX_POINT ( 'NONE', #476 ) ;
#408 = PLANE ( 'NONE',  #344 ) ;
#409 = ORIENTED_EDGE ( 'NONE', *, *, #403, .T. ) ;
#410 = MANIFOLD_SOLID_BREP ( 'Boss-Extrude2', #199 ) ;
#411 = VECTOR ( 'NONE', #45, 1000.000000000000000 ) ;
#412 = CARTESIAN_POINT ( 'NONE',  ( 7.652473150602576268, 8.500000000000000000, -9.557011450804349550 ) ) ;
#413 = VERTEX_POINT ( 'NONE', #21 ) ;
#414 = AXIS2_PLACEMENT_3D ( 'NONE', #629, #597, #487 ) ;
#415 =( LENGTH_UNIT ( ) NAMED_UNIT ( * ) SI_UNIT ( .MILLI., .METRE. ) );
#416 = CYLINDRICAL_SURFACE ( 'NONE', #38, 3.917055310598105411 ) ;
#417 = ORIENTED_EDGE ( 'NONE', *, *, #522, .F. ) ;
#418 = PRESENTATION_STYLE_ASSIGNMENT (( #72 ) ) ;
#419 = ORIENTED_EDGE ( 'NONE', *, *, #272, .T. ) ;
#420 = MECHANICAL_DESIGN_GEOMETRIC_PRESENTATION_REPRESENTATION (  '', ( #329 ), #304 ) ;
#421 = EDGE_CURVE ( 'NONE', #458, #65, #264, .T. ) ;
#422 = CARTESIAN_POINT ( 'NONE',  ( 7.652473150602575380, 8.500000000000000000, -13.47406676140245452 ) ) ;
#423 = EDGE_LOOP ( 'NONE', ( #251, #313, #495, #470 ) ) ;
#424 = CARTESIAN_POINT ( 'NONE',  ( 1.372977072117614883, 2.399999999999999911, -7.658397097805591081 ) ) ;
#425 = PLANE ( 'NONE',  #509 ) ;
#426 = AXIS2_PLACEMENT_3D ( 'NONE', #227, #578, #624 ) ;
#427 = CARTESIAN_POINT ( 'NONE',  ( 0.000000000000000000, 2.399999999999999911, 0.000000000000000000 ) ) ;
#428 = CARTESIAN_POINT ( 'NONE',  ( 12.11234252452654836, 8.500000000000000000, -4.554328013554505006 ) ) ;
#429 = PRESENTATION_LAYER_ASSIGNMENT (  '', '', ( #625 ) ) ;
#430 = DIRECTION ( 'NONE',  ( 0.000000000000000000, 1.000000000000000000, -0.000000000000000000 ) ) ;
#431 = CARTESIAN_POINT ( 'NONE',  ( 2.149999999999999911, 2.399999999999999911, -14.70000000000000107 ) ) ;
#432 = DIRECTION ( 'NONE',  ( 0.000000000000000000, 0.000000000000000000, -1.000000000000000000 ) ) ;
#433 = DIRECTION ( 'NONE',  ( 0.000000000000000000, 1.000000000000000000, -0.000000000000000000 ) ) ;
#434 = ORIENTED_EDGE ( 'NONE', *, *, #520, .F. ) ;
#435 = CARTESIAN_POINT ( 'NONE',  ( 8.330373295439018833, 8.500000000000000000, -1.200506244363679142 ) ) ;
#436 = CIRCLE ( 'NONE', #301, 1.000000000000001554 ) ;
#437 = CARTESIAN_POINT ( 'NONE',  ( 0.000000000000000000, 2.399999999999999911, 0.000000000000000000 ) ) ;
#438 = ORIENTED_EDGE ( 'NONE', *, *, #24, .T. ) ;
#439 = VECTOR ( 'NONE', #347, 1000.000000000000000 ) ;
#440 = DIRECTION ( 'NONE',  ( 0.000000000000000000, 0.000000000000000000, 1.000000000000000000 ) ) ;
#441 = ORIENTED_EDGE ( 'NONE', *, *, #373, .T. ) ;
#442 = CARTESIAN_POINT ( 'NONE',  ( 18.15000000000000213, 2.399999999999999911, -3.150000000000001688 ) ) ;
#443 = ADVANCED_FACE ( 'NONE', ( #474 ), #80, .T. ) ;
#444 = DIRECTION ( 'NONE',  ( 0.000000000000000000, 0.000000000000000000, -1.000000000000000000 ) ) ;
#445 = ORIENTED_EDGE ( 'NONE', *, *, #451, .T. ) ;
#446 = DIRECTION ( 'NONE',  ( 0.000000000000000000, 1.000000000000000000, 0.000000000000000000 ) ) ;
#447 = DIRECTION ( 'NONE',  ( 0.000000000000000000, 0.000000000000000000, 1.000000000000000000 ) ) ;
#448 = ORIENTED_EDGE ( 'NONE', *, *, #49, .T. ) ;
#449 = CARTESIAN_POINT ( 'NONE',  ( 0.000000000000000000, 2.399999999999999911, 0.000000000000000000 ) ) ;
#450 = ORIENTED_EDGE ( 'NONE', *, *, #272, .F. ) ;
#451 = EDGE_CURVE ( 'NONE', #548, #192, #167, .T. ) ;
#452 = SURFACE_SIDE_STYLE ('',( #507 ) ) ;
#453 = DIRECTION ( 'NONE',  ( 0.000000000000000000, 1.000000000000000000, 0.000000000000000000 ) ) ;
#454 = EDGE_LOOP ( 'NONE', ( #387, #367 ) ) ;
#455 = APPLICATION_PROTOCOL_DEFINITION ( 'draft international standard', 'automotive_design', 1998, #621 ) ;
#456 = DIRECTION ( 'NONE',  ( 0.000000000000000000, 0.000000000000000000, 1.000000000000000000 ) ) ;
#457 = VECTOR ( 'NONE', #225, 1000.000000000000000 ) ;
#458 = VERTEX_POINT ( 'NONE', #469 ) ;
#459 = CYLINDRICAL_SURFACE ( 'NONE', #550, 1.000000000000000888 ) ;
#460 = ORIENTED_EDGE ( 'NONE', *, *, #632, .F. ) ;
#461 = VECTOR ( 'NONE', #15, 1000.000000000000000 ) ;
#462 = AXIS2_PLACEMENT_3D ( 'NONE', #392, #341, #498 ) ;
#463 = EDGE_CURVE ( 'NONE', #163, #100, #42, .T. ) ;
#464 = CARTESIAN_POINT ( 'NONE',  ( 8.330373295439018833, 2.399999999999999911, -1.200506244363679142 ) ) ;
#465 = EDGE_LOOP ( 'NONE', ( #109, #160, #300, #468 ) ) ;
#466 = CARTESIAN_POINT ( 'NONE',  ( 20.30000000000000071, 0.000000000000000000, -17.85000000000000142 ) ) ;
#467 = EDGE_CURVE ( 'NONE', #60, #556, #381, .T. ) ;
#468 = ORIENTED_EDGE ( 'NONE', *, *, #96, .T. ) ;
#469 = CARTESIAN_POINT ( 'NONE',  ( 20.30000000000000071, 2.399999999999999911, 0.000000000000000000 ) ) ;
#470 = ORIENTED_EDGE ( 'NONE', *, *, #557, .T. ) ;
#471 = DIRECTION ( 'NONE',  ( 0.000000000000000000, 1.000000000000000000, 0.000000000000000000 ) ) ;
#472 = ORIENTED_EDGE ( 'NONE', *, *, #576, .T. ) ;
#473 = PRODUCT_DEFINITION_SHAPE ( 'NONE', 'NONE',  #590 ) ;
#474 = FACE_OUTER_BOUND ( 'NONE', #379, .T. ) ;
#475 = CYLINDRICAL_SURFACE ( 'NONE', #486, 1.000000000000001776 ) ;
#476 = CARTESIAN_POINT ( 'NONE',  ( 7.652473150602576268, 8.500000000000000000, -9.557011450804349550 ) ) ;
#477 = DIRECTION ( 'NONE',  ( 0.000000000000000000, 0.000000000000000000, 1.000000000000000000 ) ) ;
#478 = CARTESIAN_POINT ( 'NONE',  ( 12.11234252452654836, 8.500000000000000000, -4.554328013554505006 ) ) ;
#479 = CARTESIAN_POINT ( 'NONE',  ( 1.372977072117614883, 8.500000000000000000, -7.658397097805591081 ) ) ;
#480 = VERTEX_POINT ( 'NONE', #424 ) ;
#481 = EDGE_CURVE ( 'NONE', #458, #604, #120, .T. ) ;
#482 = CARTESIAN_POINT ( 'NONE',  ( 20.30000000000000071, 0.000000000000000000, 0.000000000000000000 ) ) ;
#483 = PLANE ( 'NONE',  #462 ) ;
#484 = EDGE_CURVE ( 'NONE', #60, #407, #291, .T. ) ;
#485 = VERTEX_POINT ( 'NONE', #615 ) ;
#486 = AXIS2_PLACEMENT_3D ( 'NONE', #568, #370, #119 ) ;
#487 = DIRECTION ( 'NONE',  ( -1.000000000000000000, 0.000000000000000000, -0.000000000000000000 ) ) ;
#488 = AXIS2_PLACEMENT_3D ( 'NONE', #600, #453, #356 ) ;
#489 = CARTESIAN_POINT ( 'NONE',  ( 18.15000000000000213, 0.000000000000000000, -3.150000000000001688 ) ) ;
#490 = EDGE_LOOP ( 'NONE', ( #614, #230, #545, #538 ) ) ;
#491 = COLOUR_RGB ( '',0.000000000000000000, 0.5019607843137254832, 0.000000000000000000 ) ;
#492 = CARTESIAN_POINT ( 'NONE',  ( 20.30000000000000071, 2.399999999999999911, -17.85000000000000142 ) ) ;
#493 = VECTOR ( 'NONE', #240, 1000.000000000000000 ) ;
#494 = CARTESIAN_POINT ( 'NONE',  ( 1.372977072117614883, 2.399999999999999911, -7.658397097805591081 ) ) ;
#495 = ORIENTED_EDGE ( 'NONE', *, *, #396, .F. ) ;
#496 = LINE ( 'NONE', #539, #48 ) ;
#497 = VECTOR ( 'NONE', #432, 1000.000000000000000 ) ;
#498 = DIRECTION ( 'NONE',  ( 0.000000000000000000, 0.000000000000000000, 1.000000000000000000 ) ) ;
#499 = ORIENTED_EDGE ( 'NONE', *, *, #205, .F. ) ;
#500 = PLANE ( 'NONE',  #293 ) ;
#501 = ORIENTED_EDGE ( 'NONE', *, *, #585, .F. ) ;
#502 = FACE_BOUND ( 'NONE', #335, .T. ) ;
#503 = ORIENTED_EDGE ( 'NONE', *, *, #114, .T. ) ;
#504 = DIRECTION ( 'NONE',  ( 0.000000000000000000, 0.000000000000000000, 1.000000000000000000 ) ) ;
#505 = CARTESIAN_POINT ( 'NONE',  ( 12.11234252452654836, 2.399999999999999911, -4.554328013554505006 ) ) ;
#506 = ORIENTED_EDGE ( 'NONE', *, *, #205, .T. ) ;
#507 = SURFACE_STYLE_FILL_AREA ( #351 ) ;
#508 = DIRECTION ( 'NONE',  ( 0.000000000000000000, 0.000000000000000000, 1.000000000000000000 ) ) ;
#509 = AXIS2_PLACEMENT_3D ( 'NONE', #619, #188, #287 ) ;
#510 = ORIENTED_EDGE ( 'NONE', *, *, #49, .F. ) ;
#511 = EDGE_CURVE ( 'NONE', #357, #646, #369, .T. ) ;
#512 = PRESENTATION_STYLE_ASSIGNMENT (( #249 ) ) ;
#513 = CARTESIAN_POINT ( 'NONE',  ( 2.149999999999999911, 0.000000000000000000, -14.70000000000000107 ) ) ;
#514 = ORIENTED_EDGE ( 'NONE', *, *, #365, .T. ) ;
#515 = VECTOR ( 'NONE', #261, 1000.000000000000000 ) ;
#516 = EDGE_CURVE ( 'NONE', #604, #402, #179, .T. ) ;
#517 = DIRECTION ( 'NONE',  ( -0.000000000000000000, -1.000000000000000000, -0.000000000000000000 ) ) ;
#518 = VERTEX_POINT ( 'NONE', #149 ) ;
#519 = FILL_AREA_STYLE ('',( #317 ) ) ;
#520 = EDGE_CURVE ( 'NONE', #413, #9, #536, .T. ) ;
#521 = DIRECTION ( 'NONE',  ( 0.000000000000000000, 1.000000000000000000, 0.000000000000000000 ) ) ;
#522 = EDGE_CURVE ( 'NONE', #87, #361, #140, .T. ) ;
#523 = LINE ( 'NONE', #566, #405 ) ;
#524 = AXIS2_PLACEMENT_3D ( 'NONE', #89, #191, #534 ) ;
#525 = DIRECTION ( 'NONE',  ( -0.000000000000000000, -1.000000000000000000, -0.000000000000000000 ) ) ;
#526 = LINE ( 'NONE', #529, #252 ) ;
#527 = CARTESIAN_POINT ( 'NONE',  ( 12.11234252452654836, 8.500000000000000000, -4.554328013554505006 ) ) ;
#528 = EDGE_CURVE ( 'NONE', #100, #163, #161, .T. ) ;
#529 = CARTESIAN_POINT ( 'NONE',  ( 0.000000000000000000, 8.500000000000000000, -7.658397097805591081 ) ) ;
#530 = CARTESIAN_POINT ( 'NONE',  ( 18.15000000000000213, 2.399999999999999911, -3.150000000000001688 ) ) ;
#531 = LINE ( 'NONE', #71, #457 ) ;
#532 = PRESENTATION_LAYER_ASSIGNMENT (  '', '', ( #329 ) ) ;
#533 = FACE_OUTER_BOUND ( 'NONE', #268, .T. ) ;
#534 = DIRECTION ( 'NONE',  ( 0.000000000000000000, 0.000000000000000000, -1.000000000000000000 ) ) ;
#535 = ORIENTED_EDGE ( 'NONE', *, *, #296, .F. ) ;
#536 = LINE ( 'NONE', #330, #260 ) ;
#537 = DIRECTION ( 'NONE',  ( 0.000000000000000000, 0.000000000000000000, 1.000000000000000000 ) ) ;
#538 = ORIENTED_EDGE ( 'NONE', *, *, #481, .T. ) ;
#539 = CARTESIAN_POINT ( 'NONE',  ( 0.000000000000000000, 8.500000000000000000, -1.200506244363679142 ) ) ;
#540 = PLANE ( 'NONE',  #127 ) ;
#541 = ORIENTED_EDGE ( 'NONE', *, *, #585, .T. ) ;
#542 = AXIS2_PLACEMENT_3D ( 'NONE', #422, #269, #131 ) ;
#543 = LINE ( 'NONE', #136, #244 ) ;
#544 = DIRECTION ( 'NONE',  ( 0.000000000000000000, 0.000000000000000000, 1.000000000000000000 ) ) ;
#545 = ORIENTED_EDGE ( 'NONE', *, *, #421, .F. ) ;
#546 = FACE_OUTER_BOUND ( 'NONE', #583, .T. ) ;
#547 = EDGE_CURVE ( 'NONE', #413, #87, #496, .T. ) ;
#548 = VERTEX_POINT ( 'NONE', #442 ) ;
#549 = DIRECTION ( 'NONE',  ( 0.000000000000000000, 0.000000000000000000, -1.000000000000000000 ) ) ;
#550 = AXIS2_PLACEMENT_3D ( 'NONE', #307, #113, #67 ) ;
#551 = ORIENTED_EDGE ( 'NONE', *, *, #516, .F. ) ;
#552 = EDGE_CURVE ( 'NONE', #87, #124, #346, .T. ) ;
#553 = DIRECTION ( 'NONE',  ( -0.000000000000000000, -1.000000000000000000, -0.000000000000000000 ) ) ;
#554 = EDGE_LOOP ( 'NONE', ( #195, #16 ) ) ;
#555 = CARTESIAN_POINT ( 'NONE',  ( 18.15000000000000213, 0.000000000000000000, -2.149999999999999911 ) ) ;
#556 = VERTEX_POINT ( 'NONE', #285 ) ;
#557 = EDGE_CURVE ( 'NONE', #154, #212, #391, .T. ) ;
#558 = FACE_BOUND ( 'NONE', #595, .T. ) ;
#559 = ORIENTED_EDGE ( 'NONE', *, *, #467, .T. ) ;
#560 = CIRCLE ( 'NONE', #582, 1.000000000000000888 ) ;
#561 = CARTESIAN_POINT ( 'NONE',  ( 2.149999999999999911, 2.399999999999999911, -15.70000000000000284 ) ) ;
#562 = ORIENTED_EDGE ( 'NONE', *, *, #19, .T. ) ;
#563 = ADVANCED_FACE ( 'NONE', ( #533 ), #294, .F. ) ;
#564 = UNCERTAINTY_MEASURE_WITH_UNIT (LENGTH_MEASURE( 1.000000000000000082E-05 ), #644, 'distance_accuracy_value', 'NONE');
#565 = CARTESIAN_POINT ( 'NONE',  ( 8.330373295439018833, 8.500000000000000000, -7.658397097805591081 ) ) ;
#566 = CARTESIAN_POINT ( 'NONE',  ( 2.149999999999999911, 2.399999999999999911, -16.70000000000000284 ) ) ;
#567 = DIRECTION ( 'NONE',  ( -0.000000000000000000, -1.000000000000000000, -0.000000000000000000 ) ) ;
#568 = CARTESIAN_POINT ( 'NONE',  ( 18.15000000000000213, 2.399999999999999911, -2.149999999999999911 ) ) ;
#569 = VECTOR ( 'NONE', #279, 1000.000000000000000 ) ;
#570 = VECTOR ( 'NONE', #525, 1000.000000000000000 ) ;
#571 = CARTESIAN_POINT ( 'NONE',  ( 0.000000000000000000, 0.000000000000000000, 0.000000000000000000 ) ) ;
#572 = VECTOR ( 'NONE', #567, 1000.000000000000000 ) ;
#573 = VECTOR ( 'NONE', #635, 1000.000000000000000 ) ;
#574 = DIRECTION ( 'NONE',  ( 0.000000000000000000, 0.000000000000000000, -1.000000000000000000 ) ) ;
#575 = DIRECTION ( 'NONE',  ( -0.000000000000000000, -1.000000000000000000, -0.000000000000000000 ) ) ;
#576 = EDGE_CURVE ( 'NONE', #58, #348, #184, .T. ) ;
#577 = CARTESIAN_POINT ( 'NONE',  ( 20.30000000000000071, 2.399999999999999911, 0.000000000000000000 ) ) ;
#578 = DIRECTION ( 'NONE',  ( 0.000000000000000000, 1.000000000000000000, -0.000000000000000000 ) ) ;
#579 = ADVANCED_FACE ( 'NONE', ( #641 ), #588, .F. ) ;
#580 = LINE ( 'NONE', #133, #298 ) ;
#581 = CARTESIAN_POINT ( 'NONE',  ( 0.000000000000000000, 2.399999999999999911, -17.85000000000000142 ) ) ;
#582 = AXIS2_PLACEMENT_3D ( 'NONE', #34, #446, #638 ) ;
#583 = EDGE_LOOP ( 'NONE', ( #102, #91, #210, #375 ) ) ;
#584 = PLANE ( 'NONE',  #178 ) ;
#585 = EDGE_CURVE ( 'NONE', #402, #212, #580, .T. ) ;
#586 = FACE_OUTER_BOUND ( 'NONE', #308, .T. ) ;
#587 = ORIENTED_EDGE ( 'NONE', *, *, #247, .F. ) ;
#588 = CYLINDRICAL_SURFACE ( 'NONE', #11, 1.000000000000001776 ) ;
#589 = CARTESIAN_POINT ( 'NONE',  ( 0.000000000000000000, 8.500000000000000000, -1.200506244363679142 ) ) ;
#590 = PRODUCT_DEFINITION ( 'General', '', #214, #271 ) ;
#591 = ORIENTED_EDGE ( 'NONE', *, *, #406, .F. ) ;
#592 = CIRCLE ( 'NONE', #43, 3.917055310598105411 ) ;
#593 = DIRECTION ( 'NONE',  ( 0.000000000000000000, -0.000000000000000000, -1.000000000000000000 ) ) ;
#594 = DIRECTION ( 'NONE',  ( -1.000000000000000000, 0.000000000000000000, 0.000000000000000000 ) ) ;
#595 = EDGE_LOOP ( 'NONE', ( #393, #460 ) ) ;
#596 = AXIS2_PLACEMENT_3D ( 'NONE', #527, #430, #18 ) ;
#597 = DIRECTION ( 'NONE',  ( 0.000000000000000000, 0.000000000000000000, -1.000000000000000000 ) ) ;
#598 = PLANE ( 'NONE',  #257 ) ;
#599 = ORIENTED_EDGE ( 'NONE', *, *, #522, .T. ) ;
#600 = CARTESIAN_POINT ( 'NONE',  ( 7.652473150602575380, 2.399999999999999911, -13.47406676140245452 ) ) ;
#601 = EDGE_LOOP ( 'NONE', ( #69, #419, #390, #400 ) ) ;
#602 = DIRECTION ( 'NONE',  ( -0.000000000000000000, -1.000000000000000000, -0.000000000000000000 ) ) ;
#603 = CIRCLE ( 'NONE', #200, 3.633302050423330432 ) ;
#604 = VERTEX_POINT ( 'NONE', #482 ) ;
#605 = EDGE_CURVE ( 'NONE', #65, #402, #92, .T. ) ;
#606 = CARTESIAN_POINT ( 'NONE',  ( 12.11234252452654836, 8.500000000000000000, -4.554328013554505006 ) ) ;
#607 = ORIENTED_EDGE ( 'NONE', *, *, #224, .F. ) ;
#608 = CARTESIAN_POINT ( 'NONE',  ( 2.149999999999999911, 0.000000000000000000, -15.70000000000000284 ) ) ;
#609 = ORIENTED_EDGE ( 'NONE', *, *, #463, .T. ) ;
#610 = FACE_BOUND ( 'NONE', #554, .T. ) ;
#611 = EDGE_LOOP ( 'NONE', ( #94, #166 ) ) ;
#612 =( GEOMETRIC_REPRESENTATION_CONTEXT ( 3 ) GLOBAL_UNCERTAINTY_ASSIGNED_CONTEXT ( ( #564 ) ) GLOBAL_UNIT_ASSIGNED_CONTEXT ( ( #644, #311, #110 ) ) REPRESENTATION_CONTEXT ( 'NONE', 'WORKASPACE' ) );
#613 = DIRECTION ( 'NONE',  ( -1.000000000000000000, 0.000000000000000000, -0.000000000000000000 ) ) ;
#614 = ORIENTED_EDGE ( 'NONE', *, *, #516, .T. ) ;
#615 = CARTESIAN_POINT ( 'NONE',  ( 12.11234252452654836, 2.399999999999999911, -0.9210259631311740192 ) ) ;
#616 = VERTEX_POINT ( 'NONE', #39 ) ;
#617 = ORIENTED_EDGE ( 'NONE', *, *, #547, .F. ) ;
#618 = SURFACE_SIDE_STYLE ('',( #211 ) ) ;
#619 = CARTESIAN_POINT ( 'NONE',  ( 20.30000000000000071, 2.399999999999999911, 0.000000000000000000 ) ) ;
#620 = AXIS2_PLACEMENT_3D ( 'NONE', #26, #521, #267 ) ;
#621 = APPLICATION_CONTEXT ( 'automotive_design' ) ;
#622 = CARTESIAN_POINT ( 'NONE',  ( 7.652473150602575380, 8.500000000000000000, -13.47406676140245452 ) ) ;
#623 = ADVANCED_FACE ( 'NONE', ( #398, #388, #85 ), #584, .T. ) ;
#624 = DIRECTION ( 'NONE',  ( 0.000000000000000000, 0.000000000000000000, 1.000000000000000000 ) ) ;
#625 = STYLED_ITEM ( 'NONE', ( #418 ), #410 ) ;
#626 = CIRCLE ( 'NONE', #8, 1.000000000000000888 ) ;
#627 = DIRECTION ( 'NONE',  ( 0.000000000000000000, 1.000000000000000000, -0.000000000000000000 ) ) ;
#628 = LINE ( 'NONE', #84, #569 ) ;
#629 = CARTESIAN_POINT ( 'NONE',  ( 0.000000000000000000, 2.399999999999999911, 0.000000000000000000 ) ) ;
#630 = CARTESIAN_POINT ( 'NONE',  ( 1.372977072117614883, 2.399999999999999911, -1.200506244363679142 ) ) ;
#631 = ORIENTED_EDGE ( 'NONE', *, *, #296, .T. ) ;
#632 = EDGE_CURVE ( 'NONE', #58, #144, #560, .T. ) ;
#633 = VECTOR ( 'NONE', #116, 1000.000000000000000 ) ;
#634 = DIRECTION ( 'NONE',  ( -1.000000000000000000, -0.000000000000000000, -0.000000000000000000 ) ) ;
#635 = DIRECTION ( 'NONE',  ( 1.000000000000000000, 0.000000000000000000, 0.000000000000000000 ) ) ;
#636 = EDGE_LOOP ( 'NONE', ( #587, #501, #551, #297 ) ) ;
#637 = PRODUCT_RELATED_PRODUCT_CATEGORY ( 'part', '', ( #376 ) ) ;
#638 = DIRECTION ( 'NONE',  ( 0.000000000000000000, 0.000000000000000000, 1.000000000000000000 ) ) ;
#639 = CARTESIAN_POINT ( 'NONE',  ( 2.149999999999999911, 2.399999999999999911, -16.70000000000000284 ) ) ;
#640 = ORIENTED_EDGE ( 'NONE', *, *, #232, .T. ) ;
#641 = FACE_OUTER_BOUND ( 'NONE', #241, .T. ) ;
#642 = DIRECTION ( 'NONE',  ( 0.000000000000000000, 1.000000000000000000, 0.000000000000000000 ) ) ;
#643 = ORIENTED_EDGE ( 'NONE', *, *, #152, .F. ) ;
#644 =( LENGTH_UNIT ( ) NAMED_UNIT ( * ) SI_UNIT ( .MILLI., .METRE. ) );
#645 = LINE ( 'NONE', #494, #411 ) ;
#646 = VERTEX_POINT ( 'NONE', #145 ) ;
#647 =( NAMED_UNIT ( * ) PLANE_ANGLE_UNIT ( ) SI_UNIT ( $, .RADIAN. ) );
#648 = LINE ( 'NONE', #7, #633 ) ;
#649 = EDGE_CURVE ( 'NONE', #413, #616, #543, .T. ) ;
#650 = VERTEX_POINT ( 'NONE', #98 ) ;
#651 = CARTESIAN_POINT ( 'NONE',  ( 18.15000000000000213, 2.399999999999999911, -1.149999999999998357 ) ) ;
#652 = ORIENTED_EDGE ( 'NONE', *, *, #649, .T. ) ;
ENDSEC;
END-ISO-10303-21;
