ISO-10303-21;
HEADER;
FILE_DESCRIPTION (( 'STEP AP214' ),
    '1' );
FILE_NAME ('buck converter.STEP',
    '2026-06-18T19:12:05',
    ( '' ),
    ( '' ),
    'SwSTEP 2.0',
    'SolidWorks 2025',
    '' );
FILE_SCHEMA (( 'AUTOMOTIVE_DESIGN' ));
ENDSEC;

DATA;
#1 = PLANE ( 'NONE',  #301 ) ;
#2 = CARTESIAN_POINT ( 'NONE',  ( 1.800000000000000044, 0.000000000000000000, -31.00000000000000000 ) ) ;
#3 = CARTESIAN_POINT ( 'NONE',  ( 0.000000000000000000, 0.000000000000000000, -31.00000000000000000 ) ) ;
#4 = ORIENTED_EDGE ( 'NONE', *, *, #235, .T. ) ;
#5 = ADVANCED_FACE ( 'NONE', ( #481 ), #632, .F. ) ;
#6 = CARTESIAN_POINT ( 'NONE',  ( 5.799999999999999822, 9.537256831458041262, -17.66806872561505060 ) ) ;
#7 = AXIS2_PLACEMENT_3D ( 'NONE', #85, #432, #87 ) ;
#8 = CARTESIAN_POINT ( 'NONE',  ( 1.800000000000000044, 2.924999999999995381, -5.650000000000003020 ) ) ;
#9 = CARTESIAN_POINT ( 'NONE',  ( 5.799999999999999822, 17.91610889887260782, -9.191409046518604242 ) ) ;
#10 = AXIS2_PLACEMENT_3D ( 'NONE', #518, #219, #413 ) ;
#11 = ORIENTED_EDGE ( 'NONE', *, *, #228, .F. ) ;
#12 = DIRECTION ( 'NONE',  ( -0.000000000000000000, 1.000000000000000000, 0.000000000000000000 ) ) ;
#13 = DIRECTION ( 'NONE',  ( 0.000000000000000000, 0.000000000000000000, -1.000000000000000000 ) ) ;
#14 = FACE_BOUND ( 'NONE', #212, .T. ) ;
#15 = ORIENTED_EDGE ( 'NONE', *, *, #244, .F. ) ;
#16 = CARTESIAN_POINT ( 'NONE',  ( 1.800000000000000044, 17.42500000000000071, -6.650000000000002132 ) ) ;
#17 = EDGE_CURVE ( 'NONE', #501, #394, #397, .T. ) ;
#18 = ORIENTED_EDGE ( 'NONE', *, *, #516, .T. ) ;
#19 = CARTESIAN_POINT ( 'NONE',  ( 1.800000000000000044, 2.924999999999998934, -24.35000000000000142 ) ) ;
#20 = VECTOR ( 'NONE', #245, 1000.000000000000000 ) ;
#21 = EDGE_CURVE ( 'NONE', #72, #148, #201, .T. ) ;
#22 = DIRECTION ( 'NONE',  ( 0.000000000000000000, -0.000000000000000000, -1.000000000000000000 ) ) ;
#23 = VERTEX_POINT ( 'NONE', #627 ) ;
#24 = PRODUCT_DEFINITION_SHAPE ( 'NONE', 'NONE',  #323 ) ;
#25 = ORIENTED_EDGE ( 'NONE', *, *, #124, .F. ) ;
#26 = MECHANICAL_DESIGN_GEOMETRIC_PRESENTATION_REPRESENTATION (  '', ( #40 ), #321 ) ;
#27 = VECTOR ( 'NONE', #598, 1000.000000000000000 ) ;
#28 = EDGE_LOOP ( 'NONE', ( #545, #47, #609, #264 ) ) ;
#29 = EDGE_CURVE ( 'NONE', #348, #605, #369, .T. ) ;
#30 = VECTOR ( 'NONE', #556, 1000.000000000000000 ) ;
#31 = VERTEX_POINT ( 'NONE', #189 ) ;
#32 = FACE_OUTER_BOUND ( 'NONE', #276, .T. ) ;
#33 = MECHANICAL_DESIGN_GEOMETRIC_PRESENTATION_REPRESENTATION (  '', ( #581 ), #177 ) ;
#34 = VERTEX_POINT ( 'NONE', #475 ) ;
#35 = ADVANCED_FACE ( 'NONE', ( #132 ), #382, .F. ) ;
#36 = DIRECTION ( 'NONE',  ( -1.000000000000000000, 0.000000000000000000, 0.000000000000000000 ) ) ;
#37 = EDGE_LOOP ( 'NONE', ( #15, #521, #318, #599 ) ) ;
#38 = CARTESIAN_POINT ( 'NONE',  ( 0.000000000000000000, 2.924999999999995381, -6.650000000000003020 ) ) ;
#39 = ADVANCED_BREP_SHAPE_REPRESENTATION ( 'buck converter', ( #600, #416 ), #297 ) ;
#40 = STYLED_ITEM ( 'NONE', ( #524 ), #39 ) ;
#41 = FACE_OUTER_BOUND ( 'NONE', #179, .T. ) ;
#42 = ADVANCED_FACE ( 'NONE', ( #188, #232, #427, #385, #283 ), #578, .T. ) ;
#43 = LINE ( 'NONE', #402, #410 ) ;
#44 = CIRCLE ( 'NONE', #624, 1.000000000000000000 ) ;
#45 = CARTESIAN_POINT ( 'NONE',  ( 1.800000000000000044, 17.91610889887260782, -9.191409046518604242 ) ) ;
#46 = CARTESIAN_POINT ( 'NONE',  ( 1.800000000000000044, 17.42500000000000071, -7.650000000000002132 ) ) ;
#47 = ORIENTED_EDGE ( 'NONE', *, *, #299, .F. ) ;
#48 = FACE_OUTER_BOUND ( 'NONE', #380, .T. ) ;
#49 = CARTESIAN_POINT ( 'NONE',  ( 1.800000000000000044, 17.42500000000000071, -25.35000000000000142 ) ) ;
#50 = DIRECTION ( 'NONE',  ( 1.000000000000000000, 0.000000000000000000, 0.000000000000000000 ) ) ;
#51 = VERTEX_POINT ( 'NONE', #477 ) ;
#52 = CARTESIAN_POINT ( 'NONE',  ( 1.800000000000000044, 2.924999999999998934, -24.35000000000000142 ) ) ;
#53 = VECTOR ( 'NONE', #66, 1000.000000000000000 ) ;
#54 = UNCERTAINTY_MEASURE_WITH_UNIT (LENGTH_MEASURE( 1.000000000000000082E-05 ), #270, 'distance_accuracy_value', 'NONE');
#55 = PLANE ( 'NONE',  #423 ) ;
#56 = ORIENTED_EDGE ( 'NONE', *, *, #379, .F. ) ;
#57 = DIRECTION ( 'NONE',  ( 0.000000000000000000, 0.000000000000000000, -1.000000000000000000 ) ) ;
#58 = AXIS2_PLACEMENT_3D ( 'NONE', #2, #439, #604 ) ;
#59 = CARTESIAN_POINT ( 'NONE',  ( 1.800000000000000044, 2.924999999999998934, -25.35000000000000142 ) ) ;
#60 = CARTESIAN_POINT ( 'NONE',  ( 0.000000000000000000, 17.42500000000000071, -5.650000000000002132 ) ) ;
#61 = AXIS2_PLACEMENT_3D ( 'NONE', #156, #114, #309 ) ;
#62 = EDGE_LOOP ( 'NONE', ( #18, #224, #25, #275 ) ) ;
#63 = CARTESIAN_POINT ( 'NONE',  ( 1.800000000000000044, 2.924999999999995381, -7.650000000000003020 ) ) ;
#64 = EDGE_CURVE ( 'NONE', #394, #605, #135, .T. ) ;
#65 = LINE ( 'NONE', #511, #240 ) ;
#66 = DIRECTION ( 'NONE',  ( -0.000000000000000000, -1.000000000000000000, -0.000000000000000000 ) ) ;
#67 = ORIENTED_EDGE ( 'NONE', *, *, #221, .T. ) ;
#68 = DIRECTION ( 'NONE',  ( -0.000000000000000000, -1.000000000000000000, -0.000000000000000000 ) ) ;
#69 = CARTESIAN_POINT ( 'NONE',  ( 5.799999999999999822, 17.91610889887260782, -9.191409046518604242 ) ) ;
#70 = EDGE_CURVE ( 'NONE', #236, #80, #174, .T. ) ;
#71 = DIRECTION ( 'NONE',  ( 1.000000000000000000, 0.000000000000000000, 0.000000000000000000 ) ) ;
#72 = VERTEX_POINT ( 'NONE', #239 ) ;
#73 = UNCERTAINTY_MEASURE_WITH_UNIT (LENGTH_MEASURE( 1.000000000000000082E-05 ), #420, 'distance_accuracy_value', 'NONE');
#74 = DIRECTION ( 'NONE',  ( 0.000000000000000000, 1.000000000000000000, 0.000000000000000000 ) ) ;
#75 = ORIENTED_EDGE ( 'NONE', *, *, #86, .F. ) ;
#76 = LINE ( 'NONE', #222, #285 ) ;
#77 = ORIENTED_EDGE ( 'NONE', *, *, #553, .F. ) ;
#78 = EDGE_CURVE ( 'NONE', #517, #329, #483, .T. ) ;
#79 = APPLICATION_PROTOCOL_DEFINITION ( 'draft international standard', 'automotive_design', 1998, #634 ) ;
#80 = VERTEX_POINT ( 'NONE', #328 ) ;
#81 =( NAMED_UNIT ( * ) SI_UNIT ( $, .STERADIAN. ) SOLID_ANGLE_UNIT ( ) );
#82 = CIRCLE ( 'NONE', #216, 1.000000000000000888 ) ;
#83 = ORIENTED_EDGE ( 'NONE', *, *, #313, .F. ) ;
#84 = ADVANCED_FACE ( 'NONE', ( #41 ), #387, .F. ) ;
#85 = CARTESIAN_POINT ( 'NONE',  ( 1.800000000000000044, 0.000000000000000000, 0.000000000000000000 ) ) ;
#86 = EDGE_CURVE ( 'NONE', #236, #148, #625, .T. ) ;
#87 = DIRECTION ( 'NONE',  ( 0.000000000000000000, -0.000000000000000000, 1.000000000000000000 ) ) ;
#88 = EDGE_LOOP ( 'NONE', ( #117, #619, #558, #425 ) ) ;
#89 = ORIENTED_EDGE ( 'NONE', *, *, #195, .T. ) ;
#90 = AXIS2_PLACEMENT_3D ( 'NONE', #533, #326, #331 ) ;
#91 = VERTEX_POINT ( 'NONE', #182 ) ;
#92 = DIRECTION ( 'NONE',  ( 1.000000000000000000, 0.000000000000000000, 0.000000000000000000 ) ) ;
#93 = ORIENTED_EDGE ( 'NONE', *, *, #241, .T. ) ;
#94 = DIRECTION ( 'NONE',  ( -0.000000000000000000, 0.000000000000000000, 1.000000000000000000 ) ) ;
#95 = ORIENTED_EDGE ( 'NONE', *, *, #145, .F. ) ;
#96 = CARTESIAN_POINT ( 'NONE',  ( 1.800000000000000044, 17.42500000000000071, -25.35000000000000142 ) ) ;
#97 = AXIS2_PLACEMENT_3D ( 'NONE', #457, #198, #13 ) ;
#98 = ORIENTED_EDGE ( 'NONE', *, *, #118, .T. ) ;
#99 = LINE ( 'NONE', #412, #166 ) ;
#100 = DIRECTION ( 'NONE',  ( 0.000000000000000000, 0.000000000000000000, -1.000000000000000000 ) ) ;
#101 = VERTEX_POINT ( 'NONE', #574 ) ;
#102 = DIRECTION ( 'NONE',  ( 1.000000000000000000, 0.000000000000000000, 0.000000000000000000 ) ) ;
#103 = SURFACE_STYLE_USAGE ( .BOTH. , #150 ) ;
#104 = DIRECTION ( 'NONE',  ( -0.000000000000000000, -0.000000000000000000, 1.000000000000000000 ) ) ;
#105 = FACE_OUTER_BOUND ( 'NONE', #300, .T. ) ;
#106 = ORIENTED_EDGE ( 'NONE', *, *, #426, .T. ) ;
#107 = FACE_OUTER_BOUND ( 'NONE', #564, .T. ) ;
#108 =( NAMED_UNIT ( * ) SI_UNIT ( $, .STERADIAN. ) SOLID_ANGLE_UNIT ( ) );
#109 = DIRECTION ( 'NONE',  ( 0.000000000000000000, 0.000000000000000000, -1.000000000000000000 ) ) ;
#110 = VERTEX_POINT ( 'NONE', #134 ) ;
#111 = EDGE_CURVE ( 'NONE', #247, #431, #528, .T. ) ;
#112 = DIRECTION ( 'NONE',  ( 0.000000000000000000, 0.000000000000000000, -1.000000000000000000 ) ) ;
#113 = VECTOR ( 'NONE', #428, 1000.000000000000000 ) ;
#114 = DIRECTION ( 'NONE',  ( -1.000000000000000000, -0.000000000000000000, -0.000000000000000000 ) ) ;
#115 = DIRECTION ( 'NONE',  ( 0.000000000000000000, 0.000000000000000000, 1.000000000000000000 ) ) ;
#116 = LINE ( 'NONE', #159, #435 ) ;
#117 = ORIENTED_EDGE ( 'NONE', *, *, #17, .T. ) ;
#118 = EDGE_CURVE ( 'NONE', #315, #101, #592, .T. ) ;
#119 = FACE_OUTER_BOUND ( 'NONE', #392, .T. ) ;
#120 = EDGE_LOOP ( 'NONE', ( #537, #95, #129, #506 ) ) ;
#121 = SHAPE_DEFINITION_REPRESENTATION ( #24, #39 ) ;
#122 = CYLINDRICAL_SURFACE ( 'NONE', #424, 1.000000000000000888 ) ;
#123 = ORIENTED_EDGE ( 'NONE', *, *, #164, .F. ) ;
#124 = EDGE_CURVE ( 'NONE', #291, #493, #152, .T. ) ;
#125 = EDGE_LOOP ( 'NONE', ( #171, #123 ) ) ;
#126 =( NAMED_UNIT ( * ) PLANE_ANGLE_UNIT ( ) SI_UNIT ( $, .RADIAN. ) );
#127 = FACE_OUTER_BOUND ( 'NONE', #62, .T. ) ;
#128 = ORIENTED_EDGE ( 'NONE', *, *, #70, .T. ) ;
#129 = ORIENTED_EDGE ( 'NONE', *, *, #359, .F. ) ;
#130 = ADVANCED_FACE ( 'NONE', ( #210 ), #406, .F. ) ;
#131 = AXIS2_PLACEMENT_3D ( 'NONE', #303, #639, #504 ) ;
#132 = FACE_OUTER_BOUND ( 'NONE', #120, .T. ) ;
#133 = ADVANCED_FACE ( 'NONE', ( #288 ), #55, .T. ) ;
#134 = CARTESIAN_POINT ( 'NONE',  ( 1.800000000000000044, 9.537256831458041262, -17.66806872561505060 ) ) ;
#135 = LINE ( 'NONE', #333, #139 ) ;
#136 = CIRCLE ( 'NONE', #384, 1.000000000000000888 ) ;
#137 = EDGE_CURVE ( 'NONE', #411, #418, #597, .T. ) ;
#138 = CARTESIAN_POINT ( 'NONE',  ( 0.000000000000000000, 0.000000000000000000, 0.000000000000000000 ) ) ;
#139 = VECTOR ( 'NONE', #573, 1000.000000000000000 ) ;
#140 = AXIS2_PLACEMENT_3D ( 'NONE', #464, #317, #22 ) ;
#141 = CARTESIAN_POINT ( 'NONE',  ( 1.800000000000000044, 17.42500000000000071, -7.650000000000002132 ) ) ;
#142 = CARTESIAN_POINT ( 'NONE',  ( 5.799999999999999822, 9.537256831458041262, -9.191409046518604242 ) ) ;
#143 = LINE ( 'NONE', #338, #27 ) ;
#144 = ORIENTED_EDGE ( 'NONE', *, *, #456, .F. ) ;
#145 = EDGE_CURVE ( 'NONE', #291, #23, #262, .T. ) ;
#146 = DIRECTION ( 'NONE',  ( -0.000000000000000000, -0.000000000000000000, 1.000000000000000000 ) ) ;
#147 = LINE ( 'NONE', #452, #53 ) ;
#148 = VERTEX_POINT ( 'NONE', #552 ) ;
#149 = DIRECTION ( 'NONE',  ( 0.000000000000000000, -0.000000000000000000, -1.000000000000000000 ) ) ;
#150 = SURFACE_SIDE_STYLE ('',( #249 ) ) ;
#151 = UNCERTAINTY_MEASURE_WITH_UNIT (LENGTH_MEASURE( 1.000000000000000082E-05 ), #389, 'distance_accuracy_value', 'NONE');
#152 = LINE ( 'NONE', #491, #617 ) ;
#153 = CARTESIAN_POINT ( 'NONE',  ( 1.800000000000000044, 2.924999999999995381, -6.650000000000003020 ) ) ;
#154 = ORIENTED_EDGE ( 'NONE', *, *, #469, .F. ) ;
#155 = CYLINDRICAL_SURFACE ( 'NONE', #614, 1.000000000000000000 ) ;
#156 = CARTESIAN_POINT ( 'NONE',  ( 1.800000000000000044, 2.924999999999995381, -6.650000000000003020 ) ) ;
#157 = AXIS2_PLACEMENT_3D ( 'NONE', #69, #180, #616 ) ;
#158 = LINE ( 'NONE', #584, #378 ) ;
#159 = CARTESIAN_POINT ( 'NONE',  ( 5.799999999999999822, 9.537256831458041262, -17.66806872561505060 ) ) ;
#160 = ORIENTED_EDGE ( 'NONE', *, *, #359, .T. ) ;
#161 = DIRECTION ( 'NONE',  ( -1.000000000000000000, -0.000000000000000000, -0.000000000000000000 ) ) ;
#162 = VECTOR ( 'NONE', #589, 1000.000000000000000 ) ;
#163 = DIRECTION ( 'NONE',  ( 1.000000000000000000, 0.000000000000000000, 0.000000000000000000 ) ) ;
#164 = EDGE_CURVE ( 'NONE', #517, #91, #355, .T. ) ;
#165 = EDGE_LOOP ( 'NONE', ( #594, #185, #368, #476 ) ) ;
#166 = VECTOR ( 'NONE', #161, 1000.000000000000000 ) ;
#167 = CYLINDRICAL_SURFACE ( 'NONE', #472, 1.000000000000000888 ) ;
#168 = ORIENTED_EDGE ( 'NONE', *, *, #553, .T. ) ;
#169 = CYLINDRICAL_SURFACE ( 'NONE', #277, 1.000000000000000888 ) ;
#170 = LINE ( 'NONE', #467, #620 ) ;
#171 = ORIENTED_EDGE ( 'NONE', *, *, #538, .F. ) ;
#172 = DIRECTION ( 'NONE',  ( 0.000000000000000000, 1.000000000000000000, 0.000000000000000000 ) ) ;
#173 = EDGE_LOOP ( 'NONE', ( #430, #4 ) ) ;
#174 = CIRCLE ( 'NONE', #90, 1.000000000000000888 ) ;
#175 = LINE ( 'NONE', #608, #204 ) ;
#176 = EDGE_LOOP ( 'NONE', ( #374, #453, #322, #252 ) ) ;
#177 =( GEOMETRIC_REPRESENTATION_CONTEXT ( 3 ) GLOBAL_UNCERTAINTY_ASSIGNED_CONTEXT ( ( #151 ) ) GLOBAL_UNIT_ASSIGNED_CONTEXT ( ( #389, #203, #108 ) ) REPRESENTATION_CONTEXT ( 'NONE', 'WORKASPACE' ) );
#178 = EDGE_CURVE ( 'NONE', #519, #215, #346, .T. ) ;
#179 = EDGE_LOOP ( 'NONE', ( #437, #471, #56, #468 ) ) ;
#180 = DIRECTION ( 'NONE',  ( 0.000000000000000000, 0.000000000000000000, -1.000000000000000000 ) ) ;
#181 = DIRECTION ( 'NONE',  ( 1.000000000000000000, 0.000000000000000000, 0.000000000000000000 ) ) ;
#182 = CARTESIAN_POINT ( 'NONE',  ( 1.800000000000000044, 17.42500000000000071, -5.650000000000002132 ) ) ;
#183 = CARTESIAN_POINT ( 'NONE',  ( 0.000000000000000000, 2.924999999999995381, -7.650000000000003020 ) ) ;
#184 = DIRECTION ( 'NONE',  ( 0.000000000000000000, 0.000000000000000000, 1.000000000000000000 ) ) ;
#185 = ORIENTED_EDGE ( 'NONE', *, *, #327, .F. ) ;
#186 = VECTOR ( 'NONE', #496, 1000.000000000000000 ) ;
#187 = EDGE_CURVE ( 'NONE', #501, #348, #451, .T. ) ;
#188 = FACE_BOUND ( 'NONE', #640, .T. ) ;
#189 = CARTESIAN_POINT ( 'NONE',  ( 1.800000000000000044, 17.42500000000000071, -23.34999999999999787 ) ) ;
#190 = CARTESIAN_POINT ( 'NONE',  ( 5.799999999999999822, 17.91610889887260782, -17.66806872561505060 ) ) ;
#191 = EDGE_CURVE ( 'NONE', #215, #110, #158, .T. ) ;
#192 = CYLINDRICAL_SURFACE ( 'NONE', #498, 1.000000000000000000 ) ;
#193 = EDGE_LOOP ( 'NONE', ( #403, #168, #541, #98 ) ) ;
#194 = FACE_OUTER_BOUND ( 'NONE', #549, .T. ) ;
#195 = EDGE_CURVE ( 'NONE', #34, #361, #438, .T. ) ;
#196 = ORIENTED_EDGE ( 'NONE', *, *, #287, .T. ) ;
#197 = CARTESIAN_POINT ( 'NONE',  ( 1.800000000000000044, 20.35000000000000142, 0.000000000000000000 ) ) ;
#198 = DIRECTION ( 'NONE',  ( 1.000000000000000000, 0.000000000000000000, 0.000000000000000000 ) ) ;
#199 = DIRECTION ( 'NONE',  ( 0.000000000000000000, 0.000000000000000000, -1.000000000000000000 ) ) ;
#200 = ORIENTED_EDGE ( 'NONE', *, *, #164, .T. ) ;
#201 = CIRCLE ( 'NONE', #565, 1.000000000000000888 ) ;
#202 = CARTESIAN_POINT ( 'NONE',  ( 1.800000000000000044, 0.000000000000000000, 0.000000000000000000 ) ) ;
#203 =( NAMED_UNIT ( * ) PLANE_ANGLE_UNIT ( ) SI_UNIT ( $, .RADIAN. ) );
#204 = VECTOR ( 'NONE', #514, 1000.000000000000000 ) ;
#205 = DIRECTION ( 'NONE',  ( 0.000000000000000000, 0.000000000000000000, -1.000000000000000000 ) ) ;
#206 = FACE_BOUND ( 'NONE', #125, .T. ) ;
#207 = ORIENTED_EDGE ( 'NONE', *, *, #486, .F. ) ;
#208 = DIRECTION ( 'NONE',  ( -1.000000000000000000, -0.000000000000000000, -0.000000000000000000 ) ) ;
#209 = PRODUCT_RELATED_PRODUCT_CATEGORY ( 'part', '', ( #414 ) ) ;
#210 = FACE_OUTER_BOUND ( 'NONE', #165, .T. ) ;
#211 = FACE_BOUND ( 'NONE', #273, .T. ) ;
#212 = EDGE_LOOP ( 'NONE', ( #311, #554 ) ) ;
#213 = CYLINDRICAL_SURFACE ( 'NONE', #523, 1.000000000000000000 ) ;
#214 = CARTESIAN_POINT ( 'NONE',  ( 1.800000000000000044, 17.42500000000000071, -6.650000000000002132 ) ) ;
#215 = VERTEX_POINT ( 'NONE', #393 ) ;
#216 = AXIS2_PLACEMENT_3D ( 'NONE', #242, #350, #109 ) ;
#217 = DIRECTION ( 'NONE',  ( 1.000000000000000000, 0.000000000000000000, 0.000000000000000000 ) ) ;
#218 = SURFACE_SIDE_STYLE ('',( #279 ) ) ;
#219 = DIRECTION ( 'NONE',  ( 1.000000000000000000, 0.000000000000000000, 0.000000000000000000 ) ) ;
#220 = ORIENTED_EDGE ( 'NONE', *, *, #575, .F. ) ;
#221 = EDGE_CURVE ( 'NONE', #80, #72, #43, .T. ) ;
#222 = CARTESIAN_POINT ( 'NONE',  ( 1.800000000000000044, 0.000000000000000000, -31.00000000000000000 ) ) ;
#223 = PRODUCT_DEFINITION_FORMATION_WITH_SPECIFIED_SOURCE ( 'Symmetric', '', #414, .NOT_KNOWN. ) ;
#224 = ORIENTED_EDGE ( 'NONE', *, *, #334, .F. ) ;
#225 = VECTOR ( 'NONE', #68, 1000.000000000000000 ) ;
#226 = ORIENTED_EDGE ( 'NONE', *, *, #442, .T. ) ;
#227 = VECTOR ( 'NONE', #398, 1000.000000000000000 ) ;
#228 = EDGE_CURVE ( 'NONE', #587, #31, #82, .T. ) ;
#229 = EDGE_LOOP ( 'NONE', ( #534, #615, #383, #352 ) ) ;
#230 = AXIS2_PLACEMENT_3D ( 'NONE', #214, #71, #267 ) ;
#231 =( NAMED_UNIT ( * ) PLANE_ANGLE_UNIT ( ) SI_UNIT ( $, .RADIAN. ) );
#232 = FACE_BOUND ( 'NONE', #281, .T. ) ;
#233 = CARTESIAN_POINT ( 'NONE',  ( 1.800000000000000044, 0.000000000000000000, 0.000000000000000000 ) ) ;
#234 = DIRECTION ( 'NONE',  ( 0.000000000000000000, 0.000000000000000000, -1.000000000000000000 ) ) ;
#235 = EDGE_CURVE ( 'NONE', #148, #72, #572, .T. ) ;
#236 = VERTEX_POINT ( 'NONE', #59 ) ;
#237 = EDGE_LOOP ( 'NONE', ( #637, #257 ) ) ;
#238 = CARTESIAN_POINT ( 'NONE',  ( 0.000000000000000000, 17.42500000000000071, -24.35000000000000142 ) ) ;
#239 = CARTESIAN_POINT ( 'NONE',  ( 0.000000000000000000, 2.924999999999998934, -23.34999999999999787 ) ) ;
#240 = VECTOR ( 'NONE', #266, 1000.000000000000000 ) ;
#241 = EDGE_CURVE ( 'NONE', #519, #415, #441, .T. ) ;
#242 = CARTESIAN_POINT ( 'NONE',  ( 1.800000000000000044, 17.42500000000000071, -24.35000000000000142 ) ) ;
#243 = ORIENTED_EDGE ( 'NONE', *, *, #610, .T. ) ;
#244 = EDGE_CURVE ( 'NONE', #587, #34, #539, .T. ) ;
#245 = DIRECTION ( 'NONE',  ( 0.000000000000000000, -1.000000000000000000, 0.000000000000000000 ) ) ;
#246 = CARTESIAN_POINT ( 'NONE',  ( 5.799999999999999822, 9.537256831458041262, -9.191409046518604242 ) ) ;
#247 = VERTEX_POINT ( 'NONE', #487 ) ;
#248 = LINE ( 'NONE', #349, #225 ) ;
#249 = SURFACE_STYLE_FILL_AREA ( #293 ) ;
#250 = DIRECTION ( 'NONE',  ( -1.000000000000000000, -0.000000000000000000, -0.000000000000000000 ) ) ;
#251 = LINE ( 'NONE', #357, #162 ) ;
#252 = ORIENTED_EDGE ( 'NONE', *, *, #191, .F. ) ;
#253 = AXIS2_PLACEMENT_3D ( 'NONE', #606, #102, #302 ) ;
#254 = CARTESIAN_POINT ( 'NONE',  ( 0.000000000000000000, 2.924999999999995381, -5.650000000000003020 ) ) ;
#255 = CARTESIAN_POINT ( 'NONE',  ( 5.799999999999999822, 9.537256831458041262, -9.191409046518604242 ) ) ;
#256 = PLANE ( 'NONE',  #419 ) ;
#257 = ORIENTED_EDGE ( 'NONE', *, *, #571, .F. ) ;
#258 = VECTOR ( 'NONE', #104, 1000.000000000000000 ) ;
#259 = DIRECTION ( 'NONE',  ( -1.000000000000000000, -0.000000000000000000, -0.000000000000000000 ) ) ;
#260 = AXIS2_PLACEMENT_3D ( 'NONE', #238, #580, #434 ) ;
#261 = PRODUCT_DEFINITION_CONTEXT ( 'detailed design', #510, 'design' ) ;
#262 = LINE ( 'NONE', #190, #30 ) ;
#263 = DIRECTION ( 'NONE',  ( -1.000000000000000000, -0.000000000000000000, -0.000000000000000000 ) ) ;
#264 = ORIENTED_EDGE ( 'NONE', *, *, #327, .T. ) ;
#265 = CARTESIAN_POINT ( 'NONE',  ( 1.800000000000000044, 20.35000000000000142, -31.00000000000000000 ) ) ;
#266 = DIRECTION ( 'NONE',  ( -1.000000000000000000, -0.000000000000000000, -0.000000000000000000 ) ) ;
#267 = DIRECTION ( 'NONE',  ( 0.000000000000000000, 0.000000000000000000, -1.000000000000000000 ) ) ;
#268 = ORIENTED_EDGE ( 'NONE', *, *, #271, .T. ) ;
#269 = CARTESIAN_POINT ( 'NONE',  ( 5.799999999999999822, 17.91610889887260782, -9.191409046518604242 ) ) ;
#270 =( LENGTH_UNIT ( ) NAMED_UNIT ( * ) SI_UNIT ( .MILLI., .METRE. ) );
#271 = EDGE_CURVE ( 'NONE', #51, #215, #294, .T. ) ;
#272 = LINE ( 'NONE', #373, #567 ) ;
#273 = EDGE_LOOP ( 'NONE', ( #561, #11 ) ) ;
#274 = CIRCLE ( 'NONE', #325, 1.000000000000000000 ) ;
#275 = ORIENTED_EDGE ( 'NONE', *, *, #145, .T. ) ;
#276 = EDGE_LOOP ( 'NONE', ( #268, #408, #365, #630 ) ) ;
#277 = AXIS2_PLACEMENT_3D ( 'NONE', #19, #489, #611 ) ;
#278 = ORIENTED_EDGE ( 'NONE', *, *, #345, .T. ) ;
#279 = SURFACE_STYLE_FILL_AREA ( #466 ) ;
#280 = ADVANCED_FACE ( 'NONE', ( #194 ), #342, .F. ) ;
#281 = EDGE_LOOP ( 'NONE', ( #515, #576 ) ) ;
#282 = EDGE_LOOP ( 'NONE', ( #154, #305, #220, #458 ) ) ;
#283 = FACE_BOUND ( 'NONE', #173, .T. ) ;
#284 = ORIENTED_EDGE ( 'NONE', *, *, #235, .F. ) ;
#285 = VECTOR ( 'NONE', #172, 1000.000000000000000 ) ;
#286 = CARTESIAN_POINT ( 'NONE',  ( 1.800000000000000044, 2.924999999999995381, -6.650000000000003020 ) ) ;
#287 = EDGE_CURVE ( 'NONE', #91, #443, #65, .T. ) ;
#288 = FACE_OUTER_BOUND ( 'NONE', #461, .T. ) ;
#289 = VECTOR ( 'NONE', #290, 1000.000000000000000 ) ;
#290 = DIRECTION ( 'NONE',  ( -1.000000000000000000, -0.000000000000000000, -0.000000000000000000 ) ) ;
#291 = VERTEX_POINT ( 'NONE', #460 ) ;
#292 = DIRECTION ( 'NONE',  ( 0.000000000000000000, 0.000000000000000000, -1.000000000000000000 ) ) ;
#293 = FILL_AREA_STYLE ('',( #543 ) ) ;
#294 = LINE ( 'NONE', #45, #20 ) ;
#295 = ORIENTED_EDGE ( 'NONE', *, *, #124, .T. ) ;
#296 = CARTESIAN_POINT ( 'NONE',  ( 5.799999999999999822, 9.537256831458041262, -9.191409046518604242 ) ) ;
#297 =( GEOMETRIC_REPRESENTATION_CONTEXT ( 3 ) GLOBAL_UNCERTAINTY_ASSIGNED_CONTEXT ( ( #54 ) ) GLOBAL_UNIT_ASSIGNED_CONTEXT ( ( #270, #231, #622 ) ) REPRESENTATION_CONTEXT ( 'NONE', 'WORKASPACE' ) );
#298 = CARTESIAN_POINT ( 'NONE',  ( 1.800000000000000044, 20.35000000000000142, 0.000000000000000000 ) ) ;
#299 = EDGE_CURVE ( 'NONE', #101, #431, #495, .T. ) ;
#300 = EDGE_LOOP ( 'NONE', ( #570, #612, #400, #83 ) ) ;
#301 = AXIS2_PLACEMENT_3D ( 'NONE', #197, #591, #149 ) ;
#302 = DIRECTION ( 'NONE',  ( 0.000000000000000000, 0.000000000000000000, -1.000000000000000000 ) ) ;
#303 = CARTESIAN_POINT ( 'NONE',  ( 0.000000000000000000, 2.924999999999998934, -24.35000000000000142 ) ) ;
#304 = CARTESIAN_POINT ( 'NONE',  ( 1.800000000000000044, 2.924999999999998934, -24.35000000000000142 ) ) ;
#305 = ORIENTED_EDGE ( 'NONE', *, *, #111, .F. ) ;
#306 = AXIS2_PLACEMENT_3D ( 'NONE', #138, #36, #184 ) ;
#307 = CARTESIAN_POINT ( 'NONE',  ( 0.000000000000000000, 17.42500000000000071, -23.34999999999999787 ) ) ;
#308 = CIRCLE ( 'NONE', #10, 1.000000000000000000 ) ;
#309 = DIRECTION ( 'NONE',  ( 0.000000000000000000, 0.000000000000000000, 1.000000000000000000 ) ) ;
#310 = DIRECTION ( 'NONE',  ( -1.000000000000000000, -0.000000000000000000, -0.000000000000000000 ) ) ;
#311 = ORIENTED_EDGE ( 'NONE', *, *, #507, .F. ) ;
#312 = FACE_OUTER_BOUND ( 'NONE', #229, .T. ) ;
#313 = EDGE_CURVE ( 'NONE', #605, #348, #274, .T. ) ;
#314 = DIRECTION ( 'NONE',  ( -1.000000000000000000, -0.000000000000000000, -0.000000000000000000 ) ) ;
#315 = VERTEX_POINT ( 'NONE', #265 ) ;
#316 = EDGE_CURVE ( 'NONE', #329, #443, #44, .T. ) ;
#317 = DIRECTION ( 'NONE',  ( 0.000000000000000000, -1.000000000000000000, 0.000000000000000000 ) ) ;
#318 = ORIENTED_EDGE ( 'NONE', *, *, #486, .T. ) ;
#319 = DIRECTION ( 'NONE',  ( 0.000000000000000000, 0.000000000000000000, -1.000000000000000000 ) ) ;
#320 = ORIENTED_EDGE ( 'NONE', *, *, #178, .T. ) ;
#321 =( GEOMETRIC_REPRESENTATION_CONTEXT ( 3 ) GLOBAL_UNCERTAINTY_ASSIGNED_CONTEXT ( ( #73 ) ) GLOBAL_UNIT_ASSIGNED_CONTEXT ( ( #420, #126, #81 ) ) REPRESENTATION_CONTEXT ( 'NONE', 'WORKASPACE' ) );
#322 = ORIENTED_EDGE ( 'NONE', *, *, #529, .F. ) ;
#323 = PRODUCT_DEFINITION ( 'General', '', #223, #261 ) ;
#324 = EDGE_LOOP ( 'NONE', ( #106, #343 ) ) ;
#325 = AXIS2_PLACEMENT_3D ( 'NONE', #396, #344, #292 ) ;
#326 = DIRECTION ( 'NONE',  ( 1.000000000000000000, 0.000000000000000000, 0.000000000000000000 ) ) ;
#327 = EDGE_CURVE ( 'NONE', #315, #247, #99, .T. ) ;
#328 = CARTESIAN_POINT ( 'NONE',  ( 1.800000000000000044, 2.924999999999998934, -23.34999999999999787 ) ) ;
#329 = VERTEX_POINT ( 'NONE', #602 ) ;
#330 = AXIS2_PLACEMENT_3D ( 'NONE', #404, #354, #112 ) ;
#331 = DIRECTION ( 'NONE',  ( 0.000000000000000000, 0.000000000000000000, -1.000000000000000000 ) ) ;
#332 = CLOSED_SHELL ( 'NONE', ( #405, #280, #429, #586, #433, #42, #84, #5, #130, #395, #482, #421, #522, #362, #631, #371, #35, #563, #133 ) ) ;
#333 = CARTESIAN_POINT ( 'NONE',  ( 1.800000000000000044, 2.924999999999995381, -7.650000000000003020 ) ) ;
#334 = EDGE_CURVE ( 'NONE', #493, #51, #555, .T. ) ;
#335 = DIRECTION ( 'NONE',  ( -1.000000000000000000, 0.000000000000000000, -0.000000000000000000 ) ) ;
#336 = EDGE_LOOP ( 'NONE', ( #375, #200, #196, #478 ) ) ;
#337 = DIRECTION ( 'NONE',  ( 0.000000000000000000, 0.000000000000000000, -1.000000000000000000 ) ) ;
#338 = CARTESIAN_POINT ( 'NONE',  ( 1.800000000000000044, 17.42500000000000071, -23.34999999999999787 ) ) ;
#339 = ORIENTED_EDGE ( 'NONE', *, *, #241, .F. ) ;
#340 = VECTOR ( 'NONE', #550, 1000.000000000000000 ) ;
#341 = CARTESIAN_POINT ( 'NONE',  ( 1.800000000000000044, 0.000000000000000000, -31.00000000000000000 ) ) ;
#342 = CYLINDRICAL_SURFACE ( 'NONE', #542, 1.000000000000000888 ) ;
#343 = ORIENTED_EDGE ( 'NONE', *, *, #316, .T. ) ;
#344 = DIRECTION ( 'NONE',  ( 1.000000000000000000, 0.000000000000000000, 0.000000000000000000 ) ) ;
#345 = EDGE_CURVE ( 'NONE', #31, #587, #353, .T. ) ;
#346 = LINE ( 'NONE', #255, #525 ) ;
#347 = CARTESIAN_POINT ( 'NONE',  ( 0.000000000000000000, 20.35000000000000142, 0.000000000000000000 ) ) ;
#348 = VERTEX_POINT ( 'NONE', #254 ) ;
#349 = CARTESIAN_POINT ( 'NONE',  ( 1.800000000000000044, 0.000000000000000000, 0.000000000000000000 ) ) ;
#350 = DIRECTION ( 'NONE',  ( 1.000000000000000000, 0.000000000000000000, 0.000000000000000000 ) ) ;
#351 = CARTESIAN_POINT ( 'NONE',  ( 1.800000000000000044, 2.924999999999995381, -5.650000000000003020 ) ) ;
#352 = ORIENTED_EDGE ( 'NONE', *, *, #287, .F. ) ;
#353 = CIRCLE ( 'NONE', #253, 1.000000000000000888 ) ;
#354 = DIRECTION ( 'NONE',  ( 1.000000000000000000, 0.000000000000000000, 0.000000000000000000 ) ) ;
#355 = CIRCLE ( 'NONE', #97, 1.000000000000000000 ) ;
#356 = DIRECTION ( 'NONE',  ( 0.000000000000000000, 0.000000000000000000, -1.000000000000000000 ) ) ;
#357 = CARTESIAN_POINT ( 'NONE',  ( 5.799999999999999822, 17.91610889887260782, -9.191409046518604242 ) ) ;
#358 = ORIENTED_EDGE ( 'NONE', *, *, #137, .T. ) ;
#359 = EDGE_CURVE ( 'NONE', #415, #291, #508, .T. ) ;
#360 = CARTESIAN_POINT ( 'NONE',  ( 1.800000000000000044, 17.42500000000000071, -6.650000000000002132 ) ) ;
#361 = VERTEX_POINT ( 'NONE', #307 ) ;
#362 = ADVANCED_FACE ( 'NONE', ( #107 ), #169, .F. ) ;
#363 = DIRECTION ( 'NONE',  ( 0.000000000000000000, -0.000000000000000000, 1.000000000000000000 ) ) ;
#364 = DIRECTION ( 'NONE',  ( 1.000000000000000000, 0.000000000000000000, 0.000000000000000000 ) ) ;
#365 = ORIENTED_EDGE ( 'NONE', *, *, #442, .F. ) ;
#366 = APPLICATION_PROTOCOL_DEFINITION ( 'draft international standard', 'automotive_design', 1998, #510 ) ;
#367 = FACE_OUTER_BOUND ( 'NONE', #88, .T. ) ;
#368 = ORIENTED_EDGE ( 'NONE', *, *, #583, .F. ) ;
#369 = CIRCLE ( 'NONE', #503, 1.000000000000000000 ) ;
#370 = DIRECTION ( 'NONE',  ( 0.000000000000000000, 0.000000000000000000, 1.000000000000000000 ) ) ;
#371 = ADVANCED_FACE ( 'NONE', ( #48 ), #454, .F. ) ;
#372 = COLOUR_RGB ( '',0.5490196078431373028, 0.000000000000000000, 0.6862745098039215730 ) ;
#373 = CARTESIAN_POINT ( 'NONE',  ( 1.800000000000000044, 0.000000000000000000, 0.000000000000000000 ) ) ;
#374 = ORIENTED_EDGE ( 'NONE', *, *, #271, .F. ) ;
#375 = ORIENTED_EDGE ( 'NONE', *, *, #78, .F. ) ;
#376 = FILL_AREA_STYLE_COLOUR ( '', #494 ) ;
#377 = CARTESIAN_POINT ( 'NONE',  ( 5.799999999999999822, 17.91610889887260782, -17.66806872561505060 ) ) ;
#378 = VECTOR ( 'NONE', #100, 1000.000000000000000 ) ;
#379 = EDGE_CURVE ( 'NONE', #101, #411, #248, .T. ) ;
#380 = EDGE_LOOP ( 'NONE', ( #569, #144, #339, #320 ) ) ;
#381 = DIRECTION ( 'NONE',  ( 0.000000000000000000, 0.000000000000000000, -1.000000000000000000 ) ) ;
#382 = PLANE ( 'NONE',  #386 ) ;
#383 = ORIENTED_EDGE ( 'NONE', *, *, #426, .F. ) ;
#384 = AXIS2_PLACEMENT_3D ( 'NONE', #304, #500, #199 ) ;
#385 = FACE_BOUND ( 'NONE', #324, .T. ) ;
#386 = AXIS2_PLACEMENT_3D ( 'NONE', #377, #94, #623 ) ;
#387 = PLANE ( 'NONE',  #531 ) ;
#388 = VECTOR ( 'NONE', #638, 1000.000000000000000 ) ;
#389 =( LENGTH_UNIT ( ) NAMED_UNIT ( * ) SI_UNIT ( .MILLI., .METRE. ) );
#390 = DIRECTION ( 'NONE',  ( -1.000000000000000000, -0.000000000000000000, -0.000000000000000000 ) ) ;
#391 = DIRECTION ( 'NONE',  ( -1.000000000000000000, -0.000000000000000000, -0.000000000000000000 ) ) ;
#392 = EDGE_LOOP ( 'NONE', ( #448, #566, #590, #526 ) ) ;
#393 = CARTESIAN_POINT ( 'NONE',  ( 1.800000000000000044, 9.537256831458041262, -9.191409046518604242 ) ) ;
#394 = VERTEX_POINT ( 'NONE', #63 ) ;
#395 = ADVANCED_FACE ( 'NONE', ( #444 ), #1, .F. ) ;
#396 = CARTESIAN_POINT ( 'NONE',  ( 0.000000000000000000, 2.924999999999995381, -6.650000000000003020 ) ) ;
#397 = CIRCLE ( 'NONE', #479, 1.000000000000000000 ) ;
#398 = DIRECTION ( 'NONE',  ( -0.000000000000000000, -0.000000000000000000, 1.000000000000000000 ) ) ;
#399 = DIRECTION ( 'NONE',  ( -0.000000000000000000, -0.000000000000000000, 1.000000000000000000 ) ) ;
#400 = ORIENTED_EDGE ( 'NONE', *, *, #187, .T. ) ;
#401 = CARTESIAN_POINT ( 'NONE',  ( 0.000000000000000000, 0.000000000000000000, 0.000000000000000000 ) ) ;
#402 = CARTESIAN_POINT ( 'NONE',  ( 1.800000000000000044, 2.924999999999998934, -23.34999999999999787 ) ) ;
#403 = ORIENTED_EDGE ( 'NONE', *, *, #379, .T. ) ;
#404 = CARTESIAN_POINT ( 'NONE',  ( 0.000000000000000000, 17.42500000000000071, -6.650000000000002132 ) ) ;
#405 = ADVANCED_FACE ( 'NONE', ( #119 ), #167, .F. ) ;
#406 = PLANE ( 'NONE',  #58 ) ;
#407 = CARTESIAN_POINT ( 'NONE',  ( 1.800000000000000044, 0.000000000000000000, 0.000000000000000000 ) ) ;
#408 = ORIENTED_EDGE ( 'NONE', *, *, #178, .F. ) ;
#409 = DIRECTION ( 'NONE',  ( 0.000000000000000000, 0.000000000000000000, 1.000000000000000000 ) ) ;
#410 = VECTOR ( 'NONE', #390, 1000.000000000000000 ) ;
#411 = VERTEX_POINT ( 'NONE', #202 ) ;
#412 = CARTESIAN_POINT ( 'NONE',  ( 1.800000000000000044, 20.35000000000000142, -31.00000000000000000 ) ) ;
#413 = DIRECTION ( 'NONE',  ( 0.000000000000000000, 0.000000000000000000, -1.000000000000000000 ) ) ;
#414 = PRODUCT ( 'buck converter', 'buck converter', '', ( #562 ) ) ;
#415 = VERTEX_POINT ( 'NONE', #6 ) ;
#416 = AXIS2_PLACEMENT_3D ( 'NONE', #520, #370, #364 ) ;
#417 = DIRECTION ( 'NONE',  ( 0.000000000000000000, 0.000000000000000000, 1.000000000000000000 ) ) ;
#418 = VERTEX_POINT ( 'NONE', #401 ) ;
#419 = AXIS2_PLACEMENT_3D ( 'NONE', #407, #548, #585 ) ;
#420 =( LENGTH_UNIT ( ) NAMED_UNIT ( * ) SI_UNIT ( .MILLI., .METRE. ) );
#421 = ADVANCED_FACE ( 'NONE', ( #595 ), #155, .F. ) ;
#422 = ORIENTED_EDGE ( 'NONE', *, *, #244, .T. ) ;
#423 = AXIS2_PLACEMENT_3D ( 'NONE', #446, #50, #356 ) ;
#424 = AXIS2_PLACEMENT_3D ( 'NONE', #568, #314, #417 ) ;
#425 = ORIENTED_EDGE ( 'NONE', *, *, #187, .F. ) ;
#426 = EDGE_CURVE ( 'NONE', #443, #329, #551, .T. ) ;
#427 = FACE_OUTER_BOUND ( 'NONE', #282, .T. ) ;
#428 = DIRECTION ( 'NONE',  ( -1.000000000000000000, -0.000000000000000000, -0.000000000000000000 ) ) ;
#429 = ADVANCED_FACE ( 'NONE', ( #312 ), #213, .F. ) ;
#430 = ORIENTED_EDGE ( 'NONE', *, *, #21, .T. ) ;
#431 = VERTEX_POINT ( 'NONE', #347 ) ;
#432 = DIRECTION ( 'NONE',  ( -0.000000000000000000, 1.000000000000000000, 0.000000000000000000 ) ) ;
#433 = ADVANCED_FACE ( 'NONE', ( #14, #211, #206, #593, #492, #636 ), #256, .F. ) ;
#434 = DIRECTION ( 'NONE',  ( 0.000000000000000000, 0.000000000000000000, -1.000000000000000000 ) ) ;
#435 = VECTOR ( 'NONE', #263, 1000.000000000000000 ) ;
#436 = DIRECTION ( 'NONE',  ( 1.000000000000000000, 0.000000000000000000, 0.000000000000000000 ) ) ;
#437 = ORIENTED_EDGE ( 'NONE', *, *, #469, .T. ) ;
#438 = CIRCLE ( 'NONE', #607, 1.000000000000000888 ) ;
#439 = DIRECTION ( 'NONE',  ( 0.000000000000000000, 0.000000000000000000, 1.000000000000000000 ) ) ;
#440 = CARTESIAN_POINT ( 'NONE',  ( 1.800000000000000044, 0.000000000000000000, -31.00000000000000000 ) ) ;
#441 = LINE ( 'NONE', #142, #485 ) ;
#442 = EDGE_CURVE ( 'NONE', #493, #519, #251, .T. ) ;
#443 = VERTEX_POINT ( 'NONE', #60 ) ;
#444 = FACE_OUTER_BOUND ( 'NONE', #28, .T. ) ;
#445 = LINE ( 'NONE', #440, #388 ) ;
#446 = CARTESIAN_POINT ( 'NONE',  ( 5.799999999999999822, 0.000000000000000000, 0.000000000000000000 ) ) ;
#447 = DIRECTION ( 'NONE',  ( 0.000000000000000000, 0.000000000000000000, 1.000000000000000000 ) ) ;
#448 = ORIENTED_EDGE ( 'NONE', *, *, #507, .T. ) ;
#449 = DIRECTION ( 'NONE',  ( -0.000000000000000000, 1.000000000000000000, -0.000000000000000000 ) ) ;
#450 = VECTOR ( 'NONE', #527, 1000.000000000000000 ) ;
#451 = LINE ( 'NONE', #8, #463 ) ;
#452 = CARTESIAN_POINT ( 'NONE',  ( 0.000000000000000000, 0.000000000000000000, 0.000000000000000000 ) ) ;
#453 = ORIENTED_EDGE ( 'NONE', *, *, #516, .F. ) ;
#454 = PLANE ( 'NONE',  #577 ) ;
#455 = CIRCLE ( 'NONE', #230, 1.000000000000000000 ) ;
#456 = EDGE_CURVE ( 'NONE', #415, #110, #116, .T. ) ;
#457 = CARTESIAN_POINT ( 'NONE',  ( 1.800000000000000044, 17.42500000000000071, -6.650000000000002132 ) ) ;
#458 = ORIENTED_EDGE ( 'NONE', *, *, #626, .F. ) ;
#459 = CARTESIAN_POINT ( 'NONE',  ( 0.000000000000000000, 17.42500000000000071, -6.650000000000002132 ) ) ;
#460 = CARTESIAN_POINT ( 'NONE',  ( 5.799999999999999822, 17.91610889887260782, -17.66806872561505060 ) ) ;
#461 = EDGE_LOOP ( 'NONE', ( #226, #93, #160, #295 ) ) ;
#462 = CARTESIAN_POINT ( 'NONE',  ( 5.799999999999999822, 17.91610889887260782, -17.66806872561505060 ) ) ;
#463 = VECTOR ( 'NONE', #484, 1000.000000000000000 ) ;
#464 = CARTESIAN_POINT ( 'NONE',  ( 5.799999999999999822, 17.91610889887260782, -9.191409046518604242 ) ) ;
#465 = ORIENTED_EDGE ( 'NONE', *, *, #626, .T. ) ;
#466 = FILL_AREA_STYLE ('',( #376 ) ) ;
#467 = CARTESIAN_POINT ( 'NONE',  ( 0.000000000000000000, 0.000000000000000000, -31.00000000000000000 ) ) ;
#468 = ORIENTED_EDGE ( 'NONE', *, *, #299, .T. ) ;
#469 = EDGE_CURVE ( 'NONE', #431, #418, #147, .T. ) ;
#470 = SURFACE_STYLE_USAGE ( .BOTH. , #218 ) ;
#471 = ORIENTED_EDGE ( 'NONE', *, *, #137, .F. ) ;
#472 = AXIS2_PLACEMENT_3D ( 'NONE', #52, #259, #546 ) ;
#473 = ORIENTED_EDGE ( 'NONE', *, *, #610, .F. ) ;
#474 = PLANE ( 'NONE',  #157 ) ;
#475 = CARTESIAN_POINT ( 'NONE',  ( 0.000000000000000000, 17.42500000000000071, -25.35000000000000142 ) ) ;
#476 = ORIENTED_EDGE ( 'NONE', *, *, #596, .T. ) ;
#477 = CARTESIAN_POINT ( 'NONE',  ( 1.800000000000000044, 17.91610889887260782, -9.191409046518604242 ) ) ;
#478 = ORIENTED_EDGE ( 'NONE', *, *, #316, .F. ) ;
#479 = AXIS2_PLACEMENT_3D ( 'NONE', #286, #436, #381 ) ;
#480 = PRESENTATION_LAYER_ASSIGNMENT (  '', '', ( #581 ) ) ;
#481 = FACE_OUTER_BOUND ( 'NONE', #488, .T. ) ;
#482 = ADVANCED_FACE ( 'NONE', ( #105 ), #192, .F. ) ;
#483 = LINE ( 'NONE', #141, #450 ) ;
#484 = DIRECTION ( 'NONE',  ( -1.000000000000000000, -0.000000000000000000, -0.000000000000000000 ) ) ;
#485 = VECTOR ( 'NONE', #337, 1000.000000000000000 ) ;
#486 = EDGE_CURVE ( 'NONE', #31, #361, #143, .T. ) ;
#487 = CARTESIAN_POINT ( 'NONE',  ( 0.000000000000000000, 20.35000000000000142, -31.00000000000000000 ) ) ;
#488 = EDGE_LOOP ( 'NONE', ( #465, #621, #77, #358 ) ) ;
#489 = DIRECTION ( 'NONE',  ( -1.000000000000000000, -0.000000000000000000, -0.000000000000000000 ) ) ;
#490 = CYLINDRICAL_SURFACE ( 'NONE', #61, 1.000000000000000000 ) ;
#491 = CARTESIAN_POINT ( 'NONE',  ( 5.799999999999999822, 17.91610889887260782, -9.191409046518604242 ) ) ;
#492 = FACE_OUTER_BOUND ( 'NONE', #193, .T. ) ;
#493 = VERTEX_POINT ( 'NONE', #9 ) ;
#494 = COLOUR_RGB ( '',0.5490196078431373028, 0.000000000000000000, 0.6862745098039215730 ) ;
#495 = LINE ( 'NONE', #502, #633 ) ;
#496 = DIRECTION ( 'NONE',  ( 0.000000000000000000, 0.000000000000000000, -1.000000000000000000 ) ) ;
#497 = PRESENTATION_STYLE_ASSIGNMENT (( #103 ) ) ;
#498 = AXIS2_PLACEMENT_3D ( 'NONE', #153, #391, #447 ) ;
#499 = CARTESIAN_POINT ( 'NONE',  ( 0.000000000000000000, 20.35000000000000142, 0.000000000000000000 ) ) ;
#500 = DIRECTION ( 'NONE',  ( 1.000000000000000000, 0.000000000000000000, 0.000000000000000000 ) ) ;
#501 = VERTEX_POINT ( 'NONE', #351 ) ;
#502 = CARTESIAN_POINT ( 'NONE',  ( 1.800000000000000044, 20.35000000000000142, 0.000000000000000000 ) ) ;
#503 = AXIS2_PLACEMENT_3D ( 'NONE', #38, #181, #629 ) ;
#504 = DIRECTION ( 'NONE',  ( 0.000000000000000000, 0.000000000000000000, -1.000000000000000000 ) ) ;
#505 = LINE ( 'NONE', #540, #509 ) ;
#506 = ORIENTED_EDGE ( 'NONE', *, *, #456, .T. ) ;
#507 = EDGE_CURVE ( 'NONE', #80, #236, #136, .T. ) ;
#508 = LINE ( 'NONE', #462, #603 ) ;
#509 = VECTOR ( 'NONE', #399, 1000.000000000000000 ) ;
#510 = APPLICATION_CONTEXT ( 'automotive_design' ) ;
#511 = CARTESIAN_POINT ( 'NONE',  ( 1.800000000000000044, 17.42500000000000071, -5.650000000000002132 ) ) ;
#512 = VERTEX_POINT ( 'NONE', #3 ) ;
#513 = DIRECTION ( 'NONE',  ( -1.000000000000000000, -0.000000000000000000, -0.000000000000000000 ) ) ;
#514 = DIRECTION ( 'NONE',  ( -0.000000000000000000, 1.000000000000000000, -0.000000000000000000 ) ) ;
#515 = ORIENTED_EDGE ( 'NONE', *, *, #29, .T. ) ;
#516 = EDGE_CURVE ( 'NONE', #23, #51, #505, .T. ) ;
#517 = VERTEX_POINT ( 'NONE', #46 ) ;
#518 = CARTESIAN_POINT ( 'NONE',  ( 1.800000000000000044, 2.924999999999995381, -6.650000000000003020 ) ) ;
#519 = VERTEX_POINT ( 'NONE', #246 ) ;
#520 = CARTESIAN_POINT ( 'NONE',  ( 0.000000000000000000, 0.000000000000000000, 0.000000000000000000 ) ) ;
#521 = ORIENTED_EDGE ( 'NONE', *, *, #228, .T. ) ;
#522 = ADVANCED_FACE ( 'NONE', ( #618 ), #122, .F. ) ;
#523 = AXIS2_PLACEMENT_3D ( 'NONE', #360, #513, #557 ) ;
#524 = PRESENTATION_STYLE_ASSIGNMENT (( #470 ) ) ;
#525 = VECTOR ( 'NONE', #547, 1000.000000000000000 ) ;
#526 = ORIENTED_EDGE ( 'NONE', *, *, #221, .F. ) ;
#527 = DIRECTION ( 'NONE',  ( -1.000000000000000000, -0.000000000000000000, -0.000000000000000000 ) ) ;
#528 = LINE ( 'NONE', #499, #258 ) ;
#529 = EDGE_CURVE ( 'NONE', #110, #23, #175, .T. ) ;
#530 = CARTESIAN_POINT ( 'NONE',  ( 0.000000000000000000, 2.924999999999998934, -24.35000000000000142 ) ) ;
#531 = AXIS2_PLACEMENT_3D ( 'NONE', #233, #582, #335 ) ;
#532 = CIRCLE ( 'NONE', #260, 1.000000000000000888 ) ;
#533 = CARTESIAN_POINT ( 'NONE',  ( 1.800000000000000044, 2.924999999999998934, -24.35000000000000142 ) ) ;
#534 = ORIENTED_EDGE ( 'NONE', *, *, #538, .T. ) ;
#535 = LINE ( 'NONE', #560, #186 ) ;
#536 = CARTESIAN_POINT ( 'NONE',  ( 1.800000000000000044, 2.924999999999998934, -25.35000000000000142 ) ) ;
#537 = ORIENTED_EDGE ( 'NONE', *, *, #529, .T. ) ;
#538 = EDGE_CURVE ( 'NONE', #91, #517, #455, .T. ) ;
#539 = LINE ( 'NONE', #96, #289 ) ;
#540 = CARTESIAN_POINT ( 'NONE',  ( 1.800000000000000044, 17.91610889887260782, -9.191409046518604242 ) ) ;
#541 = ORIENTED_EDGE ( 'NONE', *, *, #583, .T. ) ;
#542 = AXIS2_PLACEMENT_3D ( 'NONE', #544, #310, #115 ) ;
#543 = FILL_AREA_STYLE_COLOUR ( '', #372 ) ;
#544 = CARTESIAN_POINT ( 'NONE',  ( 1.800000000000000044, 17.42500000000000071, -24.35000000000000142 ) ) ;
#545 = ORIENTED_EDGE ( 'NONE', *, *, #111, .T. ) ;
#546 = DIRECTION ( 'NONE',  ( 0.000000000000000000, 0.000000000000000000, 1.000000000000000000 ) ) ;
#547 = DIRECTION ( 'NONE',  ( -1.000000000000000000, -0.000000000000000000, -0.000000000000000000 ) ) ;
#548 = DIRECTION ( 'NONE',  ( -1.000000000000000000, 0.000000000000000000, 0.000000000000000000 ) ) ;
#549 = EDGE_LOOP ( 'NONE', ( #278, #422, #473, #207 ) ) ;
#550 = DIRECTION ( 'NONE',  ( -1.000000000000000000, -0.000000000000000000, -0.000000000000000000 ) ) ;
#551 = CIRCLE ( 'NONE', #330, 1.000000000000000000 ) ;
#552 = CARTESIAN_POINT ( 'NONE',  ( 0.000000000000000000, 2.924999999999998934, -25.35000000000000142 ) ) ;
#553 = EDGE_CURVE ( 'NONE', #411, #628, #272, .T. ) ;
#554 = ORIENTED_EDGE ( 'NONE', *, *, #70, .F. ) ;
#555 = LINE ( 'NONE', #269, #340 ) ;
#556 = DIRECTION ( 'NONE',  ( -1.000000000000000000, -0.000000000000000000, -0.000000000000000000 ) ) ;
#557 = DIRECTION ( 'NONE',  ( 0.000000000000000000, 0.000000000000000000, 1.000000000000000000 ) ) ;
#558 = ORIENTED_EDGE ( 'NONE', *, *, #29, .F. ) ;
#559 = DIRECTION ( 'NONE',  ( -1.000000000000000000, -0.000000000000000000, -0.000000000000000000 ) ) ;
#560 = CARTESIAN_POINT ( 'NONE',  ( 0.000000000000000000, 0.000000000000000000, 0.000000000000000000 ) ) ;
#561 = ORIENTED_EDGE ( 'NONE', *, *, #345, .F. ) ;
#562 = PRODUCT_CONTEXT ( 'NONE', #634, 'mechanical' ) ;
#563 = ADVANCED_FACE ( 'NONE', ( #127 ), #613, .F. ) ;
#564 = EDGE_LOOP ( 'NONE', ( #75, #128, #67, #284 ) ) ;
#565 = AXIS2_PLACEMENT_3D ( 'NONE', #530, #92, #234 ) ;
#566 = ORIENTED_EDGE ( 'NONE', *, *, #86, .T. ) ;
#567 = VECTOR ( 'NONE', #319, 1000.000000000000000 ) ;
#568 = CARTESIAN_POINT ( 'NONE',  ( 1.800000000000000044, 17.42500000000000071, -24.35000000000000142 ) ) ;
#569 = ORIENTED_EDGE ( 'NONE', *, *, #191, .T. ) ;
#570 = ORIENTED_EDGE ( 'NONE', *, *, #64, .F. ) ;
#571 = EDGE_CURVE ( 'NONE', #394, #501, #308, .T. ) ;
#572 = CIRCLE ( 'NONE', #131, 1.000000000000000888 ) ;
#573 = DIRECTION ( 'NONE',  ( -1.000000000000000000, -0.000000000000000000, -0.000000000000000000 ) ) ;
#574 = CARTESIAN_POINT ( 'NONE',  ( 1.800000000000000044, 20.35000000000000142, 0.000000000000000000 ) ) ;
#575 = EDGE_CURVE ( 'NONE', #512, #247, #170, .T. ) ;
#576 = ORIENTED_EDGE ( 'NONE', *, *, #313, .T. ) ;
#577 = AXIS2_PLACEMENT_3D ( 'NONE', #296, #12, #363 ) ;
#578 = PLANE ( 'NONE',  #306 ) ;
#579 = VECTOR ( 'NONE', #250, 1000.000000000000000 ) ;
#580 = DIRECTION ( 'NONE',  ( 1.000000000000000000, 0.000000000000000000, 0.000000000000000000 ) ) ;
#581 = STYLED_ITEM ( 'NONE', ( #497 ), #600 ) ;
#582 = DIRECTION ( 'NONE',  ( 0.000000000000000000, 0.000000000000000000, -1.000000000000000000 ) ) ;
#583 = EDGE_CURVE ( 'NONE', #628, #315, #76, .T. ) ;
#584 = CARTESIAN_POINT ( 'NONE',  ( 1.800000000000000044, 9.537256831458041262, -9.191409046518604242 ) ) ;
#585 = DIRECTION ( 'NONE',  ( 0.000000000000000000, 0.000000000000000000, 1.000000000000000000 ) ) ;
#586 = ADVANCED_FACE ( 'NONE', ( #367 ), #490, .F. ) ;
#587 = VERTEX_POINT ( 'NONE', #49 ) ;
#588 = CARTESIAN_POINT ( 'NONE',  ( 0.000000000000000000, 17.42500000000000071, -24.35000000000000142 ) ) ;
#589 = DIRECTION ( 'NONE',  ( 0.000000000000000000, -1.000000000000000000, 0.000000000000000000 ) ) ;
#590 = ORIENTED_EDGE ( 'NONE', *, *, #21, .F. ) ;
#591 = DIRECTION ( 'NONE',  ( 0.000000000000000000, -1.000000000000000000, 0.000000000000000000 ) ) ;
#592 = LINE ( 'NONE', #298, #227 ) ;
#593 = FACE_BOUND ( 'NONE', #237, .T. ) ;
#594 = ORIENTED_EDGE ( 'NONE', *, *, #575, .T. ) ;
#595 = FACE_OUTER_BOUND ( 'NONE', #336, .T. ) ;
#596 = EDGE_CURVE ( 'NONE', #628, #512, #445, .T. ) ;
#597 = LINE ( 'NONE', #635, #579 ) ;
#598 = DIRECTION ( 'NONE',  ( -1.000000000000000000, -0.000000000000000000, -0.000000000000000000 ) ) ;
#599 = ORIENTED_EDGE ( 'NONE', *, *, #195, .F. ) ;
#600 = MANIFOLD_SOLID_BREP ( 'Boss-Extrude2', #332 ) ;
#601 = PRESENTATION_LAYER_ASSIGNMENT (  '', '', ( #40 ) ) ;
#602 = CARTESIAN_POINT ( 'NONE',  ( 0.000000000000000000, 17.42500000000000071, -7.650000000000002132 ) ) ;
#603 = VECTOR ( 'NONE', #449, 1000.000000000000000 ) ;
#604 = DIRECTION ( 'NONE',  ( 1.000000000000000000, 0.000000000000000000, -0.000000000000000000 ) ) ;
#605 = VERTEX_POINT ( 'NONE', #183 ) ;
#606 = CARTESIAN_POINT ( 'NONE',  ( 1.800000000000000044, 17.42500000000000071, -24.35000000000000142 ) ) ;
#607 = AXIS2_PLACEMENT_3D ( 'NONE', #588, #163, #205 ) ;
#608 = CARTESIAN_POINT ( 'NONE',  ( 1.800000000000000044, 17.91610889887260782, -17.66806872561505060 ) ) ;
#609 = ORIENTED_EDGE ( 'NONE', *, *, #118, .F. ) ;
#610 = EDGE_CURVE ( 'NONE', #361, #34, #532, .T. ) ;
#611 = DIRECTION ( 'NONE',  ( 0.000000000000000000, 0.000000000000000000, 1.000000000000000000 ) ) ;
#612 = ORIENTED_EDGE ( 'NONE', *, *, #571, .T. ) ;
#613 = PLANE ( 'NONE',  #140 ) ;
#614 = AXIS2_PLACEMENT_3D ( 'NONE', #16, #208, #409 ) ;
#615 = ORIENTED_EDGE ( 'NONE', *, *, #78, .T. ) ;
#616 = DIRECTION ( 'NONE',  ( -1.000000000000000000, 0.000000000000000000, -0.000000000000000000 ) ) ;
#617 = VECTOR ( 'NONE', #146, 1000.000000000000000 ) ;
#618 = FACE_OUTER_BOUND ( 'NONE', #37, .T. ) ;
#619 = ORIENTED_EDGE ( 'NONE', *, *, #64, .T. ) ;
#620 = VECTOR ( 'NONE', #74, 1000.000000000000000 ) ;
#621 = ORIENTED_EDGE ( 'NONE', *, *, #596, .F. ) ;
#622 =( NAMED_UNIT ( * ) SI_UNIT ( $, .STERADIAN. ) SOLID_ANGLE_UNIT ( ) );
#623 = DIRECTION ( 'NONE',  ( 1.000000000000000000, 0.000000000000000000, 0.000000000000000000 ) ) ;
#624 = AXIS2_PLACEMENT_3D ( 'NONE', #459, #217, #57 ) ;
#625 = LINE ( 'NONE', #536, #113 ) ;
#626 = EDGE_CURVE ( 'NONE', #418, #512, #535, .T. ) ;
#627 = CARTESIAN_POINT ( 'NONE',  ( 1.800000000000000044, 17.91610889887260782, -17.66806872561505060 ) ) ;
#628 = VERTEX_POINT ( 'NONE', #341 ) ;
#629 = DIRECTION ( 'NONE',  ( 0.000000000000000000, 0.000000000000000000, -1.000000000000000000 ) ) ;
#630 = ORIENTED_EDGE ( 'NONE', *, *, #334, .T. ) ;
#631 = ADVANCED_FACE ( 'NONE', ( #32 ), #474, .F. ) ;
#632 = PLANE ( 'NONE',  #7 ) ;
#633 = VECTOR ( 'NONE', #559, 1000.000000000000000 ) ;
#634 = APPLICATION_CONTEXT ( 'automotive_design' ) ;
#635 = CARTESIAN_POINT ( 'NONE',  ( 1.800000000000000044, 0.000000000000000000, 0.000000000000000000 ) ) ;
#636 = FACE_BOUND ( 'NONE', #176, .T. ) ;
#637 = ORIENTED_EDGE ( 'NONE', *, *, #17, .F. ) ;
#638 = DIRECTION ( 'NONE',  ( -1.000000000000000000, -0.000000000000000000, -0.000000000000000000 ) ) ;
#639 = DIRECTION ( 'NONE',  ( 1.000000000000000000, 0.000000000000000000, 0.000000000000000000 ) ) ;
#640 = EDGE_LOOP ( 'NONE', ( #243, #89 ) ) ;
ENDSEC;
END-ISO-10303-21;
