ISO-10303-21;
HEADER;
FILE_DESCRIPTION (( 'STEP AP214' ),
    '1' );
FILE_NAME ('middel part.STEP',
    '2026-06-18T19:13:36',
    ( '' ),
    ( '' ),
    'SwSTEP 2.0',
    'SolidWorks 2025',
    '' );
FILE_SCHEMA (( 'AUTOMOTIVE_DESIGN' ));
ENDSEC;

DATA;
#1 = LINE ( 'NONE', #247, #734 ) ;
#2 = VERTEX_POINT ( 'NONE', #182 ) ;
#3 = CARTESIAN_POINT ( 'NONE',  ( 7.774999999999998579, 9.521628863370669207E-16, 0.000000000000000000 ) ) ;
#4 = VECTOR ( 'NONE', #414, 1000.000000000000000 ) ;
#5 = VERTEX_POINT ( 'NONE', #566 ) ;
#6 = ORIENTED_EDGE ( 'NONE', *, *, #567, .F. ) ;
#7 = FILL_AREA_STYLE_COLOUR ( '', #613 ) ;
#8 = DIRECTION ( 'NONE',  ( -1.000000000000000000, 0.000000000000000000, 0.000000000000000000 ) ) ;
#9 = ORIENTED_EDGE ( 'NONE', *, *, #302, .T. ) ;
#10 = ORIENTED_EDGE ( 'NONE', *, *, #153, .T. ) ;
#11 = EDGE_CURVE ( 'NONE', #598, #5, #435, .T. ) ;
#12 = CARTESIAN_POINT ( 'NONE',  ( -13.45775241264305677, 9.649999999999998579, 3.000000000000000000 ) ) ;
#13 = CARTESIAN_POINT ( 'NONE',  ( 17.76867749721402134, -9.650000000000002132, 1.600000000000000089 ) ) ;
#14 = ORIENTED_EDGE ( 'NONE', *, *, #253, .T. ) ;
#15 = EDGE_CURVE ( 'NONE', #175, #685, #619, .T. ) ;
#16 = DIRECTION ( 'NONE',  ( -0.000000000000000000, 0.000000000000000000, 1.000000000000000000 ) ) ;
#17 = CARTESIAN_POINT ( 'NONE',  ( 0.000000000000000000, 0.000000000000000000, 0.000000000000000000 ) ) ;
#18 = ORIENTED_EDGE ( 'NONE', *, *, #260, .F. ) ;
#19 = FACE_OUTER_BOUND ( 'NONE', #651, .T. ) ;
#20 = AXIS2_PLACEMENT_3D ( 'NONE', #446, #210, #768 ) ;
#21 = PLANE ( 'NONE',  #20 ) ;
#22 = VECTOR ( 'NONE', #291, 1000.000000000000000 ) ;
#23 = ORIENTED_EDGE ( 'NONE', *, *, #758, .T. ) ;
#24 = CARTESIAN_POINT ( 'NONE',  ( 0.000000000000000000, 0.000000000000000000, 3.000000000000000000 ) ) ;
#25 = DIRECTION ( 'NONE',  ( -0.000000000000000000, -0.000000000000000000, -1.000000000000000000 ) ) ;
#26 = EDGE_CURVE ( 'NONE', #522, #526, #704, .T. ) ;
#27 = VERTEX_POINT ( 'NONE', #128 ) ;
#28 = CARTESIAN_POINT ( 'NONE',  ( -13.24194999866639932, 0.000000000000000000, 3.000000000000000000 ) ) ;
#29 = CIRCLE ( 'NONE', #353, 20.21999999999999886 ) ;
#30 = LINE ( 'NONE', #88, #47 ) ;
#31 = EDGE_LOOP ( 'NONE', ( #733, #86 ) ) ;
#32 = CARTESIAN_POINT ( 'NONE',  ( 14.74194999866640821, 3.227183121715790950E-15, 0.000000000000000000 ) ) ;
#33 = DIRECTION ( 'NONE',  ( -1.000000000000000000, 0.000000000000000000, 0.000000000000000000 ) ) ;
#34 = VERTEX_POINT ( 'NONE', #115 ) ;
#35 = EDGE_CURVE ( 'NONE', #448, #341, #275, .T. ) ;
#36 = CIRCLE ( 'NONE', #621, 16.55999999999999872 ) ;
#37 = CIRCLE ( 'NONE', #135, 1.631949998666401891 ) ;
#38 = CARTESIAN_POINT ( 'NONE',  ( 0.000000000000000000, 0.000000000000000000, 3.000000000000000000 ) ) ;
#39 = ORIENTED_EDGE ( 'NONE', *, *, #138, .T. ) ;
#40 = EDGE_CURVE ( 'NONE', #706, #610, #29, .T. ) ;
#41 = CYLINDRICAL_SURFACE ( 'NONE', #267, 16.55999999999999872 ) ;
#42 = DIRECTION ( 'NONE',  ( -1.000000000000000000, 0.000000000000000000, 0.000000000000000000 ) ) ;
#43 = ORIENTED_EDGE ( 'NONE', *, *, #326, .F. ) ;
#44 = CARTESIAN_POINT ( 'NONE',  ( -20.21999999999999176, -1.769585772187639128, 2.451817167789310581 ) ) ;
#45 = DIRECTION ( 'NONE',  ( -0.000000000000000000, 0.000000000000000000, 1.000000000000000000 ) ) ;
#46 = ORIENTED_EDGE ( 'NONE', *, *, #35, .T. ) ;
#47 = VECTOR ( 'NONE', #207, 1000.000000000000114 ) ;
#48 = CARTESIAN_POINT ( 'NONE',  ( -19.53102020756496060, -5.233321091972986672, 3.000000000000000000 ) ) ;
#49 = CARTESIAN_POINT ( 'NONE',  ( 0.000000000000000000, 0.000000000000000000, 3.000000000000000000 ) ) ;
#50 = EDGE_CURVE ( 'NONE', #244, #706, #320, .T. ) ;
#51 = ORIENTED_EDGE ( 'NONE', *, *, #640, .F. ) ;
#52 = LINE ( 'NONE', #798, #201 ) ;
#53 = EDGE_LOOP ( 'NONE', ( #66, #219 ) ) ;
#54 =( BOUNDED_CURVE ( )  B_SPLINE_CURVE ( 3, ( #513, #323, #381, #445 ),
 .UNSPECIFIED., .F., .F. ) 
 B_SPLINE_CURVE_WITH_KNOTS ( ( 4, 4 ),
 ( 4.974188368183839692, 5.173679217785007722 ),
 .UNSPECIFIED. ) 
 CURVE ( )  GEOMETRIC_REPRESENTATION_ITEM ( )  RATIONAL_B_SPLINE_CURVE ( ( 1.000000000000000000, 0.9966863654315485377, 0.9966863654315485377, 1.000000000000000000 ) ) 
 REPRESENTATION_ITEM ( '' )  );
#55 = DIRECTION ( 'NONE',  ( -0.000000000000000000, 0.000000000000000000, 1.000000000000000000 ) ) ;
#56 = DIRECTION ( 'NONE',  ( 1.000000000000000000, 0.000000000000000000, 0.000000000000000000 ) ) ;
#57 = EDGE_CURVE ( 'NONE', #337, #753, #625, .T. ) ;
#58 = CARTESIAN_POINT ( 'NONE',  ( 0.000000000000000000, 0.000000000000000000, 3.000000000000000000 ) ) ;
#59 = AXIS2_PLACEMENT_3D ( 'NONE', #58, #482, #738 ) ;
#60 = DIRECTION ( 'NONE',  ( -0.000000000000000000, 0.000000000000000000, 1.000000000000000000 ) ) ;
#61 = DIRECTION ( 'NONE',  ( 1.000000000000000000, 0.000000000000000000, 0.000000000000000000 ) ) ;
#62 = CIRCLE ( 'NONE', #346, 7.774999999999998579 ) ;
#63 = ORIENTED_EDGE ( 'NONE', *, *, #198, .F. ) ;
#64 = DIRECTION ( 'NONE',  ( -0.000000000000000000, 0.000000000000000000, 1.000000000000000000 ) ) ;
#65 = CARTESIAN_POINT ( 'NONE',  ( 0.000000000000000000, 0.000000000000000000, 3.000000000000000000 ) ) ;
#66 = ORIENTED_EDGE ( 'NONE', *, *, #662, .F. ) ;
#67 = DIRECTION ( 'NONE',  ( -1.000000000000000000, 0.000000000000000000, 0.000000000000000000 ) ) ;
#68 = CARTESIAN_POINT ( 'NONE',  ( 11.61000000000000121, 2.843629867620153816E-15, 0.000000000000000000 ) ) ;
#69 = DIRECTION ( 'NONE',  ( -0.000000000000000000, 0.000000000000000000, 1.000000000000000000 ) ) ;
#70 = FILL_AREA_STYLE_COLOUR ( '', #727 ) ;
#71 = DIRECTION ( 'NONE',  ( 1.000000000000000000, 0.000000000000000000, 0.000000000000000000 ) ) ;
#72 = AXIS2_PLACEMENT_3D ( 'NONE', #427, #55, #241 ) ;
#73 = CARTESIAN_POINT ( 'NONE',  ( -20.21999999999999886, 0.000000000000000000, 2.185927830137563976 ) ) ;
#74 = CARTESIAN_POINT ( 'NONE',  ( 0.000000000000000000, 0.000000000000000000, 3.000000000000000000 ) ) ;
#75 = ORIENTED_EDGE ( 'NONE', *, *, #15, .T. ) ;
#76 = DIRECTION ( 'NONE',  ( -1.000000000000000000, 0.000000000000000000, 0.000000000000000000 ) ) ;
#77 = CARTESIAN_POINT ( 'NONE',  ( -8.478050001333588881, 3.835532540956374299E-16, 0.000000000000000000 ) ) ;
#78 = ORIENTED_EDGE ( 'NONE', *, *, #783, .T. ) ;
#79 = EDGE_CURVE ( 'NONE', #27, #422, #743, .T. ) ;
#80 = SURFACE_STYLE_USAGE ( .BOTH. , #645 ) ;
#81 = CARTESIAN_POINT ( 'NONE',  ( 7.774999999999998579, 9.521628863370669207E-16, 3.000000000000000000 ) ) ;
#82 = ORIENTED_EDGE ( 'NONE', *, *, #298, .T. ) ;
#83 = FACE_OUTER_BOUND ( 'NONE', #607, .T. ) ;
#84 = EDGE_CURVE ( 'NONE', #34, #285, #125, .T. ) ;
#85 = LINE ( 'NONE', #392, #469 ) ;
#86 = ORIENTED_EDGE ( 'NONE', *, *, #516, .T. ) ;
#87 = CARTESIAN_POINT ( 'NONE',  ( -17.76867749721402490, -9.649999999999998579, 3.000000000000000000 ) ) ;
#88 = CARTESIAN_POINT ( 'NONE',  ( -8.478050001333588881, 3.835532540956374299E-16, 0.000000000000000000 ) ) ;
#89 = PRODUCT_DEFINITION_FORMATION_WITH_SPECIFIED_SOURCE ( 'Symmetric', '', #730, .NOT_KNOWN. ) ;
#90 = EDGE_CURVE ( 'NONE', #757, #769, #1, .T. ) ;
#91 = EDGE_LOOP ( 'NONE', ( #750, #490, #534, #722, #294 ) ) ;
#92 = CARTESIAN_POINT ( 'NONE',  ( 17.76867749721402134, -9.650000000000002132, 0.000000000000000000 ) ) ;
#93 = CARTESIAN_POINT ( 'NONE',  ( -9.421118451725454770E-16, -9.650000000000000355, 0.000000000000000000 ) ) ;
#94 = VERTEX_POINT ( 'NONE', #748 ) ;
#95 = VECTOR ( 'NONE', #608, 1000.000000000000227 ) ;
#96 = CARTESIAN_POINT ( 'NONE',  ( 16.74615080400343459, -2.035483672191896076, 2.019945709836375780 ) ) ;
#97 = AXIS2_PLACEMENT_3D ( 'NONE', #756, #60, #246 ) ;
#98 = CARTESIAN_POINT ( 'NONE',  ( 8.478050001333592434, 2.843629867620153816E-15, 0.000000000000000000 ) ) ;
#99 = ORIENTED_EDGE ( 'NONE', *, *, #453, .F. ) ;
#100 = CARTESIAN_POINT ( 'NONE',  ( 15.99573168334696760, 4.286043386897754992, 3.000000000000000000 ) ) ;
#101 = DIRECTION ( 'NONE',  ( -0.5999999999999990896, 0.000000000000000000, -0.8000000000000005995 ) ) ;
#102 = ORIENTED_EDGE ( 'NONE', *, *, #548, .T. ) ;
#103 = VECTOR ( 'NONE', #101, 1000.000000000000114 ) ;
#104 = CARTESIAN_POINT ( 'NONE',  ( -7.774999999999998579, 0.000000000000000000, 0.000000000000000000 ) ) ;
#105 = EDGE_CURVE ( 'NONE', #448, #439, #413, .T. ) ;
#106 = LINE ( 'NONE', #98, #103 ) ;
#107 = EDGE_LOOP ( 'NONE', ( #647, #568, #179, #761 ) ) ;
#108 = DIRECTION ( 'NONE',  ( -0.000000000000000000, 0.000000000000000000, 1.000000000000000000 ) ) ;
#109 = ORIENTED_EDGE ( 'NONE', *, *, #404, .F. ) ;
#110 = FACE_OUTER_BOUND ( 'NONE', #233, .T. ) ;
#111 = DIRECTION ( 'NONE',  ( 1.000000000000000000, 0.000000000000000000, 0.000000000000000000 ) ) ;
#112 = ADVANCED_FACE ( 'NONE', ( #509 ), #273, .F. ) ;
#113 = FILL_AREA_STYLE ('',( #7 ) ) ;
#114 = PLANE ( 'NONE',  #804 ) ;
#115 = CARTESIAN_POINT ( 'NONE',  ( -20.21999999999999886, 0.000000000000000000, 0.000000000000000000 ) ) ;
#116 = ORIENTED_EDGE ( 'NONE', *, *, #326, .T. ) ;
#117 = ADVANCED_FACE ( 'NONE', ( #277 ), #416, .F. ) ;
#118 = VECTOR ( 'NONE', #388, 1000.000000000000000 ) ;
#119 = DIRECTION ( 'NONE',  ( 1.000000000000000000, -9.762817048420159591E-17, 0.000000000000000000 ) ) ;
#120 = CIRCLE ( 'NONE', #620, 3.131949998666408330 ) ;
#121 = VERTEX_POINT ( 'NONE', #77 ) ;
#122 = SURFACE_SIDE_STYLE ('',( #549 ) ) ;
#123 = DIRECTION ( 'NONE',  ( 1.000000000000000000, 0.000000000000000000, 0.000000000000000000 ) ) ;
#124 = CARTESIAN_POINT ( 'NONE',  ( 0.000000000000000000, 0.000000000000000000, 3.000000000000000000 ) ) ;
#125 = CIRCLE ( 'NONE', #585, 20.21999999999999886 ) ;
#126 = DIRECTION ( 'NONE',  ( -1.000000000000000000, 0.000000000000000000, 0.000000000000000000 ) ) ;
#127 = EDGE_CURVE ( 'NONE', #473, #5, #433, .T. ) ;
#128 = CARTESIAN_POINT ( 'NONE',  ( -19.53102020756496060, -5.233321091972986672, 3.000000000000000000 ) ) ;
#129 = ORIENTED_EDGE ( 'NONE', *, *, #11, .F. ) ;
#130 = CIRCLE ( 'NONE', #551, 7.774999999999998579 ) ;
#131 = DIRECTION ( 'NONE',  ( 1.000000000000000000, 0.000000000000000000, 0.000000000000000000 ) ) ;
#132 = DIRECTION ( 'NONE',  ( 0.9659258262890680902, 0.2588190451025214611, 0.000000000000000000 ) ) ;
#133 = VECTOR ( 'NONE', #711, 1000.000000000000000 ) ;
#134 = VERTEX_POINT ( 'NONE', #197 ) ;
#135 = AXIS2_PLACEMENT_3D ( 'NONE', #560, #677, #434 ) ;
#136 = PLANE ( 'NONE',  #330 ) ;
#137 = ORIENTED_EDGE ( 'NONE', *, *, #322, .T. ) ;
#138 = EDGE_CURVE ( 'NONE', #671, #2, #705, .T. ) ;
#139 = CARTESIAN_POINT ( 'NONE',  ( -20.21999999999999886, 0.000000000000000000, 3.000000000000000000 ) ) ;
#140 = VECTOR ( 'NONE', #165, 1000.000000000000000 ) ;
#141 = FACE_OUTER_BOUND ( 'NONE', #802, .T. ) ;
#142 = ORIENTED_EDGE ( 'NONE', *, *, #395, .F. ) ;
#143 = EDGE_CURVE ( 'NONE', #364, #360, #584, .T. ) ;
#144 = DIRECTION ( 'NONE',  ( -0.000000000000000000, 0.000000000000000000, 1.000000000000000000 ) ) ;
#145 = DIRECTION ( 'NONE',  ( -0.000000000000000000, -0.000000000000000000, -1.000000000000000000 ) ) ;
#146 = ORIENTED_EDGE ( 'NONE', *, *, #548, .F. ) ;
#147 = FACE_OUTER_BOUND ( 'NONE', #91, .T. ) ;
#148 = EDGE_CURVE ( 'NONE', #740, #401, #643, .T. ) ;
#149 = FACE_OUTER_BOUND ( 'NONE', #430, .T. ) ;
#150 = ORIENTED_EDGE ( 'NONE', *, *, #729, .F. ) ;
#151 = CARTESIAN_POINT ( 'NONE',  ( 13.24194999866640288, 3.043486101843687439E-15, 2.000000000000013767 ) ) ;
#152 = CARTESIAN_POINT ( 'NONE',  ( 0.000000000000000000, 0.000000000000000000, 0.000000000000000000 ) ) ;
#153 = EDGE_CURVE ( 'NONE', #5, #121, #30, .T. ) ;
#154 = EDGE_LOOP ( 'NONE', ( #547, #484, #208, #357 ) ) ;
#155 = DIRECTION ( 'NONE',  ( 1.000000000000000000, 0.000000000000000000, 0.000000000000000000 ) ) ;
#156 = DIRECTION ( 'NONE',  ( 0.5999999999999990896, 7.347880794884107903E-17, -0.8000000000000005995 ) ) ;
#157 = ORIENTED_EDGE ( 'NONE', *, *, #774, .F. ) ;
#158 =( BOUNDED_CURVE ( )  B_SPLINE_CURVE ( 3, ( #478, #96, #587, #100 ),
 .UNSPECIFIED., .F., .F. ) 
 B_SPLINE_CURVE_WITH_KNOTS ( ( 4, 4 ),
 ( 0.9962211171047511415, 1.570796326794895892 ),
 .UNSPECIFIED. ) 
 CURVE ( )  GEOMETRIC_REPRESENTATION_ITEM ( )  RATIONAL_B_SPLINE_CURVE ( ( 1.000000000000000000, 0.9726773100344804357, 0.9726773100344804357, 1.000000000000000000 ) ) 
 REPRESENTATION_ITEM ( '' )  );
#159 = CIRCLE ( 'NONE', #411, 3.131949998666408330 ) ;
#160 = FACE_OUTER_BOUND ( 'NONE', #772, .T. ) ;
#161 = DIRECTION ( 'NONE',  ( 1.000000000000000000, 0.000000000000000000, 0.000000000000000000 ) ) ;
#162 = ORIENTED_EDGE ( 'NONE', *, *, #352, .F. ) ;
#163 = ADVANCED_FACE ( 'NONE', ( #577, #455, #141, #385 ), #21, .F. ) ;
#164 = CYLINDRICAL_SURFACE ( 'NONE', #472, 16.55999999999999872 ) ;
#165 = DIRECTION ( 'NONE',  ( 1.000000000000000000, -9.762817048420159591E-17, 0.000000000000000000 ) ) ;
#166 = VECTOR ( 'NONE', #243, 1000.000000000000000 ) ;
#167 = ORIENTED_EDGE ( 'NONE', *, *, #404, .T. ) ;
#168 = AXIS2_PLACEMENT_3D ( 'NONE', #38, #736, #33 ) ;
#169 = DIRECTION ( 'NONE',  ( 1.000000000000000000, 0.000000000000000000, 0.000000000000000000 ) ) ;
#170 = ORIENTED_EDGE ( 'NONE', *, *, #105, .T. ) ;
#171 = DIRECTION ( 'NONE',  ( -0.000000000000000000, 0.000000000000000000, 1.000000000000000000 ) ) ;
#172 = DIRECTION ( 'NONE',  ( -0.000000000000000000, -0.000000000000000000, -1.000000000000000000 ) ) ;
#173 = ADVANCED_FACE ( 'NONE', ( #149 ), #136, .T. ) ;
#174 = AXIS2_PLACEMENT_3D ( 'NONE', #185, #524, #76 ) ;
#175 = VERTEX_POINT ( 'NONE', #506 ) ;
#176 = CARTESIAN_POINT ( 'NONE',  ( 0.000000000000000000, 0.000000000000000000, 0.000000000000000000 ) ) ;
#177 = DIRECTION ( 'NONE',  ( -1.000000000000000000, 0.000000000000000000, 0.000000000000000000 ) ) ;
#178 = EDGE_LOOP ( 'NONE', ( #398, #675, #75, #18 ) ) ;
#179 = ORIENTED_EDGE ( 'NONE', *, *, #627, .T. ) ;
#180 = CARTESIAN_POINT ( 'NONE',  ( 13.45775241264305322, -9.650000000000002132, 1.600000000000000089 ) ) ;
#181 = CARTESIAN_POINT ( 'NONE',  ( -11.60999999999999766, 0.000000000000000000, 0.000000000000000000 ) ) ;
#182 = CARTESIAN_POINT ( 'NONE',  ( -15.75656036088866152, 5.095527999498392191, 1.600000000000000089 ) ) ;
#183 = VECTOR ( 'NONE', #145, 1000.000000000000000 ) ;
#184 = CARTESIAN_POINT ( 'NONE',  ( 2.244897367846220041E-16, -8.378071034579708211E-16, 3.000000000000000000 ) ) ;
#185 = CARTESIAN_POINT ( 'NONE',  ( 0.000000000000000000, 0.000000000000000000, 3.000000000000000000 ) ) ;
#186 = ORIENTED_EDGE ( 'NONE', *, *, #298, .F. ) ;
#187 = ORIENTED_EDGE ( 'NONE', *, *, #476, .F. ) ;
#188 = EDGE_CURVE ( 'NONE', #473, #94, #85, .T. ) ;
#189 = CARTESIAN_POINT ( 'NONE',  ( -11.60999999999999766, 0.000000000000000000, 3.000000000000000000 ) ) ;
#190 = ORIENTED_EDGE ( 'NONE', *, *, #311, .F. ) ;
#191 = STYLED_ITEM ( 'NONE', ( #368 ), #539 ) ;
#192 = FACE_OUTER_BOUND ( 'NONE', #274, .T. ) ;
#193 = FACE_BOUND ( 'NONE', #53, .T. ) ;
#194 = VERTEX_POINT ( 'NONE', #642 ) ;
#195 = SURFACE_STYLE_FILL_AREA ( #700 ) ;
#196 = AXIS2_PLACEMENT_3D ( 'NONE', #423, #751, #67 ) ;
#197 = CARTESIAN_POINT ( 'NONE',  ( -13.45775241264305677, 9.649999999999998579, 1.600000000000000089 ) ) ;
#198 = EDGE_CURVE ( 'NONE', #439, #256, #268, .T. ) ;
#199 =( GEOMETRIC_REPRESENTATION_CONTEXT ( 3 ) GLOBAL_UNCERTAINTY_ASSIGNED_CONTEXT ( ( #793 ) ) GLOBAL_UNIT_ASSIGNED_CONTEXT ( ( #569, #505, #334 ) ) REPRESENTATION_CONTEXT ( 'NONE', 'WORKASPACE' ) );
#200 = ORIENTED_EDGE ( 'NONE', *, *, #504, .T. ) ;
#201 = VECTOR ( 'NONE', #172, 1000.000000000000000 ) ;
#202 = LINE ( 'NONE', #759, #133 ) ;
#203 = CARTESIAN_POINT ( 'NONE',  ( -9.421118451725454770E-16, 9.650000000000000355, 3.000000000000000000 ) ) ;
#204 = ORIENTED_EDGE ( 'NONE', *, *, #372, .F. ) ;
#205 = AXIS2_PLACEMENT_3D ( 'NONE', #124, #628, #71 ) ;
#206 = CIRCLE ( 'NONE', #289, 1.631949998666401891 ) ;
#207 = DIRECTION ( 'NONE',  ( 0.5999999999999990896, 7.347880794884107903E-17, -0.8000000000000005995 ) ) ;
#208 = ORIENTED_EDGE ( 'NONE', *, *, #311, .T. ) ;
#209 = CARTESIAN_POINT ( 'NONE',  ( 17.76867749721402134, 9.650000000000002132, 0.000000000000000000 ) ) ;
#210 = DIRECTION ( 'NONE',  ( -0.000000000000000000, 0.000000000000000000, 1.000000000000000000 ) ) ;
#211 = EDGE_LOOP ( 'NONE', ( #109, #6 ) ) ;
#212 = AXIS2_PLACEMENT_3D ( 'NONE', #189, #492, #126 ) ;
#213 = ADVANCED_FACE ( 'NONE', ( #712, #400, #637, #193 ), #634, .T. ) ;
#214 = DIRECTION ( 'NONE',  ( -0.000000000000000000, -0.000000000000000000, -1.000000000000000000 ) ) ;
#215 = FACE_OUTER_BOUND ( 'NONE', #624, .T. ) ;
#216 = EDGE_LOOP ( 'NONE', ( #623, #777, #146, #589 ) ) ;
#217 = DIRECTION ( 'NONE',  ( -0.000000000000000000, -0.000000000000000000, -1.000000000000000000 ) ) ;
#218 = DIRECTION ( 'NONE',  ( -0.000000000000000000, -0.000000000000000000, -1.000000000000000000 ) ) ;
#219 = ORIENTED_EDGE ( 'NONE', *, *, #234, .F. ) ;
#220 = DIRECTION ( 'NONE',  ( -1.000000000000000000, 0.000000000000000000, 0.000000000000000000 ) ) ;
#221 = FACE_OUTER_BOUND ( 'NONE', #475, .T. ) ;
#222 = VECTOR ( 'NONE', #572, 1000.000000000000000 ) ;
#223 = EDGE_CURVE ( 'NONE', #401, #337, #760, .T. ) ;
#224 = ORIENTED_EDGE ( 'NONE', *, *, #696, .T. ) ;
#225 = CIRCLE ( 'NONE', #59, 20.21999999999999886 ) ;
#226 = DIRECTION ( 'NONE',  ( -0.000000000000000000, -0.000000000000000000, -1.000000000000000000 ) ) ;
#227 = CYLINDRICAL_SURFACE ( 'NONE', #356, 1.631949998666401891 ) ;
#228 = ORIENTED_EDGE ( 'NONE', *, *, #153, .F. ) ;
#229 = EDGE_CURVE ( 'NONE', #685, #360, #130, .T. ) ;
#230 = DIRECTION ( 'NONE',  ( -0.000000000000000000, -0.000000000000000000, -1.000000000000000000 ) ) ;
#231 = DIRECTION ( 'NONE',  ( -1.000000000000000000, 9.762817048420158359E-17, 0.000000000000000000 ) ) ;
#232 = AXIS2_PLACEMENT_3D ( 'NONE', #257, #581, #328 ) ;
#233 = EDGE_LOOP ( 'NONE', ( #228, #376, #499, #282 ) ) ;
#234 = EDGE_CURVE ( 'NONE', #598, #604, #313, .T. ) ;
#235 = FACE_OUTER_BOUND ( 'NONE', #318, .T. ) ;
#236 = CARTESIAN_POINT ( 'NONE',  ( -17.76867749721402490, 9.649999999999998579, 1.600000000000000089 ) ) ;
#237 = EDGE_LOOP ( 'NONE', ( #43, #351, #14, #795 ) ) ;
#238 = VECTOR ( 'NONE', #214, 1000.000000000000000 ) ;
#239 = ADVANCED_FACE ( 'NONE', ( #592 ), #780, .T. ) ;
#240 = AXIS2_PLACEMENT_3D ( 'NONE', #629, #327, #576 ) ;
#241 = DIRECTION ( 'NONE',  ( 1.000000000000000000, 0.000000000000000000, 0.000000000000000000 ) ) ;
#242 = AXIS2_PLACEMENT_3D ( 'NONE', #801, #425, #609 ) ;
#243 = DIRECTION ( 'NONE',  ( -0.000000000000000000, -0.000000000000000000, -1.000000000000000000 ) ) ;
#244 = VERTEX_POINT ( 'NONE', #292 ) ;
#245 = SURFACE_STYLE_USAGE ( .BOTH. , #122 ) ;
#246 = DIRECTION ( 'NONE',  ( 1.000000000000000000, 0.000000000000000000, 0.000000000000000000 ) ) ;
#247 = CARTESIAN_POINT ( 'NONE',  ( 13.45775241264305322, -9.650000000000002132, 3.000000000000000000 ) ) ;
#248 = ORIENTED_EDGE ( 'NONE', *, *, #778, .F. ) ;
#249 = VECTOR ( 'NONE', #437, 1000.000000000000000 ) ;
#250 = CYLINDRICAL_SURFACE ( 'NONE', #196, 16.55999999999999872 ) ;
#251 = FACE_OUTER_BOUND ( 'NONE', #178, .T. ) ;
#252 = ORIENTED_EDGE ( 'NONE', *, *, #806, .T. ) ;
#253 = EDGE_CURVE ( 'NONE', #337, #319, #106, .T. ) ;
#254 = CARTESIAN_POINT ( 'NONE',  ( -16.55999999999999162, -1.449274994432596664, 2.551043140385320207 ) ) ;
#255 = CARTESIAN_POINT ( 'NONE',  ( -9.978050001333595986, 1.998562342235335737E-16, 3.000000000000000000 ) ) ;
#256 = VERTEX_POINT ( 'NONE', #719 ) ;
#257 = CARTESIAN_POINT ( 'NONE',  ( 11.61000000000000121, 2.843629867620153816E-15, 3.000000000000000000 ) ) ;
#258 = EDGE_LOOP ( 'NONE', ( #167, #420, #552, #444 ) ) ;
#259 = PRESENTATION_LAYER_ASSIGNMENT (  '', '', ( #191 ) ) ;
#260 = EDGE_CURVE ( 'NONE', #360, #685, #419, .T. ) ;
#261 = CARTESIAN_POINT ( 'NONE',  ( -2.329371405922696425, 8.693332436601624025, 1.600000000000000089 ) ) ;
#262 = CARTESIAN_POINT ( 'NONE',  ( 20.34293131606264637, 2.203227583830050573, 2.512024768138502839 ) ) ;
#263 = ORIENTED_EDGE ( 'NONE', *, *, #148, .T. ) ;
#264 = AXIS2_PLACEMENT_3D ( 'NONE', #335, #443, #332 ) ;
#265 = CARTESIAN_POINT ( 'NONE',  ( -16.55999999999999872, 0.000000000000000000, 3.000000000000000000 ) ) ;
#266 = ADVANCED_FACE ( 'NONE', ( #221 ), #466, .T. ) ;
#267 = AXIS2_PLACEMENT_3D ( 'NONE', #653, #535, #220 ) ;
#268 = LINE ( 'NONE', #646, #118 ) ;
#269 = CIRCLE ( 'NONE', #554, 20.21999999999999886 ) ;
#270 = ORIENTED_EDGE ( 'NONE', *, *, #457, .F. ) ;
#271 = SHAPE_DEFINITION_REPRESENTATION ( #670, #539 ) ;
#272 = DIRECTION ( 'NONE',  ( -0.000000000000000000, 0.000000000000000000, 1.000000000000000000 ) ) ;
#273 = CYLINDRICAL_SURFACE ( 'NONE', #232, 1.631949998666401891 ) ;
#274 = EDGE_LOOP ( 'NONE', ( #190, #116, #99, #542 ) ) ;
#275 = CIRCLE ( 'NONE', #205, 20.21999999999999886 ) ;
#276 = CARTESIAN_POINT ( 'NONE',  ( -9.421118451725454770E-16, 9.650000000000000355, 3.000000000000000000 ) ) ;
#277 = FACE_OUTER_BOUND ( 'NONE', #468, .T. ) ;
#278 = VERTEX_POINT ( 'NONE', #544 ) ;
#279 = ADVANCED_FACE ( 'NONE', ( #726 ), #403, .T. ) ;
#280 = LINE ( 'NONE', #528, #238 ) ;
#281 = DIRECTION ( 'NONE',  ( -0.000000000000000000, 0.000000000000000000, 1.000000000000000000 ) ) ;
#282 = ORIENTED_EDGE ( 'NONE', *, *, #758, .F. ) ;
#283 = DIRECTION ( 'NONE',  ( 1.000000000000000000, 0.000000000000000000, 0.000000000000000000 ) ) ;
#284 = CARTESIAN_POINT ( 'NONE',  ( 0.000000000000000000, 0.000000000000000000, 1.600000000000000089 ) ) ;
#285 = VERTEX_POINT ( 'NONE', #784 ) ;
#286 = FACE_OUTER_BOUND ( 'NONE', #216, .T. ) ;
#287 = ADVANCED_FACE ( 'NONE', ( #215 ), #654, .F. ) ;
#288 = LINE ( 'NONE', #537, #4 ) ;
#289 = AXIS2_PLACEMENT_3D ( 'NONE', #669, #218, #169 ) ;
#290 = ORIENTED_EDGE ( 'NONE', *, *, #710, .F. ) ;
#291 = DIRECTION ( 'NONE',  ( -0.000000000000000000, -0.000000000000000000, -1.000000000000000000 ) ) ;
#292 = CARTESIAN_POINT ( 'NONE',  ( 17.76867749721402134, -9.650000000000002132, 1.600000000000000089 ) ) ;
#293 = AXIS2_PLACEMENT_3D ( 'NONE', #771, #776, #525 ) ;
#294 = ORIENTED_EDGE ( 'NONE', *, *, #636, .T. ) ;
#295 = CARTESIAN_POINT ( 'NONE',  ( -16.28999004236377601, 3.446039079943899353, 1.826367895722371237 ) ) ;
#296 = DIRECTION ( 'NONE',  ( -0.000000000000000000, 0.000000000000000000, 1.000000000000000000 ) ) ;
#297 = ORIENTED_EDGE ( 'NONE', *, *, #778, .T. ) ;
#298 = EDGE_CURVE ( 'NONE', #278, #34, #639, .T. ) ;
#299 =( NAMED_UNIT ( * ) PLANE_ANGLE_UNIT ( ) SI_UNIT ( $, .RADIAN. ) );
#300 = CARTESIAN_POINT ( 'NONE',  ( -16.37083165349697467, -2.886151240380355087, 2.774557223088315094 ) ) ;
#301 = EDGE_LOOP ( 'NONE', ( #561, #263, #503, #460 ) ) ;
#302 = EDGE_CURVE ( 'NONE', #285, #706, #480, .T. ) ;
#303 = CARTESIAN_POINT ( 'NONE',  ( 9.978050001333597763, 2.843629867620153816E-15, 3.000000000000000000 ) ) ;
#304 = CARTESIAN_POINT ( 'NONE',  ( 2.244897367846220041E-16, -8.378071034579708211E-16, 3.000000000000000000 ) ) ;
#305 = APPLICATION_CONTEXT ( 'automotive_design' ) ;
#306 = CONICAL_SURFACE ( 'NONE', #514, 3.131949998666408330, 0.6435011087932833718 ) ;
#307 = CARTESIAN_POINT ( 'NONE',  ( -17.76867749721402490, 9.649999999999998579, 1.600000000000000089 ) ) ;
#308 = ORIENTED_EDGE ( 'NONE', *, *, #90, .F. ) ;
#309 = ORIENTED_EDGE ( 'NONE', *, *, #138, .F. ) ;
#310 = DIRECTION ( 'NONE',  ( 1.000000000000000000, 0.000000000000000000, 0.000000000000000000 ) ) ;
#311 = EDGE_CURVE ( 'NONE', #753, #337, #206, .T. ) ;
#312 = ORIENTED_EDGE ( 'NONE', *, *, #40, .F. ) ;
#313 = CIRCLE ( 'NONE', #773, 1.631949998666401891 ) ;
#314 = ORIENTED_EDGE ( 'NONE', *, *, #26, .T. ) ;
#315 = AXIS2_PLACEMENT_3D ( 'NONE', #786, #230, #349 ) ;
#316 = CARTESIAN_POINT ( 'NONE',  ( 0.000000000000000000, 0.000000000000000000, 3.000000000000000000 ) ) ;
#317 = DIRECTION ( 'NONE',  ( -0.000000000000000000, -0.000000000000000000, -1.000000000000000000 ) ) ;
#318 = EDGE_LOOP ( 'NONE', ( #248, #791, #333 ) ) ;
#319 = VERTEX_POINT ( 'NONE', #541 ) ;
#320 = LINE ( 'NONE', #13, #166 ) ;
#321 = EDGE_LOOP ( 'NONE', ( #693, #563, #438, #665, #82 ) ) ;
#322 = EDGE_CURVE ( 'NONE', #604, #473, #732, .T. ) ;
#323 = CARTESIAN_POINT ( 'NONE',  ( -20.21999999999999531, 1.346802695182008902, 1.983563818063239337 ) ) ;
#324 = CARTESIAN_POINT ( 'NONE',  ( 9.978050001333597763, 2.843629867620153816E-15, 3.000000000000000000 ) ) ;
#325 = ORIENTED_EDGE ( 'NONE', *, *, #84, .F. ) ;
#326 = EDGE_CURVE ( 'NONE', #753, #737, #790, .T. ) ;
#327 = DIRECTION ( 'NONE',  ( -0.000000000000000000, -0.000000000000000000, -1.000000000000000000 ) ) ;
#328 = DIRECTION ( 'NONE',  ( -1.000000000000000000, 0.000000000000000000, 0.000000000000000000 ) ) ;
#329 = ORIENTED_EDGE ( 'NONE', *, *, #79, .F. ) ;
#330 = AXIS2_PLACEMENT_3D ( 'NONE', #203, #397, #459 ) ;
#331 = PRESENTATION_STYLE_ASSIGNMENT (( #80 ) ) ;
#332 = DIRECTION ( 'NONE',  ( -1.000000000000000000, 0.000000000000000000, 0.000000000000000000 ) ) ;
#333 = ORIENTED_EDGE ( 'NONE', *, *, #457, .T. ) ;
#334 =( NAMED_UNIT ( * ) SI_UNIT ( $, .STERADIAN. ) SOLID_ANGLE_UNIT ( ) );
#335 = CARTESIAN_POINT ( 'NONE',  ( -11.60999999999999766, 0.000000000000000000, 0.000000000000000000 ) ) ;
#336 = EDGE_CURVE ( 'NONE', #769, #256, #390, .T. ) ;
#337 = VERTEX_POINT ( 'NONE', #658 ) ;
#338 = DIRECTION ( 'NONE',  ( -0.000000000000000000, 0.000000000000000000, 1.000000000000000000 ) ) ;
#339 = DIRECTION ( 'NONE',  ( 1.000000000000000000, 0.000000000000000000, 0.000000000000000000 ) ) ;
#340 = ADVANCED_FACE ( 'NONE', ( #597 ), #227, .F. ) ;
#341 = VERTEX_POINT ( 'NONE', #418 ) ;
#342 = DIRECTION ( 'NONE',  ( -0.000000000000000000, -0.000000000000000000, -1.000000000000000000 ) ) ;
#343 = DIRECTION ( 'NONE',  ( 1.000000000000000000, 0.000000000000000000, 0.000000000000000000 ) ) ;
#344 = AXIS2_PLACEMENT_3D ( 'NONE', #316, #171, #555 ) ;
#345 = EDGE_LOOP ( 'NONE', ( #224, #39, #142, #387 ) ) ;
#346 = AXIS2_PLACEMENT_3D ( 'NONE', #24, #272, #384 ) ;
#347 = EDGE_CURVE ( 'NONE', #409, #134, #288, .T. ) ;
#348 = CONICAL_SURFACE ( 'NONE', #632, 3.131949998666408330, 0.6435011087932833718 ) ;
#349 = DIRECTION ( 'NONE',  ( 1.000000000000000000, 0.000000000000000000, 0.000000000000000000 ) ) ;
#350 = DIRECTION ( 'NONE',  ( 9.762817048420158359E-17, 1.000000000000000000, -0.000000000000000000 ) ) ;
#351 = ORIENTED_EDGE ( 'NONE', *, *, #57, .F. ) ;
#352 = EDGE_CURVE ( 'NONE', #522, #134, #614, .T. ) ;
#353 = AXIS2_PLACEMENT_3D ( 'NONE', #678, #69, #111 ) ;
#354 = LINE ( 'NONE', #87, #22 ) ;
#355 = DIRECTION ( 'NONE',  ( -0.000000000000000000, 0.000000000000000000, 1.000000000000000000 ) ) ;
#356 = AXIS2_PLACEMENT_3D ( 'NONE', #529, #474, #42 ) ;
#357 = ORIENTED_EDGE ( 'NONE', *, *, #223, .F. ) ;
#358 = DIRECTION ( 'NONE',  ( -0.000000000000000000, -0.000000000000000000, -1.000000000000000000 ) ) ;
#359 = DIRECTION ( 'NONE',  ( 1.000000000000000000, 0.000000000000000000, 0.000000000000000000 ) ) ;
#360 = VERTEX_POINT ( 'NONE', #3 ) ;
#361 = LINE ( 'NONE', #612, #800 ) ;
#362 = CARTESIAN_POINT ( 'NONE',  ( 14.74194999866640821, 3.227183121715790950E-15, 0.000000000000000000 ) ) ;
#363 = ADVANCED_FACE ( 'NONE', ( #565 ), #742, .F. ) ;
#364 = VERTEX_POINT ( 'NONE', #691 ) ;
#365 =( NAMED_UNIT ( * ) SI_UNIT ( $, .STERADIAN. ) SOLID_ANGLE_UNIT ( ) );
#366 = CARTESIAN_POINT ( 'NONE',  ( -11.60999999999999766, 0.000000000000000000, 3.000000000000000000 ) ) ;
#367 = CARTESIAN_POINT ( 'NONE',  ( 11.61000000000000121, 2.843629867620153816E-15, 2.000000000000013767 ) ) ;
#368 = PRESENTATION_STYLE_ASSIGNMENT (( #245 ) ) ;
#369 = DIRECTION ( 'NONE',  ( -1.000000000000000000, 0.000000000000000000, 0.000000000000000000 ) ) ;
#370 = DIRECTION ( 'NONE',  ( -0.000000000000000000, 0.000000000000000000, 1.000000000000000000 ) ) ;
#371 = CIRCLE ( 'NONE', #408, 20.21999999999999886 ) ;
#372 = EDGE_CURVE ( 'NONE', #401, #740, #37, .T. ) ;
#373 = DIRECTION ( 'NONE',  ( -0.000000000000000000, 0.000000000000000000, 1.000000000000000000 ) ) ;
#374 = AXIS2_PLACEMENT_3D ( 'NONE', #261, #762, #519 ) ;
#375 = LINE ( 'NONE', #307, #699 ) ;
#376 = ORIENTED_EDGE ( 'NONE', *, *, #127, .F. ) ;
#377 =( NAMED_UNIT ( * ) SI_UNIT ( $, .STERADIAN. ) SOLID_ANGLE_UNIT ( ) );
#378 = CARTESIAN_POINT ( 'NONE',  ( -16.55999999999999872, 0.000000000000000000, 2.333282139815938905 ) ) ;
#379 = ORIENTED_EDGE ( 'NONE', *, *, #79, .T. ) ;
#380 = AXIS2_PLACEMENT_3D ( 'NONE', #65, #428, #689 ) ;
#381 = CARTESIAN_POINT ( 'NONE',  ( -20.08588523942407633, 2.686911172412568938, 1.787605206120197687 ) ) ;
#382 = ORIENTED_EDGE ( 'NONE', *, *, #476, .T. ) ;
#383 = ADVANCED_FACE ( 'NONE', ( #110 ), #424, .F. ) ;
#384 = DIRECTION ( 'NONE',  ( 1.000000000000000000, 0.000000000000000000, 0.000000000000000000 ) ) ;
#385 = FACE_BOUND ( 'NONE', #716, .T. ) ;
#386 = AXIS2_PLACEMENT_3D ( 'NONE', #366, #431, #369 ) ;
#387 = ORIENTED_EDGE ( 'NONE', *, *, #347, .F. ) ;
#388 = DIRECTION ( 'NONE',  ( -0.9659258262890680902, -0.2588190451025214611, 0.000000000000000000 ) ) ;
#389 = ORIENTED_EDGE ( 'NONE', *, *, #575, .T. ) ;
#390 = CIRCLE ( 'NONE', #600, 16.55999999999999872 ) ;
#391 = DIRECTION ( 'NONE',  ( -0.000000000000000000, 0.000000000000000000, 1.000000000000000000 ) ) ;
#392 = CARTESIAN_POINT ( 'NONE',  ( -14.74194999866640465, 0.000000000000000000, 0.000000000000000000 ) ) ;
#393 = ORIENTED_EDGE ( 'NONE', *, *, #640, .T. ) ;
#394 = UNCERTAINTY_MEASURE_WITH_UNIT (LENGTH_MEASURE( 1.000000000000000082E-05 ), #676, 'distance_accuracy_value', 'NONE');
#395 = EDGE_CURVE ( 'NONE', #134, #2, #595, .T. ) ;
#396 = DIRECTION ( 'NONE',  ( 1.000000000000000000, 0.000000000000000000, 0.000000000000000000 ) ) ;
#397 = DIRECTION ( 'NONE',  ( -9.762817048420158359E-17, 1.000000000000000000, 0.000000000000000000 ) ) ;
#398 = ORIENTED_EDGE ( 'NONE', *, *, #143, .F. ) ;
#399 = DIRECTION ( 'NONE',  ( -1.000000000000000000, 0.000000000000000000, 0.000000000000000000 ) ) ;
#400 = FACE_BOUND ( 'NONE', #507, .T. ) ;
#401 = VERTEX_POINT ( 'NONE', #303 ) ;
#402 = DIRECTION ( 'NONE',  ( -0.000000000000000000, 0.000000000000000000, 1.000000000000000000 ) ) ;
#403 = PLANE ( 'NONE',  #523 ) ;
#404 = EDGE_CURVE ( 'NONE', #175, #364, #556, .T. ) ;
#405 = ORIENTED_EDGE ( 'NONE', *, *, #127, .T. ) ;
#406 = CARTESIAN_POINT ( 'NONE',  ( -11.60999999999999766, 0.000000000000000000, 0.000000000000000000 ) ) ;
#407 = CARTESIAN_POINT ( 'NONE',  ( 0.000000000000000000, 0.000000000000000000, 1.600000000000000089 ) ) ;
#408 = AXIS2_PLACEMENT_3D ( 'NONE', #663, #402, #155 ) ;
#409 = VERTEX_POINT ( 'NONE', #236 ) ;
#410 = EDGE_CURVE ( 'NONE', #409, #278, #375, .T. ) ;
#411 = AXIS2_PLACEMENT_3D ( 'NONE', #694, #144, #775 ) ;
#412 = DIRECTION ( 'NONE',  ( 0.9659258262890680902, 0.2588190451025214611, 0.000000000000000000 ) ) ;
#413 =( BOUNDED_CURVE ( )  B_SPLINE_CURVE ( 3, ( #764, #262, #701, #695 ),
 .UNSPECIFIED., .F., .F. ) 
 B_SPLINE_CURVE_WITH_KNOTS ( ( 4, 4 ),
 ( 4.712388980384689674, 5.173679217785007722 ),
 .UNSPECIFIED. ) 
 CURVE ( )  GEOMETRIC_REPRESENTATION_ITEM ( )  RATIONAL_B_SPLINE_CURVE ( ( 1.000000000000000000, 0.9823460798950676143, 0.9823460798950676143, 1.000000000000000000 ) ) 
 REPRESENTATION_ITEM ( '' )  );
#414 = DIRECTION ( 'NONE',  ( 1.000000000000000000, 9.762817048420159591E-17, 0.000000000000000000 ) ) ;
#415 = VERTEX_POINT ( 'NONE', #487 ) ;
#416 = CONICAL_SURFACE ( 'NONE', #264, 3.131949998666408330, 0.6435011087932833718 ) ;
#417 = CARTESIAN_POINT ( 'NONE',  ( -11.60999999999999766, 0.000000000000000000, 3.000000000000000000 ) ) ;
#418 = CARTESIAN_POINT ( 'NONE',  ( 17.76867749721402134, 9.650000000000002132, 3.000000000000000000 ) ) ;
#419 = CIRCLE ( 'NONE', #707, 7.774999999999998579 ) ;
#420 = ORIENTED_EDGE ( 'NONE', *, *, #143, .T. ) ;
#421 = CARTESIAN_POINT ( 'NONE',  ( -13.24194999866639932, 0.000000000000000000, 3.000000000000000000 ) ) ;
#422 = VERTEX_POINT ( 'NONE', #688 ) ;
#423 = CARTESIAN_POINT ( 'NONE',  ( 0.000000000000000000, 0.000000000000000000, 3.000000000000000000 ) ) ;
#424 = CONICAL_SURFACE ( 'NONE', #486, 3.131949998666408330, 0.6435011087932833718 ) ;
#425 = DIRECTION ( 'NONE',  ( -0.000000000000000000, 0.000000000000000000, 1.000000000000000000 ) ) ;
#426 = ORIENTED_EDGE ( 'NONE', *, *, #347, .T. ) ;
#427 = CARTESIAN_POINT ( 'NONE',  ( 0.000000000000000000, 0.000000000000000000, 1.600000000000000089 ) ) ;
#428 = DIRECTION ( 'NONE',  ( -0.000000000000000000, 0.000000000000000000, 1.000000000000000000 ) ) ;
#429 = ADVANCED_FACE ( 'NONE', ( #626 ), #348, .F. ) ;
#430 = EDGE_LOOP ( 'NONE', ( #393, #655, #456, #426, #162, #635 ) ) ;
#431 = DIRECTION ( 'NONE',  ( -0.000000000000000000, -0.000000000000000000, -1.000000000000000000 ) ) ;
#432 = DIRECTION ( 'NONE',  ( -0.000000000000000000, -0.000000000000000000, -1.000000000000000000 ) ) ;
#433 = CIRCLE ( 'NONE', #683, 1.631949998666401891 ) ;
#434 = DIRECTION ( 'NONE',  ( 1.000000000000000000, 0.000000000000000000, 0.000000000000000000 ) ) ;
#435 = LINE ( 'NONE', #255, #770 ) ;
#436 = EDGE_CURVE ( 'NONE', #526, #415, #52, .T. ) ;
#437 = DIRECTION ( 'NONE',  ( -0.000000000000000000, -0.000000000000000000, -1.000000000000000000 ) ) ;
#438 = ORIENTED_EDGE ( 'NONE', *, *, #696, .F. ) ;
#439 = VERTEX_POINT ( 'NONE', #679 ) ;
#440 =( GEOMETRIC_REPRESENTATION_CONTEXT ( 3 ) GLOBAL_UNCERTAINTY_ASSIGNED_CONTEXT ( ( #518 ) ) GLOBAL_UNIT_ASSIGNED_CONTEXT ( ( #741, #299, #377 ) ) REPRESENTATION_CONTEXT ( 'NONE', 'WORKASPACE' ) );
#441 = CARTESIAN_POINT ( 'NONE',  ( 11.61000000000000121, 2.843629867620153816E-15, 0.000000000000000000 ) ) ;
#442 = ADVANCED_FACE ( 'NONE', ( #501 ), #114, .T. ) ;
#443 = DIRECTION ( 'NONE',  ( -0.000000000000000000, -0.000000000000000000, -1.000000000000000000 ) ) ;
#444 = ORIENTED_EDGE ( 'NONE', *, *, #15, .F. ) ;
#445 = CARTESIAN_POINT ( 'NONE',  ( -19.81898894019258606, 4.007003542364788728, 1.600000000000000089 ) ) ;
#446 = CARTESIAN_POINT ( 'NONE',  ( 0.000000000000000000, 0.000000000000000000, 0.000000000000000000 ) ) ;
#447 = CIRCLE ( 'NONE', #97, 3.131949998666408330 ) ;
#448 = VERTEX_POINT ( 'NONE', #805 ) ;
#449 = CYLINDRICAL_SURFACE ( 'NONE', #240, 20.21999999999999886 ) ;
#450 = CARTESIAN_POINT ( 'NONE',  ( -11.60999999999999766, 0.000000000000000000, 2.000000000000013767 ) ) ;
#451 = VECTOR ( 'NONE', #432, 1000.000000000000000 ) ;
#452 = EDGE_LOOP ( 'NONE', ( #389, #510, #517, #681 ) ) ;
#453 = EDGE_CURVE ( 'NONE', #319, #737, #447, .T. ) ;
#454 = APPLICATION_PROTOCOL_DEFINITION ( 'draft international standard', 'automotive_design', 1998, #305 ) ;
#455 = FACE_BOUND ( 'NONE', #702, .T. ) ;
#456 = ORIENTED_EDGE ( 'NONE', *, *, #410, .F. ) ;
#457 = EDGE_CURVE ( 'NONE', #415, #422, #672, .T. ) ;
#458 = CARTESIAN_POINT ( 'NONE',  ( -9.978050001333595986, 1.998562342235335244E-16, 3.000000000000000000 ) ) ;
#459 = DIRECTION ( 'NONE',  ( -1.000000000000000000, -9.762817048420158359E-17, 0.000000000000000000 ) ) ;
#460 = ORIENTED_EDGE ( 'NONE', *, *, #57, .T. ) ;
#461 = CYLINDRICAL_SURFACE ( 'NONE', #512, 7.774999999999998579 ) ;
#462 = ADVANCED_FACE ( 'NONE', ( #546 ), #557, .F. ) ;
#463 = DIRECTION ( 'NONE',  ( 1.000000000000000000, 0.000000000000000000, 0.000000000000000000 ) ) ;
#464 = ORIENTED_EDGE ( 'NONE', *, *, #105, .F. ) ;
#465 = CARTESIAN_POINT ( 'NONE',  ( 2.244897367846220041E-16, -8.378071034579708211E-16, 3.000000000000063505 ) ) ;
#466 = CYLINDRICAL_SURFACE ( 'NONE', #168, 20.21999999999999886 ) ;
#467 = PRODUCT_RELATED_PRODUCT_CATEGORY ( 'part', '', ( #730 ) ) ;
#468 = EDGE_LOOP ( 'NONE', ( #799, #10, #187, #586 ) ) ;
#469 = VECTOR ( 'NONE', #588, 1000.000000000000114 ) ;
#470 = LINE ( 'NONE', #789, #656 ) ;
#471 = DIRECTION ( 'NONE',  ( 1.000000000000000000, 0.000000000000000000, 0.000000000000000000 ) ) ;
#472 = AXIS2_PLACEMENT_3D ( 'NONE', #596, #226, #399 ) ;
#473 = VERTEX_POINT ( 'NONE', #746 ) ;
#474 = DIRECTION ( 'NONE',  ( -0.000000000000000000, -0.000000000000000000, -1.000000000000000000 ) ) ;
#475 = EDGE_LOOP ( 'NONE', ( #594, #200, #631, #150, #157 ) ) ;
#476 = EDGE_CURVE ( 'NONE', #94, #121, #531, .T. ) ;
#477 = VECTOR ( 'NONE', #680, 1000.000000000000227 ) ;
#478 = CARTESIAN_POINT ( 'NONE',  ( 15.75656036088866152, -5.095527999498388638, 1.600000000000000089 ) ) ;
#479 = AXIS2_PLACEMENT_3D ( 'NONE', #176, #745, #690 ) ;
#480 = LINE ( 'NONE', #93, #140 ) ;
#481 = ORIENTED_EDGE ( 'NONE', *, *, #148, .F. ) ;
#482 = DIRECTION ( 'NONE',  ( -0.000000000000000000, 0.000000000000000000, 1.000000000000000000 ) ) ;
#483 = CARTESIAN_POINT ( 'NONE',  ( -13.45775241264305677, 9.649999999999998579, 3.000000000000000000 ) ) ;
#484 = ORIENTED_EDGE ( 'NONE', *, *, #749, .T. ) ;
#485 = STYLED_ITEM ( 'NONE', ( #331 ), #602 ) ;
#486 = AXIS2_PLACEMENT_3D ( 'NONE', #684, #550, #177 ) ;
#487 = CARTESIAN_POINT ( 'NONE',  ( -16.55999999999999872, 0.000000000000000000, 2.333282139815938905 ) ) ;
#488 = ADVANCED_FACE ( 'NONE', ( #251 ), #752, .F. ) ;
#489 = ORIENTED_EDGE ( 'NONE', *, *, #721, .F. ) ;
#490 = ORIENTED_EDGE ( 'NONE', *, *, #26, .F. ) ;
#491 = LINE ( 'NONE', #184, #95 ) ;
#492 = DIRECTION ( 'NONE',  ( -0.000000000000000000, -0.000000000000000000, -1.000000000000000000 ) ) ;
#493 = ADVANCED_FACE ( 'NONE', ( #83 ), #449, .T. ) ;
#494 = DIRECTION ( 'NONE',  ( -0.000000000000000000, -0.000000000000000000, -1.000000000000000000 ) ) ;
#495 = AXIS2_PLACEMENT_3D ( 'NONE', #664, #108, #471 ) ;
#496 = VERTEX_POINT ( 'NONE', #73 ) ;
#497 = DIRECTION ( 'NONE',  ( 1.000000000000000000, 0.000000000000000000, 0.000000000000000000 ) ) ;
#498 = CARTESIAN_POINT ( 'NONE',  ( -15.99573168334696760, -4.286043386897756768, 3.000000000000000000 ) ) ;
#499 = ORIENTED_EDGE ( 'NONE', *, *, #188, .T. ) ;
#500 = ORIENTED_EDGE ( 'NONE', *, *, #806, .F. ) ;
#501 = FACE_OUTER_BOUND ( 'NONE', #345, .T. ) ;
#502 = CARTESIAN_POINT ( 'NONE',  ( -7.774999999999998579, 0.000000000000000000, 3.000000000000000000 ) ) ;
#503 = ORIENTED_EDGE ( 'NONE', *, *, #223, .T. ) ;
#504 = EDGE_CURVE ( 'NONE', #496, #34, #708, .T. ) ;
#505 =( NAMED_UNIT ( * ) PLANE_ANGLE_UNIT ( ) SI_UNIT ( $, .RADIAN. ) );
#506 = CARTESIAN_POINT ( 'NONE',  ( -7.774999999999998579, 0.000000000000000000, 3.000000000000000000 ) ) ;
#507 = EDGE_LOOP ( 'NONE', ( #204, #481 ) ) ;
#508 = LINE ( 'NONE', #276, #593 ) ;
#509 = FACE_OUTER_BOUND ( 'NONE', #301, .T. ) ;
#510 = ORIENTED_EDGE ( 'NONE', *, *, #198, .T. ) ;
#511 = APPLICATION_PROTOCOL_DEFINITION ( 'draft international standard', 'automotive_design', 1998, #797 ) ;
#512 = AXIS2_PLACEMENT_3D ( 'NONE', #667, #217, #591 ) ;
#513 = CARTESIAN_POINT ( 'NONE',  ( -20.21999999999999886, 0.000000000000000000, 2.185927830137563976 ) ) ;
#514 = AXIS2_PLACEMENT_3D ( 'NONE', #441, #342, #779 ) ;
#515 = CARTESIAN_POINT ( 'NONE',  ( -18.32510308926966758, 4.407289049703867256, 1.600000000000000089 ) ) ;
#516 = EDGE_CURVE ( 'NONE', #737, #319, #159, .T. ) ;
#517 = ORIENTED_EDGE ( 'NONE', *, *, #336, .F. ) ;
#518 = UNCERTAINTY_MEASURE_WITH_UNIT (LENGTH_MEASURE( 1.000000000000000082E-05 ), #741, 'distance_accuracy_value', 'NONE');
#519 = DIRECTION ( 'NONE',  ( -0.9659258262890680902, -0.2588190451025214611, 0.000000000000000000 ) ) ;
#520 = DIRECTION ( 'NONE',  ( 1.000000000000000000, 0.000000000000000000, 0.000000000000000000 ) ) ;
#521 = CLOSED_SHELL ( 'NONE', ( #117, #616, #363, #340, #674, #266, #796, #630, #493, #173, #650, #239, #488, #112, #287, #462, #213, #163, #279, #442, #429, #383, #601, #686 ) ) ;
#522 = VERTEX_POINT ( 'NONE', #12 ) ;
#523 = AXIS2_PLACEMENT_3D ( 'NONE', #284, #355, #533 ) ;
#524 = DIRECTION ( 'NONE',  ( -0.000000000000000000, -0.000000000000000000, -1.000000000000000000 ) ) ;
#525 = DIRECTION ( 'NONE',  ( 1.000000000000000000, 0.000000000000000000, 0.000000000000000000 ) ) ;
#526 = VERTEX_POINT ( 'NONE', #265 ) ;
#527 = EDGE_CURVE ( 'NONE', #522, #341, #508, .T. ) ;
#528 = CARTESIAN_POINT ( 'NONE',  ( 13.24194999866640288, 3.043486101843687439E-15, 3.000000000000000000 ) ) ;
#529 = CARTESIAN_POINT ( 'NONE',  ( 11.61000000000000121, 2.843629867620153816E-15, 3.000000000000000000 ) ) ;
#530 = ORIENTED_EDGE ( 'NONE', *, *, #774, .T. ) ;
#531 = CIRCLE ( 'NONE', #661, 3.131949998666408330 ) ;
#532 = EDGE_CURVE ( 'NONE', #496, #671, #54, .T. ) ;
#533 = DIRECTION ( 'NONE',  ( 1.000000000000000000, 0.000000000000000000, 0.000000000000000000 ) ) ;
#534 = ORIENTED_EDGE ( 'NONE', *, *, #352, .T. ) ;
#535 = DIRECTION ( 'NONE',  ( -0.000000000000000000, -0.000000000000000000, -1.000000000000000000 ) ) ;
#536 = AXIS2_PLACEMENT_3D ( 'NONE', #794, #350, #231 ) ;
#537 = CARTESIAN_POINT ( 'NONE',  ( -9.421118451725454770E-16, 9.650000000000000355, 1.600000000000000089 ) ) ;
#538 = ORIENTED_EDGE ( 'NONE', *, *, #50, .T. ) ;
#539 = ADVANCED_BREP_SHAPE_REPRESENTATION ( 'middel part', ( #602, #479 ), #652 ) ;
#540 = PLANE ( 'NONE',  #590 ) ;
#541 = CARTESIAN_POINT ( 'NONE',  ( 8.478050001333592434, 2.843629867620153816E-15, 0.000000000000000000 ) ) ;
#542 = ORIENTED_EDGE ( 'NONE', *, *, #253, .F. ) ;
#543 = CARTESIAN_POINT ( 'NONE',  ( -16.55999999999999517, 1.733597681358538978, 2.072800197377407727 ) ) ;
#544 = CARTESIAN_POINT ( 'NONE',  ( -17.76867749721402490, 9.649999999999998579, 0.000000000000000000 ) ) ;
#545 = ORIENTED_EDGE ( 'NONE', *, *, #763, .F. ) ;
#546 = FACE_OUTER_BOUND ( 'NONE', #754, .T. ) ;
#547 = ORIENTED_EDGE ( 'NONE', *, *, #372, .T. ) ;
#548 = EDGE_CURVE ( 'NONE', #757, #713, #36, .T. ) ;
#549 = SURFACE_STYLE_FILL_AREA ( #113 ) ;
#550 = DIRECTION ( 'NONE',  ( -0.000000000000000000, -0.000000000000000000, -1.000000000000000000 ) ) ;
#551 = AXIS2_PLACEMENT_3D ( 'NONE', #17, #45, #463 ) ;
#552 = ORIENTED_EDGE ( 'NONE', *, *, #229, .F. ) ;
#553 = VECTOR ( 'NONE', #564, 1000.000000000000000 ) ;
#554 = AXIS2_PLACEMENT_3D ( 'NONE', #641, #16, #396 ) ;
#555 = DIRECTION ( 'NONE',  ( 1.000000000000000000, 0.000000000000000000, 0.000000000000000000 ) ) ;
#556 = CIRCLE ( 'NONE', #242, 7.774999999999998579 ) ;
#557 = CYLINDRICAL_SURFACE ( 'NONE', #212, 1.631949998666401891 ) ;
#558 = CARTESIAN_POINT ( 'NONE',  ( 0.000000000000000000, 0.000000000000000000, 0.000000000000000000 ) ) ;
#559 = ORIENTED_EDGE ( 'NONE', *, *, #575, .F. ) ;
#560 = CARTESIAN_POINT ( 'NONE',  ( 11.61000000000000121, 2.843629867620153816E-15, 3.000000000000000000 ) ) ;
#561 = ORIENTED_EDGE ( 'NONE', *, *, #749, .F. ) ;
#562 = VECTOR ( 'NONE', #603, 1000.000000000000000 ) ;
#563 = ORIENTED_EDGE ( 'NONE', *, *, #532, .T. ) ;
#564 = DIRECTION ( 'NONE',  ( 1.000000000000000000, -9.762817048420159591E-17, 0.000000000000000000 ) ) ;
#565 = FACE_OUTER_BOUND ( 'NONE', #107, .T. ) ;
#566 = CARTESIAN_POINT ( 'NONE',  ( -9.978050001333595986, 1.998562342235335244E-16, 2.000000000000013767 ) ) ;
#567 = EDGE_CURVE ( 'NONE', #364, #175, #62, .T. ) ;
#568 = ORIENTED_EDGE ( 'NONE', *, *, #11, .T. ) ;
#569 =( LENGTH_UNIT ( ) NAMED_UNIT ( * ) SI_UNIT ( .MILLI., .METRE. ) );
#570 = ORIENTED_EDGE ( 'NONE', *, *, #729, .T. ) ;
#571 = CARTESIAN_POINT ( 'NONE',  ( 0.000000000000000000, 0.000000000000000000, 3.000000000000000000 ) ) ;
#572 = DIRECTION ( 'NONE',  ( -0.000000000000000000, -0.000000000000000000, -1.000000000000000000 ) ) ;
#573 = ORIENTED_EDGE ( 'NONE', *, *, #783, .F. ) ;
#574 = PRODUCT_CONTEXT ( 'NONE', #797, 'mechanical' ) ;
#575 = EDGE_CURVE ( 'NONE', #244, #439, #269, .T. ) ;
#576 = DIRECTION ( 'NONE',  ( -1.000000000000000000, 0.000000000000000000, 0.000000000000000000 ) ) ;
#577 = FACE_BOUND ( 'NONE', #31, .T. ) ;
#578 = AXIS2_PLACEMENT_3D ( 'NONE', #74, #649, #339 ) ;
#579 = ORIENTED_EDGE ( 'NONE', *, *, #50, .F. ) ;
#580 = CIRCLE ( 'NONE', #724, 1.631949998666401891 ) ;
#581 = DIRECTION ( 'NONE',  ( -0.000000000000000000, -0.000000000000000000, -1.000000000000000000 ) ) ;
#582 = ORIENTED_EDGE ( 'NONE', *, *, #302, .F. ) ;
#583 =( BOUNDED_CURVE ( )  B_SPLINE_CURVE ( 3, ( #48, #599, #44, #792 ),
 .UNSPECIFIED., .F., .F. ) 
 B_SPLINE_CURVE_WITH_KNOTS ( ( 4, 4 ),
 ( 4.712388980384689674, 4.974188368183839692 ),
 .UNSPECIFIED. ) 
 CURVE ( )  GEOMETRIC_REPRESENTATION_ITEM ( )  RATIONAL_B_SPLINE_CURVE ( ( 1.000000000000000000, 0.9942965742492069214, 0.9942965742492069214, 1.000000000000000000 ) ) 
 REPRESENTATION_ITEM ( '' )  );
#584 = LINE ( 'NONE', #81, #183 ) ;
#585 = AXIS2_PLACEMENT_3D ( 'NONE', #558, #370, #61 ) ;
#586 = ORIENTED_EDGE ( 'NONE', *, *, #188, .F. ) ;
#587 = CARTESIAN_POINT ( 'NONE',  ( 16.82811403408016204, 1.179550162637855948, 2.499721131605127322 ) ) ;
#588 = DIRECTION ( 'NONE',  ( -0.5999999999999990896, 0.000000000000000000, -0.8000000000000005995 ) ) ;
#589 = ORIENTED_EDGE ( 'NONE', *, *, #90, .T. ) ;
#590 = AXIS2_PLACEMENT_3D ( 'NONE', #465, #605, #412 ) ;
#591 = DIRECTION ( 'NONE',  ( -1.000000000000000000, 0.000000000000000000, 0.000000000000000000 ) ) ;
#592 = FACE_OUTER_BOUND ( 'NONE', #321, .T. ) ;
#593 = VECTOR ( 'NONE', #703, 1000.000000000000000 ) ;
#594 = ORIENTED_EDGE ( 'NONE', *, *, #721, .T. ) ;
#595 = CIRCLE ( 'NONE', #72, 16.55999999999999872 ) ;
#596 = CARTESIAN_POINT ( 'NONE',  ( 0.000000000000000000, 0.000000000000000000, 3.000000000000000000 ) ) ;
#597 = FACE_OUTER_BOUND ( 'NONE', #154, .T. ) ;
#598 = VERTEX_POINT ( 'NONE', #458 ) ;
#599 = CARTESIAN_POINT ( 'NONE',  ( -19.98902270734956232, -3.524032492783271575, 2.724731102104198666 ) ) ;
#600 = AXIS2_PLACEMENT_3D ( 'NONE', #407, #281, #161 ) ;
#601 = ADVANCED_FACE ( 'NONE', ( #19 ), #767, .T. ) ;
#602 = MANIFOLD_SOLID_BREP ( 'Chamfer3', #521 ) ;
#603 = DIRECTION ( 'NONE',  ( -0.000000000000000000, -0.000000000000000000, -1.000000000000000000 ) ) ;
#604 = VERTEX_POINT ( 'NONE', #28 ) ;
#605 = DIRECTION ( 'NONE',  ( -0.03978230059144273467, 0.1484695670492412745, -0.9881164689548813662 ) ) ;
#606 = CARTESIAN_POINT ( 'NONE',  ( -11.60999999999999766, 0.000000000000000000, 3.000000000000000000 ) ) ;
#607 = EDGE_LOOP ( 'NONE', ( #728, #170, #559, #538, #660, #51 ) ) ;
#608 = DIRECTION ( 'NONE',  ( 0.9659258262890680902, 0.2588190451025214611, 0.000000000000000000 ) ) ;
#609 = DIRECTION ( 'NONE',  ( 1.000000000000000000, 0.000000000000000000, 0.000000000000000000 ) ) ;
#610 = VERTEX_POINT ( 'NONE', #209 ) ;
#611 = EDGE_CURVE ( 'NONE', #278, #610, #202, .T. ) ;
#612 = CARTESIAN_POINT ( 'NONE',  ( -9.421118451725454770E-16, -9.650000000000000355, 3.000000000000000000 ) ) ;
#613 = COLOUR_RGB ( '',0.7960784313725489669, 0.8235294117647058432, 0.9372549019607843146 ) ;
#614 = LINE ( 'NONE', #483, #249 ) ;
#615 = DIRECTION ( 'NONE',  ( -0.000000000000000000, -0.000000000000000000, -1.000000000000000000 ) ) ;
#616 = ADVANCED_FACE ( 'NONE', ( #192 ), #306, .F. ) ;
#617 = CARTESIAN_POINT ( 'NONE',  ( -9.421118451725454770E-16, -9.650000000000000355, 1.600000000000000089 ) ) ;
#618 = CARTESIAN_POINT ( 'NONE',  ( 0.000000000000000000, 0.000000000000000000, 1.600000000000000089 ) ) ;
#619 = LINE ( 'NONE', #502, #451 ) ;
#620 = AXIS2_PLACEMENT_3D ( 'NONE', #406, #373, #497 ) ;
#621 = AXIS2_PLACEMENT_3D ( 'NONE', #571, #391, #131 ) ;
#622 = DIRECTION ( 'NONE',  ( -0.000000000000000000, 0.000000000000000000, 1.000000000000000000 ) ) ;
#623 = ORIENTED_EDGE ( 'NONE', *, *, #336, .T. ) ;
#624 = EDGE_LOOP ( 'NONE', ( #9, #579, #545, #308, #573, #570 ) ) ;
#625 = CIRCLE ( 'NONE', #666, 1.631949998666401891 ) ;
#626 = FACE_OUTER_BOUND ( 'NONE', #237, .T. ) ;
#627 = EDGE_CURVE ( 'NONE', #5, #473, #659, .T. ) ;
#628 = DIRECTION ( 'NONE',  ( -0.000000000000000000, 0.000000000000000000, 1.000000000000000000 ) ) ;
#629 = CARTESIAN_POINT ( 'NONE',  ( 0.000000000000000000, 0.000000000000000000, 3.000000000000000000 ) ) ;
#630 = ADVANCED_FACE ( 'NONE', ( #286 ), #164, .T. ) ;
#631 = ORIENTED_EDGE ( 'NONE', *, *, #84, .T. ) ;
#632 = AXIS2_PLACEMENT_3D ( 'NONE', #68, #739, #8 ) ;
#633 = DIRECTION ( 'NONE',  ( -0.000000000000000000, -0.000000000000000000, -1.000000000000000000 ) ) ;
#634 = PLANE ( 'NONE',  #578 ) ;
#635 = ORIENTED_EDGE ( 'NONE', *, *, #527, .T. ) ;
#636 = EDGE_CURVE ( 'NONE', #2, #415, #720, .T. ) ;
#637 = FACE_BOUND ( 'NONE', #211, .T. ) ;
#638 = ORIENTED_EDGE ( 'NONE', *, *, #532, .F. ) ;
#639 = CIRCLE ( 'NONE', #495, 20.21999999999999886 ) ;
#640 = EDGE_CURVE ( 'NONE', #341, #610, #470, .T. ) ;
#641 = CARTESIAN_POINT ( 'NONE',  ( 0.000000000000000000, 0.000000000000000000, 1.600000000000000089 ) ) ;
#642 = CARTESIAN_POINT ( 'NONE',  ( -17.76867749721402490, -9.649999999999998579, 3.000000000000000000 ) ) ;
#643 = CIRCLE ( 'NONE', #293, 1.631949998666401891 ) ;
#644 = ORIENTED_EDGE ( 'NONE', *, *, #234, .T. ) ;
#645 = SURFACE_SIDE_STYLE ('',( #195 ) ) ;
#646 = CARTESIAN_POINT ( 'NONE',  ( 2.329371405922695537, -8.693332436601620472, 1.600000000000000089 ) ) ;
#647 = ORIENTED_EDGE ( 'NONE', *, *, #662, .T. ) ;
#648 = CARTESIAN_POINT ( 'NONE',  ( 15.99573168334696760, 4.286043386897754992, 3.000000000000000000 ) ) ;
#649 = DIRECTION ( 'NONE',  ( -0.000000000000000000, 0.000000000000000000, 1.000000000000000000 ) ) ;
#650 = ADVANCED_FACE ( 'NONE', ( #147 ), #41, .T. ) ;
#651 = EDGE_LOOP ( 'NONE', ( #489, #379, #270, #788, #309, #638 ) ) ;
#652 =( GEOMETRIC_REPRESENTATION_CONTEXT ( 3 ) GLOBAL_UNCERTAINTY_ASSIGNED_CONTEXT ( ( #394 ) ) GLOBAL_UNIT_ASSIGNED_CONTEXT ( ( #676, #735, #365 ) ) REPRESENTATION_CONTEXT ( 'NONE', 'WORKASPACE' ) );
#653 = CARTESIAN_POINT ( 'NONE',  ( 0.000000000000000000, 0.000000000000000000, 3.000000000000000000 ) ) ;
#654 = PLANE ( 'NONE',  #536 ) ;
#655 = ORIENTED_EDGE ( 'NONE', *, *, #611, .F. ) ;
#656 = VECTOR ( 'NONE', #358, 1000.000000000000000 ) ;
#657 = CARTESIAN_POINT ( 'NONE',  ( -16.55999999999999872, 0.000000000000000000, 2.333282139815938905 ) ) ;
#658 = CARTESIAN_POINT ( 'NONE',  ( 9.978050001333597763, 2.843629867620153816E-15, 2.000000000000013767 ) ) ;
#659 = CIRCLE ( 'NONE', #315, 1.631949998666401891 ) ;
#660 = ORIENTED_EDGE ( 'NONE', *, *, #40, .T. ) ;
#661 = AXIS2_PLACEMENT_3D ( 'NONE', #181, #622, #310 ) ;
#662 = EDGE_CURVE ( 'NONE', #604, #598, #580, .T. ) ;
#663 = CARTESIAN_POINT ( 'NONE',  ( 0.000000000000000000, 0.000000000000000000, 1.600000000000000089 ) ) ;
#664 = CARTESIAN_POINT ( 'NONE',  ( 0.000000000000000000, 0.000000000000000000, 0.000000000000000000 ) ) ;
#665 = ORIENTED_EDGE ( 'NONE', *, *, #410, .T. ) ;
#666 = AXIS2_PLACEMENT_3D ( 'NONE', #367, #615, #56 ) ;
#667 = CARTESIAN_POINT ( 'NONE',  ( 0.000000000000000000, 0.000000000000000000, 3.000000000000000000 ) ) ;
#668 = AXIS2_PLACEMENT_3D ( 'NONE', #49, #673, #787 ) ;
#669 = CARTESIAN_POINT ( 'NONE',  ( 11.61000000000000121, 2.843629867620153816E-15, 2.000000000000013767 ) ) ;
#670 = PRODUCT_DEFINITION_SHAPE ( 'NONE', 'NONE',  #755 ) ;
#671 = VERTEX_POINT ( 'NONE', #725 ) ;
#672 =( BOUNDED_CURVE ( )  B_SPLINE_CURVE ( 3, ( #378, #254, #300, #498 ),
 .UNSPECIFIED., .F., .F. ) 
 B_SPLINE_CURVE_WITH_KNOTS ( ( 4, 4 ),
 ( 1.308996938995746318, 1.570796326794896114 ),
 .UNSPECIFIED. ) 
 CURVE ( )  GEOMETRIC_REPRESENTATION_ITEM ( )  RATIONAL_B_SPLINE_CURVE ( ( 1.000000000000000000, 0.9942965742492069214, 0.9942965742492069214, 1.000000000000000000 ) ) 
 REPRESENTATION_ITEM ( '' )  );
#673 = DIRECTION ( 'NONE',  ( -0.000000000000000000, -0.000000000000000000, -1.000000000000000000 ) ) ;
#674 = ADVANCED_FACE ( 'NONE', ( #714 ), #461, .F. ) ;
#675 = ORIENTED_EDGE ( 'NONE', *, *, #567, .T. ) ;
#676 =( LENGTH_UNIT ( ) NAMED_UNIT ( * ) SI_UNIT ( .MILLI., .METRE. ) );
#677 = DIRECTION ( 'NONE',  ( -0.000000000000000000, 0.000000000000000000, 1.000000000000000000 ) ) ;
#678 = CARTESIAN_POINT ( 'NONE',  ( 0.000000000000000000, 0.000000000000000000, 0.000000000000000000 ) ) ;
#679 = CARTESIAN_POINT ( 'NONE',  ( 19.81898894019258606, -4.007003542364786952, 1.600000000000000089 ) ) ;
#680 = DIRECTION ( 'NONE',  ( 0.9659258262890680902, 0.2588190451025214611, 0.000000000000000000 ) ) ;
#681 = ORIENTED_EDGE ( 'NONE', *, *, #763, .T. ) ;
#682 = LINE ( 'NONE', #617, #553 ) ;
#683 = AXIS2_PLACEMENT_3D ( 'NONE', #450, #25, #520 ) ;
#684 = CARTESIAN_POINT ( 'NONE',  ( -11.60999999999999766, 0.000000000000000000, 0.000000000000000000 ) ) ;
#685 = VERTEX_POINT ( 'NONE', #104 ) ;
#686 = ADVANCED_FACE ( 'NONE', ( #160 ), #540, .F. ) ;
#687 = PRODUCT_DEFINITION_CONTEXT ( 'detailed design', #305, 'design' ) ;
#688 = CARTESIAN_POINT ( 'NONE',  ( -15.99573168334696760, -4.286043386897756768, 3.000000000000000000 ) ) ;
#689 = DIRECTION ( 'NONE',  ( 1.000000000000000000, 0.000000000000000000, 0.000000000000000000 ) ) ;
#690 = DIRECTION ( 'NONE',  ( 1.000000000000000000, 0.000000000000000000, 0.000000000000000000 ) ) ;
#691 = CARTESIAN_POINT ( 'NONE',  ( 7.774999999999998579, 9.521628863370669207E-16, 3.000000000000000000 ) ) ;
#692 = DIRECTION ( 'NONE',  ( -0.000000000000000000, -0.000000000000000000, -1.000000000000000000 ) ) ;
#693 = ORIENTED_EDGE ( 'NONE', *, *, #504, .F. ) ;
#694 = CARTESIAN_POINT ( 'NONE',  ( 11.61000000000000121, 2.843629867620153816E-15, 0.000000000000000000 ) ) ;
#695 = CARTESIAN_POINT ( 'NONE',  ( 19.81898894019258606, -4.007003542364786952, 1.600000000000000089 ) ) ;
#696 = EDGE_CURVE ( 'NONE', #409, #671, #371, .T. ) ;
#697 = CIRCLE ( 'NONE', #344, 16.55999999999999872 ) ;
#698 = PRESENTATION_LAYER_ASSIGNMENT (  '', '', ( #485 ) ) ;
#699 = VECTOR ( 'NONE', #317, 1000.000000000000000 ) ;
#700 = FILL_AREA_STYLE ('',( #70 ) ) ;
#701 = CARTESIAN_POINT ( 'NONE',  ( 20.44064593976511546, -0.9322338126005611514, 2.036971549911646306 ) ) ;
#702 = EDGE_LOOP ( 'NONE', ( #382, #23 ) ) ;
#703 = DIRECTION ( 'NONE',  ( 1.000000000000000000, 9.762817048420159591E-17, 0.000000000000000000 ) ) ;
#704 = CIRCLE ( 'NONE', #380, 16.55999999999999872 ) ;
#705 = LINE ( 'NONE', #515, #723 ) ;
#706 = VERTEX_POINT ( 'NONE', #92 ) ;
#707 = AXIS2_PLACEMENT_3D ( 'NONE', #152, #296, #343 ) ;
#708 = LINE ( 'NONE', #139, #766 ) ;
#709 = ORIENTED_EDGE ( 'NONE', *, *, #229, .T. ) ;
#710 = EDGE_CURVE ( 'NONE', #256, #713, #158, .T. ) ;
#711 = DIRECTION ( 'NONE',  ( 1.000000000000000000, 9.762817048420159591E-17, 0.000000000000000000 ) ) ;
#712 = FACE_OUTER_BOUND ( 'NONE', #765, .T. ) ;
#713 = VERTEX_POINT ( 'NONE', #648 ) ;
#714 = FACE_OUTER_BOUND ( 'NONE', #258, .T. ) ;
#715 = DIRECTION ( 'NONE',  ( -0.000000000000000000, 0.000000000000000000, 1.000000000000000000 ) ) ;
#716 = EDGE_LOOP ( 'NONE', ( #709, #744 ) ) ;
#717 = MECHANICAL_DESIGN_GEOMETRIC_PRESENTATION_REPRESENTATION (  '', ( #191 ), #440 ) ;
#718 = CARTESIAN_POINT ( 'NONE',  ( 13.45775241264305322, -9.650000000000002132, 3.000000000000000000 ) ) ;
#719 = CARTESIAN_POINT ( 'NONE',  ( 15.75656036088866152, -5.095527999498388638, 1.600000000000000089 ) ) ;
#720 =( BOUNDED_CURVE ( )  B_SPLINE_CURVE ( 3, ( #731, #295, #543, #657 ),
 .UNSPECIFIED., .F., .F. ) 
 B_SPLINE_CURVE_WITH_KNOTS ( ( 4, 4 ),
 ( 0.9962211171047506975, 1.308996938995746318 ),
 .UNSPECIFIED. ) 
 CURVE ( )  GEOMETRIC_REPRESENTATION_ITEM ( )  RATIONAL_B_SPLINE_CURVE ( ( 1.000000000000000000, 0.9918642089412585960, 0.9918642089412585960, 1.000000000000000000 ) ) 
 REPRESENTATION_ITEM ( '' )  );
#721 = EDGE_CURVE ( 'NONE', #27, #496, #583, .T. ) ;
#722 = ORIENTED_EDGE ( 'NONE', *, *, #395, .T. ) ;
#723 = VECTOR ( 'NONE', #132, 1000.000000000000000 ) ;
#724 = AXIS2_PLACEMENT_3D ( 'NONE', #417, #338, #283 ) ;
#725 = CARTESIAN_POINT ( 'NONE',  ( -19.81898894019258606, 4.007003542364788728, 1.600000000000000089 ) ) ;
#726 = FACE_OUTER_BOUND ( 'NONE', #452, .T. ) ;
#727 = COLOUR_RGB ( '',0.7960784313725489669, 0.8235294117647058432, 0.9372549019607843146 ) ;
#728 = ORIENTED_EDGE ( 'NONE', *, *, #35, .F. ) ;
#729 = EDGE_CURVE ( 'NONE', #194, #285, #354, .T. ) ;
#730 = PRODUCT ( 'middel part', 'middel part', '', ( #574 ) ) ;
#731 = CARTESIAN_POINT ( 'NONE',  ( -15.75656036088866152, 5.095527999498392191, 1.600000000000000089 ) ) ;
#732 = LINE ( 'NONE', #421, #562 ) ;
#733 = ORIENTED_EDGE ( 'NONE', *, *, #453, .T. ) ;
#734 = VECTOR ( 'NONE', #494, 1000.000000000000000 ) ;
#735 =( NAMED_UNIT ( * ) PLANE_ANGLE_UNIT ( ) SI_UNIT ( $, .RADIAN. ) );
#736 = DIRECTION ( 'NONE',  ( -0.000000000000000000, -0.000000000000000000, -1.000000000000000000 ) ) ;
#737 = VERTEX_POINT ( 'NONE', #32 ) ;
#738 = DIRECTION ( 'NONE',  ( 1.000000000000000000, 0.000000000000000000, 0.000000000000000000 ) ) ;
#739 = DIRECTION ( 'NONE',  ( -0.000000000000000000, -0.000000000000000000, -1.000000000000000000 ) ) ;
#740 = VERTEX_POINT ( 'NONE', #782 ) ;
#741 =( LENGTH_UNIT ( ) NAMED_UNIT ( * ) SI_UNIT ( .MILLI., .METRE. ) );
#742 = CYLINDRICAL_SURFACE ( 'NONE', #386, 1.631949998666401891 ) ;
#743 = LINE ( 'NONE', #304, #477 ) ;
#744 = ORIENTED_EDGE ( 'NONE', *, *, #260, .T. ) ;
#745 = DIRECTION ( 'NONE',  ( 0.000000000000000000, 0.000000000000000000, 1.000000000000000000 ) ) ;
#746 = CARTESIAN_POINT ( 'NONE',  ( -13.24194999866639932, 0.000000000000000000, 2.000000000000013767 ) ) ;
#747 = VECTOR ( 'NONE', #156, 1000.000000000000114 ) ;
#748 = CARTESIAN_POINT ( 'NONE',  ( -14.74194999866640465, 0.000000000000000000, 0.000000000000000000 ) ) ;
#749 = EDGE_CURVE ( 'NONE', #740, #753, #280, .T. ) ;
#750 = ORIENTED_EDGE ( 'NONE', *, *, #436, .F. ) ;
#751 = DIRECTION ( 'NONE',  ( -0.000000000000000000, -0.000000000000000000, -1.000000000000000000 ) ) ;
#752 = CYLINDRICAL_SURFACE ( 'NONE', #174, 7.774999999999998579 ) ;
#753 = VERTEX_POINT ( 'NONE', #151 ) ;
#754 = EDGE_LOOP ( 'NONE', ( #129, #644, #137, #405 ) ) ;
#755 = PRODUCT_DEFINITION ( 'General', '', #89, #687 ) ;
#756 = CARTESIAN_POINT ( 'NONE',  ( 11.61000000000000121, 2.843629867620153816E-15, 0.000000000000000000 ) ) ;
#757 = VERTEX_POINT ( 'NONE', #718 ) ;
#758 = EDGE_CURVE ( 'NONE', #121, #94, #120, .T. ) ;
#759 = CARTESIAN_POINT ( 'NONE',  ( -9.421118451725454770E-16, 9.650000000000000355, 0.000000000000000000 ) ) ;
#760 = LINE ( 'NONE', #324, #222 ) ;
#761 = ORIENTED_EDGE ( 'NONE', *, *, #322, .F. ) ;
#762 = DIRECTION ( 'NONE',  ( -0.03978230059144272773, 0.1484695670492412467, 0.9881164689548813662 ) ) ;
#763 = EDGE_CURVE ( 'NONE', #769, #244, #682, .T. ) ;
#764 = CARTESIAN_POINT ( 'NONE',  ( 19.53102020756496060, 5.233321091972984895, 3.000000000000000000 ) ) ;
#765 = EDGE_LOOP ( 'NONE', ( #102, #252, #46, #781, #314, #297, #329, #530, #78 ) ) ;
#766 = VECTOR ( 'NONE', #633, 1000.000000000000000 ) ;
#767 = PLANE ( 'NONE',  #374 ) ;
#768 = DIRECTION ( 'NONE',  ( 1.000000000000000000, 0.000000000000000000, 0.000000000000000000 ) ) ;
#769 = VERTEX_POINT ( 'NONE', #180 ) ;
#770 = VECTOR ( 'NONE', #692, 1000.000000000000000 ) ;
#771 = CARTESIAN_POINT ( 'NONE',  ( 11.61000000000000121, 2.843629867620153816E-15, 3.000000000000000000 ) ) ;
#772 = EDGE_LOOP ( 'NONE', ( #290, #63, #464, #500 ) ) ;
#773 = AXIS2_PLACEMENT_3D ( 'NONE', #606, #715, #359 ) ;
#774 = EDGE_CURVE ( 'NONE', #27, #194, #225, .T. ) ;
#775 = DIRECTION ( 'NONE',  ( 1.000000000000000000, 0.000000000000000000, 0.000000000000000000 ) ) ;
#776 = DIRECTION ( 'NONE',  ( -0.000000000000000000, 0.000000000000000000, 1.000000000000000000 ) ) ;
#777 = ORIENTED_EDGE ( 'NONE', *, *, #710, .T. ) ;
#778 = EDGE_CURVE ( 'NONE', #526, #422, #697, .T. ) ;
#779 = DIRECTION ( 'NONE',  ( -1.000000000000000000, 0.000000000000000000, 0.000000000000000000 ) ) ;
#780 = CYLINDRICAL_SURFACE ( 'NONE', #668, 20.21999999999999886 ) ;
#781 = ORIENTED_EDGE ( 'NONE', *, *, #527, .F. ) ;
#782 = CARTESIAN_POINT ( 'NONE',  ( 13.24194999866640288, 3.043486101843687439E-15, 3.000000000000000000 ) ) ;
#783 = EDGE_CURVE ( 'NONE', #194, #757, #361, .T. ) ;
#784 = CARTESIAN_POINT ( 'NONE',  ( -17.76867749721402490, -9.649999999999998579, 0.000000000000000000 ) ) ;
#785 = ORIENTED_EDGE ( 'NONE', *, *, #611, .T. ) ;
#786 = CARTESIAN_POINT ( 'NONE',  ( -11.60999999999999766, 0.000000000000000000, 2.000000000000013767 ) ) ;
#787 = DIRECTION ( 'NONE',  ( -1.000000000000000000, 0.000000000000000000, 0.000000000000000000 ) ) ;
#788 = ORIENTED_EDGE ( 'NONE', *, *, #636, .F. ) ;
#789 = CARTESIAN_POINT ( 'NONE',  ( 17.76867749721402134, 9.650000000000002132, 3.000000000000000000 ) ) ;
#790 = LINE ( 'NONE', #362, #747 ) ;
#791 = ORIENTED_EDGE ( 'NONE', *, *, #436, .T. ) ;
#792 = CARTESIAN_POINT ( 'NONE',  ( -20.21999999999999886, 0.000000000000000000, 2.185927830137563976 ) ) ;
#793 = UNCERTAINTY_MEASURE_WITH_UNIT (LENGTH_MEASURE( 1.000000000000000082E-05 ), #569, 'distance_accuracy_value', 'NONE');
#794 = CARTESIAN_POINT ( 'NONE',  ( -9.421118451725454770E-16, -9.650000000000000355, 3.000000000000000000 ) ) ;
#795 = ORIENTED_EDGE ( 'NONE', *, *, #516, .F. ) ;
#796 = ADVANCED_FACE ( 'NONE', ( #235 ), #250, .T. ) ;
#797 = APPLICATION_CONTEXT ( 'automotive_design' ) ;
#798 = CARTESIAN_POINT ( 'NONE',  ( -16.55999999999999872, 0.000000000000000000, 3.000000000000000000 ) ) ;
#799 = ORIENTED_EDGE ( 'NONE', *, *, #627, .F. ) ;
#800 = VECTOR ( 'NONE', #119, 1000.000000000000000 ) ;
#801 = CARTESIAN_POINT ( 'NONE',  ( 0.000000000000000000, 0.000000000000000000, 3.000000000000000000 ) ) ;
#802 = EDGE_LOOP ( 'NONE', ( #312, #582, #325, #186, #785 ) ) ;
#803 = MECHANICAL_DESIGN_GEOMETRIC_PRESENTATION_REPRESENTATION (  '', ( #485 ), #199 ) ;
#804 = AXIS2_PLACEMENT_3D ( 'NONE', #618, #64, #123 ) ;
#805 = CARTESIAN_POINT ( 'NONE',  ( 19.53102020756496060, 5.233321091972984895, 3.000000000000000000 ) ) ;
#806 = EDGE_CURVE ( 'NONE', #713, #448, #491, .T. ) ;
ENDSEC;
END-ISO-10303-21;
